<?xml version="1.0" encoding="utf-8" standalone="no"?>
<!DOCTYPE svg PUBLIC "-//W3C//DTD SVG 1.1//EN"
  "http://www.w3.org/Graphics/SVG/1.1/DTD/svg11.dtd">
<svg xmlns:xlink="http://www.w3.org/1999/xlink" width="864pt" height="288pt" viewBox="0 0 864 288" xmlns="http://www.w3.org/2000/svg" version="1.1">
 <metadata>
  <rdf:RDF xmlns:dc="http://purl.org/dc/elements/1.1/" xmlns:cc="http://creativecommons.org/ns#" xmlns:rdf="http://www.w3.org/1999/02/22-rdf-syntax-ns#">
   <cc:Work>
    <dc:type rdf:resource="http://purl.org/dc/dcmitype/StillImage"/>
    <dc:date>2024-04-23T19:16:38.658455</dc:date>
    <dc:format>image/svg+xml</dc:format>
    <dc:creator>
     <cc:Agent>
      <dc:title>Matplotlib v3.8.2, https://matplotlib.org/</dc:title>
     </cc:Agent>
    </dc:creator>
   </cc:Work>
  </rdf:RDF>
 </metadata>
 <defs>
  <style type="text/css">*{stroke-linejoin: round; stroke-linecap: butt}</style>
 </defs>
 <g id="figure_1">
  <g id="patch_1">
   <path d="M 0 288 
L 864 288 
L 864 0 
L 0 0 
z
" style="fill: #ffffff"/>
  </g>
  <g id="axes_1">
   <g id="patch_2">
    <path d="M 108 256.32 
L 777.6 256.32 
L 777.6 34.56 
L 108 34.56 
z
" style="fill: #ffffff"/>
   </g>
   <g id="matplotlib.axis_1">
    <g id="xtick_1">
     <g id="line2d_1">
      <path d="M 108 256.32 
L 108 34.56 
" clip-path="url(#peac284fd6d)" style="fill: none; stroke: #b0b0b0; stroke-width: 0.8; stroke-linecap: square"/>
     </g>
     <g id="line2d_2">
      <defs>
       <path id="mfa6a9260f0" d="M 0 0 
L 0 3.5 
" style="stroke: #000000; stroke-width: 0.8"/>
      </defs>
      <g>
       <use xlink:href="#mfa6a9260f0" x="108" y="256.32" style="stroke: #000000; stroke-width: 0.8"/>
      </g>
     </g>
     <g id="text_1">
      <!-- 100 -->
      <g transform="translate(94.63875 273.957812) scale(0.14 -0.14)">
       <defs>
        <path id="DejaVuSans-31" d="M 794 531 
L 1825 531 
L 1825 4091 
L 703 3866 
L 703 4441 
L 1819 4666 
L 2450 4666 
L 2450 531 
L 3481 531 
L 3481 0 
L 794 0 
L 794 531 
z
" transform="scale(0.015625)"/>
        <path id="DejaVuSans-30" d="M 2034 4250 
Q 1547 4250 1301 3770 
Q 1056 3291 1056 2328 
Q 1056 1369 1301 889 
Q 1547 409 2034 409 
Q 2525 409 2770 889 
Q 3016 1369 3016 2328 
Q 3016 3291 2770 3770 
Q 2525 4250 2034 4250 
z
M 2034 4750 
Q 2819 4750 3233 4129 
Q 3647 3509 3647 2328 
Q 3647 1150 3233 529 
Q 2819 -91 2034 -91 
Q 1250 -91 836 529 
Q 422 1150 422 2328 
Q 422 3509 836 4129 
Q 1250 4750 2034 4750 
z
" transform="scale(0.015625)"/>
       </defs>
       <use xlink:href="#DejaVuSans-31"/>
       <use xlink:href="#DejaVuSans-30" x="63.623047"/>
       <use xlink:href="#DejaVuSans-30" x="127.246094"/>
      </g>
     </g>
    </g>
    <g id="xtick_2">
     <g id="line2d_3">
      <path d="M 241.92 256.32 
L 241.92 34.56 
" clip-path="url(#peac284fd6d)" style="fill: none; stroke: #b0b0b0; stroke-width: 0.8; stroke-linecap: square"/>
     </g>
     <g id="line2d_4">
      <g>
       <use xlink:href="#mfa6a9260f0" x="241.92" y="256.32" style="stroke: #000000; stroke-width: 0.8"/>
      </g>
     </g>
     <g id="text_2">
      <!-- 120 -->
      <g transform="translate(228.55875 273.957812) scale(0.14 -0.14)">
       <defs>
        <path id="DejaVuSans-32" d="M 1228 531 
L 3431 531 
L 3431 0 
L 469 0 
L 469 531 
Q 828 903 1448 1529 
Q 2069 2156 2228 2338 
Q 2531 2678 2651 2914 
Q 2772 3150 2772 3378 
Q 2772 3750 2511 3984 
Q 2250 4219 1831 4219 
Q 1534 4219 1204 4116 
Q 875 4013 500 3803 
L 500 4441 
Q 881 4594 1212 4672 
Q 1544 4750 1819 4750 
Q 2544 4750 2975 4387 
Q 3406 4025 3406 3419 
Q 3406 3131 3298 2873 
Q 3191 2616 2906 2266 
Q 2828 2175 2409 1742 
Q 1991 1309 1228 531 
z
" transform="scale(0.015625)"/>
       </defs>
       <use xlink:href="#DejaVuSans-31"/>
       <use xlink:href="#DejaVuSans-32" x="63.623047"/>
       <use xlink:href="#DejaVuSans-30" x="127.246094"/>
      </g>
     </g>
    </g>
    <g id="xtick_3">
     <g id="line2d_5">
      <path d="M 375.84 256.32 
L 375.84 34.56 
" clip-path="url(#peac284fd6d)" style="fill: none; stroke: #b0b0b0; stroke-width: 0.8; stroke-linecap: square"/>
     </g>
     <g id="line2d_6">
      <g>
       <use xlink:href="#mfa6a9260f0" x="375.84" y="256.32" style="stroke: #000000; stroke-width: 0.8"/>
      </g>
     </g>
     <g id="text_3">
      <!-- 140 -->
      <g transform="translate(362.47875 273.957812) scale(0.14 -0.14)">
       <defs>
        <path id="DejaVuSans-34" d="M 2419 4116 
L 825 1625 
L 2419 1625 
L 2419 4116 
z
M 2253 4666 
L 3047 4666 
L 3047 1625 
L 3713 1625 
L 3713 1100 
L 3047 1100 
L 3047 0 
L 2419 0 
L 2419 1100 
L 313 1100 
L 313 1709 
L 2253 4666 
z
" transform="scale(0.015625)"/>
       </defs>
       <use xlink:href="#DejaVuSans-31"/>
       <use xlink:href="#DejaVuSans-34" x="63.623047"/>
       <use xlink:href="#DejaVuSans-30" x="127.246094"/>
      </g>
     </g>
    </g>
    <g id="xtick_4">
     <g id="line2d_7">
      <path d="M 509.76 256.32 
L 509.76 34.56 
" clip-path="url(#peac284fd6d)" style="fill: none; stroke: #b0b0b0; stroke-width: 0.8; stroke-linecap: square"/>
     </g>
     <g id="line2d_8">
      <g>
       <use xlink:href="#mfa6a9260f0" x="509.76" y="256.32" style="stroke: #000000; stroke-width: 0.8"/>
      </g>
     </g>
     <g id="text_4">
      <!-- 160 -->
      <g transform="translate(496.39875 273.957812) scale(0.14 -0.14)">
       <defs>
        <path id="DejaVuSans-36" d="M 2113 2584 
Q 1688 2584 1439 2293 
Q 1191 2003 1191 1497 
Q 1191 994 1439 701 
Q 1688 409 2113 409 
Q 2538 409 2786 701 
Q 3034 994 3034 1497 
Q 3034 2003 2786 2293 
Q 2538 2584 2113 2584 
z
M 3366 4563 
L 3366 3988 
Q 3128 4100 2886 4159 
Q 2644 4219 2406 4219 
Q 1781 4219 1451 3797 
Q 1122 3375 1075 2522 
Q 1259 2794 1537 2939 
Q 1816 3084 2150 3084 
Q 2853 3084 3261 2657 
Q 3669 2231 3669 1497 
Q 3669 778 3244 343 
Q 2819 -91 2113 -91 
Q 1303 -91 875 529 
Q 447 1150 447 2328 
Q 447 3434 972 4092 
Q 1497 4750 2381 4750 
Q 2619 4750 2861 4703 
Q 3103 4656 3366 4563 
z
" transform="scale(0.015625)"/>
       </defs>
       <use xlink:href="#DejaVuSans-31"/>
       <use xlink:href="#DejaVuSans-36" x="63.623047"/>
       <use xlink:href="#DejaVuSans-30" x="127.246094"/>
      </g>
     </g>
    </g>
    <g id="xtick_5">
     <g id="line2d_9">
      <path d="M 643.68 256.32 
L 643.68 34.56 
" clip-path="url(#peac284fd6d)" style="fill: none; stroke: #b0b0b0; stroke-width: 0.8; stroke-linecap: square"/>
     </g>
     <g id="line2d_10">
      <g>
       <use xlink:href="#mfa6a9260f0" x="643.68" y="256.32" style="stroke: #000000; stroke-width: 0.8"/>
      </g>
     </g>
     <g id="text_5">
      <!-- 180 -->
      <g transform="translate(630.31875 273.957812) scale(0.14 -0.14)">
       <defs>
        <path id="DejaVuSans-38" d="M 2034 2216 
Q 1584 2216 1326 1975 
Q 1069 1734 1069 1313 
Q 1069 891 1326 650 
Q 1584 409 2034 409 
Q 2484 409 2743 651 
Q 3003 894 3003 1313 
Q 3003 1734 2745 1975 
Q 2488 2216 2034 2216 
z
M 1403 2484 
Q 997 2584 770 2862 
Q 544 3141 544 3541 
Q 544 4100 942 4425 
Q 1341 4750 2034 4750 
Q 2731 4750 3128 4425 
Q 3525 4100 3525 3541 
Q 3525 3141 3298 2862 
Q 3072 2584 2669 2484 
Q 3125 2378 3379 2068 
Q 3634 1759 3634 1313 
Q 3634 634 3220 271 
Q 2806 -91 2034 -91 
Q 1263 -91 848 271 
Q 434 634 434 1313 
Q 434 1759 690 2068 
Q 947 2378 1403 2484 
z
M 1172 3481 
Q 1172 3119 1398 2916 
Q 1625 2713 2034 2713 
Q 2441 2713 2670 2916 
Q 2900 3119 2900 3481 
Q 2900 3844 2670 4047 
Q 2441 4250 2034 4250 
Q 1625 4250 1398 4047 
Q 1172 3844 1172 3481 
z
" transform="scale(0.015625)"/>
       </defs>
       <use xlink:href="#DejaVuSans-31"/>
       <use xlink:href="#DejaVuSans-38" x="63.623047"/>
       <use xlink:href="#DejaVuSans-30" x="127.246094"/>
      </g>
     </g>
    </g>
    <g id="xtick_6">
     <g id="line2d_11">
      <path d="M 777.6 256.32 
L 777.6 34.56 
" clip-path="url(#peac284fd6d)" style="fill: none; stroke: #b0b0b0; stroke-width: 0.8; stroke-linecap: square"/>
     </g>
     <g id="line2d_12">
      <g>
       <use xlink:href="#mfa6a9260f0" x="777.6" y="256.32" style="stroke: #000000; stroke-width: 0.8"/>
      </g>
     </g>
     <g id="text_6">
      <!-- 200 -->
      <g transform="translate(764.23875 273.957812) scale(0.14 -0.14)">
       <use xlink:href="#DejaVuSans-32"/>
       <use xlink:href="#DejaVuSans-30" x="63.623047"/>
       <use xlink:href="#DejaVuSans-30" x="127.246094"/>
      </g>
     </g>
    </g>
    <g id="text_7">
     <!-- Time (ms) -->
     <g transform="translate(407.521094 291.507187) scale(0.14 -0.14)">
      <defs>
       <path id="DejaVuSans-54" d="M -19 4666 
L 3928 4666 
L 3928 4134 
L 2272 4134 
L 2272 0 
L 1638 0 
L 1638 4134 
L -19 4134 
L -19 4666 
z
" transform="scale(0.015625)"/>
       <path id="DejaVuSans-69" d="M 603 3500 
L 1178 3500 
L 1178 0 
L 603 0 
L 603 3500 
z
M 603 4863 
L 1178 4863 
L 1178 4134 
L 603 4134 
L 603 4863 
z
" transform="scale(0.015625)"/>
       <path id="DejaVuSans-6d" d="M 3328 2828 
Q 3544 3216 3844 3400 
Q 4144 3584 4550 3584 
Q 5097 3584 5394 3201 
Q 5691 2819 5691 2113 
L 5691 0 
L 5113 0 
L 5113 2094 
Q 5113 2597 4934 2840 
Q 4756 3084 4391 3084 
Q 3944 3084 3684 2787 
Q 3425 2491 3425 1978 
L 3425 0 
L 2847 0 
L 2847 2094 
Q 2847 2600 2669 2842 
Q 2491 3084 2119 3084 
Q 1678 3084 1418 2786 
Q 1159 2488 1159 1978 
L 1159 0 
L 581 0 
L 581 3500 
L 1159 3500 
L 1159 2956 
Q 1356 3278 1631 3431 
Q 1906 3584 2284 3584 
Q 2666 3584 2933 3390 
Q 3200 3197 3328 2828 
z
" transform="scale(0.015625)"/>
       <path id="DejaVuSans-65" d="M 3597 1894 
L 3597 1613 
L 953 1613 
Q 991 1019 1311 708 
Q 1631 397 2203 397 
Q 2534 397 2845 478 
Q 3156 559 3463 722 
L 3463 178 
Q 3153 47 2828 -22 
Q 2503 -91 2169 -91 
Q 1331 -91 842 396 
Q 353 884 353 1716 
Q 353 2575 817 3079 
Q 1281 3584 2069 3584 
Q 2775 3584 3186 3129 
Q 3597 2675 3597 1894 
z
M 3022 2063 
Q 3016 2534 2758 2815 
Q 2500 3097 2075 3097 
Q 1594 3097 1305 2825 
Q 1016 2553 972 2059 
L 3022 2063 
z
" transform="scale(0.015625)"/>
       <path id="DejaVuSans-20" transform="scale(0.015625)"/>
       <path id="DejaVuSans-28" d="M 1984 4856 
Q 1566 4138 1362 3434 
Q 1159 2731 1159 2009 
Q 1159 1288 1364 580 
Q 1569 -128 1984 -844 
L 1484 -844 
Q 1016 -109 783 600 
Q 550 1309 550 2009 
Q 550 2706 781 3412 
Q 1013 4119 1484 4856 
L 1984 4856 
z
" transform="scale(0.015625)"/>
       <path id="DejaVuSans-73" d="M 2834 3397 
L 2834 2853 
Q 2591 2978 2328 3040 
Q 2066 3103 1784 3103 
Q 1356 3103 1142 2972 
Q 928 2841 928 2578 
Q 928 2378 1081 2264 
Q 1234 2150 1697 2047 
L 1894 2003 
Q 2506 1872 2764 1633 
Q 3022 1394 3022 966 
Q 3022 478 2636 193 
Q 2250 -91 1575 -91 
Q 1294 -91 989 -36 
Q 684 19 347 128 
L 347 722 
Q 666 556 975 473 
Q 1284 391 1588 391 
Q 1994 391 2212 530 
Q 2431 669 2431 922 
Q 2431 1156 2273 1281 
Q 2116 1406 1581 1522 
L 1381 1569 
Q 847 1681 609 1914 
Q 372 2147 372 2553 
Q 372 3047 722 3315 
Q 1072 3584 1716 3584 
Q 2034 3584 2315 3537 
Q 2597 3491 2834 3397 
z
" transform="scale(0.015625)"/>
       <path id="DejaVuSans-29" d="M 513 4856 
L 1013 4856 
Q 1481 4119 1714 3412 
Q 1947 2706 1947 2009 
Q 1947 1309 1714 600 
Q 1481 -109 1013 -844 
L 513 -844 
Q 928 -128 1133 580 
Q 1338 1288 1338 2009 
Q 1338 2731 1133 3434 
Q 928 4138 513 4856 
z
" transform="scale(0.015625)"/>
      </defs>
      <use xlink:href="#DejaVuSans-54"/>
      <use xlink:href="#DejaVuSans-69" x="57.958984"/>
      <use xlink:href="#DejaVuSans-6d" x="85.742188"/>
      <use xlink:href="#DejaVuSans-65" x="183.154297"/>
      <use xlink:href="#DejaVuSans-20" x="244.677734"/>
      <use xlink:href="#DejaVuSans-28" x="276.464844"/>
      <use xlink:href="#DejaVuSans-6d" x="315.478516"/>
      <use xlink:href="#DejaVuSans-73" x="412.890625"/>
      <use xlink:href="#DejaVuSans-29" x="464.990234"/>
     </g>
    </g>
   </g>
   <g id="matplotlib.axis_2">
    <g id="ytick_1">
     <g id="line2d_13">
      <path d="M 108 225.008229 
L 777.6 225.008229 
" clip-path="url(#peac284fd6d)" style="fill: none; stroke: #b0b0b0; stroke-width: 0.8; stroke-linecap: square"/>
     </g>
     <g id="line2d_14">
      <defs>
       <path id="mdeb51377bb" d="M 0 0 
L -3.5 0 
" style="stroke: #000000; stroke-width: 0.8"/>
      </defs>
      <g>
       <use xlink:href="#mdeb51377bb" x="108" y="225.008229" style="stroke: #000000; stroke-width: 0.8"/>
      </g>
     </g>
     <g id="text_8">
      <!-- −60 -->
      <g transform="translate(71.453437 230.327135) scale(0.14 -0.14)">
       <defs>
        <path id="DejaVuSans-2212" d="M 678 2272 
L 4684 2272 
L 4684 1741 
L 678 1741 
L 678 2272 
z
" transform="scale(0.015625)"/>
       </defs>
       <use xlink:href="#DejaVuSans-2212"/>
       <use xlink:href="#DejaVuSans-36" x="83.789062"/>
       <use xlink:href="#DejaVuSans-30" x="147.412109"/>
      </g>
     </g>
    </g>
    <g id="ytick_2">
     <g id="line2d_15">
      <path d="M 108 182.612348 
L 777.6 182.612348 
" clip-path="url(#peac284fd6d)" style="fill: none; stroke: #b0b0b0; stroke-width: 0.8; stroke-linecap: square"/>
     </g>
     <g id="line2d_16">
      <g>
       <use xlink:href="#mdeb51377bb" x="108" y="182.612348" style="stroke: #000000; stroke-width: 0.8"/>
      </g>
     </g>
     <g id="text_9">
      <!-- −40 -->
      <g transform="translate(71.453437 187.931254) scale(0.14 -0.14)">
       <use xlink:href="#DejaVuSans-2212"/>
       <use xlink:href="#DejaVuSans-34" x="83.789062"/>
       <use xlink:href="#DejaVuSans-30" x="147.412109"/>
      </g>
     </g>
    </g>
    <g id="ytick_3">
     <g id="line2d_17">
      <path d="M 108 140.216467 
L 777.6 140.216467 
" clip-path="url(#peac284fd6d)" style="fill: none; stroke: #b0b0b0; stroke-width: 0.8; stroke-linecap: square"/>
     </g>
     <g id="line2d_18">
      <g>
       <use xlink:href="#mdeb51377bb" x="108" y="140.216467" style="stroke: #000000; stroke-width: 0.8"/>
      </g>
     </g>
     <g id="text_10">
      <!-- −20 -->
      <g transform="translate(71.453437 145.535373) scale(0.14 -0.14)">
       <use xlink:href="#DejaVuSans-2212"/>
       <use xlink:href="#DejaVuSans-32" x="83.789062"/>
       <use xlink:href="#DejaVuSans-30" x="147.412109"/>
      </g>
     </g>
    </g>
    <g id="ytick_4">
     <g id="line2d_19">
      <path d="M 108 97.820586 
L 777.6 97.820586 
" clip-path="url(#peac284fd6d)" style="fill: none; stroke: #b0b0b0; stroke-width: 0.8; stroke-linecap: square"/>
     </g>
     <g id="line2d_20">
      <g>
       <use xlink:href="#mdeb51377bb" x="108" y="97.820586" style="stroke: #000000; stroke-width: 0.8"/>
      </g>
     </g>
     <g id="text_11">
      <!-- 0 -->
      <g transform="translate(92.0925 103.139493) scale(0.14 -0.14)">
       <use xlink:href="#DejaVuSans-30"/>
      </g>
     </g>
    </g>
    <g id="ytick_5">
     <g id="line2d_21">
      <path d="M 108 55.424706 
L 777.6 55.424706 
" clip-path="url(#peac284fd6d)" style="fill: none; stroke: #b0b0b0; stroke-width: 0.8; stroke-linecap: square"/>
     </g>
     <g id="line2d_22">
      <g>
       <use xlink:href="#mdeb51377bb" x="108" y="55.424706" style="stroke: #000000; stroke-width: 0.8"/>
      </g>
     </g>
     <g id="text_12">
      <!-- 20 -->
      <g transform="translate(83.185 60.743612) scale(0.14 -0.14)">
       <use xlink:href="#DejaVuSans-32"/>
       <use xlink:href="#DejaVuSans-30" x="63.623047"/>
      </g>
     </g>
    </g>
    <g id="text_13">
     <!-- $V_{m}$ (mV) -->
     <g transform="translate(64.541875 174.49) rotate(-90) scale(0.14 -0.14)">
      <defs>
       <path id="DejaVuSans-Oblique-56" d="M 1319 0 
L 500 4666 
L 1119 4666 
L 1797 653 
L 4063 4666 
L 4750 4666 
L 2053 0 
L 1319 0 
z
" transform="scale(0.015625)"/>
       <path id="DejaVuSans-Oblique-6d" d="M 5747 2113 
L 5338 0 
L 4763 0 
L 5166 2094 
Q 5191 2228 5203 2325 
Q 5216 2422 5216 2491 
Q 5216 2772 5059 2928 
Q 4903 3084 4622 3084 
Q 4203 3084 3875 2770 
Q 3547 2456 3450 1953 
L 3066 0 
L 2491 0 
L 2900 2094 
Q 2925 2209 2937 2307 
Q 2950 2406 2950 2484 
Q 2950 2769 2794 2926 
Q 2638 3084 2363 3084 
Q 1938 3084 1609 2770 
Q 1281 2456 1184 1953 
L 800 0 
L 225 0 
L 909 3500 
L 1484 3500 
L 1375 2956 
Q 1609 3263 1923 3423 
Q 2238 3584 2597 3584 
Q 2978 3584 3223 3384 
Q 3469 3184 3519 2828 
Q 3781 3197 4126 3390 
Q 4472 3584 4856 3584 
Q 5306 3584 5551 3325 
Q 5797 3066 5797 2591 
Q 5797 2488 5784 2364 
Q 5772 2241 5747 2113 
z
" transform="scale(0.015625)"/>
       <path id="DejaVuSans-56" d="M 1831 0 
L 50 4666 
L 709 4666 
L 2188 738 
L 3669 4666 
L 4325 4666 
L 2547 0 
L 1831 0 
z
" transform="scale(0.015625)"/>
      </defs>
      <use xlink:href="#DejaVuSans-Oblique-56" transform="translate(0 0.125)"/>
      <use xlink:href="#DejaVuSans-Oblique-6d" transform="translate(68.408203 -16.28125) scale(0.7)"/>
      <use xlink:href="#DejaVuSans-20" transform="translate(139.331055 0.125)"/>
      <use xlink:href="#DejaVuSans-28" transform="translate(171.118164 0.125)"/>
      <use xlink:href="#DejaVuSans-6d" transform="translate(210.131836 0.125)"/>
      <use xlink:href="#DejaVuSans-56" transform="translate(307.543945 0.125)"/>
      <use xlink:href="#DejaVuSans-29" transform="translate(375.952148 0.125)"/>
     </g>
    </g>
   </g>
   <g id="line2d_23">
    <path d="M 108 213.468505 
L 109.3392 213.656921 
L 110.0088 213.663936 
L 110.6784 214.08894 
L 111.348 214.865163 
L 112.0176 215.39765 
L 112.6872 215.691418 
L 114.0264 217.956092 
L 114.696 219.173153 
L 115.3656 220.010145 
L 116.0352 220.52673 
L 116.7048 221.252519 
L 117.3744 221.805958 
L 118.044 222.531576 
L 118.7136 223.085811 
L 119.3832 223.808826 
L 120.0528 224.364568 
L 120.7224 225.430788 
L 121.392 226.261128 
L 122.0616 226.780112 
L 126.0792 230.915481 
L 126.7488 231.461223 
L 128.088 232.106855 
L 128.7576 232.323662 
L 129.4272 232.790817 
L 130.0968 233.453131 
L 132.1056 234.927501 
L 133.4448 235.891355 
L 134.784 236.344033 
L 136.1232 236.585976 
L 137.4624 237.187761 
L 138.8016 237.419725 
L 140.8104 237.495844 
L 143.4888 237.332859 
L 144.1584 237.256632 
L 145.4976 237.55337 
L 146.8368 237.527934 
L 149.5152 237.154935 
L 152.8632 236.406806 
L 156.2112 235.441679 
L 160.2288 234.05702 
L 164.916 232.185208 
L 170.2728 229.768614 
L 175.6296 227.110323 
L 182.3256 223.518456 
L 190.3608 218.921542 
L 201.744 212.111765 
L 209.1096 207.524956 
L 210.4488 207.645706 
L 211.788 207.33951 
L 213.7968 206.532218 
L 214.4664 206.216631 
L 215.8056 206.558848 
L 217.1448 206.473532 
L 219.1536 205.958428 
L 221.1624 205.222086 
L 222.5016 205.680324 
L 223.1712 205.743454 
L 224.5104 206.649047 
L 225.18 206.876324 
L 225.8496 207.496748 
L 226.5192 208.50218 
L 227.1888 210.187599 
L 227.8584 211.458179 
L 228.528 212.238395 
L 229.1976 212.769682 
L 230.5368 213.443371 
L 231.2064 213.663554 
L 233.8848 216.08741 
L 234.5544 216.450573 
L 235.8936 217.661621 
L 236.5632 218.005631 
L 237.9024 219.176955 
L 239.2416 219.750589 
L 240.5808 220.071457 
L 242.5896 220.316319 
L 243.9288 220.372393 
L 244.5984 220.770753 
L 245.268 221.476743 
L 245.9376 221.964567 
L 246.6072 222.62246 
L 247.2768 223.115088 
L 248.616 223.62801 
L 249.9552 223.861748 
L 250.6248 224.608671 
L 251.2944 225.183741 
L 251.964 225.478225 
L 253.3032 226.391515 
L 253.9728 226.620048 
L 255.9816 228.040693 
L 256.6512 228.781704 
L 257.3208 229.927045 
L 257.9904 230.742948 
L 258.66 231.231833 
L 259.9992 232.355359 
L 263.3472 233.971582 
L 264.6864 234.242159 
L 266.0256 234.886143 
L 267.3648 235.135996 
L 269.3736 235.221664 
L 270.7128 235.172214 
L 274.0608 236.216224 
L 275.4 236.236926 
L 276.7392 236.642374 
L 278.0784 236.690497 
L 280.0872 236.513381 
L 282.7656 236.052678 
L 286.1136 235.235836 
L 290.1312 233.988923 
L 291.4704 234.069434 
L 292.8096 233.824612 
L 295.488 233.03481 
L 299.5056 231.562 
L 304.1928 229.572888 
L 309.5496 227.033575 
L 315.576 223.914373 
L 322.9416 219.823143 
L 329.6376 215.927224 
L 330.9768 215.974447 
L 331.6464 215.818566 
L 332.9856 216.168223 
L 334.3248 216.00183 
L 336.3336 215.422505 
L 339.6816 214.158516 
L 344.3688 212.100806 
L 345.708 211.472535 
L 347.0472 211.733341 
L 348.3864 211.542168 
L 350.3952 210.952393 
L 351.7344 211.384195 
L 353.0736 211.334986 
L 353.7432 211.699267 
L 354.4128 212.439563 
L 355.0824 213.390928 
L 355.752 214.025448 
L 356.4216 214.823011 
L 357.0912 215.840945 
L 358.4304 217.405029 
L 359.1 218.454123 
L 359.7696 219.19993 
L 361.1088 220.025629 
L 362.448 220.489587 
L 364.4568 220.859713 
L 365.796 221.679401 
L 367.1352 222.020405 
L 369.144 222.190969 
L 370.4832 222.188942 
L 371.8224 222.82432 
L 372.492 222.956679 
L 373.8312 224.402907 
L 374.5008 225.111272 
L 375.1704 225.623456 
L 376.5096 226.154127 
L 377.1792 226.310421 
L 377.8488 226.772237 
L 378.5184 227.480594 
L 379.188 227.97877 
L 380.5272 228.494351 
L 381.1968 228.649857 
L 381.8664 229.09578 
L 382.536 230.092417 
L 383.2056 230.824151 
L 383.8752 231.219861 
L 385.2144 231.561448 
L 385.884 231.628042 
L 386.5536 231.965711 
L 387.2232 232.523201 
L 388.5624 233.394397 
L 389.232 234.041737 
L 389.9016 234.480336 
L 390.5712 235.293221 
L 391.2408 235.902843 
L 392.58 236.494282 
L 393.9192 236.780809 
L 395.928 236.948318 
L 398.6064 236.869613 
L 399.276 236.809455 
L 400.6152 237.139347 
L 401.9544 237.139197 
L 402.624 237.083522 
L 403.9632 237.401234 
L 405.3024 237.380562 
L 407.3112 237.11825 
L 409.9896 236.563793 
L 413.3376 235.65012 
L 416.016 234.781079 
L 417.3552 234.846044 
L 418.6944 234.591373 
L 421.3728 233.787205 
L 425.3904 232.296878 
L 430.0776 230.290221 
L 435.4344 227.732645 
L 441.4608 224.593269 
L 448.8264 220.475109 
L 458.2008 214.949372 
L 468.2448 208.799222 
L 470.9232 207.060766 
L 472.2624 207.155696 
L 473.6016 206.839081 
L 475.6104 206.009073 
L 478.2888 204.586658 
L 480.2976 203.216892 
L 480.9672 202.689913 
L 482.976 202.461366 
L 483.6456 202.22131 
L 485.6544 204.49626 
L 486.324 205.479099 
L 486.9936 206.828767 
L 487.6632 207.867949 
L 488.3328 208.565768 
L 489.0024 209.04757 
L 490.3416 210.536041 
L 491.6808 211.267072 
L 493.02 211.640608 
L 495.0288 211.868422 
L 495.6984 211.885056 
L 497.0376 212.712175 
L 498.3768 213.016796 
L 499.716 213.934151 
L 501.0552 214.295554 
L 501.7248 214.818275 
L 502.3944 215.667118 
L 503.064 216.263754 
L 504.4032 216.857735 
L 505.7424 218.662555 
L 506.412 219.1427 
L 507.7512 219.710055 
L 509.0904 220.036133 
L 509.76 221.311796 
L 510.4296 222.343498 
L 511.0992 222.942605 
L 511.7688 223.347872 
L 513.7776 225.259378 
L 514.4472 225.813805 
L 515.7864 226.466511 
L 517.1256 226.870866 
L 517.7952 227.325582 
L 518.4648 227.991101 
L 519.1344 228.432899 
L 519.804 229.325447 
L 520.4736 230.001231 
L 521.1432 230.396698 
L 523.152 231.311855 
L 523.8216 231.671444 
L 527.1696 234.271799 
L 528.5088 234.763026 
L 531.1872 235.40901 
L 531.8568 235.657668 
L 532.5264 235.786498 
L 533.8656 236.382316 
L 535.8744 236.87615 
L 536.544 237.09507 
L 537.8832 237.238199 
L 539.892 237.186755 
L 542.5704 236.870379 
L 545.9184 236.206612 
L 549.2664 235.315185 
L 550.6056 235.43196 
L 551.9448 235.229316 
L 554.6232 234.524846 
L 557.9712 233.412294 
L 561.9888 231.856518 
L 566.676 229.807223 
L 572.0328 227.217779 
L 578.0592 224.054485 
L 585.4248 219.919688 
L 595.4688 213.987547 
L 600.156 211.146028 
L 601.4952 211.243608 
L 602.8344 210.901513 
L 604.8432 210.099374 
L 606.1824 210.420414 
L 607.5216 210.267736 
L 609.5304 209.706471 
L 612.2088 208.711137 
L 614.8872 207.560799 
L 616.2264 207.920313 
L 617.5656 210.624223 
L 618.2352 211.31671 
L 618.9048 211.741439 
L 620.244 212.204555 
L 621.5832 212.395758 
L 623.592 212.406487 
L 624.2616 212.360656 
L 626.2704 213.669446 
L 626.94 214.557353 
L 627.6096 215.172736 
L 628.2792 215.532055 
L 630.288 217.441059 
L 630.9576 217.999905 
L 631.6272 218.755781 
L 632.2968 219.333811 
L 633.636 219.966777 
L 634.3056 220.163748 
L 635.6448 221.144657 
L 636.984 221.603057 
L 638.9928 221.909996 
L 639.6624 221.957029 
L 641.0016 222.691968 
L 641.6712 223.97572 
L 642.3408 224.978709 
L 643.0104 225.551494 
L 643.68 226.277355 
L 644.3496 227.174309 
L 645.0192 227.818633 
L 646.3584 228.56086 
L 647.6976 229.011714 
L 648.3672 229.177151 
L 649.7064 230.892331 
L 650.376 231.820218 
L 651.0456 232.461327 
L 651.7152 233.424899 
L 652.3848 234.120251 
L 653.0544 234.520121 
L 653.724 234.782703 
L 655.0632 235.610591 
L 655.7328 235.840357 
L 656.4024 236.270688 
L 657.072 236.867891 
L 657.7416 237.282198 
L 659.0808 237.70802 
L 661.0896 237.979267 
L 663.0984 238.02392 
L 665.7768 237.845024 
L 666.4464 237.765829 
L 667.7856 238.049997 
L 669.1248 238.015917 
L 671.8032 237.629207 
L 675.1512 236.866097 
L 677.8296 236.097919 
L 679.1688 236.186596 
L 680.508 235.962374 
L 683.1864 235.222058 
L 687.204 233.820408 
L 691.8912 231.903734 
L 697.248 229.432602 
L 703.2744 226.370515 
L 709.9704 222.697718 
L 718.0056 218.026383 
L 729.3888 211.133805 
L 736.0848 206.853577 
L 738.7632 204.923463 
L 740.772 203.208897 
L 742.1112 201.799251 
L 743.4504 201.094091 
L 744.7896 201.115606 
L 745.4592 200.988588 
L 746.1288 200.745578 
L 746.7984 200.374207 
L 747.468 199.798718 
L 748.1376 198.844554 
L 748.8072 196.878428 
L 749.4768 188.561325 
L 750.1464 148.578451 
L 750.816 52.597834 
L 751.4856 63.566052 
L 752.1552 85.522617 
L 752.8248 101.367193 
L 754.164 125.663254 
L 756.1728 159.347042 
L 757.512 179.233191 
L 758.8512 196.760391 
L 759.5208 202.684288 
L 760.1904 206.451548 
L 760.86 208.99052 
L 762.1992 212.661427 
L 762.8688 214.087674 
L 764.8776 217.303618 
L 765.5472 217.987932 
L 766.2168 219.2569 
L 766.8864 220.256145 
L 767.556 220.898523 
L 768.2256 222.077283 
L 770.904 225.686889 
L 772.2432 226.540878 
L 773.5824 227.04745 
L 775.5912 227.472232 
L 776.9304 228.208455 
L 777.6 228.395065 
L 777.6 228.395065 
" clip-path="url(#peac284fd6d)" style="fill: none; stroke: #000000; stroke-width: 1.5; stroke-linecap: square"/>
   </g>
   <g id="line2d_24">
    <path d="M 108 153.435139 
L 110.0088 155.112435 
L 111.348 156.388037 
L 112.6872 157.921096 
L 114.0264 159.792721 
L 115.3656 162.179932 
L 116.0352 143.413651 
L 116.7048 140.043867 
L 117.3744 138.300729 
L 118.044 137.457737 
L 118.7136 137.060897 
L 119.3832 136.900376 
L 120.7224 136.892447 
L 124.0704 137.102495 
L 127.4184 136.969674 
L 133.4448 136.477106 
L 146.1672 136.324342 
L 192.3696 137.820782 
L 212.4576 138.411375 
L 216.4752 138.987632 
L 223.8408 140.604766 
L 225.8496 141.408952 
L 227.1888 142.190484 
L 228.528 143.293162 
L 234.5544 148.874409 
L 236.5632 151.072657 
L 238.572 153.54549 
L 241.92 158.090483 
L 244.5984 162.014546 
L 245.9376 164.278977 
L 247.2768 166.902294 
L 249.2856 171.361721 
L 249.9552 148.357515 
L 250.6248 143.499386 
L 251.2944 141.004048 
L 251.964 139.693461 
L 252.6336 138.970961 
L 253.3032 138.564035 
L 254.6424 138.174493 
L 257.3208 137.843173 
L 260.6688 137.546782 
L 271.3824 136.060818 
L 274.0608 135.950529 
L 279.4176 136.031566 
L 294.1488 136.471658 
L 302.8536 136.944354 
L 319.5936 137.620179 
L 331.6464 138.066273 
L 334.3248 138.536912 
L 338.3424 139.262445 
L 343.6992 139.965926 
L 347.7168 140.507092 
L 352.404 141.582729 
L 354.4128 142.254479 
L 355.752 142.939365 
L 357.0912 143.832567 
L 359.1 145.515484 
L 365.796 152.114781 
L 369.144 155.748947 
L 371.8224 158.922142 
L 373.1616 160.766638 
L 374.5008 162.972206 
L 375.84 165.573602 
L 377.8488 170.003233 
L 379.8576 175.124367 
L 383.2056 184.508016 
L 383.8752 156.761086 
L 384.5448 148.961277 
L 385.2144 145.297943 
L 385.884 143.292321 
L 386.5536 142.099021 
L 387.2232 141.359451 
L 387.8928 140.883009 
L 389.232 140.333164 
L 391.2408 139.881197 
L 393.9192 139.281592 
L 401.9544 137.076065 
L 404.6328 136.67269 
L 409.9896 136.18064 
L 416.016 135.838516 
L 419.364 135.842497 
L 453.5136 136.312168 
L 473.6016 136.582604 
L 478.2888 137.014557 
L 484.3152 137.359393 
L 485.6544 137.738686 
L 486.9936 138.371516 
L 489.0024 139.711706 
L 494.3592 143.457094 
L 499.0464 146.345098 
L 501.7248 148.312007 
L 503.7336 150.12195 
L 505.7424 152.273331 
L 507.7512 154.854759 
L 509.76 157.67312 
L 511.0992 159.955541 
L 512.4384 162.582363 
L 513.7776 165.545659 
L 515.7864 170.628997 
L 517.1256 174.283605 
L 517.7952 150.227392 
L 518.4648 144.866981 
L 519.1344 142.184486 
L 519.804 140.795501 
L 520.4736 140.050963 
L 521.1432 139.649148 
L 522.4824 139.2882 
L 529.1784 138.201136 
L 533.8656 137.175046 
L 537.2136 136.733398 
L 544.5792 136.149391 
L 549.936 135.921566 
L 555.9624 136.026907 
L 602.1648 136.936419 
L 606.852 137.536043 
L 612.2088 138.449646 
L 616.896 139.17144 
L 618.2352 139.78383 
L 622.9224 142.340267 
L 626.94 144.330069 
L 628.9488 145.76007 
L 630.9576 147.458197 
L 632.9664 149.452445 
L 636.3144 153.118341 
L 639.6624 157.221831 
L 641.0016 159.017816 
L 642.3408 161.177925 
L 643.68 163.817326 
L 645.0192 166.934203 
L 647.028 172.323674 
L 649.7064 180.207558 
L 651.0456 184.487914 
L 651.7152 156.891317 
L 652.3848 149.201242 
L 653.0544 145.648587 
L 653.724 143.75266 
L 654.3936 142.664416 
L 655.0632 142.014174 
L 655.7328 141.606515 
L 657.072 141.143635 
L 661.0896 140.117844 
L 668.4552 137.68334 
L 671.8032 136.989373 
L 675.8208 136.374339 
L 679.1688 136.037095 
L 685.1952 135.831655 
L 694.5696 135.691225 
L 710.64 135.72186 
L 736.7544 135.747351 
L 741.4416 135.572667 
L 744.7896 135.381912 
L 748.8072 135.496444 
L 749.4768 135.150247 
L 750.1464 133.395219 
L 750.816 127.888405 
L 751.4856 121.386113 
L 752.1552 116.403123 
L 752.8248 113.443333 
L 753.4944 112.148556 
L 754.164 112.026303 
L 754.8336 112.708972 
L 755.5032 113.939893 
L 756.8424 117.490309 
L 758.1816 121.875271 
L 760.86 131.076395 
L 762.1992 134.820475 
L 763.5384 137.953911 
L 765.5472 141.904672 
L 771.5736 152.832183 
L 774.9216 159.628386 
L 776.9304 164.075366 
L 777.6 165.681033 
L 777.6 165.681033 
" clip-path="url(#peac284fd6d)" style="fill: none; stroke: #4169e1; stroke-width: 1.5; stroke-linecap: square"/>
   </g>
   <g id="patch_3">
    <path d="M 108 256.32 
L 108 34.56 
" style="fill: none; stroke: #000000; stroke-width: 0.8; stroke-linejoin: miter; stroke-linecap: square"/>
   </g>
   <g id="patch_4">
    <path d="M 777.6 256.32 
L 777.6 34.56 
" style="fill: none; stroke: #000000; stroke-width: 0.8; stroke-linejoin: miter; stroke-linecap: square"/>
   </g>
   <g id="patch_5">
    <path d="M 108 256.32 
L 777.6 256.32 
" style="fill: none; stroke: #000000; stroke-width: 0.8; stroke-linejoin: miter; stroke-linecap: square"/>
   </g>
   <g id="patch_6">
    <path d="M 108 34.56 
L 777.6 34.56 
" style="fill: none; stroke: #000000; stroke-width: 0.8; stroke-linejoin: miter; stroke-linecap: square"/>
   </g>
   <g id="legend_1">
    <g id="patch_7">
     <path d="M 115 71.91625 
L 190.501563 71.91625 
Q 192.501563 71.91625 192.501563 69.91625 
L 192.501563 41.56 
Q 192.501563 39.56 190.501563 39.56 
L 115 39.56 
Q 113 39.56 113 41.56 
L 113 69.91625 
Q 113 71.91625 115 71.91625 
z
" style="fill: #ffffff; opacity: 0.8; stroke: #cccccc; stroke-linejoin: miter"/>
    </g>
    <g id="line2d_25">
     <path d="M 117 47.658437 
L 127 47.658437 
L 137 47.658437 
" style="fill: none; stroke: #000000; stroke-width: 1.5; stroke-linecap: square"/>
    </g>
    <g id="text_14">
     <!-- Soma -->
     <g transform="translate(145 51.158437) scale(0.1 -0.1)">
      <defs>
       <path id="DejaVuSans-53" d="M 3425 4513 
L 3425 3897 
Q 3066 4069 2747 4153 
Q 2428 4238 2131 4238 
Q 1616 4238 1336 4038 
Q 1056 3838 1056 3469 
Q 1056 3159 1242 3001 
Q 1428 2844 1947 2747 
L 2328 2669 
Q 3034 2534 3370 2195 
Q 3706 1856 3706 1288 
Q 3706 609 3251 259 
Q 2797 -91 1919 -91 
Q 1588 -91 1214 -16 
Q 841 59 441 206 
L 441 856 
Q 825 641 1194 531 
Q 1563 422 1919 422 
Q 2459 422 2753 634 
Q 3047 847 3047 1241 
Q 3047 1584 2836 1778 
Q 2625 1972 2144 2069 
L 1759 2144 
Q 1053 2284 737 2584 
Q 422 2884 422 3419 
Q 422 4038 858 4394 
Q 1294 4750 2059 4750 
Q 2388 4750 2728 4690 
Q 3069 4631 3425 4513 
z
" transform="scale(0.015625)"/>
       <path id="DejaVuSans-6f" d="M 1959 3097 
Q 1497 3097 1228 2736 
Q 959 2375 959 1747 
Q 959 1119 1226 758 
Q 1494 397 1959 397 
Q 2419 397 2687 759 
Q 2956 1122 2956 1747 
Q 2956 2369 2687 2733 
Q 2419 3097 1959 3097 
z
M 1959 3584 
Q 2709 3584 3137 3096 
Q 3566 2609 3566 1747 
Q 3566 888 3137 398 
Q 2709 -91 1959 -91 
Q 1206 -91 779 398 
Q 353 888 353 1747 
Q 353 2609 779 3096 
Q 1206 3584 1959 3584 
z
" transform="scale(0.015625)"/>
       <path id="DejaVuSans-61" d="M 2194 1759 
Q 1497 1759 1228 1600 
Q 959 1441 959 1056 
Q 959 750 1161 570 
Q 1363 391 1709 391 
Q 2188 391 2477 730 
Q 2766 1069 2766 1631 
L 2766 1759 
L 2194 1759 
z
M 3341 1997 
L 3341 0 
L 2766 0 
L 2766 531 
Q 2569 213 2275 61 
Q 1981 -91 1556 -91 
Q 1019 -91 701 211 
Q 384 513 384 1019 
Q 384 1609 779 1909 
Q 1175 2209 1959 2209 
L 2766 2209 
L 2766 2266 
Q 2766 2663 2505 2880 
Q 2244 3097 1772 3097 
Q 1472 3097 1187 3025 
Q 903 2953 641 2809 
L 641 3341 
Q 956 3463 1253 3523 
Q 1550 3584 1831 3584 
Q 2591 3584 2966 3190 
Q 3341 2797 3341 1997 
z
" transform="scale(0.015625)"/>
      </defs>
      <use xlink:href="#DejaVuSans-53"/>
      <use xlink:href="#DejaVuSans-6f" x="63.476562"/>
      <use xlink:href="#DejaVuSans-6d" x="124.658203"/>
      <use xlink:href="#DejaVuSans-61" x="222.070312"/>
     </g>
    </g>
    <g id="line2d_26">
     <path d="M 117 62.336562 
L 127 62.336562 
L 137 62.336562 
" style="fill: none; stroke: #4169e1; stroke-width: 1.5; stroke-linecap: square"/>
    </g>
    <g id="text_15">
     <!-- Dendrite -->
     <g transform="translate(145 65.836562) scale(0.1 -0.1)">
      <defs>
       <path id="DejaVuSans-44" d="M 1259 4147 
L 1259 519 
L 2022 519 
Q 2988 519 3436 956 
Q 3884 1394 3884 2338 
Q 3884 3275 3436 3711 
Q 2988 4147 2022 4147 
L 1259 4147 
z
M 628 4666 
L 1925 4666 
Q 3281 4666 3915 4102 
Q 4550 3538 4550 2338 
Q 4550 1131 3912 565 
Q 3275 0 1925 0 
L 628 0 
L 628 4666 
z
" transform="scale(0.015625)"/>
       <path id="DejaVuSans-6e" d="M 3513 2113 
L 3513 0 
L 2938 0 
L 2938 2094 
Q 2938 2591 2744 2837 
Q 2550 3084 2163 3084 
Q 1697 3084 1428 2787 
Q 1159 2491 1159 1978 
L 1159 0 
L 581 0 
L 581 3500 
L 1159 3500 
L 1159 2956 
Q 1366 3272 1645 3428 
Q 1925 3584 2291 3584 
Q 2894 3584 3203 3211 
Q 3513 2838 3513 2113 
z
" transform="scale(0.015625)"/>
       <path id="DejaVuSans-64" d="M 2906 2969 
L 2906 4863 
L 3481 4863 
L 3481 0 
L 2906 0 
L 2906 525 
Q 2725 213 2448 61 
Q 2172 -91 1784 -91 
Q 1150 -91 751 415 
Q 353 922 353 1747 
Q 353 2572 751 3078 
Q 1150 3584 1784 3584 
Q 2172 3584 2448 3432 
Q 2725 3281 2906 2969 
z
M 947 1747 
Q 947 1113 1208 752 
Q 1469 391 1925 391 
Q 2381 391 2643 752 
Q 2906 1113 2906 1747 
Q 2906 2381 2643 2742 
Q 2381 3103 1925 3103 
Q 1469 3103 1208 2742 
Q 947 2381 947 1747 
z
" transform="scale(0.015625)"/>
       <path id="DejaVuSans-72" d="M 2631 2963 
Q 2534 3019 2420 3045 
Q 2306 3072 2169 3072 
Q 1681 3072 1420 2755 
Q 1159 2438 1159 1844 
L 1159 0 
L 581 0 
L 581 3500 
L 1159 3500 
L 1159 2956 
Q 1341 3275 1631 3429 
Q 1922 3584 2338 3584 
Q 2397 3584 2469 3576 
Q 2541 3569 2628 3553 
L 2631 2963 
z
" transform="scale(0.015625)"/>
       <path id="DejaVuSans-74" d="M 1172 4494 
L 1172 3500 
L 2356 3500 
L 2356 3053 
L 1172 3053 
L 1172 1153 
Q 1172 725 1289 603 
Q 1406 481 1766 481 
L 2356 481 
L 2356 0 
L 1766 0 
Q 1100 0 847 248 
Q 594 497 594 1153 
L 594 3053 
L 172 3053 
L 172 3500 
L 594 3500 
L 594 4494 
L 1172 4494 
z
" transform="scale(0.015625)"/>
      </defs>
      <use xlink:href="#DejaVuSans-44"/>
      <use xlink:href="#DejaVuSans-65" x="77.001953"/>
      <use xlink:href="#DejaVuSans-6e" x="138.525391"/>
      <use xlink:href="#DejaVuSans-64" x="201.904297"/>
      <use xlink:href="#DejaVuSans-72" x="265.380859"/>
      <use xlink:href="#DejaVuSans-69" x="306.494141"/>
      <use xlink:href="#DejaVuSans-74" x="334.277344"/>
      <use xlink:href="#DejaVuSans-65" x="373.486328"/>
     </g>
    </g>
   </g>
  </g>
 </g>
 <defs>
  <clipPath id="peac284fd6d">
   <rect x="108" y="34.56" width="669.6" height="221.76"/>
  </clipPath>
 </defs>
</svg>
