<?xml version="1.0" encoding="utf-8" standalone="no"?>
<!DOCTYPE svg PUBLIC "-//W3C//DTD SVG 1.1//EN"
  "http://www.w3.org/Graphics/SVG/1.1/DTD/svg11.dtd">
<svg xmlns:xlink="http://www.w3.org/1999/xlink" width="864pt" height="288pt" viewBox="0 0 864 288" xmlns="http://www.w3.org/2000/svg" version="1.1">
 <metadata>
  <rdf:RDF xmlns:dc="http://purl.org/dc/elements/1.1/" xmlns:cc="http://creativecommons.org/ns#" xmlns:rdf="http://www.w3.org/1999/02/22-rdf-syntax-ns#">
   <cc:Work>
    <dc:type rdf:resource="http://purl.org/dc/dcmitype/StillImage"/>
    <dc:date>2024-04-23T19:17:36.251396</dc:date>
    <dc:format>image/svg+xml</dc:format>
    <dc:creator>
     <cc:Agent>
      <dc:title>Matplotlib v3.8.2, https://matplotlib.org/</dc:title>
     </cc:Agent>
    </dc:creator>
   </cc:Work>
  </rdf:RDF>
 </metadata>
 <defs>
  <style type="text/css">*{stroke-linejoin: round; stroke-linecap: butt}</style>
 </defs>
 <g id="figure_1">
  <g id="patch_1">
   <path d="M 0 288 
L 864 288 
L 864 0 
L 0 0 
z
" style="fill: #ffffff"/>
  </g>
  <g id="axes_1">
   <g id="patch_2">
    <path d="M 108 256.32 
L 777.6 256.32 
L 777.6 34.56 
L 108 34.56 
z
" style="fill: #ffffff"/>
   </g>
   <g id="matplotlib.axis_1">
    <g id="xtick_1">
     <g id="line2d_1">
      <path d="M 108 256.32 
L 108 34.56 
" clip-path="url(#p33a80bbba8)" style="fill: none; stroke: #b0b0b0; stroke-width: 0.8; stroke-linecap: square"/>
     </g>
     <g id="line2d_2">
      <defs>
       <path id="maf469e06b4" d="M 0 0 
L 0 3.5 
" style="stroke: #000000; stroke-width: 0.8"/>
      </defs>
      <g>
       <use xlink:href="#maf469e06b4" x="108" y="256.32" style="stroke: #000000; stroke-width: 0.8"/>
      </g>
     </g>
     <g id="text_1">
      <!-- 100 -->
      <g transform="translate(94.63875 273.957812) scale(0.14 -0.14)">
       <defs>
        <path id="DejaVuSans-31" d="M 794 531 
L 1825 531 
L 1825 4091 
L 703 3866 
L 703 4441 
L 1819 4666 
L 2450 4666 
L 2450 531 
L 3481 531 
L 3481 0 
L 794 0 
L 794 531 
z
" transform="scale(0.015625)"/>
        <path id="DejaVuSans-30" d="M 2034 4250 
Q 1547 4250 1301 3770 
Q 1056 3291 1056 2328 
Q 1056 1369 1301 889 
Q 1547 409 2034 409 
Q 2525 409 2770 889 
Q 3016 1369 3016 2328 
Q 3016 3291 2770 3770 
Q 2525 4250 2034 4250 
z
M 2034 4750 
Q 2819 4750 3233 4129 
Q 3647 3509 3647 2328 
Q 3647 1150 3233 529 
Q 2819 -91 2034 -91 
Q 1250 -91 836 529 
Q 422 1150 422 2328 
Q 422 3509 836 4129 
Q 1250 4750 2034 4750 
z
" transform="scale(0.015625)"/>
       </defs>
       <use xlink:href="#DejaVuSans-31"/>
       <use xlink:href="#DejaVuSans-30" x="63.623047"/>
       <use xlink:href="#DejaVuSans-30" x="127.246094"/>
      </g>
     </g>
    </g>
    <g id="xtick_2">
     <g id="line2d_3">
      <path d="M 241.92 256.32 
L 241.92 34.56 
" clip-path="url(#p33a80bbba8)" style="fill: none; stroke: #b0b0b0; stroke-width: 0.8; stroke-linecap: square"/>
     </g>
     <g id="line2d_4">
      <g>
       <use xlink:href="#maf469e06b4" x="241.92" y="256.32" style="stroke: #000000; stroke-width: 0.8"/>
      </g>
     </g>
     <g id="text_2">
      <!-- 120 -->
      <g transform="translate(228.55875 273.957812) scale(0.14 -0.14)">
       <defs>
        <path id="DejaVuSans-32" d="M 1228 531 
L 3431 531 
L 3431 0 
L 469 0 
L 469 531 
Q 828 903 1448 1529 
Q 2069 2156 2228 2338 
Q 2531 2678 2651 2914 
Q 2772 3150 2772 3378 
Q 2772 3750 2511 3984 
Q 2250 4219 1831 4219 
Q 1534 4219 1204 4116 
Q 875 4013 500 3803 
L 500 4441 
Q 881 4594 1212 4672 
Q 1544 4750 1819 4750 
Q 2544 4750 2975 4387 
Q 3406 4025 3406 3419 
Q 3406 3131 3298 2873 
Q 3191 2616 2906 2266 
Q 2828 2175 2409 1742 
Q 1991 1309 1228 531 
z
" transform="scale(0.015625)"/>
       </defs>
       <use xlink:href="#DejaVuSans-31"/>
       <use xlink:href="#DejaVuSans-32" x="63.623047"/>
       <use xlink:href="#DejaVuSans-30" x="127.246094"/>
      </g>
     </g>
    </g>
    <g id="xtick_3">
     <g id="line2d_5">
      <path d="M 375.84 256.32 
L 375.84 34.56 
" clip-path="url(#p33a80bbba8)" style="fill: none; stroke: #b0b0b0; stroke-width: 0.8; stroke-linecap: square"/>
     </g>
     <g id="line2d_6">
      <g>
       <use xlink:href="#maf469e06b4" x="375.84" y="256.32" style="stroke: #000000; stroke-width: 0.8"/>
      </g>
     </g>
     <g id="text_3">
      <!-- 140 -->
      <g transform="translate(362.47875 273.957812) scale(0.14 -0.14)">
       <defs>
        <path id="DejaVuSans-34" d="M 2419 4116 
L 825 1625 
L 2419 1625 
L 2419 4116 
z
M 2253 4666 
L 3047 4666 
L 3047 1625 
L 3713 1625 
L 3713 1100 
L 3047 1100 
L 3047 0 
L 2419 0 
L 2419 1100 
L 313 1100 
L 313 1709 
L 2253 4666 
z
" transform="scale(0.015625)"/>
       </defs>
       <use xlink:href="#DejaVuSans-31"/>
       <use xlink:href="#DejaVuSans-34" x="63.623047"/>
       <use xlink:href="#DejaVuSans-30" x="127.246094"/>
      </g>
     </g>
    </g>
    <g id="xtick_4">
     <g id="line2d_7">
      <path d="M 509.76 256.32 
L 509.76 34.56 
" clip-path="url(#p33a80bbba8)" style="fill: none; stroke: #b0b0b0; stroke-width: 0.8; stroke-linecap: square"/>
     </g>
     <g id="line2d_8">
      <g>
       <use xlink:href="#maf469e06b4" x="509.76" y="256.32" style="stroke: #000000; stroke-width: 0.8"/>
      </g>
     </g>
     <g id="text_4">
      <!-- 160 -->
      <g transform="translate(496.39875 273.957812) scale(0.14 -0.14)">
       <defs>
        <path id="DejaVuSans-36" d="M 2113 2584 
Q 1688 2584 1439 2293 
Q 1191 2003 1191 1497 
Q 1191 994 1439 701 
Q 1688 409 2113 409 
Q 2538 409 2786 701 
Q 3034 994 3034 1497 
Q 3034 2003 2786 2293 
Q 2538 2584 2113 2584 
z
M 3366 4563 
L 3366 3988 
Q 3128 4100 2886 4159 
Q 2644 4219 2406 4219 
Q 1781 4219 1451 3797 
Q 1122 3375 1075 2522 
Q 1259 2794 1537 2939 
Q 1816 3084 2150 3084 
Q 2853 3084 3261 2657 
Q 3669 2231 3669 1497 
Q 3669 778 3244 343 
Q 2819 -91 2113 -91 
Q 1303 -91 875 529 
Q 447 1150 447 2328 
Q 447 3434 972 4092 
Q 1497 4750 2381 4750 
Q 2619 4750 2861 4703 
Q 3103 4656 3366 4563 
z
" transform="scale(0.015625)"/>
       </defs>
       <use xlink:href="#DejaVuSans-31"/>
       <use xlink:href="#DejaVuSans-36" x="63.623047"/>
       <use xlink:href="#DejaVuSans-30" x="127.246094"/>
      </g>
     </g>
    </g>
    <g id="xtick_5">
     <g id="line2d_9">
      <path d="M 643.68 256.32 
L 643.68 34.56 
" clip-path="url(#p33a80bbba8)" style="fill: none; stroke: #b0b0b0; stroke-width: 0.8; stroke-linecap: square"/>
     </g>
     <g id="line2d_10">
      <g>
       <use xlink:href="#maf469e06b4" x="643.68" y="256.32" style="stroke: #000000; stroke-width: 0.8"/>
      </g>
     </g>
     <g id="text_5">
      <!-- 180 -->
      <g transform="translate(630.31875 273.957812) scale(0.14 -0.14)">
       <defs>
        <path id="DejaVuSans-38" d="M 2034 2216 
Q 1584 2216 1326 1975 
Q 1069 1734 1069 1313 
Q 1069 891 1326 650 
Q 1584 409 2034 409 
Q 2484 409 2743 651 
Q 3003 894 3003 1313 
Q 3003 1734 2745 1975 
Q 2488 2216 2034 2216 
z
M 1403 2484 
Q 997 2584 770 2862 
Q 544 3141 544 3541 
Q 544 4100 942 4425 
Q 1341 4750 2034 4750 
Q 2731 4750 3128 4425 
Q 3525 4100 3525 3541 
Q 3525 3141 3298 2862 
Q 3072 2584 2669 2484 
Q 3125 2378 3379 2068 
Q 3634 1759 3634 1313 
Q 3634 634 3220 271 
Q 2806 -91 2034 -91 
Q 1263 -91 848 271 
Q 434 634 434 1313 
Q 434 1759 690 2068 
Q 947 2378 1403 2484 
z
M 1172 3481 
Q 1172 3119 1398 2916 
Q 1625 2713 2034 2713 
Q 2441 2713 2670 2916 
Q 2900 3119 2900 3481 
Q 2900 3844 2670 4047 
Q 2441 4250 2034 4250 
Q 1625 4250 1398 4047 
Q 1172 3844 1172 3481 
z
" transform="scale(0.015625)"/>
       </defs>
       <use xlink:href="#DejaVuSans-31"/>
       <use xlink:href="#DejaVuSans-38" x="63.623047"/>
       <use xlink:href="#DejaVuSans-30" x="127.246094"/>
      </g>
     </g>
    </g>
    <g id="xtick_6">
     <g id="line2d_11">
      <path d="M 777.6 256.32 
L 777.6 34.56 
" clip-path="url(#p33a80bbba8)" style="fill: none; stroke: #b0b0b0; stroke-width: 0.8; stroke-linecap: square"/>
     </g>
     <g id="line2d_12">
      <g>
       <use xlink:href="#maf469e06b4" x="777.6" y="256.32" style="stroke: #000000; stroke-width: 0.8"/>
      </g>
     </g>
     <g id="text_6">
      <!-- 200 -->
      <g transform="translate(764.23875 273.957812) scale(0.14 -0.14)">
       <use xlink:href="#DejaVuSans-32"/>
       <use xlink:href="#DejaVuSans-30" x="63.623047"/>
       <use xlink:href="#DejaVuSans-30" x="127.246094"/>
      </g>
     </g>
    </g>
    <g id="text_7">
     <!-- Time (ms) -->
     <g transform="translate(407.521094 291.507187) scale(0.14 -0.14)">
      <defs>
       <path id="DejaVuSans-54" d="M -19 4666 
L 3928 4666 
L 3928 4134 
L 2272 4134 
L 2272 0 
L 1638 0 
L 1638 4134 
L -19 4134 
L -19 4666 
z
" transform="scale(0.015625)"/>
       <path id="DejaVuSans-69" d="M 603 3500 
L 1178 3500 
L 1178 0 
L 603 0 
L 603 3500 
z
M 603 4863 
L 1178 4863 
L 1178 4134 
L 603 4134 
L 603 4863 
z
" transform="scale(0.015625)"/>
       <path id="DejaVuSans-6d" d="M 3328 2828 
Q 3544 3216 3844 3400 
Q 4144 3584 4550 3584 
Q 5097 3584 5394 3201 
Q 5691 2819 5691 2113 
L 5691 0 
L 5113 0 
L 5113 2094 
Q 5113 2597 4934 2840 
Q 4756 3084 4391 3084 
Q 3944 3084 3684 2787 
Q 3425 2491 3425 1978 
L 3425 0 
L 2847 0 
L 2847 2094 
Q 2847 2600 2669 2842 
Q 2491 3084 2119 3084 
Q 1678 3084 1418 2786 
Q 1159 2488 1159 1978 
L 1159 0 
L 581 0 
L 581 3500 
L 1159 3500 
L 1159 2956 
Q 1356 3278 1631 3431 
Q 1906 3584 2284 3584 
Q 2666 3584 2933 3390 
Q 3200 3197 3328 2828 
z
" transform="scale(0.015625)"/>
       <path id="DejaVuSans-65" d="M 3597 1894 
L 3597 1613 
L 953 1613 
Q 991 1019 1311 708 
Q 1631 397 2203 397 
Q 2534 397 2845 478 
Q 3156 559 3463 722 
L 3463 178 
Q 3153 47 2828 -22 
Q 2503 -91 2169 -91 
Q 1331 -91 842 396 
Q 353 884 353 1716 
Q 353 2575 817 3079 
Q 1281 3584 2069 3584 
Q 2775 3584 3186 3129 
Q 3597 2675 3597 1894 
z
M 3022 2063 
Q 3016 2534 2758 2815 
Q 2500 3097 2075 3097 
Q 1594 3097 1305 2825 
Q 1016 2553 972 2059 
L 3022 2063 
z
" transform="scale(0.015625)"/>
       <path id="DejaVuSans-20" transform="scale(0.015625)"/>
       <path id="DejaVuSans-28" d="M 1984 4856 
Q 1566 4138 1362 3434 
Q 1159 2731 1159 2009 
Q 1159 1288 1364 580 
Q 1569 -128 1984 -844 
L 1484 -844 
Q 1016 -109 783 600 
Q 550 1309 550 2009 
Q 550 2706 781 3412 
Q 1013 4119 1484 4856 
L 1984 4856 
z
" transform="scale(0.015625)"/>
       <path id="DejaVuSans-73" d="M 2834 3397 
L 2834 2853 
Q 2591 2978 2328 3040 
Q 2066 3103 1784 3103 
Q 1356 3103 1142 2972 
Q 928 2841 928 2578 
Q 928 2378 1081 2264 
Q 1234 2150 1697 2047 
L 1894 2003 
Q 2506 1872 2764 1633 
Q 3022 1394 3022 966 
Q 3022 478 2636 193 
Q 2250 -91 1575 -91 
Q 1294 -91 989 -36 
Q 684 19 347 128 
L 347 722 
Q 666 556 975 473 
Q 1284 391 1588 391 
Q 1994 391 2212 530 
Q 2431 669 2431 922 
Q 2431 1156 2273 1281 
Q 2116 1406 1581 1522 
L 1381 1569 
Q 847 1681 609 1914 
Q 372 2147 372 2553 
Q 372 3047 722 3315 
Q 1072 3584 1716 3584 
Q 2034 3584 2315 3537 
Q 2597 3491 2834 3397 
z
" transform="scale(0.015625)"/>
       <path id="DejaVuSans-29" d="M 513 4856 
L 1013 4856 
Q 1481 4119 1714 3412 
Q 1947 2706 1947 2009 
Q 1947 1309 1714 600 
Q 1481 -109 1013 -844 
L 513 -844 
Q 928 -128 1133 580 
Q 1338 1288 1338 2009 
Q 1338 2731 1133 3434 
Q 928 4138 513 4856 
z
" transform="scale(0.015625)"/>
      </defs>
      <use xlink:href="#DejaVuSans-54"/>
      <use xlink:href="#DejaVuSans-69" x="57.958984"/>
      <use xlink:href="#DejaVuSans-6d" x="85.742188"/>
      <use xlink:href="#DejaVuSans-65" x="183.154297"/>
      <use xlink:href="#DejaVuSans-20" x="244.677734"/>
      <use xlink:href="#DejaVuSans-28" x="276.464844"/>
      <use xlink:href="#DejaVuSans-6d" x="315.478516"/>
      <use xlink:href="#DejaVuSans-73" x="412.890625"/>
      <use xlink:href="#DejaVuSans-29" x="464.990234"/>
     </g>
    </g>
   </g>
   <g id="matplotlib.axis_2">
    <g id="ytick_1">
     <g id="line2d_13">
      <path d="M 108 246.24 
L 777.6 246.24 
" clip-path="url(#p33a80bbba8)" style="fill: none; stroke: #b0b0b0; stroke-width: 0.8; stroke-linecap: square"/>
     </g>
     <g id="line2d_14">
      <defs>
       <path id="m828cb7a708" d="M 0 0 
L -3.5 0 
" style="stroke: #000000; stroke-width: 0.8"/>
      </defs>
      <g>
       <use xlink:href="#m828cb7a708" x="108" y="246.24" style="stroke: #000000; stroke-width: 0.8"/>
      </g>
     </g>
     <g id="text_8">
      <!-- 0.00 -->
      <g transform="translate(69.828125 251.558906) scale(0.14 -0.14)">
       <defs>
        <path id="DejaVuSans-2e" d="M 684 794 
L 1344 794 
L 1344 0 
L 684 0 
L 684 794 
z
" transform="scale(0.015625)"/>
       </defs>
       <use xlink:href="#DejaVuSans-30"/>
       <use xlink:href="#DejaVuSans-2e" x="63.623047"/>
       <use xlink:href="#DejaVuSans-30" x="95.410156"/>
       <use xlink:href="#DejaVuSans-30" x="159.033203"/>
      </g>
     </g>
    </g>
    <g id="ytick_2">
     <g id="line2d_15">
      <path d="M 108 209.028598 
L 777.6 209.028598 
" clip-path="url(#p33a80bbba8)" style="fill: none; stroke: #b0b0b0; stroke-width: 0.8; stroke-linecap: square"/>
     </g>
     <g id="line2d_16">
      <g>
       <use xlink:href="#m828cb7a708" x="108" y="209.028598" style="stroke: #000000; stroke-width: 0.8"/>
      </g>
     </g>
     <g id="text_9">
      <!-- 0.05 -->
      <g transform="translate(69.828125 214.347504) scale(0.14 -0.14)">
       <defs>
        <path id="DejaVuSans-35" d="M 691 4666 
L 3169 4666 
L 3169 4134 
L 1269 4134 
L 1269 2991 
Q 1406 3038 1543 3061 
Q 1681 3084 1819 3084 
Q 2600 3084 3056 2656 
Q 3513 2228 3513 1497 
Q 3513 744 3044 326 
Q 2575 -91 1722 -91 
Q 1428 -91 1123 -41 
Q 819 9 494 109 
L 494 744 
Q 775 591 1075 516 
Q 1375 441 1709 441 
Q 2250 441 2565 725 
Q 2881 1009 2881 1497 
Q 2881 1984 2565 2268 
Q 2250 2553 1709 2553 
Q 1456 2553 1204 2497 
Q 953 2441 691 2322 
L 691 4666 
z
" transform="scale(0.015625)"/>
       </defs>
       <use xlink:href="#DejaVuSans-30"/>
       <use xlink:href="#DejaVuSans-2e" x="63.623047"/>
       <use xlink:href="#DejaVuSans-30" x="95.410156"/>
       <use xlink:href="#DejaVuSans-35" x="159.033203"/>
      </g>
     </g>
    </g>
    <g id="ytick_3">
     <g id="line2d_17">
      <path d="M 108 171.817196 
L 777.6 171.817196 
" clip-path="url(#p33a80bbba8)" style="fill: none; stroke: #b0b0b0; stroke-width: 0.8; stroke-linecap: square"/>
     </g>
     <g id="line2d_18">
      <g>
       <use xlink:href="#m828cb7a708" x="108" y="171.817196" style="stroke: #000000; stroke-width: 0.8"/>
      </g>
     </g>
     <g id="text_10">
      <!-- 0.10 -->
      <g transform="translate(69.828125 177.136102) scale(0.14 -0.14)">
       <use xlink:href="#DejaVuSans-30"/>
       <use xlink:href="#DejaVuSans-2e" x="63.623047"/>
       <use xlink:href="#DejaVuSans-31" x="95.410156"/>
       <use xlink:href="#DejaVuSans-30" x="159.033203"/>
      </g>
     </g>
    </g>
    <g id="ytick_4">
     <g id="line2d_19">
      <path d="M 108 134.605793 
L 777.6 134.605793 
" clip-path="url(#p33a80bbba8)" style="fill: none; stroke: #b0b0b0; stroke-width: 0.8; stroke-linecap: square"/>
     </g>
     <g id="line2d_20">
      <g>
       <use xlink:href="#m828cb7a708" x="108" y="134.605793" style="stroke: #000000; stroke-width: 0.8"/>
      </g>
     </g>
     <g id="text_11">
      <!-- 0.15 -->
      <g transform="translate(69.828125 139.9247) scale(0.14 -0.14)">
       <use xlink:href="#DejaVuSans-30"/>
       <use xlink:href="#DejaVuSans-2e" x="63.623047"/>
       <use xlink:href="#DejaVuSans-31" x="95.410156"/>
       <use xlink:href="#DejaVuSans-35" x="159.033203"/>
      </g>
     </g>
    </g>
    <g id="ytick_5">
     <g id="line2d_21">
      <path d="M 108 97.394391 
L 777.6 97.394391 
" clip-path="url(#p33a80bbba8)" style="fill: none; stroke: #b0b0b0; stroke-width: 0.8; stroke-linecap: square"/>
     </g>
     <g id="line2d_22">
      <g>
       <use xlink:href="#m828cb7a708" x="108" y="97.394391" style="stroke: #000000; stroke-width: 0.8"/>
      </g>
     </g>
     <g id="text_12">
      <!-- 0.20 -->
      <g transform="translate(69.828125 102.713298) scale(0.14 -0.14)">
       <use xlink:href="#DejaVuSans-30"/>
       <use xlink:href="#DejaVuSans-2e" x="63.623047"/>
       <use xlink:href="#DejaVuSans-32" x="95.410156"/>
       <use xlink:href="#DejaVuSans-30" x="159.033203"/>
      </g>
     </g>
    </g>
    <g id="ytick_6">
     <g id="line2d_23">
      <path d="M 108 60.182989 
L 777.6 60.182989 
" clip-path="url(#p33a80bbba8)" style="fill: none; stroke: #b0b0b0; stroke-width: 0.8; stroke-linecap: square"/>
     </g>
     <g id="line2d_24">
      <g>
       <use xlink:href="#m828cb7a708" x="108" y="60.182989" style="stroke: #000000; stroke-width: 0.8"/>
      </g>
     </g>
     <g id="text_13">
      <!-- 0.25 -->
      <g transform="translate(69.828125 65.501895) scale(0.14 -0.14)">
       <use xlink:href="#DejaVuSans-30"/>
       <use xlink:href="#DejaVuSans-2e" x="63.623047"/>
       <use xlink:href="#DejaVuSans-32" x="95.410156"/>
       <use xlink:href="#DejaVuSans-35" x="159.033203"/>
      </g>
     </g>
    </g>
    <g id="text_14">
     <!-- $g_{Inhib}$ (µS) -->
     <g transform="translate(62.888125 178.83) rotate(-90) scale(0.14 -0.14)">
      <defs>
       <path id="DejaVuSans-Oblique-67" d="M 3816 3500 
L 3219 434 
Q 3047 -456 2561 -893 
Q 2075 -1331 1253 -1331 
Q 950 -1331 690 -1286 
Q 431 -1241 206 -1147 
L 313 -588 
Q 525 -725 762 -790 
Q 1000 -856 1269 -856 
Q 1816 -856 2167 -557 
Q 2519 -259 2631 300 
L 2681 563 
Q 2441 288 2122 144 
Q 1803 0 1434 0 
Q 903 0 598 351 
Q 294 703 294 1319 
Q 294 1803 478 2267 
Q 663 2731 997 3091 
Q 1219 3328 1514 3456 
Q 1809 3584 2131 3584 
Q 2484 3584 2746 3420 
Q 3009 3256 3138 2956 
L 3238 3500 
L 3816 3500 
z
M 2950 2216 
Q 2950 2641 2750 2872 
Q 2550 3103 2181 3103 
Q 1953 3103 1747 3012 
Q 1541 2922 1394 2759 
Q 1156 2491 1023 2127 
Q 891 1763 891 1375 
Q 891 944 1092 712 
Q 1294 481 1672 481 
Q 2219 481 2584 976 
Q 2950 1472 2950 2216 
z
" transform="scale(0.015625)"/>
       <path id="DejaVuSans-Oblique-49" d="M 1081 4666 
L 1716 4666 
L 806 0 
L 172 0 
L 1081 4666 
z
" transform="scale(0.015625)"/>
       <path id="DejaVuSans-Oblique-6e" d="M 3566 2113 
L 3156 0 
L 2578 0 
L 2988 2091 
Q 3016 2238 3031 2350 
Q 3047 2463 3047 2528 
Q 3047 2791 2881 2937 
Q 2716 3084 2419 3084 
Q 1956 3084 1622 2776 
Q 1288 2469 1184 1941 
L 800 0 
L 225 0 
L 903 3500 
L 1478 3500 
L 1363 2950 
Q 1603 3253 1940 3418 
Q 2278 3584 2650 3584 
Q 3113 3584 3367 3334 
Q 3622 3084 3622 2631 
Q 3622 2519 3608 2391 
Q 3594 2263 3566 2113 
z
" transform="scale(0.015625)"/>
       <path id="DejaVuSans-Oblique-68" d="M 3566 2113 
L 3156 0 
L 2578 0 
L 2988 2091 
Q 3016 2238 3031 2350 
Q 3047 2463 3047 2528 
Q 3047 2791 2881 2937 
Q 2716 3084 2419 3084 
Q 1956 3084 1617 2771 
Q 1278 2459 1178 1941 
L 800 0 
L 225 0 
L 1172 4863 
L 1747 4863 
L 1375 2950 
Q 1594 3244 1934 3414 
Q 2275 3584 2650 3584 
Q 3113 3584 3367 3334 
Q 3622 3084 3622 2631 
Q 3622 2519 3608 2391 
Q 3594 2263 3566 2113 
z
" transform="scale(0.015625)"/>
       <path id="DejaVuSans-Oblique-69" d="M 1172 4863 
L 1747 4863 
L 1606 4134 
L 1031 4134 
L 1172 4863 
z
M 909 3500 
L 1484 3500 
L 800 0 
L 225 0 
L 909 3500 
z
" transform="scale(0.015625)"/>
       <path id="DejaVuSans-Oblique-62" d="M 3169 2138 
Q 3169 2591 2961 2847 
Q 2753 3103 2388 3103 
Q 2122 3103 1889 2973 
Q 1656 2844 1484 2597 
Q 1303 2338 1198 1995 
Q 1094 1653 1094 1313 
Q 1094 881 1298 636 
Q 1503 391 1863 391 
Q 2134 391 2365 517 
Q 2597 644 2772 891 
Q 2950 1147 3059 1487 
Q 3169 1828 3169 2138 
z
M 1381 2969 
Q 1594 3256 1914 3420 
Q 2234 3584 2584 3584 
Q 3122 3584 3439 3221 
Q 3756 2859 3756 2241 
Q 3756 1734 3570 1259 
Q 3384 784 3041 416 
Q 2816 172 2522 40 
Q 2228 -91 1906 -91 
Q 1566 -91 1316 65 
Q 1066 222 909 531 
L 806 0 
L 231 0 
L 1178 4863 
L 1753 4863 
L 1381 2969 
z
" transform="scale(0.015625)"/>
       <path id="DejaVuSans-b5" d="M 544 -1331 
L 544 3500 
L 1119 3500 
L 1119 1325 
Q 1119 872 1334 640 
Q 1550 409 1972 409 
Q 2434 409 2667 671 
Q 2900 934 2900 1459 
L 2900 3500 
L 3475 3500 
L 3475 806 
Q 3475 619 3529 530 
Q 3584 441 3700 441 
Q 3728 441 3778 458 
Q 3828 475 3916 513 
L 3916 50 
Q 3788 -22 3673 -56 
Q 3559 -91 3450 -91 
Q 3234 -91 3106 31 
Q 2978 153 2931 403 
Q 2775 156 2548 32 
Q 2322 -91 2016 -91 
Q 1697 -91 1473 31 
Q 1250 153 1119 397 
L 1119 -1331 
L 544 -1331 
z
" transform="scale(0.015625)"/>
       <path id="DejaVuSans-53" d="M 3425 4513 
L 3425 3897 
Q 3066 4069 2747 4153 
Q 2428 4238 2131 4238 
Q 1616 4238 1336 4038 
Q 1056 3838 1056 3469 
Q 1056 3159 1242 3001 
Q 1428 2844 1947 2747 
L 2328 2669 
Q 3034 2534 3370 2195 
Q 3706 1856 3706 1288 
Q 3706 609 3251 259 
Q 2797 -91 1919 -91 
Q 1588 -91 1214 -16 
Q 841 59 441 206 
L 441 856 
Q 825 641 1194 531 
Q 1563 422 1919 422 
Q 2459 422 2753 634 
Q 3047 847 3047 1241 
Q 3047 1584 2836 1778 
Q 2625 1972 2144 2069 
L 1759 2144 
Q 1053 2284 737 2584 
Q 422 2884 422 3419 
Q 422 4038 858 4394 
Q 1294 4750 2059 4750 
Q 2388 4750 2728 4690 
Q 3069 4631 3425 4513 
z
" transform="scale(0.015625)"/>
      </defs>
      <use xlink:href="#DejaVuSans-Oblique-67" transform="translate(0 0.125)"/>
      <use xlink:href="#DejaVuSans-Oblique-49" transform="translate(63.476562 -16.28125) scale(0.7)"/>
      <use xlink:href="#DejaVuSans-Oblique-6e" transform="translate(84.121094 -16.28125) scale(0.7)"/>
      <use xlink:href="#DejaVuSans-Oblique-68" transform="translate(128.486328 -16.28125) scale(0.7)"/>
      <use xlink:href="#DejaVuSans-Oblique-69" transform="translate(172.851562 -16.28125) scale(0.7)"/>
      <use xlink:href="#DejaVuSans-Oblique-62" transform="translate(192.299805 -16.28125) scale(0.7)"/>
      <use xlink:href="#DejaVuSans-20" transform="translate(239.467773 0.125)"/>
      <use xlink:href="#DejaVuSans-28" transform="translate(271.254883 0.125)"/>
      <use xlink:href="#DejaVuSans-b5" transform="translate(310.268555 0.125)"/>
      <use xlink:href="#DejaVuSans-53" transform="translate(373.891602 0.125)"/>
      <use xlink:href="#DejaVuSans-29" transform="translate(437.368164 0.125)"/>
     </g>
    </g>
   </g>
   <g id="line2d_25">
    <path d="M 108 129.567701 
L 110.0088 135.102392 
L 110.6784 122.870167 
L 111.348 119.553274 
L 112.0176 121.282261 
L 112.6872 109.272118 
L 113.3568 106.173738 
L 114.696 110.337282 
L 117.3744 118.864512 
L 118.044 113.902296 
L 118.7136 113.379203 
L 119.3832 115.360807 
L 120.0528 110.454893 
L 120.7224 109.987198 
L 121.392 112.023309 
L 122.0616 107.171028 
L 122.7312 106.756103 
L 124.0704 111.052017 
L 124.74 106.215344 
L 125.4096 105.815776 
L 128.7576 116.59789 
L 129.4272 104.663023 
L 130.0968 101.638709 
L 131.436 105.946833 
L 134.1144 114.749542 
L 134.784 109.853451 
L 135.4536 109.395421 
L 137.4624 115.738533 
L 138.132 110.82655 
L 138.8016 110.352883 
L 141.48 118.73301 
L 142.1496 113.772907 
L 142.8192 106.242818 
L 143.4888 105.689408 
L 150.8544 128.500312 
L 154.2024 137.661203 
L 157.5504 146.109318 
L 160.8984 153.900117 
L 161.568 155.383971 
L 162.2376 149.834906 
L 162.9072 148.734395 
L 164.916 153.211347 
L 168.264 160.449563 
L 171.612 167.1246 
L 174.96 173.280278 
L 178.308 178.957004 
L 181.656 184.192046 
L 185.004 189.019768 
L 188.352 193.471863 
L 191.7 197.577557 
L 195.048 201.363802 
L 195.7176 195.075865 
L 196.3872 193.248354 
L 197.7264 194.786831 
L 198.396 188.604582 
L 199.0656 186.881062 
L 200.4048 188.622533 
L 203.7528 193.105535 
L 207.1008 197.239732 
L 209.1096 199.564203 
L 209.7792 193.305184 
L 210.4488 191.506128 
L 211.788 193.100148 
L 215.136 197.234764 
L 217.8144 200.309602 
L 218.484 194.038605 
L 219.1536 185.218689 
L 219.8232 183.396176 
L 221.1624 185.248748 
L 221.832 179.219771 
L 222.5016 177.64706 
L 223.1712 171.586837 
L 223.8408 170.136784 
L 224.5104 171.206322 
L 225.18 165.402999 
L 225.8496 164.052317 
L 227.1888 166.521585 
L 228.528 169.063067 
L 229.1976 163.294186 
L 229.8672 161.977391 
L 231.2064 164.512809 
L 231.876 158.817048 
L 232.5456 157.572199 
L 233.8848 160.248058 
L 234.5544 154.620829 
L 235.224 146.434336 
L 235.8936 145.235068 
L 236.5632 146.704764 
L 237.2328 141.29517 
L 237.9024 140.331887 
L 239.9112 145.207437 
L 240.5808 139.821904 
L 241.2504 131.873221 
L 241.92 130.907944 
L 243.9288 136.230546 
L 244.5984 130.989266 
L 245.268 130.191595 
L 247.9464 137.32694 
L 250.6248 144.160701 
L 251.2944 138.791988 
L 251.964 137.868931 
L 252.6336 125.438847 
L 253.3032 122.080676 
L 254.6424 125.737095 
L 257.9904 135.112981 
L 259.9992 140.384616 
L 260.6688 135.076583 
L 261.3384 120.195081 
L 262.008 116.767773 
L 262.6776 118.541522 
L 263.3472 113.584496 
L 264.0168 113.06651 
L 264.6864 115.053138 
L 265.356 103.143094 
L 266.0256 100.143205 
L 267.3648 104.499006 
L 270.0432 113.39256 
L 270.7128 108.518275 
L 271.3824 108.081701 
L 275.4 120.737215 
L 276.0696 115.744905 
L 276.7392 115.192202 
L 278.748 121.260327 
L 279.4176 116.259611 
L 280.0872 115.698637 
L 280.7568 110.633894 
L 281.4264 110.163323 
L 285.444 122.626025 
L 286.1136 117.603363 
L 286.7832 117.020796 
L 294.1488 137.982135 
L 297.4968 146.40528 
L 300.8448 154.173051 
L 304.1928 161.336441 
L 307.5408 167.942473 
L 310.8888 174.034515 
L 314.2368 179.652557 
L 317.5848 184.83348 
L 320.9328 189.611295 
L 324.2808 194.017365 
L 327.6288 198.080616 
L 330.9768 201.82772 
L 334.3248 205.283275 
L 338.3424 209.076912 
L 341.6904 211.968434 
L 342.36 205.510086 
L 343.0296 203.514903 
L 343.6992 204.048072 
L 345.708 206.04957 
L 346.3776 199.686334 
L 347.0472 197.784736 
L 348.3864 199.17859 
L 351.7344 202.840264 
L 355.0824 206.217037 
L 358.4304 209.331076 
L 359.1 202.915109 
L 359.7696 193.952551 
L 360.4392 191.989691 
L 361.7784 193.568294 
L 362.448 180.396552 
L 363.1176 176.155239 
L 363.7872 176.974662 
L 367.1352 182.363943 
L 367.8048 162.363174 
L 368.4744 148.752882 
L 369.144 147.209553 
L 371.1528 151.758841 
L 371.8224 146.26803 
L 372.492 145.224836 
L 373.1616 146.694697 
L 373.8312 141.285264 
L 374.5008 140.322141 
L 375.1704 134.86171 
L 375.84 134.00181 
L 377.1792 137.429111 
L 377.8488 125.159496 
L 378.5184 107.787665 
L 379.188 104.406337 
L 380.5272 108.626226 
L 381.8664 113.013456 
L 382.536 108.145263 
L 383.2056 107.714683 
L 384.5448 111.980037 
L 385.2144 107.12845 
L 385.884 106.71421 
L 386.5536 101.793841 
L 387.2232 101.465325 
L 387.8928 96.629303 
L 388.5624 89.374704 
L 389.232 89.092356 
L 389.9016 91.464236 
L 390.5712 86.942328 
L 391.2408 86.852468 
L 393.9192 96.707131 
L 394.5888 92.100973 
L 395.2584 84.919141 
L 395.928 84.708391 
L 396.5976 87.15072 
L 397.2672 75.689053 
L 397.9368 73.130336 
L 399.276 78.347328 
L 401.2848 86.311807 
L 401.9544 81.872696 
L 402.624 81.864303 
L 403.2936 77.343259 
L 403.9632 77.407652 
L 404.6328 79.967299 
L 405.3024 75.630141 
L 405.972 75.722062 
L 411.9984 98.721382 
L 415.3464 110.199261 
L 418.6944 120.784089 
L 422.0424 130.54535 
L 425.3904 139.547124 
L 428.7384 147.848502 
L 432.0864 155.503982 
L 435.4344 162.563816 
L 438.7824 169.074351 
L 442.1304 175.078325 
L 445.4784 180.615153 
L 448.8264 185.72118 
L 452.1744 190.429926 
L 455.5224 194.772302 
L 458.8704 198.776813 
L 462.2184 202.469749 
L 465.5664 205.87535 
L 469.584 209.614146 
L 473.6016 213.006633 
L 474.9408 214.066138 
L 475.6104 207.57408 
L 476.28 205.54573 
L 476.9496 206.046265 
L 480.9672 209.769229 
L 484.9848 213.147352 
L 489.0024 216.212575 
L 489.672 209.686025 
L 490.3416 207.623737 
L 491.0112 208.090879 
L 491.6808 208.703916 
L 492.3504 202.298027 
L 493.02 193.345385 
L 493.6896 191.392281 
L 494.3592 185.11118 
L 495.0288 183.443797 
L 496.368 185.29485 
L 497.0376 186.274207 
L 497.7072 173.219677 
L 498.3768 169.093693 
L 499.0464 170.026592 
L 499.716 164.242227 
L 500.3856 162.910197 
L 501.7248 165.415877 
L 502.3944 159.705604 
L 503.064 151.437401 
L 503.7336 150.157737 
L 504.4032 137.530179 
L 505.0728 133.977706 
L 505.7424 128.465826 
L 506.412 120.69963 
L 507.0816 119.913906 
L 507.7512 114.781425 
L 508.4208 114.244205 
L 509.0904 116.211908 
L 510.4296 94.255958 
L 511.0992 93.741768 
L 513.108 100.827457 
L 513.7776 96.155087 
L 514.4472 95.917182 
L 517.1256 105.203079 
L 517.7952 100.460395 
L 518.4648 93.144232 
L 519.1344 92.801309 
L 519.804 95.113588 
L 520.4736 90.533037 
L 521.1432 90.385476 
L 521.8128 85.727502 
L 522.4824 85.657164 
L 523.152 88.084246 
L 524.4912 67.025026 
L 525.1608 66.948424 
L 525.8304 69.676146 
L 526.5 65.504361 
L 527.1696 65.758999 
L 533.196 90.110001 
L 534.5352 95.087542 
L 535.2048 83.498335 
L 535.8744 80.814126 
L 537.2136 85.786153 
L 540.5616 98.270475 
L 543.24 107.554838 
L 543.9096 102.774362 
L 544.5792 102.43009 
L 551.2752 123.805537 
L 554.6232 133.331711 
L 557.9712 142.116688 
L 561.3192 150.218139 
L 564.6672 157.689245 
L 568.0152 164.579052 
L 571.3632 170.932789 
L 574.7112 176.792165 
L 578.0592 182.195645 
L 581.4072 187.1787 
L 584.7552 191.774042 
L 588.1032 196.011837 
L 591.4512 199.919905 
L 594.7992 203.5239 
L 596.1384 204.885721 
L 596.808 198.541189 
L 597.4776 196.657992 
L 598.8168 198.087767 
L 602.1648 201.834315 
L 604.1736 203.940828 
L 604.8432 197.611479 
L 605.5128 195.743223 
L 606.852 197.202161 
L 610.2 201.017615 
L 610.8696 201.744315 
L 611.5392 188.441188 
L 612.2088 184.070602 
L 612.8784 184.76283 
L 614.2176 186.722767 
L 614.8872 180.670104 
L 615.5568 179.074087 
L 616.2264 172.990932 
L 616.896 171.518316 
L 617.5656 158.547504 
L 618.2352 154.657294 
L 618.9048 155.822178 
L 622.2528 162.857255 
L 625.6008 169.344958 
L 626.2704 163.571547 
L 626.94 162.250295 
L 628.2792 164.777013 
L 628.9488 159.077007 
L 629.6184 157.827979 
L 630.288 152.086239 
L 630.9576 150.94955 
L 631.6272 145.318342 
L 632.2968 144.29041 
L 632.9664 145.775286 
L 633.636 140.380627 
L 634.3056 139.432041 
L 634.9752 133.985914 
L 635.6448 133.140088 
L 638.3232 140.090429 
L 639.6624 143.474556 
L 640.332 138.116869 
L 641.0016 130.195586 
L 641.6712 129.257267 
L 642.3408 130.983718 
L 643.0104 125.826752 
L 643.68 125.11204 
L 644.3496 119.896028 
L 645.6888 104.608244 
L 646.3584 104.081101 
L 647.028 99.203045 
L 647.6976 98.916162 
L 648.3672 101.130178 
L 649.0368 96.452944 
L 650.376 81.912544 
L 651.0456 81.750108 
L 652.3848 86.843232 
L 653.0544 75.386507 
L 653.724 72.832651 
L 654.3936 68.30334 
L 655.0632 68.512999 
L 661.0896 92.490368 
L 663.0984 99.783931 
L 663.768 95.12833 
L 664.4376 94.906925 
L 666.4464 101.937341 
L 667.116 97.247136 
L 667.7856 96.991683 
L 674.4816 119.180492 
L 677.8296 129.066523 
L 681.1776 138.183359 
L 684.5256 146.590847 
L 685.1952 148.192158 
L 685.8648 142.758662 
L 686.5344 141.771862 
L 688.5432 146.579102 
L 691.8912 154.333349 
L 695.2392 161.484266 
L 698.5872 168.078797 
L 701.9352 174.160232 
L 705.2832 179.768492 
L 708.6312 184.940395 
L 711.9792 189.709891 
L 715.3272 194.10829 
L 718.6752 198.164466 
L 722.0232 201.905046 
L 725.3712 205.354585 
L 729.3888 209.141616 
L 733.4064 212.577872 
L 737.424 215.695843 
L 741.4416 218.525011 
L 745.4592 221.092125 
L 749.4768 223.421459 
L 752.1552 224.853211 
L 752.8248 211.178736 
L 753.4944 206.442769 
L 754.164 206.775487 
L 756.1728 208.647602 
L 756.8424 202.242618 
L 757.512 200.299941 
L 758.1816 193.875698 
L 758.8512 192.067474 
L 760.1904 193.643598 
L 761.5296 195.32041 
L 762.1992 189.129587 
L 762.8688 187.397631 
L 763.5384 181.180721 
L 764.208 179.576498 
L 765.5472 181.550844 
L 768.8952 186.584068 
L 771.5736 190.327186 
L 772.2432 184.216602 
L 772.9128 182.563594 
L 773.5824 183.43344 
L 774.252 170.424559 
L 774.9216 166.343491 
L 775.5912 167.320584 
L 776.9304 169.836594 
L 777.6 164.055282 
L 777.6 164.055282 
" clip-path="url(#p33a80bbba8)" style="fill: none; stroke: #ff4500; stroke-width: 1.5; stroke-linecap: square"/>
   </g>
   <g id="patch_3">
    <path d="M 108 256.32 
L 108 34.56 
" style="fill: none; stroke: #000000; stroke-width: 0.8; stroke-linejoin: miter; stroke-linecap: square"/>
   </g>
   <g id="patch_4">
    <path d="M 777.6 256.32 
L 777.6 34.56 
" style="fill: none; stroke: #000000; stroke-width: 0.8; stroke-linejoin: miter; stroke-linecap: square"/>
   </g>
   <g id="patch_5">
    <path d="M 108 256.32 
L 777.6 256.32 
" style="fill: none; stroke: #000000; stroke-width: 0.8; stroke-linejoin: miter; stroke-linecap: square"/>
   </g>
   <g id="patch_6">
    <path d="M 108 34.56 
L 777.6 34.56 
" style="fill: none; stroke: #000000; stroke-width: 0.8; stroke-linejoin: miter; stroke-linecap: square"/>
   </g>
  </g>
 </g>
 <defs>
  <clipPath id="p33a80bbba8">
   <rect x="108" y="34.56" width="669.6" height="221.76"/>
  </clipPath>
 </defs>
</svg>
