<?xml version="1.0" encoding="utf-8" standalone="no"?>
<!DOCTYPE svg PUBLIC "-//W3C//DTD SVG 1.1//EN"
  "http://www.w3.org/Graphics/SVG/1.1/DTD/svg11.dtd">
<svg xmlns:xlink="http://www.w3.org/1999/xlink" width="864pt" height="288pt" viewBox="0 0 864 288" xmlns="http://www.w3.org/2000/svg" version="1.1">
 <metadata>
  <rdf:RDF xmlns:dc="http://purl.org/dc/elements/1.1/" xmlns:cc="http://creativecommons.org/ns#" xmlns:rdf="http://www.w3.org/1999/02/22-rdf-syntax-ns#">
   <cc:Work>
    <dc:type rdf:resource="http://purl.org/dc/dcmitype/StillImage"/>
    <dc:date>2024-04-23T19:18:04.646707</dc:date>
    <dc:format>image/svg+xml</dc:format>
    <dc:creator>
     <cc:Agent>
      <dc:title>Matplotlib v3.8.2, https://matplotlib.org/</dc:title>
     </cc:Agent>
    </dc:creator>
   </cc:Work>
  </rdf:RDF>
 </metadata>
 <defs>
  <style type="text/css">*{stroke-linejoin: round; stroke-linecap: butt}</style>
 </defs>
 <g id="figure_1">
  <g id="patch_1">
   <path d="M 0 288 
L 864 288 
L 864 0 
L 0 0 
z
" style="fill: #ffffff"/>
  </g>
  <g id="axes_1">
   <g id="patch_2">
    <path d="M 108 256.32 
L 777.6 256.32 
L 777.6 34.56 
L 108 34.56 
z
" style="fill: #ffffff"/>
   </g>
   <g id="matplotlib.axis_1">
    <g id="xtick_1">
     <g id="line2d_1">
      <path d="M 108 256.32 
L 108 34.56 
" clip-path="url(#p9172c44fcf)" style="fill: none; stroke: #b0b0b0; stroke-width: 0.8; stroke-linecap: square"/>
     </g>
     <g id="line2d_2">
      <defs>
       <path id="mfb76007d00" d="M 0 0 
L 0 3.5 
" style="stroke: #000000; stroke-width: 0.8"/>
      </defs>
      <g>
       <use xlink:href="#mfb76007d00" x="108" y="256.32" style="stroke: #000000; stroke-width: 0.8"/>
      </g>
     </g>
     <g id="text_1">
      <!-- 100 -->
      <g transform="translate(94.63875 273.957812) scale(0.14 -0.14)">
       <defs>
        <path id="DejaVuSans-31" d="M 794 531 
L 1825 531 
L 1825 4091 
L 703 3866 
L 703 4441 
L 1819 4666 
L 2450 4666 
L 2450 531 
L 3481 531 
L 3481 0 
L 794 0 
L 794 531 
z
" transform="scale(0.015625)"/>
        <path id="DejaVuSans-30" d="M 2034 4250 
Q 1547 4250 1301 3770 
Q 1056 3291 1056 2328 
Q 1056 1369 1301 889 
Q 1547 409 2034 409 
Q 2525 409 2770 889 
Q 3016 1369 3016 2328 
Q 3016 3291 2770 3770 
Q 2525 4250 2034 4250 
z
M 2034 4750 
Q 2819 4750 3233 4129 
Q 3647 3509 3647 2328 
Q 3647 1150 3233 529 
Q 2819 -91 2034 -91 
Q 1250 -91 836 529 
Q 422 1150 422 2328 
Q 422 3509 836 4129 
Q 1250 4750 2034 4750 
z
" transform="scale(0.015625)"/>
       </defs>
       <use xlink:href="#DejaVuSans-31"/>
       <use xlink:href="#DejaVuSans-30" x="63.623047"/>
       <use xlink:href="#DejaVuSans-30" x="127.246094"/>
      </g>
     </g>
    </g>
    <g id="xtick_2">
     <g id="line2d_3">
      <path d="M 241.92 256.32 
L 241.92 34.56 
" clip-path="url(#p9172c44fcf)" style="fill: none; stroke: #b0b0b0; stroke-width: 0.8; stroke-linecap: square"/>
     </g>
     <g id="line2d_4">
      <g>
       <use xlink:href="#mfb76007d00" x="241.92" y="256.32" style="stroke: #000000; stroke-width: 0.8"/>
      </g>
     </g>
     <g id="text_2">
      <!-- 120 -->
      <g transform="translate(228.55875 273.957812) scale(0.14 -0.14)">
       <defs>
        <path id="DejaVuSans-32" d="M 1228 531 
L 3431 531 
L 3431 0 
L 469 0 
L 469 531 
Q 828 903 1448 1529 
Q 2069 2156 2228 2338 
Q 2531 2678 2651 2914 
Q 2772 3150 2772 3378 
Q 2772 3750 2511 3984 
Q 2250 4219 1831 4219 
Q 1534 4219 1204 4116 
Q 875 4013 500 3803 
L 500 4441 
Q 881 4594 1212 4672 
Q 1544 4750 1819 4750 
Q 2544 4750 2975 4387 
Q 3406 4025 3406 3419 
Q 3406 3131 3298 2873 
Q 3191 2616 2906 2266 
Q 2828 2175 2409 1742 
Q 1991 1309 1228 531 
z
" transform="scale(0.015625)"/>
       </defs>
       <use xlink:href="#DejaVuSans-31"/>
       <use xlink:href="#DejaVuSans-32" x="63.623047"/>
       <use xlink:href="#DejaVuSans-30" x="127.246094"/>
      </g>
     </g>
    </g>
    <g id="xtick_3">
     <g id="line2d_5">
      <path d="M 375.84 256.32 
L 375.84 34.56 
" clip-path="url(#p9172c44fcf)" style="fill: none; stroke: #b0b0b0; stroke-width: 0.8; stroke-linecap: square"/>
     </g>
     <g id="line2d_6">
      <g>
       <use xlink:href="#mfb76007d00" x="375.84" y="256.32" style="stroke: #000000; stroke-width: 0.8"/>
      </g>
     </g>
     <g id="text_3">
      <!-- 140 -->
      <g transform="translate(362.47875 273.957812) scale(0.14 -0.14)">
       <defs>
        <path id="DejaVuSans-34" d="M 2419 4116 
L 825 1625 
L 2419 1625 
L 2419 4116 
z
M 2253 4666 
L 3047 4666 
L 3047 1625 
L 3713 1625 
L 3713 1100 
L 3047 1100 
L 3047 0 
L 2419 0 
L 2419 1100 
L 313 1100 
L 313 1709 
L 2253 4666 
z
" transform="scale(0.015625)"/>
       </defs>
       <use xlink:href="#DejaVuSans-31"/>
       <use xlink:href="#DejaVuSans-34" x="63.623047"/>
       <use xlink:href="#DejaVuSans-30" x="127.246094"/>
      </g>
     </g>
    </g>
    <g id="xtick_4">
     <g id="line2d_7">
      <path d="M 509.76 256.32 
L 509.76 34.56 
" clip-path="url(#p9172c44fcf)" style="fill: none; stroke: #b0b0b0; stroke-width: 0.8; stroke-linecap: square"/>
     </g>
     <g id="line2d_8">
      <g>
       <use xlink:href="#mfb76007d00" x="509.76" y="256.32" style="stroke: #000000; stroke-width: 0.8"/>
      </g>
     </g>
     <g id="text_4">
      <!-- 160 -->
      <g transform="translate(496.39875 273.957812) scale(0.14 -0.14)">
       <defs>
        <path id="DejaVuSans-36" d="M 2113 2584 
Q 1688 2584 1439 2293 
Q 1191 2003 1191 1497 
Q 1191 994 1439 701 
Q 1688 409 2113 409 
Q 2538 409 2786 701 
Q 3034 994 3034 1497 
Q 3034 2003 2786 2293 
Q 2538 2584 2113 2584 
z
M 3366 4563 
L 3366 3988 
Q 3128 4100 2886 4159 
Q 2644 4219 2406 4219 
Q 1781 4219 1451 3797 
Q 1122 3375 1075 2522 
Q 1259 2794 1537 2939 
Q 1816 3084 2150 3084 
Q 2853 3084 3261 2657 
Q 3669 2231 3669 1497 
Q 3669 778 3244 343 
Q 2819 -91 2113 -91 
Q 1303 -91 875 529 
Q 447 1150 447 2328 
Q 447 3434 972 4092 
Q 1497 4750 2381 4750 
Q 2619 4750 2861 4703 
Q 3103 4656 3366 4563 
z
" transform="scale(0.015625)"/>
       </defs>
       <use xlink:href="#DejaVuSans-31"/>
       <use xlink:href="#DejaVuSans-36" x="63.623047"/>
       <use xlink:href="#DejaVuSans-30" x="127.246094"/>
      </g>
     </g>
    </g>
    <g id="xtick_5">
     <g id="line2d_9">
      <path d="M 643.68 256.32 
L 643.68 34.56 
" clip-path="url(#p9172c44fcf)" style="fill: none; stroke: #b0b0b0; stroke-width: 0.8; stroke-linecap: square"/>
     </g>
     <g id="line2d_10">
      <g>
       <use xlink:href="#mfb76007d00" x="643.68" y="256.32" style="stroke: #000000; stroke-width: 0.8"/>
      </g>
     </g>
     <g id="text_5">
      <!-- 180 -->
      <g transform="translate(630.31875 273.957812) scale(0.14 -0.14)">
       <defs>
        <path id="DejaVuSans-38" d="M 2034 2216 
Q 1584 2216 1326 1975 
Q 1069 1734 1069 1313 
Q 1069 891 1326 650 
Q 1584 409 2034 409 
Q 2484 409 2743 651 
Q 3003 894 3003 1313 
Q 3003 1734 2745 1975 
Q 2488 2216 2034 2216 
z
M 1403 2484 
Q 997 2584 770 2862 
Q 544 3141 544 3541 
Q 544 4100 942 4425 
Q 1341 4750 2034 4750 
Q 2731 4750 3128 4425 
Q 3525 4100 3525 3541 
Q 3525 3141 3298 2862 
Q 3072 2584 2669 2484 
Q 3125 2378 3379 2068 
Q 3634 1759 3634 1313 
Q 3634 634 3220 271 
Q 2806 -91 2034 -91 
Q 1263 -91 848 271 
Q 434 634 434 1313 
Q 434 1759 690 2068 
Q 947 2378 1403 2484 
z
M 1172 3481 
Q 1172 3119 1398 2916 
Q 1625 2713 2034 2713 
Q 2441 2713 2670 2916 
Q 2900 3119 2900 3481 
Q 2900 3844 2670 4047 
Q 2441 4250 2034 4250 
Q 1625 4250 1398 4047 
Q 1172 3844 1172 3481 
z
" transform="scale(0.015625)"/>
       </defs>
       <use xlink:href="#DejaVuSans-31"/>
       <use xlink:href="#DejaVuSans-38" x="63.623047"/>
       <use xlink:href="#DejaVuSans-30" x="127.246094"/>
      </g>
     </g>
    </g>
    <g id="xtick_6">
     <g id="line2d_11">
      <path d="M 777.6 256.32 
L 777.6 34.56 
" clip-path="url(#p9172c44fcf)" style="fill: none; stroke: #b0b0b0; stroke-width: 0.8; stroke-linecap: square"/>
     </g>
     <g id="line2d_12">
      <g>
       <use xlink:href="#mfb76007d00" x="777.6" y="256.32" style="stroke: #000000; stroke-width: 0.8"/>
      </g>
     </g>
     <g id="text_6">
      <!-- 200 -->
      <g transform="translate(764.23875 273.957812) scale(0.14 -0.14)">
       <use xlink:href="#DejaVuSans-32"/>
       <use xlink:href="#DejaVuSans-30" x="63.623047"/>
       <use xlink:href="#DejaVuSans-30" x="127.246094"/>
      </g>
     </g>
    </g>
    <g id="text_7">
     <!-- Time (ms) -->
     <g transform="translate(407.521094 291.507187) scale(0.14 -0.14)">
      <defs>
       <path id="DejaVuSans-54" d="M -19 4666 
L 3928 4666 
L 3928 4134 
L 2272 4134 
L 2272 0 
L 1638 0 
L 1638 4134 
L -19 4134 
L -19 4666 
z
" transform="scale(0.015625)"/>
       <path id="DejaVuSans-69" d="M 603 3500 
L 1178 3500 
L 1178 0 
L 603 0 
L 603 3500 
z
M 603 4863 
L 1178 4863 
L 1178 4134 
L 603 4134 
L 603 4863 
z
" transform="scale(0.015625)"/>
       <path id="DejaVuSans-6d" d="M 3328 2828 
Q 3544 3216 3844 3400 
Q 4144 3584 4550 3584 
Q 5097 3584 5394 3201 
Q 5691 2819 5691 2113 
L 5691 0 
L 5113 0 
L 5113 2094 
Q 5113 2597 4934 2840 
Q 4756 3084 4391 3084 
Q 3944 3084 3684 2787 
Q 3425 2491 3425 1978 
L 3425 0 
L 2847 0 
L 2847 2094 
Q 2847 2600 2669 2842 
Q 2491 3084 2119 3084 
Q 1678 3084 1418 2786 
Q 1159 2488 1159 1978 
L 1159 0 
L 581 0 
L 581 3500 
L 1159 3500 
L 1159 2956 
Q 1356 3278 1631 3431 
Q 1906 3584 2284 3584 
Q 2666 3584 2933 3390 
Q 3200 3197 3328 2828 
z
" transform="scale(0.015625)"/>
       <path id="DejaVuSans-65" d="M 3597 1894 
L 3597 1613 
L 953 1613 
Q 991 1019 1311 708 
Q 1631 397 2203 397 
Q 2534 397 2845 478 
Q 3156 559 3463 722 
L 3463 178 
Q 3153 47 2828 -22 
Q 2503 -91 2169 -91 
Q 1331 -91 842 396 
Q 353 884 353 1716 
Q 353 2575 817 3079 
Q 1281 3584 2069 3584 
Q 2775 3584 3186 3129 
Q 3597 2675 3597 1894 
z
M 3022 2063 
Q 3016 2534 2758 2815 
Q 2500 3097 2075 3097 
Q 1594 3097 1305 2825 
Q 1016 2553 972 2059 
L 3022 2063 
z
" transform="scale(0.015625)"/>
       <path id="DejaVuSans-20" transform="scale(0.015625)"/>
       <path id="DejaVuSans-28" d="M 1984 4856 
Q 1566 4138 1362 3434 
Q 1159 2731 1159 2009 
Q 1159 1288 1364 580 
Q 1569 -128 1984 -844 
L 1484 -844 
Q 1016 -109 783 600 
Q 550 1309 550 2009 
Q 550 2706 781 3412 
Q 1013 4119 1484 4856 
L 1984 4856 
z
" transform="scale(0.015625)"/>
       <path id="DejaVuSans-73" d="M 2834 3397 
L 2834 2853 
Q 2591 2978 2328 3040 
Q 2066 3103 1784 3103 
Q 1356 3103 1142 2972 
Q 928 2841 928 2578 
Q 928 2378 1081 2264 
Q 1234 2150 1697 2047 
L 1894 2003 
Q 2506 1872 2764 1633 
Q 3022 1394 3022 966 
Q 3022 478 2636 193 
Q 2250 -91 1575 -91 
Q 1294 -91 989 -36 
Q 684 19 347 128 
L 347 722 
Q 666 556 975 473 
Q 1284 391 1588 391 
Q 1994 391 2212 530 
Q 2431 669 2431 922 
Q 2431 1156 2273 1281 
Q 2116 1406 1581 1522 
L 1381 1569 
Q 847 1681 609 1914 
Q 372 2147 372 2553 
Q 372 3047 722 3315 
Q 1072 3584 1716 3584 
Q 2034 3584 2315 3537 
Q 2597 3491 2834 3397 
z
" transform="scale(0.015625)"/>
       <path id="DejaVuSans-29" d="M 513 4856 
L 1013 4856 
Q 1481 4119 1714 3412 
Q 1947 2706 1947 2009 
Q 1947 1309 1714 600 
Q 1481 -109 1013 -844 
L 513 -844 
Q 928 -128 1133 580 
Q 1338 1288 1338 2009 
Q 1338 2731 1133 3434 
Q 928 4138 513 4856 
z
" transform="scale(0.015625)"/>
      </defs>
      <use xlink:href="#DejaVuSans-54"/>
      <use xlink:href="#DejaVuSans-69" x="57.958984"/>
      <use xlink:href="#DejaVuSans-6d" x="85.742188"/>
      <use xlink:href="#DejaVuSans-65" x="183.154297"/>
      <use xlink:href="#DejaVuSans-20" x="244.677734"/>
      <use xlink:href="#DejaVuSans-28" x="276.464844"/>
      <use xlink:href="#DejaVuSans-6d" x="315.478516"/>
      <use xlink:href="#DejaVuSans-73" x="412.890625"/>
      <use xlink:href="#DejaVuSans-29" x="464.990234"/>
     </g>
    </g>
   </g>
   <g id="matplotlib.axis_2">
    <g id="ytick_1">
     <g id="line2d_13">
      <path d="M 108 225.199204 
L 777.6 225.199204 
" clip-path="url(#p9172c44fcf)" style="fill: none; stroke: #b0b0b0; stroke-width: 0.8; stroke-linecap: square"/>
     </g>
     <g id="line2d_14">
      <defs>
       <path id="md6bae5a170" d="M 0 0 
L -3.5 0 
" style="stroke: #000000; stroke-width: 0.8"/>
      </defs>
      <g>
       <use xlink:href="#md6bae5a170" x="108" y="225.199204" style="stroke: #000000; stroke-width: 0.8"/>
      </g>
     </g>
     <g id="text_8">
      <!-- −60 -->
      <g transform="translate(71.453437 230.518111) scale(0.14 -0.14)">
       <defs>
        <path id="DejaVuSans-2212" d="M 678 2272 
L 4684 2272 
L 4684 1741 
L 678 1741 
L 678 2272 
z
" transform="scale(0.015625)"/>
       </defs>
       <use xlink:href="#DejaVuSans-2212"/>
       <use xlink:href="#DejaVuSans-36" x="83.789062"/>
       <use xlink:href="#DejaVuSans-30" x="147.412109"/>
      </g>
     </g>
    </g>
    <g id="ytick_2">
     <g id="line2d_15">
      <path d="M 108 183.184666 
L 777.6 183.184666 
" clip-path="url(#p9172c44fcf)" style="fill: none; stroke: #b0b0b0; stroke-width: 0.8; stroke-linecap: square"/>
     </g>
     <g id="line2d_16">
      <g>
       <use xlink:href="#md6bae5a170" x="108" y="183.184666" style="stroke: #000000; stroke-width: 0.8"/>
      </g>
     </g>
     <g id="text_9">
      <!-- −40 -->
      <g transform="translate(71.453437 188.503573) scale(0.14 -0.14)">
       <use xlink:href="#DejaVuSans-2212"/>
       <use xlink:href="#DejaVuSans-34" x="83.789062"/>
       <use xlink:href="#DejaVuSans-30" x="147.412109"/>
      </g>
     </g>
    </g>
    <g id="ytick_3">
     <g id="line2d_17">
      <path d="M 108 141.170128 
L 777.6 141.170128 
" clip-path="url(#p9172c44fcf)" style="fill: none; stroke: #b0b0b0; stroke-width: 0.8; stroke-linecap: square"/>
     </g>
     <g id="line2d_18">
      <g>
       <use xlink:href="#md6bae5a170" x="108" y="141.170128" style="stroke: #000000; stroke-width: 0.8"/>
      </g>
     </g>
     <g id="text_10">
      <!-- −20 -->
      <g transform="translate(71.453437 146.489035) scale(0.14 -0.14)">
       <use xlink:href="#DejaVuSans-2212"/>
       <use xlink:href="#DejaVuSans-32" x="83.789062"/>
       <use xlink:href="#DejaVuSans-30" x="147.412109"/>
      </g>
     </g>
    </g>
    <g id="ytick_4">
     <g id="line2d_19">
      <path d="M 108 99.15559 
L 777.6 99.15559 
" clip-path="url(#p9172c44fcf)" style="fill: none; stroke: #b0b0b0; stroke-width: 0.8; stroke-linecap: square"/>
     </g>
     <g id="line2d_20">
      <g>
       <use xlink:href="#md6bae5a170" x="108" y="99.15559" style="stroke: #000000; stroke-width: 0.8"/>
      </g>
     </g>
     <g id="text_11">
      <!-- 0 -->
      <g transform="translate(92.0925 104.474497) scale(0.14 -0.14)">
       <use xlink:href="#DejaVuSans-30"/>
      </g>
     </g>
    </g>
    <g id="ytick_5">
     <g id="line2d_21">
      <path d="M 108 57.141052 
L 777.6 57.141052 
" clip-path="url(#p9172c44fcf)" style="fill: none; stroke: #b0b0b0; stroke-width: 0.8; stroke-linecap: square"/>
     </g>
     <g id="line2d_22">
      <g>
       <use xlink:href="#md6bae5a170" x="108" y="57.141052" style="stroke: #000000; stroke-width: 0.8"/>
      </g>
     </g>
     <g id="text_12">
      <!-- 20 -->
      <g transform="translate(83.185 62.459959) scale(0.14 -0.14)">
       <use xlink:href="#DejaVuSans-32"/>
       <use xlink:href="#DejaVuSans-30" x="63.623047"/>
      </g>
     </g>
    </g>
    <g id="text_13">
     <!-- $V_{m}$ (mV) -->
     <g transform="translate(64.541875 174.49) rotate(-90) scale(0.14 -0.14)">
      <defs>
       <path id="DejaVuSans-Oblique-56" d="M 1319 0 
L 500 4666 
L 1119 4666 
L 1797 653 
L 4063 4666 
L 4750 4666 
L 2053 0 
L 1319 0 
z
" transform="scale(0.015625)"/>
       <path id="DejaVuSans-Oblique-6d" d="M 5747 2113 
L 5338 0 
L 4763 0 
L 5166 2094 
Q 5191 2228 5203 2325 
Q 5216 2422 5216 2491 
Q 5216 2772 5059 2928 
Q 4903 3084 4622 3084 
Q 4203 3084 3875 2770 
Q 3547 2456 3450 1953 
L 3066 0 
L 2491 0 
L 2900 2094 
Q 2925 2209 2937 2307 
Q 2950 2406 2950 2484 
Q 2950 2769 2794 2926 
Q 2638 3084 2363 3084 
Q 1938 3084 1609 2770 
Q 1281 2456 1184 1953 
L 800 0 
L 225 0 
L 909 3500 
L 1484 3500 
L 1375 2956 
Q 1609 3263 1923 3423 
Q 2238 3584 2597 3584 
Q 2978 3584 3223 3384 
Q 3469 3184 3519 2828 
Q 3781 3197 4126 3390 
Q 4472 3584 4856 3584 
Q 5306 3584 5551 3325 
Q 5797 3066 5797 2591 
Q 5797 2488 5784 2364 
Q 5772 2241 5747 2113 
z
" transform="scale(0.015625)"/>
       <path id="DejaVuSans-56" d="M 1831 0 
L 50 4666 
L 709 4666 
L 2188 738 
L 3669 4666 
L 4325 4666 
L 2547 0 
L 1831 0 
z
" transform="scale(0.015625)"/>
      </defs>
      <use xlink:href="#DejaVuSans-Oblique-56" transform="translate(0 0.125)"/>
      <use xlink:href="#DejaVuSans-Oblique-6d" transform="translate(68.408203 -16.28125) scale(0.7)"/>
      <use xlink:href="#DejaVuSans-20" transform="translate(139.331055 0.125)"/>
      <use xlink:href="#DejaVuSans-28" transform="translate(171.118164 0.125)"/>
      <use xlink:href="#DejaVuSans-6d" transform="translate(210.131836 0.125)"/>
      <use xlink:href="#DejaVuSans-56" transform="translate(307.543945 0.125)"/>
      <use xlink:href="#DejaVuSans-29" transform="translate(375.952148 0.125)"/>
     </g>
    </g>
   </g>
   <g id="line2d_23">
    <path d="M 108 221.401252 
L 108.6696 221.547479 
L 110.0088 222.403714 
L 111.348 222.757458 
L 112.6872 222.900594 
L 114.0264 223.613577 
L 115.3656 223.867326 
L 116.7048 225.249887 
L 117.3744 225.582952 
L 118.7136 225.923636 
L 120.0528 227.319805 
L 120.7224 227.997539 
L 121.392 228.487421 
L 123.4008 229.465639 
L 124.0704 230.458084 
L 124.74 231.179237 
L 125.4096 231.602273 
L 126.7488 232.630243 
L 127.4184 232.917042 
L 128.7576 233.792398 
L 130.0968 234.199719 
L 132.1056 234.464624 
L 134.1144 234.509894 
L 136.7928 234.338406 
L 137.4624 234.261988 
L 138.8016 234.600924 
L 140.1408 234.59937 
L 141.48 234.463253 
L 142.8192 234.784685 
L 144.1584 234.759508 
L 146.1672 234.488579 
L 149.5152 233.762725 
L 150.8544 233.405757 
L 152.1936 233.569835 
L 152.8632 233.511445 
L 154.2024 233.810902 
L 155.5416 233.72748 
L 157.5504 233.354 
L 160.8984 232.461335 
L 164.916 231.126005 
L 169.6032 229.313248 
L 174.96 226.991041 
L 181.656 223.815331 
L 189.6912 219.736707 
L 196.3872 216.151539 
L 199.7352 213.838556 
L 205.092 210.25491 
L 208.44 208.021272 
L 209.7792 208.088774 
L 210.4488 207.950313 
L 211.788 208.446709 
L 213.1272 208.404658 
L 215.136 207.924311 
L 217.1448 207.21362 
L 219.1536 206.345276 
L 219.8232 206.541595 
L 220.4928 207.215506 
L 221.1624 207.713779 
L 221.832 207.979983 
L 223.1712 209.099764 
L 223.8408 209.378708 
L 224.5104 210.017144 
L 225.18 210.994273 
L 225.8496 211.693308 
L 226.5192 212.11642 
L 227.1888 213.292279 
L 227.8584 214.23624 
L 228.528 214.806896 
L 229.8672 215.471985 
L 231.2064 215.83363 
L 233.2152 216.074806 
L 235.224 216.085482 
L 235.8936 216.900555 
L 236.5632 218.375369 
L 238.572 221.458368 
L 239.2416 222.227372 
L 242.5896 224.61659 
L 243.9288 225.068673 
L 244.5984 225.573281 
L 248.616 229.958011 
L 249.2856 230.355915 
L 251.2944 232.033661 
L 251.964 232.502343 
L 253.3032 233.037491 
L 255.312 233.450184 
L 257.3208 233.616384 
L 258.66 233.629907 
L 259.9992 234.106766 
L 261.3384 234.225651 
L 262.6776 234.718109 
L 264.0168 234.834693 
L 266.0256 234.748459 
L 266.6952 234.681637 
L 268.704 235.334035 
L 269.3736 235.813476 
L 270.0432 236.110287 
L 271.3824 236.303126 
L 273.3912 236.253582 
L 274.7304 236.609069 
L 276.0696 236.621367 
L 278.0784 236.403042 
L 280.7568 235.902682 
L 284.1048 235.054438 
L 285.444 235.188808 
L 286.7832 235.003816 
L 289.4616 234.335608 
L 292.8096 233.273216 
L 297.4968 231.521318 
L 302.8536 229.240787 
L 308.88 226.408488 
L 316.2456 222.671792 
L 325.62 217.64378 
L 330.3072 215.024838 
L 334.3248 212.220001 
L 344.3688 205.160727 
L 346.3776 203.340455 
L 347.7168 201.803215 
L 348.3864 200.797881 
L 349.056 199.508693 
L 349.7256 197.561436 
L 350.3952 193.729914 
L 351.0648 179.160165 
L 351.7344 91.154131 
L 352.404 45.112288 
L 353.7432 90.688152 
L 354.4128 105.574527 
L 355.752 129.135547 
L 357.7608 159.506753 
L 359.7696 186.448195 
L 360.4392 194.130243 
L 361.1088 199.823353 
L 361.7784 203.542978 
L 362.448 206.010024 
L 363.1176 207.742931 
L 365.1264 211.454177 
L 365.796 212.179377 
L 367.8048 215.003158 
L 368.4744 215.479359 
L 369.144 216.195613 
L 369.8136 217.519342 
L 370.4832 218.465375 
L 371.1528 219.008896 
L 371.8224 219.357097 
L 373.1616 220.439823 
L 374.5008 220.878444 
L 375.1704 220.97893 
L 376.5096 221.733827 
L 377.1792 221.893466 
L 379.8576 223.594655 
L 380.5272 223.799811 
L 381.8664 224.631596 
L 382.536 225.523935 
L 383.2056 226.873092 
L 384.5448 228.647058 
L 385.2144 229.265116 
L 386.5536 229.962344 
L 387.8928 230.356 
L 389.232 231.145768 
L 390.5712 231.498805 
L 391.2408 231.59718 
L 391.9104 231.965503 
L 393.2496 233.232464 
L 394.5888 234.744947 
L 395.2584 235.266288 
L 401.2848 238.247568 
L 403.2936 239.625215 
L 404.6328 239.994478 
L 406.6416 240.195928 
L 409.32 240.150393 
L 411.9984 239.871835 
L 415.3464 239.281561 
L 418.6944 238.477755 
L 422.712 237.284607 
L 427.3992 235.634791 
L 432.756 233.474671 
L 438.7824 230.769233 
L 445.4784 227.509287 
L 454.1832 223.004008 
L 454.8528 222.648025 
L 456.192 222.668373 
L 457.5312 222.3057 
L 460.2096 221.252448 
L 464.2272 219.400993 
L 466.9056 217.682729 
L 470.9232 215.125841 
L 472.2624 215.154943 
L 473.6016 214.763543 
L 476.28 213.619352 
L 480.9672 211.327397 
L 484.3152 209.596217 
L 485.6544 210.735179 
L 486.324 210.923848 
L 487.6632 210.921756 
L 489.0024 210.70908 
L 490.3416 212.161215 
L 491.0112 212.478527 
L 492.3504 212.709701 
L 493.6896 213.548325 
L 495.0288 213.815234 
L 496.368 213.839097 
L 497.7072 214.570743 
L 499.0464 214.781255 
L 501.0552 214.726241 
L 503.7336 214.354085 
L 505.7424 215.431488 
L 506.412 215.803729 
L 507.7512 216.0668 
L 508.4208 216.524299 
L 510.4296 218.864812 
L 511.0992 219.239504 
L 513.108 221.073265 
L 513.7776 221.598706 
L 514.4472 222.673104 
L 515.1168 223.505978 
L 515.7864 224.013058 
L 516.456 224.718808 
L 517.1256 225.615743 
L 517.7952 226.259736 
L 518.4648 226.681852 
L 519.1344 227.324226 
L 519.804 228.798264 
L 520.4736 229.899096 
L 521.8128 231.32988 
L 522.4824 232.216949 
L 524.4912 234.143282 
L 525.8304 234.82771 
L 526.5 235.065586 
L 527.8392 235.904265 
L 529.1784 236.329677 
L 530.5176 237.510004 
L 531.8568 238.018804 
L 533.8656 238.355437 
L 535.8744 238.456295 
L 538.5528 238.351808 
L 541.2312 238.040229 
L 544.5792 237.420077 
L 547.9272 236.589599 
L 551.2752 235.583418 
L 552.6144 235.661549 
L 553.9536 235.429024 
L 556.632 234.679696 
L 560.6496 233.284581 
L 565.3368 231.402726 
L 570.6936 229.004177 
L 576.72 226.06503 
L 584.0856 222.223823 
L 594.7992 216.351753 
L 598.8168 213.999631 
L 608.1912 207.57895 
L 611.5392 205.18189 
L 613.548 203.5106 
L 614.8872 202.190225 
L 616.2264 200.441758 
L 616.896 199.220767 
L 617.5656 197.477389 
L 618.2352 194.309525 
L 618.9048 184.678364 
L 619.5744 129.360468 
L 620.244 54.172897 
L 620.9136 67.501956 
L 621.5832 87.762669 
L 622.9224 117.889278 
L 625.6008 163.841804 
L 627.6096 191.588581 
L 628.2792 198.501056 
L 628.9488 203.190043 
L 629.6184 206.270028 
L 630.288 208.419791 
L 630.9576 210.016492 
L 632.9664 213.696381 
L 633.636 214.467979 
L 634.3056 215.445242 
L 634.9752 216.206753 
L 635.6448 216.719221 
L 636.984 217.353474 
L 637.6536 217.542189 
L 638.3232 218.06278 
L 640.332 220.361727 
L 641.0016 220.709765 
L 642.3408 221.067385 
L 643.0104 221.527204 
L 643.68 222.612636 
L 645.0192 224.176588 
L 646.3584 225.425479 
L 647.028 226.275673 
L 647.6976 226.868428 
L 648.3672 227.240527 
L 650.376 228.894277 
L 651.0456 229.355579 
L 652.3848 229.853349 
L 653.0544 230.004412 
L 655.7328 231.632482 
L 656.4024 231.853669 
L 657.7416 232.635466 
L 659.0808 232.962907 
L 660.42 233.100949 
L 661.7592 233.664577 
L 663.0984 233.846645 
L 664.4376 234.391375 
L 665.7768 234.550047 
L 667.7856 234.517026 
L 669.1248 234.918225 
L 669.7944 234.970425 
L 671.1336 235.943235 
L 672.4728 236.23562 
L 673.1424 236.277441 
L 674.4816 236.75323 
L 675.8208 236.857825 
L 677.16 236.80947 
L 678.4992 237.167471 
L 679.8384 237.186376 
L 681.8472 236.981026 
L 684.5256 236.499652 
L 685.8648 236.697987 
L 687.204 236.579618 
L 689.8824 236.038856 
L 693.2304 235.118146 
L 697.248 233.78021 
L 701.9352 231.976772 
L 707.292 229.668028 
L 713.3184 226.83217 
L 721.3536 222.779624 
L 731.3976 217.437651 
L 733.4064 216.116032 
L 738.7632 212.415914 
L 748.8072 205.940515 
L 750.1464 206.067476 
L 751.4856 205.782181 
L 752.8248 206.308109 
L 754.164 206.329139 
L 754.8336 206.23489 
L 756.1728 206.924185 
L 757.512 207.091953 
L 758.8512 206.997765 
L 760.86 206.622692 
L 761.5296 206.456884 
L 762.8688 207.062647 
L 764.208 207.195202 
L 766.2168 206.993174 
L 766.8864 206.8712 
L 767.556 207.234629 
L 768.2256 208.524326 
L 768.8952 209.529627 
L 769.5648 210.110801 
L 770.2344 210.478358 
L 771.5736 211.748097 
L 772.2432 212.091736 
L 773.5824 213.310502 
L 774.9216 213.86122 
L 775.5912 214.01516 
L 776.9304 215.791667 
L 777.6 216.67314 
L 777.6 216.67314 
" clip-path="url(#p9172c44fcf)" style="fill: none; stroke: #000000; stroke-width: 1.5; stroke-linecap: square"/>
   </g>
   <g id="line2d_24">
    <path d="M 108 133.775915 
L 117.3744 136.081856 
L 121.392 137.438583 
L 126.0792 139.38796 
L 131.436 141.785319 
L 134.784 143.011307 
L 143.4888 146.038587 
L 150.1848 148.58987 
L 152.8632 149.641783 
L 155.5416 150.971246 
L 164.2464 155.740031 
L 168.9336 158.570223 
L 172.9512 161.271217 
L 176.9688 164.286144 
L 180.9864 167.612512 
L 190.3608 175.576754 
L 193.0392 177.441793 
L 195.048 178.602205 
L 195.7176 178.938471 
L 196.3872 152.600055 
L 197.0568 145.805249 
L 197.7264 142.196161 
L 198.396 140.031591 
L 199.0656 138.585418 
L 199.7352 137.544393 
L 201.0744 136.107283 
L 202.4136 135.089324 
L 204.4224 133.87141 
L 207.1008 132.492796 
L 209.7792 131.3579 
L 211.788 130.812455 
L 215.8056 130.17904 
L 220.4928 129.56272 
L 222.5016 129.616173 
L 225.18 129.960023 
L 227.8584 130.582861 
L 231.2064 131.432824 
L 233.8848 131.856839 
L 236.5632 132.245776 
L 238.572 132.911129 
L 242.5896 134.408906 
L 247.9464 136.238523 
L 253.9728 138.691552 
L 257.3208 139.770396 
L 264.0168 141.772284 
L 270.0432 143.731581 
L 280.0872 147.804454 
L 286.7832 150.442414 
L 296.1576 154.817167 
L 301.5144 157.561757 
L 306.2016 160.225371 
L 310.2192 162.743046 
L 314.9064 165.943045 
L 324.2808 172.480337 
L 326.9592 174.06433 
L 329.6376 175.381769 
L 330.3072 150.408678 
L 330.9768 144.450466 
L 331.6464 141.193899 
L 332.316 139.241941 
L 332.9856 137.939869 
L 333.6552 137.001812 
L 334.9944 135.696283 
L 336.3336 134.749595 
L 339.012 133.221557 
L 342.36 131.59224 
L 345.708 130.214222 
L 349.7256 128.628643 
L 350.3952 128.232898 
L 351.0648 127.452346 
L 351.7344 124.295973 
L 353.0736 113.987726 
L 353.7432 110.785622 
L 354.4128 109.280627 
L 355.0824 108.991765 
L 355.752 109.482478 
L 356.4216 110.45589 
L 357.7608 113.178462 
L 359.7696 118.054105 
L 361.7784 122.903648 
L 363.1176 125.403224 
L 364.4568 127.204166 
L 365.796 128.515739 
L 367.1352 129.519091 
L 369.144 130.706032 
L 372.492 132.344198 
L 374.5008 133.104933 
L 378.5184 134.258816 
L 383.2056 135.708834 
L 389.9016 138.50331 
L 393.9192 139.957953 
L 401.2848 143.4474 
L 404.6328 145.215697 
L 408.6504 147.216038 
L 416.6856 150.829722 
L 423.3816 153.970029 
L 428.0688 156.421612 
L 432.0864 158.790687 
L 435.4344 161.022081 
L 438.7824 163.54935 
L 442.1304 166.421208 
L 445.4784 169.641586 
L 456.192 180.397452 
L 459.54 183.429387 
L 461.5488 184.969616 
L 463.5576 186.224074 
L 464.2272 157.361643 
L 464.8968 148.716242 
L 465.5664 144.39925 
L 466.236 141.809945 
L 466.9056 140.081118 
L 467.5752 138.841393 
L 468.2448 137.901744 
L 469.584 136.534827 
L 470.9232 135.525519 
L 472.2624 134.732802 
L 474.2712 133.803404 
L 477.6192 132.521987 
L 480.9672 131.484506 
L 484.3152 130.671905 
L 485.6544 130.485866 
L 489.0024 130.387399 
L 491.0112 130.482251 
L 506.412 132.045775 
L 509.76 132.711149 
L 513.7776 133.979366 
L 517.1256 135.306857 
L 520.4736 136.807197 
L 527.8392 140.566547 
L 536.544 144.359371 
L 541.9008 146.274108 
L 554.6232 150.713765 
L 563.9976 154.786521 
L 569.3544 157.341006 
L 574.0416 159.79719 
L 578.7288 162.489907 
L 584.7552 166.242645 
L 591.4512 170.39797 
L 594.7992 172.209474 
L 597.4776 173.419791 
L 598.1472 149.249094 
L 598.8168 143.715179 
L 599.4864 140.644516 
L 600.156 138.804598 
L 600.8256 137.579363 
L 601.4952 136.697367 
L 602.8344 135.466927 
L 604.8432 134.170366 
L 608.1912 132.409673 
L 611.5392 130.899409 
L 616.2264 129.11193 
L 617.5656 128.555649 
L 618.2352 128.192286 
L 618.9048 127.577617 
L 619.5744 125.478412 
L 621.5832 112.19028 
L 622.2528 110.23469 
L 622.9224 109.625792 
L 623.592 109.931544 
L 624.2616 110.841568 
L 625.6008 113.664183 
L 629.6184 123.73493 
L 630.9576 126.126261 
L 632.2968 127.839272 
L 633.636 129.105258 
L 634.9752 130.085204 
L 636.3144 130.862251 
L 638.3232 131.721343 
L 657.7416 138.884877 
L 662.4288 140.448338 
L 671.1336 143.372584 
L 679.8384 147.135673 
L 689.8824 151.768746 
L 696.5784 155.24833 
L 701.2656 157.956459 
L 705.2832 160.575033 
L 708.6312 163.03001 
L 711.9792 165.770725 
L 715.3272 168.788878 
L 724.7016 177.531739 
L 727.38 179.55412 
L 729.3888 180.794268 
L 731.3976 181.771942 
L 732.0672 154.359491 
L 732.7368 146.866265 
L 733.4064 142.972262 
L 734.076 140.633008 
L 734.7456 139.066489 
L 735.4152 137.937406 
L 736.7544 136.382809 
L 738.0936 135.294867 
L 740.1024 134.024175 
L 742.7808 132.629156 
L 745.4592 131.46525 
L 748.8072 130.293231 
L 750.816 129.810799 
L 752.8248 129.534244 
L 756.1728 129.390374 
L 766.2168 129.618572 
L 768.2256 129.75347 
L 770.2344 130.197547 
L 777.6 132.171257 
L 777.6 132.171257 
" clip-path="url(#p9172c44fcf)" style="fill: none; stroke: #4169e1; stroke-width: 1.5; stroke-linecap: square"/>
   </g>
   <g id="patch_3">
    <path d="M 108 256.32 
L 108 34.56 
" style="fill: none; stroke: #000000; stroke-width: 0.8; stroke-linejoin: miter; stroke-linecap: square"/>
   </g>
   <g id="patch_4">
    <path d="M 777.6 256.32 
L 777.6 34.56 
" style="fill: none; stroke: #000000; stroke-width: 0.8; stroke-linejoin: miter; stroke-linecap: square"/>
   </g>
   <g id="patch_5">
    <path d="M 108 256.32 
L 777.6 256.32 
" style="fill: none; stroke: #000000; stroke-width: 0.8; stroke-linejoin: miter; stroke-linecap: square"/>
   </g>
   <g id="patch_6">
    <path d="M 108 34.56 
L 777.6 34.56 
" style="fill: none; stroke: #000000; stroke-width: 0.8; stroke-linejoin: miter; stroke-linecap: square"/>
   </g>
   <g id="legend_1">
    <g id="patch_7">
     <path d="M 695.098438 71.91625 
L 770.6 71.91625 
Q 772.6 71.91625 772.6 69.91625 
L 772.6 41.56 
Q 772.6 39.56 770.6 39.56 
L 695.098438 39.56 
Q 693.098438 39.56 693.098438 41.56 
L 693.098438 69.91625 
Q 693.098438 71.91625 695.098438 71.91625 
z
" style="fill: #ffffff; opacity: 0.8; stroke: #cccccc; stroke-linejoin: miter"/>
    </g>
    <g id="line2d_25">
     <path d="M 697.098438 47.658437 
L 707.098438 47.658437 
L 717.098438 47.658437 
" style="fill: none; stroke: #000000; stroke-width: 1.5; stroke-linecap: square"/>
    </g>
    <g id="text_14">
     <!-- Soma -->
     <g transform="translate(725.098438 51.158437) scale(0.1 -0.1)">
      <defs>
       <path id="DejaVuSans-53" d="M 3425 4513 
L 3425 3897 
Q 3066 4069 2747 4153 
Q 2428 4238 2131 4238 
Q 1616 4238 1336 4038 
Q 1056 3838 1056 3469 
Q 1056 3159 1242 3001 
Q 1428 2844 1947 2747 
L 2328 2669 
Q 3034 2534 3370 2195 
Q 3706 1856 3706 1288 
Q 3706 609 3251 259 
Q 2797 -91 1919 -91 
Q 1588 -91 1214 -16 
Q 841 59 441 206 
L 441 856 
Q 825 641 1194 531 
Q 1563 422 1919 422 
Q 2459 422 2753 634 
Q 3047 847 3047 1241 
Q 3047 1584 2836 1778 
Q 2625 1972 2144 2069 
L 1759 2144 
Q 1053 2284 737 2584 
Q 422 2884 422 3419 
Q 422 4038 858 4394 
Q 1294 4750 2059 4750 
Q 2388 4750 2728 4690 
Q 3069 4631 3425 4513 
z
" transform="scale(0.015625)"/>
       <path id="DejaVuSans-6f" d="M 1959 3097 
Q 1497 3097 1228 2736 
Q 959 2375 959 1747 
Q 959 1119 1226 758 
Q 1494 397 1959 397 
Q 2419 397 2687 759 
Q 2956 1122 2956 1747 
Q 2956 2369 2687 2733 
Q 2419 3097 1959 3097 
z
M 1959 3584 
Q 2709 3584 3137 3096 
Q 3566 2609 3566 1747 
Q 3566 888 3137 398 
Q 2709 -91 1959 -91 
Q 1206 -91 779 398 
Q 353 888 353 1747 
Q 353 2609 779 3096 
Q 1206 3584 1959 3584 
z
" transform="scale(0.015625)"/>
       <path id="DejaVuSans-61" d="M 2194 1759 
Q 1497 1759 1228 1600 
Q 959 1441 959 1056 
Q 959 750 1161 570 
Q 1363 391 1709 391 
Q 2188 391 2477 730 
Q 2766 1069 2766 1631 
L 2766 1759 
L 2194 1759 
z
M 3341 1997 
L 3341 0 
L 2766 0 
L 2766 531 
Q 2569 213 2275 61 
Q 1981 -91 1556 -91 
Q 1019 -91 701 211 
Q 384 513 384 1019 
Q 384 1609 779 1909 
Q 1175 2209 1959 2209 
L 2766 2209 
L 2766 2266 
Q 2766 2663 2505 2880 
Q 2244 3097 1772 3097 
Q 1472 3097 1187 3025 
Q 903 2953 641 2809 
L 641 3341 
Q 956 3463 1253 3523 
Q 1550 3584 1831 3584 
Q 2591 3584 2966 3190 
Q 3341 2797 3341 1997 
z
" transform="scale(0.015625)"/>
      </defs>
      <use xlink:href="#DejaVuSans-53"/>
      <use xlink:href="#DejaVuSans-6f" x="63.476562"/>
      <use xlink:href="#DejaVuSans-6d" x="124.658203"/>
      <use xlink:href="#DejaVuSans-61" x="222.070312"/>
     </g>
    </g>
    <g id="line2d_26">
     <path d="M 697.098438 62.336562 
L 707.098438 62.336562 
L 717.098438 62.336562 
" style="fill: none; stroke: #4169e1; stroke-width: 1.5; stroke-linecap: square"/>
    </g>
    <g id="text_15">
     <!-- Dendrite -->
     <g transform="translate(725.098438 65.836562) scale(0.1 -0.1)">
      <defs>
       <path id="DejaVuSans-44" d="M 1259 4147 
L 1259 519 
L 2022 519 
Q 2988 519 3436 956 
Q 3884 1394 3884 2338 
Q 3884 3275 3436 3711 
Q 2988 4147 2022 4147 
L 1259 4147 
z
M 628 4666 
L 1925 4666 
Q 3281 4666 3915 4102 
Q 4550 3538 4550 2338 
Q 4550 1131 3912 565 
Q 3275 0 1925 0 
L 628 0 
L 628 4666 
z
" transform="scale(0.015625)"/>
       <path id="DejaVuSans-6e" d="M 3513 2113 
L 3513 0 
L 2938 0 
L 2938 2094 
Q 2938 2591 2744 2837 
Q 2550 3084 2163 3084 
Q 1697 3084 1428 2787 
Q 1159 2491 1159 1978 
L 1159 0 
L 581 0 
L 581 3500 
L 1159 3500 
L 1159 2956 
Q 1366 3272 1645 3428 
Q 1925 3584 2291 3584 
Q 2894 3584 3203 3211 
Q 3513 2838 3513 2113 
z
" transform="scale(0.015625)"/>
       <path id="DejaVuSans-64" d="M 2906 2969 
L 2906 4863 
L 3481 4863 
L 3481 0 
L 2906 0 
L 2906 525 
Q 2725 213 2448 61 
Q 2172 -91 1784 -91 
Q 1150 -91 751 415 
Q 353 922 353 1747 
Q 353 2572 751 3078 
Q 1150 3584 1784 3584 
Q 2172 3584 2448 3432 
Q 2725 3281 2906 2969 
z
M 947 1747 
Q 947 1113 1208 752 
Q 1469 391 1925 391 
Q 2381 391 2643 752 
Q 2906 1113 2906 1747 
Q 2906 2381 2643 2742 
Q 2381 3103 1925 3103 
Q 1469 3103 1208 2742 
Q 947 2381 947 1747 
z
" transform="scale(0.015625)"/>
       <path id="DejaVuSans-72" d="M 2631 2963 
Q 2534 3019 2420 3045 
Q 2306 3072 2169 3072 
Q 1681 3072 1420 2755 
Q 1159 2438 1159 1844 
L 1159 0 
L 581 0 
L 581 3500 
L 1159 3500 
L 1159 2956 
Q 1341 3275 1631 3429 
Q 1922 3584 2338 3584 
Q 2397 3584 2469 3576 
Q 2541 3569 2628 3553 
L 2631 2963 
z
" transform="scale(0.015625)"/>
       <path id="DejaVuSans-74" d="M 1172 4494 
L 1172 3500 
L 2356 3500 
L 2356 3053 
L 1172 3053 
L 1172 1153 
Q 1172 725 1289 603 
Q 1406 481 1766 481 
L 2356 481 
L 2356 0 
L 1766 0 
Q 1100 0 847 248 
Q 594 497 594 1153 
L 594 3053 
L 172 3053 
L 172 3500 
L 594 3500 
L 594 4494 
L 1172 4494 
z
" transform="scale(0.015625)"/>
      </defs>
      <use xlink:href="#DejaVuSans-44"/>
      <use xlink:href="#DejaVuSans-65" x="77.001953"/>
      <use xlink:href="#DejaVuSans-6e" x="138.525391"/>
      <use xlink:href="#DejaVuSans-64" x="201.904297"/>
      <use xlink:href="#DejaVuSans-72" x="265.380859"/>
      <use xlink:href="#DejaVuSans-69" x="306.494141"/>
      <use xlink:href="#DejaVuSans-74" x="334.277344"/>
      <use xlink:href="#DejaVuSans-65" x="373.486328"/>
     </g>
    </g>
   </g>
  </g>
 </g>
 <defs>
  <clipPath id="p9172c44fcf">
   <rect x="108" y="34.56" width="669.6" height="221.76"/>
  </clipPath>
 </defs>
</svg>
