<?xml version="1.0" encoding="utf-8" standalone="no"?>
<!DOCTYPE svg PUBLIC "-//W3C//DTD SVG 1.1//EN"
  "http://www.w3.org/Graphics/SVG/1.1/DTD/svg11.dtd">
<svg xmlns:xlink="http://www.w3.org/1999/xlink" width="864pt" height="288pt" viewBox="0 0 864 288" xmlns="http://www.w3.org/2000/svg" version="1.1">
 <metadata>
  <rdf:RDF xmlns:dc="http://purl.org/dc/elements/1.1/" xmlns:cc="http://creativecommons.org/ns#" xmlns:rdf="http://www.w3.org/1999/02/22-rdf-syntax-ns#">
   <cc:Work>
    <dc:type rdf:resource="http://purl.org/dc/dcmitype/StillImage"/>
    <dc:date>2024-04-26T13:30:14.259849</dc:date>
    <dc:format>image/svg+xml</dc:format>
    <dc:creator>
     <cc:Agent>
      <dc:title>Matplotlib v3.8.2, https://matplotlib.org/</dc:title>
     </cc:Agent>
    </dc:creator>
   </cc:Work>
  </rdf:RDF>
 </metadata>
 <defs>
  <style type="text/css">*{stroke-linejoin: round; stroke-linecap: butt}</style>
 </defs>
 <g id="figure_1">
  <g id="patch_1">
   <path d="M 0 288 
L 864 288 
L 864 0 
L 0 0 
z
" style="fill: #ffffff"/>
  </g>
  <g id="axes_1">
   <g id="patch_2">
    <path d="M 108 256.32 
L 777.6 256.32 
L 777.6 34.56 
L 108 34.56 
z
" style="fill: #ffffff"/>
   </g>
   <g id="matplotlib.axis_1">
    <g id="xtick_1">
     <g id="line2d_1">
      <path d="M 108 256.32 
L 108 34.56 
" clip-path="url(#p06b265c1f0)" style="fill: none; stroke: #b0b0b0; stroke-width: 0.8; stroke-linecap: square"/>
     </g>
     <g id="line2d_2">
      <defs>
       <path id="m0801fb673d" d="M 0 0 
L 0 3.5 
" style="stroke: #000000; stroke-width: 0.8"/>
      </defs>
      <g>
       <use xlink:href="#m0801fb673d" x="108" y="256.32" style="stroke: #000000; stroke-width: 0.8"/>
      </g>
     </g>
     <g id="text_1">
      <!-- 100 -->
      <g transform="translate(94.63875 273.957812) scale(0.14 -0.14)">
       <defs>
        <path id="DejaVuSans-31" d="M 794 531 
L 1825 531 
L 1825 4091 
L 703 3866 
L 703 4441 
L 1819 4666 
L 2450 4666 
L 2450 531 
L 3481 531 
L 3481 0 
L 794 0 
L 794 531 
z
" transform="scale(0.015625)"/>
        <path id="DejaVuSans-30" d="M 2034 4250 
Q 1547 4250 1301 3770 
Q 1056 3291 1056 2328 
Q 1056 1369 1301 889 
Q 1547 409 2034 409 
Q 2525 409 2770 889 
Q 3016 1369 3016 2328 
Q 3016 3291 2770 3770 
Q 2525 4250 2034 4250 
z
M 2034 4750 
Q 2819 4750 3233 4129 
Q 3647 3509 3647 2328 
Q 3647 1150 3233 529 
Q 2819 -91 2034 -91 
Q 1250 -91 836 529 
Q 422 1150 422 2328 
Q 422 3509 836 4129 
Q 1250 4750 2034 4750 
z
" transform="scale(0.015625)"/>
       </defs>
       <use xlink:href="#DejaVuSans-31"/>
       <use xlink:href="#DejaVuSans-30" x="63.623047"/>
       <use xlink:href="#DejaVuSans-30" x="127.246094"/>
      </g>
     </g>
    </g>
    <g id="xtick_2">
     <g id="line2d_3">
      <path d="M 241.92 256.32 
L 241.92 34.56 
" clip-path="url(#p06b265c1f0)" style="fill: none; stroke: #b0b0b0; stroke-width: 0.8; stroke-linecap: square"/>
     </g>
     <g id="line2d_4">
      <g>
       <use xlink:href="#m0801fb673d" x="241.92" y="256.32" style="stroke: #000000; stroke-width: 0.8"/>
      </g>
     </g>
     <g id="text_2">
      <!-- 120 -->
      <g transform="translate(228.55875 273.957812) scale(0.14 -0.14)">
       <defs>
        <path id="DejaVuSans-32" d="M 1228 531 
L 3431 531 
L 3431 0 
L 469 0 
L 469 531 
Q 828 903 1448 1529 
Q 2069 2156 2228 2338 
Q 2531 2678 2651 2914 
Q 2772 3150 2772 3378 
Q 2772 3750 2511 3984 
Q 2250 4219 1831 4219 
Q 1534 4219 1204 4116 
Q 875 4013 500 3803 
L 500 4441 
Q 881 4594 1212 4672 
Q 1544 4750 1819 4750 
Q 2544 4750 2975 4387 
Q 3406 4025 3406 3419 
Q 3406 3131 3298 2873 
Q 3191 2616 2906 2266 
Q 2828 2175 2409 1742 
Q 1991 1309 1228 531 
z
" transform="scale(0.015625)"/>
       </defs>
       <use xlink:href="#DejaVuSans-31"/>
       <use xlink:href="#DejaVuSans-32" x="63.623047"/>
       <use xlink:href="#DejaVuSans-30" x="127.246094"/>
      </g>
     </g>
    </g>
    <g id="xtick_3">
     <g id="line2d_5">
      <path d="M 375.84 256.32 
L 375.84 34.56 
" clip-path="url(#p06b265c1f0)" style="fill: none; stroke: #b0b0b0; stroke-width: 0.8; stroke-linecap: square"/>
     </g>
     <g id="line2d_6">
      <g>
       <use xlink:href="#m0801fb673d" x="375.84" y="256.32" style="stroke: #000000; stroke-width: 0.8"/>
      </g>
     </g>
     <g id="text_3">
      <!-- 140 -->
      <g transform="translate(362.47875 273.957812) scale(0.14 -0.14)">
       <defs>
        <path id="DejaVuSans-34" d="M 2419 4116 
L 825 1625 
L 2419 1625 
L 2419 4116 
z
M 2253 4666 
L 3047 4666 
L 3047 1625 
L 3713 1625 
L 3713 1100 
L 3047 1100 
L 3047 0 
L 2419 0 
L 2419 1100 
L 313 1100 
L 313 1709 
L 2253 4666 
z
" transform="scale(0.015625)"/>
       </defs>
       <use xlink:href="#DejaVuSans-31"/>
       <use xlink:href="#DejaVuSans-34" x="63.623047"/>
       <use xlink:href="#DejaVuSans-30" x="127.246094"/>
      </g>
     </g>
    </g>
    <g id="xtick_4">
     <g id="line2d_7">
      <path d="M 509.76 256.32 
L 509.76 34.56 
" clip-path="url(#p06b265c1f0)" style="fill: none; stroke: #b0b0b0; stroke-width: 0.8; stroke-linecap: square"/>
     </g>
     <g id="line2d_8">
      <g>
       <use xlink:href="#m0801fb673d" x="509.76" y="256.32" style="stroke: #000000; stroke-width: 0.8"/>
      </g>
     </g>
     <g id="text_4">
      <!-- 160 -->
      <g transform="translate(496.39875 273.957812) scale(0.14 -0.14)">
       <defs>
        <path id="DejaVuSans-36" d="M 2113 2584 
Q 1688 2584 1439 2293 
Q 1191 2003 1191 1497 
Q 1191 994 1439 701 
Q 1688 409 2113 409 
Q 2538 409 2786 701 
Q 3034 994 3034 1497 
Q 3034 2003 2786 2293 
Q 2538 2584 2113 2584 
z
M 3366 4563 
L 3366 3988 
Q 3128 4100 2886 4159 
Q 2644 4219 2406 4219 
Q 1781 4219 1451 3797 
Q 1122 3375 1075 2522 
Q 1259 2794 1537 2939 
Q 1816 3084 2150 3084 
Q 2853 3084 3261 2657 
Q 3669 2231 3669 1497 
Q 3669 778 3244 343 
Q 2819 -91 2113 -91 
Q 1303 -91 875 529 
Q 447 1150 447 2328 
Q 447 3434 972 4092 
Q 1497 4750 2381 4750 
Q 2619 4750 2861 4703 
Q 3103 4656 3366 4563 
z
" transform="scale(0.015625)"/>
       </defs>
       <use xlink:href="#DejaVuSans-31"/>
       <use xlink:href="#DejaVuSans-36" x="63.623047"/>
       <use xlink:href="#DejaVuSans-30" x="127.246094"/>
      </g>
     </g>
    </g>
    <g id="xtick_5">
     <g id="line2d_9">
      <path d="M 643.68 256.32 
L 643.68 34.56 
" clip-path="url(#p06b265c1f0)" style="fill: none; stroke: #b0b0b0; stroke-width: 0.8; stroke-linecap: square"/>
     </g>
     <g id="line2d_10">
      <g>
       <use xlink:href="#m0801fb673d" x="643.68" y="256.32" style="stroke: #000000; stroke-width: 0.8"/>
      </g>
     </g>
     <g id="text_5">
      <!-- 180 -->
      <g transform="translate(630.31875 273.957812) scale(0.14 -0.14)">
       <defs>
        <path id="DejaVuSans-38" d="M 2034 2216 
Q 1584 2216 1326 1975 
Q 1069 1734 1069 1313 
Q 1069 891 1326 650 
Q 1584 409 2034 409 
Q 2484 409 2743 651 
Q 3003 894 3003 1313 
Q 3003 1734 2745 1975 
Q 2488 2216 2034 2216 
z
M 1403 2484 
Q 997 2584 770 2862 
Q 544 3141 544 3541 
Q 544 4100 942 4425 
Q 1341 4750 2034 4750 
Q 2731 4750 3128 4425 
Q 3525 4100 3525 3541 
Q 3525 3141 3298 2862 
Q 3072 2584 2669 2484 
Q 3125 2378 3379 2068 
Q 3634 1759 3634 1313 
Q 3634 634 3220 271 
Q 2806 -91 2034 -91 
Q 1263 -91 848 271 
Q 434 634 434 1313 
Q 434 1759 690 2068 
Q 947 2378 1403 2484 
z
M 1172 3481 
Q 1172 3119 1398 2916 
Q 1625 2713 2034 2713 
Q 2441 2713 2670 2916 
Q 2900 3119 2900 3481 
Q 2900 3844 2670 4047 
Q 2441 4250 2034 4250 
Q 1625 4250 1398 4047 
Q 1172 3844 1172 3481 
z
" transform="scale(0.015625)"/>
       </defs>
       <use xlink:href="#DejaVuSans-31"/>
       <use xlink:href="#DejaVuSans-38" x="63.623047"/>
       <use xlink:href="#DejaVuSans-30" x="127.246094"/>
      </g>
     </g>
    </g>
    <g id="xtick_6">
     <g id="line2d_11">
      <path d="M 777.6 256.32 
L 777.6 34.56 
" clip-path="url(#p06b265c1f0)" style="fill: none; stroke: #b0b0b0; stroke-width: 0.8; stroke-linecap: square"/>
     </g>
     <g id="line2d_12">
      <g>
       <use xlink:href="#m0801fb673d" x="777.6" y="256.32" style="stroke: #000000; stroke-width: 0.8"/>
      </g>
     </g>
     <g id="text_6">
      <!-- 200 -->
      <g transform="translate(764.23875 273.957812) scale(0.14 -0.14)">
       <use xlink:href="#DejaVuSans-32"/>
       <use xlink:href="#DejaVuSans-30" x="63.623047"/>
       <use xlink:href="#DejaVuSans-30" x="127.246094"/>
      </g>
     </g>
    </g>
    <g id="text_7">
     <!-- Time (ms) -->
     <g transform="translate(407.521094 291.507187) scale(0.14 -0.14)">
      <defs>
       <path id="DejaVuSans-54" d="M -19 4666 
L 3928 4666 
L 3928 4134 
L 2272 4134 
L 2272 0 
L 1638 0 
L 1638 4134 
L -19 4134 
L -19 4666 
z
" transform="scale(0.015625)"/>
       <path id="DejaVuSans-69" d="M 603 3500 
L 1178 3500 
L 1178 0 
L 603 0 
L 603 3500 
z
M 603 4863 
L 1178 4863 
L 1178 4134 
L 603 4134 
L 603 4863 
z
" transform="scale(0.015625)"/>
       <path id="DejaVuSans-6d" d="M 3328 2828 
Q 3544 3216 3844 3400 
Q 4144 3584 4550 3584 
Q 5097 3584 5394 3201 
Q 5691 2819 5691 2113 
L 5691 0 
L 5113 0 
L 5113 2094 
Q 5113 2597 4934 2840 
Q 4756 3084 4391 3084 
Q 3944 3084 3684 2787 
Q 3425 2491 3425 1978 
L 3425 0 
L 2847 0 
L 2847 2094 
Q 2847 2600 2669 2842 
Q 2491 3084 2119 3084 
Q 1678 3084 1418 2786 
Q 1159 2488 1159 1978 
L 1159 0 
L 581 0 
L 581 3500 
L 1159 3500 
L 1159 2956 
Q 1356 3278 1631 3431 
Q 1906 3584 2284 3584 
Q 2666 3584 2933 3390 
Q 3200 3197 3328 2828 
z
" transform="scale(0.015625)"/>
       <path id="DejaVuSans-65" d="M 3597 1894 
L 3597 1613 
L 953 1613 
Q 991 1019 1311 708 
Q 1631 397 2203 397 
Q 2534 397 2845 478 
Q 3156 559 3463 722 
L 3463 178 
Q 3153 47 2828 -22 
Q 2503 -91 2169 -91 
Q 1331 -91 842 396 
Q 353 884 353 1716 
Q 353 2575 817 3079 
Q 1281 3584 2069 3584 
Q 2775 3584 3186 3129 
Q 3597 2675 3597 1894 
z
M 3022 2063 
Q 3016 2534 2758 2815 
Q 2500 3097 2075 3097 
Q 1594 3097 1305 2825 
Q 1016 2553 972 2059 
L 3022 2063 
z
" transform="scale(0.015625)"/>
       <path id="DejaVuSans-20" transform="scale(0.015625)"/>
       <path id="DejaVuSans-28" d="M 1984 4856 
Q 1566 4138 1362 3434 
Q 1159 2731 1159 2009 
Q 1159 1288 1364 580 
Q 1569 -128 1984 -844 
L 1484 -844 
Q 1016 -109 783 600 
Q 550 1309 550 2009 
Q 550 2706 781 3412 
Q 1013 4119 1484 4856 
L 1984 4856 
z
" transform="scale(0.015625)"/>
       <path id="DejaVuSans-73" d="M 2834 3397 
L 2834 2853 
Q 2591 2978 2328 3040 
Q 2066 3103 1784 3103 
Q 1356 3103 1142 2972 
Q 928 2841 928 2578 
Q 928 2378 1081 2264 
Q 1234 2150 1697 2047 
L 1894 2003 
Q 2506 1872 2764 1633 
Q 3022 1394 3022 966 
Q 3022 478 2636 193 
Q 2250 -91 1575 -91 
Q 1294 -91 989 -36 
Q 684 19 347 128 
L 347 722 
Q 666 556 975 473 
Q 1284 391 1588 391 
Q 1994 391 2212 530 
Q 2431 669 2431 922 
Q 2431 1156 2273 1281 
Q 2116 1406 1581 1522 
L 1381 1569 
Q 847 1681 609 1914 
Q 372 2147 372 2553 
Q 372 3047 722 3315 
Q 1072 3584 1716 3584 
Q 2034 3584 2315 3537 
Q 2597 3491 2834 3397 
z
" transform="scale(0.015625)"/>
       <path id="DejaVuSans-29" d="M 513 4856 
L 1013 4856 
Q 1481 4119 1714 3412 
Q 1947 2706 1947 2009 
Q 1947 1309 1714 600 
Q 1481 -109 1013 -844 
L 513 -844 
Q 928 -128 1133 580 
Q 1338 1288 1338 2009 
Q 1338 2731 1133 3434 
Q 928 4138 513 4856 
z
" transform="scale(0.015625)"/>
      </defs>
      <use xlink:href="#DejaVuSans-54"/>
      <use xlink:href="#DejaVuSans-69" x="57.958984"/>
      <use xlink:href="#DejaVuSans-6d" x="85.742188"/>
      <use xlink:href="#DejaVuSans-65" x="183.154297"/>
      <use xlink:href="#DejaVuSans-20" x="244.677734"/>
      <use xlink:href="#DejaVuSans-28" x="276.464844"/>
      <use xlink:href="#DejaVuSans-6d" x="315.478516"/>
      <use xlink:href="#DejaVuSans-73" x="412.890625"/>
      <use xlink:href="#DejaVuSans-29" x="464.990234"/>
     </g>
    </g>
   </g>
   <g id="matplotlib.axis_2">
    <g id="ytick_1">
     <g id="line2d_13">
      <path d="M 108 224.51636 
L 777.6 224.51636 
" clip-path="url(#p06b265c1f0)" style="fill: none; stroke: #b0b0b0; stroke-width: 0.8; stroke-linecap: square"/>
     </g>
     <g id="line2d_14">
      <defs>
       <path id="m15e2733b9a" d="M 0 0 
L -3.5 0 
" style="stroke: #000000; stroke-width: 0.8"/>
      </defs>
      <g>
       <use xlink:href="#m15e2733b9a" x="108" y="224.51636" style="stroke: #000000; stroke-width: 0.8"/>
      </g>
     </g>
     <g id="text_8">
      <!-- −60 -->
      <g transform="translate(71.453437 229.835266) scale(0.14 -0.14)">
       <defs>
        <path id="DejaVuSans-2212" d="M 678 2272 
L 4684 2272 
L 4684 1741 
L 678 1741 
L 678 2272 
z
" transform="scale(0.015625)"/>
       </defs>
       <use xlink:href="#DejaVuSans-2212"/>
       <use xlink:href="#DejaVuSans-36" x="83.789062"/>
       <use xlink:href="#DejaVuSans-30" x="147.412109"/>
      </g>
     </g>
    </g>
    <g id="ytick_2">
     <g id="line2d_15">
      <path d="M 108 181.138309 
L 777.6 181.138309 
" clip-path="url(#p06b265c1f0)" style="fill: none; stroke: #b0b0b0; stroke-width: 0.8; stroke-linecap: square"/>
     </g>
     <g id="line2d_16">
      <g>
       <use xlink:href="#m15e2733b9a" x="108" y="181.138309" style="stroke: #000000; stroke-width: 0.8"/>
      </g>
     </g>
     <g id="text_9">
      <!-- −40 -->
      <g transform="translate(71.453437 186.457215) scale(0.14 -0.14)">
       <use xlink:href="#DejaVuSans-2212"/>
       <use xlink:href="#DejaVuSans-34" x="83.789062"/>
       <use xlink:href="#DejaVuSans-30" x="147.412109"/>
      </g>
     </g>
    </g>
    <g id="ytick_3">
     <g id="line2d_17">
      <path d="M 108 137.760257 
L 777.6 137.760257 
" clip-path="url(#p06b265c1f0)" style="fill: none; stroke: #b0b0b0; stroke-width: 0.8; stroke-linecap: square"/>
     </g>
     <g id="line2d_18">
      <g>
       <use xlink:href="#m15e2733b9a" x="108" y="137.760257" style="stroke: #000000; stroke-width: 0.8"/>
      </g>
     </g>
     <g id="text_10">
      <!-- −20 -->
      <g transform="translate(71.453437 143.079164) scale(0.14 -0.14)">
       <use xlink:href="#DejaVuSans-2212"/>
       <use xlink:href="#DejaVuSans-32" x="83.789062"/>
       <use xlink:href="#DejaVuSans-30" x="147.412109"/>
      </g>
     </g>
    </g>
    <g id="ytick_4">
     <g id="line2d_19">
      <path d="M 108 94.382206 
L 777.6 94.382206 
" clip-path="url(#p06b265c1f0)" style="fill: none; stroke: #b0b0b0; stroke-width: 0.8; stroke-linecap: square"/>
     </g>
     <g id="line2d_20">
      <g>
       <use xlink:href="#m15e2733b9a" x="108" y="94.382206" style="stroke: #000000; stroke-width: 0.8"/>
      </g>
     </g>
     <g id="text_11">
      <!-- 0 -->
      <g transform="translate(92.0925 99.701112) scale(0.14 -0.14)">
       <use xlink:href="#DejaVuSans-30"/>
      </g>
     </g>
    </g>
    <g id="ytick_5">
     <g id="line2d_21">
      <path d="M 108 51.004155 
L 777.6 51.004155 
" clip-path="url(#p06b265c1f0)" style="fill: none; stroke: #b0b0b0; stroke-width: 0.8; stroke-linecap: square"/>
     </g>
     <g id="line2d_22">
      <g>
       <use xlink:href="#m15e2733b9a" x="108" y="51.004155" style="stroke: #000000; stroke-width: 0.8"/>
      </g>
     </g>
     <g id="text_12">
      <!-- 20 -->
      <g transform="translate(83.185 56.323061) scale(0.14 -0.14)">
       <use xlink:href="#DejaVuSans-32"/>
       <use xlink:href="#DejaVuSans-30" x="63.623047"/>
      </g>
     </g>
    </g>
    <g id="text_13">
     <!-- $V_{m}$ (mV) -->
     <g transform="translate(64.541875 174.49) rotate(-90) scale(0.14 -0.14)">
      <defs>
       <path id="DejaVuSans-Oblique-56" d="M 1319 0 
L 500 4666 
L 1119 4666 
L 1797 653 
L 4063 4666 
L 4750 4666 
L 2053 0 
L 1319 0 
z
" transform="scale(0.015625)"/>
       <path id="DejaVuSans-Oblique-6d" d="M 5747 2113 
L 5338 0 
L 4763 0 
L 5166 2094 
Q 5191 2228 5203 2325 
Q 5216 2422 5216 2491 
Q 5216 2772 5059 2928 
Q 4903 3084 4622 3084 
Q 4203 3084 3875 2770 
Q 3547 2456 3450 1953 
L 3066 0 
L 2491 0 
L 2900 2094 
Q 2925 2209 2937 2307 
Q 2950 2406 2950 2484 
Q 2950 2769 2794 2926 
Q 2638 3084 2363 3084 
Q 1938 3084 1609 2770 
Q 1281 2456 1184 1953 
L 800 0 
L 225 0 
L 909 3500 
L 1484 3500 
L 1375 2956 
Q 1609 3263 1923 3423 
Q 2238 3584 2597 3584 
Q 2978 3584 3223 3384 
Q 3469 3184 3519 2828 
Q 3781 3197 4126 3390 
Q 4472 3584 4856 3584 
Q 5306 3584 5551 3325 
Q 5797 3066 5797 2591 
Q 5797 2488 5784 2364 
Q 5772 2241 5747 2113 
z
" transform="scale(0.015625)"/>
       <path id="DejaVuSans-56" d="M 1831 0 
L 50 4666 
L 709 4666 
L 2188 738 
L 3669 4666 
L 4325 4666 
L 2547 0 
L 1831 0 
z
" transform="scale(0.015625)"/>
      </defs>
      <use xlink:href="#DejaVuSans-Oblique-56" transform="translate(0 0.125)"/>
      <use xlink:href="#DejaVuSans-Oblique-6d" transform="translate(68.408203 -16.28125) scale(0.7)"/>
      <use xlink:href="#DejaVuSans-20" transform="translate(139.331055 0.125)"/>
      <use xlink:href="#DejaVuSans-28" transform="translate(171.118164 0.125)"/>
      <use xlink:href="#DejaVuSans-6d" transform="translate(210.131836 0.125)"/>
      <use xlink:href="#DejaVuSans-56" transform="translate(307.543945 0.125)"/>
      <use xlink:href="#DejaVuSans-29" transform="translate(375.952148 0.125)"/>
     </g>
    </g>
   </g>
   <g id="line2d_23">
    <path d="M 108 219.370235 
L 109.3392 219.972922 
L 110.6784 220.337387 
L 111.348 220.461411 
L 112.6872 221.344295 
L 114.0264 221.727699 
L 116.0352 223.205571 
L 118.044 225.603819 
L 118.7136 226.701908 
L 119.3832 227.544558 
L 120.0528 228.068747 
L 120.7224 229.092824 
L 122.7312 231.335883 
L 124.0704 232.076402 
L 125.4096 232.53579 
L 127.4184 232.949078 
L 129.4272 233.141421 
L 132.1056 233.151096 
L 134.1144 233.013748 
L 136.1232 233.775554 
L 136.7928 234.6054 
L 137.4624 235.184533 
L 138.132 235.490489 
L 138.8016 235.673023 
L 140.1408 236.369301 
L 141.48 236.641361 
L 143.4888 236.753187 
L 144.828 237.226425 
L 146.1672 237.354385 
L 148.176 237.308562 
L 149.5152 237.693486 
L 150.8544 237.745253 
L 152.8632 237.595993 
L 155.5416 237.195787 
L 158.8896 236.474192 
L 162.9072 235.354935 
L 166.9248 234.008277 
L 171.612 232.196197 
L 176.9688 229.857577 
L 182.3256 227.280085 
L 188.352 224.146265 
L 195.7176 220.054911 
L 198.396 218.513363 
L 199.7352 218.550673 
L 201.0744 218.170032 
L 203.7528 217.045003 
L 205.7616 216.098625 
L 207.1008 216.287963 
L 208.44 216.032539 
L 209.7792 216.446756 
L 211.1184 216.361401 
L 213.1272 215.90598 
L 216.4752 214.836716 
L 220.4928 213.300775 
L 225.8496 210.990775 
L 227.1888 211.301412 
L 227.8584 212.22315 
L 228.528 212.935767 
L 229.1976 213.286548 
L 229.8672 213.429606 
L 231.2064 213.350572 
L 232.5456 213.026413 
L 233.8848 213.468325 
L 234.5544 213.94202 
L 235.224 214.722862 
L 237.2328 217.463742 
L 237.9024 218.316739 
L 238.572 218.955906 
L 239.2416 219.767242 
L 239.9112 220.778498 
L 240.5808 222.259693 
L 241.2504 223.338998 
L 241.92 224.018917 
L 243.2592 224.883669 
L 244.5984 225.431556 
L 245.9376 226.436028 
L 246.6072 226.729414 
L 247.2768 227.284868 
L 247.9464 228.061609 
L 249.9552 229.805623 
L 251.2944 230.958033 
L 252.6336 231.526076 
L 253.9728 231.853706 
L 255.312 233.145848 
L 255.9816 233.769832 
L 256.6512 234.224607 
L 257.9904 234.714965 
L 259.9992 235.060553 
L 260.6688 235.118468 
L 262.008 235.687244 
L 263.3472 235.888554 
L 264.6864 235.938966 
L 267.3648 237.042717 
L 268.704 237.238303 
L 270.7128 237.255625 
L 272.052 237.6713 
L 273.3912 237.752301 
L 276.0696 237.582636 
L 279.4176 237.085541 
L 282.096 236.525349 
L 283.4352 236.720741 
L 284.7744 236.598551 
L 287.4528 236.053882 
L 290.8008 235.135752 
L 291.4704 234.929378 
L 292.8096 235.049581 
L 294.1488 234.844951 
L 296.8272 234.134162 
L 300.8448 232.778746 
L 305.532 230.923535 
L 310.8888 228.529189 
L 316.9152 225.556892 
L 323.6112 221.982702 
L 331.6464 217.421634 
L 342.36 211.06933 
L 345.0384 209.437423 
L 346.3776 209.579819 
L 347.7168 209.27138 
L 349.7256 208.501376 
L 353.0736 206.92938 
L 354.4128 206.242894 
L 355.752 207.545977 
L 356.4216 207.835741 
L 358.4304 209.711437 
L 359.1 210.763786 
L 359.7696 211.510052 
L 360.4392 211.965478 
L 361.7784 212.473353 
L 363.1176 214.406578 
L 363.7872 215.328357 
L 364.4568 215.964609 
L 365.1264 216.323376 
L 365.796 216.537476 
L 367.1352 217.525151 
L 367.8048 217.772635 
L 369.144 218.797056 
L 370.4832 219.253099 
L 372.492 219.545319 
L 373.8312 221.073876 
L 374.5008 222.600102 
L 375.1704 223.766424 
L 375.84 224.454351 
L 377.1792 225.274624 
L 378.5184 225.7674 
L 379.188 225.942034 
L 379.8576 226.431545 
L 381.8664 228.623023 
L 382.536 229.000026 
L 383.8752 230.057858 
L 384.5448 230.360668 
L 386.5536 231.889539 
L 387.2232 232.327374 
L 388.5624 232.804303 
L 391.2408 233.498658 
L 391.9104 234.068845 
L 392.58 234.456729 
L 393.9192 234.819102 
L 395.928 235.007441 
L 398.6064 234.955481 
L 399.9456 235.369161 
L 400.6152 235.429722 
L 401.9544 235.931557 
L 403.2936 236.047418 
L 405.972 237.133933 
L 407.3112 237.309835 
L 407.9808 237.32871 
L 409.32 237.788046 
L 410.6592 237.896018 
L 412.668 237.816627 
L 415.3464 237.496245 
L 418.6944 236.862008 
L 422.712 235.834277 
L 426.7296 234.567347 
L 428.0688 234.658517 
L 429.408 234.425707 
L 432.0864 233.663002 
L 436.104 232.240823 
L 440.7912 230.320664 
L 446.148 227.865004 
L 452.1744 224.837069 
L 458.8704 221.215881 
L 467.5752 216.226021 
L 472.932 213.056396 
L 474.2712 213.157272 
L 475.6104 212.813211 
L 476.9496 212.301114 
L 478.2888 212.628065 
L 479.628 212.470564 
L 481.6368 211.912764 
L 483.6456 211.20958 
L 484.9848 211.60964 
L 485.6544 212.088796 
L 486.324 212.424765 
L 487.6632 212.59032 
L 489.0024 212.502971 
L 490.3416 214.036337 
L 491.0112 214.390299 
L 491.6808 215.035754 
L 492.3504 215.965621 
L 493.02 216.615674 
L 493.6896 217.006765 
L 494.3592 217.69157 
L 495.0288 218.64305 
L 495.6984 219.322159 
L 498.3768 221.074241 
L 499.716 221.404212 
L 501.0552 221.470323 
L 502.3944 222.144544 
L 503.7336 222.363295 
L 504.4032 222.398669 
L 505.7424 223.099528 
L 507.0816 223.339105 
L 507.7512 223.379821 
L 508.4208 223.767519 
L 510.4296 226.949714 
L 511.0992 227.65165 
L 512.4384 228.408265 
L 513.7776 228.820971 
L 515.1168 229.657875 
L 515.7864 230.522281 
L 516.456 231.187541 
L 517.1256 231.579105 
L 519.804 234.978261 
L 521.1432 235.696151 
L 522.4824 236.115791 
L 523.152 236.262955 
L 523.8216 236.651102 
L 524.4912 237.22585 
L 526.5 238.498186 
L 527.8392 239.344325 
L 529.1784 239.72598 
L 529.848 239.839672 
L 531.1872 240.426038 
L 532.5264 240.664907 
L 534.5352 240.777371 
L 537.2136 240.698817 
L 540.5616 240.347415 
L 543.9096 239.769061 
L 547.9272 238.821026 
L 551.9448 237.634901 
L 556.632 235.993555 
L 561.3192 234.113809 
L 566.676 231.715842 
L 572.7024 228.748308 
L 579.3984 225.174811 
L 586.764 220.982664 
L 596.808 214.977343 
L 602.1648 211.696798 
L 603.504 211.796762 
L 604.8432 211.447491 
L 607.5216 210.333224 
L 611.5392 208.365855 
L 613.548 207.295814 
L 614.8872 207.561125 
L 616.2264 207.379764 
L 618.2352 206.768009 
L 620.9136 205.681901 
L 622.9224 204.71843 
L 624.2616 205.082123 
L 624.9312 205.101422 
L 625.6008 205.564914 
L 626.2704 206.473466 
L 626.94 207.163778 
L 627.6096 207.576786 
L 628.9488 207.991669 
L 629.6184 208.084988 
L 630.288 208.629326 
L 630.9576 210.053803 
L 631.6272 211.115123 
L 632.2968 211.698979 
L 632.9664 212.035429 
L 633.636 212.231808 
L 634.9752 213.248538 
L 635.6448 213.498921 
L 636.984 214.579175 
L 637.6536 214.863964 
L 638.9928 217.95301 
L 639.6624 218.987441 
L 640.332 219.651058 
L 641.6712 221.214349 
L 642.3408 221.69237 
L 643.0104 222.432714 
L 643.68 223.397759 
L 644.3496 224.103956 
L 645.0192 224.579215 
L 646.3584 225.862152 
L 648.3672 227.130571 
L 649.0368 227.935539 
L 649.7064 228.517187 
L 653.0544 230.436819 
L 653.724 230.957556 
L 654.3936 231.676791 
L 658.4112 234.784027 
L 659.7504 236.343223 
L 660.42 236.895391 
L 661.7592 237.516925 
L 663.0984 237.879569 
L 665.1072 238.182122 
L 668.4552 238.557609 
L 669.7944 238.836681 
L 671.8032 238.870499 
L 674.4816 238.683225 
L 677.8296 238.216233 
L 681.1776 237.540768 
L 685.1952 236.493432 
L 689.2128 235.221375 
L 693.9 233.492243 
L 695.2392 233.534654 
L 696.5784 233.249289 
L 699.2568 232.382715 
L 703.2744 230.81932 
L 707.9616 228.75637 
L 713.3184 226.163066 
L 719.3448 223.009332 
L 726.7104 218.899706 
L 736.7544 213.01095 
L 742.7808 209.3674 
L 744.12 209.510058 
L 745.4592 209.201623 
L 747.468 208.429775 
L 748.8072 208.805681 
L 750.1464 208.704017 
L 752.1552 208.193005 
L 753.4944 208.720902 
L 754.8336 208.756725 
L 756.1728 208.568402 
L 757.512 209.230805 
L 758.8512 209.375128 
L 760.1904 209.286429 
L 761.5296 210.020123 
L 762.1992 210.167623 
L 763.5384 211.136446 
L 764.8776 211.493606 
L 765.5472 211.525466 
L 766.8864 212.23744 
L 768.2256 212.31923 
L 768.8952 212.25721 
L 770.2344 213.766456 
L 770.904 214.113741 
L 771.5736 214.311231 
L 774.252 216.537914 
L 775.5912 217.066636 
L 776.9304 217.316349 
L 777.6 217.805433 
L 777.6 217.805433 
" clip-path="url(#p06b265c1f0)" style="fill: none; stroke: #000000; stroke-width: 1.5; stroke-linecap: square"/>
   </g>
   <g id="line2d_24">
    <path d="M 108 145.520485 
L 109.3392 146.343186 
L 110.6784 146.956964 
L 112.6872 147.571739 
L 117.3744 148.797963 
L 118.7136 149.434472 
L 120.7224 150.750395 
L 122.7312 152.456792 
L 128.088 157.674201 
L 131.436 161.185848 
L 134.1144 164.359621 
L 135.4536 166.173329 
L 136.7928 168.311621 
L 138.132 170.953996 
L 139.4712 174.0265 
L 141.48 179.272117 
L 147.5064 195.653283 
L 149.5152 200.304356 
L 151.524 204.398524 
L 153.5328 207.865388 
L 155.5416 210.73328 
L 157.5504 213.073485 
L 159.5592 214.957689 
L 161.568 216.448899 
L 163.5768 217.600637 
L 165.5856 218.457992 
L 167.5944 219.058972 
L 169.6032 219.435704 
L 171.612 219.615461 
L 174.2904 219.588398 
L 176.9688 219.298107 
L 179.6472 218.782149 
L 182.9952 217.866344 
L 186.3432 216.694588 
L 189.6912 215.305833 
L 193.7088 213.39698 
L 198.396 210.891249 
L 200.4048 209.885554 
L 207.7704 206.738023 
L 209.7792 206.158404 
L 214.4664 205.326619 
L 218.484 204.445523 
L 222.5016 203.338029 
L 227.8584 201.740962 
L 229.1976 201.748183 
L 229.8672 175.869543 
L 230.5368 163.809017 
L 231.2064 156.9229 
L 231.876 152.321258 
L 232.5456 149.12023 
L 233.2152 146.880415 
L 233.8848 145.339056 
L 234.5544 144.328688 
L 235.224 143.740439 
L 235.8936 143.494714 
L 236.5632 143.525316 
L 237.2328 143.758631 
L 238.572 144.59315 
L 240.5808 146.229924 
L 243.2592 148.638058 
L 244.5984 149.60308 
L 246.6072 150.773788 
L 249.2856 152.24417 
L 251.964 153.988627 
L 255.9816 156.857708 
L 257.9904 158.75469 
L 260.6688 161.604988 
L 262.6776 164.072258 
L 264.6864 166.969182 
L 266.0256 169.184308 
L 267.3648 171.741286 
L 269.3736 176.19835 
L 272.052 182.869919 
L 276.0696 193.224782 
L 278.0784 197.785158 
L 280.0872 201.718917 
L 282.096 205.024871 
L 284.1048 207.855267 
L 286.1136 210.289999 
L 288.1224 212.293676 
L 290.1312 213.899397 
L 292.14 215.168389 
L 294.8184 216.602604 
L 296.8272 217.43518 
L 298.836 218.03676 
L 300.8448 218.427628 
L 302.8536 218.630619 
L 305.532 218.643724 
L 308.2104 218.399316 
L 310.8888 217.931068 
L 313.5672 217.267158 
L 316.9152 216.197959 
L 320.2632 214.898596 
L 324.2808 213.080155 
L 328.2984 211.021668 
L 332.9856 208.36719 
L 338.3424 205.06167 
L 344.3688 201.063921 
L 346.3776 199.752455 
L 349.056 198.349483 
L 355.752 195.079829 
L 357.0912 194.821571 
L 358.4304 194.858266 
L 359.7696 195.241901 
L 361.7784 196.221245 
L 363.1176 197.057427 
L 363.7872 172.456876 
L 364.4568 161.20202 
L 365.1264 155.073251 
L 365.796 151.217922 
L 366.4656 148.717845 
L 367.1352 147.117099 
L 367.8048 146.143725 
L 368.4744 145.628553 
L 369.144 145.450865 
L 369.8136 145.51088 
L 371.1528 146.033219 
L 373.8312 147.486225 
L 375.1704 148.398351 
L 377.8488 150.340162 
L 379.188 151.076776 
L 382.536 152.731168 
L 385.884 154.668502 
L 388.5624 156.497236 
L 391.9104 158.971548 
L 393.9192 160.848739 
L 396.5976 163.790541 
L 398.6064 166.29018 
L 400.6152 169.215952 
L 401.9544 171.524 
L 403.9632 175.547446 
L 405.972 180.234865 
L 413.3376 198.699209 
L 415.3464 202.716421 
L 417.3552 206.098507 
L 419.364 208.898707 
L 421.3728 211.184644 
L 423.3816 213.022379 
L 425.3904 214.471108 
L 427.3992 215.595414 
L 430.0776 216.856985 
L 432.0864 217.57346 
L 434.0952 218.068903 
L 436.104 218.362712 
L 438.1128 218.47695 
L 440.7912 218.383374 
L 443.4696 218.044093 
L 446.148 217.491294 
L 449.496 216.540487 
L 452.844 215.340991 
L 456.8616 213.622734 
L 460.8792 211.647051 
L 465.5664 209.071275 
L 470.9232 205.836473 
L 474.9408 203.408518 
L 477.6192 202.136753 
L 479.628 201.427825 
L 484.9848 199.866494 
L 486.324 199.697682 
L 489.0024 199.727823 
L 490.3416 199.908672 
L 491.6808 200.308629 
L 493.02 200.950058 
L 495.0288 202.241499 
L 497.0376 203.85954 
L 497.7072 177.906993 
L 498.3768 166.059249 
L 499.0464 159.540763 
L 499.716 155.326099 
L 500.3856 152.512569 
L 501.0552 150.641684 
L 501.7248 149.446976 
L 502.3944 148.751219 
L 503.064 148.417139 
L 503.7336 148.339342 
L 504.4032 148.434785 
L 505.7424 148.956334 
L 510.4296 151.474161 
L 513.7776 153.675832 
L 517.1256 155.559817 
L 518.4648 156.513886 
L 519.804 157.724636 
L 522.4824 160.582291 
L 524.4912 162.941137 
L 525.8304 164.806742 
L 527.1696 167.00514 
L 528.5088 169.580786 
L 530.5176 174.091199 
L 532.5264 179.376164 
L 539.2224 198.04276 
L 541.2312 202.607422 
L 543.24 206.474043 
L 545.2488 209.689718 
L 547.2576 212.327272 
L 549.2664 214.461547 
L 551.2752 216.160718 
L 553.284 217.48399 
L 555.2928 218.481817 
L 557.3016 219.196921 
L 559.3104 219.665439 
L 561.3192 219.918003 
L 563.328 219.980645 
L 566.0064 219.806578 
L 568.6848 219.377786 
L 571.3632 218.730002 
L 574.7112 217.65636 
L 578.0592 216.331906 
L 582.0768 214.46234 
L 586.0944 212.333662 
L 590.7816 209.57527 
L 596.1384 206.122524 
L 601.4952 202.407952 
L 603.504 201.03538 
L 606.1824 199.534065 
L 612.8784 195.855057 
L 614.8872 194.760555 
L 617.5656 193.666328 
L 625.6008 190.734275 
L 626.94 190.69835 
L 628.2792 190.965927 
L 630.288 191.609581 
L 630.9576 191.92726 
L 631.6272 168.334876 
L 632.2968 157.679105 
L 632.9664 152.003845 
L 633.636 148.492019 
L 634.3056 146.232976 
L 634.9752 144.794017 
L 635.6448 143.92155 
L 636.3144 143.463794 
L 636.984 143.311522 
L 637.6536 143.372376 
L 638.3232 143.615163 
L 639.6624 144.556315 
L 644.3496 148.587478 
L 647.028 150.441748 
L 652.3848 153.492237 
L 655.0632 155.127202 
L 657.072 156.688191 
L 658.4112 157.897839 
L 659.7504 159.365357 
L 661.0896 161.143676 
L 663.0984 164.242383 
L 665.1072 167.805353 
L 667.116 171.894839 
L 669.1248 176.574309 
L 671.8032 183.670142 
L 675.1512 192.61258 
L 677.16 197.404015 
L 679.1688 201.558884 
L 681.1776 205.061896 
L 683.1864 207.960723 
L 685.1952 210.3234 
L 687.204 212.218875 
L 689.2128 213.709696 
L 691.2216 214.850164 
L 693.2304 215.686561 
L 696.5784 216.684914 
L 698.5872 217.127343 
L 700.596 217.387043 
L 703.2744 217.464401 
L 705.9528 217.271661 
L 708.6312 216.84492 
L 711.3096 216.213876 
L 714.6576 215.174963 
L 718.0056 213.895016 
L 722.0232 212.086828 
L 726.0408 210.025629 
L 730.728 207.353048 
L 736.0848 204.008613 
L 741.4416 200.410042 
L 744.12 198.60438 
L 746.7984 197.165943 
L 748.8072 196.228459 
L 751.4856 195.351403 
L 753.4944 194.838481 
L 756.1728 194.519582 
L 758.1816 194.505501 
L 760.86 194.762056 
L 762.8688 195.197287 
L 764.8776 195.935257 
L 765.5472 171.386247 
L 766.2168 160.047298 
L 766.8864 153.795326 
L 767.556 149.793263 
L 768.2256 147.113919 
L 768.8952 145.298158 
L 769.5648 144.112981 
L 770.2344 143.411418 
L 770.904 143.07132 
L 771.5736 142.986638 
L 772.2432 143.086327 
L 773.5824 143.628694 
L 776.9304 145.37849 
L 777.6 145.629466 
L 777.6 145.629466 
" clip-path="url(#p06b265c1f0)" style="fill: none; stroke: #4169e1; stroke-width: 1.5; stroke-linecap: square"/>
   </g>
   <g id="patch_3">
    <path d="M 108 256.32 
L 108 34.56 
" style="fill: none; stroke: #000000; stroke-width: 0.8; stroke-linejoin: miter; stroke-linecap: square"/>
   </g>
   <g id="patch_4">
    <path d="M 777.6 256.32 
L 777.6 34.56 
" style="fill: none; stroke: #000000; stroke-width: 0.8; stroke-linejoin: miter; stroke-linecap: square"/>
   </g>
   <g id="patch_5">
    <path d="M 108 256.32 
L 777.6 256.32 
" style="fill: none; stroke: #000000; stroke-width: 0.8; stroke-linejoin: miter; stroke-linecap: square"/>
   </g>
   <g id="patch_6">
    <path d="M 108 34.56 
L 777.6 34.56 
" style="fill: none; stroke: #000000; stroke-width: 0.8; stroke-linejoin: miter; stroke-linecap: square"/>
   </g>
   <g id="legend_1">
    <g id="patch_7">
     <path d="M 695.098438 71.91625 
L 770.6 71.91625 
Q 772.6 71.91625 772.6 69.91625 
L 772.6 41.56 
Q 772.6 39.56 770.6 39.56 
L 695.098438 39.56 
Q 693.098438 39.56 693.098438 41.56 
L 693.098438 69.91625 
Q 693.098438 71.91625 695.098438 71.91625 
z
" style="fill: #ffffff; opacity: 0.8; stroke: #cccccc; stroke-linejoin: miter"/>
    </g>
    <g id="line2d_25">
     <path d="M 697.098438 47.658437 
L 707.098438 47.658437 
L 717.098438 47.658437 
" style="fill: none; stroke: #000000; stroke-width: 1.5; stroke-linecap: square"/>
    </g>
    <g id="text_14">
     <!-- Soma -->
     <g transform="translate(725.098438 51.158437) scale(0.1 -0.1)">
      <defs>
       <path id="DejaVuSans-53" d="M 3425 4513 
L 3425 3897 
Q 3066 4069 2747 4153 
Q 2428 4238 2131 4238 
Q 1616 4238 1336 4038 
Q 1056 3838 1056 3469 
Q 1056 3159 1242 3001 
Q 1428 2844 1947 2747 
L 2328 2669 
Q 3034 2534 3370 2195 
Q 3706 1856 3706 1288 
Q 3706 609 3251 259 
Q 2797 -91 1919 -91 
Q 1588 -91 1214 -16 
Q 841 59 441 206 
L 441 856 
Q 825 641 1194 531 
Q 1563 422 1919 422 
Q 2459 422 2753 634 
Q 3047 847 3047 1241 
Q 3047 1584 2836 1778 
Q 2625 1972 2144 2069 
L 1759 2144 
Q 1053 2284 737 2584 
Q 422 2884 422 3419 
Q 422 4038 858 4394 
Q 1294 4750 2059 4750 
Q 2388 4750 2728 4690 
Q 3069 4631 3425 4513 
z
" transform="scale(0.015625)"/>
       <path id="DejaVuSans-6f" d="M 1959 3097 
Q 1497 3097 1228 2736 
Q 959 2375 959 1747 
Q 959 1119 1226 758 
Q 1494 397 1959 397 
Q 2419 397 2687 759 
Q 2956 1122 2956 1747 
Q 2956 2369 2687 2733 
Q 2419 3097 1959 3097 
z
M 1959 3584 
Q 2709 3584 3137 3096 
Q 3566 2609 3566 1747 
Q 3566 888 3137 398 
Q 2709 -91 1959 -91 
Q 1206 -91 779 398 
Q 353 888 353 1747 
Q 353 2609 779 3096 
Q 1206 3584 1959 3584 
z
" transform="scale(0.015625)"/>
       <path id="DejaVuSans-61" d="M 2194 1759 
Q 1497 1759 1228 1600 
Q 959 1441 959 1056 
Q 959 750 1161 570 
Q 1363 391 1709 391 
Q 2188 391 2477 730 
Q 2766 1069 2766 1631 
L 2766 1759 
L 2194 1759 
z
M 3341 1997 
L 3341 0 
L 2766 0 
L 2766 531 
Q 2569 213 2275 61 
Q 1981 -91 1556 -91 
Q 1019 -91 701 211 
Q 384 513 384 1019 
Q 384 1609 779 1909 
Q 1175 2209 1959 2209 
L 2766 2209 
L 2766 2266 
Q 2766 2663 2505 2880 
Q 2244 3097 1772 3097 
Q 1472 3097 1187 3025 
Q 903 2953 641 2809 
L 641 3341 
Q 956 3463 1253 3523 
Q 1550 3584 1831 3584 
Q 2591 3584 2966 3190 
Q 3341 2797 3341 1997 
z
" transform="scale(0.015625)"/>
      </defs>
      <use xlink:href="#DejaVuSans-53"/>
      <use xlink:href="#DejaVuSans-6f" x="63.476562"/>
      <use xlink:href="#DejaVuSans-6d" x="124.658203"/>
      <use xlink:href="#DejaVuSans-61" x="222.070312"/>
     </g>
    </g>
    <g id="line2d_26">
     <path d="M 697.098438 62.336562 
L 707.098438 62.336562 
L 717.098438 62.336562 
" style="fill: none; stroke: #4169e1; stroke-width: 1.5; stroke-linecap: square"/>
    </g>
    <g id="text_15">
     <!-- Dendrite -->
     <g transform="translate(725.098438 65.836562) scale(0.1 -0.1)">
      <defs>
       <path id="DejaVuSans-44" d="M 1259 4147 
L 1259 519 
L 2022 519 
Q 2988 519 3436 956 
Q 3884 1394 3884 2338 
Q 3884 3275 3436 3711 
Q 2988 4147 2022 4147 
L 1259 4147 
z
M 628 4666 
L 1925 4666 
Q 3281 4666 3915 4102 
Q 4550 3538 4550 2338 
Q 4550 1131 3912 565 
Q 3275 0 1925 0 
L 628 0 
L 628 4666 
z
" transform="scale(0.015625)"/>
       <path id="DejaVuSans-6e" d="M 3513 2113 
L 3513 0 
L 2938 0 
L 2938 2094 
Q 2938 2591 2744 2837 
Q 2550 3084 2163 3084 
Q 1697 3084 1428 2787 
Q 1159 2491 1159 1978 
L 1159 0 
L 581 0 
L 581 3500 
L 1159 3500 
L 1159 2956 
Q 1366 3272 1645 3428 
Q 1925 3584 2291 3584 
Q 2894 3584 3203 3211 
Q 3513 2838 3513 2113 
z
" transform="scale(0.015625)"/>
       <path id="DejaVuSans-64" d="M 2906 2969 
L 2906 4863 
L 3481 4863 
L 3481 0 
L 2906 0 
L 2906 525 
Q 2725 213 2448 61 
Q 2172 -91 1784 -91 
Q 1150 -91 751 415 
Q 353 922 353 1747 
Q 353 2572 751 3078 
Q 1150 3584 1784 3584 
Q 2172 3584 2448 3432 
Q 2725 3281 2906 2969 
z
M 947 1747 
Q 947 1113 1208 752 
Q 1469 391 1925 391 
Q 2381 391 2643 752 
Q 2906 1113 2906 1747 
Q 2906 2381 2643 2742 
Q 2381 3103 1925 3103 
Q 1469 3103 1208 2742 
Q 947 2381 947 1747 
z
" transform="scale(0.015625)"/>
       <path id="DejaVuSans-72" d="M 2631 2963 
Q 2534 3019 2420 3045 
Q 2306 3072 2169 3072 
Q 1681 3072 1420 2755 
Q 1159 2438 1159 1844 
L 1159 0 
L 581 0 
L 581 3500 
L 1159 3500 
L 1159 2956 
Q 1341 3275 1631 3429 
Q 1922 3584 2338 3584 
Q 2397 3584 2469 3576 
Q 2541 3569 2628 3553 
L 2631 2963 
z
" transform="scale(0.015625)"/>
       <path id="DejaVuSans-74" d="M 1172 4494 
L 1172 3500 
L 2356 3500 
L 2356 3053 
L 1172 3053 
L 1172 1153 
Q 1172 725 1289 603 
Q 1406 481 1766 481 
L 2356 481 
L 2356 0 
L 1766 0 
Q 1100 0 847 248 
Q 594 497 594 1153 
L 594 3053 
L 172 3053 
L 172 3500 
L 594 3500 
L 594 4494 
L 1172 4494 
z
" transform="scale(0.015625)"/>
      </defs>
      <use xlink:href="#DejaVuSans-44"/>
      <use xlink:href="#DejaVuSans-65" x="77.001953"/>
      <use xlink:href="#DejaVuSans-6e" x="138.525391"/>
      <use xlink:href="#DejaVuSans-64" x="201.904297"/>
      <use xlink:href="#DejaVuSans-72" x="265.380859"/>
      <use xlink:href="#DejaVuSans-69" x="306.494141"/>
      <use xlink:href="#DejaVuSans-74" x="334.277344"/>
      <use xlink:href="#DejaVuSans-65" x="373.486328"/>
     </g>
    </g>
   </g>
  </g>
 </g>
 <defs>
  <clipPath id="p06b265c1f0">
   <rect x="108" y="34.56" width="669.6" height="221.76"/>
  </clipPath>
 </defs>
</svg>
