<?xml version="1.0" encoding="utf-8" standalone="no"?>
<!DOCTYPE svg PUBLIC "-//W3C//DTD SVG 1.1//EN"
  "http://www.w3.org/Graphics/SVG/1.1/DTD/svg11.dtd">
<svg xmlns:xlink="http://www.w3.org/1999/xlink" width="864pt" height="288pt" viewBox="0 0 864 288" xmlns="http://www.w3.org/2000/svg" version="1.1">
 <metadata>
  <rdf:RDF xmlns:dc="http://purl.org/dc/elements/1.1/" xmlns:cc="http://creativecommons.org/ns#" xmlns:rdf="http://www.w3.org/1999/02/22-rdf-syntax-ns#">
   <cc:Work>
    <dc:type rdf:resource="http://purl.org/dc/dcmitype/StillImage"/>
    <dc:date>2024-04-23T19:17:57.627168</dc:date>
    <dc:format>image/svg+xml</dc:format>
    <dc:creator>
     <cc:Agent>
      <dc:title>Matplotlib v3.8.2, https://matplotlib.org/</dc:title>
     </cc:Agent>
    </dc:creator>
   </cc:Work>
  </rdf:RDF>
 </metadata>
 <defs>
  <style type="text/css">*{stroke-linejoin: round; stroke-linecap: butt}</style>
 </defs>
 <g id="figure_1">
  <g id="patch_1">
   <path d="M 0 288 
L 864 288 
L 864 0 
L 0 0 
z
" style="fill: #ffffff"/>
  </g>
  <g id="axes_1">
   <g id="patch_2">
    <path d="M 108 256.32 
L 777.6 256.32 
L 777.6 34.56 
L 108 34.56 
z
" style="fill: #ffffff"/>
   </g>
   <g id="matplotlib.axis_1">
    <g id="xtick_1">
     <g id="line2d_1">
      <path d="M 108 256.32 
L 108 34.56 
" clip-path="url(#p8a49f53f41)" style="fill: none; stroke: #b0b0b0; stroke-width: 0.8; stroke-linecap: square"/>
     </g>
     <g id="line2d_2">
      <defs>
       <path id="m29b08f2f56" d="M 0 0 
L 0 3.5 
" style="stroke: #000000; stroke-width: 0.8"/>
      </defs>
      <g>
       <use xlink:href="#m29b08f2f56" x="108" y="256.32" style="stroke: #000000; stroke-width: 0.8"/>
      </g>
     </g>
     <g id="text_1">
      <!-- 100 -->
      <g transform="translate(94.63875 273.957812) scale(0.14 -0.14)">
       <defs>
        <path id="DejaVuSans-31" d="M 794 531 
L 1825 531 
L 1825 4091 
L 703 3866 
L 703 4441 
L 1819 4666 
L 2450 4666 
L 2450 531 
L 3481 531 
L 3481 0 
L 794 0 
L 794 531 
z
" transform="scale(0.015625)"/>
        <path id="DejaVuSans-30" d="M 2034 4250 
Q 1547 4250 1301 3770 
Q 1056 3291 1056 2328 
Q 1056 1369 1301 889 
Q 1547 409 2034 409 
Q 2525 409 2770 889 
Q 3016 1369 3016 2328 
Q 3016 3291 2770 3770 
Q 2525 4250 2034 4250 
z
M 2034 4750 
Q 2819 4750 3233 4129 
Q 3647 3509 3647 2328 
Q 3647 1150 3233 529 
Q 2819 -91 2034 -91 
Q 1250 -91 836 529 
Q 422 1150 422 2328 
Q 422 3509 836 4129 
Q 1250 4750 2034 4750 
z
" transform="scale(0.015625)"/>
       </defs>
       <use xlink:href="#DejaVuSans-31"/>
       <use xlink:href="#DejaVuSans-30" x="63.623047"/>
       <use xlink:href="#DejaVuSans-30" x="127.246094"/>
      </g>
     </g>
    </g>
    <g id="xtick_2">
     <g id="line2d_3">
      <path d="M 241.92 256.32 
L 241.92 34.56 
" clip-path="url(#p8a49f53f41)" style="fill: none; stroke: #b0b0b0; stroke-width: 0.8; stroke-linecap: square"/>
     </g>
     <g id="line2d_4">
      <g>
       <use xlink:href="#m29b08f2f56" x="241.92" y="256.32" style="stroke: #000000; stroke-width: 0.8"/>
      </g>
     </g>
     <g id="text_2">
      <!-- 120 -->
      <g transform="translate(228.55875 273.957812) scale(0.14 -0.14)">
       <defs>
        <path id="DejaVuSans-32" d="M 1228 531 
L 3431 531 
L 3431 0 
L 469 0 
L 469 531 
Q 828 903 1448 1529 
Q 2069 2156 2228 2338 
Q 2531 2678 2651 2914 
Q 2772 3150 2772 3378 
Q 2772 3750 2511 3984 
Q 2250 4219 1831 4219 
Q 1534 4219 1204 4116 
Q 875 4013 500 3803 
L 500 4441 
Q 881 4594 1212 4672 
Q 1544 4750 1819 4750 
Q 2544 4750 2975 4387 
Q 3406 4025 3406 3419 
Q 3406 3131 3298 2873 
Q 3191 2616 2906 2266 
Q 2828 2175 2409 1742 
Q 1991 1309 1228 531 
z
" transform="scale(0.015625)"/>
       </defs>
       <use xlink:href="#DejaVuSans-31"/>
       <use xlink:href="#DejaVuSans-32" x="63.623047"/>
       <use xlink:href="#DejaVuSans-30" x="127.246094"/>
      </g>
     </g>
    </g>
    <g id="xtick_3">
     <g id="line2d_5">
      <path d="M 375.84 256.32 
L 375.84 34.56 
" clip-path="url(#p8a49f53f41)" style="fill: none; stroke: #b0b0b0; stroke-width: 0.8; stroke-linecap: square"/>
     </g>
     <g id="line2d_6">
      <g>
       <use xlink:href="#m29b08f2f56" x="375.84" y="256.32" style="stroke: #000000; stroke-width: 0.8"/>
      </g>
     </g>
     <g id="text_3">
      <!-- 140 -->
      <g transform="translate(362.47875 273.957812) scale(0.14 -0.14)">
       <defs>
        <path id="DejaVuSans-34" d="M 2419 4116 
L 825 1625 
L 2419 1625 
L 2419 4116 
z
M 2253 4666 
L 3047 4666 
L 3047 1625 
L 3713 1625 
L 3713 1100 
L 3047 1100 
L 3047 0 
L 2419 0 
L 2419 1100 
L 313 1100 
L 313 1709 
L 2253 4666 
z
" transform="scale(0.015625)"/>
       </defs>
       <use xlink:href="#DejaVuSans-31"/>
       <use xlink:href="#DejaVuSans-34" x="63.623047"/>
       <use xlink:href="#DejaVuSans-30" x="127.246094"/>
      </g>
     </g>
    </g>
    <g id="xtick_4">
     <g id="line2d_7">
      <path d="M 509.76 256.32 
L 509.76 34.56 
" clip-path="url(#p8a49f53f41)" style="fill: none; stroke: #b0b0b0; stroke-width: 0.8; stroke-linecap: square"/>
     </g>
     <g id="line2d_8">
      <g>
       <use xlink:href="#m29b08f2f56" x="509.76" y="256.32" style="stroke: #000000; stroke-width: 0.8"/>
      </g>
     </g>
     <g id="text_4">
      <!-- 160 -->
      <g transform="translate(496.39875 273.957812) scale(0.14 -0.14)">
       <defs>
        <path id="DejaVuSans-36" d="M 2113 2584 
Q 1688 2584 1439 2293 
Q 1191 2003 1191 1497 
Q 1191 994 1439 701 
Q 1688 409 2113 409 
Q 2538 409 2786 701 
Q 3034 994 3034 1497 
Q 3034 2003 2786 2293 
Q 2538 2584 2113 2584 
z
M 3366 4563 
L 3366 3988 
Q 3128 4100 2886 4159 
Q 2644 4219 2406 4219 
Q 1781 4219 1451 3797 
Q 1122 3375 1075 2522 
Q 1259 2794 1537 2939 
Q 1816 3084 2150 3084 
Q 2853 3084 3261 2657 
Q 3669 2231 3669 1497 
Q 3669 778 3244 343 
Q 2819 -91 2113 -91 
Q 1303 -91 875 529 
Q 447 1150 447 2328 
Q 447 3434 972 4092 
Q 1497 4750 2381 4750 
Q 2619 4750 2861 4703 
Q 3103 4656 3366 4563 
z
" transform="scale(0.015625)"/>
       </defs>
       <use xlink:href="#DejaVuSans-31"/>
       <use xlink:href="#DejaVuSans-36" x="63.623047"/>
       <use xlink:href="#DejaVuSans-30" x="127.246094"/>
      </g>
     </g>
    </g>
    <g id="xtick_5">
     <g id="line2d_9">
      <path d="M 643.68 256.32 
L 643.68 34.56 
" clip-path="url(#p8a49f53f41)" style="fill: none; stroke: #b0b0b0; stroke-width: 0.8; stroke-linecap: square"/>
     </g>
     <g id="line2d_10">
      <g>
       <use xlink:href="#m29b08f2f56" x="643.68" y="256.32" style="stroke: #000000; stroke-width: 0.8"/>
      </g>
     </g>
     <g id="text_5">
      <!-- 180 -->
      <g transform="translate(630.31875 273.957812) scale(0.14 -0.14)">
       <defs>
        <path id="DejaVuSans-38" d="M 2034 2216 
Q 1584 2216 1326 1975 
Q 1069 1734 1069 1313 
Q 1069 891 1326 650 
Q 1584 409 2034 409 
Q 2484 409 2743 651 
Q 3003 894 3003 1313 
Q 3003 1734 2745 1975 
Q 2488 2216 2034 2216 
z
M 1403 2484 
Q 997 2584 770 2862 
Q 544 3141 544 3541 
Q 544 4100 942 4425 
Q 1341 4750 2034 4750 
Q 2731 4750 3128 4425 
Q 3525 4100 3525 3541 
Q 3525 3141 3298 2862 
Q 3072 2584 2669 2484 
Q 3125 2378 3379 2068 
Q 3634 1759 3634 1313 
Q 3634 634 3220 271 
Q 2806 -91 2034 -91 
Q 1263 -91 848 271 
Q 434 634 434 1313 
Q 434 1759 690 2068 
Q 947 2378 1403 2484 
z
M 1172 3481 
Q 1172 3119 1398 2916 
Q 1625 2713 2034 2713 
Q 2441 2713 2670 2916 
Q 2900 3119 2900 3481 
Q 2900 3844 2670 4047 
Q 2441 4250 2034 4250 
Q 1625 4250 1398 4047 
Q 1172 3844 1172 3481 
z
" transform="scale(0.015625)"/>
       </defs>
       <use xlink:href="#DejaVuSans-31"/>
       <use xlink:href="#DejaVuSans-38" x="63.623047"/>
       <use xlink:href="#DejaVuSans-30" x="127.246094"/>
      </g>
     </g>
    </g>
    <g id="xtick_6">
     <g id="line2d_11">
      <path d="M 777.6 256.32 
L 777.6 34.56 
" clip-path="url(#p8a49f53f41)" style="fill: none; stroke: #b0b0b0; stroke-width: 0.8; stroke-linecap: square"/>
     </g>
     <g id="line2d_12">
      <g>
       <use xlink:href="#m29b08f2f56" x="777.6" y="256.32" style="stroke: #000000; stroke-width: 0.8"/>
      </g>
     </g>
     <g id="text_6">
      <!-- 200 -->
      <g transform="translate(764.23875 273.957812) scale(0.14 -0.14)">
       <use xlink:href="#DejaVuSans-32"/>
       <use xlink:href="#DejaVuSans-30" x="63.623047"/>
       <use xlink:href="#DejaVuSans-30" x="127.246094"/>
      </g>
     </g>
    </g>
    <g id="text_7">
     <!-- Time (ms) -->
     <g transform="translate(407.521094 291.507187) scale(0.14 -0.14)">
      <defs>
       <path id="DejaVuSans-54" d="M -19 4666 
L 3928 4666 
L 3928 4134 
L 2272 4134 
L 2272 0 
L 1638 0 
L 1638 4134 
L -19 4134 
L -19 4666 
z
" transform="scale(0.015625)"/>
       <path id="DejaVuSans-69" d="M 603 3500 
L 1178 3500 
L 1178 0 
L 603 0 
L 603 3500 
z
M 603 4863 
L 1178 4863 
L 1178 4134 
L 603 4134 
L 603 4863 
z
" transform="scale(0.015625)"/>
       <path id="DejaVuSans-6d" d="M 3328 2828 
Q 3544 3216 3844 3400 
Q 4144 3584 4550 3584 
Q 5097 3584 5394 3201 
Q 5691 2819 5691 2113 
L 5691 0 
L 5113 0 
L 5113 2094 
Q 5113 2597 4934 2840 
Q 4756 3084 4391 3084 
Q 3944 3084 3684 2787 
Q 3425 2491 3425 1978 
L 3425 0 
L 2847 0 
L 2847 2094 
Q 2847 2600 2669 2842 
Q 2491 3084 2119 3084 
Q 1678 3084 1418 2786 
Q 1159 2488 1159 1978 
L 1159 0 
L 581 0 
L 581 3500 
L 1159 3500 
L 1159 2956 
Q 1356 3278 1631 3431 
Q 1906 3584 2284 3584 
Q 2666 3584 2933 3390 
Q 3200 3197 3328 2828 
z
" transform="scale(0.015625)"/>
       <path id="DejaVuSans-65" d="M 3597 1894 
L 3597 1613 
L 953 1613 
Q 991 1019 1311 708 
Q 1631 397 2203 397 
Q 2534 397 2845 478 
Q 3156 559 3463 722 
L 3463 178 
Q 3153 47 2828 -22 
Q 2503 -91 2169 -91 
Q 1331 -91 842 396 
Q 353 884 353 1716 
Q 353 2575 817 3079 
Q 1281 3584 2069 3584 
Q 2775 3584 3186 3129 
Q 3597 2675 3597 1894 
z
M 3022 2063 
Q 3016 2534 2758 2815 
Q 2500 3097 2075 3097 
Q 1594 3097 1305 2825 
Q 1016 2553 972 2059 
L 3022 2063 
z
" transform="scale(0.015625)"/>
       <path id="DejaVuSans-20" transform="scale(0.015625)"/>
       <path id="DejaVuSans-28" d="M 1984 4856 
Q 1566 4138 1362 3434 
Q 1159 2731 1159 2009 
Q 1159 1288 1364 580 
Q 1569 -128 1984 -844 
L 1484 -844 
Q 1016 -109 783 600 
Q 550 1309 550 2009 
Q 550 2706 781 3412 
Q 1013 4119 1484 4856 
L 1984 4856 
z
" transform="scale(0.015625)"/>
       <path id="DejaVuSans-73" d="M 2834 3397 
L 2834 2853 
Q 2591 2978 2328 3040 
Q 2066 3103 1784 3103 
Q 1356 3103 1142 2972 
Q 928 2841 928 2578 
Q 928 2378 1081 2264 
Q 1234 2150 1697 2047 
L 1894 2003 
Q 2506 1872 2764 1633 
Q 3022 1394 3022 966 
Q 3022 478 2636 193 
Q 2250 -91 1575 -91 
Q 1294 -91 989 -36 
Q 684 19 347 128 
L 347 722 
Q 666 556 975 473 
Q 1284 391 1588 391 
Q 1994 391 2212 530 
Q 2431 669 2431 922 
Q 2431 1156 2273 1281 
Q 2116 1406 1581 1522 
L 1381 1569 
Q 847 1681 609 1914 
Q 372 2147 372 2553 
Q 372 3047 722 3315 
Q 1072 3584 1716 3584 
Q 2034 3584 2315 3537 
Q 2597 3491 2834 3397 
z
" transform="scale(0.015625)"/>
       <path id="DejaVuSans-29" d="M 513 4856 
L 1013 4856 
Q 1481 4119 1714 3412 
Q 1947 2706 1947 2009 
Q 1947 1309 1714 600 
Q 1481 -109 1013 -844 
L 513 -844 
Q 928 -128 1133 580 
Q 1338 1288 1338 2009 
Q 1338 2731 1133 3434 
Q 928 4138 513 4856 
z
" transform="scale(0.015625)"/>
      </defs>
      <use xlink:href="#DejaVuSans-54"/>
      <use xlink:href="#DejaVuSans-69" x="57.958984"/>
      <use xlink:href="#DejaVuSans-6d" x="85.742188"/>
      <use xlink:href="#DejaVuSans-65" x="183.154297"/>
      <use xlink:href="#DejaVuSans-20" x="244.677734"/>
      <use xlink:href="#DejaVuSans-28" x="276.464844"/>
      <use xlink:href="#DejaVuSans-6d" x="315.478516"/>
      <use xlink:href="#DejaVuSans-73" x="412.890625"/>
      <use xlink:href="#DejaVuSans-29" x="464.990234"/>
     </g>
    </g>
   </g>
   <g id="matplotlib.axis_2">
    <g id="ytick_1">
     <g id="line2d_13">
      <path d="M 108 246.24 
L 777.6 246.24 
" clip-path="url(#p8a49f53f41)" style="fill: none; stroke: #b0b0b0; stroke-width: 0.8; stroke-linecap: square"/>
     </g>
     <g id="line2d_14">
      <defs>
       <path id="m98c1bf7bb0" d="M 0 0 
L -3.5 0 
" style="stroke: #000000; stroke-width: 0.8"/>
      </defs>
      <g>
       <use xlink:href="#m98c1bf7bb0" x="108" y="246.24" style="stroke: #000000; stroke-width: 0.8"/>
      </g>
     </g>
     <g id="text_8">
      <!-- 0.00 -->
      <g transform="translate(69.828125 251.558906) scale(0.14 -0.14)">
       <defs>
        <path id="DejaVuSans-2e" d="M 684 794 
L 1344 794 
L 1344 0 
L 684 0 
L 684 794 
z
" transform="scale(0.015625)"/>
       </defs>
       <use xlink:href="#DejaVuSans-30"/>
       <use xlink:href="#DejaVuSans-2e" x="63.623047"/>
       <use xlink:href="#DejaVuSans-30" x="95.410156"/>
       <use xlink:href="#DejaVuSans-30" x="159.033203"/>
      </g>
     </g>
    </g>
    <g id="ytick_2">
     <g id="line2d_15">
      <path d="M 108 209.524011 
L 777.6 209.524011 
" clip-path="url(#p8a49f53f41)" style="fill: none; stroke: #b0b0b0; stroke-width: 0.8; stroke-linecap: square"/>
     </g>
     <g id="line2d_16">
      <g>
       <use xlink:href="#m98c1bf7bb0" x="108" y="209.524011" style="stroke: #000000; stroke-width: 0.8"/>
      </g>
     </g>
     <g id="text_9">
      <!-- 0.05 -->
      <g transform="translate(69.828125 214.842917) scale(0.14 -0.14)">
       <defs>
        <path id="DejaVuSans-35" d="M 691 4666 
L 3169 4666 
L 3169 4134 
L 1269 4134 
L 1269 2991 
Q 1406 3038 1543 3061 
Q 1681 3084 1819 3084 
Q 2600 3084 3056 2656 
Q 3513 2228 3513 1497 
Q 3513 744 3044 326 
Q 2575 -91 1722 -91 
Q 1428 -91 1123 -41 
Q 819 9 494 109 
L 494 744 
Q 775 591 1075 516 
Q 1375 441 1709 441 
Q 2250 441 2565 725 
Q 2881 1009 2881 1497 
Q 2881 1984 2565 2268 
Q 2250 2553 1709 2553 
Q 1456 2553 1204 2497 
Q 953 2441 691 2322 
L 691 4666 
z
" transform="scale(0.015625)"/>
       </defs>
       <use xlink:href="#DejaVuSans-30"/>
       <use xlink:href="#DejaVuSans-2e" x="63.623047"/>
       <use xlink:href="#DejaVuSans-30" x="95.410156"/>
       <use xlink:href="#DejaVuSans-35" x="159.033203"/>
      </g>
     </g>
    </g>
    <g id="ytick_3">
     <g id="line2d_17">
      <path d="M 108 172.808022 
L 777.6 172.808022 
" clip-path="url(#p8a49f53f41)" style="fill: none; stroke: #b0b0b0; stroke-width: 0.8; stroke-linecap: square"/>
     </g>
     <g id="line2d_18">
      <g>
       <use xlink:href="#m98c1bf7bb0" x="108" y="172.808022" style="stroke: #000000; stroke-width: 0.8"/>
      </g>
     </g>
     <g id="text_10">
      <!-- 0.10 -->
      <g transform="translate(69.828125 178.126928) scale(0.14 -0.14)">
       <use xlink:href="#DejaVuSans-30"/>
       <use xlink:href="#DejaVuSans-2e" x="63.623047"/>
       <use xlink:href="#DejaVuSans-31" x="95.410156"/>
       <use xlink:href="#DejaVuSans-30" x="159.033203"/>
      </g>
     </g>
    </g>
    <g id="ytick_4">
     <g id="line2d_19">
      <path d="M 108 136.092033 
L 777.6 136.092033 
" clip-path="url(#p8a49f53f41)" style="fill: none; stroke: #b0b0b0; stroke-width: 0.8; stroke-linecap: square"/>
     </g>
     <g id="line2d_20">
      <g>
       <use xlink:href="#m98c1bf7bb0" x="108" y="136.092033" style="stroke: #000000; stroke-width: 0.8"/>
      </g>
     </g>
     <g id="text_11">
      <!-- 0.15 -->
      <g transform="translate(69.828125 141.410939) scale(0.14 -0.14)">
       <use xlink:href="#DejaVuSans-30"/>
       <use xlink:href="#DejaVuSans-2e" x="63.623047"/>
       <use xlink:href="#DejaVuSans-31" x="95.410156"/>
       <use xlink:href="#DejaVuSans-35" x="159.033203"/>
      </g>
     </g>
    </g>
    <g id="ytick_5">
     <g id="line2d_21">
      <path d="M 108 99.376044 
L 777.6 99.376044 
" clip-path="url(#p8a49f53f41)" style="fill: none; stroke: #b0b0b0; stroke-width: 0.8; stroke-linecap: square"/>
     </g>
     <g id="line2d_22">
      <g>
       <use xlink:href="#m98c1bf7bb0" x="108" y="99.376044" style="stroke: #000000; stroke-width: 0.8"/>
      </g>
     </g>
     <g id="text_12">
      <!-- 0.20 -->
      <g transform="translate(69.828125 104.69495) scale(0.14 -0.14)">
       <use xlink:href="#DejaVuSans-30"/>
       <use xlink:href="#DejaVuSans-2e" x="63.623047"/>
       <use xlink:href="#DejaVuSans-32" x="95.410156"/>
       <use xlink:href="#DejaVuSans-30" x="159.033203"/>
      </g>
     </g>
    </g>
    <g id="ytick_6">
     <g id="line2d_23">
      <path d="M 108 62.660055 
L 777.6 62.660055 
" clip-path="url(#p8a49f53f41)" style="fill: none; stroke: #b0b0b0; stroke-width: 0.8; stroke-linecap: square"/>
     </g>
     <g id="line2d_24">
      <g>
       <use xlink:href="#m98c1bf7bb0" x="108" y="62.660055" style="stroke: #000000; stroke-width: 0.8"/>
      </g>
     </g>
     <g id="text_13">
      <!-- 0.25 -->
      <g transform="translate(69.828125 67.978961) scale(0.14 -0.14)">
       <use xlink:href="#DejaVuSans-30"/>
       <use xlink:href="#DejaVuSans-2e" x="63.623047"/>
       <use xlink:href="#DejaVuSans-32" x="95.410156"/>
       <use xlink:href="#DejaVuSans-35" x="159.033203"/>
      </g>
     </g>
    </g>
    <g id="text_14">
     <!-- $g_{Inhib}$ (µS) -->
     <g transform="translate(62.888125 178.83) rotate(-90) scale(0.14 -0.14)">
      <defs>
       <path id="DejaVuSans-Oblique-67" d="M 3816 3500 
L 3219 434 
Q 3047 -456 2561 -893 
Q 2075 -1331 1253 -1331 
Q 950 -1331 690 -1286 
Q 431 -1241 206 -1147 
L 313 -588 
Q 525 -725 762 -790 
Q 1000 -856 1269 -856 
Q 1816 -856 2167 -557 
Q 2519 -259 2631 300 
L 2681 563 
Q 2441 288 2122 144 
Q 1803 0 1434 0 
Q 903 0 598 351 
Q 294 703 294 1319 
Q 294 1803 478 2267 
Q 663 2731 997 3091 
Q 1219 3328 1514 3456 
Q 1809 3584 2131 3584 
Q 2484 3584 2746 3420 
Q 3009 3256 3138 2956 
L 3238 3500 
L 3816 3500 
z
M 2950 2216 
Q 2950 2641 2750 2872 
Q 2550 3103 2181 3103 
Q 1953 3103 1747 3012 
Q 1541 2922 1394 2759 
Q 1156 2491 1023 2127 
Q 891 1763 891 1375 
Q 891 944 1092 712 
Q 1294 481 1672 481 
Q 2219 481 2584 976 
Q 2950 1472 2950 2216 
z
" transform="scale(0.015625)"/>
       <path id="DejaVuSans-Oblique-49" d="M 1081 4666 
L 1716 4666 
L 806 0 
L 172 0 
L 1081 4666 
z
" transform="scale(0.015625)"/>
       <path id="DejaVuSans-Oblique-6e" d="M 3566 2113 
L 3156 0 
L 2578 0 
L 2988 2091 
Q 3016 2238 3031 2350 
Q 3047 2463 3047 2528 
Q 3047 2791 2881 2937 
Q 2716 3084 2419 3084 
Q 1956 3084 1622 2776 
Q 1288 2469 1184 1941 
L 800 0 
L 225 0 
L 903 3500 
L 1478 3500 
L 1363 2950 
Q 1603 3253 1940 3418 
Q 2278 3584 2650 3584 
Q 3113 3584 3367 3334 
Q 3622 3084 3622 2631 
Q 3622 2519 3608 2391 
Q 3594 2263 3566 2113 
z
" transform="scale(0.015625)"/>
       <path id="DejaVuSans-Oblique-68" d="M 3566 2113 
L 3156 0 
L 2578 0 
L 2988 2091 
Q 3016 2238 3031 2350 
Q 3047 2463 3047 2528 
Q 3047 2791 2881 2937 
Q 2716 3084 2419 3084 
Q 1956 3084 1617 2771 
Q 1278 2459 1178 1941 
L 800 0 
L 225 0 
L 1172 4863 
L 1747 4863 
L 1375 2950 
Q 1594 3244 1934 3414 
Q 2275 3584 2650 3584 
Q 3113 3584 3367 3334 
Q 3622 3084 3622 2631 
Q 3622 2519 3608 2391 
Q 3594 2263 3566 2113 
z
" transform="scale(0.015625)"/>
       <path id="DejaVuSans-Oblique-69" d="M 1172 4863 
L 1747 4863 
L 1606 4134 
L 1031 4134 
L 1172 4863 
z
M 909 3500 
L 1484 3500 
L 800 0 
L 225 0 
L 909 3500 
z
" transform="scale(0.015625)"/>
       <path id="DejaVuSans-Oblique-62" d="M 3169 2138 
Q 3169 2591 2961 2847 
Q 2753 3103 2388 3103 
Q 2122 3103 1889 2973 
Q 1656 2844 1484 2597 
Q 1303 2338 1198 1995 
Q 1094 1653 1094 1313 
Q 1094 881 1298 636 
Q 1503 391 1863 391 
Q 2134 391 2365 517 
Q 2597 644 2772 891 
Q 2950 1147 3059 1487 
Q 3169 1828 3169 2138 
z
M 1381 2969 
Q 1594 3256 1914 3420 
Q 2234 3584 2584 3584 
Q 3122 3584 3439 3221 
Q 3756 2859 3756 2241 
Q 3756 1734 3570 1259 
Q 3384 784 3041 416 
Q 2816 172 2522 40 
Q 2228 -91 1906 -91 
Q 1566 -91 1316 65 
Q 1066 222 909 531 
L 806 0 
L 231 0 
L 1178 4863 
L 1753 4863 
L 1381 2969 
z
" transform="scale(0.015625)"/>
       <path id="DejaVuSans-b5" d="M 544 -1331 
L 544 3500 
L 1119 3500 
L 1119 1325 
Q 1119 872 1334 640 
Q 1550 409 1972 409 
Q 2434 409 2667 671 
Q 2900 934 2900 1459 
L 2900 3500 
L 3475 3500 
L 3475 806 
Q 3475 619 3529 530 
Q 3584 441 3700 441 
Q 3728 441 3778 458 
Q 3828 475 3916 513 
L 3916 50 
Q 3788 -22 3673 -56 
Q 3559 -91 3450 -91 
Q 3234 -91 3106 31 
Q 2978 153 2931 403 
Q 2775 156 2548 32 
Q 2322 -91 2016 -91 
Q 1697 -91 1473 31 
Q 1250 153 1119 397 
L 1119 -1331 
L 544 -1331 
z
" transform="scale(0.015625)"/>
       <path id="DejaVuSans-53" d="M 3425 4513 
L 3425 3897 
Q 3066 4069 2747 4153 
Q 2428 4238 2131 4238 
Q 1616 4238 1336 4038 
Q 1056 3838 1056 3469 
Q 1056 3159 1242 3001 
Q 1428 2844 1947 2747 
L 2328 2669 
Q 3034 2534 3370 2195 
Q 3706 1856 3706 1288 
Q 3706 609 3251 259 
Q 2797 -91 1919 -91 
Q 1588 -91 1214 -16 
Q 841 59 441 206 
L 441 856 
Q 825 641 1194 531 
Q 1563 422 1919 422 
Q 2459 422 2753 634 
Q 3047 847 3047 1241 
Q 3047 1584 2836 1778 
Q 2625 1972 2144 2069 
L 1759 2144 
Q 1053 2284 737 2584 
Q 422 2884 422 3419 
Q 422 4038 858 4394 
Q 1294 4750 2059 4750 
Q 2388 4750 2728 4690 
Q 3069 4631 3425 4513 
z
" transform="scale(0.015625)"/>
      </defs>
      <use xlink:href="#DejaVuSans-Oblique-67" transform="translate(0 0.125)"/>
      <use xlink:href="#DejaVuSans-Oblique-49" transform="translate(63.476562 -16.28125) scale(0.7)"/>
      <use xlink:href="#DejaVuSans-Oblique-6e" transform="translate(84.121094 -16.28125) scale(0.7)"/>
      <use xlink:href="#DejaVuSans-Oblique-68" transform="translate(128.486328 -16.28125) scale(0.7)"/>
      <use xlink:href="#DejaVuSans-Oblique-69" transform="translate(172.851562 -16.28125) scale(0.7)"/>
      <use xlink:href="#DejaVuSans-Oblique-62" transform="translate(192.299805 -16.28125) scale(0.7)"/>
      <use xlink:href="#DejaVuSans-20" transform="translate(239.467773 0.125)"/>
      <use xlink:href="#DejaVuSans-28" transform="translate(271.254883 0.125)"/>
      <use xlink:href="#DejaVuSans-b5" transform="translate(310.268555 0.125)"/>
      <use xlink:href="#DejaVuSans-53" transform="translate(373.891602 0.125)"/>
      <use xlink:href="#DejaVuSans-29" transform="translate(437.368164 0.125)"/>
     </g>
    </g>
   </g>
   <g id="line2d_25">
    <path d="M 108 125.615099 
L 108.6696 120.63772 
L 109.3392 120.041669 
L 112.0176 127.815817 
L 112.6872 122.803073 
L 113.3568 115.256467 
L 114.0264 114.59553 
L 116.0352 120.693937 
L 116.7048 115.795638 
L 117.3744 115.277397 
L 122.0616 129.180103 
L 122.7312 124.145436 
L 123.4008 123.493018 
L 124.0704 125.31414 
L 124.74 120.341596 
L 125.4096 112.834544 
L 126.0792 112.212527 
L 128.7576 120.477916 
L 129.4272 115.583088 
L 130.0968 115.068263 
L 130.7664 110.109006 
L 131.436 95.850627 
L 132.1056 92.887118 
L 132.7752 88.132942 
L 133.4448 88.059226 
L 134.1144 90.449751 
L 134.784 86.03746 
L 135.4536 85.997418 
L 142.1496 109.832281 
L 145.4976 120.445662 
L 146.1672 115.551353 
L 146.8368 115.037037 
L 148.176 119.070958 
L 148.8456 114.19874 
L 149.5152 113.70616 
L 156.8808 135.210267 
L 160.2288 143.849081 
L 163.5768 151.81574 
L 166.9248 159.162543 
L 170.2728 165.937719 
L 173.6208 172.185743 
L 176.9688 177.947631 
L 180.3168 183.261208 
L 183.6648 188.161356 
L 187.0128 192.68024 
L 190.3608 196.847528 
L 193.7088 200.690574 
L 197.0568 204.234606 
L 200.4048 207.502891 
L 204.4224 211.090935 
L 207.1008 213.296366 
L 207.7704 206.909994 
L 208.44 204.927592 
L 209.1096 205.440102 
L 212.4576 208.614591 
L 213.1272 202.303453 
L 213.7968 200.395075 
L 215.136 201.707719 
L 218.484 205.172611 
L 222.5016 208.976498 
L 225.18 211.3146 
L 225.8496 198.044314 
L 226.5192 193.589964 
L 227.1888 194.133305 
L 229.8672 197.402745 
L 230.5368 191.271775 
L 231.2064 189.540671 
L 232.5456 191.199361 
L 233.2152 185.168076 
L 233.8848 183.535055 
L 234.5544 177.475573 
L 235.224 175.966167 
L 236.5632 178.057622 
L 237.2328 172.237518 
L 237.9024 170.812285 
L 239.2416 173.06805 
L 240.5808 175.400826 
L 241.2504 169.623415 
L 241.92 168.240189 
L 242.5896 162.426488 
L 243.2592 154.243153 
L 243.9288 152.955721 
L 244.5984 154.303392 
L 245.268 148.865006 
L 245.9376 147.815357 
L 246.6072 142.329872 
L 247.2768 134.46948 
L 247.9464 133.4998 
L 249.2856 136.945115 
L 249.9552 131.785668 
L 250.6248 124.094716 
L 251.2944 123.291753 
L 251.964 125.116109 
L 252.6336 120.146748 
L 253.3032 112.642827 
L 253.9728 112.023891 
L 254.6424 107.113556 
L 255.312 99.819072 
L 255.9816 99.406207 
L 256.6512 101.614391 
L 257.3208 97.022691 
L 257.9904 89.890361 
L 258.66 89.637046 
L 259.3296 92.002215 
L 259.9992 87.564978 
L 260.6688 87.500389 
L 262.008 92.412199 
L 262.6776 87.968373 
L 263.3472 87.897301 
L 264.0168 90.290428 
L 264.6864 85.880698 
L 265.356 85.843174 
L 266.0256 74.43779 
L 266.6952 71.969733 
L 268.0344 77.227745 
L 271.3824 90.377965 
L 274.0608 100.157545 
L 274.7304 95.589255 
L 275.4 95.39572 
L 282.096 117.824984 
L 285.444 127.816483 
L 288.792 137.030579 
L 292.14 145.527761 
L 295.488 153.363809 
L 296.1576 147.940522 
L 296.8272 146.905729 
L 297.4968 148.35062 
L 298.1664 143.007893 
L 298.836 142.052365 
L 300.8448 146.848276 
L 304.1928 154.581579 
L 307.5408 161.713182 
L 310.8888 168.289902 
L 314.2368 174.354911 
L 317.5848 179.948025 
L 320.9328 185.105959 
L 324.2808 189.862573 
L 327.6288 194.249092 
L 330.9768 198.294313 
L 334.3248 202.02479 
L 337.6728 205.465012 
L 340.3512 208.023443 
L 341.0208 201.721804 
L 341.6904 199.822773 
L 343.0296 201.153662 
L 343.6992 194.962417 
L 344.3688 193.172006 
L 345.708 194.714926 
L 349.056 198.723902 
L 351.7344 201.705305 
L 352.404 195.505195 
L 353.0736 193.706062 
L 353.7432 194.398896 
L 354.4128 188.316196 
L 355.0824 179.716827 
L 355.752 178.020046 
L 357.0912 180.046022 
L 357.7608 181.109726 
L 358.4304 175.240576 
L 359.1 173.767085 
L 360.4392 175.928649 
L 361.1088 170.142756 
L 361.7784 161.835425 
L 362.448 160.425989 
L 363.1176 161.653617 
L 363.7872 156.097117 
L 364.4568 154.931252 
L 366.4656 159.116215 
L 368.4744 163.249187 
L 369.144 157.667047 
L 369.8136 156.475954 
L 371.8224 160.58764 
L 373.8312 164.65081 
L 374.5008 159.046146 
L 375.1704 157.832892 
L 375.84 159.102189 
L 376.5096 146.67093 
L 377.1792 143.042124 
L 377.8488 137.481983 
L 379.188 121.890706 
L 379.8576 121.123161 
L 382.536 128.829451 
L 383.2056 123.800418 
L 383.8752 123.153544 
L 384.5448 118.064362 
L 385.884 103.092133 
L 386.5536 102.626671 
L 388.5624 109.292855 
L 389.232 104.577766 
L 389.9016 97.324031 
L 390.5712 96.95126 
L 394.5888 110.639619 
L 395.2584 92.071369 
L 395.928 86.705535 
L 396.5976 88.815094 
L 397.9368 93.833917 
L 398.6064 89.367245 
L 399.276 89.273694 
L 401.2848 96.573316 
L 401.9544 92.062623 
L 402.624 85.009999 
L 403.2936 84.835108 
L 409.32 106.59986 
L 409.9896 101.928046 
L 410.6592 101.632649 
L 411.3288 103.805056 
L 411.9984 99.178153 
L 412.668 98.926946 
L 419.364 120.828085 
L 422.712 130.585923 
L 426.06 139.58454 
L 429.408 147.883007 
L 432.756 155.535802 
L 436.104 162.593161 
L 439.452 169.101412 
L 442.8 175.103281 
L 446.148 180.638167 
L 449.496 185.742403 
L 452.844 190.449498 
L 456.192 194.790351 
L 459.54 198.793458 
L 462.888 202.485098 
L 466.236 205.889506 
L 468.9144 208.421302 
L 469.584 202.113269 
L 470.2536 200.207948 
L 471.5928 201.526557 
L 472.932 202.952055 
L 473.6016 196.73191 
L 474.2712 194.913065 
L 475.6104 196.400479 
L 478.9584 200.278308 
L 479.628 194.101129 
L 480.2976 192.324559 
L 481.6368 193.894496 
L 484.9848 197.967307 
L 488.3328 201.723227 
L 489.0024 195.522829 
L 489.672 193.723413 
L 491.0112 195.248754 
L 494.3592 199.216194 
L 495.6984 200.715348 
L 496.368 194.531146 
L 497.0376 192.747666 
L 497.7072 186.540142 
L 498.3768 184.885073 
L 499.0464 178.803896 
L 499.716 177.273144 
L 500.3856 178.230047 
L 501.0552 172.407173 
L 501.7248 170.979213 
L 502.3944 165.121497 
L 503.064 156.894855 
L 503.7336 155.564811 
L 505.0728 158.306676 
L 505.7424 152.80396 
L 506.412 151.691014 
L 507.0816 153.059009 
L 507.7512 147.64062 
L 508.4208 146.610646 
L 509.0904 148.060279 
L 509.76 142.722217 
L 510.4296 141.77128 
L 511.0992 143.298679 
L 511.7688 138.037134 
L 512.4384 137.161483 
L 513.7776 140.49006 
L 514.4472 135.273648 
L 515.1168 134.442405 
L 515.7864 136.087576 
L 516.456 130.941909 
L 517.1256 116.348756 
L 517.7952 113.055852 
L 518.4648 101.061815 
L 519.1344 98.165924 
L 519.804 100.24268 
L 520.4736 95.673022 
L 521.1432 88.562382 
L 521.8128 74.498887 
L 522.4824 58.04697 
L 523.152 55.539586 
L 523.8216 51.385566 
L 524.4912 51.902362 
L 525.1608 47.958149 
L 525.8304 48.530021 
L 526.5 44.64 
L 527.1696 45.265193 
L 529.1784 54.652487 
L 529.848 50.81544 
L 530.5176 51.341397 
L 535.8744 74.896825 
L 539.2224 88.228405 
L 542.5704 100.522704 
L 545.9184 111.860429 
L 549.2664 122.316007 
L 552.6144 131.958076 
L 555.9624 140.84993 
L 559.3104 149.049943 
L 562.6584 156.611942 
L 566.0064 163.585571 
L 569.3544 170.016607 
L 572.7024 175.947268 
L 576.0504 181.416486 
L 579.3984 186.460164 
L 582.7464 191.111412 
L 586.0944 195.400764 
L 589.4424 199.356377 
L 592.7904 203.004219 
L 596.1384 206.368236 
L 598.1472 208.259669 
L 598.8168 195.038474 
L 599.4864 190.632427 
L 600.156 191.223293 
L 603.504 195.50394 
L 606.852 199.451526 
L 610.2 203.091964 
L 613.548 206.449154 
L 614.2176 200.172812 
L 614.8872 198.298673 
L 615.5568 192.001947 
L 616.2264 190.25911 
L 617.5656 191.894895 
L 619.5744 194.472914 
L 620.244 188.389025 
L 620.9136 186.704245 
L 622.2528 188.453362 
L 624.9312 192.079191 
L 625.6008 186.033768 
L 626.2704 184.386836 
L 627.6096 186.209834 
L 630.9576 190.88056 
L 632.9664 193.506696 
L 633.636 187.438334 
L 634.3056 185.768831 
L 635.6448 187.54777 
L 636.984 189.418922 
L 637.6536 183.416248 
L 638.3232 181.811378 
L 638.9928 168.863835 
L 639.6624 164.8784 
L 640.332 165.883121 
L 642.3408 169.695084 
L 643.0104 157.093602 
L 643.68 153.297309 
L 644.3496 154.488132 
L 645.0192 149.046778 
L 645.6888 147.994208 
L 646.3584 128.674329 
L 647.028 122.720304 
L 647.6976 124.251125 
L 648.3672 126.211423 
L 649.0368 121.224461 
L 649.7064 120.618981 
L 650.376 115.570528 
L 651.0456 115.055904 
L 651.7152 103.181087 
L 652.3848 93.33538 
L 653.0544 92.875345 
L 655.7328 102.354048 
L 656.4024 97.750461 
L 657.072 90.606437 
L 657.7416 90.341614 
L 659.7504 97.590576 
L 660.42 86.147777 
L 661.0896 83.491546 
L 662.4288 88.382234 
L 663.0984 84.003168 
L 663.768 83.995815 
L 664.4376 79.535877 
L 665.1072 79.600312 
L 667.116 87.358818 
L 667.7856 82.996198 
L 668.4552 83.005027 
L 669.7944 88.060152 
L 670.464 83.686261 
L 671.1336 83.684001 
L 677.16 105.604923 
L 680.508 116.547219 
L 681.1776 111.715556 
L 681.8472 111.262879 
L 689.2128 133.165791 
L 692.5608 141.963678 
L 695.9088 150.077033 
L 699.2568 157.559119 
L 702.6048 164.459051 
L 705.9528 170.822125 
L 709.3008 176.690111 
L 712.6488 182.101531 
L 715.9968 187.091909 
L 719.3448 191.694003 
L 722.6928 195.938026 
L 726.0408 199.851837 
L 729.3888 203.461129 
L 732.7368 206.789595 
L 736.7544 210.443708 
L 740.772 213.759357 
L 741.4416 214.281304 
L 742.1112 207.879104 
L 742.7808 205.881129 
L 743.4504 206.378316 
L 747.468 210.070524 
L 749.4768 211.786329 
L 750.1464 205.424222 
L 750.816 203.465695 
L 751.4856 204.001697 
L 752.1552 197.764686 
L 752.8248 195.929244 
L 754.164 197.384261 
L 757.512 201.185546 
L 760.86 204.691067 
L 761.5296 198.442977 
L 762.1992 196.596636 
L 762.8688 176.495741 
L 763.5384 169.77325 
L 764.208 170.547954 
L 764.8776 171.764287 
L 765.5472 166.045313 
L 766.2168 164.719586 
L 766.8864 158.962458 
L 767.556 143.919029 
L 768.2256 140.183085 
L 768.8952 141.584647 
L 772.2432 149.727494 
L 774.9216 155.783181 
L 775.5912 150.321016 
L 776.2608 149.24797 
L 777.6 152.191221 
L 777.6 152.191221 
" clip-path="url(#p8a49f53f41)" style="fill: none; stroke: #ff4500; stroke-width: 1.5; stroke-linecap: square"/>
   </g>
   <g id="patch_3">
    <path d="M 108 256.32 
L 108 34.56 
" style="fill: none; stroke: #000000; stroke-width: 0.8; stroke-linejoin: miter; stroke-linecap: square"/>
   </g>
   <g id="patch_4">
    <path d="M 777.6 256.32 
L 777.6 34.56 
" style="fill: none; stroke: #000000; stroke-width: 0.8; stroke-linejoin: miter; stroke-linecap: square"/>
   </g>
   <g id="patch_5">
    <path d="M 108 256.32 
L 777.6 256.32 
" style="fill: none; stroke: #000000; stroke-width: 0.8; stroke-linejoin: miter; stroke-linecap: square"/>
   </g>
   <g id="patch_6">
    <path d="M 108 34.56 
L 777.6 34.56 
" style="fill: none; stroke: #000000; stroke-width: 0.8; stroke-linejoin: miter; stroke-linecap: square"/>
   </g>
  </g>
 </g>
 <defs>
  <clipPath id="p8a49f53f41">
   <rect x="108" y="34.56" width="669.6" height="221.76"/>
  </clipPath>
 </defs>
</svg>
