<?xml version="1.0" encoding="utf-8" standalone="no"?>
<!DOCTYPE svg PUBLIC "-//W3C//DTD SVG 1.1//EN"
  "http://www.w3.org/Graphics/SVG/1.1/DTD/svg11.dtd">
<svg xmlns:xlink="http://www.w3.org/1999/xlink" width="864pt" height="288pt" viewBox="0 0 864 288" xmlns="http://www.w3.org/2000/svg" version="1.1">
 <metadata>
  <rdf:RDF xmlns:dc="http://purl.org/dc/elements/1.1/" xmlns:cc="http://creativecommons.org/ns#" xmlns:rdf="http://www.w3.org/1999/02/22-rdf-syntax-ns#">
   <cc:Work>
    <dc:type rdf:resource="http://purl.org/dc/dcmitype/StillImage"/>
    <dc:date>2024-04-26T13:29:46.299507</dc:date>
    <dc:format>image/svg+xml</dc:format>
    <dc:creator>
     <cc:Agent>
      <dc:title>Matplotlib v3.8.2, https://matplotlib.org/</dc:title>
     </cc:Agent>
    </dc:creator>
   </cc:Work>
  </rdf:RDF>
 </metadata>
 <defs>
  <style type="text/css">*{stroke-linejoin: round; stroke-linecap: butt}</style>
 </defs>
 <g id="figure_1">
  <g id="patch_1">
   <path d="M 0 288 
L 864 288 
L 864 0 
L 0 0 
z
" style="fill: #ffffff"/>
  </g>
  <g id="axes_1">
   <g id="patch_2">
    <path d="M 108 256.32 
L 777.6 256.32 
L 777.6 34.56 
L 108 34.56 
z
" style="fill: #ffffff"/>
   </g>
   <g id="matplotlib.axis_1">
    <g id="xtick_1">
     <g id="line2d_1">
      <path d="M 108 256.32 
L 108 34.56 
" clip-path="url(#p2fc42c5a22)" style="fill: none; stroke: #b0b0b0; stroke-width: 0.8; stroke-linecap: square"/>
     </g>
     <g id="line2d_2">
      <defs>
       <path id="mc57c6c5eaa" d="M 0 0 
L 0 3.5 
" style="stroke: #000000; stroke-width: 0.8"/>
      </defs>
      <g>
       <use xlink:href="#mc57c6c5eaa" x="108" y="256.32" style="stroke: #000000; stroke-width: 0.8"/>
      </g>
     </g>
     <g id="text_1">
      <!-- 100 -->
      <g transform="translate(94.63875 273.957812) scale(0.14 -0.14)">
       <defs>
        <path id="DejaVuSans-31" d="M 794 531 
L 1825 531 
L 1825 4091 
L 703 3866 
L 703 4441 
L 1819 4666 
L 2450 4666 
L 2450 531 
L 3481 531 
L 3481 0 
L 794 0 
L 794 531 
z
" transform="scale(0.015625)"/>
        <path id="DejaVuSans-30" d="M 2034 4250 
Q 1547 4250 1301 3770 
Q 1056 3291 1056 2328 
Q 1056 1369 1301 889 
Q 1547 409 2034 409 
Q 2525 409 2770 889 
Q 3016 1369 3016 2328 
Q 3016 3291 2770 3770 
Q 2525 4250 2034 4250 
z
M 2034 4750 
Q 2819 4750 3233 4129 
Q 3647 3509 3647 2328 
Q 3647 1150 3233 529 
Q 2819 -91 2034 -91 
Q 1250 -91 836 529 
Q 422 1150 422 2328 
Q 422 3509 836 4129 
Q 1250 4750 2034 4750 
z
" transform="scale(0.015625)"/>
       </defs>
       <use xlink:href="#DejaVuSans-31"/>
       <use xlink:href="#DejaVuSans-30" x="63.623047"/>
       <use xlink:href="#DejaVuSans-30" x="127.246094"/>
      </g>
     </g>
    </g>
    <g id="xtick_2">
     <g id="line2d_3">
      <path d="M 241.92 256.32 
L 241.92 34.56 
" clip-path="url(#p2fc42c5a22)" style="fill: none; stroke: #b0b0b0; stroke-width: 0.8; stroke-linecap: square"/>
     </g>
     <g id="line2d_4">
      <g>
       <use xlink:href="#mc57c6c5eaa" x="241.92" y="256.32" style="stroke: #000000; stroke-width: 0.8"/>
      </g>
     </g>
     <g id="text_2">
      <!-- 120 -->
      <g transform="translate(228.55875 273.957812) scale(0.14 -0.14)">
       <defs>
        <path id="DejaVuSans-32" d="M 1228 531 
L 3431 531 
L 3431 0 
L 469 0 
L 469 531 
Q 828 903 1448 1529 
Q 2069 2156 2228 2338 
Q 2531 2678 2651 2914 
Q 2772 3150 2772 3378 
Q 2772 3750 2511 3984 
Q 2250 4219 1831 4219 
Q 1534 4219 1204 4116 
Q 875 4013 500 3803 
L 500 4441 
Q 881 4594 1212 4672 
Q 1544 4750 1819 4750 
Q 2544 4750 2975 4387 
Q 3406 4025 3406 3419 
Q 3406 3131 3298 2873 
Q 3191 2616 2906 2266 
Q 2828 2175 2409 1742 
Q 1991 1309 1228 531 
z
" transform="scale(0.015625)"/>
       </defs>
       <use xlink:href="#DejaVuSans-31"/>
       <use xlink:href="#DejaVuSans-32" x="63.623047"/>
       <use xlink:href="#DejaVuSans-30" x="127.246094"/>
      </g>
     </g>
    </g>
    <g id="xtick_3">
     <g id="line2d_5">
      <path d="M 375.84 256.32 
L 375.84 34.56 
" clip-path="url(#p2fc42c5a22)" style="fill: none; stroke: #b0b0b0; stroke-width: 0.8; stroke-linecap: square"/>
     </g>
     <g id="line2d_6">
      <g>
       <use xlink:href="#mc57c6c5eaa" x="375.84" y="256.32" style="stroke: #000000; stroke-width: 0.8"/>
      </g>
     </g>
     <g id="text_3">
      <!-- 140 -->
      <g transform="translate(362.47875 273.957812) scale(0.14 -0.14)">
       <defs>
        <path id="DejaVuSans-34" d="M 2419 4116 
L 825 1625 
L 2419 1625 
L 2419 4116 
z
M 2253 4666 
L 3047 4666 
L 3047 1625 
L 3713 1625 
L 3713 1100 
L 3047 1100 
L 3047 0 
L 2419 0 
L 2419 1100 
L 313 1100 
L 313 1709 
L 2253 4666 
z
" transform="scale(0.015625)"/>
       </defs>
       <use xlink:href="#DejaVuSans-31"/>
       <use xlink:href="#DejaVuSans-34" x="63.623047"/>
       <use xlink:href="#DejaVuSans-30" x="127.246094"/>
      </g>
     </g>
    </g>
    <g id="xtick_4">
     <g id="line2d_7">
      <path d="M 509.76 256.32 
L 509.76 34.56 
" clip-path="url(#p2fc42c5a22)" style="fill: none; stroke: #b0b0b0; stroke-width: 0.8; stroke-linecap: square"/>
     </g>
     <g id="line2d_8">
      <g>
       <use xlink:href="#mc57c6c5eaa" x="509.76" y="256.32" style="stroke: #000000; stroke-width: 0.8"/>
      </g>
     </g>
     <g id="text_4">
      <!-- 160 -->
      <g transform="translate(496.39875 273.957812) scale(0.14 -0.14)">
       <defs>
        <path id="DejaVuSans-36" d="M 2113 2584 
Q 1688 2584 1439 2293 
Q 1191 2003 1191 1497 
Q 1191 994 1439 701 
Q 1688 409 2113 409 
Q 2538 409 2786 701 
Q 3034 994 3034 1497 
Q 3034 2003 2786 2293 
Q 2538 2584 2113 2584 
z
M 3366 4563 
L 3366 3988 
Q 3128 4100 2886 4159 
Q 2644 4219 2406 4219 
Q 1781 4219 1451 3797 
Q 1122 3375 1075 2522 
Q 1259 2794 1537 2939 
Q 1816 3084 2150 3084 
Q 2853 3084 3261 2657 
Q 3669 2231 3669 1497 
Q 3669 778 3244 343 
Q 2819 -91 2113 -91 
Q 1303 -91 875 529 
Q 447 1150 447 2328 
Q 447 3434 972 4092 
Q 1497 4750 2381 4750 
Q 2619 4750 2861 4703 
Q 3103 4656 3366 4563 
z
" transform="scale(0.015625)"/>
       </defs>
       <use xlink:href="#DejaVuSans-31"/>
       <use xlink:href="#DejaVuSans-36" x="63.623047"/>
       <use xlink:href="#DejaVuSans-30" x="127.246094"/>
      </g>
     </g>
    </g>
    <g id="xtick_5">
     <g id="line2d_9">
      <path d="M 643.68 256.32 
L 643.68 34.56 
" clip-path="url(#p2fc42c5a22)" style="fill: none; stroke: #b0b0b0; stroke-width: 0.8; stroke-linecap: square"/>
     </g>
     <g id="line2d_10">
      <g>
       <use xlink:href="#mc57c6c5eaa" x="643.68" y="256.32" style="stroke: #000000; stroke-width: 0.8"/>
      </g>
     </g>
     <g id="text_5">
      <!-- 180 -->
      <g transform="translate(630.31875 273.957812) scale(0.14 -0.14)">
       <defs>
        <path id="DejaVuSans-38" d="M 2034 2216 
Q 1584 2216 1326 1975 
Q 1069 1734 1069 1313 
Q 1069 891 1326 650 
Q 1584 409 2034 409 
Q 2484 409 2743 651 
Q 3003 894 3003 1313 
Q 3003 1734 2745 1975 
Q 2488 2216 2034 2216 
z
M 1403 2484 
Q 997 2584 770 2862 
Q 544 3141 544 3541 
Q 544 4100 942 4425 
Q 1341 4750 2034 4750 
Q 2731 4750 3128 4425 
Q 3525 4100 3525 3541 
Q 3525 3141 3298 2862 
Q 3072 2584 2669 2484 
Q 3125 2378 3379 2068 
Q 3634 1759 3634 1313 
Q 3634 634 3220 271 
Q 2806 -91 2034 -91 
Q 1263 -91 848 271 
Q 434 634 434 1313 
Q 434 1759 690 2068 
Q 947 2378 1403 2484 
z
M 1172 3481 
Q 1172 3119 1398 2916 
Q 1625 2713 2034 2713 
Q 2441 2713 2670 2916 
Q 2900 3119 2900 3481 
Q 2900 3844 2670 4047 
Q 2441 4250 2034 4250 
Q 1625 4250 1398 4047 
Q 1172 3844 1172 3481 
z
" transform="scale(0.015625)"/>
       </defs>
       <use xlink:href="#DejaVuSans-31"/>
       <use xlink:href="#DejaVuSans-38" x="63.623047"/>
       <use xlink:href="#DejaVuSans-30" x="127.246094"/>
      </g>
     </g>
    </g>
    <g id="xtick_6">
     <g id="line2d_11">
      <path d="M 777.6 256.32 
L 777.6 34.56 
" clip-path="url(#p2fc42c5a22)" style="fill: none; stroke: #b0b0b0; stroke-width: 0.8; stroke-linecap: square"/>
     </g>
     <g id="line2d_12">
      <g>
       <use xlink:href="#mc57c6c5eaa" x="777.6" y="256.32" style="stroke: #000000; stroke-width: 0.8"/>
      </g>
     </g>
     <g id="text_6">
      <!-- 200 -->
      <g transform="translate(764.23875 273.957812) scale(0.14 -0.14)">
       <use xlink:href="#DejaVuSans-32"/>
       <use xlink:href="#DejaVuSans-30" x="63.623047"/>
       <use xlink:href="#DejaVuSans-30" x="127.246094"/>
      </g>
     </g>
    </g>
    <g id="text_7">
     <!-- Time (ms) -->
     <g transform="translate(407.521094 291.507187) scale(0.14 -0.14)">
      <defs>
       <path id="DejaVuSans-54" d="M -19 4666 
L 3928 4666 
L 3928 4134 
L 2272 4134 
L 2272 0 
L 1638 0 
L 1638 4134 
L -19 4134 
L -19 4666 
z
" transform="scale(0.015625)"/>
       <path id="DejaVuSans-69" d="M 603 3500 
L 1178 3500 
L 1178 0 
L 603 0 
L 603 3500 
z
M 603 4863 
L 1178 4863 
L 1178 4134 
L 603 4134 
L 603 4863 
z
" transform="scale(0.015625)"/>
       <path id="DejaVuSans-6d" d="M 3328 2828 
Q 3544 3216 3844 3400 
Q 4144 3584 4550 3584 
Q 5097 3584 5394 3201 
Q 5691 2819 5691 2113 
L 5691 0 
L 5113 0 
L 5113 2094 
Q 5113 2597 4934 2840 
Q 4756 3084 4391 3084 
Q 3944 3084 3684 2787 
Q 3425 2491 3425 1978 
L 3425 0 
L 2847 0 
L 2847 2094 
Q 2847 2600 2669 2842 
Q 2491 3084 2119 3084 
Q 1678 3084 1418 2786 
Q 1159 2488 1159 1978 
L 1159 0 
L 581 0 
L 581 3500 
L 1159 3500 
L 1159 2956 
Q 1356 3278 1631 3431 
Q 1906 3584 2284 3584 
Q 2666 3584 2933 3390 
Q 3200 3197 3328 2828 
z
" transform="scale(0.015625)"/>
       <path id="DejaVuSans-65" d="M 3597 1894 
L 3597 1613 
L 953 1613 
Q 991 1019 1311 708 
Q 1631 397 2203 397 
Q 2534 397 2845 478 
Q 3156 559 3463 722 
L 3463 178 
Q 3153 47 2828 -22 
Q 2503 -91 2169 -91 
Q 1331 -91 842 396 
Q 353 884 353 1716 
Q 353 2575 817 3079 
Q 1281 3584 2069 3584 
Q 2775 3584 3186 3129 
Q 3597 2675 3597 1894 
z
M 3022 2063 
Q 3016 2534 2758 2815 
Q 2500 3097 2075 3097 
Q 1594 3097 1305 2825 
Q 1016 2553 972 2059 
L 3022 2063 
z
" transform="scale(0.015625)"/>
       <path id="DejaVuSans-20" transform="scale(0.015625)"/>
       <path id="DejaVuSans-28" d="M 1984 4856 
Q 1566 4138 1362 3434 
Q 1159 2731 1159 2009 
Q 1159 1288 1364 580 
Q 1569 -128 1984 -844 
L 1484 -844 
Q 1016 -109 783 600 
Q 550 1309 550 2009 
Q 550 2706 781 3412 
Q 1013 4119 1484 4856 
L 1984 4856 
z
" transform="scale(0.015625)"/>
       <path id="DejaVuSans-73" d="M 2834 3397 
L 2834 2853 
Q 2591 2978 2328 3040 
Q 2066 3103 1784 3103 
Q 1356 3103 1142 2972 
Q 928 2841 928 2578 
Q 928 2378 1081 2264 
Q 1234 2150 1697 2047 
L 1894 2003 
Q 2506 1872 2764 1633 
Q 3022 1394 3022 966 
Q 3022 478 2636 193 
Q 2250 -91 1575 -91 
Q 1294 -91 989 -36 
Q 684 19 347 128 
L 347 722 
Q 666 556 975 473 
Q 1284 391 1588 391 
Q 1994 391 2212 530 
Q 2431 669 2431 922 
Q 2431 1156 2273 1281 
Q 2116 1406 1581 1522 
L 1381 1569 
Q 847 1681 609 1914 
Q 372 2147 372 2553 
Q 372 3047 722 3315 
Q 1072 3584 1716 3584 
Q 2034 3584 2315 3537 
Q 2597 3491 2834 3397 
z
" transform="scale(0.015625)"/>
       <path id="DejaVuSans-29" d="M 513 4856 
L 1013 4856 
Q 1481 4119 1714 3412 
Q 1947 2706 1947 2009 
Q 1947 1309 1714 600 
Q 1481 -109 1013 -844 
L 513 -844 
Q 928 -128 1133 580 
Q 1338 1288 1338 2009 
Q 1338 2731 1133 3434 
Q 928 4138 513 4856 
z
" transform="scale(0.015625)"/>
      </defs>
      <use xlink:href="#DejaVuSans-54"/>
      <use xlink:href="#DejaVuSans-69" x="57.958984"/>
      <use xlink:href="#DejaVuSans-6d" x="85.742188"/>
      <use xlink:href="#DejaVuSans-65" x="183.154297"/>
      <use xlink:href="#DejaVuSans-20" x="244.677734"/>
      <use xlink:href="#DejaVuSans-28" x="276.464844"/>
      <use xlink:href="#DejaVuSans-6d" x="315.478516"/>
      <use xlink:href="#DejaVuSans-73" x="412.890625"/>
      <use xlink:href="#DejaVuSans-29" x="464.990234"/>
     </g>
    </g>
   </g>
   <g id="matplotlib.axis_2">
    <g id="ytick_1">
     <g id="line2d_13">
      <path d="M 108 225.17746 
L 777.6 225.17746 
" clip-path="url(#p2fc42c5a22)" style="fill: none; stroke: #b0b0b0; stroke-width: 0.8; stroke-linecap: square"/>
     </g>
     <g id="line2d_14">
      <defs>
       <path id="m260cbd954d" d="M 0 0 
L -3.5 0 
" style="stroke: #000000; stroke-width: 0.8"/>
      </defs>
      <g>
       <use xlink:href="#m260cbd954d" x="108" y="225.17746" style="stroke: #000000; stroke-width: 0.8"/>
      </g>
     </g>
     <g id="text_8">
      <!-- −60 -->
      <g transform="translate(71.453437 230.496367) scale(0.14 -0.14)">
       <defs>
        <path id="DejaVuSans-2212" d="M 678 2272 
L 4684 2272 
L 4684 1741 
L 678 1741 
L 678 2272 
z
" transform="scale(0.015625)"/>
       </defs>
       <use xlink:href="#DejaVuSans-2212"/>
       <use xlink:href="#DejaVuSans-36" x="83.789062"/>
       <use xlink:href="#DejaVuSans-30" x="147.412109"/>
      </g>
     </g>
    </g>
    <g id="ytick_2">
     <g id="line2d_15">
      <path d="M 108 183.119504 
L 777.6 183.119504 
" clip-path="url(#p2fc42c5a22)" style="fill: none; stroke: #b0b0b0; stroke-width: 0.8; stroke-linecap: square"/>
     </g>
     <g id="line2d_16">
      <g>
       <use xlink:href="#m260cbd954d" x="108" y="183.119504" style="stroke: #000000; stroke-width: 0.8"/>
      </g>
     </g>
     <g id="text_9">
      <!-- −40 -->
      <g transform="translate(71.453437 188.43841) scale(0.14 -0.14)">
       <use xlink:href="#DejaVuSans-2212"/>
       <use xlink:href="#DejaVuSans-34" x="83.789062"/>
       <use xlink:href="#DejaVuSans-30" x="147.412109"/>
      </g>
     </g>
    </g>
    <g id="ytick_3">
     <g id="line2d_17">
      <path d="M 108 141.061547 
L 777.6 141.061547 
" clip-path="url(#p2fc42c5a22)" style="fill: none; stroke: #b0b0b0; stroke-width: 0.8; stroke-linecap: square"/>
     </g>
     <g id="line2d_18">
      <g>
       <use xlink:href="#m260cbd954d" x="108" y="141.061547" style="stroke: #000000; stroke-width: 0.8"/>
      </g>
     </g>
     <g id="text_10">
      <!-- −20 -->
      <g transform="translate(71.453437 146.380454) scale(0.14 -0.14)">
       <use xlink:href="#DejaVuSans-2212"/>
       <use xlink:href="#DejaVuSans-32" x="83.789062"/>
       <use xlink:href="#DejaVuSans-30" x="147.412109"/>
      </g>
     </g>
    </g>
    <g id="ytick_4">
     <g id="line2d_19">
      <path d="M 108 99.003591 
L 777.6 99.003591 
" clip-path="url(#p2fc42c5a22)" style="fill: none; stroke: #b0b0b0; stroke-width: 0.8; stroke-linecap: square"/>
     </g>
     <g id="line2d_20">
      <g>
       <use xlink:href="#m260cbd954d" x="108" y="99.003591" style="stroke: #000000; stroke-width: 0.8"/>
      </g>
     </g>
     <g id="text_11">
      <!-- 0 -->
      <g transform="translate(92.0925 104.322497) scale(0.14 -0.14)">
       <use xlink:href="#DejaVuSans-30"/>
      </g>
     </g>
    </g>
    <g id="ytick_5">
     <g id="line2d_21">
      <path d="M 108 56.945635 
L 777.6 56.945635 
" clip-path="url(#p2fc42c5a22)" style="fill: none; stroke: #b0b0b0; stroke-width: 0.8; stroke-linecap: square"/>
     </g>
     <g id="line2d_22">
      <g>
       <use xlink:href="#m260cbd954d" x="108" y="56.945635" style="stroke: #000000; stroke-width: 0.8"/>
      </g>
     </g>
     <g id="text_12">
      <!-- 20 -->
      <g transform="translate(83.185 62.264541) scale(0.14 -0.14)">
       <use xlink:href="#DejaVuSans-32"/>
       <use xlink:href="#DejaVuSans-30" x="63.623047"/>
      </g>
     </g>
    </g>
    <g id="text_13">
     <!-- $V_{m}$ (mV) -->
     <g transform="translate(64.541875 174.49) rotate(-90) scale(0.14 -0.14)">
      <defs>
       <path id="DejaVuSans-Oblique-56" d="M 1319 0 
L 500 4666 
L 1119 4666 
L 1797 653 
L 4063 4666 
L 4750 4666 
L 2053 0 
L 1319 0 
z
" transform="scale(0.015625)"/>
       <path id="DejaVuSans-Oblique-6d" d="M 5747 2113 
L 5338 0 
L 4763 0 
L 5166 2094 
Q 5191 2228 5203 2325 
Q 5216 2422 5216 2491 
Q 5216 2772 5059 2928 
Q 4903 3084 4622 3084 
Q 4203 3084 3875 2770 
Q 3547 2456 3450 1953 
L 3066 0 
L 2491 0 
L 2900 2094 
Q 2925 2209 2937 2307 
Q 2950 2406 2950 2484 
Q 2950 2769 2794 2926 
Q 2638 3084 2363 3084 
Q 1938 3084 1609 2770 
Q 1281 2456 1184 1953 
L 800 0 
L 225 0 
L 909 3500 
L 1484 3500 
L 1375 2956 
Q 1609 3263 1923 3423 
Q 2238 3584 2597 3584 
Q 2978 3584 3223 3384 
Q 3469 3184 3519 2828 
Q 3781 3197 4126 3390 
Q 4472 3584 4856 3584 
Q 5306 3584 5551 3325 
Q 5797 3066 5797 2591 
Q 5797 2488 5784 2364 
Q 5772 2241 5747 2113 
z
" transform="scale(0.015625)"/>
       <path id="DejaVuSans-56" d="M 1831 0 
L 50 4666 
L 709 4666 
L 2188 738 
L 3669 4666 
L 4325 4666 
L 2547 0 
L 1831 0 
z
" transform="scale(0.015625)"/>
      </defs>
      <use xlink:href="#DejaVuSans-Oblique-56" transform="translate(0 0.125)"/>
      <use xlink:href="#DejaVuSans-Oblique-6d" transform="translate(68.408203 -16.28125) scale(0.7)"/>
      <use xlink:href="#DejaVuSans-20" transform="translate(139.331055 0.125)"/>
      <use xlink:href="#DejaVuSans-28" transform="translate(171.118164 0.125)"/>
      <use xlink:href="#DejaVuSans-6d" transform="translate(210.131836 0.125)"/>
      <use xlink:href="#DejaVuSans-56" transform="translate(307.543945 0.125)"/>
      <use xlink:href="#DejaVuSans-29" transform="translate(375.952148 0.125)"/>
     </g>
    </g>
   </g>
   <g id="line2d_23">
    <path d="M 108 219.496535 
L 109.3392 220.121223 
L 110.6784 220.509979 
L 111.348 220.647171 
L 112.6872 221.54333 
L 114.0264 221.951074 
L 116.0352 223.446531 
L 118.044 225.841997 
L 118.7136 226.932043 
L 119.3832 227.772644 
L 120.0528 228.302579 
L 120.7224 229.320426 
L 122.7312 231.567008 
L 124.0704 232.332457 
L 125.4096 232.828433 
L 127.4184 233.313578 
L 130.0968 233.65404 
L 132.7752 233.745963 
L 134.1144 233.715872 
L 136.1232 234.548186 
L 136.7928 235.375904 
L 137.4624 235.96083 
L 140.1408 237.194108 
L 141.48 237.490936 
L 144.1584 237.90318 
L 145.4976 238.195863 
L 147.5064 238.226467 
L 148.176 238.192795 
L 149.5152 238.556203 
L 150.8544 238.598436 
L 153.5328 238.356672 
L 156.8808 237.769629 
L 160.2288 236.965623 
L 164.2464 235.774857 
L 168.9336 234.128807 
L 173.6208 232.251728 
L 178.9776 229.869831 
L 185.004 226.940201 
L 191.7 223.437234 
L 198.396 219.740325 
L 199.7352 219.770241 
L 201.0744 219.397731 
L 203.0832 218.555831 
L 205.092 217.316553 
L 205.7616 216.86755 
L 207.1008 216.790496 
L 208.44 216.31025 
L 209.7792 216.523651 
L 211.1184 216.28186 
L 213.7968 215.398009 
L 217.8144 213.754933 
L 222.5016 211.57946 
L 225.8496 209.901018 
L 227.1888 210.136241 
L 227.8584 211.031487 
L 228.528 211.73247 
L 229.1976 212.075961 
L 230.5368 212.321113 
L 231.876 212.305 
L 232.5456 212.242613 
L 234.5544 213.484002 
L 235.8936 215.376573 
L 236.5632 216.498166 
L 239.2416 219.656043 
L 239.9112 220.679299 
L 240.5808 222.160698 
L 241.2504 223.243773 
L 241.92 223.931858 
L 243.2592 224.817746 
L 244.5984 225.390169 
L 245.9376 226.410355 
L 246.6072 226.715503 
L 247.2768 227.277803 
L 247.9464 228.05711 
L 249.9552 229.820962 
L 251.2944 230.987897 
L 252.6336 231.584834 
L 253.9728 231.94968 
L 255.312 233.259491 
L 255.9816 233.893761 
L 256.6512 234.363785 
L 257.9904 234.898324 
L 259.9992 235.328907 
L 260.6688 235.418793 
L 262.008 236.039589 
L 263.3472 236.304997 
L 264.6864 236.423665 
L 267.3648 237.616967 
L 268.704 237.860951 
L 270.7128 237.94726 
L 272.052 238.382012 
L 273.3912 238.487491 
L 275.4 238.416136 
L 278.0784 238.111472 
L 281.4264 237.499313 
L 282.096 237.351376 
L 283.4352 237.532299 
L 284.7744 237.40794 
L 287.4528 236.868821 
L 290.8008 235.964153 
L 291.4704 235.761132 
L 292.8096 235.865805 
L 294.1488 235.659008 
L 296.8272 234.956002 
L 300.8448 233.623807 
L 305.532 231.807151 
L 310.8888 229.469282 
L 316.9152 226.574 
L 323.6112 223.09925 
L 331.6464 218.672592 
L 337.0032 215.581921 
L 339.012 214.082736 
L 345.0384 209.439494 
L 346.3776 209.41191 
L 347.7168 208.975356 
L 349.7256 208.031981 
L 352.404 206.540453 
L 354.4128 205.264838 
L 355.752 206.414077 
L 356.4216 206.697453 
L 358.4304 208.618296 
L 359.1 209.698984 
L 359.7696 210.480598 
L 360.4392 210.96256 
L 361.7784 211.490175 
L 363.1176 213.420444 
L 363.7872 214.372514 
L 364.4568 215.078373 
L 365.1264 215.531557 
L 365.796 215.850054 
L 367.1352 217.037708 
L 367.8048 217.375292 
L 369.144 218.537773 
L 370.4832 219.094834 
L 371.8224 219.392868 
L 372.492 219.486649 
L 373.8312 221.036971 
L 374.5008 222.556788 
L 375.1704 223.720889 
L 375.84 224.413412 
L 377.1792 225.250247 
L 378.5184 225.76448 
L 379.188 225.951306 
L 379.8576 226.44711 
L 381.8664 228.643623 
L 382.536 229.029762 
L 383.8752 230.100481 
L 384.5448 230.415157 
L 386.5536 231.969043 
L 387.2232 232.417978 
L 388.5624 232.928937 
L 391.2408 233.710306 
L 391.9104 234.294352 
L 392.58 234.701871 
L 393.9192 235.117831 
L 395.928 235.402996 
L 398.6064 235.49412 
L 399.9456 235.961349 
L 400.6152 236.052437 
L 401.9544 236.596835 
L 403.2936 236.763564 
L 405.972 237.89355 
L 407.3112 238.093726 
L 407.9808 238.124616 
L 409.32 238.583864 
L 410.6592 238.699901 
L 412.668 238.632277 
L 415.3464 238.322401 
L 418.6944 237.697645 
L 422.712 236.682859 
L 426.7296 235.434422 
L 428.0688 235.509846 
L 429.408 235.274861 
L 432.0864 234.520131 
L 436.104 233.121577 
L 440.7912 231.240511 
L 446.148 228.841954 
L 452.1744 225.891654 
L 458.8704 222.370336 
L 467.5752 217.52674 
L 470.9232 215.57308 
L 472.932 214.073726 
L 474.2712 213.892791 
L 475.6104 213.29663 
L 476.9496 212.569148 
L 478.2888 212.704201 
L 479.628 212.399877 
L 482.3064 211.39054 
L 483.6456 210.811622 
L 484.9848 211.116652 
L 485.6544 211.552974 
L 486.324 211.854159 
L 487.6632 211.958208 
L 489.0024 211.8073 
L 490.3416 213.275668 
L 491.0112 213.603833 
L 491.6808 214.222165 
L 492.3504 215.125546 
L 493.02 215.751108 
L 493.6896 216.117055 
L 494.3592 216.774996 
L 495.0288 217.699352 
L 495.6984 218.35159 
L 497.7072 219.629773 
L 498.3768 220.107392 
L 499.716 220.608209 
L 501.0552 220.860291 
L 502.3944 221.689112 
L 503.7336 222.029353 
L 504.4032 222.113244 
L 505.7424 222.881759 
L 507.0816 223.175354 
L 507.7512 223.239487 
L 508.4208 223.642988 
L 510.4296 226.829995 
L 511.0992 227.537221 
L 512.4384 228.314292 
L 513.7776 228.753438 
L 515.1168 229.609522 
L 515.7864 230.475115 
L 516.456 231.145591 
L 517.1256 231.548139 
L 519.804 234.956188 
L 521.1432 235.70301 
L 522.4824 236.162401 
L 523.152 236.332692 
L 523.8216 236.738987 
L 524.4912 237.327852 
L 526.5 238.657721 
L 527.8392 239.542878 
L 529.1784 239.975946 
L 529.848 240.11664 
L 531.1872 240.741221 
L 532.5264 241.023203 
L 534.5352 241.194236 
L 537.2136 241.174195 
L 540.5616 240.869668 
L 543.9096 240.322762 
L 547.9272 239.406347 
L 551.9448 238.252641 
L 556.632 236.654093 
L 561.3192 234.824099 
L 566.676 232.492031 
L 572.7024 229.609874 
L 579.3984 226.144088 
L 587.4336 221.704495 
L 598.1472 215.487526 
L 602.1648 213.109508 
L 603.504 213.205201 
L 604.8432 212.829309 
L 606.1824 212.125218 
L 609.5304 209.926719 
L 613.548 207.22196 
L 614.8872 207.307848 
L 616.2264 207.000516 
L 618.2352 206.195031 
L 620.244 205.185407 
L 622.2528 203.91771 
L 622.9224 203.427175 
L 624.9312 203.362627 
L 625.6008 203.71859 
L 626.94 205.331362 
L 627.6096 205.860047 
L 628.9488 206.47003 
L 629.6184 206.625117 
L 630.288 207.213897 
L 630.9576 208.693318 
L 631.6272 209.873142 
L 632.2968 210.605953 
L 632.9664 211.097893 
L 633.636 211.446204 
L 634.9752 212.73403 
L 635.6448 213.101934 
L 636.984 214.356586 
L 637.6536 214.709959 
L 638.9928 217.857882 
L 639.6624 218.914628 
L 640.332 219.598606 
L 641.6712 221.182817 
L 642.3408 221.671707 
L 643.0104 222.416324 
L 643.68 223.379981 
L 644.3496 224.088444 
L 645.0192 224.569675 
L 646.3584 225.857251 
L 648.3672 227.145112 
L 649.0368 227.949211 
L 649.7064 228.534613 
L 653.0544 230.49899 
L 653.724 231.027156 
L 654.3936 231.749826 
L 658.4112 234.918987 
L 660.42 237.057268 
L 661.7592 237.721974 
L 663.768 238.293881 
L 665.7768 238.616128 
L 667.7856 238.770659 
L 669.1248 239.254961 
L 670.464 239.42038 
L 672.4728 239.44453 
L 675.1512 239.264216 
L 678.4992 238.79569 
L 681.8472 238.111381 
L 685.8648 237.054222 
L 689.8824 235.778983 
L 693.9 234.31703 
L 695.2392 234.349275 
L 696.5784 234.06683 
L 699.2568 233.217744 
L 703.2744 231.690835 
L 707.9616 229.680302 
L 713.3184 227.157368 
L 720.0144 223.741478 
L 728.0496 219.361974 
L 738.0936 213.632053 
L 740.1024 212.221563 
L 742.7808 210.069871 
L 744.12 209.942419 
L 745.4592 209.412979 
L 747.468 208.376835 
L 748.8072 208.606569 
L 750.1464 208.39744 
L 752.1552 207.746844 
L 753.4944 208.181387 
L 754.8336 208.14979 
L 756.1728 207.894517 
L 757.512 208.48867 
L 758.8512 208.587925 
L 760.1904 208.450505 
L 761.5296 209.136757 
L 762.1992 209.271815 
L 763.5384 210.218324 
L 764.8776 210.560118 
L 765.5472 210.613174 
L 766.8864 211.481125 
L 768.2256 211.793607 
L 768.8952 211.845684 
L 770.2344 213.541208 
L 770.904 213.968757 
L 771.5736 214.234959 
L 774.252 216.606821 
L 775.5912 217.17901 
L 776.9304 217.465553 
L 777.6 217.963483 
L 777.6 217.963483 
" clip-path="url(#p2fc42c5a22)" style="fill: none; stroke: #000000; stroke-width: 1.5; stroke-linecap: square"/>
   </g>
   <g id="line2d_24">
    <path d="M 108 147.539005 
L 112.0176 150.670223 
L 114.696 152.829266 
L 116.7048 154.730507 
L 118.044 156.326973 
L 119.3832 158.271165 
L 120.7224 160.568369 
L 122.0616 163.279844 
L 123.4008 166.421234 
L 125.4096 171.770187 
L 128.088 179.667867 
L 131.436 189.546761 
L 133.4448 194.835398 
L 135.4536 199.449675 
L 138.8016 206.344936 
L 140.8104 210.026893 
L 142.8192 213.21487 
L 144.828 215.912937 
L 146.8368 218.255015 
L 148.8456 220.221452 
L 150.8544 221.939359 
L 152.8632 223.388594 
L 154.872 224.552405 
L 156.8808 225.458055 
L 158.8896 226.136381 
L 160.8984 226.614357 
L 163.5768 226.979192 
L 166.2552 227.073828 
L 168.9336 226.935769 
L 171.612 226.596182 
L 174.96 225.927538 
L 178.308 225.026215 
L 182.3256 223.684665 
L 186.3432 222.10336 
L 191.0304 220.005152 
L 196.3872 217.331658 
L 200.4048 215.304661 
L 202.4136 214.472667 
L 203.0832 186.835393 
L 203.7528 174.070449 
L 204.4224 167.048816 
L 205.092 162.233829 
L 205.7616 158.721919 
L 206.4312 156.122827 
L 207.1008 154.201678 
L 207.7704 152.786849 
L 208.44 151.746856 
L 209.1096 150.996688 
L 209.7792 150.470593 
L 211.1184 149.851627 
L 213.7968 149.192981 
L 215.8056 148.608907 
L 218.484 147.554601 
L 225.8496 144.384542 
L 227.1888 143.964393 
L 228.528 143.801095 
L 230.5368 143.961915 
L 234.5544 144.513988 
L 235.8936 144.943088 
L 237.2328 145.635541 
L 239.2416 147.001904 
L 240.5808 148.113071 
L 242.5896 150.165173 
L 247.9464 156.025448 
L 249.2856 157.82702 
L 250.6248 159.890137 
L 252.6336 163.507505 
L 254.6424 167.68491 
L 255.9816 170.95621 
L 257.9904 176.67501 
L 264.0168 194.953397 
L 266.0256 200.174555 
L 268.0344 204.821882 
L 270.0432 208.838388 
L 272.052 212.221827 
L 274.0608 215.124218 
L 276.0696 217.535333 
L 278.0784 219.49647 
L 280.0872 221.068955 
L 282.096 222.307722 
L 284.7744 223.663252 
L 286.7832 224.478025 
L 288.792 225.07974 
L 290.8008 225.484862 
L 295.488 226.070333 
L 298.1664 226.169726 
L 300.8448 226.044118 
L 303.5232 225.720953 
L 306.8712 225.076647 
L 310.2192 224.201323 
L 314.2368 222.889992 
L 318.2544 221.335611 
L 322.9416 219.263252 
L 328.2984 216.61167 
L 334.3248 213.339948 
L 336.3336 212.194198 
L 337.0032 184.922092 
L 337.6728 172.231398 
L 338.3424 165.091387 
L 339.012 160.136965 
L 339.6816 156.499699 
L 340.3512 153.771062 
L 341.0208 151.701685 
L 341.6904 150.119061 
L 342.36 148.899839 
L 343.0296 147.953977 
L 344.3688 146.615745 
L 345.708 145.728198 
L 347.0472 145.142184 
L 353.0736 142.989625 
L 355.752 141.990659 
L 357.0912 141.794195 
L 358.4304 141.821963 
L 359.7696 142.088814 
L 363.1176 143.163619 
L 365.796 144.447576 
L 370.4832 146.916972 
L 374.5008 149.148819 
L 375.84 150.309878 
L 380.5272 155.010036 
L 381.8664 156.615586 
L 383.8752 159.450442 
L 385.884 162.808383 
L 387.2232 165.434429 
L 389.232 169.993562 
L 391.2408 175.156138 
L 393.2496 180.971276 
L 397.2672 192.853678 
L 399.276 198.009154 
L 401.2848 202.553424 
L 403.2936 206.557007 
L 405.3024 210.059575 
L 407.3112 213.18821 
L 409.32 215.896472 
L 411.3288 218.254439 
L 413.3376 220.220896 
L 415.3464 221.817873 
L 417.3552 223.091132 
L 419.364 224.08296 
L 421.3728 224.829079 
L 423.3816 225.359535 
L 425.3904 225.699821 
L 429.408 226.047485 
L 432.0864 226.142712 
L 434.7648 226.021051 
L 437.4432 225.699962 
L 440.7912 225.056478 
L 444.1392 224.181142 
L 448.1568 222.869351 
L 452.1744 221.314259 
L 456.8616 219.240872 
L 462.2184 216.587936 
L 468.2448 213.314543 
L 470.2536 212.168211 
L 470.9232 184.899478 
L 471.5928 172.207142 
L 472.2624 165.063546 
L 472.932 160.105209 
L 473.6016 156.480903 
L 474.2712 153.794848 
L 474.9408 151.797829 
L 475.6104 150.310424 
L 476.28 149.201662 
L 476.9496 148.372494 
L 477.6192 147.764922 
L 478.9584 147.027615 
L 480.9672 146.476918 
L 483.6456 145.791541 
L 485.6544 145.263111 
L 488.3328 144.882092 
L 490.3416 144.711087 
L 491.6808 144.789412 
L 493.6896 145.21483 
L 495.6984 145.899881 
L 503.7336 149.342538 
L 506.412 150.600255 
L 509.0904 152.049017 
L 510.4296 153.111072 
L 512.4384 155.214768 
L 515.1168 158.380501 
L 516.456 160.255963 
L 517.7952 162.461 
L 519.1344 165.140636 
L 520.4736 168.360633 
L 522.4824 173.974132 
L 524.4912 180.263811 
L 530.5176 200.264574 
L 532.5264 205.779415 
L 534.5352 210.434618 
L 535.8744 213.079369 
L 537.2136 215.395397 
L 539.2224 218.328725 
L 541.2312 220.706047 
L 543.24 222.615438 
L 545.2488 224.128786 
L 547.2576 225.304744 
L 549.2664 226.191454 
L 551.2752 226.828719 
L 553.284 227.249682 
L 555.2928 227.482113 
L 557.9712 227.538657 
L 560.6496 227.347012 
L 563.328 226.944077 
L 566.676 226.188345 
L 570.024 225.195521 
L 574.0416 223.742136 
L 578.0592 222.048891 
L 582.7464 219.820877 
L 588.1032 216.999628 
L 594.1296 213.544746 
L 600.8256 209.440876 
L 603.504 207.812079 
L 604.1736 207.465782 
L 604.8432 181.18252 
L 605.5128 168.875274 
L 606.1824 161.799422 
L 606.852 156.924243 
L 607.5216 153.40149 
L 608.1912 150.806196 
L 608.8608 148.876335 
L 609.5304 147.437075 
L 610.2 146.363441 
L 610.8696 145.56372 
L 612.2088 144.515245 
L 613.548 143.882038 
L 614.8872 143.47578 
L 620.244 142.236312 
L 625.6008 140.520666 
L 626.94 140.421213 
L 628.9488 140.654797 
L 630.9576 141.05988 
L 632.2968 141.591075 
L 637.6536 144.189955 
L 638.9928 145.030094 
L 641.0016 146.705548 
L 644.3496 149.843584 
L 647.028 152.708459 
L 649.0368 155.050058 
L 651.0456 157.761374 
L 653.0544 160.867793 
L 654.3936 163.250025 
L 655.7328 166.013645 
L 657.072 169.198796 
L 658.4112 172.80785 
L 659.7504 176.923936 
L 662.4288 186.190942 
L 665.1072 195.160643 
L 667.116 200.98287 
L 669.1248 205.931585 
L 671.1336 210.149372 
L 673.1424 213.650299 
L 675.1512 216.511617 
L 677.16 218.829907 
L 679.1688 220.690208 
L 681.1776 222.162641 
L 683.1864 223.304445 
L 685.1952 224.162527 
L 687.204 224.775612 
L 689.2128 225.175918 
L 691.2216 225.390426 
L 693.9 225.426202 
L 699.9264 225.176973 
L 702.6048 224.804531 
L 705.9528 224.100358 
L 709.3008 223.168706 
L 713.3184 221.794819 
L 717.336 220.182499 
L 722.0232 218.047132 
L 727.38 215.328529 
L 733.4064 211.987328 
L 738.0936 209.227822 
L 738.7632 182.533527 
L 739.4328 170.037557 
L 740.1024 162.878945 
L 740.772 157.906427 
L 741.4416 154.273714 
L 742.1112 151.561999 
L 742.7808 149.515977 
L 743.4504 147.978996 
L 744.12 146.841927 
L 744.7896 146.014304 
L 745.4592 145.416632 
L 746.7984 144.662474 
L 748.1376 144.221459 
L 750.1464 143.871147 
L 759.5208 142.534812 
L 762.1992 142.4519 
L 764.208 142.643988 
L 767.556 143.223092 
L 770.2344 143.899514 
L 772.9128 145.000717 
L 775.5912 146.422037 
L 777.6 147.497073 
L 777.6 147.497073 
" clip-path="url(#p2fc42c5a22)" style="fill: none; stroke: #4169e1; stroke-width: 1.5; stroke-linecap: square"/>
   </g>
   <g id="patch_3">
    <path d="M 108 256.32 
L 108 34.56 
" style="fill: none; stroke: #000000; stroke-width: 0.8; stroke-linejoin: miter; stroke-linecap: square"/>
   </g>
   <g id="patch_4">
    <path d="M 777.6 256.32 
L 777.6 34.56 
" style="fill: none; stroke: #000000; stroke-width: 0.8; stroke-linejoin: miter; stroke-linecap: square"/>
   </g>
   <g id="patch_5">
    <path d="M 108 256.32 
L 777.6 256.32 
" style="fill: none; stroke: #000000; stroke-width: 0.8; stroke-linejoin: miter; stroke-linecap: square"/>
   </g>
   <g id="patch_6">
    <path d="M 108 34.56 
L 777.6 34.56 
" style="fill: none; stroke: #000000; stroke-width: 0.8; stroke-linejoin: miter; stroke-linecap: square"/>
   </g>
   <g id="legend_1">
    <g id="patch_7">
     <path d="M 695.098438 71.91625 
L 770.6 71.91625 
Q 772.6 71.91625 772.6 69.91625 
L 772.6 41.56 
Q 772.6 39.56 770.6 39.56 
L 695.098438 39.56 
Q 693.098438 39.56 693.098438 41.56 
L 693.098438 69.91625 
Q 693.098438 71.91625 695.098438 71.91625 
z
" style="fill: #ffffff; opacity: 0.8; stroke: #cccccc; stroke-linejoin: miter"/>
    </g>
    <g id="line2d_25">
     <path d="M 697.098438 47.658437 
L 707.098438 47.658437 
L 717.098438 47.658437 
" style="fill: none; stroke: #000000; stroke-width: 1.5; stroke-linecap: square"/>
    </g>
    <g id="text_14">
     <!-- Soma -->
     <g transform="translate(725.098438 51.158437) scale(0.1 -0.1)">
      <defs>
       <path id="DejaVuSans-53" d="M 3425 4513 
L 3425 3897 
Q 3066 4069 2747 4153 
Q 2428 4238 2131 4238 
Q 1616 4238 1336 4038 
Q 1056 3838 1056 3469 
Q 1056 3159 1242 3001 
Q 1428 2844 1947 2747 
L 2328 2669 
Q 3034 2534 3370 2195 
Q 3706 1856 3706 1288 
Q 3706 609 3251 259 
Q 2797 -91 1919 -91 
Q 1588 -91 1214 -16 
Q 841 59 441 206 
L 441 856 
Q 825 641 1194 531 
Q 1563 422 1919 422 
Q 2459 422 2753 634 
Q 3047 847 3047 1241 
Q 3047 1584 2836 1778 
Q 2625 1972 2144 2069 
L 1759 2144 
Q 1053 2284 737 2584 
Q 422 2884 422 3419 
Q 422 4038 858 4394 
Q 1294 4750 2059 4750 
Q 2388 4750 2728 4690 
Q 3069 4631 3425 4513 
z
" transform="scale(0.015625)"/>
       <path id="DejaVuSans-6f" d="M 1959 3097 
Q 1497 3097 1228 2736 
Q 959 2375 959 1747 
Q 959 1119 1226 758 
Q 1494 397 1959 397 
Q 2419 397 2687 759 
Q 2956 1122 2956 1747 
Q 2956 2369 2687 2733 
Q 2419 3097 1959 3097 
z
M 1959 3584 
Q 2709 3584 3137 3096 
Q 3566 2609 3566 1747 
Q 3566 888 3137 398 
Q 2709 -91 1959 -91 
Q 1206 -91 779 398 
Q 353 888 353 1747 
Q 353 2609 779 3096 
Q 1206 3584 1959 3584 
z
" transform="scale(0.015625)"/>
       <path id="DejaVuSans-61" d="M 2194 1759 
Q 1497 1759 1228 1600 
Q 959 1441 959 1056 
Q 959 750 1161 570 
Q 1363 391 1709 391 
Q 2188 391 2477 730 
Q 2766 1069 2766 1631 
L 2766 1759 
L 2194 1759 
z
M 3341 1997 
L 3341 0 
L 2766 0 
L 2766 531 
Q 2569 213 2275 61 
Q 1981 -91 1556 -91 
Q 1019 -91 701 211 
Q 384 513 384 1019 
Q 384 1609 779 1909 
Q 1175 2209 1959 2209 
L 2766 2209 
L 2766 2266 
Q 2766 2663 2505 2880 
Q 2244 3097 1772 3097 
Q 1472 3097 1187 3025 
Q 903 2953 641 2809 
L 641 3341 
Q 956 3463 1253 3523 
Q 1550 3584 1831 3584 
Q 2591 3584 2966 3190 
Q 3341 2797 3341 1997 
z
" transform="scale(0.015625)"/>
      </defs>
      <use xlink:href="#DejaVuSans-53"/>
      <use xlink:href="#DejaVuSans-6f" x="63.476562"/>
      <use xlink:href="#DejaVuSans-6d" x="124.658203"/>
      <use xlink:href="#DejaVuSans-61" x="222.070312"/>
     </g>
    </g>
    <g id="line2d_26">
     <path d="M 697.098438 62.336562 
L 707.098438 62.336562 
L 717.098438 62.336562 
" style="fill: none; stroke: #4169e1; stroke-width: 1.5; stroke-linecap: square"/>
    </g>
    <g id="text_15">
     <!-- Dendrite -->
     <g transform="translate(725.098438 65.836562) scale(0.1 -0.1)">
      <defs>
       <path id="DejaVuSans-44" d="M 1259 4147 
L 1259 519 
L 2022 519 
Q 2988 519 3436 956 
Q 3884 1394 3884 2338 
Q 3884 3275 3436 3711 
Q 2988 4147 2022 4147 
L 1259 4147 
z
M 628 4666 
L 1925 4666 
Q 3281 4666 3915 4102 
Q 4550 3538 4550 2338 
Q 4550 1131 3912 565 
Q 3275 0 1925 0 
L 628 0 
L 628 4666 
z
" transform="scale(0.015625)"/>
       <path id="DejaVuSans-6e" d="M 3513 2113 
L 3513 0 
L 2938 0 
L 2938 2094 
Q 2938 2591 2744 2837 
Q 2550 3084 2163 3084 
Q 1697 3084 1428 2787 
Q 1159 2491 1159 1978 
L 1159 0 
L 581 0 
L 581 3500 
L 1159 3500 
L 1159 2956 
Q 1366 3272 1645 3428 
Q 1925 3584 2291 3584 
Q 2894 3584 3203 3211 
Q 3513 2838 3513 2113 
z
" transform="scale(0.015625)"/>
       <path id="DejaVuSans-64" d="M 2906 2969 
L 2906 4863 
L 3481 4863 
L 3481 0 
L 2906 0 
L 2906 525 
Q 2725 213 2448 61 
Q 2172 -91 1784 -91 
Q 1150 -91 751 415 
Q 353 922 353 1747 
Q 353 2572 751 3078 
Q 1150 3584 1784 3584 
Q 2172 3584 2448 3432 
Q 2725 3281 2906 2969 
z
M 947 1747 
Q 947 1113 1208 752 
Q 1469 391 1925 391 
Q 2381 391 2643 752 
Q 2906 1113 2906 1747 
Q 2906 2381 2643 2742 
Q 2381 3103 1925 3103 
Q 1469 3103 1208 2742 
Q 947 2381 947 1747 
z
" transform="scale(0.015625)"/>
       <path id="DejaVuSans-72" d="M 2631 2963 
Q 2534 3019 2420 3045 
Q 2306 3072 2169 3072 
Q 1681 3072 1420 2755 
Q 1159 2438 1159 1844 
L 1159 0 
L 581 0 
L 581 3500 
L 1159 3500 
L 1159 2956 
Q 1341 3275 1631 3429 
Q 1922 3584 2338 3584 
Q 2397 3584 2469 3576 
Q 2541 3569 2628 3553 
L 2631 2963 
z
" transform="scale(0.015625)"/>
       <path id="DejaVuSans-74" d="M 1172 4494 
L 1172 3500 
L 2356 3500 
L 2356 3053 
L 1172 3053 
L 1172 1153 
Q 1172 725 1289 603 
Q 1406 481 1766 481 
L 2356 481 
L 2356 0 
L 1766 0 
Q 1100 0 847 248 
Q 594 497 594 1153 
L 594 3053 
L 172 3053 
L 172 3500 
L 594 3500 
L 594 4494 
L 1172 4494 
z
" transform="scale(0.015625)"/>
      </defs>
      <use xlink:href="#DejaVuSans-44"/>
      <use xlink:href="#DejaVuSans-65" x="77.001953"/>
      <use xlink:href="#DejaVuSans-6e" x="138.525391"/>
      <use xlink:href="#DejaVuSans-64" x="201.904297"/>
      <use xlink:href="#DejaVuSans-72" x="265.380859"/>
      <use xlink:href="#DejaVuSans-69" x="306.494141"/>
      <use xlink:href="#DejaVuSans-74" x="334.277344"/>
      <use xlink:href="#DejaVuSans-65" x="373.486328"/>
     </g>
    </g>
   </g>
  </g>
 </g>
 <defs>
  <clipPath id="p2fc42c5a22">
   <rect x="108" y="34.56" width="669.6" height="221.76"/>
  </clipPath>
 </defs>
</svg>
