<?xml version="1.0" encoding="utf-8" standalone="no"?>
<!DOCTYPE svg PUBLIC "-//W3C//DTD SVG 1.1//EN"
  "http://www.w3.org/Graphics/SVG/1.1/DTD/svg11.dtd">
<svg xmlns:xlink="http://www.w3.org/1999/xlink" width="864pt" height="288pt" viewBox="0 0 864 288" xmlns="http://www.w3.org/2000/svg" version="1.1">
 <metadata>
  <rdf:RDF xmlns:dc="http://purl.org/dc/elements/1.1/" xmlns:cc="http://creativecommons.org/ns#" xmlns:rdf="http://www.w3.org/1999/02/22-rdf-syntax-ns#">
   <cc:Work>
    <dc:type rdf:resource="http://purl.org/dc/dcmitype/StillImage"/>
    <dc:date>2024-04-23T19:17:57.584273</dc:date>
    <dc:format>image/svg+xml</dc:format>
    <dc:creator>
     <cc:Agent>
      <dc:title>Matplotlib v3.8.2, https://matplotlib.org/</dc:title>
     </cc:Agent>
    </dc:creator>
   </cc:Work>
  </rdf:RDF>
 </metadata>
 <defs>
  <style type="text/css">*{stroke-linejoin: round; stroke-linecap: butt}</style>
 </defs>
 <g id="figure_1">
  <g id="patch_1">
   <path d="M 0 288 
L 864 288 
L 864 0 
L 0 0 
z
" style="fill: #ffffff"/>
  </g>
  <g id="axes_1">
   <g id="patch_2">
    <path d="M 108 256.32 
L 777.6 256.32 
L 777.6 34.56 
L 108 34.56 
z
" style="fill: #ffffff"/>
   </g>
   <g id="matplotlib.axis_1">
    <g id="xtick_1">
     <g id="line2d_1">
      <path d="M 108 256.32 
L 108 34.56 
" clip-path="url(#pd094d3dd52)" style="fill: none; stroke: #b0b0b0; stroke-width: 0.8; stroke-linecap: square"/>
     </g>
     <g id="line2d_2">
      <defs>
       <path id="m682a659ad6" d="M 0 0 
L 0 3.5 
" style="stroke: #000000; stroke-width: 0.8"/>
      </defs>
      <g>
       <use xlink:href="#m682a659ad6" x="108" y="256.32" style="stroke: #000000; stroke-width: 0.8"/>
      </g>
     </g>
     <g id="text_1">
      <!-- 100 -->
      <g transform="translate(94.63875 273.957812) scale(0.14 -0.14)">
       <defs>
        <path id="DejaVuSans-31" d="M 794 531 
L 1825 531 
L 1825 4091 
L 703 3866 
L 703 4441 
L 1819 4666 
L 2450 4666 
L 2450 531 
L 3481 531 
L 3481 0 
L 794 0 
L 794 531 
z
" transform="scale(0.015625)"/>
        <path id="DejaVuSans-30" d="M 2034 4250 
Q 1547 4250 1301 3770 
Q 1056 3291 1056 2328 
Q 1056 1369 1301 889 
Q 1547 409 2034 409 
Q 2525 409 2770 889 
Q 3016 1369 3016 2328 
Q 3016 3291 2770 3770 
Q 2525 4250 2034 4250 
z
M 2034 4750 
Q 2819 4750 3233 4129 
Q 3647 3509 3647 2328 
Q 3647 1150 3233 529 
Q 2819 -91 2034 -91 
Q 1250 -91 836 529 
Q 422 1150 422 2328 
Q 422 3509 836 4129 
Q 1250 4750 2034 4750 
z
" transform="scale(0.015625)"/>
       </defs>
       <use xlink:href="#DejaVuSans-31"/>
       <use xlink:href="#DejaVuSans-30" x="63.623047"/>
       <use xlink:href="#DejaVuSans-30" x="127.246094"/>
      </g>
     </g>
    </g>
    <g id="xtick_2">
     <g id="line2d_3">
      <path d="M 241.92 256.32 
L 241.92 34.56 
" clip-path="url(#pd094d3dd52)" style="fill: none; stroke: #b0b0b0; stroke-width: 0.8; stroke-linecap: square"/>
     </g>
     <g id="line2d_4">
      <g>
       <use xlink:href="#m682a659ad6" x="241.92" y="256.32" style="stroke: #000000; stroke-width: 0.8"/>
      </g>
     </g>
     <g id="text_2">
      <!-- 120 -->
      <g transform="translate(228.55875 273.957812) scale(0.14 -0.14)">
       <defs>
        <path id="DejaVuSans-32" d="M 1228 531 
L 3431 531 
L 3431 0 
L 469 0 
L 469 531 
Q 828 903 1448 1529 
Q 2069 2156 2228 2338 
Q 2531 2678 2651 2914 
Q 2772 3150 2772 3378 
Q 2772 3750 2511 3984 
Q 2250 4219 1831 4219 
Q 1534 4219 1204 4116 
Q 875 4013 500 3803 
L 500 4441 
Q 881 4594 1212 4672 
Q 1544 4750 1819 4750 
Q 2544 4750 2975 4387 
Q 3406 4025 3406 3419 
Q 3406 3131 3298 2873 
Q 3191 2616 2906 2266 
Q 2828 2175 2409 1742 
Q 1991 1309 1228 531 
z
" transform="scale(0.015625)"/>
       </defs>
       <use xlink:href="#DejaVuSans-31"/>
       <use xlink:href="#DejaVuSans-32" x="63.623047"/>
       <use xlink:href="#DejaVuSans-30" x="127.246094"/>
      </g>
     </g>
    </g>
    <g id="xtick_3">
     <g id="line2d_5">
      <path d="M 375.84 256.32 
L 375.84 34.56 
" clip-path="url(#pd094d3dd52)" style="fill: none; stroke: #b0b0b0; stroke-width: 0.8; stroke-linecap: square"/>
     </g>
     <g id="line2d_6">
      <g>
       <use xlink:href="#m682a659ad6" x="375.84" y="256.32" style="stroke: #000000; stroke-width: 0.8"/>
      </g>
     </g>
     <g id="text_3">
      <!-- 140 -->
      <g transform="translate(362.47875 273.957812) scale(0.14 -0.14)">
       <defs>
        <path id="DejaVuSans-34" d="M 2419 4116 
L 825 1625 
L 2419 1625 
L 2419 4116 
z
M 2253 4666 
L 3047 4666 
L 3047 1625 
L 3713 1625 
L 3713 1100 
L 3047 1100 
L 3047 0 
L 2419 0 
L 2419 1100 
L 313 1100 
L 313 1709 
L 2253 4666 
z
" transform="scale(0.015625)"/>
       </defs>
       <use xlink:href="#DejaVuSans-31"/>
       <use xlink:href="#DejaVuSans-34" x="63.623047"/>
       <use xlink:href="#DejaVuSans-30" x="127.246094"/>
      </g>
     </g>
    </g>
    <g id="xtick_4">
     <g id="line2d_7">
      <path d="M 509.76 256.32 
L 509.76 34.56 
" clip-path="url(#pd094d3dd52)" style="fill: none; stroke: #b0b0b0; stroke-width: 0.8; stroke-linecap: square"/>
     </g>
     <g id="line2d_8">
      <g>
       <use xlink:href="#m682a659ad6" x="509.76" y="256.32" style="stroke: #000000; stroke-width: 0.8"/>
      </g>
     </g>
     <g id="text_4">
      <!-- 160 -->
      <g transform="translate(496.39875 273.957812) scale(0.14 -0.14)">
       <defs>
        <path id="DejaVuSans-36" d="M 2113 2584 
Q 1688 2584 1439 2293 
Q 1191 2003 1191 1497 
Q 1191 994 1439 701 
Q 1688 409 2113 409 
Q 2538 409 2786 701 
Q 3034 994 3034 1497 
Q 3034 2003 2786 2293 
Q 2538 2584 2113 2584 
z
M 3366 4563 
L 3366 3988 
Q 3128 4100 2886 4159 
Q 2644 4219 2406 4219 
Q 1781 4219 1451 3797 
Q 1122 3375 1075 2522 
Q 1259 2794 1537 2939 
Q 1816 3084 2150 3084 
Q 2853 3084 3261 2657 
Q 3669 2231 3669 1497 
Q 3669 778 3244 343 
Q 2819 -91 2113 -91 
Q 1303 -91 875 529 
Q 447 1150 447 2328 
Q 447 3434 972 4092 
Q 1497 4750 2381 4750 
Q 2619 4750 2861 4703 
Q 3103 4656 3366 4563 
z
" transform="scale(0.015625)"/>
       </defs>
       <use xlink:href="#DejaVuSans-31"/>
       <use xlink:href="#DejaVuSans-36" x="63.623047"/>
       <use xlink:href="#DejaVuSans-30" x="127.246094"/>
      </g>
     </g>
    </g>
    <g id="xtick_5">
     <g id="line2d_9">
      <path d="M 643.68 256.32 
L 643.68 34.56 
" clip-path="url(#pd094d3dd52)" style="fill: none; stroke: #b0b0b0; stroke-width: 0.8; stroke-linecap: square"/>
     </g>
     <g id="line2d_10">
      <g>
       <use xlink:href="#m682a659ad6" x="643.68" y="256.32" style="stroke: #000000; stroke-width: 0.8"/>
      </g>
     </g>
     <g id="text_5">
      <!-- 180 -->
      <g transform="translate(630.31875 273.957812) scale(0.14 -0.14)">
       <defs>
        <path id="DejaVuSans-38" d="M 2034 2216 
Q 1584 2216 1326 1975 
Q 1069 1734 1069 1313 
Q 1069 891 1326 650 
Q 1584 409 2034 409 
Q 2484 409 2743 651 
Q 3003 894 3003 1313 
Q 3003 1734 2745 1975 
Q 2488 2216 2034 2216 
z
M 1403 2484 
Q 997 2584 770 2862 
Q 544 3141 544 3541 
Q 544 4100 942 4425 
Q 1341 4750 2034 4750 
Q 2731 4750 3128 4425 
Q 3525 4100 3525 3541 
Q 3525 3141 3298 2862 
Q 3072 2584 2669 2484 
Q 3125 2378 3379 2068 
Q 3634 1759 3634 1313 
Q 3634 634 3220 271 
Q 2806 -91 2034 -91 
Q 1263 -91 848 271 
Q 434 634 434 1313 
Q 434 1759 690 2068 
Q 947 2378 1403 2484 
z
M 1172 3481 
Q 1172 3119 1398 2916 
Q 1625 2713 2034 2713 
Q 2441 2713 2670 2916 
Q 2900 3119 2900 3481 
Q 2900 3844 2670 4047 
Q 2441 4250 2034 4250 
Q 1625 4250 1398 4047 
Q 1172 3844 1172 3481 
z
" transform="scale(0.015625)"/>
       </defs>
       <use xlink:href="#DejaVuSans-31"/>
       <use xlink:href="#DejaVuSans-38" x="63.623047"/>
       <use xlink:href="#DejaVuSans-30" x="127.246094"/>
      </g>
     </g>
    </g>
    <g id="xtick_6">
     <g id="line2d_11">
      <path d="M 777.6 256.32 
L 777.6 34.56 
" clip-path="url(#pd094d3dd52)" style="fill: none; stroke: #b0b0b0; stroke-width: 0.8; stroke-linecap: square"/>
     </g>
     <g id="line2d_12">
      <g>
       <use xlink:href="#m682a659ad6" x="777.6" y="256.32" style="stroke: #000000; stroke-width: 0.8"/>
      </g>
     </g>
     <g id="text_6">
      <!-- 200 -->
      <g transform="translate(764.23875 273.957812) scale(0.14 -0.14)">
       <use xlink:href="#DejaVuSans-32"/>
       <use xlink:href="#DejaVuSans-30" x="63.623047"/>
       <use xlink:href="#DejaVuSans-30" x="127.246094"/>
      </g>
     </g>
    </g>
    <g id="text_7">
     <!-- Time (ms) -->
     <g transform="translate(407.521094 291.507187) scale(0.14 -0.14)">
      <defs>
       <path id="DejaVuSans-54" d="M -19 4666 
L 3928 4666 
L 3928 4134 
L 2272 4134 
L 2272 0 
L 1638 0 
L 1638 4134 
L -19 4134 
L -19 4666 
z
" transform="scale(0.015625)"/>
       <path id="DejaVuSans-69" d="M 603 3500 
L 1178 3500 
L 1178 0 
L 603 0 
L 603 3500 
z
M 603 4863 
L 1178 4863 
L 1178 4134 
L 603 4134 
L 603 4863 
z
" transform="scale(0.015625)"/>
       <path id="DejaVuSans-6d" d="M 3328 2828 
Q 3544 3216 3844 3400 
Q 4144 3584 4550 3584 
Q 5097 3584 5394 3201 
Q 5691 2819 5691 2113 
L 5691 0 
L 5113 0 
L 5113 2094 
Q 5113 2597 4934 2840 
Q 4756 3084 4391 3084 
Q 3944 3084 3684 2787 
Q 3425 2491 3425 1978 
L 3425 0 
L 2847 0 
L 2847 2094 
Q 2847 2600 2669 2842 
Q 2491 3084 2119 3084 
Q 1678 3084 1418 2786 
Q 1159 2488 1159 1978 
L 1159 0 
L 581 0 
L 581 3500 
L 1159 3500 
L 1159 2956 
Q 1356 3278 1631 3431 
Q 1906 3584 2284 3584 
Q 2666 3584 2933 3390 
Q 3200 3197 3328 2828 
z
" transform="scale(0.015625)"/>
       <path id="DejaVuSans-65" d="M 3597 1894 
L 3597 1613 
L 953 1613 
Q 991 1019 1311 708 
Q 1631 397 2203 397 
Q 2534 397 2845 478 
Q 3156 559 3463 722 
L 3463 178 
Q 3153 47 2828 -22 
Q 2503 -91 2169 -91 
Q 1331 -91 842 396 
Q 353 884 353 1716 
Q 353 2575 817 3079 
Q 1281 3584 2069 3584 
Q 2775 3584 3186 3129 
Q 3597 2675 3597 1894 
z
M 3022 2063 
Q 3016 2534 2758 2815 
Q 2500 3097 2075 3097 
Q 1594 3097 1305 2825 
Q 1016 2553 972 2059 
L 3022 2063 
z
" transform="scale(0.015625)"/>
       <path id="DejaVuSans-20" transform="scale(0.015625)"/>
       <path id="DejaVuSans-28" d="M 1984 4856 
Q 1566 4138 1362 3434 
Q 1159 2731 1159 2009 
Q 1159 1288 1364 580 
Q 1569 -128 1984 -844 
L 1484 -844 
Q 1016 -109 783 600 
Q 550 1309 550 2009 
Q 550 2706 781 3412 
Q 1013 4119 1484 4856 
L 1984 4856 
z
" transform="scale(0.015625)"/>
       <path id="DejaVuSans-73" d="M 2834 3397 
L 2834 2853 
Q 2591 2978 2328 3040 
Q 2066 3103 1784 3103 
Q 1356 3103 1142 2972 
Q 928 2841 928 2578 
Q 928 2378 1081 2264 
Q 1234 2150 1697 2047 
L 1894 2003 
Q 2506 1872 2764 1633 
Q 3022 1394 3022 966 
Q 3022 478 2636 193 
Q 2250 -91 1575 -91 
Q 1294 -91 989 -36 
Q 684 19 347 128 
L 347 722 
Q 666 556 975 473 
Q 1284 391 1588 391 
Q 1994 391 2212 530 
Q 2431 669 2431 922 
Q 2431 1156 2273 1281 
Q 2116 1406 1581 1522 
L 1381 1569 
Q 847 1681 609 1914 
Q 372 2147 372 2553 
Q 372 3047 722 3315 
Q 1072 3584 1716 3584 
Q 2034 3584 2315 3537 
Q 2597 3491 2834 3397 
z
" transform="scale(0.015625)"/>
       <path id="DejaVuSans-29" d="M 513 4856 
L 1013 4856 
Q 1481 4119 1714 3412 
Q 1947 2706 1947 2009 
Q 1947 1309 1714 600 
Q 1481 -109 1013 -844 
L 513 -844 
Q 928 -128 1133 580 
Q 1338 1288 1338 2009 
Q 1338 2731 1133 3434 
Q 928 4138 513 4856 
z
" transform="scale(0.015625)"/>
      </defs>
      <use xlink:href="#DejaVuSans-54"/>
      <use xlink:href="#DejaVuSans-69" x="57.958984"/>
      <use xlink:href="#DejaVuSans-6d" x="85.742188"/>
      <use xlink:href="#DejaVuSans-65" x="183.154297"/>
      <use xlink:href="#DejaVuSans-20" x="244.677734"/>
      <use xlink:href="#DejaVuSans-28" x="276.464844"/>
      <use xlink:href="#DejaVuSans-6d" x="315.478516"/>
      <use xlink:href="#DejaVuSans-73" x="412.890625"/>
      <use xlink:href="#DejaVuSans-29" x="464.990234"/>
     </g>
    </g>
   </g>
   <g id="matplotlib.axis_2">
    <g id="ytick_1">
     <g id="line2d_13">
      <path d="M 108 225.211621 
L 777.6 225.211621 
" clip-path="url(#pd094d3dd52)" style="fill: none; stroke: #b0b0b0; stroke-width: 0.8; stroke-linecap: square"/>
     </g>
     <g id="line2d_14">
      <defs>
       <path id="ma475ef4435" d="M 0 0 
L -3.5 0 
" style="stroke: #000000; stroke-width: 0.8"/>
      </defs>
      <g>
       <use xlink:href="#ma475ef4435" x="108" y="225.211621" style="stroke: #000000; stroke-width: 0.8"/>
      </g>
     </g>
     <g id="text_8">
      <!-- −60 -->
      <g transform="translate(71.453437 230.530527) scale(0.14 -0.14)">
       <defs>
        <path id="DejaVuSans-2212" d="M 678 2272 
L 4684 2272 
L 4684 1741 
L 678 1741 
L 678 2272 
z
" transform="scale(0.015625)"/>
       </defs>
       <use xlink:href="#DejaVuSans-2212"/>
       <use xlink:href="#DejaVuSans-36" x="83.789062"/>
       <use xlink:href="#DejaVuSans-30" x="147.412109"/>
      </g>
     </g>
    </g>
    <g id="ytick_2">
     <g id="line2d_15">
      <path d="M 108 183.221876 
L 777.6 183.221876 
" clip-path="url(#pd094d3dd52)" style="fill: none; stroke: #b0b0b0; stroke-width: 0.8; stroke-linecap: square"/>
     </g>
     <g id="line2d_16">
      <g>
       <use xlink:href="#ma475ef4435" x="108" y="183.221876" style="stroke: #000000; stroke-width: 0.8"/>
      </g>
     </g>
     <g id="text_9">
      <!-- −40 -->
      <g transform="translate(71.453437 188.540782) scale(0.14 -0.14)">
       <use xlink:href="#DejaVuSans-2212"/>
       <use xlink:href="#DejaVuSans-34" x="83.789062"/>
       <use xlink:href="#DejaVuSans-30" x="147.412109"/>
      </g>
     </g>
    </g>
    <g id="ytick_3">
     <g id="line2d_17">
      <path d="M 108 141.232131 
L 777.6 141.232131 
" clip-path="url(#pd094d3dd52)" style="fill: none; stroke: #b0b0b0; stroke-width: 0.8; stroke-linecap: square"/>
     </g>
     <g id="line2d_18">
      <g>
       <use xlink:href="#ma475ef4435" x="108" y="141.232131" style="stroke: #000000; stroke-width: 0.8"/>
      </g>
     </g>
     <g id="text_10">
      <!-- −20 -->
      <g transform="translate(71.453437 146.551037) scale(0.14 -0.14)">
       <use xlink:href="#DejaVuSans-2212"/>
       <use xlink:href="#DejaVuSans-32" x="83.789062"/>
       <use xlink:href="#DejaVuSans-30" x="147.412109"/>
      </g>
     </g>
    </g>
    <g id="ytick_4">
     <g id="line2d_19">
      <path d="M 108 99.242386 
L 777.6 99.242386 
" clip-path="url(#pd094d3dd52)" style="fill: none; stroke: #b0b0b0; stroke-width: 0.8; stroke-linecap: square"/>
     </g>
     <g id="line2d_20">
      <g>
       <use xlink:href="#ma475ef4435" x="108" y="99.242386" style="stroke: #000000; stroke-width: 0.8"/>
      </g>
     </g>
     <g id="text_11">
      <!-- 0 -->
      <g transform="translate(92.0925 104.561292) scale(0.14 -0.14)">
       <use xlink:href="#DejaVuSans-30"/>
      </g>
     </g>
    </g>
    <g id="ytick_5">
     <g id="line2d_21">
      <path d="M 108 57.252641 
L 777.6 57.252641 
" clip-path="url(#pd094d3dd52)" style="fill: none; stroke: #b0b0b0; stroke-width: 0.8; stroke-linecap: square"/>
     </g>
     <g id="line2d_22">
      <g>
       <use xlink:href="#ma475ef4435" x="108" y="57.252641" style="stroke: #000000; stroke-width: 0.8"/>
      </g>
     </g>
     <g id="text_12">
      <!-- 20 -->
      <g transform="translate(83.185 62.571548) scale(0.14 -0.14)">
       <use xlink:href="#DejaVuSans-32"/>
       <use xlink:href="#DejaVuSans-30" x="63.623047"/>
      </g>
     </g>
    </g>
    <g id="text_13">
     <!-- $V_{m}$ (mV) -->
     <g transform="translate(64.541875 174.49) rotate(-90) scale(0.14 -0.14)">
      <defs>
       <path id="DejaVuSans-Oblique-56" d="M 1319 0 
L 500 4666 
L 1119 4666 
L 1797 653 
L 4063 4666 
L 4750 4666 
L 2053 0 
L 1319 0 
z
" transform="scale(0.015625)"/>
       <path id="DejaVuSans-Oblique-6d" d="M 5747 2113 
L 5338 0 
L 4763 0 
L 5166 2094 
Q 5191 2228 5203 2325 
Q 5216 2422 5216 2491 
Q 5216 2772 5059 2928 
Q 4903 3084 4622 3084 
Q 4203 3084 3875 2770 
Q 3547 2456 3450 1953 
L 3066 0 
L 2491 0 
L 2900 2094 
Q 2925 2209 2937 2307 
Q 2950 2406 2950 2484 
Q 2950 2769 2794 2926 
Q 2638 3084 2363 3084 
Q 1938 3084 1609 2770 
Q 1281 2456 1184 1953 
L 800 0 
L 225 0 
L 909 3500 
L 1484 3500 
L 1375 2956 
Q 1609 3263 1923 3423 
Q 2238 3584 2597 3584 
Q 2978 3584 3223 3384 
Q 3469 3184 3519 2828 
Q 3781 3197 4126 3390 
Q 4472 3584 4856 3584 
Q 5306 3584 5551 3325 
Q 5797 3066 5797 2591 
Q 5797 2488 5784 2364 
Q 5772 2241 5747 2113 
z
" transform="scale(0.015625)"/>
       <path id="DejaVuSans-56" d="M 1831 0 
L 50 4666 
L 709 4666 
L 2188 738 
L 3669 4666 
L 4325 4666 
L 2547 0 
L 1831 0 
z
" transform="scale(0.015625)"/>
      </defs>
      <use xlink:href="#DejaVuSans-Oblique-56" transform="translate(0 0.125)"/>
      <use xlink:href="#DejaVuSans-Oblique-6d" transform="translate(68.408203 -16.28125) scale(0.7)"/>
      <use xlink:href="#DejaVuSans-20" transform="translate(139.331055 0.125)"/>
      <use xlink:href="#DejaVuSans-28" transform="translate(171.118164 0.125)"/>
      <use xlink:href="#DejaVuSans-6d" transform="translate(210.131836 0.125)"/>
      <use xlink:href="#DejaVuSans-56" transform="translate(307.543945 0.125)"/>
      <use xlink:href="#DejaVuSans-29" transform="translate(375.952148 0.125)"/>
     </g>
    </g>
   </g>
   <g id="line2d_23">
    <path d="M 108 223.055307 
L 109.3392 224.139375 
L 110.6784 224.680769 
L 112.0176 224.988571 
L 112.6872 225.44331 
L 113.3568 226.153116 
L 114.0264 226.651204 
L 115.3656 227.16036 
L 116.0352 227.31038 
L 117.3744 228.106908 
L 118.7136 228.450303 
L 120.7224 228.636202 
L 122.0616 228.642532 
L 123.4008 229.180619 
L 124.0704 229.282951 
L 124.74 229.646136 
L 125.4096 230.23256 
L 126.0792 230.620832 
L 127.4184 230.948722 
L 128.7576 231.051527 
L 130.7664 232.020643 
L 131.436 232.908423 
L 132.7752 234.161332 
L 133.4448 234.602119 
L 134.1144 234.869043 
L 135.4536 235.666139 
L 136.7928 236.004725 
L 138.8016 236.177809 
L 141.48 236.09708 
L 144.1584 235.782445 
L 145.4976 235.556849 
L 146.8368 235.805441 
L 148.176 235.730112 
L 149.5152 236.03902 
L 150.8544 235.998746 
L 153.5328 235.576988 
L 156.8808 234.775171 
L 160.8984 233.561501 
L 165.5856 231.896195 
L 170.9424 229.755065 
L 177.6384 226.824151 
L 184.3344 223.652087 
L 189.6912 220.902665 
L 192.3696 219.016282 
L 196.3872 216.23064 
L 207.1008 209.237487 
L 208.44 209.295946 
L 209.7792 208.928645 
L 211.788 208.067464 
L 212.4576 207.743708 
L 213.7968 208.033117 
L 215.136 207.88104 
L 217.1448 207.277693 
L 219.8232 206.157875 
L 222.5016 204.768645 
L 224.5104 203.439052 
L 225.18 202.929168 
L 227.1888 204.385806 
L 228.528 204.786741 
L 229.8672 204.887959 
L 231.2064 205.82923 
L 232.5456 206.285891 
L 234.5544 208.198476 
L 235.224 208.846376 
L 235.8936 209.251128 
L 236.5632 209.519099 
L 237.9024 210.710022 
L 239.2416 211.251322 
L 240.5808 211.487988 
L 242.5896 213.113249 
L 243.2592 214.07919 
L 243.9288 214.762233 
L 244.5984 215.183445 
L 246.6072 217.228633 
L 247.2768 218.226062 
L 247.9464 218.939171 
L 249.9552 220.374619 
L 250.6248 221.272822 
L 251.2944 221.921086 
L 251.964 222.341409 
L 252.6336 223.013797 
L 253.3032 223.907323 
L 254.6424 225.323468 
L 255.312 226.254438 
L 255.9816 226.925793 
L 256.6512 227.374476 
L 257.3208 228.035654 
L 257.9904 228.881677 
L 258.66 229.495965 
L 259.3296 229.906852 
L 260.6688 231.010989 
L 262.6776 232.086918 
L 263.3472 232.483951 
L 264.0168 232.74228 
L 265.356 233.593854 
L 266.0256 234.392785 
L 266.6952 235.006096 
L 268.0344 235.625278 
L 269.3736 235.95445 
L 271.3824 236.199339 
L 274.7304 236.474837 
L 276.0696 236.717563 
L 278.0784 236.678187 
L 280.7568 236.373374 
L 284.1048 235.741843 
L 288.1224 234.710046 
L 292.14 233.442677 
L 295.488 232.240127 
L 296.8272 232.30543 
L 297.4968 232.199205 
L 298.836 232.433682 
L 300.1752 232.284253 
L 302.8536 231.637281 
L 306.8712 230.368264 
L 311.5584 228.654093 
L 316.9152 226.469989 
L 322.9416 223.756987 
L 324.2808 222.976298 
L 332.9856 217.236302 
L 340.3512 212.618192 
L 341.6904 212.668106 
L 343.0296 212.282965 
L 344.3688 212.617429 
L 345.708 212.451775 
L 347.7168 211.862282 
L 351.0648 210.565141 
L 351.7344 210.279536 
L 353.0736 210.607624 
L 353.7432 210.58075 
L 354.4128 210.954664 
L 355.0824 211.69786 
L 355.752 212.195097 
L 356.4216 212.442448 
L 357.7608 212.610018 
L 359.1 213.416942 
L 360.4392 213.66408 
L 361.1088 214.134111 
L 361.7784 214.938894 
L 362.448 215.493629 
L 363.1176 215.804428 
L 364.4568 216.895637 
L 365.796 217.35342 
L 367.1352 217.542936 
L 368.4744 217.593851 
L 369.8136 218.315591 
L 371.1528 218.549007 
L 373.1616 218.555232 
L 373.8312 218.50958 
L 375.1704 219.123694 
L 375.84 219.234919 
L 376.5096 220.071769 
L 377.8488 221.465222 
L 379.8576 224.03239 
L 381.1968 224.760318 
L 382.536 225.152404 
L 384.5448 226.58556 
L 386.5536 228.811066 
L 387.8928 229.451763 
L 388.5624 229.65029 
L 389.232 230.116763 
L 389.9016 230.795979 
L 390.5712 231.272722 
L 391.9104 231.768626 
L 393.9192 232.101407 
L 394.5888 232.152761 
L 395.2584 233.070061 
L 395.928 233.791355 
L 396.5976 234.179058 
L 398.6064 234.976614 
L 399.276 235.279631 
L 400.6152 235.562356 
L 401.2848 235.630482 
L 401.9544 235.942352 
L 402.624 236.446799 
L 403.2936 236.780534 
L 404.6328 237.063386 
L 406.6416 237.15422 
L 409.9896 237.175966 
L 413.3376 237.767492 
L 415.3464 237.648118 
L 418.0248 237.231185 
L 421.3728 236.470647 
L 425.3904 235.3078 
L 430.0776 233.690856 
L 435.4344 231.586539 
L 442.1304 228.685768 
L 448.8264 225.553748 
L 456.192 221.849869 
L 457.5312 221.103425 
L 460.2096 219.191265 
L 464.2272 216.371055 
L 468.9144 213.272388 
L 470.2536 213.281015 
L 471.5928 212.861038 
L 472.932 212.280408 
L 474.2712 212.525511 
L 475.6104 212.301474 
L 477.6192 211.647215 
L 478.9584 211.124833 
L 480.2976 211.465749 
L 481.6368 211.340012 
L 483.6456 210.824906 
L 486.324 209.906822 
L 488.3328 209.106698 
L 489.672 209.477179 
L 491.0112 209.398186 
L 493.02 208.937926 
L 495.6984 208.06991 
L 497.0376 208.527225 
L 499.716 210.650897 
L 500.3856 210.93687 
L 502.3944 212.798446 
L 503.064 213.803467 
L 503.7336 214.512425 
L 504.4032 214.949744 
L 505.0728 215.246756 
L 506.412 216.39563 
L 507.0816 216.712362 
L 508.4208 217.844097 
L 509.0904 218.154133 
L 510.4296 219.257867 
L 511.0992 219.560965 
L 512.4384 220.637428 
L 513.7776 221.137073 
L 515.1168 222.089687 
L 515.7864 222.346555 
L 516.456 222.891537 
L 517.1256 224.042973 
L 517.7952 224.888657 
L 518.4648 226.079051 
L 519.1344 226.97382 
L 519.804 227.534841 
L 521.1432 229.14417 
L 521.8128 230.397971 
L 522.4824 231.895241 
L 523.8216 233.871247 
L 526.5 236.613562 
L 527.1696 237.146418 
L 528.5088 237.816752 
L 529.1784 238.054946 
L 530.5176 238.856358 
L 531.8568 239.271045 
L 533.8656 239.594855 
L 536.544 239.721466 
L 539.2224 239.601532 
L 542.5704 239.185505 
L 545.9184 238.53165 
L 549.936 237.49193 
L 553.9536 236.223019 
L 558.6408 234.505357 
L 563.9976 232.289879 
L 570.024 229.549477 
L 577.3896 225.94745 
L 586.0944 221.43458 
L 591.4512 218.492828 
L 594.1296 216.564176 
L 598.1472 213.724494 
L 599.4864 214.552556 
L 600.156 214.607783 
L 601.4952 214.380982 
L 603.504 213.740285 
L 606.852 212.375697 
L 611.5392 210.165327 
L 613.548 209.139501 
L 614.8872 209.378547 
L 616.2264 210.109782 
L 617.5656 210.2155 
L 618.9048 210.054529 
L 619.5744 209.92318 
L 620.9136 210.510441 
L 622.2528 210.594842 
L 624.2616 210.343272 
L 624.9312 210.210331 
L 626.2704 210.798792 
L 627.6096 210.893847 
L 629.6184 210.672784 
L 632.2968 210.09784 
L 632.9664 209.920447 
L 634.3056 210.448985 
L 635.6448 210.504729 
L 636.984 210.353701 
L 638.3232 211.003639 
L 638.9928 212.04695 
L 639.6624 212.873999 
L 640.332 213.335628 
L 641.6712 213.800395 
L 642.3408 213.918053 
L 643.68 215.641574 
L 644.3496 216.081427 
L 645.6888 217.326677 
L 646.3584 218.874914 
L 647.028 220.089129 
L 647.6976 220.812525 
L 648.3672 221.308564 
L 650.376 223.417783 
L 651.0456 224.014631 
L 653.0544 227.13062 
L 654.3936 228.079671 
L 655.7328 228.66497 
L 656.4024 229.200981 
L 657.072 229.949953 
L 657.7416 230.490535 
L 659.0808 231.101764 
L 659.7504 231.302794 
L 661.0896 232.665072 
L 663.768 234.120875 
L 665.1072 235.023559 
L 666.4464 235.437894 
L 667.116 235.562266 
L 668.4552 236.206222 
L 670.464 236.798477 
L 671.8032 237.182553 
L 673.812 237.309507 
L 676.4904 237.177897 
L 679.1688 236.830076 
L 680.508 236.592333 
L 681.8472 236.816217 
L 683.1864 236.725308 
L 685.8648 236.241281 
L 689.2128 235.390076 
L 693.2304 234.131552 
L 697.9176 232.416765 
L 703.2744 230.20936 
L 709.9704 227.182185 
L 717.336 223.606706 
L 724.7016 219.808908 
L 726.7104 218.487598 
L 732.0672 214.722722 
L 741.4416 208.525655 
L 742.7808 208.581619 
L 744.12 208.216003 
L 746.1288 207.34427 
L 748.8072 205.886094 
L 749.4768 205.483688 
L 750.816 205.670099 
L 751.4856 205.617402 
L 752.8248 206.317054 
L 754.164 206.498925 
L 755.5032 206.394058 
L 757.512 205.960216 
L 759.5208 205.308746 
L 760.86 204.747603 
L 762.1992 205.1569 
L 763.5384 208.195439 
L 764.208 209.111794 
L 764.8776 209.711812 
L 766.8864 212.202757 
L 767.556 213.782905 
L 768.2256 214.965196 
L 768.8952 215.704252 
L 770.2344 216.613321 
L 771.5736 217.161796 
L 773.5824 217.625834 
L 774.9216 217.777733 
L 776.2608 218.591095 
L 777.6 218.91439 
L 777.6 218.91439 
" clip-path="url(#pd094d3dd52)" style="fill: none; stroke: #000000; stroke-width: 1.5; stroke-linecap: square"/>
   </g>
   <g id="line2d_24">
    <path d="M 108 134.877444 
L 113.3568 136.657067 
L 120.7224 139.118947 
L 125.4096 140.524 
L 131.436 142.874794 
L 133.4448 143.95311 
L 140.8104 148.09214 
L 148.8456 152.284811 
L 151.524 154.079885 
L 155.5416 157.038611 
L 158.8896 159.784937 
L 161.568 162.26826 
L 164.2464 165.094374 
L 166.9248 168.334999 
L 169.6032 172.012113 
L 172.9512 177.065344 
L 176.9688 183.092484 
L 178.9776 185.766322 
L 180.9864 188.081196 
L 182.9952 189.996249 
L 185.004 191.508805 
L 187.0128 192.640221 
L 189.0216 193.424067 
L 189.6912 162.310994 
L 190.3608 151.553704 
L 191.0304 146.405375 
L 191.7 143.27246 
L 192.3696 141.165826 
L 193.0392 139.652888 
L 193.7088 138.512338 
L 195.048 136.88821 
L 196.3872 135.743595 
L 198.396 134.446053 
L 201.0744 133.093105 
L 203.7528 132.003518 
L 207.1008 130.920156 
L 209.1096 130.476491 
L 213.1272 129.91041 
L 216.4752 129.722974 
L 223.1712 129.305726 
L 226.5192 129.083175 
L 229.1976 129.337458 
L 232.5456 129.829794 
L 235.224 130.426655 
L 245.268 133.260316 
L 248.616 134.603327 
L 253.9728 136.934925 
L 257.9904 139.01342 
L 264.6864 142.53987 
L 267.3648 144.043715 
L 271.3824 146.327268 
L 280.7568 151.348383 
L 286.7832 154.816962 
L 290.8008 157.383776 
L 294.1488 159.784964 
L 296.1576 161.392275 
L 298.1664 163.331724 
L 300.1752 165.76121 
L 302.184 168.608574 
L 304.1928 171.800398 
L 306.8712 176.479924 
L 311.5584 184.841109 
L 313.5672 188.01645 
L 315.576 190.765432 
L 317.5848 193.049402 
L 319.5936 194.876592 
L 321.6024 196.281012 
L 322.9416 197.00417 
L 323.6112 164.944713 
L 324.2808 153.256186 
L 324.9504 147.815734 
L 325.62 144.511512 
L 326.2896 142.299198 
L 326.9592 140.71646 
L 327.6288 139.526142 
L 328.968 137.831907 
L 330.3072 136.633599 
L 332.316 135.270294 
L 334.3248 134.177558 
L 337.0032 132.987516 
L 339.6816 132.033459 
L 341.6904 131.483642 
L 344.3688 131.057403 
L 352.404 130.438763 
L 354.4128 130.422001 
L 356.4216 130.630774 
L 362.448 131.56801 
L 369.8136 133.129296 
L 377.8488 134.705933 
L 379.8576 135.476054 
L 382.536 136.529949 
L 385.884 137.775996 
L 393.2496 140.969574 
L 396.5976 142.375016 
L 406.6416 147.469974 
L 412.668 150.638681 
L 417.3552 153.634574 
L 421.3728 156.374438 
L 424.7208 158.909277 
L 427.3992 161.193517 
L 430.0776 163.78842 
L 432.756 166.774336 
L 435.4344 170.210209 
L 438.1128 174.076558 
L 445.4784 185.108452 
L 447.4872 187.593729 
L 449.496 189.685548 
L 451.5048 191.368148 
L 453.5136 192.655657 
L 455.5224 193.578569 
L 456.8616 194.009492 
L 457.5312 162.696029 
L 458.2008 151.778769 
L 458.8704 146.576051 
L 459.54 143.407668 
L 460.2096 141.2752 
L 460.8792 139.741439 
L 461.5488 138.583273 
L 462.888 136.930145 
L 464.2272 135.763343 
L 466.236 134.443829 
L 468.2448 133.389086 
L 470.2536 132.544197 
L 472.932 131.758179 
L 474.9408 131.352434 
L 479.628 130.710594 
L 482.976 130.518404 
L 491.0112 130.216716 
L 498.3768 130.457807 
L 501.0552 130.990036 
L 503.7336 131.74645 
L 513.108 134.752058 
L 517.7952 136.355518 
L 520.4736 137.697947 
L 522.4824 138.846182 
L 529.848 143.621716 
L 533.8656 145.830186 
L 538.5528 148.117575 
L 549.936 153.586195 
L 554.6232 156.133888 
L 558.6408 158.603403 
L 561.9888 160.945198 
L 564.6672 163.058771 
L 567.3456 165.427455 
L 570.024 168.076181 
L 573.372 171.757548 
L 581.4072 180.896442 
L 583.416 182.789818 
L 585.4248 184.388933 
L 587.4336 185.667122 
L 589.4424 186.621023 
L 590.7816 187.082837 
L 591.4512 157.864625 
L 592.1208 148.91108 
L 592.7904 144.425988 
L 593.46 141.708069 
L 594.1296 139.877288 
L 594.7992 138.556445 
L 595.4688 137.553501 
L 596.808 136.10328 
L 598.1472 135.053138 
L 599.4864 134.291834 
L 601.4952 133.521909 
L 606.1824 132.07953 
L 610.2 131.082271 
L 614.2176 130.325725 
L 616.2264 130.181678 
L 621.5832 130.280118 
L 635.6448 131.144223 
L 638.9928 131.558633 
L 643.0104 132.615887 
L 645.6888 133.482256 
L 647.6976 134.363825 
L 654.3936 137.666692 
L 659.0808 139.883671 
L 663.0984 141.801759 
L 672.4728 146.565278 
L 677.8296 149.227174 
L 682.5168 151.558312 
L 687.204 154.297364 
L 691.2216 156.844392 
L 694.5696 159.205189 
L 697.248 161.315037 
L 699.9264 163.677293 
L 702.6048 166.340031 
L 705.2832 169.329197 
L 708.6312 173.468912 
L 714.6576 181.08771 
L 716.6664 183.295125 
L 718.6752 185.197562 
L 720.684 186.757374 
L 722.6928 187.966198 
L 724.7016 188.836576 
L 725.3712 159.09204 
L 726.0408 149.675038 
L 726.7104 145.034287 
L 727.38 142.225878 
L 728.0496 140.337601 
L 728.7192 138.977602 
L 729.3888 137.946034 
L 730.728 136.455572 
L 732.0672 135.377523 
L 734.076 134.118024 
L 736.7544 132.768475 
L 739.4328 131.667091 
L 742.1112 130.774869 
L 744.12 130.337352 
L 750.1464 129.387382 
L 752.1552 129.246505 
L 755.5032 129.350855 
L 759.5208 129.39054 
L 762.8688 129.438859 
L 764.208 129.761334 
L 767.556 130.918278 
L 770.904 132.298787 
L 773.5824 133.067324 
L 777.6 133.971527 
L 777.6 133.971527 
" clip-path="url(#pd094d3dd52)" style="fill: none; stroke: #4169e1; stroke-width: 1.5; stroke-linecap: square"/>
   </g>
   <g id="patch_3">
    <path d="M 108 256.32 
L 108 34.56 
" style="fill: none; stroke: #000000; stroke-width: 0.8; stroke-linejoin: miter; stroke-linecap: square"/>
   </g>
   <g id="patch_4">
    <path d="M 777.6 256.32 
L 777.6 34.56 
" style="fill: none; stroke: #000000; stroke-width: 0.8; stroke-linejoin: miter; stroke-linecap: square"/>
   </g>
   <g id="patch_5">
    <path d="M 108 256.32 
L 777.6 256.32 
" style="fill: none; stroke: #000000; stroke-width: 0.8; stroke-linejoin: miter; stroke-linecap: square"/>
   </g>
   <g id="patch_6">
    <path d="M 108 34.56 
L 777.6 34.56 
" style="fill: none; stroke: #000000; stroke-width: 0.8; stroke-linejoin: miter; stroke-linecap: square"/>
   </g>
   <g id="legend_1">
    <g id="patch_7">
     <path d="M 695.098438 71.91625 
L 770.6 71.91625 
Q 772.6 71.91625 772.6 69.91625 
L 772.6 41.56 
Q 772.6 39.56 770.6 39.56 
L 695.098438 39.56 
Q 693.098438 39.56 693.098438 41.56 
L 693.098438 69.91625 
Q 693.098438 71.91625 695.098438 71.91625 
z
" style="fill: #ffffff; opacity: 0.8; stroke: #cccccc; stroke-linejoin: miter"/>
    </g>
    <g id="line2d_25">
     <path d="M 697.098438 47.658437 
L 707.098438 47.658437 
L 717.098438 47.658437 
" style="fill: none; stroke: #000000; stroke-width: 1.5; stroke-linecap: square"/>
    </g>
    <g id="text_14">
     <!-- Soma -->
     <g transform="translate(725.098438 51.158437) scale(0.1 -0.1)">
      <defs>
       <path id="DejaVuSans-53" d="M 3425 4513 
L 3425 3897 
Q 3066 4069 2747 4153 
Q 2428 4238 2131 4238 
Q 1616 4238 1336 4038 
Q 1056 3838 1056 3469 
Q 1056 3159 1242 3001 
Q 1428 2844 1947 2747 
L 2328 2669 
Q 3034 2534 3370 2195 
Q 3706 1856 3706 1288 
Q 3706 609 3251 259 
Q 2797 -91 1919 -91 
Q 1588 -91 1214 -16 
Q 841 59 441 206 
L 441 856 
Q 825 641 1194 531 
Q 1563 422 1919 422 
Q 2459 422 2753 634 
Q 3047 847 3047 1241 
Q 3047 1584 2836 1778 
Q 2625 1972 2144 2069 
L 1759 2144 
Q 1053 2284 737 2584 
Q 422 2884 422 3419 
Q 422 4038 858 4394 
Q 1294 4750 2059 4750 
Q 2388 4750 2728 4690 
Q 3069 4631 3425 4513 
z
" transform="scale(0.015625)"/>
       <path id="DejaVuSans-6f" d="M 1959 3097 
Q 1497 3097 1228 2736 
Q 959 2375 959 1747 
Q 959 1119 1226 758 
Q 1494 397 1959 397 
Q 2419 397 2687 759 
Q 2956 1122 2956 1747 
Q 2956 2369 2687 2733 
Q 2419 3097 1959 3097 
z
M 1959 3584 
Q 2709 3584 3137 3096 
Q 3566 2609 3566 1747 
Q 3566 888 3137 398 
Q 2709 -91 1959 -91 
Q 1206 -91 779 398 
Q 353 888 353 1747 
Q 353 2609 779 3096 
Q 1206 3584 1959 3584 
z
" transform="scale(0.015625)"/>
       <path id="DejaVuSans-61" d="M 2194 1759 
Q 1497 1759 1228 1600 
Q 959 1441 959 1056 
Q 959 750 1161 570 
Q 1363 391 1709 391 
Q 2188 391 2477 730 
Q 2766 1069 2766 1631 
L 2766 1759 
L 2194 1759 
z
M 3341 1997 
L 3341 0 
L 2766 0 
L 2766 531 
Q 2569 213 2275 61 
Q 1981 -91 1556 -91 
Q 1019 -91 701 211 
Q 384 513 384 1019 
Q 384 1609 779 1909 
Q 1175 2209 1959 2209 
L 2766 2209 
L 2766 2266 
Q 2766 2663 2505 2880 
Q 2244 3097 1772 3097 
Q 1472 3097 1187 3025 
Q 903 2953 641 2809 
L 641 3341 
Q 956 3463 1253 3523 
Q 1550 3584 1831 3584 
Q 2591 3584 2966 3190 
Q 3341 2797 3341 1997 
z
" transform="scale(0.015625)"/>
      </defs>
      <use xlink:href="#DejaVuSans-53"/>
      <use xlink:href="#DejaVuSans-6f" x="63.476562"/>
      <use xlink:href="#DejaVuSans-6d" x="124.658203"/>
      <use xlink:href="#DejaVuSans-61" x="222.070312"/>
     </g>
    </g>
    <g id="line2d_26">
     <path d="M 697.098438 62.336562 
L 707.098438 62.336562 
L 717.098438 62.336562 
" style="fill: none; stroke: #4169e1; stroke-width: 1.5; stroke-linecap: square"/>
    </g>
    <g id="text_15">
     <!-- Dendrite -->
     <g transform="translate(725.098438 65.836562) scale(0.1 -0.1)">
      <defs>
       <path id="DejaVuSans-44" d="M 1259 4147 
L 1259 519 
L 2022 519 
Q 2988 519 3436 956 
Q 3884 1394 3884 2338 
Q 3884 3275 3436 3711 
Q 2988 4147 2022 4147 
L 1259 4147 
z
M 628 4666 
L 1925 4666 
Q 3281 4666 3915 4102 
Q 4550 3538 4550 2338 
Q 4550 1131 3912 565 
Q 3275 0 1925 0 
L 628 0 
L 628 4666 
z
" transform="scale(0.015625)"/>
       <path id="DejaVuSans-6e" d="M 3513 2113 
L 3513 0 
L 2938 0 
L 2938 2094 
Q 2938 2591 2744 2837 
Q 2550 3084 2163 3084 
Q 1697 3084 1428 2787 
Q 1159 2491 1159 1978 
L 1159 0 
L 581 0 
L 581 3500 
L 1159 3500 
L 1159 2956 
Q 1366 3272 1645 3428 
Q 1925 3584 2291 3584 
Q 2894 3584 3203 3211 
Q 3513 2838 3513 2113 
z
" transform="scale(0.015625)"/>
       <path id="DejaVuSans-64" d="M 2906 2969 
L 2906 4863 
L 3481 4863 
L 3481 0 
L 2906 0 
L 2906 525 
Q 2725 213 2448 61 
Q 2172 -91 1784 -91 
Q 1150 -91 751 415 
Q 353 922 353 1747 
Q 353 2572 751 3078 
Q 1150 3584 1784 3584 
Q 2172 3584 2448 3432 
Q 2725 3281 2906 2969 
z
M 947 1747 
Q 947 1113 1208 752 
Q 1469 391 1925 391 
Q 2381 391 2643 752 
Q 2906 1113 2906 1747 
Q 2906 2381 2643 2742 
Q 2381 3103 1925 3103 
Q 1469 3103 1208 2742 
Q 947 2381 947 1747 
z
" transform="scale(0.015625)"/>
       <path id="DejaVuSans-72" d="M 2631 2963 
Q 2534 3019 2420 3045 
Q 2306 3072 2169 3072 
Q 1681 3072 1420 2755 
Q 1159 2438 1159 1844 
L 1159 0 
L 581 0 
L 581 3500 
L 1159 3500 
L 1159 2956 
Q 1341 3275 1631 3429 
Q 1922 3584 2338 3584 
Q 2397 3584 2469 3576 
Q 2541 3569 2628 3553 
L 2631 2963 
z
" transform="scale(0.015625)"/>
       <path id="DejaVuSans-74" d="M 1172 4494 
L 1172 3500 
L 2356 3500 
L 2356 3053 
L 1172 3053 
L 1172 1153 
Q 1172 725 1289 603 
Q 1406 481 1766 481 
L 2356 481 
L 2356 0 
L 1766 0 
Q 1100 0 847 248 
Q 594 497 594 1153 
L 594 3053 
L 172 3053 
L 172 3500 
L 594 3500 
L 594 4494 
L 1172 4494 
z
" transform="scale(0.015625)"/>
      </defs>
      <use xlink:href="#DejaVuSans-44"/>
      <use xlink:href="#DejaVuSans-65" x="77.001953"/>
      <use xlink:href="#DejaVuSans-6e" x="138.525391"/>
      <use xlink:href="#DejaVuSans-64" x="201.904297"/>
      <use xlink:href="#DejaVuSans-72" x="265.380859"/>
      <use xlink:href="#DejaVuSans-69" x="306.494141"/>
      <use xlink:href="#DejaVuSans-74" x="334.277344"/>
      <use xlink:href="#DejaVuSans-65" x="373.486328"/>
     </g>
    </g>
   </g>
  </g>
 </g>
 <defs>
  <clipPath id="pd094d3dd52">
   <rect x="108" y="34.56" width="669.6" height="221.76"/>
  </clipPath>
 </defs>
</svg>
