<?xml version="1.0" encoding="utf-8" standalone="no"?>
<!DOCTYPE svg PUBLIC "-//W3C//DTD SVG 1.1//EN"
  "http://www.w3.org/Graphics/SVG/1.1/DTD/svg11.dtd">
<svg xmlns:xlink="http://www.w3.org/1999/xlink" width="864pt" height="288pt" viewBox="0 0 864 288" xmlns="http://www.w3.org/2000/svg" version="1.1">
 <metadata>
  <rdf:RDF xmlns:dc="http://purl.org/dc/elements/1.1/" xmlns:cc="http://creativecommons.org/ns#" xmlns:rdf="http://www.w3.org/1999/02/22-rdf-syntax-ns#">
   <cc:Work>
    <dc:type rdf:resource="http://purl.org/dc/dcmitype/StillImage"/>
    <dc:date>2024-04-26T13:28:08.619572</dc:date>
    <dc:format>image/svg+xml</dc:format>
    <dc:creator>
     <cc:Agent>
      <dc:title>Matplotlib v3.8.2, https://matplotlib.org/</dc:title>
     </cc:Agent>
    </dc:creator>
   </cc:Work>
  </rdf:RDF>
 </metadata>
 <defs>
  <style type="text/css">*{stroke-linejoin: round; stroke-linecap: butt}</style>
 </defs>
 <g id="figure_1">
  <g id="patch_1">
   <path d="M 0 288 
L 864 288 
L 864 0 
L 0 0 
z
" style="fill: #ffffff"/>
  </g>
  <g id="axes_1">
   <g id="patch_2">
    <path d="M 108 256.32 
L 777.6 256.32 
L 777.6 34.56 
L 108 34.56 
z
" style="fill: #ffffff"/>
   </g>
   <g id="matplotlib.axis_1">
    <g id="xtick_1">
     <g id="line2d_1">
      <path d="M 108 256.32 
L 108 34.56 
" clip-path="url(#pa9d4a68e5c)" style="fill: none; stroke: #b0b0b0; stroke-width: 0.8; stroke-linecap: square"/>
     </g>
     <g id="line2d_2">
      <defs>
       <path id="m63b23bfbb2" d="M 0 0 
L 0 3.5 
" style="stroke: #000000; stroke-width: 0.8"/>
      </defs>
      <g>
       <use xlink:href="#m63b23bfbb2" x="108" y="256.32" style="stroke: #000000; stroke-width: 0.8"/>
      </g>
     </g>
     <g id="text_1">
      <!-- 100 -->
      <g transform="translate(94.63875 273.957812) scale(0.14 -0.14)">
       <defs>
        <path id="DejaVuSans-31" d="M 794 531 
L 1825 531 
L 1825 4091 
L 703 3866 
L 703 4441 
L 1819 4666 
L 2450 4666 
L 2450 531 
L 3481 531 
L 3481 0 
L 794 0 
L 794 531 
z
" transform="scale(0.015625)"/>
        <path id="DejaVuSans-30" d="M 2034 4250 
Q 1547 4250 1301 3770 
Q 1056 3291 1056 2328 
Q 1056 1369 1301 889 
Q 1547 409 2034 409 
Q 2525 409 2770 889 
Q 3016 1369 3016 2328 
Q 3016 3291 2770 3770 
Q 2525 4250 2034 4250 
z
M 2034 4750 
Q 2819 4750 3233 4129 
Q 3647 3509 3647 2328 
Q 3647 1150 3233 529 
Q 2819 -91 2034 -91 
Q 1250 -91 836 529 
Q 422 1150 422 2328 
Q 422 3509 836 4129 
Q 1250 4750 2034 4750 
z
" transform="scale(0.015625)"/>
       </defs>
       <use xlink:href="#DejaVuSans-31"/>
       <use xlink:href="#DejaVuSans-30" x="63.623047"/>
       <use xlink:href="#DejaVuSans-30" x="127.246094"/>
      </g>
     </g>
    </g>
    <g id="xtick_2">
     <g id="line2d_3">
      <path d="M 241.92 256.32 
L 241.92 34.56 
" clip-path="url(#pa9d4a68e5c)" style="fill: none; stroke: #b0b0b0; stroke-width: 0.8; stroke-linecap: square"/>
     </g>
     <g id="line2d_4">
      <g>
       <use xlink:href="#m63b23bfbb2" x="241.92" y="256.32" style="stroke: #000000; stroke-width: 0.8"/>
      </g>
     </g>
     <g id="text_2">
      <!-- 120 -->
      <g transform="translate(228.55875 273.957812) scale(0.14 -0.14)">
       <defs>
        <path id="DejaVuSans-32" d="M 1228 531 
L 3431 531 
L 3431 0 
L 469 0 
L 469 531 
Q 828 903 1448 1529 
Q 2069 2156 2228 2338 
Q 2531 2678 2651 2914 
Q 2772 3150 2772 3378 
Q 2772 3750 2511 3984 
Q 2250 4219 1831 4219 
Q 1534 4219 1204 4116 
Q 875 4013 500 3803 
L 500 4441 
Q 881 4594 1212 4672 
Q 1544 4750 1819 4750 
Q 2544 4750 2975 4387 
Q 3406 4025 3406 3419 
Q 3406 3131 3298 2873 
Q 3191 2616 2906 2266 
Q 2828 2175 2409 1742 
Q 1991 1309 1228 531 
z
" transform="scale(0.015625)"/>
       </defs>
       <use xlink:href="#DejaVuSans-31"/>
       <use xlink:href="#DejaVuSans-32" x="63.623047"/>
       <use xlink:href="#DejaVuSans-30" x="127.246094"/>
      </g>
     </g>
    </g>
    <g id="xtick_3">
     <g id="line2d_5">
      <path d="M 375.84 256.32 
L 375.84 34.56 
" clip-path="url(#pa9d4a68e5c)" style="fill: none; stroke: #b0b0b0; stroke-width: 0.8; stroke-linecap: square"/>
     </g>
     <g id="line2d_6">
      <g>
       <use xlink:href="#m63b23bfbb2" x="375.84" y="256.32" style="stroke: #000000; stroke-width: 0.8"/>
      </g>
     </g>
     <g id="text_3">
      <!-- 140 -->
      <g transform="translate(362.47875 273.957812) scale(0.14 -0.14)">
       <defs>
        <path id="DejaVuSans-34" d="M 2419 4116 
L 825 1625 
L 2419 1625 
L 2419 4116 
z
M 2253 4666 
L 3047 4666 
L 3047 1625 
L 3713 1625 
L 3713 1100 
L 3047 1100 
L 3047 0 
L 2419 0 
L 2419 1100 
L 313 1100 
L 313 1709 
L 2253 4666 
z
" transform="scale(0.015625)"/>
       </defs>
       <use xlink:href="#DejaVuSans-31"/>
       <use xlink:href="#DejaVuSans-34" x="63.623047"/>
       <use xlink:href="#DejaVuSans-30" x="127.246094"/>
      </g>
     </g>
    </g>
    <g id="xtick_4">
     <g id="line2d_7">
      <path d="M 509.76 256.32 
L 509.76 34.56 
" clip-path="url(#pa9d4a68e5c)" style="fill: none; stroke: #b0b0b0; stroke-width: 0.8; stroke-linecap: square"/>
     </g>
     <g id="line2d_8">
      <g>
       <use xlink:href="#m63b23bfbb2" x="509.76" y="256.32" style="stroke: #000000; stroke-width: 0.8"/>
      </g>
     </g>
     <g id="text_4">
      <!-- 160 -->
      <g transform="translate(496.39875 273.957812) scale(0.14 -0.14)">
       <defs>
        <path id="DejaVuSans-36" d="M 2113 2584 
Q 1688 2584 1439 2293 
Q 1191 2003 1191 1497 
Q 1191 994 1439 701 
Q 1688 409 2113 409 
Q 2538 409 2786 701 
Q 3034 994 3034 1497 
Q 3034 2003 2786 2293 
Q 2538 2584 2113 2584 
z
M 3366 4563 
L 3366 3988 
Q 3128 4100 2886 4159 
Q 2644 4219 2406 4219 
Q 1781 4219 1451 3797 
Q 1122 3375 1075 2522 
Q 1259 2794 1537 2939 
Q 1816 3084 2150 3084 
Q 2853 3084 3261 2657 
Q 3669 2231 3669 1497 
Q 3669 778 3244 343 
Q 2819 -91 2113 -91 
Q 1303 -91 875 529 
Q 447 1150 447 2328 
Q 447 3434 972 4092 
Q 1497 4750 2381 4750 
Q 2619 4750 2861 4703 
Q 3103 4656 3366 4563 
z
" transform="scale(0.015625)"/>
       </defs>
       <use xlink:href="#DejaVuSans-31"/>
       <use xlink:href="#DejaVuSans-36" x="63.623047"/>
       <use xlink:href="#DejaVuSans-30" x="127.246094"/>
      </g>
     </g>
    </g>
    <g id="xtick_5">
     <g id="line2d_9">
      <path d="M 643.68 256.32 
L 643.68 34.56 
" clip-path="url(#pa9d4a68e5c)" style="fill: none; stroke: #b0b0b0; stroke-width: 0.8; stroke-linecap: square"/>
     </g>
     <g id="line2d_10">
      <g>
       <use xlink:href="#m63b23bfbb2" x="643.68" y="256.32" style="stroke: #000000; stroke-width: 0.8"/>
      </g>
     </g>
     <g id="text_5">
      <!-- 180 -->
      <g transform="translate(630.31875 273.957812) scale(0.14 -0.14)">
       <defs>
        <path id="DejaVuSans-38" d="M 2034 2216 
Q 1584 2216 1326 1975 
Q 1069 1734 1069 1313 
Q 1069 891 1326 650 
Q 1584 409 2034 409 
Q 2484 409 2743 651 
Q 3003 894 3003 1313 
Q 3003 1734 2745 1975 
Q 2488 2216 2034 2216 
z
M 1403 2484 
Q 997 2584 770 2862 
Q 544 3141 544 3541 
Q 544 4100 942 4425 
Q 1341 4750 2034 4750 
Q 2731 4750 3128 4425 
Q 3525 4100 3525 3541 
Q 3525 3141 3298 2862 
Q 3072 2584 2669 2484 
Q 3125 2378 3379 2068 
Q 3634 1759 3634 1313 
Q 3634 634 3220 271 
Q 2806 -91 2034 -91 
Q 1263 -91 848 271 
Q 434 634 434 1313 
Q 434 1759 690 2068 
Q 947 2378 1403 2484 
z
M 1172 3481 
Q 1172 3119 1398 2916 
Q 1625 2713 2034 2713 
Q 2441 2713 2670 2916 
Q 2900 3119 2900 3481 
Q 2900 3844 2670 4047 
Q 2441 4250 2034 4250 
Q 1625 4250 1398 4047 
Q 1172 3844 1172 3481 
z
" transform="scale(0.015625)"/>
       </defs>
       <use xlink:href="#DejaVuSans-31"/>
       <use xlink:href="#DejaVuSans-38" x="63.623047"/>
       <use xlink:href="#DejaVuSans-30" x="127.246094"/>
      </g>
     </g>
    </g>
    <g id="xtick_6">
     <g id="line2d_11">
      <path d="M 777.6 256.32 
L 777.6 34.56 
" clip-path="url(#pa9d4a68e5c)" style="fill: none; stroke: #b0b0b0; stroke-width: 0.8; stroke-linecap: square"/>
     </g>
     <g id="line2d_12">
      <g>
       <use xlink:href="#m63b23bfbb2" x="777.6" y="256.32" style="stroke: #000000; stroke-width: 0.8"/>
      </g>
     </g>
     <g id="text_6">
      <!-- 200 -->
      <g transform="translate(764.23875 273.957812) scale(0.14 -0.14)">
       <use xlink:href="#DejaVuSans-32"/>
       <use xlink:href="#DejaVuSans-30" x="63.623047"/>
       <use xlink:href="#DejaVuSans-30" x="127.246094"/>
      </g>
     </g>
    </g>
    <g id="text_7">
     <!-- Time (ms) -->
     <g transform="translate(407.521094 291.507187) scale(0.14 -0.14)">
      <defs>
       <path id="DejaVuSans-54" d="M -19 4666 
L 3928 4666 
L 3928 4134 
L 2272 4134 
L 2272 0 
L 1638 0 
L 1638 4134 
L -19 4134 
L -19 4666 
z
" transform="scale(0.015625)"/>
       <path id="DejaVuSans-69" d="M 603 3500 
L 1178 3500 
L 1178 0 
L 603 0 
L 603 3500 
z
M 603 4863 
L 1178 4863 
L 1178 4134 
L 603 4134 
L 603 4863 
z
" transform="scale(0.015625)"/>
       <path id="DejaVuSans-6d" d="M 3328 2828 
Q 3544 3216 3844 3400 
Q 4144 3584 4550 3584 
Q 5097 3584 5394 3201 
Q 5691 2819 5691 2113 
L 5691 0 
L 5113 0 
L 5113 2094 
Q 5113 2597 4934 2840 
Q 4756 3084 4391 3084 
Q 3944 3084 3684 2787 
Q 3425 2491 3425 1978 
L 3425 0 
L 2847 0 
L 2847 2094 
Q 2847 2600 2669 2842 
Q 2491 3084 2119 3084 
Q 1678 3084 1418 2786 
Q 1159 2488 1159 1978 
L 1159 0 
L 581 0 
L 581 3500 
L 1159 3500 
L 1159 2956 
Q 1356 3278 1631 3431 
Q 1906 3584 2284 3584 
Q 2666 3584 2933 3390 
Q 3200 3197 3328 2828 
z
" transform="scale(0.015625)"/>
       <path id="DejaVuSans-65" d="M 3597 1894 
L 3597 1613 
L 953 1613 
Q 991 1019 1311 708 
Q 1631 397 2203 397 
Q 2534 397 2845 478 
Q 3156 559 3463 722 
L 3463 178 
Q 3153 47 2828 -22 
Q 2503 -91 2169 -91 
Q 1331 -91 842 396 
Q 353 884 353 1716 
Q 353 2575 817 3079 
Q 1281 3584 2069 3584 
Q 2775 3584 3186 3129 
Q 3597 2675 3597 1894 
z
M 3022 2063 
Q 3016 2534 2758 2815 
Q 2500 3097 2075 3097 
Q 1594 3097 1305 2825 
Q 1016 2553 972 2059 
L 3022 2063 
z
" transform="scale(0.015625)"/>
       <path id="DejaVuSans-20" transform="scale(0.015625)"/>
       <path id="DejaVuSans-28" d="M 1984 4856 
Q 1566 4138 1362 3434 
Q 1159 2731 1159 2009 
Q 1159 1288 1364 580 
Q 1569 -128 1984 -844 
L 1484 -844 
Q 1016 -109 783 600 
Q 550 1309 550 2009 
Q 550 2706 781 3412 
Q 1013 4119 1484 4856 
L 1984 4856 
z
" transform="scale(0.015625)"/>
       <path id="DejaVuSans-73" d="M 2834 3397 
L 2834 2853 
Q 2591 2978 2328 3040 
Q 2066 3103 1784 3103 
Q 1356 3103 1142 2972 
Q 928 2841 928 2578 
Q 928 2378 1081 2264 
Q 1234 2150 1697 2047 
L 1894 2003 
Q 2506 1872 2764 1633 
Q 3022 1394 3022 966 
Q 3022 478 2636 193 
Q 2250 -91 1575 -91 
Q 1294 -91 989 -36 
Q 684 19 347 128 
L 347 722 
Q 666 556 975 473 
Q 1284 391 1588 391 
Q 1994 391 2212 530 
Q 2431 669 2431 922 
Q 2431 1156 2273 1281 
Q 2116 1406 1581 1522 
L 1381 1569 
Q 847 1681 609 1914 
Q 372 2147 372 2553 
Q 372 3047 722 3315 
Q 1072 3584 1716 3584 
Q 2034 3584 2315 3537 
Q 2597 3491 2834 3397 
z
" transform="scale(0.015625)"/>
       <path id="DejaVuSans-29" d="M 513 4856 
L 1013 4856 
Q 1481 4119 1714 3412 
Q 1947 2706 1947 2009 
Q 1947 1309 1714 600 
Q 1481 -109 1013 -844 
L 513 -844 
Q 928 -128 1133 580 
Q 1338 1288 1338 2009 
Q 1338 2731 1133 3434 
Q 928 4138 513 4856 
z
" transform="scale(0.015625)"/>
      </defs>
      <use xlink:href="#DejaVuSans-54"/>
      <use xlink:href="#DejaVuSans-69" x="57.958984"/>
      <use xlink:href="#DejaVuSans-6d" x="85.742188"/>
      <use xlink:href="#DejaVuSans-65" x="183.154297"/>
      <use xlink:href="#DejaVuSans-20" x="244.677734"/>
      <use xlink:href="#DejaVuSans-28" x="276.464844"/>
      <use xlink:href="#DejaVuSans-6d" x="315.478516"/>
      <use xlink:href="#DejaVuSans-73" x="412.890625"/>
      <use xlink:href="#DejaVuSans-29" x="464.990234"/>
     </g>
    </g>
   </g>
   <g id="matplotlib.axis_2">
    <g id="ytick_1">
     <g id="line2d_13">
      <path d="M 108 224.415412 
L 777.6 224.415412 
" clip-path="url(#pa9d4a68e5c)" style="fill: none; stroke: #b0b0b0; stroke-width: 0.8; stroke-linecap: square"/>
     </g>
     <g id="line2d_14">
      <defs>
       <path id="mddecc4811e" d="M 0 0 
L -3.5 0 
" style="stroke: #000000; stroke-width: 0.8"/>
      </defs>
      <g>
       <use xlink:href="#mddecc4811e" x="108" y="224.415412" style="stroke: #000000; stroke-width: 0.8"/>
      </g>
     </g>
     <g id="text_8">
      <!-- −60 -->
      <g transform="translate(71.453437 229.734319) scale(0.14 -0.14)">
       <defs>
        <path id="DejaVuSans-2212" d="M 678 2272 
L 4684 2272 
L 4684 1741 
L 678 1741 
L 678 2272 
z
" transform="scale(0.015625)"/>
       </defs>
       <use xlink:href="#DejaVuSans-2212"/>
       <use xlink:href="#DejaVuSans-36" x="83.789062"/>
       <use xlink:href="#DejaVuSans-30" x="147.412109"/>
      </g>
     </g>
    </g>
    <g id="ytick_2">
     <g id="line2d_15">
      <path d="M 108 180.835788 
L 777.6 180.835788 
" clip-path="url(#pa9d4a68e5c)" style="fill: none; stroke: #b0b0b0; stroke-width: 0.8; stroke-linecap: square"/>
     </g>
     <g id="line2d_16">
      <g>
       <use xlink:href="#mddecc4811e" x="108" y="180.835788" style="stroke: #000000; stroke-width: 0.8"/>
      </g>
     </g>
     <g id="text_9">
      <!-- −40 -->
      <g transform="translate(71.453437 186.154694) scale(0.14 -0.14)">
       <use xlink:href="#DejaVuSans-2212"/>
       <use xlink:href="#DejaVuSans-34" x="83.789062"/>
       <use xlink:href="#DejaVuSans-30" x="147.412109"/>
      </g>
     </g>
    </g>
    <g id="ytick_3">
     <g id="line2d_17">
      <path d="M 108 137.256164 
L 777.6 137.256164 
" clip-path="url(#pa9d4a68e5c)" style="fill: none; stroke: #b0b0b0; stroke-width: 0.8; stroke-linecap: square"/>
     </g>
     <g id="line2d_18">
      <g>
       <use xlink:href="#mddecc4811e" x="108" y="137.256164" style="stroke: #000000; stroke-width: 0.8"/>
      </g>
     </g>
     <g id="text_10">
      <!-- −20 -->
      <g transform="translate(71.453437 142.57507) scale(0.14 -0.14)">
       <use xlink:href="#DejaVuSans-2212"/>
       <use xlink:href="#DejaVuSans-32" x="83.789062"/>
       <use xlink:href="#DejaVuSans-30" x="147.412109"/>
      </g>
     </g>
    </g>
    <g id="ytick_4">
     <g id="line2d_19">
      <path d="M 108 93.67654 
L 777.6 93.67654 
" clip-path="url(#pa9d4a68e5c)" style="fill: none; stroke: #b0b0b0; stroke-width: 0.8; stroke-linecap: square"/>
     </g>
     <g id="line2d_20">
      <g>
       <use xlink:href="#mddecc4811e" x="108" y="93.67654" style="stroke: #000000; stroke-width: 0.8"/>
      </g>
     </g>
     <g id="text_11">
      <!-- 0 -->
      <g transform="translate(92.0925 98.995446) scale(0.14 -0.14)">
       <use xlink:href="#DejaVuSans-30"/>
      </g>
     </g>
    </g>
    <g id="ytick_5">
     <g id="line2d_21">
      <path d="M 108 50.096915 
L 777.6 50.096915 
" clip-path="url(#pa9d4a68e5c)" style="fill: none; stroke: #b0b0b0; stroke-width: 0.8; stroke-linecap: square"/>
     </g>
     <g id="line2d_22">
      <g>
       <use xlink:href="#mddecc4811e" x="108" y="50.096915" style="stroke: #000000; stroke-width: 0.8"/>
      </g>
     </g>
     <g id="text_12">
      <!-- 20 -->
      <g transform="translate(83.185 55.415822) scale(0.14 -0.14)">
       <use xlink:href="#DejaVuSans-32"/>
       <use xlink:href="#DejaVuSans-30" x="63.623047"/>
      </g>
     </g>
    </g>
    <g id="text_13">
     <!-- $V_{m}$ (mV) -->
     <g transform="translate(64.541875 174.49) rotate(-90) scale(0.14 -0.14)">
      <defs>
       <path id="DejaVuSans-Oblique-56" d="M 1319 0 
L 500 4666 
L 1119 4666 
L 1797 653 
L 4063 4666 
L 4750 4666 
L 2053 0 
L 1319 0 
z
" transform="scale(0.015625)"/>
       <path id="DejaVuSans-Oblique-6d" d="M 5747 2113 
L 5338 0 
L 4763 0 
L 5166 2094 
Q 5191 2228 5203 2325 
Q 5216 2422 5216 2491 
Q 5216 2772 5059 2928 
Q 4903 3084 4622 3084 
Q 4203 3084 3875 2770 
Q 3547 2456 3450 1953 
L 3066 0 
L 2491 0 
L 2900 2094 
Q 2925 2209 2937 2307 
Q 2950 2406 2950 2484 
Q 2950 2769 2794 2926 
Q 2638 3084 2363 3084 
Q 1938 3084 1609 2770 
Q 1281 2456 1184 1953 
L 800 0 
L 225 0 
L 909 3500 
L 1484 3500 
L 1375 2956 
Q 1609 3263 1923 3423 
Q 2238 3584 2597 3584 
Q 2978 3584 3223 3384 
Q 3469 3184 3519 2828 
Q 3781 3197 4126 3390 
Q 4472 3584 4856 3584 
Q 5306 3584 5551 3325 
Q 5797 3066 5797 2591 
Q 5797 2488 5784 2364 
Q 5772 2241 5747 2113 
z
" transform="scale(0.015625)"/>
       <path id="DejaVuSans-56" d="M 1831 0 
L 50 4666 
L 709 4666 
L 2188 738 
L 3669 4666 
L 4325 4666 
L 2547 0 
L 1831 0 
z
" transform="scale(0.015625)"/>
      </defs>
      <use xlink:href="#DejaVuSans-Oblique-56" transform="translate(0 0.125)"/>
      <use xlink:href="#DejaVuSans-Oblique-6d" transform="translate(68.408203 -16.28125) scale(0.7)"/>
      <use xlink:href="#DejaVuSans-20" transform="translate(139.331055 0.125)"/>
      <use xlink:href="#DejaVuSans-28" transform="translate(171.118164 0.125)"/>
      <use xlink:href="#DejaVuSans-6d" transform="translate(210.131836 0.125)"/>
      <use xlink:href="#DejaVuSans-56" transform="translate(307.543945 0.125)"/>
      <use xlink:href="#DejaVuSans-29" transform="translate(375.952148 0.125)"/>
     </g>
    </g>
   </g>
   <g id="line2d_23">
    <path d="M 108 220.418965 
L 109.3392 221.056362 
L 110.6784 221.310227 
L 111.348 221.352711 
L 112.6872 222.064421 
L 114.0264 222.30958 
L 116.0352 223.644612 
L 118.044 225.964221 
L 118.7136 227.04481 
L 119.3832 227.87402 
L 120.0528 228.388095 
L 120.7224 229.402099 
L 122.7312 231.623417 
L 124.0704 232.353875 
L 125.4096 232.804359 
L 127.4184 233.204419 
L 129.4272 233.382148 
L 132.1056 233.367881 
L 134.1144 233.207718 
L 136.1232 233.940887 
L 136.7928 234.760002 
L 137.4624 235.327992 
L 138.132 235.622231 
L 138.8016 235.792398 
L 140.1408 236.462557 
L 141.48 236.705861 
L 143.4888 236.770894 
L 144.828 237.213786 
L 146.1672 237.311151 
L 148.176 237.222364 
L 149.5152 237.585063 
L 150.8544 237.616221 
L 153.5328 237.351362 
L 156.8808 236.741811 
L 160.2288 235.917599 
L 164.2464 234.700062 
L 168.9336 233.015498 
L 173.6208 231.090233 
L 178.9776 228.640966 
L 185.004 225.620537 
L 191.7 222.000018 
L 198.396 218.171107 
L 199.7352 218.209636 
L 201.0744 217.826987 
L 203.7528 216.694771 
L 205.7616 215.74188 
L 207.1008 215.933243 
L 208.44 215.676713 
L 209.7792 216.095244 
L 211.1184 216.010471 
L 213.1272 215.552422 
L 216.4752 214.476804 
L 220.4928 212.93049 
L 225.8496 210.603964 
L 227.1888 210.917256 
L 227.8584 211.846976 
L 228.528 212.56776 
L 229.1976 212.923313 
L 230.5368 213.195988 
L 231.876 213.215078 
L 232.5456 213.172287 
L 234.5544 214.473683 
L 235.8936 216.398894 
L 236.5632 217.535583 
L 239.2416 220.762887 
L 239.9112 221.806634 
L 240.5808 223.309284 
L 241.2504 224.413529 
L 241.92 225.123138 
L 242.5896 225.642714 
L 243.9288 226.273717 
L 244.5984 226.447706 
L 245.9376 227.276907 
L 246.6072 227.489861 
L 247.2768 227.969723 
L 247.9464 228.678183 
L 249.9552 230.278659 
L 251.2944 231.372906 
L 252.6336 231.905086 
L 253.9728 232.209525 
L 255.312 233.481326 
L 255.9816 234.096976 
L 256.6512 234.544855 
L 257.9904 235.024493 
L 259.9992 235.357138 
L 260.6688 235.411037 
L 262.008 235.970172 
L 263.3472 236.162403 
L 264.6864 236.20316 
L 267.3648 237.280945 
L 268.704 237.461777 
L 270.7128 237.45364 
L 272.052 237.849632 
L 273.3912 237.909851 
L 276.0696 237.696552 
L 279.4176 237.146495 
L 282.096 236.548435 
L 283.4352 236.728361 
L 284.7744 236.591009 
L 287.4528 236.018381 
L 290.8008 235.069673 
L 291.4704 234.857671 
L 292.8096 234.969938 
L 294.1488 234.756408 
L 296.8272 234.028015 
L 300.8448 232.648199 
L 305.532 230.766881 
L 310.8888 228.344416 
L 316.9152 225.341221 
L 323.6112 221.732333 
L 331.6464 217.127855 
L 342.36 210.710384 
L 345.0384 209.058563 
L 346.3776 209.198552 
L 347.7168 208.884992 
L 349.7256 208.09971 
L 353.0736 206.500453 
L 354.4128 205.794749 
L 355.752 207.101449 
L 356.4216 207.396505 
L 358.4304 209.292419 
L 359.1 210.357976 
L 359.7696 211.113611 
L 360.4392 211.575384 
L 361.7784 212.092011 
L 363.1176 214.042655 
L 363.7872 215.008175 
L 364.4568 215.72735 
L 366.4656 217.214683 
L 367.1352 217.768226 
L 367.8048 218.129703 
L 369.144 219.347785 
L 370.4832 219.959141 
L 371.8224 220.312328 
L 372.492 220.433933 
L 373.8312 222.044325 
L 374.5008 223.594943 
L 375.1704 224.787936 
L 375.84 225.507927 
L 376.5096 226.011459 
L 377.8488 226.592553 
L 379.188 226.8341 
L 379.8576 227.236936 
L 381.8664 229.202029 
L 382.536 229.525369 
L 383.8752 230.49963 
L 384.5448 230.772941 
L 386.5536 232.240466 
L 387.2232 232.665142 
L 388.5624 233.12342 
L 391.2408 233.794514 
L 391.9104 234.358967 
L 392.58 234.741948 
L 393.9192 235.096095 
L 395.928 235.272786 
L 398.6064 235.203019 
L 399.9456 235.604729 
L 400.6152 235.658947 
L 401.9544 236.146 
L 403.2936 236.245548 
L 405.972 237.292424 
L 407.3112 237.446021 
L 407.9808 237.453227 
L 409.32 237.889117 
L 410.6592 237.973336 
L 412.668 237.859375 
L 415.3464 237.497483 
L 418.6944 236.82011 
L 422.712 235.751187 
L 426.7296 234.450912 
L 428.0688 234.53566 
L 429.408 234.295124 
L 432.0864 233.516831 
L 436.104 232.072889 
L 440.7912 230.129242 
L 446.148 227.647966 
L 452.1744 224.591443 
L 458.8704 220.937653 
L 466.9056 216.298262 
L 472.932 212.702627 
L 474.2712 212.802556 
L 475.6104 212.454598 
L 476.9496 211.937162 
L 478.2888 212.265204 
L 479.628 212.105326 
L 481.6368 211.541174 
L 483.6456 210.829 
L 484.9848 211.229947 
L 485.6544 211.713106 
L 486.324 212.052398 
L 487.6632 212.219673 
L 489.0024 212.131475 
L 490.3416 213.676829 
L 491.0112 214.034374 
L 491.6808 214.685466 
L 492.3504 215.622992 
L 493.02 216.278537 
L 493.6896 216.673308 
L 494.3592 217.363858 
L 495.0288 218.323103 
L 495.6984 219.007914 
L 497.7072 220.381471 
L 498.3768 220.891868 
L 499.716 221.455983 
L 501.0552 221.770352 
L 502.3944 222.663225 
L 503.7336 223.064588 
L 504.4032 223.178485 
L 505.7424 224.006396 
L 507.0816 224.356848 
L 507.7512 224.44874 
L 508.4208 224.879014 
L 510.4296 228.136126 
L 511.0992 228.827983 
L 511.7688 229.221922 
L 513.108 229.608104 
L 513.7776 229.701493 
L 515.1168 230.378706 
L 515.7864 231.171589 
L 516.456 231.777071 
L 517.1256 232.120223 
L 519.804 235.38328 
L 521.1432 236.067365 
L 522.4824 236.464237 
L 523.152 236.602609 
L 523.8216 236.982025 
L 524.4912 237.548178 
L 526.5 238.800324 
L 527.8392 239.634805 
L 529.1784 240.006898 
L 529.848 240.116008 
L 531.1872 240.691657 
L 532.5264 240.919927 
L 534.5352 241.014705 
L 537.2136 240.90854 
L 540.5616 240.518895 
L 543.9096 239.902542 
L 547.9272 238.912363 
L 551.9448 237.688276 
L 556.632 236.006965 
L 561.3192 234.090655 
L 566.676 231.653616 
L 572.7024 228.644017 
L 579.3984 225.02446 
L 586.764 220.780858 
L 596.1384 215.113805 
L 602.1648 211.377378 
L 603.504 211.472619 
L 604.8432 211.115591 
L 607.5216 209.979971 
L 611.5392 207.973909 
L 613.548 206.880727 
L 614.8872 207.138833 
L 616.2264 206.948579 
L 618.2352 206.319572 
L 620.9136 205.187069 
L 622.9224 204.188128 
L 624.2616 204.537267 
L 624.9312 204.550758 
L 625.6008 205.013016 
L 626.2704 205.927123 
L 626.94 206.62602 
L 627.6096 207.05534 
L 628.9488 207.487486 
L 629.6184 207.585296 
L 630.288 208.137067 
L 630.9576 209.577286 
L 631.6272 210.690032 
L 632.2968 211.360865 
L 634.3056 212.83667 
L 634.9752 213.408288 
L 635.6448 213.775694 
L 636.984 215.051706 
L 637.6536 215.417686 
L 638.9928 218.61908 
L 639.6624 219.700282 
L 640.332 220.408535 
L 641.6712 222.048675 
L 642.3408 222.565396 
L 643.0104 223.339825 
L 643.68 224.334538 
L 644.3496 225.072887 
L 645.0192 225.547651 
L 645.6888 226.21362 
L 646.3584 226.714526 
L 648.3672 227.749215 
L 649.0368 228.484305 
L 649.7064 229.007287 
L 651.7152 230.08809 
L 652.3848 230.497204 
L 653.0544 230.761634 
L 653.724 231.266 
L 654.3936 231.971676 
L 658.4112 235.039222 
L 659.7504 236.590274 
L 660.42 237.139292 
L 661.7592 237.755939 
L 663.0984 238.114304 
L 665.1072 238.410147 
L 668.4552 238.7693 
L 669.7944 239.038763 
L 671.8032 239.055087 
L 674.4816 238.838804 
L 677.8296 238.330722 
L 681.1776 237.614495 
L 685.1952 236.522521 
L 689.2128 235.210865 
L 693.9 233.440595 
L 695.2392 233.474723 
L 696.5784 233.180034 
L 699.2568 232.294577 
L 703.2744 230.703945 
L 707.9616 228.610659 
L 713.3184 225.983722 
L 719.3448 222.792433 
L 726.7104 218.636117 
L 736.0848 213.083841 
L 742.7808 208.986907 
L 744.12 209.125534 
L 745.4592 208.810293 
L 747.468 208.020024 
L 748.8072 208.392265 
L 750.1464 208.285597 
L 752.1552 207.763356 
L 753.4944 208.290892 
L 754.8336 208.324609 
L 756.1728 208.131979 
L 757.512 208.797515 
L 758.8512 208.94635 
L 760.1904 208.857906 
L 761.5296 209.597226 
L 762.1992 209.746491 
L 763.5384 210.72435 
L 764.8776 211.086525 
L 765.5472 211.155372 
L 766.8864 212.064716 
L 768.2256 212.40864 
L 768.8952 212.478527 
L 770.2344 214.221491 
L 770.904 214.666497 
L 771.5736 214.950686 
L 774.252 217.415716 
L 775.5912 218.034626 
L 776.9304 218.370254 
L 777.6 218.895127 
L 777.6 218.895127 
" clip-path="url(#pa9d4a68e5c)" style="fill: none; stroke: #000000; stroke-width: 1.5; stroke-linecap: square"/>
   </g>
   <g id="line2d_24">
    <path d="M 108 200.613745 
L 108.6696 201.440598 
L 109.3392 176.02602 
L 110.0088 164.502149 
L 110.6784 158.228204 
L 111.348 154.233891 
L 112.0176 151.620604 
L 112.6872 149.938666 
L 113.3568 148.913398 
L 114.0264 148.359057 
L 114.696 148.152316 
L 115.3656 148.203193 
L 116.0352 148.447761 
L 117.3744 149.360271 
L 118.7136 150.622686 
L 122.0616 154.33827 
L 124.74 157.333583 
L 126.7488 159.272881 
L 128.7576 160.945325 
L 131.436 162.871161 
L 136.7928 166.472353 
L 138.132 167.879374 
L 139.4712 169.607711 
L 140.8104 171.645441 
L 142.8192 175.175611 
L 144.828 179.168764 
L 148.176 186.639785 
L 152.1936 195.590102 
L 154.2024 199.519022 
L 156.2112 202.91432 
L 158.22 205.7819 
L 160.2288 208.162011 
L 162.2376 210.104821 
L 164.2464 211.660283 
L 166.2552 212.874279 
L 168.264 213.787527 
L 170.2728 214.435552 
L 172.2816 214.849172 
L 174.2904 215.055081 
L 176.2992 215.076347 
L 178.9776 214.851596 
L 181.656 214.373956 
L 184.3344 213.67675 
L 187.6824 212.53835 
L 191.0304 211.144587 
L 194.3784 209.5317 
L 198.396 207.348838 
L 200.4048 206.320503 
L 207.7704 203.080653 
L 209.7792 202.484158 
L 213.1272 201.899326 
L 217.1448 201.125475 
L 221.1624 200.125433 
L 225.18 198.899552 
L 227.1888 198.283291 
L 228.528 198.151067 
L 229.8672 198.300162 
L 233.8848 199.113087 
L 235.224 199.576107 
L 236.5632 200.347292 
L 237.9024 201.420194 
L 239.9112 203.382292 
L 241.2504 204.979286 
L 242.5896 206.725285 
L 243.2592 180.269275 
L 243.9288 168.347588 
L 244.5984 161.918175 
L 245.268 157.800378 
L 245.9376 155.102095 
L 246.6072 153.380723 
L 247.2768 152.367152 
L 247.9464 151.888573 
L 248.616 151.81189 
L 249.2856 152.038529 
L 249.9552 152.48632 
L 251.2944 153.816614 
L 256.6512 160.260031 
L 260.6688 165.137037 
L 264.0168 169.143952 
L 266.0256 171.725059 
L 268.0344 174.721724 
L 270.7128 179.321703 
L 273.3912 184.462556 
L 278.0784 193.648587 
L 280.0872 197.122421 
L 282.096 200.17697 
L 284.7744 203.753222 
L 286.7832 206.069613 
L 288.792 208.01597 
L 290.8008 209.610518 
L 293.4792 211.350595 
L 295.488 212.478101 
L 297.4968 213.376758 
L 299.5056 214.044758 
L 301.5144 214.500574 
L 303.5232 214.764038 
L 306.2016 214.847021 
L 308.88 214.657253 
L 311.5584 214.226717 
L 314.2368 213.582879 
L 317.5848 212.513836 
L 320.9328 211.187407 
L 324.2808 209.636335 
L 328.2984 207.517198 
L 332.316 205.154602 
L 337.0032 202.135046 
L 341.6904 198.869311 
L 347.7168 194.632008 
L 355.752 190.148287 
L 357.0912 189.819703 
L 358.4304 189.824659 
L 359.7696 190.227529 
L 361.7784 191.331601 
L 363.1176 192.300115 
L 364.4568 193.544892 
L 367.8048 197.126236 
L 372.492 202.201119 
L 374.5008 204.300454 
L 376.5096 206.880536 
L 377.1792 180.399747 
L 377.8488 168.47877 
L 378.5184 162.081553 
L 379.188 157.985596 
L 379.8576 155.294595 
L 380.5272 153.586121 
L 381.1968 152.604589 
L 381.8664 152.165512 
L 382.536 152.121267 
L 383.2056 152.367938 
L 383.8752 152.825252 
L 385.2144 154.119112 
L 387.2232 156.509648 
L 389.9016 159.736616 
L 396.5976 166.914362 
L 401.2848 171.818015 
L 403.2936 174.366613 
L 405.3024 177.335709 
L 407.3112 180.854184 
L 409.9896 186.111391 
L 414.0072 194.231819 
L 416.016 197.857501 
L 418.0248 201.049683 
L 420.0336 203.790872 
L 422.0424 206.098477 
L 424.0512 208.005143 
L 426.06 209.548265 
L 428.7384 211.211724 
L 430.7472 212.280312 
L 432.756 213.119513 
L 434.7648 213.728342 
L 436.7736 214.126059 
L 438.7824 214.333061 
L 441.4608 214.343936 
L 444.1392 214.086083 
L 446.8176 213.5916 
L 449.496 212.887851 
L 452.844 211.749311 
L 456.192 210.358944 
L 459.54 208.749063 
L 463.5576 206.565627 
L 467.5752 204.145062 
L 472.2624 201.064551 
L 474.2712 199.747705 
L 476.9496 198.302704 
L 478.9584 197.433215 
L 483.6456 195.887192 
L 484.9848 195.513238 
L 486.324 195.333439 
L 488.3328 195.358181 
L 489.672 195.469101 
L 491.0112 195.813436 
L 492.3504 196.402489 
L 493.6896 197.241564 
L 495.0288 198.260291 
L 497.7072 200.722139 
L 501.7248 204.479993 
L 505.7424 207.889137 
L 510.4296 211.769233 
L 511.0992 184.183647 
L 511.7688 171.802942 
L 512.4384 165.265479 
L 513.108 161.037589 
L 513.7776 158.200757 
L 514.4472 156.344317 
L 515.1168 155.210984 
L 515.7864 154.638695 
L 516.456 154.501431 
L 517.1256 154.687664 
L 517.7952 155.127395 
L 518.4648 155.774706 
L 519.804 157.533178 
L 522.4824 161.786331 
L 525.8304 167.361277 
L 527.8392 171.217195 
L 529.848 175.535703 
L 532.5264 181.912727 
L 537.8832 195.058569 
L 539.892 199.346195 
L 541.9008 203.083429 
L 543.9096 206.266993 
L 545.9184 208.933459 
L 547.9272 211.133367 
L 549.936 212.91886 
L 551.9448 214.338551 
L 553.9536 215.435813 
L 555.9624 216.248606 
L 557.9712 216.809836 
L 559.98 217.147955 
L 561.9888 217.287545 
L 564.6672 217.201125 
L 567.3456 216.841743 
L 570.024 216.244522 
L 572.7024 215.438477 
L 576.0504 214.173502 
L 579.3984 212.657738 
L 582.7464 210.921707 
L 586.764 208.582138 
L 590.7816 205.995166 
L 595.4688 202.700851 
L 600.156 199.138717 
L 604.1736 196.05745 
L 614.8872 189.132222 
L 616.896 188.08127 
L 624.2616 184.649098 
L 625.6008 184.236443 
L 626.94 184.179036 
L 628.2792 184.498748 
L 630.288 185.34513 
L 631.6272 186.28113 
L 632.9664 187.588153 
L 635.6448 190.592769 
L 638.3232 193.886053 
L 639.6624 195.863426 
L 644.3496 203.396014 
L 645.0192 177.752093 
L 645.6888 166.273076 
L 646.3584 160.221253 
L 647.028 156.487177 
L 647.6976 154.134087 
L 648.3672 152.711168 
L 649.0368 151.95973 
L 649.7064 151.701499 
L 650.376 151.799128 
L 651.0456 152.14509 
L 652.3848 153.317719 
L 654.3936 155.629487 
L 658.4112 160.862444 
L 660.42 163.781163 
L 663.0984 168.175706 
L 666.4464 174.111272 
L 669.1248 179.300688 
L 672.4728 186.480247 
L 675.8208 193.505219 
L 677.8296 197.273939 
L 679.8384 200.590757 
L 681.8472 203.437654 
L 683.856 205.834093 
L 685.8648 207.815628 
L 687.8736 209.422466 
L 689.8824 210.693985 
L 691.8912 211.666475 
L 693.9 212.372369 
L 697.9176 213.447331 
L 699.9264 213.777829 
L 701.9352 213.933391 
L 704.6136 213.890503 
L 707.292 213.591688 
L 709.9704 213.0656 
L 712.6488 212.336501 
L 715.9968 211.171038 
L 719.3448 209.75513 
L 722.6928 208.117859 
L 726.7104 205.895538 
L 730.728 203.426197 
L 735.4152 200.272156 
L 740.1024 196.851795 
L 744.7896 193.342014 
L 748.1376 191.339014 
L 750.1464 190.430675 
L 752.8248 189.487918 
L 754.8336 189.086906 
L 756.8424 188.897243 
L 758.8512 189.012714 
L 760.86 189.320491 
L 762.8688 189.910567 
L 764.8776 190.858531 
L 766.8864 191.978348 
L 769.5648 193.707093 
L 771.5736 195.336559 
L 774.252 197.847575 
L 777.6 201.098702 
L 777.6 201.098702 
" clip-path="url(#pa9d4a68e5c)" style="fill: none; stroke: #4169e1; stroke-width: 1.5; stroke-linecap: square"/>
   </g>
   <g id="patch_3">
    <path d="M 108 256.32 
L 108 34.56 
" style="fill: none; stroke: #000000; stroke-width: 0.8; stroke-linejoin: miter; stroke-linecap: square"/>
   </g>
   <g id="patch_4">
    <path d="M 777.6 256.32 
L 777.6 34.56 
" style="fill: none; stroke: #000000; stroke-width: 0.8; stroke-linejoin: miter; stroke-linecap: square"/>
   </g>
   <g id="patch_5">
    <path d="M 108 256.32 
L 777.6 256.32 
" style="fill: none; stroke: #000000; stroke-width: 0.8; stroke-linejoin: miter; stroke-linecap: square"/>
   </g>
   <g id="patch_6">
    <path d="M 108 34.56 
L 777.6 34.56 
" style="fill: none; stroke: #000000; stroke-width: 0.8; stroke-linejoin: miter; stroke-linecap: square"/>
   </g>
   <g id="legend_1">
    <g id="patch_7">
     <path d="M 695.098438 71.91625 
L 770.6 71.91625 
Q 772.6 71.91625 772.6 69.91625 
L 772.6 41.56 
Q 772.6 39.56 770.6 39.56 
L 695.098438 39.56 
Q 693.098438 39.56 693.098438 41.56 
L 693.098438 69.91625 
Q 693.098438 71.91625 695.098438 71.91625 
z
" style="fill: #ffffff; opacity: 0.8; stroke: #cccccc; stroke-linejoin: miter"/>
    </g>
    <g id="line2d_25">
     <path d="M 697.098438 47.658437 
L 707.098438 47.658437 
L 717.098438 47.658437 
" style="fill: none; stroke: #000000; stroke-width: 1.5; stroke-linecap: square"/>
    </g>
    <g id="text_14">
     <!-- Soma -->
     <g transform="translate(725.098438 51.158437) scale(0.1 -0.1)">
      <defs>
       <path id="DejaVuSans-53" d="M 3425 4513 
L 3425 3897 
Q 3066 4069 2747 4153 
Q 2428 4238 2131 4238 
Q 1616 4238 1336 4038 
Q 1056 3838 1056 3469 
Q 1056 3159 1242 3001 
Q 1428 2844 1947 2747 
L 2328 2669 
Q 3034 2534 3370 2195 
Q 3706 1856 3706 1288 
Q 3706 609 3251 259 
Q 2797 -91 1919 -91 
Q 1588 -91 1214 -16 
Q 841 59 441 206 
L 441 856 
Q 825 641 1194 531 
Q 1563 422 1919 422 
Q 2459 422 2753 634 
Q 3047 847 3047 1241 
Q 3047 1584 2836 1778 
Q 2625 1972 2144 2069 
L 1759 2144 
Q 1053 2284 737 2584 
Q 422 2884 422 3419 
Q 422 4038 858 4394 
Q 1294 4750 2059 4750 
Q 2388 4750 2728 4690 
Q 3069 4631 3425 4513 
z
" transform="scale(0.015625)"/>
       <path id="DejaVuSans-6f" d="M 1959 3097 
Q 1497 3097 1228 2736 
Q 959 2375 959 1747 
Q 959 1119 1226 758 
Q 1494 397 1959 397 
Q 2419 397 2687 759 
Q 2956 1122 2956 1747 
Q 2956 2369 2687 2733 
Q 2419 3097 1959 3097 
z
M 1959 3584 
Q 2709 3584 3137 3096 
Q 3566 2609 3566 1747 
Q 3566 888 3137 398 
Q 2709 -91 1959 -91 
Q 1206 -91 779 398 
Q 353 888 353 1747 
Q 353 2609 779 3096 
Q 1206 3584 1959 3584 
z
" transform="scale(0.015625)"/>
       <path id="DejaVuSans-61" d="M 2194 1759 
Q 1497 1759 1228 1600 
Q 959 1441 959 1056 
Q 959 750 1161 570 
Q 1363 391 1709 391 
Q 2188 391 2477 730 
Q 2766 1069 2766 1631 
L 2766 1759 
L 2194 1759 
z
M 3341 1997 
L 3341 0 
L 2766 0 
L 2766 531 
Q 2569 213 2275 61 
Q 1981 -91 1556 -91 
Q 1019 -91 701 211 
Q 384 513 384 1019 
Q 384 1609 779 1909 
Q 1175 2209 1959 2209 
L 2766 2209 
L 2766 2266 
Q 2766 2663 2505 2880 
Q 2244 3097 1772 3097 
Q 1472 3097 1187 3025 
Q 903 2953 641 2809 
L 641 3341 
Q 956 3463 1253 3523 
Q 1550 3584 1831 3584 
Q 2591 3584 2966 3190 
Q 3341 2797 3341 1997 
z
" transform="scale(0.015625)"/>
      </defs>
      <use xlink:href="#DejaVuSans-53"/>
      <use xlink:href="#DejaVuSans-6f" x="63.476562"/>
      <use xlink:href="#DejaVuSans-6d" x="124.658203"/>
      <use xlink:href="#DejaVuSans-61" x="222.070312"/>
     </g>
    </g>
    <g id="line2d_26">
     <path d="M 697.098438 62.336562 
L 707.098438 62.336562 
L 717.098438 62.336562 
" style="fill: none; stroke: #4169e1; stroke-width: 1.5; stroke-linecap: square"/>
    </g>
    <g id="text_15">
     <!-- Dendrite -->
     <g transform="translate(725.098438 65.836562) scale(0.1 -0.1)">
      <defs>
       <path id="DejaVuSans-44" d="M 1259 4147 
L 1259 519 
L 2022 519 
Q 2988 519 3436 956 
Q 3884 1394 3884 2338 
Q 3884 3275 3436 3711 
Q 2988 4147 2022 4147 
L 1259 4147 
z
M 628 4666 
L 1925 4666 
Q 3281 4666 3915 4102 
Q 4550 3538 4550 2338 
Q 4550 1131 3912 565 
Q 3275 0 1925 0 
L 628 0 
L 628 4666 
z
" transform="scale(0.015625)"/>
       <path id="DejaVuSans-6e" d="M 3513 2113 
L 3513 0 
L 2938 0 
L 2938 2094 
Q 2938 2591 2744 2837 
Q 2550 3084 2163 3084 
Q 1697 3084 1428 2787 
Q 1159 2491 1159 1978 
L 1159 0 
L 581 0 
L 581 3500 
L 1159 3500 
L 1159 2956 
Q 1366 3272 1645 3428 
Q 1925 3584 2291 3584 
Q 2894 3584 3203 3211 
Q 3513 2838 3513 2113 
z
" transform="scale(0.015625)"/>
       <path id="DejaVuSans-64" d="M 2906 2969 
L 2906 4863 
L 3481 4863 
L 3481 0 
L 2906 0 
L 2906 525 
Q 2725 213 2448 61 
Q 2172 -91 1784 -91 
Q 1150 -91 751 415 
Q 353 922 353 1747 
Q 353 2572 751 3078 
Q 1150 3584 1784 3584 
Q 2172 3584 2448 3432 
Q 2725 3281 2906 2969 
z
M 947 1747 
Q 947 1113 1208 752 
Q 1469 391 1925 391 
Q 2381 391 2643 752 
Q 2906 1113 2906 1747 
Q 2906 2381 2643 2742 
Q 2381 3103 1925 3103 
Q 1469 3103 1208 2742 
Q 947 2381 947 1747 
z
" transform="scale(0.015625)"/>
       <path id="DejaVuSans-72" d="M 2631 2963 
Q 2534 3019 2420 3045 
Q 2306 3072 2169 3072 
Q 1681 3072 1420 2755 
Q 1159 2438 1159 1844 
L 1159 0 
L 581 0 
L 581 3500 
L 1159 3500 
L 1159 2956 
Q 1341 3275 1631 3429 
Q 1922 3584 2338 3584 
Q 2397 3584 2469 3576 
Q 2541 3569 2628 3553 
L 2631 2963 
z
" transform="scale(0.015625)"/>
       <path id="DejaVuSans-74" d="M 1172 4494 
L 1172 3500 
L 2356 3500 
L 2356 3053 
L 1172 3053 
L 1172 1153 
Q 1172 725 1289 603 
Q 1406 481 1766 481 
L 2356 481 
L 2356 0 
L 1766 0 
Q 1100 0 847 248 
Q 594 497 594 1153 
L 594 3053 
L 172 3053 
L 172 3500 
L 594 3500 
L 594 4494 
L 1172 4494 
z
" transform="scale(0.015625)"/>
      </defs>
      <use xlink:href="#DejaVuSans-44"/>
      <use xlink:href="#DejaVuSans-65" x="77.001953"/>
      <use xlink:href="#DejaVuSans-6e" x="138.525391"/>
      <use xlink:href="#DejaVuSans-64" x="201.904297"/>
      <use xlink:href="#DejaVuSans-72" x="265.380859"/>
      <use xlink:href="#DejaVuSans-69" x="306.494141"/>
      <use xlink:href="#DejaVuSans-74" x="334.277344"/>
      <use xlink:href="#DejaVuSans-65" x="373.486328"/>
     </g>
    </g>
   </g>
  </g>
 </g>
 <defs>
  <clipPath id="pa9d4a68e5c">
   <rect x="108" y="34.56" width="669.6" height="221.76"/>
  </clipPath>
 </defs>
</svg>
