<?xml version="1.0" encoding="utf-8" standalone="no"?>
<!DOCTYPE svg PUBLIC "-//W3C//DTD SVG 1.1//EN"
  "http://www.w3.org/Graphics/SVG/1.1/DTD/svg11.dtd">
<svg xmlns:xlink="http://www.w3.org/1999/xlink" width="864pt" height="288pt" viewBox="0 0 864 288" xmlns="http://www.w3.org/2000/svg" version="1.1">
 <metadata>
  <rdf:RDF xmlns:dc="http://purl.org/dc/elements/1.1/" xmlns:cc="http://creativecommons.org/ns#" xmlns:rdf="http://www.w3.org/1999/02/22-rdf-syntax-ns#">
   <cc:Work>
    <dc:type rdf:resource="http://purl.org/dc/dcmitype/StillImage"/>
    <dc:date>2024-04-23T19:16:53.223138</dc:date>
    <dc:format>image/svg+xml</dc:format>
    <dc:creator>
     <cc:Agent>
      <dc:title>Matplotlib v3.8.2, https://matplotlib.org/</dc:title>
     </cc:Agent>
    </dc:creator>
   </cc:Work>
  </rdf:RDF>
 </metadata>
 <defs>
  <style type="text/css">*{stroke-linejoin: round; stroke-linecap: butt}</style>
 </defs>
 <g id="figure_1">
  <g id="patch_1">
   <path d="M 0 288 
L 864 288 
L 864 0 
L 0 0 
z
" style="fill: #ffffff"/>
  </g>
  <g id="axes_1">
   <g id="patch_2">
    <path d="M 108 256.32 
L 777.6 256.32 
L 777.6 34.56 
L 108 34.56 
z
" style="fill: #ffffff"/>
   </g>
   <g id="matplotlib.axis_1">
    <g id="xtick_1">
     <g id="line2d_1">
      <path d="M 108 256.32 
L 108 34.56 
" clip-path="url(#pbeef663990)" style="fill: none; stroke: #b0b0b0; stroke-width: 0.8; stroke-linecap: square"/>
     </g>
     <g id="line2d_2">
      <defs>
       <path id="m6ff8866c7b" d="M 0 0 
L 0 3.5 
" style="stroke: #000000; stroke-width: 0.8"/>
      </defs>
      <g>
       <use xlink:href="#m6ff8866c7b" x="108" y="256.32" style="stroke: #000000; stroke-width: 0.8"/>
      </g>
     </g>
     <g id="text_1">
      <!-- 100 -->
      <g transform="translate(94.63875 273.957812) scale(0.14 -0.14)">
       <defs>
        <path id="DejaVuSans-31" d="M 794 531 
L 1825 531 
L 1825 4091 
L 703 3866 
L 703 4441 
L 1819 4666 
L 2450 4666 
L 2450 531 
L 3481 531 
L 3481 0 
L 794 0 
L 794 531 
z
" transform="scale(0.015625)"/>
        <path id="DejaVuSans-30" d="M 2034 4250 
Q 1547 4250 1301 3770 
Q 1056 3291 1056 2328 
Q 1056 1369 1301 889 
Q 1547 409 2034 409 
Q 2525 409 2770 889 
Q 3016 1369 3016 2328 
Q 3016 3291 2770 3770 
Q 2525 4250 2034 4250 
z
M 2034 4750 
Q 2819 4750 3233 4129 
Q 3647 3509 3647 2328 
Q 3647 1150 3233 529 
Q 2819 -91 2034 -91 
Q 1250 -91 836 529 
Q 422 1150 422 2328 
Q 422 3509 836 4129 
Q 1250 4750 2034 4750 
z
" transform="scale(0.015625)"/>
       </defs>
       <use xlink:href="#DejaVuSans-31"/>
       <use xlink:href="#DejaVuSans-30" x="63.623047"/>
       <use xlink:href="#DejaVuSans-30" x="127.246094"/>
      </g>
     </g>
    </g>
    <g id="xtick_2">
     <g id="line2d_3">
      <path d="M 241.92 256.32 
L 241.92 34.56 
" clip-path="url(#pbeef663990)" style="fill: none; stroke: #b0b0b0; stroke-width: 0.8; stroke-linecap: square"/>
     </g>
     <g id="line2d_4">
      <g>
       <use xlink:href="#m6ff8866c7b" x="241.92" y="256.32" style="stroke: #000000; stroke-width: 0.8"/>
      </g>
     </g>
     <g id="text_2">
      <!-- 120 -->
      <g transform="translate(228.55875 273.957812) scale(0.14 -0.14)">
       <defs>
        <path id="DejaVuSans-32" d="M 1228 531 
L 3431 531 
L 3431 0 
L 469 0 
L 469 531 
Q 828 903 1448 1529 
Q 2069 2156 2228 2338 
Q 2531 2678 2651 2914 
Q 2772 3150 2772 3378 
Q 2772 3750 2511 3984 
Q 2250 4219 1831 4219 
Q 1534 4219 1204 4116 
Q 875 4013 500 3803 
L 500 4441 
Q 881 4594 1212 4672 
Q 1544 4750 1819 4750 
Q 2544 4750 2975 4387 
Q 3406 4025 3406 3419 
Q 3406 3131 3298 2873 
Q 3191 2616 2906 2266 
Q 2828 2175 2409 1742 
Q 1991 1309 1228 531 
z
" transform="scale(0.015625)"/>
       </defs>
       <use xlink:href="#DejaVuSans-31"/>
       <use xlink:href="#DejaVuSans-32" x="63.623047"/>
       <use xlink:href="#DejaVuSans-30" x="127.246094"/>
      </g>
     </g>
    </g>
    <g id="xtick_3">
     <g id="line2d_5">
      <path d="M 375.84 256.32 
L 375.84 34.56 
" clip-path="url(#pbeef663990)" style="fill: none; stroke: #b0b0b0; stroke-width: 0.8; stroke-linecap: square"/>
     </g>
     <g id="line2d_6">
      <g>
       <use xlink:href="#m6ff8866c7b" x="375.84" y="256.32" style="stroke: #000000; stroke-width: 0.8"/>
      </g>
     </g>
     <g id="text_3">
      <!-- 140 -->
      <g transform="translate(362.47875 273.957812) scale(0.14 -0.14)">
       <defs>
        <path id="DejaVuSans-34" d="M 2419 4116 
L 825 1625 
L 2419 1625 
L 2419 4116 
z
M 2253 4666 
L 3047 4666 
L 3047 1625 
L 3713 1625 
L 3713 1100 
L 3047 1100 
L 3047 0 
L 2419 0 
L 2419 1100 
L 313 1100 
L 313 1709 
L 2253 4666 
z
" transform="scale(0.015625)"/>
       </defs>
       <use xlink:href="#DejaVuSans-31"/>
       <use xlink:href="#DejaVuSans-34" x="63.623047"/>
       <use xlink:href="#DejaVuSans-30" x="127.246094"/>
      </g>
     </g>
    </g>
    <g id="xtick_4">
     <g id="line2d_7">
      <path d="M 509.76 256.32 
L 509.76 34.56 
" clip-path="url(#pbeef663990)" style="fill: none; stroke: #b0b0b0; stroke-width: 0.8; stroke-linecap: square"/>
     </g>
     <g id="line2d_8">
      <g>
       <use xlink:href="#m6ff8866c7b" x="509.76" y="256.32" style="stroke: #000000; stroke-width: 0.8"/>
      </g>
     </g>
     <g id="text_4">
      <!-- 160 -->
      <g transform="translate(496.39875 273.957812) scale(0.14 -0.14)">
       <defs>
        <path id="DejaVuSans-36" d="M 2113 2584 
Q 1688 2584 1439 2293 
Q 1191 2003 1191 1497 
Q 1191 994 1439 701 
Q 1688 409 2113 409 
Q 2538 409 2786 701 
Q 3034 994 3034 1497 
Q 3034 2003 2786 2293 
Q 2538 2584 2113 2584 
z
M 3366 4563 
L 3366 3988 
Q 3128 4100 2886 4159 
Q 2644 4219 2406 4219 
Q 1781 4219 1451 3797 
Q 1122 3375 1075 2522 
Q 1259 2794 1537 2939 
Q 1816 3084 2150 3084 
Q 2853 3084 3261 2657 
Q 3669 2231 3669 1497 
Q 3669 778 3244 343 
Q 2819 -91 2113 -91 
Q 1303 -91 875 529 
Q 447 1150 447 2328 
Q 447 3434 972 4092 
Q 1497 4750 2381 4750 
Q 2619 4750 2861 4703 
Q 3103 4656 3366 4563 
z
" transform="scale(0.015625)"/>
       </defs>
       <use xlink:href="#DejaVuSans-31"/>
       <use xlink:href="#DejaVuSans-36" x="63.623047"/>
       <use xlink:href="#DejaVuSans-30" x="127.246094"/>
      </g>
     </g>
    </g>
    <g id="xtick_5">
     <g id="line2d_9">
      <path d="M 643.68 256.32 
L 643.68 34.56 
" clip-path="url(#pbeef663990)" style="fill: none; stroke: #b0b0b0; stroke-width: 0.8; stroke-linecap: square"/>
     </g>
     <g id="line2d_10">
      <g>
       <use xlink:href="#m6ff8866c7b" x="643.68" y="256.32" style="stroke: #000000; stroke-width: 0.8"/>
      </g>
     </g>
     <g id="text_5">
      <!-- 180 -->
      <g transform="translate(630.31875 273.957812) scale(0.14 -0.14)">
       <defs>
        <path id="DejaVuSans-38" d="M 2034 2216 
Q 1584 2216 1326 1975 
Q 1069 1734 1069 1313 
Q 1069 891 1326 650 
Q 1584 409 2034 409 
Q 2484 409 2743 651 
Q 3003 894 3003 1313 
Q 3003 1734 2745 1975 
Q 2488 2216 2034 2216 
z
M 1403 2484 
Q 997 2584 770 2862 
Q 544 3141 544 3541 
Q 544 4100 942 4425 
Q 1341 4750 2034 4750 
Q 2731 4750 3128 4425 
Q 3525 4100 3525 3541 
Q 3525 3141 3298 2862 
Q 3072 2584 2669 2484 
Q 3125 2378 3379 2068 
Q 3634 1759 3634 1313 
Q 3634 634 3220 271 
Q 2806 -91 2034 -91 
Q 1263 -91 848 271 
Q 434 634 434 1313 
Q 434 1759 690 2068 
Q 947 2378 1403 2484 
z
M 1172 3481 
Q 1172 3119 1398 2916 
Q 1625 2713 2034 2713 
Q 2441 2713 2670 2916 
Q 2900 3119 2900 3481 
Q 2900 3844 2670 4047 
Q 2441 4250 2034 4250 
Q 1625 4250 1398 4047 
Q 1172 3844 1172 3481 
z
" transform="scale(0.015625)"/>
       </defs>
       <use xlink:href="#DejaVuSans-31"/>
       <use xlink:href="#DejaVuSans-38" x="63.623047"/>
       <use xlink:href="#DejaVuSans-30" x="127.246094"/>
      </g>
     </g>
    </g>
    <g id="xtick_6">
     <g id="line2d_11">
      <path d="M 777.6 256.32 
L 777.6 34.56 
" clip-path="url(#pbeef663990)" style="fill: none; stroke: #b0b0b0; stroke-width: 0.8; stroke-linecap: square"/>
     </g>
     <g id="line2d_12">
      <g>
       <use xlink:href="#m6ff8866c7b" x="777.6" y="256.32" style="stroke: #000000; stroke-width: 0.8"/>
      </g>
     </g>
     <g id="text_6">
      <!-- 200 -->
      <g transform="translate(764.23875 273.957812) scale(0.14 -0.14)">
       <use xlink:href="#DejaVuSans-32"/>
       <use xlink:href="#DejaVuSans-30" x="63.623047"/>
       <use xlink:href="#DejaVuSans-30" x="127.246094"/>
      </g>
     </g>
    </g>
    <g id="text_7">
     <!-- Time (ms) -->
     <g transform="translate(407.521094 291.507187) scale(0.14 -0.14)">
      <defs>
       <path id="DejaVuSans-54" d="M -19 4666 
L 3928 4666 
L 3928 4134 
L 2272 4134 
L 2272 0 
L 1638 0 
L 1638 4134 
L -19 4134 
L -19 4666 
z
" transform="scale(0.015625)"/>
       <path id="DejaVuSans-69" d="M 603 3500 
L 1178 3500 
L 1178 0 
L 603 0 
L 603 3500 
z
M 603 4863 
L 1178 4863 
L 1178 4134 
L 603 4134 
L 603 4863 
z
" transform="scale(0.015625)"/>
       <path id="DejaVuSans-6d" d="M 3328 2828 
Q 3544 3216 3844 3400 
Q 4144 3584 4550 3584 
Q 5097 3584 5394 3201 
Q 5691 2819 5691 2113 
L 5691 0 
L 5113 0 
L 5113 2094 
Q 5113 2597 4934 2840 
Q 4756 3084 4391 3084 
Q 3944 3084 3684 2787 
Q 3425 2491 3425 1978 
L 3425 0 
L 2847 0 
L 2847 2094 
Q 2847 2600 2669 2842 
Q 2491 3084 2119 3084 
Q 1678 3084 1418 2786 
Q 1159 2488 1159 1978 
L 1159 0 
L 581 0 
L 581 3500 
L 1159 3500 
L 1159 2956 
Q 1356 3278 1631 3431 
Q 1906 3584 2284 3584 
Q 2666 3584 2933 3390 
Q 3200 3197 3328 2828 
z
" transform="scale(0.015625)"/>
       <path id="DejaVuSans-65" d="M 3597 1894 
L 3597 1613 
L 953 1613 
Q 991 1019 1311 708 
Q 1631 397 2203 397 
Q 2534 397 2845 478 
Q 3156 559 3463 722 
L 3463 178 
Q 3153 47 2828 -22 
Q 2503 -91 2169 -91 
Q 1331 -91 842 396 
Q 353 884 353 1716 
Q 353 2575 817 3079 
Q 1281 3584 2069 3584 
Q 2775 3584 3186 3129 
Q 3597 2675 3597 1894 
z
M 3022 2063 
Q 3016 2534 2758 2815 
Q 2500 3097 2075 3097 
Q 1594 3097 1305 2825 
Q 1016 2553 972 2059 
L 3022 2063 
z
" transform="scale(0.015625)"/>
       <path id="DejaVuSans-20" transform="scale(0.015625)"/>
       <path id="DejaVuSans-28" d="M 1984 4856 
Q 1566 4138 1362 3434 
Q 1159 2731 1159 2009 
Q 1159 1288 1364 580 
Q 1569 -128 1984 -844 
L 1484 -844 
Q 1016 -109 783 600 
Q 550 1309 550 2009 
Q 550 2706 781 3412 
Q 1013 4119 1484 4856 
L 1984 4856 
z
" transform="scale(0.015625)"/>
       <path id="DejaVuSans-73" d="M 2834 3397 
L 2834 2853 
Q 2591 2978 2328 3040 
Q 2066 3103 1784 3103 
Q 1356 3103 1142 2972 
Q 928 2841 928 2578 
Q 928 2378 1081 2264 
Q 1234 2150 1697 2047 
L 1894 2003 
Q 2506 1872 2764 1633 
Q 3022 1394 3022 966 
Q 3022 478 2636 193 
Q 2250 -91 1575 -91 
Q 1294 -91 989 -36 
Q 684 19 347 128 
L 347 722 
Q 666 556 975 473 
Q 1284 391 1588 391 
Q 1994 391 2212 530 
Q 2431 669 2431 922 
Q 2431 1156 2273 1281 
Q 2116 1406 1581 1522 
L 1381 1569 
Q 847 1681 609 1914 
Q 372 2147 372 2553 
Q 372 3047 722 3315 
Q 1072 3584 1716 3584 
Q 2034 3584 2315 3537 
Q 2597 3491 2834 3397 
z
" transform="scale(0.015625)"/>
       <path id="DejaVuSans-29" d="M 513 4856 
L 1013 4856 
Q 1481 4119 1714 3412 
Q 1947 2706 1947 2009 
Q 1947 1309 1714 600 
Q 1481 -109 1013 -844 
L 513 -844 
Q 928 -128 1133 580 
Q 1338 1288 1338 2009 
Q 1338 2731 1133 3434 
Q 928 4138 513 4856 
z
" transform="scale(0.015625)"/>
      </defs>
      <use xlink:href="#DejaVuSans-54"/>
      <use xlink:href="#DejaVuSans-69" x="57.958984"/>
      <use xlink:href="#DejaVuSans-6d" x="85.742188"/>
      <use xlink:href="#DejaVuSans-65" x="183.154297"/>
      <use xlink:href="#DejaVuSans-20" x="244.677734"/>
      <use xlink:href="#DejaVuSans-28" x="276.464844"/>
      <use xlink:href="#DejaVuSans-6d" x="315.478516"/>
      <use xlink:href="#DejaVuSans-73" x="412.890625"/>
      <use xlink:href="#DejaVuSans-29" x="464.990234"/>
     </g>
    </g>
   </g>
   <g id="matplotlib.axis_2">
    <g id="ytick_1">
     <g id="line2d_13">
      <path d="M 108 246.24 
L 777.6 246.24 
" clip-path="url(#pbeef663990)" style="fill: none; stroke: #b0b0b0; stroke-width: 0.8; stroke-linecap: square"/>
     </g>
     <g id="line2d_14">
      <defs>
       <path id="m27a2bab6c7" d="M 0 0 
L -3.5 0 
" style="stroke: #000000; stroke-width: 0.8"/>
      </defs>
      <g>
       <use xlink:href="#m27a2bab6c7" x="108" y="246.24" style="stroke: #000000; stroke-width: 0.8"/>
      </g>
     </g>
     <g id="text_8">
      <!-- 0.00 -->
      <g transform="translate(69.828125 251.558906) scale(0.14 -0.14)">
       <defs>
        <path id="DejaVuSans-2e" d="M 684 794 
L 1344 794 
L 1344 0 
L 684 0 
L 684 794 
z
" transform="scale(0.015625)"/>
       </defs>
       <use xlink:href="#DejaVuSans-30"/>
       <use xlink:href="#DejaVuSans-2e" x="63.623047"/>
       <use xlink:href="#DejaVuSans-30" x="95.410156"/>
       <use xlink:href="#DejaVuSans-30" x="159.033203"/>
      </g>
     </g>
    </g>
    <g id="ytick_2">
     <g id="line2d_15">
      <path d="M 108 207.733723 
L 777.6 207.733723 
" clip-path="url(#pbeef663990)" style="fill: none; stroke: #b0b0b0; stroke-width: 0.8; stroke-linecap: square"/>
     </g>
     <g id="line2d_16">
      <g>
       <use xlink:href="#m27a2bab6c7" x="108" y="207.733723" style="stroke: #000000; stroke-width: 0.8"/>
      </g>
     </g>
     <g id="text_9">
      <!-- 0.05 -->
      <g transform="translate(69.828125 213.052629) scale(0.14 -0.14)">
       <defs>
        <path id="DejaVuSans-35" d="M 691 4666 
L 3169 4666 
L 3169 4134 
L 1269 4134 
L 1269 2991 
Q 1406 3038 1543 3061 
Q 1681 3084 1819 3084 
Q 2600 3084 3056 2656 
Q 3513 2228 3513 1497 
Q 3513 744 3044 326 
Q 2575 -91 1722 -91 
Q 1428 -91 1123 -41 
Q 819 9 494 109 
L 494 744 
Q 775 591 1075 516 
Q 1375 441 1709 441 
Q 2250 441 2565 725 
Q 2881 1009 2881 1497 
Q 2881 1984 2565 2268 
Q 2250 2553 1709 2553 
Q 1456 2553 1204 2497 
Q 953 2441 691 2322 
L 691 4666 
z
" transform="scale(0.015625)"/>
       </defs>
       <use xlink:href="#DejaVuSans-30"/>
       <use xlink:href="#DejaVuSans-2e" x="63.623047"/>
       <use xlink:href="#DejaVuSans-30" x="95.410156"/>
       <use xlink:href="#DejaVuSans-35" x="159.033203"/>
      </g>
     </g>
    </g>
    <g id="ytick_3">
     <g id="line2d_17">
      <path d="M 108 169.227446 
L 777.6 169.227446 
" clip-path="url(#pbeef663990)" style="fill: none; stroke: #b0b0b0; stroke-width: 0.8; stroke-linecap: square"/>
     </g>
     <g id="line2d_18">
      <g>
       <use xlink:href="#m27a2bab6c7" x="108" y="169.227446" style="stroke: #000000; stroke-width: 0.8"/>
      </g>
     </g>
     <g id="text_10">
      <!-- 0.10 -->
      <g transform="translate(69.828125 174.546352) scale(0.14 -0.14)">
       <use xlink:href="#DejaVuSans-30"/>
       <use xlink:href="#DejaVuSans-2e" x="63.623047"/>
       <use xlink:href="#DejaVuSans-31" x="95.410156"/>
       <use xlink:href="#DejaVuSans-30" x="159.033203"/>
      </g>
     </g>
    </g>
    <g id="ytick_4">
     <g id="line2d_19">
      <path d="M 108 130.721169 
L 777.6 130.721169 
" clip-path="url(#pbeef663990)" style="fill: none; stroke: #b0b0b0; stroke-width: 0.8; stroke-linecap: square"/>
     </g>
     <g id="line2d_20">
      <g>
       <use xlink:href="#m27a2bab6c7" x="108" y="130.721169" style="stroke: #000000; stroke-width: 0.8"/>
      </g>
     </g>
     <g id="text_11">
      <!-- 0.15 -->
      <g transform="translate(69.828125 136.040075) scale(0.14 -0.14)">
       <use xlink:href="#DejaVuSans-30"/>
       <use xlink:href="#DejaVuSans-2e" x="63.623047"/>
       <use xlink:href="#DejaVuSans-31" x="95.410156"/>
       <use xlink:href="#DejaVuSans-35" x="159.033203"/>
      </g>
     </g>
    </g>
    <g id="ytick_5">
     <g id="line2d_21">
      <path d="M 108 92.214892 
L 777.6 92.214892 
" clip-path="url(#pbeef663990)" style="fill: none; stroke: #b0b0b0; stroke-width: 0.8; stroke-linecap: square"/>
     </g>
     <g id="line2d_22">
      <g>
       <use xlink:href="#m27a2bab6c7" x="108" y="92.214892" style="stroke: #000000; stroke-width: 0.8"/>
      </g>
     </g>
     <g id="text_12">
      <!-- 0.20 -->
      <g transform="translate(69.828125 97.533798) scale(0.14 -0.14)">
       <use xlink:href="#DejaVuSans-30"/>
       <use xlink:href="#DejaVuSans-2e" x="63.623047"/>
       <use xlink:href="#DejaVuSans-32" x="95.410156"/>
       <use xlink:href="#DejaVuSans-30" x="159.033203"/>
      </g>
     </g>
    </g>
    <g id="ytick_6">
     <g id="line2d_23">
      <path d="M 108 53.708615 
L 777.6 53.708615 
" clip-path="url(#pbeef663990)" style="fill: none; stroke: #b0b0b0; stroke-width: 0.8; stroke-linecap: square"/>
     </g>
     <g id="line2d_24">
      <g>
       <use xlink:href="#m27a2bab6c7" x="108" y="53.708615" style="stroke: #000000; stroke-width: 0.8"/>
      </g>
     </g>
     <g id="text_13">
      <!-- 0.25 -->
      <g transform="translate(69.828125 59.027521) scale(0.14 -0.14)">
       <use xlink:href="#DejaVuSans-30"/>
       <use xlink:href="#DejaVuSans-2e" x="63.623047"/>
       <use xlink:href="#DejaVuSans-32" x="95.410156"/>
       <use xlink:href="#DejaVuSans-35" x="159.033203"/>
      </g>
     </g>
    </g>
    <g id="text_14">
     <!-- $g_{Inhib}$ (µS) -->
     <g transform="translate(62.888125 178.83) rotate(-90) scale(0.14 -0.14)">
      <defs>
       <path id="DejaVuSans-Oblique-67" d="M 3816 3500 
L 3219 434 
Q 3047 -456 2561 -893 
Q 2075 -1331 1253 -1331 
Q 950 -1331 690 -1286 
Q 431 -1241 206 -1147 
L 313 -588 
Q 525 -725 762 -790 
Q 1000 -856 1269 -856 
Q 1816 -856 2167 -557 
Q 2519 -259 2631 300 
L 2681 563 
Q 2441 288 2122 144 
Q 1803 0 1434 0 
Q 903 0 598 351 
Q 294 703 294 1319 
Q 294 1803 478 2267 
Q 663 2731 997 3091 
Q 1219 3328 1514 3456 
Q 1809 3584 2131 3584 
Q 2484 3584 2746 3420 
Q 3009 3256 3138 2956 
L 3238 3500 
L 3816 3500 
z
M 2950 2216 
Q 2950 2641 2750 2872 
Q 2550 3103 2181 3103 
Q 1953 3103 1747 3012 
Q 1541 2922 1394 2759 
Q 1156 2491 1023 2127 
Q 891 1763 891 1375 
Q 891 944 1092 712 
Q 1294 481 1672 481 
Q 2219 481 2584 976 
Q 2950 1472 2950 2216 
z
" transform="scale(0.015625)"/>
       <path id="DejaVuSans-Oblique-49" d="M 1081 4666 
L 1716 4666 
L 806 0 
L 172 0 
L 1081 4666 
z
" transform="scale(0.015625)"/>
       <path id="DejaVuSans-Oblique-6e" d="M 3566 2113 
L 3156 0 
L 2578 0 
L 2988 2091 
Q 3016 2238 3031 2350 
Q 3047 2463 3047 2528 
Q 3047 2791 2881 2937 
Q 2716 3084 2419 3084 
Q 1956 3084 1622 2776 
Q 1288 2469 1184 1941 
L 800 0 
L 225 0 
L 903 3500 
L 1478 3500 
L 1363 2950 
Q 1603 3253 1940 3418 
Q 2278 3584 2650 3584 
Q 3113 3584 3367 3334 
Q 3622 3084 3622 2631 
Q 3622 2519 3608 2391 
Q 3594 2263 3566 2113 
z
" transform="scale(0.015625)"/>
       <path id="DejaVuSans-Oblique-68" d="M 3566 2113 
L 3156 0 
L 2578 0 
L 2988 2091 
Q 3016 2238 3031 2350 
Q 3047 2463 3047 2528 
Q 3047 2791 2881 2937 
Q 2716 3084 2419 3084 
Q 1956 3084 1617 2771 
Q 1278 2459 1178 1941 
L 800 0 
L 225 0 
L 1172 4863 
L 1747 4863 
L 1375 2950 
Q 1594 3244 1934 3414 
Q 2275 3584 2650 3584 
Q 3113 3584 3367 3334 
Q 3622 3084 3622 2631 
Q 3622 2519 3608 2391 
Q 3594 2263 3566 2113 
z
" transform="scale(0.015625)"/>
       <path id="DejaVuSans-Oblique-69" d="M 1172 4863 
L 1747 4863 
L 1606 4134 
L 1031 4134 
L 1172 4863 
z
M 909 3500 
L 1484 3500 
L 800 0 
L 225 0 
L 909 3500 
z
" transform="scale(0.015625)"/>
       <path id="DejaVuSans-Oblique-62" d="M 3169 2138 
Q 3169 2591 2961 2847 
Q 2753 3103 2388 3103 
Q 2122 3103 1889 2973 
Q 1656 2844 1484 2597 
Q 1303 2338 1198 1995 
Q 1094 1653 1094 1313 
Q 1094 881 1298 636 
Q 1503 391 1863 391 
Q 2134 391 2365 517 
Q 2597 644 2772 891 
Q 2950 1147 3059 1487 
Q 3169 1828 3169 2138 
z
M 1381 2969 
Q 1594 3256 1914 3420 
Q 2234 3584 2584 3584 
Q 3122 3584 3439 3221 
Q 3756 2859 3756 2241 
Q 3756 1734 3570 1259 
Q 3384 784 3041 416 
Q 2816 172 2522 40 
Q 2228 -91 1906 -91 
Q 1566 -91 1316 65 
Q 1066 222 909 531 
L 806 0 
L 231 0 
L 1178 4863 
L 1753 4863 
L 1381 2969 
z
" transform="scale(0.015625)"/>
       <path id="DejaVuSans-b5" d="M 544 -1331 
L 544 3500 
L 1119 3500 
L 1119 1325 
Q 1119 872 1334 640 
Q 1550 409 1972 409 
Q 2434 409 2667 671 
Q 2900 934 2900 1459 
L 2900 3500 
L 3475 3500 
L 3475 806 
Q 3475 619 3529 530 
Q 3584 441 3700 441 
Q 3728 441 3778 458 
Q 3828 475 3916 513 
L 3916 50 
Q 3788 -22 3673 -56 
Q 3559 -91 3450 -91 
Q 3234 -91 3106 31 
Q 2978 153 2931 403 
Q 2775 156 2548 32 
Q 2322 -91 2016 -91 
Q 1697 -91 1473 31 
Q 1250 153 1119 397 
L 1119 -1331 
L 544 -1331 
z
" transform="scale(0.015625)"/>
       <path id="DejaVuSans-53" d="M 3425 4513 
L 3425 3897 
Q 3066 4069 2747 4153 
Q 2428 4238 2131 4238 
Q 1616 4238 1336 4038 
Q 1056 3838 1056 3469 
Q 1056 3159 1242 3001 
Q 1428 2844 1947 2747 
L 2328 2669 
Q 3034 2534 3370 2195 
Q 3706 1856 3706 1288 
Q 3706 609 3251 259 
Q 2797 -91 1919 -91 
Q 1588 -91 1214 -16 
Q 841 59 441 206 
L 441 856 
Q 825 641 1194 531 
Q 1563 422 1919 422 
Q 2459 422 2753 634 
Q 3047 847 3047 1241 
Q 3047 1584 2836 1778 
Q 2625 1972 2144 2069 
L 1759 2144 
Q 1053 2284 737 2584 
Q 422 2884 422 3419 
Q 422 4038 858 4394 
Q 1294 4750 2059 4750 
Q 2388 4750 2728 4690 
Q 3069 4631 3425 4513 
z
" transform="scale(0.015625)"/>
      </defs>
      <use xlink:href="#DejaVuSans-Oblique-67" transform="translate(0 0.125)"/>
      <use xlink:href="#DejaVuSans-Oblique-49" transform="translate(63.476562 -16.28125) scale(0.7)"/>
      <use xlink:href="#DejaVuSans-Oblique-6e" transform="translate(84.121094 -16.28125) scale(0.7)"/>
      <use xlink:href="#DejaVuSans-Oblique-68" transform="translate(128.486328 -16.28125) scale(0.7)"/>
      <use xlink:href="#DejaVuSans-Oblique-69" transform="translate(172.851562 -16.28125) scale(0.7)"/>
      <use xlink:href="#DejaVuSans-Oblique-62" transform="translate(192.299805 -16.28125) scale(0.7)"/>
      <use xlink:href="#DejaVuSans-20" transform="translate(239.467773 0.125)"/>
      <use xlink:href="#DejaVuSans-28" transform="translate(271.254883 0.125)"/>
      <use xlink:href="#DejaVuSans-b5" transform="translate(310.268555 0.125)"/>
      <use xlink:href="#DejaVuSans-53" transform="translate(373.891602 0.125)"/>
      <use xlink:href="#DejaVuSans-29" transform="translate(437.368164 0.125)"/>
     </g>
    </g>
   </g>
   <g id="line2d_25">
    <path d="M 108 143.393449 
L 108.6696 142.304246 
L 109.3392 136.562725 
L 110.6784 120.071451 
L 111.348 119.19828 
L 112.0176 121.081035 
L 112.6872 115.8393 
L 113.3568 107.939902 
L 114.0264 107.261679 
L 114.696 102.083275 
L 115.3656 101.657904 
L 116.0352 103.822525 
L 116.7048 98.858125 
L 117.3744 98.484581 
L 118.7136 103.038945 
L 119.3832 98.087137 
L 120.0528 97.725982 
L 124.0704 111.335777 
L 124.74 106.250643 
L 125.4096 98.50533 
L 126.0792 97.978716 
L 126.7488 100.202459 
L 127.4184 95.296232 
L 128.088 87.72695 
L 128.7576 87.373539 
L 130.0968 92.282131 
L 130.7664 87.50318 
L 131.436 87.312104 
L 132.1056 82.454279 
L 132.7752 82.344336 
L 133.4448 84.819316 
L 134.1144 80.160288 
L 134.784 80.087208 
L 135.4536 75.345484 
L 136.1232 75.349776 
L 142.1496 98.394914 
L 143.4888 103.108325 
L 144.1584 98.155402 
L 144.828 97.793151 
L 151.524 119.857479 
L 154.872 129.690837 
L 158.22 138.759097 
L 161.568 147.121789 
L 164.916 154.833811 
L 165.5856 149.049687 
L 166.2552 147.86959 
L 168.264 152.382399 
L 171.612 159.685112 
L 174.96 166.419629 
L 178.308 172.630157 
L 181.656 178.357467 
L 185.004 183.639156 
L 188.352 188.509897 
L 190.3608 191.248493 
L 191.0304 184.879203 
L 191.7 183.123345 
L 193.0392 184.979362 
L 196.3872 189.745826 
L 199.0656 193.290559 
L 199.7352 186.888454 
L 200.4048 185.100308 
L 201.744 186.893298 
L 205.092 191.510846 
L 207.1008 194.107083 
L 207.7704 187.691857 
L 208.44 185.890801 
L 209.7792 187.658589 
L 213.1272 192.216593 
L 214.4664 193.938899 
L 215.136 187.526376 
L 215.8056 185.727978 
L 216.4752 179.288661 
L 217.1448 177.622639 
L 218.484 179.654023 
L 221.832 184.834832 
L 223.8408 187.747766 
L 224.5104 181.434731 
L 225.18 179.734223 
L 226.5192 181.698288 
L 229.1976 185.747964 
L 229.8672 179.467065 
L 230.5368 177.798177 
L 231.2064 178.739262 
L 231.876 172.570989 
L 232.5456 171.012917 
L 233.2152 157.557088 
L 233.8848 153.498387 
L 234.5544 154.671218 
L 235.224 148.889706 
L 235.8936 140.459205 
L 236.5632 139.258413 
L 238.572 144.179719 
L 239.2416 145.819775 
L 239.9112 140.180501 
L 240.5808 124.636977 
L 241.2504 120.948546 
L 242.5896 124.630553 
L 245.9376 134.092535 
L 249.2856 142.818316 
L 249.9552 144.480249 
L 250.6248 138.862501 
L 251.2944 137.846107 
L 253.3032 142.834409 
L 254.6424 146.131056 
L 255.312 140.48678 
L 255.9816 139.444285 
L 256.6512 141.001698 
L 257.3208 135.439848 
L 257.9904 134.478454 
L 258.66 128.86269 
L 259.3296 113.501038 
L 259.9992 102.73858 
L 261.3384 87.013267 
L 262.008 86.671324 
L 263.3472 91.602304 
L 264.0168 86.834277 
L 264.6864 86.65395 
L 268.0344 98.921972 
L 268.704 94.036322 
L 269.3736 93.740262 
L 271.3824 100.820853 
L 272.052 95.904689 
L 272.7216 95.578605 
L 277.4088 111.586454 
L 278.0784 106.497292 
L 278.748 106.000991 
L 281.4264 114.649093 
L 282.096 109.510716 
L 282.7656 101.713015 
L 283.4352 101.134855 
L 290.8008 124.684636 
L 294.1488 134.14241 
L 297.4968 142.86431 
L 300.8448 150.907591 
L 304.1928 158.325053 
L 307.5408 165.165391 
L 310.8888 171.473507 
L 314.2368 177.290812 
L 317.5848 182.655494 
L 320.9328 187.602769 
L 324.2808 192.165116 
L 327.6288 196.372483 
L 330.9768 200.25249 
L 334.3248 203.830609 
L 337.6728 207.130327 
L 341.6904 210.752879 
L 342.36 204.070164 
L 343.0296 202.005917 
L 343.6992 195.305021 
L 344.3688 193.381625 
L 345.708 194.9106 
L 347.0472 196.54702 
L 347.7168 190.092585 
L 348.3864 188.25295 
L 349.7256 189.945432 
L 352.404 193.47764 
L 353.0736 187.072529 
L 353.7432 185.281425 
L 354.4128 178.849283 
L 355.0824 177.190323 
L 356.4216 179.235489 
L 359.7696 184.448863 
L 363.1176 189.256603 
L 365.1264 191.959777 
L 365.796 185.579057 
L 366.4656 183.811952 
L 367.1352 177.403424 
L 369.144 150.848606 
L 369.8136 149.480862 
L 370.4832 143.624017 
L 371.1528 142.531108 
L 373.1616 147.297163 
L 373.8312 148.887124 
L 374.5008 143.198559 
L 375.84 126.49573 
L 376.5096 125.519324 
L 378.5184 131.092383 
L 379.188 118.436796 
L 379.8576 115.006738 
L 380.5272 116.79811 
L 381.1968 111.625199 
L 381.8664 96.540544 
L 382.536 86.050633 
L 383.2056 85.56542 
L 385.2144 93.033809 
L 385.884 88.242779 
L 386.5536 88.039818 
L 388.5624 95.390827 
L 389.232 90.56192 
L 389.9016 90.321692 
L 390.5712 92.668479 
L 391.2408 87.88332 
L 392.58 72.943981 
L 393.2496 72.828124 
L 393.9192 75.456024 
L 394.5888 70.94746 
L 395.2584 63.769451 
L 395.928 63.801024 
L 398.6064 75.096967 
L 399.276 70.594173 
L 399.9456 70.674816 
L 401.9544 78.849584 
L 402.624 74.286487 
L 403.2936 67.054822 
L 403.9632 67.033601 
L 409.9896 91.20699 
L 413.3376 103.269536 
L 416.6856 114.39354 
L 420.0336 124.652026 
L 423.3816 134.112338 
L 426.7296 142.836577 
L 430.0776 150.882016 
L 433.4256 158.301469 
L 436.7736 165.143641 
L 440.1216 171.453449 
L 443.4696 177.272315 
L 446.8176 182.638436 
L 450.1656 187.587039 
L 453.5136 192.150609 
L 456.8616 196.359105 
L 460.2096 200.240153 
L 463.5576 203.819232 
L 466.9056 207.119835 
L 470.9232 210.743359 
L 474.9408 214.031253 
L 475.6104 214.548831 
L 476.28 207.805117 
L 476.9496 205.68085 
L 477.6192 206.173876 
L 478.9584 207.451213 
L 479.628 200.821554 
L 480.2976 198.80951 
L 481.6368 200.165441 
L 484.9848 203.750332 
L 485.6544 197.180144 
L 486.324 187.973641 
L 486.9936 186.009316 
L 487.6632 179.565478 
L 488.3328 177.895008 
L 489.672 179.917709 
L 493.02 185.078001 
L 494.3592 187.027891 
L 495.0288 180.726424 
L 495.6984 179.037299 
L 496.368 172.705497 
L 497.0376 171.145263 
L 497.7072 172.193258 
L 498.3768 166.130176 
L 499.0464 164.675604 
L 499.716 165.827563 
L 500.3856 159.866774 
L 501.0552 151.259877 
L 501.7248 149.885524 
L 503.7336 154.302702 
L 504.4032 155.780087 
L 505.0728 149.980756 
L 505.7424 148.785697 
L 507.0816 151.736424 
L 507.7512 146.002073 
L 509.0904 129.209865 
L 509.76 128.189845 
L 511.7688 133.63622 
L 512.4384 128.19273 
L 513.108 127.347794 
L 515.7864 134.656488 
L 516.456 136.449578 
L 517.1256 123.707903 
L 517.7952 120.193141 
L 518.4648 121.90117 
L 519.1344 116.646256 
L 519.804 108.733891 
L 520.4736 108.042909 
L 521.8128 112.292546 
L 522.4824 107.192038 
L 523.152 106.684572 
L 524.4912 110.977514 
L 525.1608 105.898137 
L 525.8304 105.411464 
L 526.5 100.262791 
L 527.1696 99.866675 
L 528.5088 104.376977 
L 529.1784 99.403667 
L 529.848 99.021357 
L 533.196 110.327116 
L 533.8656 105.258192 
L 534.5352 104.781802 
L 535.2048 99.643247 
L 535.8744 99.257087 
L 541.9008 119.058733 
L 542.5704 113.849496 
L 543.24 113.235048 
L 543.9096 107.960655 
L 544.5792 107.440837 
L 548.5968 120.150789 
L 549.2664 114.924003 
L 549.936 114.292288 
L 555.9624 132.054117 
L 556.632 126.63605 
L 557.3016 125.816129 
L 559.98 133.220928 
L 563.328 142.014525 
L 566.676 150.123925 
L 570.024 157.602362 
L 573.372 164.498929 
L 576.72 170.8589 
L 578.7288 174.434823 
L 579.3984 168.33572 
L 580.068 166.845707 
L 581.4072 169.220667 
L 584.7552 175.213257 
L 588.1032 180.739586 
L 591.4512 185.835931 
L 594.7992 190.535749 
L 598.1472 194.869891 
L 601.4952 198.866809 
L 604.8432 202.552743 
L 606.852 204.625175 
L 607.5216 198.040929 
L 608.1912 196.073568 
L 608.8608 196.720977 
L 609.5304 190.263748 
L 610.2 188.421362 
L 611.5392 190.108475 
L 612.2088 183.757504 
L 612.8784 174.766696 
L 613.548 173.0146 
L 614.8872 175.192892 
L 618.2352 180.720805 
L 621.5832 185.818612 
L 624.9312 190.519777 
L 625.6008 191.415172 
L 626.2704 185.043204 
L 626.94 183.28471 
L 627.6096 184.137629 
L 628.2792 177.882608 
L 628.9488 176.239181 
L 629.6184 169.952343 
L 630.288 168.436351 
L 631.6272 170.760601 
L 634.9752 176.633374 
L 635.6448 170.498942 
L 636.3144 168.974167 
L 636.984 162.804074 
L 637.6536 154.149977 
L 638.3232 138.223231 
L 638.9928 134.316475 
L 639.6624 128.544575 
L 640.332 127.693985 
L 641.6712 131.317131 
L 642.3408 118.657932 
L 643.68 82.749608 
L 644.3496 79.575546 
L 645.6888 84.576555 
L 647.6976 92.245533 
L 648.3672 87.46717 
L 649.0368 87.276672 
L 649.7064 89.672392 
L 650.376 84.935378 
L 651.0456 84.785565 
L 653.724 94.764831 
L 654.3936 82.693009 
L 655.0632 79.837335 
L 656.4024 84.829998 
L 657.7416 89.975869 
L 658.4112 85.233978 
L 659.0808 85.079367 
L 659.7504 87.510396 
L 660.42 82.808124 
L 661.0896 82.692495 
L 661.7592 85.16188 
L 662.4288 80.497347 
L 663.0984 80.418851 
L 669.7944 105.081659 
L 670.464 100.097026 
L 671.1336 99.703573 
L 671.8032 101.899599 
L 672.4728 96.9661 
L 673.1424 89.369985 
L 673.812 88.99017 
L 678.4992 105.704343 
L 679.1688 100.709703 
L 679.8384 100.306405 
L 687.204 123.99141 
L 690.552 133.503122 
L 693.9 142.274762 
L 697.248 150.363913 
L 700.596 157.823678 
L 703.944 164.703025 
L 707.292 171.047116 
L 710.64 176.897597 
L 713.988 182.292873 
L 717.336 187.268363 
L 720.684 191.856729 
L 724.032 196.08809 
L 727.38 199.990225 
L 728.7192 201.464702 
L 729.3888 194.931243 
L 730.0584 193.013854 
L 731.3976 194.554554 
L 734.7456 198.576008 
L 738.0936 202.284567 
L 740.772 205.042555 
L 741.4416 198.451602 
L 742.1112 196.477642 
L 743.4504 197.907914 
L 746.7984 201.668455 
L 750.1464 205.136403 
L 750.816 198.543941 
L 751.4856 196.568497 
L 752.8248 197.995873 
L 756.1728 201.749571 
L 756.8424 202.464509 
L 757.512 195.914983 
L 758.1816 186.72881 
L 758.8512 184.78449 
L 760.1904 186.587549 
L 760.86 180.293158 
L 761.5296 178.610995 
L 762.8688 180.610869 
L 763.5384 181.665495 
L 764.208 175.450199 
L 764.8776 173.84586 
L 765.5472 167.597482 
L 766.2168 166.119332 
L 767.556 168.517449 
L 768.2256 162.513436 
L 770.2344 136.664967 
L 770.904 135.525147 
L 771.5736 115.386613 
L 772.9128 103.73562 
L 773.5824 103.283697 
L 774.9216 107.685062 
L 775.5912 102.658593 
L 776.2608 102.223977 
L 777.6 106.659127 
L 777.6 106.659127 
" clip-path="url(#pbeef663990)" style="fill: none; stroke: #ff4500; stroke-width: 1.5; stroke-linecap: square"/>
   </g>
   <g id="patch_3">
    <path d="M 108 256.32 
L 108 34.56 
" style="fill: none; stroke: #000000; stroke-width: 0.8; stroke-linejoin: miter; stroke-linecap: square"/>
   </g>
   <g id="patch_4">
    <path d="M 777.6 256.32 
L 777.6 34.56 
" style="fill: none; stroke: #000000; stroke-width: 0.8; stroke-linejoin: miter; stroke-linecap: square"/>
   </g>
   <g id="patch_5">
    <path d="M 108 256.32 
L 777.6 256.32 
" style="fill: none; stroke: #000000; stroke-width: 0.8; stroke-linejoin: miter; stroke-linecap: square"/>
   </g>
   <g id="patch_6">
    <path d="M 108 34.56 
L 777.6 34.56 
" style="fill: none; stroke: #000000; stroke-width: 0.8; stroke-linejoin: miter; stroke-linecap: square"/>
   </g>
  </g>
 </g>
 <defs>
  <clipPath id="pbeef663990">
   <rect x="108" y="34.56" width="669.6" height="221.76"/>
  </clipPath>
 </defs>
</svg>
