<?xml version="1.0" encoding="utf-8" standalone="no"?>
<!DOCTYPE svg PUBLIC "-//W3C//DTD SVG 1.1//EN"
  "http://www.w3.org/Graphics/SVG/1.1/DTD/svg11.dtd">
<svg xmlns:xlink="http://www.w3.org/1999/xlink" width="864pt" height="288pt" viewBox="0 0 864 288" xmlns="http://www.w3.org/2000/svg" version="1.1">
 <metadata>
  <rdf:RDF xmlns:dc="http://purl.org/dc/elements/1.1/" xmlns:cc="http://creativecommons.org/ns#" xmlns:rdf="http://www.w3.org/1999/02/22-rdf-syntax-ns#">
   <cc:Work>
    <dc:type rdf:resource="http://purl.org/dc/dcmitype/StillImage"/>
    <dc:date>2024-04-23T19:17:00.385161</dc:date>
    <dc:format>image/svg+xml</dc:format>
    <dc:creator>
     <cc:Agent>
      <dc:title>Matplotlib v3.8.2, https://matplotlib.org/</dc:title>
     </cc:Agent>
    </dc:creator>
   </cc:Work>
  </rdf:RDF>
 </metadata>
 <defs>
  <style type="text/css">*{stroke-linejoin: round; stroke-linecap: butt}</style>
 </defs>
 <g id="figure_1">
  <g id="patch_1">
   <path d="M 0 288 
L 864 288 
L 864 0 
L 0 0 
z
" style="fill: #ffffff"/>
  </g>
  <g id="axes_1">
   <g id="patch_2">
    <path d="M 108 256.32 
L 777.6 256.32 
L 777.6 34.56 
L 108 34.56 
z
" style="fill: #ffffff"/>
   </g>
   <g id="matplotlib.axis_1">
    <g id="xtick_1">
     <g id="line2d_1">
      <path d="M 108 256.32 
L 108 34.56 
" clip-path="url(#p6323cb63bc)" style="fill: none; stroke: #b0b0b0; stroke-width: 0.8; stroke-linecap: square"/>
     </g>
     <g id="line2d_2">
      <defs>
       <path id="m71ac04cb74" d="M 0 0 
L 0 3.5 
" style="stroke: #000000; stroke-width: 0.8"/>
      </defs>
      <g>
       <use xlink:href="#m71ac04cb74" x="108" y="256.32" style="stroke: #000000; stroke-width: 0.8"/>
      </g>
     </g>
     <g id="text_1">
      <!-- 100 -->
      <g transform="translate(94.63875 273.957812) scale(0.14 -0.14)">
       <defs>
        <path id="DejaVuSans-31" d="M 794 531 
L 1825 531 
L 1825 4091 
L 703 3866 
L 703 4441 
L 1819 4666 
L 2450 4666 
L 2450 531 
L 3481 531 
L 3481 0 
L 794 0 
L 794 531 
z
" transform="scale(0.015625)"/>
        <path id="DejaVuSans-30" d="M 2034 4250 
Q 1547 4250 1301 3770 
Q 1056 3291 1056 2328 
Q 1056 1369 1301 889 
Q 1547 409 2034 409 
Q 2525 409 2770 889 
Q 3016 1369 3016 2328 
Q 3016 3291 2770 3770 
Q 2525 4250 2034 4250 
z
M 2034 4750 
Q 2819 4750 3233 4129 
Q 3647 3509 3647 2328 
Q 3647 1150 3233 529 
Q 2819 -91 2034 -91 
Q 1250 -91 836 529 
Q 422 1150 422 2328 
Q 422 3509 836 4129 
Q 1250 4750 2034 4750 
z
" transform="scale(0.015625)"/>
       </defs>
       <use xlink:href="#DejaVuSans-31"/>
       <use xlink:href="#DejaVuSans-30" x="63.623047"/>
       <use xlink:href="#DejaVuSans-30" x="127.246094"/>
      </g>
     </g>
    </g>
    <g id="xtick_2">
     <g id="line2d_3">
      <path d="M 241.92 256.32 
L 241.92 34.56 
" clip-path="url(#p6323cb63bc)" style="fill: none; stroke: #b0b0b0; stroke-width: 0.8; stroke-linecap: square"/>
     </g>
     <g id="line2d_4">
      <g>
       <use xlink:href="#m71ac04cb74" x="241.92" y="256.32" style="stroke: #000000; stroke-width: 0.8"/>
      </g>
     </g>
     <g id="text_2">
      <!-- 120 -->
      <g transform="translate(228.55875 273.957812) scale(0.14 -0.14)">
       <defs>
        <path id="DejaVuSans-32" d="M 1228 531 
L 3431 531 
L 3431 0 
L 469 0 
L 469 531 
Q 828 903 1448 1529 
Q 2069 2156 2228 2338 
Q 2531 2678 2651 2914 
Q 2772 3150 2772 3378 
Q 2772 3750 2511 3984 
Q 2250 4219 1831 4219 
Q 1534 4219 1204 4116 
Q 875 4013 500 3803 
L 500 4441 
Q 881 4594 1212 4672 
Q 1544 4750 1819 4750 
Q 2544 4750 2975 4387 
Q 3406 4025 3406 3419 
Q 3406 3131 3298 2873 
Q 3191 2616 2906 2266 
Q 2828 2175 2409 1742 
Q 1991 1309 1228 531 
z
" transform="scale(0.015625)"/>
       </defs>
       <use xlink:href="#DejaVuSans-31"/>
       <use xlink:href="#DejaVuSans-32" x="63.623047"/>
       <use xlink:href="#DejaVuSans-30" x="127.246094"/>
      </g>
     </g>
    </g>
    <g id="xtick_3">
     <g id="line2d_5">
      <path d="M 375.84 256.32 
L 375.84 34.56 
" clip-path="url(#p6323cb63bc)" style="fill: none; stroke: #b0b0b0; stroke-width: 0.8; stroke-linecap: square"/>
     </g>
     <g id="line2d_6">
      <g>
       <use xlink:href="#m71ac04cb74" x="375.84" y="256.32" style="stroke: #000000; stroke-width: 0.8"/>
      </g>
     </g>
     <g id="text_3">
      <!-- 140 -->
      <g transform="translate(362.47875 273.957812) scale(0.14 -0.14)">
       <defs>
        <path id="DejaVuSans-34" d="M 2419 4116 
L 825 1625 
L 2419 1625 
L 2419 4116 
z
M 2253 4666 
L 3047 4666 
L 3047 1625 
L 3713 1625 
L 3713 1100 
L 3047 1100 
L 3047 0 
L 2419 0 
L 2419 1100 
L 313 1100 
L 313 1709 
L 2253 4666 
z
" transform="scale(0.015625)"/>
       </defs>
       <use xlink:href="#DejaVuSans-31"/>
       <use xlink:href="#DejaVuSans-34" x="63.623047"/>
       <use xlink:href="#DejaVuSans-30" x="127.246094"/>
      </g>
     </g>
    </g>
    <g id="xtick_4">
     <g id="line2d_7">
      <path d="M 509.76 256.32 
L 509.76 34.56 
" clip-path="url(#p6323cb63bc)" style="fill: none; stroke: #b0b0b0; stroke-width: 0.8; stroke-linecap: square"/>
     </g>
     <g id="line2d_8">
      <g>
       <use xlink:href="#m71ac04cb74" x="509.76" y="256.32" style="stroke: #000000; stroke-width: 0.8"/>
      </g>
     </g>
     <g id="text_4">
      <!-- 160 -->
      <g transform="translate(496.39875 273.957812) scale(0.14 -0.14)">
       <defs>
        <path id="DejaVuSans-36" d="M 2113 2584 
Q 1688 2584 1439 2293 
Q 1191 2003 1191 1497 
Q 1191 994 1439 701 
Q 1688 409 2113 409 
Q 2538 409 2786 701 
Q 3034 994 3034 1497 
Q 3034 2003 2786 2293 
Q 2538 2584 2113 2584 
z
M 3366 4563 
L 3366 3988 
Q 3128 4100 2886 4159 
Q 2644 4219 2406 4219 
Q 1781 4219 1451 3797 
Q 1122 3375 1075 2522 
Q 1259 2794 1537 2939 
Q 1816 3084 2150 3084 
Q 2853 3084 3261 2657 
Q 3669 2231 3669 1497 
Q 3669 778 3244 343 
Q 2819 -91 2113 -91 
Q 1303 -91 875 529 
Q 447 1150 447 2328 
Q 447 3434 972 4092 
Q 1497 4750 2381 4750 
Q 2619 4750 2861 4703 
Q 3103 4656 3366 4563 
z
" transform="scale(0.015625)"/>
       </defs>
       <use xlink:href="#DejaVuSans-31"/>
       <use xlink:href="#DejaVuSans-36" x="63.623047"/>
       <use xlink:href="#DejaVuSans-30" x="127.246094"/>
      </g>
     </g>
    </g>
    <g id="xtick_5">
     <g id="line2d_9">
      <path d="M 643.68 256.32 
L 643.68 34.56 
" clip-path="url(#p6323cb63bc)" style="fill: none; stroke: #b0b0b0; stroke-width: 0.8; stroke-linecap: square"/>
     </g>
     <g id="line2d_10">
      <g>
       <use xlink:href="#m71ac04cb74" x="643.68" y="256.32" style="stroke: #000000; stroke-width: 0.8"/>
      </g>
     </g>
     <g id="text_5">
      <!-- 180 -->
      <g transform="translate(630.31875 273.957812) scale(0.14 -0.14)">
       <defs>
        <path id="DejaVuSans-38" d="M 2034 2216 
Q 1584 2216 1326 1975 
Q 1069 1734 1069 1313 
Q 1069 891 1326 650 
Q 1584 409 2034 409 
Q 2484 409 2743 651 
Q 3003 894 3003 1313 
Q 3003 1734 2745 1975 
Q 2488 2216 2034 2216 
z
M 1403 2484 
Q 997 2584 770 2862 
Q 544 3141 544 3541 
Q 544 4100 942 4425 
Q 1341 4750 2034 4750 
Q 2731 4750 3128 4425 
Q 3525 4100 3525 3541 
Q 3525 3141 3298 2862 
Q 3072 2584 2669 2484 
Q 3125 2378 3379 2068 
Q 3634 1759 3634 1313 
Q 3634 634 3220 271 
Q 2806 -91 2034 -91 
Q 1263 -91 848 271 
Q 434 634 434 1313 
Q 434 1759 690 2068 
Q 947 2378 1403 2484 
z
M 1172 3481 
Q 1172 3119 1398 2916 
Q 1625 2713 2034 2713 
Q 2441 2713 2670 2916 
Q 2900 3119 2900 3481 
Q 2900 3844 2670 4047 
Q 2441 4250 2034 4250 
Q 1625 4250 1398 4047 
Q 1172 3844 1172 3481 
z
" transform="scale(0.015625)"/>
       </defs>
       <use xlink:href="#DejaVuSans-31"/>
       <use xlink:href="#DejaVuSans-38" x="63.623047"/>
       <use xlink:href="#DejaVuSans-30" x="127.246094"/>
      </g>
     </g>
    </g>
    <g id="xtick_6">
     <g id="line2d_11">
      <path d="M 777.6 256.32 
L 777.6 34.56 
" clip-path="url(#p6323cb63bc)" style="fill: none; stroke: #b0b0b0; stroke-width: 0.8; stroke-linecap: square"/>
     </g>
     <g id="line2d_12">
      <g>
       <use xlink:href="#m71ac04cb74" x="777.6" y="256.32" style="stroke: #000000; stroke-width: 0.8"/>
      </g>
     </g>
     <g id="text_6">
      <!-- 200 -->
      <g transform="translate(764.23875 273.957812) scale(0.14 -0.14)">
       <use xlink:href="#DejaVuSans-32"/>
       <use xlink:href="#DejaVuSans-30" x="63.623047"/>
       <use xlink:href="#DejaVuSans-30" x="127.246094"/>
      </g>
     </g>
    </g>
    <g id="text_7">
     <!-- Time (ms) -->
     <g transform="translate(407.521094 291.507187) scale(0.14 -0.14)">
      <defs>
       <path id="DejaVuSans-54" d="M -19 4666 
L 3928 4666 
L 3928 4134 
L 2272 4134 
L 2272 0 
L 1638 0 
L 1638 4134 
L -19 4134 
L -19 4666 
z
" transform="scale(0.015625)"/>
       <path id="DejaVuSans-69" d="M 603 3500 
L 1178 3500 
L 1178 0 
L 603 0 
L 603 3500 
z
M 603 4863 
L 1178 4863 
L 1178 4134 
L 603 4134 
L 603 4863 
z
" transform="scale(0.015625)"/>
       <path id="DejaVuSans-6d" d="M 3328 2828 
Q 3544 3216 3844 3400 
Q 4144 3584 4550 3584 
Q 5097 3584 5394 3201 
Q 5691 2819 5691 2113 
L 5691 0 
L 5113 0 
L 5113 2094 
Q 5113 2597 4934 2840 
Q 4756 3084 4391 3084 
Q 3944 3084 3684 2787 
Q 3425 2491 3425 1978 
L 3425 0 
L 2847 0 
L 2847 2094 
Q 2847 2600 2669 2842 
Q 2491 3084 2119 3084 
Q 1678 3084 1418 2786 
Q 1159 2488 1159 1978 
L 1159 0 
L 581 0 
L 581 3500 
L 1159 3500 
L 1159 2956 
Q 1356 3278 1631 3431 
Q 1906 3584 2284 3584 
Q 2666 3584 2933 3390 
Q 3200 3197 3328 2828 
z
" transform="scale(0.015625)"/>
       <path id="DejaVuSans-65" d="M 3597 1894 
L 3597 1613 
L 953 1613 
Q 991 1019 1311 708 
Q 1631 397 2203 397 
Q 2534 397 2845 478 
Q 3156 559 3463 722 
L 3463 178 
Q 3153 47 2828 -22 
Q 2503 -91 2169 -91 
Q 1331 -91 842 396 
Q 353 884 353 1716 
Q 353 2575 817 3079 
Q 1281 3584 2069 3584 
Q 2775 3584 3186 3129 
Q 3597 2675 3597 1894 
z
M 3022 2063 
Q 3016 2534 2758 2815 
Q 2500 3097 2075 3097 
Q 1594 3097 1305 2825 
Q 1016 2553 972 2059 
L 3022 2063 
z
" transform="scale(0.015625)"/>
       <path id="DejaVuSans-20" transform="scale(0.015625)"/>
       <path id="DejaVuSans-28" d="M 1984 4856 
Q 1566 4138 1362 3434 
Q 1159 2731 1159 2009 
Q 1159 1288 1364 580 
Q 1569 -128 1984 -844 
L 1484 -844 
Q 1016 -109 783 600 
Q 550 1309 550 2009 
Q 550 2706 781 3412 
Q 1013 4119 1484 4856 
L 1984 4856 
z
" transform="scale(0.015625)"/>
       <path id="DejaVuSans-73" d="M 2834 3397 
L 2834 2853 
Q 2591 2978 2328 3040 
Q 2066 3103 1784 3103 
Q 1356 3103 1142 2972 
Q 928 2841 928 2578 
Q 928 2378 1081 2264 
Q 1234 2150 1697 2047 
L 1894 2003 
Q 2506 1872 2764 1633 
Q 3022 1394 3022 966 
Q 3022 478 2636 193 
Q 2250 -91 1575 -91 
Q 1294 -91 989 -36 
Q 684 19 347 128 
L 347 722 
Q 666 556 975 473 
Q 1284 391 1588 391 
Q 1994 391 2212 530 
Q 2431 669 2431 922 
Q 2431 1156 2273 1281 
Q 2116 1406 1581 1522 
L 1381 1569 
Q 847 1681 609 1914 
Q 372 2147 372 2553 
Q 372 3047 722 3315 
Q 1072 3584 1716 3584 
Q 2034 3584 2315 3537 
Q 2597 3491 2834 3397 
z
" transform="scale(0.015625)"/>
       <path id="DejaVuSans-29" d="M 513 4856 
L 1013 4856 
Q 1481 4119 1714 3412 
Q 1947 2706 1947 2009 
Q 1947 1309 1714 600 
Q 1481 -109 1013 -844 
L 513 -844 
Q 928 -128 1133 580 
Q 1338 1288 1338 2009 
Q 1338 2731 1133 3434 
Q 928 4138 513 4856 
z
" transform="scale(0.015625)"/>
      </defs>
      <use xlink:href="#DejaVuSans-54"/>
      <use xlink:href="#DejaVuSans-69" x="57.958984"/>
      <use xlink:href="#DejaVuSans-6d" x="85.742188"/>
      <use xlink:href="#DejaVuSans-65" x="183.154297"/>
      <use xlink:href="#DejaVuSans-20" x="244.677734"/>
      <use xlink:href="#DejaVuSans-28" x="276.464844"/>
      <use xlink:href="#DejaVuSans-6d" x="315.478516"/>
      <use xlink:href="#DejaVuSans-73" x="412.890625"/>
      <use xlink:href="#DejaVuSans-29" x="464.990234"/>
     </g>
    </g>
   </g>
   <g id="matplotlib.axis_2">
    <g id="ytick_1">
     <g id="line2d_13">
      <path d="M 108 224.926493 
L 777.6 224.926493 
" clip-path="url(#p6323cb63bc)" style="fill: none; stroke: #b0b0b0; stroke-width: 0.8; stroke-linecap: square"/>
     </g>
     <g id="line2d_14">
      <defs>
       <path id="m54117b9e54" d="M 0 0 
L -3.5 0 
" style="stroke: #000000; stroke-width: 0.8"/>
      </defs>
      <g>
       <use xlink:href="#m54117b9e54" x="108" y="224.926493" style="stroke: #000000; stroke-width: 0.8"/>
      </g>
     </g>
     <g id="text_8">
      <!-- −60 -->
      <g transform="translate(71.453437 230.245399) scale(0.14 -0.14)">
       <defs>
        <path id="DejaVuSans-2212" d="M 678 2272 
L 4684 2272 
L 4684 1741 
L 678 1741 
L 678 2272 
z
" transform="scale(0.015625)"/>
       </defs>
       <use xlink:href="#DejaVuSans-2212"/>
       <use xlink:href="#DejaVuSans-36" x="83.789062"/>
       <use xlink:href="#DejaVuSans-30" x="147.412109"/>
      </g>
     </g>
    </g>
    <g id="ytick_2">
     <g id="line2d_15">
      <path d="M 108 182.367402 
L 777.6 182.367402 
" clip-path="url(#p6323cb63bc)" style="fill: none; stroke: #b0b0b0; stroke-width: 0.8; stroke-linecap: square"/>
     </g>
     <g id="line2d_16">
      <g>
       <use xlink:href="#m54117b9e54" x="108" y="182.367402" style="stroke: #000000; stroke-width: 0.8"/>
      </g>
     </g>
     <g id="text_9">
      <!-- −40 -->
      <g transform="translate(71.453437 187.686308) scale(0.14 -0.14)">
       <use xlink:href="#DejaVuSans-2212"/>
       <use xlink:href="#DejaVuSans-34" x="83.789062"/>
       <use xlink:href="#DejaVuSans-30" x="147.412109"/>
      </g>
     </g>
    </g>
    <g id="ytick_3">
     <g id="line2d_17">
      <path d="M 108 139.80831 
L 777.6 139.80831 
" clip-path="url(#p6323cb63bc)" style="fill: none; stroke: #b0b0b0; stroke-width: 0.8; stroke-linecap: square"/>
     </g>
     <g id="line2d_18">
      <g>
       <use xlink:href="#m54117b9e54" x="108" y="139.80831" style="stroke: #000000; stroke-width: 0.8"/>
      </g>
     </g>
     <g id="text_10">
      <!-- −20 -->
      <g transform="translate(71.453437 145.127217) scale(0.14 -0.14)">
       <use xlink:href="#DejaVuSans-2212"/>
       <use xlink:href="#DejaVuSans-32" x="83.789062"/>
       <use xlink:href="#DejaVuSans-30" x="147.412109"/>
      </g>
     </g>
    </g>
    <g id="ytick_4">
     <g id="line2d_19">
      <path d="M 108 97.249219 
L 777.6 97.249219 
" clip-path="url(#p6323cb63bc)" style="fill: none; stroke: #b0b0b0; stroke-width: 0.8; stroke-linecap: square"/>
     </g>
     <g id="line2d_20">
      <g>
       <use xlink:href="#m54117b9e54" x="108" y="97.249219" style="stroke: #000000; stroke-width: 0.8"/>
      </g>
     </g>
     <g id="text_11">
      <!-- 0 -->
      <g transform="translate(92.0925 102.568125) scale(0.14 -0.14)">
       <use xlink:href="#DejaVuSans-30"/>
      </g>
     </g>
    </g>
    <g id="ytick_5">
     <g id="line2d_21">
      <path d="M 108 54.690127 
L 777.6 54.690127 
" clip-path="url(#p6323cb63bc)" style="fill: none; stroke: #b0b0b0; stroke-width: 0.8; stroke-linecap: square"/>
     </g>
     <g id="line2d_22">
      <g>
       <use xlink:href="#m54117b9e54" x="108" y="54.690127" style="stroke: #000000; stroke-width: 0.8"/>
      </g>
     </g>
     <g id="text_12">
      <!-- 20 -->
      <g transform="translate(83.185 60.009034) scale(0.14 -0.14)">
       <use xlink:href="#DejaVuSans-32"/>
       <use xlink:href="#DejaVuSans-30" x="63.623047"/>
      </g>
     </g>
    </g>
    <g id="text_13">
     <!-- $V_{m}$ (mV) -->
     <g transform="translate(64.541875 174.49) rotate(-90) scale(0.14 -0.14)">
      <defs>
       <path id="DejaVuSans-Oblique-56" d="M 1319 0 
L 500 4666 
L 1119 4666 
L 1797 653 
L 4063 4666 
L 4750 4666 
L 2053 0 
L 1319 0 
z
" transform="scale(0.015625)"/>
       <path id="DejaVuSans-Oblique-6d" d="M 5747 2113 
L 5338 0 
L 4763 0 
L 5166 2094 
Q 5191 2228 5203 2325 
Q 5216 2422 5216 2491 
Q 5216 2772 5059 2928 
Q 4903 3084 4622 3084 
Q 4203 3084 3875 2770 
Q 3547 2456 3450 1953 
L 3066 0 
L 2491 0 
L 2900 2094 
Q 2925 2209 2937 2307 
Q 2950 2406 2950 2484 
Q 2950 2769 2794 2926 
Q 2638 3084 2363 3084 
Q 1938 3084 1609 2770 
Q 1281 2456 1184 1953 
L 800 0 
L 225 0 
L 909 3500 
L 1484 3500 
L 1375 2956 
Q 1609 3263 1923 3423 
Q 2238 3584 2597 3584 
Q 2978 3584 3223 3384 
Q 3469 3184 3519 2828 
Q 3781 3197 4126 3390 
Q 4472 3584 4856 3584 
Q 5306 3584 5551 3325 
Q 5797 3066 5797 2591 
Q 5797 2488 5784 2364 
Q 5772 2241 5747 2113 
z
" transform="scale(0.015625)"/>
       <path id="DejaVuSans-56" d="M 1831 0 
L 50 4666 
L 709 4666 
L 2188 738 
L 3669 4666 
L 4325 4666 
L 2547 0 
L 1831 0 
z
" transform="scale(0.015625)"/>
      </defs>
      <use xlink:href="#DejaVuSans-Oblique-56" transform="translate(0 0.125)"/>
      <use xlink:href="#DejaVuSans-Oblique-6d" transform="translate(68.408203 -16.28125) scale(0.7)"/>
      <use xlink:href="#DejaVuSans-20" transform="translate(139.331055 0.125)"/>
      <use xlink:href="#DejaVuSans-28" transform="translate(171.118164 0.125)"/>
      <use xlink:href="#DejaVuSans-6d" transform="translate(210.131836 0.125)"/>
      <use xlink:href="#DejaVuSans-56" transform="translate(307.543945 0.125)"/>
      <use xlink:href="#DejaVuSans-29" transform="translate(375.952148 0.125)"/>
     </g>
    </g>
   </g>
   <g id="line2d_23">
    <path d="M 108 223.89789 
L 108.6696 224.635898 
L 109.3392 225.085178 
L 110.0088 225.748811 
L 111.348 227.567335 
L 112.0176 228.566793 
L 112.6872 229.273887 
L 114.0264 230.106675 
L 115.3656 230.624571 
L 116.0352 230.817515 
L 117.3744 231.667059 
L 118.7136 232.092864 
L 120.7224 232.422479 
L 122.7312 232.56081 
L 126.0792 234.040455 
L 128.7576 234.575034 
L 129.4272 234.81564 
L 130.7664 235.517808 
L 132.1056 235.774262 
L 134.1144 235.864219 
L 135.4536 235.823307 
L 136.1232 236.013866 
L 136.7928 236.087733 
L 137.4624 236.29779 
L 138.132 236.670245 
L 138.8016 236.86722 
L 140.1408 236.892638 
L 142.1496 236.658743 
L 142.8192 236.546774 
L 144.1584 236.788008 
L 145.4976 236.701387 
L 148.176 236.202061 
L 151.524 235.300579 
L 155.5416 233.94979 
L 159.5592 232.373319 
L 164.2464 230.304099 
L 169.6032 227.691178 
L 175.6296 224.498175 
L 182.9952 220.321249 
L 190.3608 215.945193 
L 191.7 215.976991 
L 193.0392 215.582094 
L 195.7176 214.420274 
L 200.4048 212.073406 
L 205.092 209.547794 
L 206.4312 209.745039 
L 207.7704 209.494578 
L 209.7792 208.801291 
L 213.1272 207.35355 
L 216.4752 205.644685 
L 217.1448 205.795111 
L 217.8144 206.437404 
L 218.484 206.906103 
L 219.1536 207.645559 
L 219.8232 208.706137 
L 220.4928 209.464567 
L 221.1624 209.924012 
L 222.5016 210.408642 
L 223.8408 210.597291 
L 225.8496 210.592475 
L 226.5192 210.539547 
L 227.8584 211.269032 
L 228.528 211.887112 
L 229.1976 212.353674 
L 230.5368 212.759173 
L 231.2064 213.299092 
L 231.876 214.172489 
L 232.5456 214.786908 
L 233.8848 215.38914 
L 234.5544 215.553282 
L 235.224 216.521984 
L 235.8936 217.719988 
L 236.5632 218.515386 
L 237.2328 219.010831 
L 238.572 219.618542 
L 239.2416 219.818691 
L 240.5808 220.813636 
L 241.2504 221.090211 
L 242.5896 222.122218 
L 243.9288 222.602741 
L 245.9376 222.928534 
L 247.9464 223.019162 
L 248.616 223.012086 
L 250.6248 224.142288 
L 251.2944 224.871448 
L 251.964 225.367508 
L 252.6336 225.654389 
L 254.6424 227.196712 
L 255.312 227.643223 
L 256.6512 228.107668 
L 258.66 228.416005 
L 260.6688 228.502056 
L 262.008 229.68573 
L 263.3472 230.132923 
L 264.6864 230.31544 
L 265.356 230.679529 
L 266.0256 231.277818 
L 266.6952 231.686851 
L 268.0344 232.071291 
L 268.704 232.172594 
L 270.0432 232.792224 
L 271.3824 232.843791 
L 272.7216 232.689567 
L 276.0696 233.635948 
L 278.0784 233.571877 
L 280.7568 233.185224 
L 281.4264 233.053648 
L 284.7744 233.802517 
L 286.7832 233.617088 
L 289.4616 233.078805 
L 290.8008 232.735137 
L 292.14 232.91759 
L 293.4792 232.754882 
L 295.488 232.286015 
L 296.8272 232.475289 
L 298.1664 232.310537 
L 300.8448 231.641647 
L 304.1928 230.543607 
L 308.2104 228.986056 
L 312.8976 226.922951 
L 318.2544 224.313021 
L 324.2808 221.130366 
L 328.968 218.520126 
L 330.3072 218.556424 
L 331.6464 218.177999 
L 332.316 217.923353 
L 333.6552 218.158612 
L 334.9944 217.936563 
L 337.0032 217.310832 
L 339.6816 216.278345 
L 341.0208 216.535846 
L 341.6904 216.91168 
L 342.36 217.579221 
L 343.0296 217.994342 
L 344.3688 218.240338 
L 345.708 218.200072 
L 347.7168 217.910622 
L 350.3952 217.287494 
L 353.0736 216.49205 
L 354.4128 216.856974 
L 355.752 216.771325 
L 357.7608 216.350123 
L 359.1 215.986029 
L 359.7696 216.227727 
L 360.4392 216.829087 
L 361.1088 217.206757 
L 362.448 217.413895 
L 364.4568 217.285725 
L 365.796 217.073976 
L 367.1352 217.592486 
L 368.4744 217.641032 
L 369.8136 219.044273 
L 370.4832 219.354118 
L 371.8224 219.612609 
L 373.8312 219.638694 
L 375.1704 219.53018 
L 375.84 219.856687 
L 376.5096 220.503451 
L 377.1792 220.930177 
L 377.8488 221.535141 
L 378.5184 221.972977 
L 379.8576 222.364743 
L 381.1968 223.879016 
L 382.536 225.505528 
L 383.2056 226.469015 
L 384.5448 227.899821 
L 385.2144 229.122782 
L 386.5536 230.893572 
L 387.2232 231.544669 
L 388.5624 232.336551 
L 389.9016 232.837894 
L 390.5712 233.318609 
L 391.2408 233.997198 
L 391.9104 234.48636 
L 393.2496 235.041065 
L 395.2584 235.497966 
L 397.2672 235.733873 
L 399.9456 235.817967 
L 401.2848 236.286922 
L 402.624 236.418646 
L 403.9632 236.36736 
L 405.3024 236.060618 
L 406.6416 236.169306 
L 407.9808 235.976844 
L 409.32 236.199438 
L 410.6592 236.091429 
L 413.3376 235.560109 
L 416.6856 234.630807 
L 420.7032 233.253105 
L 425.3904 231.368693 
L 426.7296 231.381038 
L 428.0688 231.054819 
L 430.7472 230.09777 
L 434.7648 228.393017 
L 439.452 226.166542 
L 445.4784 223.037274 
L 452.1744 219.306307 
L 461.5488 213.802264 
L 470.2536 208.469611 
L 472.932 206.722959 
L 474.2712 206.816004 
L 475.6104 206.499772 
L 477.6192 205.666851 
L 479.628 204.6222 
L 481.6368 203.312639 
L 483.6456 203.32129 
L 484.9848 202.954008 
L 486.324 202.379477 
L 486.9936 202.537184 
L 488.3328 203.927561 
L 489.672 204.735798 
L 490.3416 204.974611 
L 491.6808 206.231285 
L 493.02 208.755883 
L 493.6896 209.483334 
L 494.3592 209.979123 
L 496.368 212.342041 
L 497.0376 213.471948 
L 497.7072 214.287528 
L 498.3768 214.819237 
L 499.0464 215.20163 
L 500.3856 216.49917 
L 501.7248 217.159015 
L 502.3944 217.371365 
L 503.7336 218.419275 
L 504.4032 219.513387 
L 505.0728 220.372755 
L 505.7424 220.896802 
L 507.0816 222.230146 
L 507.7512 222.623095 
L 509.0904 223.810981 
L 510.4296 224.423338 
L 512.4384 224.918386 
L 513.108 225.019808 
L 515.7864 226.772155 
L 517.1256 227.812574 
L 517.7952 228.091216 
L 519.1344 229.025557 
L 520.4736 229.461893 
L 522.4824 229.76367 
L 523.8216 230.428109 
L 525.1608 230.691169 
L 527.8392 233.395866 
L 530.5176 235.164223 
L 531.8568 235.530115 
L 533.8656 235.820728 
L 535.8744 235.922185 
L 537.2136 236.415648 
L 538.5528 236.421389 
L 539.2224 236.310509 
L 540.5616 236.516849 
L 541.9008 236.405522 
L 543.9096 236.058647 
L 545.2488 236.280563 
L 546.588 236.177578 
L 549.2664 235.653388 
L 551.2752 235.126957 
L 552.6144 235.260473 
L 553.9536 235.068013 
L 556.632 234.373906 
L 559.98 233.264112 
L 563.9976 231.703452 
L 568.6848 229.641803 
L 574.0416 227.032913 
L 580.068 223.84332 
L 587.4336 219.672774 
L 596.808 214.094564 
L 602.1648 210.819649 
L 603.504 210.915538 
L 604.8432 210.569927 
L 606.1824 210.968251 
L 607.5216 210.853287 
L 609.5304 210.322202 
L 612.2088 209.362701 
L 613.548 209.756176 
L 614.8872 209.682989 
L 616.896 209.225672 
L 617.5656 209.029548 
L 618.9048 209.536628 
L 620.244 209.563858 
L 622.2528 209.23719 
L 622.9224 209.571579 
L 623.592 210.795458 
L 624.2616 211.71727 
L 624.9312 212.229697 
L 625.6008 212.542393 
L 626.2704 213.196696 
L 626.94 214.154141 
L 627.6096 214.833136 
L 628.2792 215.2485 
L 629.6184 215.72797 
L 630.288 215.870882 
L 631.6272 217.595454 
L 632.2968 218.043796 
L 632.9664 218.745981 
L 633.636 219.690247 
L 634.3056 220.363783 
L 635.6448 221.101382 
L 636.984 221.514987 
L 638.9928 221.841199 
L 640.332 222.62789 
L 641.0016 222.824702 
L 641.6712 223.320067 
L 642.3408 224.071882 
L 643.0104 224.595033 
L 643.68 225.264056 
L 644.3496 225.765425 
L 645.6888 226.300453 
L 647.028 226.58327 
L 649.0368 226.77275 
L 650.376 228.041108 
L 651.0456 228.676575 
L 651.7152 229.775303 
L 653.0544 231.344547 
L 654.3936 232.585238 
L 655.0632 233.387305 
L 655.7328 233.961236 
L 657.072 234.625156 
L 658.4112 235.028731 
L 659.7504 235.29631 
L 661.0896 235.971999 
L 662.4288 236.281423 
L 664.4376 236.484203 
L 665.1072 236.512029 
L 665.7768 236.796673 
L 666.4464 237.283743 
L 667.116 237.608718 
L 668.4552 237.890209 
L 670.464 238.002283 
L 671.8032 237.925518 
L 673.812 237.395033 
L 674.4816 237.181827 
L 676.4904 237.436501 
L 677.16 237.532218 
L 678.4992 237.436125 
L 681.1776 236.907726 
L 684.5256 235.975184 
L 688.5432 234.593689 
L 693.2304 232.707207 
L 697.9176 230.583745 
L 703.2744 227.920522 
L 709.3008 224.681479 
L 716.6664 220.458626 
L 726.7104 214.408176 
L 736.0848 208.554627 
L 740.1024 205.833271 
L 742.1112 204.306069 
L 743.4504 204.24203 
L 744.7896 203.82487 
L 746.1288 203.154387 
L 747.468 202.291696 
L 748.8072 201.09203 
L 749.4768 200.305936 
L 750.1464 199.31273 
L 750.816 197.852304 
L 751.4856 195.369051 
L 752.1552 188.503636 
L 752.8248 152.45742 
L 753.4944 51.426428 
L 754.164 60.537216 
L 754.8336 84.112568 
L 755.5032 99.864527 
L 756.8424 123.760134 
L 758.8512 154.791108 
L 760.1904 174.233848 
L 761.5296 190.956062 
L 762.1992 197.576196 
L 762.8688 202.159994 
L 763.5384 205.131015 
L 764.208 207.592904 
L 764.8776 209.401845 
L 766.8864 213.118614 
L 767.556 214.258056 
L 768.2256 215.117898 
L 768.8952 215.692786 
L 769.5648 216.100794 
L 770.2344 216.794658 
L 770.904 217.32527 
L 772.2432 217.84068 
L 772.9128 217.960322 
L 775.5912 219.713696 
L 776.2608 219.911803 
L 777.6 220.759189 
L 777.6 220.759189 
" clip-path="url(#p6323cb63bc)" style="fill: none; stroke: #000000; stroke-width: 1.5; stroke-linecap: square"/>
   </g>
   <g id="line2d_24">
    <path d="M 108 147.481236 
L 110.0088 149.550155 
L 111.348 151.142528 
L 112.6872 153.004056 
L 114.696 156.1667 
L 116.7048 159.643597 
L 118.7136 163.656609 
L 120.7224 168.284156 
L 122.7312 173.488967 
L 124.74 179.225658 
L 128.7576 191.154806 
L 131.436 198.215306 
L 133.4448 202.802012 
L 135.4536 206.651702 
L 136.1232 171.989741 
L 136.7928 157.910577 
L 137.4624 151.835779 
L 138.132 148.275619 
L 138.8016 146.01454 
L 139.4712 144.48995 
L 140.1408 143.405922 
L 141.48 141.94102 
L 142.8192 140.905172 
L 144.828 139.688206 
L 147.5064 138.346762 
L 150.1848 137.218816 
L 152.8632 136.314473 
L 156.2112 135.455787 
L 159.5592 134.823318 
L 164.2464 134.193897 
L 169.6032 133.705335 
L 176.9688 133.265683 
L 187.6824 132.870525 
L 192.3696 132.832841 
L 199.7352 133.118082 
L 207.7704 133.391151 
L 213.1272 133.852568 
L 218.484 134.255844 
L 219.8232 134.647401 
L 226.5192 137.263227 
L 228.528 137.944856 
L 231.2064 139.109604 
L 233.2152 140.186029 
L 235.8936 141.783131 
L 239.9112 144.825696 
L 243.2592 147.524734 
L 250.6248 153.979352 
L 251.964 155.503225 
L 253.3032 157.271538 
L 254.6424 159.2967 
L 256.6512 162.872745 
L 258.66 166.96406 
L 260.6688 171.477843 
L 262.6776 176.558903 
L 269.3736 194.439999 
L 270.0432 163.304156 
L 270.7128 152.57617 
L 271.3824 147.779756 
L 272.052 145.038993 
L 272.7216 143.319449 
L 273.3912 142.174681 
L 274.0608 141.374262 
L 275.4 140.337358 
L 277.4088 139.31007 
L 282.096 137.208258 
L 284.1048 136.526954 
L 287.4528 135.721113 
L 291.4704 134.975157 
L 294.8184 134.64294 
L 298.1664 134.481568 
L 317.5848 134.20764 
L 330.3072 134.235858 
L 334.3248 134.604991 
L 339.012 135.153462 
L 341.6904 135.480913 
L 343.6992 136.008455 
L 347.0472 136.940149 
L 351.0648 137.768991 
L 355.752 138.682618 
L 361.7784 140.225891 
L 369.8136 143.258389 
L 377.1792 147.355244 
L 379.188 148.875745 
L 381.1968 150.656861 
L 382.536 152.118342 
L 383.8752 153.87777 
L 385.2144 155.948558 
L 386.5536 158.429127 
L 387.8928 161.31127 
L 389.9016 166.251098 
L 391.2408 169.990974 
L 393.2496 176.408477 
L 397.9368 191.946666 
L 399.9456 197.573197 
L 401.9544 202.41929 
L 403.2936 205.25185 
L 403.9632 171.039558 
L 404.6328 157.367809 
L 405.3024 151.476999 
L 405.972 148.026316 
L 406.6416 145.82415 
L 407.3112 144.326019 
L 407.9808 143.247874 
L 409.32 141.789102 
L 410.6592 140.773452 
L 413.3376 139.140474 
L 416.016 137.746895 
L 418.6944 136.603843 
L 421.3728 135.703032 
L 424.7208 134.851051 
L 427.3992 134.391709 
L 432.756 133.854549 
L 439.452 133.382249 
L 448.1568 132.994669 
L 461.5488 132.637866 
L 474.9408 132.452634 
L 480.9672 132.788563 
L 483.6456 132.895425 
L 487.6632 133.320197 
L 489.672 133.864438 
L 491.6808 134.585159 
L 493.02 135.238633 
L 496.368 137.252738 
L 501.0552 140.49553 
L 505.0728 143.257931 
L 507.7512 145.553332 
L 511.7688 149.350578 
L 515.1168 152.647528 
L 517.1256 155.068396 
L 519.1344 157.955832 
L 521.1432 161.330239 
L 523.152 165.150804 
L 525.1608 169.607585 
L 526.5 173.036924 
L 528.5088 179.040037 
L 533.196 193.956971 
L 535.2048 199.324826 
L 537.2136 203.885992 
L 537.8832 170.080512 
L 538.5528 156.788989 
L 539.2224 151.057111 
L 539.892 147.718636 
L 540.5616 145.601373 
L 541.2312 144.17139 
L 541.9008 143.150073 
L 543.24 141.753295 
L 544.5792 140.752219 
L 546.588 139.565099 
L 549.936 137.891392 
L 552.6144 136.820306 
L 555.2928 136.061647 
L 558.6408 135.33222 
L 562.6584 134.686786 
L 567.3456 134.160827 
L 573.372 133.711141 
L 582.0768 133.311888 
L 595.4688 132.956643 
L 603.504 132.85276 
L 606.1824 133.085976 
L 612.2088 133.858098 
L 614.8872 134.245403 
L 622.2528 135.610122 
L 623.592 135.939811 
L 625.6008 136.775022 
L 627.6096 137.804808 
L 633.636 141.293058 
L 639.6624 145.461016 
L 642.3408 147.35795 
L 644.3496 149.134945 
L 648.3672 153.204202 
L 650.376 155.430055 
L 651.7152 157.26293 
L 653.0544 159.533549 
L 654.3936 162.241644 
L 655.7328 165.433445 
L 657.7416 171.07904 
L 660.42 179.677382 
L 663.768 190.760267 
L 665.7768 196.646583 
L 667.7856 201.897097 
L 669.7944 206.461997 
L 671.1336 209.077804 
L 671.8032 173.811982 
L 672.4728 159.173636 
L 673.1424 152.891313 
L 673.812 149.175628 
L 674.4816 146.77588 
L 675.1512 145.128392 
L 675.8208 143.940747 
L 676.4904 143.047481 
L 677.8296 141.760578 
L 679.8384 140.347039 
L 682.5168 138.782368 
L 685.1952 137.483686 
L 687.8736 136.454324 
L 690.552 135.655749 
L 693.9 134.902181 
L 697.9176 134.247377 
L 703.2744 133.641321 
L 709.9704 133.137125 
L 719.3448 132.681892 
L 733.4064 132.2477 
L 745.4592 132.018267 
L 748.8072 132.083371 
L 750.816 131.899883 
L 751.4856 131.724603 
L 752.1552 131.329398 
L 752.8248 129.798987 
L 753.4944 124.778298 
L 754.164 118.714151 
L 754.8336 114.061682 
L 755.5032 111.33684 
L 756.1728 110.186205 
L 756.8424 110.132432 
L 757.512 110.806962 
L 758.1816 111.963249 
L 759.5208 115.152705 
L 761.5296 121.099888 
L 763.5384 127.098685 
L 764.8776 130.379078 
L 766.2168 133.014843 
L 767.556 135.180047 
L 768.8952 137.027829 
L 770.904 139.341667 
L 772.9128 141.290317 
L 777.6 145.295188 
L 777.6 145.295188 
" clip-path="url(#p6323cb63bc)" style="fill: none; stroke: #4169e1; stroke-width: 1.5; stroke-linecap: square"/>
   </g>
   <g id="patch_3">
    <path d="M 108 256.32 
L 108 34.56 
" style="fill: none; stroke: #000000; stroke-width: 0.8; stroke-linejoin: miter; stroke-linecap: square"/>
   </g>
   <g id="patch_4">
    <path d="M 777.6 256.32 
L 777.6 34.56 
" style="fill: none; stroke: #000000; stroke-width: 0.8; stroke-linejoin: miter; stroke-linecap: square"/>
   </g>
   <g id="patch_5">
    <path d="M 108 256.32 
L 777.6 256.32 
" style="fill: none; stroke: #000000; stroke-width: 0.8; stroke-linejoin: miter; stroke-linecap: square"/>
   </g>
   <g id="patch_6">
    <path d="M 108 34.56 
L 777.6 34.56 
" style="fill: none; stroke: #000000; stroke-width: 0.8; stroke-linejoin: miter; stroke-linecap: square"/>
   </g>
   <g id="legend_1">
    <g id="patch_7">
     <path d="M 115 71.91625 
L 190.501563 71.91625 
Q 192.501563 71.91625 192.501563 69.91625 
L 192.501563 41.56 
Q 192.501563 39.56 190.501563 39.56 
L 115 39.56 
Q 113 39.56 113 41.56 
L 113 69.91625 
Q 113 71.91625 115 71.91625 
z
" style="fill: #ffffff; opacity: 0.8; stroke: #cccccc; stroke-linejoin: miter"/>
    </g>
    <g id="line2d_25">
     <path d="M 117 47.658437 
L 127 47.658437 
L 137 47.658437 
" style="fill: none; stroke: #000000; stroke-width: 1.5; stroke-linecap: square"/>
    </g>
    <g id="text_14">
     <!-- Soma -->
     <g transform="translate(145 51.158437) scale(0.1 -0.1)">
      <defs>
       <path id="DejaVuSans-53" d="M 3425 4513 
L 3425 3897 
Q 3066 4069 2747 4153 
Q 2428 4238 2131 4238 
Q 1616 4238 1336 4038 
Q 1056 3838 1056 3469 
Q 1056 3159 1242 3001 
Q 1428 2844 1947 2747 
L 2328 2669 
Q 3034 2534 3370 2195 
Q 3706 1856 3706 1288 
Q 3706 609 3251 259 
Q 2797 -91 1919 -91 
Q 1588 -91 1214 -16 
Q 841 59 441 206 
L 441 856 
Q 825 641 1194 531 
Q 1563 422 1919 422 
Q 2459 422 2753 634 
Q 3047 847 3047 1241 
Q 3047 1584 2836 1778 
Q 2625 1972 2144 2069 
L 1759 2144 
Q 1053 2284 737 2584 
Q 422 2884 422 3419 
Q 422 4038 858 4394 
Q 1294 4750 2059 4750 
Q 2388 4750 2728 4690 
Q 3069 4631 3425 4513 
z
" transform="scale(0.015625)"/>
       <path id="DejaVuSans-6f" d="M 1959 3097 
Q 1497 3097 1228 2736 
Q 959 2375 959 1747 
Q 959 1119 1226 758 
Q 1494 397 1959 397 
Q 2419 397 2687 759 
Q 2956 1122 2956 1747 
Q 2956 2369 2687 2733 
Q 2419 3097 1959 3097 
z
M 1959 3584 
Q 2709 3584 3137 3096 
Q 3566 2609 3566 1747 
Q 3566 888 3137 398 
Q 2709 -91 1959 -91 
Q 1206 -91 779 398 
Q 353 888 353 1747 
Q 353 2609 779 3096 
Q 1206 3584 1959 3584 
z
" transform="scale(0.015625)"/>
       <path id="DejaVuSans-61" d="M 2194 1759 
Q 1497 1759 1228 1600 
Q 959 1441 959 1056 
Q 959 750 1161 570 
Q 1363 391 1709 391 
Q 2188 391 2477 730 
Q 2766 1069 2766 1631 
L 2766 1759 
L 2194 1759 
z
M 3341 1997 
L 3341 0 
L 2766 0 
L 2766 531 
Q 2569 213 2275 61 
Q 1981 -91 1556 -91 
Q 1019 -91 701 211 
Q 384 513 384 1019 
Q 384 1609 779 1909 
Q 1175 2209 1959 2209 
L 2766 2209 
L 2766 2266 
Q 2766 2663 2505 2880 
Q 2244 3097 1772 3097 
Q 1472 3097 1187 3025 
Q 903 2953 641 2809 
L 641 3341 
Q 956 3463 1253 3523 
Q 1550 3584 1831 3584 
Q 2591 3584 2966 3190 
Q 3341 2797 3341 1997 
z
" transform="scale(0.015625)"/>
      </defs>
      <use xlink:href="#DejaVuSans-53"/>
      <use xlink:href="#DejaVuSans-6f" x="63.476562"/>
      <use xlink:href="#DejaVuSans-6d" x="124.658203"/>
      <use xlink:href="#DejaVuSans-61" x="222.070312"/>
     </g>
    </g>
    <g id="line2d_26">
     <path d="M 117 62.336562 
L 127 62.336562 
L 137 62.336562 
" style="fill: none; stroke: #4169e1; stroke-width: 1.5; stroke-linecap: square"/>
    </g>
    <g id="text_15">
     <!-- Dendrite -->
     <g transform="translate(145 65.836562) scale(0.1 -0.1)">
      <defs>
       <path id="DejaVuSans-44" d="M 1259 4147 
L 1259 519 
L 2022 519 
Q 2988 519 3436 956 
Q 3884 1394 3884 2338 
Q 3884 3275 3436 3711 
Q 2988 4147 2022 4147 
L 1259 4147 
z
M 628 4666 
L 1925 4666 
Q 3281 4666 3915 4102 
Q 4550 3538 4550 2338 
Q 4550 1131 3912 565 
Q 3275 0 1925 0 
L 628 0 
L 628 4666 
z
" transform="scale(0.015625)"/>
       <path id="DejaVuSans-6e" d="M 3513 2113 
L 3513 0 
L 2938 0 
L 2938 2094 
Q 2938 2591 2744 2837 
Q 2550 3084 2163 3084 
Q 1697 3084 1428 2787 
Q 1159 2491 1159 1978 
L 1159 0 
L 581 0 
L 581 3500 
L 1159 3500 
L 1159 2956 
Q 1366 3272 1645 3428 
Q 1925 3584 2291 3584 
Q 2894 3584 3203 3211 
Q 3513 2838 3513 2113 
z
" transform="scale(0.015625)"/>
       <path id="DejaVuSans-64" d="M 2906 2969 
L 2906 4863 
L 3481 4863 
L 3481 0 
L 2906 0 
L 2906 525 
Q 2725 213 2448 61 
Q 2172 -91 1784 -91 
Q 1150 -91 751 415 
Q 353 922 353 1747 
Q 353 2572 751 3078 
Q 1150 3584 1784 3584 
Q 2172 3584 2448 3432 
Q 2725 3281 2906 2969 
z
M 947 1747 
Q 947 1113 1208 752 
Q 1469 391 1925 391 
Q 2381 391 2643 752 
Q 2906 1113 2906 1747 
Q 2906 2381 2643 2742 
Q 2381 3103 1925 3103 
Q 1469 3103 1208 2742 
Q 947 2381 947 1747 
z
" transform="scale(0.015625)"/>
       <path id="DejaVuSans-72" d="M 2631 2963 
Q 2534 3019 2420 3045 
Q 2306 3072 2169 3072 
Q 1681 3072 1420 2755 
Q 1159 2438 1159 1844 
L 1159 0 
L 581 0 
L 581 3500 
L 1159 3500 
L 1159 2956 
Q 1341 3275 1631 3429 
Q 1922 3584 2338 3584 
Q 2397 3584 2469 3576 
Q 2541 3569 2628 3553 
L 2631 2963 
z
" transform="scale(0.015625)"/>
       <path id="DejaVuSans-74" d="M 1172 4494 
L 1172 3500 
L 2356 3500 
L 2356 3053 
L 1172 3053 
L 1172 1153 
Q 1172 725 1289 603 
Q 1406 481 1766 481 
L 2356 481 
L 2356 0 
L 1766 0 
Q 1100 0 847 248 
Q 594 497 594 1153 
L 594 3053 
L 172 3053 
L 172 3500 
L 594 3500 
L 594 4494 
L 1172 4494 
z
" transform="scale(0.015625)"/>
      </defs>
      <use xlink:href="#DejaVuSans-44"/>
      <use xlink:href="#DejaVuSans-65" x="77.001953"/>
      <use xlink:href="#DejaVuSans-6e" x="138.525391"/>
      <use xlink:href="#DejaVuSans-64" x="201.904297"/>
      <use xlink:href="#DejaVuSans-72" x="265.380859"/>
      <use xlink:href="#DejaVuSans-69" x="306.494141"/>
      <use xlink:href="#DejaVuSans-74" x="334.277344"/>
      <use xlink:href="#DejaVuSans-65" x="373.486328"/>
     </g>
    </g>
   </g>
  </g>
 </g>
 <defs>
  <clipPath id="p6323cb63bc">
   <rect x="108" y="34.56" width="669.6" height="221.76"/>
  </clipPath>
 </defs>
</svg>
