<?xml version="1.0" encoding="utf-8" standalone="no"?>
<!DOCTYPE svg PUBLIC "-//W3C//DTD SVG 1.1//EN"
  "http://www.w3.org/Graphics/SVG/1.1/DTD/svg11.dtd">
<svg xmlns:xlink="http://www.w3.org/1999/xlink" width="864pt" height="288pt" viewBox="0 0 864 288" xmlns="http://www.w3.org/2000/svg" version="1.1">
 <metadata>
  <rdf:RDF xmlns:dc="http://purl.org/dc/elements/1.1/" xmlns:cc="http://creativecommons.org/ns#" xmlns:rdf="http://www.w3.org/1999/02/22-rdf-syntax-ns#">
   <cc:Work>
    <dc:type rdf:resource="http://purl.org/dc/dcmitype/StillImage"/>
    <dc:date>2024-04-23T19:16:31.555041</dc:date>
    <dc:format>image/svg+xml</dc:format>
    <dc:creator>
     <cc:Agent>
      <dc:title>Matplotlib v3.8.2, https://matplotlib.org/</dc:title>
     </cc:Agent>
    </dc:creator>
   </cc:Work>
  </rdf:RDF>
 </metadata>
 <defs>
  <style type="text/css">*{stroke-linejoin: round; stroke-linecap: butt}</style>
 </defs>
 <g id="figure_1">
  <g id="patch_1">
   <path d="M 0 288 
L 864 288 
L 864 0 
L 0 0 
z
" style="fill: #ffffff"/>
  </g>
  <g id="axes_1">
   <g id="patch_2">
    <path d="M 108 256.32 
L 777.6 256.32 
L 777.6 34.56 
L 108 34.56 
z
" style="fill: #ffffff"/>
   </g>
   <g id="matplotlib.axis_1">
    <g id="xtick_1">
     <g id="line2d_1">
      <path d="M 108 256.32 
L 108 34.56 
" clip-path="url(#pc83f04b0ad)" style="fill: none; stroke: #b0b0b0; stroke-width: 0.8; stroke-linecap: square"/>
     </g>
     <g id="line2d_2">
      <defs>
       <path id="me610027fc0" d="M 0 0 
L 0 3.5 
" style="stroke: #000000; stroke-width: 0.8"/>
      </defs>
      <g>
       <use xlink:href="#me610027fc0" x="108" y="256.32" style="stroke: #000000; stroke-width: 0.8"/>
      </g>
     </g>
     <g id="text_1">
      <!-- 100 -->
      <g transform="translate(94.63875 273.957812) scale(0.14 -0.14)">
       <defs>
        <path id="DejaVuSans-31" d="M 794 531 
L 1825 531 
L 1825 4091 
L 703 3866 
L 703 4441 
L 1819 4666 
L 2450 4666 
L 2450 531 
L 3481 531 
L 3481 0 
L 794 0 
L 794 531 
z
" transform="scale(0.015625)"/>
        <path id="DejaVuSans-30" d="M 2034 4250 
Q 1547 4250 1301 3770 
Q 1056 3291 1056 2328 
Q 1056 1369 1301 889 
Q 1547 409 2034 409 
Q 2525 409 2770 889 
Q 3016 1369 3016 2328 
Q 3016 3291 2770 3770 
Q 2525 4250 2034 4250 
z
M 2034 4750 
Q 2819 4750 3233 4129 
Q 3647 3509 3647 2328 
Q 3647 1150 3233 529 
Q 2819 -91 2034 -91 
Q 1250 -91 836 529 
Q 422 1150 422 2328 
Q 422 3509 836 4129 
Q 1250 4750 2034 4750 
z
" transform="scale(0.015625)"/>
       </defs>
       <use xlink:href="#DejaVuSans-31"/>
       <use xlink:href="#DejaVuSans-30" x="63.623047"/>
       <use xlink:href="#DejaVuSans-30" x="127.246094"/>
      </g>
     </g>
    </g>
    <g id="xtick_2">
     <g id="line2d_3">
      <path d="M 241.92 256.32 
L 241.92 34.56 
" clip-path="url(#pc83f04b0ad)" style="fill: none; stroke: #b0b0b0; stroke-width: 0.8; stroke-linecap: square"/>
     </g>
     <g id="line2d_4">
      <g>
       <use xlink:href="#me610027fc0" x="241.92" y="256.32" style="stroke: #000000; stroke-width: 0.8"/>
      </g>
     </g>
     <g id="text_2">
      <!-- 120 -->
      <g transform="translate(228.55875 273.957812) scale(0.14 -0.14)">
       <defs>
        <path id="DejaVuSans-32" d="M 1228 531 
L 3431 531 
L 3431 0 
L 469 0 
L 469 531 
Q 828 903 1448 1529 
Q 2069 2156 2228 2338 
Q 2531 2678 2651 2914 
Q 2772 3150 2772 3378 
Q 2772 3750 2511 3984 
Q 2250 4219 1831 4219 
Q 1534 4219 1204 4116 
Q 875 4013 500 3803 
L 500 4441 
Q 881 4594 1212 4672 
Q 1544 4750 1819 4750 
Q 2544 4750 2975 4387 
Q 3406 4025 3406 3419 
Q 3406 3131 3298 2873 
Q 3191 2616 2906 2266 
Q 2828 2175 2409 1742 
Q 1991 1309 1228 531 
z
" transform="scale(0.015625)"/>
       </defs>
       <use xlink:href="#DejaVuSans-31"/>
       <use xlink:href="#DejaVuSans-32" x="63.623047"/>
       <use xlink:href="#DejaVuSans-30" x="127.246094"/>
      </g>
     </g>
    </g>
    <g id="xtick_3">
     <g id="line2d_5">
      <path d="M 375.84 256.32 
L 375.84 34.56 
" clip-path="url(#pc83f04b0ad)" style="fill: none; stroke: #b0b0b0; stroke-width: 0.8; stroke-linecap: square"/>
     </g>
     <g id="line2d_6">
      <g>
       <use xlink:href="#me610027fc0" x="375.84" y="256.32" style="stroke: #000000; stroke-width: 0.8"/>
      </g>
     </g>
     <g id="text_3">
      <!-- 140 -->
      <g transform="translate(362.47875 273.957812) scale(0.14 -0.14)">
       <defs>
        <path id="DejaVuSans-34" d="M 2419 4116 
L 825 1625 
L 2419 1625 
L 2419 4116 
z
M 2253 4666 
L 3047 4666 
L 3047 1625 
L 3713 1625 
L 3713 1100 
L 3047 1100 
L 3047 0 
L 2419 0 
L 2419 1100 
L 313 1100 
L 313 1709 
L 2253 4666 
z
" transform="scale(0.015625)"/>
       </defs>
       <use xlink:href="#DejaVuSans-31"/>
       <use xlink:href="#DejaVuSans-34" x="63.623047"/>
       <use xlink:href="#DejaVuSans-30" x="127.246094"/>
      </g>
     </g>
    </g>
    <g id="xtick_4">
     <g id="line2d_7">
      <path d="M 509.76 256.32 
L 509.76 34.56 
" clip-path="url(#pc83f04b0ad)" style="fill: none; stroke: #b0b0b0; stroke-width: 0.8; stroke-linecap: square"/>
     </g>
     <g id="line2d_8">
      <g>
       <use xlink:href="#me610027fc0" x="509.76" y="256.32" style="stroke: #000000; stroke-width: 0.8"/>
      </g>
     </g>
     <g id="text_4">
      <!-- 160 -->
      <g transform="translate(496.39875 273.957812) scale(0.14 -0.14)">
       <defs>
        <path id="DejaVuSans-36" d="M 2113 2584 
Q 1688 2584 1439 2293 
Q 1191 2003 1191 1497 
Q 1191 994 1439 701 
Q 1688 409 2113 409 
Q 2538 409 2786 701 
Q 3034 994 3034 1497 
Q 3034 2003 2786 2293 
Q 2538 2584 2113 2584 
z
M 3366 4563 
L 3366 3988 
Q 3128 4100 2886 4159 
Q 2644 4219 2406 4219 
Q 1781 4219 1451 3797 
Q 1122 3375 1075 2522 
Q 1259 2794 1537 2939 
Q 1816 3084 2150 3084 
Q 2853 3084 3261 2657 
Q 3669 2231 3669 1497 
Q 3669 778 3244 343 
Q 2819 -91 2113 -91 
Q 1303 -91 875 529 
Q 447 1150 447 2328 
Q 447 3434 972 4092 
Q 1497 4750 2381 4750 
Q 2619 4750 2861 4703 
Q 3103 4656 3366 4563 
z
" transform="scale(0.015625)"/>
       </defs>
       <use xlink:href="#DejaVuSans-31"/>
       <use xlink:href="#DejaVuSans-36" x="63.623047"/>
       <use xlink:href="#DejaVuSans-30" x="127.246094"/>
      </g>
     </g>
    </g>
    <g id="xtick_5">
     <g id="line2d_9">
      <path d="M 643.68 256.32 
L 643.68 34.56 
" clip-path="url(#pc83f04b0ad)" style="fill: none; stroke: #b0b0b0; stroke-width: 0.8; stroke-linecap: square"/>
     </g>
     <g id="line2d_10">
      <g>
       <use xlink:href="#me610027fc0" x="643.68" y="256.32" style="stroke: #000000; stroke-width: 0.8"/>
      </g>
     </g>
     <g id="text_5">
      <!-- 180 -->
      <g transform="translate(630.31875 273.957812) scale(0.14 -0.14)">
       <defs>
        <path id="DejaVuSans-38" d="M 2034 2216 
Q 1584 2216 1326 1975 
Q 1069 1734 1069 1313 
Q 1069 891 1326 650 
Q 1584 409 2034 409 
Q 2484 409 2743 651 
Q 3003 894 3003 1313 
Q 3003 1734 2745 1975 
Q 2488 2216 2034 2216 
z
M 1403 2484 
Q 997 2584 770 2862 
Q 544 3141 544 3541 
Q 544 4100 942 4425 
Q 1341 4750 2034 4750 
Q 2731 4750 3128 4425 
Q 3525 4100 3525 3541 
Q 3525 3141 3298 2862 
Q 3072 2584 2669 2484 
Q 3125 2378 3379 2068 
Q 3634 1759 3634 1313 
Q 3634 634 3220 271 
Q 2806 -91 2034 -91 
Q 1263 -91 848 271 
Q 434 634 434 1313 
Q 434 1759 690 2068 
Q 947 2378 1403 2484 
z
M 1172 3481 
Q 1172 3119 1398 2916 
Q 1625 2713 2034 2713 
Q 2441 2713 2670 2916 
Q 2900 3119 2900 3481 
Q 2900 3844 2670 4047 
Q 2441 4250 2034 4250 
Q 1625 4250 1398 4047 
Q 1172 3844 1172 3481 
z
" transform="scale(0.015625)"/>
       </defs>
       <use xlink:href="#DejaVuSans-31"/>
       <use xlink:href="#DejaVuSans-38" x="63.623047"/>
       <use xlink:href="#DejaVuSans-30" x="127.246094"/>
      </g>
     </g>
    </g>
    <g id="xtick_6">
     <g id="line2d_11">
      <path d="M 777.6 256.32 
L 777.6 34.56 
" clip-path="url(#pc83f04b0ad)" style="fill: none; stroke: #b0b0b0; stroke-width: 0.8; stroke-linecap: square"/>
     </g>
     <g id="line2d_12">
      <g>
       <use xlink:href="#me610027fc0" x="777.6" y="256.32" style="stroke: #000000; stroke-width: 0.8"/>
      </g>
     </g>
     <g id="text_6">
      <!-- 200 -->
      <g transform="translate(764.23875 273.957812) scale(0.14 -0.14)">
       <use xlink:href="#DejaVuSans-32"/>
       <use xlink:href="#DejaVuSans-30" x="63.623047"/>
       <use xlink:href="#DejaVuSans-30" x="127.246094"/>
      </g>
     </g>
    </g>
    <g id="text_7">
     <!-- Time (ms) -->
     <g transform="translate(407.521094 291.507187) scale(0.14 -0.14)">
      <defs>
       <path id="DejaVuSans-54" d="M -19 4666 
L 3928 4666 
L 3928 4134 
L 2272 4134 
L 2272 0 
L 1638 0 
L 1638 4134 
L -19 4134 
L -19 4666 
z
" transform="scale(0.015625)"/>
       <path id="DejaVuSans-69" d="M 603 3500 
L 1178 3500 
L 1178 0 
L 603 0 
L 603 3500 
z
M 603 4863 
L 1178 4863 
L 1178 4134 
L 603 4134 
L 603 4863 
z
" transform="scale(0.015625)"/>
       <path id="DejaVuSans-6d" d="M 3328 2828 
Q 3544 3216 3844 3400 
Q 4144 3584 4550 3584 
Q 5097 3584 5394 3201 
Q 5691 2819 5691 2113 
L 5691 0 
L 5113 0 
L 5113 2094 
Q 5113 2597 4934 2840 
Q 4756 3084 4391 3084 
Q 3944 3084 3684 2787 
Q 3425 2491 3425 1978 
L 3425 0 
L 2847 0 
L 2847 2094 
Q 2847 2600 2669 2842 
Q 2491 3084 2119 3084 
Q 1678 3084 1418 2786 
Q 1159 2488 1159 1978 
L 1159 0 
L 581 0 
L 581 3500 
L 1159 3500 
L 1159 2956 
Q 1356 3278 1631 3431 
Q 1906 3584 2284 3584 
Q 2666 3584 2933 3390 
Q 3200 3197 3328 2828 
z
" transform="scale(0.015625)"/>
       <path id="DejaVuSans-65" d="M 3597 1894 
L 3597 1613 
L 953 1613 
Q 991 1019 1311 708 
Q 1631 397 2203 397 
Q 2534 397 2845 478 
Q 3156 559 3463 722 
L 3463 178 
Q 3153 47 2828 -22 
Q 2503 -91 2169 -91 
Q 1331 -91 842 396 
Q 353 884 353 1716 
Q 353 2575 817 3079 
Q 1281 3584 2069 3584 
Q 2775 3584 3186 3129 
Q 3597 2675 3597 1894 
z
M 3022 2063 
Q 3016 2534 2758 2815 
Q 2500 3097 2075 3097 
Q 1594 3097 1305 2825 
Q 1016 2553 972 2059 
L 3022 2063 
z
" transform="scale(0.015625)"/>
       <path id="DejaVuSans-20" transform="scale(0.015625)"/>
       <path id="DejaVuSans-28" d="M 1984 4856 
Q 1566 4138 1362 3434 
Q 1159 2731 1159 2009 
Q 1159 1288 1364 580 
Q 1569 -128 1984 -844 
L 1484 -844 
Q 1016 -109 783 600 
Q 550 1309 550 2009 
Q 550 2706 781 3412 
Q 1013 4119 1484 4856 
L 1984 4856 
z
" transform="scale(0.015625)"/>
       <path id="DejaVuSans-73" d="M 2834 3397 
L 2834 2853 
Q 2591 2978 2328 3040 
Q 2066 3103 1784 3103 
Q 1356 3103 1142 2972 
Q 928 2841 928 2578 
Q 928 2378 1081 2264 
Q 1234 2150 1697 2047 
L 1894 2003 
Q 2506 1872 2764 1633 
Q 3022 1394 3022 966 
Q 3022 478 2636 193 
Q 2250 -91 1575 -91 
Q 1294 -91 989 -36 
Q 684 19 347 128 
L 347 722 
Q 666 556 975 473 
Q 1284 391 1588 391 
Q 1994 391 2212 530 
Q 2431 669 2431 922 
Q 2431 1156 2273 1281 
Q 2116 1406 1581 1522 
L 1381 1569 
Q 847 1681 609 1914 
Q 372 2147 372 2553 
Q 372 3047 722 3315 
Q 1072 3584 1716 3584 
Q 2034 3584 2315 3537 
Q 2597 3491 2834 3397 
z
" transform="scale(0.015625)"/>
       <path id="DejaVuSans-29" d="M 513 4856 
L 1013 4856 
Q 1481 4119 1714 3412 
Q 1947 2706 1947 2009 
Q 1947 1309 1714 600 
Q 1481 -109 1013 -844 
L 513 -844 
Q 928 -128 1133 580 
Q 1338 1288 1338 2009 
Q 1338 2731 1133 3434 
Q 928 4138 513 4856 
z
" transform="scale(0.015625)"/>
      </defs>
      <use xlink:href="#DejaVuSans-54"/>
      <use xlink:href="#DejaVuSans-69" x="57.958984"/>
      <use xlink:href="#DejaVuSans-6d" x="85.742188"/>
      <use xlink:href="#DejaVuSans-65" x="183.154297"/>
      <use xlink:href="#DejaVuSans-20" x="244.677734"/>
      <use xlink:href="#DejaVuSans-28" x="276.464844"/>
      <use xlink:href="#DejaVuSans-6d" x="315.478516"/>
      <use xlink:href="#DejaVuSans-73" x="412.890625"/>
      <use xlink:href="#DejaVuSans-29" x="464.990234"/>
     </g>
    </g>
   </g>
   <g id="matplotlib.axis_2">
    <g id="ytick_1">
     <g id="line2d_13">
      <path d="M 108 246.24 
L 777.6 246.24 
" clip-path="url(#pc83f04b0ad)" style="fill: none; stroke: #b0b0b0; stroke-width: 0.8; stroke-linecap: square"/>
     </g>
     <g id="line2d_14">
      <defs>
       <path id="mb6efe2f8b2" d="M 0 0 
L -3.5 0 
" style="stroke: #000000; stroke-width: 0.8"/>
      </defs>
      <g>
       <use xlink:href="#mb6efe2f8b2" x="108" y="246.24" style="stroke: #000000; stroke-width: 0.8"/>
      </g>
     </g>
     <g id="text_8">
      <!-- 0.00 -->
      <g transform="translate(69.828125 251.558906) scale(0.14 -0.14)">
       <defs>
        <path id="DejaVuSans-2e" d="M 684 794 
L 1344 794 
L 1344 0 
L 684 0 
L 684 794 
z
" transform="scale(0.015625)"/>
       </defs>
       <use xlink:href="#DejaVuSans-30"/>
       <use xlink:href="#DejaVuSans-2e" x="63.623047"/>
       <use xlink:href="#DejaVuSans-30" x="95.410156"/>
       <use xlink:href="#DejaVuSans-30" x="159.033203"/>
      </g>
     </g>
    </g>
    <g id="ytick_2">
     <g id="line2d_15">
      <path d="M 108 207.492345 
L 777.6 207.492345 
" clip-path="url(#pc83f04b0ad)" style="fill: none; stroke: #b0b0b0; stroke-width: 0.8; stroke-linecap: square"/>
     </g>
     <g id="line2d_16">
      <g>
       <use xlink:href="#mb6efe2f8b2" x="108" y="207.492345" style="stroke: #000000; stroke-width: 0.8"/>
      </g>
     </g>
     <g id="text_9">
      <!-- 0.05 -->
      <g transform="translate(69.828125 212.811251) scale(0.14 -0.14)">
       <defs>
        <path id="DejaVuSans-35" d="M 691 4666 
L 3169 4666 
L 3169 4134 
L 1269 4134 
L 1269 2991 
Q 1406 3038 1543 3061 
Q 1681 3084 1819 3084 
Q 2600 3084 3056 2656 
Q 3513 2228 3513 1497 
Q 3513 744 3044 326 
Q 2575 -91 1722 -91 
Q 1428 -91 1123 -41 
Q 819 9 494 109 
L 494 744 
Q 775 591 1075 516 
Q 1375 441 1709 441 
Q 2250 441 2565 725 
Q 2881 1009 2881 1497 
Q 2881 1984 2565 2268 
Q 2250 2553 1709 2553 
Q 1456 2553 1204 2497 
Q 953 2441 691 2322 
L 691 4666 
z
" transform="scale(0.015625)"/>
       </defs>
       <use xlink:href="#DejaVuSans-30"/>
       <use xlink:href="#DejaVuSans-2e" x="63.623047"/>
       <use xlink:href="#DejaVuSans-30" x="95.410156"/>
       <use xlink:href="#DejaVuSans-35" x="159.033203"/>
      </g>
     </g>
    </g>
    <g id="ytick_3">
     <g id="line2d_17">
      <path d="M 108 168.744689 
L 777.6 168.744689 
" clip-path="url(#pc83f04b0ad)" style="fill: none; stroke: #b0b0b0; stroke-width: 0.8; stroke-linecap: square"/>
     </g>
     <g id="line2d_18">
      <g>
       <use xlink:href="#mb6efe2f8b2" x="108" y="168.744689" style="stroke: #000000; stroke-width: 0.8"/>
      </g>
     </g>
     <g id="text_10">
      <!-- 0.10 -->
      <g transform="translate(69.828125 174.063596) scale(0.14 -0.14)">
       <use xlink:href="#DejaVuSans-30"/>
       <use xlink:href="#DejaVuSans-2e" x="63.623047"/>
       <use xlink:href="#DejaVuSans-31" x="95.410156"/>
       <use xlink:href="#DejaVuSans-30" x="159.033203"/>
      </g>
     </g>
    </g>
    <g id="ytick_4">
     <g id="line2d_19">
      <path d="M 108 129.997034 
L 777.6 129.997034 
" clip-path="url(#pc83f04b0ad)" style="fill: none; stroke: #b0b0b0; stroke-width: 0.8; stroke-linecap: square"/>
     </g>
     <g id="line2d_20">
      <g>
       <use xlink:href="#mb6efe2f8b2" x="108" y="129.997034" style="stroke: #000000; stroke-width: 0.8"/>
      </g>
     </g>
     <g id="text_11">
      <!-- 0.15 -->
      <g transform="translate(69.828125 135.31594) scale(0.14 -0.14)">
       <use xlink:href="#DejaVuSans-30"/>
       <use xlink:href="#DejaVuSans-2e" x="63.623047"/>
       <use xlink:href="#DejaVuSans-31" x="95.410156"/>
       <use xlink:href="#DejaVuSans-35" x="159.033203"/>
      </g>
     </g>
    </g>
    <g id="ytick_5">
     <g id="line2d_21">
      <path d="M 108 91.249379 
L 777.6 91.249379 
" clip-path="url(#pc83f04b0ad)" style="fill: none; stroke: #b0b0b0; stroke-width: 0.8; stroke-linecap: square"/>
     </g>
     <g id="line2d_22">
      <g>
       <use xlink:href="#mb6efe2f8b2" x="108" y="91.249379" style="stroke: #000000; stroke-width: 0.8"/>
      </g>
     </g>
     <g id="text_12">
      <!-- 0.20 -->
      <g transform="translate(69.828125 96.568285) scale(0.14 -0.14)">
       <use xlink:href="#DejaVuSans-30"/>
       <use xlink:href="#DejaVuSans-2e" x="63.623047"/>
       <use xlink:href="#DejaVuSans-32" x="95.410156"/>
       <use xlink:href="#DejaVuSans-30" x="159.033203"/>
      </g>
     </g>
    </g>
    <g id="ytick_6">
     <g id="line2d_23">
      <path d="M 108 52.501723 
L 777.6 52.501723 
" clip-path="url(#pc83f04b0ad)" style="fill: none; stroke: #b0b0b0; stroke-width: 0.8; stroke-linecap: square"/>
     </g>
     <g id="line2d_24">
      <g>
       <use xlink:href="#mb6efe2f8b2" x="108" y="52.501723" style="stroke: #000000; stroke-width: 0.8"/>
      </g>
     </g>
     <g id="text_13">
      <!-- 0.25 -->
      <g transform="translate(69.828125 57.820629) scale(0.14 -0.14)">
       <use xlink:href="#DejaVuSans-30"/>
       <use xlink:href="#DejaVuSans-2e" x="63.623047"/>
       <use xlink:href="#DejaVuSans-32" x="95.410156"/>
       <use xlink:href="#DejaVuSans-35" x="159.033203"/>
      </g>
     </g>
    </g>
    <g id="text_14">
     <!-- $g_{Inhib}$ (µS) -->
     <g transform="translate(62.888125 178.83) rotate(-90) scale(0.14 -0.14)">
      <defs>
       <path id="DejaVuSans-Oblique-67" d="M 3816 3500 
L 3219 434 
Q 3047 -456 2561 -893 
Q 2075 -1331 1253 -1331 
Q 950 -1331 690 -1286 
Q 431 -1241 206 -1147 
L 313 -588 
Q 525 -725 762 -790 
Q 1000 -856 1269 -856 
Q 1816 -856 2167 -557 
Q 2519 -259 2631 300 
L 2681 563 
Q 2441 288 2122 144 
Q 1803 0 1434 0 
Q 903 0 598 351 
Q 294 703 294 1319 
Q 294 1803 478 2267 
Q 663 2731 997 3091 
Q 1219 3328 1514 3456 
Q 1809 3584 2131 3584 
Q 2484 3584 2746 3420 
Q 3009 3256 3138 2956 
L 3238 3500 
L 3816 3500 
z
M 2950 2216 
Q 2950 2641 2750 2872 
Q 2550 3103 2181 3103 
Q 1953 3103 1747 3012 
Q 1541 2922 1394 2759 
Q 1156 2491 1023 2127 
Q 891 1763 891 1375 
Q 891 944 1092 712 
Q 1294 481 1672 481 
Q 2219 481 2584 976 
Q 2950 1472 2950 2216 
z
" transform="scale(0.015625)"/>
       <path id="DejaVuSans-Oblique-49" d="M 1081 4666 
L 1716 4666 
L 806 0 
L 172 0 
L 1081 4666 
z
" transform="scale(0.015625)"/>
       <path id="DejaVuSans-Oblique-6e" d="M 3566 2113 
L 3156 0 
L 2578 0 
L 2988 2091 
Q 3016 2238 3031 2350 
Q 3047 2463 3047 2528 
Q 3047 2791 2881 2937 
Q 2716 3084 2419 3084 
Q 1956 3084 1622 2776 
Q 1288 2469 1184 1941 
L 800 0 
L 225 0 
L 903 3500 
L 1478 3500 
L 1363 2950 
Q 1603 3253 1940 3418 
Q 2278 3584 2650 3584 
Q 3113 3584 3367 3334 
Q 3622 3084 3622 2631 
Q 3622 2519 3608 2391 
Q 3594 2263 3566 2113 
z
" transform="scale(0.015625)"/>
       <path id="DejaVuSans-Oblique-68" d="M 3566 2113 
L 3156 0 
L 2578 0 
L 2988 2091 
Q 3016 2238 3031 2350 
Q 3047 2463 3047 2528 
Q 3047 2791 2881 2937 
Q 2716 3084 2419 3084 
Q 1956 3084 1617 2771 
Q 1278 2459 1178 1941 
L 800 0 
L 225 0 
L 1172 4863 
L 1747 4863 
L 1375 2950 
Q 1594 3244 1934 3414 
Q 2275 3584 2650 3584 
Q 3113 3584 3367 3334 
Q 3622 3084 3622 2631 
Q 3622 2519 3608 2391 
Q 3594 2263 3566 2113 
z
" transform="scale(0.015625)"/>
       <path id="DejaVuSans-Oblique-69" d="M 1172 4863 
L 1747 4863 
L 1606 4134 
L 1031 4134 
L 1172 4863 
z
M 909 3500 
L 1484 3500 
L 800 0 
L 225 0 
L 909 3500 
z
" transform="scale(0.015625)"/>
       <path id="DejaVuSans-Oblique-62" d="M 3169 2138 
Q 3169 2591 2961 2847 
Q 2753 3103 2388 3103 
Q 2122 3103 1889 2973 
Q 1656 2844 1484 2597 
Q 1303 2338 1198 1995 
Q 1094 1653 1094 1313 
Q 1094 881 1298 636 
Q 1503 391 1863 391 
Q 2134 391 2365 517 
Q 2597 644 2772 891 
Q 2950 1147 3059 1487 
Q 3169 1828 3169 2138 
z
M 1381 2969 
Q 1594 3256 1914 3420 
Q 2234 3584 2584 3584 
Q 3122 3584 3439 3221 
Q 3756 2859 3756 2241 
Q 3756 1734 3570 1259 
Q 3384 784 3041 416 
Q 2816 172 2522 40 
Q 2228 -91 1906 -91 
Q 1566 -91 1316 65 
Q 1066 222 909 531 
L 806 0 
L 231 0 
L 1178 4863 
L 1753 4863 
L 1381 2969 
z
" transform="scale(0.015625)"/>
       <path id="DejaVuSans-b5" d="M 544 -1331 
L 544 3500 
L 1119 3500 
L 1119 1325 
Q 1119 872 1334 640 
Q 1550 409 1972 409 
Q 2434 409 2667 671 
Q 2900 934 2900 1459 
L 2900 3500 
L 3475 3500 
L 3475 806 
Q 3475 619 3529 530 
Q 3584 441 3700 441 
Q 3728 441 3778 458 
Q 3828 475 3916 513 
L 3916 50 
Q 3788 -22 3673 -56 
Q 3559 -91 3450 -91 
Q 3234 -91 3106 31 
Q 2978 153 2931 403 
Q 2775 156 2548 32 
Q 2322 -91 2016 -91 
Q 1697 -91 1473 31 
Q 1250 153 1119 397 
L 1119 -1331 
L 544 -1331 
z
" transform="scale(0.015625)"/>
       <path id="DejaVuSans-53" d="M 3425 4513 
L 3425 3897 
Q 3066 4069 2747 4153 
Q 2428 4238 2131 4238 
Q 1616 4238 1336 4038 
Q 1056 3838 1056 3469 
Q 1056 3159 1242 3001 
Q 1428 2844 1947 2747 
L 2328 2669 
Q 3034 2534 3370 2195 
Q 3706 1856 3706 1288 
Q 3706 609 3251 259 
Q 2797 -91 1919 -91 
Q 1588 -91 1214 -16 
Q 841 59 441 206 
L 441 856 
Q 825 641 1194 531 
Q 1563 422 1919 422 
Q 2459 422 2753 634 
Q 3047 847 3047 1241 
Q 3047 1584 2836 1778 
Q 2625 1972 2144 2069 
L 1759 2144 
Q 1053 2284 737 2584 
Q 422 2884 422 3419 
Q 422 4038 858 4394 
Q 1294 4750 2059 4750 
Q 2388 4750 2728 4690 
Q 3069 4631 3425 4513 
z
" transform="scale(0.015625)"/>
      </defs>
      <use xlink:href="#DejaVuSans-Oblique-67" transform="translate(0 0.125)"/>
      <use xlink:href="#DejaVuSans-Oblique-49" transform="translate(63.476562 -16.28125) scale(0.7)"/>
      <use xlink:href="#DejaVuSans-Oblique-6e" transform="translate(84.121094 -16.28125) scale(0.7)"/>
      <use xlink:href="#DejaVuSans-Oblique-68" transform="translate(128.486328 -16.28125) scale(0.7)"/>
      <use xlink:href="#DejaVuSans-Oblique-69" transform="translate(172.851562 -16.28125) scale(0.7)"/>
      <use xlink:href="#DejaVuSans-Oblique-62" transform="translate(192.299805 -16.28125) scale(0.7)"/>
      <use xlink:href="#DejaVuSans-20" transform="translate(239.467773 0.125)"/>
      <use xlink:href="#DejaVuSans-28" transform="translate(271.254883 0.125)"/>
      <use xlink:href="#DejaVuSans-b5" transform="translate(310.268555 0.125)"/>
      <use xlink:href="#DejaVuSans-53" transform="translate(373.891602 0.125)"/>
      <use xlink:href="#DejaVuSans-29" transform="translate(437.368164 0.125)"/>
     </g>
    </g>
   </g>
   <g id="line2d_25">
    <path d="M 108 115.955607 
L 109.3392 119.952002 
L 110.0088 114.682945 
L 110.6784 114.037916 
L 111.348 108.70416 
L 112.0176 108.155208 
L 115.3656 118.749364 
L 116.0352 113.499632 
L 116.7048 112.873619 
L 121.392 127.026426 
L 122.0616 121.643686 
L 122.7312 106.289921 
L 123.4008 102.860947 
L 124.74 107.117642 
L 126.7488 113.717318 
L 127.4184 108.548448 
L 128.088 108.001998 
L 128.7576 95.466795 
L 129.4272 92.371478 
L 130.0968 94.524597 
L 130.7664 89.664144 
L 131.436 89.421155 
L 138.132 112.736729 
L 138.8016 114.882058 
L 139.4712 109.694472 
L 140.1408 109.129606 
L 140.8104 103.874724 
L 141.48 103.403378 
L 142.8192 107.799948 
L 143.4888 102.726168 
L 144.1584 102.273278 
L 151.524 125.636394 
L 154.872 135.020115 
L 158.22 143.673724 
L 161.568 151.654027 
L 164.2464 157.588834 
L 164.916 151.714972 
L 165.5856 150.474858 
L 167.5944 154.863115 
L 170.9424 161.972813 
L 174.2904 168.529332 
L 177.6384 174.575712 
L 180.9864 180.151646 
L 184.3344 185.293737 
L 187.6824 190.03574 
L 191.0304 194.408786 
L 194.3784 198.441582 
L 197.7264 202.1606 
L 198.396 202.868934 
L 199.0656 196.267444 
L 199.7352 194.311394 
L 201.0744 195.809749 
L 204.4224 199.733541 
L 207.7704 203.352037 
L 210.4488 206.043046 
L 211.1184 199.39055 
L 211.788 190.085873 
L 212.4576 188.069424 
L 213.7968 189.766777 
L 214.4664 190.674273 
L 215.136 184.268745 
L 215.8056 182.505508 
L 217.1448 184.380243 
L 219.1536 187.314742 
L 219.8232 180.9632 
L 220.4928 179.253081 
L 221.832 181.231506 
L 223.8408 184.315374 
L 224.5104 178.01203 
L 225.18 176.349336 
L 226.5192 178.420335 
L 227.1888 164.91328 
L 227.8584 160.701993 
L 228.528 154.458635 
L 229.1976 153.174432 
L 229.8672 147.211772 
L 230.5368 146.044022 
L 231.2064 140.195945 
L 231.876 131.842495 
L 232.5456 130.761987 
L 233.8848 134.286344 
L 234.5544 128.786941 
L 235.224 127.915268 
L 237.9024 135.187409 
L 239.2416 138.727848 
L 239.9112 133.157072 
L 240.5808 132.215174 
L 241.2504 133.88776 
L 241.92 128.394762 
L 242.5896 127.529391 
L 244.5984 133.006134 
L 245.268 127.527303 
L 245.9376 126.675872 
L 246.6072 121.139031 
L 247.2768 120.390256 
L 249.9552 128.134555 
L 250.6248 130.032448 
L 251.2944 117.302963 
L 251.964 113.856749 
L 252.6336 115.664611 
L 253.3032 110.464449 
L 253.9728 109.88721 
L 254.6424 104.620154 
L 255.312 89.539948 
L 255.9816 79.081696 
L 256.6512 78.689292 
L 257.3208 81.222011 
L 257.9904 61.978443 
L 258.66 56.662183 
L 259.9992 62.234562 
L 261.3384 68.100792 
L 262.008 63.664957 
L 262.6776 63.839761 
L 268.0344 85.868495 
L 268.704 81.147142 
L 269.3736 81.041016 
L 276.0696 105.609914 
L 278.0784 112.281113 
L 278.748 107.135323 
L 279.4176 106.61158 
L 286.7832 129.266577 
L 290.1312 138.367847 
L 293.4792 146.760981 
L 296.8272 154.501077 
L 300.1752 161.638944 
L 303.5232 168.221439 
L 306.8712 174.291776 
L 310.2192 179.889801 
L 313.5672 185.052265 
L 316.9152 189.813057 
L 320.2632 194.203429 
L 323.6112 198.252203 
L 326.9592 201.985956 
L 330.3072 205.4292 
L 334.3248 209.20932 
L 338.3424 212.639305 
L 341.0208 214.747584 
L 341.6904 207.95521 
L 342.36 205.811344 
L 343.0296 206.301278 
L 347.0472 210.000621 
L 351.0648 213.357311 
L 353.0736 214.917198 
L 353.7432 208.122098 
L 354.4128 205.975551 
L 355.0824 199.164404 
L 355.752 189.863361 
L 356.4216 187.850488 
L 357.7608 189.554821 
L 358.4304 190.465723 
L 359.1 184.063546 
L 359.7696 182.303607 
L 360.4392 175.872856 
L 361.1088 174.244538 
L 362.448 176.382639 
L 363.1176 170.20677 
L 363.7872 168.669502 
L 364.4568 162.457845 
L 365.1264 161.045098 
L 365.796 147.65752 
L 366.4656 143.723525 
L 367.1352 137.753002 
L 367.8048 136.737249 
L 369.8136 141.77719 
L 370.4832 143.455854 
L 371.1528 130.510661 
L 371.8224 126.852206 
L 372.492 128.451237 
L 374.5008 134.038891 
L 375.1704 128.543465 
L 375.84 127.675705 
L 378.5184 134.962877 
L 379.188 136.751043 
L 380.5272 113.062709 
L 381.1968 104.825807 
L 381.8664 104.179443 
L 383.2056 108.551271 
L 383.8752 103.465418 
L 384.5448 95.702208 
L 385.2144 95.202456 
L 386.5536 99.860477 
L 387.2232 94.91428 
L 387.8928 94.586924 
L 388.5624 89.565736 
L 389.232 82.025887 
L 389.9016 81.745906 
L 390.5712 76.931066 
L 391.2408 69.59425 
L 391.9104 69.514039 
L 392.58 72.1942 
L 393.2496 67.692586 
L 393.9192 67.802668 
L 394.5888 63.211889 
L 395.2584 63.393974 
L 396.5976 69.066073 
L 397.2672 64.614727 
L 397.9368 64.774269 
L 401.2848 78.743735 
L 401.9544 74.136873 
L 402.624 74.143399 
L 403.2936 69.450728 
L 403.9632 69.532558 
L 409.9896 93.366041 
L 413.3376 105.260599 
L 416.6856 116.229686 
L 420.0336 126.345308 
L 423.3816 135.673872 
L 426.7296 144.276614 
L 430.0776 152.210009 
L 433.4256 159.526135 
L 436.7736 166.273021 
L 440.1216 172.494956 
L 443.4696 178.232786 
L 446.8176 183.524176 
L 450.1656 188.403863 
L 453.5136 192.903879 
L 456.8616 197.053766 
L 460.2096 200.880765 
L 462.2184 203.032513 
L 462.888 196.428395 
L 463.5576 194.469759 
L 464.8968 195.963065 
L 468.2448 199.874927 
L 470.9232 202.784109 
L 471.5928 188.885541 
L 472.2624 184.289032 
L 472.932 184.965083 
L 473.6016 185.94974 
L 474.2712 179.620133 
L 474.9408 177.931597 
L 476.28 179.952152 
L 479.628 185.109764 
L 482.976 189.866082 
L 483.6456 183.473542 
L 484.3152 181.723084 
L 485.6544 183.622763 
L 489.0024 188.494779 
L 491.0112 191.234092 
L 491.6808 184.819568 
L 492.3504 183.04748 
L 493.6896 184.904937 
L 497.0376 189.677192 
L 497.7072 183.287686 
L 498.3768 181.540215 
L 499.0464 175.121732 
L 499.716 173.505483 
L 501.0552 175.667146 
L 504.4032 181.158159 
L 505.0728 174.90555 
L 505.7424 165.994335 
L 506.412 164.365024 
L 507.7512 166.818091 
L 509.0904 169.350121 
L 509.76 163.287261 
L 510.4296 154.562745 
L 511.0992 153.117134 
L 511.7688 154.453836 
L 512.4384 148.630352 
L 513.108 140.141365 
L 513.7776 138.927498 
L 515.7864 143.863538 
L 516.456 138.210235 
L 517.1256 137.187135 
L 518.4648 140.506653 
L 519.1344 134.907293 
L 519.804 133.93727 
L 520.4736 128.283742 
L 521.1432 127.420155 
L 521.8128 121.871354 
L 522.4824 121.110811 
L 523.8216 124.942855 
L 524.4912 119.593597 
L 525.1608 118.869657 
L 527.1696 124.757199 
L 527.8392 119.410925 
L 528.5088 111.391479 
L 529.1784 110.639608 
L 529.848 105.360461 
L 530.5176 90.268359 
L 531.1872 87.096843 
L 532.5264 91.85611 
L 533.196 87.038539 
L 534.5352 72.000837 
L 535.2048 71.881954 
L 541.2312 95.396695 
L 544.5792 107.133256 
L 547.9272 117.956638 
L 548.5968 112.719645 
L 549.2664 112.106166 
L 549.936 106.803452 
L 550.6056 106.285043 
L 557.9712 128.993339 
L 561.3192 138.115869 
L 564.6672 146.528608 
L 565.3368 140.832478 
L 566.0064 139.76724 
L 568.0152 144.663445 
L 571.3632 152.566741 
L 574.7112 159.855112 
L 578.0592 166.576401 
L 581.4072 172.774732 
L 584.7552 178.490793 
L 588.1032 183.762109 
L 591.4512 188.623283 
L 594.7992 193.106227 
L 598.1472 197.24037 
L 601.4952 201.05285 
L 604.8432 204.568695 
L 608.1912 207.810986 
L 612.2088 211.370492 
L 614.2176 213.024629 
L 614.8872 206.259942 
L 615.5568 204.143318 
L 616.2264 204.660056 
L 618.2352 206.632522 
L 618.9048 199.970553 
L 620.244 181.332495 
L 620.9136 179.456708 
L 622.2528 181.428641 
L 622.9224 182.470126 
L 623.592 176.196435 
L 624.2616 174.562916 
L 625.6008 176.690867 
L 628.9488 182.102228 
L 631.6272 186.12656 
L 632.2968 179.794111 
L 632.9664 178.102779 
L 633.636 179.037975 
L 634.3056 172.819436 
L 635.6448 155.046976 
L 636.3144 153.593584 
L 636.984 154.922629 
L 637.6536 149.091612 
L 638.3232 147.893654 
L 638.9928 142.015854 
L 639.6624 140.931599 
L 640.332 142.464117 
L 641.0016 136.833301 
L 641.6712 135.832328 
L 642.3408 137.446788 
L 643.0104 131.896598 
L 643.68 123.676514 
L 644.3496 122.727229 
L 645.0192 117.25384 
L 645.6888 116.567499 
L 647.028 120.544387 
L 648.3672 97.372733 
L 649.0368 89.387961 
L 649.7064 88.989675 
L 650.376 91.356872 
L 651.0456 79.248883 
L 651.7152 76.414179 
L 653.0544 81.514017 
L 656.4024 94.330738 
L 657.072 89.473401 
L 657.7416 89.233476 
L 659.0808 94.081793 
L 659.7504 81.930016 
L 660.42 79.052227 
L 661.7592 84.067962 
L 665.1072 96.68597 
L 665.7768 99.089226 
L 666.4464 86.856982 
L 667.116 83.90002 
L 667.7856 86.189271 
L 668.4552 81.462763 
L 669.1248 81.351566 
L 672.4728 94.031214 
L 673.1424 89.17869 
L 673.812 88.943502 
L 675.8208 96.250679 
L 676.4904 91.362489 
L 677.16 91.092208 
L 682.5168 109.808318 
L 683.1864 104.702265 
L 683.856 104.217621 
L 691.2216 127.263371 
L 694.5696 136.520503 
L 697.9176 145.057372 
L 701.2656 152.930019 
L 704.6136 160.190124 
L 707.9616 166.885348 
L 711.3096 173.05964 
L 714.6576 178.753534 
L 718.0056 184.004407 
L 721.3536 188.846728 
L 724.7016 193.312287 
L 728.0496 197.430397 
L 731.3976 201.228092 
L 734.7456 204.730302 
L 735.4152 198.098901 
L 736.0848 196.113421 
L 737.424 197.554326 
L 738.0936 191.038239 
L 738.7632 189.16622 
L 740.1024 190.828607 
L 742.7808 194.305401 
L 743.4504 187.841522 
L 744.12 186.020873 
L 745.4592 187.783536 
L 748.8072 192.331817 
L 750.1464 194.05045 
L 750.816 187.590669 
L 751.4856 185.774051 
L 752.8248 187.544582 
L 756.1728 192.111456 
L 756.8424 192.981274 
L 757.512 186.538674 
L 758.1816 184.73896 
L 758.8512 178.269075 
L 759.5208 176.60225 
L 760.1904 177.561559 
L 760.86 171.366745 
L 761.5296 169.810837 
L 762.8688 172.090288 
L 764.208 174.454236 
L 764.8776 168.309355 
L 765.5472 159.504137 
L 766.2168 157.979121 
L 767.556 160.635775 
L 768.2256 162.011391 
L 768.8952 156.066461 
L 769.5648 154.756421 
L 770.904 157.515817 
L 771.5736 151.643129 
L 772.2432 150.404169 
L 774.252 154.795779 
L 774.9216 141.66836 
L 775.5912 137.830607 
L 776.2608 139.253221 
L 777.6 142.664039 
L 777.6 142.664039 
" clip-path="url(#pc83f04b0ad)" style="fill: none; stroke: #ff4500; stroke-width: 1.5; stroke-linecap: square"/>
   </g>
   <g id="patch_3">
    <path d="M 108 256.32 
L 108 34.56 
" style="fill: none; stroke: #000000; stroke-width: 0.8; stroke-linejoin: miter; stroke-linecap: square"/>
   </g>
   <g id="patch_4">
    <path d="M 777.6 256.32 
L 777.6 34.56 
" style="fill: none; stroke: #000000; stroke-width: 0.8; stroke-linejoin: miter; stroke-linecap: square"/>
   </g>
   <g id="patch_5">
    <path d="M 108 256.32 
L 777.6 256.32 
" style="fill: none; stroke: #000000; stroke-width: 0.8; stroke-linejoin: miter; stroke-linecap: square"/>
   </g>
   <g id="patch_6">
    <path d="M 108 34.56 
L 777.6 34.56 
" style="fill: none; stroke: #000000; stroke-width: 0.8; stroke-linejoin: miter; stroke-linecap: square"/>
   </g>
  </g>
 </g>
 <defs>
  <clipPath id="pc83f04b0ad">
   <rect x="108" y="34.56" width="669.6" height="221.76"/>
  </clipPath>
 </defs>
</svg>
