<?xml version="1.0" encoding="utf-8" standalone="no"?>
<!DOCTYPE svg PUBLIC "-//W3C//DTD SVG 1.1//EN"
  "http://www.w3.org/Graphics/SVG/1.1/DTD/svg11.dtd">
<svg xmlns:xlink="http://www.w3.org/1999/xlink" width="864pt" height="288pt" viewBox="0 0 864 288" xmlns="http://www.w3.org/2000/svg" version="1.1">
 <metadata>
  <rdf:RDF xmlns:dc="http://purl.org/dc/elements/1.1/" xmlns:cc="http://creativecommons.org/ns#" xmlns:rdf="http://www.w3.org/1999/02/22-rdf-syntax-ns#">
   <cc:Work>
    <dc:type rdf:resource="http://purl.org/dc/dcmitype/StillImage"/>
    <dc:date>2024-04-23T19:17:21.910446</dc:date>
    <dc:format>image/svg+xml</dc:format>
    <dc:creator>
     <cc:Agent>
      <dc:title>Matplotlib v3.8.2, https://matplotlib.org/</dc:title>
     </cc:Agent>
    </dc:creator>
   </cc:Work>
  </rdf:RDF>
 </metadata>
 <defs>
  <style type="text/css">*{stroke-linejoin: round; stroke-linecap: butt}</style>
 </defs>
 <g id="figure_1">
  <g id="patch_1">
   <path d="M 0 288 
L 864 288 
L 864 0 
L 0 0 
z
" style="fill: #ffffff"/>
  </g>
  <g id="axes_1">
   <g id="patch_2">
    <path d="M 108 256.32 
L 777.6 256.32 
L 777.6 34.56 
L 108 34.56 
z
" style="fill: #ffffff"/>
   </g>
   <g id="matplotlib.axis_1">
    <g id="xtick_1">
     <g id="line2d_1">
      <path d="M 108 256.32 
L 108 34.56 
" clip-path="url(#pe030b38b31)" style="fill: none; stroke: #b0b0b0; stroke-width: 0.8; stroke-linecap: square"/>
     </g>
     <g id="line2d_2">
      <defs>
       <path id="m75dbdeece4" d="M 0 0 
L 0 3.5 
" style="stroke: #000000; stroke-width: 0.8"/>
      </defs>
      <g>
       <use xlink:href="#m75dbdeece4" x="108" y="256.32" style="stroke: #000000; stroke-width: 0.8"/>
      </g>
     </g>
     <g id="text_1">
      <!-- 100 -->
      <g transform="translate(94.63875 273.957812) scale(0.14 -0.14)">
       <defs>
        <path id="DejaVuSans-31" d="M 794 531 
L 1825 531 
L 1825 4091 
L 703 3866 
L 703 4441 
L 1819 4666 
L 2450 4666 
L 2450 531 
L 3481 531 
L 3481 0 
L 794 0 
L 794 531 
z
" transform="scale(0.015625)"/>
        <path id="DejaVuSans-30" d="M 2034 4250 
Q 1547 4250 1301 3770 
Q 1056 3291 1056 2328 
Q 1056 1369 1301 889 
Q 1547 409 2034 409 
Q 2525 409 2770 889 
Q 3016 1369 3016 2328 
Q 3016 3291 2770 3770 
Q 2525 4250 2034 4250 
z
M 2034 4750 
Q 2819 4750 3233 4129 
Q 3647 3509 3647 2328 
Q 3647 1150 3233 529 
Q 2819 -91 2034 -91 
Q 1250 -91 836 529 
Q 422 1150 422 2328 
Q 422 3509 836 4129 
Q 1250 4750 2034 4750 
z
" transform="scale(0.015625)"/>
       </defs>
       <use xlink:href="#DejaVuSans-31"/>
       <use xlink:href="#DejaVuSans-30" x="63.623047"/>
       <use xlink:href="#DejaVuSans-30" x="127.246094"/>
      </g>
     </g>
    </g>
    <g id="xtick_2">
     <g id="line2d_3">
      <path d="M 241.92 256.32 
L 241.92 34.56 
" clip-path="url(#pe030b38b31)" style="fill: none; stroke: #b0b0b0; stroke-width: 0.8; stroke-linecap: square"/>
     </g>
     <g id="line2d_4">
      <g>
       <use xlink:href="#m75dbdeece4" x="241.92" y="256.32" style="stroke: #000000; stroke-width: 0.8"/>
      </g>
     </g>
     <g id="text_2">
      <!-- 120 -->
      <g transform="translate(228.55875 273.957812) scale(0.14 -0.14)">
       <defs>
        <path id="DejaVuSans-32" d="M 1228 531 
L 3431 531 
L 3431 0 
L 469 0 
L 469 531 
Q 828 903 1448 1529 
Q 2069 2156 2228 2338 
Q 2531 2678 2651 2914 
Q 2772 3150 2772 3378 
Q 2772 3750 2511 3984 
Q 2250 4219 1831 4219 
Q 1534 4219 1204 4116 
Q 875 4013 500 3803 
L 500 4441 
Q 881 4594 1212 4672 
Q 1544 4750 1819 4750 
Q 2544 4750 2975 4387 
Q 3406 4025 3406 3419 
Q 3406 3131 3298 2873 
Q 3191 2616 2906 2266 
Q 2828 2175 2409 1742 
Q 1991 1309 1228 531 
z
" transform="scale(0.015625)"/>
       </defs>
       <use xlink:href="#DejaVuSans-31"/>
       <use xlink:href="#DejaVuSans-32" x="63.623047"/>
       <use xlink:href="#DejaVuSans-30" x="127.246094"/>
      </g>
     </g>
    </g>
    <g id="xtick_3">
     <g id="line2d_5">
      <path d="M 375.84 256.32 
L 375.84 34.56 
" clip-path="url(#pe030b38b31)" style="fill: none; stroke: #b0b0b0; stroke-width: 0.8; stroke-linecap: square"/>
     </g>
     <g id="line2d_6">
      <g>
       <use xlink:href="#m75dbdeece4" x="375.84" y="256.32" style="stroke: #000000; stroke-width: 0.8"/>
      </g>
     </g>
     <g id="text_3">
      <!-- 140 -->
      <g transform="translate(362.47875 273.957812) scale(0.14 -0.14)">
       <defs>
        <path id="DejaVuSans-34" d="M 2419 4116 
L 825 1625 
L 2419 1625 
L 2419 4116 
z
M 2253 4666 
L 3047 4666 
L 3047 1625 
L 3713 1625 
L 3713 1100 
L 3047 1100 
L 3047 0 
L 2419 0 
L 2419 1100 
L 313 1100 
L 313 1709 
L 2253 4666 
z
" transform="scale(0.015625)"/>
       </defs>
       <use xlink:href="#DejaVuSans-31"/>
       <use xlink:href="#DejaVuSans-34" x="63.623047"/>
       <use xlink:href="#DejaVuSans-30" x="127.246094"/>
      </g>
     </g>
    </g>
    <g id="xtick_4">
     <g id="line2d_7">
      <path d="M 509.76 256.32 
L 509.76 34.56 
" clip-path="url(#pe030b38b31)" style="fill: none; stroke: #b0b0b0; stroke-width: 0.8; stroke-linecap: square"/>
     </g>
     <g id="line2d_8">
      <g>
       <use xlink:href="#m75dbdeece4" x="509.76" y="256.32" style="stroke: #000000; stroke-width: 0.8"/>
      </g>
     </g>
     <g id="text_4">
      <!-- 160 -->
      <g transform="translate(496.39875 273.957812) scale(0.14 -0.14)">
       <defs>
        <path id="DejaVuSans-36" d="M 2113 2584 
Q 1688 2584 1439 2293 
Q 1191 2003 1191 1497 
Q 1191 994 1439 701 
Q 1688 409 2113 409 
Q 2538 409 2786 701 
Q 3034 994 3034 1497 
Q 3034 2003 2786 2293 
Q 2538 2584 2113 2584 
z
M 3366 4563 
L 3366 3988 
Q 3128 4100 2886 4159 
Q 2644 4219 2406 4219 
Q 1781 4219 1451 3797 
Q 1122 3375 1075 2522 
Q 1259 2794 1537 2939 
Q 1816 3084 2150 3084 
Q 2853 3084 3261 2657 
Q 3669 2231 3669 1497 
Q 3669 778 3244 343 
Q 2819 -91 2113 -91 
Q 1303 -91 875 529 
Q 447 1150 447 2328 
Q 447 3434 972 4092 
Q 1497 4750 2381 4750 
Q 2619 4750 2861 4703 
Q 3103 4656 3366 4563 
z
" transform="scale(0.015625)"/>
       </defs>
       <use xlink:href="#DejaVuSans-31"/>
       <use xlink:href="#DejaVuSans-36" x="63.623047"/>
       <use xlink:href="#DejaVuSans-30" x="127.246094"/>
      </g>
     </g>
    </g>
    <g id="xtick_5">
     <g id="line2d_9">
      <path d="M 643.68 256.32 
L 643.68 34.56 
" clip-path="url(#pe030b38b31)" style="fill: none; stroke: #b0b0b0; stroke-width: 0.8; stroke-linecap: square"/>
     </g>
     <g id="line2d_10">
      <g>
       <use xlink:href="#m75dbdeece4" x="643.68" y="256.32" style="stroke: #000000; stroke-width: 0.8"/>
      </g>
     </g>
     <g id="text_5">
      <!-- 180 -->
      <g transform="translate(630.31875 273.957812) scale(0.14 -0.14)">
       <defs>
        <path id="DejaVuSans-38" d="M 2034 2216 
Q 1584 2216 1326 1975 
Q 1069 1734 1069 1313 
Q 1069 891 1326 650 
Q 1584 409 2034 409 
Q 2484 409 2743 651 
Q 3003 894 3003 1313 
Q 3003 1734 2745 1975 
Q 2488 2216 2034 2216 
z
M 1403 2484 
Q 997 2584 770 2862 
Q 544 3141 544 3541 
Q 544 4100 942 4425 
Q 1341 4750 2034 4750 
Q 2731 4750 3128 4425 
Q 3525 4100 3525 3541 
Q 3525 3141 3298 2862 
Q 3072 2584 2669 2484 
Q 3125 2378 3379 2068 
Q 3634 1759 3634 1313 
Q 3634 634 3220 271 
Q 2806 -91 2034 -91 
Q 1263 -91 848 271 
Q 434 634 434 1313 
Q 434 1759 690 2068 
Q 947 2378 1403 2484 
z
M 1172 3481 
Q 1172 3119 1398 2916 
Q 1625 2713 2034 2713 
Q 2441 2713 2670 2916 
Q 2900 3119 2900 3481 
Q 2900 3844 2670 4047 
Q 2441 4250 2034 4250 
Q 1625 4250 1398 4047 
Q 1172 3844 1172 3481 
z
" transform="scale(0.015625)"/>
       </defs>
       <use xlink:href="#DejaVuSans-31"/>
       <use xlink:href="#DejaVuSans-38" x="63.623047"/>
       <use xlink:href="#DejaVuSans-30" x="127.246094"/>
      </g>
     </g>
    </g>
    <g id="xtick_6">
     <g id="line2d_11">
      <path d="M 777.6 256.32 
L 777.6 34.56 
" clip-path="url(#pe030b38b31)" style="fill: none; stroke: #b0b0b0; stroke-width: 0.8; stroke-linecap: square"/>
     </g>
     <g id="line2d_12">
      <g>
       <use xlink:href="#m75dbdeece4" x="777.6" y="256.32" style="stroke: #000000; stroke-width: 0.8"/>
      </g>
     </g>
     <g id="text_6">
      <!-- 200 -->
      <g transform="translate(764.23875 273.957812) scale(0.14 -0.14)">
       <use xlink:href="#DejaVuSans-32"/>
       <use xlink:href="#DejaVuSans-30" x="63.623047"/>
       <use xlink:href="#DejaVuSans-30" x="127.246094"/>
      </g>
     </g>
    </g>
    <g id="text_7">
     <!-- Time (ms) -->
     <g transform="translate(407.521094 291.507187) scale(0.14 -0.14)">
      <defs>
       <path id="DejaVuSans-54" d="M -19 4666 
L 3928 4666 
L 3928 4134 
L 2272 4134 
L 2272 0 
L 1638 0 
L 1638 4134 
L -19 4134 
L -19 4666 
z
" transform="scale(0.015625)"/>
       <path id="DejaVuSans-69" d="M 603 3500 
L 1178 3500 
L 1178 0 
L 603 0 
L 603 3500 
z
M 603 4863 
L 1178 4863 
L 1178 4134 
L 603 4134 
L 603 4863 
z
" transform="scale(0.015625)"/>
       <path id="DejaVuSans-6d" d="M 3328 2828 
Q 3544 3216 3844 3400 
Q 4144 3584 4550 3584 
Q 5097 3584 5394 3201 
Q 5691 2819 5691 2113 
L 5691 0 
L 5113 0 
L 5113 2094 
Q 5113 2597 4934 2840 
Q 4756 3084 4391 3084 
Q 3944 3084 3684 2787 
Q 3425 2491 3425 1978 
L 3425 0 
L 2847 0 
L 2847 2094 
Q 2847 2600 2669 2842 
Q 2491 3084 2119 3084 
Q 1678 3084 1418 2786 
Q 1159 2488 1159 1978 
L 1159 0 
L 581 0 
L 581 3500 
L 1159 3500 
L 1159 2956 
Q 1356 3278 1631 3431 
Q 1906 3584 2284 3584 
Q 2666 3584 2933 3390 
Q 3200 3197 3328 2828 
z
" transform="scale(0.015625)"/>
       <path id="DejaVuSans-65" d="M 3597 1894 
L 3597 1613 
L 953 1613 
Q 991 1019 1311 708 
Q 1631 397 2203 397 
Q 2534 397 2845 478 
Q 3156 559 3463 722 
L 3463 178 
Q 3153 47 2828 -22 
Q 2503 -91 2169 -91 
Q 1331 -91 842 396 
Q 353 884 353 1716 
Q 353 2575 817 3079 
Q 1281 3584 2069 3584 
Q 2775 3584 3186 3129 
Q 3597 2675 3597 1894 
z
M 3022 2063 
Q 3016 2534 2758 2815 
Q 2500 3097 2075 3097 
Q 1594 3097 1305 2825 
Q 1016 2553 972 2059 
L 3022 2063 
z
" transform="scale(0.015625)"/>
       <path id="DejaVuSans-20" transform="scale(0.015625)"/>
       <path id="DejaVuSans-28" d="M 1984 4856 
Q 1566 4138 1362 3434 
Q 1159 2731 1159 2009 
Q 1159 1288 1364 580 
Q 1569 -128 1984 -844 
L 1484 -844 
Q 1016 -109 783 600 
Q 550 1309 550 2009 
Q 550 2706 781 3412 
Q 1013 4119 1484 4856 
L 1984 4856 
z
" transform="scale(0.015625)"/>
       <path id="DejaVuSans-73" d="M 2834 3397 
L 2834 2853 
Q 2591 2978 2328 3040 
Q 2066 3103 1784 3103 
Q 1356 3103 1142 2972 
Q 928 2841 928 2578 
Q 928 2378 1081 2264 
Q 1234 2150 1697 2047 
L 1894 2003 
Q 2506 1872 2764 1633 
Q 3022 1394 3022 966 
Q 3022 478 2636 193 
Q 2250 -91 1575 -91 
Q 1294 -91 989 -36 
Q 684 19 347 128 
L 347 722 
Q 666 556 975 473 
Q 1284 391 1588 391 
Q 1994 391 2212 530 
Q 2431 669 2431 922 
Q 2431 1156 2273 1281 
Q 2116 1406 1581 1522 
L 1381 1569 
Q 847 1681 609 1914 
Q 372 2147 372 2553 
Q 372 3047 722 3315 
Q 1072 3584 1716 3584 
Q 2034 3584 2315 3537 
Q 2597 3491 2834 3397 
z
" transform="scale(0.015625)"/>
       <path id="DejaVuSans-29" d="M 513 4856 
L 1013 4856 
Q 1481 4119 1714 3412 
Q 1947 2706 1947 2009 
Q 1947 1309 1714 600 
Q 1481 -109 1013 -844 
L 513 -844 
Q 928 -128 1133 580 
Q 1338 1288 1338 2009 
Q 1338 2731 1133 3434 
Q 928 4138 513 4856 
z
" transform="scale(0.015625)"/>
      </defs>
      <use xlink:href="#DejaVuSans-54"/>
      <use xlink:href="#DejaVuSans-69" x="57.958984"/>
      <use xlink:href="#DejaVuSans-6d" x="85.742188"/>
      <use xlink:href="#DejaVuSans-65" x="183.154297"/>
      <use xlink:href="#DejaVuSans-20" x="244.677734"/>
      <use xlink:href="#DejaVuSans-28" x="276.464844"/>
      <use xlink:href="#DejaVuSans-6d" x="315.478516"/>
      <use xlink:href="#DejaVuSans-73" x="412.890625"/>
      <use xlink:href="#DejaVuSans-29" x="464.990234"/>
     </g>
    </g>
   </g>
   <g id="matplotlib.axis_2">
    <g id="ytick_1">
     <g id="line2d_13">
      <path d="M 108 225.241004 
L 777.6 225.241004 
" clip-path="url(#pe030b38b31)" style="fill: none; stroke: #b0b0b0; stroke-width: 0.8; stroke-linecap: square"/>
     </g>
     <g id="line2d_14">
      <defs>
       <path id="m8c13a6e3db" d="M 0 0 
L -3.5 0 
" style="stroke: #000000; stroke-width: 0.8"/>
      </defs>
      <g>
       <use xlink:href="#m8c13a6e3db" x="108" y="225.241004" style="stroke: #000000; stroke-width: 0.8"/>
      </g>
     </g>
     <g id="text_8">
      <!-- −60 -->
      <g transform="translate(71.453437 230.55991) scale(0.14 -0.14)">
       <defs>
        <path id="DejaVuSans-2212" d="M 678 2272 
L 4684 2272 
L 4684 1741 
L 678 1741 
L 678 2272 
z
" transform="scale(0.015625)"/>
       </defs>
       <use xlink:href="#DejaVuSans-2212"/>
       <use xlink:href="#DejaVuSans-36" x="83.789062"/>
       <use xlink:href="#DejaVuSans-30" x="147.412109"/>
      </g>
     </g>
    </g>
    <g id="ytick_2">
     <g id="line2d_15">
      <path d="M 108 183.309933 
L 777.6 183.309933 
" clip-path="url(#pe030b38b31)" style="fill: none; stroke: #b0b0b0; stroke-width: 0.8; stroke-linecap: square"/>
     </g>
     <g id="line2d_16">
      <g>
       <use xlink:href="#m8c13a6e3db" x="108" y="183.309933" style="stroke: #000000; stroke-width: 0.8"/>
      </g>
     </g>
     <g id="text_9">
      <!-- −40 -->
      <g transform="translate(71.453437 188.628839) scale(0.14 -0.14)">
       <use xlink:href="#DejaVuSans-2212"/>
       <use xlink:href="#DejaVuSans-34" x="83.789062"/>
       <use xlink:href="#DejaVuSans-30" x="147.412109"/>
      </g>
     </g>
    </g>
    <g id="ytick_3">
     <g id="line2d_17">
      <path d="M 108 141.378861 
L 777.6 141.378861 
" clip-path="url(#pe030b38b31)" style="fill: none; stroke: #b0b0b0; stroke-width: 0.8; stroke-linecap: square"/>
     </g>
     <g id="line2d_18">
      <g>
       <use xlink:href="#m8c13a6e3db" x="108" y="141.378861" style="stroke: #000000; stroke-width: 0.8"/>
      </g>
     </g>
     <g id="text_10">
      <!-- −20 -->
      <g transform="translate(71.453437 146.697767) scale(0.14 -0.14)">
       <use xlink:href="#DejaVuSans-2212"/>
       <use xlink:href="#DejaVuSans-32" x="83.789062"/>
       <use xlink:href="#DejaVuSans-30" x="147.412109"/>
      </g>
     </g>
    </g>
    <g id="ytick_4">
     <g id="line2d_19">
      <path d="M 108 99.447789 
L 777.6 99.447789 
" clip-path="url(#pe030b38b31)" style="fill: none; stroke: #b0b0b0; stroke-width: 0.8; stroke-linecap: square"/>
     </g>
     <g id="line2d_20">
      <g>
       <use xlink:href="#m8c13a6e3db" x="108" y="99.447789" style="stroke: #000000; stroke-width: 0.8"/>
      </g>
     </g>
     <g id="text_11">
      <!-- 0 -->
      <g transform="translate(92.0925 104.766696) scale(0.14 -0.14)">
       <use xlink:href="#DejaVuSans-30"/>
      </g>
     </g>
    </g>
    <g id="ytick_5">
     <g id="line2d_21">
      <path d="M 108 57.516718 
L 777.6 57.516718 
" clip-path="url(#pe030b38b31)" style="fill: none; stroke: #b0b0b0; stroke-width: 0.8; stroke-linecap: square"/>
     </g>
     <g id="line2d_22">
      <g>
       <use xlink:href="#m8c13a6e3db" x="108" y="57.516718" style="stroke: #000000; stroke-width: 0.8"/>
      </g>
     </g>
     <g id="text_12">
      <!-- 20 -->
      <g transform="translate(83.185 62.835624) scale(0.14 -0.14)">
       <use xlink:href="#DejaVuSans-32"/>
       <use xlink:href="#DejaVuSans-30" x="63.623047"/>
      </g>
     </g>
    </g>
    <g id="text_13">
     <!-- $V_{m}$ (mV) -->
     <g transform="translate(64.541875 174.49) rotate(-90) scale(0.14 -0.14)">
      <defs>
       <path id="DejaVuSans-Oblique-56" d="M 1319 0 
L 500 4666 
L 1119 4666 
L 1797 653 
L 4063 4666 
L 4750 4666 
L 2053 0 
L 1319 0 
z
" transform="scale(0.015625)"/>
       <path id="DejaVuSans-Oblique-6d" d="M 5747 2113 
L 5338 0 
L 4763 0 
L 5166 2094 
Q 5191 2228 5203 2325 
Q 5216 2422 5216 2491 
Q 5216 2772 5059 2928 
Q 4903 3084 4622 3084 
Q 4203 3084 3875 2770 
Q 3547 2456 3450 1953 
L 3066 0 
L 2491 0 
L 2900 2094 
Q 2925 2209 2937 2307 
Q 2950 2406 2950 2484 
Q 2950 2769 2794 2926 
Q 2638 3084 2363 3084 
Q 1938 3084 1609 2770 
Q 1281 2456 1184 1953 
L 800 0 
L 225 0 
L 909 3500 
L 1484 3500 
L 1375 2956 
Q 1609 3263 1923 3423 
Q 2238 3584 2597 3584 
Q 2978 3584 3223 3384 
Q 3469 3184 3519 2828 
Q 3781 3197 4126 3390 
Q 4472 3584 4856 3584 
Q 5306 3584 5551 3325 
Q 5797 3066 5797 2591 
Q 5797 2488 5784 2364 
Q 5772 2241 5747 2113 
z
" transform="scale(0.015625)"/>
       <path id="DejaVuSans-56" d="M 1831 0 
L 50 4666 
L 709 4666 
L 2188 738 
L 3669 4666 
L 4325 4666 
L 2547 0 
L 1831 0 
z
" transform="scale(0.015625)"/>
      </defs>
      <use xlink:href="#DejaVuSans-Oblique-56" transform="translate(0 0.125)"/>
      <use xlink:href="#DejaVuSans-Oblique-6d" transform="translate(68.408203 -16.28125) scale(0.7)"/>
      <use xlink:href="#DejaVuSans-20" transform="translate(139.331055 0.125)"/>
      <use xlink:href="#DejaVuSans-28" transform="translate(171.118164 0.125)"/>
      <use xlink:href="#DejaVuSans-6d" transform="translate(210.131836 0.125)"/>
      <use xlink:href="#DejaVuSans-56" transform="translate(307.543945 0.125)"/>
      <use xlink:href="#DejaVuSans-29" transform="translate(375.952148 0.125)"/>
     </g>
    </g>
   </g>
   <g id="line2d_23">
    <path d="M 108 223.333141 
L 108.6696 223.998492 
L 110.0088 224.750354 
L 111.348 225.191263 
L 113.3568 225.56465 
L 114.0264 225.984341 
L 114.696 226.662333 
L 115.3656 227.134586 
L 116.0352 227.748493 
L 116.7048 228.532915 
L 117.3744 229.081813 
L 119.3832 230.165634 
L 120.0528 230.866451 
L 122.7312 232.724497 
L 124.0704 233.095588 
L 124.74 233.217302 
L 126.0792 233.900071 
L 126.7488 234.639278 
L 128.7576 236.228652 
L 130.0968 236.689646 
L 132.1056 237.011933 
L 132.7752 237.066223 
L 134.1144 237.594605 
L 135.4536 237.784776 
L 137.4624 237.838384 
L 138.8016 238.266732 
L 140.1408 238.376376 
L 141.48 238.825491 
L 142.8192 238.940681 
L 144.828 238.885803 
L 147.5064 238.607622 
L 150.8544 238.032255 
L 154.872 237.079618 
L 156.2112 236.655963 
L 158.22 235.635022 
L 163.5768 232.816826 
L 171.612 228.596698 
L 178.9776 224.44362 
L 187.6824 219.260315 
L 193.0392 215.980221 
L 194.3784 215.990969 
L 195.7176 215.580632 
L 198.396 214.393249 
L 203.0832 212.010693 
L 209.1096 208.679731 
L 213.1272 206.227099 
L 213.7968 205.783526 
L 215.136 205.905029 
L 215.8056 205.813078 
L 217.1448 206.443256 
L 218.484 206.560191 
L 219.8232 206.401563 
L 220.4928 206.263131 
L 221.1624 206.605499 
L 221.832 207.403712 
L 222.5016 208.007091 
L 223.1712 208.363834 
L 223.8408 208.573409 
L 225.18 209.666659 
L 226.5192 210.128006 
L 227.8584 210.285701 
L 229.1976 210.284839 
L 230.5368 211.069192 
L 231.876 211.330937 
L 232.5456 211.364148 
L 233.8848 212.196775 
L 234.5544 213.291961 
L 235.224 214.15634 
L 235.8936 214.655666 
L 237.2328 215.203916 
L 238.572 215.475237 
L 240.5808 215.61454 
L 241.2504 215.61194 
L 243.2592 216.929501 
L 243.9288 217.778007 
L 244.5984 218.36414 
L 246.6072 219.497379 
L 247.2768 219.940355 
L 248.616 220.38476 
L 249.2856 220.508243 
L 250.6248 222.056981 
L 251.2944 222.452318 
L 252.6336 222.893804 
L 253.9728 223.796071 
L 254.6424 224.036684 
L 255.9816 224.964174 
L 257.3208 225.37462 
L 260.6688 227.776436 
L 261.3384 228.545239 
L 262.6776 229.735111 
L 263.3472 230.535129 
L 264.0168 231.100382 
L 264.6864 231.464835 
L 265.356 232.026617 
L 266.0256 232.760382 
L 268.0344 234.381325 
L 272.052 236.155269 
L 274.0608 236.465699 
L 274.7304 236.52423 
L 276.0696 237.075626 
L 277.4088 237.28943 
L 279.4176 237.376808 
L 282.096 237.276783 
L 284.7744 236.996629 
L 286.1136 237.294025 
L 287.4528 237.278109 
L 289.4616 237.046556 
L 290.8008 236.667287 
L 294.8184 234.961387 
L 302.8536 231.454452 
L 308.2104 228.850352 
L 314.2368 225.680555 
L 321.6024 221.537895 
L 330.9768 215.985937 
L 334.9944 213.55137 
L 335.664 213.609071 
L 336.3336 214.067997 
L 337.0032 214.313384 
L 338.3424 214.256795 
L 340.3512 213.74757 
L 343.0296 212.797853 
L 344.3688 213.134247 
L 345.708 213.006074 
L 347.0472 213.551372 
L 348.3864 213.577402 
L 350.3952 213.258211 
L 353.0736 212.568412 
L 356.4216 211.47082 
L 357.7608 210.980778 
L 358.4304 211.205078 
L 359.1 211.83784 
L 359.7696 212.249852 
L 361.1088 212.493259 
L 362.448 212.448358 
L 364.4568 212.154122 
L 365.796 212.737379 
L 367.1352 212.829868 
L 368.4744 213.564871 
L 369.8136 213.761944 
L 370.4832 213.765461 
L 373.8312 215.772116 
L 375.1704 215.98319 
L 376.5096 216.021372 
L 377.8488 216.74894 
L 378.5184 217.737611 
L 379.188 218.504267 
L 379.8576 218.934628 
L 381.1968 219.393586 
L 382.536 219.610354 
L 383.2056 219.665039 
L 384.5448 220.427835 
L 385.2144 220.606529 
L 387.8928 222.510922 
L 389.232 222.939133 
L 391.2408 223.171867 
L 391.9104 223.191764 
L 392.58 223.562051 
L 394.5888 225.551225 
L 395.2584 225.866784 
L 396.5976 226.846414 
L 397.2672 227.107588 
L 397.9368 227.619968 
L 398.6064 228.672596 
L 399.276 230.065639 
L 399.9456 231.016658 
L 400.6152 231.598433 
L 401.9544 232.319432 
L 403.2936 232.766498 
L 405.3024 233.164479 
L 407.3112 233.352044 
L 407.9808 233.379622 
L 408.6504 233.684785 
L 409.32 234.209865 
L 409.9896 234.56439 
L 410.6592 234.76171 
L 411.3288 235.164718 
L 411.9984 235.746496 
L 412.668 236.145703 
L 414.0072 236.541167 
L 416.6856 237.087484 
L 418.0248 237.44098 
L 420.0336 237.553259 
L 422.712 237.431781 
L 424.0512 237.245166 
L 426.06 236.575545 
L 436.7736 232.380928 
L 442.1304 229.938624 
L 448.1568 226.914359 
L 454.8528 223.281877 
L 462.888 218.651884 
L 471.5928 213.439085 
L 472.932 213.502239 
L 474.2712 213.1331 
L 475.6104 212.60094 
L 476.9496 212.885511 
L 478.2888 212.697962 
L 480.2976 212.100086 
L 481.6368 211.613402 
L 482.976 211.978524 
L 484.3152 211.876801 
L 485.6544 212.460496 
L 486.9936 212.519146 
L 489.0024 212.232204 
L 491.6808 211.569648 
L 493.6896 210.953037 
L 495.0288 211.398968 
L 495.6984 211.427957 
L 497.0376 213.021793 
L 497.7072 213.83787 
L 498.3768 214.857178 
L 499.0464 215.562282 
L 499.716 215.98784 
L 500.3856 216.270294 
L 501.7248 217.377343 
L 502.3944 217.675966 
L 503.7336 218.763281 
L 505.0728 219.252799 
L 506.412 219.487962 
L 507.7512 220.318153 
L 509.0904 220.651215 
L 511.0992 220.793893 
L 511.7688 220.790279 
L 515.1168 222.551153 
L 516.456 222.739543 
L 517.7952 224.135329 
L 518.4648 224.472092 
L 520.4736 226.069928 
L 521.1432 226.523942 
L 522.4824 226.98975 
L 523.152 227.122907 
L 524.4912 227.894977 
L 525.8304 228.21456 
L 527.8392 228.367053 
L 530.5176 228.275044 
L 531.8568 229.352316 
L 532.5264 229.901915 
L 533.196 230.283891 
L 535.2048 231.009445 
L 535.8744 231.306667 
L 537.2136 231.55863 
L 539.2224 231.632135 
L 540.5616 232.139925 
L 541.2312 232.236268 
L 541.9008 232.576732 
L 543.9096 234.212381 
L 544.5792 234.460176 
L 546.588 235.710752 
L 547.2576 236.063512 
L 548.5968 236.417787 
L 550.6056 236.628159 
L 553.284 236.621068 
L 555.9624 236.395702 
L 557.9712 236.065516 
L 559.98 235.316432 
L 568.0152 231.989795 
L 569.3544 231.986175 
L 570.6936 231.654145 
L 573.372 230.696408 
L 577.3896 229.000993 
L 582.7464 226.462022 
L 588.7728 223.335933 
L 596.1384 219.240011 
L 606.1824 213.358204 
L 608.8608 211.750878 
L 610.2 211.843821 
L 611.5392 211.501625 
L 612.8784 210.987848 
L 614.2176 211.314077 
L 615.5568 211.165015 
L 616.2264 211.006062 
L 617.5656 211.507768 
L 618.9048 211.503971 
L 620.244 212.166214 
L 621.5832 212.287796 
L 622.9224 212.176622 
L 624.2616 212.821244 
L 625.6008 212.952548 
L 626.94 213.711629 
L 628.2792 213.925658 
L 628.9488 213.935725 
L 633.636 216.948455 
L 634.3056 217.610044 
L 634.9752 218.913503 
L 635.6448 219.868443 
L 636.3144 220.437267 
L 637.6536 221.106196 
L 638.9928 221.486104 
L 640.332 221.703919 
L 641.0016 222.148775 
L 641.6712 222.876814 
L 642.3408 223.384096 
L 643.68 223.883503 
L 645.0192 224.121724 
L 647.028 224.245809 
L 648.3672 224.223718 
L 649.7064 224.804655 
L 651.0456 224.961302 
L 652.3848 225.602448 
L 653.0544 225.733207 
L 654.3936 226.452995 
L 655.0632 226.610118 
L 655.7328 227.035923 
L 656.4024 227.694043 
L 657.072 228.139276 
L 657.7416 228.718229 
L 658.4112 229.462565 
L 659.0808 229.974106 
L 660.42 230.493246 
L 661.0896 230.641941 
L 662.4288 231.384771 
L 663.768 231.694615 
L 665.1072 231.821124 
L 666.4464 232.942524 
L 669.1248 234.051277 
L 670.464 234.834938 
L 671.8032 235.147516 
L 672.4728 235.226789 
L 673.1424 235.554109 
L 675.1512 237.112464 
L 676.4904 237.516294 
L 678.4992 237.76146 
L 681.1776 237.792156 
L 683.856 237.606805 
L 687.204 237.142392 
L 688.5432 237.391007 
L 689.8824 237.33016 
L 691.8912 236.985588 
L 693.9 236.176745 
L 707.9616 229.718227 
L 713.988 226.568225 
L 721.3536 222.440186 
L 730.0584 217.292161 
L 741.4416 210.314717 
L 744.7896 208.165157 
L 745.4592 208.230868 
L 746.1288 208.757037 
L 746.7984 209.087994 
L 747.468 209.188837 
L 748.8072 209.086039 
L 750.816 208.600031 
L 753.4944 207.665248 
L 756.1728 206.490153 
L 757.512 205.827581 
L 758.8512 206.145938 
L 760.1904 206.071309 
L 761.5296 206.78302 
L 762.1992 206.942037 
L 763.5384 207.972501 
L 764.208 208.245942 
L 764.8776 208.887172 
L 766.8864 211.911195 
L 767.556 212.442274 
L 768.8952 213.068736 
L 770.2344 213.396147 
L 770.904 213.936381 
L 772.9128 216.586829 
L 773.5824 217.045084 
L 774.252 217.365986 
L 775.5912 218.532695 
L 776.9304 219.10168 
L 777.6 219.278067 
L 777.6 219.278067 
" clip-path="url(#pe030b38b31)" style="fill: none; stroke: #000000; stroke-width: 1.5; stroke-linecap: square"/>
   </g>
   <g id="line2d_24">
    <path d="M 108 141.415345 
L 112.6872 144.365909 
L 115.3656 145.929252 
L 117.3744 147.380677 
L 120.7224 150.201218 
L 123.4008 152.914295 
L 126.0792 155.877386 
L 127.4184 157.61003 
L 128.7576 159.646145 
L 130.7664 163.225789 
L 132.7752 167.407496 
L 134.1144 170.626603 
L 136.1232 176.203082 
L 138.8016 184.535728 
L 142.1496 194.9606 
L 144.1584 200.478102 
L 146.1672 205.163893 
L 147.5064 207.83208 
L 148.8456 210.16638 
L 150.1848 212.198231 
L 151.524 213.958666 
L 153.5328 216.152674 
L 155.5416 217.885245 
L 156.2112 180.595973 
L 156.8808 164.053602 
L 157.5504 156.758687 
L 158.22 152.290801 
L 158.8896 149.314819 
L 159.5592 147.207512 
L 160.2288 145.641606 
L 160.8984 144.425353 
L 162.2376 142.612806 
L 163.5768 141.253026 
L 165.5856 139.642771 
L 167.5944 138.351947 
L 169.6032 137.301989 
L 172.2816 136.19603 
L 174.96 135.344842 
L 178.308 134.529467 
L 182.3256 133.794449 
L 187.6824 133.072197 
L 193.7088 132.488812 
L 197.7264 132.429982 
L 207.7704 132.203482 
L 215.8056 132.041938 
L 217.8144 132.263002 
L 222.5016 133.043196 
L 225.8496 134.042148 
L 229.1976 134.993321 
L 233.8848 136.281663 
L 235.8936 137.087894 
L 239.2416 138.506298 
L 244.5984 140.518474 
L 249.9552 143.338882 
L 253.3032 145.418398 
L 256.6512 147.715809 
L 259.3296 149.76255 
L 261.3384 151.587185 
L 263.3472 153.825183 
L 265.356 156.527846 
L 266.6952 158.619577 
L 268.0344 161.017976 
L 270.0432 165.208932 
L 271.3824 168.466808 
L 273.3912 174.063561 
L 276.0696 182.482718 
L 279.4176 193.138784 
L 281.4264 198.690357 
L 283.4352 203.391973 
L 285.444 207.29106 
L 287.4528 210.601021 
L 289.4616 213.358668 
L 290.1312 177.420639 
L 290.8008 161.958467 
L 291.4704 155.219567 
L 292.14 151.151624 
L 292.8096 148.479488 
L 293.4792 146.611119 
L 294.1488 145.236458 
L 295.488 143.31776 
L 296.8272 141.961071 
L 298.836 140.381459 
L 300.8448 139.095103 
L 302.8536 138.025173 
L 305.532 136.883506 
L 308.2104 136.000678 
L 311.5584 135.162176 
L 315.576 134.416959 
L 320.2632 133.77814 
L 326.2896 133.180816 
L 334.3248 132.617935 
L 336.3336 132.559399 
L 339.6816 132.852452 
L 347.7168 133.603955 
L 351.7344 134.181615 
L 357.0912 134.668477 
L 359.1 134.868615 
L 362.448 135.608612 
L 369.144 137.136881 
L 373.1616 138.393564 
L 379.8576 141.048702 
L 383.8752 143.055097 
L 386.5536 144.424584 
L 389.232 146.068591 
L 394.5888 149.569954 
L 396.5976 151.354822 
L 398.6064 153.405868 
L 399.9456 155.160102 
L 401.9544 158.362034 
L 403.9632 161.968611 
L 405.972 166.008701 
L 407.9808 170.589357 
L 409.32 174.023881 
L 411.3288 179.865881 
L 416.6856 196.396196 
L 418.6944 201.60986 
L 420.7032 206.054144 
L 422.712 209.734644 
L 423.3816 210.806906 
L 424.0512 175.650561 
L 424.7208 160.858351 
L 425.3904 154.456417 
L 426.06 150.631834 
L 426.7296 148.141689 
L 427.3992 146.413187 
L 428.0688 145.147977 
L 429.408 143.38455 
L 430.7472 142.125848 
L 432.756 140.628372 
L 434.7648 139.380104 
L 437.4432 138.01611 
L 440.1216 136.951992 
L 442.8 136.12651 
L 446.148 135.339612 
L 450.1656 134.64023 
L 455.5224 133.970086 
L 462.2184 133.383414 
L 470.9232 132.857046 
L 473.6016 132.816631 
L 477.6192 133.020404 
L 485.6544 133.832365 
L 490.3416 134.599864 
L 496.368 135.396422 
L 497.7072 135.800781 
L 500.3856 136.974333 
L 509.0904 140.8012 
L 516.456 143.941199 
L 518.4648 145.045723 
L 521.1432 146.835724 
L 526.5 150.887836 
L 531.8568 155.240391 
L 533.196 156.658341 
L 535.2048 159.152517 
L 537.2136 162.093118 
L 539.2224 165.458194 
L 541.2312 169.377597 
L 542.5704 172.420402 
L 543.9096 175.933574 
L 545.9184 181.877355 
L 549.936 194.222161 
L 551.9448 199.536277 
L 553.9536 204.027784 
L 555.9624 207.744679 
L 557.3016 209.83859 
L 557.9712 174.888682 
L 558.6408 160.288586 
L 559.3104 153.957642 
L 559.98 150.172089 
L 560.6496 147.70208 
L 561.3192 145.981983 
L 561.9888 144.718119 
L 563.328 142.947399 
L 564.6672 141.678752 
L 566.676 140.172281 
L 568.6848 138.93084 
L 570.6936 137.966435 
L 573.372 136.95525 
L 576.72 135.980034 
L 580.068 135.248554 
L 584.0856 134.59333 
L 589.4424 133.964426 
L 596.1384 133.414687 
L 605.5128 132.892345 
L 610.8696 132.759212 
L 614.8872 133.008888 
L 618.9048 133.532851 
L 623.592 134.436408 
L 627.6096 135.372343 
L 631.6272 136.493877 
L 634.3056 137.478278 
L 636.3144 138.491901 
L 638.9928 139.878449 
L 653.0544 146.389884 
L 655.7328 147.954383 
L 657.7416 149.398182 
L 659.7504 151.180836 
L 663.0984 154.530319 
L 665.7768 157.562619 
L 667.7856 160.332967 
L 669.1248 162.490643 
L 670.464 164.978531 
L 672.4728 169.373034 
L 673.812 172.768088 
L 675.1512 176.665653 
L 678.4992 187.586212 
L 680.508 193.833608 
L 682.5168 199.327932 
L 684.5256 203.968892 
L 685.8648 206.607848 
L 687.8736 209.965442 
L 689.8824 212.810282 
L 691.2216 214.439795 
L 691.8912 178.178416 
L 692.5608 162.45728 
L 693.2304 155.622052 
L 693.9 151.493375 
L 694.5696 148.775336 
L 695.2392 146.867712 
L 695.9088 145.457609 
L 697.248 143.475555 
L 698.5872 142.064559 
L 700.596 140.421958 
L 702.6048 139.093527 
L 704.6136 137.997324 
L 707.292 136.835817 
L 709.9704 135.942229 
L 713.3184 135.095792 
L 717.336 134.343779 
L 722.0232 133.697622 
L 728.0496 133.090992 
L 736.0848 132.515719 
L 745.4592 132.033129 
L 747.468 132.174653 
L 752.1552 132.70517 
L 756.8424 132.952726 
L 759.5208 133.117443 
L 762.1992 133.534401 
L 764.8776 134.251493 
L 766.2168 134.761453 
L 776.2608 139.53139 
L 777.6 140.202152 
L 777.6 140.202152 
" clip-path="url(#pe030b38b31)" style="fill: none; stroke: #4169e1; stroke-width: 1.5; stroke-linecap: square"/>
   </g>
   <g id="patch_3">
    <path d="M 108 256.32 
L 108 34.56 
" style="fill: none; stroke: #000000; stroke-width: 0.8; stroke-linejoin: miter; stroke-linecap: square"/>
   </g>
   <g id="patch_4">
    <path d="M 777.6 256.32 
L 777.6 34.56 
" style="fill: none; stroke: #000000; stroke-width: 0.8; stroke-linejoin: miter; stroke-linecap: square"/>
   </g>
   <g id="patch_5">
    <path d="M 108 256.32 
L 777.6 256.32 
" style="fill: none; stroke: #000000; stroke-width: 0.8; stroke-linejoin: miter; stroke-linecap: square"/>
   </g>
   <g id="patch_6">
    <path d="M 108 34.56 
L 777.6 34.56 
" style="fill: none; stroke: #000000; stroke-width: 0.8; stroke-linejoin: miter; stroke-linecap: square"/>
   </g>
   <g id="legend_1">
    <g id="patch_7">
     <path d="M 695.098438 71.91625 
L 770.6 71.91625 
Q 772.6 71.91625 772.6 69.91625 
L 772.6 41.56 
Q 772.6 39.56 770.6 39.56 
L 695.098438 39.56 
Q 693.098438 39.56 693.098438 41.56 
L 693.098438 69.91625 
Q 693.098438 71.91625 695.098438 71.91625 
z
" style="fill: #ffffff; opacity: 0.8; stroke: #cccccc; stroke-linejoin: miter"/>
    </g>
    <g id="line2d_25">
     <path d="M 697.098438 47.658437 
L 707.098438 47.658437 
L 717.098438 47.658437 
" style="fill: none; stroke: #000000; stroke-width: 1.5; stroke-linecap: square"/>
    </g>
    <g id="text_14">
     <!-- Soma -->
     <g transform="translate(725.098438 51.158437) scale(0.1 -0.1)">
      <defs>
       <path id="DejaVuSans-53" d="M 3425 4513 
L 3425 3897 
Q 3066 4069 2747 4153 
Q 2428 4238 2131 4238 
Q 1616 4238 1336 4038 
Q 1056 3838 1056 3469 
Q 1056 3159 1242 3001 
Q 1428 2844 1947 2747 
L 2328 2669 
Q 3034 2534 3370 2195 
Q 3706 1856 3706 1288 
Q 3706 609 3251 259 
Q 2797 -91 1919 -91 
Q 1588 -91 1214 -16 
Q 841 59 441 206 
L 441 856 
Q 825 641 1194 531 
Q 1563 422 1919 422 
Q 2459 422 2753 634 
Q 3047 847 3047 1241 
Q 3047 1584 2836 1778 
Q 2625 1972 2144 2069 
L 1759 2144 
Q 1053 2284 737 2584 
Q 422 2884 422 3419 
Q 422 4038 858 4394 
Q 1294 4750 2059 4750 
Q 2388 4750 2728 4690 
Q 3069 4631 3425 4513 
z
" transform="scale(0.015625)"/>
       <path id="DejaVuSans-6f" d="M 1959 3097 
Q 1497 3097 1228 2736 
Q 959 2375 959 1747 
Q 959 1119 1226 758 
Q 1494 397 1959 397 
Q 2419 397 2687 759 
Q 2956 1122 2956 1747 
Q 2956 2369 2687 2733 
Q 2419 3097 1959 3097 
z
M 1959 3584 
Q 2709 3584 3137 3096 
Q 3566 2609 3566 1747 
Q 3566 888 3137 398 
Q 2709 -91 1959 -91 
Q 1206 -91 779 398 
Q 353 888 353 1747 
Q 353 2609 779 3096 
Q 1206 3584 1959 3584 
z
" transform="scale(0.015625)"/>
       <path id="DejaVuSans-61" d="M 2194 1759 
Q 1497 1759 1228 1600 
Q 959 1441 959 1056 
Q 959 750 1161 570 
Q 1363 391 1709 391 
Q 2188 391 2477 730 
Q 2766 1069 2766 1631 
L 2766 1759 
L 2194 1759 
z
M 3341 1997 
L 3341 0 
L 2766 0 
L 2766 531 
Q 2569 213 2275 61 
Q 1981 -91 1556 -91 
Q 1019 -91 701 211 
Q 384 513 384 1019 
Q 384 1609 779 1909 
Q 1175 2209 1959 2209 
L 2766 2209 
L 2766 2266 
Q 2766 2663 2505 2880 
Q 2244 3097 1772 3097 
Q 1472 3097 1187 3025 
Q 903 2953 641 2809 
L 641 3341 
Q 956 3463 1253 3523 
Q 1550 3584 1831 3584 
Q 2591 3584 2966 3190 
Q 3341 2797 3341 1997 
z
" transform="scale(0.015625)"/>
      </defs>
      <use xlink:href="#DejaVuSans-53"/>
      <use xlink:href="#DejaVuSans-6f" x="63.476562"/>
      <use xlink:href="#DejaVuSans-6d" x="124.658203"/>
      <use xlink:href="#DejaVuSans-61" x="222.070312"/>
     </g>
    </g>
    <g id="line2d_26">
     <path d="M 697.098438 62.336562 
L 707.098438 62.336562 
L 717.098438 62.336562 
" style="fill: none; stroke: #4169e1; stroke-width: 1.5; stroke-linecap: square"/>
    </g>
    <g id="text_15">
     <!-- Dendrite -->
     <g transform="translate(725.098438 65.836562) scale(0.1 -0.1)">
      <defs>
       <path id="DejaVuSans-44" d="M 1259 4147 
L 1259 519 
L 2022 519 
Q 2988 519 3436 956 
Q 3884 1394 3884 2338 
Q 3884 3275 3436 3711 
Q 2988 4147 2022 4147 
L 1259 4147 
z
M 628 4666 
L 1925 4666 
Q 3281 4666 3915 4102 
Q 4550 3538 4550 2338 
Q 4550 1131 3912 565 
Q 3275 0 1925 0 
L 628 0 
L 628 4666 
z
" transform="scale(0.015625)"/>
       <path id="DejaVuSans-6e" d="M 3513 2113 
L 3513 0 
L 2938 0 
L 2938 2094 
Q 2938 2591 2744 2837 
Q 2550 3084 2163 3084 
Q 1697 3084 1428 2787 
Q 1159 2491 1159 1978 
L 1159 0 
L 581 0 
L 581 3500 
L 1159 3500 
L 1159 2956 
Q 1366 3272 1645 3428 
Q 1925 3584 2291 3584 
Q 2894 3584 3203 3211 
Q 3513 2838 3513 2113 
z
" transform="scale(0.015625)"/>
       <path id="DejaVuSans-64" d="M 2906 2969 
L 2906 4863 
L 3481 4863 
L 3481 0 
L 2906 0 
L 2906 525 
Q 2725 213 2448 61 
Q 2172 -91 1784 -91 
Q 1150 -91 751 415 
Q 353 922 353 1747 
Q 353 2572 751 3078 
Q 1150 3584 1784 3584 
Q 2172 3584 2448 3432 
Q 2725 3281 2906 2969 
z
M 947 1747 
Q 947 1113 1208 752 
Q 1469 391 1925 391 
Q 2381 391 2643 752 
Q 2906 1113 2906 1747 
Q 2906 2381 2643 2742 
Q 2381 3103 1925 3103 
Q 1469 3103 1208 2742 
Q 947 2381 947 1747 
z
" transform="scale(0.015625)"/>
       <path id="DejaVuSans-72" d="M 2631 2963 
Q 2534 3019 2420 3045 
Q 2306 3072 2169 3072 
Q 1681 3072 1420 2755 
Q 1159 2438 1159 1844 
L 1159 0 
L 581 0 
L 581 3500 
L 1159 3500 
L 1159 2956 
Q 1341 3275 1631 3429 
Q 1922 3584 2338 3584 
Q 2397 3584 2469 3576 
Q 2541 3569 2628 3553 
L 2631 2963 
z
" transform="scale(0.015625)"/>
       <path id="DejaVuSans-74" d="M 1172 4494 
L 1172 3500 
L 2356 3500 
L 2356 3053 
L 1172 3053 
L 1172 1153 
Q 1172 725 1289 603 
Q 1406 481 1766 481 
L 2356 481 
L 2356 0 
L 1766 0 
Q 1100 0 847 248 
Q 594 497 594 1153 
L 594 3053 
L 172 3053 
L 172 3500 
L 594 3500 
L 594 4494 
L 1172 4494 
z
" transform="scale(0.015625)"/>
      </defs>
      <use xlink:href="#DejaVuSans-44"/>
      <use xlink:href="#DejaVuSans-65" x="77.001953"/>
      <use xlink:href="#DejaVuSans-6e" x="138.525391"/>
      <use xlink:href="#DejaVuSans-64" x="201.904297"/>
      <use xlink:href="#DejaVuSans-72" x="265.380859"/>
      <use xlink:href="#DejaVuSans-69" x="306.494141"/>
      <use xlink:href="#DejaVuSans-74" x="334.277344"/>
      <use xlink:href="#DejaVuSans-65" x="373.486328"/>
     </g>
    </g>
   </g>
  </g>
 </g>
 <defs>
  <clipPath id="pe030b38b31">
   <rect x="108" y="34.56" width="669.6" height="221.76"/>
  </clipPath>
 </defs>
</svg>
