<?xml version="1.0" encoding="utf-8" standalone="no"?>
<!DOCTYPE svg PUBLIC "-//W3C//DTD SVG 1.1//EN"
  "http://www.w3.org/Graphics/SVG/1.1/DTD/svg11.dtd">
<svg xmlns:xlink="http://www.w3.org/1999/xlink" width="864pt" height="288pt" viewBox="0 0 864 288" xmlns="http://www.w3.org/2000/svg" version="1.1">
 <metadata>
  <rdf:RDF xmlns:dc="http://purl.org/dc/elements/1.1/" xmlns:cc="http://creativecommons.org/ns#" xmlns:rdf="http://www.w3.org/1999/02/22-rdf-syntax-ns#">
   <cc:Work>
    <dc:type rdf:resource="http://purl.org/dc/dcmitype/StillImage"/>
    <dc:date>2024-04-23T19:18:33.445292</dc:date>
    <dc:format>image/svg+xml</dc:format>
    <dc:creator>
     <cc:Agent>
      <dc:title>Matplotlib v3.8.2, https://matplotlib.org/</dc:title>
     </cc:Agent>
    </dc:creator>
   </cc:Work>
  </rdf:RDF>
 </metadata>
 <defs>
  <style type="text/css">*{stroke-linejoin: round; stroke-linecap: butt}</style>
 </defs>
 <g id="figure_1">
  <g id="patch_1">
   <path d="M 0 288 
L 864 288 
L 864 0 
L 0 0 
z
" style="fill: #ffffff"/>
  </g>
  <g id="axes_1">
   <g id="patch_2">
    <path d="M 108 256.32 
L 777.6 256.32 
L 777.6 34.56 
L 108 34.56 
z
" style="fill: #ffffff"/>
   </g>
   <g id="matplotlib.axis_1">
    <g id="xtick_1">
     <g id="line2d_1">
      <path d="M 108 256.32 
L 108 34.56 
" clip-path="url(#pf205bc2f56)" style="fill: none; stroke: #b0b0b0; stroke-width: 0.8; stroke-linecap: square"/>
     </g>
     <g id="line2d_2">
      <defs>
       <path id="md19e0e8cb7" d="M 0 0 
L 0 3.5 
" style="stroke: #000000; stroke-width: 0.8"/>
      </defs>
      <g>
       <use xlink:href="#md19e0e8cb7" x="108" y="256.32" style="stroke: #000000; stroke-width: 0.8"/>
      </g>
     </g>
     <g id="text_1">
      <!-- 100 -->
      <g transform="translate(94.63875 273.957812) scale(0.14 -0.14)">
       <defs>
        <path id="DejaVuSans-31" d="M 794 531 
L 1825 531 
L 1825 4091 
L 703 3866 
L 703 4441 
L 1819 4666 
L 2450 4666 
L 2450 531 
L 3481 531 
L 3481 0 
L 794 0 
L 794 531 
z
" transform="scale(0.015625)"/>
        <path id="DejaVuSans-30" d="M 2034 4250 
Q 1547 4250 1301 3770 
Q 1056 3291 1056 2328 
Q 1056 1369 1301 889 
Q 1547 409 2034 409 
Q 2525 409 2770 889 
Q 3016 1369 3016 2328 
Q 3016 3291 2770 3770 
Q 2525 4250 2034 4250 
z
M 2034 4750 
Q 2819 4750 3233 4129 
Q 3647 3509 3647 2328 
Q 3647 1150 3233 529 
Q 2819 -91 2034 -91 
Q 1250 -91 836 529 
Q 422 1150 422 2328 
Q 422 3509 836 4129 
Q 1250 4750 2034 4750 
z
" transform="scale(0.015625)"/>
       </defs>
       <use xlink:href="#DejaVuSans-31"/>
       <use xlink:href="#DejaVuSans-30" x="63.623047"/>
       <use xlink:href="#DejaVuSans-30" x="127.246094"/>
      </g>
     </g>
    </g>
    <g id="xtick_2">
     <g id="line2d_3">
      <path d="M 241.92 256.32 
L 241.92 34.56 
" clip-path="url(#pf205bc2f56)" style="fill: none; stroke: #b0b0b0; stroke-width: 0.8; stroke-linecap: square"/>
     </g>
     <g id="line2d_4">
      <g>
       <use xlink:href="#md19e0e8cb7" x="241.92" y="256.32" style="stroke: #000000; stroke-width: 0.8"/>
      </g>
     </g>
     <g id="text_2">
      <!-- 120 -->
      <g transform="translate(228.55875 273.957812) scale(0.14 -0.14)">
       <defs>
        <path id="DejaVuSans-32" d="M 1228 531 
L 3431 531 
L 3431 0 
L 469 0 
L 469 531 
Q 828 903 1448 1529 
Q 2069 2156 2228 2338 
Q 2531 2678 2651 2914 
Q 2772 3150 2772 3378 
Q 2772 3750 2511 3984 
Q 2250 4219 1831 4219 
Q 1534 4219 1204 4116 
Q 875 4013 500 3803 
L 500 4441 
Q 881 4594 1212 4672 
Q 1544 4750 1819 4750 
Q 2544 4750 2975 4387 
Q 3406 4025 3406 3419 
Q 3406 3131 3298 2873 
Q 3191 2616 2906 2266 
Q 2828 2175 2409 1742 
Q 1991 1309 1228 531 
z
" transform="scale(0.015625)"/>
       </defs>
       <use xlink:href="#DejaVuSans-31"/>
       <use xlink:href="#DejaVuSans-32" x="63.623047"/>
       <use xlink:href="#DejaVuSans-30" x="127.246094"/>
      </g>
     </g>
    </g>
    <g id="xtick_3">
     <g id="line2d_5">
      <path d="M 375.84 256.32 
L 375.84 34.56 
" clip-path="url(#pf205bc2f56)" style="fill: none; stroke: #b0b0b0; stroke-width: 0.8; stroke-linecap: square"/>
     </g>
     <g id="line2d_6">
      <g>
       <use xlink:href="#md19e0e8cb7" x="375.84" y="256.32" style="stroke: #000000; stroke-width: 0.8"/>
      </g>
     </g>
     <g id="text_3">
      <!-- 140 -->
      <g transform="translate(362.47875 273.957812) scale(0.14 -0.14)">
       <defs>
        <path id="DejaVuSans-34" d="M 2419 4116 
L 825 1625 
L 2419 1625 
L 2419 4116 
z
M 2253 4666 
L 3047 4666 
L 3047 1625 
L 3713 1625 
L 3713 1100 
L 3047 1100 
L 3047 0 
L 2419 0 
L 2419 1100 
L 313 1100 
L 313 1709 
L 2253 4666 
z
" transform="scale(0.015625)"/>
       </defs>
       <use xlink:href="#DejaVuSans-31"/>
       <use xlink:href="#DejaVuSans-34" x="63.623047"/>
       <use xlink:href="#DejaVuSans-30" x="127.246094"/>
      </g>
     </g>
    </g>
    <g id="xtick_4">
     <g id="line2d_7">
      <path d="M 509.76 256.32 
L 509.76 34.56 
" clip-path="url(#pf205bc2f56)" style="fill: none; stroke: #b0b0b0; stroke-width: 0.8; stroke-linecap: square"/>
     </g>
     <g id="line2d_8">
      <g>
       <use xlink:href="#md19e0e8cb7" x="509.76" y="256.32" style="stroke: #000000; stroke-width: 0.8"/>
      </g>
     </g>
     <g id="text_4">
      <!-- 160 -->
      <g transform="translate(496.39875 273.957812) scale(0.14 -0.14)">
       <defs>
        <path id="DejaVuSans-36" d="M 2113 2584 
Q 1688 2584 1439 2293 
Q 1191 2003 1191 1497 
Q 1191 994 1439 701 
Q 1688 409 2113 409 
Q 2538 409 2786 701 
Q 3034 994 3034 1497 
Q 3034 2003 2786 2293 
Q 2538 2584 2113 2584 
z
M 3366 4563 
L 3366 3988 
Q 3128 4100 2886 4159 
Q 2644 4219 2406 4219 
Q 1781 4219 1451 3797 
Q 1122 3375 1075 2522 
Q 1259 2794 1537 2939 
Q 1816 3084 2150 3084 
Q 2853 3084 3261 2657 
Q 3669 2231 3669 1497 
Q 3669 778 3244 343 
Q 2819 -91 2113 -91 
Q 1303 -91 875 529 
Q 447 1150 447 2328 
Q 447 3434 972 4092 
Q 1497 4750 2381 4750 
Q 2619 4750 2861 4703 
Q 3103 4656 3366 4563 
z
" transform="scale(0.015625)"/>
       </defs>
       <use xlink:href="#DejaVuSans-31"/>
       <use xlink:href="#DejaVuSans-36" x="63.623047"/>
       <use xlink:href="#DejaVuSans-30" x="127.246094"/>
      </g>
     </g>
    </g>
    <g id="xtick_5">
     <g id="line2d_9">
      <path d="M 643.68 256.32 
L 643.68 34.56 
" clip-path="url(#pf205bc2f56)" style="fill: none; stroke: #b0b0b0; stroke-width: 0.8; stroke-linecap: square"/>
     </g>
     <g id="line2d_10">
      <g>
       <use xlink:href="#md19e0e8cb7" x="643.68" y="256.32" style="stroke: #000000; stroke-width: 0.8"/>
      </g>
     </g>
     <g id="text_5">
      <!-- 180 -->
      <g transform="translate(630.31875 273.957812) scale(0.14 -0.14)">
       <defs>
        <path id="DejaVuSans-38" d="M 2034 2216 
Q 1584 2216 1326 1975 
Q 1069 1734 1069 1313 
Q 1069 891 1326 650 
Q 1584 409 2034 409 
Q 2484 409 2743 651 
Q 3003 894 3003 1313 
Q 3003 1734 2745 1975 
Q 2488 2216 2034 2216 
z
M 1403 2484 
Q 997 2584 770 2862 
Q 544 3141 544 3541 
Q 544 4100 942 4425 
Q 1341 4750 2034 4750 
Q 2731 4750 3128 4425 
Q 3525 4100 3525 3541 
Q 3525 3141 3298 2862 
Q 3072 2584 2669 2484 
Q 3125 2378 3379 2068 
Q 3634 1759 3634 1313 
Q 3634 634 3220 271 
Q 2806 -91 2034 -91 
Q 1263 -91 848 271 
Q 434 634 434 1313 
Q 434 1759 690 2068 
Q 947 2378 1403 2484 
z
M 1172 3481 
Q 1172 3119 1398 2916 
Q 1625 2713 2034 2713 
Q 2441 2713 2670 2916 
Q 2900 3119 2900 3481 
Q 2900 3844 2670 4047 
Q 2441 4250 2034 4250 
Q 1625 4250 1398 4047 
Q 1172 3844 1172 3481 
z
" transform="scale(0.015625)"/>
       </defs>
       <use xlink:href="#DejaVuSans-31"/>
       <use xlink:href="#DejaVuSans-38" x="63.623047"/>
       <use xlink:href="#DejaVuSans-30" x="127.246094"/>
      </g>
     </g>
    </g>
    <g id="xtick_6">
     <g id="line2d_11">
      <path d="M 777.6 256.32 
L 777.6 34.56 
" clip-path="url(#pf205bc2f56)" style="fill: none; stroke: #b0b0b0; stroke-width: 0.8; stroke-linecap: square"/>
     </g>
     <g id="line2d_12">
      <g>
       <use xlink:href="#md19e0e8cb7" x="777.6" y="256.32" style="stroke: #000000; stroke-width: 0.8"/>
      </g>
     </g>
     <g id="text_6">
      <!-- 200 -->
      <g transform="translate(764.23875 273.957812) scale(0.14 -0.14)">
       <use xlink:href="#DejaVuSans-32"/>
       <use xlink:href="#DejaVuSans-30" x="63.623047"/>
       <use xlink:href="#DejaVuSans-30" x="127.246094"/>
      </g>
     </g>
    </g>
    <g id="text_7">
     <!-- Time (ms) -->
     <g transform="translate(407.521094 291.507187) scale(0.14 -0.14)">
      <defs>
       <path id="DejaVuSans-54" d="M -19 4666 
L 3928 4666 
L 3928 4134 
L 2272 4134 
L 2272 0 
L 1638 0 
L 1638 4134 
L -19 4134 
L -19 4666 
z
" transform="scale(0.015625)"/>
       <path id="DejaVuSans-69" d="M 603 3500 
L 1178 3500 
L 1178 0 
L 603 0 
L 603 3500 
z
M 603 4863 
L 1178 4863 
L 1178 4134 
L 603 4134 
L 603 4863 
z
" transform="scale(0.015625)"/>
       <path id="DejaVuSans-6d" d="M 3328 2828 
Q 3544 3216 3844 3400 
Q 4144 3584 4550 3584 
Q 5097 3584 5394 3201 
Q 5691 2819 5691 2113 
L 5691 0 
L 5113 0 
L 5113 2094 
Q 5113 2597 4934 2840 
Q 4756 3084 4391 3084 
Q 3944 3084 3684 2787 
Q 3425 2491 3425 1978 
L 3425 0 
L 2847 0 
L 2847 2094 
Q 2847 2600 2669 2842 
Q 2491 3084 2119 3084 
Q 1678 3084 1418 2786 
Q 1159 2488 1159 1978 
L 1159 0 
L 581 0 
L 581 3500 
L 1159 3500 
L 1159 2956 
Q 1356 3278 1631 3431 
Q 1906 3584 2284 3584 
Q 2666 3584 2933 3390 
Q 3200 3197 3328 2828 
z
" transform="scale(0.015625)"/>
       <path id="DejaVuSans-65" d="M 3597 1894 
L 3597 1613 
L 953 1613 
Q 991 1019 1311 708 
Q 1631 397 2203 397 
Q 2534 397 2845 478 
Q 3156 559 3463 722 
L 3463 178 
Q 3153 47 2828 -22 
Q 2503 -91 2169 -91 
Q 1331 -91 842 396 
Q 353 884 353 1716 
Q 353 2575 817 3079 
Q 1281 3584 2069 3584 
Q 2775 3584 3186 3129 
Q 3597 2675 3597 1894 
z
M 3022 2063 
Q 3016 2534 2758 2815 
Q 2500 3097 2075 3097 
Q 1594 3097 1305 2825 
Q 1016 2553 972 2059 
L 3022 2063 
z
" transform="scale(0.015625)"/>
       <path id="DejaVuSans-20" transform="scale(0.015625)"/>
       <path id="DejaVuSans-28" d="M 1984 4856 
Q 1566 4138 1362 3434 
Q 1159 2731 1159 2009 
Q 1159 1288 1364 580 
Q 1569 -128 1984 -844 
L 1484 -844 
Q 1016 -109 783 600 
Q 550 1309 550 2009 
Q 550 2706 781 3412 
Q 1013 4119 1484 4856 
L 1984 4856 
z
" transform="scale(0.015625)"/>
       <path id="DejaVuSans-73" d="M 2834 3397 
L 2834 2853 
Q 2591 2978 2328 3040 
Q 2066 3103 1784 3103 
Q 1356 3103 1142 2972 
Q 928 2841 928 2578 
Q 928 2378 1081 2264 
Q 1234 2150 1697 2047 
L 1894 2003 
Q 2506 1872 2764 1633 
Q 3022 1394 3022 966 
Q 3022 478 2636 193 
Q 2250 -91 1575 -91 
Q 1294 -91 989 -36 
Q 684 19 347 128 
L 347 722 
Q 666 556 975 473 
Q 1284 391 1588 391 
Q 1994 391 2212 530 
Q 2431 669 2431 922 
Q 2431 1156 2273 1281 
Q 2116 1406 1581 1522 
L 1381 1569 
Q 847 1681 609 1914 
Q 372 2147 372 2553 
Q 372 3047 722 3315 
Q 1072 3584 1716 3584 
Q 2034 3584 2315 3537 
Q 2597 3491 2834 3397 
z
" transform="scale(0.015625)"/>
       <path id="DejaVuSans-29" d="M 513 4856 
L 1013 4856 
Q 1481 4119 1714 3412 
Q 1947 2706 1947 2009 
Q 1947 1309 1714 600 
Q 1481 -109 1013 -844 
L 513 -844 
Q 928 -128 1133 580 
Q 1338 1288 1338 2009 
Q 1338 2731 1133 3434 
Q 928 4138 513 4856 
z
" transform="scale(0.015625)"/>
      </defs>
      <use xlink:href="#DejaVuSans-54"/>
      <use xlink:href="#DejaVuSans-69" x="57.958984"/>
      <use xlink:href="#DejaVuSans-6d" x="85.742188"/>
      <use xlink:href="#DejaVuSans-65" x="183.154297"/>
      <use xlink:href="#DejaVuSans-20" x="244.677734"/>
      <use xlink:href="#DejaVuSans-28" x="276.464844"/>
      <use xlink:href="#DejaVuSans-6d" x="315.478516"/>
      <use xlink:href="#DejaVuSans-73" x="412.890625"/>
      <use xlink:href="#DejaVuSans-29" x="464.990234"/>
     </g>
    </g>
   </g>
   <g id="matplotlib.axis_2">
    <g id="ytick_1">
     <g id="line2d_13">
      <path d="M 108 246.24 
L 777.6 246.24 
" clip-path="url(#pf205bc2f56)" style="fill: none; stroke: #b0b0b0; stroke-width: 0.8; stroke-linecap: square"/>
     </g>
     <g id="line2d_14">
      <defs>
       <path id="m1d3fd0de68" d="M 0 0 
L -3.5 0 
" style="stroke: #000000; stroke-width: 0.8"/>
      </defs>
      <g>
       <use xlink:href="#m1d3fd0de68" x="108" y="246.24" style="stroke: #000000; stroke-width: 0.8"/>
      </g>
     </g>
     <g id="text_8">
      <!-- 0.00 -->
      <g transform="translate(69.828125 251.558906) scale(0.14 -0.14)">
       <defs>
        <path id="DejaVuSans-2e" d="M 684 794 
L 1344 794 
L 1344 0 
L 684 0 
L 684 794 
z
" transform="scale(0.015625)"/>
       </defs>
       <use xlink:href="#DejaVuSans-30"/>
       <use xlink:href="#DejaVuSans-2e" x="63.623047"/>
       <use xlink:href="#DejaVuSans-30" x="95.410156"/>
       <use xlink:href="#DejaVuSans-30" x="159.033203"/>
      </g>
     </g>
    </g>
    <g id="ytick_2">
     <g id="line2d_15">
      <path d="M 108 208.341936 
L 777.6 208.341936 
" clip-path="url(#pf205bc2f56)" style="fill: none; stroke: #b0b0b0; stroke-width: 0.8; stroke-linecap: square"/>
     </g>
     <g id="line2d_16">
      <g>
       <use xlink:href="#m1d3fd0de68" x="108" y="208.341936" style="stroke: #000000; stroke-width: 0.8"/>
      </g>
     </g>
     <g id="text_9">
      <!-- 0.05 -->
      <g transform="translate(69.828125 213.660842) scale(0.14 -0.14)">
       <defs>
        <path id="DejaVuSans-35" d="M 691 4666 
L 3169 4666 
L 3169 4134 
L 1269 4134 
L 1269 2991 
Q 1406 3038 1543 3061 
Q 1681 3084 1819 3084 
Q 2600 3084 3056 2656 
Q 3513 2228 3513 1497 
Q 3513 744 3044 326 
Q 2575 -91 1722 -91 
Q 1428 -91 1123 -41 
Q 819 9 494 109 
L 494 744 
Q 775 591 1075 516 
Q 1375 441 1709 441 
Q 2250 441 2565 725 
Q 2881 1009 2881 1497 
Q 2881 1984 2565 2268 
Q 2250 2553 1709 2553 
Q 1456 2553 1204 2497 
Q 953 2441 691 2322 
L 691 4666 
z
" transform="scale(0.015625)"/>
       </defs>
       <use xlink:href="#DejaVuSans-30"/>
       <use xlink:href="#DejaVuSans-2e" x="63.623047"/>
       <use xlink:href="#DejaVuSans-30" x="95.410156"/>
       <use xlink:href="#DejaVuSans-35" x="159.033203"/>
      </g>
     </g>
    </g>
    <g id="ytick_3">
     <g id="line2d_17">
      <path d="M 108 170.443872 
L 777.6 170.443872 
" clip-path="url(#pf205bc2f56)" style="fill: none; stroke: #b0b0b0; stroke-width: 0.8; stroke-linecap: square"/>
     </g>
     <g id="line2d_18">
      <g>
       <use xlink:href="#m1d3fd0de68" x="108" y="170.443872" style="stroke: #000000; stroke-width: 0.8"/>
      </g>
     </g>
     <g id="text_10">
      <!-- 0.10 -->
      <g transform="translate(69.828125 175.762778) scale(0.14 -0.14)">
       <use xlink:href="#DejaVuSans-30"/>
       <use xlink:href="#DejaVuSans-2e" x="63.623047"/>
       <use xlink:href="#DejaVuSans-31" x="95.410156"/>
       <use xlink:href="#DejaVuSans-30" x="159.033203"/>
      </g>
     </g>
    </g>
    <g id="ytick_4">
     <g id="line2d_19">
      <path d="M 108 132.545808 
L 777.6 132.545808 
" clip-path="url(#pf205bc2f56)" style="fill: none; stroke: #b0b0b0; stroke-width: 0.8; stroke-linecap: square"/>
     </g>
     <g id="line2d_20">
      <g>
       <use xlink:href="#m1d3fd0de68" x="108" y="132.545808" style="stroke: #000000; stroke-width: 0.8"/>
      </g>
     </g>
     <g id="text_11">
      <!-- 0.15 -->
      <g transform="translate(69.828125 137.864714) scale(0.14 -0.14)">
       <use xlink:href="#DejaVuSans-30"/>
       <use xlink:href="#DejaVuSans-2e" x="63.623047"/>
       <use xlink:href="#DejaVuSans-31" x="95.410156"/>
       <use xlink:href="#DejaVuSans-35" x="159.033203"/>
      </g>
     </g>
    </g>
    <g id="ytick_5">
     <g id="line2d_21">
      <path d="M 108 94.647744 
L 777.6 94.647744 
" clip-path="url(#pf205bc2f56)" style="fill: none; stroke: #b0b0b0; stroke-width: 0.8; stroke-linecap: square"/>
     </g>
     <g id="line2d_22">
      <g>
       <use xlink:href="#m1d3fd0de68" x="108" y="94.647744" style="stroke: #000000; stroke-width: 0.8"/>
      </g>
     </g>
     <g id="text_12">
      <!-- 0.20 -->
      <g transform="translate(69.828125 99.96665) scale(0.14 -0.14)">
       <use xlink:href="#DejaVuSans-30"/>
       <use xlink:href="#DejaVuSans-2e" x="63.623047"/>
       <use xlink:href="#DejaVuSans-32" x="95.410156"/>
       <use xlink:href="#DejaVuSans-30" x="159.033203"/>
      </g>
     </g>
    </g>
    <g id="ytick_6">
     <g id="line2d_23">
      <path d="M 108 56.74968 
L 777.6 56.74968 
" clip-path="url(#pf205bc2f56)" style="fill: none; stroke: #b0b0b0; stroke-width: 0.8; stroke-linecap: square"/>
     </g>
     <g id="line2d_24">
      <g>
       <use xlink:href="#m1d3fd0de68" x="108" y="56.74968" style="stroke: #000000; stroke-width: 0.8"/>
      </g>
     </g>
     <g id="text_13">
      <!-- 0.25 -->
      <g transform="translate(69.828125 62.068586) scale(0.14 -0.14)">
       <use xlink:href="#DejaVuSans-30"/>
       <use xlink:href="#DejaVuSans-2e" x="63.623047"/>
       <use xlink:href="#DejaVuSans-32" x="95.410156"/>
       <use xlink:href="#DejaVuSans-35" x="159.033203"/>
      </g>
     </g>
    </g>
    <g id="text_14">
     <!-- $g_{Inhib}$ (µS) -->
     <g transform="translate(62.888125 178.83) rotate(-90) scale(0.14 -0.14)">
      <defs>
       <path id="DejaVuSans-Oblique-67" d="M 3816 3500 
L 3219 434 
Q 3047 -456 2561 -893 
Q 2075 -1331 1253 -1331 
Q 950 -1331 690 -1286 
Q 431 -1241 206 -1147 
L 313 -588 
Q 525 -725 762 -790 
Q 1000 -856 1269 -856 
Q 1816 -856 2167 -557 
Q 2519 -259 2631 300 
L 2681 563 
Q 2441 288 2122 144 
Q 1803 0 1434 0 
Q 903 0 598 351 
Q 294 703 294 1319 
Q 294 1803 478 2267 
Q 663 2731 997 3091 
Q 1219 3328 1514 3456 
Q 1809 3584 2131 3584 
Q 2484 3584 2746 3420 
Q 3009 3256 3138 2956 
L 3238 3500 
L 3816 3500 
z
M 2950 2216 
Q 2950 2641 2750 2872 
Q 2550 3103 2181 3103 
Q 1953 3103 1747 3012 
Q 1541 2922 1394 2759 
Q 1156 2491 1023 2127 
Q 891 1763 891 1375 
Q 891 944 1092 712 
Q 1294 481 1672 481 
Q 2219 481 2584 976 
Q 2950 1472 2950 2216 
z
" transform="scale(0.015625)"/>
       <path id="DejaVuSans-Oblique-49" d="M 1081 4666 
L 1716 4666 
L 806 0 
L 172 0 
L 1081 4666 
z
" transform="scale(0.015625)"/>
       <path id="DejaVuSans-Oblique-6e" d="M 3566 2113 
L 3156 0 
L 2578 0 
L 2988 2091 
Q 3016 2238 3031 2350 
Q 3047 2463 3047 2528 
Q 3047 2791 2881 2937 
Q 2716 3084 2419 3084 
Q 1956 3084 1622 2776 
Q 1288 2469 1184 1941 
L 800 0 
L 225 0 
L 903 3500 
L 1478 3500 
L 1363 2950 
Q 1603 3253 1940 3418 
Q 2278 3584 2650 3584 
Q 3113 3584 3367 3334 
Q 3622 3084 3622 2631 
Q 3622 2519 3608 2391 
Q 3594 2263 3566 2113 
z
" transform="scale(0.015625)"/>
       <path id="DejaVuSans-Oblique-68" d="M 3566 2113 
L 3156 0 
L 2578 0 
L 2988 2091 
Q 3016 2238 3031 2350 
Q 3047 2463 3047 2528 
Q 3047 2791 2881 2937 
Q 2716 3084 2419 3084 
Q 1956 3084 1617 2771 
Q 1278 2459 1178 1941 
L 800 0 
L 225 0 
L 1172 4863 
L 1747 4863 
L 1375 2950 
Q 1594 3244 1934 3414 
Q 2275 3584 2650 3584 
Q 3113 3584 3367 3334 
Q 3622 3084 3622 2631 
Q 3622 2519 3608 2391 
Q 3594 2263 3566 2113 
z
" transform="scale(0.015625)"/>
       <path id="DejaVuSans-Oblique-69" d="M 1172 4863 
L 1747 4863 
L 1606 4134 
L 1031 4134 
L 1172 4863 
z
M 909 3500 
L 1484 3500 
L 800 0 
L 225 0 
L 909 3500 
z
" transform="scale(0.015625)"/>
       <path id="DejaVuSans-Oblique-62" d="M 3169 2138 
Q 3169 2591 2961 2847 
Q 2753 3103 2388 3103 
Q 2122 3103 1889 2973 
Q 1656 2844 1484 2597 
Q 1303 2338 1198 1995 
Q 1094 1653 1094 1313 
Q 1094 881 1298 636 
Q 1503 391 1863 391 
Q 2134 391 2365 517 
Q 2597 644 2772 891 
Q 2950 1147 3059 1487 
Q 3169 1828 3169 2138 
z
M 1381 2969 
Q 1594 3256 1914 3420 
Q 2234 3584 2584 3584 
Q 3122 3584 3439 3221 
Q 3756 2859 3756 2241 
Q 3756 1734 3570 1259 
Q 3384 784 3041 416 
Q 2816 172 2522 40 
Q 2228 -91 1906 -91 
Q 1566 -91 1316 65 
Q 1066 222 909 531 
L 806 0 
L 231 0 
L 1178 4863 
L 1753 4863 
L 1381 2969 
z
" transform="scale(0.015625)"/>
       <path id="DejaVuSans-b5" d="M 544 -1331 
L 544 3500 
L 1119 3500 
L 1119 1325 
Q 1119 872 1334 640 
Q 1550 409 1972 409 
Q 2434 409 2667 671 
Q 2900 934 2900 1459 
L 2900 3500 
L 3475 3500 
L 3475 806 
Q 3475 619 3529 530 
Q 3584 441 3700 441 
Q 3728 441 3778 458 
Q 3828 475 3916 513 
L 3916 50 
Q 3788 -22 3673 -56 
Q 3559 -91 3450 -91 
Q 3234 -91 3106 31 
Q 2978 153 2931 403 
Q 2775 156 2548 32 
Q 2322 -91 2016 -91 
Q 1697 -91 1473 31 
Q 1250 153 1119 397 
L 1119 -1331 
L 544 -1331 
z
" transform="scale(0.015625)"/>
       <path id="DejaVuSans-53" d="M 3425 4513 
L 3425 3897 
Q 3066 4069 2747 4153 
Q 2428 4238 2131 4238 
Q 1616 4238 1336 4038 
Q 1056 3838 1056 3469 
Q 1056 3159 1242 3001 
Q 1428 2844 1947 2747 
L 2328 2669 
Q 3034 2534 3370 2195 
Q 3706 1856 3706 1288 
Q 3706 609 3251 259 
Q 2797 -91 1919 -91 
Q 1588 -91 1214 -16 
Q 841 59 441 206 
L 441 856 
Q 825 641 1194 531 
Q 1563 422 1919 422 
Q 2459 422 2753 634 
Q 3047 847 3047 1241 
Q 3047 1584 2836 1778 
Q 2625 1972 2144 2069 
L 1759 2144 
Q 1053 2284 737 2584 
Q 422 2884 422 3419 
Q 422 4038 858 4394 
Q 1294 4750 2059 4750 
Q 2388 4750 2728 4690 
Q 3069 4631 3425 4513 
z
" transform="scale(0.015625)"/>
      </defs>
      <use xlink:href="#DejaVuSans-Oblique-67" transform="translate(0 0.125)"/>
      <use xlink:href="#DejaVuSans-Oblique-49" transform="translate(63.476562 -16.28125) scale(0.7)"/>
      <use xlink:href="#DejaVuSans-Oblique-6e" transform="translate(84.121094 -16.28125) scale(0.7)"/>
      <use xlink:href="#DejaVuSans-Oblique-68" transform="translate(128.486328 -16.28125) scale(0.7)"/>
      <use xlink:href="#DejaVuSans-Oblique-69" transform="translate(172.851562 -16.28125) scale(0.7)"/>
      <use xlink:href="#DejaVuSans-Oblique-62" transform="translate(192.299805 -16.28125) scale(0.7)"/>
      <use xlink:href="#DejaVuSans-20" transform="translate(239.467773 0.125)"/>
      <use xlink:href="#DejaVuSans-28" transform="translate(271.254883 0.125)"/>
      <use xlink:href="#DejaVuSans-b5" transform="translate(310.268555 0.125)"/>
      <use xlink:href="#DejaVuSans-53" transform="translate(373.891602 0.125)"/>
      <use xlink:href="#DejaVuSans-29" transform="translate(437.368164 0.125)"/>
     </g>
    </g>
   </g>
   <g id="line2d_25">
    <path d="M 108 132.985132 
L 108.6696 131.950261 
L 110.6784 137.220677 
L 111.348 131.834148 
L 112.0176 130.974005 
L 112.6872 125.531625 
L 113.3568 110.495934 
L 114.0264 107.123866 
L 115.3656 111.251549 
L 116.0352 106.28233 
L 116.7048 98.694379 
L 117.3744 98.210542 
L 118.044 93.294654 
L 118.7136 93.053821 
L 122.7312 107.098689 
L 123.4008 102.196205 
L 124.0704 101.812328 
L 125.4096 106.263068 
L 126.0792 94.235599 
L 126.7488 91.281059 
L 128.088 95.913822 
L 129.4272 100.706332 
L 130.0968 95.90657 
L 130.7664 95.623765 
L 131.436 90.749445 
L 132.1056 90.549512 
L 134.1144 97.783893 
L 134.784 93.031094 
L 135.4536 92.794495 
L 137.4624 99.92238 
L 138.132 95.135216 
L 138.8016 94.864805 
L 141.48 104.214037 
L 142.1496 99.357908 
L 142.8192 99.019641 
L 143.4888 101.229164 
L 144.1584 96.421001 
L 144.828 96.129929 
L 151.524 118.445174 
L 153.5328 124.507495 
L 154.2024 119.32526 
L 154.872 118.666129 
L 162.9072 141.074064 
L 166.2552 149.256637 
L 169.6032 156.802555 
L 172.9512 163.761352 
L 176.2992 170.178711 
L 179.6472 176.096759 
L 182.9952 181.554346 
L 186.3432 186.587298 
L 189.6912 191.228654 
L 193.0392 195.508884 
L 196.3872 199.456085 
L 198.396 201.675417 
L 199.0656 195.253133 
L 199.7352 193.37388 
L 201.0744 194.905569 
L 204.4224 198.899712 
L 207.7704 202.583085 
L 211.1184 205.979868 
L 211.788 206.626828 
L 212.4576 200.124978 
L 213.1272 198.167436 
L 214.4664 199.546304 
L 215.136 200.296648 
L 215.8056 193.89652 
L 216.4752 184.900654 
L 217.1448 183.031527 
L 217.8144 183.891022 
L 219.1536 159.295763 
L 219.8232 150.543448 
L 220.4928 149.226424 
L 222.5016 153.677295 
L 225.18 159.485152 
L 225.8496 153.740844 
L 226.5192 152.528672 
L 227.1888 153.878332 
L 227.8584 148.224124 
L 228.528 147.100602 
L 230.5368 151.652318 
L 233.8848 159.011836 
L 235.224 161.792735 
L 235.8936 156.011346 
L 236.5632 147.624274 
L 237.2328 146.35416 
L 239.2416 150.941285 
L 239.9112 131.057447 
L 240.5808 117.674199 
L 241.2504 116.572902 
L 242.5896 120.553064 
L 243.2592 115.434375 
L 243.9288 114.837768 
L 244.5984 116.793102 
L 245.268 111.734834 
L 245.9376 111.197676 
L 246.6072 106.073092 
L 247.2768 105.626915 
L 254.6424 128.445613 
L 255.9816 132.200985 
L 256.6512 126.89512 
L 257.3208 126.114345 
L 259.9992 133.502821 
L 260.6688 121.037623 
L 261.3384 117.652388 
L 262.6776 121.444413 
L 263.3472 109.172988 
L 264.0168 105.978411 
L 265.356 110.142612 
L 266.0256 105.191214 
L 266.6952 97.620796 
L 267.3648 97.154211 
L 269.3736 104.07528 
L 270.0432 99.221381 
L 270.7128 98.885308 
L 275.4 114.540932 
L 276.0696 109.518855 
L 276.7392 109.017307 
L 278.748 115.375615 
L 279.4176 110.340125 
L 280.0872 109.82538 
L 287.4528 131.958783 
L 288.1224 133.795223 
L 288.792 128.46374 
L 289.4616 127.657757 
L 292.14 134.949392 
L 295.488 143.608503 
L 298.836 151.593881 
L 302.184 158.957946 
L 305.532 165.749041 
L 308.88 172.011745 
L 312.228 177.787171 
L 315.576 183.113233 
L 318.924 188.024894 
L 322.272 192.554397 
L 325.62 196.731475 
L 328.968 200.583551 
L 330.9768 202.749398 
L 331.6464 196.309856 
L 332.316 194.413622 
L 333.6552 195.912163 
L 337.0032 199.827987 
L 339.012 202.029676 
L 339.6816 195.6017 
L 340.3512 193.716845 
L 341.6904 195.237601 
L 345.0384 199.205909 
L 347.0472 201.437109 
L 347.7168 187.880242 
L 348.3864 183.42088 
L 349.056 184.117887 
L 352.404 188.951379 
L 355.0824 192.54596 
L 355.752 186.270382 
L 356.4216 184.535477 
L 357.0912 185.370804 
L 357.7608 179.210528 
L 358.4304 170.450657 
L 359.1 168.813735 
L 360.4392 171.12842 
L 363.1176 175.841304 
L 363.7872 169.834161 
L 364.4568 168.363378 
L 365.1264 162.320169 
L 365.796 160.970132 
L 366.4656 155.045729 
L 367.1352 153.812588 
L 367.8048 155.141617 
L 368.4744 149.467108 
L 369.144 148.323612 
L 369.8136 149.740846 
L 370.4832 144.153124 
L 371.1528 143.095021 
L 371.8224 137.457863 
L 372.492 136.507349 
L 373.1616 130.976051 
L 373.8312 130.129697 
L 376.5096 137.26623 
L 377.8488 140.740394 
L 379.188 117.520809 
L 379.8576 116.578209 
L 380.5272 111.367162 
L 381.1968 110.835913 
L 381.8664 105.717142 
L 382.536 105.276686 
L 383.8752 109.616979 
L 384.5448 104.674028 
L 385.2144 104.250334 
L 387.8928 113.010669 
L 388.5624 93.736356 
L 389.232 88.091252 
L 389.9016 90.163925 
L 391.9104 97.56785 
L 392.58 85.680108 
L 393.2496 82.86305 
L 394.5888 87.764186 
L 395.2584 90.31081 
L 395.928 85.678099 
L 396.5976 78.421247 
L 397.2672 78.263189 
L 397.9368 80.806258 
L 398.6064 76.32628 
L 399.276 69.219706 
L 399.9456 69.209513 
L 404.6328 88.046576 
L 405.3024 83.45025 
L 405.972 83.367611 
L 412.668 107.591573 
L 416.016 118.379295 
L 419.364 128.327665 
L 422.712 137.501988 
L 426.06 145.962492 
L 429.408 153.764714 
L 432.756 160.959875 
L 436.104 167.595207 
L 439.452 173.714268 
L 442.8 179.357227 
L 446.148 184.561129 
L 449.496 189.360134 
L 452.844 193.785747 
L 456.192 197.867018 
L 459.54 201.630741 
L 462.888 205.101623 
L 466.9056 208.912085 
L 470.9232 212.369602 
L 474.9408 215.506864 
L 475.6104 201.723903 
L 476.28 197.042081 
L 476.9496 197.520202 
L 480.2976 201.31091 
L 480.9672 194.894484 
L 481.6368 193.020993 
L 482.976 194.563933 
L 483.6456 188.255928 
L 484.3152 186.489116 
L 485.6544 188.240297 
L 486.324 189.172322 
L 486.9936 182.950957 
L 487.6632 181.269393 
L 488.3328 175.018792 
L 489.0024 173.464694 
L 489.672 167.33951 
L 490.3416 165.908814 
L 491.6808 168.31611 
L 493.02 170.800382 
L 493.6896 164.874245 
L 494.3592 149.206338 
L 495.0288 145.212214 
L 495.6984 146.523214 
L 497.7072 151.253571 
L 498.3768 145.641541 
L 499.0464 144.55952 
L 499.716 146.037241 
L 500.3856 140.509035 
L 501.0552 139.50949 
L 501.7248 141.068363 
L 502.3944 121.343177 
L 503.7336 92.891504 
L 504.4032 89.802331 
L 505.7424 94.482237 
L 509.0904 106.289948 
L 510.4296 110.75166 
L 511.0992 98.652061 
L 511.7688 95.626551 
L 513.108 100.120776 
L 516.456 111.489774 
L 517.1256 113.655141 
L 518.4648 91.299053 
L 519.1344 90.777824 
L 521.1432 98.001375 
L 521.8128 93.24508 
L 522.4824 93.005044 
L 529.1784 115.787643 
L 532.5264 125.937659 
L 535.8744 135.29794 
L 537.2136 138.834856 
L 537.8832 133.422388 
L 538.5528 118.259896 
L 539.2224 107.624652 
L 539.892 106.841079 
L 540.5616 101.786503 
L 541.2312 101.40921 
L 548.5968 124.916342 
L 551.9448 134.356088 
L 555.2928 143.061362 
L 558.6408 151.089311 
L 561.3192 157.059551 
L 561.9888 151.354221 
L 562.6584 150.180401 
L 564.6672 154.586017 
L 568.0152 161.717275 
L 571.3632 168.293676 
L 574.7112 174.358392 
L 578.0592 179.951235 
L 581.4072 185.108919 
L 584.7552 189.865303 
L 588.1032 194.25161 
L 591.4512 198.296634 
L 594.7992 202.026931 
L 598.1472 205.466986 
L 602.1648 209.243607 
L 603.504 210.423079 
L 604.1736 203.860225 
L 604.8432 201.84266 
L 605.5128 202.39987 
L 608.8608 205.810909 
L 611.5392 208.347637 
L 612.2088 201.818134 
L 612.8784 199.833384 
L 614.2176 201.15914 
L 617.5656 204.666715 
L 620.9136 207.901379 
L 624.9312 211.452513 
L 625.6008 212.01153 
L 626.2704 205.42315 
L 626.94 203.38047 
L 627.6096 189.636142 
L 628.2792 185.148564 
L 628.9488 185.817808 
L 632.2968 190.519035 
L 632.9664 184.276029 
L 633.636 175.434759 
L 634.3056 173.717744 
L 634.9752 167.588494 
L 635.6448 159.015384 
L 636.3144 157.56222 
L 636.984 158.830994 
L 637.6536 153.097199 
L 638.3232 151.895369 
L 639.6624 154.749425 
L 640.332 149.081218 
L 641.0016 147.943923 
L 641.6712 142.228845 
L 642.3408 134.063251 
L 643.0104 133.011055 
L 643.68 134.674354 
L 644.3496 129.328744 
L 645.0192 128.508861 
L 647.6976 135.747093 
L 648.3672 137.522657 
L 649.0368 132.131276 
L 649.7064 131.266358 
L 650.376 132.957693 
L 651.0456 127.639668 
L 651.7152 112.570102 
L 652.3848 102.02629 
L 653.0544 94.194266 
L 653.724 79.505918 
L 654.3936 76.631844 
L 655.0632 79.044895 
L 655.7328 74.593222 
L 656.4024 74.652911 
L 658.4112 82.641394 
L 659.0808 63.8551 
L 659.7504 58.690172 
L 661.0896 64.208235 
L 664.4376 78.371455 
L 665.7768 83.723229 
L 666.4464 79.196377 
L 667.116 72.043682 
L 667.7856 71.988109 
L 673.812 95.491525 
L 677.16 107.220708 
L 679.8384 115.943488 
L 680.508 110.898872 
L 681.1776 110.375148 
L 685.8648 124.798986 
L 686.5344 119.612068 
L 687.204 118.948327 
L 695.2392 141.306406 
L 698.5872 149.470901 
L 701.9352 157.000148 
L 705.2832 163.943571 
L 708.6312 170.346753 
L 711.9792 176.251726 
L 715.3272 181.697255 
L 718.6752 186.719088 
L 722.0232 191.35019 
L 725.3712 195.620964 
L 728.7192 199.559444 
L 732.0672 203.191486 
L 735.4152 206.540932 
L 739.4328 210.218077 
L 743.4504 213.554626 
L 747.468 216.582124 
L 751.4856 219.329199 
L 755.5032 221.821825 
L 756.1728 215.0758 
L 756.8424 212.878006 
L 757.512 213.257884 
L 760.1904 215.32735 
L 760.86 201.547274 
L 761.5296 196.868291 
L 762.1992 197.349204 
L 764.208 199.668482 
L 764.8776 193.278449 
L 765.5472 184.292514 
L 766.2168 182.43316 
L 767.556 184.313648 
L 768.2256 178.170359 
L 768.8952 176.565617 
L 770.2344 178.633167 
L 770.904 179.719574 
L 771.5736 173.65011 
L 772.2432 172.118005 
L 772.9128 166.014462 
L 773.5824 157.466646 
L 774.252 156.038369 
L 774.9216 157.331631 
L 775.5912 151.62193 
L 776.2608 150.443807 
L 777.6 153.344139 
L 777.6 153.344139 
" clip-path="url(#pf205bc2f56)" style="fill: none; stroke: #ff4500; stroke-width: 1.5; stroke-linecap: square"/>
   </g>
   <g id="patch_3">
    <path d="M 108 256.32 
L 108 34.56 
" style="fill: none; stroke: #000000; stroke-width: 0.8; stroke-linejoin: miter; stroke-linecap: square"/>
   </g>
   <g id="patch_4">
    <path d="M 777.6 256.32 
L 777.6 34.56 
" style="fill: none; stroke: #000000; stroke-width: 0.8; stroke-linejoin: miter; stroke-linecap: square"/>
   </g>
   <g id="patch_5">
    <path d="M 108 256.32 
L 777.6 256.32 
" style="fill: none; stroke: #000000; stroke-width: 0.8; stroke-linejoin: miter; stroke-linecap: square"/>
   </g>
   <g id="patch_6">
    <path d="M 108 34.56 
L 777.6 34.56 
" style="fill: none; stroke: #000000; stroke-width: 0.8; stroke-linejoin: miter; stroke-linecap: square"/>
   </g>
  </g>
 </g>
 <defs>
  <clipPath id="pf205bc2f56">
   <rect x="108" y="34.56" width="669.6" height="221.76"/>
  </clipPath>
 </defs>
</svg>
