<?xml version="1.0" encoding="utf-8" standalone="no"?>
<!DOCTYPE svg PUBLIC "-//W3C//DTD SVG 1.1//EN"
  "http://www.w3.org/Graphics/SVG/1.1/DTD/svg11.dtd">
<svg xmlns:xlink="http://www.w3.org/1999/xlink" width="864pt" height="288pt" viewBox="0 0 864 288" xmlns="http://www.w3.org/2000/svg" version="1.1">
 <metadata>
  <rdf:RDF xmlns:dc="http://purl.org/dc/elements/1.1/" xmlns:cc="http://creativecommons.org/ns#" xmlns:rdf="http://www.w3.org/1999/02/22-rdf-syntax-ns#">
   <cc:Work>
    <dc:type rdf:resource="http://purl.org/dc/dcmitype/StillImage"/>
    <dc:date>2024-04-26T13:28:43.391765</dc:date>
    <dc:format>image/svg+xml</dc:format>
    <dc:creator>
     <cc:Agent>
      <dc:title>Matplotlib v3.8.2, https://matplotlib.org/</dc:title>
     </cc:Agent>
    </dc:creator>
   </cc:Work>
  </rdf:RDF>
 </metadata>
 <defs>
  <style type="text/css">*{stroke-linejoin: round; stroke-linecap: butt}</style>
 </defs>
 <g id="figure_1">
  <g id="patch_1">
   <path d="M 0 288 
L 864 288 
L 864 0 
L 0 0 
z
" style="fill: #ffffff"/>
  </g>
  <g id="axes_1">
   <g id="patch_2">
    <path d="M 108 256.32 
L 777.6 256.32 
L 777.6 34.56 
L 108 34.56 
z
" style="fill: #ffffff"/>
   </g>
   <g id="matplotlib.axis_1">
    <g id="xtick_1">
     <g id="line2d_1">
      <path d="M 108 256.32 
L 108 34.56 
" clip-path="url(#p57298c0df9)" style="fill: none; stroke: #b0b0b0; stroke-width: 0.8; stroke-linecap: square"/>
     </g>
     <g id="line2d_2">
      <defs>
       <path id="mdf6a6df4af" d="M 0 0 
L 0 3.5 
" style="stroke: #000000; stroke-width: 0.8"/>
      </defs>
      <g>
       <use xlink:href="#mdf6a6df4af" x="108" y="256.32" style="stroke: #000000; stroke-width: 0.8"/>
      </g>
     </g>
     <g id="text_1">
      <!-- 100 -->
      <g transform="translate(94.63875 273.957812) scale(0.14 -0.14)">
       <defs>
        <path id="DejaVuSans-31" d="M 794 531 
L 1825 531 
L 1825 4091 
L 703 3866 
L 703 4441 
L 1819 4666 
L 2450 4666 
L 2450 531 
L 3481 531 
L 3481 0 
L 794 0 
L 794 531 
z
" transform="scale(0.015625)"/>
        <path id="DejaVuSans-30" d="M 2034 4250 
Q 1547 4250 1301 3770 
Q 1056 3291 1056 2328 
Q 1056 1369 1301 889 
Q 1547 409 2034 409 
Q 2525 409 2770 889 
Q 3016 1369 3016 2328 
Q 3016 3291 2770 3770 
Q 2525 4250 2034 4250 
z
M 2034 4750 
Q 2819 4750 3233 4129 
Q 3647 3509 3647 2328 
Q 3647 1150 3233 529 
Q 2819 -91 2034 -91 
Q 1250 -91 836 529 
Q 422 1150 422 2328 
Q 422 3509 836 4129 
Q 1250 4750 2034 4750 
z
" transform="scale(0.015625)"/>
       </defs>
       <use xlink:href="#DejaVuSans-31"/>
       <use xlink:href="#DejaVuSans-30" x="63.623047"/>
       <use xlink:href="#DejaVuSans-30" x="127.246094"/>
      </g>
     </g>
    </g>
    <g id="xtick_2">
     <g id="line2d_3">
      <path d="M 241.92 256.32 
L 241.92 34.56 
" clip-path="url(#p57298c0df9)" style="fill: none; stroke: #b0b0b0; stroke-width: 0.8; stroke-linecap: square"/>
     </g>
     <g id="line2d_4">
      <g>
       <use xlink:href="#mdf6a6df4af" x="241.92" y="256.32" style="stroke: #000000; stroke-width: 0.8"/>
      </g>
     </g>
     <g id="text_2">
      <!-- 120 -->
      <g transform="translate(228.55875 273.957812) scale(0.14 -0.14)">
       <defs>
        <path id="DejaVuSans-32" d="M 1228 531 
L 3431 531 
L 3431 0 
L 469 0 
L 469 531 
Q 828 903 1448 1529 
Q 2069 2156 2228 2338 
Q 2531 2678 2651 2914 
Q 2772 3150 2772 3378 
Q 2772 3750 2511 3984 
Q 2250 4219 1831 4219 
Q 1534 4219 1204 4116 
Q 875 4013 500 3803 
L 500 4441 
Q 881 4594 1212 4672 
Q 1544 4750 1819 4750 
Q 2544 4750 2975 4387 
Q 3406 4025 3406 3419 
Q 3406 3131 3298 2873 
Q 3191 2616 2906 2266 
Q 2828 2175 2409 1742 
Q 1991 1309 1228 531 
z
" transform="scale(0.015625)"/>
       </defs>
       <use xlink:href="#DejaVuSans-31"/>
       <use xlink:href="#DejaVuSans-32" x="63.623047"/>
       <use xlink:href="#DejaVuSans-30" x="127.246094"/>
      </g>
     </g>
    </g>
    <g id="xtick_3">
     <g id="line2d_5">
      <path d="M 375.84 256.32 
L 375.84 34.56 
" clip-path="url(#p57298c0df9)" style="fill: none; stroke: #b0b0b0; stroke-width: 0.8; stroke-linecap: square"/>
     </g>
     <g id="line2d_6">
      <g>
       <use xlink:href="#mdf6a6df4af" x="375.84" y="256.32" style="stroke: #000000; stroke-width: 0.8"/>
      </g>
     </g>
     <g id="text_3">
      <!-- 140 -->
      <g transform="translate(362.47875 273.957812) scale(0.14 -0.14)">
       <defs>
        <path id="DejaVuSans-34" d="M 2419 4116 
L 825 1625 
L 2419 1625 
L 2419 4116 
z
M 2253 4666 
L 3047 4666 
L 3047 1625 
L 3713 1625 
L 3713 1100 
L 3047 1100 
L 3047 0 
L 2419 0 
L 2419 1100 
L 313 1100 
L 313 1709 
L 2253 4666 
z
" transform="scale(0.015625)"/>
       </defs>
       <use xlink:href="#DejaVuSans-31"/>
       <use xlink:href="#DejaVuSans-34" x="63.623047"/>
       <use xlink:href="#DejaVuSans-30" x="127.246094"/>
      </g>
     </g>
    </g>
    <g id="xtick_4">
     <g id="line2d_7">
      <path d="M 509.76 256.32 
L 509.76 34.56 
" clip-path="url(#p57298c0df9)" style="fill: none; stroke: #b0b0b0; stroke-width: 0.8; stroke-linecap: square"/>
     </g>
     <g id="line2d_8">
      <g>
       <use xlink:href="#mdf6a6df4af" x="509.76" y="256.32" style="stroke: #000000; stroke-width: 0.8"/>
      </g>
     </g>
     <g id="text_4">
      <!-- 160 -->
      <g transform="translate(496.39875 273.957812) scale(0.14 -0.14)">
       <defs>
        <path id="DejaVuSans-36" d="M 2113 2584 
Q 1688 2584 1439 2293 
Q 1191 2003 1191 1497 
Q 1191 994 1439 701 
Q 1688 409 2113 409 
Q 2538 409 2786 701 
Q 3034 994 3034 1497 
Q 3034 2003 2786 2293 
Q 2538 2584 2113 2584 
z
M 3366 4563 
L 3366 3988 
Q 3128 4100 2886 4159 
Q 2644 4219 2406 4219 
Q 1781 4219 1451 3797 
Q 1122 3375 1075 2522 
Q 1259 2794 1537 2939 
Q 1816 3084 2150 3084 
Q 2853 3084 3261 2657 
Q 3669 2231 3669 1497 
Q 3669 778 3244 343 
Q 2819 -91 2113 -91 
Q 1303 -91 875 529 
Q 447 1150 447 2328 
Q 447 3434 972 4092 
Q 1497 4750 2381 4750 
Q 2619 4750 2861 4703 
Q 3103 4656 3366 4563 
z
" transform="scale(0.015625)"/>
       </defs>
       <use xlink:href="#DejaVuSans-31"/>
       <use xlink:href="#DejaVuSans-36" x="63.623047"/>
       <use xlink:href="#DejaVuSans-30" x="127.246094"/>
      </g>
     </g>
    </g>
    <g id="xtick_5">
     <g id="line2d_9">
      <path d="M 643.68 256.32 
L 643.68 34.56 
" clip-path="url(#p57298c0df9)" style="fill: none; stroke: #b0b0b0; stroke-width: 0.8; stroke-linecap: square"/>
     </g>
     <g id="line2d_10">
      <g>
       <use xlink:href="#mdf6a6df4af" x="643.68" y="256.32" style="stroke: #000000; stroke-width: 0.8"/>
      </g>
     </g>
     <g id="text_5">
      <!-- 180 -->
      <g transform="translate(630.31875 273.957812) scale(0.14 -0.14)">
       <defs>
        <path id="DejaVuSans-38" d="M 2034 2216 
Q 1584 2216 1326 1975 
Q 1069 1734 1069 1313 
Q 1069 891 1326 650 
Q 1584 409 2034 409 
Q 2484 409 2743 651 
Q 3003 894 3003 1313 
Q 3003 1734 2745 1975 
Q 2488 2216 2034 2216 
z
M 1403 2484 
Q 997 2584 770 2862 
Q 544 3141 544 3541 
Q 544 4100 942 4425 
Q 1341 4750 2034 4750 
Q 2731 4750 3128 4425 
Q 3525 4100 3525 3541 
Q 3525 3141 3298 2862 
Q 3072 2584 2669 2484 
Q 3125 2378 3379 2068 
Q 3634 1759 3634 1313 
Q 3634 634 3220 271 
Q 2806 -91 2034 -91 
Q 1263 -91 848 271 
Q 434 634 434 1313 
Q 434 1759 690 2068 
Q 947 2378 1403 2484 
z
M 1172 3481 
Q 1172 3119 1398 2916 
Q 1625 2713 2034 2713 
Q 2441 2713 2670 2916 
Q 2900 3119 2900 3481 
Q 2900 3844 2670 4047 
Q 2441 4250 2034 4250 
Q 1625 4250 1398 4047 
Q 1172 3844 1172 3481 
z
" transform="scale(0.015625)"/>
       </defs>
       <use xlink:href="#DejaVuSans-31"/>
       <use xlink:href="#DejaVuSans-38" x="63.623047"/>
       <use xlink:href="#DejaVuSans-30" x="127.246094"/>
      </g>
     </g>
    </g>
    <g id="xtick_6">
     <g id="line2d_11">
      <path d="M 777.6 256.32 
L 777.6 34.56 
" clip-path="url(#p57298c0df9)" style="fill: none; stroke: #b0b0b0; stroke-width: 0.8; stroke-linecap: square"/>
     </g>
     <g id="line2d_12">
      <g>
       <use xlink:href="#mdf6a6df4af" x="777.6" y="256.32" style="stroke: #000000; stroke-width: 0.8"/>
      </g>
     </g>
     <g id="text_6">
      <!-- 200 -->
      <g transform="translate(764.23875 273.957812) scale(0.14 -0.14)">
       <use xlink:href="#DejaVuSans-32"/>
       <use xlink:href="#DejaVuSans-30" x="63.623047"/>
       <use xlink:href="#DejaVuSans-30" x="127.246094"/>
      </g>
     </g>
    </g>
    <g id="text_7">
     <!-- Time (ms) -->
     <g transform="translate(407.521094 291.507187) scale(0.14 -0.14)">
      <defs>
       <path id="DejaVuSans-54" d="M -19 4666 
L 3928 4666 
L 3928 4134 
L 2272 4134 
L 2272 0 
L 1638 0 
L 1638 4134 
L -19 4134 
L -19 4666 
z
" transform="scale(0.015625)"/>
       <path id="DejaVuSans-69" d="M 603 3500 
L 1178 3500 
L 1178 0 
L 603 0 
L 603 3500 
z
M 603 4863 
L 1178 4863 
L 1178 4134 
L 603 4134 
L 603 4863 
z
" transform="scale(0.015625)"/>
       <path id="DejaVuSans-6d" d="M 3328 2828 
Q 3544 3216 3844 3400 
Q 4144 3584 4550 3584 
Q 5097 3584 5394 3201 
Q 5691 2819 5691 2113 
L 5691 0 
L 5113 0 
L 5113 2094 
Q 5113 2597 4934 2840 
Q 4756 3084 4391 3084 
Q 3944 3084 3684 2787 
Q 3425 2491 3425 1978 
L 3425 0 
L 2847 0 
L 2847 2094 
Q 2847 2600 2669 2842 
Q 2491 3084 2119 3084 
Q 1678 3084 1418 2786 
Q 1159 2488 1159 1978 
L 1159 0 
L 581 0 
L 581 3500 
L 1159 3500 
L 1159 2956 
Q 1356 3278 1631 3431 
Q 1906 3584 2284 3584 
Q 2666 3584 2933 3390 
Q 3200 3197 3328 2828 
z
" transform="scale(0.015625)"/>
       <path id="DejaVuSans-65" d="M 3597 1894 
L 3597 1613 
L 953 1613 
Q 991 1019 1311 708 
Q 1631 397 2203 397 
Q 2534 397 2845 478 
Q 3156 559 3463 722 
L 3463 178 
Q 3153 47 2828 -22 
Q 2503 -91 2169 -91 
Q 1331 -91 842 396 
Q 353 884 353 1716 
Q 353 2575 817 3079 
Q 1281 3584 2069 3584 
Q 2775 3584 3186 3129 
Q 3597 2675 3597 1894 
z
M 3022 2063 
Q 3016 2534 2758 2815 
Q 2500 3097 2075 3097 
Q 1594 3097 1305 2825 
Q 1016 2553 972 2059 
L 3022 2063 
z
" transform="scale(0.015625)"/>
       <path id="DejaVuSans-20" transform="scale(0.015625)"/>
       <path id="DejaVuSans-28" d="M 1984 4856 
Q 1566 4138 1362 3434 
Q 1159 2731 1159 2009 
Q 1159 1288 1364 580 
Q 1569 -128 1984 -844 
L 1484 -844 
Q 1016 -109 783 600 
Q 550 1309 550 2009 
Q 550 2706 781 3412 
Q 1013 4119 1484 4856 
L 1984 4856 
z
" transform="scale(0.015625)"/>
       <path id="DejaVuSans-73" d="M 2834 3397 
L 2834 2853 
Q 2591 2978 2328 3040 
Q 2066 3103 1784 3103 
Q 1356 3103 1142 2972 
Q 928 2841 928 2578 
Q 928 2378 1081 2264 
Q 1234 2150 1697 2047 
L 1894 2003 
Q 2506 1872 2764 1633 
Q 3022 1394 3022 966 
Q 3022 478 2636 193 
Q 2250 -91 1575 -91 
Q 1294 -91 989 -36 
Q 684 19 347 128 
L 347 722 
Q 666 556 975 473 
Q 1284 391 1588 391 
Q 1994 391 2212 530 
Q 2431 669 2431 922 
Q 2431 1156 2273 1281 
Q 2116 1406 1581 1522 
L 1381 1569 
Q 847 1681 609 1914 
Q 372 2147 372 2553 
Q 372 3047 722 3315 
Q 1072 3584 1716 3584 
Q 2034 3584 2315 3537 
Q 2597 3491 2834 3397 
z
" transform="scale(0.015625)"/>
       <path id="DejaVuSans-29" d="M 513 4856 
L 1013 4856 
Q 1481 4119 1714 3412 
Q 1947 2706 1947 2009 
Q 1947 1309 1714 600 
Q 1481 -109 1013 -844 
L 513 -844 
Q 928 -128 1133 580 
Q 1338 1288 1338 2009 
Q 1338 2731 1133 3434 
Q 928 4138 513 4856 
z
" transform="scale(0.015625)"/>
      </defs>
      <use xlink:href="#DejaVuSans-54"/>
      <use xlink:href="#DejaVuSans-69" x="57.958984"/>
      <use xlink:href="#DejaVuSans-6d" x="85.742188"/>
      <use xlink:href="#DejaVuSans-65" x="183.154297"/>
      <use xlink:href="#DejaVuSans-20" x="244.677734"/>
      <use xlink:href="#DejaVuSans-28" x="276.464844"/>
      <use xlink:href="#DejaVuSans-6d" x="315.478516"/>
      <use xlink:href="#DejaVuSans-73" x="412.890625"/>
      <use xlink:href="#DejaVuSans-29" x="464.990234"/>
     </g>
    </g>
   </g>
   <g id="matplotlib.axis_2">
    <g id="ytick_1">
     <g id="line2d_13">
      <path d="M 108 224.986996 
L 777.6 224.986996 
" clip-path="url(#p57298c0df9)" style="fill: none; stroke: #b0b0b0; stroke-width: 0.8; stroke-linecap: square"/>
     </g>
     <g id="line2d_14">
      <defs>
       <path id="md77ad58165" d="M 0 0 
L -3.5 0 
" style="stroke: #000000; stroke-width: 0.8"/>
      </defs>
      <g>
       <use xlink:href="#md77ad58165" x="108" y="224.986996" style="stroke: #000000; stroke-width: 0.8"/>
      </g>
     </g>
     <g id="text_8">
      <!-- −60 -->
      <g transform="translate(71.453437 230.305903) scale(0.14 -0.14)">
       <defs>
        <path id="DejaVuSans-2212" d="M 678 2272 
L 4684 2272 
L 4684 1741 
L 678 1741 
L 678 2272 
z
" transform="scale(0.015625)"/>
       </defs>
       <use xlink:href="#DejaVuSans-2212"/>
       <use xlink:href="#DejaVuSans-36" x="83.789062"/>
       <use xlink:href="#DejaVuSans-30" x="147.412109"/>
      </g>
     </g>
    </g>
    <g id="ytick_2">
     <g id="line2d_15">
      <path d="M 108 182.548719 
L 777.6 182.548719 
" clip-path="url(#p57298c0df9)" style="fill: none; stroke: #b0b0b0; stroke-width: 0.8; stroke-linecap: square"/>
     </g>
     <g id="line2d_16">
      <g>
       <use xlink:href="#md77ad58165" x="108" y="182.548719" style="stroke: #000000; stroke-width: 0.8"/>
      </g>
     </g>
     <g id="text_9">
      <!-- −40 -->
      <g transform="translate(71.453437 187.867625) scale(0.14 -0.14)">
       <use xlink:href="#DejaVuSans-2212"/>
       <use xlink:href="#DejaVuSans-34" x="83.789062"/>
       <use xlink:href="#DejaVuSans-30" x="147.412109"/>
      </g>
     </g>
    </g>
    <g id="ytick_3">
     <g id="line2d_17">
      <path d="M 108 140.110441 
L 777.6 140.110441 
" clip-path="url(#p57298c0df9)" style="fill: none; stroke: #b0b0b0; stroke-width: 0.8; stroke-linecap: square"/>
     </g>
     <g id="line2d_18">
      <g>
       <use xlink:href="#md77ad58165" x="108" y="140.110441" style="stroke: #000000; stroke-width: 0.8"/>
      </g>
     </g>
     <g id="text_10">
      <!-- −20 -->
      <g transform="translate(71.453437 145.429348) scale(0.14 -0.14)">
       <use xlink:href="#DejaVuSans-2212"/>
       <use xlink:href="#DejaVuSans-32" x="83.789062"/>
       <use xlink:href="#DejaVuSans-30" x="147.412109"/>
      </g>
     </g>
    </g>
    <g id="ytick_4">
     <g id="line2d_19">
      <path d="M 108 97.672164 
L 777.6 97.672164 
" clip-path="url(#p57298c0df9)" style="fill: none; stroke: #b0b0b0; stroke-width: 0.8; stroke-linecap: square"/>
     </g>
     <g id="line2d_20">
      <g>
       <use xlink:href="#md77ad58165" x="108" y="97.672164" style="stroke: #000000; stroke-width: 0.8"/>
      </g>
     </g>
     <g id="text_11">
      <!-- 0 -->
      <g transform="translate(92.0925 102.99107) scale(0.14 -0.14)">
       <use xlink:href="#DejaVuSans-30"/>
      </g>
     </g>
    </g>
    <g id="ytick_5">
     <g id="line2d_21">
      <path d="M 108 55.233886 
L 777.6 55.233886 
" clip-path="url(#p57298c0df9)" style="fill: none; stroke: #b0b0b0; stroke-width: 0.8; stroke-linecap: square"/>
     </g>
     <g id="line2d_22">
      <g>
       <use xlink:href="#md77ad58165" x="108" y="55.233886" style="stroke: #000000; stroke-width: 0.8"/>
      </g>
     </g>
     <g id="text_12">
      <!-- 20 -->
      <g transform="translate(83.185 60.552793) scale(0.14 -0.14)">
       <use xlink:href="#DejaVuSans-32"/>
       <use xlink:href="#DejaVuSans-30" x="63.623047"/>
      </g>
     </g>
    </g>
    <g id="text_13">
     <!-- $V_{m}$ (mV) -->
     <g transform="translate(64.541875 174.49) rotate(-90) scale(0.14 -0.14)">
      <defs>
       <path id="DejaVuSans-Oblique-56" d="M 1319 0 
L 500 4666 
L 1119 4666 
L 1797 653 
L 4063 4666 
L 4750 4666 
L 2053 0 
L 1319 0 
z
" transform="scale(0.015625)"/>
       <path id="DejaVuSans-Oblique-6d" d="M 5747 2113 
L 5338 0 
L 4763 0 
L 5166 2094 
Q 5191 2228 5203 2325 
Q 5216 2422 5216 2491 
Q 5216 2772 5059 2928 
Q 4903 3084 4622 3084 
Q 4203 3084 3875 2770 
Q 3547 2456 3450 1953 
L 3066 0 
L 2491 0 
L 2900 2094 
Q 2925 2209 2937 2307 
Q 2950 2406 2950 2484 
Q 2950 2769 2794 2926 
Q 2638 3084 2363 3084 
Q 1938 3084 1609 2770 
Q 1281 2456 1184 1953 
L 800 0 
L 225 0 
L 909 3500 
L 1484 3500 
L 1375 2956 
Q 1609 3263 1923 3423 
Q 2238 3584 2597 3584 
Q 2978 3584 3223 3384 
Q 3469 3184 3519 2828 
Q 3781 3197 4126 3390 
Q 4472 3584 4856 3584 
Q 5306 3584 5551 3325 
Q 5797 3066 5797 2591 
Q 5797 2488 5784 2364 
Q 5772 2241 5747 2113 
z
" transform="scale(0.015625)"/>
       <path id="DejaVuSans-56" d="M 1831 0 
L 50 4666 
L 709 4666 
L 2188 738 
L 3669 4666 
L 4325 4666 
L 2547 0 
L 1831 0 
z
" transform="scale(0.015625)"/>
      </defs>
      <use xlink:href="#DejaVuSans-Oblique-56" transform="translate(0 0.125)"/>
      <use xlink:href="#DejaVuSans-Oblique-6d" transform="translate(68.408203 -16.28125) scale(0.7)"/>
      <use xlink:href="#DejaVuSans-20" transform="translate(139.331055 0.125)"/>
      <use xlink:href="#DejaVuSans-28" transform="translate(171.118164 0.125)"/>
      <use xlink:href="#DejaVuSans-6d" transform="translate(210.131836 0.125)"/>
      <use xlink:href="#DejaVuSans-56" transform="translate(307.543945 0.125)"/>
      <use xlink:href="#DejaVuSans-29" transform="translate(375.952148 0.125)"/>
     </g>
    </g>
   </g>
   <g id="line2d_23">
    <path d="M 108 219.91432 
L 109.3392 220.615991 
L 110.6784 221.082893 
L 111.348 221.259162 
L 112.6872 222.227949 
L 114.0264 222.708665 
L 116.0352 224.299067 
L 118.044 226.767396 
L 118.7136 227.874724 
L 119.3832 228.734011 
L 120.0528 229.285187 
L 120.7224 230.315548 
L 122.7312 232.599605 
L 124.0704 233.391533 
L 125.4096 233.909946 
L 127.4184 234.41624 
L 129.4272 234.702205 
L 132.1056 234.832571 
L 134.1144 234.779883 
L 136.1232 235.563935 
L 136.7928 236.365526 
L 137.4624 236.928278 
L 140.1408 238.089988 
L 141.48 238.355645 
L 142.8192 238.4089 
L 143.4888 238.331606 
L 144.828 238.534536 
L 146.8368 238.312979 
L 148.176 238.076254 
L 149.5152 238.293091 
L 150.8544 238.213395 
L 153.5328 237.782193 
L 156.8808 237.025403 
L 160.8984 235.8942 
L 165.5856 234.31992 
L 170.2728 232.507059 
L 175.6296 230.179393 
L 180.9864 227.614399 
L 187.0128 224.486718 
L 193.7088 220.761948 
L 198.396 218.026322 
L 199.7352 218.041865 
L 201.0744 217.640097 
L 203.7528 216.468218 
L 205.7616 215.480837 
L 207.1008 215.641039 
L 208.44 215.358218 
L 209.7792 215.74504 
L 211.1184 215.634606 
L 213.1272 215.143215 
L 216.4752 214.024254 
L 221.1624 212.166649 
L 225.8496 210.10266 
L 227.1888 210.415719 
L 227.8584 211.344491 
L 228.528 212.074501 
L 229.1976 212.445626 
L 230.5368 212.743806 
L 231.876 212.784415 
L 232.5456 212.752265 
L 234.5544 214.077709 
L 235.8936 216.016811 
L 236.5632 217.1582 
L 239.2416 220.407569 
L 239.9112 221.452759 
L 240.5808 222.952248 
L 241.2504 224.056468 
L 241.92 224.769488 
L 243.2592 225.710422 
L 244.5984 226.341272 
L 245.9376 227.412539 
L 246.6072 227.745089 
L 247.2768 228.330229 
L 247.9464 229.127919 
L 249.9552 230.948236 
L 251.2944 232.145752 
L 252.6336 232.7777 
L 253.9728 233.175624 
L 255.312 234.491372 
L 255.9816 235.125735 
L 256.6512 235.59711 
L 257.9904 236.136272 
L 259.9992 236.564663 
L 260.6688 236.650592 
L 262.008 237.247782 
L 263.3472 237.490747 
L 264.6864 237.584797 
L 267.3648 238.6991 
L 268.704 238.908181 
L 270.7128 238.945959 
L 272.052 239.341516 
L 273.3912 239.413828 
L 275.4 239.297132 
L 276.7392 239.098766 
L 278.748 238.444473 
L 282.096 237.216878 
L 283.4352 237.242879 
L 285.444 236.819716 
L 288.792 235.824636 
L 291.4704 234.915206 
L 292.8096 234.974396 
L 294.1488 234.719432 
L 296.8272 233.925722 
L 300.8448 232.474184 
L 305.532 230.532603 
L 310.8888 228.055373 
L 316.9152 224.991565 
L 322.9416 221.676462 
L 329.6376 217.735881 
L 337.6728 212.722597 
L 345.0384 207.933311 
L 346.3776 208.016992 
L 347.7168 207.677059 
L 349.7256 206.839338 
L 352.404 205.437861 
L 354.4128 204.204324 
L 355.752 205.417709 
L 356.4216 205.775769 
L 358.4304 207.911635 
L 359.1 209.072971 
L 359.7696 209.92311 
L 360.4392 210.466669 
L 361.7784 211.096642 
L 363.1176 213.132189 
L 363.7872 214.134055 
L 364.4568 214.886443 
L 366.4656 216.448433 
L 367.1352 217.022496 
L 367.8048 217.403677 
L 369.144 218.655566 
L 370.4832 219.301026 
L 371.8224 219.687768 
L 372.492 219.826095 
L 373.8312 221.462317 
L 374.5008 223.021026 
L 375.1704 224.223206 
L 375.84 224.954497 
L 377.1792 225.869188 
L 378.5184 226.460515 
L 379.188 226.685343 
L 379.8576 227.215463 
L 381.8664 229.499322 
L 382.536 229.915424 
L 383.8752 231.037694 
L 384.5448 231.378708 
L 386.5536 232.992018 
L 387.2232 233.457931 
L 388.5624 234.003211 
L 391.2408 234.831418 
L 391.9104 235.413992 
L 392.58 235.821003 
L 393.9192 236.236712 
L 395.928 236.512154 
L 399.276 236.822454 
L 402.624 237.694055 
L 403.2936 237.733966 
L 405.972 238.790695 
L 407.3112 238.960131 
L 407.9808 238.976734 
L 409.32 239.402135 
L 410.6592 239.448489 
L 411.9984 239.192896 
L 416.6856 237.84567 
L 422.712 235.947325 
L 426.7296 234.506666 
L 428.0688 234.54473 
L 429.408 234.268102 
L 432.0864 233.432781 
L 436.104 231.925088 
L 440.7912 229.925725 
L 446.148 227.391001 
L 452.1744 224.271998 
L 458.2008 220.910409 
L 464.8968 216.928003 
L 472.932 211.884906 
L 474.2712 211.938542 
L 475.6104 211.553522 
L 476.9496 210.999185 
L 478.2888 211.297717 
L 479.628 211.122249 
L 481.6368 210.535424 
L 483.6456 209.803898 
L 484.9848 210.201899 
L 486.324 211.040805 
L 487.6632 211.234961 
L 489.0024 211.169159 
L 490.3416 212.744059 
L 491.0112 213.120907 
L 491.6808 213.789642 
L 492.3504 214.74534 
L 493.02 215.419837 
L 493.6896 215.831553 
L 494.3592 216.537516 
L 495.0288 217.511623 
L 495.6984 218.211132 
L 497.7072 219.62731 
L 498.3768 220.15148 
L 499.716 220.744547 
L 501.0552 221.089419 
L 502.3944 222.011146 
L 503.7336 222.44319 
L 504.4032 222.572824 
L 505.7424 223.428976 
L 507.0816 223.809441 
L 507.7512 223.9165 
L 508.4208 224.359546 
L 510.4296 227.638646 
L 511.0992 228.376548 
L 512.4384 229.218105 
L 513.7776 229.721407 
L 515.1168 230.630862 
L 515.7864 231.513984 
L 516.456 232.203245 
L 517.1256 232.62731 
L 519.804 236.069317 
L 521.1432 236.837728 
L 522.4824 237.315109 
L 523.152 237.491952 
L 523.8216 237.897278 
L 524.4912 238.478718 
L 526.5 239.781127 
L 527.8392 240.637337 
L 529.1784 241.0442 
L 529.848 241.171296 
L 531.1872 241.758746 
L 532.5264 242.007668 
L 534.5352 242.13089 
L 537.2136 242.049416 
L 540.5616 241.673303 
L 543.9096 241.061194 
L 545.2488 240.626333 
L 562.6584 233.191422 
L 568.6848 230.290782 
L 574.7112 227.135479 
L 580.7376 223.734067 
L 586.764 220.083516 
L 593.46 215.751271 
L 602.1648 209.985044 
L 603.504 210.043345 
L 604.8432 209.666021 
L 606.852 208.798583 
L 610.2 207.086814 
L 613.548 205.087927 
L 614.8872 205.257053 
L 616.2264 205.053836 
L 617.5656 204.61208 
L 619.5744 203.672372 
L 621.5832 202.434651 
L 622.9224 201.278228 
L 624.2616 200.898137 
L 624.9312 200.575887 
L 625.6008 200.664113 
L 628.2792 203.19982 
L 629.6184 204.176905 
L 630.288 205.044273 
L 630.9576 206.830658 
L 631.6272 208.300186 
L 632.2968 209.265954 
L 632.9664 209.937875 
L 633.636 210.432025 
L 634.9752 211.947383 
L 635.6448 212.405576 
L 636.984 213.822361 
L 637.6536 214.244313 
L 638.9928 217.53942 
L 639.6624 218.658814 
L 640.332 219.400099 
L 641.6712 221.095879 
L 642.3408 221.637236 
L 643.0104 222.434687 
L 643.68 223.450764 
L 644.3496 224.209599 
L 645.0192 224.739756 
L 646.3584 226.122663 
L 648.3672 227.545176 
L 649.0368 228.390485 
L 649.7064 229.016115 
L 653.0544 231.162224 
L 653.724 231.72029 
L 654.3936 232.468903 
L 658.4112 235.754591 
L 659.7504 237.337772 
L 660.42 237.907698 
L 661.7592 238.578919 
L 663.0984 238.995084 
L 665.1072 239.374833 
L 668.4552 239.843924 
L 669.7944 240.138311 
L 671.8032 240.197084 
L 674.4816 240.025263 
L 677.8296 239.553385 
L 679.1688 239.167737 
L 689.8824 234.931459 
L 693.9 233.263096 
L 695.2392 233.254636 
L 696.5784 232.925847 
L 699.2568 231.984257 
L 703.2744 230.324356 
L 707.9616 228.156685 
L 713.3184 225.432407 
L 718.6752 222.470863 
L 724.7016 218.88308 
L 734.7456 212.576234 
L 742.7808 207.396473 
L 744.12 207.490447 
L 745.4592 207.164362 
L 747.468 206.32517 
L 748.8072 206.678046 
L 750.1464 206.601175 
L 752.1552 206.095252 
L 753.4944 206.644726 
L 754.8336 206.746958 
L 756.1728 206.606741 
L 757.512 207.333703 
L 758.8512 207.577467 
L 760.1904 207.563153 
L 761.5296 208.372742 
L 762.1992 208.564965 
L 763.5384 209.630373 
L 764.8776 210.081972 
L 765.5472 210.186387 
L 766.8864 211.159334 
L 768.2256 211.568085 
L 768.8952 211.666939 
L 770.2344 213.46251 
L 770.904 213.935728 
L 771.5736 214.246568 
L 774.252 216.79573 
L 775.5912 217.453114 
L 776.9304 217.824545 
L 777.6 218.364342 
L 777.6 218.364342 
" clip-path="url(#p57298c0df9)" style="fill: none; stroke: #000000; stroke-width: 1.5; stroke-linecap: square"/>
   </g>
   <g id="line2d_24">
    <path d="M 108 187.61137 
L 110.0088 191.697342 
L 112.0176 195.252101 
L 114.0264 198.409975 
L 121.392 209.284714 
L 124.74 214.335994 
L 126.7488 216.896563 
L 128.7576 219.056092 
L 130.7664 220.86169 
L 132.7752 222.357921 
L 135.4536 223.97731 
L 137.4624 225.218583 
L 142.1496 228.317782 
L 142.8192 198.10611 
L 143.4888 184.654356 
L 144.1584 178.226058 
L 144.828 174.566468 
L 145.4976 172.360541 
L 146.1672 171.082825 
L 146.8368 170.45433 
L 147.5064 170.299892 
L 148.176 170.49595 
L 148.8456 170.965396 
L 149.5152 171.648607 
L 150.8544 173.454234 
L 152.8632 176.722261 
L 157.5504 184.576198 
L 159.5592 187.582783 
L 161.568 190.252726 
L 163.5768 192.548508 
L 165.5856 194.457043 
L 167.5944 195.985355 
L 169.6032 197.154655 
L 171.612 197.991501 
L 173.6208 198.524788 
L 175.6296 198.780909 
L 177.6384 198.784311 
L 179.6472 198.555527 
L 181.656 198.111501 
L 183.6648 197.465352 
L 185.6736 196.626846 
L 188.352 195.220368 
L 191.0304 193.487649 
L 193.7088 191.420734 
L 196.3872 188.996134 
L 199.0656 186.197906 
L 207.1008 177.815686 
L 209.1096 176.135492 
L 210.4488 175.347102 
L 211.788 174.814624 
L 213.1272 174.469377 
L 215.136 174.210959 
L 217.1448 174.184969 
L 219.8232 174.394186 
L 224.5104 175.061313 
L 227.1888 175.518351 
L 228.528 176.097328 
L 229.8672 177.061049 
L 232.5456 179.422913 
L 234.5544 181.372786 
L 235.8936 182.96778 
L 237.2328 184.939027 
L 239.2416 188.380993 
L 241.2504 192.275611 
L 243.9288 197.710851 
L 245.9376 201.336577 
L 249.2856 206.809295 
L 252.6336 211.935415 
L 255.312 215.465622 
L 258.66 219.574442 
L 260.6688 221.644231 
L 263.3472 224.013404 
L 265.356 225.522982 
L 269.3736 228.209708 
L 272.052 229.640328 
L 274.7304 230.843602 
L 276.0696 231.323629 
L 276.7392 200.375427 
L 277.4088 186.582425 
L 278.0784 179.971359 
L 278.748 176.190171 
L 279.4176 173.865036 
L 280.0872 172.454902 
L 280.7568 171.681595 
L 281.4264 171.373606 
L 282.096 171.411071 
L 282.7656 171.715536 
L 283.4352 172.228183 
L 284.7744 173.675707 
L 286.7832 176.34334 
L 290.1312 180.81409 
L 292.8096 183.910003 
L 295.488 186.686617 
L 297.4968 188.436385 
L 299.5056 189.852383 
L 301.5144 190.929185 
L 303.5232 191.677718 
L 305.532 192.10994 
L 307.5408 192.243032 
L 309.5496 192.091903 
L 311.5584 191.668364 
L 313.5672 190.980372 
L 315.576 190.029469 
L 317.5848 188.813365 
L 319.5936 187.321898 
L 321.6024 185.54025 
L 323.6112 183.449539 
L 325.62 181.036907 
L 327.6288 178.312349 
L 330.3072 174.296306 
L 334.9944 167.133864 
L 337.0032 164.454209 
L 339.012 162.189225 
L 341.0208 160.373179 
L 343.0296 158.977895 
L 345.0384 157.935697 
L 346.3776 157.48524 
L 347.7168 157.298403 
L 349.7256 157.329611 
L 353.7432 157.761601 
L 355.0824 157.945061 
L 356.4216 158.42063 
L 357.7608 159.292091 
L 359.1 160.609824 
L 360.4392 162.405423 
L 362.448 165.614464 
L 363.7872 168.145484 
L 365.796 172.505648 
L 373.1616 188.993185 
L 375.84 194.546676 
L 377.8488 198.684062 
L 379.8576 202.281439 
L 383.8752 208.790127 
L 386.5536 212.6678 
L 389.232 216.15817 
L 391.2408 218.373682 
L 394.5888 221.716426 
L 396.5976 223.39625 
L 398.6064 224.782595 
L 402.624 227.133973 
L 407.9808 229.891687 
L 409.9896 230.79096 
L 410.6592 200.002795 
L 411.3288 186.299093 
L 411.9984 179.757766 
L 412.668 176.049143 
L 413.3376 173.806763 
L 414.0072 172.488277 
L 414.6768 171.813168 
L 415.3464 171.607652 
L 416.016 171.750902 
L 416.6856 172.152768 
L 418.0248 173.47359 
L 420.0336 176.114085 
L 424.0512 181.634495 
L 426.06 184.020398 
L 428.7384 186.751502 
L 430.7472 188.561667 
L 432.756 190.063306 
L 434.7648 191.227371 
L 436.7736 192.058506 
L 438.7824 192.570287 
L 440.7912 192.780988 
L 442.8 192.706616 
L 444.8088 192.360737 
L 446.8176 191.753406 
L 448.8264 190.890159 
L 450.8352 189.769662 
L 452.844 188.38687 
L 454.8528 186.728175 
L 456.8616 184.777217 
L 458.8704 182.517096 
L 460.8792 179.942831 
L 463.5576 176.077071 
L 470.2536 165.978927 
L 472.2624 163.480224 
L 473.6016 162.077711 
L 474.9408 161.023634 
L 476.28 160.293846 
L 477.6192 159.823123 
L 478.9584 159.669197 
L 480.2976 159.772629 
L 482.3064 160.205374 
L 484.3152 160.837882 
L 485.6544 161.48925 
L 486.9936 162.44128 
L 489.0024 164.22239 
L 490.3416 165.670108 
L 491.6808 167.455904 
L 493.02 169.622537 
L 495.0288 173.456343 
L 497.7072 179.358509 
L 501.0552 186.732759 
L 503.7336 191.969128 
L 505.7424 195.426292 
L 507.7512 198.519902 
L 510.4296 202.433474 
L 513.7776 207.579301 
L 522.4824 219.487482 
L 525.1608 222.560255 
L 528.5088 226.135185 
L 530.5176 228.022178 
L 533.196 230.203331 
L 535.2048 231.539291 
L 537.2136 232.619252 
L 539.2224 233.471566 
L 541.2312 234.122765 
L 543.9096 234.716668 
L 544.5792 203.00194 
L 545.2488 188.903572 
L 545.9184 182.178706 
L 546.588 178.420226 
L 547.2576 176.17992 
L 547.9272 174.882589 
L 548.5968 174.234282 
L 549.2664 174.057149 
L 549.936 174.228119 
L 550.6056 174.655785 
L 551.9448 176.020375 
L 553.9536 178.69316 
L 557.3016 183.258786 
L 559.3104 185.603286 
L 561.3192 187.524436 
L 562.6584 188.553778 
L 563.9976 189.380444 
L 565.3368 190.003986 
L 566.676 190.429279 
L 568.0152 190.661123 
L 569.3544 190.703631 
L 570.6936 190.560391 
L 572.0328 190.233943 
L 573.372 189.725134 
L 574.7112 189.032696 
L 576.0504 188.152278 
L 577.3896 187.074602 
L 578.7288 185.789603 
L 580.068 184.280043 
L 581.4072 182.5293 
L 582.7464 180.518353 
L 584.7552 176.993737 
L 586.764 172.908383 
L 592.1208 161.464192 
L 593.46 159.134918 
L 594.7992 157.171592 
L 596.1384 155.573823 
L 597.4776 154.307724 
L 598.8168 153.327624 
L 600.156 152.580929 
L 602.1648 151.796792 
L 603.504 151.516354 
L 604.8432 151.463371 
L 606.852 151.61828 
L 614.2176 152.595054 
L 616.2264 153.068392 
L 621.5832 154.654371 
L 623.592 154.981833 
L 625.6008 155.277597 
L 626.94 155.714224 
L 628.2792 156.534004 
L 629.6184 157.691528 
L 630.9576 159.209002 
L 632.2968 161.309397 
L 634.3056 165.156507 
L 636.984 170.962595 
L 638.9928 175.787127 
L 646.3584 195.433783 
L 648.3672 199.909824 
L 651.0456 205.191998 
L 653.0544 208.656254 
L 656.4024 213.819764 
L 660.42 219.432435 
L 662.4288 222.055985 
L 664.4376 224.306362 
L 666.4464 226.181018 
L 668.4552 227.736936 
L 671.1336 229.524983 
L 673.1424 230.611035 
L 675.1512 231.470624 
L 677.16 232.126859 
L 677.8296 232.30448 
L 678.4992 201.118958 
L 679.1688 187.219247 
L 679.8384 180.571303 
L 680.508 176.821188 
L 681.1776 174.56277 
L 681.8472 173.234897 
L 682.5168 172.547631 
L 683.1864 172.319573 
L 683.856 172.428106 
L 684.5256 172.783111 
L 685.8648 173.972474 
L 687.8736 176.320429 
L 690.552 179.524975 
L 692.5608 181.602472 
L 694.5696 183.2853 
L 696.5784 184.715496 
L 698.5872 185.853497 
L 699.9264 186.408146 
L 701.2656 186.790631 
L 702.6048 187.000168 
L 703.944 187.037776 
L 705.2832 186.904378 
L 706.6224 186.600301 
L 707.9616 186.124887 
L 709.3008 185.475236 
L 710.64 184.646671 
L 711.9792 183.635368 
L 713.3184 182.435094 
L 715.3272 180.266077 
L 717.336 177.64938 
L 719.3448 174.61602 
L 722.0232 170.113329 
L 725.3712 164.462064 
L 727.38 161.498731 
L 728.7192 159.807831 
L 730.0584 158.365038 
L 731.3976 157.162825 
L 732.7368 156.182877 
L 734.076 155.39646 
L 736.0848 154.518456 
L 738.0936 153.917187 
L 740.772 153.409868 
L 743.4504 153.123108 
L 744.7896 153.170368 
L 747.468 153.59979 
L 748.8072 153.942487 
L 750.816 154.718681 
L 753.4944 155.992614 
L 755.5032 157.271827 
L 757.512 158.753002 
L 759.5208 160.557365 
L 761.5296 162.57065 
L 763.5384 164.979729 
L 766.2168 168.785428 
L 769.5648 174.123848 
L 772.2432 178.973924 
L 777.6 188.948235 
L 777.6 188.948235 
" clip-path="url(#p57298c0df9)" style="fill: none; stroke: #4169e1; stroke-width: 1.5; stroke-linecap: square"/>
   </g>
   <g id="patch_3">
    <path d="M 108 256.32 
L 108 34.56 
" style="fill: none; stroke: #000000; stroke-width: 0.8; stroke-linejoin: miter; stroke-linecap: square"/>
   </g>
   <g id="patch_4">
    <path d="M 777.6 256.32 
L 777.6 34.56 
" style="fill: none; stroke: #000000; stroke-width: 0.8; stroke-linejoin: miter; stroke-linecap: square"/>
   </g>
   <g id="patch_5">
    <path d="M 108 256.32 
L 777.6 256.32 
" style="fill: none; stroke: #000000; stroke-width: 0.8; stroke-linejoin: miter; stroke-linecap: square"/>
   </g>
   <g id="patch_6">
    <path d="M 108 34.56 
L 777.6 34.56 
" style="fill: none; stroke: #000000; stroke-width: 0.8; stroke-linejoin: miter; stroke-linecap: square"/>
   </g>
   <g id="legend_1">
    <g id="patch_7">
     <path d="M 695.098438 71.91625 
L 770.6 71.91625 
Q 772.6 71.91625 772.6 69.91625 
L 772.6 41.56 
Q 772.6 39.56 770.6 39.56 
L 695.098438 39.56 
Q 693.098438 39.56 693.098438 41.56 
L 693.098438 69.91625 
Q 693.098438 71.91625 695.098438 71.91625 
z
" style="fill: #ffffff; opacity: 0.8; stroke: #cccccc; stroke-linejoin: miter"/>
    </g>
    <g id="line2d_25">
     <path d="M 697.098438 47.658437 
L 707.098438 47.658437 
L 717.098438 47.658437 
" style="fill: none; stroke: #000000; stroke-width: 1.5; stroke-linecap: square"/>
    </g>
    <g id="text_14">
     <!-- Soma -->
     <g transform="translate(725.098438 51.158437) scale(0.1 -0.1)">
      <defs>
       <path id="DejaVuSans-53" d="M 3425 4513 
L 3425 3897 
Q 3066 4069 2747 4153 
Q 2428 4238 2131 4238 
Q 1616 4238 1336 4038 
Q 1056 3838 1056 3469 
Q 1056 3159 1242 3001 
Q 1428 2844 1947 2747 
L 2328 2669 
Q 3034 2534 3370 2195 
Q 3706 1856 3706 1288 
Q 3706 609 3251 259 
Q 2797 -91 1919 -91 
Q 1588 -91 1214 -16 
Q 841 59 441 206 
L 441 856 
Q 825 641 1194 531 
Q 1563 422 1919 422 
Q 2459 422 2753 634 
Q 3047 847 3047 1241 
Q 3047 1584 2836 1778 
Q 2625 1972 2144 2069 
L 1759 2144 
Q 1053 2284 737 2584 
Q 422 2884 422 3419 
Q 422 4038 858 4394 
Q 1294 4750 2059 4750 
Q 2388 4750 2728 4690 
Q 3069 4631 3425 4513 
z
" transform="scale(0.015625)"/>
       <path id="DejaVuSans-6f" d="M 1959 3097 
Q 1497 3097 1228 2736 
Q 959 2375 959 1747 
Q 959 1119 1226 758 
Q 1494 397 1959 397 
Q 2419 397 2687 759 
Q 2956 1122 2956 1747 
Q 2956 2369 2687 2733 
Q 2419 3097 1959 3097 
z
M 1959 3584 
Q 2709 3584 3137 3096 
Q 3566 2609 3566 1747 
Q 3566 888 3137 398 
Q 2709 -91 1959 -91 
Q 1206 -91 779 398 
Q 353 888 353 1747 
Q 353 2609 779 3096 
Q 1206 3584 1959 3584 
z
" transform="scale(0.015625)"/>
       <path id="DejaVuSans-61" d="M 2194 1759 
Q 1497 1759 1228 1600 
Q 959 1441 959 1056 
Q 959 750 1161 570 
Q 1363 391 1709 391 
Q 2188 391 2477 730 
Q 2766 1069 2766 1631 
L 2766 1759 
L 2194 1759 
z
M 3341 1997 
L 3341 0 
L 2766 0 
L 2766 531 
Q 2569 213 2275 61 
Q 1981 -91 1556 -91 
Q 1019 -91 701 211 
Q 384 513 384 1019 
Q 384 1609 779 1909 
Q 1175 2209 1959 2209 
L 2766 2209 
L 2766 2266 
Q 2766 2663 2505 2880 
Q 2244 3097 1772 3097 
Q 1472 3097 1187 3025 
Q 903 2953 641 2809 
L 641 3341 
Q 956 3463 1253 3523 
Q 1550 3584 1831 3584 
Q 2591 3584 2966 3190 
Q 3341 2797 3341 1997 
z
" transform="scale(0.015625)"/>
      </defs>
      <use xlink:href="#DejaVuSans-53"/>
      <use xlink:href="#DejaVuSans-6f" x="63.476562"/>
      <use xlink:href="#DejaVuSans-6d" x="124.658203"/>
      <use xlink:href="#DejaVuSans-61" x="222.070312"/>
     </g>
    </g>
    <g id="line2d_26">
     <path d="M 697.098438 62.336562 
L 707.098438 62.336562 
L 717.098438 62.336562 
" style="fill: none; stroke: #4169e1; stroke-width: 1.5; stroke-linecap: square"/>
    </g>
    <g id="text_15">
     <!-- Dendrite -->
     <g transform="translate(725.098438 65.836562) scale(0.1 -0.1)">
      <defs>
       <path id="DejaVuSans-44" d="M 1259 4147 
L 1259 519 
L 2022 519 
Q 2988 519 3436 956 
Q 3884 1394 3884 2338 
Q 3884 3275 3436 3711 
Q 2988 4147 2022 4147 
L 1259 4147 
z
M 628 4666 
L 1925 4666 
Q 3281 4666 3915 4102 
Q 4550 3538 4550 2338 
Q 4550 1131 3912 565 
Q 3275 0 1925 0 
L 628 0 
L 628 4666 
z
" transform="scale(0.015625)"/>
       <path id="DejaVuSans-6e" d="M 3513 2113 
L 3513 0 
L 2938 0 
L 2938 2094 
Q 2938 2591 2744 2837 
Q 2550 3084 2163 3084 
Q 1697 3084 1428 2787 
Q 1159 2491 1159 1978 
L 1159 0 
L 581 0 
L 581 3500 
L 1159 3500 
L 1159 2956 
Q 1366 3272 1645 3428 
Q 1925 3584 2291 3584 
Q 2894 3584 3203 3211 
Q 3513 2838 3513 2113 
z
" transform="scale(0.015625)"/>
       <path id="DejaVuSans-64" d="M 2906 2969 
L 2906 4863 
L 3481 4863 
L 3481 0 
L 2906 0 
L 2906 525 
Q 2725 213 2448 61 
Q 2172 -91 1784 -91 
Q 1150 -91 751 415 
Q 353 922 353 1747 
Q 353 2572 751 3078 
Q 1150 3584 1784 3584 
Q 2172 3584 2448 3432 
Q 2725 3281 2906 2969 
z
M 947 1747 
Q 947 1113 1208 752 
Q 1469 391 1925 391 
Q 2381 391 2643 752 
Q 2906 1113 2906 1747 
Q 2906 2381 2643 2742 
Q 2381 3103 1925 3103 
Q 1469 3103 1208 2742 
Q 947 2381 947 1747 
z
" transform="scale(0.015625)"/>
       <path id="DejaVuSans-72" d="M 2631 2963 
Q 2534 3019 2420 3045 
Q 2306 3072 2169 3072 
Q 1681 3072 1420 2755 
Q 1159 2438 1159 1844 
L 1159 0 
L 581 0 
L 581 3500 
L 1159 3500 
L 1159 2956 
Q 1341 3275 1631 3429 
Q 1922 3584 2338 3584 
Q 2397 3584 2469 3576 
Q 2541 3569 2628 3553 
L 2631 2963 
z
" transform="scale(0.015625)"/>
       <path id="DejaVuSans-74" d="M 1172 4494 
L 1172 3500 
L 2356 3500 
L 2356 3053 
L 1172 3053 
L 1172 1153 
Q 1172 725 1289 603 
Q 1406 481 1766 481 
L 2356 481 
L 2356 0 
L 1766 0 
Q 1100 0 847 248 
Q 594 497 594 1153 
L 594 3053 
L 172 3053 
L 172 3500 
L 594 3500 
L 594 4494 
L 1172 4494 
z
" transform="scale(0.015625)"/>
      </defs>
      <use xlink:href="#DejaVuSans-44"/>
      <use xlink:href="#DejaVuSans-65" x="77.001953"/>
      <use xlink:href="#DejaVuSans-6e" x="138.525391"/>
      <use xlink:href="#DejaVuSans-64" x="201.904297"/>
      <use xlink:href="#DejaVuSans-72" x="265.380859"/>
      <use xlink:href="#DejaVuSans-69" x="306.494141"/>
      <use xlink:href="#DejaVuSans-74" x="334.277344"/>
      <use xlink:href="#DejaVuSans-65" x="373.486328"/>
     </g>
    </g>
   </g>
  </g>
 </g>
 <defs>
  <clipPath id="p57298c0df9">
   <rect x="108" y="34.56" width="669.6" height="221.76"/>
  </clipPath>
 </defs>
</svg>
