<?xml version="1.0" encoding="utf-8" standalone="no"?>
<!DOCTYPE svg PUBLIC "-//W3C//DTD SVG 1.1//EN"
  "http://www.w3.org/Graphics/SVG/1.1/DTD/svg11.dtd">
<svg xmlns:xlink="http://www.w3.org/1999/xlink" width="864pt" height="288pt" viewBox="0 0 864 288" xmlns="http://www.w3.org/2000/svg" version="1.1">
 <metadata>
  <rdf:RDF xmlns:dc="http://purl.org/dc/elements/1.1/" xmlns:cc="http://creativecommons.org/ns#" xmlns:rdf="http://www.w3.org/1999/02/22-rdf-syntax-ns#">
   <cc:Work>
    <dc:type rdf:resource="http://purl.org/dc/dcmitype/StillImage"/>
    <dc:date>2024-04-26T13:28:15.568671</dc:date>
    <dc:format>image/svg+xml</dc:format>
    <dc:creator>
     <cc:Agent>
      <dc:title>Matplotlib v3.8.2, https://matplotlib.org/</dc:title>
     </cc:Agent>
    </dc:creator>
   </cc:Work>
  </rdf:RDF>
 </metadata>
 <defs>
  <style type="text/css">*{stroke-linejoin: round; stroke-linecap: butt}</style>
 </defs>
 <g id="figure_1">
  <g id="patch_1">
   <path d="M 0 288 
L 864 288 
L 864 0 
L 0 0 
z
" style="fill: #ffffff"/>
  </g>
  <g id="axes_1">
   <g id="patch_2">
    <path d="M 108 256.32 
L 777.6 256.32 
L 777.6 34.56 
L 108 34.56 
z
" style="fill: #ffffff"/>
   </g>
   <g id="matplotlib.axis_1">
    <g id="xtick_1">
     <g id="line2d_1">
      <path d="M 108 256.32 
L 108 34.56 
" clip-path="url(#p7c676c4090)" style="fill: none; stroke: #b0b0b0; stroke-width: 0.8; stroke-linecap: square"/>
     </g>
     <g id="line2d_2">
      <defs>
       <path id="m7b0cd79620" d="M 0 0 
L 0 3.5 
" style="stroke: #000000; stroke-width: 0.8"/>
      </defs>
      <g>
       <use xlink:href="#m7b0cd79620" x="108" y="256.32" style="stroke: #000000; stroke-width: 0.8"/>
      </g>
     </g>
     <g id="text_1">
      <!-- 100 -->
      <g transform="translate(94.63875 273.957812) scale(0.14 -0.14)">
       <defs>
        <path id="DejaVuSans-31" d="M 794 531 
L 1825 531 
L 1825 4091 
L 703 3866 
L 703 4441 
L 1819 4666 
L 2450 4666 
L 2450 531 
L 3481 531 
L 3481 0 
L 794 0 
L 794 531 
z
" transform="scale(0.015625)"/>
        <path id="DejaVuSans-30" d="M 2034 4250 
Q 1547 4250 1301 3770 
Q 1056 3291 1056 2328 
Q 1056 1369 1301 889 
Q 1547 409 2034 409 
Q 2525 409 2770 889 
Q 3016 1369 3016 2328 
Q 3016 3291 2770 3770 
Q 2525 4250 2034 4250 
z
M 2034 4750 
Q 2819 4750 3233 4129 
Q 3647 3509 3647 2328 
Q 3647 1150 3233 529 
Q 2819 -91 2034 -91 
Q 1250 -91 836 529 
Q 422 1150 422 2328 
Q 422 3509 836 4129 
Q 1250 4750 2034 4750 
z
" transform="scale(0.015625)"/>
       </defs>
       <use xlink:href="#DejaVuSans-31"/>
       <use xlink:href="#DejaVuSans-30" x="63.623047"/>
       <use xlink:href="#DejaVuSans-30" x="127.246094"/>
      </g>
     </g>
    </g>
    <g id="xtick_2">
     <g id="line2d_3">
      <path d="M 241.92 256.32 
L 241.92 34.56 
" clip-path="url(#p7c676c4090)" style="fill: none; stroke: #b0b0b0; stroke-width: 0.8; stroke-linecap: square"/>
     </g>
     <g id="line2d_4">
      <g>
       <use xlink:href="#m7b0cd79620" x="241.92" y="256.32" style="stroke: #000000; stroke-width: 0.8"/>
      </g>
     </g>
     <g id="text_2">
      <!-- 120 -->
      <g transform="translate(228.55875 273.957812) scale(0.14 -0.14)">
       <defs>
        <path id="DejaVuSans-32" d="M 1228 531 
L 3431 531 
L 3431 0 
L 469 0 
L 469 531 
Q 828 903 1448 1529 
Q 2069 2156 2228 2338 
Q 2531 2678 2651 2914 
Q 2772 3150 2772 3378 
Q 2772 3750 2511 3984 
Q 2250 4219 1831 4219 
Q 1534 4219 1204 4116 
Q 875 4013 500 3803 
L 500 4441 
Q 881 4594 1212 4672 
Q 1544 4750 1819 4750 
Q 2544 4750 2975 4387 
Q 3406 4025 3406 3419 
Q 3406 3131 3298 2873 
Q 3191 2616 2906 2266 
Q 2828 2175 2409 1742 
Q 1991 1309 1228 531 
z
" transform="scale(0.015625)"/>
       </defs>
       <use xlink:href="#DejaVuSans-31"/>
       <use xlink:href="#DejaVuSans-32" x="63.623047"/>
       <use xlink:href="#DejaVuSans-30" x="127.246094"/>
      </g>
     </g>
    </g>
    <g id="xtick_3">
     <g id="line2d_5">
      <path d="M 375.84 256.32 
L 375.84 34.56 
" clip-path="url(#p7c676c4090)" style="fill: none; stroke: #b0b0b0; stroke-width: 0.8; stroke-linecap: square"/>
     </g>
     <g id="line2d_6">
      <g>
       <use xlink:href="#m7b0cd79620" x="375.84" y="256.32" style="stroke: #000000; stroke-width: 0.8"/>
      </g>
     </g>
     <g id="text_3">
      <!-- 140 -->
      <g transform="translate(362.47875 273.957812) scale(0.14 -0.14)">
       <defs>
        <path id="DejaVuSans-34" d="M 2419 4116 
L 825 1625 
L 2419 1625 
L 2419 4116 
z
M 2253 4666 
L 3047 4666 
L 3047 1625 
L 3713 1625 
L 3713 1100 
L 3047 1100 
L 3047 0 
L 2419 0 
L 2419 1100 
L 313 1100 
L 313 1709 
L 2253 4666 
z
" transform="scale(0.015625)"/>
       </defs>
       <use xlink:href="#DejaVuSans-31"/>
       <use xlink:href="#DejaVuSans-34" x="63.623047"/>
       <use xlink:href="#DejaVuSans-30" x="127.246094"/>
      </g>
     </g>
    </g>
    <g id="xtick_4">
     <g id="line2d_7">
      <path d="M 509.76 256.32 
L 509.76 34.56 
" clip-path="url(#p7c676c4090)" style="fill: none; stroke: #b0b0b0; stroke-width: 0.8; stroke-linecap: square"/>
     </g>
     <g id="line2d_8">
      <g>
       <use xlink:href="#m7b0cd79620" x="509.76" y="256.32" style="stroke: #000000; stroke-width: 0.8"/>
      </g>
     </g>
     <g id="text_4">
      <!-- 160 -->
      <g transform="translate(496.39875 273.957812) scale(0.14 -0.14)">
       <defs>
        <path id="DejaVuSans-36" d="M 2113 2584 
Q 1688 2584 1439 2293 
Q 1191 2003 1191 1497 
Q 1191 994 1439 701 
Q 1688 409 2113 409 
Q 2538 409 2786 701 
Q 3034 994 3034 1497 
Q 3034 2003 2786 2293 
Q 2538 2584 2113 2584 
z
M 3366 4563 
L 3366 3988 
Q 3128 4100 2886 4159 
Q 2644 4219 2406 4219 
Q 1781 4219 1451 3797 
Q 1122 3375 1075 2522 
Q 1259 2794 1537 2939 
Q 1816 3084 2150 3084 
Q 2853 3084 3261 2657 
Q 3669 2231 3669 1497 
Q 3669 778 3244 343 
Q 2819 -91 2113 -91 
Q 1303 -91 875 529 
Q 447 1150 447 2328 
Q 447 3434 972 4092 
Q 1497 4750 2381 4750 
Q 2619 4750 2861 4703 
Q 3103 4656 3366 4563 
z
" transform="scale(0.015625)"/>
       </defs>
       <use xlink:href="#DejaVuSans-31"/>
       <use xlink:href="#DejaVuSans-36" x="63.623047"/>
       <use xlink:href="#DejaVuSans-30" x="127.246094"/>
      </g>
     </g>
    </g>
    <g id="xtick_5">
     <g id="line2d_9">
      <path d="M 643.68 256.32 
L 643.68 34.56 
" clip-path="url(#p7c676c4090)" style="fill: none; stroke: #b0b0b0; stroke-width: 0.8; stroke-linecap: square"/>
     </g>
     <g id="line2d_10">
      <g>
       <use xlink:href="#m7b0cd79620" x="643.68" y="256.32" style="stroke: #000000; stroke-width: 0.8"/>
      </g>
     </g>
     <g id="text_5">
      <!-- 180 -->
      <g transform="translate(630.31875 273.957812) scale(0.14 -0.14)">
       <defs>
        <path id="DejaVuSans-38" d="M 2034 2216 
Q 1584 2216 1326 1975 
Q 1069 1734 1069 1313 
Q 1069 891 1326 650 
Q 1584 409 2034 409 
Q 2484 409 2743 651 
Q 3003 894 3003 1313 
Q 3003 1734 2745 1975 
Q 2488 2216 2034 2216 
z
M 1403 2484 
Q 997 2584 770 2862 
Q 544 3141 544 3541 
Q 544 4100 942 4425 
Q 1341 4750 2034 4750 
Q 2731 4750 3128 4425 
Q 3525 4100 3525 3541 
Q 3525 3141 3298 2862 
Q 3072 2584 2669 2484 
Q 3125 2378 3379 2068 
Q 3634 1759 3634 1313 
Q 3634 634 3220 271 
Q 2806 -91 2034 -91 
Q 1263 -91 848 271 
Q 434 634 434 1313 
Q 434 1759 690 2068 
Q 947 2378 1403 2484 
z
M 1172 3481 
Q 1172 3119 1398 2916 
Q 1625 2713 2034 2713 
Q 2441 2713 2670 2916 
Q 2900 3119 2900 3481 
Q 2900 3844 2670 4047 
Q 2441 4250 2034 4250 
Q 1625 4250 1398 4047 
Q 1172 3844 1172 3481 
z
" transform="scale(0.015625)"/>
       </defs>
       <use xlink:href="#DejaVuSans-31"/>
       <use xlink:href="#DejaVuSans-38" x="63.623047"/>
       <use xlink:href="#DejaVuSans-30" x="127.246094"/>
      </g>
     </g>
    </g>
    <g id="xtick_6">
     <g id="line2d_11">
      <path d="M 777.6 256.32 
L 777.6 34.56 
" clip-path="url(#p7c676c4090)" style="fill: none; stroke: #b0b0b0; stroke-width: 0.8; stroke-linecap: square"/>
     </g>
     <g id="line2d_12">
      <g>
       <use xlink:href="#m7b0cd79620" x="777.6" y="256.32" style="stroke: #000000; stroke-width: 0.8"/>
      </g>
     </g>
     <g id="text_6">
      <!-- 200 -->
      <g transform="translate(764.23875 273.957812) scale(0.14 -0.14)">
       <use xlink:href="#DejaVuSans-32"/>
       <use xlink:href="#DejaVuSans-30" x="63.623047"/>
       <use xlink:href="#DejaVuSans-30" x="127.246094"/>
      </g>
     </g>
    </g>
    <g id="text_7">
     <!-- Time (ms) -->
     <g transform="translate(407.521094 291.507187) scale(0.14 -0.14)">
      <defs>
       <path id="DejaVuSans-54" d="M -19 4666 
L 3928 4666 
L 3928 4134 
L 2272 4134 
L 2272 0 
L 1638 0 
L 1638 4134 
L -19 4134 
L -19 4666 
z
" transform="scale(0.015625)"/>
       <path id="DejaVuSans-69" d="M 603 3500 
L 1178 3500 
L 1178 0 
L 603 0 
L 603 3500 
z
M 603 4863 
L 1178 4863 
L 1178 4134 
L 603 4134 
L 603 4863 
z
" transform="scale(0.015625)"/>
       <path id="DejaVuSans-6d" d="M 3328 2828 
Q 3544 3216 3844 3400 
Q 4144 3584 4550 3584 
Q 5097 3584 5394 3201 
Q 5691 2819 5691 2113 
L 5691 0 
L 5113 0 
L 5113 2094 
Q 5113 2597 4934 2840 
Q 4756 3084 4391 3084 
Q 3944 3084 3684 2787 
Q 3425 2491 3425 1978 
L 3425 0 
L 2847 0 
L 2847 2094 
Q 2847 2600 2669 2842 
Q 2491 3084 2119 3084 
Q 1678 3084 1418 2786 
Q 1159 2488 1159 1978 
L 1159 0 
L 581 0 
L 581 3500 
L 1159 3500 
L 1159 2956 
Q 1356 3278 1631 3431 
Q 1906 3584 2284 3584 
Q 2666 3584 2933 3390 
Q 3200 3197 3328 2828 
z
" transform="scale(0.015625)"/>
       <path id="DejaVuSans-65" d="M 3597 1894 
L 3597 1613 
L 953 1613 
Q 991 1019 1311 708 
Q 1631 397 2203 397 
Q 2534 397 2845 478 
Q 3156 559 3463 722 
L 3463 178 
Q 3153 47 2828 -22 
Q 2503 -91 2169 -91 
Q 1331 -91 842 396 
Q 353 884 353 1716 
Q 353 2575 817 3079 
Q 1281 3584 2069 3584 
Q 2775 3584 3186 3129 
Q 3597 2675 3597 1894 
z
M 3022 2063 
Q 3016 2534 2758 2815 
Q 2500 3097 2075 3097 
Q 1594 3097 1305 2825 
Q 1016 2553 972 2059 
L 3022 2063 
z
" transform="scale(0.015625)"/>
       <path id="DejaVuSans-20" transform="scale(0.015625)"/>
       <path id="DejaVuSans-28" d="M 1984 4856 
Q 1566 4138 1362 3434 
Q 1159 2731 1159 2009 
Q 1159 1288 1364 580 
Q 1569 -128 1984 -844 
L 1484 -844 
Q 1016 -109 783 600 
Q 550 1309 550 2009 
Q 550 2706 781 3412 
Q 1013 4119 1484 4856 
L 1984 4856 
z
" transform="scale(0.015625)"/>
       <path id="DejaVuSans-73" d="M 2834 3397 
L 2834 2853 
Q 2591 2978 2328 3040 
Q 2066 3103 1784 3103 
Q 1356 3103 1142 2972 
Q 928 2841 928 2578 
Q 928 2378 1081 2264 
Q 1234 2150 1697 2047 
L 1894 2003 
Q 2506 1872 2764 1633 
Q 3022 1394 3022 966 
Q 3022 478 2636 193 
Q 2250 -91 1575 -91 
Q 1294 -91 989 -36 
Q 684 19 347 128 
L 347 722 
Q 666 556 975 473 
Q 1284 391 1588 391 
Q 1994 391 2212 530 
Q 2431 669 2431 922 
Q 2431 1156 2273 1281 
Q 2116 1406 1581 1522 
L 1381 1569 
Q 847 1681 609 1914 
Q 372 2147 372 2553 
Q 372 3047 722 3315 
Q 1072 3584 1716 3584 
Q 2034 3584 2315 3537 
Q 2597 3491 2834 3397 
z
" transform="scale(0.015625)"/>
       <path id="DejaVuSans-29" d="M 513 4856 
L 1013 4856 
Q 1481 4119 1714 3412 
Q 1947 2706 1947 2009 
Q 1947 1309 1714 600 
Q 1481 -109 1013 -844 
L 513 -844 
Q 928 -128 1133 580 
Q 1338 1288 1338 2009 
Q 1338 2731 1133 3434 
Q 928 4138 513 4856 
z
" transform="scale(0.015625)"/>
      </defs>
      <use xlink:href="#DejaVuSans-54"/>
      <use xlink:href="#DejaVuSans-69" x="57.958984"/>
      <use xlink:href="#DejaVuSans-6d" x="85.742188"/>
      <use xlink:href="#DejaVuSans-65" x="183.154297"/>
      <use xlink:href="#DejaVuSans-20" x="244.677734"/>
      <use xlink:href="#DejaVuSans-28" x="276.464844"/>
      <use xlink:href="#DejaVuSans-6d" x="315.478516"/>
      <use xlink:href="#DejaVuSans-73" x="412.890625"/>
      <use xlink:href="#DejaVuSans-29" x="464.990234"/>
     </g>
    </g>
   </g>
   <g id="matplotlib.axis_2">
    <g id="ytick_1">
     <g id="line2d_13">
      <path d="M 108 225.164921 
L 777.6 225.164921 
" clip-path="url(#p7c676c4090)" style="fill: none; stroke: #b0b0b0; stroke-width: 0.8; stroke-linecap: square"/>
     </g>
     <g id="line2d_14">
      <defs>
       <path id="mf90712d23e" d="M 0 0 
L -3.5 0 
" style="stroke: #000000; stroke-width: 0.8"/>
      </defs>
      <g>
       <use xlink:href="#mf90712d23e" x="108" y="225.164921" style="stroke: #000000; stroke-width: 0.8"/>
      </g>
     </g>
     <g id="text_8">
      <!-- −60 -->
      <g transform="translate(71.453437 230.483827) scale(0.14 -0.14)">
       <defs>
        <path id="DejaVuSans-2212" d="M 678 2272 
L 4684 2272 
L 4684 1741 
L 678 1741 
L 678 2272 
z
" transform="scale(0.015625)"/>
       </defs>
       <use xlink:href="#DejaVuSans-2212"/>
       <use xlink:href="#DejaVuSans-36" x="83.789062"/>
       <use xlink:href="#DejaVuSans-30" x="147.412109"/>
      </g>
     </g>
    </g>
    <g id="ytick_2">
     <g id="line2d_15">
      <path d="M 108 183.081925 
L 777.6 183.081925 
" clip-path="url(#p7c676c4090)" style="fill: none; stroke: #b0b0b0; stroke-width: 0.8; stroke-linecap: square"/>
     </g>
     <g id="line2d_16">
      <g>
       <use xlink:href="#mf90712d23e" x="108" y="183.081925" style="stroke: #000000; stroke-width: 0.8"/>
      </g>
     </g>
     <g id="text_9">
      <!-- −40 -->
      <g transform="translate(71.453437 188.400832) scale(0.14 -0.14)">
       <use xlink:href="#DejaVuSans-2212"/>
       <use xlink:href="#DejaVuSans-34" x="83.789062"/>
       <use xlink:href="#DejaVuSans-30" x="147.412109"/>
      </g>
     </g>
    </g>
    <g id="ytick_3">
     <g id="line2d_17">
      <path d="M 108 140.99893 
L 777.6 140.99893 
" clip-path="url(#p7c676c4090)" style="fill: none; stroke: #b0b0b0; stroke-width: 0.8; stroke-linecap: square"/>
     </g>
     <g id="line2d_18">
      <g>
       <use xlink:href="#mf90712d23e" x="108" y="140.99893" style="stroke: #000000; stroke-width: 0.8"/>
      </g>
     </g>
     <g id="text_10">
      <!-- −20 -->
      <g transform="translate(71.453437 146.317836) scale(0.14 -0.14)">
       <use xlink:href="#DejaVuSans-2212"/>
       <use xlink:href="#DejaVuSans-32" x="83.789062"/>
       <use xlink:href="#DejaVuSans-30" x="147.412109"/>
      </g>
     </g>
    </g>
    <g id="ytick_4">
     <g id="line2d_19">
      <path d="M 108 98.915934 
L 777.6 98.915934 
" clip-path="url(#p7c676c4090)" style="fill: none; stroke: #b0b0b0; stroke-width: 0.8; stroke-linecap: square"/>
     </g>
     <g id="line2d_20">
      <g>
       <use xlink:href="#mf90712d23e" x="108" y="98.915934" style="stroke: #000000; stroke-width: 0.8"/>
      </g>
     </g>
     <g id="text_11">
      <!-- 0 -->
      <g transform="translate(92.0925 104.23484) scale(0.14 -0.14)">
       <use xlink:href="#DejaVuSans-30"/>
      </g>
     </g>
    </g>
    <g id="ytick_5">
     <g id="line2d_21">
      <path d="M 108 56.832939 
L 777.6 56.832939 
" clip-path="url(#p7c676c4090)" style="fill: none; stroke: #b0b0b0; stroke-width: 0.8; stroke-linecap: square"/>
     </g>
     <g id="line2d_22">
      <g>
       <use xlink:href="#mf90712d23e" x="108" y="56.832939" style="stroke: #000000; stroke-width: 0.8"/>
      </g>
     </g>
     <g id="text_12">
      <!-- 20 -->
      <g transform="translate(83.185 62.151845) scale(0.14 -0.14)">
       <use xlink:href="#DejaVuSans-32"/>
       <use xlink:href="#DejaVuSans-30" x="63.623047"/>
      </g>
     </g>
    </g>
    <g id="text_13">
     <!-- $V_{m}$ (mV) -->
     <g transform="translate(64.541875 174.49) rotate(-90) scale(0.14 -0.14)">
      <defs>
       <path id="DejaVuSans-Oblique-56" d="M 1319 0 
L 500 4666 
L 1119 4666 
L 1797 653 
L 4063 4666 
L 4750 4666 
L 2053 0 
L 1319 0 
z
" transform="scale(0.015625)"/>
       <path id="DejaVuSans-Oblique-6d" d="M 5747 2113 
L 5338 0 
L 4763 0 
L 5166 2094 
Q 5191 2228 5203 2325 
Q 5216 2422 5216 2491 
Q 5216 2772 5059 2928 
Q 4903 3084 4622 3084 
Q 4203 3084 3875 2770 
Q 3547 2456 3450 1953 
L 3066 0 
L 2491 0 
L 2900 2094 
Q 2925 2209 2937 2307 
Q 2950 2406 2950 2484 
Q 2950 2769 2794 2926 
Q 2638 3084 2363 3084 
Q 1938 3084 1609 2770 
Q 1281 2456 1184 1953 
L 800 0 
L 225 0 
L 909 3500 
L 1484 3500 
L 1375 2956 
Q 1609 3263 1923 3423 
Q 2238 3584 2597 3584 
Q 2978 3584 3223 3384 
Q 3469 3184 3519 2828 
Q 3781 3197 4126 3390 
Q 4472 3584 4856 3584 
Q 5306 3584 5551 3325 
Q 5797 3066 5797 2591 
Q 5797 2488 5784 2364 
Q 5772 2241 5747 2113 
z
" transform="scale(0.015625)"/>
       <path id="DejaVuSans-56" d="M 1831 0 
L 50 4666 
L 709 4666 
L 2188 738 
L 3669 4666 
L 4325 4666 
L 2547 0 
L 1831 0 
z
" transform="scale(0.015625)"/>
      </defs>
      <use xlink:href="#DejaVuSans-Oblique-56" transform="translate(0 0.125)"/>
      <use xlink:href="#DejaVuSans-Oblique-6d" transform="translate(68.408203 -16.28125) scale(0.7)"/>
      <use xlink:href="#DejaVuSans-20" transform="translate(139.331055 0.125)"/>
      <use xlink:href="#DejaVuSans-28" transform="translate(171.118164 0.125)"/>
      <use xlink:href="#DejaVuSans-6d" transform="translate(210.131836 0.125)"/>
      <use xlink:href="#DejaVuSans-56" transform="translate(307.543945 0.125)"/>
      <use xlink:href="#DejaVuSans-29" transform="translate(375.952148 0.125)"/>
     </g>
    </g>
   </g>
   <g id="line2d_23">
    <path d="M 108 221.14609 
L 109.3392 221.801094 
L 110.6784 222.228826 
L 111.348 222.387343 
L 112.6872 223.306974 
L 114.0264 223.751643 
L 116.0352 225.234697 
L 119.3832 229.019857 
L 120.0528 229.45291 
L 120.7224 230.372177 
L 122.7312 232.392628 
L 124.0704 233.051604 
L 125.4096 233.45772 
L 127.4184 233.819362 
L 129.4272 233.97815 
L 132.1056 233.955736 
L 134.1144 233.797322 
L 136.1232 234.499079 
L 136.7928 235.286155 
L 137.4624 235.831394 
L 140.1408 236.915893 
L 141.48 237.144978 
L 143.4888 237.197826 
L 144.828 237.616594 
L 146.1672 237.701504 
L 148.176 237.601023 
L 149.5152 237.940191 
L 150.8544 237.95965 
L 153.5328 237.683904 
L 156.8808 237.073808 
L 160.8984 236.077141 
L 164.916 234.849241 
L 169.6032 233.172315 
L 174.2904 231.271243 
L 179.6472 228.86567 
L 185.6736 225.910814 
L 192.3696 222.379666 
L 198.396 219.033422 
L 199.7352 219.06957 
L 201.0744 218.698386 
L 203.7528 217.60102 
L 205.7616 216.677471 
L 207.1008 216.861505 
L 208.44 216.612438 
L 209.7792 217.016508 
L 211.1184 216.933794 
L 213.1272 216.489573 
L 216.4752 215.447335 
L 220.4928 213.949191 
L 225.8496 211.695461 
L 227.1888 211.998005 
L 227.8584 212.897614 
L 228.528 213.596233 
L 229.1976 213.94113 
L 230.5368 214.206085 
L 231.876 214.22536 
L 232.5456 214.184324 
L 234.5544 215.445009 
L 235.8936 217.308756 
L 236.5632 218.40914 
L 239.2416 221.533413 
L 239.9112 222.543616 
L 240.5808 223.997774 
L 241.2504 225.066497 
L 241.92 225.753453 
L 243.2592 226.654051 
L 244.5984 227.251828 
L 245.9376 228.280491 
L 246.6072 228.596435 
L 247.2768 229.159535 
L 247.9464 229.930771 
L 251.2944 232.624449 
L 252.6336 233.002442 
L 253.9728 233.170342 
L 255.312 234.289441 
L 255.9816 234.840815 
L 256.6512 235.238008 
L 257.9904 235.649257 
L 259.9992 235.922252 
L 260.6688 235.963237 
L 262.008 236.483827 
L 263.3472 236.655756 
L 264.6864 236.684539 
L 267.3648 237.705384 
L 268.704 237.872079 
L 270.7128 237.853148 
L 272.052 238.227016 
L 273.3912 238.277132 
L 276.0696 238.054937 
L 279.4176 237.503509 
L 282.096 236.910757 
L 283.4352 237.077082 
L 284.7744 236.937616 
L 287.4528 236.372224 
L 290.8008 235.442457 
L 291.4704 235.235226 
L 292.8096 235.33903 
L 294.1488 235.128409 
L 296.8272 234.416827 
L 300.8448 233.073559 
L 305.532 231.245895 
L 310.8888 228.895552 
L 316.9152 225.984011 
L 323.6112 222.486634 
L 331.6464 218.024688 
L 342.36 211.801535 
L 345.0384 210.197216 
L 346.3776 210.32962 
L 347.7168 210.023673 
L 349.7256 209.255779 
L 353.0736 207.695684 
L 354.4128 206.999514 
L 355.752 208.255889 
L 356.4216 208.544872 
L 358.4304 210.384293 
L 359.1 211.419076 
L 359.7696 212.152783 
L 360.4392 212.60139 
L 361.7784 213.10467 
L 363.1176 214.994238 
L 363.7872 215.929936 
L 364.4568 216.626901 
L 366.4656 218.068852 
L 367.1352 218.605377 
L 367.8048 218.956012 
L 369.144 220.136671 
L 370.4832 220.730168 
L 372.492 221.192612 
L 373.8312 222.753236 
L 374.5008 224.254906 
L 375.1704 225.410455 
L 375.84 226.108232 
L 377.1792 226.971559 
L 378.5184 227.520944 
L 379.188 227.726962 
L 379.8576 228.230877 
L 381.8664 230.421458 
L 382.536 230.815712 
L 383.2056 231.412638 
L 383.8752 231.851948 
L 384.5448 232.09532 
L 386.5536 233.314859 
L 387.2232 233.656569 
L 388.5624 233.984643 
L 390.5712 234.176801 
L 391.2408 234.48513 
L 391.9104 235.004715 
L 392.58 235.354155 
L 393.9192 235.666616 
L 395.928 235.809348 
L 398.6064 235.720206 
L 399.9456 236.098987 
L 400.6152 236.147668 
L 401.9544 236.61013 
L 403.2936 236.699849 
L 405.972 237.695753 
L 407.3112 237.837011 
L 407.9808 237.840413 
L 409.32 238.253053 
L 410.6592 238.326407 
L 412.668 238.204321 
L 415.3464 237.839015 
L 418.6944 237.166605 
L 422.712 236.115376 
L 426.7296 234.843635 
L 428.0688 234.920839 
L 429.408 234.684114 
L 432.0864 233.924278 
L 436.104 232.518954 
L 440.7912 230.630898 
L 446.148 228.223491 
L 452.1744 225.260123 
L 458.8704 221.718976 
L 467.5752 216.839595 
L 472.932 213.7366 
L 474.2712 213.831381 
L 475.6104 213.493101 
L 476.9496 212.990738 
L 478.2888 213.306319 
L 479.628 213.149999 
L 481.6368 212.601499 
L 483.6456 211.908469 
L 484.9848 212.294368 
L 485.6544 212.761288 
L 486.324 213.089936 
L 487.6632 213.251525 
L 489.0024 213.165416 
L 490.3416 214.66017 
L 491.0112 215.006171 
L 491.6808 215.636524 
L 492.3504 216.543876 
L 493.02 217.178348 
L 493.6896 217.560622 
L 494.3592 218.22899 
L 495.0288 219.157355 
L 495.6984 219.820212 
L 497.7072 221.150198 
L 498.3768 221.644436 
L 499.716 222.191188 
L 501.0552 222.496413 
L 502.3944 223.361561 
L 503.7336 223.751262 
L 504.4032 223.862191 
L 505.7424 224.664781 
L 507.0816 225.005442 
L 507.7512 225.095164 
L 508.4208 225.512287 
L 510.4296 228.665975 
L 511.0992 229.372377 
L 512.4384 230.168144 
L 513.7776 230.635181 
L 515.1168 231.49958 
L 515.7864 232.350537 
L 516.456 233.012658 
L 517.1256 233.416129 
L 519.1344 235.897341 
L 519.804 236.413916 
L 521.1432 236.936892 
L 523.8216 237.618501 
L 524.4912 238.127912 
L 526.5 239.257031 
L 527.8392 240.026188 
L 529.1784 240.358582 
L 529.848 240.452647 
L 531.1872 240.987438 
L 532.5264 241.190226 
L 534.5352 241.258779 
L 537.2136 241.130331 
L 540.5616 240.729104 
L 543.9096 240.116301 
L 547.9272 239.145236 
L 551.9448 237.952069 
L 556.632 236.318073 
L 561.3192 234.458633 
L 566.676 232.095936 
L 572.7024 229.179424 
L 579.3984 225.67222 
L 586.764 221.559687 
L 596.1384 216.064537 
L 602.1648 212.437126 
L 603.504 212.525849 
L 604.8432 212.176849 
L 607.5216 211.069593 
L 611.5392 209.109195 
L 613.548 208.038935 
L 614.8872 208.280916 
L 616.2264 208.090194 
L 618.2352 207.465606 
L 620.9136 206.338828 
L 622.9224 205.348265 
L 624.2616 205.660715 
L 624.9312 205.672512 
L 625.6008 206.118506 
L 626.2704 207.004332 
L 626.94 207.685099 
L 627.6096 208.109124 
L 628.9488 208.546716 
L 629.6184 208.647016 
L 630.288 209.185919 
L 630.9576 210.585765 
L 631.6272 211.672641 
L 632.2968 212.329472 
L 634.3056 213.774936 
L 634.9752 214.332409 
L 635.6448 214.69176 
L 636.984 215.934391 
L 637.6536 216.291862 
L 638.9928 219.397586 
L 639.6624 220.447138 
L 640.332 221.135317 
L 641.6712 222.727722 
L 642.3408 223.230041 
L 643.0104 223.981794 
L 643.68 224.946744 
L 644.3496 225.663423 
L 645.0192 226.159163 
L 646.3584 227.46518 
L 648.3672 228.795401 
L 649.0368 229.599988 
L 649.7064 230.191862 
L 652.3848 231.783352 
L 653.0544 231.986883 
L 653.724 232.405026 
L 654.3936 233.012761 
L 657.7416 235.04797 
L 659.0808 236.373476 
L 659.7504 237.11574 
L 660.42 237.626778 
L 661.7592 238.19453 
L 663.768 238.634124 
L 665.7768 238.832545 
L 667.7856 238.872231 
L 669.1248 239.285964 
L 670.464 239.387498 
L 673.1424 239.277277 
L 676.4904 238.862644 
L 679.8384 238.231023 
L 683.856 237.238032 
L 687.8736 236.024529 
L 692.5608 234.368298 
L 693.9 233.852516 
L 695.2392 233.882067 
L 696.5784 233.594028 
L 699.2568 232.732209 
L 703.2744 231.186645 
L 707.9616 229.154779 
L 713.3184 226.606553 
L 720.0144 223.155592 
L 728.0496 218.726767 
L 738.0936 212.914631 
L 742.7808 210.114422 
L 744.12 210.243912 
L 745.4592 209.934841 
L 747.468 209.160601 
L 748.8072 209.515587 
L 750.1464 209.408524 
L 752.1552 208.896242 
L 753.4944 209.402631 
L 754.8336 209.432622 
L 756.1728 209.243294 
L 757.512 209.885439 
L 758.8512 210.029437 
L 760.1904 209.943724 
L 761.5296 210.66185 
L 762.1992 210.808077 
L 763.5384 211.75719 
L 764.8776 212.110375 
L 765.5472 212.178257 
L 766.8864 213.062339 
L 768.2256 213.398871 
L 768.8952 213.468015 
L 770.2344 215.158387 
L 770.904 215.591295 
L 771.5736 215.868191 
L 774.252 218.260747 
L 775.5912 218.862839 
L 776.9304 219.190582 
L 777.6 219.700008 
L 777.6 219.700008 
" clip-path="url(#p7c676c4090)" style="fill: none; stroke: #000000; stroke-width: 1.5; stroke-linecap: square"/>
   </g>
   <g id="line2d_24">
    <path d="M 108 199.778785 
L 110.6784 203.139288 
L 113.3568 206.043758 
L 115.3656 208.060469 
L 116.0352 182.398353 
L 116.7048 170.830199 
L 117.3744 164.658027 
L 118.044 160.756789 
L 118.7136 158.251435 
L 119.3832 156.715591 
L 120.0528 155.873242 
L 120.7224 155.552148 
L 121.392 155.625326 
L 122.0616 155.995806 
L 123.4008 157.310454 
L 126.0792 160.720397 
L 128.088 163.170305 
L 130.0968 165.31507 
L 132.1056 167.141643 
L 134.1144 168.67472 
L 136.7928 170.623444 
L 138.132 171.908354 
L 140.1408 174.254802 
L 142.1496 177.043405 
L 144.1584 180.143094 
L 146.1672 183.62079 
L 150.1848 191.180459 
L 153.5328 197.400144 
L 155.5416 200.686127 
L 157.5504 203.550359 
L 159.5592 205.991112 
L 161.568 208.031618 
L 163.5768 209.704955 
L 165.5856 211.046428 
L 167.5944 212.090067 
L 169.6032 212.867218 
L 171.612 213.405982 
L 173.6208 213.731394 
L 175.6296 213.865528 
L 178.308 213.779992 
L 180.9864 213.428171 
L 183.6648 212.843327 
L 186.3432 212.053469 
L 189.6912 210.813483 
L 193.0392 209.328275 
L 197.0568 207.266458 
L 200.4048 205.495155 
L 207.7704 202.255288 
L 209.7792 201.656054 
L 213.1272 201.077882 
L 217.8144 200.197093 
L 221.832 199.213174 
L 227.8584 197.53275 
L 229.1976 197.575766 
L 231.876 198.104328 
L 233.8848 198.580022 
L 235.224 199.077158 
L 236.5632 199.881476 
L 237.9024 200.988117 
L 239.9112 203.00405 
L 241.92 205.520322 
L 244.5984 208.960573 
L 248.616 213.575121 
L 249.2856 214.34805 
L 249.9552 187.505343 
L 250.6248 175.51499 
L 251.2944 169.312921 
L 251.964 165.384186 
L 252.6336 162.801255 
L 253.3032 161.151335 
L 253.9728 160.179781 
L 254.6424 159.730955 
L 255.312 159.689401 
L 255.9816 159.965173 
L 256.6512 160.480651 
L 257.9904 161.965592 
L 260.6688 165.600234 
L 266.6952 174.150361 
L 269.3736 178.388949 
L 272.7216 184.087644 
L 278.0784 193.562144 
L 280.0872 196.731652 
L 282.096 199.548712 
L 284.7744 202.893432 
L 286.7832 205.090361 
L 288.792 206.954137 
L 290.8008 208.494291 
L 293.4792 210.192921 
L 295.488 211.308226 
L 297.4968 212.209105 
L 299.5056 212.890085 
L 301.5144 213.366392 
L 303.5232 213.655367 
L 306.2016 213.776882 
L 308.88 213.62768 
L 311.5584 213.237197 
L 314.2368 212.631015 
L 317.5848 211.603538 
L 320.9328 210.310628 
L 324.2808 208.783388 
L 328.2984 206.678025 
L 332.316 204.310544 
L 337.0032 201.256746 
L 341.6904 197.915448 
L 347.7168 193.480558 
L 355.752 188.62153 
L 357.0912 188.231211 
L 358.4304 188.199262 
L 359.7696 188.599034 
L 361.1088 189.341646 
L 362.448 190.266014 
L 363.7872 191.469603 
L 365.796 193.695412 
L 375.84 205.578166 
L 378.5184 209.118677 
L 383.2056 214.637641 
L 383.8752 187.743366 
L 384.5448 175.722245 
L 385.2144 169.513983 
L 385.884 165.583587 
L 386.5536 163.00987 
L 387.2232 161.386961 
L 387.8928 160.459275 
L 388.5624 160.045521 
L 389.232 160.008616 
L 389.9016 160.245255 
L 390.5712 160.676538 
L 391.9104 161.950743 
L 393.9192 164.482521 
L 397.9368 169.722082 
L 402.624 175.475046 
L 405.3024 179.174904 
L 407.3112 182.368379 
L 409.9896 187.026636 
L 414.6768 195.392448 
L 416.6856 198.574048 
L 418.6944 201.387402 
L 420.7032 203.814561 
L 422.712 205.865532 
L 424.7208 207.56408 
L 426.7296 208.939139 
L 430.0776 210.848943 
L 432.0864 211.759072 
L 434.0952 212.447539 
L 436.104 212.927042 
L 438.1128 213.215417 
L 440.7912 213.331714 
L 443.4696 213.173709 
L 446.148 212.771952 
L 448.8264 212.152772 
L 452.1744 211.107434 
L 455.5224 209.795564 
L 458.8704 208.248757 
L 462.888 206.119671 
L 466.9056 203.728545 
L 471.5928 200.647001 
L 474.9408 198.43709 
L 477.6192 196.995266 
L 479.628 196.172342 
L 484.3152 194.58867 
L 485.6544 194.286676 
L 486.9936 194.201932 
L 489.0024 194.287285 
L 490.3416 194.525227 
L 491.6808 195.014105 
L 493.02 195.780387 
L 494.3592 196.758085 
L 496.368 198.589579 
L 503.7336 205.754351 
L 507.7512 209.169106 
L 509.76 210.869602 
L 511.7688 213.006413 
L 514.4472 215.802008 
L 517.1256 218.472692 
L 517.7952 190.748257 
L 518.4648 178.403724 
L 519.1344 172.204685 
L 519.804 168.356969 
L 520.4736 165.863996 
L 521.1432 164.313921 
L 521.8128 163.458366 
L 522.4824 163.125614 
L 523.152 163.186372 
L 523.8216 163.551454 
L 524.4912 164.163556 
L 525.8304 165.937726 
L 527.1696 168.221763 
L 529.1784 172.243575 
L 531.8568 178.221841 
L 539.892 196.992909 
L 541.9008 200.884268 
L 543.9096 204.240577 
L 545.9184 207.072723 
L 547.9272 209.421426 
L 549.936 211.336792 
L 551.9448 212.86863 
L 553.9536 214.062544 
L 555.9624 214.958791 
L 557.9712 215.592295 
L 559.98 215.993159 
L 561.9888 216.18727 
L 563.9976 216.196861 
L 566.676 215.955238 
L 569.3544 215.45733 
L 572.0328 214.734359 
L 574.7112 213.811949 
L 578.0592 212.410176 
L 581.4072 210.762457 
L 585.4248 208.496712 
L 589.4424 205.948472 
L 593.46 203.143077 
L 597.4776 200.095822 
L 601.4952 196.804674 
L 604.1736 194.638568 
L 616.2264 186.023032 
L 619.5744 184.219963 
L 624.2616 181.948081 
L 625.6008 181.572175 
L 626.2704 181.521748 
L 627.6096 181.768653 
L 628.9488 182.354174 
L 630.288 183.125996 
L 631.6272 184.255439 
L 633.636 186.592906 
L 636.984 191.03069 
L 638.9928 193.949813 
L 647.6976 208.324858 
L 651.0456 213.005547 
L 651.7152 186.505347 
L 652.3848 174.680327 
L 653.0544 168.5774 
L 653.724 164.75175 
L 654.3936 162.294135 
L 655.0632 160.786136 
L 655.7328 159.977086 
L 656.4024 159.687427 
L 657.072 159.780381 
L 657.7416 160.160987 
L 658.4112 160.767021 
L 659.7504 162.495419 
L 661.0896 164.688943 
L 664.4376 170.835862 
L 669.1248 179.818828 
L 676.4904 194.565334 
L 678.4992 198.020812 
L 680.508 201.049474 
L 682.5168 203.640189 
L 684.5256 205.81244 
L 686.5344 207.599552 
L 688.5432 209.038644 
L 690.552 210.165795 
L 692.5608 211.014136 
L 695.2392 211.812895 
L 697.9176 212.476342 
L 699.9264 212.798006 
L 702.6048 212.965634 
L 705.2832 212.859482 
L 707.9616 212.5086 
L 710.64 211.93803 
L 713.3184 211.169091 
L 716.6664 209.956657 
L 720.0144 208.493147 
L 723.3624 206.804121 
L 727.38 204.509515 
L 731.3976 201.950776 
L 735.4152 199.148507 
L 739.4328 196.107264 
L 746.1288 190.891247 
L 748.8072 189.192764 
L 750.816 188.240701 
L 752.8248 187.45257 
L 754.164 187.109292 
L 756.1728 186.842376 
L 757.512 186.824519 
L 759.5208 187.100306 
L 761.5296 187.602494 
L 762.8688 188.134551 
L 764.8776 189.266053 
L 766.8864 190.592622 
L 769.5648 192.604581 
L 771.5736 194.434431 
L 774.252 197.18987 
L 777.6 200.694459 
L 777.6 200.694459 
" clip-path="url(#p7c676c4090)" style="fill: none; stroke: #4169e1; stroke-width: 1.5; stroke-linecap: square"/>
   </g>
   <g id="patch_3">
    <path d="M 108 256.32 
L 108 34.56 
" style="fill: none; stroke: #000000; stroke-width: 0.8; stroke-linejoin: miter; stroke-linecap: square"/>
   </g>
   <g id="patch_4">
    <path d="M 777.6 256.32 
L 777.6 34.56 
" style="fill: none; stroke: #000000; stroke-width: 0.8; stroke-linejoin: miter; stroke-linecap: square"/>
   </g>
   <g id="patch_5">
    <path d="M 108 256.32 
L 777.6 256.32 
" style="fill: none; stroke: #000000; stroke-width: 0.8; stroke-linejoin: miter; stroke-linecap: square"/>
   </g>
   <g id="patch_6">
    <path d="M 108 34.56 
L 777.6 34.56 
" style="fill: none; stroke: #000000; stroke-width: 0.8; stroke-linejoin: miter; stroke-linecap: square"/>
   </g>
   <g id="legend_1">
    <g id="patch_7">
     <path d="M 695.098438 71.91625 
L 770.6 71.91625 
Q 772.6 71.91625 772.6 69.91625 
L 772.6 41.56 
Q 772.6 39.56 770.6 39.56 
L 695.098438 39.56 
Q 693.098438 39.56 693.098438 41.56 
L 693.098438 69.91625 
Q 693.098438 71.91625 695.098438 71.91625 
z
" style="fill: #ffffff; opacity: 0.8; stroke: #cccccc; stroke-linejoin: miter"/>
    </g>
    <g id="line2d_25">
     <path d="M 697.098438 47.658437 
L 707.098438 47.658437 
L 717.098438 47.658437 
" style="fill: none; stroke: #000000; stroke-width: 1.5; stroke-linecap: square"/>
    </g>
    <g id="text_14">
     <!-- Soma -->
     <g transform="translate(725.098438 51.158437) scale(0.1 -0.1)">
      <defs>
       <path id="DejaVuSans-53" d="M 3425 4513 
L 3425 3897 
Q 3066 4069 2747 4153 
Q 2428 4238 2131 4238 
Q 1616 4238 1336 4038 
Q 1056 3838 1056 3469 
Q 1056 3159 1242 3001 
Q 1428 2844 1947 2747 
L 2328 2669 
Q 3034 2534 3370 2195 
Q 3706 1856 3706 1288 
Q 3706 609 3251 259 
Q 2797 -91 1919 -91 
Q 1588 -91 1214 -16 
Q 841 59 441 206 
L 441 856 
Q 825 641 1194 531 
Q 1563 422 1919 422 
Q 2459 422 2753 634 
Q 3047 847 3047 1241 
Q 3047 1584 2836 1778 
Q 2625 1972 2144 2069 
L 1759 2144 
Q 1053 2284 737 2584 
Q 422 2884 422 3419 
Q 422 4038 858 4394 
Q 1294 4750 2059 4750 
Q 2388 4750 2728 4690 
Q 3069 4631 3425 4513 
z
" transform="scale(0.015625)"/>
       <path id="DejaVuSans-6f" d="M 1959 3097 
Q 1497 3097 1228 2736 
Q 959 2375 959 1747 
Q 959 1119 1226 758 
Q 1494 397 1959 397 
Q 2419 397 2687 759 
Q 2956 1122 2956 1747 
Q 2956 2369 2687 2733 
Q 2419 3097 1959 3097 
z
M 1959 3584 
Q 2709 3584 3137 3096 
Q 3566 2609 3566 1747 
Q 3566 888 3137 398 
Q 2709 -91 1959 -91 
Q 1206 -91 779 398 
Q 353 888 353 1747 
Q 353 2609 779 3096 
Q 1206 3584 1959 3584 
z
" transform="scale(0.015625)"/>
       <path id="DejaVuSans-61" d="M 2194 1759 
Q 1497 1759 1228 1600 
Q 959 1441 959 1056 
Q 959 750 1161 570 
Q 1363 391 1709 391 
Q 2188 391 2477 730 
Q 2766 1069 2766 1631 
L 2766 1759 
L 2194 1759 
z
M 3341 1997 
L 3341 0 
L 2766 0 
L 2766 531 
Q 2569 213 2275 61 
Q 1981 -91 1556 -91 
Q 1019 -91 701 211 
Q 384 513 384 1019 
Q 384 1609 779 1909 
Q 1175 2209 1959 2209 
L 2766 2209 
L 2766 2266 
Q 2766 2663 2505 2880 
Q 2244 3097 1772 3097 
Q 1472 3097 1187 3025 
Q 903 2953 641 2809 
L 641 3341 
Q 956 3463 1253 3523 
Q 1550 3584 1831 3584 
Q 2591 3584 2966 3190 
Q 3341 2797 3341 1997 
z
" transform="scale(0.015625)"/>
      </defs>
      <use xlink:href="#DejaVuSans-53"/>
      <use xlink:href="#DejaVuSans-6f" x="63.476562"/>
      <use xlink:href="#DejaVuSans-6d" x="124.658203"/>
      <use xlink:href="#DejaVuSans-61" x="222.070312"/>
     </g>
    </g>
    <g id="line2d_26">
     <path d="M 697.098438 62.336562 
L 707.098438 62.336562 
L 717.098438 62.336562 
" style="fill: none; stroke: #4169e1; stroke-width: 1.5; stroke-linecap: square"/>
    </g>
    <g id="text_15">
     <!-- Dendrite -->
     <g transform="translate(725.098438 65.836562) scale(0.1 -0.1)">
      <defs>
       <path id="DejaVuSans-44" d="M 1259 4147 
L 1259 519 
L 2022 519 
Q 2988 519 3436 956 
Q 3884 1394 3884 2338 
Q 3884 3275 3436 3711 
Q 2988 4147 2022 4147 
L 1259 4147 
z
M 628 4666 
L 1925 4666 
Q 3281 4666 3915 4102 
Q 4550 3538 4550 2338 
Q 4550 1131 3912 565 
Q 3275 0 1925 0 
L 628 0 
L 628 4666 
z
" transform="scale(0.015625)"/>
       <path id="DejaVuSans-6e" d="M 3513 2113 
L 3513 0 
L 2938 0 
L 2938 2094 
Q 2938 2591 2744 2837 
Q 2550 3084 2163 3084 
Q 1697 3084 1428 2787 
Q 1159 2491 1159 1978 
L 1159 0 
L 581 0 
L 581 3500 
L 1159 3500 
L 1159 2956 
Q 1366 3272 1645 3428 
Q 1925 3584 2291 3584 
Q 2894 3584 3203 3211 
Q 3513 2838 3513 2113 
z
" transform="scale(0.015625)"/>
       <path id="DejaVuSans-64" d="M 2906 2969 
L 2906 4863 
L 3481 4863 
L 3481 0 
L 2906 0 
L 2906 525 
Q 2725 213 2448 61 
Q 2172 -91 1784 -91 
Q 1150 -91 751 415 
Q 353 922 353 1747 
Q 353 2572 751 3078 
Q 1150 3584 1784 3584 
Q 2172 3584 2448 3432 
Q 2725 3281 2906 2969 
z
M 947 1747 
Q 947 1113 1208 752 
Q 1469 391 1925 391 
Q 2381 391 2643 752 
Q 2906 1113 2906 1747 
Q 2906 2381 2643 2742 
Q 2381 3103 1925 3103 
Q 1469 3103 1208 2742 
Q 947 2381 947 1747 
z
" transform="scale(0.015625)"/>
       <path id="DejaVuSans-72" d="M 2631 2963 
Q 2534 3019 2420 3045 
Q 2306 3072 2169 3072 
Q 1681 3072 1420 2755 
Q 1159 2438 1159 1844 
L 1159 0 
L 581 0 
L 581 3500 
L 1159 3500 
L 1159 2956 
Q 1341 3275 1631 3429 
Q 1922 3584 2338 3584 
Q 2397 3584 2469 3576 
Q 2541 3569 2628 3553 
L 2631 2963 
z
" transform="scale(0.015625)"/>
       <path id="DejaVuSans-74" d="M 1172 4494 
L 1172 3500 
L 2356 3500 
L 2356 3053 
L 1172 3053 
L 1172 1153 
Q 1172 725 1289 603 
Q 1406 481 1766 481 
L 2356 481 
L 2356 0 
L 1766 0 
Q 1100 0 847 248 
Q 594 497 594 1153 
L 594 3053 
L 172 3053 
L 172 3500 
L 594 3500 
L 594 4494 
L 1172 4494 
z
" transform="scale(0.015625)"/>
      </defs>
      <use xlink:href="#DejaVuSans-44"/>
      <use xlink:href="#DejaVuSans-65" x="77.001953"/>
      <use xlink:href="#DejaVuSans-6e" x="138.525391"/>
      <use xlink:href="#DejaVuSans-64" x="201.904297"/>
      <use xlink:href="#DejaVuSans-72" x="265.380859"/>
      <use xlink:href="#DejaVuSans-69" x="306.494141"/>
      <use xlink:href="#DejaVuSans-74" x="334.277344"/>
      <use xlink:href="#DejaVuSans-65" x="373.486328"/>
     </g>
    </g>
   </g>
  </g>
 </g>
 <defs>
  <clipPath id="p7c676c4090">
   <rect x="108" y="34.56" width="669.6" height="221.76"/>
  </clipPath>
 </defs>
</svg>
