<?xml version="1.0" encoding="utf-8" standalone="no"?>
<!DOCTYPE svg PUBLIC "-//W3C//DTD SVG 1.1//EN"
  "http://www.w3.org/Graphics/SVG/1.1/DTD/svg11.dtd">
<svg xmlns:xlink="http://www.w3.org/1999/xlink" width="864pt" height="288pt" viewBox="0 0 864 288" xmlns="http://www.w3.org/2000/svg" version="1.1">
 <metadata>
  <rdf:RDF xmlns:dc="http://purl.org/dc/elements/1.1/" xmlns:cc="http://creativecommons.org/ns#" xmlns:rdf="http://www.w3.org/1999/02/22-rdf-syntax-ns#">
   <cc:Work>
    <dc:type rdf:resource="http://purl.org/dc/dcmitype/StillImage"/>
    <dc:date>2024-04-23T19:17:43.266668</dc:date>
    <dc:format>image/svg+xml</dc:format>
    <dc:creator>
     <cc:Agent>
      <dc:title>Matplotlib v3.8.2, https://matplotlib.org/</dc:title>
     </cc:Agent>
    </dc:creator>
   </cc:Work>
  </rdf:RDF>
 </metadata>
 <defs>
  <style type="text/css">*{stroke-linejoin: round; stroke-linecap: butt}</style>
 </defs>
 <g id="figure_1">
  <g id="patch_1">
   <path d="M 0 288 
L 864 288 
L 864 0 
L 0 0 
z
" style="fill: #ffffff"/>
  </g>
  <g id="axes_1">
   <g id="patch_2">
    <path d="M 108 256.32 
L 777.6 256.32 
L 777.6 34.56 
L 108 34.56 
z
" style="fill: #ffffff"/>
   </g>
   <g id="matplotlib.axis_1">
    <g id="xtick_1">
     <g id="line2d_1">
      <path d="M 108 256.32 
L 108 34.56 
" clip-path="url(#p1f1cdb2395)" style="fill: none; stroke: #b0b0b0; stroke-width: 0.8; stroke-linecap: square"/>
     </g>
     <g id="line2d_2">
      <defs>
       <path id="ma506337f55" d="M 0 0 
L 0 3.5 
" style="stroke: #000000; stroke-width: 0.8"/>
      </defs>
      <g>
       <use xlink:href="#ma506337f55" x="108" y="256.32" style="stroke: #000000; stroke-width: 0.8"/>
      </g>
     </g>
     <g id="text_1">
      <!-- 100 -->
      <g transform="translate(94.63875 273.957812) scale(0.14 -0.14)">
       <defs>
        <path id="DejaVuSans-31" d="M 794 531 
L 1825 531 
L 1825 4091 
L 703 3866 
L 703 4441 
L 1819 4666 
L 2450 4666 
L 2450 531 
L 3481 531 
L 3481 0 
L 794 0 
L 794 531 
z
" transform="scale(0.015625)"/>
        <path id="DejaVuSans-30" d="M 2034 4250 
Q 1547 4250 1301 3770 
Q 1056 3291 1056 2328 
Q 1056 1369 1301 889 
Q 1547 409 2034 409 
Q 2525 409 2770 889 
Q 3016 1369 3016 2328 
Q 3016 3291 2770 3770 
Q 2525 4250 2034 4250 
z
M 2034 4750 
Q 2819 4750 3233 4129 
Q 3647 3509 3647 2328 
Q 3647 1150 3233 529 
Q 2819 -91 2034 -91 
Q 1250 -91 836 529 
Q 422 1150 422 2328 
Q 422 3509 836 4129 
Q 1250 4750 2034 4750 
z
" transform="scale(0.015625)"/>
       </defs>
       <use xlink:href="#DejaVuSans-31"/>
       <use xlink:href="#DejaVuSans-30" x="63.623047"/>
       <use xlink:href="#DejaVuSans-30" x="127.246094"/>
      </g>
     </g>
    </g>
    <g id="xtick_2">
     <g id="line2d_3">
      <path d="M 241.92 256.32 
L 241.92 34.56 
" clip-path="url(#p1f1cdb2395)" style="fill: none; stroke: #b0b0b0; stroke-width: 0.8; stroke-linecap: square"/>
     </g>
     <g id="line2d_4">
      <g>
       <use xlink:href="#ma506337f55" x="241.92" y="256.32" style="stroke: #000000; stroke-width: 0.8"/>
      </g>
     </g>
     <g id="text_2">
      <!-- 120 -->
      <g transform="translate(228.55875 273.957812) scale(0.14 -0.14)">
       <defs>
        <path id="DejaVuSans-32" d="M 1228 531 
L 3431 531 
L 3431 0 
L 469 0 
L 469 531 
Q 828 903 1448 1529 
Q 2069 2156 2228 2338 
Q 2531 2678 2651 2914 
Q 2772 3150 2772 3378 
Q 2772 3750 2511 3984 
Q 2250 4219 1831 4219 
Q 1534 4219 1204 4116 
Q 875 4013 500 3803 
L 500 4441 
Q 881 4594 1212 4672 
Q 1544 4750 1819 4750 
Q 2544 4750 2975 4387 
Q 3406 4025 3406 3419 
Q 3406 3131 3298 2873 
Q 3191 2616 2906 2266 
Q 2828 2175 2409 1742 
Q 1991 1309 1228 531 
z
" transform="scale(0.015625)"/>
       </defs>
       <use xlink:href="#DejaVuSans-31"/>
       <use xlink:href="#DejaVuSans-32" x="63.623047"/>
       <use xlink:href="#DejaVuSans-30" x="127.246094"/>
      </g>
     </g>
    </g>
    <g id="xtick_3">
     <g id="line2d_5">
      <path d="M 375.84 256.32 
L 375.84 34.56 
" clip-path="url(#p1f1cdb2395)" style="fill: none; stroke: #b0b0b0; stroke-width: 0.8; stroke-linecap: square"/>
     </g>
     <g id="line2d_6">
      <g>
       <use xlink:href="#ma506337f55" x="375.84" y="256.32" style="stroke: #000000; stroke-width: 0.8"/>
      </g>
     </g>
     <g id="text_3">
      <!-- 140 -->
      <g transform="translate(362.47875 273.957812) scale(0.14 -0.14)">
       <defs>
        <path id="DejaVuSans-34" d="M 2419 4116 
L 825 1625 
L 2419 1625 
L 2419 4116 
z
M 2253 4666 
L 3047 4666 
L 3047 1625 
L 3713 1625 
L 3713 1100 
L 3047 1100 
L 3047 0 
L 2419 0 
L 2419 1100 
L 313 1100 
L 313 1709 
L 2253 4666 
z
" transform="scale(0.015625)"/>
       </defs>
       <use xlink:href="#DejaVuSans-31"/>
       <use xlink:href="#DejaVuSans-34" x="63.623047"/>
       <use xlink:href="#DejaVuSans-30" x="127.246094"/>
      </g>
     </g>
    </g>
    <g id="xtick_4">
     <g id="line2d_7">
      <path d="M 509.76 256.32 
L 509.76 34.56 
" clip-path="url(#p1f1cdb2395)" style="fill: none; stroke: #b0b0b0; stroke-width: 0.8; stroke-linecap: square"/>
     </g>
     <g id="line2d_8">
      <g>
       <use xlink:href="#ma506337f55" x="509.76" y="256.32" style="stroke: #000000; stroke-width: 0.8"/>
      </g>
     </g>
     <g id="text_4">
      <!-- 160 -->
      <g transform="translate(496.39875 273.957812) scale(0.14 -0.14)">
       <defs>
        <path id="DejaVuSans-36" d="M 2113 2584 
Q 1688 2584 1439 2293 
Q 1191 2003 1191 1497 
Q 1191 994 1439 701 
Q 1688 409 2113 409 
Q 2538 409 2786 701 
Q 3034 994 3034 1497 
Q 3034 2003 2786 2293 
Q 2538 2584 2113 2584 
z
M 3366 4563 
L 3366 3988 
Q 3128 4100 2886 4159 
Q 2644 4219 2406 4219 
Q 1781 4219 1451 3797 
Q 1122 3375 1075 2522 
Q 1259 2794 1537 2939 
Q 1816 3084 2150 3084 
Q 2853 3084 3261 2657 
Q 3669 2231 3669 1497 
Q 3669 778 3244 343 
Q 2819 -91 2113 -91 
Q 1303 -91 875 529 
Q 447 1150 447 2328 
Q 447 3434 972 4092 
Q 1497 4750 2381 4750 
Q 2619 4750 2861 4703 
Q 3103 4656 3366 4563 
z
" transform="scale(0.015625)"/>
       </defs>
       <use xlink:href="#DejaVuSans-31"/>
       <use xlink:href="#DejaVuSans-36" x="63.623047"/>
       <use xlink:href="#DejaVuSans-30" x="127.246094"/>
      </g>
     </g>
    </g>
    <g id="xtick_5">
     <g id="line2d_9">
      <path d="M 643.68 256.32 
L 643.68 34.56 
" clip-path="url(#p1f1cdb2395)" style="fill: none; stroke: #b0b0b0; stroke-width: 0.8; stroke-linecap: square"/>
     </g>
     <g id="line2d_10">
      <g>
       <use xlink:href="#ma506337f55" x="643.68" y="256.32" style="stroke: #000000; stroke-width: 0.8"/>
      </g>
     </g>
     <g id="text_5">
      <!-- 180 -->
      <g transform="translate(630.31875 273.957812) scale(0.14 -0.14)">
       <defs>
        <path id="DejaVuSans-38" d="M 2034 2216 
Q 1584 2216 1326 1975 
Q 1069 1734 1069 1313 
Q 1069 891 1326 650 
Q 1584 409 2034 409 
Q 2484 409 2743 651 
Q 3003 894 3003 1313 
Q 3003 1734 2745 1975 
Q 2488 2216 2034 2216 
z
M 1403 2484 
Q 997 2584 770 2862 
Q 544 3141 544 3541 
Q 544 4100 942 4425 
Q 1341 4750 2034 4750 
Q 2731 4750 3128 4425 
Q 3525 4100 3525 3541 
Q 3525 3141 3298 2862 
Q 3072 2584 2669 2484 
Q 3125 2378 3379 2068 
Q 3634 1759 3634 1313 
Q 3634 634 3220 271 
Q 2806 -91 2034 -91 
Q 1263 -91 848 271 
Q 434 634 434 1313 
Q 434 1759 690 2068 
Q 947 2378 1403 2484 
z
M 1172 3481 
Q 1172 3119 1398 2916 
Q 1625 2713 2034 2713 
Q 2441 2713 2670 2916 
Q 2900 3119 2900 3481 
Q 2900 3844 2670 4047 
Q 2441 4250 2034 4250 
Q 1625 4250 1398 4047 
Q 1172 3844 1172 3481 
z
" transform="scale(0.015625)"/>
       </defs>
       <use xlink:href="#DejaVuSans-31"/>
       <use xlink:href="#DejaVuSans-38" x="63.623047"/>
       <use xlink:href="#DejaVuSans-30" x="127.246094"/>
      </g>
     </g>
    </g>
    <g id="xtick_6">
     <g id="line2d_11">
      <path d="M 777.6 256.32 
L 777.6 34.56 
" clip-path="url(#p1f1cdb2395)" style="fill: none; stroke: #b0b0b0; stroke-width: 0.8; stroke-linecap: square"/>
     </g>
     <g id="line2d_12">
      <g>
       <use xlink:href="#ma506337f55" x="777.6" y="256.32" style="stroke: #000000; stroke-width: 0.8"/>
      </g>
     </g>
     <g id="text_6">
      <!-- 200 -->
      <g transform="translate(764.23875 273.957812) scale(0.14 -0.14)">
       <use xlink:href="#DejaVuSans-32"/>
       <use xlink:href="#DejaVuSans-30" x="63.623047"/>
       <use xlink:href="#DejaVuSans-30" x="127.246094"/>
      </g>
     </g>
    </g>
    <g id="text_7">
     <!-- Time (ms) -->
     <g transform="translate(407.521094 291.507187) scale(0.14 -0.14)">
      <defs>
       <path id="DejaVuSans-54" d="M -19 4666 
L 3928 4666 
L 3928 4134 
L 2272 4134 
L 2272 0 
L 1638 0 
L 1638 4134 
L -19 4134 
L -19 4666 
z
" transform="scale(0.015625)"/>
       <path id="DejaVuSans-69" d="M 603 3500 
L 1178 3500 
L 1178 0 
L 603 0 
L 603 3500 
z
M 603 4863 
L 1178 4863 
L 1178 4134 
L 603 4134 
L 603 4863 
z
" transform="scale(0.015625)"/>
       <path id="DejaVuSans-6d" d="M 3328 2828 
Q 3544 3216 3844 3400 
Q 4144 3584 4550 3584 
Q 5097 3584 5394 3201 
Q 5691 2819 5691 2113 
L 5691 0 
L 5113 0 
L 5113 2094 
Q 5113 2597 4934 2840 
Q 4756 3084 4391 3084 
Q 3944 3084 3684 2787 
Q 3425 2491 3425 1978 
L 3425 0 
L 2847 0 
L 2847 2094 
Q 2847 2600 2669 2842 
Q 2491 3084 2119 3084 
Q 1678 3084 1418 2786 
Q 1159 2488 1159 1978 
L 1159 0 
L 581 0 
L 581 3500 
L 1159 3500 
L 1159 2956 
Q 1356 3278 1631 3431 
Q 1906 3584 2284 3584 
Q 2666 3584 2933 3390 
Q 3200 3197 3328 2828 
z
" transform="scale(0.015625)"/>
       <path id="DejaVuSans-65" d="M 3597 1894 
L 3597 1613 
L 953 1613 
Q 991 1019 1311 708 
Q 1631 397 2203 397 
Q 2534 397 2845 478 
Q 3156 559 3463 722 
L 3463 178 
Q 3153 47 2828 -22 
Q 2503 -91 2169 -91 
Q 1331 -91 842 396 
Q 353 884 353 1716 
Q 353 2575 817 3079 
Q 1281 3584 2069 3584 
Q 2775 3584 3186 3129 
Q 3597 2675 3597 1894 
z
M 3022 2063 
Q 3016 2534 2758 2815 
Q 2500 3097 2075 3097 
Q 1594 3097 1305 2825 
Q 1016 2553 972 2059 
L 3022 2063 
z
" transform="scale(0.015625)"/>
       <path id="DejaVuSans-20" transform="scale(0.015625)"/>
       <path id="DejaVuSans-28" d="M 1984 4856 
Q 1566 4138 1362 3434 
Q 1159 2731 1159 2009 
Q 1159 1288 1364 580 
Q 1569 -128 1984 -844 
L 1484 -844 
Q 1016 -109 783 600 
Q 550 1309 550 2009 
Q 550 2706 781 3412 
Q 1013 4119 1484 4856 
L 1984 4856 
z
" transform="scale(0.015625)"/>
       <path id="DejaVuSans-73" d="M 2834 3397 
L 2834 2853 
Q 2591 2978 2328 3040 
Q 2066 3103 1784 3103 
Q 1356 3103 1142 2972 
Q 928 2841 928 2578 
Q 928 2378 1081 2264 
Q 1234 2150 1697 2047 
L 1894 2003 
Q 2506 1872 2764 1633 
Q 3022 1394 3022 966 
Q 3022 478 2636 193 
Q 2250 -91 1575 -91 
Q 1294 -91 989 -36 
Q 684 19 347 128 
L 347 722 
Q 666 556 975 473 
Q 1284 391 1588 391 
Q 1994 391 2212 530 
Q 2431 669 2431 922 
Q 2431 1156 2273 1281 
Q 2116 1406 1581 1522 
L 1381 1569 
Q 847 1681 609 1914 
Q 372 2147 372 2553 
Q 372 3047 722 3315 
Q 1072 3584 1716 3584 
Q 2034 3584 2315 3537 
Q 2597 3491 2834 3397 
z
" transform="scale(0.015625)"/>
       <path id="DejaVuSans-29" d="M 513 4856 
L 1013 4856 
Q 1481 4119 1714 3412 
Q 1947 2706 1947 2009 
Q 1947 1309 1714 600 
Q 1481 -109 1013 -844 
L 513 -844 
Q 928 -128 1133 580 
Q 1338 1288 1338 2009 
Q 1338 2731 1133 3434 
Q 928 4138 513 4856 
z
" transform="scale(0.015625)"/>
      </defs>
      <use xlink:href="#DejaVuSans-54"/>
      <use xlink:href="#DejaVuSans-69" x="57.958984"/>
      <use xlink:href="#DejaVuSans-6d" x="85.742188"/>
      <use xlink:href="#DejaVuSans-65" x="183.154297"/>
      <use xlink:href="#DejaVuSans-20" x="244.677734"/>
      <use xlink:href="#DejaVuSans-28" x="276.464844"/>
      <use xlink:href="#DejaVuSans-6d" x="315.478516"/>
      <use xlink:href="#DejaVuSans-73" x="412.890625"/>
      <use xlink:href="#DejaVuSans-29" x="464.990234"/>
     </g>
    </g>
   </g>
   <g id="matplotlib.axis_2">
    <g id="ytick_1">
     <g id="line2d_13">
      <path d="M 108 224.892123 
L 777.6 224.892123 
" clip-path="url(#p1f1cdb2395)" style="fill: none; stroke: #b0b0b0; stroke-width: 0.8; stroke-linecap: square"/>
     </g>
     <g id="line2d_14">
      <defs>
       <path id="md2fc87a125" d="M 0 0 
L -3.5 0 
" style="stroke: #000000; stroke-width: 0.8"/>
      </defs>
      <g>
       <use xlink:href="#md2fc87a125" x="108" y="224.892123" style="stroke: #000000; stroke-width: 0.8"/>
      </g>
     </g>
     <g id="text_8">
      <!-- −60 -->
      <g transform="translate(71.453437 230.21103) scale(0.14 -0.14)">
       <defs>
        <path id="DejaVuSans-2212" d="M 678 2272 
L 4684 2272 
L 4684 1741 
L 678 1741 
L 678 2272 
z
" transform="scale(0.015625)"/>
       </defs>
       <use xlink:href="#DejaVuSans-2212"/>
       <use xlink:href="#DejaVuSans-36" x="83.789062"/>
       <use xlink:href="#DejaVuSans-30" x="147.412109"/>
      </g>
     </g>
    </g>
    <g id="ytick_2">
     <g id="line2d_15">
      <path d="M 108 182.264402 
L 777.6 182.264402 
" clip-path="url(#p1f1cdb2395)" style="fill: none; stroke: #b0b0b0; stroke-width: 0.8; stroke-linecap: square"/>
     </g>
     <g id="line2d_16">
      <g>
       <use xlink:href="#md2fc87a125" x="108" y="182.264402" style="stroke: #000000; stroke-width: 0.8"/>
      </g>
     </g>
     <g id="text_9">
      <!-- −40 -->
      <g transform="translate(71.453437 187.583308) scale(0.14 -0.14)">
       <use xlink:href="#DejaVuSans-2212"/>
       <use xlink:href="#DejaVuSans-34" x="83.789062"/>
       <use xlink:href="#DejaVuSans-30" x="147.412109"/>
      </g>
     </g>
    </g>
    <g id="ytick_3">
     <g id="line2d_17">
      <path d="M 108 139.63668 
L 777.6 139.63668 
" clip-path="url(#p1f1cdb2395)" style="fill: none; stroke: #b0b0b0; stroke-width: 0.8; stroke-linecap: square"/>
     </g>
     <g id="line2d_18">
      <g>
       <use xlink:href="#md2fc87a125" x="108" y="139.63668" style="stroke: #000000; stroke-width: 0.8"/>
      </g>
     </g>
     <g id="text_10">
      <!-- −20 -->
      <g transform="translate(71.453437 144.955586) scale(0.14 -0.14)">
       <use xlink:href="#DejaVuSans-2212"/>
       <use xlink:href="#DejaVuSans-32" x="83.789062"/>
       <use xlink:href="#DejaVuSans-30" x="147.412109"/>
      </g>
     </g>
    </g>
    <g id="ytick_4">
     <g id="line2d_19">
      <path d="M 108 97.008959 
L 777.6 97.008959 
" clip-path="url(#p1f1cdb2395)" style="fill: none; stroke: #b0b0b0; stroke-width: 0.8; stroke-linecap: square"/>
     </g>
     <g id="line2d_20">
      <g>
       <use xlink:href="#md2fc87a125" x="108" y="97.008959" style="stroke: #000000; stroke-width: 0.8"/>
      </g>
     </g>
     <g id="text_11">
      <!-- 0 -->
      <g transform="translate(92.0925 102.327865) scale(0.14 -0.14)">
       <use xlink:href="#DejaVuSans-30"/>
      </g>
     </g>
    </g>
    <g id="ytick_5">
     <g id="line2d_21">
      <path d="M 108 54.381237 
L 777.6 54.381237 
" clip-path="url(#p1f1cdb2395)" style="fill: none; stroke: #b0b0b0; stroke-width: 0.8; stroke-linecap: square"/>
     </g>
     <g id="line2d_22">
      <g>
       <use xlink:href="#md2fc87a125" x="108" y="54.381237" style="stroke: #000000; stroke-width: 0.8"/>
      </g>
     </g>
     <g id="text_12">
      <!-- 20 -->
      <g transform="translate(83.185 59.700143) scale(0.14 -0.14)">
       <use xlink:href="#DejaVuSans-32"/>
       <use xlink:href="#DejaVuSans-30" x="63.623047"/>
      </g>
     </g>
    </g>
    <g id="text_13">
     <!-- $V_{m}$ (mV) -->
     <g transform="translate(64.541875 174.49) rotate(-90) scale(0.14 -0.14)">
      <defs>
       <path id="DejaVuSans-Oblique-56" d="M 1319 0 
L 500 4666 
L 1119 4666 
L 1797 653 
L 4063 4666 
L 4750 4666 
L 2053 0 
L 1319 0 
z
" transform="scale(0.015625)"/>
       <path id="DejaVuSans-Oblique-6d" d="M 5747 2113 
L 5338 0 
L 4763 0 
L 5166 2094 
Q 5191 2228 5203 2325 
Q 5216 2422 5216 2491 
Q 5216 2772 5059 2928 
Q 4903 3084 4622 3084 
Q 4203 3084 3875 2770 
Q 3547 2456 3450 1953 
L 3066 0 
L 2491 0 
L 2900 2094 
Q 2925 2209 2937 2307 
Q 2950 2406 2950 2484 
Q 2950 2769 2794 2926 
Q 2638 3084 2363 3084 
Q 1938 3084 1609 2770 
Q 1281 2456 1184 1953 
L 800 0 
L 225 0 
L 909 3500 
L 1484 3500 
L 1375 2956 
Q 1609 3263 1923 3423 
Q 2238 3584 2597 3584 
Q 2978 3584 3223 3384 
Q 3469 3184 3519 2828 
Q 3781 3197 4126 3390 
Q 4472 3584 4856 3584 
Q 5306 3584 5551 3325 
Q 5797 3066 5797 2591 
Q 5797 2488 5784 2364 
Q 5772 2241 5747 2113 
z
" transform="scale(0.015625)"/>
       <path id="DejaVuSans-56" d="M 1831 0 
L 50 4666 
L 709 4666 
L 2188 738 
L 3669 4666 
L 4325 4666 
L 2547 0 
L 1831 0 
z
" transform="scale(0.015625)"/>
      </defs>
      <use xlink:href="#DejaVuSans-Oblique-56" transform="translate(0 0.125)"/>
      <use xlink:href="#DejaVuSans-Oblique-6d" transform="translate(68.408203 -16.28125) scale(0.7)"/>
      <use xlink:href="#DejaVuSans-20" transform="translate(139.331055 0.125)"/>
      <use xlink:href="#DejaVuSans-28" transform="translate(171.118164 0.125)"/>
      <use xlink:href="#DejaVuSans-6d" transform="translate(210.131836 0.125)"/>
      <use xlink:href="#DejaVuSans-56" transform="translate(307.543945 0.125)"/>
      <use xlink:href="#DejaVuSans-29" transform="translate(375.952148 0.125)"/>
     </g>
    </g>
   </g>
   <g id="line2d_23">
    <path d="M 108 217.122741 
L 110.0088 219.813308 
L 110.6784 220.709337 
L 111.348 221.406549 
L 112.6872 222.253358 
L 113.3568 222.54644 
L 114.696 224.66073 
L 116.0352 226.897663 
L 118.044 229.223041 
L 119.3832 230.059482 
L 120.7224 230.604028 
L 122.7312 231.127316 
L 123.4008 231.244844 
L 124.74 231.965912 
L 126.0792 232.285888 
L 128.088 232.474385 
L 128.7576 232.492455 
L 130.0968 233.02407 
L 131.436 233.182291 
L 132.1056 233.197691 
L 133.4448 233.69938 
L 134.784 233.824323 
L 136.1232 234.328407 
L 137.4624 234.448291 
L 138.8016 234.412902 
L 140.1408 234.824278 
L 141.48 234.877075 
L 143.4888 234.711785 
L 146.1672 234.280034 
L 149.5152 233.520379 
L 153.5328 232.376014 
L 156.8808 231.276755 
L 158.22 231.404294 
L 159.5592 231.194933 
L 160.8984 231.457697 
L 162.2376 231.346199 
L 162.9072 231.2304 
L 164.2464 231.533957 
L 165.5856 231.464216 
L 168.264 230.967996 
L 171.612 230.078926 
L 175.6296 228.767674 
L 176.9688 228.128314 
L 198.396 215.567499 
L 209.1096 208.952182 
L 210.4488 208.086785 
L 211.788 208.19121 
L 213.1272 207.863719 
L 215.136 207.050827 
L 215.8056 206.733898 
L 216.4752 206.915183 
L 217.1448 207.566459 
L 217.8144 208.023359 
L 218.484 208.233303 
L 219.8232 208.316031 
L 221.832 208.059685 
L 224.5104 207.38112 
L 227.1888 206.455264 
L 228.528 205.913201 
L 229.8672 206.345327 
L 230.5368 206.393179 
L 231.876 207.261187 
L 233.2152 207.565215 
L 234.5544 208.520778 
L 235.8936 208.884595 
L 237.2328 208.964569 
L 238.572 208.898282 
L 239.2416 209.798267 
L 239.9112 211.032553 
L 241.92 213.50525 
L 242.5896 213.953564 
L 243.9288 215.295816 
L 244.5984 215.67566 
L 247.2768 220.306522 
L 249.9552 225.87612 
L 250.6248 226.665314 
L 251.2944 227.255453 
L 252.6336 229.019859 
L 253.9728 231.09853 
L 254.6424 231.859534 
L 255.9816 232.811325 
L 257.3208 233.441059 
L 257.9904 233.685018 
L 259.3296 234.576284 
L 261.3384 235.486985 
L 262.008 236.104515 
L 262.6776 236.54058 
L 266.0256 237.934963 
L 267.3648 238.624887 
L 268.704 238.921209 
L 270.7128 239.082313 
L 273.3912 239.02664 
L 276.0696 238.759615 
L 279.4176 238.202962 
L 280.7568 238.406375 
L 282.096 238.309466 
L 284.7744 237.8412 
L 288.792 236.880304 
L 293.4792 235.517251 
L 298.1664 233.923126 
L 302.8536 232.108576 
L 308.2104 229.791424 
L 310.2192 228.810472 
L 312.228 227.429271 
L 316.2456 224.62134 
L 324.9504 218.945589 
L 341.6904 207.952964 
L 343.0296 208.016834 
L 344.3688 207.651932 
L 346.3776 206.777246 
L 349.056 205.313683 
L 351.0648 204.027554 
L 353.0736 202.439939 
L 354.4128 201.050785 
L 355.752 200.346176 
L 356.4216 199.790666 
L 357.0912 199.490859 
L 357.7608 199.024016 
L 358.4304 197.96513 
L 359.1 194.211791 
L 359.7696 178.526545 
L 360.4392 95.34094 
L 361.1088 46.413978 
L 362.448 91.252337 
L 363.7872 118.714137 
L 366.4656 167.549411 
L 368.4744 198.819499 
L 369.144 205.407898 
L 369.8136 209.855241 
L 370.4832 212.896189 
L 371.1528 215.094097 
L 371.8224 216.803579 
L 373.1616 219.322592 
L 375.1704 223.409947 
L 375.84 224.772335 
L 376.5096 225.778149 
L 377.8488 227.082601 
L 379.8576 228.586122 
L 380.5272 229.411378 
L 381.8664 230.711512 
L 382.536 231.539419 
L 383.2056 232.131438 
L 383.8752 232.525217 
L 384.5448 233.101735 
L 385.2144 233.833765 
L 385.884 234.356238 
L 387.8928 235.412907 
L 388.5624 236.045425 
L 389.232 236.490318 
L 389.9016 236.770726 
L 391.2408 238.035384 
L 392.58 238.588786 
L 393.9192 238.878876 
L 395.2584 239.48213 
L 396.5976 239.729086 
L 398.6064 239.839401 
L 401.2848 239.733479 
L 404.6328 239.322645 
L 407.9808 238.677091 
L 411.9984 237.659766 
L 416.6856 236.212877 
L 422.0424 234.309442 
L 428.0688 231.935282 
L 434.0952 229.3211 
L 440.1216 226.459003 
L 444.1392 224.37498 
L 446.148 222.925705 
L 450.1656 219.999737 
L 456.192 215.94429 
L 468.2448 208.11422 
L 473.6016 204.600975 
L 474.9408 204.726309 
L 476.28 204.450941 
L 476.9496 204.222305 
L 477.6192 204.492109 
L 478.2888 205.250573 
L 478.9584 206.32883 
L 479.628 207.098336 
L 480.2976 207.557041 
L 481.6368 208.008734 
L 482.976 208.143222 
L 484.9848 208.043633 
L 486.324 207.852868 
L 487.6632 208.536355 
L 488.3328 209.155618 
L 490.3416 212.012829 
L 491.0112 212.488328 
L 492.3504 213.026919 
L 493.02 213.183823 
L 494.3592 214.190569 
L 495.0288 214.452968 
L 496.368 215.533953 
L 497.7072 216.002079 
L 499.0464 216.211957 
L 499.716 216.263281 
L 501.0552 217.0746 
L 501.7248 217.266059 
L 503.064 218.20206 
L 503.7336 218.432381 
L 506.412 220.539116 
L 507.7512 221.026455 
L 509.0904 221.962233 
L 509.76 222.207509 
L 510.4296 222.74487 
L 512.4384 225.073558 
L 513.7776 225.743649 
L 515.1168 226.105942 
L 516.456 226.941503 
L 517.7952 227.309712 
L 519.804 229.629825 
L 521.1432 230.256653 
L 522.4824 230.583598 
L 523.152 230.999462 
L 523.8216 231.633562 
L 524.4912 232.072002 
L 525.8304 232.505185 
L 527.8392 232.763554 
L 529.848 232.79304 
L 531.1872 232.724746 
L 532.5264 233.150142 
L 533.196 233.80073 
L 533.8656 234.282639 
L 535.2048 234.652853 
L 535.8744 234.723341 
L 536.544 235.039522 
L 537.2136 235.553342 
L 537.8832 235.88886 
L 538.5528 236.062749 
L 539.892 236.701698 
L 541.2312 236.916632 
L 543.24 236.941272 
L 545.9184 236.707488 
L 549.2664 236.145009 
L 553.284 235.193917 
L 557.9712 233.816629 
L 563.328 231.987374 
L 568.6848 229.91441 
L 574.0416 227.601843 
L 578.0592 225.673224 
L 580.068 224.293802 
L 584.7552 221.048827 
L 595.4688 214.120964 
L 607.5216 206.237856 
L 610.8696 203.7384 
L 611.5392 203.166816 
L 612.8784 203.063559 
L 614.2176 203.737463 
L 615.5568 204.985411 
L 616.2264 205.350865 
L 617.5656 205.683214 
L 618.9048 206.710139 
L 620.244 207.142881 
L 621.5832 207.25441 
L 622.2528 207.239966 
L 623.592 208.071094 
L 625.6008 210.071842 
L 626.2704 211.140419 
L 626.94 211.900686 
L 627.6096 212.37305 
L 628.2792 212.692905 
L 628.9488 213.369662 
L 629.6184 214.351191 
L 630.288 215.055834 
L 630.9576 215.498582 
L 632.2968 216.036381 
L 633.636 216.337065 
L 634.3056 216.430605 
L 634.9752 216.918438 
L 636.3144 219.431843 
L 638.3232 221.888925 
L 641.6712 224.183788 
L 643.0104 224.627347 
L 645.0192 224.988473 
L 646.3584 225.098362 
L 647.6976 225.780626 
L 649.0368 226.028946 
L 649.7064 226.078197 
L 651.0456 227.362439 
L 651.7152 227.665551 
L 653.0544 228.573672 
L 653.724 228.802783 
L 657.7416 231.513264 
L 659.0808 231.919033 
L 660.42 232.106115 
L 661.7592 232.725795 
L 663.0984 232.944733 
L 665.1072 232.985302 
L 666.4464 232.909693 
L 667.7856 233.322951 
L 669.1248 233.374453 
L 670.464 233.823657 
L 671.1336 233.887053 
L 671.8032 234.184242 
L 672.4728 234.681708 
L 673.1424 234.99723 
L 674.4816 235.219466 
L 676.4904 235.207245 
L 679.1688 234.90917 
L 682.5168 234.264223 
L 686.5344 233.213416 
L 691.2216 231.712172 
L 693.9 230.754196 
L 695.2392 230.859995 
L 696.5784 230.626813 
L 697.248 230.457506 
L 698.5872 230.680508 
L 699.9264 230.535944 
L 702.6048 229.907648 
L 705.9528 228.882158 
L 709.9704 227.437116 
L 711.9792 226.596083 
L 713.988 225.377693 
L 719.3448 222.066597 
L 734.076 213.164971 
L 734.7456 212.751288 
L 736.0848 212.816086 
L 737.424 212.440341 
L 738.7632 211.898752 
L 740.1024 212.188826 
L 741.4416 211.998348 
L 742.1112 211.820617 
L 743.4504 212.279442 
L 744.7896 212.229247 
L 746.7984 211.802185 
L 749.4768 210.975318 
L 750.816 211.402007 
L 752.1552 211.351929 
L 754.164 210.943713 
L 755.5032 211.474361 
L 756.1728 211.533402 
L 757.512 212.3165 
L 758.1816 212.462955 
L 758.8512 212.974155 
L 759.5208 214.258471 
L 760.86 216.16617 
L 761.5296 216.861945 
L 762.1992 217.300206 
L 763.5384 217.821791 
L 764.8776 218.098575 
L 766.2168 218.983172 
L 767.556 219.346798 
L 768.2256 219.837214 
L 768.8952 220.617171 
L 769.5648 221.15959 
L 771.5736 222.220028 
L 772.2432 223.010224 
L 772.9128 223.564383 
L 773.5824 224.264163 
L 774.252 224.789866 
L 775.5912 225.356582 
L 776.2608 226.568963 
L 776.9304 227.533182 
L 777.6 228.094325 
L 777.6 228.094325 
" clip-path="url(#p1f1cdb2395)" style="fill: none; stroke: #000000; stroke-width: 1.5; stroke-linecap: square"/>
   </g>
   <g id="line2d_24">
    <path d="M 108 133.291806 
L 114.696 136.934327 
L 116.7048 138.215741 
L 120.7224 140.880975 
L 124.0704 142.712521 
L 133.4448 147.849499 
L 136.7928 150.066987 
L 140.1408 152.59062 
L 142.8192 154.922603 
L 145.4976 157.482155 
L 148.176 160.339384 
L 150.1848 162.752896 
L 152.1936 165.458671 
L 154.2024 168.498137 
L 156.8808 173.067048 
L 158.8896 176.920183 
L 161.568 182.543646 
L 165.5856 190.946604 
L 167.5944 194.668506 
L 169.6032 197.850477 
L 171.612 200.488298 
L 173.6208 202.626169 
L 175.6296 204.321179 
L 176.2992 169.743112 
L 176.9688 155.79266 
L 177.6384 149.520483 
L 178.308 145.700567 
L 178.9776 143.162289 
L 179.6472 141.366595 
L 180.3168 140.033468 
L 181.656 138.168043 
L 182.9952 136.870709 
L 185.004 135.408671 
L 187.0128 134.244088 
L 189.6912 132.987178 
L 192.3696 131.99223 
L 195.7176 131.02665 
L 199.7352 130.154153 
L 204.4224 129.394462 
L 210.4488 128.666728 
L 213.1272 128.546445 
L 217.8144 128.605672 
L 223.8408 129.278132 
L 231.876 129.830279 
L 235.224 130.547405 
L 241.2504 132.102073 
L 245.9376 134.216249 
L 247.9464 135.400853 
L 249.9552 136.887754 
L 255.9816 141.535087 
L 259.3296 143.881172 
L 263.3472 146.714395 
L 266.6952 149.370016 
L 270.0432 152.351006 
L 273.3912 155.567826 
L 276.0696 158.449241 
L 278.0784 160.903783 
L 280.0872 163.725025 
L 281.4264 165.941928 
L 282.7656 168.47199 
L 284.7744 172.839441 
L 286.7832 177.810209 
L 292.14 191.619258 
L 294.1488 196.023862 
L 296.1576 199.758193 
L 298.1664 202.833265 
L 299.5056 204.545735 
L 300.8448 206.013608 
L 302.184 207.259196 
L 304.1928 208.756906 
L 306.2016 209.866666 
L 308.2104 210.643815 
L 309.5496 211.000484 
L 310.2192 174.467204 
L 310.8888 158.747254 
L 311.5584 151.693886 
L 312.228 147.321512 
L 312.8976 144.377513 
L 313.5672 142.270991 
L 314.2368 140.693451 
L 314.9064 139.464836 
L 316.2456 137.648719 
L 317.5848 136.323147 
L 318.924 135.268557 
L 320.9328 133.991628 
L 322.9416 132.962317 
L 325.62 131.867673 
L 328.2984 131.007826 
L 331.6464 130.165821 
L 335.664 129.386729 
L 341.0208 128.594746 
L 343.6992 128.356945 
L 351.7344 128.005998 
L 357.7608 127.446523 
L 359.1 127.225386 
L 359.7696 126.62393 
L 360.4392 123.647616 
L 361.7784 113.326807 
L 362.448 110.040612 
L 363.1176 108.445343 
L 363.7872 108.108494 
L 364.4568 108.629642 
L 365.1264 109.72239 
L 366.4656 112.990979 
L 368.4744 119.102817 
L 369.8136 123.211829 
L 371.1528 126.590837 
L 372.492 129.147158 
L 373.8312 131.085325 
L 375.84 133.405436 
L 377.8488 135.345539 
L 379.8576 136.89702 
L 386.5536 141.48311 
L 391.9104 145.103609 
L 405.3024 154.937797 
L 407.9808 157.241527 
L 410.6592 159.857299 
L 412.668 162.102293 
L 414.6768 164.665087 
L 416.6856 167.616511 
L 418.6944 171.008306 
L 420.7032 174.829909 
L 424.7208 183.179765 
L 427.3992 188.483358 
L 429.408 191.970185 
L 431.4168 194.934715 
L 433.4256 197.367545 
L 435.4344 199.301223 
L 437.4432 200.786122 
L 439.452 201.876291 
L 441.4608 202.622907 
L 443.4696 203.07129 
L 444.1392 168.548485 
L 444.8088 154.690712 
L 445.4784 148.342919 
L 446.148 144.426125 
L 446.8176 141.790504 
L 447.4872 139.905089 
L 448.1568 138.494115 
L 448.8264 137.397617 
L 450.1656 135.785171 
L 451.5048 134.616372 
L 453.5136 133.280872 
L 455.5224 132.222596 
L 458.2008 131.086557 
L 460.8792 130.183785 
L 464.2272 129.296756 
L 468.2448 128.481044 
L 473.6016 127.658891 
L 475.6104 127.49629 
L 478.2888 127.481738 
L 480.2976 127.822309 
L 483.6456 128.455568 
L 489.672 129.307167 
L 495.6984 131.080739 
L 499.716 132.165614 
L 503.7336 133.224988 
L 507.0816 134.34272 
L 511.7688 136.085309 
L 517.1256 138.448933 
L 519.1344 139.333238 
L 533.8656 147.02126 
L 537.2136 149.328096 
L 539.2224 150.970769 
L 541.9008 153.464194 
L 545.2488 156.87441 
L 547.9272 159.946081 
L 549.936 162.565915 
L 551.9448 165.549545 
L 553.9536 168.971357 
L 555.9624 172.858208 
L 558.6408 178.612751 
L 562.6584 187.32678 
L 564.6672 191.165858 
L 566.676 194.468008 
L 568.6848 197.207367 
L 570.6936 199.412493 
L 572.7024 201.136038 
L 574.7112 202.436697 
L 576.72 203.370519 
L 577.3896 203.609091 
L 578.0592 169.021303 
L 578.7288 155.099669 
L 579.3984 148.771541 
L 580.068 144.882856 
L 580.7376 142.274628 
L 581.4072 140.413157 
L 582.0768 139.02094 
L 583.416 137.063594 
L 584.7552 135.710249 
L 586.0944 134.666953 
L 588.1032 133.415814 
L 590.112 132.399005 
L 592.7904 131.300917 
L 595.4688 130.427763 
L 598.8168 129.567793 
L 602.8344 128.771565 
L 608.1912 127.954633 
L 613.548 127.334288 
L 614.8872 127.383248 
L 617.5656 127.791209 
L 625.6008 129.307102 
L 628.9488 130.420116 
L 634.3056 132.212012 
L 636.3144 132.850779 
L 639.6624 134.40343 
L 643.68 136.0818 
L 647.6976 137.391475 
L 651.7152 138.815974 
L 655.7328 140.661246 
L 661.0896 143.485767 
L 671.1336 148.859231 
L 673.1424 150.259528 
L 676.4904 153.011853 
L 680.508 156.581511 
L 683.1864 159.241809 
L 685.8648 162.260866 
L 687.8736 164.833488 
L 689.8824 167.718368 
L 691.8912 170.928745 
L 694.5696 175.645745 
L 697.9176 182.209007 
L 701.2656 188.816185 
L 703.2744 192.311377 
L 705.2832 195.294251 
L 707.292 197.7597 
L 709.3008 199.743675 
L 711.3096 201.296961 
L 711.9792 167.466027 
L 712.6488 154.276509 
L 713.3184 148.295202 
L 713.988 144.659982 
L 714.6576 142.240119 
L 715.3272 140.522493 
L 715.9968 139.241525 
L 717.336 137.436623 
L 718.6752 136.171068 
L 720.684 134.737014 
L 722.6928 133.591354 
L 725.3712 132.351773 
L 728.0496 131.367209 
L 731.3976 130.407743 
L 734.7456 129.665389 
L 736.7544 129.381671 
L 740.1024 129.133556 
L 744.12 129.157906 
L 749.4768 129.305045 
L 752.1552 129.442445 
L 756.8424 129.849181 
L 759.5208 130.353953 
L 761.5296 131.04015 
L 764.208 131.96942 
L 770.904 133.961052 
L 773.5824 134.948273 
L 777.6 136.71157 
L 777.6 136.71157 
" clip-path="url(#p1f1cdb2395)" style="fill: none; stroke: #4169e1; stroke-width: 1.5; stroke-linecap: square"/>
   </g>
   <g id="patch_3">
    <path d="M 108 256.32 
L 108 34.56 
" style="fill: none; stroke: #000000; stroke-width: 0.8; stroke-linejoin: miter; stroke-linecap: square"/>
   </g>
   <g id="patch_4">
    <path d="M 777.6 256.32 
L 777.6 34.56 
" style="fill: none; stroke: #000000; stroke-width: 0.8; stroke-linejoin: miter; stroke-linecap: square"/>
   </g>
   <g id="patch_5">
    <path d="M 108 256.32 
L 777.6 256.32 
" style="fill: none; stroke: #000000; stroke-width: 0.8; stroke-linejoin: miter; stroke-linecap: square"/>
   </g>
   <g id="patch_6">
    <path d="M 108 34.56 
L 777.6 34.56 
" style="fill: none; stroke: #000000; stroke-width: 0.8; stroke-linejoin: miter; stroke-linecap: square"/>
   </g>
   <g id="legend_1">
    <g id="patch_7">
     <path d="M 695.098438 71.91625 
L 770.6 71.91625 
Q 772.6 71.91625 772.6 69.91625 
L 772.6 41.56 
Q 772.6 39.56 770.6 39.56 
L 695.098438 39.56 
Q 693.098438 39.56 693.098438 41.56 
L 693.098438 69.91625 
Q 693.098438 71.91625 695.098438 71.91625 
z
" style="fill: #ffffff; opacity: 0.8; stroke: #cccccc; stroke-linejoin: miter"/>
    </g>
    <g id="line2d_25">
     <path d="M 697.098438 47.658437 
L 707.098438 47.658437 
L 717.098438 47.658437 
" style="fill: none; stroke: #000000; stroke-width: 1.5; stroke-linecap: square"/>
    </g>
    <g id="text_14">
     <!-- Soma -->
     <g transform="translate(725.098438 51.158437) scale(0.1 -0.1)">
      <defs>
       <path id="DejaVuSans-53" d="M 3425 4513 
L 3425 3897 
Q 3066 4069 2747 4153 
Q 2428 4238 2131 4238 
Q 1616 4238 1336 4038 
Q 1056 3838 1056 3469 
Q 1056 3159 1242 3001 
Q 1428 2844 1947 2747 
L 2328 2669 
Q 3034 2534 3370 2195 
Q 3706 1856 3706 1288 
Q 3706 609 3251 259 
Q 2797 -91 1919 -91 
Q 1588 -91 1214 -16 
Q 841 59 441 206 
L 441 856 
Q 825 641 1194 531 
Q 1563 422 1919 422 
Q 2459 422 2753 634 
Q 3047 847 3047 1241 
Q 3047 1584 2836 1778 
Q 2625 1972 2144 2069 
L 1759 2144 
Q 1053 2284 737 2584 
Q 422 2884 422 3419 
Q 422 4038 858 4394 
Q 1294 4750 2059 4750 
Q 2388 4750 2728 4690 
Q 3069 4631 3425 4513 
z
" transform="scale(0.015625)"/>
       <path id="DejaVuSans-6f" d="M 1959 3097 
Q 1497 3097 1228 2736 
Q 959 2375 959 1747 
Q 959 1119 1226 758 
Q 1494 397 1959 397 
Q 2419 397 2687 759 
Q 2956 1122 2956 1747 
Q 2956 2369 2687 2733 
Q 2419 3097 1959 3097 
z
M 1959 3584 
Q 2709 3584 3137 3096 
Q 3566 2609 3566 1747 
Q 3566 888 3137 398 
Q 2709 -91 1959 -91 
Q 1206 -91 779 398 
Q 353 888 353 1747 
Q 353 2609 779 3096 
Q 1206 3584 1959 3584 
z
" transform="scale(0.015625)"/>
       <path id="DejaVuSans-61" d="M 2194 1759 
Q 1497 1759 1228 1600 
Q 959 1441 959 1056 
Q 959 750 1161 570 
Q 1363 391 1709 391 
Q 2188 391 2477 730 
Q 2766 1069 2766 1631 
L 2766 1759 
L 2194 1759 
z
M 3341 1997 
L 3341 0 
L 2766 0 
L 2766 531 
Q 2569 213 2275 61 
Q 1981 -91 1556 -91 
Q 1019 -91 701 211 
Q 384 513 384 1019 
Q 384 1609 779 1909 
Q 1175 2209 1959 2209 
L 2766 2209 
L 2766 2266 
Q 2766 2663 2505 2880 
Q 2244 3097 1772 3097 
Q 1472 3097 1187 3025 
Q 903 2953 641 2809 
L 641 3341 
Q 956 3463 1253 3523 
Q 1550 3584 1831 3584 
Q 2591 3584 2966 3190 
Q 3341 2797 3341 1997 
z
" transform="scale(0.015625)"/>
      </defs>
      <use xlink:href="#DejaVuSans-53"/>
      <use xlink:href="#DejaVuSans-6f" x="63.476562"/>
      <use xlink:href="#DejaVuSans-6d" x="124.658203"/>
      <use xlink:href="#DejaVuSans-61" x="222.070312"/>
     </g>
    </g>
    <g id="line2d_26">
     <path d="M 697.098438 62.336562 
L 707.098438 62.336562 
L 717.098438 62.336562 
" style="fill: none; stroke: #4169e1; stroke-width: 1.5; stroke-linecap: square"/>
    </g>
    <g id="text_15">
     <!-- Dendrite -->
     <g transform="translate(725.098438 65.836562) scale(0.1 -0.1)">
      <defs>
       <path id="DejaVuSans-44" d="M 1259 4147 
L 1259 519 
L 2022 519 
Q 2988 519 3436 956 
Q 3884 1394 3884 2338 
Q 3884 3275 3436 3711 
Q 2988 4147 2022 4147 
L 1259 4147 
z
M 628 4666 
L 1925 4666 
Q 3281 4666 3915 4102 
Q 4550 3538 4550 2338 
Q 4550 1131 3912 565 
Q 3275 0 1925 0 
L 628 0 
L 628 4666 
z
" transform="scale(0.015625)"/>
       <path id="DejaVuSans-6e" d="M 3513 2113 
L 3513 0 
L 2938 0 
L 2938 2094 
Q 2938 2591 2744 2837 
Q 2550 3084 2163 3084 
Q 1697 3084 1428 2787 
Q 1159 2491 1159 1978 
L 1159 0 
L 581 0 
L 581 3500 
L 1159 3500 
L 1159 2956 
Q 1366 3272 1645 3428 
Q 1925 3584 2291 3584 
Q 2894 3584 3203 3211 
Q 3513 2838 3513 2113 
z
" transform="scale(0.015625)"/>
       <path id="DejaVuSans-64" d="M 2906 2969 
L 2906 4863 
L 3481 4863 
L 3481 0 
L 2906 0 
L 2906 525 
Q 2725 213 2448 61 
Q 2172 -91 1784 -91 
Q 1150 -91 751 415 
Q 353 922 353 1747 
Q 353 2572 751 3078 
Q 1150 3584 1784 3584 
Q 2172 3584 2448 3432 
Q 2725 3281 2906 2969 
z
M 947 1747 
Q 947 1113 1208 752 
Q 1469 391 1925 391 
Q 2381 391 2643 752 
Q 2906 1113 2906 1747 
Q 2906 2381 2643 2742 
Q 2381 3103 1925 3103 
Q 1469 3103 1208 2742 
Q 947 2381 947 1747 
z
" transform="scale(0.015625)"/>
       <path id="DejaVuSans-72" d="M 2631 2963 
Q 2534 3019 2420 3045 
Q 2306 3072 2169 3072 
Q 1681 3072 1420 2755 
Q 1159 2438 1159 1844 
L 1159 0 
L 581 0 
L 581 3500 
L 1159 3500 
L 1159 2956 
Q 1341 3275 1631 3429 
Q 1922 3584 2338 3584 
Q 2397 3584 2469 3576 
Q 2541 3569 2628 3553 
L 2631 2963 
z
" transform="scale(0.015625)"/>
       <path id="DejaVuSans-74" d="M 1172 4494 
L 1172 3500 
L 2356 3500 
L 2356 3053 
L 1172 3053 
L 1172 1153 
Q 1172 725 1289 603 
Q 1406 481 1766 481 
L 2356 481 
L 2356 0 
L 1766 0 
Q 1100 0 847 248 
Q 594 497 594 1153 
L 594 3053 
L 172 3053 
L 172 3500 
L 594 3500 
L 594 4494 
L 1172 4494 
z
" transform="scale(0.015625)"/>
      </defs>
      <use xlink:href="#DejaVuSans-44"/>
      <use xlink:href="#DejaVuSans-65" x="77.001953"/>
      <use xlink:href="#DejaVuSans-6e" x="138.525391"/>
      <use xlink:href="#DejaVuSans-64" x="201.904297"/>
      <use xlink:href="#DejaVuSans-72" x="265.380859"/>
      <use xlink:href="#DejaVuSans-69" x="306.494141"/>
      <use xlink:href="#DejaVuSans-74" x="334.277344"/>
      <use xlink:href="#DejaVuSans-65" x="373.486328"/>
     </g>
    </g>
   </g>
  </g>
 </g>
 <defs>
  <clipPath id="p1f1cdb2395">
   <rect x="108" y="34.56" width="669.6" height="221.76"/>
  </clipPath>
 </defs>
</svg>
