<?xml version="1.0" encoding="utf-8" standalone="no"?>
<!DOCTYPE svg PUBLIC "-//W3C//DTD SVG 1.1//EN"
  "http://www.w3.org/Graphics/SVG/1.1/DTD/svg11.dtd">
<svg xmlns:xlink="http://www.w3.org/1999/xlink" width="864pt" height="288pt" viewBox="0 0 864 288" xmlns="http://www.w3.org/2000/svg" version="1.1">
 <metadata>
  <rdf:RDF xmlns:dc="http://purl.org/dc/elements/1.1/" xmlns:cc="http://creativecommons.org/ns#" xmlns:rdf="http://www.w3.org/1999/02/22-rdf-syntax-ns#">
   <cc:Work>
    <dc:type rdf:resource="http://purl.org/dc/dcmitype/StillImage"/>
    <dc:date>2024-04-23T19:18:18.957912</dc:date>
    <dc:format>image/svg+xml</dc:format>
    <dc:creator>
     <cc:Agent>
      <dc:title>Matplotlib v3.8.2, https://matplotlib.org/</dc:title>
     </cc:Agent>
    </dc:creator>
   </cc:Work>
  </rdf:RDF>
 </metadata>
 <defs>
  <style type="text/css">*{stroke-linejoin: round; stroke-linecap: butt}</style>
 </defs>
 <g id="figure_1">
  <g id="patch_1">
   <path d="M 0 288 
L 864 288 
L 864 0 
L 0 0 
z
" style="fill: #ffffff"/>
  </g>
  <g id="axes_1">
   <g id="patch_2">
    <path d="M 108 256.32 
L 777.6 256.32 
L 777.6 34.56 
L 108 34.56 
z
" style="fill: #ffffff"/>
   </g>
   <g id="matplotlib.axis_1">
    <g id="xtick_1">
     <g id="line2d_1">
      <path d="M 108 256.32 
L 108 34.56 
" clip-path="url(#p65fe95629f)" style="fill: none; stroke: #b0b0b0; stroke-width: 0.8; stroke-linecap: square"/>
     </g>
     <g id="line2d_2">
      <defs>
       <path id="m31bd80bd53" d="M 0 0 
L 0 3.5 
" style="stroke: #000000; stroke-width: 0.8"/>
      </defs>
      <g>
       <use xlink:href="#m31bd80bd53" x="108" y="256.32" style="stroke: #000000; stroke-width: 0.8"/>
      </g>
     </g>
     <g id="text_1">
      <!-- 100 -->
      <g transform="translate(94.63875 273.957812) scale(0.14 -0.14)">
       <defs>
        <path id="DejaVuSans-31" d="M 794 531 
L 1825 531 
L 1825 4091 
L 703 3866 
L 703 4441 
L 1819 4666 
L 2450 4666 
L 2450 531 
L 3481 531 
L 3481 0 
L 794 0 
L 794 531 
z
" transform="scale(0.015625)"/>
        <path id="DejaVuSans-30" d="M 2034 4250 
Q 1547 4250 1301 3770 
Q 1056 3291 1056 2328 
Q 1056 1369 1301 889 
Q 1547 409 2034 409 
Q 2525 409 2770 889 
Q 3016 1369 3016 2328 
Q 3016 3291 2770 3770 
Q 2525 4250 2034 4250 
z
M 2034 4750 
Q 2819 4750 3233 4129 
Q 3647 3509 3647 2328 
Q 3647 1150 3233 529 
Q 2819 -91 2034 -91 
Q 1250 -91 836 529 
Q 422 1150 422 2328 
Q 422 3509 836 4129 
Q 1250 4750 2034 4750 
z
" transform="scale(0.015625)"/>
       </defs>
       <use xlink:href="#DejaVuSans-31"/>
       <use xlink:href="#DejaVuSans-30" x="63.623047"/>
       <use xlink:href="#DejaVuSans-30" x="127.246094"/>
      </g>
     </g>
    </g>
    <g id="xtick_2">
     <g id="line2d_3">
      <path d="M 241.92 256.32 
L 241.92 34.56 
" clip-path="url(#p65fe95629f)" style="fill: none; stroke: #b0b0b0; stroke-width: 0.8; stroke-linecap: square"/>
     </g>
     <g id="line2d_4">
      <g>
       <use xlink:href="#m31bd80bd53" x="241.92" y="256.32" style="stroke: #000000; stroke-width: 0.8"/>
      </g>
     </g>
     <g id="text_2">
      <!-- 120 -->
      <g transform="translate(228.55875 273.957812) scale(0.14 -0.14)">
       <defs>
        <path id="DejaVuSans-32" d="M 1228 531 
L 3431 531 
L 3431 0 
L 469 0 
L 469 531 
Q 828 903 1448 1529 
Q 2069 2156 2228 2338 
Q 2531 2678 2651 2914 
Q 2772 3150 2772 3378 
Q 2772 3750 2511 3984 
Q 2250 4219 1831 4219 
Q 1534 4219 1204 4116 
Q 875 4013 500 3803 
L 500 4441 
Q 881 4594 1212 4672 
Q 1544 4750 1819 4750 
Q 2544 4750 2975 4387 
Q 3406 4025 3406 3419 
Q 3406 3131 3298 2873 
Q 3191 2616 2906 2266 
Q 2828 2175 2409 1742 
Q 1991 1309 1228 531 
z
" transform="scale(0.015625)"/>
       </defs>
       <use xlink:href="#DejaVuSans-31"/>
       <use xlink:href="#DejaVuSans-32" x="63.623047"/>
       <use xlink:href="#DejaVuSans-30" x="127.246094"/>
      </g>
     </g>
    </g>
    <g id="xtick_3">
     <g id="line2d_5">
      <path d="M 375.84 256.32 
L 375.84 34.56 
" clip-path="url(#p65fe95629f)" style="fill: none; stroke: #b0b0b0; stroke-width: 0.8; stroke-linecap: square"/>
     </g>
     <g id="line2d_6">
      <g>
       <use xlink:href="#m31bd80bd53" x="375.84" y="256.32" style="stroke: #000000; stroke-width: 0.8"/>
      </g>
     </g>
     <g id="text_3">
      <!-- 140 -->
      <g transform="translate(362.47875 273.957812) scale(0.14 -0.14)">
       <defs>
        <path id="DejaVuSans-34" d="M 2419 4116 
L 825 1625 
L 2419 1625 
L 2419 4116 
z
M 2253 4666 
L 3047 4666 
L 3047 1625 
L 3713 1625 
L 3713 1100 
L 3047 1100 
L 3047 0 
L 2419 0 
L 2419 1100 
L 313 1100 
L 313 1709 
L 2253 4666 
z
" transform="scale(0.015625)"/>
       </defs>
       <use xlink:href="#DejaVuSans-31"/>
       <use xlink:href="#DejaVuSans-34" x="63.623047"/>
       <use xlink:href="#DejaVuSans-30" x="127.246094"/>
      </g>
     </g>
    </g>
    <g id="xtick_4">
     <g id="line2d_7">
      <path d="M 509.76 256.32 
L 509.76 34.56 
" clip-path="url(#p65fe95629f)" style="fill: none; stroke: #b0b0b0; stroke-width: 0.8; stroke-linecap: square"/>
     </g>
     <g id="line2d_8">
      <g>
       <use xlink:href="#m31bd80bd53" x="509.76" y="256.32" style="stroke: #000000; stroke-width: 0.8"/>
      </g>
     </g>
     <g id="text_4">
      <!-- 160 -->
      <g transform="translate(496.39875 273.957812) scale(0.14 -0.14)">
       <defs>
        <path id="DejaVuSans-36" d="M 2113 2584 
Q 1688 2584 1439 2293 
Q 1191 2003 1191 1497 
Q 1191 994 1439 701 
Q 1688 409 2113 409 
Q 2538 409 2786 701 
Q 3034 994 3034 1497 
Q 3034 2003 2786 2293 
Q 2538 2584 2113 2584 
z
M 3366 4563 
L 3366 3988 
Q 3128 4100 2886 4159 
Q 2644 4219 2406 4219 
Q 1781 4219 1451 3797 
Q 1122 3375 1075 2522 
Q 1259 2794 1537 2939 
Q 1816 3084 2150 3084 
Q 2853 3084 3261 2657 
Q 3669 2231 3669 1497 
Q 3669 778 3244 343 
Q 2819 -91 2113 -91 
Q 1303 -91 875 529 
Q 447 1150 447 2328 
Q 447 3434 972 4092 
Q 1497 4750 2381 4750 
Q 2619 4750 2861 4703 
Q 3103 4656 3366 4563 
z
" transform="scale(0.015625)"/>
       </defs>
       <use xlink:href="#DejaVuSans-31"/>
       <use xlink:href="#DejaVuSans-36" x="63.623047"/>
       <use xlink:href="#DejaVuSans-30" x="127.246094"/>
      </g>
     </g>
    </g>
    <g id="xtick_5">
     <g id="line2d_9">
      <path d="M 643.68 256.32 
L 643.68 34.56 
" clip-path="url(#p65fe95629f)" style="fill: none; stroke: #b0b0b0; stroke-width: 0.8; stroke-linecap: square"/>
     </g>
     <g id="line2d_10">
      <g>
       <use xlink:href="#m31bd80bd53" x="643.68" y="256.32" style="stroke: #000000; stroke-width: 0.8"/>
      </g>
     </g>
     <g id="text_5">
      <!-- 180 -->
      <g transform="translate(630.31875 273.957812) scale(0.14 -0.14)">
       <defs>
        <path id="DejaVuSans-38" d="M 2034 2216 
Q 1584 2216 1326 1975 
Q 1069 1734 1069 1313 
Q 1069 891 1326 650 
Q 1584 409 2034 409 
Q 2484 409 2743 651 
Q 3003 894 3003 1313 
Q 3003 1734 2745 1975 
Q 2488 2216 2034 2216 
z
M 1403 2484 
Q 997 2584 770 2862 
Q 544 3141 544 3541 
Q 544 4100 942 4425 
Q 1341 4750 2034 4750 
Q 2731 4750 3128 4425 
Q 3525 4100 3525 3541 
Q 3525 3141 3298 2862 
Q 3072 2584 2669 2484 
Q 3125 2378 3379 2068 
Q 3634 1759 3634 1313 
Q 3634 634 3220 271 
Q 2806 -91 2034 -91 
Q 1263 -91 848 271 
Q 434 634 434 1313 
Q 434 1759 690 2068 
Q 947 2378 1403 2484 
z
M 1172 3481 
Q 1172 3119 1398 2916 
Q 1625 2713 2034 2713 
Q 2441 2713 2670 2916 
Q 2900 3119 2900 3481 
Q 2900 3844 2670 4047 
Q 2441 4250 2034 4250 
Q 1625 4250 1398 4047 
Q 1172 3844 1172 3481 
z
" transform="scale(0.015625)"/>
       </defs>
       <use xlink:href="#DejaVuSans-31"/>
       <use xlink:href="#DejaVuSans-38" x="63.623047"/>
       <use xlink:href="#DejaVuSans-30" x="127.246094"/>
      </g>
     </g>
    </g>
    <g id="xtick_6">
     <g id="line2d_11">
      <path d="M 777.6 256.32 
L 777.6 34.56 
" clip-path="url(#p65fe95629f)" style="fill: none; stroke: #b0b0b0; stroke-width: 0.8; stroke-linecap: square"/>
     </g>
     <g id="line2d_12">
      <g>
       <use xlink:href="#m31bd80bd53" x="777.6" y="256.32" style="stroke: #000000; stroke-width: 0.8"/>
      </g>
     </g>
     <g id="text_6">
      <!-- 200 -->
      <g transform="translate(764.23875 273.957812) scale(0.14 -0.14)">
       <use xlink:href="#DejaVuSans-32"/>
       <use xlink:href="#DejaVuSans-30" x="63.623047"/>
       <use xlink:href="#DejaVuSans-30" x="127.246094"/>
      </g>
     </g>
    </g>
    <g id="text_7">
     <!-- Time (ms) -->
     <g transform="translate(407.521094 291.507187) scale(0.14 -0.14)">
      <defs>
       <path id="DejaVuSans-54" d="M -19 4666 
L 3928 4666 
L 3928 4134 
L 2272 4134 
L 2272 0 
L 1638 0 
L 1638 4134 
L -19 4134 
L -19 4666 
z
" transform="scale(0.015625)"/>
       <path id="DejaVuSans-69" d="M 603 3500 
L 1178 3500 
L 1178 0 
L 603 0 
L 603 3500 
z
M 603 4863 
L 1178 4863 
L 1178 4134 
L 603 4134 
L 603 4863 
z
" transform="scale(0.015625)"/>
       <path id="DejaVuSans-6d" d="M 3328 2828 
Q 3544 3216 3844 3400 
Q 4144 3584 4550 3584 
Q 5097 3584 5394 3201 
Q 5691 2819 5691 2113 
L 5691 0 
L 5113 0 
L 5113 2094 
Q 5113 2597 4934 2840 
Q 4756 3084 4391 3084 
Q 3944 3084 3684 2787 
Q 3425 2491 3425 1978 
L 3425 0 
L 2847 0 
L 2847 2094 
Q 2847 2600 2669 2842 
Q 2491 3084 2119 3084 
Q 1678 3084 1418 2786 
Q 1159 2488 1159 1978 
L 1159 0 
L 581 0 
L 581 3500 
L 1159 3500 
L 1159 2956 
Q 1356 3278 1631 3431 
Q 1906 3584 2284 3584 
Q 2666 3584 2933 3390 
Q 3200 3197 3328 2828 
z
" transform="scale(0.015625)"/>
       <path id="DejaVuSans-65" d="M 3597 1894 
L 3597 1613 
L 953 1613 
Q 991 1019 1311 708 
Q 1631 397 2203 397 
Q 2534 397 2845 478 
Q 3156 559 3463 722 
L 3463 178 
Q 3153 47 2828 -22 
Q 2503 -91 2169 -91 
Q 1331 -91 842 396 
Q 353 884 353 1716 
Q 353 2575 817 3079 
Q 1281 3584 2069 3584 
Q 2775 3584 3186 3129 
Q 3597 2675 3597 1894 
z
M 3022 2063 
Q 3016 2534 2758 2815 
Q 2500 3097 2075 3097 
Q 1594 3097 1305 2825 
Q 1016 2553 972 2059 
L 3022 2063 
z
" transform="scale(0.015625)"/>
       <path id="DejaVuSans-20" transform="scale(0.015625)"/>
       <path id="DejaVuSans-28" d="M 1984 4856 
Q 1566 4138 1362 3434 
Q 1159 2731 1159 2009 
Q 1159 1288 1364 580 
Q 1569 -128 1984 -844 
L 1484 -844 
Q 1016 -109 783 600 
Q 550 1309 550 2009 
Q 550 2706 781 3412 
Q 1013 4119 1484 4856 
L 1984 4856 
z
" transform="scale(0.015625)"/>
       <path id="DejaVuSans-73" d="M 2834 3397 
L 2834 2853 
Q 2591 2978 2328 3040 
Q 2066 3103 1784 3103 
Q 1356 3103 1142 2972 
Q 928 2841 928 2578 
Q 928 2378 1081 2264 
Q 1234 2150 1697 2047 
L 1894 2003 
Q 2506 1872 2764 1633 
Q 3022 1394 3022 966 
Q 3022 478 2636 193 
Q 2250 -91 1575 -91 
Q 1294 -91 989 -36 
Q 684 19 347 128 
L 347 722 
Q 666 556 975 473 
Q 1284 391 1588 391 
Q 1994 391 2212 530 
Q 2431 669 2431 922 
Q 2431 1156 2273 1281 
Q 2116 1406 1581 1522 
L 1381 1569 
Q 847 1681 609 1914 
Q 372 2147 372 2553 
Q 372 3047 722 3315 
Q 1072 3584 1716 3584 
Q 2034 3584 2315 3537 
Q 2597 3491 2834 3397 
z
" transform="scale(0.015625)"/>
       <path id="DejaVuSans-29" d="M 513 4856 
L 1013 4856 
Q 1481 4119 1714 3412 
Q 1947 2706 1947 2009 
Q 1947 1309 1714 600 
Q 1481 -109 1013 -844 
L 513 -844 
Q 928 -128 1133 580 
Q 1338 1288 1338 2009 
Q 1338 2731 1133 3434 
Q 928 4138 513 4856 
z
" transform="scale(0.015625)"/>
      </defs>
      <use xlink:href="#DejaVuSans-54"/>
      <use xlink:href="#DejaVuSans-69" x="57.958984"/>
      <use xlink:href="#DejaVuSans-6d" x="85.742188"/>
      <use xlink:href="#DejaVuSans-65" x="183.154297"/>
      <use xlink:href="#DejaVuSans-20" x="244.677734"/>
      <use xlink:href="#DejaVuSans-28" x="276.464844"/>
      <use xlink:href="#DejaVuSans-6d" x="315.478516"/>
      <use xlink:href="#DejaVuSans-73" x="412.890625"/>
      <use xlink:href="#DejaVuSans-29" x="464.990234"/>
     </g>
    </g>
   </g>
   <g id="matplotlib.axis_2">
    <g id="ytick_1">
     <g id="line2d_13">
      <path d="M 108 224.960543 
L 777.6 224.960543 
" clip-path="url(#p65fe95629f)" style="fill: none; stroke: #b0b0b0; stroke-width: 0.8; stroke-linecap: square"/>
     </g>
     <g id="line2d_14">
      <defs>
       <path id="m709bb31049" d="M 0 0 
L -3.5 0 
" style="stroke: #000000; stroke-width: 0.8"/>
      </defs>
      <g>
       <use xlink:href="#m709bb31049" x="108" y="224.960543" style="stroke: #000000; stroke-width: 0.8"/>
      </g>
     </g>
     <g id="text_8">
      <!-- −60 -->
      <g transform="translate(71.453437 230.279449) scale(0.14 -0.14)">
       <defs>
        <path id="DejaVuSans-2212" d="M 678 2272 
L 4684 2272 
L 4684 1741 
L 678 1741 
L 678 2272 
z
" transform="scale(0.015625)"/>
       </defs>
       <use xlink:href="#DejaVuSans-2212"/>
       <use xlink:href="#DejaVuSans-36" x="83.789062"/>
       <use xlink:href="#DejaVuSans-30" x="147.412109"/>
      </g>
     </g>
    </g>
    <g id="ytick_2">
     <g id="line2d_15">
      <path d="M 108 182.469443 
L 777.6 182.469443 
" clip-path="url(#p65fe95629f)" style="fill: none; stroke: #b0b0b0; stroke-width: 0.8; stroke-linecap: square"/>
     </g>
     <g id="line2d_16">
      <g>
       <use xlink:href="#m709bb31049" x="108" y="182.469443" style="stroke: #000000; stroke-width: 0.8"/>
      </g>
     </g>
     <g id="text_9">
      <!-- −40 -->
      <g transform="translate(71.453437 187.788349) scale(0.14 -0.14)">
       <use xlink:href="#DejaVuSans-2212"/>
       <use xlink:href="#DejaVuSans-34" x="83.789062"/>
       <use xlink:href="#DejaVuSans-30" x="147.412109"/>
      </g>
     </g>
    </g>
    <g id="ytick_3">
     <g id="line2d_17">
      <path d="M 108 139.978343 
L 777.6 139.978343 
" clip-path="url(#p65fe95629f)" style="fill: none; stroke: #b0b0b0; stroke-width: 0.8; stroke-linecap: square"/>
     </g>
     <g id="line2d_18">
      <g>
       <use xlink:href="#m709bb31049" x="108" y="139.978343" style="stroke: #000000; stroke-width: 0.8"/>
      </g>
     </g>
     <g id="text_10">
      <!-- −20 -->
      <g transform="translate(71.453437 145.297249) scale(0.14 -0.14)">
       <use xlink:href="#DejaVuSans-2212"/>
       <use xlink:href="#DejaVuSans-32" x="83.789062"/>
       <use xlink:href="#DejaVuSans-30" x="147.412109"/>
      </g>
     </g>
    </g>
    <g id="ytick_4">
     <g id="line2d_19">
      <path d="M 108 97.487243 
L 777.6 97.487243 
" clip-path="url(#p65fe95629f)" style="fill: none; stroke: #b0b0b0; stroke-width: 0.8; stroke-linecap: square"/>
     </g>
     <g id="line2d_20">
      <g>
       <use xlink:href="#m709bb31049" x="108" y="97.487243" style="stroke: #000000; stroke-width: 0.8"/>
      </g>
     </g>
     <g id="text_11">
      <!-- 0 -->
      <g transform="translate(92.0925 102.806149) scale(0.14 -0.14)">
       <use xlink:href="#DejaVuSans-30"/>
      </g>
     </g>
    </g>
    <g id="ytick_5">
     <g id="line2d_21">
      <path d="M 108 54.996143 
L 777.6 54.996143 
" clip-path="url(#p65fe95629f)" style="fill: none; stroke: #b0b0b0; stroke-width: 0.8; stroke-linecap: square"/>
     </g>
     <g id="line2d_22">
      <g>
       <use xlink:href="#m709bb31049" x="108" y="54.996143" style="stroke: #000000; stroke-width: 0.8"/>
      </g>
     </g>
     <g id="text_12">
      <!-- 20 -->
      <g transform="translate(83.185 60.315049) scale(0.14 -0.14)">
       <use xlink:href="#DejaVuSans-32"/>
       <use xlink:href="#DejaVuSans-30" x="63.623047"/>
      </g>
     </g>
    </g>
    <g id="text_13">
     <!-- $V_{m}$ (mV) -->
     <g transform="translate(64.541875 174.49) rotate(-90) scale(0.14 -0.14)">
      <defs>
       <path id="DejaVuSans-Oblique-56" d="M 1319 0 
L 500 4666 
L 1119 4666 
L 1797 653 
L 4063 4666 
L 4750 4666 
L 2053 0 
L 1319 0 
z
" transform="scale(0.015625)"/>
       <path id="DejaVuSans-Oblique-6d" d="M 5747 2113 
L 5338 0 
L 4763 0 
L 5166 2094 
Q 5191 2228 5203 2325 
Q 5216 2422 5216 2491 
Q 5216 2772 5059 2928 
Q 4903 3084 4622 3084 
Q 4203 3084 3875 2770 
Q 3547 2456 3450 1953 
L 3066 0 
L 2491 0 
L 2900 2094 
Q 2925 2209 2937 2307 
Q 2950 2406 2950 2484 
Q 2950 2769 2794 2926 
Q 2638 3084 2363 3084 
Q 1938 3084 1609 2770 
Q 1281 2456 1184 1953 
L 800 0 
L 225 0 
L 909 3500 
L 1484 3500 
L 1375 2956 
Q 1609 3263 1923 3423 
Q 2238 3584 2597 3584 
Q 2978 3584 3223 3384 
Q 3469 3184 3519 2828 
Q 3781 3197 4126 3390 
Q 4472 3584 4856 3584 
Q 5306 3584 5551 3325 
Q 5797 3066 5797 2591 
Q 5797 2488 5784 2364 
Q 5772 2241 5747 2113 
z
" transform="scale(0.015625)"/>
       <path id="DejaVuSans-56" d="M 1831 0 
L 50 4666 
L 709 4666 
L 2188 738 
L 3669 4666 
L 4325 4666 
L 2547 0 
L 1831 0 
z
" transform="scale(0.015625)"/>
      </defs>
      <use xlink:href="#DejaVuSans-Oblique-56" transform="translate(0 0.125)"/>
      <use xlink:href="#DejaVuSans-Oblique-6d" transform="translate(68.408203 -16.28125) scale(0.7)"/>
      <use xlink:href="#DejaVuSans-20" transform="translate(139.331055 0.125)"/>
      <use xlink:href="#DejaVuSans-28" transform="translate(171.118164 0.125)"/>
      <use xlink:href="#DejaVuSans-6d" transform="translate(210.131836 0.125)"/>
      <use xlink:href="#DejaVuSans-56" transform="translate(307.543945 0.125)"/>
      <use xlink:href="#DejaVuSans-29" transform="translate(375.952148 0.125)"/>
     </g>
    </g>
   </g>
   <g id="line2d_23">
    <path d="M 108 177.981344 
L 109.3392 196.521515 
L 110.0088 203.06688 
L 110.6784 207.206465 
L 112.0176 212.219962 
L 113.3568 215.613231 
L 114.0264 216.884927 
L 114.696 218.540595 
L 115.3656 219.816949 
L 117.3744 224.268869 
L 118.7136 226.804048 
L 121.392 230.364702 
L 122.7312 231.265877 
L 124.0704 231.830983 
L 124.74 232.326953 
L 125.4096 233.008454 
L 126.0792 233.491362 
L 127.4184 234.018285 
L 130.0968 234.750955 
L 130.7664 235.019598 
L 132.1056 235.255224 
L 133.4448 236.312854 
L 134.1144 236.819117 
L 134.784 237.172997 
L 136.1232 237.506526 
L 136.7928 237.589884 
L 138.132 238.586323 
L 139.4712 238.94447 
L 141.48 239.087231 
L 144.1584 238.966582 
L 146.8368 238.621802 
L 150.1848 237.957807 
L 154.2024 236.890579 
L 158.22 235.583191 
L 162.9072 233.807374 
L 168.264 231.504263 
L 173.6208 228.961202 
L 180.3168 225.513041 
L 187.6824 221.461804 
L 199.0656 214.904025 
L 210.4488 208.208457 
L 211.1184 208.257501 
L 211.788 208.755289 
L 212.4576 209.040213 
L 213.1272 209.091747 
L 214.4664 208.910276 
L 215.8056 208.565243 
L 217.1448 209.082773 
L 217.8144 209.132533 
L 219.1536 209.929049 
L 220.4928 210.122498 
L 222.5016 209.969847 
L 224.5104 209.589168 
L 225.18 209.917158 
L 226.5192 212.473699 
L 227.1888 213.786397 
L 227.8584 214.668296 
L 228.528 215.217011 
L 229.1976 216.019756 
L 229.8672 216.645869 
L 231.2064 217.338471 
L 231.876 217.551617 
L 233.2152 218.583719 
L 233.8848 218.865781 
L 234.5544 219.457965 
L 235.224 220.317511 
L 235.8936 220.925508 
L 237.2328 221.565858 
L 238.572 223.272081 
L 239.2416 223.727807 
L 240.5808 224.272444 
L 241.92 224.585993 
L 243.2592 224.76319 
L 244.5984 226.13446 
L 246.6072 227.178396 
L 247.2768 227.894028 
L 247.9464 228.391855 
L 249.9552 229.363994 
L 251.964 231.368922 
L 253.3032 231.929636 
L 254.6424 233.29225 
L 257.3208 234.689627 
L 257.9904 234.906477 
L 259.3296 235.655056 
L 260.6688 235.972226 
L 262.008 236.106714 
L 263.3472 236.630643 
L 264.0168 236.739832 
L 265.356 237.291989 
L 266.6952 237.456338 
L 268.704 237.430489 
L 270.7128 237.236713 
L 272.052 237.528041 
L 273.3912 237.49519 
L 276.0696 237.105725 
L 276.7392 236.972743 
L 278.0784 237.173074 
L 279.4176 237.054717 
L 282.096 236.509087 
L 285.444 235.573314 
L 289.4616 234.204819 
L 294.1488 232.348194 
L 299.5056 229.952641 
L 305.532 226.97916 
L 312.228 223.407485 
L 320.2632 218.859967 
L 333.6552 210.97547 
L 336.3336 209.372034 
L 337.6728 209.514965 
L 339.012 209.217239 
L 341.0208 208.465289 
L 343.6992 207.246706 
L 345.708 206.057829 
L 349.056 203.796933 
L 349.7256 203.282521 
L 351.7344 203.186476 
L 353.0736 202.752561 
L 353.7432 202.455917 
L 355.752 202.94255 
L 356.4216 202.949344 
L 357.7608 204.933525 
L 358.4304 205.613073 
L 359.1 206.078643 
L 360.4392 206.609691 
L 361.1088 206.747788 
L 363.7872 211.030899 
L 364.4568 212.369477 
L 365.796 215.931571 
L 366.4656 217.110232 
L 367.1352 217.898943 
L 368.4744 218.944569 
L 369.144 219.317714 
L 371.1528 221.359463 
L 371.8224 222.334312 
L 372.492 223.0419 
L 373.1616 223.514908 
L 374.5008 224.795388 
L 375.84 225.478613 
L 377.1792 225.902494 
L 378.5184 227.417134 
L 379.188 228.15189 
L 381.8664 230.234001 
L 383.2056 230.681452 
L 383.8752 231.143057 
L 384.5448 231.813846 
L 385.2144 232.286491 
L 390.5712 234.625205 
L 391.2408 234.797704 
L 392.58 235.479034 
L 393.9192 235.743211 
L 395.928 235.841212 
L 397.2672 235.798503 
L 398.6064 236.195061 
L 399.9456 236.248542 
L 401.9544 236.091662 
L 403.2936 235.904182 
L 406.6416 236.663647 
L 408.6504 236.516263 
L 409.9896 236.307242 
L 411.3288 236.549129 
L 412.668 236.460701 
L 415.3464 235.958863 
L 418.6944 235.062519 
L 422.712 233.729052 
L 427.3992 231.902919 
L 432.0864 229.843897 
L 437.4432 227.260285 
L 444.1392 223.758226 
L 452.1744 219.267365 
L 463.5576 212.609328 
L 468.2448 209.805449 
L 469.584 209.941966 
L 470.9232 209.635559 
L 472.932 208.869964 
L 476.28 207.327473 
L 478.2888 206.214615 
L 480.9672 204.374643 
L 482.976 202.719089 
L 484.9848 202.355757 
L 486.324 201.680694 
L 487.6632 200.648604 
L 488.3328 199.96291 
L 489.672 198.206729 
L 490.3416 196.897983 
L 491.0112 193.280914 
L 491.6808 177.483633 
L 492.3504 92.021997 
L 493.02 48.54889 
L 494.3592 91.061486 
L 495.6984 117.357085 
L 498.3768 160.836382 
L 500.3856 190.813539 
L 501.0552 199.00187 
L 501.7248 204.909631 
L 502.3944 208.655215 
L 503.7336 213.337225 
L 505.0728 217.283856 
L 505.7424 218.680451 
L 506.412 219.695741 
L 507.0816 220.485508 
L 508.4208 222.256591 
L 509.76 223.250311 
L 511.0992 223.855085 
L 512.4384 224.215004 
L 514.4472 225.567924 
L 515.1168 226.299412 
L 515.7864 226.792542 
L 517.1256 227.258456 
L 517.7952 227.377122 
L 519.1344 228.093799 
L 519.804 228.25807 
L 520.4736 228.675737 
L 521.1432 229.309163 
L 521.8128 229.733413 
L 523.152 230.114276 
L 523.8216 230.204551 
L 525.1608 231.407725 
L 526.5 231.856766 
L 527.8392 232.027887 
L 529.848 232.056952 
L 530.5176 232.629471 
L 531.1872 233.364072 
L 531.8568 233.812283 
L 533.196 234.195171 
L 534.5352 235.347406 
L 535.8744 235.777296 
L 537.8832 235.9701 
L 539.892 235.926473 
L 542.5704 235.640661 
L 543.9096 235.42281 
L 545.2488 235.679923 
L 546.588 235.607311 
L 547.9272 235.9199 
L 549.2664 235.877758 
L 551.2752 235.577204 
L 554.6232 234.799235 
L 558.6408 233.575958 
L 559.98 233.670732 
L 561.3192 233.436828 
L 563.9976 232.666776 
L 568.0152 231.225491 
L 572.7024 229.278591 
L 578.0592 226.796247 
L 584.0856 223.75353 
L 591.4512 219.776491 
L 602.8344 213.337736 
L 604.8432 212.190992 
L 606.1824 212.327617 
L 607.5216 212.018208 
L 608.8608 212.433467 
L 609.5304 212.893926 
L 610.2 213.20691 
L 610.8696 213.317865 
L 611.5392 213.760752 
L 612.2088 214.054935 
L 613.548 214.130606 
L 614.2176 214.064597 
L 614.8872 214.416708 
L 615.5568 215.122303 
L 616.2264 216.019718 
L 616.896 216.611212 
L 617.5656 216.939239 
L 618.9048 217.257656 
L 620.9136 217.354537 
L 622.2528 218.053545 
L 623.592 218.253559 
L 624.9312 218.246782 
L 628.2792 220.008475 
L 629.6184 220.164798 
L 631.6272 220.124868 
L 632.9664 221.446025 
L 633.636 221.739632 
L 634.9752 221.991156 
L 636.984 222.029361 
L 638.9928 221.857859 
L 639.6624 222.155571 
L 640.332 223.132655 
L 641.0016 223.828516 
L 641.6712 224.19135 
L 642.3408 224.402755 
L 643.68 225.269359 
L 645.0192 225.605167 
L 647.028 225.728213 
L 648.3672 226.328054 
L 649.0368 226.445262 
L 649.7064 226.841252 
L 650.376 227.477211 
L 651.0456 227.900727 
L 651.7152 228.462139 
L 652.3848 228.867912 
L 653.0544 229.100381 
L 653.724 229.888471 
L 654.3936 230.500323 
L 655.0632 230.845729 
L 656.4024 231.216106 
L 658.4112 231.423449 
L 659.7504 231.991063 
L 661.0896 232.161874 
L 663.0984 232.134735 
L 664.4376 232.016386 
L 667.116 232.973264 
L 669.1248 234.037226 
L 669.7944 234.890638 
L 670.464 235.484609 
L 671.1336 235.802447 
L 672.4728 236.111922 
L 674.4816 236.230682 
L 676.4904 236.130781 
L 679.1688 235.777524 
L 680.508 235.528014 
L 681.8472 235.756394 
L 683.1864 235.656769 
L 685.8648 235.139083 
L 689.2128 234.230356 
L 693.2304 232.886464 
L 697.9176 231.050989 
L 703.2744 228.673292 
L 709.3008 225.716067 
L 715.9968 222.162746 
L 724.7016 217.259533 
L 738.0936 209.421339 
L 740.1024 208.207064 
L 741.4416 208.365287 
L 742.7808 208.08835 
L 743.4504 207.869818 
L 744.7896 208.330834 
L 745.4592 208.33464 
L 746.7984 208.055075 
L 748.8072 207.356851 
L 751.4856 206.21664 
L 752.8248 206.59669 
L 754.164 206.549018 
L 756.1728 206.100791 
L 758.8512 205.188324 
L 759.5208 204.921819 
L 760.86 205.376792 
L 762.1992 205.421258 
L 763.5384 206.239569 
L 764.208 206.437263 
L 765.5472 207.535408 
L 766.2168 207.829567 
L 767.556 209.023723 
L 768.8952 209.540483 
L 769.5648 210.143267 
L 770.2344 211.098233 
L 770.904 211.782136 
L 771.5736 212.198898 
L 772.9128 212.66936 
L 774.252 213.726661 
L 774.9216 214.008152 
L 776.2608 215.124375 
L 777.6 215.618513 
L 777.6 215.618513 
" clip-path="url(#p65fe95629f)" style="fill: none; stroke: #000000; stroke-width: 1.5; stroke-linecap: square"/>
   </g>
   <g id="line2d_24">
    <path d="M 108 115.172716 
L 111.348 123.686541 
L 112.6872 126.088856 
L 114.0264 127.870158 
L 115.3656 129.263938 
L 117.3744 131.008546 
L 120.0528 132.995719 
L 122.0616 134.244622 
L 124.0704 135.240931 
L 128.088 136.885138 
L 140.1408 141.241393 
L 143.4888 142.426803 
L 148.8456 144.054424 
L 159.5592 147.016127 
L 177.6384 152.042456 
L 198.396 157.900876 
L 204.4224 159.352537 
L 209.1096 160.297487 
L 209.7792 141.570817 
L 210.4488 137.958426 
L 211.1184 135.87794 
L 211.788 134.694136 
L 212.4576 133.979089 
L 213.1272 133.522426 
L 214.4664 132.961179 
L 217.8144 131.961528 
L 223.1712 130.67635 
L 225.8496 130.096351 
L 227.1888 130.090514 
L 234.5544 131.003394 
L 237.9024 131.568378 
L 242.5896 132.484275 
L 245.268 132.942023 
L 249.2856 133.882706 
L 251.964 134.624532 
L 264.0168 138.285433 
L 271.3824 140.266876 
L 289.4616 144.775904 
L 302.184 147.512703 
L 316.2456 150.327919 
L 326.2896 152.12107 
L 334.3248 153.334175 
L 337.6728 153.833828 
L 340.3512 154.632708 
L 343.0296 155.519802 
L 343.6992 139.298709 
L 344.3688 136.249838 
L 345.0384 134.521218 
L 345.708 133.537211 
L 346.3776 132.91716 
L 347.7168 132.148437 
L 351.0648 130.781541 
L 355.0824 129.384843 
L 357.0912 128.898895 
L 359.1 128.765192 
L 362.448 128.781138 
L 364.4568 129.093314 
L 366.4656 129.765195 
L 368.4744 130.461752 
L 376.5096 132.521896 
L 379.8576 133.33602 
L 387.8928 135.593838 
L 396.5976 137.884408 
L 405.972 140.035913 
L 415.3464 142.540841 
L 422.0424 144.107269 
L 432.756 146.355661 
L 446.148 148.944703 
L 456.8616 150.799809 
L 465.5664 152.081642 
L 469.584 152.64992 
L 472.2624 153.418882 
L 476.9496 154.857767 
L 477.6192 138.959033 
L 478.2888 135.964641 
L 478.9584 134.267803 
L 479.628 133.300567 
L 480.2976 132.688752 
L 481.6368 131.919325 
L 484.9848 130.542183 
L 488.3328 129.216459 
L 490.3416 128.257887 
L 491.0112 127.8367 
L 491.6808 126.988846 
L 492.3504 123.753864 
L 493.6896 113.421423 
L 494.3592 110.166769 
L 495.0288 108.564462 
L 495.6984 108.169402 
L 496.368 108.569234 
L 497.0376 109.491736 
L 498.3768 112.222147 
L 500.3856 117.341958 
L 502.3944 122.497332 
L 503.7336 125.112362 
L 505.0728 127.049037 
L 506.412 128.51288 
L 507.7512 129.612805 
L 509.0904 130.473419 
L 511.0992 131.423822 
L 513.108 132.08548 
L 523.152 134.860346 
L 531.8568 137.177887 
L 541.9008 140.325592 
L 547.9272 141.890554 
L 553.9536 143.644479 
L 562.6584 146.036056 
L 570.6936 148.410127 
L 592.7904 154.607468 
L 602.1648 157.030053 
L 606.1824 158.037382 
L 608.1912 158.852009 
L 609.5304 159.621488 
L 610.8696 160.647989 
L 611.5392 142.056207 
L 612.2088 138.613864 
L 612.8784 136.717748 
L 613.548 135.689646 
L 614.2176 135.088785 
L 614.8872 134.720723 
L 616.2264 134.367489 
L 620.244 133.854735 
L 626.94 132.396522 
L 631.6272 131.946215 
L 633.636 131.898308 
L 641.6712 132.168556 
L 651.7152 133.788001 
L 655.7328 134.882974 
L 659.0808 135.701842 
L 664.4376 136.830829 
L 667.116 137.401026 
L 669.7944 138.190675 
L 675.1512 140.124338 
L 679.1688 141.223841 
L 685.1952 142.833952 
L 691.2216 144.342413 
L 701.9352 146.754935 
L 715.9968 149.684928 
L 726.7104 151.697358 
L 734.7456 152.998378 
L 742.1112 154.110232 
L 744.12 154.754128 
L 744.7896 155.037756 
L 745.4592 139.137549 
L 746.1288 136.197557 
L 746.7984 134.569439 
L 747.468 133.676639 
L 748.1376 133.141679 
L 749.4768 132.5263 
L 754.164 131.08022 
L 761.5296 128.937821 
L 763.5384 128.650189 
L 765.5472 128.565725 
L 768.2256 128.701958 
L 770.904 128.996375 
L 777.6 130.095553 
L 777.6 130.095553 
" clip-path="url(#p65fe95629f)" style="fill: none; stroke: #4169e1; stroke-width: 1.5; stroke-linecap: square"/>
   </g>
   <g id="patch_3">
    <path d="M 108 256.32 
L 108 34.56 
" style="fill: none; stroke: #000000; stroke-width: 0.8; stroke-linejoin: miter; stroke-linecap: square"/>
   </g>
   <g id="patch_4">
    <path d="M 777.6 256.32 
L 777.6 34.56 
" style="fill: none; stroke: #000000; stroke-width: 0.8; stroke-linejoin: miter; stroke-linecap: square"/>
   </g>
   <g id="patch_5">
    <path d="M 108 256.32 
L 777.6 256.32 
" style="fill: none; stroke: #000000; stroke-width: 0.8; stroke-linejoin: miter; stroke-linecap: square"/>
   </g>
   <g id="patch_6">
    <path d="M 108 34.56 
L 777.6 34.56 
" style="fill: none; stroke: #000000; stroke-width: 0.8; stroke-linejoin: miter; stroke-linecap: square"/>
   </g>
   <g id="legend_1">
    <g id="patch_7">
     <path d="M 695.098438 71.91625 
L 770.6 71.91625 
Q 772.6 71.91625 772.6 69.91625 
L 772.6 41.56 
Q 772.6 39.56 770.6 39.56 
L 695.098438 39.56 
Q 693.098438 39.56 693.098438 41.56 
L 693.098438 69.91625 
Q 693.098438 71.91625 695.098438 71.91625 
z
" style="fill: #ffffff; opacity: 0.8; stroke: #cccccc; stroke-linejoin: miter"/>
    </g>
    <g id="line2d_25">
     <path d="M 697.098438 47.658437 
L 707.098438 47.658437 
L 717.098438 47.658437 
" style="fill: none; stroke: #000000; stroke-width: 1.5; stroke-linecap: square"/>
    </g>
    <g id="text_14">
     <!-- Soma -->
     <g transform="translate(725.098438 51.158437) scale(0.1 -0.1)">
      <defs>
       <path id="DejaVuSans-53" d="M 3425 4513 
L 3425 3897 
Q 3066 4069 2747 4153 
Q 2428 4238 2131 4238 
Q 1616 4238 1336 4038 
Q 1056 3838 1056 3469 
Q 1056 3159 1242 3001 
Q 1428 2844 1947 2747 
L 2328 2669 
Q 3034 2534 3370 2195 
Q 3706 1856 3706 1288 
Q 3706 609 3251 259 
Q 2797 -91 1919 -91 
Q 1588 -91 1214 -16 
Q 841 59 441 206 
L 441 856 
Q 825 641 1194 531 
Q 1563 422 1919 422 
Q 2459 422 2753 634 
Q 3047 847 3047 1241 
Q 3047 1584 2836 1778 
Q 2625 1972 2144 2069 
L 1759 2144 
Q 1053 2284 737 2584 
Q 422 2884 422 3419 
Q 422 4038 858 4394 
Q 1294 4750 2059 4750 
Q 2388 4750 2728 4690 
Q 3069 4631 3425 4513 
z
" transform="scale(0.015625)"/>
       <path id="DejaVuSans-6f" d="M 1959 3097 
Q 1497 3097 1228 2736 
Q 959 2375 959 1747 
Q 959 1119 1226 758 
Q 1494 397 1959 397 
Q 2419 397 2687 759 
Q 2956 1122 2956 1747 
Q 2956 2369 2687 2733 
Q 2419 3097 1959 3097 
z
M 1959 3584 
Q 2709 3584 3137 3096 
Q 3566 2609 3566 1747 
Q 3566 888 3137 398 
Q 2709 -91 1959 -91 
Q 1206 -91 779 398 
Q 353 888 353 1747 
Q 353 2609 779 3096 
Q 1206 3584 1959 3584 
z
" transform="scale(0.015625)"/>
       <path id="DejaVuSans-61" d="M 2194 1759 
Q 1497 1759 1228 1600 
Q 959 1441 959 1056 
Q 959 750 1161 570 
Q 1363 391 1709 391 
Q 2188 391 2477 730 
Q 2766 1069 2766 1631 
L 2766 1759 
L 2194 1759 
z
M 3341 1997 
L 3341 0 
L 2766 0 
L 2766 531 
Q 2569 213 2275 61 
Q 1981 -91 1556 -91 
Q 1019 -91 701 211 
Q 384 513 384 1019 
Q 384 1609 779 1909 
Q 1175 2209 1959 2209 
L 2766 2209 
L 2766 2266 
Q 2766 2663 2505 2880 
Q 2244 3097 1772 3097 
Q 1472 3097 1187 3025 
Q 903 2953 641 2809 
L 641 3341 
Q 956 3463 1253 3523 
Q 1550 3584 1831 3584 
Q 2591 3584 2966 3190 
Q 3341 2797 3341 1997 
z
" transform="scale(0.015625)"/>
      </defs>
      <use xlink:href="#DejaVuSans-53"/>
      <use xlink:href="#DejaVuSans-6f" x="63.476562"/>
      <use xlink:href="#DejaVuSans-6d" x="124.658203"/>
      <use xlink:href="#DejaVuSans-61" x="222.070312"/>
     </g>
    </g>
    <g id="line2d_26">
     <path d="M 697.098438 62.336562 
L 707.098438 62.336562 
L 717.098438 62.336562 
" style="fill: none; stroke: #4169e1; stroke-width: 1.5; stroke-linecap: square"/>
    </g>
    <g id="text_15">
     <!-- Dendrite -->
     <g transform="translate(725.098438 65.836562) scale(0.1 -0.1)">
      <defs>
       <path id="DejaVuSans-44" d="M 1259 4147 
L 1259 519 
L 2022 519 
Q 2988 519 3436 956 
Q 3884 1394 3884 2338 
Q 3884 3275 3436 3711 
Q 2988 4147 2022 4147 
L 1259 4147 
z
M 628 4666 
L 1925 4666 
Q 3281 4666 3915 4102 
Q 4550 3538 4550 2338 
Q 4550 1131 3912 565 
Q 3275 0 1925 0 
L 628 0 
L 628 4666 
z
" transform="scale(0.015625)"/>
       <path id="DejaVuSans-6e" d="M 3513 2113 
L 3513 0 
L 2938 0 
L 2938 2094 
Q 2938 2591 2744 2837 
Q 2550 3084 2163 3084 
Q 1697 3084 1428 2787 
Q 1159 2491 1159 1978 
L 1159 0 
L 581 0 
L 581 3500 
L 1159 3500 
L 1159 2956 
Q 1366 3272 1645 3428 
Q 1925 3584 2291 3584 
Q 2894 3584 3203 3211 
Q 3513 2838 3513 2113 
z
" transform="scale(0.015625)"/>
       <path id="DejaVuSans-64" d="M 2906 2969 
L 2906 4863 
L 3481 4863 
L 3481 0 
L 2906 0 
L 2906 525 
Q 2725 213 2448 61 
Q 2172 -91 1784 -91 
Q 1150 -91 751 415 
Q 353 922 353 1747 
Q 353 2572 751 3078 
Q 1150 3584 1784 3584 
Q 2172 3584 2448 3432 
Q 2725 3281 2906 2969 
z
M 947 1747 
Q 947 1113 1208 752 
Q 1469 391 1925 391 
Q 2381 391 2643 752 
Q 2906 1113 2906 1747 
Q 2906 2381 2643 2742 
Q 2381 3103 1925 3103 
Q 1469 3103 1208 2742 
Q 947 2381 947 1747 
z
" transform="scale(0.015625)"/>
       <path id="DejaVuSans-72" d="M 2631 2963 
Q 2534 3019 2420 3045 
Q 2306 3072 2169 3072 
Q 1681 3072 1420 2755 
Q 1159 2438 1159 1844 
L 1159 0 
L 581 0 
L 581 3500 
L 1159 3500 
L 1159 2956 
Q 1341 3275 1631 3429 
Q 1922 3584 2338 3584 
Q 2397 3584 2469 3576 
Q 2541 3569 2628 3553 
L 2631 2963 
z
" transform="scale(0.015625)"/>
       <path id="DejaVuSans-74" d="M 1172 4494 
L 1172 3500 
L 2356 3500 
L 2356 3053 
L 1172 3053 
L 1172 1153 
Q 1172 725 1289 603 
Q 1406 481 1766 481 
L 2356 481 
L 2356 0 
L 1766 0 
Q 1100 0 847 248 
Q 594 497 594 1153 
L 594 3053 
L 172 3053 
L 172 3500 
L 594 3500 
L 594 4494 
L 1172 4494 
z
" transform="scale(0.015625)"/>
      </defs>
      <use xlink:href="#DejaVuSans-44"/>
      <use xlink:href="#DejaVuSans-65" x="77.001953"/>
      <use xlink:href="#DejaVuSans-6e" x="138.525391"/>
      <use xlink:href="#DejaVuSans-64" x="201.904297"/>
      <use xlink:href="#DejaVuSans-72" x="265.380859"/>
      <use xlink:href="#DejaVuSans-69" x="306.494141"/>
      <use xlink:href="#DejaVuSans-74" x="334.277344"/>
      <use xlink:href="#DejaVuSans-65" x="373.486328"/>
     </g>
    </g>
   </g>
  </g>
 </g>
 <defs>
  <clipPath id="p65fe95629f">
   <rect x="108" y="34.56" width="669.6" height="221.76"/>
  </clipPath>
 </defs>
</svg>
