<?xml version="1.0" encoding="utf-8" standalone="no"?>
<!DOCTYPE svg PUBLIC "-//W3C//DTD SVG 1.1//EN"
  "http://www.w3.org/Graphics/SVG/1.1/DTD/svg11.dtd">
<svg xmlns:xlink="http://www.w3.org/1999/xlink" width="864pt" height="288pt" viewBox="0 0 864 288" xmlns="http://www.w3.org/2000/svg" version="1.1">
 <metadata>
  <rdf:RDF xmlns:dc="http://purl.org/dc/elements/1.1/" xmlns:cc="http://creativecommons.org/ns#" xmlns:rdf="http://www.w3.org/1999/02/22-rdf-syntax-ns#">
   <cc:Work>
    <dc:type rdf:resource="http://purl.org/dc/dcmitype/StillImage"/>
    <dc:date>2024-04-26T13:29:04.490664</dc:date>
    <dc:format>image/svg+xml</dc:format>
    <dc:creator>
     <cc:Agent>
      <dc:title>Matplotlib v3.8.2, https://matplotlib.org/</dc:title>
     </cc:Agent>
    </dc:creator>
   </cc:Work>
  </rdf:RDF>
 </metadata>
 <defs>
  <style type="text/css">*{stroke-linejoin: round; stroke-linecap: butt}</style>
 </defs>
 <g id="figure_1">
  <g id="patch_1">
   <path d="M 0 288 
L 864 288 
L 864 0 
L 0 0 
z
" style="fill: #ffffff"/>
  </g>
  <g id="axes_1">
   <g id="patch_2">
    <path d="M 108 256.32 
L 777.6 256.32 
L 777.6 34.56 
L 108 34.56 
z
" style="fill: #ffffff"/>
   </g>
   <g id="matplotlib.axis_1">
    <g id="xtick_1">
     <g id="line2d_1">
      <path d="M 108 256.32 
L 108 34.56 
" clip-path="url(#p658775f0e1)" style="fill: none; stroke: #b0b0b0; stroke-width: 0.8; stroke-linecap: square"/>
     </g>
     <g id="line2d_2">
      <defs>
       <path id="m53bf652ba7" d="M 0 0 
L 0 3.5 
" style="stroke: #000000; stroke-width: 0.8"/>
      </defs>
      <g>
       <use xlink:href="#m53bf652ba7" x="108" y="256.32" style="stroke: #000000; stroke-width: 0.8"/>
      </g>
     </g>
     <g id="text_1">
      <!-- 100 -->
      <g transform="translate(94.63875 273.957812) scale(0.14 -0.14)">
       <defs>
        <path id="DejaVuSans-31" d="M 794 531 
L 1825 531 
L 1825 4091 
L 703 3866 
L 703 4441 
L 1819 4666 
L 2450 4666 
L 2450 531 
L 3481 531 
L 3481 0 
L 794 0 
L 794 531 
z
" transform="scale(0.015625)"/>
        <path id="DejaVuSans-30" d="M 2034 4250 
Q 1547 4250 1301 3770 
Q 1056 3291 1056 2328 
Q 1056 1369 1301 889 
Q 1547 409 2034 409 
Q 2525 409 2770 889 
Q 3016 1369 3016 2328 
Q 3016 3291 2770 3770 
Q 2525 4250 2034 4250 
z
M 2034 4750 
Q 2819 4750 3233 4129 
Q 3647 3509 3647 2328 
Q 3647 1150 3233 529 
Q 2819 -91 2034 -91 
Q 1250 -91 836 529 
Q 422 1150 422 2328 
Q 422 3509 836 4129 
Q 1250 4750 2034 4750 
z
" transform="scale(0.015625)"/>
       </defs>
       <use xlink:href="#DejaVuSans-31"/>
       <use xlink:href="#DejaVuSans-30" x="63.623047"/>
       <use xlink:href="#DejaVuSans-30" x="127.246094"/>
      </g>
     </g>
    </g>
    <g id="xtick_2">
     <g id="line2d_3">
      <path d="M 241.92 256.32 
L 241.92 34.56 
" clip-path="url(#p658775f0e1)" style="fill: none; stroke: #b0b0b0; stroke-width: 0.8; stroke-linecap: square"/>
     </g>
     <g id="line2d_4">
      <g>
       <use xlink:href="#m53bf652ba7" x="241.92" y="256.32" style="stroke: #000000; stroke-width: 0.8"/>
      </g>
     </g>
     <g id="text_2">
      <!-- 120 -->
      <g transform="translate(228.55875 273.957812) scale(0.14 -0.14)">
       <defs>
        <path id="DejaVuSans-32" d="M 1228 531 
L 3431 531 
L 3431 0 
L 469 0 
L 469 531 
Q 828 903 1448 1529 
Q 2069 2156 2228 2338 
Q 2531 2678 2651 2914 
Q 2772 3150 2772 3378 
Q 2772 3750 2511 3984 
Q 2250 4219 1831 4219 
Q 1534 4219 1204 4116 
Q 875 4013 500 3803 
L 500 4441 
Q 881 4594 1212 4672 
Q 1544 4750 1819 4750 
Q 2544 4750 2975 4387 
Q 3406 4025 3406 3419 
Q 3406 3131 3298 2873 
Q 3191 2616 2906 2266 
Q 2828 2175 2409 1742 
Q 1991 1309 1228 531 
z
" transform="scale(0.015625)"/>
       </defs>
       <use xlink:href="#DejaVuSans-31"/>
       <use xlink:href="#DejaVuSans-32" x="63.623047"/>
       <use xlink:href="#DejaVuSans-30" x="127.246094"/>
      </g>
     </g>
    </g>
    <g id="xtick_3">
     <g id="line2d_5">
      <path d="M 375.84 256.32 
L 375.84 34.56 
" clip-path="url(#p658775f0e1)" style="fill: none; stroke: #b0b0b0; stroke-width: 0.8; stroke-linecap: square"/>
     </g>
     <g id="line2d_6">
      <g>
       <use xlink:href="#m53bf652ba7" x="375.84" y="256.32" style="stroke: #000000; stroke-width: 0.8"/>
      </g>
     </g>
     <g id="text_3">
      <!-- 140 -->
      <g transform="translate(362.47875 273.957812) scale(0.14 -0.14)">
       <defs>
        <path id="DejaVuSans-34" d="M 2419 4116 
L 825 1625 
L 2419 1625 
L 2419 4116 
z
M 2253 4666 
L 3047 4666 
L 3047 1625 
L 3713 1625 
L 3713 1100 
L 3047 1100 
L 3047 0 
L 2419 0 
L 2419 1100 
L 313 1100 
L 313 1709 
L 2253 4666 
z
" transform="scale(0.015625)"/>
       </defs>
       <use xlink:href="#DejaVuSans-31"/>
       <use xlink:href="#DejaVuSans-34" x="63.623047"/>
       <use xlink:href="#DejaVuSans-30" x="127.246094"/>
      </g>
     </g>
    </g>
    <g id="xtick_4">
     <g id="line2d_7">
      <path d="M 509.76 256.32 
L 509.76 34.56 
" clip-path="url(#p658775f0e1)" style="fill: none; stroke: #b0b0b0; stroke-width: 0.8; stroke-linecap: square"/>
     </g>
     <g id="line2d_8">
      <g>
       <use xlink:href="#m53bf652ba7" x="509.76" y="256.32" style="stroke: #000000; stroke-width: 0.8"/>
      </g>
     </g>
     <g id="text_4">
      <!-- 160 -->
      <g transform="translate(496.39875 273.957812) scale(0.14 -0.14)">
       <defs>
        <path id="DejaVuSans-36" d="M 2113 2584 
Q 1688 2584 1439 2293 
Q 1191 2003 1191 1497 
Q 1191 994 1439 701 
Q 1688 409 2113 409 
Q 2538 409 2786 701 
Q 3034 994 3034 1497 
Q 3034 2003 2786 2293 
Q 2538 2584 2113 2584 
z
M 3366 4563 
L 3366 3988 
Q 3128 4100 2886 4159 
Q 2644 4219 2406 4219 
Q 1781 4219 1451 3797 
Q 1122 3375 1075 2522 
Q 1259 2794 1537 2939 
Q 1816 3084 2150 3084 
Q 2853 3084 3261 2657 
Q 3669 2231 3669 1497 
Q 3669 778 3244 343 
Q 2819 -91 2113 -91 
Q 1303 -91 875 529 
Q 447 1150 447 2328 
Q 447 3434 972 4092 
Q 1497 4750 2381 4750 
Q 2619 4750 2861 4703 
Q 3103 4656 3366 4563 
z
" transform="scale(0.015625)"/>
       </defs>
       <use xlink:href="#DejaVuSans-31"/>
       <use xlink:href="#DejaVuSans-36" x="63.623047"/>
       <use xlink:href="#DejaVuSans-30" x="127.246094"/>
      </g>
     </g>
    </g>
    <g id="xtick_5">
     <g id="line2d_9">
      <path d="M 643.68 256.32 
L 643.68 34.56 
" clip-path="url(#p658775f0e1)" style="fill: none; stroke: #b0b0b0; stroke-width: 0.8; stroke-linecap: square"/>
     </g>
     <g id="line2d_10">
      <g>
       <use xlink:href="#m53bf652ba7" x="643.68" y="256.32" style="stroke: #000000; stroke-width: 0.8"/>
      </g>
     </g>
     <g id="text_5">
      <!-- 180 -->
      <g transform="translate(630.31875 273.957812) scale(0.14 -0.14)">
       <defs>
        <path id="DejaVuSans-38" d="M 2034 2216 
Q 1584 2216 1326 1975 
Q 1069 1734 1069 1313 
Q 1069 891 1326 650 
Q 1584 409 2034 409 
Q 2484 409 2743 651 
Q 3003 894 3003 1313 
Q 3003 1734 2745 1975 
Q 2488 2216 2034 2216 
z
M 1403 2484 
Q 997 2584 770 2862 
Q 544 3141 544 3541 
Q 544 4100 942 4425 
Q 1341 4750 2034 4750 
Q 2731 4750 3128 4425 
Q 3525 4100 3525 3541 
Q 3525 3141 3298 2862 
Q 3072 2584 2669 2484 
Q 3125 2378 3379 2068 
Q 3634 1759 3634 1313 
Q 3634 634 3220 271 
Q 2806 -91 2034 -91 
Q 1263 -91 848 271 
Q 434 634 434 1313 
Q 434 1759 690 2068 
Q 947 2378 1403 2484 
z
M 1172 3481 
Q 1172 3119 1398 2916 
Q 1625 2713 2034 2713 
Q 2441 2713 2670 2916 
Q 2900 3119 2900 3481 
Q 2900 3844 2670 4047 
Q 2441 4250 2034 4250 
Q 1625 4250 1398 4047 
Q 1172 3844 1172 3481 
z
" transform="scale(0.015625)"/>
       </defs>
       <use xlink:href="#DejaVuSans-31"/>
       <use xlink:href="#DejaVuSans-38" x="63.623047"/>
       <use xlink:href="#DejaVuSans-30" x="127.246094"/>
      </g>
     </g>
    </g>
    <g id="xtick_6">
     <g id="line2d_11">
      <path d="M 777.6 256.32 
L 777.6 34.56 
" clip-path="url(#p658775f0e1)" style="fill: none; stroke: #b0b0b0; stroke-width: 0.8; stroke-linecap: square"/>
     </g>
     <g id="line2d_12">
      <g>
       <use xlink:href="#m53bf652ba7" x="777.6" y="256.32" style="stroke: #000000; stroke-width: 0.8"/>
      </g>
     </g>
     <g id="text_6">
      <!-- 200 -->
      <g transform="translate(764.23875 273.957812) scale(0.14 -0.14)">
       <use xlink:href="#DejaVuSans-32"/>
       <use xlink:href="#DejaVuSans-30" x="63.623047"/>
       <use xlink:href="#DejaVuSans-30" x="127.246094"/>
      </g>
     </g>
    </g>
    <g id="text_7">
     <!-- Time (ms) -->
     <g transform="translate(407.521094 291.507187) scale(0.14 -0.14)">
      <defs>
       <path id="DejaVuSans-54" d="M -19 4666 
L 3928 4666 
L 3928 4134 
L 2272 4134 
L 2272 0 
L 1638 0 
L 1638 4134 
L -19 4134 
L -19 4666 
z
" transform="scale(0.015625)"/>
       <path id="DejaVuSans-69" d="M 603 3500 
L 1178 3500 
L 1178 0 
L 603 0 
L 603 3500 
z
M 603 4863 
L 1178 4863 
L 1178 4134 
L 603 4134 
L 603 4863 
z
" transform="scale(0.015625)"/>
       <path id="DejaVuSans-6d" d="M 3328 2828 
Q 3544 3216 3844 3400 
Q 4144 3584 4550 3584 
Q 5097 3584 5394 3201 
Q 5691 2819 5691 2113 
L 5691 0 
L 5113 0 
L 5113 2094 
Q 5113 2597 4934 2840 
Q 4756 3084 4391 3084 
Q 3944 3084 3684 2787 
Q 3425 2491 3425 1978 
L 3425 0 
L 2847 0 
L 2847 2094 
Q 2847 2600 2669 2842 
Q 2491 3084 2119 3084 
Q 1678 3084 1418 2786 
Q 1159 2488 1159 1978 
L 1159 0 
L 581 0 
L 581 3500 
L 1159 3500 
L 1159 2956 
Q 1356 3278 1631 3431 
Q 1906 3584 2284 3584 
Q 2666 3584 2933 3390 
Q 3200 3197 3328 2828 
z
" transform="scale(0.015625)"/>
       <path id="DejaVuSans-65" d="M 3597 1894 
L 3597 1613 
L 953 1613 
Q 991 1019 1311 708 
Q 1631 397 2203 397 
Q 2534 397 2845 478 
Q 3156 559 3463 722 
L 3463 178 
Q 3153 47 2828 -22 
Q 2503 -91 2169 -91 
Q 1331 -91 842 396 
Q 353 884 353 1716 
Q 353 2575 817 3079 
Q 1281 3584 2069 3584 
Q 2775 3584 3186 3129 
Q 3597 2675 3597 1894 
z
M 3022 2063 
Q 3016 2534 2758 2815 
Q 2500 3097 2075 3097 
Q 1594 3097 1305 2825 
Q 1016 2553 972 2059 
L 3022 2063 
z
" transform="scale(0.015625)"/>
       <path id="DejaVuSans-20" transform="scale(0.015625)"/>
       <path id="DejaVuSans-28" d="M 1984 4856 
Q 1566 4138 1362 3434 
Q 1159 2731 1159 2009 
Q 1159 1288 1364 580 
Q 1569 -128 1984 -844 
L 1484 -844 
Q 1016 -109 783 600 
Q 550 1309 550 2009 
Q 550 2706 781 3412 
Q 1013 4119 1484 4856 
L 1984 4856 
z
" transform="scale(0.015625)"/>
       <path id="DejaVuSans-73" d="M 2834 3397 
L 2834 2853 
Q 2591 2978 2328 3040 
Q 2066 3103 1784 3103 
Q 1356 3103 1142 2972 
Q 928 2841 928 2578 
Q 928 2378 1081 2264 
Q 1234 2150 1697 2047 
L 1894 2003 
Q 2506 1872 2764 1633 
Q 3022 1394 3022 966 
Q 3022 478 2636 193 
Q 2250 -91 1575 -91 
Q 1294 -91 989 -36 
Q 684 19 347 128 
L 347 722 
Q 666 556 975 473 
Q 1284 391 1588 391 
Q 1994 391 2212 530 
Q 2431 669 2431 922 
Q 2431 1156 2273 1281 
Q 2116 1406 1581 1522 
L 1381 1569 
Q 847 1681 609 1914 
Q 372 2147 372 2553 
Q 372 3047 722 3315 
Q 1072 3584 1716 3584 
Q 2034 3584 2315 3537 
Q 2597 3491 2834 3397 
z
" transform="scale(0.015625)"/>
       <path id="DejaVuSans-29" d="M 513 4856 
L 1013 4856 
Q 1481 4119 1714 3412 
Q 1947 2706 1947 2009 
Q 1947 1309 1714 600 
Q 1481 -109 1013 -844 
L 513 -844 
Q 928 -128 1133 580 
Q 1338 1288 1338 2009 
Q 1338 2731 1133 3434 
Q 928 4138 513 4856 
z
" transform="scale(0.015625)"/>
      </defs>
      <use xlink:href="#DejaVuSans-54"/>
      <use xlink:href="#DejaVuSans-69" x="57.958984"/>
      <use xlink:href="#DejaVuSans-6d" x="85.742188"/>
      <use xlink:href="#DejaVuSans-65" x="183.154297"/>
      <use xlink:href="#DejaVuSans-20" x="244.677734"/>
      <use xlink:href="#DejaVuSans-28" x="276.464844"/>
      <use xlink:href="#DejaVuSans-6d" x="315.478516"/>
      <use xlink:href="#DejaVuSans-73" x="412.890625"/>
      <use xlink:href="#DejaVuSans-29" x="464.990234"/>
     </g>
    </g>
   </g>
   <g id="matplotlib.axis_2">
    <g id="ytick_1">
     <g id="line2d_13">
      <path d="M 108 225.236956 
L 777.6 225.236956 
" clip-path="url(#p658775f0e1)" style="fill: none; stroke: #b0b0b0; stroke-width: 0.8; stroke-linecap: square"/>
     </g>
     <g id="line2d_14">
      <defs>
       <path id="ma8387d67ed" d="M 0 0 
L -3.5 0 
" style="stroke: #000000; stroke-width: 0.8"/>
      </defs>
      <g>
       <use xlink:href="#ma8387d67ed" x="108" y="225.236956" style="stroke: #000000; stroke-width: 0.8"/>
      </g>
     </g>
     <g id="text_8">
      <!-- −60 -->
      <g transform="translate(71.453437 230.555862) scale(0.14 -0.14)">
       <defs>
        <path id="DejaVuSans-2212" d="M 678 2272 
L 4684 2272 
L 4684 1741 
L 678 1741 
L 678 2272 
z
" transform="scale(0.015625)"/>
       </defs>
       <use xlink:href="#DejaVuSans-2212"/>
       <use xlink:href="#DejaVuSans-36" x="83.789062"/>
       <use xlink:href="#DejaVuSans-30" x="147.412109"/>
      </g>
     </g>
    </g>
    <g id="ytick_2">
     <g id="line2d_15">
      <path d="M 108 183.297801 
L 777.6 183.297801 
" clip-path="url(#p658775f0e1)" style="fill: none; stroke: #b0b0b0; stroke-width: 0.8; stroke-linecap: square"/>
     </g>
     <g id="line2d_16">
      <g>
       <use xlink:href="#ma8387d67ed" x="108" y="183.297801" style="stroke: #000000; stroke-width: 0.8"/>
      </g>
     </g>
     <g id="text_9">
      <!-- −40 -->
      <g transform="translate(71.453437 188.616707) scale(0.14 -0.14)">
       <use xlink:href="#DejaVuSans-2212"/>
       <use xlink:href="#DejaVuSans-34" x="83.789062"/>
       <use xlink:href="#DejaVuSans-30" x="147.412109"/>
      </g>
     </g>
    </g>
    <g id="ytick_3">
     <g id="line2d_17">
      <path d="M 108 141.358645 
L 777.6 141.358645 
" clip-path="url(#p658775f0e1)" style="fill: none; stroke: #b0b0b0; stroke-width: 0.8; stroke-linecap: square"/>
     </g>
     <g id="line2d_18">
      <g>
       <use xlink:href="#ma8387d67ed" x="108" y="141.358645" style="stroke: #000000; stroke-width: 0.8"/>
      </g>
     </g>
     <g id="text_10">
      <!-- −20 -->
      <g transform="translate(71.453437 146.677552) scale(0.14 -0.14)">
       <use xlink:href="#DejaVuSans-2212"/>
       <use xlink:href="#DejaVuSans-32" x="83.789062"/>
       <use xlink:href="#DejaVuSans-30" x="147.412109"/>
      </g>
     </g>
    </g>
    <g id="ytick_4">
     <g id="line2d_19">
      <path d="M 108 99.41949 
L 777.6 99.41949 
" clip-path="url(#p658775f0e1)" style="fill: none; stroke: #b0b0b0; stroke-width: 0.8; stroke-linecap: square"/>
     </g>
     <g id="line2d_20">
      <g>
       <use xlink:href="#ma8387d67ed" x="108" y="99.41949" style="stroke: #000000; stroke-width: 0.8"/>
      </g>
     </g>
     <g id="text_11">
      <!-- 0 -->
      <g transform="translate(92.0925 104.738397) scale(0.14 -0.14)">
       <use xlink:href="#DejaVuSans-30"/>
      </g>
     </g>
    </g>
    <g id="ytick_5">
     <g id="line2d_21">
      <path d="M 108 57.480335 
L 777.6 57.480335 
" clip-path="url(#p658775f0e1)" style="fill: none; stroke: #b0b0b0; stroke-width: 0.8; stroke-linecap: square"/>
     </g>
     <g id="line2d_22">
      <g>
       <use xlink:href="#ma8387d67ed" x="108" y="57.480335" style="stroke: #000000; stroke-width: 0.8"/>
      </g>
     </g>
     <g id="text_12">
      <!-- 20 -->
      <g transform="translate(83.185 62.799241) scale(0.14 -0.14)">
       <use xlink:href="#DejaVuSans-32"/>
       <use xlink:href="#DejaVuSans-30" x="63.623047"/>
      </g>
     </g>
    </g>
    <g id="text_13">
     <!-- $V_{m}$ (mV) -->
     <g transform="translate(64.541875 174.49) rotate(-90) scale(0.14 -0.14)">
      <defs>
       <path id="DejaVuSans-Oblique-56" d="M 1319 0 
L 500 4666 
L 1119 4666 
L 1797 653 
L 4063 4666 
L 4750 4666 
L 2053 0 
L 1319 0 
z
" transform="scale(0.015625)"/>
       <path id="DejaVuSans-Oblique-6d" d="M 5747 2113 
L 5338 0 
L 4763 0 
L 5166 2094 
Q 5191 2228 5203 2325 
Q 5216 2422 5216 2491 
Q 5216 2772 5059 2928 
Q 4903 3084 4622 3084 
Q 4203 3084 3875 2770 
Q 3547 2456 3450 1953 
L 3066 0 
L 2491 0 
L 2900 2094 
Q 2925 2209 2937 2307 
Q 2950 2406 2950 2484 
Q 2950 2769 2794 2926 
Q 2638 3084 2363 3084 
Q 1938 3084 1609 2770 
Q 1281 2456 1184 1953 
L 800 0 
L 225 0 
L 909 3500 
L 1484 3500 
L 1375 2956 
Q 1609 3263 1923 3423 
Q 2238 3584 2597 3584 
Q 2978 3584 3223 3384 
Q 3469 3184 3519 2828 
Q 3781 3197 4126 3390 
Q 4472 3584 4856 3584 
Q 5306 3584 5551 3325 
Q 5797 3066 5797 2591 
Q 5797 2488 5784 2364 
Q 5772 2241 5747 2113 
z
" transform="scale(0.015625)"/>
       <path id="DejaVuSans-56" d="M 1831 0 
L 50 4666 
L 709 4666 
L 2188 738 
L 3669 4666 
L 4325 4666 
L 2547 0 
L 1831 0 
z
" transform="scale(0.015625)"/>
      </defs>
      <use xlink:href="#DejaVuSans-Oblique-56" transform="translate(0 0.125)"/>
      <use xlink:href="#DejaVuSans-Oblique-6d" transform="translate(68.408203 -16.28125) scale(0.7)"/>
      <use xlink:href="#DejaVuSans-20" transform="translate(139.331055 0.125)"/>
      <use xlink:href="#DejaVuSans-28" transform="translate(171.118164 0.125)"/>
      <use xlink:href="#DejaVuSans-6d" transform="translate(210.131836 0.125)"/>
      <use xlink:href="#DejaVuSans-56" transform="translate(307.543945 0.125)"/>
      <use xlink:href="#DejaVuSans-29" transform="translate(375.952148 0.125)"/>
     </g>
    </g>
   </g>
   <g id="line2d_23">
    <path d="M 108 219.569121 
L 109.3392 220.25857 
L 110.6784 220.716088 
L 111.348 220.889124 
L 112.6872 221.854399 
L 114.0264 222.335642 
L 116.0352 223.932575 
L 118.044 226.412443 
L 118.7136 227.52414 
L 119.3832 228.388133 
L 120.0528 228.944435 
L 120.7224 229.979659 
L 122.7312 232.279278 
L 124.0704 233.082573 
L 125.4096 233.612793 
L 127.4184 234.137094 
L 129.4272 234.441099 
L 132.1056 234.595237 
L 134.1144 234.560076 
L 136.1232 235.357678 
L 136.7928 236.161309 
L 137.4624 236.726863 
L 140.1408 237.902952 
L 141.48 238.1766 
L 144.1584 238.545346 
L 145.4976 238.814801 
L 147.5064 238.818283 
L 148.176 238.776436 
L 149.5152 239.116523 
L 150.8544 239.141221 
L 153.5328 238.870671 
L 156.8808 238.253819 
L 160.8984 237.238116 
L 162.9072 236.596828 
L 164.916 235.602096 
L 169.6032 233.216211 
L 179.6472 228.207755 
L 185.004 225.277405 
L 191.0304 221.712659 
L 198.396 217.126168 
L 199.7352 217.106159 
L 201.0744 216.672862 
L 203.7528 215.453069 
L 205.7616 214.445067 
L 207.1008 214.60634 
L 208.44 214.327499 
L 209.7792 214.728955 
L 211.1184 214.632607 
L 213.1272 214.15684 
L 216.4752 213.055161 
L 220.4928 211.482279 
L 225.18 209.422287 
L 225.8496 209.107649 
L 227.1888 209.415 
L 228.528 211.116249 
L 229.1976 211.50994 
L 230.5368 211.841506 
L 231.876 211.902943 
L 232.5456 211.877651 
L 234.5544 213.234045 
L 235.8936 215.200808 
L 236.5632 216.358184 
L 239.2416 219.647933 
L 239.9112 220.702788 
L 240.5808 222.214288 
L 241.2504 223.328277 
L 241.92 224.048784 
L 243.2592 225.003311 
L 244.5984 225.648859 
L 245.9376 226.740558 
L 246.6072 227.083154 
L 247.2768 227.68027 
L 247.9464 228.491463 
L 249.9552 230.350778 
L 251.2944 231.574696 
L 252.6336 232.230652 
L 253.9728 232.651615 
L 255.312 233.992642 
L 255.9816 234.639095 
L 256.6512 235.121854 
L 257.9904 235.682196 
L 259.9992 236.140276 
L 260.6688 236.235697 
L 262.008 236.851626 
L 263.3472 237.112325 
L 264.6864 237.223435 
L 267.3648 238.369069 
L 268.704 238.592981 
L 270.7128 238.65235 
L 272.052 239.060771 
L 273.3912 239.146117 
L 275.4 239.048711 
L 278.0784 238.713287 
L 281.4264 238.067706 
L 282.096 237.913688 
L 283.4352 238.075148 
L 284.7744 237.936623 
L 287.4528 237.374707 
L 290.8008 236.446741 
L 291.4704 236.239606 
L 292.8096 236.32953 
L 294.1488 236.112573 
L 296.1576 235.592155 
L 297.4968 235.052793 
L 311.5584 227.876077 
L 317.5848 224.563589 
L 323.6112 220.982033 
L 335.664 213.472017 
L 344.3688 207.897558 
L 345.0384 207.446159 
L 346.3776 207.514066 
L 347.7168 207.177256 
L 349.7256 206.321648 
L 351.7344 205.262925 
L 353.7432 203.944569 
L 354.4128 203.436238 
L 357.0912 205.627799 
L 357.7608 206.279704 
L 358.4304 207.200104 
L 359.1 208.430275 
L 359.7696 209.356072 
L 360.4392 209.954245 
L 361.7784 210.663113 
L 363.1176 212.735866 
L 363.7872 213.752596 
L 364.4568 214.513326 
L 367.8048 217.024856 
L 369.144 218.262507 
L 370.4832 218.891059 
L 371.8224 219.260832 
L 372.492 219.391184 
L 373.8312 221.014365 
L 374.5008 222.568701 
L 375.1704 223.767358 
L 375.84 224.495567 
L 377.1792 225.406676 
L 378.5184 225.9986 
L 379.188 226.225292 
L 379.8576 226.758697 
L 381.8664 229.057828 
L 382.536 229.479734 
L 383.8752 230.61517 
L 384.5448 230.963031 
L 386.5536 232.598219 
L 387.2232 233.071497 
L 388.5624 233.631462 
L 391.2408 234.488704 
L 391.9104 235.078018 
L 392.58 235.491762 
L 393.9192 235.920995 
L 395.928 236.216468 
L 399.276 236.558516 
L 402.624 237.457473 
L 403.2936 237.502943 
L 405.972 238.577326 
L 407.3112 238.756289 
L 407.9808 238.77781 
L 409.32 239.210951 
L 410.6592 239.30732 
L 412.668 239.214737 
L 415.3464 238.875962 
L 418.6944 238.220312 
L 422.712 237.174814 
L 426.7296 235.901731 
L 428.0688 235.963237 
L 429.408 235.718783 
L 430.7472 235.317622 
L 432.756 234.344541 
L 438.7824 231.268664 
L 446.8176 227.154485 
L 452.1744 224.166134 
L 458.8704 220.146892 
L 472.932 211.351784 
L 474.2712 211.419298 
L 475.6104 211.054563 
L 476.9496 210.519528 
L 478.2888 210.837241 
L 479.628 210.681202 
L 481.6368 210.115578 
L 483.6456 209.38381 
L 484.9848 209.780767 
L 486.324 210.63745 
L 487.6632 210.846822 
L 489.0024 210.786439 
L 490.3416 212.362389 
L 491.0112 212.743823 
L 491.6808 213.415203 
L 492.3504 214.370663 
L 493.02 215.044221 
L 493.6896 215.454553 
L 494.3592 216.156256 
L 495.0288 217.124445 
L 495.6984 217.817758 
L 497.7072 219.207774 
L 498.3768 219.722088 
L 499.716 220.294267 
L 501.0552 220.617979 
L 502.3944 221.521514 
L 503.7336 221.937978 
L 504.4032 222.061022 
L 505.7424 222.908704 
L 507.0816 223.284392 
L 507.7512 223.390659 
L 508.4208 223.834965 
L 510.4296 227.128909 
L 511.0992 227.872399 
L 512.4384 228.725608 
L 513.7776 229.242124 
L 515.1168 230.167277 
L 515.7864 231.059339 
L 516.456 231.757269 
L 517.1256 232.189661 
L 519.804 235.666364 
L 521.1432 236.450658 
L 522.4824 236.943537 
L 523.152 237.128021 
L 523.8216 237.5408 
L 524.4912 238.129413 
L 526.5 239.452417 
L 527.8392 240.321376 
L 529.1784 240.741017 
L 529.848 240.87445 
L 531.1872 241.473409 
L 532.5264 241.734096 
L 534.5352 241.87483 
L 537.2136 241.816171 
L 540.5616 241.46773 
L 543.9096 240.882481 
L 547.9272 239.927179 
L 551.9448 238.741655 
L 556.632 237.113864 
L 561.3192 235.262 
L 564.6672 233.777234 
L 566.676 232.517153 
L 571.3632 229.557951 
L 585.4248 220.982658 
L 598.8168 212.270536 
L 602.1648 210.072349 
L 603.504 210.126726 
L 604.8432 209.750254 
L 606.852 208.882021 
L 610.2 207.14894 
L 612.8784 205.532074 
L 613.548 205.088387 
L 614.8872 205.188399 
L 616.2264 204.942116 
L 617.5656 204.456895 
L 619.5744 203.431464 
L 620.9136 202.523081 
L 622.2528 201.240574 
L 622.9224 200.394787 
L 623.592 199.756926 
L 624.2616 198.83718 
L 624.9312 197.065655 
L 625.6008 191.609868 
L 626.2704 165.854767 
L 626.94 63.51535 
L 627.6096 61.874208 
L 628.2792 84.207968 
L 628.9488 99.687933 
L 631.6272 148.424186 
L 633.636 177.617119 
L 634.9752 195.884146 
L 635.6448 202.189608 
L 636.3144 206.654543 
L 636.984 209.655672 
L 637.6536 211.747878 
L 638.9928 216.890341 
L 639.6624 218.580652 
L 641.6712 222.10816 
L 642.3408 222.875638 
L 644.3496 225.726962 
L 645.0192 226.302589 
L 646.3584 227.684113 
L 648.3672 229.04556 
L 649.0368 229.826386 
L 649.7064 230.3929 
L 653.724 232.770833 
L 654.3936 233.450941 
L 658.4112 236.404356 
L 660.42 238.401265 
L 661.7592 238.999938 
L 663.768 239.484947 
L 665.7768 239.724445 
L 667.7856 239.800026 
L 669.1248 240.221157 
L 670.464 240.334346 
L 673.1424 240.243341 
L 676.4904 239.837689 
L 679.8384 239.201934 
L 683.856 238.195955 
L 687.8736 236.968096 
L 692.5608 235.298612 
L 693.9 234.780104 
L 695.2392 234.794358 
L 696.5784 234.49875 
L 698.5872 233.821157 
L 700.596 232.747415 
L 705.9528 229.773505 
L 715.3272 224.630802 
L 721.3536 221.050101 
L 736.0848 211.895068 
L 742.7808 207.774198 
L 744.12 207.924329 
L 745.4592 207.640453 
L 747.468 206.895426 
L 748.8072 207.302939 
L 750.1464 207.249933 
L 752.1552 206.800926 
L 753.4944 207.373082 
L 754.8336 207.465483 
L 756.1728 207.324747 
L 757.512 208.03289 
L 758.8512 208.230967 
L 760.1904 208.182907 
L 761.5296 208.950744 
L 762.1992 209.117453 
L 763.5384 210.119511 
L 764.8776 210.507686 
L 765.5472 210.585846 
L 766.8864 211.5005 
L 768.2256 211.854911 
L 768.8952 211.929651 
L 770.2344 213.661929 
L 770.904 214.105637 
L 771.5736 214.389794 
L 774.252 216.834138 
L 775.5912 217.449766 
L 776.9304 217.786673 
L 777.6 218.309193 
L 777.6 218.309193 
" clip-path="url(#p658775f0e1)" style="fill: none; stroke: #000000; stroke-width: 1.5; stroke-linecap: square"/>
   </g>
   <g id="line2d_24">
    <path d="M 108 169.457412 
L 115.3656 187.35463 
L 123.4008 205.226696 
L 125.4096 209.042025 
L 127.4184 212.265916 
L 129.4272 214.955374 
L 131.436 217.187916 
L 133.4448 219.030046 
L 141.48 225.343747 
L 143.4888 226.684392 
L 146.1672 228.215353 
L 148.176 229.170808 
L 151.524 230.502486 
L 154.2024 231.282196 
L 156.8808 231.77045 
L 159.5592 232.004141 
L 162.2376 232.017117 
L 162.9072 201.152985 
L 163.5768 187.325029 
L 164.2464 180.624852 
L 164.916 176.738319 
L 165.5856 174.291511 
L 166.2552 172.739337 
L 166.9248 171.799439 
L 167.5944 171.296251 
L 168.264 171.106501 
L 168.9336 171.139982 
L 170.2728 171.618764 
L 174.2904 173.696537 
L 175.6296 174.095624 
L 176.9688 174.231663 
L 178.308 174.073095 
L 179.6472 173.59965 
L 180.9864 172.798557 
L 182.3256 171.665028 
L 183.6648 170.20838 
L 185.004 168.457403 
L 187.0128 165.408647 
L 191.0304 158.998413 
L 193.0392 156.27369 
L 194.3784 154.746149 
L 195.7176 153.449626 
L 197.0568 152.365913 
L 198.396 151.467195 
L 199.7352 150.790866 
L 201.0744 150.344006 
L 203.0832 149.922144 
L 205.7616 149.59005 
L 207.7704 149.579439 
L 209.7792 149.849337 
L 212.4576 150.566628 
L 218.484 152.20431 
L 224.5104 153.614169 
L 227.1888 154.247374 
L 228.528 154.87746 
L 229.8672 155.838798 
L 232.5456 158.135315 
L 234.5544 160.103539 
L 235.8936 161.790273 
L 237.2328 163.96291 
L 238.572 166.583763 
L 239.9112 169.598096 
L 241.2504 173.109529 
L 247.9464 192.110363 
L 250.6248 198.802541 
L 252.6336 203.320275 
L 254.6424 207.221844 
L 257.3208 211.903948 
L 259.3296 214.973611 
L 261.3384 217.565327 
L 263.3472 219.830603 
L 265.356 221.773372 
L 268.704 224.628726 
L 270.7128 226.071556 
L 273.3912 227.710976 
L 275.4 228.729019 
L 277.4088 229.530818 
L 279.4176 230.134194 
L 282.096 230.66784 
L 286.7832 231.287082 
L 289.4616 231.384917 
L 294.1488 231.218278 
L 296.1576 231.111388 
L 296.8272 200.405778 
L 297.4968 186.609852 
L 298.1664 179.890921 
L 298.836 175.947761 
L 299.5056 173.424087 
L 300.1752 171.784193 
L 300.8448 170.750484 
L 301.5144 170.145985 
L 302.184 169.849368 
L 302.8536 169.770278 
L 304.1928 170.002009 
L 307.5408 171.054193 
L 308.88 171.218141 
L 310.2192 171.112142 
L 311.5584 170.699581 
L 312.8976 169.962303 
L 314.2368 168.898034 
L 315.576 167.523124 
L 316.9152 165.878073 
L 318.924 163.054812 
L 322.9416 157.289372 
L 324.9504 154.873438 
L 326.9592 152.908128 
L 328.968 151.366254 
L 330.9768 150.177715 
L 332.9856 149.265476 
L 334.9944 148.563368 
L 337.6728 147.862886 
L 341.0208 147.241788 
L 345.0384 146.707373 
L 347.0472 146.633415 
L 355.0824 147.083307 
L 356.4216 147.333684 
L 357.7608 147.876444 
L 359.1 148.746024 
L 360.4392 149.94762 
L 362.448 152.030374 
L 363.7872 153.675237 
L 365.796 156.582226 
L 367.8048 159.84692 
L 369.8136 163.55156 
L 372.492 169.017915 
L 374.5008 173.618811 
L 376.5096 179.173192 
L 379.188 186.731187 
L 382.536 195.36037 
L 384.5448 200.085505 
L 386.5536 204.32944 
L 388.5624 208.143464 
L 390.5712 211.413392 
L 393.2496 215.178515 
L 395.2584 217.658798 
L 397.2672 219.743263 
L 399.276 221.471953 
L 402.624 223.977358 
L 406.6416 226.605884 
L 409.32 228.142721 
L 411.9984 229.454189 
L 414.0072 230.213972 
L 416.016 230.784783 
L 418.6944 231.286224 
L 421.3728 231.529069 
L 424.0512 231.547377 
L 427.3992 231.308748 
L 430.0776 231.114592 
L 430.7472 200.405265 
L 431.4168 186.605055 
L 432.0864 179.883139 
L 432.756 175.937039 
L 433.4256 173.410353 
L 434.0952 171.767493 
L 434.7648 170.730764 
L 435.4344 170.123199 
L 436.104 169.823406 
L 436.7736 169.740924 
L 438.1128 169.965177 
L 441.4608 170.994287 
L 442.8 171.147286 
L 444.1392 171.029538 
L 445.4784 170.604692 
L 446.8176 169.854852 
L 448.1568 168.778561 
L 449.496 167.393398 
L 451.5048 164.834773 
L 458.2008 155.531322 
L 460.2096 153.435544 
L 462.2184 151.776518 
L 464.2272 150.491549 
L 466.236 149.505179 
L 468.2448 148.745858 
L 470.9232 147.991978 
L 473.6016 147.459863 
L 475.6104 147.360308 
L 478.2888 147.512512 
L 480.9672 148.015187 
L 485.6544 149.068939 
L 487.6632 149.965392 
L 489.672 151.026953 
L 491.0112 151.95873 
L 492.3504 153.127143 
L 494.3592 155.352997 
L 495.6984 157.151069 
L 497.7072 160.263114 
L 499.716 163.816573 
L 502.3944 169.073242 
L 505.0728 174.94302 
L 510.4296 187.491535 
L 513.7776 195.775194 
L 516.456 201.528168 
L 521.1432 210.848759 
L 523.152 214.284748 
L 525.8304 218.256869 
L 528.5088 221.86595 
L 530.5176 224.230276 
L 532.5264 226.312052 
L 534.5352 228.083466 
L 536.544 229.540316 
L 538.5528 230.716624 
L 540.5616 231.646975 
L 542.5704 232.360904 
L 544.5792 232.883417 
L 547.2576 233.318938 
L 549.936 233.49492 
L 552.6144 233.447133 
L 555.2928 233.205452 
L 558.6408 232.66838 
L 561.9888 231.907283 
L 563.9976 231.356823 
L 564.6672 200.491403 
L 565.3368 186.568506 
L 566.0064 179.730186 
L 566.676 175.654345 
L 567.3456 172.97952 
L 568.0152 171.172623 
L 568.6848 169.955843 
L 569.3544 169.156328 
L 570.024 168.651828 
L 570.6936 168.35119 
L 572.0328 168.104429 
L 574.7112 167.872338 
L 576.0504 167.507612 
L 577.3896 166.854268 
L 578.7288 165.882724 
L 580.068 164.599648 
L 581.4072 163.045905 
L 583.416 160.371766 
L 587.4336 154.949382 
L 589.4424 152.681215 
L 591.4512 150.820345 
L 593.46 149.337162 
L 595.4688 148.167136 
L 597.4776 147.244834 
L 600.156 146.299662 
L 602.8344 145.602363 
L 604.8432 145.386379 
L 610.8696 145.259828 
L 615.5568 145.205025 
L 622.2528 145.738633 
L 624.2616 145.523952 
L 624.9312 145.354754 
L 625.6008 144.957818 
L 626.2704 143.465653 
L 626.94 137.49439 
L 627.6096 129.578207 
L 628.2792 123.149234 
L 628.9488 119.011323 
L 629.6184 116.841913 
L 630.288 116.130058 
L 630.9576 116.480631 
L 631.6272 117.582744 
L 632.2968 119.196319 
L 633.636 123.367722 
L 634.9752 128.409717 
L 637.6536 139.047703 
L 640.332 148.424538 
L 645.0192 164.521752 
L 648.3672 177.400629 
L 651.0456 187.621573 
L 653.0544 194.485632 
L 655.0632 200.480917 
L 657.072 205.721432 
L 659.0808 210.265983 
L 661.0896 214.381989 
L 663.0984 217.934313 
L 665.1072 220.861845 
L 667.116 223.24766 
L 669.1248 225.218808 
L 671.1336 226.914779 
L 673.1424 228.30564 
L 675.1512 229.408605 
L 677.16 230.260236 
L 679.1688 230.893839 
L 681.1776 231.337206 
L 683.856 231.671923 
L 686.5344 231.754296 
L 689.2128 231.620745 
L 692.5608 231.194948 
L 697.9176 230.304623 
L 698.5872 199.713119 
L 699.2568 185.923102 
L 699.9264 179.16752 
L 700.596 175.161834 
L 701.2656 172.563365 
L 701.9352 170.840478 
L 702.6048 169.713325 
L 703.2744 169.006793 
L 703.944 168.59695 
L 704.6136 168.392478 
L 705.9528 168.340877 
L 708.6312 168.525533 
L 709.9704 168.389769 
L 711.3096 167.978915 
L 712.6488 167.256601 
L 713.988 166.216898 
L 715.3272 164.88178 
L 717.336 162.440462 
L 723.3624 154.598196 
L 725.3712 152.556876 
L 727.38 150.908804 
L 729.3888 149.607662 
L 731.3976 148.5877 
L 733.4064 147.789565 
L 736.0848 146.980918 
L 739.4328 146.262578 
L 742.7808 145.757594 
L 744.7896 145.671884 
L 748.1376 145.921444 
L 750.1464 146.305662 
L 753.4944 147.168664 
L 756.8424 148.429337 
L 759.5208 149.751087 
L 761.5296 150.865202 
L 763.5384 152.246111 
L 766.2168 154.4961 
L 768.8952 157.147452 
L 770.2344 158.698386 
L 772.2432 161.50438 
L 773.5824 163.670815 
L 775.5912 167.400453 
L 777.6 171.418824 
L 777.6 171.418824 
" clip-path="url(#p658775f0e1)" style="fill: none; stroke: #4169e1; stroke-width: 1.5; stroke-linecap: square"/>
   </g>
   <g id="patch_3">
    <path d="M 108 256.32 
L 108 34.56 
" style="fill: none; stroke: #000000; stroke-width: 0.8; stroke-linejoin: miter; stroke-linecap: square"/>
   </g>
   <g id="patch_4">
    <path d="M 777.6 256.32 
L 777.6 34.56 
" style="fill: none; stroke: #000000; stroke-width: 0.8; stroke-linejoin: miter; stroke-linecap: square"/>
   </g>
   <g id="patch_5">
    <path d="M 108 256.32 
L 777.6 256.32 
" style="fill: none; stroke: #000000; stroke-width: 0.8; stroke-linejoin: miter; stroke-linecap: square"/>
   </g>
   <g id="patch_6">
    <path d="M 108 34.56 
L 777.6 34.56 
" style="fill: none; stroke: #000000; stroke-width: 0.8; stroke-linejoin: miter; stroke-linecap: square"/>
   </g>
   <g id="legend_1">
    <g id="patch_7">
     <path d="M 695.098438 71.91625 
L 770.6 71.91625 
Q 772.6 71.91625 772.6 69.91625 
L 772.6 41.56 
Q 772.6 39.56 770.6 39.56 
L 695.098438 39.56 
Q 693.098438 39.56 693.098438 41.56 
L 693.098438 69.91625 
Q 693.098438 71.91625 695.098438 71.91625 
z
" style="fill: #ffffff; opacity: 0.8; stroke: #cccccc; stroke-linejoin: miter"/>
    </g>
    <g id="line2d_25">
     <path d="M 697.098438 47.658437 
L 707.098438 47.658437 
L 717.098438 47.658437 
" style="fill: none; stroke: #000000; stroke-width: 1.5; stroke-linecap: square"/>
    </g>
    <g id="text_14">
     <!-- Soma -->
     <g transform="translate(725.098438 51.158437) scale(0.1 -0.1)">
      <defs>
       <path id="DejaVuSans-53" d="M 3425 4513 
L 3425 3897 
Q 3066 4069 2747 4153 
Q 2428 4238 2131 4238 
Q 1616 4238 1336 4038 
Q 1056 3838 1056 3469 
Q 1056 3159 1242 3001 
Q 1428 2844 1947 2747 
L 2328 2669 
Q 3034 2534 3370 2195 
Q 3706 1856 3706 1288 
Q 3706 609 3251 259 
Q 2797 -91 1919 -91 
Q 1588 -91 1214 -16 
Q 841 59 441 206 
L 441 856 
Q 825 641 1194 531 
Q 1563 422 1919 422 
Q 2459 422 2753 634 
Q 3047 847 3047 1241 
Q 3047 1584 2836 1778 
Q 2625 1972 2144 2069 
L 1759 2144 
Q 1053 2284 737 2584 
Q 422 2884 422 3419 
Q 422 4038 858 4394 
Q 1294 4750 2059 4750 
Q 2388 4750 2728 4690 
Q 3069 4631 3425 4513 
z
" transform="scale(0.015625)"/>
       <path id="DejaVuSans-6f" d="M 1959 3097 
Q 1497 3097 1228 2736 
Q 959 2375 959 1747 
Q 959 1119 1226 758 
Q 1494 397 1959 397 
Q 2419 397 2687 759 
Q 2956 1122 2956 1747 
Q 2956 2369 2687 2733 
Q 2419 3097 1959 3097 
z
M 1959 3584 
Q 2709 3584 3137 3096 
Q 3566 2609 3566 1747 
Q 3566 888 3137 398 
Q 2709 -91 1959 -91 
Q 1206 -91 779 398 
Q 353 888 353 1747 
Q 353 2609 779 3096 
Q 1206 3584 1959 3584 
z
" transform="scale(0.015625)"/>
       <path id="DejaVuSans-61" d="M 2194 1759 
Q 1497 1759 1228 1600 
Q 959 1441 959 1056 
Q 959 750 1161 570 
Q 1363 391 1709 391 
Q 2188 391 2477 730 
Q 2766 1069 2766 1631 
L 2766 1759 
L 2194 1759 
z
M 3341 1997 
L 3341 0 
L 2766 0 
L 2766 531 
Q 2569 213 2275 61 
Q 1981 -91 1556 -91 
Q 1019 -91 701 211 
Q 384 513 384 1019 
Q 384 1609 779 1909 
Q 1175 2209 1959 2209 
L 2766 2209 
L 2766 2266 
Q 2766 2663 2505 2880 
Q 2244 3097 1772 3097 
Q 1472 3097 1187 3025 
Q 903 2953 641 2809 
L 641 3341 
Q 956 3463 1253 3523 
Q 1550 3584 1831 3584 
Q 2591 3584 2966 3190 
Q 3341 2797 3341 1997 
z
" transform="scale(0.015625)"/>
      </defs>
      <use xlink:href="#DejaVuSans-53"/>
      <use xlink:href="#DejaVuSans-6f" x="63.476562"/>
      <use xlink:href="#DejaVuSans-6d" x="124.658203"/>
      <use xlink:href="#DejaVuSans-61" x="222.070312"/>
     </g>
    </g>
    <g id="line2d_26">
     <path d="M 697.098438 62.336562 
L 707.098438 62.336562 
L 717.098438 62.336562 
" style="fill: none; stroke: #4169e1; stroke-width: 1.5; stroke-linecap: square"/>
    </g>
    <g id="text_15">
     <!-- Dendrite -->
     <g transform="translate(725.098438 65.836562) scale(0.1 -0.1)">
      <defs>
       <path id="DejaVuSans-44" d="M 1259 4147 
L 1259 519 
L 2022 519 
Q 2988 519 3436 956 
Q 3884 1394 3884 2338 
Q 3884 3275 3436 3711 
Q 2988 4147 2022 4147 
L 1259 4147 
z
M 628 4666 
L 1925 4666 
Q 3281 4666 3915 4102 
Q 4550 3538 4550 2338 
Q 4550 1131 3912 565 
Q 3275 0 1925 0 
L 628 0 
L 628 4666 
z
" transform="scale(0.015625)"/>
       <path id="DejaVuSans-6e" d="M 3513 2113 
L 3513 0 
L 2938 0 
L 2938 2094 
Q 2938 2591 2744 2837 
Q 2550 3084 2163 3084 
Q 1697 3084 1428 2787 
Q 1159 2491 1159 1978 
L 1159 0 
L 581 0 
L 581 3500 
L 1159 3500 
L 1159 2956 
Q 1366 3272 1645 3428 
Q 1925 3584 2291 3584 
Q 2894 3584 3203 3211 
Q 3513 2838 3513 2113 
z
" transform="scale(0.015625)"/>
       <path id="DejaVuSans-64" d="M 2906 2969 
L 2906 4863 
L 3481 4863 
L 3481 0 
L 2906 0 
L 2906 525 
Q 2725 213 2448 61 
Q 2172 -91 1784 -91 
Q 1150 -91 751 415 
Q 353 922 353 1747 
Q 353 2572 751 3078 
Q 1150 3584 1784 3584 
Q 2172 3584 2448 3432 
Q 2725 3281 2906 2969 
z
M 947 1747 
Q 947 1113 1208 752 
Q 1469 391 1925 391 
Q 2381 391 2643 752 
Q 2906 1113 2906 1747 
Q 2906 2381 2643 2742 
Q 2381 3103 1925 3103 
Q 1469 3103 1208 2742 
Q 947 2381 947 1747 
z
" transform="scale(0.015625)"/>
       <path id="DejaVuSans-72" d="M 2631 2963 
Q 2534 3019 2420 3045 
Q 2306 3072 2169 3072 
Q 1681 3072 1420 2755 
Q 1159 2438 1159 1844 
L 1159 0 
L 581 0 
L 581 3500 
L 1159 3500 
L 1159 2956 
Q 1341 3275 1631 3429 
Q 1922 3584 2338 3584 
Q 2397 3584 2469 3576 
Q 2541 3569 2628 3553 
L 2631 2963 
z
" transform="scale(0.015625)"/>
       <path id="DejaVuSans-74" d="M 1172 4494 
L 1172 3500 
L 2356 3500 
L 2356 3053 
L 1172 3053 
L 1172 1153 
Q 1172 725 1289 603 
Q 1406 481 1766 481 
L 2356 481 
L 2356 0 
L 1766 0 
Q 1100 0 847 248 
Q 594 497 594 1153 
L 594 3053 
L 172 3053 
L 172 3500 
L 594 3500 
L 594 4494 
L 1172 4494 
z
" transform="scale(0.015625)"/>
      </defs>
      <use xlink:href="#DejaVuSans-44"/>
      <use xlink:href="#DejaVuSans-65" x="77.001953"/>
      <use xlink:href="#DejaVuSans-6e" x="138.525391"/>
      <use xlink:href="#DejaVuSans-64" x="201.904297"/>
      <use xlink:href="#DejaVuSans-72" x="265.380859"/>
      <use xlink:href="#DejaVuSans-69" x="306.494141"/>
      <use xlink:href="#DejaVuSans-74" x="334.277344"/>
      <use xlink:href="#DejaVuSans-65" x="373.486328"/>
     </g>
    </g>
   </g>
  </g>
 </g>
 <defs>
  <clipPath id="p658775f0e1">
   <rect x="108" y="34.56" width="669.6" height="221.76"/>
  </clipPath>
 </defs>
</svg>
