<?xml version="1.0" encoding="utf-8" standalone="no"?>
<!DOCTYPE svg PUBLIC "-//W3C//DTD SVG 1.1//EN"
  "http://www.w3.org/Graphics/SVG/1.1/DTD/svg11.dtd">
<svg xmlns:xlink="http://www.w3.org/1999/xlink" width="864pt" height="288pt" viewBox="0 0 864 288" xmlns="http://www.w3.org/2000/svg" version="1.1">
 <metadata>
  <rdf:RDF xmlns:dc="http://purl.org/dc/elements/1.1/" xmlns:cc="http://creativecommons.org/ns#" xmlns:rdf="http://www.w3.org/1999/02/22-rdf-syntax-ns#">
   <cc:Work>
    <dc:type rdf:resource="http://purl.org/dc/dcmitype/StillImage"/>
    <dc:date>2024-04-23T19:17:43.310835</dc:date>
    <dc:format>image/svg+xml</dc:format>
    <dc:creator>
     <cc:Agent>
      <dc:title>Matplotlib v3.8.2, https://matplotlib.org/</dc:title>
     </cc:Agent>
    </dc:creator>
   </cc:Work>
  </rdf:RDF>
 </metadata>
 <defs>
  <style type="text/css">*{stroke-linejoin: round; stroke-linecap: butt}</style>
 </defs>
 <g id="figure_1">
  <g id="patch_1">
   <path d="M 0 288 
L 864 288 
L 864 0 
L 0 0 
z
" style="fill: #ffffff"/>
  </g>
  <g id="axes_1">
   <g id="patch_2">
    <path d="M 108 256.32 
L 777.6 256.32 
L 777.6 34.56 
L 108 34.56 
z
" style="fill: #ffffff"/>
   </g>
   <g id="matplotlib.axis_1">
    <g id="xtick_1">
     <g id="line2d_1">
      <path d="M 108 256.32 
L 108 34.56 
" clip-path="url(#p5978769bb2)" style="fill: none; stroke: #b0b0b0; stroke-width: 0.8; stroke-linecap: square"/>
     </g>
     <g id="line2d_2">
      <defs>
       <path id="m021a73e49b" d="M 0 0 
L 0 3.5 
" style="stroke: #000000; stroke-width: 0.8"/>
      </defs>
      <g>
       <use xlink:href="#m021a73e49b" x="108" y="256.32" style="stroke: #000000; stroke-width: 0.8"/>
      </g>
     </g>
     <g id="text_1">
      <!-- 100 -->
      <g transform="translate(94.63875 273.957812) scale(0.14 -0.14)">
       <defs>
        <path id="DejaVuSans-31" d="M 794 531 
L 1825 531 
L 1825 4091 
L 703 3866 
L 703 4441 
L 1819 4666 
L 2450 4666 
L 2450 531 
L 3481 531 
L 3481 0 
L 794 0 
L 794 531 
z
" transform="scale(0.015625)"/>
        <path id="DejaVuSans-30" d="M 2034 4250 
Q 1547 4250 1301 3770 
Q 1056 3291 1056 2328 
Q 1056 1369 1301 889 
Q 1547 409 2034 409 
Q 2525 409 2770 889 
Q 3016 1369 3016 2328 
Q 3016 3291 2770 3770 
Q 2525 4250 2034 4250 
z
M 2034 4750 
Q 2819 4750 3233 4129 
Q 3647 3509 3647 2328 
Q 3647 1150 3233 529 
Q 2819 -91 2034 -91 
Q 1250 -91 836 529 
Q 422 1150 422 2328 
Q 422 3509 836 4129 
Q 1250 4750 2034 4750 
z
" transform="scale(0.015625)"/>
       </defs>
       <use xlink:href="#DejaVuSans-31"/>
       <use xlink:href="#DejaVuSans-30" x="63.623047"/>
       <use xlink:href="#DejaVuSans-30" x="127.246094"/>
      </g>
     </g>
    </g>
    <g id="xtick_2">
     <g id="line2d_3">
      <path d="M 241.92 256.32 
L 241.92 34.56 
" clip-path="url(#p5978769bb2)" style="fill: none; stroke: #b0b0b0; stroke-width: 0.8; stroke-linecap: square"/>
     </g>
     <g id="line2d_4">
      <g>
       <use xlink:href="#m021a73e49b" x="241.92" y="256.32" style="stroke: #000000; stroke-width: 0.8"/>
      </g>
     </g>
     <g id="text_2">
      <!-- 120 -->
      <g transform="translate(228.55875 273.957812) scale(0.14 -0.14)">
       <defs>
        <path id="DejaVuSans-32" d="M 1228 531 
L 3431 531 
L 3431 0 
L 469 0 
L 469 531 
Q 828 903 1448 1529 
Q 2069 2156 2228 2338 
Q 2531 2678 2651 2914 
Q 2772 3150 2772 3378 
Q 2772 3750 2511 3984 
Q 2250 4219 1831 4219 
Q 1534 4219 1204 4116 
Q 875 4013 500 3803 
L 500 4441 
Q 881 4594 1212 4672 
Q 1544 4750 1819 4750 
Q 2544 4750 2975 4387 
Q 3406 4025 3406 3419 
Q 3406 3131 3298 2873 
Q 3191 2616 2906 2266 
Q 2828 2175 2409 1742 
Q 1991 1309 1228 531 
z
" transform="scale(0.015625)"/>
       </defs>
       <use xlink:href="#DejaVuSans-31"/>
       <use xlink:href="#DejaVuSans-32" x="63.623047"/>
       <use xlink:href="#DejaVuSans-30" x="127.246094"/>
      </g>
     </g>
    </g>
    <g id="xtick_3">
     <g id="line2d_5">
      <path d="M 375.84 256.32 
L 375.84 34.56 
" clip-path="url(#p5978769bb2)" style="fill: none; stroke: #b0b0b0; stroke-width: 0.8; stroke-linecap: square"/>
     </g>
     <g id="line2d_6">
      <g>
       <use xlink:href="#m021a73e49b" x="375.84" y="256.32" style="stroke: #000000; stroke-width: 0.8"/>
      </g>
     </g>
     <g id="text_3">
      <!-- 140 -->
      <g transform="translate(362.47875 273.957812) scale(0.14 -0.14)">
       <defs>
        <path id="DejaVuSans-34" d="M 2419 4116 
L 825 1625 
L 2419 1625 
L 2419 4116 
z
M 2253 4666 
L 3047 4666 
L 3047 1625 
L 3713 1625 
L 3713 1100 
L 3047 1100 
L 3047 0 
L 2419 0 
L 2419 1100 
L 313 1100 
L 313 1709 
L 2253 4666 
z
" transform="scale(0.015625)"/>
       </defs>
       <use xlink:href="#DejaVuSans-31"/>
       <use xlink:href="#DejaVuSans-34" x="63.623047"/>
       <use xlink:href="#DejaVuSans-30" x="127.246094"/>
      </g>
     </g>
    </g>
    <g id="xtick_4">
     <g id="line2d_7">
      <path d="M 509.76 256.32 
L 509.76 34.56 
" clip-path="url(#p5978769bb2)" style="fill: none; stroke: #b0b0b0; stroke-width: 0.8; stroke-linecap: square"/>
     </g>
     <g id="line2d_8">
      <g>
       <use xlink:href="#m021a73e49b" x="509.76" y="256.32" style="stroke: #000000; stroke-width: 0.8"/>
      </g>
     </g>
     <g id="text_4">
      <!-- 160 -->
      <g transform="translate(496.39875 273.957812) scale(0.14 -0.14)">
       <defs>
        <path id="DejaVuSans-36" d="M 2113 2584 
Q 1688 2584 1439 2293 
Q 1191 2003 1191 1497 
Q 1191 994 1439 701 
Q 1688 409 2113 409 
Q 2538 409 2786 701 
Q 3034 994 3034 1497 
Q 3034 2003 2786 2293 
Q 2538 2584 2113 2584 
z
M 3366 4563 
L 3366 3988 
Q 3128 4100 2886 4159 
Q 2644 4219 2406 4219 
Q 1781 4219 1451 3797 
Q 1122 3375 1075 2522 
Q 1259 2794 1537 2939 
Q 1816 3084 2150 3084 
Q 2853 3084 3261 2657 
Q 3669 2231 3669 1497 
Q 3669 778 3244 343 
Q 2819 -91 2113 -91 
Q 1303 -91 875 529 
Q 447 1150 447 2328 
Q 447 3434 972 4092 
Q 1497 4750 2381 4750 
Q 2619 4750 2861 4703 
Q 3103 4656 3366 4563 
z
" transform="scale(0.015625)"/>
       </defs>
       <use xlink:href="#DejaVuSans-31"/>
       <use xlink:href="#DejaVuSans-36" x="63.623047"/>
       <use xlink:href="#DejaVuSans-30" x="127.246094"/>
      </g>
     </g>
    </g>
    <g id="xtick_5">
     <g id="line2d_9">
      <path d="M 643.68 256.32 
L 643.68 34.56 
" clip-path="url(#p5978769bb2)" style="fill: none; stroke: #b0b0b0; stroke-width: 0.8; stroke-linecap: square"/>
     </g>
     <g id="line2d_10">
      <g>
       <use xlink:href="#m021a73e49b" x="643.68" y="256.32" style="stroke: #000000; stroke-width: 0.8"/>
      </g>
     </g>
     <g id="text_5">
      <!-- 180 -->
      <g transform="translate(630.31875 273.957812) scale(0.14 -0.14)">
       <defs>
        <path id="DejaVuSans-38" d="M 2034 2216 
Q 1584 2216 1326 1975 
Q 1069 1734 1069 1313 
Q 1069 891 1326 650 
Q 1584 409 2034 409 
Q 2484 409 2743 651 
Q 3003 894 3003 1313 
Q 3003 1734 2745 1975 
Q 2488 2216 2034 2216 
z
M 1403 2484 
Q 997 2584 770 2862 
Q 544 3141 544 3541 
Q 544 4100 942 4425 
Q 1341 4750 2034 4750 
Q 2731 4750 3128 4425 
Q 3525 4100 3525 3541 
Q 3525 3141 3298 2862 
Q 3072 2584 2669 2484 
Q 3125 2378 3379 2068 
Q 3634 1759 3634 1313 
Q 3634 634 3220 271 
Q 2806 -91 2034 -91 
Q 1263 -91 848 271 
Q 434 634 434 1313 
Q 434 1759 690 2068 
Q 947 2378 1403 2484 
z
M 1172 3481 
Q 1172 3119 1398 2916 
Q 1625 2713 2034 2713 
Q 2441 2713 2670 2916 
Q 2900 3119 2900 3481 
Q 2900 3844 2670 4047 
Q 2441 4250 2034 4250 
Q 1625 4250 1398 4047 
Q 1172 3844 1172 3481 
z
" transform="scale(0.015625)"/>
       </defs>
       <use xlink:href="#DejaVuSans-31"/>
       <use xlink:href="#DejaVuSans-38" x="63.623047"/>
       <use xlink:href="#DejaVuSans-30" x="127.246094"/>
      </g>
     </g>
    </g>
    <g id="xtick_6">
     <g id="line2d_11">
      <path d="M 777.6 256.32 
L 777.6 34.56 
" clip-path="url(#p5978769bb2)" style="fill: none; stroke: #b0b0b0; stroke-width: 0.8; stroke-linecap: square"/>
     </g>
     <g id="line2d_12">
      <g>
       <use xlink:href="#m021a73e49b" x="777.6" y="256.32" style="stroke: #000000; stroke-width: 0.8"/>
      </g>
     </g>
     <g id="text_6">
      <!-- 200 -->
      <g transform="translate(764.23875 273.957812) scale(0.14 -0.14)">
       <use xlink:href="#DejaVuSans-32"/>
       <use xlink:href="#DejaVuSans-30" x="63.623047"/>
       <use xlink:href="#DejaVuSans-30" x="127.246094"/>
      </g>
     </g>
    </g>
    <g id="text_7">
     <!-- Time (ms) -->
     <g transform="translate(407.521094 291.507187) scale(0.14 -0.14)">
      <defs>
       <path id="DejaVuSans-54" d="M -19 4666 
L 3928 4666 
L 3928 4134 
L 2272 4134 
L 2272 0 
L 1638 0 
L 1638 4134 
L -19 4134 
L -19 4666 
z
" transform="scale(0.015625)"/>
       <path id="DejaVuSans-69" d="M 603 3500 
L 1178 3500 
L 1178 0 
L 603 0 
L 603 3500 
z
M 603 4863 
L 1178 4863 
L 1178 4134 
L 603 4134 
L 603 4863 
z
" transform="scale(0.015625)"/>
       <path id="DejaVuSans-6d" d="M 3328 2828 
Q 3544 3216 3844 3400 
Q 4144 3584 4550 3584 
Q 5097 3584 5394 3201 
Q 5691 2819 5691 2113 
L 5691 0 
L 5113 0 
L 5113 2094 
Q 5113 2597 4934 2840 
Q 4756 3084 4391 3084 
Q 3944 3084 3684 2787 
Q 3425 2491 3425 1978 
L 3425 0 
L 2847 0 
L 2847 2094 
Q 2847 2600 2669 2842 
Q 2491 3084 2119 3084 
Q 1678 3084 1418 2786 
Q 1159 2488 1159 1978 
L 1159 0 
L 581 0 
L 581 3500 
L 1159 3500 
L 1159 2956 
Q 1356 3278 1631 3431 
Q 1906 3584 2284 3584 
Q 2666 3584 2933 3390 
Q 3200 3197 3328 2828 
z
" transform="scale(0.015625)"/>
       <path id="DejaVuSans-65" d="M 3597 1894 
L 3597 1613 
L 953 1613 
Q 991 1019 1311 708 
Q 1631 397 2203 397 
Q 2534 397 2845 478 
Q 3156 559 3463 722 
L 3463 178 
Q 3153 47 2828 -22 
Q 2503 -91 2169 -91 
Q 1331 -91 842 396 
Q 353 884 353 1716 
Q 353 2575 817 3079 
Q 1281 3584 2069 3584 
Q 2775 3584 3186 3129 
Q 3597 2675 3597 1894 
z
M 3022 2063 
Q 3016 2534 2758 2815 
Q 2500 3097 2075 3097 
Q 1594 3097 1305 2825 
Q 1016 2553 972 2059 
L 3022 2063 
z
" transform="scale(0.015625)"/>
       <path id="DejaVuSans-20" transform="scale(0.015625)"/>
       <path id="DejaVuSans-28" d="M 1984 4856 
Q 1566 4138 1362 3434 
Q 1159 2731 1159 2009 
Q 1159 1288 1364 580 
Q 1569 -128 1984 -844 
L 1484 -844 
Q 1016 -109 783 600 
Q 550 1309 550 2009 
Q 550 2706 781 3412 
Q 1013 4119 1484 4856 
L 1984 4856 
z
" transform="scale(0.015625)"/>
       <path id="DejaVuSans-73" d="M 2834 3397 
L 2834 2853 
Q 2591 2978 2328 3040 
Q 2066 3103 1784 3103 
Q 1356 3103 1142 2972 
Q 928 2841 928 2578 
Q 928 2378 1081 2264 
Q 1234 2150 1697 2047 
L 1894 2003 
Q 2506 1872 2764 1633 
Q 3022 1394 3022 966 
Q 3022 478 2636 193 
Q 2250 -91 1575 -91 
Q 1294 -91 989 -36 
Q 684 19 347 128 
L 347 722 
Q 666 556 975 473 
Q 1284 391 1588 391 
Q 1994 391 2212 530 
Q 2431 669 2431 922 
Q 2431 1156 2273 1281 
Q 2116 1406 1581 1522 
L 1381 1569 
Q 847 1681 609 1914 
Q 372 2147 372 2553 
Q 372 3047 722 3315 
Q 1072 3584 1716 3584 
Q 2034 3584 2315 3537 
Q 2597 3491 2834 3397 
z
" transform="scale(0.015625)"/>
       <path id="DejaVuSans-29" d="M 513 4856 
L 1013 4856 
Q 1481 4119 1714 3412 
Q 1947 2706 1947 2009 
Q 1947 1309 1714 600 
Q 1481 -109 1013 -844 
L 513 -844 
Q 928 -128 1133 580 
Q 1338 1288 1338 2009 
Q 1338 2731 1133 3434 
Q 928 4138 513 4856 
z
" transform="scale(0.015625)"/>
      </defs>
      <use xlink:href="#DejaVuSans-54"/>
      <use xlink:href="#DejaVuSans-69" x="57.958984"/>
      <use xlink:href="#DejaVuSans-6d" x="85.742188"/>
      <use xlink:href="#DejaVuSans-65" x="183.154297"/>
      <use xlink:href="#DejaVuSans-20" x="244.677734"/>
      <use xlink:href="#DejaVuSans-28" x="276.464844"/>
      <use xlink:href="#DejaVuSans-6d" x="315.478516"/>
      <use xlink:href="#DejaVuSans-73" x="412.890625"/>
      <use xlink:href="#DejaVuSans-29" x="464.990234"/>
     </g>
    </g>
   </g>
   <g id="matplotlib.axis_2">
    <g id="ytick_1">
     <g id="line2d_13">
      <path d="M 108 246.24 
L 777.6 246.24 
" clip-path="url(#p5978769bb2)" style="fill: none; stroke: #b0b0b0; stroke-width: 0.8; stroke-linecap: square"/>
     </g>
     <g id="line2d_14">
      <defs>
       <path id="m17c2267c89" d="M 0 0 
L -3.5 0 
" style="stroke: #000000; stroke-width: 0.8"/>
      </defs>
      <g>
       <use xlink:href="#m17c2267c89" x="108" y="246.24" style="stroke: #000000; stroke-width: 0.8"/>
      </g>
     </g>
     <g id="text_8">
      <!-- 0.00 -->
      <g transform="translate(69.828125 251.558906) scale(0.14 -0.14)">
       <defs>
        <path id="DejaVuSans-2e" d="M 684 794 
L 1344 794 
L 1344 0 
L 684 0 
L 684 794 
z
" transform="scale(0.015625)"/>
       </defs>
       <use xlink:href="#DejaVuSans-30"/>
       <use xlink:href="#DejaVuSans-2e" x="63.623047"/>
       <use xlink:href="#DejaVuSans-30" x="95.410156"/>
       <use xlink:href="#DejaVuSans-30" x="159.033203"/>
      </g>
     </g>
    </g>
    <g id="ytick_2">
     <g id="line2d_15">
      <path d="M 108 210.081813 
L 777.6 210.081813 
" clip-path="url(#p5978769bb2)" style="fill: none; stroke: #b0b0b0; stroke-width: 0.8; stroke-linecap: square"/>
     </g>
     <g id="line2d_16">
      <g>
       <use xlink:href="#m17c2267c89" x="108" y="210.081813" style="stroke: #000000; stroke-width: 0.8"/>
      </g>
     </g>
     <g id="text_9">
      <!-- 0.05 -->
      <g transform="translate(69.828125 215.400719) scale(0.14 -0.14)">
       <defs>
        <path id="DejaVuSans-35" d="M 691 4666 
L 3169 4666 
L 3169 4134 
L 1269 4134 
L 1269 2991 
Q 1406 3038 1543 3061 
Q 1681 3084 1819 3084 
Q 2600 3084 3056 2656 
Q 3513 2228 3513 1497 
Q 3513 744 3044 326 
Q 2575 -91 1722 -91 
Q 1428 -91 1123 -41 
Q 819 9 494 109 
L 494 744 
Q 775 591 1075 516 
Q 1375 441 1709 441 
Q 2250 441 2565 725 
Q 2881 1009 2881 1497 
Q 2881 1984 2565 2268 
Q 2250 2553 1709 2553 
Q 1456 2553 1204 2497 
Q 953 2441 691 2322 
L 691 4666 
z
" transform="scale(0.015625)"/>
       </defs>
       <use xlink:href="#DejaVuSans-30"/>
       <use xlink:href="#DejaVuSans-2e" x="63.623047"/>
       <use xlink:href="#DejaVuSans-30" x="95.410156"/>
       <use xlink:href="#DejaVuSans-35" x="159.033203"/>
      </g>
     </g>
    </g>
    <g id="ytick_3">
     <g id="line2d_17">
      <path d="M 108 173.923626 
L 777.6 173.923626 
" clip-path="url(#p5978769bb2)" style="fill: none; stroke: #b0b0b0; stroke-width: 0.8; stroke-linecap: square"/>
     </g>
     <g id="line2d_18">
      <g>
       <use xlink:href="#m17c2267c89" x="108" y="173.923626" style="stroke: #000000; stroke-width: 0.8"/>
      </g>
     </g>
     <g id="text_10">
      <!-- 0.10 -->
      <g transform="translate(69.828125 179.242532) scale(0.14 -0.14)">
       <use xlink:href="#DejaVuSans-30"/>
       <use xlink:href="#DejaVuSans-2e" x="63.623047"/>
       <use xlink:href="#DejaVuSans-31" x="95.410156"/>
       <use xlink:href="#DejaVuSans-30" x="159.033203"/>
      </g>
     </g>
    </g>
    <g id="ytick_4">
     <g id="line2d_19">
      <path d="M 108 137.765439 
L 777.6 137.765439 
" clip-path="url(#p5978769bb2)" style="fill: none; stroke: #b0b0b0; stroke-width: 0.8; stroke-linecap: square"/>
     </g>
     <g id="line2d_20">
      <g>
       <use xlink:href="#m17c2267c89" x="108" y="137.765439" style="stroke: #000000; stroke-width: 0.8"/>
      </g>
     </g>
     <g id="text_11">
      <!-- 0.15 -->
      <g transform="translate(69.828125 143.084345) scale(0.14 -0.14)">
       <use xlink:href="#DejaVuSans-30"/>
       <use xlink:href="#DejaVuSans-2e" x="63.623047"/>
       <use xlink:href="#DejaVuSans-31" x="95.410156"/>
       <use xlink:href="#DejaVuSans-35" x="159.033203"/>
      </g>
     </g>
    </g>
    <g id="ytick_5">
     <g id="line2d_21">
      <path d="M 108 101.607252 
L 777.6 101.607252 
" clip-path="url(#p5978769bb2)" style="fill: none; stroke: #b0b0b0; stroke-width: 0.8; stroke-linecap: square"/>
     </g>
     <g id="line2d_22">
      <g>
       <use xlink:href="#m17c2267c89" x="108" y="101.607252" style="stroke: #000000; stroke-width: 0.8"/>
      </g>
     </g>
     <g id="text_12">
      <!-- 0.20 -->
      <g transform="translate(69.828125 106.926158) scale(0.14 -0.14)">
       <use xlink:href="#DejaVuSans-30"/>
       <use xlink:href="#DejaVuSans-2e" x="63.623047"/>
       <use xlink:href="#DejaVuSans-32" x="95.410156"/>
       <use xlink:href="#DejaVuSans-30" x="159.033203"/>
      </g>
     </g>
    </g>
    <g id="ytick_6">
     <g id="line2d_23">
      <path d="M 108 65.449065 
L 777.6 65.449065 
" clip-path="url(#p5978769bb2)" style="fill: none; stroke: #b0b0b0; stroke-width: 0.8; stroke-linecap: square"/>
     </g>
     <g id="line2d_24">
      <g>
       <use xlink:href="#m17c2267c89" x="108" y="65.449065" style="stroke: #000000; stroke-width: 0.8"/>
      </g>
     </g>
     <g id="text_13">
      <!-- 0.25 -->
      <g transform="translate(69.828125 70.767971) scale(0.14 -0.14)">
       <use xlink:href="#DejaVuSans-30"/>
       <use xlink:href="#DejaVuSans-2e" x="63.623047"/>
       <use xlink:href="#DejaVuSans-32" x="95.410156"/>
       <use xlink:href="#DejaVuSans-35" x="159.033203"/>
      </g>
     </g>
    </g>
    <g id="text_14">
     <!-- $g_{Inhib}$ (µS) -->
     <g transform="translate(62.888125 178.83) rotate(-90) scale(0.14 -0.14)">
      <defs>
       <path id="DejaVuSans-Oblique-67" d="M 3816 3500 
L 3219 434 
Q 3047 -456 2561 -893 
Q 2075 -1331 1253 -1331 
Q 950 -1331 690 -1286 
Q 431 -1241 206 -1147 
L 313 -588 
Q 525 -725 762 -790 
Q 1000 -856 1269 -856 
Q 1816 -856 2167 -557 
Q 2519 -259 2631 300 
L 2681 563 
Q 2441 288 2122 144 
Q 1803 0 1434 0 
Q 903 0 598 351 
Q 294 703 294 1319 
Q 294 1803 478 2267 
Q 663 2731 997 3091 
Q 1219 3328 1514 3456 
Q 1809 3584 2131 3584 
Q 2484 3584 2746 3420 
Q 3009 3256 3138 2956 
L 3238 3500 
L 3816 3500 
z
M 2950 2216 
Q 2950 2641 2750 2872 
Q 2550 3103 2181 3103 
Q 1953 3103 1747 3012 
Q 1541 2922 1394 2759 
Q 1156 2491 1023 2127 
Q 891 1763 891 1375 
Q 891 944 1092 712 
Q 1294 481 1672 481 
Q 2219 481 2584 976 
Q 2950 1472 2950 2216 
z
" transform="scale(0.015625)"/>
       <path id="DejaVuSans-Oblique-49" d="M 1081 4666 
L 1716 4666 
L 806 0 
L 172 0 
L 1081 4666 
z
" transform="scale(0.015625)"/>
       <path id="DejaVuSans-Oblique-6e" d="M 3566 2113 
L 3156 0 
L 2578 0 
L 2988 2091 
Q 3016 2238 3031 2350 
Q 3047 2463 3047 2528 
Q 3047 2791 2881 2937 
Q 2716 3084 2419 3084 
Q 1956 3084 1622 2776 
Q 1288 2469 1184 1941 
L 800 0 
L 225 0 
L 903 3500 
L 1478 3500 
L 1363 2950 
Q 1603 3253 1940 3418 
Q 2278 3584 2650 3584 
Q 3113 3584 3367 3334 
Q 3622 3084 3622 2631 
Q 3622 2519 3608 2391 
Q 3594 2263 3566 2113 
z
" transform="scale(0.015625)"/>
       <path id="DejaVuSans-Oblique-68" d="M 3566 2113 
L 3156 0 
L 2578 0 
L 2988 2091 
Q 3016 2238 3031 2350 
Q 3047 2463 3047 2528 
Q 3047 2791 2881 2937 
Q 2716 3084 2419 3084 
Q 1956 3084 1617 2771 
Q 1278 2459 1178 1941 
L 800 0 
L 225 0 
L 1172 4863 
L 1747 4863 
L 1375 2950 
Q 1594 3244 1934 3414 
Q 2275 3584 2650 3584 
Q 3113 3584 3367 3334 
Q 3622 3084 3622 2631 
Q 3622 2519 3608 2391 
Q 3594 2263 3566 2113 
z
" transform="scale(0.015625)"/>
       <path id="DejaVuSans-Oblique-69" d="M 1172 4863 
L 1747 4863 
L 1606 4134 
L 1031 4134 
L 1172 4863 
z
M 909 3500 
L 1484 3500 
L 800 0 
L 225 0 
L 909 3500 
z
" transform="scale(0.015625)"/>
       <path id="DejaVuSans-Oblique-62" d="M 3169 2138 
Q 3169 2591 2961 2847 
Q 2753 3103 2388 3103 
Q 2122 3103 1889 2973 
Q 1656 2844 1484 2597 
Q 1303 2338 1198 1995 
Q 1094 1653 1094 1313 
Q 1094 881 1298 636 
Q 1503 391 1863 391 
Q 2134 391 2365 517 
Q 2597 644 2772 891 
Q 2950 1147 3059 1487 
Q 3169 1828 3169 2138 
z
M 1381 2969 
Q 1594 3256 1914 3420 
Q 2234 3584 2584 3584 
Q 3122 3584 3439 3221 
Q 3756 2859 3756 2241 
Q 3756 1734 3570 1259 
Q 3384 784 3041 416 
Q 2816 172 2522 40 
Q 2228 -91 1906 -91 
Q 1566 -91 1316 65 
Q 1066 222 909 531 
L 806 0 
L 231 0 
L 1178 4863 
L 1753 4863 
L 1381 2969 
z
" transform="scale(0.015625)"/>
       <path id="DejaVuSans-b5" d="M 544 -1331 
L 544 3500 
L 1119 3500 
L 1119 1325 
Q 1119 872 1334 640 
Q 1550 409 1972 409 
Q 2434 409 2667 671 
Q 2900 934 2900 1459 
L 2900 3500 
L 3475 3500 
L 3475 806 
Q 3475 619 3529 530 
Q 3584 441 3700 441 
Q 3728 441 3778 458 
Q 3828 475 3916 513 
L 3916 50 
Q 3788 -22 3673 -56 
Q 3559 -91 3450 -91 
Q 3234 -91 3106 31 
Q 2978 153 2931 403 
Q 2775 156 2548 32 
Q 2322 -91 2016 -91 
Q 1697 -91 1473 31 
Q 1250 153 1119 397 
L 1119 -1331 
L 544 -1331 
z
" transform="scale(0.015625)"/>
       <path id="DejaVuSans-53" d="M 3425 4513 
L 3425 3897 
Q 3066 4069 2747 4153 
Q 2428 4238 2131 4238 
Q 1616 4238 1336 4038 
Q 1056 3838 1056 3469 
Q 1056 3159 1242 3001 
Q 1428 2844 1947 2747 
L 2328 2669 
Q 3034 2534 3370 2195 
Q 3706 1856 3706 1288 
Q 3706 609 3251 259 
Q 2797 -91 1919 -91 
Q 1588 -91 1214 -16 
Q 841 59 441 206 
L 441 856 
Q 825 641 1194 531 
Q 1563 422 1919 422 
Q 2459 422 2753 634 
Q 3047 847 3047 1241 
Q 3047 1584 2836 1778 
Q 2625 1972 2144 2069 
L 1759 2144 
Q 1053 2284 737 2584 
Q 422 2884 422 3419 
Q 422 4038 858 4394 
Q 1294 4750 2059 4750 
Q 2388 4750 2728 4690 
Q 3069 4631 3425 4513 
z
" transform="scale(0.015625)"/>
      </defs>
      <use xlink:href="#DejaVuSans-Oblique-67" transform="translate(0 0.125)"/>
      <use xlink:href="#DejaVuSans-Oblique-49" transform="translate(63.476562 -16.28125) scale(0.7)"/>
      <use xlink:href="#DejaVuSans-Oblique-6e" transform="translate(84.121094 -16.28125) scale(0.7)"/>
      <use xlink:href="#DejaVuSans-Oblique-68" transform="translate(128.486328 -16.28125) scale(0.7)"/>
      <use xlink:href="#DejaVuSans-Oblique-69" transform="translate(172.851562 -16.28125) scale(0.7)"/>
      <use xlink:href="#DejaVuSans-Oblique-62" transform="translate(192.299805 -16.28125) scale(0.7)"/>
      <use xlink:href="#DejaVuSans-20" transform="translate(239.467773 0.125)"/>
      <use xlink:href="#DejaVuSans-28" transform="translate(271.254883 0.125)"/>
      <use xlink:href="#DejaVuSans-b5" transform="translate(310.268555 0.125)"/>
      <use xlink:href="#DejaVuSans-53" transform="translate(373.891602 0.125)"/>
      <use xlink:href="#DejaVuSans-29" transform="translate(437.368164 0.125)"/>
     </g>
    </g>
   </g>
   <g id="line2d_25">
    <path d="M 108 134.212071 
L 108.6696 130.86291 
L 109.3392 125.608148 
L 110.0088 124.971944 
L 110.6784 119.960907 
L 111.348 119.415451 
L 113.3568 125.287436 
L 114.696 103.780912 
L 116.0352 89.260266 
L 116.7048 89.059094 
L 117.3744 84.625157 
L 118.044 84.647529 
L 123.4008 104.156541 
L 124.0704 99.629056 
L 124.74 99.410323 
L 128.7576 112.873031 
L 129.4272 108.205477 
L 130.0968 107.848925 
L 132.1056 114.269602 
L 132.7752 109.579606 
L 133.4448 109.200972 
L 134.784 113.423214 
L 135.4536 108.746818 
L 136.1232 108.381567 
L 138.8016 116.88952 
L 139.4712 112.157423 
L 140.1408 111.737365 
L 147.5064 133.564784 
L 150.8544 142.331627 
L 154.2024 150.416354 
L 156.8808 156.428818 
L 157.5504 151.061345 
L 158.22 150.016121 
L 159.5592 152.937145 
L 160.2288 147.625781 
L 160.8984 146.635765 
L 162.9072 151.216476 
L 163.5768 145.932762 
L 164.2464 144.969952 
L 166.2552 149.629685 
L 169.6032 157.146577 
L 172.9512 164.078607 
L 176.2992 170.471282 
L 179.6472 176.366566 
L 182.9952 181.80316 
L 186.3432 186.816753 
L 189.6912 191.440256 
L 193.0392 195.704022 
L 196.3872 199.63604 
L 199.7352 203.262122 
L 203.0832 206.606072 
L 207.1008 210.277184 
L 210.4488 213.075318 
L 211.1184 206.797564 
L 211.788 204.856688 
L 212.4576 205.372637 
L 215.8056 208.552376 
L 216.4752 202.347303 
L 217.1448 193.667247 
L 217.8144 191.788309 
L 219.1536 193.377605 
L 222.5016 197.490633 
L 225.8496 201.283641 
L 228.528 204.104433 
L 229.1976 197.970836 
L 229.8672 196.171801 
L 230.5368 196.827312 
L 231.2064 190.810655 
L 231.876 189.12668 
L 233.2152 190.800831 
L 233.8848 184.881017 
L 234.5544 183.292328 
L 235.8936 185.152483 
L 238.572 188.985425 
L 239.9112 165.448162 
L 240.5808 163.87363 
L 241.2504 158.237462 
L 241.92 157.076922 
L 242.5896 158.360667 
L 243.2592 152.96215 
L 243.9288 151.886381 
L 244.5984 153.253535 
L 245.9376 130.855431 
L 246.6072 129.836786 
L 247.2768 117.93688 
L 247.9464 108.038561 
L 248.616 100.575878 
L 249.2856 86.571484 
L 249.9552 83.838824 
L 251.2944 88.722965 
L 251.964 84.44349 
L 253.9728 64.116921 
L 254.6424 64.31979 
L 257.9904 78.334623 
L 258.66 74.222083 
L 259.3296 74.411626 
L 260.6688 79.742978 
L 261.3384 75.607807 
L 262.008 68.96439 
L 262.6776 69.089362 
L 264.0168 74.590391 
L 264.6864 70.538019 
L 265.356 70.786764 
L 266.0256 73.457148 
L 266.6952 69.422986 
L 267.3648 69.689649 
L 273.3912 93.511196 
L 276.7392 105.394461 
L 279.4176 114.231829 
L 280.0872 109.542439 
L 280.7568 109.164403 
L 288.1224 131.411794 
L 291.4704 140.346153 
L 294.8184 148.585362 
L 298.1664 156.183509 
L 301.5144 163.190472 
L 304.8624 169.652249 
L 308.2104 175.611259 
L 311.5584 181.106621 
L 314.9064 186.174409 
L 318.2544 190.847891 
L 321.6024 195.157746 
L 324.9504 199.132268 
L 328.2984 202.797547 
L 331.6464 206.177643 
L 335.664 209.888439 
L 339.6816 213.25552 
L 341.6904 214.820235 
L 342.36 208.514442 
L 343.0296 206.545976 
L 343.6992 207.034779 
L 347.7168 210.666181 
L 351.7344 213.961224 
L 354.4128 215.986559 
L 355.0824 209.662023 
L 355.752 207.675117 
L 356.4216 208.145775 
L 357.0912 201.947236 
L 357.7608 200.084302 
L 359.1 201.409116 
L 359.7696 188.508139 
L 360.4392 184.286469 
L 361.1088 184.983911 
L 361.7784 179.157572 
L 362.448 177.660856 
L 363.1176 178.613828 
L 363.7872 172.889853 
L 365.1264 156.459291 
L 365.796 134.746186 
L 366.4656 128.664687 
L 367.1352 130.106883 
L 367.8048 118.351696 
L 368.4744 115.257404 
L 369.144 117.064107 
L 369.8136 112.329204 
L 370.4832 111.906386 
L 373.1616 120.193174 
L 373.8312 115.407989 
L 375.84 93.612528 
L 376.5096 93.341418 
L 379.188 102.793067 
L 379.8576 98.287492 
L 380.5272 91.279624 
L 381.1968 91.046002 
L 381.8664 86.580137 
L 382.536 79.7604 
L 383.2056 79.711886 
L 383.8752 82.238847 
L 384.5448 78.063569 
L 385.2144 71.380689 
L 385.884 71.466832 
L 387.2232 76.892066 
L 387.8928 72.802707 
L 388.5624 66.204367 
L 389.232 66.373691 
L 389.9016 69.114991 
L 390.5712 58.339912 
L 391.2408 56.209978 
L 393.2496 64.935993 
L 393.9192 67.849455 
L 394.5888 63.905406 
L 395.2584 64.260733 
L 401.2848 88.818819 
L 404.6328 101.06718 
L 407.9808 112.362541 
L 411.3288 122.779052 
L 414.6768 132.385093 
L 418.0248 141.243723 
L 421.3728 149.413095 
L 424.7208 156.946839 
L 428.0688 163.894411 
L 431.4168 170.301417 
L 434.7648 176.209918 
L 438.1128 181.6587 
L 441.4608 186.683533 
L 444.8088 191.317401 
L 448.1568 195.590726 
L 451.5048 199.531559 
L 454.8528 203.16577 
L 458.2008 206.517217 
L 462.2184 210.196559 
L 466.236 213.535101 
L 470.2536 216.564408 
L 473.6016 218.873356 
L 474.2712 212.502431 
L 474.9408 210.46988 
L 475.6104 210.895628 
L 476.9496 212.022433 
L 477.6192 205.761599 
L 478.9584 188.283061 
L 479.628 186.490644 
L 480.9672 188.248833 
L 484.3152 192.760912 
L 486.324 195.297849 
L 486.9936 189.30577 
L 487.6632 187.645978 
L 488.3328 181.627801 
L 489.672 164.918667 
L 490.3416 163.501703 
L 491.6808 165.992797 
L 493.02 168.551138 
L 493.6896 162.988865 
L 494.3592 161.751972 
L 495.0288 162.960591 
L 495.6984 157.488156 
L 496.368 156.339656 
L 498.3768 160.460034 
L 499.716 163.194763 
L 500.3856 157.718564 
L 501.0552 156.566362 
L 501.7248 157.858312 
L 502.3944 152.467867 
L 503.064 151.400041 
L 503.7336 152.775011 
L 504.4032 147.466252 
L 505.0728 146.4788 
L 505.7424 141.122158 
L 506.412 140.236652 
L 507.7512 143.469453 
L 508.4208 138.31023 
L 509.0904 137.46991 
L 509.76 139.06873 
L 510.4296 133.980224 
L 511.7688 118.79013 
L 512.4384 118.114428 
L 515.1168 126.011692 
L 515.7864 121.133006 
L 516.456 120.568715 
L 517.7952 124.428545 
L 519.1344 102.949402 
L 519.804 102.379193 
L 522.4824 111.263766 
L 523.152 106.622072 
L 523.8216 99.480271 
L 524.4912 99.114869 
L 531.1872 120.98989 
L 531.8568 116.191901 
L 532.5264 115.707012 
L 533.196 104.034164 
L 533.8656 101.169947 
L 535.2048 105.501559 
L 535.8744 107.763154 
L 536.544 103.177712 
L 537.2136 96.091261 
L 537.8832 95.780318 
L 538.5528 98.049068 
L 539.2224 93.619727 
L 539.892 93.497561 
L 546.588 116.212699 
L 549.936 126.329643 
L 553.284 135.659426 
L 556.632 144.263292 
L 559.98 152.197723 
L 563.328 159.514806 
L 566.676 166.262573 
L 570.024 172.485321 
L 573.372 178.2239 
L 576.72 183.515982 
L 580.068 188.396306 
L 583.416 192.896911 
L 586.764 197.04734 
L 590.112 200.874839 
L 593.46 204.404535 
L 596.808 207.659598 
L 600.8256 211.233126 
L 604.8432 214.475655 
L 608.8608 217.417843 
L 611.5392 219.226292 
L 612.2088 212.849696 
L 612.8784 210.811565 
L 613.548 204.421129 
L 614.2176 202.518441 
L 614.8872 196.261271 
L 615.5568 194.489707 
L 616.896 195.992881 
L 617.5656 196.800326 
L 618.2352 190.784103 
L 618.9048 189.100555 
L 620.244 190.775539 
L 622.2528 193.406658 
L 622.9224 187.444969 
L 623.592 185.815079 
L 624.2616 179.826324 
L 624.9312 178.318862 
L 625.6008 172.450567 
L 626.2704 164.250936 
L 626.94 162.844703 
L 628.2792 165.356742 
L 628.9488 159.845802 
L 629.6184 151.848723 
L 630.288 150.641787 
L 632.2968 155.03246 
L 634.3056 159.359156 
L 634.9752 153.944594 
L 635.6448 139.231651 
L 636.3144 128.842076 
L 636.984 127.855785 
L 637.6536 122.798406 
L 638.3232 122.207353 
L 639.6624 126.014941 
L 640.332 121.136203 
L 641.0016 120.571861 
L 646.3584 135.714154 
L 647.028 130.679554 
L 647.6976 129.961855 
L 649.7064 135.333541 
L 650.376 123.494365 
L 651.0456 120.317432 
L 651.7152 122.042824 
L 652.3848 117.227916 
L 653.0544 116.726378 
L 653.724 118.658535 
L 654.3936 113.898011 
L 655.0632 113.449983 
L 655.7328 108.624097 
L 656.4024 108.260818 
L 657.072 103.51832 
L 657.7416 103.237088 
L 660.42 112.067832 
L 661.0896 107.413217 
L 661.7592 107.069396 
L 666.4464 121.85414 
L 667.116 117.042264 
L 667.7856 116.543709 
L 669.1248 120.531859 
L 669.7944 115.741231 
L 670.464 115.263584 
L 671.1336 117.219248 
L 671.8032 112.481852 
L 672.4728 105.245887 
L 673.1424 104.787835 
L 679.8384 125.814413 
L 683.1864 135.184284 
L 686.5344 143.825119 
L 689.8824 151.793643 
L 693.2304 159.142165 
L 693.9 160.541783 
L 694.5696 155.108216 
L 695.2392 153.997961 
L 697.248 158.229424 
L 697.9176 152.833016 
L 698.5872 151.759322 
L 700.596 156.096982 
L 703.944 163.110677 
L 707.292 169.578663 
L 710.64 175.543398 
L 713.988 181.04404 
L 717.336 186.116697 
L 720.684 190.794669 
L 724.032 195.108666 
L 727.38 199.087006 
L 730.728 202.755807 
L 734.076 206.139151 
L 734.7456 206.783551 
L 735.4152 200.606903 
L 736.0848 198.765507 
L 737.424 200.132365 
L 738.7632 201.602311 
L 739.4328 195.508923 
L 740.1024 193.749449 
L 741.4416 195.276222 
L 742.1112 196.095184 
L 742.7808 190.090293 
L 743.4504 188.417894 
L 744.7896 190.114641 
L 748.1376 194.481548 
L 749.4768 196.131646 
L 750.1464 190.126168 
L 750.816 188.453193 
L 752.1552 190.148815 
L 754.164 192.809664 
L 754.8336 186.857569 
L 755.5032 185.237118 
L 756.1728 186.068344 
L 756.8424 180.224578 
L 757.512 178.710716 
L 758.1816 179.646817 
L 758.8512 173.906243 
L 759.5208 158.872527 
L 760.1904 154.978026 
L 760.86 149.335747 
L 761.5296 148.318252 
L 763.5384 152.819149 
L 764.8776 155.797475 
L 765.5472 150.440147 
L 766.2168 149.404905 
L 767.556 152.345416 
L 768.2256 147.04356 
L 768.8952 139.252207 
L 769.5648 138.24769 
L 770.904 141.543901 
L 771.5736 136.415621 
L 772.2432 128.795053 
L 772.9128 127.958577 
L 773.5824 122.899546 
L 774.252 122.306868 
L 775.5912 126.111284 
L 776.2608 107.609612 
L 776.9304 102.113243 
L 777.6 103.982107 
L 777.6 103.982107 
" clip-path="url(#p5978769bb2)" style="fill: none; stroke: #ff4500; stroke-width: 1.5; stroke-linecap: square"/>
   </g>
   <g id="patch_3">
    <path d="M 108 256.32 
L 108 34.56 
" style="fill: none; stroke: #000000; stroke-width: 0.8; stroke-linejoin: miter; stroke-linecap: square"/>
   </g>
   <g id="patch_4">
    <path d="M 777.6 256.32 
L 777.6 34.56 
" style="fill: none; stroke: #000000; stroke-width: 0.8; stroke-linejoin: miter; stroke-linecap: square"/>
   </g>
   <g id="patch_5">
    <path d="M 108 256.32 
L 777.6 256.32 
" style="fill: none; stroke: #000000; stroke-width: 0.8; stroke-linejoin: miter; stroke-linecap: square"/>
   </g>
   <g id="patch_6">
    <path d="M 108 34.56 
L 777.6 34.56 
" style="fill: none; stroke: #000000; stroke-width: 0.8; stroke-linejoin: miter; stroke-linecap: square"/>
   </g>
  </g>
 </g>
 <defs>
  <clipPath id="p5978769bb2">
   <rect x="108" y="34.56" width="669.6" height="221.76"/>
  </clipPath>
 </defs>
</svg>
