<?xml version="1.0" encoding="utf-8" standalone="no"?>
<!DOCTYPE svg PUBLIC "-//W3C//DTD SVG 1.1//EN"
  "http://www.w3.org/Graphics/SVG/1.1/DTD/svg11.dtd">
<svg xmlns:xlink="http://www.w3.org/1999/xlink" width="864pt" height="288pt" viewBox="0 0 864 288" xmlns="http://www.w3.org/2000/svg" version="1.1">
 <metadata>
  <rdf:RDF xmlns:dc="http://purl.org/dc/elements/1.1/" xmlns:cc="http://creativecommons.org/ns#" xmlns:rdf="http://www.w3.org/1999/02/22-rdf-syntax-ns#">
   <cc:Work>
    <dc:type rdf:resource="http://purl.org/dc/dcmitype/StillImage"/>
    <dc:date>2024-04-26T13:30:21.441886</dc:date>
    <dc:format>image/svg+xml</dc:format>
    <dc:creator>
     <cc:Agent>
      <dc:title>Matplotlib v3.8.2, https://matplotlib.org/</dc:title>
     </cc:Agent>
    </dc:creator>
   </cc:Work>
  </rdf:RDF>
 </metadata>
 <defs>
  <style type="text/css">*{stroke-linejoin: round; stroke-linecap: butt}</style>
 </defs>
 <g id="figure_1">
  <g id="patch_1">
   <path d="M 0 288 
L 864 288 
L 864 0 
L 0 0 
z
" style="fill: #ffffff"/>
  </g>
  <g id="axes_1">
   <g id="patch_2">
    <path d="M 108 256.32 
L 777.6 256.32 
L 777.6 34.56 
L 108 34.56 
z
" style="fill: #ffffff"/>
   </g>
   <g id="matplotlib.axis_1">
    <g id="xtick_1">
     <g id="line2d_1">
      <path d="M 108 256.32 
L 108 34.56 
" clip-path="url(#pd1465d7832)" style="fill: none; stroke: #b0b0b0; stroke-width: 0.8; stroke-linecap: square"/>
     </g>
     <g id="line2d_2">
      <defs>
       <path id="mcff28776e9" d="M 0 0 
L 0 3.5 
" style="stroke: #000000; stroke-width: 0.8"/>
      </defs>
      <g>
       <use xlink:href="#mcff28776e9" x="108" y="256.32" style="stroke: #000000; stroke-width: 0.8"/>
      </g>
     </g>
     <g id="text_1">
      <!-- 100 -->
      <g transform="translate(94.63875 273.957812) scale(0.14 -0.14)">
       <defs>
        <path id="DejaVuSans-31" d="M 794 531 
L 1825 531 
L 1825 4091 
L 703 3866 
L 703 4441 
L 1819 4666 
L 2450 4666 
L 2450 531 
L 3481 531 
L 3481 0 
L 794 0 
L 794 531 
z
" transform="scale(0.015625)"/>
        <path id="DejaVuSans-30" d="M 2034 4250 
Q 1547 4250 1301 3770 
Q 1056 3291 1056 2328 
Q 1056 1369 1301 889 
Q 1547 409 2034 409 
Q 2525 409 2770 889 
Q 3016 1369 3016 2328 
Q 3016 3291 2770 3770 
Q 2525 4250 2034 4250 
z
M 2034 4750 
Q 2819 4750 3233 4129 
Q 3647 3509 3647 2328 
Q 3647 1150 3233 529 
Q 2819 -91 2034 -91 
Q 1250 -91 836 529 
Q 422 1150 422 2328 
Q 422 3509 836 4129 
Q 1250 4750 2034 4750 
z
" transform="scale(0.015625)"/>
       </defs>
       <use xlink:href="#DejaVuSans-31"/>
       <use xlink:href="#DejaVuSans-30" x="63.623047"/>
       <use xlink:href="#DejaVuSans-30" x="127.246094"/>
      </g>
     </g>
    </g>
    <g id="xtick_2">
     <g id="line2d_3">
      <path d="M 241.92 256.32 
L 241.92 34.56 
" clip-path="url(#pd1465d7832)" style="fill: none; stroke: #b0b0b0; stroke-width: 0.8; stroke-linecap: square"/>
     </g>
     <g id="line2d_4">
      <g>
       <use xlink:href="#mcff28776e9" x="241.92" y="256.32" style="stroke: #000000; stroke-width: 0.8"/>
      </g>
     </g>
     <g id="text_2">
      <!-- 120 -->
      <g transform="translate(228.55875 273.957812) scale(0.14 -0.14)">
       <defs>
        <path id="DejaVuSans-32" d="M 1228 531 
L 3431 531 
L 3431 0 
L 469 0 
L 469 531 
Q 828 903 1448 1529 
Q 2069 2156 2228 2338 
Q 2531 2678 2651 2914 
Q 2772 3150 2772 3378 
Q 2772 3750 2511 3984 
Q 2250 4219 1831 4219 
Q 1534 4219 1204 4116 
Q 875 4013 500 3803 
L 500 4441 
Q 881 4594 1212 4672 
Q 1544 4750 1819 4750 
Q 2544 4750 2975 4387 
Q 3406 4025 3406 3419 
Q 3406 3131 3298 2873 
Q 3191 2616 2906 2266 
Q 2828 2175 2409 1742 
Q 1991 1309 1228 531 
z
" transform="scale(0.015625)"/>
       </defs>
       <use xlink:href="#DejaVuSans-31"/>
       <use xlink:href="#DejaVuSans-32" x="63.623047"/>
       <use xlink:href="#DejaVuSans-30" x="127.246094"/>
      </g>
     </g>
    </g>
    <g id="xtick_3">
     <g id="line2d_5">
      <path d="M 375.84 256.32 
L 375.84 34.56 
" clip-path="url(#pd1465d7832)" style="fill: none; stroke: #b0b0b0; stroke-width: 0.8; stroke-linecap: square"/>
     </g>
     <g id="line2d_6">
      <g>
       <use xlink:href="#mcff28776e9" x="375.84" y="256.32" style="stroke: #000000; stroke-width: 0.8"/>
      </g>
     </g>
     <g id="text_3">
      <!-- 140 -->
      <g transform="translate(362.47875 273.957812) scale(0.14 -0.14)">
       <defs>
        <path id="DejaVuSans-34" d="M 2419 4116 
L 825 1625 
L 2419 1625 
L 2419 4116 
z
M 2253 4666 
L 3047 4666 
L 3047 1625 
L 3713 1625 
L 3713 1100 
L 3047 1100 
L 3047 0 
L 2419 0 
L 2419 1100 
L 313 1100 
L 313 1709 
L 2253 4666 
z
" transform="scale(0.015625)"/>
       </defs>
       <use xlink:href="#DejaVuSans-31"/>
       <use xlink:href="#DejaVuSans-34" x="63.623047"/>
       <use xlink:href="#DejaVuSans-30" x="127.246094"/>
      </g>
     </g>
    </g>
    <g id="xtick_4">
     <g id="line2d_7">
      <path d="M 509.76 256.32 
L 509.76 34.56 
" clip-path="url(#pd1465d7832)" style="fill: none; stroke: #b0b0b0; stroke-width: 0.8; stroke-linecap: square"/>
     </g>
     <g id="line2d_8">
      <g>
       <use xlink:href="#mcff28776e9" x="509.76" y="256.32" style="stroke: #000000; stroke-width: 0.8"/>
      </g>
     </g>
     <g id="text_4">
      <!-- 160 -->
      <g transform="translate(496.39875 273.957812) scale(0.14 -0.14)">
       <defs>
        <path id="DejaVuSans-36" d="M 2113 2584 
Q 1688 2584 1439 2293 
Q 1191 2003 1191 1497 
Q 1191 994 1439 701 
Q 1688 409 2113 409 
Q 2538 409 2786 701 
Q 3034 994 3034 1497 
Q 3034 2003 2786 2293 
Q 2538 2584 2113 2584 
z
M 3366 4563 
L 3366 3988 
Q 3128 4100 2886 4159 
Q 2644 4219 2406 4219 
Q 1781 4219 1451 3797 
Q 1122 3375 1075 2522 
Q 1259 2794 1537 2939 
Q 1816 3084 2150 3084 
Q 2853 3084 3261 2657 
Q 3669 2231 3669 1497 
Q 3669 778 3244 343 
Q 2819 -91 2113 -91 
Q 1303 -91 875 529 
Q 447 1150 447 2328 
Q 447 3434 972 4092 
Q 1497 4750 2381 4750 
Q 2619 4750 2861 4703 
Q 3103 4656 3366 4563 
z
" transform="scale(0.015625)"/>
       </defs>
       <use xlink:href="#DejaVuSans-31"/>
       <use xlink:href="#DejaVuSans-36" x="63.623047"/>
       <use xlink:href="#DejaVuSans-30" x="127.246094"/>
      </g>
     </g>
    </g>
    <g id="xtick_5">
     <g id="line2d_9">
      <path d="M 643.68 256.32 
L 643.68 34.56 
" clip-path="url(#pd1465d7832)" style="fill: none; stroke: #b0b0b0; stroke-width: 0.8; stroke-linecap: square"/>
     </g>
     <g id="line2d_10">
      <g>
       <use xlink:href="#mcff28776e9" x="643.68" y="256.32" style="stroke: #000000; stroke-width: 0.8"/>
      </g>
     </g>
     <g id="text_5">
      <!-- 180 -->
      <g transform="translate(630.31875 273.957812) scale(0.14 -0.14)">
       <defs>
        <path id="DejaVuSans-38" d="M 2034 2216 
Q 1584 2216 1326 1975 
Q 1069 1734 1069 1313 
Q 1069 891 1326 650 
Q 1584 409 2034 409 
Q 2484 409 2743 651 
Q 3003 894 3003 1313 
Q 3003 1734 2745 1975 
Q 2488 2216 2034 2216 
z
M 1403 2484 
Q 997 2584 770 2862 
Q 544 3141 544 3541 
Q 544 4100 942 4425 
Q 1341 4750 2034 4750 
Q 2731 4750 3128 4425 
Q 3525 4100 3525 3541 
Q 3525 3141 3298 2862 
Q 3072 2584 2669 2484 
Q 3125 2378 3379 2068 
Q 3634 1759 3634 1313 
Q 3634 634 3220 271 
Q 2806 -91 2034 -91 
Q 1263 -91 848 271 
Q 434 634 434 1313 
Q 434 1759 690 2068 
Q 947 2378 1403 2484 
z
M 1172 3481 
Q 1172 3119 1398 2916 
Q 1625 2713 2034 2713 
Q 2441 2713 2670 2916 
Q 2900 3119 2900 3481 
Q 2900 3844 2670 4047 
Q 2441 4250 2034 4250 
Q 1625 4250 1398 4047 
Q 1172 3844 1172 3481 
z
" transform="scale(0.015625)"/>
       </defs>
       <use xlink:href="#DejaVuSans-31"/>
       <use xlink:href="#DejaVuSans-38" x="63.623047"/>
       <use xlink:href="#DejaVuSans-30" x="127.246094"/>
      </g>
     </g>
    </g>
    <g id="xtick_6">
     <g id="line2d_11">
      <path d="M 777.6 256.32 
L 777.6 34.56 
" clip-path="url(#pd1465d7832)" style="fill: none; stroke: #b0b0b0; stroke-width: 0.8; stroke-linecap: square"/>
     </g>
     <g id="line2d_12">
      <g>
       <use xlink:href="#mcff28776e9" x="777.6" y="256.32" style="stroke: #000000; stroke-width: 0.8"/>
      </g>
     </g>
     <g id="text_6">
      <!-- 200 -->
      <g transform="translate(764.23875 273.957812) scale(0.14 -0.14)">
       <use xlink:href="#DejaVuSans-32"/>
       <use xlink:href="#DejaVuSans-30" x="63.623047"/>
       <use xlink:href="#DejaVuSans-30" x="127.246094"/>
      </g>
     </g>
    </g>
    <g id="text_7">
     <!-- Time (ms) -->
     <g transform="translate(407.521094 291.507187) scale(0.14 -0.14)">
      <defs>
       <path id="DejaVuSans-54" d="M -19 4666 
L 3928 4666 
L 3928 4134 
L 2272 4134 
L 2272 0 
L 1638 0 
L 1638 4134 
L -19 4134 
L -19 4666 
z
" transform="scale(0.015625)"/>
       <path id="DejaVuSans-69" d="M 603 3500 
L 1178 3500 
L 1178 0 
L 603 0 
L 603 3500 
z
M 603 4863 
L 1178 4863 
L 1178 4134 
L 603 4134 
L 603 4863 
z
" transform="scale(0.015625)"/>
       <path id="DejaVuSans-6d" d="M 3328 2828 
Q 3544 3216 3844 3400 
Q 4144 3584 4550 3584 
Q 5097 3584 5394 3201 
Q 5691 2819 5691 2113 
L 5691 0 
L 5113 0 
L 5113 2094 
Q 5113 2597 4934 2840 
Q 4756 3084 4391 3084 
Q 3944 3084 3684 2787 
Q 3425 2491 3425 1978 
L 3425 0 
L 2847 0 
L 2847 2094 
Q 2847 2600 2669 2842 
Q 2491 3084 2119 3084 
Q 1678 3084 1418 2786 
Q 1159 2488 1159 1978 
L 1159 0 
L 581 0 
L 581 3500 
L 1159 3500 
L 1159 2956 
Q 1356 3278 1631 3431 
Q 1906 3584 2284 3584 
Q 2666 3584 2933 3390 
Q 3200 3197 3328 2828 
z
" transform="scale(0.015625)"/>
       <path id="DejaVuSans-65" d="M 3597 1894 
L 3597 1613 
L 953 1613 
Q 991 1019 1311 708 
Q 1631 397 2203 397 
Q 2534 397 2845 478 
Q 3156 559 3463 722 
L 3463 178 
Q 3153 47 2828 -22 
Q 2503 -91 2169 -91 
Q 1331 -91 842 396 
Q 353 884 353 1716 
Q 353 2575 817 3079 
Q 1281 3584 2069 3584 
Q 2775 3584 3186 3129 
Q 3597 2675 3597 1894 
z
M 3022 2063 
Q 3016 2534 2758 2815 
Q 2500 3097 2075 3097 
Q 1594 3097 1305 2825 
Q 1016 2553 972 2059 
L 3022 2063 
z
" transform="scale(0.015625)"/>
       <path id="DejaVuSans-20" transform="scale(0.015625)"/>
       <path id="DejaVuSans-28" d="M 1984 4856 
Q 1566 4138 1362 3434 
Q 1159 2731 1159 2009 
Q 1159 1288 1364 580 
Q 1569 -128 1984 -844 
L 1484 -844 
Q 1016 -109 783 600 
Q 550 1309 550 2009 
Q 550 2706 781 3412 
Q 1013 4119 1484 4856 
L 1984 4856 
z
" transform="scale(0.015625)"/>
       <path id="DejaVuSans-73" d="M 2834 3397 
L 2834 2853 
Q 2591 2978 2328 3040 
Q 2066 3103 1784 3103 
Q 1356 3103 1142 2972 
Q 928 2841 928 2578 
Q 928 2378 1081 2264 
Q 1234 2150 1697 2047 
L 1894 2003 
Q 2506 1872 2764 1633 
Q 3022 1394 3022 966 
Q 3022 478 2636 193 
Q 2250 -91 1575 -91 
Q 1294 -91 989 -36 
Q 684 19 347 128 
L 347 722 
Q 666 556 975 473 
Q 1284 391 1588 391 
Q 1994 391 2212 530 
Q 2431 669 2431 922 
Q 2431 1156 2273 1281 
Q 2116 1406 1581 1522 
L 1381 1569 
Q 847 1681 609 1914 
Q 372 2147 372 2553 
Q 372 3047 722 3315 
Q 1072 3584 1716 3584 
Q 2034 3584 2315 3537 
Q 2597 3491 2834 3397 
z
" transform="scale(0.015625)"/>
       <path id="DejaVuSans-29" d="M 513 4856 
L 1013 4856 
Q 1481 4119 1714 3412 
Q 1947 2706 1947 2009 
Q 1947 1309 1714 600 
Q 1481 -109 1013 -844 
L 513 -844 
Q 928 -128 1133 580 
Q 1338 1288 1338 2009 
Q 1338 2731 1133 3434 
Q 928 4138 513 4856 
z
" transform="scale(0.015625)"/>
      </defs>
      <use xlink:href="#DejaVuSans-54"/>
      <use xlink:href="#DejaVuSans-69" x="57.958984"/>
      <use xlink:href="#DejaVuSans-6d" x="85.742188"/>
      <use xlink:href="#DejaVuSans-65" x="183.154297"/>
      <use xlink:href="#DejaVuSans-20" x="244.677734"/>
      <use xlink:href="#DejaVuSans-28" x="276.464844"/>
      <use xlink:href="#DejaVuSans-6d" x="315.478516"/>
      <use xlink:href="#DejaVuSans-73" x="412.890625"/>
      <use xlink:href="#DejaVuSans-29" x="464.990234"/>
     </g>
    </g>
   </g>
   <g id="matplotlib.axis_2">
    <g id="ytick_1">
     <g id="line2d_13">
      <path d="M 108 224.199266 
L 777.6 224.199266 
" clip-path="url(#pd1465d7832)" style="fill: none; stroke: #b0b0b0; stroke-width: 0.8; stroke-linecap: square"/>
     </g>
     <g id="line2d_14">
      <defs>
       <path id="m5d91864b3d" d="M 0 0 
L -3.5 0 
" style="stroke: #000000; stroke-width: 0.8"/>
      </defs>
      <g>
       <use xlink:href="#m5d91864b3d" x="108" y="224.199266" style="stroke: #000000; stroke-width: 0.8"/>
      </g>
     </g>
     <g id="text_8">
      <!-- −60 -->
      <g transform="translate(71.453437 229.518173) scale(0.14 -0.14)">
       <defs>
        <path id="DejaVuSans-2212" d="M 678 2272 
L 4684 2272 
L 4684 1741 
L 678 1741 
L 678 2272 
z
" transform="scale(0.015625)"/>
       </defs>
       <use xlink:href="#DejaVuSans-2212"/>
       <use xlink:href="#DejaVuSans-36" x="83.789062"/>
       <use xlink:href="#DejaVuSans-30" x="147.412109"/>
      </g>
     </g>
    </g>
    <g id="ytick_2">
     <g id="line2d_15">
      <path d="M 108 180.188039 
L 777.6 180.188039 
" clip-path="url(#pd1465d7832)" style="fill: none; stroke: #b0b0b0; stroke-width: 0.8; stroke-linecap: square"/>
     </g>
     <g id="line2d_16">
      <g>
       <use xlink:href="#m5d91864b3d" x="108" y="180.188039" style="stroke: #000000; stroke-width: 0.8"/>
      </g>
     </g>
     <g id="text_9">
      <!-- −40 -->
      <g transform="translate(71.453437 185.506945) scale(0.14 -0.14)">
       <use xlink:href="#DejaVuSans-2212"/>
       <use xlink:href="#DejaVuSans-34" x="83.789062"/>
       <use xlink:href="#DejaVuSans-30" x="147.412109"/>
      </g>
     </g>
    </g>
    <g id="ytick_3">
     <g id="line2d_17">
      <path d="M 108 136.176811 
L 777.6 136.176811 
" clip-path="url(#pd1465d7832)" style="fill: none; stroke: #b0b0b0; stroke-width: 0.8; stroke-linecap: square"/>
     </g>
     <g id="line2d_18">
      <g>
       <use xlink:href="#m5d91864b3d" x="108" y="136.176811" style="stroke: #000000; stroke-width: 0.8"/>
      </g>
     </g>
     <g id="text_10">
      <!-- −20 -->
      <g transform="translate(71.453437 141.495717) scale(0.14 -0.14)">
       <use xlink:href="#DejaVuSans-2212"/>
       <use xlink:href="#DejaVuSans-32" x="83.789062"/>
       <use xlink:href="#DejaVuSans-30" x="147.412109"/>
      </g>
     </g>
    </g>
    <g id="ytick_4">
     <g id="line2d_19">
      <path d="M 108 92.165584 
L 777.6 92.165584 
" clip-path="url(#pd1465d7832)" style="fill: none; stroke: #b0b0b0; stroke-width: 0.8; stroke-linecap: square"/>
     </g>
     <g id="line2d_20">
      <g>
       <use xlink:href="#m5d91864b3d" x="108" y="92.165584" style="stroke: #000000; stroke-width: 0.8"/>
      </g>
     </g>
     <g id="text_11">
      <!-- 0 -->
      <g transform="translate(92.0925 97.48449) scale(0.14 -0.14)">
       <use xlink:href="#DejaVuSans-30"/>
      </g>
     </g>
    </g>
    <g id="ytick_5">
     <g id="line2d_21">
      <path d="M 108 48.154356 
L 777.6 48.154356 
" clip-path="url(#pd1465d7832)" style="fill: none; stroke: #b0b0b0; stroke-width: 0.8; stroke-linecap: square"/>
     </g>
     <g id="line2d_22">
      <g>
       <use xlink:href="#m5d91864b3d" x="108" y="48.154356" style="stroke: #000000; stroke-width: 0.8"/>
      </g>
     </g>
     <g id="text_12">
      <!-- 20 -->
      <g transform="translate(83.185 53.473262) scale(0.14 -0.14)">
       <use xlink:href="#DejaVuSans-32"/>
       <use xlink:href="#DejaVuSans-30" x="63.623047"/>
      </g>
     </g>
    </g>
    <g id="text_13">
     <!-- $V_{m}$ (mV) -->
     <g transform="translate(64.541875 174.49) rotate(-90) scale(0.14 -0.14)">
      <defs>
       <path id="DejaVuSans-Oblique-56" d="M 1319 0 
L 500 4666 
L 1119 4666 
L 1797 653 
L 4063 4666 
L 4750 4666 
L 2053 0 
L 1319 0 
z
" transform="scale(0.015625)"/>
       <path id="DejaVuSans-Oblique-6d" d="M 5747 2113 
L 5338 0 
L 4763 0 
L 5166 2094 
Q 5191 2228 5203 2325 
Q 5216 2422 5216 2491 
Q 5216 2772 5059 2928 
Q 4903 3084 4622 3084 
Q 4203 3084 3875 2770 
Q 3547 2456 3450 1953 
L 3066 0 
L 2491 0 
L 2900 2094 
Q 2925 2209 2937 2307 
Q 2950 2406 2950 2484 
Q 2950 2769 2794 2926 
Q 2638 3084 2363 3084 
Q 1938 3084 1609 2770 
Q 1281 2456 1184 1953 
L 800 0 
L 225 0 
L 909 3500 
L 1484 3500 
L 1375 2956 
Q 1609 3263 1923 3423 
Q 2238 3584 2597 3584 
Q 2978 3584 3223 3384 
Q 3469 3184 3519 2828 
Q 3781 3197 4126 3390 
Q 4472 3584 4856 3584 
Q 5306 3584 5551 3325 
Q 5797 3066 5797 2591 
Q 5797 2488 5784 2364 
Q 5772 2241 5747 2113 
z
" transform="scale(0.015625)"/>
       <path id="DejaVuSans-56" d="M 1831 0 
L 50 4666 
L 709 4666 
L 2188 738 
L 3669 4666 
L 4325 4666 
L 2547 0 
L 1831 0 
z
" transform="scale(0.015625)"/>
      </defs>
      <use xlink:href="#DejaVuSans-Oblique-56" transform="translate(0 0.125)"/>
      <use xlink:href="#DejaVuSans-Oblique-6d" transform="translate(68.408203 -16.28125) scale(0.7)"/>
      <use xlink:href="#DejaVuSans-20" transform="translate(139.331055 0.125)"/>
      <use xlink:href="#DejaVuSans-28" transform="translate(171.118164 0.125)"/>
      <use xlink:href="#DejaVuSans-6d" transform="translate(210.131836 0.125)"/>
      <use xlink:href="#DejaVuSans-56" transform="translate(307.543945 0.125)"/>
      <use xlink:href="#DejaVuSans-29" transform="translate(375.952148 0.125)"/>
     </g>
    </g>
   </g>
   <g id="line2d_23">
    <path d="M 108 219.401711 
L 109.3392 219.931926 
L 111.348 220.363602 
L 112.6872 221.23548 
L 114.0264 221.611442 
L 116.0352 223.095153 
L 118.044 225.51218 
L 118.7136 226.619938 
L 119.3832 227.469536 
L 120.0528 227.997214 
L 120.7224 229.030154 
L 122.7312 231.290558 
L 124.0704 232.034014 
L 125.4096 232.49279 
L 127.4184 232.901026 
L 129.4272 233.084191 
L 132.1056 233.075488 
L 134.1144 232.919515 
L 136.1232 233.671016 
L 136.7928 234.5043 
L 137.4624 235.083383 
L 138.132 235.385398 
L 138.8016 235.562014 
L 140.1408 236.250129 
L 141.48 236.507166 
L 143.4888 236.591388 
L 144.828 237.05302 
L 146.1672 237.165604 
L 148.176 237.097055 
L 149.5152 237.476994 
L 150.8544 237.520776 
L 153.5328 237.27393 
L 156.8808 236.677319 
L 160.2288 235.858398 
L 164.2464 234.640304 
L 168.9336 232.948578 
L 173.6208 231.011299 
L 178.9776 228.544185 
L 185.004 225.500077 
L 191.7 221.850356 
L 198.396 217.99051 
L 199.7352 218.029629 
L 201.0744 217.64397 
L 203.7528 216.502748 
L 205.7616 215.542379 
L 207.1008 215.735661 
L 208.44 215.47713 
L 209.7792 215.899217 
L 211.1184 215.813671 
L 213.1272 215.35204 
L 216.4752 214.267594 
L 220.4928 212.708852 
L 225.8496 210.363814 
L 227.1888 210.679838 
L 227.8584 211.617039 
L 228.528 212.342633 
L 229.1976 212.700252 
L 230.5368 212.973962 
L 231.876 212.992287 
L 232.5456 212.948722 
L 234.5544 214.259384 
L 235.8936 216.199644 
L 236.5632 217.308933 
L 239.2416 220.133199 
L 239.9112 221.071612 
L 240.5808 222.488487 
L 241.2504 223.511488 
L 241.92 224.143314 
L 243.2592 224.937533 
L 244.5984 225.442465 
L 245.9376 226.427742 
L 246.6072 226.714426 
L 247.2768 227.267866 
L 247.9464 228.046405 
L 249.9552 229.79637 
L 251.2944 230.955435 
L 252.6336 231.525212 
L 253.9728 231.852444 
L 255.312 233.15402 
L 255.9816 233.78246 
L 256.6512 234.2399 
L 257.9904 234.731018 
L 259.9992 235.072827 
L 260.6688 235.128591 
L 262.008 235.697418 
L 263.3472 235.894073 
L 264.6864 235.937251 
L 267.3648 237.034696 
L 268.704 237.221367 
L 270.7128 237.219864 
L 272.052 237.626905 
L 273.3912 237.694691 
L 276.0696 237.494848 
L 279.4176 236.961088 
L 282.096 236.37448 
L 283.4352 236.565353 
L 284.7744 236.434863 
L 287.4528 235.871371 
L 290.8008 234.929359 
L 291.4704 234.718196 
L 292.8096 234.837471 
L 294.1488 234.627183 
L 296.8272 233.901235 
L 300.8448 232.520248 
L 305.532 230.632659 
L 310.8888 228.198362 
L 316.9152 225.177601 
L 323.6112 221.545608 
L 331.6464 216.910579 
L 342.36 210.45246 
L 345.0384 208.791759 
L 346.3776 208.935398 
L 347.7168 208.621313 
L 349.7256 207.835354 
L 353.0736 206.232197 
L 354.4128 205.528844 
L 355.752 206.851033 
L 356.4216 207.147019 
L 358.4304 209.056508 
L 359.1 210.128531 
L 359.7696 210.888822 
L 360.4392 211.353241 
L 361.7784 211.872028 
L 363.1176 213.837901 
L 363.7872 214.81067 
L 364.4568 215.535284 
L 366.4656 217.033659 
L 367.1352 217.591426 
L 367.8048 217.955524 
L 369.144 219.182796 
L 369.8136 219.539406 
L 371.1528 219.881447 
L 372.492 219.928507 
L 373.8312 221.317027 
L 374.5008 222.784095 
L 375.1704 223.898927 
L 375.84 224.542249 
L 377.1792 225.296552 
L 378.5184 225.74911 
L 379.188 225.910477 
L 379.8576 226.393402 
L 381.8664 228.586841 
L 382.536 228.963898 
L 383.8752 230.027316 
L 384.5448 230.331314 
L 386.5536 231.871654 
L 387.2232 232.312776 
L 388.5624 232.792079 
L 391.2408 233.487621 
L 391.9104 234.062094 
L 392.58 234.452171 
L 393.9192 234.813985 
L 395.928 234.996222 
L 398.6064 234.929433 
L 399.9456 235.339051 
L 400.6152 235.395426 
L 401.9544 235.892441 
L 403.2936 235.997551 
L 405.972 237.069788 
L 407.3112 237.232752 
L 407.9808 237.244131 
L 409.32 237.694419 
L 410.6592 237.789258 
L 412.668 237.689023 
L 415.3464 237.342964 
L 418.6944 236.680806 
L 422.712 235.623267 
L 426.7296 234.327967 
L 428.0688 234.418785 
L 429.408 234.180703 
L 432.0864 233.403441 
L 436.104 231.956443 
L 440.7912 230.004618 
L 446.148 227.509663 
L 452.1744 224.43386 
L 458.8704 220.755458 
L 466.9056 216.084168 
L 472.932 212.464658 
L 474.2712 212.567008 
L 475.6104 212.217453 
L 476.9496 211.697054 
L 478.2888 212.029271 
L 479.628 211.869313 
L 481.6368 211.302434 
L 483.6456 210.587061 
L 484.9848 210.993071 
L 485.6544 211.480653 
L 486.324 211.822533 
L 487.6632 211.991388 
L 489.0024 211.903007 
L 490.3416 213.461634 
L 491.0112 213.821999 
L 491.6808 214.478335 
L 492.3504 215.423591 
L 493.02 216.084517 
L 493.6896 216.482391 
L 494.3592 217.178601 
L 495.0288 218.145752 
L 495.6984 218.836153 
L 497.7072 220.220657 
L 498.3768 220.735099 
L 499.716 221.30339 
L 501.0552 221.619761 
L 502.3944 222.519327 
L 503.7336 222.923167 
L 504.4032 222.999398 
L 505.7424 223.639772 
L 507.0816 223.741862 
L 507.7512 223.711228 
L 508.4208 224.03334 
L 510.4296 227.078186 
L 511.0992 227.74981 
L 512.4384 228.461677 
L 513.7776 228.846521 
L 515.1168 229.671774 
L 515.7864 230.537637 
L 516.456 231.203919 
L 517.1256 231.594947 
L 519.804 235.016498 
L 521.1432 235.737916 
L 522.4824 236.158645 
L 523.152 236.305831 
L 523.8216 236.696492 
L 524.4912 237.275687 
L 526.5 238.556729 
L 527.8392 239.408475 
L 529.1784 239.790563 
L 529.848 239.903469 
L 531.1872 240.491583 
L 532.5264 240.727723 
L 534.5352 240.831755 
L 537.2136 240.736661 
L 540.5616 240.359598 
L 543.9096 239.753486 
L 547.9272 238.771601 
L 551.9448 237.551477 
L 556.632 235.870011 
L 561.3192 233.949271 
L 566.676 231.502997 
L 572.7024 228.478939 
L 579.3984 224.839747 
L 586.764 220.571918 
L 596.1384 214.87293 
L 602.1648 211.117449 
L 603.504 211.216695 
L 604.8432 210.859738 
L 606.852 210.030401 
L 610.8696 208.065705 
L 613.548 206.620187 
L 614.8872 206.88596 
L 616.2264 206.698752 
L 618.2352 206.072289 
L 620.9136 204.953153 
L 622.9224 203.962521 
L 624.2616 204.324857 
L 624.9312 204.342153 
L 625.6008 204.811192 
L 626.2704 205.733801 
L 626.94 206.436786 
L 627.6096 206.862197 
L 628.9488 207.289946 
L 629.6184 207.386431 
L 630.288 207.940873 
L 630.9576 209.390147 
L 631.6272 210.50646 
L 632.2968 211.178667 
L 634.3056 212.657375 
L 634.9752 213.231585 
L 635.6448 213.600091 
L 636.984 214.882399 
L 637.6536 215.249712 
L 638.9928 218.365068 
L 639.6624 219.352806 
L 640.332 219.952301 
L 641.0016 220.756775 
L 641.6712 221.382866 
L 642.3408 221.801548 
L 643.0104 222.493608 
L 643.68 223.422071 
L 644.3496 224.098941 
L 645.0192 224.550956 
L 646.3584 225.809497 
L 648.3672 227.064358 
L 649.0368 227.873285 
L 649.7064 228.457851 
L 653.0544 230.391282 
L 653.724 230.917053 
L 654.3936 231.643526 
L 658.4112 234.780375 
L 659.7504 236.354494 
L 660.42 236.911502 
L 661.7592 237.537112 
L 663.0984 237.900504 
L 665.1072 238.200357 
L 668.4552 238.565591 
L 669.7944 238.840224 
L 671.8032 238.860962 
L 674.4816 238.65105 
L 677.8296 238.152655 
L 681.1776 237.446104 
L 685.1952 236.363113 
L 689.2128 235.056528 
L 693.9 233.287411 
L 695.2392 233.327072 
L 696.5784 233.03427 
L 699.2568 232.14898 
L 703.2744 230.554767 
L 707.9616 228.453568 
L 713.3184 225.814051 
L 719.3448 222.605424 
L 726.7104 218.42506 
L 736.0848 212.840921 
L 742.7808 208.724309 
L 744.12 208.867403 
L 745.4592 208.552508 
L 747.468 207.763349 
L 748.8072 208.142738 
L 750.1464 208.038076 
L 752.1552 207.516439 
L 753.4944 208.051385 
L 754.8336 208.087312 
L 756.1728 207.895238 
L 757.512 208.567932 
L 758.8512 208.717042 
L 760.1904 208.627479 
L 761.5296 209.373271 
L 762.1992 209.523418 
L 763.5384 210.508606 
L 764.8776 210.872701 
L 765.5472 210.941548 
L 766.8864 211.856305 
L 768.2256 212.201185 
L 768.8952 212.270918 
L 770.2344 214.026437 
L 770.904 214.473829 
L 771.5736 214.759333 
L 772.2432 215.365743 
L 772.9128 215.800335 
L 773.5824 216.444019 
L 774.252 216.900832 
L 775.5912 217.277861 
L 776.9304 217.394391 
L 777.6 217.833025 
L 777.6 217.833025 
" clip-path="url(#pd1465d7832)" style="fill: none; stroke: #000000; stroke-width: 1.5; stroke-linecap: square"/>
   </g>
   <g id="line2d_24">
    <path d="M 108 144.123531 
L 108.6696 144.30712 
L 110.0088 145.067796 
L 113.3568 147.291056 
L 115.3656 148.312962 
L 118.044 149.579231 
L 120.0528 150.803806 
L 122.0616 152.28709 
L 128.7576 157.70333 
L 134.1144 161.848597 
L 136.1232 163.698189 
L 137.4624 165.346887 
L 138.8016 167.426387 
L 140.1408 169.884548 
L 142.1496 174.204181 
L 144.1584 179.04101 
L 150.8544 196.018764 
L 152.8632 200.339084 
L 154.872 204.02751 
L 156.8808 207.107053 
L 158.8896 209.639498 
L 160.8984 211.692278 
L 162.9072 213.327887 
L 164.916 214.601141 
L 166.9248 215.559104 
L 168.9336 216.241896 
L 170.9424 216.683643 
L 172.9512 216.91345 
L 174.96 216.956189 
L 177.6384 216.758542 
L 180.3168 216.308253 
L 182.9952 215.640148 
L 186.3432 214.54208 
L 189.6912 213.194145 
L 193.7088 211.298348 
L 197.7264 209.147262 
L 200.4048 207.74309 
L 207.7704 204.528552 
L 209.7792 203.937353 
L 213.7968 203.230479 
L 217.8144 202.396225 
L 221.832 201.329915 
L 227.8584 199.529031 
L 229.1976 199.546892 
L 232.5456 200.103595 
L 234.5544 200.561383 
L 235.8936 201.130692 
L 236.5632 175.114927 
L 237.2328 163.175611 
L 237.9024 156.560014 
L 238.572 152.313471 
L 239.2416 149.533329 
L 239.9112 147.765676 
L 240.5808 146.753416 
L 241.2504 146.310362 
L 241.92 146.2824 
L 242.5896 146.54022 
L 243.9288 147.533636 
L 253.3032 155.923697 
L 255.9816 157.986237 
L 258.66 160.428575 
L 262.008 163.681662 
L 264.0168 165.947444 
L 266.0256 168.529181 
L 267.3648 170.575791 
L 269.3736 174.182694 
L 271.3824 178.261765 
L 274.0608 184.345723 
L 277.4088 191.994057 
L 279.4176 196.117823 
L 281.4264 199.730501 
L 283.4352 202.858698 
L 285.444 205.633188 
L 287.4528 207.988007 
L 289.4616 209.9243 
L 291.4704 211.48143 
L 294.1488 213.216064 
L 296.1576 214.287156 
L 298.1664 215.109123 
L 300.1752 215.696368 
L 302.184 216.072273 
L 304.1928 216.258828 
L 306.8712 216.246097 
L 309.5496 215.97008 
L 312.228 215.463781 
L 314.9064 214.755121 
L 318.2544 213.620606 
L 321.6024 212.245778 
L 325.62 210.324012 
L 329.6376 208.149144 
L 334.3248 205.343514 
L 339.6816 201.844927 
L 347.7168 196.410244 
L 355.0824 192.469268 
L 356.4216 192.026688 
L 357.7608 191.895795 
L 359.1 192.103468 
L 360.4392 192.665703 
L 362.448 193.818294 
L 363.7872 194.853585 
L 366.4656 197.43038 
L 369.8136 200.89599 
L 370.4832 175.135446 
L 371.1528 163.395219 
L 371.8224 156.977746 
L 372.492 152.870756 
L 373.1616 150.173762 
L 373.8312 148.442334 
L 374.5008 147.435185 
L 375.1704 146.985261 
L 375.84 146.945553 
L 376.5096 147.190905 
L 377.8488 148.160267 
L 382.536 152.44068 
L 385.2144 154.778421 
L 389.9016 158.483128 
L 392.58 160.43537 
L 395.2584 162.753923 
L 398.6064 165.910856 
L 400.6152 168.101977 
L 401.9544 169.836613 
L 403.9632 172.909987 
L 405.3024 175.309842 
L 407.3112 179.48587 
L 409.9896 185.697174 
L 413.3376 193.539422 
L 415.3464 197.722961 
L 417.3552 201.362754 
L 419.364 204.451362 
L 421.3728 207.024331 
L 423.3816 209.132348 
L 425.3904 210.82802 
L 427.3992 212.17425 
L 430.0776 213.70162 
L 432.0864 214.594783 
L 434.0952 215.246367 
L 436.104 215.676443 
L 438.1128 215.908287 
L 440.7912 215.944872 
L 443.4696 215.708269 
L 446.148 215.233679 
L 448.8264 214.550636 
L 452.1744 213.441401 
L 455.5224 212.086007 
L 459.54 210.181709 
L 463.5576 208.0195 
L 468.2448 205.224173 
L 476.28 200.299148 
L 478.2888 199.379281 
L 480.9672 198.490887 
L 484.9848 197.288024 
L 486.324 197.115122 
L 489.0024 197.162975 
L 490.3416 197.364694 
L 491.6808 197.797485 
L 493.02 198.485231 
L 495.0288 199.867842 
L 497.7072 202.19851 
L 501.7248 205.743184 
L 503.7336 207.397475 
L 504.4032 180.199401 
L 505.0728 167.828523 
L 505.7424 161.075259 
L 506.412 156.652763 
L 507.0816 153.6538 
L 507.7512 151.63056 
L 508.4208 150.317117 
L 509.0904 149.558391 
L 509.76 149.245989 
L 510.4296 149.29031 
L 511.0992 149.600872 
L 512.4384 150.685329 
L 517.7952 155.961812 
L 519.804 158.26933 
L 524.4912 164.24139 
L 525.8304 166.181818 
L 527.1696 168.398168 
L 529.1784 172.304559 
L 531.1872 176.824043 
L 533.8656 183.688098 
L 537.8832 194.150714 
L 539.892 198.790599 
L 541.9008 202.836557 
L 543.9096 206.278177 
L 545.9184 209.155598 
L 547.9272 211.526301 
L 549.936 213.449655 
L 551.9448 214.980693 
L 553.9536 216.168186 
L 555.9624 217.054504 
L 557.9712 217.676176 
L 559.98 218.064592 
L 561.9888 218.246713 
L 563.9976 218.245739 
L 566.676 217.993756 
L 569.3544 217.491433 
L 572.0328 216.771649 
L 575.3808 215.60703 
L 578.7288 214.187789 
L 582.0768 212.548331 
L 586.0944 210.329162 
L 590.112 207.871937 
L 594.7992 204.746976 
L 600.156 200.884966 
L 604.1736 197.983314 
L 609.5304 194.851673 
L 616.2264 190.992727 
L 624.2616 187.597206 
L 625.6008 187.218802 
L 626.94 187.170353 
L 628.2792 187.458225 
L 630.288 188.183766 
L 631.6272 189.005832 
L 633.636 190.804304 
L 636.3144 193.547945 
L 637.6536 195.008866 
L 638.3232 170.523357 
L 638.9928 159.547045 
L 639.6624 153.811019 
L 640.332 150.370029 
L 641.0016 148.269317 
L 641.6712 147.045289 
L 642.3408 146.421887 
L 643.0104 146.23006 
L 643.68 146.362718 
L 644.3496 146.731235 
L 645.6888 147.880382 
L 651.0456 153.223223 
L 653.724 155.406926 
L 656.4024 157.572063 
L 658.4112 159.365366 
L 659.7504 160.790214 
L 661.7592 163.411751 
L 663.768 166.418959 
L 665.7768 169.775126 
L 667.7856 173.525824 
L 669.7944 177.783631 
L 673.1424 185.739637 
L 676.4904 193.538278 
L 678.4992 197.673731 
L 680.508 201.27011 
L 682.5168 204.320874 
L 684.5256 206.860822 
L 686.5344 208.939789 
L 688.5432 210.609674 
L 690.552 211.918973 
L 692.5608 212.910955 
L 694.5696 213.637624 
L 697.9176 214.624548 
L 699.9264 214.999535 
L 701.9352 215.189176 
L 704.6136 215.180494 
L 707.292 214.90778 
L 709.9704 214.403594 
L 712.6488 213.695121 
L 715.9968 212.556971 
L 719.3448 211.173112 
L 723.3624 209.232204 
L 727.38 207.028221 
L 732.0672 204.175081 
L 736.7544 201.065582 
L 742.1112 197.238644 
L 744.12 195.813221 
L 746.7984 194.266273 
L 748.8072 193.252381 
L 751.4856 192.295017 
L 753.4944 191.739 
L 755.5032 191.462124 
L 757.512 191.358971 
L 760.1904 191.605404 
L 762.1992 192.004973 
L 763.5384 192.458094 
L 766.2168 193.673696 
L 769.5648 195.553707 
L 771.5736 197.029474 
L 772.2432 171.942968 
L 772.9128 160.472639 
L 773.5824 154.236134 
L 774.252 150.313839 
L 774.9216 147.761473 
L 775.5912 146.107039 
L 776.2608 145.071899 
L 776.9304 144.47407 
L 777.6 144.202342 
L 777.6 144.202342 
" clip-path="url(#pd1465d7832)" style="fill: none; stroke: #4169e1; stroke-width: 1.5; stroke-linecap: square"/>
   </g>
   <g id="patch_3">
    <path d="M 108 256.32 
L 108 34.56 
" style="fill: none; stroke: #000000; stroke-width: 0.8; stroke-linejoin: miter; stroke-linecap: square"/>
   </g>
   <g id="patch_4">
    <path d="M 777.6 256.32 
L 777.6 34.56 
" style="fill: none; stroke: #000000; stroke-width: 0.8; stroke-linejoin: miter; stroke-linecap: square"/>
   </g>
   <g id="patch_5">
    <path d="M 108 256.32 
L 777.6 256.32 
" style="fill: none; stroke: #000000; stroke-width: 0.8; stroke-linejoin: miter; stroke-linecap: square"/>
   </g>
   <g id="patch_6">
    <path d="M 108 34.56 
L 777.6 34.56 
" style="fill: none; stroke: #000000; stroke-width: 0.8; stroke-linejoin: miter; stroke-linecap: square"/>
   </g>
   <g id="legend_1">
    <g id="patch_7">
     <path d="M 695.098438 71.91625 
L 770.6 71.91625 
Q 772.6 71.91625 772.6 69.91625 
L 772.6 41.56 
Q 772.6 39.56 770.6 39.56 
L 695.098438 39.56 
Q 693.098438 39.56 693.098438 41.56 
L 693.098438 69.91625 
Q 693.098438 71.91625 695.098438 71.91625 
z
" style="fill: #ffffff; opacity: 0.8; stroke: #cccccc; stroke-linejoin: miter"/>
    </g>
    <g id="line2d_25">
     <path d="M 697.098438 47.658437 
L 707.098438 47.658437 
L 717.098438 47.658437 
" style="fill: none; stroke: #000000; stroke-width: 1.5; stroke-linecap: square"/>
    </g>
    <g id="text_14">
     <!-- Soma -->
     <g transform="translate(725.098438 51.158437) scale(0.1 -0.1)">
      <defs>
       <path id="DejaVuSans-53" d="M 3425 4513 
L 3425 3897 
Q 3066 4069 2747 4153 
Q 2428 4238 2131 4238 
Q 1616 4238 1336 4038 
Q 1056 3838 1056 3469 
Q 1056 3159 1242 3001 
Q 1428 2844 1947 2747 
L 2328 2669 
Q 3034 2534 3370 2195 
Q 3706 1856 3706 1288 
Q 3706 609 3251 259 
Q 2797 -91 1919 -91 
Q 1588 -91 1214 -16 
Q 841 59 441 206 
L 441 856 
Q 825 641 1194 531 
Q 1563 422 1919 422 
Q 2459 422 2753 634 
Q 3047 847 3047 1241 
Q 3047 1584 2836 1778 
Q 2625 1972 2144 2069 
L 1759 2144 
Q 1053 2284 737 2584 
Q 422 2884 422 3419 
Q 422 4038 858 4394 
Q 1294 4750 2059 4750 
Q 2388 4750 2728 4690 
Q 3069 4631 3425 4513 
z
" transform="scale(0.015625)"/>
       <path id="DejaVuSans-6f" d="M 1959 3097 
Q 1497 3097 1228 2736 
Q 959 2375 959 1747 
Q 959 1119 1226 758 
Q 1494 397 1959 397 
Q 2419 397 2687 759 
Q 2956 1122 2956 1747 
Q 2956 2369 2687 2733 
Q 2419 3097 1959 3097 
z
M 1959 3584 
Q 2709 3584 3137 3096 
Q 3566 2609 3566 1747 
Q 3566 888 3137 398 
Q 2709 -91 1959 -91 
Q 1206 -91 779 398 
Q 353 888 353 1747 
Q 353 2609 779 3096 
Q 1206 3584 1959 3584 
z
" transform="scale(0.015625)"/>
       <path id="DejaVuSans-61" d="M 2194 1759 
Q 1497 1759 1228 1600 
Q 959 1441 959 1056 
Q 959 750 1161 570 
Q 1363 391 1709 391 
Q 2188 391 2477 730 
Q 2766 1069 2766 1631 
L 2766 1759 
L 2194 1759 
z
M 3341 1997 
L 3341 0 
L 2766 0 
L 2766 531 
Q 2569 213 2275 61 
Q 1981 -91 1556 -91 
Q 1019 -91 701 211 
Q 384 513 384 1019 
Q 384 1609 779 1909 
Q 1175 2209 1959 2209 
L 2766 2209 
L 2766 2266 
Q 2766 2663 2505 2880 
Q 2244 3097 1772 3097 
Q 1472 3097 1187 3025 
Q 903 2953 641 2809 
L 641 3341 
Q 956 3463 1253 3523 
Q 1550 3584 1831 3584 
Q 2591 3584 2966 3190 
Q 3341 2797 3341 1997 
z
" transform="scale(0.015625)"/>
      </defs>
      <use xlink:href="#DejaVuSans-53"/>
      <use xlink:href="#DejaVuSans-6f" x="63.476562"/>
      <use xlink:href="#DejaVuSans-6d" x="124.658203"/>
      <use xlink:href="#DejaVuSans-61" x="222.070312"/>
     </g>
    </g>
    <g id="line2d_26">
     <path d="M 697.098438 62.336562 
L 707.098438 62.336562 
L 717.098438 62.336562 
" style="fill: none; stroke: #4169e1; stroke-width: 1.5; stroke-linecap: square"/>
    </g>
    <g id="text_15">
     <!-- Dendrite -->
     <g transform="translate(725.098438 65.836562) scale(0.1 -0.1)">
      <defs>
       <path id="DejaVuSans-44" d="M 1259 4147 
L 1259 519 
L 2022 519 
Q 2988 519 3436 956 
Q 3884 1394 3884 2338 
Q 3884 3275 3436 3711 
Q 2988 4147 2022 4147 
L 1259 4147 
z
M 628 4666 
L 1925 4666 
Q 3281 4666 3915 4102 
Q 4550 3538 4550 2338 
Q 4550 1131 3912 565 
Q 3275 0 1925 0 
L 628 0 
L 628 4666 
z
" transform="scale(0.015625)"/>
       <path id="DejaVuSans-6e" d="M 3513 2113 
L 3513 0 
L 2938 0 
L 2938 2094 
Q 2938 2591 2744 2837 
Q 2550 3084 2163 3084 
Q 1697 3084 1428 2787 
Q 1159 2491 1159 1978 
L 1159 0 
L 581 0 
L 581 3500 
L 1159 3500 
L 1159 2956 
Q 1366 3272 1645 3428 
Q 1925 3584 2291 3584 
Q 2894 3584 3203 3211 
Q 3513 2838 3513 2113 
z
" transform="scale(0.015625)"/>
       <path id="DejaVuSans-64" d="M 2906 2969 
L 2906 4863 
L 3481 4863 
L 3481 0 
L 2906 0 
L 2906 525 
Q 2725 213 2448 61 
Q 2172 -91 1784 -91 
Q 1150 -91 751 415 
Q 353 922 353 1747 
Q 353 2572 751 3078 
Q 1150 3584 1784 3584 
Q 2172 3584 2448 3432 
Q 2725 3281 2906 2969 
z
M 947 1747 
Q 947 1113 1208 752 
Q 1469 391 1925 391 
Q 2381 391 2643 752 
Q 2906 1113 2906 1747 
Q 2906 2381 2643 2742 
Q 2381 3103 1925 3103 
Q 1469 3103 1208 2742 
Q 947 2381 947 1747 
z
" transform="scale(0.015625)"/>
       <path id="DejaVuSans-72" d="M 2631 2963 
Q 2534 3019 2420 3045 
Q 2306 3072 2169 3072 
Q 1681 3072 1420 2755 
Q 1159 2438 1159 1844 
L 1159 0 
L 581 0 
L 581 3500 
L 1159 3500 
L 1159 2956 
Q 1341 3275 1631 3429 
Q 1922 3584 2338 3584 
Q 2397 3584 2469 3576 
Q 2541 3569 2628 3553 
L 2631 2963 
z
" transform="scale(0.015625)"/>
       <path id="DejaVuSans-74" d="M 1172 4494 
L 1172 3500 
L 2356 3500 
L 2356 3053 
L 1172 3053 
L 1172 1153 
Q 1172 725 1289 603 
Q 1406 481 1766 481 
L 2356 481 
L 2356 0 
L 1766 0 
Q 1100 0 847 248 
Q 594 497 594 1153 
L 594 3053 
L 172 3053 
L 172 3500 
L 594 3500 
L 594 4494 
L 1172 4494 
z
" transform="scale(0.015625)"/>
      </defs>
      <use xlink:href="#DejaVuSans-44"/>
      <use xlink:href="#DejaVuSans-65" x="77.001953"/>
      <use xlink:href="#DejaVuSans-6e" x="138.525391"/>
      <use xlink:href="#DejaVuSans-64" x="201.904297"/>
      <use xlink:href="#DejaVuSans-72" x="265.380859"/>
      <use xlink:href="#DejaVuSans-69" x="306.494141"/>
      <use xlink:href="#DejaVuSans-74" x="334.277344"/>
      <use xlink:href="#DejaVuSans-65" x="373.486328"/>
     </g>
    </g>
   </g>
  </g>
 </g>
 <defs>
  <clipPath id="pd1465d7832">
   <rect x="108" y="34.56" width="669.6" height="221.76"/>
  </clipPath>
 </defs>
</svg>
