<?xml version="1.0" encoding="utf-8" standalone="no"?>
<!DOCTYPE svg PUBLIC "-//W3C//DTD SVG 1.1//EN"
  "http://www.w3.org/Graphics/SVG/1.1/DTD/svg11.dtd">
<svg xmlns:xlink="http://www.w3.org/1999/xlink" width="864pt" height="288pt" viewBox="0 0 864 288" xmlns="http://www.w3.org/2000/svg" version="1.1">
 <metadata>
  <rdf:RDF xmlns:dc="http://purl.org/dc/elements/1.1/" xmlns:cc="http://creativecommons.org/ns#" xmlns:rdf="http://www.w3.org/1999/02/22-rdf-syntax-ns#">
   <cc:Work>
    <dc:type rdf:resource="http://purl.org/dc/dcmitype/StillImage"/>
    <dc:date>2024-04-26T13:28:57.550316</dc:date>
    <dc:format>image/svg+xml</dc:format>
    <dc:creator>
     <cc:Agent>
      <dc:title>Matplotlib v3.8.2, https://matplotlib.org/</dc:title>
     </cc:Agent>
    </dc:creator>
   </cc:Work>
  </rdf:RDF>
 </metadata>
 <defs>
  <style type="text/css">*{stroke-linejoin: round; stroke-linecap: butt}</style>
 </defs>
 <g id="figure_1">
  <g id="patch_1">
   <path d="M 0 288 
L 864 288 
L 864 0 
L 0 0 
z
" style="fill: #ffffff"/>
  </g>
  <g id="axes_1">
   <g id="patch_2">
    <path d="M 108 256.32 
L 777.6 256.32 
L 777.6 34.56 
L 108 34.56 
z
" style="fill: #ffffff"/>
   </g>
   <g id="matplotlib.axis_1">
    <g id="xtick_1">
     <g id="line2d_1">
      <path d="M 108 256.32 
L 108 34.56 
" clip-path="url(#pa62f484443)" style="fill: none; stroke: #b0b0b0; stroke-width: 0.8; stroke-linecap: square"/>
     </g>
     <g id="line2d_2">
      <defs>
       <path id="m843e733d7c" d="M 0 0 
L 0 3.5 
" style="stroke: #000000; stroke-width: 0.8"/>
      </defs>
      <g>
       <use xlink:href="#m843e733d7c" x="108" y="256.32" style="stroke: #000000; stroke-width: 0.8"/>
      </g>
     </g>
     <g id="text_1">
      <!-- 100 -->
      <g transform="translate(94.63875 273.957812) scale(0.14 -0.14)">
       <defs>
        <path id="DejaVuSans-31" d="M 794 531 
L 1825 531 
L 1825 4091 
L 703 3866 
L 703 4441 
L 1819 4666 
L 2450 4666 
L 2450 531 
L 3481 531 
L 3481 0 
L 794 0 
L 794 531 
z
" transform="scale(0.015625)"/>
        <path id="DejaVuSans-30" d="M 2034 4250 
Q 1547 4250 1301 3770 
Q 1056 3291 1056 2328 
Q 1056 1369 1301 889 
Q 1547 409 2034 409 
Q 2525 409 2770 889 
Q 3016 1369 3016 2328 
Q 3016 3291 2770 3770 
Q 2525 4250 2034 4250 
z
M 2034 4750 
Q 2819 4750 3233 4129 
Q 3647 3509 3647 2328 
Q 3647 1150 3233 529 
Q 2819 -91 2034 -91 
Q 1250 -91 836 529 
Q 422 1150 422 2328 
Q 422 3509 836 4129 
Q 1250 4750 2034 4750 
z
" transform="scale(0.015625)"/>
       </defs>
       <use xlink:href="#DejaVuSans-31"/>
       <use xlink:href="#DejaVuSans-30" x="63.623047"/>
       <use xlink:href="#DejaVuSans-30" x="127.246094"/>
      </g>
     </g>
    </g>
    <g id="xtick_2">
     <g id="line2d_3">
      <path d="M 241.92 256.32 
L 241.92 34.56 
" clip-path="url(#pa62f484443)" style="fill: none; stroke: #b0b0b0; stroke-width: 0.8; stroke-linecap: square"/>
     </g>
     <g id="line2d_4">
      <g>
       <use xlink:href="#m843e733d7c" x="241.92" y="256.32" style="stroke: #000000; stroke-width: 0.8"/>
      </g>
     </g>
     <g id="text_2">
      <!-- 120 -->
      <g transform="translate(228.55875 273.957812) scale(0.14 -0.14)">
       <defs>
        <path id="DejaVuSans-32" d="M 1228 531 
L 3431 531 
L 3431 0 
L 469 0 
L 469 531 
Q 828 903 1448 1529 
Q 2069 2156 2228 2338 
Q 2531 2678 2651 2914 
Q 2772 3150 2772 3378 
Q 2772 3750 2511 3984 
Q 2250 4219 1831 4219 
Q 1534 4219 1204 4116 
Q 875 4013 500 3803 
L 500 4441 
Q 881 4594 1212 4672 
Q 1544 4750 1819 4750 
Q 2544 4750 2975 4387 
Q 3406 4025 3406 3419 
Q 3406 3131 3298 2873 
Q 3191 2616 2906 2266 
Q 2828 2175 2409 1742 
Q 1991 1309 1228 531 
z
" transform="scale(0.015625)"/>
       </defs>
       <use xlink:href="#DejaVuSans-31"/>
       <use xlink:href="#DejaVuSans-32" x="63.623047"/>
       <use xlink:href="#DejaVuSans-30" x="127.246094"/>
      </g>
     </g>
    </g>
    <g id="xtick_3">
     <g id="line2d_5">
      <path d="M 375.84 256.32 
L 375.84 34.56 
" clip-path="url(#pa62f484443)" style="fill: none; stroke: #b0b0b0; stroke-width: 0.8; stroke-linecap: square"/>
     </g>
     <g id="line2d_6">
      <g>
       <use xlink:href="#m843e733d7c" x="375.84" y="256.32" style="stroke: #000000; stroke-width: 0.8"/>
      </g>
     </g>
     <g id="text_3">
      <!-- 140 -->
      <g transform="translate(362.47875 273.957812) scale(0.14 -0.14)">
       <defs>
        <path id="DejaVuSans-34" d="M 2419 4116 
L 825 1625 
L 2419 1625 
L 2419 4116 
z
M 2253 4666 
L 3047 4666 
L 3047 1625 
L 3713 1625 
L 3713 1100 
L 3047 1100 
L 3047 0 
L 2419 0 
L 2419 1100 
L 313 1100 
L 313 1709 
L 2253 4666 
z
" transform="scale(0.015625)"/>
       </defs>
       <use xlink:href="#DejaVuSans-31"/>
       <use xlink:href="#DejaVuSans-34" x="63.623047"/>
       <use xlink:href="#DejaVuSans-30" x="127.246094"/>
      </g>
     </g>
    </g>
    <g id="xtick_4">
     <g id="line2d_7">
      <path d="M 509.76 256.32 
L 509.76 34.56 
" clip-path="url(#pa62f484443)" style="fill: none; stroke: #b0b0b0; stroke-width: 0.8; stroke-linecap: square"/>
     </g>
     <g id="line2d_8">
      <g>
       <use xlink:href="#m843e733d7c" x="509.76" y="256.32" style="stroke: #000000; stroke-width: 0.8"/>
      </g>
     </g>
     <g id="text_4">
      <!-- 160 -->
      <g transform="translate(496.39875 273.957812) scale(0.14 -0.14)">
       <defs>
        <path id="DejaVuSans-36" d="M 2113 2584 
Q 1688 2584 1439 2293 
Q 1191 2003 1191 1497 
Q 1191 994 1439 701 
Q 1688 409 2113 409 
Q 2538 409 2786 701 
Q 3034 994 3034 1497 
Q 3034 2003 2786 2293 
Q 2538 2584 2113 2584 
z
M 3366 4563 
L 3366 3988 
Q 3128 4100 2886 4159 
Q 2644 4219 2406 4219 
Q 1781 4219 1451 3797 
Q 1122 3375 1075 2522 
Q 1259 2794 1537 2939 
Q 1816 3084 2150 3084 
Q 2853 3084 3261 2657 
Q 3669 2231 3669 1497 
Q 3669 778 3244 343 
Q 2819 -91 2113 -91 
Q 1303 -91 875 529 
Q 447 1150 447 2328 
Q 447 3434 972 4092 
Q 1497 4750 2381 4750 
Q 2619 4750 2861 4703 
Q 3103 4656 3366 4563 
z
" transform="scale(0.015625)"/>
       </defs>
       <use xlink:href="#DejaVuSans-31"/>
       <use xlink:href="#DejaVuSans-36" x="63.623047"/>
       <use xlink:href="#DejaVuSans-30" x="127.246094"/>
      </g>
     </g>
    </g>
    <g id="xtick_5">
     <g id="line2d_9">
      <path d="M 643.68 256.32 
L 643.68 34.56 
" clip-path="url(#pa62f484443)" style="fill: none; stroke: #b0b0b0; stroke-width: 0.8; stroke-linecap: square"/>
     </g>
     <g id="line2d_10">
      <g>
       <use xlink:href="#m843e733d7c" x="643.68" y="256.32" style="stroke: #000000; stroke-width: 0.8"/>
      </g>
     </g>
     <g id="text_5">
      <!-- 180 -->
      <g transform="translate(630.31875 273.957812) scale(0.14 -0.14)">
       <defs>
        <path id="DejaVuSans-38" d="M 2034 2216 
Q 1584 2216 1326 1975 
Q 1069 1734 1069 1313 
Q 1069 891 1326 650 
Q 1584 409 2034 409 
Q 2484 409 2743 651 
Q 3003 894 3003 1313 
Q 3003 1734 2745 1975 
Q 2488 2216 2034 2216 
z
M 1403 2484 
Q 997 2584 770 2862 
Q 544 3141 544 3541 
Q 544 4100 942 4425 
Q 1341 4750 2034 4750 
Q 2731 4750 3128 4425 
Q 3525 4100 3525 3541 
Q 3525 3141 3298 2862 
Q 3072 2584 2669 2484 
Q 3125 2378 3379 2068 
Q 3634 1759 3634 1313 
Q 3634 634 3220 271 
Q 2806 -91 2034 -91 
Q 1263 -91 848 271 
Q 434 634 434 1313 
Q 434 1759 690 2068 
Q 947 2378 1403 2484 
z
M 1172 3481 
Q 1172 3119 1398 2916 
Q 1625 2713 2034 2713 
Q 2441 2713 2670 2916 
Q 2900 3119 2900 3481 
Q 2900 3844 2670 4047 
Q 2441 4250 2034 4250 
Q 1625 4250 1398 4047 
Q 1172 3844 1172 3481 
z
" transform="scale(0.015625)"/>
       </defs>
       <use xlink:href="#DejaVuSans-31"/>
       <use xlink:href="#DejaVuSans-38" x="63.623047"/>
       <use xlink:href="#DejaVuSans-30" x="127.246094"/>
      </g>
     </g>
    </g>
    <g id="xtick_6">
     <g id="line2d_11">
      <path d="M 777.6 256.32 
L 777.6 34.56 
" clip-path="url(#pa62f484443)" style="fill: none; stroke: #b0b0b0; stroke-width: 0.8; stroke-linecap: square"/>
     </g>
     <g id="line2d_12">
      <g>
       <use xlink:href="#m843e733d7c" x="777.6" y="256.32" style="stroke: #000000; stroke-width: 0.8"/>
      </g>
     </g>
     <g id="text_6">
      <!-- 200 -->
      <g transform="translate(764.23875 273.957812) scale(0.14 -0.14)">
       <use xlink:href="#DejaVuSans-32"/>
       <use xlink:href="#DejaVuSans-30" x="63.623047"/>
       <use xlink:href="#DejaVuSans-30" x="127.246094"/>
      </g>
     </g>
    </g>
    <g id="text_7">
     <!-- Time (ms) -->
     <g transform="translate(407.521094 291.507187) scale(0.14 -0.14)">
      <defs>
       <path id="DejaVuSans-54" d="M -19 4666 
L 3928 4666 
L 3928 4134 
L 2272 4134 
L 2272 0 
L 1638 0 
L 1638 4134 
L -19 4134 
L -19 4666 
z
" transform="scale(0.015625)"/>
       <path id="DejaVuSans-69" d="M 603 3500 
L 1178 3500 
L 1178 0 
L 603 0 
L 603 3500 
z
M 603 4863 
L 1178 4863 
L 1178 4134 
L 603 4134 
L 603 4863 
z
" transform="scale(0.015625)"/>
       <path id="DejaVuSans-6d" d="M 3328 2828 
Q 3544 3216 3844 3400 
Q 4144 3584 4550 3584 
Q 5097 3584 5394 3201 
Q 5691 2819 5691 2113 
L 5691 0 
L 5113 0 
L 5113 2094 
Q 5113 2597 4934 2840 
Q 4756 3084 4391 3084 
Q 3944 3084 3684 2787 
Q 3425 2491 3425 1978 
L 3425 0 
L 2847 0 
L 2847 2094 
Q 2847 2600 2669 2842 
Q 2491 3084 2119 3084 
Q 1678 3084 1418 2786 
Q 1159 2488 1159 1978 
L 1159 0 
L 581 0 
L 581 3500 
L 1159 3500 
L 1159 2956 
Q 1356 3278 1631 3431 
Q 1906 3584 2284 3584 
Q 2666 3584 2933 3390 
Q 3200 3197 3328 2828 
z
" transform="scale(0.015625)"/>
       <path id="DejaVuSans-65" d="M 3597 1894 
L 3597 1613 
L 953 1613 
Q 991 1019 1311 708 
Q 1631 397 2203 397 
Q 2534 397 2845 478 
Q 3156 559 3463 722 
L 3463 178 
Q 3153 47 2828 -22 
Q 2503 -91 2169 -91 
Q 1331 -91 842 396 
Q 353 884 353 1716 
Q 353 2575 817 3079 
Q 1281 3584 2069 3584 
Q 2775 3584 3186 3129 
Q 3597 2675 3597 1894 
z
M 3022 2063 
Q 3016 2534 2758 2815 
Q 2500 3097 2075 3097 
Q 1594 3097 1305 2825 
Q 1016 2553 972 2059 
L 3022 2063 
z
" transform="scale(0.015625)"/>
       <path id="DejaVuSans-20" transform="scale(0.015625)"/>
       <path id="DejaVuSans-28" d="M 1984 4856 
Q 1566 4138 1362 3434 
Q 1159 2731 1159 2009 
Q 1159 1288 1364 580 
Q 1569 -128 1984 -844 
L 1484 -844 
Q 1016 -109 783 600 
Q 550 1309 550 2009 
Q 550 2706 781 3412 
Q 1013 4119 1484 4856 
L 1984 4856 
z
" transform="scale(0.015625)"/>
       <path id="DejaVuSans-73" d="M 2834 3397 
L 2834 2853 
Q 2591 2978 2328 3040 
Q 2066 3103 1784 3103 
Q 1356 3103 1142 2972 
Q 928 2841 928 2578 
Q 928 2378 1081 2264 
Q 1234 2150 1697 2047 
L 1894 2003 
Q 2506 1872 2764 1633 
Q 3022 1394 3022 966 
Q 3022 478 2636 193 
Q 2250 -91 1575 -91 
Q 1294 -91 989 -36 
Q 684 19 347 128 
L 347 722 
Q 666 556 975 473 
Q 1284 391 1588 391 
Q 1994 391 2212 530 
Q 2431 669 2431 922 
Q 2431 1156 2273 1281 
Q 2116 1406 1581 1522 
L 1381 1569 
Q 847 1681 609 1914 
Q 372 2147 372 2553 
Q 372 3047 722 3315 
Q 1072 3584 1716 3584 
Q 2034 3584 2315 3537 
Q 2597 3491 2834 3397 
z
" transform="scale(0.015625)"/>
       <path id="DejaVuSans-29" d="M 513 4856 
L 1013 4856 
Q 1481 4119 1714 3412 
Q 1947 2706 1947 2009 
Q 1947 1309 1714 600 
Q 1481 -109 1013 -844 
L 513 -844 
Q 928 -128 1133 580 
Q 1338 1288 1338 2009 
Q 1338 2731 1133 3434 
Q 928 4138 513 4856 
z
" transform="scale(0.015625)"/>
      </defs>
      <use xlink:href="#DejaVuSans-54"/>
      <use xlink:href="#DejaVuSans-69" x="57.958984"/>
      <use xlink:href="#DejaVuSans-6d" x="85.742188"/>
      <use xlink:href="#DejaVuSans-65" x="183.154297"/>
      <use xlink:href="#DejaVuSans-20" x="244.677734"/>
      <use xlink:href="#DejaVuSans-28" x="276.464844"/>
      <use xlink:href="#DejaVuSans-6d" x="315.478516"/>
      <use xlink:href="#DejaVuSans-73" x="412.890625"/>
      <use xlink:href="#DejaVuSans-29" x="464.990234"/>
     </g>
    </g>
   </g>
   <g id="matplotlib.axis_2">
    <g id="ytick_1">
     <g id="line2d_13">
      <path d="M 108 225.220634 
L 777.6 225.220634 
" clip-path="url(#pa62f484443)" style="fill: none; stroke: #b0b0b0; stroke-width: 0.8; stroke-linecap: square"/>
     </g>
     <g id="line2d_14">
      <defs>
       <path id="maeae0f2a74" d="M 0 0 
L -3.5 0 
" style="stroke: #000000; stroke-width: 0.8"/>
      </defs>
      <g>
       <use xlink:href="#maeae0f2a74" x="108" y="225.220634" style="stroke: #000000; stroke-width: 0.8"/>
      </g>
     </g>
     <g id="text_8">
      <!-- −60 -->
      <g transform="translate(71.453437 230.539541) scale(0.14 -0.14)">
       <defs>
        <path id="DejaVuSans-2212" d="M 678 2272 
L 4684 2272 
L 4684 1741 
L 678 1741 
L 678 2272 
z
" transform="scale(0.015625)"/>
       </defs>
       <use xlink:href="#DejaVuSans-2212"/>
       <use xlink:href="#DejaVuSans-36" x="83.789062"/>
       <use xlink:href="#DejaVuSans-30" x="147.412109"/>
      </g>
     </g>
    </g>
    <g id="ytick_2">
     <g id="line2d_15">
      <path d="M 108 183.248888 
L 777.6 183.248888 
" clip-path="url(#pa62f484443)" style="fill: none; stroke: #b0b0b0; stroke-width: 0.8; stroke-linecap: square"/>
     </g>
     <g id="line2d_16">
      <g>
       <use xlink:href="#maeae0f2a74" x="108" y="183.248888" style="stroke: #000000; stroke-width: 0.8"/>
      </g>
     </g>
     <g id="text_9">
      <!-- −40 -->
      <g transform="translate(71.453437 188.567795) scale(0.14 -0.14)">
       <use xlink:href="#DejaVuSans-2212"/>
       <use xlink:href="#DejaVuSans-34" x="83.789062"/>
       <use xlink:href="#DejaVuSans-30" x="147.412109"/>
      </g>
     </g>
    </g>
    <g id="ytick_3">
     <g id="line2d_17">
      <path d="M 108 141.277142 
L 777.6 141.277142 
" clip-path="url(#pa62f484443)" style="fill: none; stroke: #b0b0b0; stroke-width: 0.8; stroke-linecap: square"/>
     </g>
     <g id="line2d_18">
      <g>
       <use xlink:href="#maeae0f2a74" x="108" y="141.277142" style="stroke: #000000; stroke-width: 0.8"/>
      </g>
     </g>
     <g id="text_10">
      <!-- −20 -->
      <g transform="translate(71.453437 146.596049) scale(0.14 -0.14)">
       <use xlink:href="#DejaVuSans-2212"/>
       <use xlink:href="#DejaVuSans-32" x="83.789062"/>
       <use xlink:href="#DejaVuSans-30" x="147.412109"/>
      </g>
     </g>
    </g>
    <g id="ytick_4">
     <g id="line2d_19">
      <path d="M 108 99.305396 
L 777.6 99.305396 
" clip-path="url(#pa62f484443)" style="fill: none; stroke: #b0b0b0; stroke-width: 0.8; stroke-linecap: square"/>
     </g>
     <g id="line2d_20">
      <g>
       <use xlink:href="#maeae0f2a74" x="108" y="99.305396" style="stroke: #000000; stroke-width: 0.8"/>
      </g>
     </g>
     <g id="text_11">
      <!-- 0 -->
      <g transform="translate(92.0925 104.624302) scale(0.14 -0.14)">
       <use xlink:href="#DejaVuSans-30"/>
      </g>
     </g>
    </g>
    <g id="ytick_5">
     <g id="line2d_21">
      <path d="M 108 57.33365 
L 777.6 57.33365 
" clip-path="url(#pa62f484443)" style="fill: none; stroke: #b0b0b0; stroke-width: 0.8; stroke-linecap: square"/>
     </g>
     <g id="line2d_22">
      <g>
       <use xlink:href="#maeae0f2a74" x="108" y="57.33365" style="stroke: #000000; stroke-width: 0.8"/>
      </g>
     </g>
     <g id="text_12">
      <!-- 20 -->
      <g transform="translate(83.185 62.652556) scale(0.14 -0.14)">
       <use xlink:href="#DejaVuSans-32"/>
       <use xlink:href="#DejaVuSans-30" x="63.623047"/>
      </g>
     </g>
    </g>
    <g id="text_13">
     <!-- $V_{m}$ (mV) -->
     <g transform="translate(64.541875 174.49) rotate(-90) scale(0.14 -0.14)">
      <defs>
       <path id="DejaVuSans-Oblique-56" d="M 1319 0 
L 500 4666 
L 1119 4666 
L 1797 653 
L 4063 4666 
L 4750 4666 
L 2053 0 
L 1319 0 
z
" transform="scale(0.015625)"/>
       <path id="DejaVuSans-Oblique-6d" d="M 5747 2113 
L 5338 0 
L 4763 0 
L 5166 2094 
Q 5191 2228 5203 2325 
Q 5216 2422 5216 2491 
Q 5216 2772 5059 2928 
Q 4903 3084 4622 3084 
Q 4203 3084 3875 2770 
Q 3547 2456 3450 1953 
L 3066 0 
L 2491 0 
L 2900 2094 
Q 2925 2209 2937 2307 
Q 2950 2406 2950 2484 
Q 2950 2769 2794 2926 
Q 2638 3084 2363 3084 
Q 1938 3084 1609 2770 
Q 1281 2456 1184 1953 
L 800 0 
L 225 0 
L 909 3500 
L 1484 3500 
L 1375 2956 
Q 1609 3263 1923 3423 
Q 2238 3584 2597 3584 
Q 2978 3584 3223 3384 
Q 3469 3184 3519 2828 
Q 3781 3197 4126 3390 
Q 4472 3584 4856 3584 
Q 5306 3584 5551 3325 
Q 5797 3066 5797 2591 
Q 5797 2488 5784 2364 
Q 5772 2241 5747 2113 
z
" transform="scale(0.015625)"/>
       <path id="DejaVuSans-56" d="M 1831 0 
L 50 4666 
L 709 4666 
L 2188 738 
L 3669 4666 
L 4325 4666 
L 2547 0 
L 1831 0 
z
" transform="scale(0.015625)"/>
      </defs>
      <use xlink:href="#DejaVuSans-Oblique-56" transform="translate(0 0.125)"/>
      <use xlink:href="#DejaVuSans-Oblique-6d" transform="translate(68.408203 -16.28125) scale(0.7)"/>
      <use xlink:href="#DejaVuSans-20" transform="translate(139.331055 0.125)"/>
      <use xlink:href="#DejaVuSans-28" transform="translate(171.118164 0.125)"/>
      <use xlink:href="#DejaVuSans-6d" transform="translate(210.131836 0.125)"/>
      <use xlink:href="#DejaVuSans-56" transform="translate(307.543945 0.125)"/>
      <use xlink:href="#DejaVuSans-29" transform="translate(375.952148 0.125)"/>
     </g>
    </g>
   </g>
   <g id="line2d_23">
    <path d="M 108 219.698972 
L 109.3392 220.397582 
L 110.6784 220.863881 
L 111.348 221.04089 
L 112.6872 222.011335 
L 114.0264 222.496846 
L 116.0352 224.094501 
L 118.044 226.569038 
L 118.7136 227.677583 
L 119.3832 228.538802 
L 120.0528 229.092887 
L 120.7224 230.124503 
L 122.7312 232.414543 
L 124.0704 233.212789 
L 125.4096 233.738387 
L 127.4184 234.256189 
L 129.4272 234.554139 
L 132.1056 234.700863 
L 134.1144 234.660608 
L 136.1232 235.451919 
L 136.7928 236.252664 
L 137.4624 236.815778 
L 140.1408 237.984222 
L 141.48 238.254688 
L 144.1584 238.617611 
L 145.4976 238.884194 
L 147.5064 238.883993 
L 148.176 238.841001 
L 149.5152 239.178434 
L 150.8544 239.200877 
L 153.5328 238.92631 
L 156.2112 238.406307 
L 158.22 237.616994 
L 164.916 234.838422 
L 171.612 231.98938 
L 176.9688 229.477029 
L 182.3256 226.731398 
L 187.6824 223.742348 
L 193.7088 220.110759 
L 198.396 217.17918 
L 199.7352 217.158789 
L 201.0744 216.725415 
L 203.7528 215.507515 
L 205.7616 214.502771 
L 207.1008 214.666332 
L 208.44 214.39013 
L 209.7792 214.794181 
L 211.1184 214.701027 
L 213.1272 214.231383 
L 216.4752 213.142918 
L 220.4928 211.591451 
L 225.8496 209.25477 
L 227.1888 209.570858 
L 228.528 211.272821 
L 229.1976 211.66672 
L 230.5368 212.001759 
L 231.876 212.069064 
L 232.5456 212.047381 
L 234.5544 213.411331 
L 235.8936 215.380573 
L 236.5632 216.538501 
L 239.2416 219.836955 
L 239.9112 220.893538 
L 240.5808 222.405384 
L 241.2504 223.520599 
L 241.92 224.243248 
L 243.2592 225.202365 
L 244.5984 225.851533 
L 245.9376 226.943065 
L 246.6072 227.285441 
L 247.2768 227.880946 
L 247.9464 228.689308 
L 249.9552 230.539802 
L 251.2944 231.756482 
L 252.6336 232.406402 
L 253.9728 232.821622 
L 255.312 234.153759 
L 255.9816 234.795857 
L 256.6512 235.27478 
L 257.9904 235.828705 
L 259.9992 236.278391 
L 260.6688 236.371214 
L 262.008 236.980932 
L 263.3472 237.236495 
L 264.6864 237.342972 
L 267.3648 238.477736 
L 268.704 238.697252 
L 270.7128 238.750842 
L 272.052 239.154896 
L 273.3912 239.236609 
L 275.4 239.134358 
L 278.0784 238.793143 
L 281.4264 238.141137 
L 282.096 237.985927 
L 283.4352 238.144521 
L 284.7744 238.003579 
L 287.4528 237.437367 
L 290.1312 236.6637 
L 291.4704 236.041546 
L 292.8096 235.878776 
L 294.8184 235.189482 
L 300.8448 232.741223 
L 306.2016 230.349837 
L 311.5584 227.716088 
L 316.9152 224.825648 
L 322.9416 221.287908 
L 334.3248 214.249171 
L 344.3688 207.880736 
L 345.0384 207.433031 
L 346.3776 207.508914 
L 347.7168 207.1796 
L 349.7256 206.33571 
L 352.404 204.893396 
L 354.4128 203.498994 
L 357.0912 205.719361 
L 357.7608 206.371491 
L 358.4304 207.287101 
L 359.1 208.513352 
L 359.7696 209.433238 
L 360.4392 210.028159 
L 361.7784 210.734341 
L 363.1176 212.807544 
L 363.7872 213.824908 
L 364.4568 214.587281 
L 367.8048 217.115426 
L 369.144 218.361952 
L 370.4832 219.001138 
L 371.8224 219.382599 
L 372.492 219.518962 
L 373.8312 221.15126 
L 374.5008 222.708206 
L 375.1704 223.909705 
L 375.84 224.641313 
L 377.1792 225.558952 
L 378.5184 226.15598 
L 379.188 226.384546 
L 379.8576 226.918465 
L 381.8664 229.214261 
L 382.536 229.635122 
L 383.8752 230.766689 
L 384.5448 231.112795 
L 386.5536 232.740047 
L 387.2232 233.210622 
L 388.5624 233.765933 
L 391.2408 234.61403 
L 391.9104 235.200164 
L 392.58 235.611152 
L 393.9192 236.035813 
L 395.928 236.325286 
L 399.276 236.657999 
L 402.624 237.547274 
L 403.2936 237.591118 
L 405.972 238.657934 
L 407.3112 238.833827 
L 407.9808 238.853942 
L 409.32 239.283839 
L 410.6592 239.377497 
L 412.668 239.281279 
L 415.3464 238.938131 
L 418.6944 238.277583 
L 422.712 237.226877 
L 424.0512 236.781634 
L 426.06 235.790485 
L 426.7296 235.436869 
L 428.0688 235.281421 
L 430.0776 234.61237 
L 434.7648 232.720866 
L 440.1216 230.33387 
L 445.4784 227.699546 
L 450.8352 224.807267 
L 456.8616 221.268348 
L 468.2448 214.232086 
L 472.932 211.305199 
L 474.2712 211.380009 
L 475.6104 211.022171 
L 476.9496 210.493902 
L 478.2888 210.818974 
L 479.628 210.669916 
L 481.6368 210.114876 
L 483.6456 209.394497 
L 484.9848 209.799185 
L 486.324 210.662906 
L 487.6632 210.878172 
L 489.0024 210.824604 
L 490.3416 212.407355 
L 491.0112 212.792132 
L 491.6808 213.466445 
L 492.3504 214.425002 
L 493.02 215.101933 
L 493.6896 215.515776 
L 494.3592 216.221206 
L 495.0288 217.193191 
L 495.6984 217.890669 
L 497.7072 219.295234 
L 498.3768 219.814915 
L 499.716 220.399027 
L 501.0552 220.735927 
L 502.3944 221.651966 
L 503.7336 222.081425 
L 504.4032 222.210827 
L 505.7424 223.068839 
L 507.0816 223.454123 
L 507.7512 223.564602 
L 508.4208 224.011608 
L 510.4296 227.30426 
L 511.0992 228.047175 
L 512.4384 228.899606 
L 513.7776 229.414598 
L 515.1168 230.335614 
L 515.7864 231.22393 
L 516.456 231.91851 
L 517.1256 232.348187 
L 519.804 235.808085 
L 521.1432 236.586425 
L 522.4824 237.074046 
L 523.152 237.256047 
L 523.8216 237.665769 
L 524.4912 238.250919 
L 526.5 239.564857 
L 527.8392 240.42802 
L 529.1784 240.843009 
L 529.848 240.974322 
L 531.1872 241.568474 
L 532.5264 241.82516 
L 534.5352 241.96057 
L 537.2136 241.895586 
L 540.5616 241.54018 
L 543.9096 240.948812 
L 547.9272 239.987077 
L 551.9448 238.795938 
L 556.632 237.162448 
L 557.9712 236.610024 
L 559.98 235.463932 
L 564.6672 232.769083 
L 577.3896 225.693973 
L 583.416 222.013673 
L 594.1296 215.119245 
L 602.1648 209.914674 
L 603.504 209.977467 
L 604.8432 209.610661 
L 606.852 208.756114 
L 610.2 207.040864 
L 612.8784 205.436853 
L 613.548 204.993327 
L 614.8872 205.097548 
L 616.2264 204.85864 
L 617.5656 204.381655 
L 619.5744 203.369595 
L 620.9136 202.46705 
L 622.2528 201.191635 
L 622.9224 200.350117 
L 623.592 199.71609 
L 624.2616 198.801347 
L 624.9312 197.034167 
L 625.6008 191.556157 
L 626.2704 165.711684 
L 626.94 63.330896 
L 627.6096 61.78756 
L 628.2792 84.11907 
L 628.9488 99.597647 
L 631.6272 148.362215 
L 633.636 177.578827 
L 634.9752 195.862375 
L 635.6448 202.171739 
L 636.3144 206.639166 
L 636.984 209.642692 
L 637.6536 211.737324 
L 638.9928 216.886022 
L 639.6624 218.579312 
L 641.6712 222.116538 
L 642.3408 222.887676 
L 644.3496 225.751664 
L 645.0192 226.331942 
L 646.3584 227.72309 
L 648.3672 229.098645 
L 649.0368 229.883416 
L 649.7064 230.453577 
L 653.724 232.844076 
L 654.3936 233.52445 
L 658.4112 236.475294 
L 660.42 238.468452 
L 661.7592 239.065133 
L 663.768 239.547325 
L 665.7768 239.784083 
L 667.7856 239.857015 
L 669.1248 240.276076 
L 670.464 240.387476 
L 673.1424 240.29321 
L 676.4904 239.883822 
L 679.8384 239.244648 
L 683.856 238.234939 
L 687.8736 237.003709 
L 691.8912 235.541062 
L 693.9 234.42105 
L 695.2392 234.193657 
L 697.248 233.412884 
L 703.2744 230.675776 
L 709.3008 227.686974 
L 714.6576 224.778132 
L 720.684 221.233836 
L 742.1112 208.086623 
L 742.7808 207.679002 
L 744.12 207.837542 
L 745.4592 207.562918 
L 747.468 206.83123 
L 748.8072 207.248558 
L 750.1464 207.204951 
L 752.1552 206.769301 
L 753.4944 207.350772 
L 754.8336 207.451869 
L 756.1728 207.319593 
L 757.512 208.036338 
L 758.8512 208.241618 
L 760.1904 208.201287 
L 761.5296 208.97723 
L 762.1992 209.147921 
L 763.5384 210.157847 
L 764.8776 210.553386 
L 765.5472 210.635518 
L 766.8864 211.558567 
L 768.2256 211.922146 
L 768.8952 212.001799 
L 770.2344 213.742622 
L 770.904 214.190996 
L 771.5736 214.480238 
L 774.252 216.944603 
L 775.5912 217.571446 
L 776.9304 217.919916 
L 777.6 218.447414 
L 777.6 218.447414 
" clip-path="url(#pa62f484443)" style="fill: none; stroke: #000000; stroke-width: 1.5; stroke-linecap: square"/>
   </g>
   <g id="line2d_24">
    <path d="M 108 176.013737 
L 111.348 184.333565 
L 114.0264 190.246436 
L 116.7048 195.522348 
L 124.0704 209.514011 
L 126.0792 212.711734 
L 128.088 215.407762 
L 130.0968 217.66044 
L 132.1056 219.531482 
L 134.1144 221.072216 
L 138.8016 224.422175 
L 142.1496 226.827035 
L 144.828 228.37142 
L 147.5064 229.677099 
L 150.8544 230.967089 
L 153.5328 231.759633 
L 155.5416 232.164334 
L 156.2112 201.342798 
L 156.8808 187.588581 
L 157.5504 180.983685 
L 158.22 177.223866 
L 158.8896 174.928543 
L 159.5592 173.546542 
L 160.2288 172.791979 
L 160.8984 172.487453 
L 161.568 172.510843 
L 162.2376 172.771161 
L 163.5768 173.744348 
L 165.5856 175.710125 
L 168.264 178.306022 
L 170.2728 179.860409 
L 171.612 180.640287 
L 172.9512 181.194583 
L 174.2904 181.512648 
L 175.6296 181.586096 
L 176.9688 181.407277 
L 178.308 180.967992 
L 179.6472 180.259016 
L 180.9864 179.26956 
L 182.3256 177.991084 
L 183.6648 176.418966 
L 185.004 174.556423 
L 187.0128 171.27431 
L 190.3608 165.070241 
L 192.3696 161.497481 
L 194.3784 158.441025 
L 195.7176 156.762142 
L 197.0568 155.368228 
L 198.396 154.234683 
L 199.7352 153.393873 
L 201.0744 152.848753 
L 203.0832 152.380146 
L 205.7616 152.103306 
L 207.1008 152.120639 
L 209.1096 152.424761 
L 211.1184 153.066918 
L 225.8496 158.654255 
L 227.1888 159.170583 
L 228.528 159.986551 
L 229.8672 161.171583 
L 232.5456 164.011445 
L 234.5544 166.435554 
L 235.8936 168.442377 
L 237.2328 170.93536 
L 239.2416 175.40901 
L 241.2504 180.620291 
L 244.5984 189.816733 
L 246.6072 194.718749 
L 249.2856 200.608916 
L 251.964 205.958505 
L 253.9728 209.442312 
L 257.3208 214.572848 
L 259.3296 217.278121 
L 261.3384 219.573062 
L 263.3472 221.594728 
L 265.356 223.336183 
L 268.704 225.925331 
L 270.7128 227.2403 
L 273.3912 228.738148 
L 275.4 229.667578 
L 277.4088 230.393586 
L 279.4176 230.932147 
L 282.096 231.39369 
L 286.7832 231.915586 
L 289.4616 231.970563 
L 290.1312 201.093587 
L 290.8008 187.254854 
L 291.4704 180.554296 
L 292.14 176.688526 
L 292.8096 174.286926 
L 293.4792 172.800794 
L 294.1488 171.942595 
L 294.8184 171.533049 
L 295.488 171.446397 
L 296.1576 171.590854 
L 297.4968 172.314698 
L 300.1752 174.375056 
L 302.184 175.768637 
L 303.5232 176.466601 
L 304.8624 176.933284 
L 306.2016 177.145066 
L 307.5408 177.085508 
L 308.88 176.741399 
L 310.2192 176.101027 
L 311.5584 175.155066 
L 312.8976 173.900377 
L 314.2368 172.342219 
L 315.576 170.502508 
L 317.5848 167.326643 
L 322.272 159.594399 
L 324.2808 156.893451 
L 325.62 155.407454 
L 326.9592 154.164689 
L 328.2984 153.141736 
L 330.3072 151.951477 
L 332.316 151.086331 
L 334.3248 150.457826 
L 337.0032 149.877476 
L 340.3512 149.412011 
L 345.0384 149.003766 
L 347.0472 149.018499 
L 351.0648 149.514153 
L 354.4128 149.808018 
L 355.752 149.994335 
L 357.0912 150.469766 
L 358.4304 151.280306 
L 359.7696 152.48615 
L 361.7784 154.796067 
L 363.1176 156.580344 
L 364.4568 158.689816 
L 366.4656 162.306248 
L 368.4744 166.37788 
L 371.1528 172.465617 
L 374.5008 180.451064 
L 379.8576 194.338287 
L 383.2056 201.618359 
L 385.2144 205.511498 
L 387.8928 210.142305 
L 389.9016 213.151111 
L 392.58 216.561971 
L 394.5888 218.877847 
L 396.5976 220.857457 
L 398.6064 222.496062 
L 401.9544 224.81201 
L 405.3024 226.861697 
L 408.6504 228.732849 
L 411.3288 230.010265 
L 413.3376 230.771261 
L 415.3464 231.346457 
L 418.0248 231.855305 
L 420.7032 232.107228 
L 423.3816 232.136185 
L 424.0512 201.220244 
L 424.7208 187.362886 
L 425.3904 180.654269 
L 426.06 176.777887 
L 426.7296 174.351371 
L 427.3992 172.834901 
L 428.0688 171.951348 
L 428.7384 171.524457 
L 429.408 171.426946 
L 430.0776 171.564651 
L 431.4168 172.280367 
L 436.7736 176.07606 
L 438.1128 176.650372 
L 439.452 176.979241 
L 440.7912 177.043393 
L 442.1304 176.82833 
L 443.4696 176.32178 
L 444.8088 175.513053 
L 446.148 174.396264 
L 447.4872 172.972506 
L 448.8264 171.255501 
L 450.8352 168.216929 
L 456.8616 158.482469 
L 458.2008 156.767159 
L 459.54 155.303859 
L 460.8792 154.080942 
L 462.2184 153.074492 
L 464.2272 151.902902 
L 466.236 151.050462 
L 468.2448 150.430242 
L 470.9232 149.85648 
L 473.6016 149.490306 
L 475.6104 149.51592 
L 477.6192 149.727141 
L 479.628 150.185949 
L 484.9848 151.760072 
L 486.324 152.372809 
L 488.3328 153.584662 
L 489.672 154.490427 
L 491.0112 155.638337 
L 492.3504 157.065303 
L 493.6896 158.808918 
L 495.0288 160.835668 
L 497.0376 164.461296 
L 499.0464 168.614704 
L 502.3944 176.19934 
L 506.412 185.452264 
L 509.0904 191.084976 
L 514.4472 202.185282 
L 518.4648 209.194836 
L 521.8128 214.846761 
L 523.8216 217.72657 
L 527.1696 222.018722 
L 529.1784 224.366958 
L 531.8568 227.066929 
L 533.8656 228.788607 
L 535.8744 230.214229 
L 537.8832 231.367956 
L 539.892 232.282104 
L 541.9008 232.98506 
L 543.9096 233.500885 
L 546.588 233.932765 
L 549.2664 234.109726 
L 551.9448 234.066367 
L 554.6232 233.831703 
L 557.3016 233.43011 
L 557.9712 202.176301 
L 558.6408 188.157632 
L 559.3104 181.353907 
L 559.98 177.417003 
L 560.6496 174.936399 
L 561.3192 173.352935 
L 561.9888 172.377657 
L 562.6584 171.833888 
L 563.328 171.597306 
L 563.9976 171.577044 
L 565.3368 171.92664 
L 568.6848 173.279335 
L 570.024 173.565015 
L 571.3632 173.578373 
L 572.7024 173.278132 
L 574.0416 172.63859 
L 575.3808 171.645451 
L 576.72 170.298849 
L 578.0592 168.618026 
L 580.068 165.581182 
L 585.4248 156.875154 
L 587.4336 154.300929 
L 588.7728 152.892508 
L 590.112 151.712618 
L 592.1208 150.309024 
L 594.1296 149.254897 
L 596.1384 148.460724 
L 598.8168 147.685522 
L 602.1648 147.012781 
L 604.1736 146.85414 
L 607.5216 146.989558 
L 612.8784 147.186617 
L 614.8872 147.250033 
L 617.5656 147.640826 
L 620.9136 148.110701 
L 622.9224 148.158949 
L 624.2616 148.019254 
L 624.9312 147.858342 
L 625.6008 147.453184 
L 626.2704 145.886801 
L 626.94 139.591333 
L 627.6096 131.212899 
L 628.2792 124.411925 
L 628.9488 120.00884 
L 629.6184 117.65791 
L 630.288 116.827225 
L 630.9576 117.106573 
L 631.6272 118.174138 
L 632.2968 119.781951 
L 633.636 124.008752 
L 634.9752 129.183265 
L 638.3232 142.884485 
L 645.6888 171.025594 
L 649.0368 184.548034 
L 651.0456 191.934993 
L 653.0544 198.353116 
L 655.0632 203.842695 
L 657.072 208.609714 
L 659.0808 212.745451 
L 661.0896 216.516107 
L 663.0984 219.780918 
L 665.1072 222.471734 
L 667.116 224.662858 
L 669.1248 226.473042 
L 671.1336 228.034432 
L 673.1424 229.312379 
L 675.1512 230.320451 
L 677.16 231.092162 
L 679.1688 231.658317 
L 681.8472 232.13733 
L 684.5256 232.345914 
L 687.204 232.323831 
L 689.8824 232.103394 
L 691.2216 231.927271 
L 691.8912 200.992814 
L 692.5608 187.089832 
L 693.2304 180.328605 
L 693.9 176.397601 
L 694.5696 173.925198 
L 695.2392 172.365552 
L 695.9088 171.430575 
L 696.5784 170.937077 
L 697.248 170.756776 
L 697.9176 170.796481 
L 699.2568 171.271417 
L 703.2744 173.235588 
L 704.6136 173.577969 
L 705.9528 173.653679 
L 707.292 173.433205 
L 708.6312 172.897817 
L 709.9704 172.036954 
L 711.3096 170.850369 
L 712.6488 169.35343 
L 714.6576 166.60985 
L 721.3536 156.591842 
L 723.3624 154.348972 
L 724.7016 153.129134 
L 726.7104 151.665127 
L 728.7192 150.561436 
L 730.728 149.733807 
L 733.4064 148.94117 
L 736.0848 148.394839 
L 739.4328 147.938036 
L 743.4504 147.610765 
L 745.4592 147.730495 
L 748.8072 148.25392 
L 751.4856 149.044152 
L 753.4944 149.7416 
L 756.1728 150.9729 
L 758.1816 152.085896 
L 761.5296 154.32534 
L 763.5384 156.025384 
L 766.2168 158.80042 
L 768.2256 161.228338 
L 769.5648 163.000366 
L 770.904 165.062274 
L 772.9128 168.606878 
L 774.9216 172.686204 
L 777.6 178.407531 
L 777.6 178.407531 
" clip-path="url(#pa62f484443)" style="fill: none; stroke: #4169e1; stroke-width: 1.5; stroke-linecap: square"/>
   </g>
   <g id="patch_3">
    <path d="M 108 256.32 
L 108 34.56 
" style="fill: none; stroke: #000000; stroke-width: 0.8; stroke-linejoin: miter; stroke-linecap: square"/>
   </g>
   <g id="patch_4">
    <path d="M 777.6 256.32 
L 777.6 34.56 
" style="fill: none; stroke: #000000; stroke-width: 0.8; stroke-linejoin: miter; stroke-linecap: square"/>
   </g>
   <g id="patch_5">
    <path d="M 108 256.32 
L 777.6 256.32 
" style="fill: none; stroke: #000000; stroke-width: 0.8; stroke-linejoin: miter; stroke-linecap: square"/>
   </g>
   <g id="patch_6">
    <path d="M 108 34.56 
L 777.6 34.56 
" style="fill: none; stroke: #000000; stroke-width: 0.8; stroke-linejoin: miter; stroke-linecap: square"/>
   </g>
   <g id="legend_1">
    <g id="patch_7">
     <path d="M 695.098438 71.91625 
L 770.6 71.91625 
Q 772.6 71.91625 772.6 69.91625 
L 772.6 41.56 
Q 772.6 39.56 770.6 39.56 
L 695.098438 39.56 
Q 693.098438 39.56 693.098438 41.56 
L 693.098438 69.91625 
Q 693.098438 71.91625 695.098438 71.91625 
z
" style="fill: #ffffff; opacity: 0.8; stroke: #cccccc; stroke-linejoin: miter"/>
    </g>
    <g id="line2d_25">
     <path d="M 697.098438 47.658437 
L 707.098438 47.658437 
L 717.098438 47.658437 
" style="fill: none; stroke: #000000; stroke-width: 1.5; stroke-linecap: square"/>
    </g>
    <g id="text_14">
     <!-- Soma -->
     <g transform="translate(725.098438 51.158437) scale(0.1 -0.1)">
      <defs>
       <path id="DejaVuSans-53" d="M 3425 4513 
L 3425 3897 
Q 3066 4069 2747 4153 
Q 2428 4238 2131 4238 
Q 1616 4238 1336 4038 
Q 1056 3838 1056 3469 
Q 1056 3159 1242 3001 
Q 1428 2844 1947 2747 
L 2328 2669 
Q 3034 2534 3370 2195 
Q 3706 1856 3706 1288 
Q 3706 609 3251 259 
Q 2797 -91 1919 -91 
Q 1588 -91 1214 -16 
Q 841 59 441 206 
L 441 856 
Q 825 641 1194 531 
Q 1563 422 1919 422 
Q 2459 422 2753 634 
Q 3047 847 3047 1241 
Q 3047 1584 2836 1778 
Q 2625 1972 2144 2069 
L 1759 2144 
Q 1053 2284 737 2584 
Q 422 2884 422 3419 
Q 422 4038 858 4394 
Q 1294 4750 2059 4750 
Q 2388 4750 2728 4690 
Q 3069 4631 3425 4513 
z
" transform="scale(0.015625)"/>
       <path id="DejaVuSans-6f" d="M 1959 3097 
Q 1497 3097 1228 2736 
Q 959 2375 959 1747 
Q 959 1119 1226 758 
Q 1494 397 1959 397 
Q 2419 397 2687 759 
Q 2956 1122 2956 1747 
Q 2956 2369 2687 2733 
Q 2419 3097 1959 3097 
z
M 1959 3584 
Q 2709 3584 3137 3096 
Q 3566 2609 3566 1747 
Q 3566 888 3137 398 
Q 2709 -91 1959 -91 
Q 1206 -91 779 398 
Q 353 888 353 1747 
Q 353 2609 779 3096 
Q 1206 3584 1959 3584 
z
" transform="scale(0.015625)"/>
       <path id="DejaVuSans-61" d="M 2194 1759 
Q 1497 1759 1228 1600 
Q 959 1441 959 1056 
Q 959 750 1161 570 
Q 1363 391 1709 391 
Q 2188 391 2477 730 
Q 2766 1069 2766 1631 
L 2766 1759 
L 2194 1759 
z
M 3341 1997 
L 3341 0 
L 2766 0 
L 2766 531 
Q 2569 213 2275 61 
Q 1981 -91 1556 -91 
Q 1019 -91 701 211 
Q 384 513 384 1019 
Q 384 1609 779 1909 
Q 1175 2209 1959 2209 
L 2766 2209 
L 2766 2266 
Q 2766 2663 2505 2880 
Q 2244 3097 1772 3097 
Q 1472 3097 1187 3025 
Q 903 2953 641 2809 
L 641 3341 
Q 956 3463 1253 3523 
Q 1550 3584 1831 3584 
Q 2591 3584 2966 3190 
Q 3341 2797 3341 1997 
z
" transform="scale(0.015625)"/>
      </defs>
      <use xlink:href="#DejaVuSans-53"/>
      <use xlink:href="#DejaVuSans-6f" x="63.476562"/>
      <use xlink:href="#DejaVuSans-6d" x="124.658203"/>
      <use xlink:href="#DejaVuSans-61" x="222.070312"/>
     </g>
    </g>
    <g id="line2d_26">
     <path d="M 697.098438 62.336562 
L 707.098438 62.336562 
L 717.098438 62.336562 
" style="fill: none; stroke: #4169e1; stroke-width: 1.5; stroke-linecap: square"/>
    </g>
    <g id="text_15">
     <!-- Dendrite -->
     <g transform="translate(725.098438 65.836562) scale(0.1 -0.1)">
      <defs>
       <path id="DejaVuSans-44" d="M 1259 4147 
L 1259 519 
L 2022 519 
Q 2988 519 3436 956 
Q 3884 1394 3884 2338 
Q 3884 3275 3436 3711 
Q 2988 4147 2022 4147 
L 1259 4147 
z
M 628 4666 
L 1925 4666 
Q 3281 4666 3915 4102 
Q 4550 3538 4550 2338 
Q 4550 1131 3912 565 
Q 3275 0 1925 0 
L 628 0 
L 628 4666 
z
" transform="scale(0.015625)"/>
       <path id="DejaVuSans-6e" d="M 3513 2113 
L 3513 0 
L 2938 0 
L 2938 2094 
Q 2938 2591 2744 2837 
Q 2550 3084 2163 3084 
Q 1697 3084 1428 2787 
Q 1159 2491 1159 1978 
L 1159 0 
L 581 0 
L 581 3500 
L 1159 3500 
L 1159 2956 
Q 1366 3272 1645 3428 
Q 1925 3584 2291 3584 
Q 2894 3584 3203 3211 
Q 3513 2838 3513 2113 
z
" transform="scale(0.015625)"/>
       <path id="DejaVuSans-64" d="M 2906 2969 
L 2906 4863 
L 3481 4863 
L 3481 0 
L 2906 0 
L 2906 525 
Q 2725 213 2448 61 
Q 2172 -91 1784 -91 
Q 1150 -91 751 415 
Q 353 922 353 1747 
Q 353 2572 751 3078 
Q 1150 3584 1784 3584 
Q 2172 3584 2448 3432 
Q 2725 3281 2906 2969 
z
M 947 1747 
Q 947 1113 1208 752 
Q 1469 391 1925 391 
Q 2381 391 2643 752 
Q 2906 1113 2906 1747 
Q 2906 2381 2643 2742 
Q 2381 3103 1925 3103 
Q 1469 3103 1208 2742 
Q 947 2381 947 1747 
z
" transform="scale(0.015625)"/>
       <path id="DejaVuSans-72" d="M 2631 2963 
Q 2534 3019 2420 3045 
Q 2306 3072 2169 3072 
Q 1681 3072 1420 2755 
Q 1159 2438 1159 1844 
L 1159 0 
L 581 0 
L 581 3500 
L 1159 3500 
L 1159 2956 
Q 1341 3275 1631 3429 
Q 1922 3584 2338 3584 
Q 2397 3584 2469 3576 
Q 2541 3569 2628 3553 
L 2631 2963 
z
" transform="scale(0.015625)"/>
       <path id="DejaVuSans-74" d="M 1172 4494 
L 1172 3500 
L 2356 3500 
L 2356 3053 
L 1172 3053 
L 1172 1153 
Q 1172 725 1289 603 
Q 1406 481 1766 481 
L 2356 481 
L 2356 0 
L 1766 0 
Q 1100 0 847 248 
Q 594 497 594 1153 
L 594 3053 
L 172 3053 
L 172 3500 
L 594 3500 
L 594 4494 
L 1172 4494 
z
" transform="scale(0.015625)"/>
      </defs>
      <use xlink:href="#DejaVuSans-44"/>
      <use xlink:href="#DejaVuSans-65" x="77.001953"/>
      <use xlink:href="#DejaVuSans-6e" x="138.525391"/>
      <use xlink:href="#DejaVuSans-64" x="201.904297"/>
      <use xlink:href="#DejaVuSans-72" x="265.380859"/>
      <use xlink:href="#DejaVuSans-69" x="306.494141"/>
      <use xlink:href="#DejaVuSans-74" x="334.277344"/>
      <use xlink:href="#DejaVuSans-65" x="373.486328"/>
     </g>
    </g>
   </g>
  </g>
 </g>
 <defs>
  <clipPath id="pa62f484443">
   <rect x="108" y="34.56" width="669.6" height="221.76"/>
  </clipPath>
 </defs>
</svg>
