<?xml version="1.0" encoding="utf-8" standalone="no"?>
<!DOCTYPE svg PUBLIC "-//W3C//DTD SVG 1.1//EN"
  "http://www.w3.org/Graphics/SVG/1.1/DTD/svg11.dtd">
<svg xmlns:xlink="http://www.w3.org/1999/xlink" width="864pt" height="288pt" viewBox="0 0 864 288" xmlns="http://www.w3.org/2000/svg" version="1.1">
 <metadata>
  <rdf:RDF xmlns:dc="http://purl.org/dc/elements/1.1/" xmlns:cc="http://creativecommons.org/ns#" xmlns:rdf="http://www.w3.org/1999/02/22-rdf-syntax-ns#">
   <cc:Work>
    <dc:type rdf:resource="http://purl.org/dc/dcmitype/StillImage"/>
    <dc:date>2024-04-23T19:17:14.859265</dc:date>
    <dc:format>image/svg+xml</dc:format>
    <dc:creator>
     <cc:Agent>
      <dc:title>Matplotlib v3.8.2, https://matplotlib.org/</dc:title>
     </cc:Agent>
    </dc:creator>
   </cc:Work>
  </rdf:RDF>
 </metadata>
 <defs>
  <style type="text/css">*{stroke-linejoin: round; stroke-linecap: butt}</style>
 </defs>
 <g id="figure_1">
  <g id="patch_1">
   <path d="M 0 288 
L 864 288 
L 864 0 
L 0 0 
z
" style="fill: #ffffff"/>
  </g>
  <g id="axes_1">
   <g id="patch_2">
    <path d="M 108 256.32 
L 777.6 256.32 
L 777.6 34.56 
L 108 34.56 
z
" style="fill: #ffffff"/>
   </g>
   <g id="matplotlib.axis_1">
    <g id="xtick_1">
     <g id="line2d_1">
      <path d="M 108 256.32 
L 108 34.56 
" clip-path="url(#p87fa205306)" style="fill: none; stroke: #b0b0b0; stroke-width: 0.8; stroke-linecap: square"/>
     </g>
     <g id="line2d_2">
      <defs>
       <path id="m1dbd0104ff" d="M 0 0 
L 0 3.5 
" style="stroke: #000000; stroke-width: 0.8"/>
      </defs>
      <g>
       <use xlink:href="#m1dbd0104ff" x="108" y="256.32" style="stroke: #000000; stroke-width: 0.8"/>
      </g>
     </g>
     <g id="text_1">
      <!-- 100 -->
      <g transform="translate(94.63875 273.957812) scale(0.14 -0.14)">
       <defs>
        <path id="DejaVuSans-31" d="M 794 531 
L 1825 531 
L 1825 4091 
L 703 3866 
L 703 4441 
L 1819 4666 
L 2450 4666 
L 2450 531 
L 3481 531 
L 3481 0 
L 794 0 
L 794 531 
z
" transform="scale(0.015625)"/>
        <path id="DejaVuSans-30" d="M 2034 4250 
Q 1547 4250 1301 3770 
Q 1056 3291 1056 2328 
Q 1056 1369 1301 889 
Q 1547 409 2034 409 
Q 2525 409 2770 889 
Q 3016 1369 3016 2328 
Q 3016 3291 2770 3770 
Q 2525 4250 2034 4250 
z
M 2034 4750 
Q 2819 4750 3233 4129 
Q 3647 3509 3647 2328 
Q 3647 1150 3233 529 
Q 2819 -91 2034 -91 
Q 1250 -91 836 529 
Q 422 1150 422 2328 
Q 422 3509 836 4129 
Q 1250 4750 2034 4750 
z
" transform="scale(0.015625)"/>
       </defs>
       <use xlink:href="#DejaVuSans-31"/>
       <use xlink:href="#DejaVuSans-30" x="63.623047"/>
       <use xlink:href="#DejaVuSans-30" x="127.246094"/>
      </g>
     </g>
    </g>
    <g id="xtick_2">
     <g id="line2d_3">
      <path d="M 241.92 256.32 
L 241.92 34.56 
" clip-path="url(#p87fa205306)" style="fill: none; stroke: #b0b0b0; stroke-width: 0.8; stroke-linecap: square"/>
     </g>
     <g id="line2d_4">
      <g>
       <use xlink:href="#m1dbd0104ff" x="241.92" y="256.32" style="stroke: #000000; stroke-width: 0.8"/>
      </g>
     </g>
     <g id="text_2">
      <!-- 120 -->
      <g transform="translate(228.55875 273.957812) scale(0.14 -0.14)">
       <defs>
        <path id="DejaVuSans-32" d="M 1228 531 
L 3431 531 
L 3431 0 
L 469 0 
L 469 531 
Q 828 903 1448 1529 
Q 2069 2156 2228 2338 
Q 2531 2678 2651 2914 
Q 2772 3150 2772 3378 
Q 2772 3750 2511 3984 
Q 2250 4219 1831 4219 
Q 1534 4219 1204 4116 
Q 875 4013 500 3803 
L 500 4441 
Q 881 4594 1212 4672 
Q 1544 4750 1819 4750 
Q 2544 4750 2975 4387 
Q 3406 4025 3406 3419 
Q 3406 3131 3298 2873 
Q 3191 2616 2906 2266 
Q 2828 2175 2409 1742 
Q 1991 1309 1228 531 
z
" transform="scale(0.015625)"/>
       </defs>
       <use xlink:href="#DejaVuSans-31"/>
       <use xlink:href="#DejaVuSans-32" x="63.623047"/>
       <use xlink:href="#DejaVuSans-30" x="127.246094"/>
      </g>
     </g>
    </g>
    <g id="xtick_3">
     <g id="line2d_5">
      <path d="M 375.84 256.32 
L 375.84 34.56 
" clip-path="url(#p87fa205306)" style="fill: none; stroke: #b0b0b0; stroke-width: 0.8; stroke-linecap: square"/>
     </g>
     <g id="line2d_6">
      <g>
       <use xlink:href="#m1dbd0104ff" x="375.84" y="256.32" style="stroke: #000000; stroke-width: 0.8"/>
      </g>
     </g>
     <g id="text_3">
      <!-- 140 -->
      <g transform="translate(362.47875 273.957812) scale(0.14 -0.14)">
       <defs>
        <path id="DejaVuSans-34" d="M 2419 4116 
L 825 1625 
L 2419 1625 
L 2419 4116 
z
M 2253 4666 
L 3047 4666 
L 3047 1625 
L 3713 1625 
L 3713 1100 
L 3047 1100 
L 3047 0 
L 2419 0 
L 2419 1100 
L 313 1100 
L 313 1709 
L 2253 4666 
z
" transform="scale(0.015625)"/>
       </defs>
       <use xlink:href="#DejaVuSans-31"/>
       <use xlink:href="#DejaVuSans-34" x="63.623047"/>
       <use xlink:href="#DejaVuSans-30" x="127.246094"/>
      </g>
     </g>
    </g>
    <g id="xtick_4">
     <g id="line2d_7">
      <path d="M 509.76 256.32 
L 509.76 34.56 
" clip-path="url(#p87fa205306)" style="fill: none; stroke: #b0b0b0; stroke-width: 0.8; stroke-linecap: square"/>
     </g>
     <g id="line2d_8">
      <g>
       <use xlink:href="#m1dbd0104ff" x="509.76" y="256.32" style="stroke: #000000; stroke-width: 0.8"/>
      </g>
     </g>
     <g id="text_4">
      <!-- 160 -->
      <g transform="translate(496.39875 273.957812) scale(0.14 -0.14)">
       <defs>
        <path id="DejaVuSans-36" d="M 2113 2584 
Q 1688 2584 1439 2293 
Q 1191 2003 1191 1497 
Q 1191 994 1439 701 
Q 1688 409 2113 409 
Q 2538 409 2786 701 
Q 3034 994 3034 1497 
Q 3034 2003 2786 2293 
Q 2538 2584 2113 2584 
z
M 3366 4563 
L 3366 3988 
Q 3128 4100 2886 4159 
Q 2644 4219 2406 4219 
Q 1781 4219 1451 3797 
Q 1122 3375 1075 2522 
Q 1259 2794 1537 2939 
Q 1816 3084 2150 3084 
Q 2853 3084 3261 2657 
Q 3669 2231 3669 1497 
Q 3669 778 3244 343 
Q 2819 -91 2113 -91 
Q 1303 -91 875 529 
Q 447 1150 447 2328 
Q 447 3434 972 4092 
Q 1497 4750 2381 4750 
Q 2619 4750 2861 4703 
Q 3103 4656 3366 4563 
z
" transform="scale(0.015625)"/>
       </defs>
       <use xlink:href="#DejaVuSans-31"/>
       <use xlink:href="#DejaVuSans-36" x="63.623047"/>
       <use xlink:href="#DejaVuSans-30" x="127.246094"/>
      </g>
     </g>
    </g>
    <g id="xtick_5">
     <g id="line2d_9">
      <path d="M 643.68 256.32 
L 643.68 34.56 
" clip-path="url(#p87fa205306)" style="fill: none; stroke: #b0b0b0; stroke-width: 0.8; stroke-linecap: square"/>
     </g>
     <g id="line2d_10">
      <g>
       <use xlink:href="#m1dbd0104ff" x="643.68" y="256.32" style="stroke: #000000; stroke-width: 0.8"/>
      </g>
     </g>
     <g id="text_5">
      <!-- 180 -->
      <g transform="translate(630.31875 273.957812) scale(0.14 -0.14)">
       <defs>
        <path id="DejaVuSans-38" d="M 2034 2216 
Q 1584 2216 1326 1975 
Q 1069 1734 1069 1313 
Q 1069 891 1326 650 
Q 1584 409 2034 409 
Q 2484 409 2743 651 
Q 3003 894 3003 1313 
Q 3003 1734 2745 1975 
Q 2488 2216 2034 2216 
z
M 1403 2484 
Q 997 2584 770 2862 
Q 544 3141 544 3541 
Q 544 4100 942 4425 
Q 1341 4750 2034 4750 
Q 2731 4750 3128 4425 
Q 3525 4100 3525 3541 
Q 3525 3141 3298 2862 
Q 3072 2584 2669 2484 
Q 3125 2378 3379 2068 
Q 3634 1759 3634 1313 
Q 3634 634 3220 271 
Q 2806 -91 2034 -91 
Q 1263 -91 848 271 
Q 434 634 434 1313 
Q 434 1759 690 2068 
Q 947 2378 1403 2484 
z
M 1172 3481 
Q 1172 3119 1398 2916 
Q 1625 2713 2034 2713 
Q 2441 2713 2670 2916 
Q 2900 3119 2900 3481 
Q 2900 3844 2670 4047 
Q 2441 4250 2034 4250 
Q 1625 4250 1398 4047 
Q 1172 3844 1172 3481 
z
" transform="scale(0.015625)"/>
       </defs>
       <use xlink:href="#DejaVuSans-31"/>
       <use xlink:href="#DejaVuSans-38" x="63.623047"/>
       <use xlink:href="#DejaVuSans-30" x="127.246094"/>
      </g>
     </g>
    </g>
    <g id="xtick_6">
     <g id="line2d_11">
      <path d="M 777.6 256.32 
L 777.6 34.56 
" clip-path="url(#p87fa205306)" style="fill: none; stroke: #b0b0b0; stroke-width: 0.8; stroke-linecap: square"/>
     </g>
     <g id="line2d_12">
      <g>
       <use xlink:href="#m1dbd0104ff" x="777.6" y="256.32" style="stroke: #000000; stroke-width: 0.8"/>
      </g>
     </g>
     <g id="text_6">
      <!-- 200 -->
      <g transform="translate(764.23875 273.957812) scale(0.14 -0.14)">
       <use xlink:href="#DejaVuSans-32"/>
       <use xlink:href="#DejaVuSans-30" x="63.623047"/>
       <use xlink:href="#DejaVuSans-30" x="127.246094"/>
      </g>
     </g>
    </g>
    <g id="text_7">
     <!-- Time (ms) -->
     <g transform="translate(407.521094 291.507187) scale(0.14 -0.14)">
      <defs>
       <path id="DejaVuSans-54" d="M -19 4666 
L 3928 4666 
L 3928 4134 
L 2272 4134 
L 2272 0 
L 1638 0 
L 1638 4134 
L -19 4134 
L -19 4666 
z
" transform="scale(0.015625)"/>
       <path id="DejaVuSans-69" d="M 603 3500 
L 1178 3500 
L 1178 0 
L 603 0 
L 603 3500 
z
M 603 4863 
L 1178 4863 
L 1178 4134 
L 603 4134 
L 603 4863 
z
" transform="scale(0.015625)"/>
       <path id="DejaVuSans-6d" d="M 3328 2828 
Q 3544 3216 3844 3400 
Q 4144 3584 4550 3584 
Q 5097 3584 5394 3201 
Q 5691 2819 5691 2113 
L 5691 0 
L 5113 0 
L 5113 2094 
Q 5113 2597 4934 2840 
Q 4756 3084 4391 3084 
Q 3944 3084 3684 2787 
Q 3425 2491 3425 1978 
L 3425 0 
L 2847 0 
L 2847 2094 
Q 2847 2600 2669 2842 
Q 2491 3084 2119 3084 
Q 1678 3084 1418 2786 
Q 1159 2488 1159 1978 
L 1159 0 
L 581 0 
L 581 3500 
L 1159 3500 
L 1159 2956 
Q 1356 3278 1631 3431 
Q 1906 3584 2284 3584 
Q 2666 3584 2933 3390 
Q 3200 3197 3328 2828 
z
" transform="scale(0.015625)"/>
       <path id="DejaVuSans-65" d="M 3597 1894 
L 3597 1613 
L 953 1613 
Q 991 1019 1311 708 
Q 1631 397 2203 397 
Q 2534 397 2845 478 
Q 3156 559 3463 722 
L 3463 178 
Q 3153 47 2828 -22 
Q 2503 -91 2169 -91 
Q 1331 -91 842 396 
Q 353 884 353 1716 
Q 353 2575 817 3079 
Q 1281 3584 2069 3584 
Q 2775 3584 3186 3129 
Q 3597 2675 3597 1894 
z
M 3022 2063 
Q 3016 2534 2758 2815 
Q 2500 3097 2075 3097 
Q 1594 3097 1305 2825 
Q 1016 2553 972 2059 
L 3022 2063 
z
" transform="scale(0.015625)"/>
       <path id="DejaVuSans-20" transform="scale(0.015625)"/>
       <path id="DejaVuSans-28" d="M 1984 4856 
Q 1566 4138 1362 3434 
Q 1159 2731 1159 2009 
Q 1159 1288 1364 580 
Q 1569 -128 1984 -844 
L 1484 -844 
Q 1016 -109 783 600 
Q 550 1309 550 2009 
Q 550 2706 781 3412 
Q 1013 4119 1484 4856 
L 1984 4856 
z
" transform="scale(0.015625)"/>
       <path id="DejaVuSans-73" d="M 2834 3397 
L 2834 2853 
Q 2591 2978 2328 3040 
Q 2066 3103 1784 3103 
Q 1356 3103 1142 2972 
Q 928 2841 928 2578 
Q 928 2378 1081 2264 
Q 1234 2150 1697 2047 
L 1894 2003 
Q 2506 1872 2764 1633 
Q 3022 1394 3022 966 
Q 3022 478 2636 193 
Q 2250 -91 1575 -91 
Q 1294 -91 989 -36 
Q 684 19 347 128 
L 347 722 
Q 666 556 975 473 
Q 1284 391 1588 391 
Q 1994 391 2212 530 
Q 2431 669 2431 922 
Q 2431 1156 2273 1281 
Q 2116 1406 1581 1522 
L 1381 1569 
Q 847 1681 609 1914 
Q 372 2147 372 2553 
Q 372 3047 722 3315 
Q 1072 3584 1716 3584 
Q 2034 3584 2315 3537 
Q 2597 3491 2834 3397 
z
" transform="scale(0.015625)"/>
       <path id="DejaVuSans-29" d="M 513 4856 
L 1013 4856 
Q 1481 4119 1714 3412 
Q 1947 2706 1947 2009 
Q 1947 1309 1714 600 
Q 1481 -109 1013 -844 
L 513 -844 
Q 928 -128 1133 580 
Q 1338 1288 1338 2009 
Q 1338 2731 1133 3434 
Q 928 4138 513 4856 
z
" transform="scale(0.015625)"/>
      </defs>
      <use xlink:href="#DejaVuSans-54"/>
      <use xlink:href="#DejaVuSans-69" x="57.958984"/>
      <use xlink:href="#DejaVuSans-6d" x="85.742188"/>
      <use xlink:href="#DejaVuSans-65" x="183.154297"/>
      <use xlink:href="#DejaVuSans-20" x="244.677734"/>
      <use xlink:href="#DejaVuSans-28" x="276.464844"/>
      <use xlink:href="#DejaVuSans-6d" x="315.478516"/>
      <use xlink:href="#DejaVuSans-73" x="412.890625"/>
      <use xlink:href="#DejaVuSans-29" x="464.990234"/>
     </g>
    </g>
   </g>
   <g id="matplotlib.axis_2">
    <g id="ytick_1">
     <g id="line2d_13">
      <path d="M 108 246.24 
L 777.6 246.24 
" clip-path="url(#p87fa205306)" style="fill: none; stroke: #b0b0b0; stroke-width: 0.8; stroke-linecap: square"/>
     </g>
     <g id="line2d_14">
      <defs>
       <path id="m24edf6ae1d" d="M 0 0 
L -3.5 0 
" style="stroke: #000000; stroke-width: 0.8"/>
      </defs>
      <g>
       <use xlink:href="#m24edf6ae1d" x="108" y="246.24" style="stroke: #000000; stroke-width: 0.8"/>
      </g>
     </g>
     <g id="text_8">
      <!-- 0.00 -->
      <g transform="translate(69.828125 251.558906) scale(0.14 -0.14)">
       <defs>
        <path id="DejaVuSans-2e" d="M 684 794 
L 1344 794 
L 1344 0 
L 684 0 
L 684 794 
z
" transform="scale(0.015625)"/>
       </defs>
       <use xlink:href="#DejaVuSans-30"/>
       <use xlink:href="#DejaVuSans-2e" x="63.623047"/>
       <use xlink:href="#DejaVuSans-30" x="95.410156"/>
       <use xlink:href="#DejaVuSans-30" x="159.033203"/>
      </g>
     </g>
    </g>
    <g id="ytick_2">
     <g id="line2d_15">
      <path d="M 108 209.229867 
L 777.6 209.229867 
" clip-path="url(#p87fa205306)" style="fill: none; stroke: #b0b0b0; stroke-width: 0.8; stroke-linecap: square"/>
     </g>
     <g id="line2d_16">
      <g>
       <use xlink:href="#m24edf6ae1d" x="108" y="209.229867" style="stroke: #000000; stroke-width: 0.8"/>
      </g>
     </g>
     <g id="text_9">
      <!-- 0.05 -->
      <g transform="translate(69.828125 214.548773) scale(0.14 -0.14)">
       <defs>
        <path id="DejaVuSans-35" d="M 691 4666 
L 3169 4666 
L 3169 4134 
L 1269 4134 
L 1269 2991 
Q 1406 3038 1543 3061 
Q 1681 3084 1819 3084 
Q 2600 3084 3056 2656 
Q 3513 2228 3513 1497 
Q 3513 744 3044 326 
Q 2575 -91 1722 -91 
Q 1428 -91 1123 -41 
Q 819 9 494 109 
L 494 744 
Q 775 591 1075 516 
Q 1375 441 1709 441 
Q 2250 441 2565 725 
Q 2881 1009 2881 1497 
Q 2881 1984 2565 2268 
Q 2250 2553 1709 2553 
Q 1456 2553 1204 2497 
Q 953 2441 691 2322 
L 691 4666 
z
" transform="scale(0.015625)"/>
       </defs>
       <use xlink:href="#DejaVuSans-30"/>
       <use xlink:href="#DejaVuSans-2e" x="63.623047"/>
       <use xlink:href="#DejaVuSans-30" x="95.410156"/>
       <use xlink:href="#DejaVuSans-35" x="159.033203"/>
      </g>
     </g>
    </g>
    <g id="ytick_3">
     <g id="line2d_17">
      <path d="M 108 172.219733 
L 777.6 172.219733 
" clip-path="url(#p87fa205306)" style="fill: none; stroke: #b0b0b0; stroke-width: 0.8; stroke-linecap: square"/>
     </g>
     <g id="line2d_18">
      <g>
       <use xlink:href="#m24edf6ae1d" x="108" y="172.219733" style="stroke: #000000; stroke-width: 0.8"/>
      </g>
     </g>
     <g id="text_10">
      <!-- 0.10 -->
      <g transform="translate(69.828125 177.53864) scale(0.14 -0.14)">
       <use xlink:href="#DejaVuSans-30"/>
       <use xlink:href="#DejaVuSans-2e" x="63.623047"/>
       <use xlink:href="#DejaVuSans-31" x="95.410156"/>
       <use xlink:href="#DejaVuSans-30" x="159.033203"/>
      </g>
     </g>
    </g>
    <g id="ytick_4">
     <g id="line2d_19">
      <path d="M 108 135.2096 
L 777.6 135.2096 
" clip-path="url(#p87fa205306)" style="fill: none; stroke: #b0b0b0; stroke-width: 0.8; stroke-linecap: square"/>
     </g>
     <g id="line2d_20">
      <g>
       <use xlink:href="#m24edf6ae1d" x="108" y="135.2096" style="stroke: #000000; stroke-width: 0.8"/>
      </g>
     </g>
     <g id="text_11">
      <!-- 0.15 -->
      <g transform="translate(69.828125 140.528506) scale(0.14 -0.14)">
       <use xlink:href="#DejaVuSans-30"/>
       <use xlink:href="#DejaVuSans-2e" x="63.623047"/>
       <use xlink:href="#DejaVuSans-31" x="95.410156"/>
       <use xlink:href="#DejaVuSans-35" x="159.033203"/>
      </g>
     </g>
    </g>
    <g id="ytick_5">
     <g id="line2d_21">
      <path d="M 108 98.199467 
L 777.6 98.199467 
" clip-path="url(#p87fa205306)" style="fill: none; stroke: #b0b0b0; stroke-width: 0.8; stroke-linecap: square"/>
     </g>
     <g id="line2d_22">
      <g>
       <use xlink:href="#m24edf6ae1d" x="108" y="98.199467" style="stroke: #000000; stroke-width: 0.8"/>
      </g>
     </g>
     <g id="text_12">
      <!-- 0.20 -->
      <g transform="translate(69.828125 103.518373) scale(0.14 -0.14)">
       <use xlink:href="#DejaVuSans-30"/>
       <use xlink:href="#DejaVuSans-2e" x="63.623047"/>
       <use xlink:href="#DejaVuSans-32" x="95.410156"/>
       <use xlink:href="#DejaVuSans-30" x="159.033203"/>
      </g>
     </g>
    </g>
    <g id="ytick_6">
     <g id="line2d_23">
      <path d="M 108 61.189333 
L 777.6 61.189333 
" clip-path="url(#p87fa205306)" style="fill: none; stroke: #b0b0b0; stroke-width: 0.8; stroke-linecap: square"/>
     </g>
     <g id="line2d_24">
      <g>
       <use xlink:href="#m24edf6ae1d" x="108" y="61.189333" style="stroke: #000000; stroke-width: 0.8"/>
      </g>
     </g>
     <g id="text_13">
      <!-- 0.25 -->
      <g transform="translate(69.828125 66.508239) scale(0.14 -0.14)">
       <use xlink:href="#DejaVuSans-30"/>
       <use xlink:href="#DejaVuSans-2e" x="63.623047"/>
       <use xlink:href="#DejaVuSans-32" x="95.410156"/>
       <use xlink:href="#DejaVuSans-35" x="159.033203"/>
      </g>
     </g>
    </g>
    <g id="text_14">
     <!-- $g_{Inhib}$ (µS) -->
     <g transform="translate(62.888125 178.83) rotate(-90) scale(0.14 -0.14)">
      <defs>
       <path id="DejaVuSans-Oblique-67" d="M 3816 3500 
L 3219 434 
Q 3047 -456 2561 -893 
Q 2075 -1331 1253 -1331 
Q 950 -1331 690 -1286 
Q 431 -1241 206 -1147 
L 313 -588 
Q 525 -725 762 -790 
Q 1000 -856 1269 -856 
Q 1816 -856 2167 -557 
Q 2519 -259 2631 300 
L 2681 563 
Q 2441 288 2122 144 
Q 1803 0 1434 0 
Q 903 0 598 351 
Q 294 703 294 1319 
Q 294 1803 478 2267 
Q 663 2731 997 3091 
Q 1219 3328 1514 3456 
Q 1809 3584 2131 3584 
Q 2484 3584 2746 3420 
Q 3009 3256 3138 2956 
L 3238 3500 
L 3816 3500 
z
M 2950 2216 
Q 2950 2641 2750 2872 
Q 2550 3103 2181 3103 
Q 1953 3103 1747 3012 
Q 1541 2922 1394 2759 
Q 1156 2491 1023 2127 
Q 891 1763 891 1375 
Q 891 944 1092 712 
Q 1294 481 1672 481 
Q 2219 481 2584 976 
Q 2950 1472 2950 2216 
z
" transform="scale(0.015625)"/>
       <path id="DejaVuSans-Oblique-49" d="M 1081 4666 
L 1716 4666 
L 806 0 
L 172 0 
L 1081 4666 
z
" transform="scale(0.015625)"/>
       <path id="DejaVuSans-Oblique-6e" d="M 3566 2113 
L 3156 0 
L 2578 0 
L 2988 2091 
Q 3016 2238 3031 2350 
Q 3047 2463 3047 2528 
Q 3047 2791 2881 2937 
Q 2716 3084 2419 3084 
Q 1956 3084 1622 2776 
Q 1288 2469 1184 1941 
L 800 0 
L 225 0 
L 903 3500 
L 1478 3500 
L 1363 2950 
Q 1603 3253 1940 3418 
Q 2278 3584 2650 3584 
Q 3113 3584 3367 3334 
Q 3622 3084 3622 2631 
Q 3622 2519 3608 2391 
Q 3594 2263 3566 2113 
z
" transform="scale(0.015625)"/>
       <path id="DejaVuSans-Oblique-68" d="M 3566 2113 
L 3156 0 
L 2578 0 
L 2988 2091 
Q 3016 2238 3031 2350 
Q 3047 2463 3047 2528 
Q 3047 2791 2881 2937 
Q 2716 3084 2419 3084 
Q 1956 3084 1617 2771 
Q 1278 2459 1178 1941 
L 800 0 
L 225 0 
L 1172 4863 
L 1747 4863 
L 1375 2950 
Q 1594 3244 1934 3414 
Q 2275 3584 2650 3584 
Q 3113 3584 3367 3334 
Q 3622 3084 3622 2631 
Q 3622 2519 3608 2391 
Q 3594 2263 3566 2113 
z
" transform="scale(0.015625)"/>
       <path id="DejaVuSans-Oblique-69" d="M 1172 4863 
L 1747 4863 
L 1606 4134 
L 1031 4134 
L 1172 4863 
z
M 909 3500 
L 1484 3500 
L 800 0 
L 225 0 
L 909 3500 
z
" transform="scale(0.015625)"/>
       <path id="DejaVuSans-Oblique-62" d="M 3169 2138 
Q 3169 2591 2961 2847 
Q 2753 3103 2388 3103 
Q 2122 3103 1889 2973 
Q 1656 2844 1484 2597 
Q 1303 2338 1198 1995 
Q 1094 1653 1094 1313 
Q 1094 881 1298 636 
Q 1503 391 1863 391 
Q 2134 391 2365 517 
Q 2597 644 2772 891 
Q 2950 1147 3059 1487 
Q 3169 1828 3169 2138 
z
M 1381 2969 
Q 1594 3256 1914 3420 
Q 2234 3584 2584 3584 
Q 3122 3584 3439 3221 
Q 3756 2859 3756 2241 
Q 3756 1734 3570 1259 
Q 3384 784 3041 416 
Q 2816 172 2522 40 
Q 2228 -91 1906 -91 
Q 1566 -91 1316 65 
Q 1066 222 909 531 
L 806 0 
L 231 0 
L 1178 4863 
L 1753 4863 
L 1381 2969 
z
" transform="scale(0.015625)"/>
       <path id="DejaVuSans-b5" d="M 544 -1331 
L 544 3500 
L 1119 3500 
L 1119 1325 
Q 1119 872 1334 640 
Q 1550 409 1972 409 
Q 2434 409 2667 671 
Q 2900 934 2900 1459 
L 2900 3500 
L 3475 3500 
L 3475 806 
Q 3475 619 3529 530 
Q 3584 441 3700 441 
Q 3728 441 3778 458 
Q 3828 475 3916 513 
L 3916 50 
Q 3788 -22 3673 -56 
Q 3559 -91 3450 -91 
Q 3234 -91 3106 31 
Q 2978 153 2931 403 
Q 2775 156 2548 32 
Q 2322 -91 2016 -91 
Q 1697 -91 1473 31 
Q 1250 153 1119 397 
L 1119 -1331 
L 544 -1331 
z
" transform="scale(0.015625)"/>
       <path id="DejaVuSans-53" d="M 3425 4513 
L 3425 3897 
Q 3066 4069 2747 4153 
Q 2428 4238 2131 4238 
Q 1616 4238 1336 4038 
Q 1056 3838 1056 3469 
Q 1056 3159 1242 3001 
Q 1428 2844 1947 2747 
L 2328 2669 
Q 3034 2534 3370 2195 
Q 3706 1856 3706 1288 
Q 3706 609 3251 259 
Q 2797 -91 1919 -91 
Q 1588 -91 1214 -16 
Q 841 59 441 206 
L 441 856 
Q 825 641 1194 531 
Q 1563 422 1919 422 
Q 2459 422 2753 634 
Q 3047 847 3047 1241 
Q 3047 1584 2836 1778 
Q 2625 1972 2144 2069 
L 1759 2144 
Q 1053 2284 737 2584 
Q 422 2884 422 3419 
Q 422 4038 858 4394 
Q 1294 4750 2059 4750 
Q 2388 4750 2728 4690 
Q 3069 4631 3425 4513 
z
" transform="scale(0.015625)"/>
      </defs>
      <use xlink:href="#DejaVuSans-Oblique-67" transform="translate(0 0.125)"/>
      <use xlink:href="#DejaVuSans-Oblique-49" transform="translate(63.476562 -16.28125) scale(0.7)"/>
      <use xlink:href="#DejaVuSans-Oblique-6e" transform="translate(84.121094 -16.28125) scale(0.7)"/>
      <use xlink:href="#DejaVuSans-Oblique-68" transform="translate(128.486328 -16.28125) scale(0.7)"/>
      <use xlink:href="#DejaVuSans-Oblique-69" transform="translate(172.851562 -16.28125) scale(0.7)"/>
      <use xlink:href="#DejaVuSans-Oblique-62" transform="translate(192.299805 -16.28125) scale(0.7)"/>
      <use xlink:href="#DejaVuSans-20" transform="translate(239.467773 0.125)"/>
      <use xlink:href="#DejaVuSans-28" transform="translate(271.254883 0.125)"/>
      <use xlink:href="#DejaVuSans-b5" transform="translate(310.268555 0.125)"/>
      <use xlink:href="#DejaVuSans-53" transform="translate(373.891602 0.125)"/>
      <use xlink:href="#DejaVuSans-29" transform="translate(437.368164 0.125)"/>
     </g>
    </g>
   </g>
   <g id="line2d_25">
    <path d="M 108 181.290433 
L 109.3392 183.361073 
L 110.0088 170.429177 
L 110.6784 145.463206 
L 112.0176 133.167892 
L 112.6872 132.349543 
L 113.3568 127.055968 
L 115.3656 104.048182 
L 116.0352 103.545199 
L 117.3744 107.944296 
L 118.044 103.195472 
L 118.7136 102.858764 
L 119.3832 105.010255 
L 120.0528 100.308581 
L 120.7224 86.075935 
L 121.392 83.226398 
L 122.0616 78.569635 
L 122.7312 78.628651 
L 123.4008 81.169508 
L 124.0704 76.850942 
L 124.74 76.937577 
L 127.4184 87.415141 
L 128.088 82.996211 
L 128.7576 82.984094 
L 129.4272 78.483797 
L 130.0968 78.544193 
L 136.1232 101.161364 
L 136.7928 96.521539 
L 137.4624 96.292078 
L 142.1496 112.229034 
L 142.8192 107.411358 
L 143.4888 107.006902 
L 145.4976 113.464124 
L 146.1672 108.6266 
L 146.8368 108.202616 
L 147.5064 103.29707 
L 148.176 102.958729 
L 154.872 124.255831 
L 158.22 133.746969 
L 161.568 142.499637 
L 164.916 150.571291 
L 168.264 158.01492 
L 171.612 164.879388 
L 174.96 171.209757 
L 178.308 177.047583 
L 181.656 182.43119 
L 185.004 187.395918 
L 188.352 191.974359 
L 191.7 196.196568 
L 195.048 200.090263 
L 198.396 203.681003 
L 201.744 206.992362 
L 203.0832 208.243606 
L 203.7528 201.883024 
L 204.4224 199.960458 
L 205.7616 201.285764 
L 209.1096 204.783487 
L 212.4576 208.009065 
L 216.4752 211.550224 
L 217.1448 205.136507 
L 217.8144 203.161659 
L 218.484 203.701334 
L 221.832 207.011111 
L 224.5104 209.472531 
L 225.18 203.092202 
L 225.8496 194.17904 
L 226.5192 192.227702 
L 227.1888 192.94308 
L 227.8584 186.82837 
L 228.528 185.147724 
L 229.8672 186.945271 
L 230.5368 180.926943 
L 231.2064 179.34113 
L 231.876 166.321261 
L 232.5456 162.334794 
L 233.2152 156.4068 
L 233.8848 155.215013 
L 234.5544 149.554002 
L 235.224 148.472336 
L 235.8936 149.89084 
L 236.5632 144.467958 
L 237.2328 143.468022 
L 238.572 120.634183 
L 239.2416 119.7121 
L 239.9112 121.592767 
L 240.5808 116.62462 
L 241.2504 102.129784 
L 241.92 99.022269 
L 243.2592 103.41544 
L 243.9288 105.710557 
L 244.5984 100.997629 
L 245.268 100.696239 
L 245.9376 102.882481 
L 246.6072 98.214998 
L 247.2768 97.958324 
L 249.9552 107.116939 
L 250.6248 102.381411 
L 251.2944 95.08662 
L 251.964 94.727646 
L 253.9728 101.767369 
L 254.6424 90.146642 
L 255.312 87.384262 
L 256.6512 92.148461 
L 257.3208 87.653469 
L 257.9904 87.566513 
L 258.66 82.992578 
L 259.3296 82.98052 
L 261.3384 90.577503 
L 262.008 86.107755 
L 262.6776 86.045638 
L 268.0344 105.38157 
L 268.704 100.673928 
L 269.3736 100.37774 
L 273.3912 113.747602 
L 274.0608 108.905523 
L 274.7304 108.477057 
L 275.4 110.538265 
L 276.0696 105.747758 
L 276.7392 105.370036 
L 284.1048 128.233776 
L 287.4528 137.415404 
L 289.4616 142.577817 
L 290.1312 137.272451 
L 290.8008 136.388143 
L 292.8096 141.451579 
L 296.1576 149.60478 
L 299.5056 157.123609 
L 302.8536 164.057427 
L 306.2016 170.451749 
L 309.5496 176.348553 
L 310.2192 177.471673 
L 310.8888 171.605581 
L 311.5584 170.169557 
L 312.8976 172.44462 
L 316.2456 178.186366 
L 319.5936 183.481368 
L 320.2632 177.518703 
L 320.9328 175.987658 
L 322.272 178.077235 
L 325.62 183.380728 
L 326.2896 177.419681 
L 326.9592 175.890228 
L 328.2984 177.982911 
L 331.6464 183.293743 
L 332.316 184.305257 
L 332.9856 178.329352 
L 333.6552 176.785281 
L 334.3248 177.748811 
L 334.9944 171.878265 
L 335.664 163.466696 
L 336.3336 162.008889 
L 337.6728 164.544119 
L 338.3424 158.885766 
L 339.012 157.654143 
L 339.6816 158.925101 
L 340.3512 153.357042 
L 341.0208 152.214264 
L 343.0296 156.526941 
L 345.708 162.155997 
L 346.3776 156.536019 
L 347.0472 148.370992 
L 347.7168 147.155765 
L 349.7256 151.708407 
L 353.0736 159.063562 
L 353.7432 160.464442 
L 354.4128 154.871647 
L 355.0824 146.733366 
L 355.752 145.544454 
L 357.7608 150.173534 
L 358.4304 144.746109 
L 359.1 136.770539 
L 359.7696 135.741725 
L 361.1088 139.114372 
L 361.7784 133.864662 
L 362.448 126.063952 
L 363.1176 125.207187 
L 366.4656 134.481305 
L 367.1352 122.334882 
L 367.8048 119.055253 
L 369.144 122.809757 
L 371.1528 128.665032 
L 371.8224 123.583237 
L 372.492 122.918908 
L 373.8312 126.700356 
L 374.5008 121.650132 
L 375.1704 121.016868 
L 377.1792 126.809485 
L 377.8488 121.757508 
L 378.5184 121.122518 
L 379.188 122.980519 
L 379.8576 111.018908 
L 380.5272 107.921121 
L 381.1968 109.838691 
L 381.8664 105.059426 
L 382.536 104.692765 
L 383.2056 106.814784 
L 383.8752 95.112948 
L 384.5448 92.270762 
L 385.884 96.879175 
L 387.8928 103.964542 
L 388.5624 99.279672 
L 389.232 99.005889 
L 394.5888 116.76646 
L 395.2584 111.875869 
L 395.928 111.399672 
L 396.5976 106.44275 
L 397.2672 106.05386 
L 404.6328 128.805982 
L 407.9808 137.94309 
L 411.3288 146.369273 
L 414.6768 154.139845 
L 418.0248 161.305818 
L 421.3728 167.914233 
L 423.3816 171.629845 
L 424.0512 165.857628 
L 424.7208 164.513971 
L 426.06 166.969338 
L 429.408 173.137095 
L 432.756 178.824962 
L 436.104 184.070278 
L 439.452 188.907474 
L 442.8 193.368306 
L 446.148 197.482058 
L 449.496 201.275733 
L 452.844 204.774237 
L 456.192 208.000535 
L 460.2096 211.542484 
L 460.8792 205.128891 
L 461.5488 203.154165 
L 462.2184 203.693961 
L 465.5664 207.004311 
L 469.584 210.638536 
L 473.6016 213.936139 
L 477.6192 216.9283 
L 480.9672 219.208935 
L 481.6368 212.672146 
L 482.3064 203.60504 
L 482.976 201.50223 
L 484.3152 202.778384 
L 484.9848 196.505625 
L 485.6544 194.669471 
L 486.9936 196.163458 
L 487.6632 189.996998 
L 488.3328 188.265434 
L 489.672 189.963586 
L 492.3504 193.494656 
L 493.02 180.399918 
L 493.6896 176.187215 
L 494.3592 177.007783 
L 495.0288 171.149145 
L 495.6984 162.749293 
L 496.368 161.303014 
L 497.7072 163.860748 
L 498.3768 158.213376 
L 499.0464 156.992559 
L 499.716 151.302983 
L 500.3856 150.193212 
L 502.3944 154.601765 
L 503.064 156.074344 
L 503.7336 150.552095 
L 504.4032 149.454391 
L 505.0728 150.857114 
L 505.7424 145.418704 
L 506.412 144.40349 
L 507.0816 145.887379 
L 507.7512 140.52883 
L 508.4208 139.592194 
L 509.0904 134.182233 
L 509.76 133.347584 
L 512.4384 140.285697 
L 513.7776 143.663598 
L 514.4472 138.340784 
L 515.1168 123.496981 
L 515.7864 120.046106 
L 517.1256 123.769022 
L 519.804 131.453476 
L 520.4736 126.326872 
L 521.1432 125.618455 
L 522.4824 129.313839 
L 523.152 110.27929 
L 523.8216 97.586865 
L 524.4912 96.882569 
L 527.1696 106.108682 
L 527.8392 101.389356 
L 528.5088 101.081672 
L 529.1784 96.290556 
L 529.848 96.064806 
L 530.5176 98.325472 
L 531.1872 93.731219 
L 531.8568 86.575432 
L 532.5264 86.353228 
L 537.2136 103.355694 
L 537.8832 98.680607 
L 538.5528 91.445287 
L 539.2224 91.144826 
L 541.2312 98.354512 
L 541.9008 93.759791 
L 542.5704 93.57471 
L 549.2664 116.275274 
L 552.6144 126.38735 
L 555.9624 135.712642 
L 559.3104 144.312368 
L 562.6584 152.242981 
L 566.0064 159.556542 
L 569.3544 166.301062 
L 572.7024 172.520815 
L 576.0504 178.256633 
L 579.3984 183.546168 
L 582.7464 188.424143 
L 586.0944 192.922582 
L 589.4424 197.071013 
L 592.7904 200.896671 
L 596.1384 204.424668 
L 599.4864 207.678164 
L 603.504 211.249973 
L 604.8432 212.365481 
L 605.5128 205.938663 
L 606.1824 203.950925 
L 606.852 204.477917 
L 608.1912 205.809323 
L 608.8608 199.487859 
L 609.5304 197.603782 
L 610.8696 199.004221 
L 614.2176 202.679462 
L 616.896 205.412673 
L 617.5656 199.097583 
L 618.2352 197.219777 
L 618.9048 190.883771 
L 619.5744 189.137957 
L 620.244 182.931822 
L 620.9136 181.313792 
L 622.2528 183.233568 
L 622.9224 177.274885 
L 623.592 175.747758 
L 624.2616 169.756797 
L 624.9312 168.350482 
L 626.2704 170.683538 
L 626.94 171.897692 
L 627.6096 166.12117 
L 628.2792 164.773279 
L 629.6184 167.220378 
L 632.9664 173.368603 
L 633.636 174.539609 
L 634.3056 168.720633 
L 634.9752 167.33097 
L 636.3144 169.696528 
L 636.984 170.926543 
L 637.6536 165.165627 
L 638.3232 163.83309 
L 638.9928 158.033591 
L 639.6624 149.844499 
L 640.332 148.605593 
L 642.3408 153.089459 
L 643.0104 154.58634 
L 643.68 149.088003 
L 644.3496 148.013826 
L 645.0192 142.468534 
L 646.3584 126.565597 
L 647.028 125.700772 
L 647.6976 127.485203 
L 648.3672 115.451204 
L 649.0368 112.282192 
L 649.7064 107.158518 
L 650.376 99.786962 
L 651.0456 99.352455 
L 651.7152 94.589126 
L 652.3848 87.419554 
L 653.0544 87.183785 
L 658.4112 106.381372 
L 659.0808 101.657664 
L 659.7504 101.345667 
L 661.7592 108.071446 
L 662.4288 103.320579 
L 663.0984 96.010697 
L 663.768 95.636873 
L 667.7856 109.44586 
L 668.4552 104.672907 
L 669.1248 104.312458 
L 669.7944 99.469424 
L 670.464 99.192592 
L 677.16 121.052953 
L 677.8296 123.064644 
L 678.4992 118.072845 
L 679.1688 117.497065 
L 686.5344 138.381371 
L 689.2128 145.148972 
L 689.8824 139.802288 
L 690.552 138.877328 
L 692.5608 143.822682 
L 693.2304 145.468476 
L 693.9 140.116658 
L 694.5696 139.186646 
L 696.5784 144.117327 
L 699.9264 152.063115 
L 703.2744 159.390671 
L 706.6224 166.148096 
L 709.9704 172.379752 
L 713.3184 178.126545 
L 716.6664 183.426202 
L 720.0144 188.313511 
L 723.3624 192.820558 
L 726.7104 196.976927 
L 730.0584 200.809905 
L 733.4064 204.344653 
L 736.7544 207.604375 
L 738.7632 209.437169 
L 739.4328 203.057408 
L 740.1024 201.11597 
L 740.772 194.717354 
L 741.4416 192.909936 
L 742.7808 194.460018 
L 746.1288 198.488827 
L 749.4768 202.20417 
L 752.8248 205.630435 
L 753.4944 206.28301 
L 754.164 192.98277 
L 754.8336 188.567866 
L 755.5032 189.189484 
L 758.8512 193.628374 
L 759.5208 180.531488 
L 760.1904 176.31667 
L 760.86 177.135159 
L 761.5296 171.274474 
L 762.1992 162.872607 
L 762.8688 161.424346 
L 764.208 163.978212 
L 764.8776 165.300117 
L 765.5472 159.629615 
L 766.2168 151.414876 
L 766.8864 150.150735 
L 768.2256 153.064012 
L 768.8952 147.590138 
L 769.5648 146.540031 
L 770.2344 147.989586 
L 770.904 142.597256 
L 772.9128 118.852223 
L 773.5824 118.111347 
L 774.252 106.075409 
L 774.9216 89.114734 
L 775.5912 79.092628 
L 776.2608 78.838097 
L 776.9304 74.404424 
L 777.6 74.530373 
L 777.6 74.530373 
" clip-path="url(#p87fa205306)" style="fill: none; stroke: #ff4500; stroke-width: 1.5; stroke-linecap: square"/>
   </g>
   <g id="patch_3">
    <path d="M 108 256.32 
L 108 34.56 
" style="fill: none; stroke: #000000; stroke-width: 0.8; stroke-linejoin: miter; stroke-linecap: square"/>
   </g>
   <g id="patch_4">
    <path d="M 777.6 256.32 
L 777.6 34.56 
" style="fill: none; stroke: #000000; stroke-width: 0.8; stroke-linejoin: miter; stroke-linecap: square"/>
   </g>
   <g id="patch_5">
    <path d="M 108 256.32 
L 777.6 256.32 
" style="fill: none; stroke: #000000; stroke-width: 0.8; stroke-linejoin: miter; stroke-linecap: square"/>
   </g>
   <g id="patch_6">
    <path d="M 108 34.56 
L 777.6 34.56 
" style="fill: none; stroke: #000000; stroke-width: 0.8; stroke-linejoin: miter; stroke-linecap: square"/>
   </g>
  </g>
 </g>
 <defs>
  <clipPath id="p87fa205306">
   <rect x="108" y="34.56" width="669.6" height="221.76"/>
  </clipPath>
 </defs>
</svg>
