<?xml version="1.0" encoding="utf-8" standalone="no"?>
<!DOCTYPE svg PUBLIC "-//W3C//DTD SVG 1.1//EN"
  "http://www.w3.org/Graphics/SVG/1.1/DTD/svg11.dtd">
<svg xmlns:xlink="http://www.w3.org/1999/xlink" width="864pt" height="288pt" viewBox="0 0 864 288" xmlns="http://www.w3.org/2000/svg" version="1.1">
 <metadata>
  <rdf:RDF xmlns:dc="http://purl.org/dc/elements/1.1/" xmlns:cc="http://creativecommons.org/ns#" xmlns:rdf="http://www.w3.org/1999/02/22-rdf-syntax-ns#">
   <cc:Work>
    <dc:type rdf:resource="http://purl.org/dc/dcmitype/StillImage"/>
    <dc:date>2024-04-26T13:28:22.557508</dc:date>
    <dc:format>image/svg+xml</dc:format>
    <dc:creator>
     <cc:Agent>
      <dc:title>Matplotlib v3.8.2, https://matplotlib.org/</dc:title>
     </cc:Agent>
    </dc:creator>
   </cc:Work>
  </rdf:RDF>
 </metadata>
 <defs>
  <style type="text/css">*{stroke-linejoin: round; stroke-linecap: butt}</style>
 </defs>
 <g id="figure_1">
  <g id="patch_1">
   <path d="M 0 288 
L 864 288 
L 864 0 
L 0 0 
z
" style="fill: #ffffff"/>
  </g>
  <g id="axes_1">
   <g id="patch_2">
    <path d="M 108 256.32 
L 777.6 256.32 
L 777.6 34.56 
L 108 34.56 
z
" style="fill: #ffffff"/>
   </g>
   <g id="matplotlib.axis_1">
    <g id="xtick_1">
     <g id="line2d_1">
      <path d="M 108 256.32 
L 108 34.56 
" clip-path="url(#p537fc2efd7)" style="fill: none; stroke: #b0b0b0; stroke-width: 0.8; stroke-linecap: square"/>
     </g>
     <g id="line2d_2">
      <defs>
       <path id="m61d1068b79" d="M 0 0 
L 0 3.5 
" style="stroke: #000000; stroke-width: 0.8"/>
      </defs>
      <g>
       <use xlink:href="#m61d1068b79" x="108" y="256.32" style="stroke: #000000; stroke-width: 0.8"/>
      </g>
     </g>
     <g id="text_1">
      <!-- 100 -->
      <g transform="translate(94.63875 273.957812) scale(0.14 -0.14)">
       <defs>
        <path id="DejaVuSans-31" d="M 794 531 
L 1825 531 
L 1825 4091 
L 703 3866 
L 703 4441 
L 1819 4666 
L 2450 4666 
L 2450 531 
L 3481 531 
L 3481 0 
L 794 0 
L 794 531 
z
" transform="scale(0.015625)"/>
        <path id="DejaVuSans-30" d="M 2034 4250 
Q 1547 4250 1301 3770 
Q 1056 3291 1056 2328 
Q 1056 1369 1301 889 
Q 1547 409 2034 409 
Q 2525 409 2770 889 
Q 3016 1369 3016 2328 
Q 3016 3291 2770 3770 
Q 2525 4250 2034 4250 
z
M 2034 4750 
Q 2819 4750 3233 4129 
Q 3647 3509 3647 2328 
Q 3647 1150 3233 529 
Q 2819 -91 2034 -91 
Q 1250 -91 836 529 
Q 422 1150 422 2328 
Q 422 3509 836 4129 
Q 1250 4750 2034 4750 
z
" transform="scale(0.015625)"/>
       </defs>
       <use xlink:href="#DejaVuSans-31"/>
       <use xlink:href="#DejaVuSans-30" x="63.623047"/>
       <use xlink:href="#DejaVuSans-30" x="127.246094"/>
      </g>
     </g>
    </g>
    <g id="xtick_2">
     <g id="line2d_3">
      <path d="M 241.92 256.32 
L 241.92 34.56 
" clip-path="url(#p537fc2efd7)" style="fill: none; stroke: #b0b0b0; stroke-width: 0.8; stroke-linecap: square"/>
     </g>
     <g id="line2d_4">
      <g>
       <use xlink:href="#m61d1068b79" x="241.92" y="256.32" style="stroke: #000000; stroke-width: 0.8"/>
      </g>
     </g>
     <g id="text_2">
      <!-- 120 -->
      <g transform="translate(228.55875 273.957812) scale(0.14 -0.14)">
       <defs>
        <path id="DejaVuSans-32" d="M 1228 531 
L 3431 531 
L 3431 0 
L 469 0 
L 469 531 
Q 828 903 1448 1529 
Q 2069 2156 2228 2338 
Q 2531 2678 2651 2914 
Q 2772 3150 2772 3378 
Q 2772 3750 2511 3984 
Q 2250 4219 1831 4219 
Q 1534 4219 1204 4116 
Q 875 4013 500 3803 
L 500 4441 
Q 881 4594 1212 4672 
Q 1544 4750 1819 4750 
Q 2544 4750 2975 4387 
Q 3406 4025 3406 3419 
Q 3406 3131 3298 2873 
Q 3191 2616 2906 2266 
Q 2828 2175 2409 1742 
Q 1991 1309 1228 531 
z
" transform="scale(0.015625)"/>
       </defs>
       <use xlink:href="#DejaVuSans-31"/>
       <use xlink:href="#DejaVuSans-32" x="63.623047"/>
       <use xlink:href="#DejaVuSans-30" x="127.246094"/>
      </g>
     </g>
    </g>
    <g id="xtick_3">
     <g id="line2d_5">
      <path d="M 375.84 256.32 
L 375.84 34.56 
" clip-path="url(#p537fc2efd7)" style="fill: none; stroke: #b0b0b0; stroke-width: 0.8; stroke-linecap: square"/>
     </g>
     <g id="line2d_6">
      <g>
       <use xlink:href="#m61d1068b79" x="375.84" y="256.32" style="stroke: #000000; stroke-width: 0.8"/>
      </g>
     </g>
     <g id="text_3">
      <!-- 140 -->
      <g transform="translate(362.47875 273.957812) scale(0.14 -0.14)">
       <defs>
        <path id="DejaVuSans-34" d="M 2419 4116 
L 825 1625 
L 2419 1625 
L 2419 4116 
z
M 2253 4666 
L 3047 4666 
L 3047 1625 
L 3713 1625 
L 3713 1100 
L 3047 1100 
L 3047 0 
L 2419 0 
L 2419 1100 
L 313 1100 
L 313 1709 
L 2253 4666 
z
" transform="scale(0.015625)"/>
       </defs>
       <use xlink:href="#DejaVuSans-31"/>
       <use xlink:href="#DejaVuSans-34" x="63.623047"/>
       <use xlink:href="#DejaVuSans-30" x="127.246094"/>
      </g>
     </g>
    </g>
    <g id="xtick_4">
     <g id="line2d_7">
      <path d="M 509.76 256.32 
L 509.76 34.56 
" clip-path="url(#p537fc2efd7)" style="fill: none; stroke: #b0b0b0; stroke-width: 0.8; stroke-linecap: square"/>
     </g>
     <g id="line2d_8">
      <g>
       <use xlink:href="#m61d1068b79" x="509.76" y="256.32" style="stroke: #000000; stroke-width: 0.8"/>
      </g>
     </g>
     <g id="text_4">
      <!-- 160 -->
      <g transform="translate(496.39875 273.957812) scale(0.14 -0.14)">
       <defs>
        <path id="DejaVuSans-36" d="M 2113 2584 
Q 1688 2584 1439 2293 
Q 1191 2003 1191 1497 
Q 1191 994 1439 701 
Q 1688 409 2113 409 
Q 2538 409 2786 701 
Q 3034 994 3034 1497 
Q 3034 2003 2786 2293 
Q 2538 2584 2113 2584 
z
M 3366 4563 
L 3366 3988 
Q 3128 4100 2886 4159 
Q 2644 4219 2406 4219 
Q 1781 4219 1451 3797 
Q 1122 3375 1075 2522 
Q 1259 2794 1537 2939 
Q 1816 3084 2150 3084 
Q 2853 3084 3261 2657 
Q 3669 2231 3669 1497 
Q 3669 778 3244 343 
Q 2819 -91 2113 -91 
Q 1303 -91 875 529 
Q 447 1150 447 2328 
Q 447 3434 972 4092 
Q 1497 4750 2381 4750 
Q 2619 4750 2861 4703 
Q 3103 4656 3366 4563 
z
" transform="scale(0.015625)"/>
       </defs>
       <use xlink:href="#DejaVuSans-31"/>
       <use xlink:href="#DejaVuSans-36" x="63.623047"/>
       <use xlink:href="#DejaVuSans-30" x="127.246094"/>
      </g>
     </g>
    </g>
    <g id="xtick_5">
     <g id="line2d_9">
      <path d="M 643.68 256.32 
L 643.68 34.56 
" clip-path="url(#p537fc2efd7)" style="fill: none; stroke: #b0b0b0; stroke-width: 0.8; stroke-linecap: square"/>
     </g>
     <g id="line2d_10">
      <g>
       <use xlink:href="#m61d1068b79" x="643.68" y="256.32" style="stroke: #000000; stroke-width: 0.8"/>
      </g>
     </g>
     <g id="text_5">
      <!-- 180 -->
      <g transform="translate(630.31875 273.957812) scale(0.14 -0.14)">
       <defs>
        <path id="DejaVuSans-38" d="M 2034 2216 
Q 1584 2216 1326 1975 
Q 1069 1734 1069 1313 
Q 1069 891 1326 650 
Q 1584 409 2034 409 
Q 2484 409 2743 651 
Q 3003 894 3003 1313 
Q 3003 1734 2745 1975 
Q 2488 2216 2034 2216 
z
M 1403 2484 
Q 997 2584 770 2862 
Q 544 3141 544 3541 
Q 544 4100 942 4425 
Q 1341 4750 2034 4750 
Q 2731 4750 3128 4425 
Q 3525 4100 3525 3541 
Q 3525 3141 3298 2862 
Q 3072 2584 2669 2484 
Q 3125 2378 3379 2068 
Q 3634 1759 3634 1313 
Q 3634 634 3220 271 
Q 2806 -91 2034 -91 
Q 1263 -91 848 271 
Q 434 634 434 1313 
Q 434 1759 690 2068 
Q 947 2378 1403 2484 
z
M 1172 3481 
Q 1172 3119 1398 2916 
Q 1625 2713 2034 2713 
Q 2441 2713 2670 2916 
Q 2900 3119 2900 3481 
Q 2900 3844 2670 4047 
Q 2441 4250 2034 4250 
Q 1625 4250 1398 4047 
Q 1172 3844 1172 3481 
z
" transform="scale(0.015625)"/>
       </defs>
       <use xlink:href="#DejaVuSans-31"/>
       <use xlink:href="#DejaVuSans-38" x="63.623047"/>
       <use xlink:href="#DejaVuSans-30" x="127.246094"/>
      </g>
     </g>
    </g>
    <g id="xtick_6">
     <g id="line2d_11">
      <path d="M 777.6 256.32 
L 777.6 34.56 
" clip-path="url(#p537fc2efd7)" style="fill: none; stroke: #b0b0b0; stroke-width: 0.8; stroke-linecap: square"/>
     </g>
     <g id="line2d_12">
      <g>
       <use xlink:href="#m61d1068b79" x="777.6" y="256.32" style="stroke: #000000; stroke-width: 0.8"/>
      </g>
     </g>
     <g id="text_6">
      <!-- 200 -->
      <g transform="translate(764.23875 273.957812) scale(0.14 -0.14)">
       <use xlink:href="#DejaVuSans-32"/>
       <use xlink:href="#DejaVuSans-30" x="63.623047"/>
       <use xlink:href="#DejaVuSans-30" x="127.246094"/>
      </g>
     </g>
    </g>
    <g id="text_7">
     <!-- Time (ms) -->
     <g transform="translate(407.521094 291.507187) scale(0.14 -0.14)">
      <defs>
       <path id="DejaVuSans-54" d="M -19 4666 
L 3928 4666 
L 3928 4134 
L 2272 4134 
L 2272 0 
L 1638 0 
L 1638 4134 
L -19 4134 
L -19 4666 
z
" transform="scale(0.015625)"/>
       <path id="DejaVuSans-69" d="M 603 3500 
L 1178 3500 
L 1178 0 
L 603 0 
L 603 3500 
z
M 603 4863 
L 1178 4863 
L 1178 4134 
L 603 4134 
L 603 4863 
z
" transform="scale(0.015625)"/>
       <path id="DejaVuSans-6d" d="M 3328 2828 
Q 3544 3216 3844 3400 
Q 4144 3584 4550 3584 
Q 5097 3584 5394 3201 
Q 5691 2819 5691 2113 
L 5691 0 
L 5113 0 
L 5113 2094 
Q 5113 2597 4934 2840 
Q 4756 3084 4391 3084 
Q 3944 3084 3684 2787 
Q 3425 2491 3425 1978 
L 3425 0 
L 2847 0 
L 2847 2094 
Q 2847 2600 2669 2842 
Q 2491 3084 2119 3084 
Q 1678 3084 1418 2786 
Q 1159 2488 1159 1978 
L 1159 0 
L 581 0 
L 581 3500 
L 1159 3500 
L 1159 2956 
Q 1356 3278 1631 3431 
Q 1906 3584 2284 3584 
Q 2666 3584 2933 3390 
Q 3200 3197 3328 2828 
z
" transform="scale(0.015625)"/>
       <path id="DejaVuSans-65" d="M 3597 1894 
L 3597 1613 
L 953 1613 
Q 991 1019 1311 708 
Q 1631 397 2203 397 
Q 2534 397 2845 478 
Q 3156 559 3463 722 
L 3463 178 
Q 3153 47 2828 -22 
Q 2503 -91 2169 -91 
Q 1331 -91 842 396 
Q 353 884 353 1716 
Q 353 2575 817 3079 
Q 1281 3584 2069 3584 
Q 2775 3584 3186 3129 
Q 3597 2675 3597 1894 
z
M 3022 2063 
Q 3016 2534 2758 2815 
Q 2500 3097 2075 3097 
Q 1594 3097 1305 2825 
Q 1016 2553 972 2059 
L 3022 2063 
z
" transform="scale(0.015625)"/>
       <path id="DejaVuSans-20" transform="scale(0.015625)"/>
       <path id="DejaVuSans-28" d="M 1984 4856 
Q 1566 4138 1362 3434 
Q 1159 2731 1159 2009 
Q 1159 1288 1364 580 
Q 1569 -128 1984 -844 
L 1484 -844 
Q 1016 -109 783 600 
Q 550 1309 550 2009 
Q 550 2706 781 3412 
Q 1013 4119 1484 4856 
L 1984 4856 
z
" transform="scale(0.015625)"/>
       <path id="DejaVuSans-73" d="M 2834 3397 
L 2834 2853 
Q 2591 2978 2328 3040 
Q 2066 3103 1784 3103 
Q 1356 3103 1142 2972 
Q 928 2841 928 2578 
Q 928 2378 1081 2264 
Q 1234 2150 1697 2047 
L 1894 2003 
Q 2506 1872 2764 1633 
Q 3022 1394 3022 966 
Q 3022 478 2636 193 
Q 2250 -91 1575 -91 
Q 1294 -91 989 -36 
Q 684 19 347 128 
L 347 722 
Q 666 556 975 473 
Q 1284 391 1588 391 
Q 1994 391 2212 530 
Q 2431 669 2431 922 
Q 2431 1156 2273 1281 
Q 2116 1406 1581 1522 
L 1381 1569 
Q 847 1681 609 1914 
Q 372 2147 372 2553 
Q 372 3047 722 3315 
Q 1072 3584 1716 3584 
Q 2034 3584 2315 3537 
Q 2597 3491 2834 3397 
z
" transform="scale(0.015625)"/>
       <path id="DejaVuSans-29" d="M 513 4856 
L 1013 4856 
Q 1481 4119 1714 3412 
Q 1947 2706 1947 2009 
Q 1947 1309 1714 600 
Q 1481 -109 1013 -844 
L 513 -844 
Q 928 -128 1133 580 
Q 1338 1288 1338 2009 
Q 1338 2731 1133 3434 
Q 928 4138 513 4856 
z
" transform="scale(0.015625)"/>
      </defs>
      <use xlink:href="#DejaVuSans-54"/>
      <use xlink:href="#DejaVuSans-69" x="57.958984"/>
      <use xlink:href="#DejaVuSans-6d" x="85.742188"/>
      <use xlink:href="#DejaVuSans-65" x="183.154297"/>
      <use xlink:href="#DejaVuSans-20" x="244.677734"/>
      <use xlink:href="#DejaVuSans-28" x="276.464844"/>
      <use xlink:href="#DejaVuSans-6d" x="315.478516"/>
      <use xlink:href="#DejaVuSans-73" x="412.890625"/>
      <use xlink:href="#DejaVuSans-29" x="464.990234"/>
     </g>
    </g>
   </g>
   <g id="matplotlib.axis_2">
    <g id="ytick_1">
     <g id="line2d_13">
      <path d="M 108 225.124765 
L 777.6 225.124765 
" clip-path="url(#p537fc2efd7)" style="fill: none; stroke: #b0b0b0; stroke-width: 0.8; stroke-linecap: square"/>
     </g>
     <g id="line2d_14">
      <defs>
       <path id="m76db8d329c" d="M 0 0 
L -3.5 0 
" style="stroke: #000000; stroke-width: 0.8"/>
      </defs>
      <g>
       <use xlink:href="#m76db8d329c" x="108" y="225.124765" style="stroke: #000000; stroke-width: 0.8"/>
      </g>
     </g>
     <g id="text_8">
      <!-- −60 -->
      <g transform="translate(71.453437 230.443671) scale(0.14 -0.14)">
       <defs>
        <path id="DejaVuSans-2212" d="M 678 2272 
L 4684 2272 
L 4684 1741 
L 678 1741 
L 678 2272 
z
" transform="scale(0.015625)"/>
       </defs>
       <use xlink:href="#DejaVuSans-2212"/>
       <use xlink:href="#DejaVuSans-36" x="83.789062"/>
       <use xlink:href="#DejaVuSans-30" x="147.412109"/>
      </g>
     </g>
    </g>
    <g id="ytick_2">
     <g id="line2d_15">
      <path d="M 108 182.961585 
L 777.6 182.961585 
" clip-path="url(#p537fc2efd7)" style="fill: none; stroke: #b0b0b0; stroke-width: 0.8; stroke-linecap: square"/>
     </g>
     <g id="line2d_16">
      <g>
       <use xlink:href="#m76db8d329c" x="108" y="182.961585" style="stroke: #000000; stroke-width: 0.8"/>
      </g>
     </g>
     <g id="text_9">
      <!-- −40 -->
      <g transform="translate(71.453437 188.280491) scale(0.14 -0.14)">
       <use xlink:href="#DejaVuSans-2212"/>
       <use xlink:href="#DejaVuSans-34" x="83.789062"/>
       <use xlink:href="#DejaVuSans-30" x="147.412109"/>
      </g>
     </g>
    </g>
    <g id="ytick_3">
     <g id="line2d_17">
      <path d="M 108 140.798405 
L 777.6 140.798405 
" clip-path="url(#p537fc2efd7)" style="fill: none; stroke: #b0b0b0; stroke-width: 0.8; stroke-linecap: square"/>
     </g>
     <g id="line2d_18">
      <g>
       <use xlink:href="#m76db8d329c" x="108" y="140.798405" style="stroke: #000000; stroke-width: 0.8"/>
      </g>
     </g>
     <g id="text_10">
      <!-- −20 -->
      <g transform="translate(71.453437 146.117312) scale(0.14 -0.14)">
       <use xlink:href="#DejaVuSans-2212"/>
       <use xlink:href="#DejaVuSans-32" x="83.789062"/>
       <use xlink:href="#DejaVuSans-30" x="147.412109"/>
      </g>
     </g>
    </g>
    <g id="ytick_4">
     <g id="line2d_19">
      <path d="M 108 98.635226 
L 777.6 98.635226 
" clip-path="url(#p537fc2efd7)" style="fill: none; stroke: #b0b0b0; stroke-width: 0.8; stroke-linecap: square"/>
     </g>
     <g id="line2d_20">
      <g>
       <use xlink:href="#m76db8d329c" x="108" y="98.635226" style="stroke: #000000; stroke-width: 0.8"/>
      </g>
     </g>
     <g id="text_11">
      <!-- 0 -->
      <g transform="translate(92.0925 103.954132) scale(0.14 -0.14)">
       <use xlink:href="#DejaVuSans-30"/>
      </g>
     </g>
    </g>
    <g id="ytick_5">
     <g id="line2d_21">
      <path d="M 108 56.472046 
L 777.6 56.472046 
" clip-path="url(#p537fc2efd7)" style="fill: none; stroke: #b0b0b0; stroke-width: 0.8; stroke-linecap: square"/>
     </g>
     <g id="line2d_22">
      <g>
       <use xlink:href="#m76db8d329c" x="108" y="56.472046" style="stroke: #000000; stroke-width: 0.8"/>
      </g>
     </g>
     <g id="text_12">
      <!-- 20 -->
      <g transform="translate(83.185 61.790952) scale(0.14 -0.14)">
       <use xlink:href="#DejaVuSans-32"/>
       <use xlink:href="#DejaVuSans-30" x="63.623047"/>
      </g>
     </g>
    </g>
    <g id="text_13">
     <!-- $V_{m}$ (mV) -->
     <g transform="translate(64.541875 174.49) rotate(-90) scale(0.14 -0.14)">
      <defs>
       <path id="DejaVuSans-Oblique-56" d="M 1319 0 
L 500 4666 
L 1119 4666 
L 1797 653 
L 4063 4666 
L 4750 4666 
L 2053 0 
L 1319 0 
z
" transform="scale(0.015625)"/>
       <path id="DejaVuSans-Oblique-6d" d="M 5747 2113 
L 5338 0 
L 4763 0 
L 5166 2094 
Q 5191 2228 5203 2325 
Q 5216 2422 5216 2491 
Q 5216 2772 5059 2928 
Q 4903 3084 4622 3084 
Q 4203 3084 3875 2770 
Q 3547 2456 3450 1953 
L 3066 0 
L 2491 0 
L 2900 2094 
Q 2925 2209 2937 2307 
Q 2950 2406 2950 2484 
Q 2950 2769 2794 2926 
Q 2638 3084 2363 3084 
Q 1938 3084 1609 2770 
Q 1281 2456 1184 1953 
L 800 0 
L 225 0 
L 909 3500 
L 1484 3500 
L 1375 2956 
Q 1609 3263 1923 3423 
Q 2238 3584 2597 3584 
Q 2978 3584 3223 3384 
Q 3469 3184 3519 2828 
Q 3781 3197 4126 3390 
Q 4472 3584 4856 3584 
Q 5306 3584 5551 3325 
Q 5797 3066 5797 2591 
Q 5797 2488 5784 2364 
Q 5772 2241 5747 2113 
z
" transform="scale(0.015625)"/>
       <path id="DejaVuSans-56" d="M 1831 0 
L 50 4666 
L 709 4666 
L 2188 738 
L 3669 4666 
L 4325 4666 
L 2547 0 
L 1831 0 
z
" transform="scale(0.015625)"/>
      </defs>
      <use xlink:href="#DejaVuSans-Oblique-56" transform="translate(0 0.125)"/>
      <use xlink:href="#DejaVuSans-Oblique-6d" transform="translate(68.408203 -16.28125) scale(0.7)"/>
      <use xlink:href="#DejaVuSans-20" transform="translate(139.331055 0.125)"/>
      <use xlink:href="#DejaVuSans-28" transform="translate(171.118164 0.125)"/>
      <use xlink:href="#DejaVuSans-6d" transform="translate(210.131836 0.125)"/>
      <use xlink:href="#DejaVuSans-56" transform="translate(307.543945 0.125)"/>
      <use xlink:href="#DejaVuSans-29" transform="translate(375.952148 0.125)"/>
     </g>
    </g>
   </g>
   <g id="line2d_23">
    <path d="M 108 220.941903 
L 109.3392 221.603638 
L 110.6784 222.036986 
L 111.348 222.198004 
L 112.6872 223.125181 
L 114.0264 223.575186 
L 116.0352 225.105264 
L 118.044 227.500559 
L 118.7136 228.579279 
L 119.3832 229.414838 
L 120.0528 229.948102 
L 120.7224 230.952422 
L 122.0616 232.558598 
L 122.7312 233.138458 
L 124.0704 233.722874 
L 125.4096 233.996815 
L 127.4184 234.185167 
L 130.0968 234.220188 
L 133.4448 234.008023 
L 134.1144 233.934239 
L 136.1232 234.615304 
L 136.7928 235.39664 
L 137.4624 235.93711 
L 140.1408 237.007737 
L 141.48 237.23129 
L 143.4888 237.276176 
L 144.828 237.689221 
L 146.1672 237.768149 
L 148.176 237.657831 
L 149.5152 237.989967 
L 150.8544 238.002053 
L 153.5328 237.711076 
L 156.8808 237.082343 
L 160.8984 236.065138 
L 164.916 234.818807 
L 169.6032 233.122516 
L 174.96 230.913381 
L 180.3168 228.46062 
L 186.3432 225.458958 
L 193.0392 221.882318 
L 198.396 218.881965 
L 199.7352 218.916123 
L 201.0744 218.541534 
L 203.7528 217.435966 
L 205.7616 216.505656 
L 207.1008 216.688262 
L 208.44 216.436324 
L 209.7792 216.840104 
L 211.1184 216.755363 
L 213.1272 216.306921 
L 216.4752 215.256748 
L 220.4928 213.748036 
L 225.8496 211.479303 
L 227.1888 211.781954 
L 227.8584 212.685102 
L 228.528 213.387804 
L 229.1976 213.734918 
L 230.5368 214.001818 
L 231.876 214.02172 
L 232.5456 213.980768 
L 234.5544 215.247799 
L 235.8936 217.120629 
L 236.5632 218.226269 
L 239.2416 221.365532 
L 239.9112 222.380343 
L 240.5808 223.840905 
L 241.2504 224.91448 
L 241.92 225.60478 
L 243.2592 226.510247 
L 244.5984 227.111819 
L 245.9376 228.146074 
L 246.6072 228.464072 
L 247.2768 229.030205 
L 247.9464 229.805286 
L 249.9552 231.56951 
L 251.2944 232.731061 
L 252.6336 233.337478 
L 253.9728 233.714331 
L 255.312 234.994591 
L 255.9816 235.611958 
L 256.6512 236.031733 
L 257.9904 236.362938 
L 259.9992 236.43274 
L 260.6688 236.413679 
L 262.008 236.830224 
L 263.3472 236.925625 
L 264.6864 236.898355 
L 268.0344 237.943946 
L 270.0432 237.972902 
L 270.7128 237.935715 
L 272.052 238.292247 
L 273.3912 238.326653 
L 276.0696 238.075891 
L 279.4176 237.493014 
L 282.096 236.878748 
L 283.4352 237.036749 
L 284.7744 236.889105 
L 287.4528 236.308795 
L 290.8008 235.362914 
L 291.4704 235.152722 
L 292.8096 235.252659 
L 294.1488 235.037475 
L 296.8272 234.316695 
L 300.8448 232.960532 
L 305.532 231.118932 
L 310.8888 228.753382 
L 316.9152 225.824804 
L 323.6112 222.307724 
L 331.6464 217.819869 
L 341.6904 211.952431 
L 345.0384 209.931556 
L 346.3776 210.057717 
L 347.7168 209.745676 
L 349.7256 208.96467 
L 353.0736 207.375257 
L 354.4128 206.656135 
L 355.752 207.905899 
L 356.4216 208.201628 
L 358.4304 210.05727 
L 359.1 211.101889 
L 359.7696 211.843783 
L 360.4392 212.297837 
L 361.7784 212.809357 
L 363.1176 214.712606 
L 363.7872 215.655421 
L 364.4568 216.358079 
L 366.4656 217.812916 
L 367.1352 218.353959 
L 367.8048 218.70813 
L 369.144 219.898444 
L 370.4832 220.498688 
L 372.492 220.969215 
L 373.8312 222.54147 
L 374.5008 224.052375 
L 375.1704 225.2154 
L 375.84 225.918371 
L 377.1792 226.789439 
L 378.5184 227.344986 
L 379.188 227.553742 
L 379.8576 228.06175 
L 381.8664 230.267442 
L 382.536 230.665126 
L 383.8752 231.745767 
L 384.5448 232.070666 
L 386.5536 233.62608 
L 387.2232 234.074603 
L 388.5624 234.592872 
L 389.9016 234.901618 
L 390.5712 234.971628 
L 391.2408 235.254241 
L 391.9104 235.713104 
L 392.58 235.991594 
L 393.9192 236.167435 
L 395.928 236.150765 
L 398.6064 235.932082 
L 399.9456 236.269239 
L 400.6152 236.301634 
L 401.9544 236.736749 
L 403.2936 236.805386 
L 405.972 237.768219 
L 407.3112 237.895895 
L 407.9808 237.89288 
L 409.32 238.293383 
L 410.6592 238.355071 
L 412.668 238.21622 
L 415.3464 237.830252 
L 418.6944 237.13543 
L 422.712 236.061933 
L 426.7296 234.771368 
L 428.0688 234.844534 
L 429.408 234.603096 
L 432.0864 233.833697 
L 436.104 232.414765 
L 440.7912 230.511772 
L 446.148 228.087917 
L 452.1744 225.106088 
L 458.8704 221.543633 
L 467.5752 216.633878 
L 472.932 213.508673 
L 474.2712 213.601497 
L 475.6104 213.259518 
L 476.9496 212.752444 
L 478.2888 213.06688 
L 479.628 212.907413 
L 481.6368 212.352306 
L 483.6456 211.649823 
L 484.9848 212.034475 
L 485.6544 212.502596 
L 486.324 212.833257 
L 487.6632 212.995037 
L 489.0024 212.907242 
L 490.3416 214.408237 
L 491.0112 214.755871 
L 491.6808 215.389721 
L 492.3504 216.301806 
L 493.02 216.939664 
L 493.6896 217.324168 
L 494.3592 217.996308 
L 495.0288 218.929629 
L 495.6984 219.596205 
L 497.7072 220.93459 
L 498.3768 221.431978 
L 499.716 221.983185 
L 501.0552 222.291925 
L 502.3944 223.163437 
L 503.7336 223.557444 
L 504.4032 223.670193 
L 505.7424 224.479191 
L 507.0816 224.824147 
L 507.7512 224.915663 
L 508.4208 225.336063 
L 510.4296 228.507955 
L 511.0992 229.218822 
L 512.4384 230.020754 
L 513.7776 230.492501 
L 515.1168 231.363279 
L 515.7864 232.219158 
L 516.456 232.885372 
L 517.1256 233.291832 
L 519.804 236.633957 
L 521.1432 237.371931 
L 522.4824 237.824878 
L 523.152 237.990836 
L 523.8216 238.381507 
L 524.4912 238.90745 
L 527.8392 240.492748 
L 529.1784 240.709576 
L 529.848 240.756053 
L 531.1872 241.210573 
L 532.5264 241.352736 
L 535.2048 241.322354 
L 538.5528 241.001203 
L 541.9008 240.460084 
L 545.9184 239.575276 
L 549.936 238.466367 
L 554.6232 236.922827 
L 559.3104 235.14334 
L 564.6672 232.859109 
L 570.6936 230.015147 
L 576.72 226.926061 
L 584.0856 222.880769 
L 592.7904 217.819718 
L 602.1648 212.157061 
L 603.504 212.239869 
L 604.8432 211.883973 
L 607.5216 210.758227 
L 611.5392 208.753071 
L 613.548 207.655465 
L 614.8872 207.881668 
L 616.2264 207.680356 
L 618.2352 207.01997 
L 620.9136 205.84638 
L 622.9224 204.802899 
L 624.2616 205.064892 
L 624.9312 205.065593 
L 625.6008 205.507136 
L 626.2704 206.419129 
L 626.94 207.125244 
L 627.6096 207.572094 
L 628.9488 208.058969 
L 629.6184 208.177072 
L 630.288 208.732877 
L 630.9576 210.154018 
L 631.6272 211.265539 
L 632.2968 211.940477 
L 634.3056 213.425832 
L 634.9752 213.994178 
L 635.6448 214.362339 
L 636.984 215.624363 
L 637.6536 215.989224 
L 638.9928 219.121677 
L 639.6624 220.181157 
L 640.332 220.876956 
L 641.6712 222.484781 
L 642.3408 222.992891 
L 643.0104 223.751594 
L 643.68 224.724459 
L 644.3496 225.447618 
L 645.0192 225.94857 
L 646.3584 227.266322 
L 648.3672 228.610301 
L 649.0368 229.421097 
L 649.7064 230.018043 
L 653.0544 232.049068 
L 653.724 232.582119 
L 654.3936 233.30181 
L 659.0808 237.082101 
L 659.7504 237.761577 
L 660.42 238.20142 
L 661.7592 238.634588 
L 663.768 238.920158 
L 666.4464 239.021686 
L 667.7856 238.992086 
L 669.1248 239.373292 
L 670.464 239.44845 
L 673.1424 239.29579 
L 676.4904 238.839522 
L 680.508 238.022053 
L 684.5256 236.964093 
L 689.2128 235.468078 
L 693.9 233.726577 
L 695.2392 233.753815 
L 696.5784 233.462313 
L 699.2568 232.592866 
L 703.2744 231.035798 
L 707.9616 228.990507 
L 713.3184 226.426502 
L 720.0144 222.954419 
L 727.38 218.87789 
L 737.424 213.036633 
L 742.7808 209.804734 
L 744.12 209.924175 
L 745.4592 209.60643 
L 747.468 208.815384 
L 748.8072 209.16386 
L 750.1464 209.049635 
L 752.1552 208.523518 
L 753.4944 209.026403 
L 754.8336 209.052917 
L 756.1728 208.859197 
L 757.512 209.503606 
L 758.8512 209.650352 
L 760.1904 209.566405 
L 761.5296 210.294055 
L 762.1992 210.446691 
L 763.5384 211.409434 
L 764.8776 211.771986 
L 765.5472 211.843687 
L 766.8864 212.740641 
L 768.2256 213.087725 
L 768.8952 213.160813 
L 770.2344 214.867257 
L 770.904 215.306662 
L 771.5736 215.588627 
L 774.252 218.006386 
L 775.5912 218.617277 
L 776.9304 218.95198 
L 777.6 219.466507 
L 777.6 219.466507 
" clip-path="url(#p537fc2efd7)" style="fill: none; stroke: #000000; stroke-width: 1.5; stroke-linecap: square"/>
   </g>
   <g id="line2d_24">
    <path d="M 108 197.292765 
L 110.0088 200.156195 
L 112.0176 202.676024 
L 114.696 205.715635 
L 118.044 209.461018 
L 120.7224 212.884983 
L 122.0616 214.681971 
L 122.7312 187.813078 
L 123.4008 175.874797 
L 124.0704 169.81206 
L 124.74 166.046634 
L 125.4096 163.617217 
L 126.0792 162.103952 
L 126.7488 161.251978 
L 127.4184 160.887154 
L 128.088 160.881488 
L 128.7576 161.137031 
L 130.0968 162.149771 
L 132.1056 164.240417 
L 138.8016 171.720661 
L 141.48 175.504257 
L 144.828 180.666991 
L 148.8456 187.519527 
L 153.5328 195.678509 
L 155.5416 198.7793 
L 157.5504 201.511655 
L 159.5592 203.862406 
L 161.568 205.844066 
L 163.5768 207.481052 
L 165.5856 208.801989 
L 167.5944 209.83582 
L 169.6032 210.61004 
L 171.612 211.149769 
L 173.6208 211.477763 
L 175.6296 211.614283 
L 178.308 211.529183 
L 180.9864 211.172329 
L 183.6648 210.575061 
L 186.3432 209.763909 
L 189.6912 208.483029 
L 193.0392 206.93932 
L 196.3872 205.162611 
L 201.0744 202.587132 
L 208.44 199.203968 
L 210.4488 198.653986 
L 221.1624 196.486887 
L 225.18 195.327172 
L 227.1888 194.740267 
L 228.528 194.63225 
L 229.8672 194.823509 
L 233.2152 195.666987 
L 234.5544 196.130008 
L 235.8936 196.844124 
L 237.2328 197.904759 
L 239.2416 199.953047 
L 240.5808 201.569327 
L 246.6072 209.621782 
L 253.9728 218.38454 
L 255.9816 220.488452 
L 256.6512 192.30937 
L 257.3208 179.771607 
L 257.9904 173.543722 
L 258.66 169.693557 
L 259.3296 167.170061 
L 259.9992 165.552366 
L 260.6688 164.602621 
L 261.3384 164.166276 
L 262.008 164.129857 
L 262.6776 164.398357 
L 263.3472 164.89272 
L 264.6864 166.321352 
L 266.0256 168.115603 
L 268.0344 171.258119 
L 272.7216 179.29676 
L 278.748 189.852333 
L 281.4264 193.992775 
L 284.1048 197.648717 
L 286.1136 200.1309 
L 288.1224 202.28562 
L 290.1312 204.098247 
L 292.14 205.600474 
L 294.8184 207.376234 
L 296.8272 208.478748 
L 298.836 209.347586 
L 300.8448 209.994175 
L 302.8536 210.435663 
L 304.8624 210.688771 
L 307.5408 210.759528 
L 310.2192 210.554722 
L 312.8976 210.102363 
L 315.576 209.426744 
L 318.2544 208.548957 
L 321.6024 207.194953 
L 324.9504 205.583311 
L 328.2984 203.738748 
L 332.316 201.24521 
L 336.3336 198.467424 
L 340.3512 195.409639 
L 344.3688 192.040165 
L 347.0472 189.773627 
L 353.0736 185.359115 
L 355.0824 183.883039 
L 356.4216 183.213603 
L 357.7608 182.947823 
L 358.4304 182.981466 
L 359.1 183.148832 
L 360.4392 183.852518 
L 361.7784 184.859826 
L 363.1176 186.136958 
L 364.4568 187.751635 
L 367.8048 192.394992 
L 371.8224 198.001536 
L 374.5008 201.397144 
L 379.8576 208.951328 
L 386.5536 217.195213 
L 389.232 220.118381 
L 389.9016 220.772073 
L 390.5712 192.468379 
L 391.2408 179.830731 
L 391.9104 173.547353 
L 392.58 169.67415 
L 393.2496 167.146585 
L 393.9192 165.534159 
L 394.5888 164.593387 
L 395.2584 164.154885 
L 395.928 164.095315 
L 396.5976 164.318698 
L 397.2672 164.749494 
L 398.6064 166.00981 
L 399.9456 167.595708 
L 401.9544 170.305901 
L 405.3024 175.258399 
L 408.6504 180.797182 
L 416.6856 194.665251 
L 418.6944 197.573656 
L 420.7032 200.114147 
L 422.712 202.280575 
L 424.7208 204.087714 
L 426.7296 205.560557 
L 430.0776 207.617513 
L 432.0864 208.610198 
L 434.0952 209.374629 
L 436.104 209.922526 
L 438.1128 210.271116 
L 440.1216 210.43701 
L 442.8 210.399883 
L 445.4784 210.096099 
L 448.1568 209.552743 
L 450.8352 208.793252 
L 454.1832 207.570478 
L 457.5312 206.07461 
L 460.8792 204.333231 
L 464.2272 202.368612 
L 468.2448 199.739769 
L 472.2624 196.829084 
L 474.9408 194.904745 
L 477.6192 193.277641 
L 479.628 192.322445 
L 484.3152 190.503945 
L 485.6544 190.1544 
L 486.9936 190.045718 
L 489.0024 190.147727 
L 490.3416 190.430572 
L 491.6808 190.998397 
L 493.02 191.880419 
L 494.3592 193.003049 
L 496.368 195.10023 
L 503.7336 203.285775 
L 507.7512 207.130464 
L 509.76 209.011307 
L 512.4384 212.104367 
L 515.1168 215.013263 
L 518.4648 218.664142 
L 522.4824 223.332168 
L 523.8216 224.663525 
L 524.4912 195.600167 
L 525.1608 182.704371 
L 525.8304 176.470009 
L 526.5 172.762088 
L 527.1696 170.428026 
L 527.8392 169.028012 
L 528.5088 168.318812 
L 529.1784 168.138378 
L 529.848 168.365666 
L 530.5176 168.916997 
L 531.1872 169.728195 
L 532.5264 171.911121 
L 533.8656 174.574078 
L 536.544 180.572458 
L 541.2312 191.274854 
L 543.24 195.419255 
L 545.2488 199.097816 
L 547.2576 202.259647 
L 549.2664 204.910536 
L 551.2752 207.086985 
L 553.284 208.836426 
L 555.2928 210.207096 
L 557.3016 211.243658 
L 559.3104 211.985627 
L 561.3192 212.467314 
L 563.328 212.718126 
L 565.3368 212.763241 
L 567.3456 212.624161 
L 570.024 212.183451 
L 572.7024 211.483608 
L 575.3808 210.553777 
L 578.0592 209.417366 
L 581.4072 207.734433 
L 584.7552 205.785716 
L 588.1032 203.591284 
L 591.4512 201.163575 
L 595.4688 197.946393 
L 598.8168 194.996267 
L 602.1648 191.756761 
L 604.8432 189.230112 
L 610.8696 183.780471 
L 615.5568 179.488575 
L 617.5656 178.185048 
L 619.5744 177.167486 
L 622.2528 176.09848 
L 624.2616 175.509237 
L 625.6008 175.398897 
L 626.2704 175.495194 
L 626.94 175.721422 
L 628.2792 176.5022 
L 630.288 178.138368 
L 631.6272 179.625933 
L 633.636 182.493119 
L 637.6536 188.804063 
L 638.9928 191.086441 
L 646.3584 204.621725 
L 648.3672 207.811176 
L 651.0456 211.73701 
L 653.724 215.246806 
L 657.7416 220.120891 
L 658.4112 192.065348 
L 659.0808 179.619638 
L 659.7504 173.530713 
L 660.42 169.887767 
L 661.0896 167.617488 
L 661.7592 166.277194 
L 662.4288 165.613659 
L 663.0984 165.45793 
L 663.768 165.684715 
L 664.4376 166.199117 
L 665.7768 167.819883 
L 667.116 169.922699 
L 669.1248 173.554514 
L 672.4728 180.285651 
L 676.4904 188.323319 
L 679.1688 193.192283 
L 681.1776 196.417286 
L 683.1864 199.21828 
L 685.1952 201.588306 
L 687.204 203.547996 
L 689.2128 205.130718 
L 691.2216 206.373248 
L 693.2304 207.311056 
L 696.5784 208.47256 
L 698.5872 209.019189 
L 700.596 209.38194 
L 702.6048 209.562515 
L 705.2832 209.542491 
L 707.9616 209.252628 
L 710.64 208.719458 
L 713.3184 207.965303 
L 715.9968 207.008977 
L 719.3448 205.553311 
L 722.6928 203.832199 
L 726.0408 201.865814 
L 729.3888 199.668408 
L 733.4064 196.735038 
L 736.7544 194.035595 
L 740.1024 191.074636 
L 747.468 184.309192 
L 749.4768 182.864561 
L 751.4856 181.788951 
L 752.8248 181.220453 
L 754.164 180.877025 
L 755.5032 180.740655 
L 756.8424 180.757581 
L 758.1816 181.001127 
L 760.1904 181.676632 
L 761.5296 182.296461 
L 762.8688 183.100891 
L 764.8776 184.66346 
L 767.556 187.05784 
L 770.2344 189.700242 
L 772.9128 192.786067 
L 777.6 198.432553 
L 777.6 198.432553 
" clip-path="url(#p537fc2efd7)" style="fill: none; stroke: #4169e1; stroke-width: 1.5; stroke-linecap: square"/>
   </g>
   <g id="patch_3">
    <path d="M 108 256.32 
L 108 34.56 
" style="fill: none; stroke: #000000; stroke-width: 0.8; stroke-linejoin: miter; stroke-linecap: square"/>
   </g>
   <g id="patch_4">
    <path d="M 777.6 256.32 
L 777.6 34.56 
" style="fill: none; stroke: #000000; stroke-width: 0.8; stroke-linejoin: miter; stroke-linecap: square"/>
   </g>
   <g id="patch_5">
    <path d="M 108 256.32 
L 777.6 256.32 
" style="fill: none; stroke: #000000; stroke-width: 0.8; stroke-linejoin: miter; stroke-linecap: square"/>
   </g>
   <g id="patch_6">
    <path d="M 108 34.56 
L 777.6 34.56 
" style="fill: none; stroke: #000000; stroke-width: 0.8; stroke-linejoin: miter; stroke-linecap: square"/>
   </g>
   <g id="legend_1">
    <g id="patch_7">
     <path d="M 695.098438 71.91625 
L 770.6 71.91625 
Q 772.6 71.91625 772.6 69.91625 
L 772.6 41.56 
Q 772.6 39.56 770.6 39.56 
L 695.098438 39.56 
Q 693.098438 39.56 693.098438 41.56 
L 693.098438 69.91625 
Q 693.098438 71.91625 695.098438 71.91625 
z
" style="fill: #ffffff; opacity: 0.8; stroke: #cccccc; stroke-linejoin: miter"/>
    </g>
    <g id="line2d_25">
     <path d="M 697.098438 47.658437 
L 707.098438 47.658437 
L 717.098438 47.658437 
" style="fill: none; stroke: #000000; stroke-width: 1.5; stroke-linecap: square"/>
    </g>
    <g id="text_14">
     <!-- Soma -->
     <g transform="translate(725.098438 51.158437) scale(0.1 -0.1)">
      <defs>
       <path id="DejaVuSans-53" d="M 3425 4513 
L 3425 3897 
Q 3066 4069 2747 4153 
Q 2428 4238 2131 4238 
Q 1616 4238 1336 4038 
Q 1056 3838 1056 3469 
Q 1056 3159 1242 3001 
Q 1428 2844 1947 2747 
L 2328 2669 
Q 3034 2534 3370 2195 
Q 3706 1856 3706 1288 
Q 3706 609 3251 259 
Q 2797 -91 1919 -91 
Q 1588 -91 1214 -16 
Q 841 59 441 206 
L 441 856 
Q 825 641 1194 531 
Q 1563 422 1919 422 
Q 2459 422 2753 634 
Q 3047 847 3047 1241 
Q 3047 1584 2836 1778 
Q 2625 1972 2144 2069 
L 1759 2144 
Q 1053 2284 737 2584 
Q 422 2884 422 3419 
Q 422 4038 858 4394 
Q 1294 4750 2059 4750 
Q 2388 4750 2728 4690 
Q 3069 4631 3425 4513 
z
" transform="scale(0.015625)"/>
       <path id="DejaVuSans-6f" d="M 1959 3097 
Q 1497 3097 1228 2736 
Q 959 2375 959 1747 
Q 959 1119 1226 758 
Q 1494 397 1959 397 
Q 2419 397 2687 759 
Q 2956 1122 2956 1747 
Q 2956 2369 2687 2733 
Q 2419 3097 1959 3097 
z
M 1959 3584 
Q 2709 3584 3137 3096 
Q 3566 2609 3566 1747 
Q 3566 888 3137 398 
Q 2709 -91 1959 -91 
Q 1206 -91 779 398 
Q 353 888 353 1747 
Q 353 2609 779 3096 
Q 1206 3584 1959 3584 
z
" transform="scale(0.015625)"/>
       <path id="DejaVuSans-61" d="M 2194 1759 
Q 1497 1759 1228 1600 
Q 959 1441 959 1056 
Q 959 750 1161 570 
Q 1363 391 1709 391 
Q 2188 391 2477 730 
Q 2766 1069 2766 1631 
L 2766 1759 
L 2194 1759 
z
M 3341 1997 
L 3341 0 
L 2766 0 
L 2766 531 
Q 2569 213 2275 61 
Q 1981 -91 1556 -91 
Q 1019 -91 701 211 
Q 384 513 384 1019 
Q 384 1609 779 1909 
Q 1175 2209 1959 2209 
L 2766 2209 
L 2766 2266 
Q 2766 2663 2505 2880 
Q 2244 3097 1772 3097 
Q 1472 3097 1187 3025 
Q 903 2953 641 2809 
L 641 3341 
Q 956 3463 1253 3523 
Q 1550 3584 1831 3584 
Q 2591 3584 2966 3190 
Q 3341 2797 3341 1997 
z
" transform="scale(0.015625)"/>
      </defs>
      <use xlink:href="#DejaVuSans-53"/>
      <use xlink:href="#DejaVuSans-6f" x="63.476562"/>
      <use xlink:href="#DejaVuSans-6d" x="124.658203"/>
      <use xlink:href="#DejaVuSans-61" x="222.070312"/>
     </g>
    </g>
    <g id="line2d_26">
     <path d="M 697.098438 62.336562 
L 707.098438 62.336562 
L 717.098438 62.336562 
" style="fill: none; stroke: #4169e1; stroke-width: 1.5; stroke-linecap: square"/>
    </g>
    <g id="text_15">
     <!-- Dendrite -->
     <g transform="translate(725.098438 65.836562) scale(0.1 -0.1)">
      <defs>
       <path id="DejaVuSans-44" d="M 1259 4147 
L 1259 519 
L 2022 519 
Q 2988 519 3436 956 
Q 3884 1394 3884 2338 
Q 3884 3275 3436 3711 
Q 2988 4147 2022 4147 
L 1259 4147 
z
M 628 4666 
L 1925 4666 
Q 3281 4666 3915 4102 
Q 4550 3538 4550 2338 
Q 4550 1131 3912 565 
Q 3275 0 1925 0 
L 628 0 
L 628 4666 
z
" transform="scale(0.015625)"/>
       <path id="DejaVuSans-6e" d="M 3513 2113 
L 3513 0 
L 2938 0 
L 2938 2094 
Q 2938 2591 2744 2837 
Q 2550 3084 2163 3084 
Q 1697 3084 1428 2787 
Q 1159 2491 1159 1978 
L 1159 0 
L 581 0 
L 581 3500 
L 1159 3500 
L 1159 2956 
Q 1366 3272 1645 3428 
Q 1925 3584 2291 3584 
Q 2894 3584 3203 3211 
Q 3513 2838 3513 2113 
z
" transform="scale(0.015625)"/>
       <path id="DejaVuSans-64" d="M 2906 2969 
L 2906 4863 
L 3481 4863 
L 3481 0 
L 2906 0 
L 2906 525 
Q 2725 213 2448 61 
Q 2172 -91 1784 -91 
Q 1150 -91 751 415 
Q 353 922 353 1747 
Q 353 2572 751 3078 
Q 1150 3584 1784 3584 
Q 2172 3584 2448 3432 
Q 2725 3281 2906 2969 
z
M 947 1747 
Q 947 1113 1208 752 
Q 1469 391 1925 391 
Q 2381 391 2643 752 
Q 2906 1113 2906 1747 
Q 2906 2381 2643 2742 
Q 2381 3103 1925 3103 
Q 1469 3103 1208 2742 
Q 947 2381 947 1747 
z
" transform="scale(0.015625)"/>
       <path id="DejaVuSans-72" d="M 2631 2963 
Q 2534 3019 2420 3045 
Q 2306 3072 2169 3072 
Q 1681 3072 1420 2755 
Q 1159 2438 1159 1844 
L 1159 0 
L 581 0 
L 581 3500 
L 1159 3500 
L 1159 2956 
Q 1341 3275 1631 3429 
Q 1922 3584 2338 3584 
Q 2397 3584 2469 3576 
Q 2541 3569 2628 3553 
L 2631 2963 
z
" transform="scale(0.015625)"/>
       <path id="DejaVuSans-74" d="M 1172 4494 
L 1172 3500 
L 2356 3500 
L 2356 3053 
L 1172 3053 
L 1172 1153 
Q 1172 725 1289 603 
Q 1406 481 1766 481 
L 2356 481 
L 2356 0 
L 1766 0 
Q 1100 0 847 248 
Q 594 497 594 1153 
L 594 3053 
L 172 3053 
L 172 3500 
L 594 3500 
L 594 4494 
L 1172 4494 
z
" transform="scale(0.015625)"/>
      </defs>
      <use xlink:href="#DejaVuSans-44"/>
      <use xlink:href="#DejaVuSans-65" x="77.001953"/>
      <use xlink:href="#DejaVuSans-6e" x="138.525391"/>
      <use xlink:href="#DejaVuSans-64" x="201.904297"/>
      <use xlink:href="#DejaVuSans-72" x="265.380859"/>
      <use xlink:href="#DejaVuSans-69" x="306.494141"/>
      <use xlink:href="#DejaVuSans-74" x="334.277344"/>
      <use xlink:href="#DejaVuSans-65" x="373.486328"/>
     </g>
    </g>
   </g>
  </g>
 </g>
 <defs>
  <clipPath id="p537fc2efd7">
   <rect x="108" y="34.56" width="669.6" height="221.76"/>
  </clipPath>
 </defs>
</svg>
