<?xml version="1.0" encoding="utf-8" standalone="no"?>
<!DOCTYPE svg PUBLIC "-//W3C//DTD SVG 1.1//EN"
  "http://www.w3.org/Graphics/SVG/1.1/DTD/svg11.dtd">
<svg xmlns:xlink="http://www.w3.org/1999/xlink" width="864pt" height="288pt" viewBox="0 0 864 288" xmlns="http://www.w3.org/2000/svg" version="1.1">
 <metadata>
  <rdf:RDF xmlns:dc="http://purl.org/dc/elements/1.1/" xmlns:cc="http://creativecommons.org/ns#" xmlns:rdf="http://www.w3.org/1999/02/22-rdf-syntax-ns#">
   <cc:Work>
    <dc:type rdf:resource="http://purl.org/dc/dcmitype/StillImage"/>
    <dc:date>2024-04-23T19:17:29.183319</dc:date>
    <dc:format>image/svg+xml</dc:format>
    <dc:creator>
     <cc:Agent>
      <dc:title>Matplotlib v3.8.2, https://matplotlib.org/</dc:title>
     </cc:Agent>
    </dc:creator>
   </cc:Work>
  </rdf:RDF>
 </metadata>
 <defs>
  <style type="text/css">*{stroke-linejoin: round; stroke-linecap: butt}</style>
 </defs>
 <g id="figure_1">
  <g id="patch_1">
   <path d="M 0 288 
L 864 288 
L 864 0 
L 0 0 
z
" style="fill: #ffffff"/>
  </g>
  <g id="axes_1">
   <g id="patch_2">
    <path d="M 108 256.32 
L 777.6 256.32 
L 777.6 34.56 
L 108 34.56 
z
" style="fill: #ffffff"/>
   </g>
   <g id="matplotlib.axis_1">
    <g id="xtick_1">
     <g id="line2d_1">
      <path d="M 108 256.32 
L 108 34.56 
" clip-path="url(#p436a25a535)" style="fill: none; stroke: #b0b0b0; stroke-width: 0.8; stroke-linecap: square"/>
     </g>
     <g id="line2d_2">
      <defs>
       <path id="m68be4648bf" d="M 0 0 
L 0 3.5 
" style="stroke: #000000; stroke-width: 0.8"/>
      </defs>
      <g>
       <use xlink:href="#m68be4648bf" x="108" y="256.32" style="stroke: #000000; stroke-width: 0.8"/>
      </g>
     </g>
     <g id="text_1">
      <!-- 100 -->
      <g transform="translate(94.63875 273.957812) scale(0.14 -0.14)">
       <defs>
        <path id="DejaVuSans-31" d="M 794 531 
L 1825 531 
L 1825 4091 
L 703 3866 
L 703 4441 
L 1819 4666 
L 2450 4666 
L 2450 531 
L 3481 531 
L 3481 0 
L 794 0 
L 794 531 
z
" transform="scale(0.015625)"/>
        <path id="DejaVuSans-30" d="M 2034 4250 
Q 1547 4250 1301 3770 
Q 1056 3291 1056 2328 
Q 1056 1369 1301 889 
Q 1547 409 2034 409 
Q 2525 409 2770 889 
Q 3016 1369 3016 2328 
Q 3016 3291 2770 3770 
Q 2525 4250 2034 4250 
z
M 2034 4750 
Q 2819 4750 3233 4129 
Q 3647 3509 3647 2328 
Q 3647 1150 3233 529 
Q 2819 -91 2034 -91 
Q 1250 -91 836 529 
Q 422 1150 422 2328 
Q 422 3509 836 4129 
Q 1250 4750 2034 4750 
z
" transform="scale(0.015625)"/>
       </defs>
       <use xlink:href="#DejaVuSans-31"/>
       <use xlink:href="#DejaVuSans-30" x="63.623047"/>
       <use xlink:href="#DejaVuSans-30" x="127.246094"/>
      </g>
     </g>
    </g>
    <g id="xtick_2">
     <g id="line2d_3">
      <path d="M 241.92 256.32 
L 241.92 34.56 
" clip-path="url(#p436a25a535)" style="fill: none; stroke: #b0b0b0; stroke-width: 0.8; stroke-linecap: square"/>
     </g>
     <g id="line2d_4">
      <g>
       <use xlink:href="#m68be4648bf" x="241.92" y="256.32" style="stroke: #000000; stroke-width: 0.8"/>
      </g>
     </g>
     <g id="text_2">
      <!-- 120 -->
      <g transform="translate(228.55875 273.957812) scale(0.14 -0.14)">
       <defs>
        <path id="DejaVuSans-32" d="M 1228 531 
L 3431 531 
L 3431 0 
L 469 0 
L 469 531 
Q 828 903 1448 1529 
Q 2069 2156 2228 2338 
Q 2531 2678 2651 2914 
Q 2772 3150 2772 3378 
Q 2772 3750 2511 3984 
Q 2250 4219 1831 4219 
Q 1534 4219 1204 4116 
Q 875 4013 500 3803 
L 500 4441 
Q 881 4594 1212 4672 
Q 1544 4750 1819 4750 
Q 2544 4750 2975 4387 
Q 3406 4025 3406 3419 
Q 3406 3131 3298 2873 
Q 3191 2616 2906 2266 
Q 2828 2175 2409 1742 
Q 1991 1309 1228 531 
z
" transform="scale(0.015625)"/>
       </defs>
       <use xlink:href="#DejaVuSans-31"/>
       <use xlink:href="#DejaVuSans-32" x="63.623047"/>
       <use xlink:href="#DejaVuSans-30" x="127.246094"/>
      </g>
     </g>
    </g>
    <g id="xtick_3">
     <g id="line2d_5">
      <path d="M 375.84 256.32 
L 375.84 34.56 
" clip-path="url(#p436a25a535)" style="fill: none; stroke: #b0b0b0; stroke-width: 0.8; stroke-linecap: square"/>
     </g>
     <g id="line2d_6">
      <g>
       <use xlink:href="#m68be4648bf" x="375.84" y="256.32" style="stroke: #000000; stroke-width: 0.8"/>
      </g>
     </g>
     <g id="text_3">
      <!-- 140 -->
      <g transform="translate(362.47875 273.957812) scale(0.14 -0.14)">
       <defs>
        <path id="DejaVuSans-34" d="M 2419 4116 
L 825 1625 
L 2419 1625 
L 2419 4116 
z
M 2253 4666 
L 3047 4666 
L 3047 1625 
L 3713 1625 
L 3713 1100 
L 3047 1100 
L 3047 0 
L 2419 0 
L 2419 1100 
L 313 1100 
L 313 1709 
L 2253 4666 
z
" transform="scale(0.015625)"/>
       </defs>
       <use xlink:href="#DejaVuSans-31"/>
       <use xlink:href="#DejaVuSans-34" x="63.623047"/>
       <use xlink:href="#DejaVuSans-30" x="127.246094"/>
      </g>
     </g>
    </g>
    <g id="xtick_4">
     <g id="line2d_7">
      <path d="M 509.76 256.32 
L 509.76 34.56 
" clip-path="url(#p436a25a535)" style="fill: none; stroke: #b0b0b0; stroke-width: 0.8; stroke-linecap: square"/>
     </g>
     <g id="line2d_8">
      <g>
       <use xlink:href="#m68be4648bf" x="509.76" y="256.32" style="stroke: #000000; stroke-width: 0.8"/>
      </g>
     </g>
     <g id="text_4">
      <!-- 160 -->
      <g transform="translate(496.39875 273.957812) scale(0.14 -0.14)">
       <defs>
        <path id="DejaVuSans-36" d="M 2113 2584 
Q 1688 2584 1439 2293 
Q 1191 2003 1191 1497 
Q 1191 994 1439 701 
Q 1688 409 2113 409 
Q 2538 409 2786 701 
Q 3034 994 3034 1497 
Q 3034 2003 2786 2293 
Q 2538 2584 2113 2584 
z
M 3366 4563 
L 3366 3988 
Q 3128 4100 2886 4159 
Q 2644 4219 2406 4219 
Q 1781 4219 1451 3797 
Q 1122 3375 1075 2522 
Q 1259 2794 1537 2939 
Q 1816 3084 2150 3084 
Q 2853 3084 3261 2657 
Q 3669 2231 3669 1497 
Q 3669 778 3244 343 
Q 2819 -91 2113 -91 
Q 1303 -91 875 529 
Q 447 1150 447 2328 
Q 447 3434 972 4092 
Q 1497 4750 2381 4750 
Q 2619 4750 2861 4703 
Q 3103 4656 3366 4563 
z
" transform="scale(0.015625)"/>
       </defs>
       <use xlink:href="#DejaVuSans-31"/>
       <use xlink:href="#DejaVuSans-36" x="63.623047"/>
       <use xlink:href="#DejaVuSans-30" x="127.246094"/>
      </g>
     </g>
    </g>
    <g id="xtick_5">
     <g id="line2d_9">
      <path d="M 643.68 256.32 
L 643.68 34.56 
" clip-path="url(#p436a25a535)" style="fill: none; stroke: #b0b0b0; stroke-width: 0.8; stroke-linecap: square"/>
     </g>
     <g id="line2d_10">
      <g>
       <use xlink:href="#m68be4648bf" x="643.68" y="256.32" style="stroke: #000000; stroke-width: 0.8"/>
      </g>
     </g>
     <g id="text_5">
      <!-- 180 -->
      <g transform="translate(630.31875 273.957812) scale(0.14 -0.14)">
       <defs>
        <path id="DejaVuSans-38" d="M 2034 2216 
Q 1584 2216 1326 1975 
Q 1069 1734 1069 1313 
Q 1069 891 1326 650 
Q 1584 409 2034 409 
Q 2484 409 2743 651 
Q 3003 894 3003 1313 
Q 3003 1734 2745 1975 
Q 2488 2216 2034 2216 
z
M 1403 2484 
Q 997 2584 770 2862 
Q 544 3141 544 3541 
Q 544 4100 942 4425 
Q 1341 4750 2034 4750 
Q 2731 4750 3128 4425 
Q 3525 4100 3525 3541 
Q 3525 3141 3298 2862 
Q 3072 2584 2669 2484 
Q 3125 2378 3379 2068 
Q 3634 1759 3634 1313 
Q 3634 634 3220 271 
Q 2806 -91 2034 -91 
Q 1263 -91 848 271 
Q 434 634 434 1313 
Q 434 1759 690 2068 
Q 947 2378 1403 2484 
z
M 1172 3481 
Q 1172 3119 1398 2916 
Q 1625 2713 2034 2713 
Q 2441 2713 2670 2916 
Q 2900 3119 2900 3481 
Q 2900 3844 2670 4047 
Q 2441 4250 2034 4250 
Q 1625 4250 1398 4047 
Q 1172 3844 1172 3481 
z
" transform="scale(0.015625)"/>
       </defs>
       <use xlink:href="#DejaVuSans-31"/>
       <use xlink:href="#DejaVuSans-38" x="63.623047"/>
       <use xlink:href="#DejaVuSans-30" x="127.246094"/>
      </g>
     </g>
    </g>
    <g id="xtick_6">
     <g id="line2d_11">
      <path d="M 777.6 256.32 
L 777.6 34.56 
" clip-path="url(#p436a25a535)" style="fill: none; stroke: #b0b0b0; stroke-width: 0.8; stroke-linecap: square"/>
     </g>
     <g id="line2d_12">
      <g>
       <use xlink:href="#m68be4648bf" x="777.6" y="256.32" style="stroke: #000000; stroke-width: 0.8"/>
      </g>
     </g>
     <g id="text_6">
      <!-- 200 -->
      <g transform="translate(764.23875 273.957812) scale(0.14 -0.14)">
       <use xlink:href="#DejaVuSans-32"/>
       <use xlink:href="#DejaVuSans-30" x="63.623047"/>
       <use xlink:href="#DejaVuSans-30" x="127.246094"/>
      </g>
     </g>
    </g>
    <g id="text_7">
     <!-- Time (ms) -->
     <g transform="translate(407.521094 291.507187) scale(0.14 -0.14)">
      <defs>
       <path id="DejaVuSans-54" d="M -19 4666 
L 3928 4666 
L 3928 4134 
L 2272 4134 
L 2272 0 
L 1638 0 
L 1638 4134 
L -19 4134 
L -19 4666 
z
" transform="scale(0.015625)"/>
       <path id="DejaVuSans-69" d="M 603 3500 
L 1178 3500 
L 1178 0 
L 603 0 
L 603 3500 
z
M 603 4863 
L 1178 4863 
L 1178 4134 
L 603 4134 
L 603 4863 
z
" transform="scale(0.015625)"/>
       <path id="DejaVuSans-6d" d="M 3328 2828 
Q 3544 3216 3844 3400 
Q 4144 3584 4550 3584 
Q 5097 3584 5394 3201 
Q 5691 2819 5691 2113 
L 5691 0 
L 5113 0 
L 5113 2094 
Q 5113 2597 4934 2840 
Q 4756 3084 4391 3084 
Q 3944 3084 3684 2787 
Q 3425 2491 3425 1978 
L 3425 0 
L 2847 0 
L 2847 2094 
Q 2847 2600 2669 2842 
Q 2491 3084 2119 3084 
Q 1678 3084 1418 2786 
Q 1159 2488 1159 1978 
L 1159 0 
L 581 0 
L 581 3500 
L 1159 3500 
L 1159 2956 
Q 1356 3278 1631 3431 
Q 1906 3584 2284 3584 
Q 2666 3584 2933 3390 
Q 3200 3197 3328 2828 
z
" transform="scale(0.015625)"/>
       <path id="DejaVuSans-65" d="M 3597 1894 
L 3597 1613 
L 953 1613 
Q 991 1019 1311 708 
Q 1631 397 2203 397 
Q 2534 397 2845 478 
Q 3156 559 3463 722 
L 3463 178 
Q 3153 47 2828 -22 
Q 2503 -91 2169 -91 
Q 1331 -91 842 396 
Q 353 884 353 1716 
Q 353 2575 817 3079 
Q 1281 3584 2069 3584 
Q 2775 3584 3186 3129 
Q 3597 2675 3597 1894 
z
M 3022 2063 
Q 3016 2534 2758 2815 
Q 2500 3097 2075 3097 
Q 1594 3097 1305 2825 
Q 1016 2553 972 2059 
L 3022 2063 
z
" transform="scale(0.015625)"/>
       <path id="DejaVuSans-20" transform="scale(0.015625)"/>
       <path id="DejaVuSans-28" d="M 1984 4856 
Q 1566 4138 1362 3434 
Q 1159 2731 1159 2009 
Q 1159 1288 1364 580 
Q 1569 -128 1984 -844 
L 1484 -844 
Q 1016 -109 783 600 
Q 550 1309 550 2009 
Q 550 2706 781 3412 
Q 1013 4119 1484 4856 
L 1984 4856 
z
" transform="scale(0.015625)"/>
       <path id="DejaVuSans-73" d="M 2834 3397 
L 2834 2853 
Q 2591 2978 2328 3040 
Q 2066 3103 1784 3103 
Q 1356 3103 1142 2972 
Q 928 2841 928 2578 
Q 928 2378 1081 2264 
Q 1234 2150 1697 2047 
L 1894 2003 
Q 2506 1872 2764 1633 
Q 3022 1394 3022 966 
Q 3022 478 2636 193 
Q 2250 -91 1575 -91 
Q 1294 -91 989 -36 
Q 684 19 347 128 
L 347 722 
Q 666 556 975 473 
Q 1284 391 1588 391 
Q 1994 391 2212 530 
Q 2431 669 2431 922 
Q 2431 1156 2273 1281 
Q 2116 1406 1581 1522 
L 1381 1569 
Q 847 1681 609 1914 
Q 372 2147 372 2553 
Q 372 3047 722 3315 
Q 1072 3584 1716 3584 
Q 2034 3584 2315 3537 
Q 2597 3491 2834 3397 
z
" transform="scale(0.015625)"/>
       <path id="DejaVuSans-29" d="M 513 4856 
L 1013 4856 
Q 1481 4119 1714 3412 
Q 1947 2706 1947 2009 
Q 1947 1309 1714 600 
Q 1481 -109 1013 -844 
L 513 -844 
Q 928 -128 1133 580 
Q 1338 1288 1338 2009 
Q 1338 2731 1133 3434 
Q 928 4138 513 4856 
z
" transform="scale(0.015625)"/>
      </defs>
      <use xlink:href="#DejaVuSans-54"/>
      <use xlink:href="#DejaVuSans-69" x="57.958984"/>
      <use xlink:href="#DejaVuSans-6d" x="85.742188"/>
      <use xlink:href="#DejaVuSans-65" x="183.154297"/>
      <use xlink:href="#DejaVuSans-20" x="244.677734"/>
      <use xlink:href="#DejaVuSans-28" x="276.464844"/>
      <use xlink:href="#DejaVuSans-6d" x="315.478516"/>
      <use xlink:href="#DejaVuSans-73" x="412.890625"/>
      <use xlink:href="#DejaVuSans-29" x="464.990234"/>
     </g>
    </g>
   </g>
   <g id="matplotlib.axis_2">
    <g id="ytick_1">
     <g id="line2d_13">
      <path d="M 108 246.24 
L 777.6 246.24 
" clip-path="url(#p436a25a535)" style="fill: none; stroke: #b0b0b0; stroke-width: 0.8; stroke-linecap: square"/>
     </g>
     <g id="line2d_14">
      <defs>
       <path id="me5d81555d7" d="M 0 0 
L -3.5 0 
" style="stroke: #000000; stroke-width: 0.8"/>
      </defs>
      <g>
       <use xlink:href="#me5d81555d7" x="108" y="246.24" style="stroke: #000000; stroke-width: 0.8"/>
      </g>
     </g>
     <g id="text_8">
      <!-- 0.00 -->
      <g transform="translate(69.828125 251.558906) scale(0.14 -0.14)">
       <defs>
        <path id="DejaVuSans-2e" d="M 684 794 
L 1344 794 
L 1344 0 
L 684 0 
L 684 794 
z
" transform="scale(0.015625)"/>
       </defs>
       <use xlink:href="#DejaVuSans-30"/>
       <use xlink:href="#DejaVuSans-2e" x="63.623047"/>
       <use xlink:href="#DejaVuSans-30" x="95.410156"/>
       <use xlink:href="#DejaVuSans-30" x="159.033203"/>
      </g>
     </g>
    </g>
    <g id="ytick_2">
     <g id="line2d_15">
      <path d="M 108 208.182326 
L 777.6 208.182326 
" clip-path="url(#p436a25a535)" style="fill: none; stroke: #b0b0b0; stroke-width: 0.8; stroke-linecap: square"/>
     </g>
     <g id="line2d_16">
      <g>
       <use xlink:href="#me5d81555d7" x="108" y="208.182326" style="stroke: #000000; stroke-width: 0.8"/>
      </g>
     </g>
     <g id="text_9">
      <!-- 0.05 -->
      <g transform="translate(69.828125 213.501232) scale(0.14 -0.14)">
       <defs>
        <path id="DejaVuSans-35" d="M 691 4666 
L 3169 4666 
L 3169 4134 
L 1269 4134 
L 1269 2991 
Q 1406 3038 1543 3061 
Q 1681 3084 1819 3084 
Q 2600 3084 3056 2656 
Q 3513 2228 3513 1497 
Q 3513 744 3044 326 
Q 2575 -91 1722 -91 
Q 1428 -91 1123 -41 
Q 819 9 494 109 
L 494 744 
Q 775 591 1075 516 
Q 1375 441 1709 441 
Q 2250 441 2565 725 
Q 2881 1009 2881 1497 
Q 2881 1984 2565 2268 
Q 2250 2553 1709 2553 
Q 1456 2553 1204 2497 
Q 953 2441 691 2322 
L 691 4666 
z
" transform="scale(0.015625)"/>
       </defs>
       <use xlink:href="#DejaVuSans-30"/>
       <use xlink:href="#DejaVuSans-2e" x="63.623047"/>
       <use xlink:href="#DejaVuSans-30" x="95.410156"/>
       <use xlink:href="#DejaVuSans-35" x="159.033203"/>
      </g>
     </g>
    </g>
    <g id="ytick_3">
     <g id="line2d_17">
      <path d="M 108 170.124652 
L 777.6 170.124652 
" clip-path="url(#p436a25a535)" style="fill: none; stroke: #b0b0b0; stroke-width: 0.8; stroke-linecap: square"/>
     </g>
     <g id="line2d_18">
      <g>
       <use xlink:href="#me5d81555d7" x="108" y="170.124652" style="stroke: #000000; stroke-width: 0.8"/>
      </g>
     </g>
     <g id="text_10">
      <!-- 0.10 -->
      <g transform="translate(69.828125 175.443558) scale(0.14 -0.14)">
       <use xlink:href="#DejaVuSans-30"/>
       <use xlink:href="#DejaVuSans-2e" x="63.623047"/>
       <use xlink:href="#DejaVuSans-31" x="95.410156"/>
       <use xlink:href="#DejaVuSans-30" x="159.033203"/>
      </g>
     </g>
    </g>
    <g id="ytick_4">
     <g id="line2d_19">
      <path d="M 108 132.066977 
L 777.6 132.066977 
" clip-path="url(#p436a25a535)" style="fill: none; stroke: #b0b0b0; stroke-width: 0.8; stroke-linecap: square"/>
     </g>
     <g id="line2d_20">
      <g>
       <use xlink:href="#me5d81555d7" x="108" y="132.066977" style="stroke: #000000; stroke-width: 0.8"/>
      </g>
     </g>
     <g id="text_11">
      <!-- 0.15 -->
      <g transform="translate(69.828125 137.385884) scale(0.14 -0.14)">
       <use xlink:href="#DejaVuSans-30"/>
       <use xlink:href="#DejaVuSans-2e" x="63.623047"/>
       <use xlink:href="#DejaVuSans-31" x="95.410156"/>
       <use xlink:href="#DejaVuSans-35" x="159.033203"/>
      </g>
     </g>
    </g>
    <g id="ytick_5">
     <g id="line2d_21">
      <path d="M 108 94.009303 
L 777.6 94.009303 
" clip-path="url(#p436a25a535)" style="fill: none; stroke: #b0b0b0; stroke-width: 0.8; stroke-linecap: square"/>
     </g>
     <g id="line2d_22">
      <g>
       <use xlink:href="#me5d81555d7" x="108" y="94.009303" style="stroke: #000000; stroke-width: 0.8"/>
      </g>
     </g>
     <g id="text_12">
      <!-- 0.20 -->
      <g transform="translate(69.828125 99.328209) scale(0.14 -0.14)">
       <use xlink:href="#DejaVuSans-30"/>
       <use xlink:href="#DejaVuSans-2e" x="63.623047"/>
       <use xlink:href="#DejaVuSans-32" x="95.410156"/>
       <use xlink:href="#DejaVuSans-30" x="159.033203"/>
      </g>
     </g>
    </g>
    <g id="ytick_6">
     <g id="line2d_23">
      <path d="M 108 55.951629 
L 777.6 55.951629 
" clip-path="url(#p436a25a535)" style="fill: none; stroke: #b0b0b0; stroke-width: 0.8; stroke-linecap: square"/>
     </g>
     <g id="line2d_24">
      <g>
       <use xlink:href="#me5d81555d7" x="108" y="55.951629" style="stroke: #000000; stroke-width: 0.8"/>
      </g>
     </g>
     <g id="text_13">
      <!-- 0.25 -->
      <g transform="translate(69.828125 61.270535) scale(0.14 -0.14)">
       <use xlink:href="#DejaVuSans-30"/>
       <use xlink:href="#DejaVuSans-2e" x="63.623047"/>
       <use xlink:href="#DejaVuSans-32" x="95.410156"/>
       <use xlink:href="#DejaVuSans-35" x="159.033203"/>
      </g>
     </g>
    </g>
    <g id="text_14">
     <!-- $g_{Inhib}$ (µS) -->
     <g transform="translate(62.888125 178.83) rotate(-90) scale(0.14 -0.14)">
      <defs>
       <path id="DejaVuSans-Oblique-67" d="M 3816 3500 
L 3219 434 
Q 3047 -456 2561 -893 
Q 2075 -1331 1253 -1331 
Q 950 -1331 690 -1286 
Q 431 -1241 206 -1147 
L 313 -588 
Q 525 -725 762 -790 
Q 1000 -856 1269 -856 
Q 1816 -856 2167 -557 
Q 2519 -259 2631 300 
L 2681 563 
Q 2441 288 2122 144 
Q 1803 0 1434 0 
Q 903 0 598 351 
Q 294 703 294 1319 
Q 294 1803 478 2267 
Q 663 2731 997 3091 
Q 1219 3328 1514 3456 
Q 1809 3584 2131 3584 
Q 2484 3584 2746 3420 
Q 3009 3256 3138 2956 
L 3238 3500 
L 3816 3500 
z
M 2950 2216 
Q 2950 2641 2750 2872 
Q 2550 3103 2181 3103 
Q 1953 3103 1747 3012 
Q 1541 2922 1394 2759 
Q 1156 2491 1023 2127 
Q 891 1763 891 1375 
Q 891 944 1092 712 
Q 1294 481 1672 481 
Q 2219 481 2584 976 
Q 2950 1472 2950 2216 
z
" transform="scale(0.015625)"/>
       <path id="DejaVuSans-Oblique-49" d="M 1081 4666 
L 1716 4666 
L 806 0 
L 172 0 
L 1081 4666 
z
" transform="scale(0.015625)"/>
       <path id="DejaVuSans-Oblique-6e" d="M 3566 2113 
L 3156 0 
L 2578 0 
L 2988 2091 
Q 3016 2238 3031 2350 
Q 3047 2463 3047 2528 
Q 3047 2791 2881 2937 
Q 2716 3084 2419 3084 
Q 1956 3084 1622 2776 
Q 1288 2469 1184 1941 
L 800 0 
L 225 0 
L 903 3500 
L 1478 3500 
L 1363 2950 
Q 1603 3253 1940 3418 
Q 2278 3584 2650 3584 
Q 3113 3584 3367 3334 
Q 3622 3084 3622 2631 
Q 3622 2519 3608 2391 
Q 3594 2263 3566 2113 
z
" transform="scale(0.015625)"/>
       <path id="DejaVuSans-Oblique-68" d="M 3566 2113 
L 3156 0 
L 2578 0 
L 2988 2091 
Q 3016 2238 3031 2350 
Q 3047 2463 3047 2528 
Q 3047 2791 2881 2937 
Q 2716 3084 2419 3084 
Q 1956 3084 1617 2771 
Q 1278 2459 1178 1941 
L 800 0 
L 225 0 
L 1172 4863 
L 1747 4863 
L 1375 2950 
Q 1594 3244 1934 3414 
Q 2275 3584 2650 3584 
Q 3113 3584 3367 3334 
Q 3622 3084 3622 2631 
Q 3622 2519 3608 2391 
Q 3594 2263 3566 2113 
z
" transform="scale(0.015625)"/>
       <path id="DejaVuSans-Oblique-69" d="M 1172 4863 
L 1747 4863 
L 1606 4134 
L 1031 4134 
L 1172 4863 
z
M 909 3500 
L 1484 3500 
L 800 0 
L 225 0 
L 909 3500 
z
" transform="scale(0.015625)"/>
       <path id="DejaVuSans-Oblique-62" d="M 3169 2138 
Q 3169 2591 2961 2847 
Q 2753 3103 2388 3103 
Q 2122 3103 1889 2973 
Q 1656 2844 1484 2597 
Q 1303 2338 1198 1995 
Q 1094 1653 1094 1313 
Q 1094 881 1298 636 
Q 1503 391 1863 391 
Q 2134 391 2365 517 
Q 2597 644 2772 891 
Q 2950 1147 3059 1487 
Q 3169 1828 3169 2138 
z
M 1381 2969 
Q 1594 3256 1914 3420 
Q 2234 3584 2584 3584 
Q 3122 3584 3439 3221 
Q 3756 2859 3756 2241 
Q 3756 1734 3570 1259 
Q 3384 784 3041 416 
Q 2816 172 2522 40 
Q 2228 -91 1906 -91 
Q 1566 -91 1316 65 
Q 1066 222 909 531 
L 806 0 
L 231 0 
L 1178 4863 
L 1753 4863 
L 1381 2969 
z
" transform="scale(0.015625)"/>
       <path id="DejaVuSans-b5" d="M 544 -1331 
L 544 3500 
L 1119 3500 
L 1119 1325 
Q 1119 872 1334 640 
Q 1550 409 1972 409 
Q 2434 409 2667 671 
Q 2900 934 2900 1459 
L 2900 3500 
L 3475 3500 
L 3475 806 
Q 3475 619 3529 530 
Q 3584 441 3700 441 
Q 3728 441 3778 458 
Q 3828 475 3916 513 
L 3916 50 
Q 3788 -22 3673 -56 
Q 3559 -91 3450 -91 
Q 3234 -91 3106 31 
Q 2978 153 2931 403 
Q 2775 156 2548 32 
Q 2322 -91 2016 -91 
Q 1697 -91 1473 31 
Q 1250 153 1119 397 
L 1119 -1331 
L 544 -1331 
z
" transform="scale(0.015625)"/>
       <path id="DejaVuSans-53" d="M 3425 4513 
L 3425 3897 
Q 3066 4069 2747 4153 
Q 2428 4238 2131 4238 
Q 1616 4238 1336 4038 
Q 1056 3838 1056 3469 
Q 1056 3159 1242 3001 
Q 1428 2844 1947 2747 
L 2328 2669 
Q 3034 2534 3370 2195 
Q 3706 1856 3706 1288 
Q 3706 609 3251 259 
Q 2797 -91 1919 -91 
Q 1588 -91 1214 -16 
Q 841 59 441 206 
L 441 856 
Q 825 641 1194 531 
Q 1563 422 1919 422 
Q 2459 422 2753 634 
Q 3047 847 3047 1241 
Q 3047 1584 2836 1778 
Q 2625 1972 2144 2069 
L 1759 2144 
Q 1053 2284 737 2584 
Q 422 2884 422 3419 
Q 422 4038 858 4394 
Q 1294 4750 2059 4750 
Q 2388 4750 2728 4690 
Q 3069 4631 3425 4513 
z
" transform="scale(0.015625)"/>
      </defs>
      <use xlink:href="#DejaVuSans-Oblique-67" transform="translate(0 0.125)"/>
      <use xlink:href="#DejaVuSans-Oblique-49" transform="translate(63.476562 -16.28125) scale(0.7)"/>
      <use xlink:href="#DejaVuSans-Oblique-6e" transform="translate(84.121094 -16.28125) scale(0.7)"/>
      <use xlink:href="#DejaVuSans-Oblique-68" transform="translate(128.486328 -16.28125) scale(0.7)"/>
      <use xlink:href="#DejaVuSans-Oblique-69" transform="translate(172.851562 -16.28125) scale(0.7)"/>
      <use xlink:href="#DejaVuSans-Oblique-62" transform="translate(192.299805 -16.28125) scale(0.7)"/>
      <use xlink:href="#DejaVuSans-20" transform="translate(239.467773 0.125)"/>
      <use xlink:href="#DejaVuSans-28" transform="translate(271.254883 0.125)"/>
      <use xlink:href="#DejaVuSans-b5" transform="translate(310.268555 0.125)"/>
      <use xlink:href="#DejaVuSans-53" transform="translate(373.891602 0.125)"/>
      <use xlink:href="#DejaVuSans-29" transform="translate(437.368164 0.125)"/>
     </g>
    </g>
   </g>
   <g id="line2d_25">
    <path d="M 108 159.595681 
L 110.0088 163.705907 
L 110.6784 157.86371 
L 111.348 156.57392 
L 112.0176 150.689441 
L 112.6872 149.514937 
L 114.0264 152.444235 
L 114.696 132.446054 
L 116.0352 120.435529 
L 116.7048 119.747191 
L 117.3744 121.622975 
L 118.044 102.120075 
L 118.7136 89.137676 
L 119.3832 88.481608 
L 123.4008 102.949373 
L 124.0704 98.083502 
L 124.74 97.754349 
L 129.4272 113.530622 
L 130.0968 101.32624 
L 130.7664 83.898072 
L 131.436 73.604662 
L 132.1056 73.355091 
L 132.7752 75.976373 
L 133.4448 71.543945 
L 134.1144 71.641269 
L 139.4712 92.724243 
L 140.1408 88.022686 
L 140.8104 87.855205 
L 146.1672 106.967323 
L 146.8368 102.036886 
L 147.5064 101.644204 
L 154.872 125.112419 
L 158.22 134.536909 
L 161.568 143.228115 
L 164.916 151.243089 
L 168.264 158.634448 
L 171.612 165.450713 
L 174.96 171.736629 
L 178.308 177.533461 
L 181.656 182.879263 
L 185.004 187.809128 
L 188.352 192.355419 
L 191.7 196.547979 
L 195.048 200.414332 
L 198.396 203.979858 
L 201.744 207.267964 
L 205.7616 210.877767 
L 209.7792 214.153211 
L 211.788 215.675342 
L 212.4576 208.998023 
L 213.1272 199.718054 
L 213.7968 197.598796 
L 215.136 198.995145 
L 218.484 202.671092 
L 219.8232 204.060102 
L 220.4928 197.569434 
L 221.1624 195.641593 
L 222.5016 197.100339 
L 223.8408 198.666948 
L 224.5104 192.262945 
L 225.18 190.420377 
L 225.8496 191.160479 
L 226.5192 184.877102 
L 227.1888 175.984743 
L 227.8584 174.246867 
L 229.1976 176.387693 
L 229.8672 163.17323 
L 230.5368 159.088166 
L 231.2064 153.006394 
L 231.876 151.794659 
L 233.8848 156.123061 
L 237.2328 163.134727 
L 238.572 165.784185 
L 239.2416 152.740115 
L 239.9112 148.822706 
L 240.5808 142.905895 
L 241.2504 141.856469 
L 241.92 143.376969 
L 242.5896 137.861447 
L 243.9288 121.56163 
L 244.5984 120.698305 
L 247.2768 128.425984 
L 247.9464 123.150718 
L 248.616 115.250271 
L 249.2856 114.488367 
L 249.9552 116.448657 
L 250.6248 111.36586 
L 251.2944 103.65479 
L 251.964 103.079219 
L 254.6424 111.912409 
L 255.312 106.902508 
L 255.9816 106.431638 
L 256.6512 101.352919 
L 257.3208 100.971228 
L 258.66 105.448136 
L 259.3296 100.542111 
L 259.9992 100.17345 
L 260.6688 95.195297 
L 261.3384 94.912556 
L 262.6776 99.582618 
L 263.3472 94.77085 
L 264.0168 94.49493 
L 265.356 99.178306 
L 266.0256 94.373035 
L 266.6952 94.103507 
L 270.0432 105.79364 
L 270.7128 100.882064 
L 271.3824 100.50794 
L 272.052 95.524412 
L 272.7216 95.236382 
L 276.0696 106.83837 
L 276.7392 101.910005 
L 277.4088 101.519363 
L 284.7744 125.007955 
L 288.1224 134.440573 
L 288.792 129.068655 
L 289.4616 128.241587 
L 292.14 135.495962 
L 295.488 144.112547 
L 298.836 152.058707 
L 302.184 159.386606 
L 305.532 166.144348 
L 308.88 172.376295 
L 312.228 178.123357 
L 315.576 183.423262 
L 317.5848 186.403157 
L 318.2544 180.196227 
L 318.924 178.547565 
L 320.2632 180.551281 
L 323.6112 185.662278 
L 326.9592 190.375607 
L 327.6288 184.104842 
L 328.2984 182.39337 
L 329.6376 184.274479 
L 332.9856 189.095788 
L 336.3336 193.541968 
L 339.6816 197.642207 
L 340.3512 198.423149 
L 341.0208 192.023064 
L 341.6904 190.18435 
L 343.0296 191.817077 
L 346.3776 196.051524 
L 349.7256 199.956504 
L 350.3952 193.531779 
L 351.0648 191.668821 
L 351.7344 185.220385 
L 352.404 183.490987 
L 353.7432 185.337103 
L 354.4128 179.147304 
L 355.0824 177.515498 
L 355.752 178.462975 
L 356.4216 172.38364 
L 357.0912 170.860522 
L 357.7608 171.914941 
L 358.4304 165.94083 
L 359.1 164.521244 
L 360.4392 166.97213 
L 361.7784 169.499249 
L 362.448 163.563956 
L 363.1176 155.014089 
L 363.7872 153.6132 
L 364.4568 154.944775 
L 365.1264 149.243365 
L 365.796 148.0921 
L 367.8048 152.596144 
L 368.4744 146.932475 
L 369.144 138.649867 
L 369.8136 137.511944 
L 371.1528 140.823906 
L 371.8224 135.349411 
L 372.492 120.08446 
L 373.1616 95.02949 
L 374.5008 83.903096 
L 375.1704 83.801814 
L 375.84 86.255222 
L 376.5096 81.657618 
L 377.1792 81.592421 
L 377.8488 76.912856 
L 378.5184 76.923904 
L 379.188 72.31936 
L 379.8576 72.404223 
L 385.884 95.850607 
L 387.8928 102.984768 
L 388.5624 98.118328 
L 389.232 97.788616 
L 391.9104 106.953766 
L 392.58 102.023547 
L 393.2496 94.462602 
L 393.9192 94.034745 
L 395.928 101.103158 
L 396.5976 96.266955 
L 397.2672 95.966993 
L 397.9368 98.224913 
L 398.6064 86.266485 
L 399.276 83.417274 
L 400.6152 88.299445 
L 402.624 95.791817 
L 403.2936 91.040965 
L 403.9632 90.824982 
L 410.6592 113.93306 
L 414.0072 124.227375 
L 416.016 130.0154 
L 416.6856 124.714592 
L 417.3552 123.957492 
L 420.0336 131.480673 
L 423.3816 140.409672 
L 426.7296 148.643939 
L 430.0776 156.237529 
L 433.4256 163.240289 
L 436.7736 169.69819 
L 440.1216 175.653626 
L 443.4696 181.145691 
L 446.8176 186.210439 
L 450.1656 190.881117 
L 453.5136 195.188388 
L 455.5224 197.61017 
L 456.192 191.223149 
L 456.8616 189.39729 
L 458.2008 191.055109 
L 461.5488 195.348842 
L 464.8968 199.308495 
L 468.2448 202.960062 
L 471.5928 206.327514 
L 473.6016 208.22088 
L 474.2712 201.66335 
L 474.9408 199.669722 
L 476.28 201.000048 
L 476.9496 194.558554 
L 477.6192 192.679097 
L 478.9584 194.232289 
L 480.2976 195.890333 
L 480.9672 189.53095 
L 481.6368 180.563806 
L 482.3064 178.752347 
L 483.6456 180.749535 
L 486.9936 185.845106 
L 487.6632 186.815621 
L 488.3328 180.602063 
L 489.0024 178.946879 
L 489.672 172.702878 
L 490.3416 171.17463 
L 491.6808 173.413401 
L 492.3504 167.41521 
L 493.02 165.971932 
L 494.3592 168.376568 
L 495.6984 170.858912 
L 496.368 164.901771 
L 497.0376 163.498883 
L 498.3768 165.982362 
L 501.0552 171.018136 
L 501.7248 165.058435 
L 502.3944 163.65303 
L 503.7336 166.131595 
L 504.4032 160.250418 
L 505.0728 158.922275 
L 506.412 161.55166 
L 509.76 168.140947 
L 510.4296 169.395959 
L 511.0992 163.462326 
L 511.7688 162.082569 
L 512.4384 156.109568 
L 513.108 154.847966 
L 513.7776 148.991222 
L 514.4472 147.844008 
L 515.1168 149.268291 
L 515.7864 143.6581 
L 516.456 142.596586 
L 518.4648 147.361326 
L 519.1344 141.781778 
L 519.804 140.750417 
L 520.4736 135.120213 
L 521.1432 134.195899 
L 521.8128 128.671023 
L 522.4824 127.850344 
L 523.152 122.427438 
L 523.8216 121.70709 
L 524.4912 116.382903 
L 525.1608 115.759688 
L 525.8304 117.699549 
L 526.5 112.596651 
L 527.1696 112.034279 
L 528.5088 116.158488 
L 529.1784 111.080354 
L 529.848 103.373872 
L 530.5176 88.465861 
L 531.1872 85.424417 
L 532.5264 90.242599 
L 535.8744 102.380181 
L 537.8832 109.204592 
L 538.5528 104.238203 
L 539.2224 103.810147 
L 539.892 105.942032 
L 540.5616 101.028071 
L 541.2312 100.6516 
L 541.9008 102.834241 
L 542.5704 97.97022 
L 543.24 97.642888 
L 549.936 119.731288 
L 552.6144 127.66909 
L 553.284 122.405987 
L 553.9536 121.685984 
L 561.9888 143.559846 
L 562.6584 138.041386 
L 563.328 137.070131 
L 565.3368 142.097034 
L 568.6848 150.200014 
L 572.0328 157.672531 
L 575.3808 164.563639 
L 578.7288 170.918575 
L 582.0768 176.779057 
L 585.4248 182.183556 
L 588.7728 187.167552 
L 592.1208 191.763761 
L 595.4688 196.002356 
L 598.8168 199.911162 
L 600.156 201.388159 
L 600.8256 194.940428 
L 601.4952 193.054834 
L 602.8344 194.596048 
L 606.1824 198.614273 
L 607.5216 200.132617 
L 608.1912 193.705062 
L 608.8608 191.839319 
L 610.2 193.419285 
L 612.8784 196.733526 
L 613.548 190.360592 
L 614.2176 188.548594 
L 614.8872 182.150298 
L 615.5568 180.470235 
L 616.896 182.412655 
L 617.5656 176.26985 
L 618.2352 174.684283 
L 618.9048 175.677257 
L 619.5744 169.642686 
L 620.244 160.995137 
L 620.9136 159.498136 
L 621.5832 160.735143 
L 622.2528 154.940685 
L 623.592 138.096369 
L 624.2616 136.96734 
L 626.2704 141.999119 
L 629.6184 150.109717 
L 631.6272 154.669938 
L 632.2968 148.972945 
L 632.9664 147.826025 
L 634.9752 152.342691 
L 635.6448 153.851572 
L 636.3144 148.16773 
L 636.984 147.033749 
L 637.6536 148.471052 
L 638.3232 142.873672 
L 639.6624 126.414061 
L 640.332 125.47276 
L 641.0016 120.088061 
L 641.6712 119.405306 
L 642.3408 114.118107 
L 643.0104 113.531286 
L 643.68 101.170002 
L 644.3496 98.081299 
L 645.0192 92.979876 
L 645.6888 85.564259 
L 646.3584 85.279393 
L 648.3672 92.763142 
L 649.0368 88.060959 
L 649.7064 87.892863 
L 650.376 90.28053 
L 651.0456 85.618241 
L 651.7152 85.489399 
L 652.3848 87.915688 
L 653.0544 83.291401 
L 653.724 83.19995 
L 656.4024 93.280467 
L 657.072 88.569971 
L 657.7416 88.393696 
L 664.4376 111.865394 
L 667.7856 122.320586 
L 669.7944 128.199065 
L 670.464 115.758968 
L 671.1336 112.435828 
L 671.8032 107.103735 
L 672.4728 106.629632 
L 679.8384 129.284101 
L 680.508 131.163522 
L 681.1776 125.844265 
L 681.8472 125.069011 
L 684.5256 132.522449 
L 685.8648 136.147849 
L 686.5344 130.748497 
L 687.204 129.894434 
L 689.8824 137.045101 
L 693.2304 145.541153 
L 696.5784 153.376159 
L 699.9264 160.601551 
L 703.2744 167.264763 
L 706.6224 173.409535 
L 709.9704 179.076204 
L 713.3184 184.301971 
L 716.6664 189.121141 
L 720.0144 193.565348 
L 723.3624 197.663768 
L 726.7104 201.443306 
L 729.3888 204.254079 
L 730.0584 197.760294 
L 730.728 195.829386 
L 732.0672 197.282145 
L 735.4152 201.091375 
L 738.7632 204.604223 
L 742.1112 207.843749 
L 746.1288 211.40022 
L 750.1464 214.627272 
L 752.8248 216.610816 
L 753.4944 209.918465 
L 754.164 207.792181 
L 754.8336 208.253128 
L 758.8512 211.77168 
L 759.5208 212.325569 
L 760.1904 205.702079 
L 760.86 203.643551 
L 761.5296 204.171164 
L 762.1992 197.678711 
L 762.8688 195.749114 
L 764.208 197.204432 
L 764.8776 197.992409 
L 765.5472 191.599246 
L 766.8864 173.586227 
L 767.556 171.886894 
L 768.8952 174.102957 
L 769.5648 168.093685 
L 770.2344 166.639505 
L 771.5736 169.022859 
L 772.9128 171.484599 
L 773.5824 151.180448 
L 774.9216 138.572657 
L 775.5912 137.592865 
L 776.2608 139.181878 
L 776.9304 133.73377 
L 777.6 132.831736 
L 777.6 132.831736 
" clip-path="url(#p436a25a535)" style="fill: none; stroke: #ff4500; stroke-width: 1.5; stroke-linecap: square"/>
   </g>
   <g id="patch_3">
    <path d="M 108 256.32 
L 108 34.56 
" style="fill: none; stroke: #000000; stroke-width: 0.8; stroke-linejoin: miter; stroke-linecap: square"/>
   </g>
   <g id="patch_4">
    <path d="M 777.6 256.32 
L 777.6 34.56 
" style="fill: none; stroke: #000000; stroke-width: 0.8; stroke-linejoin: miter; stroke-linecap: square"/>
   </g>
   <g id="patch_5">
    <path d="M 108 256.32 
L 777.6 256.32 
" style="fill: none; stroke: #000000; stroke-width: 0.8; stroke-linejoin: miter; stroke-linecap: square"/>
   </g>
   <g id="patch_6">
    <path d="M 108 34.56 
L 777.6 34.56 
" style="fill: none; stroke: #000000; stroke-width: 0.8; stroke-linejoin: miter; stroke-linecap: square"/>
   </g>
  </g>
 </g>
 <defs>
  <clipPath id="p436a25a535">
   <rect x="108" y="34.56" width="669.6" height="221.76"/>
  </clipPath>
 </defs>
</svg>
