<?xml version="1.0" encoding="utf-8" standalone="no"?>
<!DOCTYPE svg PUBLIC "-//W3C//DTD SVG 1.1//EN"
  "http://www.w3.org/Graphics/SVG/1.1/DTD/svg11.dtd">
<svg xmlns:xlink="http://www.w3.org/1999/xlink" width="864pt" height="288pt" viewBox="0 0 864 288" xmlns="http://www.w3.org/2000/svg" version="1.1">
 <metadata>
  <rdf:RDF xmlns:dc="http://purl.org/dc/elements/1.1/" xmlns:cc="http://creativecommons.org/ns#" xmlns:rdf="http://www.w3.org/1999/02/22-rdf-syntax-ns#">
   <cc:Work>
    <dc:type rdf:resource="http://purl.org/dc/dcmitype/StillImage"/>
    <dc:date>2024-04-23T19:18:40.531454</dc:date>
    <dc:format>image/svg+xml</dc:format>
    <dc:creator>
     <cc:Agent>
      <dc:title>Matplotlib v3.8.2, https://matplotlib.org/</dc:title>
     </cc:Agent>
    </dc:creator>
   </cc:Work>
  </rdf:RDF>
 </metadata>
 <defs>
  <style type="text/css">*{stroke-linejoin: round; stroke-linecap: butt}</style>
 </defs>
 <g id="figure_1">
  <g id="patch_1">
   <path d="M 0 288 
L 864 288 
L 864 0 
L 0 0 
z
" style="fill: #ffffff"/>
  </g>
  <g id="axes_1">
   <g id="patch_2">
    <path d="M 108 256.32 
L 777.6 256.32 
L 777.6 34.56 
L 108 34.56 
z
" style="fill: #ffffff"/>
   </g>
   <g id="matplotlib.axis_1">
    <g id="xtick_1">
     <g id="line2d_1">
      <path d="M 108 256.32 
L 108 34.56 
" clip-path="url(#p3391d10cbe)" style="fill: none; stroke: #b0b0b0; stroke-width: 0.8; stroke-linecap: square"/>
     </g>
     <g id="line2d_2">
      <defs>
       <path id="m3706e6dea1" d="M 0 0 
L 0 3.5 
" style="stroke: #000000; stroke-width: 0.8"/>
      </defs>
      <g>
       <use xlink:href="#m3706e6dea1" x="108" y="256.32" style="stroke: #000000; stroke-width: 0.8"/>
      </g>
     </g>
     <g id="text_1">
      <!-- 100 -->
      <g transform="translate(94.63875 273.957812) scale(0.14 -0.14)">
       <defs>
        <path id="DejaVuSans-31" d="M 794 531 
L 1825 531 
L 1825 4091 
L 703 3866 
L 703 4441 
L 1819 4666 
L 2450 4666 
L 2450 531 
L 3481 531 
L 3481 0 
L 794 0 
L 794 531 
z
" transform="scale(0.015625)"/>
        <path id="DejaVuSans-30" d="M 2034 4250 
Q 1547 4250 1301 3770 
Q 1056 3291 1056 2328 
Q 1056 1369 1301 889 
Q 1547 409 2034 409 
Q 2525 409 2770 889 
Q 3016 1369 3016 2328 
Q 3016 3291 2770 3770 
Q 2525 4250 2034 4250 
z
M 2034 4750 
Q 2819 4750 3233 4129 
Q 3647 3509 3647 2328 
Q 3647 1150 3233 529 
Q 2819 -91 2034 -91 
Q 1250 -91 836 529 
Q 422 1150 422 2328 
Q 422 3509 836 4129 
Q 1250 4750 2034 4750 
z
" transform="scale(0.015625)"/>
       </defs>
       <use xlink:href="#DejaVuSans-31"/>
       <use xlink:href="#DejaVuSans-30" x="63.623047"/>
       <use xlink:href="#DejaVuSans-30" x="127.246094"/>
      </g>
     </g>
    </g>
    <g id="xtick_2">
     <g id="line2d_3">
      <path d="M 241.92 256.32 
L 241.92 34.56 
" clip-path="url(#p3391d10cbe)" style="fill: none; stroke: #b0b0b0; stroke-width: 0.8; stroke-linecap: square"/>
     </g>
     <g id="line2d_4">
      <g>
       <use xlink:href="#m3706e6dea1" x="241.92" y="256.32" style="stroke: #000000; stroke-width: 0.8"/>
      </g>
     </g>
     <g id="text_2">
      <!-- 120 -->
      <g transform="translate(228.55875 273.957812) scale(0.14 -0.14)">
       <defs>
        <path id="DejaVuSans-32" d="M 1228 531 
L 3431 531 
L 3431 0 
L 469 0 
L 469 531 
Q 828 903 1448 1529 
Q 2069 2156 2228 2338 
Q 2531 2678 2651 2914 
Q 2772 3150 2772 3378 
Q 2772 3750 2511 3984 
Q 2250 4219 1831 4219 
Q 1534 4219 1204 4116 
Q 875 4013 500 3803 
L 500 4441 
Q 881 4594 1212 4672 
Q 1544 4750 1819 4750 
Q 2544 4750 2975 4387 
Q 3406 4025 3406 3419 
Q 3406 3131 3298 2873 
Q 3191 2616 2906 2266 
Q 2828 2175 2409 1742 
Q 1991 1309 1228 531 
z
" transform="scale(0.015625)"/>
       </defs>
       <use xlink:href="#DejaVuSans-31"/>
       <use xlink:href="#DejaVuSans-32" x="63.623047"/>
       <use xlink:href="#DejaVuSans-30" x="127.246094"/>
      </g>
     </g>
    </g>
    <g id="xtick_3">
     <g id="line2d_5">
      <path d="M 375.84 256.32 
L 375.84 34.56 
" clip-path="url(#p3391d10cbe)" style="fill: none; stroke: #b0b0b0; stroke-width: 0.8; stroke-linecap: square"/>
     </g>
     <g id="line2d_6">
      <g>
       <use xlink:href="#m3706e6dea1" x="375.84" y="256.32" style="stroke: #000000; stroke-width: 0.8"/>
      </g>
     </g>
     <g id="text_3">
      <!-- 140 -->
      <g transform="translate(362.47875 273.957812) scale(0.14 -0.14)">
       <defs>
        <path id="DejaVuSans-34" d="M 2419 4116 
L 825 1625 
L 2419 1625 
L 2419 4116 
z
M 2253 4666 
L 3047 4666 
L 3047 1625 
L 3713 1625 
L 3713 1100 
L 3047 1100 
L 3047 0 
L 2419 0 
L 2419 1100 
L 313 1100 
L 313 1709 
L 2253 4666 
z
" transform="scale(0.015625)"/>
       </defs>
       <use xlink:href="#DejaVuSans-31"/>
       <use xlink:href="#DejaVuSans-34" x="63.623047"/>
       <use xlink:href="#DejaVuSans-30" x="127.246094"/>
      </g>
     </g>
    </g>
    <g id="xtick_4">
     <g id="line2d_7">
      <path d="M 509.76 256.32 
L 509.76 34.56 
" clip-path="url(#p3391d10cbe)" style="fill: none; stroke: #b0b0b0; stroke-width: 0.8; stroke-linecap: square"/>
     </g>
     <g id="line2d_8">
      <g>
       <use xlink:href="#m3706e6dea1" x="509.76" y="256.32" style="stroke: #000000; stroke-width: 0.8"/>
      </g>
     </g>
     <g id="text_4">
      <!-- 160 -->
      <g transform="translate(496.39875 273.957812) scale(0.14 -0.14)">
       <defs>
        <path id="DejaVuSans-36" d="M 2113 2584 
Q 1688 2584 1439 2293 
Q 1191 2003 1191 1497 
Q 1191 994 1439 701 
Q 1688 409 2113 409 
Q 2538 409 2786 701 
Q 3034 994 3034 1497 
Q 3034 2003 2786 2293 
Q 2538 2584 2113 2584 
z
M 3366 4563 
L 3366 3988 
Q 3128 4100 2886 4159 
Q 2644 4219 2406 4219 
Q 1781 4219 1451 3797 
Q 1122 3375 1075 2522 
Q 1259 2794 1537 2939 
Q 1816 3084 2150 3084 
Q 2853 3084 3261 2657 
Q 3669 2231 3669 1497 
Q 3669 778 3244 343 
Q 2819 -91 2113 -91 
Q 1303 -91 875 529 
Q 447 1150 447 2328 
Q 447 3434 972 4092 
Q 1497 4750 2381 4750 
Q 2619 4750 2861 4703 
Q 3103 4656 3366 4563 
z
" transform="scale(0.015625)"/>
       </defs>
       <use xlink:href="#DejaVuSans-31"/>
       <use xlink:href="#DejaVuSans-36" x="63.623047"/>
       <use xlink:href="#DejaVuSans-30" x="127.246094"/>
      </g>
     </g>
    </g>
    <g id="xtick_5">
     <g id="line2d_9">
      <path d="M 643.68 256.32 
L 643.68 34.56 
" clip-path="url(#p3391d10cbe)" style="fill: none; stroke: #b0b0b0; stroke-width: 0.8; stroke-linecap: square"/>
     </g>
     <g id="line2d_10">
      <g>
       <use xlink:href="#m3706e6dea1" x="643.68" y="256.32" style="stroke: #000000; stroke-width: 0.8"/>
      </g>
     </g>
     <g id="text_5">
      <!-- 180 -->
      <g transform="translate(630.31875 273.957812) scale(0.14 -0.14)">
       <defs>
        <path id="DejaVuSans-38" d="M 2034 2216 
Q 1584 2216 1326 1975 
Q 1069 1734 1069 1313 
Q 1069 891 1326 650 
Q 1584 409 2034 409 
Q 2484 409 2743 651 
Q 3003 894 3003 1313 
Q 3003 1734 2745 1975 
Q 2488 2216 2034 2216 
z
M 1403 2484 
Q 997 2584 770 2862 
Q 544 3141 544 3541 
Q 544 4100 942 4425 
Q 1341 4750 2034 4750 
Q 2731 4750 3128 4425 
Q 3525 4100 3525 3541 
Q 3525 3141 3298 2862 
Q 3072 2584 2669 2484 
Q 3125 2378 3379 2068 
Q 3634 1759 3634 1313 
Q 3634 634 3220 271 
Q 2806 -91 2034 -91 
Q 1263 -91 848 271 
Q 434 634 434 1313 
Q 434 1759 690 2068 
Q 947 2378 1403 2484 
z
M 1172 3481 
Q 1172 3119 1398 2916 
Q 1625 2713 2034 2713 
Q 2441 2713 2670 2916 
Q 2900 3119 2900 3481 
Q 2900 3844 2670 4047 
Q 2441 4250 2034 4250 
Q 1625 4250 1398 4047 
Q 1172 3844 1172 3481 
z
" transform="scale(0.015625)"/>
       </defs>
       <use xlink:href="#DejaVuSans-31"/>
       <use xlink:href="#DejaVuSans-38" x="63.623047"/>
       <use xlink:href="#DejaVuSans-30" x="127.246094"/>
      </g>
     </g>
    </g>
    <g id="xtick_6">
     <g id="line2d_11">
      <path d="M 777.6 256.32 
L 777.6 34.56 
" clip-path="url(#p3391d10cbe)" style="fill: none; stroke: #b0b0b0; stroke-width: 0.8; stroke-linecap: square"/>
     </g>
     <g id="line2d_12">
      <g>
       <use xlink:href="#m3706e6dea1" x="777.6" y="256.32" style="stroke: #000000; stroke-width: 0.8"/>
      </g>
     </g>
     <g id="text_6">
      <!-- 200 -->
      <g transform="translate(764.23875 273.957812) scale(0.14 -0.14)">
       <use xlink:href="#DejaVuSans-32"/>
       <use xlink:href="#DejaVuSans-30" x="63.623047"/>
       <use xlink:href="#DejaVuSans-30" x="127.246094"/>
      </g>
     </g>
    </g>
    <g id="text_7">
     <!-- Time (ms) -->
     <g transform="translate(407.521094 291.507187) scale(0.14 -0.14)">
      <defs>
       <path id="DejaVuSans-54" d="M -19 4666 
L 3928 4666 
L 3928 4134 
L 2272 4134 
L 2272 0 
L 1638 0 
L 1638 4134 
L -19 4134 
L -19 4666 
z
" transform="scale(0.015625)"/>
       <path id="DejaVuSans-69" d="M 603 3500 
L 1178 3500 
L 1178 0 
L 603 0 
L 603 3500 
z
M 603 4863 
L 1178 4863 
L 1178 4134 
L 603 4134 
L 603 4863 
z
" transform="scale(0.015625)"/>
       <path id="DejaVuSans-6d" d="M 3328 2828 
Q 3544 3216 3844 3400 
Q 4144 3584 4550 3584 
Q 5097 3584 5394 3201 
Q 5691 2819 5691 2113 
L 5691 0 
L 5113 0 
L 5113 2094 
Q 5113 2597 4934 2840 
Q 4756 3084 4391 3084 
Q 3944 3084 3684 2787 
Q 3425 2491 3425 1978 
L 3425 0 
L 2847 0 
L 2847 2094 
Q 2847 2600 2669 2842 
Q 2491 3084 2119 3084 
Q 1678 3084 1418 2786 
Q 1159 2488 1159 1978 
L 1159 0 
L 581 0 
L 581 3500 
L 1159 3500 
L 1159 2956 
Q 1356 3278 1631 3431 
Q 1906 3584 2284 3584 
Q 2666 3584 2933 3390 
Q 3200 3197 3328 2828 
z
" transform="scale(0.015625)"/>
       <path id="DejaVuSans-65" d="M 3597 1894 
L 3597 1613 
L 953 1613 
Q 991 1019 1311 708 
Q 1631 397 2203 397 
Q 2534 397 2845 478 
Q 3156 559 3463 722 
L 3463 178 
Q 3153 47 2828 -22 
Q 2503 -91 2169 -91 
Q 1331 -91 842 396 
Q 353 884 353 1716 
Q 353 2575 817 3079 
Q 1281 3584 2069 3584 
Q 2775 3584 3186 3129 
Q 3597 2675 3597 1894 
z
M 3022 2063 
Q 3016 2534 2758 2815 
Q 2500 3097 2075 3097 
Q 1594 3097 1305 2825 
Q 1016 2553 972 2059 
L 3022 2063 
z
" transform="scale(0.015625)"/>
       <path id="DejaVuSans-20" transform="scale(0.015625)"/>
       <path id="DejaVuSans-28" d="M 1984 4856 
Q 1566 4138 1362 3434 
Q 1159 2731 1159 2009 
Q 1159 1288 1364 580 
Q 1569 -128 1984 -844 
L 1484 -844 
Q 1016 -109 783 600 
Q 550 1309 550 2009 
Q 550 2706 781 3412 
Q 1013 4119 1484 4856 
L 1984 4856 
z
" transform="scale(0.015625)"/>
       <path id="DejaVuSans-73" d="M 2834 3397 
L 2834 2853 
Q 2591 2978 2328 3040 
Q 2066 3103 1784 3103 
Q 1356 3103 1142 2972 
Q 928 2841 928 2578 
Q 928 2378 1081 2264 
Q 1234 2150 1697 2047 
L 1894 2003 
Q 2506 1872 2764 1633 
Q 3022 1394 3022 966 
Q 3022 478 2636 193 
Q 2250 -91 1575 -91 
Q 1294 -91 989 -36 
Q 684 19 347 128 
L 347 722 
Q 666 556 975 473 
Q 1284 391 1588 391 
Q 1994 391 2212 530 
Q 2431 669 2431 922 
Q 2431 1156 2273 1281 
Q 2116 1406 1581 1522 
L 1381 1569 
Q 847 1681 609 1914 
Q 372 2147 372 2553 
Q 372 3047 722 3315 
Q 1072 3584 1716 3584 
Q 2034 3584 2315 3537 
Q 2597 3491 2834 3397 
z
" transform="scale(0.015625)"/>
       <path id="DejaVuSans-29" d="M 513 4856 
L 1013 4856 
Q 1481 4119 1714 3412 
Q 1947 2706 1947 2009 
Q 1947 1309 1714 600 
Q 1481 -109 1013 -844 
L 513 -844 
Q 928 -128 1133 580 
Q 1338 1288 1338 2009 
Q 1338 2731 1133 3434 
Q 928 4138 513 4856 
z
" transform="scale(0.015625)"/>
      </defs>
      <use xlink:href="#DejaVuSans-54"/>
      <use xlink:href="#DejaVuSans-69" x="57.958984"/>
      <use xlink:href="#DejaVuSans-6d" x="85.742188"/>
      <use xlink:href="#DejaVuSans-65" x="183.154297"/>
      <use xlink:href="#DejaVuSans-20" x="244.677734"/>
      <use xlink:href="#DejaVuSans-28" x="276.464844"/>
      <use xlink:href="#DejaVuSans-6d" x="315.478516"/>
      <use xlink:href="#DejaVuSans-73" x="412.890625"/>
      <use xlink:href="#DejaVuSans-29" x="464.990234"/>
     </g>
    </g>
   </g>
   <g id="matplotlib.axis_2">
    <g id="ytick_1">
     <g id="line2d_13">
      <path d="M 108 246.24 
L 777.6 246.24 
" clip-path="url(#p3391d10cbe)" style="fill: none; stroke: #b0b0b0; stroke-width: 0.8; stroke-linecap: square"/>
     </g>
     <g id="line2d_14">
      <defs>
       <path id="m0280c6c851" d="M 0 0 
L -3.5 0 
" style="stroke: #000000; stroke-width: 0.8"/>
      </defs>
      <g>
       <use xlink:href="#m0280c6c851" x="108" y="246.24" style="stroke: #000000; stroke-width: 0.8"/>
      </g>
     </g>
     <g id="text_8">
      <!-- 0.00 -->
      <g transform="translate(69.828125 251.558906) scale(0.14 -0.14)">
       <defs>
        <path id="DejaVuSans-2e" d="M 684 794 
L 1344 794 
L 1344 0 
L 684 0 
L 684 794 
z
" transform="scale(0.015625)"/>
       </defs>
       <use xlink:href="#DejaVuSans-30"/>
       <use xlink:href="#DejaVuSans-2e" x="63.623047"/>
       <use xlink:href="#DejaVuSans-30" x="95.410156"/>
       <use xlink:href="#DejaVuSans-30" x="159.033203"/>
      </g>
     </g>
    </g>
    <g id="ytick_2">
     <g id="line2d_15">
      <path d="M 108 210.803057 
L 777.6 210.803057 
" clip-path="url(#p3391d10cbe)" style="fill: none; stroke: #b0b0b0; stroke-width: 0.8; stroke-linecap: square"/>
     </g>
     <g id="line2d_16">
      <g>
       <use xlink:href="#m0280c6c851" x="108" y="210.803057" style="stroke: #000000; stroke-width: 0.8"/>
      </g>
     </g>
     <g id="text_9">
      <!-- 0.05 -->
      <g transform="translate(69.828125 216.121964) scale(0.14 -0.14)">
       <defs>
        <path id="DejaVuSans-35" d="M 691 4666 
L 3169 4666 
L 3169 4134 
L 1269 4134 
L 1269 2991 
Q 1406 3038 1543 3061 
Q 1681 3084 1819 3084 
Q 2600 3084 3056 2656 
Q 3513 2228 3513 1497 
Q 3513 744 3044 326 
Q 2575 -91 1722 -91 
Q 1428 -91 1123 -41 
Q 819 9 494 109 
L 494 744 
Q 775 591 1075 516 
Q 1375 441 1709 441 
Q 2250 441 2565 725 
Q 2881 1009 2881 1497 
Q 2881 1984 2565 2268 
Q 2250 2553 1709 2553 
Q 1456 2553 1204 2497 
Q 953 2441 691 2322 
L 691 4666 
z
" transform="scale(0.015625)"/>
       </defs>
       <use xlink:href="#DejaVuSans-30"/>
       <use xlink:href="#DejaVuSans-2e" x="63.623047"/>
       <use xlink:href="#DejaVuSans-30" x="95.410156"/>
       <use xlink:href="#DejaVuSans-35" x="159.033203"/>
      </g>
     </g>
    </g>
    <g id="ytick_3">
     <g id="line2d_17">
      <path d="M 108 175.366115 
L 777.6 175.366115 
" clip-path="url(#p3391d10cbe)" style="fill: none; stroke: #b0b0b0; stroke-width: 0.8; stroke-linecap: square"/>
     </g>
     <g id="line2d_18">
      <g>
       <use xlink:href="#m0280c6c851" x="108" y="175.366115" style="stroke: #000000; stroke-width: 0.8"/>
      </g>
     </g>
     <g id="text_10">
      <!-- 0.10 -->
      <g transform="translate(69.828125 180.685021) scale(0.14 -0.14)">
       <use xlink:href="#DejaVuSans-30"/>
       <use xlink:href="#DejaVuSans-2e" x="63.623047"/>
       <use xlink:href="#DejaVuSans-31" x="95.410156"/>
       <use xlink:href="#DejaVuSans-30" x="159.033203"/>
      </g>
     </g>
    </g>
    <g id="ytick_4">
     <g id="line2d_19">
      <path d="M 108 139.929172 
L 777.6 139.929172 
" clip-path="url(#p3391d10cbe)" style="fill: none; stroke: #b0b0b0; stroke-width: 0.8; stroke-linecap: square"/>
     </g>
     <g id="line2d_20">
      <g>
       <use xlink:href="#m0280c6c851" x="108" y="139.929172" style="stroke: #000000; stroke-width: 0.8"/>
      </g>
     </g>
     <g id="text_11">
      <!-- 0.15 -->
      <g transform="translate(69.828125 145.248079) scale(0.14 -0.14)">
       <use xlink:href="#DejaVuSans-30"/>
       <use xlink:href="#DejaVuSans-2e" x="63.623047"/>
       <use xlink:href="#DejaVuSans-31" x="95.410156"/>
       <use xlink:href="#DejaVuSans-35" x="159.033203"/>
      </g>
     </g>
    </g>
    <g id="ytick_5">
     <g id="line2d_21">
      <path d="M 108 104.49223 
L 777.6 104.49223 
" clip-path="url(#p3391d10cbe)" style="fill: none; stroke: #b0b0b0; stroke-width: 0.8; stroke-linecap: square"/>
     </g>
     <g id="line2d_22">
      <g>
       <use xlink:href="#m0280c6c851" x="108" y="104.49223" style="stroke: #000000; stroke-width: 0.8"/>
      </g>
     </g>
     <g id="text_12">
      <!-- 0.20 -->
      <g transform="translate(69.828125 109.811136) scale(0.14 -0.14)">
       <use xlink:href="#DejaVuSans-30"/>
       <use xlink:href="#DejaVuSans-2e" x="63.623047"/>
       <use xlink:href="#DejaVuSans-32" x="95.410156"/>
       <use xlink:href="#DejaVuSans-30" x="159.033203"/>
      </g>
     </g>
    </g>
    <g id="ytick_6">
     <g id="line2d_23">
      <path d="M 108 69.055287 
L 777.6 69.055287 
" clip-path="url(#p3391d10cbe)" style="fill: none; stroke: #b0b0b0; stroke-width: 0.8; stroke-linecap: square"/>
     </g>
     <g id="line2d_24">
      <g>
       <use xlink:href="#m0280c6c851" x="108" y="69.055287" style="stroke: #000000; stroke-width: 0.8"/>
      </g>
     </g>
     <g id="text_13">
      <!-- 0.25 -->
      <g transform="translate(69.828125 74.374193) scale(0.14 -0.14)">
       <use xlink:href="#DejaVuSans-30"/>
       <use xlink:href="#DejaVuSans-2e" x="63.623047"/>
       <use xlink:href="#DejaVuSans-32" x="95.410156"/>
       <use xlink:href="#DejaVuSans-35" x="159.033203"/>
      </g>
     </g>
    </g>
    <g id="text_14">
     <!-- $g_{Inhib}$ (µS) -->
     <g transform="translate(62.888125 178.83) rotate(-90) scale(0.14 -0.14)">
      <defs>
       <path id="DejaVuSans-Oblique-67" d="M 3816 3500 
L 3219 434 
Q 3047 -456 2561 -893 
Q 2075 -1331 1253 -1331 
Q 950 -1331 690 -1286 
Q 431 -1241 206 -1147 
L 313 -588 
Q 525 -725 762 -790 
Q 1000 -856 1269 -856 
Q 1816 -856 2167 -557 
Q 2519 -259 2631 300 
L 2681 563 
Q 2441 288 2122 144 
Q 1803 0 1434 0 
Q 903 0 598 351 
Q 294 703 294 1319 
Q 294 1803 478 2267 
Q 663 2731 997 3091 
Q 1219 3328 1514 3456 
Q 1809 3584 2131 3584 
Q 2484 3584 2746 3420 
Q 3009 3256 3138 2956 
L 3238 3500 
L 3816 3500 
z
M 2950 2216 
Q 2950 2641 2750 2872 
Q 2550 3103 2181 3103 
Q 1953 3103 1747 3012 
Q 1541 2922 1394 2759 
Q 1156 2491 1023 2127 
Q 891 1763 891 1375 
Q 891 944 1092 712 
Q 1294 481 1672 481 
Q 2219 481 2584 976 
Q 2950 1472 2950 2216 
z
" transform="scale(0.015625)"/>
       <path id="DejaVuSans-Oblique-49" d="M 1081 4666 
L 1716 4666 
L 806 0 
L 172 0 
L 1081 4666 
z
" transform="scale(0.015625)"/>
       <path id="DejaVuSans-Oblique-6e" d="M 3566 2113 
L 3156 0 
L 2578 0 
L 2988 2091 
Q 3016 2238 3031 2350 
Q 3047 2463 3047 2528 
Q 3047 2791 2881 2937 
Q 2716 3084 2419 3084 
Q 1956 3084 1622 2776 
Q 1288 2469 1184 1941 
L 800 0 
L 225 0 
L 903 3500 
L 1478 3500 
L 1363 2950 
Q 1603 3253 1940 3418 
Q 2278 3584 2650 3584 
Q 3113 3584 3367 3334 
Q 3622 3084 3622 2631 
Q 3622 2519 3608 2391 
Q 3594 2263 3566 2113 
z
" transform="scale(0.015625)"/>
       <path id="DejaVuSans-Oblique-68" d="M 3566 2113 
L 3156 0 
L 2578 0 
L 2988 2091 
Q 3016 2238 3031 2350 
Q 3047 2463 3047 2528 
Q 3047 2791 2881 2937 
Q 2716 3084 2419 3084 
Q 1956 3084 1617 2771 
Q 1278 2459 1178 1941 
L 800 0 
L 225 0 
L 1172 4863 
L 1747 4863 
L 1375 2950 
Q 1594 3244 1934 3414 
Q 2275 3584 2650 3584 
Q 3113 3584 3367 3334 
Q 3622 3084 3622 2631 
Q 3622 2519 3608 2391 
Q 3594 2263 3566 2113 
z
" transform="scale(0.015625)"/>
       <path id="DejaVuSans-Oblique-69" d="M 1172 4863 
L 1747 4863 
L 1606 4134 
L 1031 4134 
L 1172 4863 
z
M 909 3500 
L 1484 3500 
L 800 0 
L 225 0 
L 909 3500 
z
" transform="scale(0.015625)"/>
       <path id="DejaVuSans-Oblique-62" d="M 3169 2138 
Q 3169 2591 2961 2847 
Q 2753 3103 2388 3103 
Q 2122 3103 1889 2973 
Q 1656 2844 1484 2597 
Q 1303 2338 1198 1995 
Q 1094 1653 1094 1313 
Q 1094 881 1298 636 
Q 1503 391 1863 391 
Q 2134 391 2365 517 
Q 2597 644 2772 891 
Q 2950 1147 3059 1487 
Q 3169 1828 3169 2138 
z
M 1381 2969 
Q 1594 3256 1914 3420 
Q 2234 3584 2584 3584 
Q 3122 3584 3439 3221 
Q 3756 2859 3756 2241 
Q 3756 1734 3570 1259 
Q 3384 784 3041 416 
Q 2816 172 2522 40 
Q 2228 -91 1906 -91 
Q 1566 -91 1316 65 
Q 1066 222 909 531 
L 806 0 
L 231 0 
L 1178 4863 
L 1753 4863 
L 1381 2969 
z
" transform="scale(0.015625)"/>
       <path id="DejaVuSans-b5" d="M 544 -1331 
L 544 3500 
L 1119 3500 
L 1119 1325 
Q 1119 872 1334 640 
Q 1550 409 1972 409 
Q 2434 409 2667 671 
Q 2900 934 2900 1459 
L 2900 3500 
L 3475 3500 
L 3475 806 
Q 3475 619 3529 530 
Q 3584 441 3700 441 
Q 3728 441 3778 458 
Q 3828 475 3916 513 
L 3916 50 
Q 3788 -22 3673 -56 
Q 3559 -91 3450 -91 
Q 3234 -91 3106 31 
Q 2978 153 2931 403 
Q 2775 156 2548 32 
Q 2322 -91 2016 -91 
Q 1697 -91 1473 31 
Q 1250 153 1119 397 
L 1119 -1331 
L 544 -1331 
z
" transform="scale(0.015625)"/>
       <path id="DejaVuSans-53" d="M 3425 4513 
L 3425 3897 
Q 3066 4069 2747 4153 
Q 2428 4238 2131 4238 
Q 1616 4238 1336 4038 
Q 1056 3838 1056 3469 
Q 1056 3159 1242 3001 
Q 1428 2844 1947 2747 
L 2328 2669 
Q 3034 2534 3370 2195 
Q 3706 1856 3706 1288 
Q 3706 609 3251 259 
Q 2797 -91 1919 -91 
Q 1588 -91 1214 -16 
Q 841 59 441 206 
L 441 856 
Q 825 641 1194 531 
Q 1563 422 1919 422 
Q 2459 422 2753 634 
Q 3047 847 3047 1241 
Q 3047 1584 2836 1778 
Q 2625 1972 2144 2069 
L 1759 2144 
Q 1053 2284 737 2584 
Q 422 2884 422 3419 
Q 422 4038 858 4394 
Q 1294 4750 2059 4750 
Q 2388 4750 2728 4690 
Q 3069 4631 3425 4513 
z
" transform="scale(0.015625)"/>
      </defs>
      <use xlink:href="#DejaVuSans-Oblique-67" transform="translate(0 0.125)"/>
      <use xlink:href="#DejaVuSans-Oblique-49" transform="translate(63.476562 -16.28125) scale(0.7)"/>
      <use xlink:href="#DejaVuSans-Oblique-6e" transform="translate(84.121094 -16.28125) scale(0.7)"/>
      <use xlink:href="#DejaVuSans-Oblique-68" transform="translate(128.486328 -16.28125) scale(0.7)"/>
      <use xlink:href="#DejaVuSans-Oblique-69" transform="translate(172.851562 -16.28125) scale(0.7)"/>
      <use xlink:href="#DejaVuSans-Oblique-62" transform="translate(192.299805 -16.28125) scale(0.7)"/>
      <use xlink:href="#DejaVuSans-20" transform="translate(239.467773 0.125)"/>
      <use xlink:href="#DejaVuSans-28" transform="translate(271.254883 0.125)"/>
      <use xlink:href="#DejaVuSans-b5" transform="translate(310.268555 0.125)"/>
      <use xlink:href="#DejaVuSans-53" transform="translate(373.891602 0.125)"/>
      <use xlink:href="#DejaVuSans-29" transform="translate(437.368164 0.125)"/>
     </g>
    </g>
   </g>
   <g id="line2d_25">
    <path d="M 108 154.914899 
L 108.6696 151.189682 
L 109.3392 152.424919 
L 110.0088 147.257639 
L 110.6784 146.324896 
L 111.348 147.784394 
L 112.0176 142.691684 
L 112.6872 135.157473 
L 113.3568 134.273087 
L 114.696 137.698937 
L 115.3656 132.768295 
L 116.0352 132.068388 
L 118.044 137.343023 
L 118.7136 125.74326 
L 119.3832 122.632904 
L 120.0528 117.652193 
L 120.7224 110.520353 
L 121.392 96.682192 
L 122.0616 87.217905 
L 122.7312 86.957796 
L 126.7488 101.576668 
L 127.4184 97.226493 
L 128.088 90.422884 
L 128.7576 90.25736 
L 129.4272 79.268153 
L 130.0968 63.554946 
L 130.7664 54.47691 
L 131.436 54.742933 
L 132.7752 60.704263 
L 133.4448 57.010886 
L 134.1144 57.528362 
L 138.8016 77.626927 
L 139.4712 73.661611 
L 140.1408 73.911519 
L 146.1672 97.1629 
L 149.5152 108.762038 
L 152.8632 119.458691 
L 156.2112 129.323077 
L 159.5592 138.419951 
L 162.9072 146.809031 
L 166.2552 154.545388 
L 169.6032 161.679807 
L 172.9512 168.259123 
L 176.2992 174.326528 
L 179.6472 179.921849 
L 182.9952 185.08182 
L 186.3432 189.840312 
L 189.6912 194.228564 
L 193.0392 198.275381 
L 196.3872 202.007331 
L 199.7352 205.448912 
L 203.0832 208.622716 
L 203.7528 202.552366 
L 204.4224 194.056224 
L 205.092 192.225366 
L 206.4312 193.803654 
L 209.7792 197.883532 
L 211.1184 199.425172 
L 211.788 193.502622 
L 212.4576 191.826746 
L 213.7968 193.417742 
L 217.1448 197.527647 
L 220.4928 201.317775 
L 223.8408 204.813008 
L 224.5104 198.803877 
L 225.18 197.042813 
L 226.5192 198.467517 
L 227.1888 199.235196 
L 227.8584 193.315699 
L 228.528 191.642826 
L 229.1976 192.374088 
L 229.8672 186.564845 
L 230.5368 185.000455 
L 231.876 186.809079 
L 233.2152 188.703781 
L 233.8848 182.953518 
L 235.224 166.576503 
L 235.8936 165.187229 
L 237.2328 167.627513 
L 237.9024 162.215934 
L 238.572 161.042819 
L 240.5808 164.942967 
L 241.92 167.534777 
L 243.2592 145.187281 
L 243.9288 143.995635 
L 244.5984 138.817723 
L 245.268 138.020605 
L 245.9376 132.938708 
L 246.6072 132.236062 
L 247.9464 135.726854 
L 248.616 124.153062 
L 249.2856 107.718578 
L 249.9552 104.605696 
L 250.6248 93.239832 
L 251.2944 90.651789 
L 251.964 86.184998 
L 252.6336 79.55882 
L 253.3032 79.567876 
L 253.9728 75.425284 
L 254.6424 75.64685 
L 257.3208 86.211579 
L 257.9904 82.108313 
L 258.66 82.222486 
L 264.6864 104.346322 
L 266.6952 111.077463 
L 267.3648 106.574615 
L 268.0344 106.295627 
L 270.0432 112.792869 
L 270.7128 108.262455 
L 271.3824 107.956344 
L 273.3912 114.374804 
L 274.0608 109.81897 
L 274.7304 109.487847 
L 275.4 104.864457 
L 276.0696 104.61295 
L 278.748 113.360198 
L 279.4176 108.820667 
L 280.0872 108.505587 
L 286.7832 128.978713 
L 290.1312 138.102381 
L 293.4792 146.51617 
L 296.8272 154.275313 
L 300.1752 161.430746 
L 303.5232 168.029441 
L 306.8712 174.114715 
L 310.2192 179.726518 
L 313.5672 184.901686 
L 316.9152 189.674194 
L 320.2632 194.07537 
L 323.6112 198.134108 
L 326.9592 201.87705 
L 330.3072 205.328767 
L 334.3248 209.11819 
L 338.3424 212.556616 
L 339.012 213.09789 
L 339.6816 206.955626 
L 340.3512 205.063567 
L 341.6904 206.232564 
L 345.708 209.938272 
L 347.7168 211.660351 
L 348.3864 205.541187 
L 349.056 203.671857 
L 350.3952 204.885223 
L 353.7432 208.102885 
L 357.0912 211.070193 
L 357.7608 204.960513 
L 358.4304 203.100515 
L 359.7696 204.332095 
L 362.448 206.961611 
L 363.1176 200.917954 
L 363.7872 199.122917 
L 364.4568 186.384297 
L 365.1264 182.29947 
L 365.796 183.034788 
L 366.4656 184.050463 
L 367.1352 178.374977 
L 367.8048 170.267353 
L 368.4744 168.81877 
L 369.144 169.916803 
L 369.8136 164.468437 
L 370.4832 163.259125 
L 371.1528 164.446498 
L 371.8224 159.086037 
L 372.492 151.288377 
L 373.1616 150.144776 
L 373.8312 144.86805 
L 374.5008 137.298866 
L 375.1704 136.380069 
L 377.8488 143.134085 
L 378.5184 131.441263 
L 379.188 128.239342 
L 380.5272 131.713813 
L 383.2056 138.899771 
L 383.8752 127.274992 
L 384.5448 124.140021 
L 385.884 127.745181 
L 386.5536 129.649332 
L 387.2232 124.848044 
L 387.8928 124.275411 
L 388.5624 119.414392 
L 389.232 105.579395 
L 389.9016 95.972134 
L 390.5712 88.896509 
L 391.2408 88.755513 
L 391.9104 84.465281 
L 392.58 84.541579 
L 393.9192 89.552906 
L 394.5888 85.395946 
L 395.2584 85.457289 
L 399.276 100.215146 
L 399.9456 95.886849 
L 400.6152 95.779608 
L 407.3112 118.156016 
L 410.6592 128.121758 
L 411.3288 123.345017 
L 411.9984 122.796538 
L 412.668 124.634124 
L 413.3376 119.913427 
L 414.0072 112.745251 
L 414.6768 112.221018 
L 422.0424 133.972022 
L 422.712 129.10127 
L 423.3816 128.46029 
L 431.4168 149.146366 
L 434.7648 156.700863 
L 438.1128 163.667573 
L 441.4608 170.092229 
L 444.8088 176.017006 
L 448.1568 181.480798 
L 451.5048 186.519472 
L 454.8528 191.166106 
L 458.2008 195.451202 
L 461.5488 199.402891 
L 464.8968 203.047114 
L 468.2448 206.407793 
L 472.2624 210.09727 
L 476.28 213.445008 
L 480.2976 216.48266 
L 481.6368 217.431346 
L 482.3064 211.219446 
L 482.976 209.25887 
L 483.6456 209.707051 
L 487.6632 213.090933 
L 488.3328 213.623622 
L 489.0024 207.472909 
L 489.672 205.572538 
L 491.0112 206.725308 
L 491.6808 200.685448 
L 492.3504 198.894148 
L 493.6896 200.25983 
L 494.3592 194.323867 
L 495.0288 192.634794 
L 495.6984 186.675275 
L 496.368 185.109111 
L 497.7072 186.91427 
L 500.3856 190.636669 
L 501.0552 184.855345 
L 501.7248 183.318427 
L 502.3944 177.508617 
L 503.064 176.089756 
L 504.4032 178.182459 
L 505.0728 172.601268 
L 505.7424 171.261266 
L 506.412 165.645209 
L 507.0816 164.416987 
L 507.7512 158.910914 
L 508.4208 157.790909 
L 509.0904 152.391313 
L 509.76 151.376074 
L 510.4296 139.404721 
L 511.0992 136.074832 
L 511.7688 124.203276 
L 512.4384 121.117666 
L 513.108 116.161304 
L 513.7776 115.728263 
L 514.4472 111.004592 
L 515.1168 110.654417 
L 518.4648 121.066911 
L 519.1344 116.403537 
L 519.804 115.966604 
L 520.4736 104.564262 
L 521.1432 101.794241 
L 521.8128 97.148397 
L 522.4824 97.020884 
L 523.8216 101.634361 
L 524.4912 97.283259 
L 525.1608 90.478738 
L 525.8304 90.312316 
L 527.8392 97.567772 
L 528.5088 93.282018 
L 529.1784 93.216635 
L 529.848 95.529556 
L 530.5176 91.276554 
L 531.1872 91.243399 
L 532.5264 96.041067 
L 533.196 91.779846 
L 533.8656 91.738602 
L 535.8744 98.926398 
L 536.544 94.618811 
L 537.2136 94.531947 
L 540.5616 106.198871 
L 541.2312 101.774419 
L 541.9008 101.572568 
L 545.9184 114.837739 
L 546.588 110.274465 
L 547.2576 109.936023 
L 553.9536 130.195215 
L 557.3016 139.224231 
L 559.3104 144.300837 
L 559.98 139.264106 
L 560.6496 138.459815 
L 563.328 145.083338 
L 566.676 152.953964 
L 570.024 160.212206 
L 573.372 166.905711 
L 576.72 173.078419 
L 580.068 178.770852 
L 583.416 184.020377 
L 586.764 188.861456 
L 590.112 193.325869 
L 593.46 197.442922 
L 596.808 201.239643 
L 600.156 204.740954 
L 602.1648 206.709583 
L 602.8344 200.669976 
L 603.504 198.878924 
L 604.8432 200.245091 
L 606.852 202.426994 
L 607.5216 196.456206 
L 608.1912 194.732867 
L 609.5304 196.231214 
L 612.8784 200.122213 
L 616.2264 203.710468 
L 617.5656 205.066341 
L 618.2352 199.05314 
L 618.9048 197.28807 
L 619.5744 184.578935 
L 620.244 180.523119 
L 620.9136 181.286983 
L 624.2616 186.340737 
L 626.2704 189.182234 
L 626.94 183.424282 
L 627.6096 161.885838 
L 628.9488 149.869903 
L 629.6184 148.895182 
L 631.6272 153.371589 
L 634.9752 160.597337 
L 636.3144 163.327689 
L 636.984 157.985206 
L 637.6536 156.880077 
L 639.6624 160.977697 
L 641.6712 165.022363 
L 643.0104 126.989206 
L 643.68 123.420569 
L 644.3496 105.077519 
L 645.0192 99.775912 
L 645.6888 101.691255 
L 646.3584 97.339238 
L 647.028 97.208658 
L 648.3672 101.81615 
L 649.0368 90.787285 
L 649.7064 88.238653 
L 651.0456 92.988376 
L 653.0544 100.258314 
L 653.724 95.929324 
L 654.3936 95.821401 
L 655.0632 98.092464 
L 655.7328 93.798278 
L 656.4024 93.724599 
L 657.7416 98.443165 
L 658.4112 94.143343 
L 659.0808 94.06412 
L 659.7504 89.688581 
L 660.42 89.680943 
L 663.768 101.725305 
L 664.4376 97.372741 
L 665.1072 97.241623 
L 667.116 104.168367 
L 667.7856 99.776545 
L 668.4552 99.606798 
L 674.4816 119.372115 
L 675.1512 114.735976 
L 675.8208 114.325839 
L 683.1864 135.733283 
L 685.8648 142.667039 
L 686.5344 137.656562 
L 687.204 136.878104 
L 689.8824 143.600871 
L 693.2304 151.586843 
L 696.5784 158.951456 
L 699.9264 165.743055 
L 703.2744 172.006225 
L 706.6224 177.782081 
L 709.9704 183.108539 
L 713.3184 188.020565 
L 716.6664 192.550404 
L 720.0144 196.727794 
L 723.3624 200.580156 
L 726.7104 204.13278 
L 730.0584 207.408987 
L 734.076 211.005728 
L 736.0848 212.677169 
L 736.7544 206.541666 
L 737.424 204.656259 
L 738.0936 205.178402 
L 738.7632 199.1634 
L 739.4328 197.396558 
L 740.772 198.809984 
L 744.12 202.500339 
L 747.468 205.90356 
L 748.1376 199.876906 
L 748.8072 198.098598 
L 750.1464 199.489643 
L 750.816 186.891216 
L 751.4856 182.798243 
L 752.1552 183.525547 
L 752.8248 184.533336 
L 753.4944 178.850089 
L 754.164 170.734831 
L 754.8336 169.278735 
L 756.1728 171.588579 
L 759.5208 177.39693 
L 762.8688 182.753355 
L 763.5384 183.773553 
L 764.208 178.102516 
L 764.8776 176.674112 
L 766.2168 178.748185 
L 766.8864 166.483063 
L 767.556 162.718038 
L 768.2256 163.768021 
L 771.5736 170.184861 
L 772.2432 164.732187 
L 772.9128 163.518637 
L 773.5824 164.701841 
L 774.252 152.662436 
L 774.9216 149.119502 
L 775.5912 150.388005 
L 777.6 154.935025 
L 777.6 154.935025 
" clip-path="url(#p3391d10cbe)" style="fill: none; stroke: #ff4500; stroke-width: 1.5; stroke-linecap: square"/>
   </g>
   <g id="patch_3">
    <path d="M 108 256.32 
L 108 34.56 
" style="fill: none; stroke: #000000; stroke-width: 0.8; stroke-linejoin: miter; stroke-linecap: square"/>
   </g>
   <g id="patch_4">
    <path d="M 777.6 256.32 
L 777.6 34.56 
" style="fill: none; stroke: #000000; stroke-width: 0.8; stroke-linejoin: miter; stroke-linecap: square"/>
   </g>
   <g id="patch_5">
    <path d="M 108 256.32 
L 777.6 256.32 
" style="fill: none; stroke: #000000; stroke-width: 0.8; stroke-linejoin: miter; stroke-linecap: square"/>
   </g>
   <g id="patch_6">
    <path d="M 108 34.56 
L 777.6 34.56 
" style="fill: none; stroke: #000000; stroke-width: 0.8; stroke-linejoin: miter; stroke-linecap: square"/>
   </g>
  </g>
 </g>
 <defs>
  <clipPath id="p3391d10cbe">
   <rect x="108" y="34.56" width="669.6" height="221.76"/>
  </clipPath>
 </defs>
</svg>
