<?xml version="1.0" encoding="utf-8" standalone="no"?>
<!DOCTYPE svg PUBLIC "-//W3C//DTD SVG 1.1//EN"
  "http://www.w3.org/Graphics/SVG/1.1/DTD/svg11.dtd">
<svg xmlns:xlink="http://www.w3.org/1999/xlink" width="864pt" height="288pt" viewBox="0 0 864 288" xmlns="http://www.w3.org/2000/svg" version="1.1">
 <metadata>
  <rdf:RDF xmlns:dc="http://purl.org/dc/elements/1.1/" xmlns:cc="http://creativecommons.org/ns#" xmlns:rdf="http://www.w3.org/1999/02/22-rdf-syntax-ns#">
   <cc:Work>
    <dc:type rdf:resource="http://purl.org/dc/dcmitype/StillImage"/>
    <dc:date>2024-04-23T19:17:50.532548</dc:date>
    <dc:format>image/svg+xml</dc:format>
    <dc:creator>
     <cc:Agent>
      <dc:title>Matplotlib v3.8.2, https://matplotlib.org/</dc:title>
     </cc:Agent>
    </dc:creator>
   </cc:Work>
  </rdf:RDF>
 </metadata>
 <defs>
  <style type="text/css">*{stroke-linejoin: round; stroke-linecap: butt}</style>
 </defs>
 <g id="figure_1">
  <g id="patch_1">
   <path d="M 0 288 
L 864 288 
L 864 0 
L 0 0 
z
" style="fill: #ffffff"/>
  </g>
  <g id="axes_1">
   <g id="patch_2">
    <path d="M 108 256.32 
L 777.6 256.32 
L 777.6 34.56 
L 108 34.56 
z
" style="fill: #ffffff"/>
   </g>
   <g id="matplotlib.axis_1">
    <g id="xtick_1">
     <g id="line2d_1">
      <path d="M 108 256.32 
L 108 34.56 
" clip-path="url(#pa2e7f0ccb1)" style="fill: none; stroke: #b0b0b0; stroke-width: 0.8; stroke-linecap: square"/>
     </g>
     <g id="line2d_2">
      <defs>
       <path id="m608fd54004" d="M 0 0 
L 0 3.5 
" style="stroke: #000000; stroke-width: 0.8"/>
      </defs>
      <g>
       <use xlink:href="#m608fd54004" x="108" y="256.32" style="stroke: #000000; stroke-width: 0.8"/>
      </g>
     </g>
     <g id="text_1">
      <!-- 100 -->
      <g transform="translate(94.63875 273.957812) scale(0.14 -0.14)">
       <defs>
        <path id="DejaVuSans-31" d="M 794 531 
L 1825 531 
L 1825 4091 
L 703 3866 
L 703 4441 
L 1819 4666 
L 2450 4666 
L 2450 531 
L 3481 531 
L 3481 0 
L 794 0 
L 794 531 
z
" transform="scale(0.015625)"/>
        <path id="DejaVuSans-30" d="M 2034 4250 
Q 1547 4250 1301 3770 
Q 1056 3291 1056 2328 
Q 1056 1369 1301 889 
Q 1547 409 2034 409 
Q 2525 409 2770 889 
Q 3016 1369 3016 2328 
Q 3016 3291 2770 3770 
Q 2525 4250 2034 4250 
z
M 2034 4750 
Q 2819 4750 3233 4129 
Q 3647 3509 3647 2328 
Q 3647 1150 3233 529 
Q 2819 -91 2034 -91 
Q 1250 -91 836 529 
Q 422 1150 422 2328 
Q 422 3509 836 4129 
Q 1250 4750 2034 4750 
z
" transform="scale(0.015625)"/>
       </defs>
       <use xlink:href="#DejaVuSans-31"/>
       <use xlink:href="#DejaVuSans-30" x="63.623047"/>
       <use xlink:href="#DejaVuSans-30" x="127.246094"/>
      </g>
     </g>
    </g>
    <g id="xtick_2">
     <g id="line2d_3">
      <path d="M 241.92 256.32 
L 241.92 34.56 
" clip-path="url(#pa2e7f0ccb1)" style="fill: none; stroke: #b0b0b0; stroke-width: 0.8; stroke-linecap: square"/>
     </g>
     <g id="line2d_4">
      <g>
       <use xlink:href="#m608fd54004" x="241.92" y="256.32" style="stroke: #000000; stroke-width: 0.8"/>
      </g>
     </g>
     <g id="text_2">
      <!-- 120 -->
      <g transform="translate(228.55875 273.957812) scale(0.14 -0.14)">
       <defs>
        <path id="DejaVuSans-32" d="M 1228 531 
L 3431 531 
L 3431 0 
L 469 0 
L 469 531 
Q 828 903 1448 1529 
Q 2069 2156 2228 2338 
Q 2531 2678 2651 2914 
Q 2772 3150 2772 3378 
Q 2772 3750 2511 3984 
Q 2250 4219 1831 4219 
Q 1534 4219 1204 4116 
Q 875 4013 500 3803 
L 500 4441 
Q 881 4594 1212 4672 
Q 1544 4750 1819 4750 
Q 2544 4750 2975 4387 
Q 3406 4025 3406 3419 
Q 3406 3131 3298 2873 
Q 3191 2616 2906 2266 
Q 2828 2175 2409 1742 
Q 1991 1309 1228 531 
z
" transform="scale(0.015625)"/>
       </defs>
       <use xlink:href="#DejaVuSans-31"/>
       <use xlink:href="#DejaVuSans-32" x="63.623047"/>
       <use xlink:href="#DejaVuSans-30" x="127.246094"/>
      </g>
     </g>
    </g>
    <g id="xtick_3">
     <g id="line2d_5">
      <path d="M 375.84 256.32 
L 375.84 34.56 
" clip-path="url(#pa2e7f0ccb1)" style="fill: none; stroke: #b0b0b0; stroke-width: 0.8; stroke-linecap: square"/>
     </g>
     <g id="line2d_6">
      <g>
       <use xlink:href="#m608fd54004" x="375.84" y="256.32" style="stroke: #000000; stroke-width: 0.8"/>
      </g>
     </g>
     <g id="text_3">
      <!-- 140 -->
      <g transform="translate(362.47875 273.957812) scale(0.14 -0.14)">
       <defs>
        <path id="DejaVuSans-34" d="M 2419 4116 
L 825 1625 
L 2419 1625 
L 2419 4116 
z
M 2253 4666 
L 3047 4666 
L 3047 1625 
L 3713 1625 
L 3713 1100 
L 3047 1100 
L 3047 0 
L 2419 0 
L 2419 1100 
L 313 1100 
L 313 1709 
L 2253 4666 
z
" transform="scale(0.015625)"/>
       </defs>
       <use xlink:href="#DejaVuSans-31"/>
       <use xlink:href="#DejaVuSans-34" x="63.623047"/>
       <use xlink:href="#DejaVuSans-30" x="127.246094"/>
      </g>
     </g>
    </g>
    <g id="xtick_4">
     <g id="line2d_7">
      <path d="M 509.76 256.32 
L 509.76 34.56 
" clip-path="url(#pa2e7f0ccb1)" style="fill: none; stroke: #b0b0b0; stroke-width: 0.8; stroke-linecap: square"/>
     </g>
     <g id="line2d_8">
      <g>
       <use xlink:href="#m608fd54004" x="509.76" y="256.32" style="stroke: #000000; stroke-width: 0.8"/>
      </g>
     </g>
     <g id="text_4">
      <!-- 160 -->
      <g transform="translate(496.39875 273.957812) scale(0.14 -0.14)">
       <defs>
        <path id="DejaVuSans-36" d="M 2113 2584 
Q 1688 2584 1439 2293 
Q 1191 2003 1191 1497 
Q 1191 994 1439 701 
Q 1688 409 2113 409 
Q 2538 409 2786 701 
Q 3034 994 3034 1497 
Q 3034 2003 2786 2293 
Q 2538 2584 2113 2584 
z
M 3366 4563 
L 3366 3988 
Q 3128 4100 2886 4159 
Q 2644 4219 2406 4219 
Q 1781 4219 1451 3797 
Q 1122 3375 1075 2522 
Q 1259 2794 1537 2939 
Q 1816 3084 2150 3084 
Q 2853 3084 3261 2657 
Q 3669 2231 3669 1497 
Q 3669 778 3244 343 
Q 2819 -91 2113 -91 
Q 1303 -91 875 529 
Q 447 1150 447 2328 
Q 447 3434 972 4092 
Q 1497 4750 2381 4750 
Q 2619 4750 2861 4703 
Q 3103 4656 3366 4563 
z
" transform="scale(0.015625)"/>
       </defs>
       <use xlink:href="#DejaVuSans-31"/>
       <use xlink:href="#DejaVuSans-36" x="63.623047"/>
       <use xlink:href="#DejaVuSans-30" x="127.246094"/>
      </g>
     </g>
    </g>
    <g id="xtick_5">
     <g id="line2d_9">
      <path d="M 643.68 256.32 
L 643.68 34.56 
" clip-path="url(#pa2e7f0ccb1)" style="fill: none; stroke: #b0b0b0; stroke-width: 0.8; stroke-linecap: square"/>
     </g>
     <g id="line2d_10">
      <g>
       <use xlink:href="#m608fd54004" x="643.68" y="256.32" style="stroke: #000000; stroke-width: 0.8"/>
      </g>
     </g>
     <g id="text_5">
      <!-- 180 -->
      <g transform="translate(630.31875 273.957812) scale(0.14 -0.14)">
       <defs>
        <path id="DejaVuSans-38" d="M 2034 2216 
Q 1584 2216 1326 1975 
Q 1069 1734 1069 1313 
Q 1069 891 1326 650 
Q 1584 409 2034 409 
Q 2484 409 2743 651 
Q 3003 894 3003 1313 
Q 3003 1734 2745 1975 
Q 2488 2216 2034 2216 
z
M 1403 2484 
Q 997 2584 770 2862 
Q 544 3141 544 3541 
Q 544 4100 942 4425 
Q 1341 4750 2034 4750 
Q 2731 4750 3128 4425 
Q 3525 4100 3525 3541 
Q 3525 3141 3298 2862 
Q 3072 2584 2669 2484 
Q 3125 2378 3379 2068 
Q 3634 1759 3634 1313 
Q 3634 634 3220 271 
Q 2806 -91 2034 -91 
Q 1263 -91 848 271 
Q 434 634 434 1313 
Q 434 1759 690 2068 
Q 947 2378 1403 2484 
z
M 1172 3481 
Q 1172 3119 1398 2916 
Q 1625 2713 2034 2713 
Q 2441 2713 2670 2916 
Q 2900 3119 2900 3481 
Q 2900 3844 2670 4047 
Q 2441 4250 2034 4250 
Q 1625 4250 1398 4047 
Q 1172 3844 1172 3481 
z
" transform="scale(0.015625)"/>
       </defs>
       <use xlink:href="#DejaVuSans-31"/>
       <use xlink:href="#DejaVuSans-38" x="63.623047"/>
       <use xlink:href="#DejaVuSans-30" x="127.246094"/>
      </g>
     </g>
    </g>
    <g id="xtick_6">
     <g id="line2d_11">
      <path d="M 777.6 256.32 
L 777.6 34.56 
" clip-path="url(#pa2e7f0ccb1)" style="fill: none; stroke: #b0b0b0; stroke-width: 0.8; stroke-linecap: square"/>
     </g>
     <g id="line2d_12">
      <g>
       <use xlink:href="#m608fd54004" x="777.6" y="256.32" style="stroke: #000000; stroke-width: 0.8"/>
      </g>
     </g>
     <g id="text_6">
      <!-- 200 -->
      <g transform="translate(764.23875 273.957812) scale(0.14 -0.14)">
       <use xlink:href="#DejaVuSans-32"/>
       <use xlink:href="#DejaVuSans-30" x="63.623047"/>
       <use xlink:href="#DejaVuSans-30" x="127.246094"/>
      </g>
     </g>
    </g>
    <g id="text_7">
     <!-- Time (ms) -->
     <g transform="translate(407.521094 291.507187) scale(0.14 -0.14)">
      <defs>
       <path id="DejaVuSans-54" d="M -19 4666 
L 3928 4666 
L 3928 4134 
L 2272 4134 
L 2272 0 
L 1638 0 
L 1638 4134 
L -19 4134 
L -19 4666 
z
" transform="scale(0.015625)"/>
       <path id="DejaVuSans-69" d="M 603 3500 
L 1178 3500 
L 1178 0 
L 603 0 
L 603 3500 
z
M 603 4863 
L 1178 4863 
L 1178 4134 
L 603 4134 
L 603 4863 
z
" transform="scale(0.015625)"/>
       <path id="DejaVuSans-6d" d="M 3328 2828 
Q 3544 3216 3844 3400 
Q 4144 3584 4550 3584 
Q 5097 3584 5394 3201 
Q 5691 2819 5691 2113 
L 5691 0 
L 5113 0 
L 5113 2094 
Q 5113 2597 4934 2840 
Q 4756 3084 4391 3084 
Q 3944 3084 3684 2787 
Q 3425 2491 3425 1978 
L 3425 0 
L 2847 0 
L 2847 2094 
Q 2847 2600 2669 2842 
Q 2491 3084 2119 3084 
Q 1678 3084 1418 2786 
Q 1159 2488 1159 1978 
L 1159 0 
L 581 0 
L 581 3500 
L 1159 3500 
L 1159 2956 
Q 1356 3278 1631 3431 
Q 1906 3584 2284 3584 
Q 2666 3584 2933 3390 
Q 3200 3197 3328 2828 
z
" transform="scale(0.015625)"/>
       <path id="DejaVuSans-65" d="M 3597 1894 
L 3597 1613 
L 953 1613 
Q 991 1019 1311 708 
Q 1631 397 2203 397 
Q 2534 397 2845 478 
Q 3156 559 3463 722 
L 3463 178 
Q 3153 47 2828 -22 
Q 2503 -91 2169 -91 
Q 1331 -91 842 396 
Q 353 884 353 1716 
Q 353 2575 817 3079 
Q 1281 3584 2069 3584 
Q 2775 3584 3186 3129 
Q 3597 2675 3597 1894 
z
M 3022 2063 
Q 3016 2534 2758 2815 
Q 2500 3097 2075 3097 
Q 1594 3097 1305 2825 
Q 1016 2553 972 2059 
L 3022 2063 
z
" transform="scale(0.015625)"/>
       <path id="DejaVuSans-20" transform="scale(0.015625)"/>
       <path id="DejaVuSans-28" d="M 1984 4856 
Q 1566 4138 1362 3434 
Q 1159 2731 1159 2009 
Q 1159 1288 1364 580 
Q 1569 -128 1984 -844 
L 1484 -844 
Q 1016 -109 783 600 
Q 550 1309 550 2009 
Q 550 2706 781 3412 
Q 1013 4119 1484 4856 
L 1984 4856 
z
" transform="scale(0.015625)"/>
       <path id="DejaVuSans-73" d="M 2834 3397 
L 2834 2853 
Q 2591 2978 2328 3040 
Q 2066 3103 1784 3103 
Q 1356 3103 1142 2972 
Q 928 2841 928 2578 
Q 928 2378 1081 2264 
Q 1234 2150 1697 2047 
L 1894 2003 
Q 2506 1872 2764 1633 
Q 3022 1394 3022 966 
Q 3022 478 2636 193 
Q 2250 -91 1575 -91 
Q 1294 -91 989 -36 
Q 684 19 347 128 
L 347 722 
Q 666 556 975 473 
Q 1284 391 1588 391 
Q 1994 391 2212 530 
Q 2431 669 2431 922 
Q 2431 1156 2273 1281 
Q 2116 1406 1581 1522 
L 1381 1569 
Q 847 1681 609 1914 
Q 372 2147 372 2553 
Q 372 3047 722 3315 
Q 1072 3584 1716 3584 
Q 2034 3584 2315 3537 
Q 2597 3491 2834 3397 
z
" transform="scale(0.015625)"/>
       <path id="DejaVuSans-29" d="M 513 4856 
L 1013 4856 
Q 1481 4119 1714 3412 
Q 1947 2706 1947 2009 
Q 1947 1309 1714 600 
Q 1481 -109 1013 -844 
L 513 -844 
Q 928 -128 1133 580 
Q 1338 1288 1338 2009 
Q 1338 2731 1133 3434 
Q 928 4138 513 4856 
z
" transform="scale(0.015625)"/>
      </defs>
      <use xlink:href="#DejaVuSans-54"/>
      <use xlink:href="#DejaVuSans-69" x="57.958984"/>
      <use xlink:href="#DejaVuSans-6d" x="85.742188"/>
      <use xlink:href="#DejaVuSans-65" x="183.154297"/>
      <use xlink:href="#DejaVuSans-20" x="244.677734"/>
      <use xlink:href="#DejaVuSans-28" x="276.464844"/>
      <use xlink:href="#DejaVuSans-6d" x="315.478516"/>
      <use xlink:href="#DejaVuSans-73" x="412.890625"/>
      <use xlink:href="#DejaVuSans-29" x="464.990234"/>
     </g>
    </g>
   </g>
   <g id="matplotlib.axis_2">
    <g id="ytick_1">
     <g id="line2d_13">
      <path d="M 108 225.046648 
L 777.6 225.046648 
" clip-path="url(#pa2e7f0ccb1)" style="fill: none; stroke: #b0b0b0; stroke-width: 0.8; stroke-linecap: square"/>
     </g>
     <g id="line2d_14">
      <defs>
       <path id="ma922546f62" d="M 0 0 
L -3.5 0 
" style="stroke: #000000; stroke-width: 0.8"/>
      </defs>
      <g>
       <use xlink:href="#ma922546f62" x="108" y="225.046648" style="stroke: #000000; stroke-width: 0.8"/>
      </g>
     </g>
     <g id="text_8">
      <!-- −60 -->
      <g transform="translate(71.453437 230.365554) scale(0.14 -0.14)">
       <defs>
        <path id="DejaVuSans-2212" d="M 678 2272 
L 4684 2272 
L 4684 1741 
L 678 1741 
L 678 2272 
z
" transform="scale(0.015625)"/>
       </defs>
       <use xlink:href="#DejaVuSans-2212"/>
       <use xlink:href="#DejaVuSans-36" x="83.789062"/>
       <use xlink:href="#DejaVuSans-30" x="147.412109"/>
      </g>
     </g>
    </g>
    <g id="ytick_2">
     <g id="line2d_15">
      <path d="M 108 182.727484 
L 777.6 182.727484 
" clip-path="url(#pa2e7f0ccb1)" style="fill: none; stroke: #b0b0b0; stroke-width: 0.8; stroke-linecap: square"/>
     </g>
     <g id="line2d_16">
      <g>
       <use xlink:href="#ma922546f62" x="108" y="182.727484" style="stroke: #000000; stroke-width: 0.8"/>
      </g>
     </g>
     <g id="text_9">
      <!-- −40 -->
      <g transform="translate(71.453437 188.04639) scale(0.14 -0.14)">
       <use xlink:href="#DejaVuSans-2212"/>
       <use xlink:href="#DejaVuSans-34" x="83.789062"/>
       <use xlink:href="#DejaVuSans-30" x="147.412109"/>
      </g>
     </g>
    </g>
    <g id="ytick_3">
     <g id="line2d_17">
      <path d="M 108 140.40832 
L 777.6 140.40832 
" clip-path="url(#pa2e7f0ccb1)" style="fill: none; stroke: #b0b0b0; stroke-width: 0.8; stroke-linecap: square"/>
     </g>
     <g id="line2d_18">
      <g>
       <use xlink:href="#ma922546f62" x="108" y="140.40832" style="stroke: #000000; stroke-width: 0.8"/>
      </g>
     </g>
     <g id="text_10">
      <!-- −20 -->
      <g transform="translate(71.453437 145.727226) scale(0.14 -0.14)">
       <use xlink:href="#DejaVuSans-2212"/>
       <use xlink:href="#DejaVuSans-32" x="83.789062"/>
       <use xlink:href="#DejaVuSans-30" x="147.412109"/>
      </g>
     </g>
    </g>
    <g id="ytick_4">
     <g id="line2d_19">
      <path d="M 108 98.089155 
L 777.6 98.089155 
" clip-path="url(#pa2e7f0ccb1)" style="fill: none; stroke: #b0b0b0; stroke-width: 0.8; stroke-linecap: square"/>
     </g>
     <g id="line2d_20">
      <g>
       <use xlink:href="#ma922546f62" x="108" y="98.089155" style="stroke: #000000; stroke-width: 0.8"/>
      </g>
     </g>
     <g id="text_11">
      <!-- 0 -->
      <g transform="translate(92.0925 103.408062) scale(0.14 -0.14)">
       <use xlink:href="#DejaVuSans-30"/>
      </g>
     </g>
    </g>
    <g id="ytick_5">
     <g id="line2d_21">
      <path d="M 108 55.769991 
L 777.6 55.769991 
" clip-path="url(#pa2e7f0ccb1)" style="fill: none; stroke: #b0b0b0; stroke-width: 0.8; stroke-linecap: square"/>
     </g>
     <g id="line2d_22">
      <g>
       <use xlink:href="#ma922546f62" x="108" y="55.769991" style="stroke: #000000; stroke-width: 0.8"/>
      </g>
     </g>
     <g id="text_12">
      <!-- 20 -->
      <g transform="translate(83.185 61.088897) scale(0.14 -0.14)">
       <use xlink:href="#DejaVuSans-32"/>
       <use xlink:href="#DejaVuSans-30" x="63.623047"/>
      </g>
     </g>
    </g>
    <g id="text_13">
     <!-- $V_{m}$ (mV) -->
     <g transform="translate(64.541875 174.49) rotate(-90) scale(0.14 -0.14)">
      <defs>
       <path id="DejaVuSans-Oblique-56" d="M 1319 0 
L 500 4666 
L 1119 4666 
L 1797 653 
L 4063 4666 
L 4750 4666 
L 2053 0 
L 1319 0 
z
" transform="scale(0.015625)"/>
       <path id="DejaVuSans-Oblique-6d" d="M 5747 2113 
L 5338 0 
L 4763 0 
L 5166 2094 
Q 5191 2228 5203 2325 
Q 5216 2422 5216 2491 
Q 5216 2772 5059 2928 
Q 4903 3084 4622 3084 
Q 4203 3084 3875 2770 
Q 3547 2456 3450 1953 
L 3066 0 
L 2491 0 
L 2900 2094 
Q 2925 2209 2937 2307 
Q 2950 2406 2950 2484 
Q 2950 2769 2794 2926 
Q 2638 3084 2363 3084 
Q 1938 3084 1609 2770 
Q 1281 2456 1184 1953 
L 800 0 
L 225 0 
L 909 3500 
L 1484 3500 
L 1375 2956 
Q 1609 3263 1923 3423 
Q 2238 3584 2597 3584 
Q 2978 3584 3223 3384 
Q 3469 3184 3519 2828 
Q 3781 3197 4126 3390 
Q 4472 3584 4856 3584 
Q 5306 3584 5551 3325 
Q 5797 3066 5797 2591 
Q 5797 2488 5784 2364 
Q 5772 2241 5747 2113 
z
" transform="scale(0.015625)"/>
       <path id="DejaVuSans-56" d="M 1831 0 
L 50 4666 
L 709 4666 
L 2188 738 
L 3669 4666 
L 4325 4666 
L 2547 0 
L 1831 0 
z
" transform="scale(0.015625)"/>
      </defs>
      <use xlink:href="#DejaVuSans-Oblique-56" transform="translate(0 0.125)"/>
      <use xlink:href="#DejaVuSans-Oblique-6d" transform="translate(68.408203 -16.28125) scale(0.7)"/>
      <use xlink:href="#DejaVuSans-20" transform="translate(139.331055 0.125)"/>
      <use xlink:href="#DejaVuSans-28" transform="translate(171.118164 0.125)"/>
      <use xlink:href="#DejaVuSans-6d" transform="translate(210.131836 0.125)"/>
      <use xlink:href="#DejaVuSans-56" transform="translate(307.543945 0.125)"/>
      <use xlink:href="#DejaVuSans-29" transform="translate(375.952148 0.125)"/>
     </g>
    </g>
   </g>
   <g id="line2d_23">
    <path d="M 108 226.226827 
L 108.6696 226.772387 
L 110.0088 227.319202 
L 111.348 227.586216 
L 112.6872 227.711979 
L 115.3656 229.173137 
L 116.7048 230.060008 
L 117.3744 230.274466 
L 118.7136 231.062872 
L 120.0528 231.377066 
L 122.0616 231.509715 
L 123.4008 231.478754 
L 124.74 232.497791 
L 125.4096 233.008797 
L 126.0792 233.359749 
L 127.4184 233.657469 
L 128.088 233.717519 
L 129.4272 234.788452 
L 130.7664 235.163272 
L 132.7752 235.292107 
L 135.4536 235.132816 
L 138.132 234.742473 
L 141.48 234.019923 
L 145.4976 232.885868 
L 147.5064 232.228749 
L 148.8456 232.338918 
L 150.1848 232.114146 
L 152.8632 231.360334 
L 156.8808 229.953285 
L 158.22 230.052513 
L 159.5592 229.803546 
L 162.2376 228.995062 
L 166.2552 227.523443 
L 168.9336 226.445812 
L 170.2728 226.55728 
L 171.612 226.302148 
L 174.2904 225.47102 
L 178.308 223.969133 
L 182.3256 222.294161 
L 183.6648 221.568217 
L 195.048 214.549328 
L 204.4224 208.796589 
L 208.44 206.116931 
L 211.1184 204.058335 
L 212.4576 202.814897 
L 214.4664 200.781307 
L 215.136 200.254497 
L 215.8056 199.407267 
L 216.4752 198.055733 
L 217.1448 195.422104 
L 217.8144 185.406041 
L 218.484 129.408497 
L 219.1536 47.802275 
L 219.8232 63.692973 
L 220.4928 86.385845 
L 221.832 114.822737 
L 223.1712 137.594414 
L 226.5192 187.767971 
L 227.1888 195.508327 
L 227.8584 200.998464 
L 228.528 204.590448 
L 229.1976 207.022234 
L 229.8672 208.779952 
L 231.2064 211.547111 
L 231.876 213.075323 
L 232.5456 214.191542 
L 233.2152 214.9593 
L 235.8936 217.218839 
L 237.9024 218.317263 
L 238.572 218.721745 
L 239.2416 219.327562 
L 240.5808 221.744539 
L 242.5896 223.944956 
L 243.9288 224.593902 
L 245.268 224.925915 
L 246.6072 225.087058 
L 247.2768 225.473219 
L 249.2856 227.402436 
L 250.6248 227.896981 
L 251.2944 228.029666 
L 252.6336 229.359151 
L 253.3032 229.685712 
L 254.6424 230.602259 
L 255.312 230.840834 
L 257.3208 232.175276 
L 257.9904 232.555488 
L 259.9992 233.979769 
L 260.6688 234.364305 
L 262.008 234.755039 
L 264.0168 234.986153 
L 265.356 235.014074 
L 266.6952 235.479324 
L 268.0344 235.591073 
L 270.0432 235.512144 
L 270.7128 235.449532 
L 272.052 235.794203 
L 273.3912 235.800661 
L 274.7304 236.674505 
L 276.0696 236.903101 
L 278.0784 236.858724 
L 280.7568 236.519252 
L 281.4264 236.401851 
L 282.7656 236.640858 
L 284.1048 236.559061 
L 286.7832 236.088389 
L 290.1312 235.258454 
L 294.1488 234.046607 
L 298.1664 232.670925 
L 299.5056 232.759637 
L 300.8448 232.524465 
L 303.5232 231.769857 
L 307.5408 230.390251 
L 312.228 228.545508 
L 316.2456 226.801637 
L 317.5848 226.035928 
L 326.2896 220.297568 
L 340.3512 211.49048 
L 341.6904 211.567048 
L 343.0296 211.200501 
L 344.3688 211.56998 
L 345.708 211.426263 
L 347.7168 210.866762 
L 349.056 211.303108 
L 350.3952 211.244535 
L 351.0648 211.128792 
L 353.0736 212.243255 
L 353.7432 212.628847 
L 355.0824 212.878929 
L 356.4216 212.861744 
L 358.4304 212.613827 
L 359.1 213.4103 
L 359.7696 214.496666 
L 360.4392 215.186262 
L 361.1088 215.571341 
L 362.448 216.746507 
L 363.7872 217.247116 
L 365.1264 217.463857 
L 366.4656 218.29919 
L 367.8048 218.615569 
L 369.144 218.713314 
L 369.8136 219.125159 
L 371.8224 221.326726 
L 373.1616 221.912842 
L 374.5008 222.1889 
L 375.84 222.311929 
L 377.1792 223.025906 
L 377.8488 223.924711 
L 378.5184 224.615503 
L 379.188 225.004202 
L 379.8576 225.252618 
L 381.1968 226.183687 
L 382.536 226.592442 
L 384.5448 226.825803 
L 385.884 226.84784 
L 389.232 230.04031 
L 390.5712 231.032996 
L 391.9104 231.478276 
L 394.5888 232.091896 
L 395.2584 232.946752 
L 395.928 233.556863 
L 396.5976 233.892288 
L 397.9368 234.243671 
L 399.9456 234.434867 
L 401.2848 234.436945 
L 401.9544 234.696923 
L 402.624 235.170122 
L 403.2936 235.473568 
L 404.6328 235.692948 
L 406.6416 235.696305 
L 409.32 235.42783 
L 410.6592 235.729996 
L 411.9984 235.698565 
L 414.6768 235.307698 
L 418.0248 234.54704 
L 419.364 234.721703 
L 420.7032 234.571028 
L 423.3816 233.967789 
L 424.7208 234.147582 
L 426.06 233.995658 
L 428.7384 233.387231 
L 432.756 232.200853 
L 437.4432 230.584762 
L 442.8 228.498005 
L 448.1568 226.174108 
L 450.8352 224.88252 
L 452.844 223.534533 
L 457.5312 220.360949 
L 469.584 212.707763 
L 470.9232 211.859672 
L 472.2624 211.91599 
L 473.6016 211.533135 
L 476.28 210.364634 
L 480.2976 208.315614 
L 481.6368 208.552999 
L 482.976 208.345209 
L 484.9848 207.705159 
L 487.6632 206.595266 
L 491.0112 204.932043 
L 492.3504 205.219868 
L 493.6896 206.153668 
L 494.3592 207.374033 
L 495.0288 208.884965 
L 495.6984 209.927466 
L 496.368 210.582474 
L 497.7072 211.328684 
L 498.3768 211.548276 
L 499.716 213.495035 
L 500.3856 214.016289 
L 501.7248 214.612284 
L 503.064 214.926629 
L 505.0728 215.115001 
L 505.7424 215.125397 
L 507.0816 215.889691 
L 508.4208 216.152756 
L 509.76 216.99318 
L 511.0992 217.301287 
L 511.7688 217.779641 
L 514.4472 220.925285 
L 515.1168 221.508268 
L 515.7864 221.880452 
L 516.456 222.887676 
L 517.1256 223.68797 
L 517.7952 224.176903 
L 519.1344 225.415974 
L 520.4736 226.040819 
L 521.1432 226.244569 
L 523.152 227.736969 
L 523.8216 228.511081 
L 524.4912 229.055885 
L 525.8304 229.642617 
L 526.5 229.825116 
L 527.8392 230.641537 
L 529.1784 231.012484 
L 529.848 231.118498 
L 530.5176 231.500215 
L 531.1872 232.100682 
L 531.8568 233.097947 
L 532.5264 233.80224 
L 533.196 234.211776 
L 534.5352 234.681901 
L 536.544 235.01374 
L 537.2136 235.065654 
L 538.5528 235.611121 
L 539.892 235.79158 
L 541.9008 235.801426 
L 543.24 236.216578 
L 544.5792 236.287275 
L 546.588 236.155966 
L 549.2664 235.768537 
L 550.6056 235.509768 
L 551.9448 235.734454 
L 553.284 235.636503 
L 555.9624 235.13589 
L 559.3104 234.27504 
L 560.6496 234.427268 
L 561.9888 234.258037 
L 564.6672 233.632131 
L 568.6848 232.442089 
L 573.372 230.825587 
L 578.7288 228.722652 
L 584.0856 226.373284 
L 585.4248 225.597356 
L 590.112 222.390472 
L 591.4512 222.260825 
L 592.7904 221.764652 
L 596.1384 220.128084 
L 601.4952 217.222282 
L 602.1648 216.846498 
L 603.504 216.910651 
L 604.8432 216.549545 
L 607.5216 215.452426 
L 611.5392 213.538905 
L 614.8872 211.828712 
L 616.2264 212.022016 
L 617.5656 211.766893 
L 618.2352 211.563017 
L 619.5744 211.982878 
L 620.244 212.453631 
L 620.9136 213.238251 
L 621.5832 213.752442 
L 622.2528 214.455909 
L 622.9224 214.9635 
L 624.2616 215.403707 
L 625.6008 216.3343 
L 626.94 216.679823 
L 628.2792 216.775025 
L 628.9488 217.195662 
L 629.6184 218.350151 
L 630.288 219.192773 
L 630.9576 219.665554 
L 632.2968 220.172638 
L 633.636 220.416574 
L 634.3056 220.480532 
L 635.6448 221.245733 
L 636.984 221.525458 
L 639.6624 223.277144 
L 640.332 223.878858 
L 641.0016 224.326055 
L 641.6712 224.948388 
L 642.3408 225.763158 
L 643.0104 226.330252 
L 643.68 226.680024 
L 644.3496 227.259247 
L 647.028 230.220988 
L 647.6976 230.748593 
L 648.3672 231.096119 
L 649.0368 231.95044 
L 649.7064 232.623318 
L 651.0456 233.325354 
L 651.7152 233.543323 
L 653.0544 234.358488 
L 653.724 234.585259 
L 655.0632 235.359968 
L 657.072 236.071782 
L 657.7416 236.355749 
L 659.0808 236.615834 
L 660.42 236.709815 
L 661.7592 237.668997 
L 663.0984 237.995323 
L 665.1072 238.095406 
L 667.7856 237.926668 
L 670.464 237.540316 
L 672.4728 237.141281 
L 673.812 237.32668 
L 675.1512 237.201321 
L 676.4904 236.956936 
L 677.8296 237.154084 
L 679.1688 237.029585 
L 681.8472 236.471997 
L 685.1952 235.531408 
L 689.2128 234.178267 
L 693.9 232.375 
L 699.9264 229.801182 
L 706.6224 226.703915 
L 713.988 223.048552 
L 718.6752 220.545135 
L 721.3536 218.613091 
L 725.3712 215.763876 
L 736.0848 208.622188 
L 736.7544 208.66943 
L 737.424 209.173498 
L 738.0936 209.477507 
L 738.7632 209.549908 
L 740.1024 209.393112 
L 742.1112 208.835931 
L 744.7896 207.822075 
L 747.468 206.606327 
L 748.8072 206.932862 
L 750.1464 206.842021 
L 750.816 206.704721 
L 752.1552 207.325628 
L 753.4944 207.463009 
L 754.8336 207.344154 
L 756.8424 206.927916 
L 757.512 207.252367 
L 758.1816 208.029704 
L 758.8512 208.599263 
L 759.5208 208.915867 
L 760.1904 209.097904 
L 761.5296 210.15293 
L 762.8688 210.58297 
L 764.208 210.719487 
L 765.5472 210.708086 
L 766.8864 211.483043 
L 767.556 211.654256 
L 770.2344 213.830373 
L 770.904 214.133701 
L 774.9216 217.87226 
L 776.2608 218.490768 
L 776.9304 218.677812 
L 777.6 219.219639 
L 777.6 219.219639 
" clip-path="url(#pa2e7f0ccb1)" style="fill: none; stroke: #000000; stroke-width: 1.5; stroke-linecap: square"/>
   </g>
   <g id="line2d_24">
    <path d="M 108 136.056601 
L 113.3568 137.90403 
L 116.0352 138.822945 
L 126.7488 143.10862 
L 130.7664 145.150455 
L 134.784 147.238579 
L 143.4888 151.376517 
L 148.176 153.695342 
L 150.8544 155.324869 
L 154.872 158.107808 
L 157.5504 160.165438 
L 159.5592 162.022403 
L 162.2376 164.906694 
L 164.916 168.157438 
L 168.264 172.65517 
L 170.9424 176.573988 
L 175.6296 183.680923 
L 177.6384 186.30966 
L 179.6472 188.553792 
L 181.656 190.391653 
L 182.3256 190.915238 
L 182.9952 160.357334 
L 183.6648 150.221928 
L 184.3344 145.349342 
L 185.004 142.420635 
L 185.6736 140.472481 
L 186.3432 139.085968 
L 187.0128 138.046433 
L 188.352 136.563018 
L 189.6912 135.496603 
L 191.7 134.242395 
L 194.3784 132.881116 
L 197.0568 131.765116 
L 200.4048 130.656137 
L 203.7528 129.794411 
L 208.44 128.860231 
L 216.4752 127.381603 
L 217.1448 127.175909 
L 217.8144 126.706186 
L 218.484 124.711501 
L 220.4928 111.091218 
L 221.1624 109.115158 
L 221.832 108.486965 
L 222.5016 108.771848 
L 223.1712 109.637091 
L 224.5104 112.311045 
L 225.8496 115.66251 
L 228.528 122.76961 
L 229.8672 125.480891 
L 231.2064 127.467517 
L 232.5456 128.990059 
L 233.8848 130.188982 
L 235.8936 131.53736 
L 237.9024 132.566503 
L 241.2504 134.157802 
L 244.5984 135.8519 
L 247.2768 136.852539 
L 249.9552 137.928566 
L 255.312 140.298425 
L 259.3296 142.296802 
L 266.0256 145.820281 
L 272.7216 149.311231 
L 274.7304 150.544024 
L 278.0784 153.036466 
L 282.096 156.271752 
L 284.1048 158.177792 
L 286.7832 161.109216 
L 288.792 163.621584 
L 290.8008 166.473967 
L 292.8096 169.725918 
L 294.8184 173.3924 
L 297.4968 178.778057 
L 303.5232 191.152793 
L 305.532 194.579552 
L 307.5408 197.456348 
L 309.5496 199.801071 
L 311.5584 201.661431 
L 313.5672 203.093886 
L 315.576 204.153586 
L 316.2456 204.432788 
L 316.9152 169.99303 
L 317.5848 156.0925 
L 318.2544 149.820622 
L 318.924 145.977807 
L 319.5936 143.40336 
L 320.2632 141.564535 
L 320.9328 140.18614 
L 322.272 138.236886 
L 323.6112 136.875437 
L 324.9504 135.816846 
L 326.9592 134.542189 
L 328.968 133.50737 
L 331.6464 132.396046 
L 334.3248 131.518281 
L 337.6728 130.660379 
L 341.0208 130.003704 
L 343.6992 129.75469 
L 348.3864 129.715909 
L 352.404 129.905139 
L 355.752 130.360642 
L 360.4392 131.001785 
L 369.8136 133.334041 
L 371.8224 133.904501 
L 375.1704 134.959221 
L 378.5184 135.932385 
L 385.2144 138.334547 
L 387.2232 138.971728 
L 389.232 139.862335 
L 402.624 146.628276 
L 407.3112 149.396345 
L 411.3288 151.829014 
L 415.3464 154.634163 
L 418.6944 157.19396 
L 420.7032 159.026437 
L 423.3816 161.862099 
L 425.3904 164.398726 
L 427.3992 167.414783 
L 429.408 170.86218 
L 432.0864 176.038728 
L 437.4432 186.834781 
L 439.452 190.355053 
L 441.4608 193.374069 
L 443.4696 195.869045 
L 445.4784 197.865015 
L 447.4872 199.409208 
L 449.496 200.55516 
L 450.1656 200.85771 
L 450.8352 167.369158 
L 451.5048 154.397935 
L 452.1744 148.465999 
L 452.844 144.843573 
L 453.5136 142.417944 
L 454.1832 140.685191 
L 454.8528 139.385763 
L 456.192 137.546695 
L 457.5312 136.260072 
L 458.8704 135.256276 
L 460.8792 134.038235 
L 463.5576 132.743905 
L 466.236 131.719104 
L 469.584 130.720062 
L 472.2624 130.129726 
L 476.28 129.654324 
L 481.6368 129.150806 
L 493.02 128.95954 
L 494.3592 129.136454 
L 495.6984 129.529837 
L 501.0552 131.369216 
L 503.7336 132.148688 
L 512.4384 134.243072 
L 514.4472 135.00729 
L 518.4648 136.860048 
L 521.8128 138.429844 
L 524.4912 139.691946 
L 529.848 142.337763 
L 531.8568 143.362521 
L 541.2312 149.2403 
L 544.5792 151.470969 
L 549.2664 154.94152 
L 551.9448 157.152147 
L 553.9536 159.119961 
L 555.9624 161.33254 
L 557.9712 163.811926 
L 559.98 166.629721 
L 561.9888 170.007452 
L 563.9976 173.924622 
L 567.3456 181.164165 
L 570.024 186.903447 
L 572.0328 190.784039 
L 574.0416 194.145142 
L 576.0504 196.949746 
L 578.0592 199.21996 
L 580.068 201.005483 
L 582.0768 202.364071 
L 584.0856 203.351812 
L 584.7552 169.197112 
L 585.4248 155.567199 
L 586.0944 149.390706 
L 586.764 145.608764 
L 587.4336 143.075659 
L 588.1032 141.267263 
L 588.7728 139.912313 
L 590.112 137.997892 
L 591.4512 136.701424 
L 592.7904 135.750717 
L 594.7992 134.629456 
L 597.4776 133.426697 
L 600.156 132.461433 
L 602.8344 131.696793 
L 605.5128 131.22785 
L 612.2088 130.375397 
L 616.2264 130.01606 
L 619.5744 130.015105 
L 621.5832 130.245181 
L 626.2704 131.27507 
L 630.9576 132.324206 
L 634.3056 133.23572 
L 639.6624 134.577667 
L 642.3408 135.484932 
L 646.3584 137.171858 
L 660.42 143.81023 
L 663.0984 145.122286 
L 667.7856 147.407479 
L 675.1512 150.886862 
L 678.4992 152.81635 
L 682.5168 155.539238 
L 685.8648 158.047986 
L 688.5432 160.290109 
L 691.2216 162.820924 
L 693.9 165.71579 
L 696.5784 169.031818 
L 699.2568 172.758917 
L 707.292 184.404478 
L 709.3008 186.768042 
L 711.3096 188.74473 
L 713.3184 190.32151 
L 715.3272 191.51277 
L 717.336 192.348045 
L 718.0056 192.553519 
L 718.6752 161.297658 
L 719.3448 150.581585 
L 720.0144 145.434147 
L 720.684 142.300934 
L 721.3536 140.191985 
L 722.0232 138.675401 
L 722.6928 137.530378 
L 724.032 135.897068 
L 725.3712 134.744661 
L 727.38 133.439288 
L 730.0584 132.080106 
L 732.7368 130.985657 
L 736.0848 129.895523 
L 737.424 129.585148 
L 739.4328 129.385111 
L 746.7984 128.833203 
L 749.4768 128.699181 
L 752.8248 128.804379 
L 759.5208 129.378424 
L 768.8952 131.171006 
L 772.2432 132.110601 
L 776.2608 133.520514 
L 777.6 133.964811 
L 777.6 133.964811 
" clip-path="url(#pa2e7f0ccb1)" style="fill: none; stroke: #4169e1; stroke-width: 1.5; stroke-linecap: square"/>
   </g>
   <g id="patch_3">
    <path d="M 108 256.32 
L 108 34.56 
" style="fill: none; stroke: #000000; stroke-width: 0.8; stroke-linejoin: miter; stroke-linecap: square"/>
   </g>
   <g id="patch_4">
    <path d="M 777.6 256.32 
L 777.6 34.56 
" style="fill: none; stroke: #000000; stroke-width: 0.8; stroke-linejoin: miter; stroke-linecap: square"/>
   </g>
   <g id="patch_5">
    <path d="M 108 256.32 
L 777.6 256.32 
" style="fill: none; stroke: #000000; stroke-width: 0.8; stroke-linejoin: miter; stroke-linecap: square"/>
   </g>
   <g id="patch_6">
    <path d="M 108 34.56 
L 777.6 34.56 
" style="fill: none; stroke: #000000; stroke-width: 0.8; stroke-linejoin: miter; stroke-linecap: square"/>
   </g>
   <g id="legend_1">
    <g id="patch_7">
     <path d="M 695.098438 71.91625 
L 770.6 71.91625 
Q 772.6 71.91625 772.6 69.91625 
L 772.6 41.56 
Q 772.6 39.56 770.6 39.56 
L 695.098438 39.56 
Q 693.098438 39.56 693.098438 41.56 
L 693.098438 69.91625 
Q 693.098438 71.91625 695.098438 71.91625 
z
" style="fill: #ffffff; opacity: 0.8; stroke: #cccccc; stroke-linejoin: miter"/>
    </g>
    <g id="line2d_25">
     <path d="M 697.098438 47.658437 
L 707.098438 47.658437 
L 717.098438 47.658437 
" style="fill: none; stroke: #000000; stroke-width: 1.5; stroke-linecap: square"/>
    </g>
    <g id="text_14">
     <!-- Soma -->
     <g transform="translate(725.098438 51.158437) scale(0.1 -0.1)">
      <defs>
       <path id="DejaVuSans-53" d="M 3425 4513 
L 3425 3897 
Q 3066 4069 2747 4153 
Q 2428 4238 2131 4238 
Q 1616 4238 1336 4038 
Q 1056 3838 1056 3469 
Q 1056 3159 1242 3001 
Q 1428 2844 1947 2747 
L 2328 2669 
Q 3034 2534 3370 2195 
Q 3706 1856 3706 1288 
Q 3706 609 3251 259 
Q 2797 -91 1919 -91 
Q 1588 -91 1214 -16 
Q 841 59 441 206 
L 441 856 
Q 825 641 1194 531 
Q 1563 422 1919 422 
Q 2459 422 2753 634 
Q 3047 847 3047 1241 
Q 3047 1584 2836 1778 
Q 2625 1972 2144 2069 
L 1759 2144 
Q 1053 2284 737 2584 
Q 422 2884 422 3419 
Q 422 4038 858 4394 
Q 1294 4750 2059 4750 
Q 2388 4750 2728 4690 
Q 3069 4631 3425 4513 
z
" transform="scale(0.015625)"/>
       <path id="DejaVuSans-6f" d="M 1959 3097 
Q 1497 3097 1228 2736 
Q 959 2375 959 1747 
Q 959 1119 1226 758 
Q 1494 397 1959 397 
Q 2419 397 2687 759 
Q 2956 1122 2956 1747 
Q 2956 2369 2687 2733 
Q 2419 3097 1959 3097 
z
M 1959 3584 
Q 2709 3584 3137 3096 
Q 3566 2609 3566 1747 
Q 3566 888 3137 398 
Q 2709 -91 1959 -91 
Q 1206 -91 779 398 
Q 353 888 353 1747 
Q 353 2609 779 3096 
Q 1206 3584 1959 3584 
z
" transform="scale(0.015625)"/>
       <path id="DejaVuSans-61" d="M 2194 1759 
Q 1497 1759 1228 1600 
Q 959 1441 959 1056 
Q 959 750 1161 570 
Q 1363 391 1709 391 
Q 2188 391 2477 730 
Q 2766 1069 2766 1631 
L 2766 1759 
L 2194 1759 
z
M 3341 1997 
L 3341 0 
L 2766 0 
L 2766 531 
Q 2569 213 2275 61 
Q 1981 -91 1556 -91 
Q 1019 -91 701 211 
Q 384 513 384 1019 
Q 384 1609 779 1909 
Q 1175 2209 1959 2209 
L 2766 2209 
L 2766 2266 
Q 2766 2663 2505 2880 
Q 2244 3097 1772 3097 
Q 1472 3097 1187 3025 
Q 903 2953 641 2809 
L 641 3341 
Q 956 3463 1253 3523 
Q 1550 3584 1831 3584 
Q 2591 3584 2966 3190 
Q 3341 2797 3341 1997 
z
" transform="scale(0.015625)"/>
      </defs>
      <use xlink:href="#DejaVuSans-53"/>
      <use xlink:href="#DejaVuSans-6f" x="63.476562"/>
      <use xlink:href="#DejaVuSans-6d" x="124.658203"/>
      <use xlink:href="#DejaVuSans-61" x="222.070312"/>
     </g>
    </g>
    <g id="line2d_26">
     <path d="M 697.098438 62.336562 
L 707.098438 62.336562 
L 717.098438 62.336562 
" style="fill: none; stroke: #4169e1; stroke-width: 1.5; stroke-linecap: square"/>
    </g>
    <g id="text_15">
     <!-- Dendrite -->
     <g transform="translate(725.098438 65.836562) scale(0.1 -0.1)">
      <defs>
       <path id="DejaVuSans-44" d="M 1259 4147 
L 1259 519 
L 2022 519 
Q 2988 519 3436 956 
Q 3884 1394 3884 2338 
Q 3884 3275 3436 3711 
Q 2988 4147 2022 4147 
L 1259 4147 
z
M 628 4666 
L 1925 4666 
Q 3281 4666 3915 4102 
Q 4550 3538 4550 2338 
Q 4550 1131 3912 565 
Q 3275 0 1925 0 
L 628 0 
L 628 4666 
z
" transform="scale(0.015625)"/>
       <path id="DejaVuSans-6e" d="M 3513 2113 
L 3513 0 
L 2938 0 
L 2938 2094 
Q 2938 2591 2744 2837 
Q 2550 3084 2163 3084 
Q 1697 3084 1428 2787 
Q 1159 2491 1159 1978 
L 1159 0 
L 581 0 
L 581 3500 
L 1159 3500 
L 1159 2956 
Q 1366 3272 1645 3428 
Q 1925 3584 2291 3584 
Q 2894 3584 3203 3211 
Q 3513 2838 3513 2113 
z
" transform="scale(0.015625)"/>
       <path id="DejaVuSans-64" d="M 2906 2969 
L 2906 4863 
L 3481 4863 
L 3481 0 
L 2906 0 
L 2906 525 
Q 2725 213 2448 61 
Q 2172 -91 1784 -91 
Q 1150 -91 751 415 
Q 353 922 353 1747 
Q 353 2572 751 3078 
Q 1150 3584 1784 3584 
Q 2172 3584 2448 3432 
Q 2725 3281 2906 2969 
z
M 947 1747 
Q 947 1113 1208 752 
Q 1469 391 1925 391 
Q 2381 391 2643 752 
Q 2906 1113 2906 1747 
Q 2906 2381 2643 2742 
Q 2381 3103 1925 3103 
Q 1469 3103 1208 2742 
Q 947 2381 947 1747 
z
" transform="scale(0.015625)"/>
       <path id="DejaVuSans-72" d="M 2631 2963 
Q 2534 3019 2420 3045 
Q 2306 3072 2169 3072 
Q 1681 3072 1420 2755 
Q 1159 2438 1159 1844 
L 1159 0 
L 581 0 
L 581 3500 
L 1159 3500 
L 1159 2956 
Q 1341 3275 1631 3429 
Q 1922 3584 2338 3584 
Q 2397 3584 2469 3576 
Q 2541 3569 2628 3553 
L 2631 2963 
z
" transform="scale(0.015625)"/>
       <path id="DejaVuSans-74" d="M 1172 4494 
L 1172 3500 
L 2356 3500 
L 2356 3053 
L 1172 3053 
L 1172 1153 
Q 1172 725 1289 603 
Q 1406 481 1766 481 
L 2356 481 
L 2356 0 
L 1766 0 
Q 1100 0 847 248 
Q 594 497 594 1153 
L 594 3053 
L 172 3053 
L 172 3500 
L 594 3500 
L 594 4494 
L 1172 4494 
z
" transform="scale(0.015625)"/>
      </defs>
      <use xlink:href="#DejaVuSans-44"/>
      <use xlink:href="#DejaVuSans-65" x="77.001953"/>
      <use xlink:href="#DejaVuSans-6e" x="138.525391"/>
      <use xlink:href="#DejaVuSans-64" x="201.904297"/>
      <use xlink:href="#DejaVuSans-72" x="265.380859"/>
      <use xlink:href="#DejaVuSans-69" x="306.494141"/>
      <use xlink:href="#DejaVuSans-74" x="334.277344"/>
      <use xlink:href="#DejaVuSans-65" x="373.486328"/>
     </g>
    </g>
   </g>
  </g>
 </g>
 <defs>
  <clipPath id="pa2e7f0ccb1">
   <rect x="108" y="34.56" width="669.6" height="221.76"/>
  </clipPath>
 </defs>
</svg>
