<?xml version="1.0" encoding="utf-8" standalone="no"?>
<!DOCTYPE svg PUBLIC "-//W3C//DTD SVG 1.1//EN"
  "http://www.w3.org/Graphics/SVG/1.1/DTD/svg11.dtd">
<svg xmlns:xlink="http://www.w3.org/1999/xlink" width="864pt" height="288pt" viewBox="0 0 864 288" xmlns="http://www.w3.org/2000/svg" version="1.1">
 <metadata>
  <rdf:RDF xmlns:dc="http://purl.org/dc/elements/1.1/" xmlns:cc="http://creativecommons.org/ns#" xmlns:rdf="http://www.w3.org/1999/02/22-rdf-syntax-ns#">
   <cc:Work>
    <dc:type rdf:resource="http://purl.org/dc/dcmitype/StillImage"/>
    <dc:date>2024-04-23T19:16:38.703093</dc:date>
    <dc:format>image/svg+xml</dc:format>
    <dc:creator>
     <cc:Agent>
      <dc:title>Matplotlib v3.8.2, https://matplotlib.org/</dc:title>
     </cc:Agent>
    </dc:creator>
   </cc:Work>
  </rdf:RDF>
 </metadata>
 <defs>
  <style type="text/css">*{stroke-linejoin: round; stroke-linecap: butt}</style>
 </defs>
 <g id="figure_1">
  <g id="patch_1">
   <path d="M 0 288 
L 864 288 
L 864 0 
L 0 0 
z
" style="fill: #ffffff"/>
  </g>
  <g id="axes_1">
   <g id="patch_2">
    <path d="M 108 256.32 
L 777.6 256.32 
L 777.6 34.56 
L 108 34.56 
z
" style="fill: #ffffff"/>
   </g>
   <g id="matplotlib.axis_1">
    <g id="xtick_1">
     <g id="line2d_1">
      <path d="M 108 256.32 
L 108 34.56 
" clip-path="url(#pd1e4778285)" style="fill: none; stroke: #b0b0b0; stroke-width: 0.8; stroke-linecap: square"/>
     </g>
     <g id="line2d_2">
      <defs>
       <path id="m351611fdd7" d="M 0 0 
L 0 3.5 
" style="stroke: #000000; stroke-width: 0.8"/>
      </defs>
      <g>
       <use xlink:href="#m351611fdd7" x="108" y="256.32" style="stroke: #000000; stroke-width: 0.8"/>
      </g>
     </g>
     <g id="text_1">
      <!-- 100 -->
      <g transform="translate(94.63875 273.957812) scale(0.14 -0.14)">
       <defs>
        <path id="DejaVuSans-31" d="M 794 531 
L 1825 531 
L 1825 4091 
L 703 3866 
L 703 4441 
L 1819 4666 
L 2450 4666 
L 2450 531 
L 3481 531 
L 3481 0 
L 794 0 
L 794 531 
z
" transform="scale(0.015625)"/>
        <path id="DejaVuSans-30" d="M 2034 4250 
Q 1547 4250 1301 3770 
Q 1056 3291 1056 2328 
Q 1056 1369 1301 889 
Q 1547 409 2034 409 
Q 2525 409 2770 889 
Q 3016 1369 3016 2328 
Q 3016 3291 2770 3770 
Q 2525 4250 2034 4250 
z
M 2034 4750 
Q 2819 4750 3233 4129 
Q 3647 3509 3647 2328 
Q 3647 1150 3233 529 
Q 2819 -91 2034 -91 
Q 1250 -91 836 529 
Q 422 1150 422 2328 
Q 422 3509 836 4129 
Q 1250 4750 2034 4750 
z
" transform="scale(0.015625)"/>
       </defs>
       <use xlink:href="#DejaVuSans-31"/>
       <use xlink:href="#DejaVuSans-30" x="63.623047"/>
       <use xlink:href="#DejaVuSans-30" x="127.246094"/>
      </g>
     </g>
    </g>
    <g id="xtick_2">
     <g id="line2d_3">
      <path d="M 241.92 256.32 
L 241.92 34.56 
" clip-path="url(#pd1e4778285)" style="fill: none; stroke: #b0b0b0; stroke-width: 0.8; stroke-linecap: square"/>
     </g>
     <g id="line2d_4">
      <g>
       <use xlink:href="#m351611fdd7" x="241.92" y="256.32" style="stroke: #000000; stroke-width: 0.8"/>
      </g>
     </g>
     <g id="text_2">
      <!-- 120 -->
      <g transform="translate(228.55875 273.957812) scale(0.14 -0.14)">
       <defs>
        <path id="DejaVuSans-32" d="M 1228 531 
L 3431 531 
L 3431 0 
L 469 0 
L 469 531 
Q 828 903 1448 1529 
Q 2069 2156 2228 2338 
Q 2531 2678 2651 2914 
Q 2772 3150 2772 3378 
Q 2772 3750 2511 3984 
Q 2250 4219 1831 4219 
Q 1534 4219 1204 4116 
Q 875 4013 500 3803 
L 500 4441 
Q 881 4594 1212 4672 
Q 1544 4750 1819 4750 
Q 2544 4750 2975 4387 
Q 3406 4025 3406 3419 
Q 3406 3131 3298 2873 
Q 3191 2616 2906 2266 
Q 2828 2175 2409 1742 
Q 1991 1309 1228 531 
z
" transform="scale(0.015625)"/>
       </defs>
       <use xlink:href="#DejaVuSans-31"/>
       <use xlink:href="#DejaVuSans-32" x="63.623047"/>
       <use xlink:href="#DejaVuSans-30" x="127.246094"/>
      </g>
     </g>
    </g>
    <g id="xtick_3">
     <g id="line2d_5">
      <path d="M 375.84 256.32 
L 375.84 34.56 
" clip-path="url(#pd1e4778285)" style="fill: none; stroke: #b0b0b0; stroke-width: 0.8; stroke-linecap: square"/>
     </g>
     <g id="line2d_6">
      <g>
       <use xlink:href="#m351611fdd7" x="375.84" y="256.32" style="stroke: #000000; stroke-width: 0.8"/>
      </g>
     </g>
     <g id="text_3">
      <!-- 140 -->
      <g transform="translate(362.47875 273.957812) scale(0.14 -0.14)">
       <defs>
        <path id="DejaVuSans-34" d="M 2419 4116 
L 825 1625 
L 2419 1625 
L 2419 4116 
z
M 2253 4666 
L 3047 4666 
L 3047 1625 
L 3713 1625 
L 3713 1100 
L 3047 1100 
L 3047 0 
L 2419 0 
L 2419 1100 
L 313 1100 
L 313 1709 
L 2253 4666 
z
" transform="scale(0.015625)"/>
       </defs>
       <use xlink:href="#DejaVuSans-31"/>
       <use xlink:href="#DejaVuSans-34" x="63.623047"/>
       <use xlink:href="#DejaVuSans-30" x="127.246094"/>
      </g>
     </g>
    </g>
    <g id="xtick_4">
     <g id="line2d_7">
      <path d="M 509.76 256.32 
L 509.76 34.56 
" clip-path="url(#pd1e4778285)" style="fill: none; stroke: #b0b0b0; stroke-width: 0.8; stroke-linecap: square"/>
     </g>
     <g id="line2d_8">
      <g>
       <use xlink:href="#m351611fdd7" x="509.76" y="256.32" style="stroke: #000000; stroke-width: 0.8"/>
      </g>
     </g>
     <g id="text_4">
      <!-- 160 -->
      <g transform="translate(496.39875 273.957812) scale(0.14 -0.14)">
       <defs>
        <path id="DejaVuSans-36" d="M 2113 2584 
Q 1688 2584 1439 2293 
Q 1191 2003 1191 1497 
Q 1191 994 1439 701 
Q 1688 409 2113 409 
Q 2538 409 2786 701 
Q 3034 994 3034 1497 
Q 3034 2003 2786 2293 
Q 2538 2584 2113 2584 
z
M 3366 4563 
L 3366 3988 
Q 3128 4100 2886 4159 
Q 2644 4219 2406 4219 
Q 1781 4219 1451 3797 
Q 1122 3375 1075 2522 
Q 1259 2794 1537 2939 
Q 1816 3084 2150 3084 
Q 2853 3084 3261 2657 
Q 3669 2231 3669 1497 
Q 3669 778 3244 343 
Q 2819 -91 2113 -91 
Q 1303 -91 875 529 
Q 447 1150 447 2328 
Q 447 3434 972 4092 
Q 1497 4750 2381 4750 
Q 2619 4750 2861 4703 
Q 3103 4656 3366 4563 
z
" transform="scale(0.015625)"/>
       </defs>
       <use xlink:href="#DejaVuSans-31"/>
       <use xlink:href="#DejaVuSans-36" x="63.623047"/>
       <use xlink:href="#DejaVuSans-30" x="127.246094"/>
      </g>
     </g>
    </g>
    <g id="xtick_5">
     <g id="line2d_9">
      <path d="M 643.68 256.32 
L 643.68 34.56 
" clip-path="url(#pd1e4778285)" style="fill: none; stroke: #b0b0b0; stroke-width: 0.8; stroke-linecap: square"/>
     </g>
     <g id="line2d_10">
      <g>
       <use xlink:href="#m351611fdd7" x="643.68" y="256.32" style="stroke: #000000; stroke-width: 0.8"/>
      </g>
     </g>
     <g id="text_5">
      <!-- 180 -->
      <g transform="translate(630.31875 273.957812) scale(0.14 -0.14)">
       <defs>
        <path id="DejaVuSans-38" d="M 2034 2216 
Q 1584 2216 1326 1975 
Q 1069 1734 1069 1313 
Q 1069 891 1326 650 
Q 1584 409 2034 409 
Q 2484 409 2743 651 
Q 3003 894 3003 1313 
Q 3003 1734 2745 1975 
Q 2488 2216 2034 2216 
z
M 1403 2484 
Q 997 2584 770 2862 
Q 544 3141 544 3541 
Q 544 4100 942 4425 
Q 1341 4750 2034 4750 
Q 2731 4750 3128 4425 
Q 3525 4100 3525 3541 
Q 3525 3141 3298 2862 
Q 3072 2584 2669 2484 
Q 3125 2378 3379 2068 
Q 3634 1759 3634 1313 
Q 3634 634 3220 271 
Q 2806 -91 2034 -91 
Q 1263 -91 848 271 
Q 434 634 434 1313 
Q 434 1759 690 2068 
Q 947 2378 1403 2484 
z
M 1172 3481 
Q 1172 3119 1398 2916 
Q 1625 2713 2034 2713 
Q 2441 2713 2670 2916 
Q 2900 3119 2900 3481 
Q 2900 3844 2670 4047 
Q 2441 4250 2034 4250 
Q 1625 4250 1398 4047 
Q 1172 3844 1172 3481 
z
" transform="scale(0.015625)"/>
       </defs>
       <use xlink:href="#DejaVuSans-31"/>
       <use xlink:href="#DejaVuSans-38" x="63.623047"/>
       <use xlink:href="#DejaVuSans-30" x="127.246094"/>
      </g>
     </g>
    </g>
    <g id="xtick_6">
     <g id="line2d_11">
      <path d="M 777.6 256.32 
L 777.6 34.56 
" clip-path="url(#pd1e4778285)" style="fill: none; stroke: #b0b0b0; stroke-width: 0.8; stroke-linecap: square"/>
     </g>
     <g id="line2d_12">
      <g>
       <use xlink:href="#m351611fdd7" x="777.6" y="256.32" style="stroke: #000000; stroke-width: 0.8"/>
      </g>
     </g>
     <g id="text_6">
      <!-- 200 -->
      <g transform="translate(764.23875 273.957812) scale(0.14 -0.14)">
       <use xlink:href="#DejaVuSans-32"/>
       <use xlink:href="#DejaVuSans-30" x="63.623047"/>
       <use xlink:href="#DejaVuSans-30" x="127.246094"/>
      </g>
     </g>
    </g>
    <g id="text_7">
     <!-- Time (ms) -->
     <g transform="translate(407.521094 291.507187) scale(0.14 -0.14)">
      <defs>
       <path id="DejaVuSans-54" d="M -19 4666 
L 3928 4666 
L 3928 4134 
L 2272 4134 
L 2272 0 
L 1638 0 
L 1638 4134 
L -19 4134 
L -19 4666 
z
" transform="scale(0.015625)"/>
       <path id="DejaVuSans-69" d="M 603 3500 
L 1178 3500 
L 1178 0 
L 603 0 
L 603 3500 
z
M 603 4863 
L 1178 4863 
L 1178 4134 
L 603 4134 
L 603 4863 
z
" transform="scale(0.015625)"/>
       <path id="DejaVuSans-6d" d="M 3328 2828 
Q 3544 3216 3844 3400 
Q 4144 3584 4550 3584 
Q 5097 3584 5394 3201 
Q 5691 2819 5691 2113 
L 5691 0 
L 5113 0 
L 5113 2094 
Q 5113 2597 4934 2840 
Q 4756 3084 4391 3084 
Q 3944 3084 3684 2787 
Q 3425 2491 3425 1978 
L 3425 0 
L 2847 0 
L 2847 2094 
Q 2847 2600 2669 2842 
Q 2491 3084 2119 3084 
Q 1678 3084 1418 2786 
Q 1159 2488 1159 1978 
L 1159 0 
L 581 0 
L 581 3500 
L 1159 3500 
L 1159 2956 
Q 1356 3278 1631 3431 
Q 1906 3584 2284 3584 
Q 2666 3584 2933 3390 
Q 3200 3197 3328 2828 
z
" transform="scale(0.015625)"/>
       <path id="DejaVuSans-65" d="M 3597 1894 
L 3597 1613 
L 953 1613 
Q 991 1019 1311 708 
Q 1631 397 2203 397 
Q 2534 397 2845 478 
Q 3156 559 3463 722 
L 3463 178 
Q 3153 47 2828 -22 
Q 2503 -91 2169 -91 
Q 1331 -91 842 396 
Q 353 884 353 1716 
Q 353 2575 817 3079 
Q 1281 3584 2069 3584 
Q 2775 3584 3186 3129 
Q 3597 2675 3597 1894 
z
M 3022 2063 
Q 3016 2534 2758 2815 
Q 2500 3097 2075 3097 
Q 1594 3097 1305 2825 
Q 1016 2553 972 2059 
L 3022 2063 
z
" transform="scale(0.015625)"/>
       <path id="DejaVuSans-20" transform="scale(0.015625)"/>
       <path id="DejaVuSans-28" d="M 1984 4856 
Q 1566 4138 1362 3434 
Q 1159 2731 1159 2009 
Q 1159 1288 1364 580 
Q 1569 -128 1984 -844 
L 1484 -844 
Q 1016 -109 783 600 
Q 550 1309 550 2009 
Q 550 2706 781 3412 
Q 1013 4119 1484 4856 
L 1984 4856 
z
" transform="scale(0.015625)"/>
       <path id="DejaVuSans-73" d="M 2834 3397 
L 2834 2853 
Q 2591 2978 2328 3040 
Q 2066 3103 1784 3103 
Q 1356 3103 1142 2972 
Q 928 2841 928 2578 
Q 928 2378 1081 2264 
Q 1234 2150 1697 2047 
L 1894 2003 
Q 2506 1872 2764 1633 
Q 3022 1394 3022 966 
Q 3022 478 2636 193 
Q 2250 -91 1575 -91 
Q 1294 -91 989 -36 
Q 684 19 347 128 
L 347 722 
Q 666 556 975 473 
Q 1284 391 1588 391 
Q 1994 391 2212 530 
Q 2431 669 2431 922 
Q 2431 1156 2273 1281 
Q 2116 1406 1581 1522 
L 1381 1569 
Q 847 1681 609 1914 
Q 372 2147 372 2553 
Q 372 3047 722 3315 
Q 1072 3584 1716 3584 
Q 2034 3584 2315 3537 
Q 2597 3491 2834 3397 
z
" transform="scale(0.015625)"/>
       <path id="DejaVuSans-29" d="M 513 4856 
L 1013 4856 
Q 1481 4119 1714 3412 
Q 1947 2706 1947 2009 
Q 1947 1309 1714 600 
Q 1481 -109 1013 -844 
L 513 -844 
Q 928 -128 1133 580 
Q 1338 1288 1338 2009 
Q 1338 2731 1133 3434 
Q 928 4138 513 4856 
z
" transform="scale(0.015625)"/>
      </defs>
      <use xlink:href="#DejaVuSans-54"/>
      <use xlink:href="#DejaVuSans-69" x="57.958984"/>
      <use xlink:href="#DejaVuSans-6d" x="85.742188"/>
      <use xlink:href="#DejaVuSans-65" x="183.154297"/>
      <use xlink:href="#DejaVuSans-20" x="244.677734"/>
      <use xlink:href="#DejaVuSans-28" x="276.464844"/>
      <use xlink:href="#DejaVuSans-6d" x="315.478516"/>
      <use xlink:href="#DejaVuSans-73" x="412.890625"/>
      <use xlink:href="#DejaVuSans-29" x="464.990234"/>
     </g>
    </g>
   </g>
   <g id="matplotlib.axis_2">
    <g id="ytick_1">
     <g id="line2d_13">
      <path d="M 108 246.24 
L 777.6 246.24 
" clip-path="url(#pd1e4778285)" style="fill: none; stroke: #b0b0b0; stroke-width: 0.8; stroke-linecap: square"/>
     </g>
     <g id="line2d_14">
      <defs>
       <path id="ma136925ba5" d="M 0 0 
L -3.5 0 
" style="stroke: #000000; stroke-width: 0.8"/>
      </defs>
      <g>
       <use xlink:href="#ma136925ba5" x="108" y="246.24" style="stroke: #000000; stroke-width: 0.8"/>
      </g>
     </g>
     <g id="text_8">
      <!-- 0.00 -->
      <g transform="translate(69.828125 251.558906) scale(0.14 -0.14)">
       <defs>
        <path id="DejaVuSans-2e" d="M 684 794 
L 1344 794 
L 1344 0 
L 684 0 
L 684 794 
z
" transform="scale(0.015625)"/>
       </defs>
       <use xlink:href="#DejaVuSans-30"/>
       <use xlink:href="#DejaVuSans-2e" x="63.623047"/>
       <use xlink:href="#DejaVuSans-30" x="95.410156"/>
       <use xlink:href="#DejaVuSans-30" x="159.033203"/>
      </g>
     </g>
    </g>
    <g id="ytick_2">
     <g id="line2d_15">
      <path d="M 108 208.198013 
L 777.6 208.198013 
" clip-path="url(#pd1e4778285)" style="fill: none; stroke: #b0b0b0; stroke-width: 0.8; stroke-linecap: square"/>
     </g>
     <g id="line2d_16">
      <g>
       <use xlink:href="#ma136925ba5" x="108" y="208.198013" style="stroke: #000000; stroke-width: 0.8"/>
      </g>
     </g>
     <g id="text_9">
      <!-- 0.05 -->
      <g transform="translate(69.828125 213.51692) scale(0.14 -0.14)">
       <defs>
        <path id="DejaVuSans-35" d="M 691 4666 
L 3169 4666 
L 3169 4134 
L 1269 4134 
L 1269 2991 
Q 1406 3038 1543 3061 
Q 1681 3084 1819 3084 
Q 2600 3084 3056 2656 
Q 3513 2228 3513 1497 
Q 3513 744 3044 326 
Q 2575 -91 1722 -91 
Q 1428 -91 1123 -41 
Q 819 9 494 109 
L 494 744 
Q 775 591 1075 516 
Q 1375 441 1709 441 
Q 2250 441 2565 725 
Q 2881 1009 2881 1497 
Q 2881 1984 2565 2268 
Q 2250 2553 1709 2553 
Q 1456 2553 1204 2497 
Q 953 2441 691 2322 
L 691 4666 
z
" transform="scale(0.015625)"/>
       </defs>
       <use xlink:href="#DejaVuSans-30"/>
       <use xlink:href="#DejaVuSans-2e" x="63.623047"/>
       <use xlink:href="#DejaVuSans-30" x="95.410156"/>
       <use xlink:href="#DejaVuSans-35" x="159.033203"/>
      </g>
     </g>
    </g>
    <g id="ytick_3">
     <g id="line2d_17">
      <path d="M 108 170.156027 
L 777.6 170.156027 
" clip-path="url(#pd1e4778285)" style="fill: none; stroke: #b0b0b0; stroke-width: 0.8; stroke-linecap: square"/>
     </g>
     <g id="line2d_18">
      <g>
       <use xlink:href="#ma136925ba5" x="108" y="170.156027" style="stroke: #000000; stroke-width: 0.8"/>
      </g>
     </g>
     <g id="text_10">
      <!-- 0.10 -->
      <g transform="translate(69.828125 175.474933) scale(0.14 -0.14)">
       <use xlink:href="#DejaVuSans-30"/>
       <use xlink:href="#DejaVuSans-2e" x="63.623047"/>
       <use xlink:href="#DejaVuSans-31" x="95.410156"/>
       <use xlink:href="#DejaVuSans-30" x="159.033203"/>
      </g>
     </g>
    </g>
    <g id="ytick_4">
     <g id="line2d_19">
      <path d="M 108 132.11404 
L 777.6 132.11404 
" clip-path="url(#pd1e4778285)" style="fill: none; stroke: #b0b0b0; stroke-width: 0.8; stroke-linecap: square"/>
     </g>
     <g id="line2d_20">
      <g>
       <use xlink:href="#ma136925ba5" x="108" y="132.11404" style="stroke: #000000; stroke-width: 0.8"/>
      </g>
     </g>
     <g id="text_11">
      <!-- 0.15 -->
      <g transform="translate(69.828125 137.432946) scale(0.14 -0.14)">
       <use xlink:href="#DejaVuSans-30"/>
       <use xlink:href="#DejaVuSans-2e" x="63.623047"/>
       <use xlink:href="#DejaVuSans-31" x="95.410156"/>
       <use xlink:href="#DejaVuSans-35" x="159.033203"/>
      </g>
     </g>
    </g>
    <g id="ytick_5">
     <g id="line2d_21">
      <path d="M 108 94.072053 
L 777.6 94.072053 
" clip-path="url(#pd1e4778285)" style="fill: none; stroke: #b0b0b0; stroke-width: 0.8; stroke-linecap: square"/>
     </g>
     <g id="line2d_22">
      <g>
       <use xlink:href="#ma136925ba5" x="108" y="94.072053" style="stroke: #000000; stroke-width: 0.8"/>
      </g>
     </g>
     <g id="text_12">
      <!-- 0.20 -->
      <g transform="translate(69.828125 99.39096) scale(0.14 -0.14)">
       <use xlink:href="#DejaVuSans-30"/>
       <use xlink:href="#DejaVuSans-2e" x="63.623047"/>
       <use xlink:href="#DejaVuSans-32" x="95.410156"/>
       <use xlink:href="#DejaVuSans-30" x="159.033203"/>
      </g>
     </g>
    </g>
    <g id="ytick_6">
     <g id="line2d_23">
      <path d="M 108 56.030067 
L 777.6 56.030067 
" clip-path="url(#pd1e4778285)" style="fill: none; stroke: #b0b0b0; stroke-width: 0.8; stroke-linecap: square"/>
     </g>
     <g id="line2d_24">
      <g>
       <use xlink:href="#ma136925ba5" x="108" y="56.030067" style="stroke: #000000; stroke-width: 0.8"/>
      </g>
     </g>
     <g id="text_13">
      <!-- 0.25 -->
      <g transform="translate(69.828125 61.348973) scale(0.14 -0.14)">
       <use xlink:href="#DejaVuSans-30"/>
       <use xlink:href="#DejaVuSans-2e" x="63.623047"/>
       <use xlink:href="#DejaVuSans-32" x="95.410156"/>
       <use xlink:href="#DejaVuSans-35" x="159.033203"/>
      </g>
     </g>
    </g>
    <g id="text_14">
     <!-- $g_{Inhib}$ (µS) -->
     <g transform="translate(62.888125 178.83) rotate(-90) scale(0.14 -0.14)">
      <defs>
       <path id="DejaVuSans-Oblique-67" d="M 3816 3500 
L 3219 434 
Q 3047 -456 2561 -893 
Q 2075 -1331 1253 -1331 
Q 950 -1331 690 -1286 
Q 431 -1241 206 -1147 
L 313 -588 
Q 525 -725 762 -790 
Q 1000 -856 1269 -856 
Q 1816 -856 2167 -557 
Q 2519 -259 2631 300 
L 2681 563 
Q 2441 288 2122 144 
Q 1803 0 1434 0 
Q 903 0 598 351 
Q 294 703 294 1319 
Q 294 1803 478 2267 
Q 663 2731 997 3091 
Q 1219 3328 1514 3456 
Q 1809 3584 2131 3584 
Q 2484 3584 2746 3420 
Q 3009 3256 3138 2956 
L 3238 3500 
L 3816 3500 
z
M 2950 2216 
Q 2950 2641 2750 2872 
Q 2550 3103 2181 3103 
Q 1953 3103 1747 3012 
Q 1541 2922 1394 2759 
Q 1156 2491 1023 2127 
Q 891 1763 891 1375 
Q 891 944 1092 712 
Q 1294 481 1672 481 
Q 2219 481 2584 976 
Q 2950 1472 2950 2216 
z
" transform="scale(0.015625)"/>
       <path id="DejaVuSans-Oblique-49" d="M 1081 4666 
L 1716 4666 
L 806 0 
L 172 0 
L 1081 4666 
z
" transform="scale(0.015625)"/>
       <path id="DejaVuSans-Oblique-6e" d="M 3566 2113 
L 3156 0 
L 2578 0 
L 2988 2091 
Q 3016 2238 3031 2350 
Q 3047 2463 3047 2528 
Q 3047 2791 2881 2937 
Q 2716 3084 2419 3084 
Q 1956 3084 1622 2776 
Q 1288 2469 1184 1941 
L 800 0 
L 225 0 
L 903 3500 
L 1478 3500 
L 1363 2950 
Q 1603 3253 1940 3418 
Q 2278 3584 2650 3584 
Q 3113 3584 3367 3334 
Q 3622 3084 3622 2631 
Q 3622 2519 3608 2391 
Q 3594 2263 3566 2113 
z
" transform="scale(0.015625)"/>
       <path id="DejaVuSans-Oblique-68" d="M 3566 2113 
L 3156 0 
L 2578 0 
L 2988 2091 
Q 3016 2238 3031 2350 
Q 3047 2463 3047 2528 
Q 3047 2791 2881 2937 
Q 2716 3084 2419 3084 
Q 1956 3084 1617 2771 
Q 1278 2459 1178 1941 
L 800 0 
L 225 0 
L 1172 4863 
L 1747 4863 
L 1375 2950 
Q 1594 3244 1934 3414 
Q 2275 3584 2650 3584 
Q 3113 3584 3367 3334 
Q 3622 3084 3622 2631 
Q 3622 2519 3608 2391 
Q 3594 2263 3566 2113 
z
" transform="scale(0.015625)"/>
       <path id="DejaVuSans-Oblique-69" d="M 1172 4863 
L 1747 4863 
L 1606 4134 
L 1031 4134 
L 1172 4863 
z
M 909 3500 
L 1484 3500 
L 800 0 
L 225 0 
L 909 3500 
z
" transform="scale(0.015625)"/>
       <path id="DejaVuSans-Oblique-62" d="M 3169 2138 
Q 3169 2591 2961 2847 
Q 2753 3103 2388 3103 
Q 2122 3103 1889 2973 
Q 1656 2844 1484 2597 
Q 1303 2338 1198 1995 
Q 1094 1653 1094 1313 
Q 1094 881 1298 636 
Q 1503 391 1863 391 
Q 2134 391 2365 517 
Q 2597 644 2772 891 
Q 2950 1147 3059 1487 
Q 3169 1828 3169 2138 
z
M 1381 2969 
Q 1594 3256 1914 3420 
Q 2234 3584 2584 3584 
Q 3122 3584 3439 3221 
Q 3756 2859 3756 2241 
Q 3756 1734 3570 1259 
Q 3384 784 3041 416 
Q 2816 172 2522 40 
Q 2228 -91 1906 -91 
Q 1566 -91 1316 65 
Q 1066 222 909 531 
L 806 0 
L 231 0 
L 1178 4863 
L 1753 4863 
L 1381 2969 
z
" transform="scale(0.015625)"/>
       <path id="DejaVuSans-b5" d="M 544 -1331 
L 544 3500 
L 1119 3500 
L 1119 1325 
Q 1119 872 1334 640 
Q 1550 409 1972 409 
Q 2434 409 2667 671 
Q 2900 934 2900 1459 
L 2900 3500 
L 3475 3500 
L 3475 806 
Q 3475 619 3529 530 
Q 3584 441 3700 441 
Q 3728 441 3778 458 
Q 3828 475 3916 513 
L 3916 50 
Q 3788 -22 3673 -56 
Q 3559 -91 3450 -91 
Q 3234 -91 3106 31 
Q 2978 153 2931 403 
Q 2775 156 2548 32 
Q 2322 -91 2016 -91 
Q 1697 -91 1473 31 
Q 1250 153 1119 397 
L 1119 -1331 
L 544 -1331 
z
" transform="scale(0.015625)"/>
       <path id="DejaVuSans-53" d="M 3425 4513 
L 3425 3897 
Q 3066 4069 2747 4153 
Q 2428 4238 2131 4238 
Q 1616 4238 1336 4038 
Q 1056 3838 1056 3469 
Q 1056 3159 1242 3001 
Q 1428 2844 1947 2747 
L 2328 2669 
Q 3034 2534 3370 2195 
Q 3706 1856 3706 1288 
Q 3706 609 3251 259 
Q 2797 -91 1919 -91 
Q 1588 -91 1214 -16 
Q 841 59 441 206 
L 441 856 
Q 825 641 1194 531 
Q 1563 422 1919 422 
Q 2459 422 2753 634 
Q 3047 847 3047 1241 
Q 3047 1584 2836 1778 
Q 2625 1972 2144 2069 
L 1759 2144 
Q 1053 2284 737 2584 
Q 422 2884 422 3419 
Q 422 4038 858 4394 
Q 1294 4750 2059 4750 
Q 2388 4750 2728 4690 
Q 3069 4631 3425 4513 
z
" transform="scale(0.015625)"/>
      </defs>
      <use xlink:href="#DejaVuSans-Oblique-67" transform="translate(0 0.125)"/>
      <use xlink:href="#DejaVuSans-Oblique-49" transform="translate(63.476562 -16.28125) scale(0.7)"/>
      <use xlink:href="#DejaVuSans-Oblique-6e" transform="translate(84.121094 -16.28125) scale(0.7)"/>
      <use xlink:href="#DejaVuSans-Oblique-68" transform="translate(128.486328 -16.28125) scale(0.7)"/>
      <use xlink:href="#DejaVuSans-Oblique-69" transform="translate(172.851562 -16.28125) scale(0.7)"/>
      <use xlink:href="#DejaVuSans-Oblique-62" transform="translate(192.299805 -16.28125) scale(0.7)"/>
      <use xlink:href="#DejaVuSans-20" transform="translate(239.467773 0.125)"/>
      <use xlink:href="#DejaVuSans-28" transform="translate(271.254883 0.125)"/>
      <use xlink:href="#DejaVuSans-b5" transform="translate(310.268555 0.125)"/>
      <use xlink:href="#DejaVuSans-53" transform="translate(373.891602 0.125)"/>
      <use xlink:href="#DejaVuSans-29" transform="translate(437.368164 0.125)"/>
     </g>
    </g>
   </g>
   <g id="line2d_25">
    <path d="M 108 173.650518 
L 110.0088 177.094012 
L 110.6784 171.03963 
L 111.348 162.373705 
L 112.0176 160.855733 
L 112.6872 162.070989 
L 114.0264 138.070416 
L 114.696 129.620638 
L 115.3656 128.628991 
L 116.0352 130.362114 
L 116.7048 125.05869 
L 117.3744 124.297176 
L 118.044 118.934387 
L 118.7136 118.271288 
L 119.3832 113.005332 
L 120.0528 112.43751 
L 120.7224 100.099777 
L 121.392 97.030506 
L 122.0616 99.114575 
L 122.7312 94.313283 
L 123.4008 94.045833 
L 124.0704 89.169167 
L 124.74 81.818858 
L 125.4096 81.595361 
L 126.0792 76.918768 
L 126.7488 76.930838 
L 128.7576 84.810687 
L 129.4272 80.239251 
L 130.0968 73.032441 
L 130.7664 72.950137 
L 131.436 68.412469 
L 132.1056 68.561231 
L 132.7752 64.09409 
L 133.4448 64.312246 
L 136.1232 75.577936 
L 136.7928 71.154865 
L 137.4624 71.259559 
L 143.4888 94.861296 
L 144.1584 97.293874 
L 144.828 92.521839 
L 145.4976 92.283177 
L 152.1936 115.173225 
L 155.5416 125.371046 
L 158.8896 134.775414 
L 162.2376 143.448062 
L 165.5856 151.445923 
L 168.9336 158.8215 
L 172.2816 165.623211 
L 175.6296 171.895706 
L 178.9776 177.680161 
L 182.3256 183.014549 
L 185.6736 187.933888 
L 189.0216 192.470471 
L 192.3696 196.65408 
L 195.7176 200.512177 
L 199.0656 204.07009 
L 202.4136 207.351175 
L 206.4312 210.953272 
L 209.1096 213.167341 
L 209.7792 206.533279 
L 210.4488 204.462511 
L 211.1184 204.977029 
L 214.4664 208.187548 
L 215.136 201.633509 
L 215.8056 199.641478 
L 217.1448 200.972768 
L 220.4928 204.494844 
L 221.1624 205.165668 
L 221.832 198.660189 
L 222.5016 196.715937 
L 223.1712 197.354938 
L 223.8408 190.974974 
L 224.5104 189.15422 
L 225.18 189.914733 
L 225.8496 183.654329 
L 226.5192 174.785692 
L 227.1888 158.737221 
L 227.8584 154.568851 
L 228.528 155.728309 
L 231.2064 161.407474 
L 231.876 155.605167 
L 232.5456 154.352787 
L 233.2152 148.50702 
L 233.8848 147.368704 
L 234.5544 148.80069 
L 235.224 143.200967 
L 235.8936 142.147917 
L 236.5632 143.663797 
L 237.2328 138.146622 
L 237.9024 137.174792 
L 239.9112 142.196793 
L 243.2592 150.292011 
L 243.9288 151.833846 
L 244.5984 146.185382 
L 245.268 137.918852 
L 245.9376 136.793857 
L 246.6072 131.230252 
L 247.2768 130.369565 
L 249.9552 137.490482 
L 250.6248 124.906986 
L 251.2944 121.439076 
L 251.964 123.130912 
L 252.6336 117.943689 
L 253.3032 117.29651 
L 253.9728 119.211741 
L 254.6424 114.087497 
L 255.312 113.502285 
L 255.9816 108.312964 
L 256.6512 100.655024 
L 257.3208 85.797795 
L 257.9904 82.801524 
L 258.66 85.114246 
L 259.3296 80.537931 
L 259.9992 80.491844 
L 261.3384 85.621713 
L 262.008 81.037244 
L 262.6776 80.983133 
L 264.6864 88.670749 
L 265.356 84.037284 
L 266.0256 83.934963 
L 270.7128 101.192824 
L 271.3824 96.358135 
L 272.052 96.057825 
L 272.7216 91.148827 
L 273.3912 90.932228 
L 275.4 98.14788 
L 276.0696 93.362122 
L 276.7392 93.109957 
L 283.4352 115.876352 
L 286.7832 126.019467 
L 290.1312 135.373383 
L 290.8008 129.98943 
L 291.4704 129.148682 
L 294.1488 136.346203 
L 297.4968 144.896634 
L 300.8448 152.781787 
L 304.1928 160.053426 
L 307.5408 166.759285 
L 310.8888 172.943386 
L 314.2368 178.646325 
L 317.5848 183.905539 
L 320.9328 188.755553 
L 324.2808 193.228206 
L 327.6288 197.352858 
L 329.6376 199.671962 
L 330.3072 193.254765 
L 330.9768 191.397376 
L 331.6464 192.121843 
L 332.316 185.825972 
L 332.9856 184.087959 
L 334.3248 185.915107 
L 337.6728 190.608764 
L 341.0208 194.937225 
L 344.3688 198.928905 
L 345.708 200.437218 
L 346.3776 194.007723 
L 347.0472 192.138234 
L 348.3864 193.708733 
L 350.3952 196.200707 
L 351.0648 189.839291 
L 351.7344 188.036787 
L 353.0736 189.738043 
L 353.7432 183.480478 
L 355.0824 165.734435 
L 355.752 164.162458 
L 356.4216 158.159054 
L 357.0912 149.700113 
L 357.7608 148.385799 
L 358.4304 142.635918 
L 359.1 134.426426 
L 359.7696 133.357552 
L 361.7784 138.560635 
L 364.4568 145.316988 
L 365.1264 139.773247 
L 365.796 138.775278 
L 367.8048 143.721355 
L 370.4832 150.153899 
L 371.1528 144.532431 
L 371.8224 143.457984 
L 372.492 144.952813 
L 373.1616 132.249402 
L 373.8312 128.663503 
L 374.5008 123.073723 
L 375.1704 122.344107 
L 377.1792 128.069645 
L 377.8488 122.80306 
L 378.5184 114.912271 
L 379.188 114.15698 
L 381.1968 120.270898 
L 381.8664 115.129635 
L 382.536 100.196632 
L 383.2056 96.968979 
L 384.5448 101.419239 
L 385.884 106.036233 
L 386.5536 101.123713 
L 387.2232 93.581301 
L 387.8928 93.168787 
L 388.5624 88.306215 
L 389.232 80.969773 
L 389.9016 80.759921 
L 390.5712 68.93123 
L 391.2408 66.362822 
L 392.58 71.788829 
L 395.928 85.362231 
L 399.276 97.879536 
L 399.9456 93.09809 
L 400.6152 92.850168 
L 402.624 99.974837 
L 403.2936 95.15972 
L 403.9632 94.878668 
L 410.6592 117.380538 
L 414.0072 127.406617 
L 416.016 133.043825 
L 416.6856 127.697308 
L 417.3552 126.893393 
L 420.0336 134.232422 
L 423.3816 142.947318 
L 426.7296 150.984141 
L 430.0776 158.395648 
L 433.4256 165.230492 
L 436.7736 171.533543 
L 440.1216 177.346177 
L 443.4696 182.706551 
L 446.8176 187.649854 
L 450.1656 192.208537 
L 453.5136 196.412526 
L 456.8616 200.289417 
L 460.2096 203.864663 
L 463.5576 207.161731 
L 467.5752 210.781375 
L 470.9232 213.54028 
L 471.5928 206.900225 
L 472.2624 204.82356 
L 472.932 205.332276 
L 476.9496 209.121374 
L 480.9672 212.559505 
L 481.6368 205.935211 
L 482.3064 203.874053 
L 482.976 204.398027 
L 483.6456 205.070406 
L 484.3152 191.400936 
L 484.9848 186.864502 
L 485.6544 187.504985 
L 486.324 181.283304 
L 486.9936 172.452768 
L 487.6632 170.772831 
L 489.0024 173.024475 
L 489.672 167.035488 
L 490.3416 165.599429 
L 491.6808 168.016005 
L 495.0288 174.102326 
L 495.6984 175.261541 
L 496.368 169.236606 
L 497.0376 167.765176 
L 498.3768 170.112707 
L 499.0464 164.170511 
L 499.716 162.780491 
L 501.0552 165.286937 
L 501.7248 159.422289 
L 502.3944 150.943048 
L 503.064 149.608761 
L 504.4032 152.535131 
L 505.0728 139.709876 
L 505.7424 136.004091 
L 506.412 137.461874 
L 509.0904 144.287169 
L 509.76 124.428932 
L 510.4296 118.259869 
L 511.0992 119.845968 
L 511.7688 121.877055 
L 512.4384 116.709981 
L 513.108 116.082628 
L 513.7776 110.851842 
L 514.4472 110.318625 
L 517.1256 118.69764 
L 517.7952 113.581658 
L 518.4648 105.839053 
L 519.1344 105.229564 
L 519.804 93.007659 
L 520.4736 90.052355 
L 521.8128 94.723122 
L 522.4824 97.15792 
L 523.152 92.388071 
L 523.8216 92.151557 
L 524.4912 87.305332 
L 525.1608 87.150495 
L 525.8304 82.384634 
L 526.5 75.143349 
L 527.1696 75.027124 
L 530.5176 88.20158 
L 531.1872 83.575654 
L 531.8568 83.480752 
L 532.5264 85.939384 
L 533.196 81.34981 
L 533.8656 81.290676 
L 535.2048 86.395078 
L 535.8744 81.798181 
L 536.544 81.731842 
L 543.24 106.199935 
L 546.588 117.095936 
L 549.2664 125.199093 
L 549.936 119.978636 
L 550.6056 119.298757 
L 558.6408 141.594428 
L 561.9888 149.736514 
L 565.3368 157.245094 
L 568.6848 164.169459 
L 572.0328 170.555065 
L 575.3808 176.44383 
L 578.7288 181.874413 
L 582.0768 186.882461 
L 585.4248 191.500852 
L 588.7728 195.759903 
L 592.1208 199.687573 
L 595.4688 203.309646 
L 598.8168 206.649898 
L 600.156 207.91206 
L 600.8256 201.362448 
L 601.4952 199.374773 
L 602.8344 200.714566 
L 604.8432 202.874198 
L 605.5128 196.405542 
L 606.1824 194.497521 
L 607.5216 195.992804 
L 610.8696 199.902353 
L 614.2176 203.507714 
L 614.8872 204.1944 
L 615.5568 197.704529 
L 616.2264 195.775635 
L 616.896 174.933179 
L 617.5656 167.952539 
L 618.2352 168.740102 
L 621.5832 174.770083 
L 624.2616 179.25447 
L 624.9312 173.165371 
L 625.6008 171.630808 
L 626.2704 165.507392 
L 626.94 156.930367 
L 627.6096 155.499866 
L 628.2792 156.801188 
L 628.9488 151.072902 
L 629.6184 149.893353 
L 630.288 144.119247 
L 630.9576 143.05144 
L 631.6272 137.38728 
L 632.2968 136.427652 
L 634.3056 141.485096 
L 634.9752 136.002931 
L 635.6448 135.06555 
L 637.6536 140.187609 
L 639.6624 145.218514 
L 640.332 139.676355 
L 641.0016 138.679943 
L 641.6712 118.754986 
L 642.3408 112.677101 
L 643.0104 114.352911 
L 643.68 109.306747 
L 644.3496 101.632837 
L 645.0192 101.09094 
L 648.3672 112.237467 
L 649.7064 89.825624 
L 650.376 82.151115 
L 651.0456 81.922279 
L 651.7152 70.07491 
L 652.3848 67.488123 
L 653.724 72.878255 
L 654.3936 68.498567 
L 655.0632 68.645946 
L 655.7328 71.342965 
L 656.4024 66.987949 
L 657.072 59.99408 
L 657.7416 60.121296 
L 663.768 85.234155 
L 666.4464 95.336484 
L 667.116 90.595903 
L 667.7856 90.388189 
L 674.4816 113.561649 
L 677.8296 123.884862 
L 678.4992 118.685524 
L 679.1688 118.026424 
L 687.204 140.54688 
L 690.552 148.770472 
L 693.9 156.354216 
L 697.248 163.347897 
L 700.596 169.797426 
L 703.944 175.74514 
L 707.292 181.230085 
L 710.64 186.288267 
L 713.988 190.95289 
L 717.336 195.254576 
L 720.684 199.221563 
L 724.032 202.879894 
L 727.38 206.253584 
L 731.3976 209.957345 
L 735.4152 213.318044 
L 739.4328 216.367456 
L 742.1112 218.241812 
L 742.7808 211.526206 
L 743.4504 209.375204 
L 744.12 202.645255 
L 744.7896 200.636966 
L 745.4592 201.212957 
L 748.8072 204.716345 
L 750.1464 206.04015 
L 750.816 199.520619 
L 751.4856 197.562541 
L 752.1552 198.187937 
L 752.8248 191.794587 
L 753.4944 189.960662 
L 754.164 190.708217 
L 754.8336 184.435062 
L 755.5032 182.719401 
L 756.1728 169.252274 
L 756.8424 165.071758 
L 757.512 166.062439 
L 758.1816 167.350851 
L 758.8512 161.453037 
L 759.5208 160.106685 
L 760.86 162.698374 
L 761.5296 164.040845 
L 762.1992 158.196221 
L 762.8688 156.902205 
L 763.5384 158.180991 
L 764.208 152.430532 
L 764.8776 151.229168 
L 765.5472 152.599117 
L 766.2168 139.772834 
L 766.8864 136.066037 
L 767.556 137.522825 
L 768.2256 124.93881 
L 768.8952 121.470388 
L 769.5648 115.996199 
L 770.2344 108.214793 
L 770.904 107.567127 
L 775.5912 122.291465 
L 776.2608 117.117732 
L 776.9304 116.483826 
L 777.6 118.412115 
L 777.6 118.412115 
" clip-path="url(#pd1e4778285)" style="fill: none; stroke: #ff4500; stroke-width: 1.5; stroke-linecap: square"/>
   </g>
   <g id="patch_3">
    <path d="M 108 256.32 
L 108 34.56 
" style="fill: none; stroke: #000000; stroke-width: 0.8; stroke-linejoin: miter; stroke-linecap: square"/>
   </g>
   <g id="patch_4">
    <path d="M 777.6 256.32 
L 777.6 34.56 
" style="fill: none; stroke: #000000; stroke-width: 0.8; stroke-linejoin: miter; stroke-linecap: square"/>
   </g>
   <g id="patch_5">
    <path d="M 108 256.32 
L 777.6 256.32 
" style="fill: none; stroke: #000000; stroke-width: 0.8; stroke-linejoin: miter; stroke-linecap: square"/>
   </g>
   <g id="patch_6">
    <path d="M 108 34.56 
L 777.6 34.56 
" style="fill: none; stroke: #000000; stroke-width: 0.8; stroke-linejoin: miter; stroke-linecap: square"/>
   </g>
  </g>
 </g>
 <defs>
  <clipPath id="pd1e4778285">
   <rect x="108" y="34.56" width="669.6" height="221.76"/>
  </clipPath>
 </defs>
</svg>
