<?xml version="1.0" encoding="utf-8" standalone="no"?>
<!DOCTYPE svg PUBLIC "-//W3C//DTD SVG 1.1//EN"
  "http://www.w3.org/Graphics/SVG/1.1/DTD/svg11.dtd">
<svg xmlns:xlink="http://www.w3.org/1999/xlink" width="864pt" height="288pt" viewBox="0 0 864 288" xmlns="http://www.w3.org/2000/svg" version="1.1">
 <metadata>
  <rdf:RDF xmlns:dc="http://purl.org/dc/elements/1.1/" xmlns:cc="http://creativecommons.org/ns#" xmlns:rdf="http://www.w3.org/1999/02/22-rdf-syntax-ns#">
   <cc:Work>
    <dc:type rdf:resource="http://purl.org/dc/dcmitype/StillImage"/>
    <dc:date>2024-04-26T13:28:36.457761</dc:date>
    <dc:format>image/svg+xml</dc:format>
    <dc:creator>
     <cc:Agent>
      <dc:title>Matplotlib v3.8.2, https://matplotlib.org/</dc:title>
     </cc:Agent>
    </dc:creator>
   </cc:Work>
  </rdf:RDF>
 </metadata>
 <defs>
  <style type="text/css">*{stroke-linejoin: round; stroke-linecap: butt}</style>
 </defs>
 <g id="figure_1">
  <g id="patch_1">
   <path d="M 0 288 
L 864 288 
L 864 0 
L 0 0 
z
" style="fill: #ffffff"/>
  </g>
  <g id="axes_1">
   <g id="patch_2">
    <path d="M 108 256.32 
L 777.6 256.32 
L 777.6 34.56 
L 108 34.56 
z
" style="fill: #ffffff"/>
   </g>
   <g id="matplotlib.axis_1">
    <g id="xtick_1">
     <g id="line2d_1">
      <path d="M 108 256.32 
L 108 34.56 
" clip-path="url(#p6c8b5dd276)" style="fill: none; stroke: #b0b0b0; stroke-width: 0.8; stroke-linecap: square"/>
     </g>
     <g id="line2d_2">
      <defs>
       <path id="ma5bfa65a35" d="M 0 0 
L 0 3.5 
" style="stroke: #000000; stroke-width: 0.8"/>
      </defs>
      <g>
       <use xlink:href="#ma5bfa65a35" x="108" y="256.32" style="stroke: #000000; stroke-width: 0.8"/>
      </g>
     </g>
     <g id="text_1">
      <!-- 100 -->
      <g transform="translate(94.63875 273.957812) scale(0.14 -0.14)">
       <defs>
        <path id="DejaVuSans-31" d="M 794 531 
L 1825 531 
L 1825 4091 
L 703 3866 
L 703 4441 
L 1819 4666 
L 2450 4666 
L 2450 531 
L 3481 531 
L 3481 0 
L 794 0 
L 794 531 
z
" transform="scale(0.015625)"/>
        <path id="DejaVuSans-30" d="M 2034 4250 
Q 1547 4250 1301 3770 
Q 1056 3291 1056 2328 
Q 1056 1369 1301 889 
Q 1547 409 2034 409 
Q 2525 409 2770 889 
Q 3016 1369 3016 2328 
Q 3016 3291 2770 3770 
Q 2525 4250 2034 4250 
z
M 2034 4750 
Q 2819 4750 3233 4129 
Q 3647 3509 3647 2328 
Q 3647 1150 3233 529 
Q 2819 -91 2034 -91 
Q 1250 -91 836 529 
Q 422 1150 422 2328 
Q 422 3509 836 4129 
Q 1250 4750 2034 4750 
z
" transform="scale(0.015625)"/>
       </defs>
       <use xlink:href="#DejaVuSans-31"/>
       <use xlink:href="#DejaVuSans-30" x="63.623047"/>
       <use xlink:href="#DejaVuSans-30" x="127.246094"/>
      </g>
     </g>
    </g>
    <g id="xtick_2">
     <g id="line2d_3">
      <path d="M 241.92 256.32 
L 241.92 34.56 
" clip-path="url(#p6c8b5dd276)" style="fill: none; stroke: #b0b0b0; stroke-width: 0.8; stroke-linecap: square"/>
     </g>
     <g id="line2d_4">
      <g>
       <use xlink:href="#ma5bfa65a35" x="241.92" y="256.32" style="stroke: #000000; stroke-width: 0.8"/>
      </g>
     </g>
     <g id="text_2">
      <!-- 120 -->
      <g transform="translate(228.55875 273.957812) scale(0.14 -0.14)">
       <defs>
        <path id="DejaVuSans-32" d="M 1228 531 
L 3431 531 
L 3431 0 
L 469 0 
L 469 531 
Q 828 903 1448 1529 
Q 2069 2156 2228 2338 
Q 2531 2678 2651 2914 
Q 2772 3150 2772 3378 
Q 2772 3750 2511 3984 
Q 2250 4219 1831 4219 
Q 1534 4219 1204 4116 
Q 875 4013 500 3803 
L 500 4441 
Q 881 4594 1212 4672 
Q 1544 4750 1819 4750 
Q 2544 4750 2975 4387 
Q 3406 4025 3406 3419 
Q 3406 3131 3298 2873 
Q 3191 2616 2906 2266 
Q 2828 2175 2409 1742 
Q 1991 1309 1228 531 
z
" transform="scale(0.015625)"/>
       </defs>
       <use xlink:href="#DejaVuSans-31"/>
       <use xlink:href="#DejaVuSans-32" x="63.623047"/>
       <use xlink:href="#DejaVuSans-30" x="127.246094"/>
      </g>
     </g>
    </g>
    <g id="xtick_3">
     <g id="line2d_5">
      <path d="M 375.84 256.32 
L 375.84 34.56 
" clip-path="url(#p6c8b5dd276)" style="fill: none; stroke: #b0b0b0; stroke-width: 0.8; stroke-linecap: square"/>
     </g>
     <g id="line2d_6">
      <g>
       <use xlink:href="#ma5bfa65a35" x="375.84" y="256.32" style="stroke: #000000; stroke-width: 0.8"/>
      </g>
     </g>
     <g id="text_3">
      <!-- 140 -->
      <g transform="translate(362.47875 273.957812) scale(0.14 -0.14)">
       <defs>
        <path id="DejaVuSans-34" d="M 2419 4116 
L 825 1625 
L 2419 1625 
L 2419 4116 
z
M 2253 4666 
L 3047 4666 
L 3047 1625 
L 3713 1625 
L 3713 1100 
L 3047 1100 
L 3047 0 
L 2419 0 
L 2419 1100 
L 313 1100 
L 313 1709 
L 2253 4666 
z
" transform="scale(0.015625)"/>
       </defs>
       <use xlink:href="#DejaVuSans-31"/>
       <use xlink:href="#DejaVuSans-34" x="63.623047"/>
       <use xlink:href="#DejaVuSans-30" x="127.246094"/>
      </g>
     </g>
    </g>
    <g id="xtick_4">
     <g id="line2d_7">
      <path d="M 509.76 256.32 
L 509.76 34.56 
" clip-path="url(#p6c8b5dd276)" style="fill: none; stroke: #b0b0b0; stroke-width: 0.8; stroke-linecap: square"/>
     </g>
     <g id="line2d_8">
      <g>
       <use xlink:href="#ma5bfa65a35" x="509.76" y="256.32" style="stroke: #000000; stroke-width: 0.8"/>
      </g>
     </g>
     <g id="text_4">
      <!-- 160 -->
      <g transform="translate(496.39875 273.957812) scale(0.14 -0.14)">
       <defs>
        <path id="DejaVuSans-36" d="M 2113 2584 
Q 1688 2584 1439 2293 
Q 1191 2003 1191 1497 
Q 1191 994 1439 701 
Q 1688 409 2113 409 
Q 2538 409 2786 701 
Q 3034 994 3034 1497 
Q 3034 2003 2786 2293 
Q 2538 2584 2113 2584 
z
M 3366 4563 
L 3366 3988 
Q 3128 4100 2886 4159 
Q 2644 4219 2406 4219 
Q 1781 4219 1451 3797 
Q 1122 3375 1075 2522 
Q 1259 2794 1537 2939 
Q 1816 3084 2150 3084 
Q 2853 3084 3261 2657 
Q 3669 2231 3669 1497 
Q 3669 778 3244 343 
Q 2819 -91 2113 -91 
Q 1303 -91 875 529 
Q 447 1150 447 2328 
Q 447 3434 972 4092 
Q 1497 4750 2381 4750 
Q 2619 4750 2861 4703 
Q 3103 4656 3366 4563 
z
" transform="scale(0.015625)"/>
       </defs>
       <use xlink:href="#DejaVuSans-31"/>
       <use xlink:href="#DejaVuSans-36" x="63.623047"/>
       <use xlink:href="#DejaVuSans-30" x="127.246094"/>
      </g>
     </g>
    </g>
    <g id="xtick_5">
     <g id="line2d_9">
      <path d="M 643.68 256.32 
L 643.68 34.56 
" clip-path="url(#p6c8b5dd276)" style="fill: none; stroke: #b0b0b0; stroke-width: 0.8; stroke-linecap: square"/>
     </g>
     <g id="line2d_10">
      <g>
       <use xlink:href="#ma5bfa65a35" x="643.68" y="256.32" style="stroke: #000000; stroke-width: 0.8"/>
      </g>
     </g>
     <g id="text_5">
      <!-- 180 -->
      <g transform="translate(630.31875 273.957812) scale(0.14 -0.14)">
       <defs>
        <path id="DejaVuSans-38" d="M 2034 2216 
Q 1584 2216 1326 1975 
Q 1069 1734 1069 1313 
Q 1069 891 1326 650 
Q 1584 409 2034 409 
Q 2484 409 2743 651 
Q 3003 894 3003 1313 
Q 3003 1734 2745 1975 
Q 2488 2216 2034 2216 
z
M 1403 2484 
Q 997 2584 770 2862 
Q 544 3141 544 3541 
Q 544 4100 942 4425 
Q 1341 4750 2034 4750 
Q 2731 4750 3128 4425 
Q 3525 4100 3525 3541 
Q 3525 3141 3298 2862 
Q 3072 2584 2669 2484 
Q 3125 2378 3379 2068 
Q 3634 1759 3634 1313 
Q 3634 634 3220 271 
Q 2806 -91 2034 -91 
Q 1263 -91 848 271 
Q 434 634 434 1313 
Q 434 1759 690 2068 
Q 947 2378 1403 2484 
z
M 1172 3481 
Q 1172 3119 1398 2916 
Q 1625 2713 2034 2713 
Q 2441 2713 2670 2916 
Q 2900 3119 2900 3481 
Q 2900 3844 2670 4047 
Q 2441 4250 2034 4250 
Q 1625 4250 1398 4047 
Q 1172 3844 1172 3481 
z
" transform="scale(0.015625)"/>
       </defs>
       <use xlink:href="#DejaVuSans-31"/>
       <use xlink:href="#DejaVuSans-38" x="63.623047"/>
       <use xlink:href="#DejaVuSans-30" x="127.246094"/>
      </g>
     </g>
    </g>
    <g id="xtick_6">
     <g id="line2d_11">
      <path d="M 777.6 256.32 
L 777.6 34.56 
" clip-path="url(#p6c8b5dd276)" style="fill: none; stroke: #b0b0b0; stroke-width: 0.8; stroke-linecap: square"/>
     </g>
     <g id="line2d_12">
      <g>
       <use xlink:href="#ma5bfa65a35" x="777.6" y="256.32" style="stroke: #000000; stroke-width: 0.8"/>
      </g>
     </g>
     <g id="text_6">
      <!-- 200 -->
      <g transform="translate(764.23875 273.957812) scale(0.14 -0.14)">
       <use xlink:href="#DejaVuSans-32"/>
       <use xlink:href="#DejaVuSans-30" x="63.623047"/>
       <use xlink:href="#DejaVuSans-30" x="127.246094"/>
      </g>
     </g>
    </g>
    <g id="text_7">
     <!-- Time (ms) -->
     <g transform="translate(407.521094 291.507187) scale(0.14 -0.14)">
      <defs>
       <path id="DejaVuSans-54" d="M -19 4666 
L 3928 4666 
L 3928 4134 
L 2272 4134 
L 2272 0 
L 1638 0 
L 1638 4134 
L -19 4134 
L -19 4666 
z
" transform="scale(0.015625)"/>
       <path id="DejaVuSans-69" d="M 603 3500 
L 1178 3500 
L 1178 0 
L 603 0 
L 603 3500 
z
M 603 4863 
L 1178 4863 
L 1178 4134 
L 603 4134 
L 603 4863 
z
" transform="scale(0.015625)"/>
       <path id="DejaVuSans-6d" d="M 3328 2828 
Q 3544 3216 3844 3400 
Q 4144 3584 4550 3584 
Q 5097 3584 5394 3201 
Q 5691 2819 5691 2113 
L 5691 0 
L 5113 0 
L 5113 2094 
Q 5113 2597 4934 2840 
Q 4756 3084 4391 3084 
Q 3944 3084 3684 2787 
Q 3425 2491 3425 1978 
L 3425 0 
L 2847 0 
L 2847 2094 
Q 2847 2600 2669 2842 
Q 2491 3084 2119 3084 
Q 1678 3084 1418 2786 
Q 1159 2488 1159 1978 
L 1159 0 
L 581 0 
L 581 3500 
L 1159 3500 
L 1159 2956 
Q 1356 3278 1631 3431 
Q 1906 3584 2284 3584 
Q 2666 3584 2933 3390 
Q 3200 3197 3328 2828 
z
" transform="scale(0.015625)"/>
       <path id="DejaVuSans-65" d="M 3597 1894 
L 3597 1613 
L 953 1613 
Q 991 1019 1311 708 
Q 1631 397 2203 397 
Q 2534 397 2845 478 
Q 3156 559 3463 722 
L 3463 178 
Q 3153 47 2828 -22 
Q 2503 -91 2169 -91 
Q 1331 -91 842 396 
Q 353 884 353 1716 
Q 353 2575 817 3079 
Q 1281 3584 2069 3584 
Q 2775 3584 3186 3129 
Q 3597 2675 3597 1894 
z
M 3022 2063 
Q 3016 2534 2758 2815 
Q 2500 3097 2075 3097 
Q 1594 3097 1305 2825 
Q 1016 2553 972 2059 
L 3022 2063 
z
" transform="scale(0.015625)"/>
       <path id="DejaVuSans-20" transform="scale(0.015625)"/>
       <path id="DejaVuSans-28" d="M 1984 4856 
Q 1566 4138 1362 3434 
Q 1159 2731 1159 2009 
Q 1159 1288 1364 580 
Q 1569 -128 1984 -844 
L 1484 -844 
Q 1016 -109 783 600 
Q 550 1309 550 2009 
Q 550 2706 781 3412 
Q 1013 4119 1484 4856 
L 1984 4856 
z
" transform="scale(0.015625)"/>
       <path id="DejaVuSans-73" d="M 2834 3397 
L 2834 2853 
Q 2591 2978 2328 3040 
Q 2066 3103 1784 3103 
Q 1356 3103 1142 2972 
Q 928 2841 928 2578 
Q 928 2378 1081 2264 
Q 1234 2150 1697 2047 
L 1894 2003 
Q 2506 1872 2764 1633 
Q 3022 1394 3022 966 
Q 3022 478 2636 193 
Q 2250 -91 1575 -91 
Q 1294 -91 989 -36 
Q 684 19 347 128 
L 347 722 
Q 666 556 975 473 
Q 1284 391 1588 391 
Q 1994 391 2212 530 
Q 2431 669 2431 922 
Q 2431 1156 2273 1281 
Q 2116 1406 1581 1522 
L 1381 1569 
Q 847 1681 609 1914 
Q 372 2147 372 2553 
Q 372 3047 722 3315 
Q 1072 3584 1716 3584 
Q 2034 3584 2315 3537 
Q 2597 3491 2834 3397 
z
" transform="scale(0.015625)"/>
       <path id="DejaVuSans-29" d="M 513 4856 
L 1013 4856 
Q 1481 4119 1714 3412 
Q 1947 2706 1947 2009 
Q 1947 1309 1714 600 
Q 1481 -109 1013 -844 
L 513 -844 
Q 928 -128 1133 580 
Q 1338 1288 1338 2009 
Q 1338 2731 1133 3434 
Q 928 4138 513 4856 
z
" transform="scale(0.015625)"/>
      </defs>
      <use xlink:href="#DejaVuSans-54"/>
      <use xlink:href="#DejaVuSans-69" x="57.958984"/>
      <use xlink:href="#DejaVuSans-6d" x="85.742188"/>
      <use xlink:href="#DejaVuSans-65" x="183.154297"/>
      <use xlink:href="#DejaVuSans-20" x="244.677734"/>
      <use xlink:href="#DejaVuSans-28" x="276.464844"/>
      <use xlink:href="#DejaVuSans-6d" x="315.478516"/>
      <use xlink:href="#DejaVuSans-73" x="412.890625"/>
      <use xlink:href="#DejaVuSans-29" x="464.990234"/>
     </g>
    </g>
   </g>
   <g id="matplotlib.axis_2">
    <g id="ytick_1">
     <g id="line2d_13">
      <path d="M 108 224.482028 
L 777.6 224.482028 
" clip-path="url(#p6c8b5dd276)" style="fill: none; stroke: #b0b0b0; stroke-width: 0.8; stroke-linecap: square"/>
     </g>
     <g id="line2d_14">
      <defs>
       <path id="mc3fac7f025" d="M 0 0 
L -3.5 0 
" style="stroke: #000000; stroke-width: 0.8"/>
      </defs>
      <g>
       <use xlink:href="#mc3fac7f025" x="108" y="224.482028" style="stroke: #000000; stroke-width: 0.8"/>
      </g>
     </g>
     <g id="text_8">
      <!-- −60 -->
      <g transform="translate(71.453437 229.800935) scale(0.14 -0.14)">
       <defs>
        <path id="DejaVuSans-2212" d="M 678 2272 
L 4684 2272 
L 4684 1741 
L 678 1741 
L 678 2272 
z
" transform="scale(0.015625)"/>
       </defs>
       <use xlink:href="#DejaVuSans-2212"/>
       <use xlink:href="#DejaVuSans-36" x="83.789062"/>
       <use xlink:href="#DejaVuSans-30" x="147.412109"/>
      </g>
     </g>
    </g>
    <g id="ytick_2">
     <g id="line2d_15">
      <path d="M 108 181.035424 
L 777.6 181.035424 
" clip-path="url(#p6c8b5dd276)" style="fill: none; stroke: #b0b0b0; stroke-width: 0.8; stroke-linecap: square"/>
     </g>
     <g id="line2d_16">
      <g>
       <use xlink:href="#mc3fac7f025" x="108" y="181.035424" style="stroke: #000000; stroke-width: 0.8"/>
      </g>
     </g>
     <g id="text_9">
      <!-- −40 -->
      <g transform="translate(71.453437 186.35433) scale(0.14 -0.14)">
       <use xlink:href="#DejaVuSans-2212"/>
       <use xlink:href="#DejaVuSans-34" x="83.789062"/>
       <use xlink:href="#DejaVuSans-30" x="147.412109"/>
      </g>
     </g>
    </g>
    <g id="ytick_3">
     <g id="line2d_17">
      <path d="M 108 137.588819 
L 777.6 137.588819 
" clip-path="url(#p6c8b5dd276)" style="fill: none; stroke: #b0b0b0; stroke-width: 0.8; stroke-linecap: square"/>
     </g>
     <g id="line2d_18">
      <g>
       <use xlink:href="#mc3fac7f025" x="108" y="137.588819" style="stroke: #000000; stroke-width: 0.8"/>
      </g>
     </g>
     <g id="text_10">
      <!-- −20 -->
      <g transform="translate(71.453437 142.907726) scale(0.14 -0.14)">
       <use xlink:href="#DejaVuSans-2212"/>
       <use xlink:href="#DejaVuSans-32" x="83.789062"/>
       <use xlink:href="#DejaVuSans-30" x="147.412109"/>
      </g>
     </g>
    </g>
    <g id="ytick_4">
     <g id="line2d_19">
      <path d="M 108 94.142215 
L 777.6 94.142215 
" clip-path="url(#p6c8b5dd276)" style="fill: none; stroke: #b0b0b0; stroke-width: 0.8; stroke-linecap: square"/>
     </g>
     <g id="line2d_20">
      <g>
       <use xlink:href="#mc3fac7f025" x="108" y="94.142215" style="stroke: #000000; stroke-width: 0.8"/>
      </g>
     </g>
     <g id="text_11">
      <!-- 0 -->
      <g transform="translate(92.0925 99.461121) scale(0.14 -0.14)">
       <use xlink:href="#DejaVuSans-30"/>
      </g>
     </g>
    </g>
    <g id="ytick_5">
     <g id="line2d_21">
      <path d="M 108 50.69561 
L 777.6 50.69561 
" clip-path="url(#p6c8b5dd276)" style="fill: none; stroke: #b0b0b0; stroke-width: 0.8; stroke-linecap: square"/>
     </g>
     <g id="line2d_22">
      <g>
       <use xlink:href="#mc3fac7f025" x="108" y="50.69561" style="stroke: #000000; stroke-width: 0.8"/>
      </g>
     </g>
     <g id="text_12">
      <!-- 20 -->
      <g transform="translate(83.185 56.014517) scale(0.14 -0.14)">
       <use xlink:href="#DejaVuSans-32"/>
       <use xlink:href="#DejaVuSans-30" x="63.623047"/>
      </g>
     </g>
    </g>
    <g id="text_13">
     <!-- $V_{m}$ (mV) -->
     <g transform="translate(64.541875 174.49) rotate(-90) scale(0.14 -0.14)">
      <defs>
       <path id="DejaVuSans-Oblique-56" d="M 1319 0 
L 500 4666 
L 1119 4666 
L 1797 653 
L 4063 4666 
L 4750 4666 
L 2053 0 
L 1319 0 
z
" transform="scale(0.015625)"/>
       <path id="DejaVuSans-Oblique-6d" d="M 5747 2113 
L 5338 0 
L 4763 0 
L 5166 2094 
Q 5191 2228 5203 2325 
Q 5216 2422 5216 2491 
Q 5216 2772 5059 2928 
Q 4903 3084 4622 3084 
Q 4203 3084 3875 2770 
Q 3547 2456 3450 1953 
L 3066 0 
L 2491 0 
L 2900 2094 
Q 2925 2209 2937 2307 
Q 2950 2406 2950 2484 
Q 2950 2769 2794 2926 
Q 2638 3084 2363 3084 
Q 1938 3084 1609 2770 
Q 1281 2456 1184 1953 
L 800 0 
L 225 0 
L 909 3500 
L 1484 3500 
L 1375 2956 
Q 1609 3263 1923 3423 
Q 2238 3584 2597 3584 
Q 2978 3584 3223 3384 
Q 3469 3184 3519 2828 
Q 3781 3197 4126 3390 
Q 4472 3584 4856 3584 
Q 5306 3584 5551 3325 
Q 5797 3066 5797 2591 
Q 5797 2488 5784 2364 
Q 5772 2241 5747 2113 
z
" transform="scale(0.015625)"/>
       <path id="DejaVuSans-56" d="M 1831 0 
L 50 4666 
L 709 4666 
L 2188 738 
L 3669 4666 
L 4325 4666 
L 2547 0 
L 1831 0 
z
" transform="scale(0.015625)"/>
      </defs>
      <use xlink:href="#DejaVuSans-Oblique-56" transform="translate(0 0.125)"/>
      <use xlink:href="#DejaVuSans-Oblique-6d" transform="translate(68.408203 -16.28125) scale(0.7)"/>
      <use xlink:href="#DejaVuSans-20" transform="translate(139.331055 0.125)"/>
      <use xlink:href="#DejaVuSans-28" transform="translate(171.118164 0.125)"/>
      <use xlink:href="#DejaVuSans-6d" transform="translate(210.131836 0.125)"/>
      <use xlink:href="#DejaVuSans-56" transform="translate(307.543945 0.125)"/>
      <use xlink:href="#DejaVuSans-29" transform="translate(375.952148 0.125)"/>
     </g>
    </g>
   </g>
   <g id="line2d_23">
    <path d="M 108 219.665062 
L 109.3392 220.368482 
L 110.6784 220.833528 
L 111.348 221.007943 
L 112.6872 221.984307 
L 114.0264 222.464316 
L 116.0352 224.070399 
L 118.044 226.572033 
L 118.7136 227.696152 
L 119.3832 228.567781 
L 120.0528 229.125659 
L 120.7224 230.1719 
L 122.7312 232.489184 
L 124.0704 233.289825 
L 125.4096 233.811963 
L 127.4184 234.318998 
L 129.4272 234.601829 
L 132.1056 234.72366 
L 134.1144 234.66198 
L 136.1232 235.413708 
L 136.7928 236.143564 
L 137.4624 236.603602 
L 138.132 236.790344 
L 138.8016 236.859417 
L 140.1408 237.344043 
L 141.48 237.447758 
L 143.4888 237.359893 
L 144.828 237.717555 
L 146.1672 237.746496 
L 148.176 237.570817 
L 149.5152 237.876794 
L 150.8544 237.857976 
L 153.5328 237.504589 
L 156.8808 236.802348 
L 160.8984 235.703353 
L 164.916 234.378843 
L 169.6032 232.591531 
L 174.2904 230.579243 
L 179.6472 228.04309 
L 185.6736 224.934828 
L 192.3696 221.223068 
L 198.396 217.702814 
L 199.7352 217.730628 
L 201.0744 217.334716 
L 203.7528 216.172188 
L 205.7616 215.193641 
L 207.1008 215.373859 
L 208.44 215.103625 
L 209.7792 215.513493 
L 211.1184 215.416872 
L 213.1272 214.93854 
L 216.4752 213.828371 
L 220.4928 212.239498 
L 225.8496 209.857455 
L 227.1888 210.167983 
L 227.8584 211.105601 
L 228.528 211.838882 
L 229.1976 212.204263 
L 230.5368 212.48729 
L 231.876 212.512256 
L 232.5456 212.471887 
L 234.5544 213.795852 
L 235.8936 215.74961 
L 236.5632 216.901697 
L 239.2416 220.176965 
L 239.9112 221.233979 
L 240.5808 222.753599 
L 241.2504 223.871458 
L 241.92 224.59155 
L 243.2592 225.538715 
L 244.5984 226.170779 
L 245.9376 227.251753 
L 246.6072 227.585682 
L 247.2768 228.176957 
L 247.9464 228.984858 
L 249.9552 230.826291 
L 251.2944 232.038379 
L 252.6336 232.674739 
L 253.9728 233.072995 
L 255.312 234.407127 
L 255.9816 235.050441 
L 256.6512 235.527728 
L 257.9904 236.071142 
L 259.9992 236.498989 
L 260.6688 236.583733 
L 262.008 237.18723 
L 263.3472 237.429684 
L 264.6864 237.520435 
L 267.3648 238.647702 
L 268.704 238.856503 
L 270.0432 238.859405 
L 270.7128 238.757783 
L 272.052 238.918771 
L 274.0608 238.637351 
L 278.0784 237.742282 
L 282.096 236.653286 
L 283.4352 236.769802 
L 284.7744 236.577278 
L 287.4528 235.91137 
L 291.4704 234.641684 
L 292.8096 234.725534 
L 294.1488 234.485363 
L 296.8272 233.709327 
L 300.8448 232.269528 
L 305.532 230.329537 
L 310.8888 227.847849 
L 316.9152 224.781162 
L 323.6112 221.098437 
L 330.9768 216.79009 
L 339.6816 211.436856 
L 345.0384 207.970771 
L 346.3776 208.059618 
L 347.7168 207.704269 
L 349.7256 206.84638 
L 352.404 205.454246 
L 354.4128 204.258427 
L 355.752 205.529515 
L 356.4216 205.848911 
L 358.4304 207.886415 
L 359.1 209.009552 
L 359.7696 209.826889 
L 360.4392 210.333818 
L 361.7784 210.916528 
L 363.1176 212.942916 
L 363.7872 213.94389 
L 364.4568 214.694189 
L 366.4656 216.25018 
L 367.1352 216.825815 
L 367.8048 217.205675 
L 369.144 218.465265 
L 370.4832 219.109574 
L 371.8224 219.491366 
L 372.492 219.626466 
L 373.8312 221.279177 
L 374.5008 222.858756 
L 375.1704 224.07604 
L 375.84 224.81462 
L 377.1792 225.734889 
L 378.5184 226.326429 
L 379.188 226.550225 
L 379.8576 227.08474 
L 381.8664 229.394863 
L 382.536 229.813879 
L 383.8752 230.947533 
L 384.5448 231.290447 
L 386.5536 232.920906 
L 387.2232 233.391458 
L 388.5624 233.939166 
L 391.2408 234.768302 
L 391.9104 235.358452 
L 392.58 235.769807 
L 393.9192 236.186841 
L 395.928 236.458045 
L 399.276 236.759516 
L 402.624 237.634939 
L 403.2936 237.673086 
L 403.9632 237.905984 
L 404.6328 238.0174 
L 405.972 238.374519 
L 407.3112 238.314494 
L 407.9808 238.229795 
L 409.32 238.500718 
L 410.6592 238.456648 
L 413.3376 238.079245 
L 416.6856 237.374536 
L 420.7032 236.290414 
L 424.7208 234.991198 
L 426.7296 234.269831 
L 428.0688 234.32885 
L 429.408 234.064037 
L 432.0864 233.241584 
L 436.104 231.740309 
L 440.7912 229.738456 
L 446.148 227.196509 
L 452.1744 224.073398 
L 458.8704 220.340819 
L 466.9056 215.587107 
L 472.932 211.868648 
L 474.2712 211.946276 
L 475.6104 211.571136 
L 476.9496 211.02177 
L 478.2888 211.326202 
L 479.628 211.141553 
L 481.6368 210.531233 
L 483.6456 209.770643 
L 484.9848 210.15828 
L 485.6544 210.642515 
L 486.324 210.986337 
L 487.6632 211.159514 
L 489.0024 211.071388 
L 490.3416 212.64316 
L 491.0112 213.011264 
L 491.6808 213.677673 
L 492.3504 214.636097 
L 493.02 215.308341 
L 493.6896 215.716012 
L 494.3592 216.423446 
L 495.0288 217.403337 
L 495.6984 218.104914 
L 497.7072 219.52064 
L 498.3768 220.045849 
L 499.716 220.634677 
L 501.0552 220.971556 
L 502.3944 221.894162 
L 503.7336 222.319672 
L 504.4032 222.444728 
L 505.7424 223.301541 
L 507.0816 223.675251 
L 507.7512 223.777703 
L 508.4208 224.221889 
L 510.4296 227.53872 
L 511.0992 228.283727 
L 512.4384 229.12917 
L 513.7776 229.631065 
L 515.1168 230.546784 
L 515.7864 231.440909 
L 516.456 232.137917 
L 517.1256 232.565135 
L 519.804 236.053163 
L 521.1432 236.828056 
L 522.4824 237.306904 
L 523.152 237.483443 
L 523.8216 237.892871 
L 524.4912 238.481875 
L 526.5 239.799268 
L 527.8392 240.665782 
L 529.1784 241.074574 
L 529.848 241.201243 
L 531.1872 241.794634 
L 532.5264 242.043069 
L 534.5352 242.160971 
L 537.2136 242.068087 
L 538.5528 241.809538 
L 542.5704 240.518144 
L 551.2752 237.634609 
L 556.632 235.592885 
L 561.9888 233.303094 
L 567.3456 230.77656 
L 573.372 227.678459 
L 580.068 223.959898 
L 587.4336 219.589005 
L 595.4688 214.541324 
L 602.1648 210.104692 
L 603.504 210.141518 
L 604.8432 209.727743 
L 607.5216 208.474094 
L 611.5392 206.254181 
L 613.548 205.014446 
L 614.8872 205.195616 
L 616.2264 204.97448 
L 618.2352 204.274483 
L 620.244 203.32065 
L 622.2528 202.091602 
L 622.9224 201.616898 
L 624.9312 201.622197 
L 625.6008 202.026998 
L 626.94 203.837462 
L 627.6096 204.456726 
L 628.2792 204.908336 
L 629.6184 205.444859 
L 630.288 206.108119 
L 630.9576 207.683497 
L 631.6272 208.938189 
L 632.2968 209.73045 
L 632.9664 210.271644 
L 633.636 210.666972 
L 634.9752 212.066382 
L 635.6448 212.480762 
L 636.984 213.845122 
L 637.6536 214.246908 
L 638.9928 217.5461 
L 639.6624 218.664867 
L 640.332 219.403178 
L 641.6712 221.100951 
L 642.3408 221.640637 
L 643.0104 222.440661 
L 643.68 223.463141 
L 644.3496 224.225153 
L 645.0192 224.755431 
L 646.3584 226.143939 
L 648.3672 227.566376 
L 649.0368 228.417523 
L 649.7064 229.045903 
L 653.0544 231.192884 
L 653.724 231.753577 
L 654.3936 232.508033 
L 658.4112 235.813371 
L 659.7504 237.412668 
L 660.42 237.987228 
L 661.7592 238.660193 
L 663.0984 239.074152 
L 665.1072 239.447 
L 668.4552 239.903336 
L 669.7944 240.195156 
L 671.1336 240.251934 
L 672.4728 240.086575 
L 675.8208 239.181134 
L 683.1864 237.011452 
L 687.8736 235.406474 
L 692.5608 233.588505 
L 693.9 233.030927 
L 695.2392 233.04358 
L 696.5784 232.726916 
L 699.2568 231.799594 
L 703.2744 230.15148 
L 707.9616 227.994962 
L 713.3184 225.294717 
L 719.3448 222.011977 
L 726.0408 218.116873 
L 733.4064 213.585538 
L 740.772 208.819798 
L 742.7808 207.463011 
L 744.12 207.543768 
L 745.4592 207.187063 
L 747.468 206.330556 
L 748.8072 206.679827 
L 750.1464 206.572867 
L 752.1552 206.025381 
L 753.4944 206.56054 
L 754.8336 206.630741 
L 756.1728 206.460501 
L 757.512 207.167642 
L 758.8512 207.364173 
L 760.1904 207.314545 
L 761.5296 208.112899 
L 762.1992 208.296504 
L 763.5384 209.356955 
L 764.8776 209.785985 
L 765.5472 209.881029 
L 766.8864 210.853388 
L 768.2256 211.254385 
L 768.8952 211.348371 
L 770.2344 213.158673 
L 770.904 213.632089 
L 771.5736 213.941385 
L 774.252 216.509429 
L 775.5912 217.167036 
L 776.9304 217.534819 
L 777.6 218.0792 
L 777.6 218.0792 
" clip-path="url(#p6c8b5dd276)" style="fill: none; stroke: #000000; stroke-width: 1.5; stroke-linecap: square"/>
   </g>
   <g id="line2d_24">
    <path d="M 108 190.503962 
L 110.0088 194.121989 
L 112.0176 197.265862 
L 114.696 200.964331 
L 118.7136 206.290389 
L 126.0792 216.78714 
L 128.088 218.999971 
L 130.0968 220.853608 
L 132.1056 222.392516 
L 134.1144 223.654118 
L 135.4536 224.400163 
L 136.1232 194.160703 
L 136.7928 180.672528 
L 137.4624 174.158688 
L 138.132 170.341608 
L 138.8016 167.964122 
L 139.4712 166.536253 
L 140.1408 165.793013 
L 140.8104 165.559803 
L 141.48 165.708004 
L 142.1496 166.140953 
L 143.4888 167.581266 
L 144.828 169.520108 
L 146.8368 172.933709 
L 150.8544 180.272344 
L 154.2024 186.338513 
L 156.8808 190.699132 
L 158.8896 193.562601 
L 160.8984 196.037159 
L 162.9072 198.119758 
L 164.916 199.827217 
L 166.9248 201.186805 
L 168.9336 202.22906 
L 170.9424 202.983775 
L 172.9512 203.47882 
L 174.96 203.738914 
L 176.9688 203.785562 
L 178.9776 203.637452 
L 180.9864 203.310647 
L 183.6648 202.620272 
L 186.3432 201.663209 
L 189.0216 200.46033 
L 191.7 199.027412 
L 194.3784 197.375317 
L 197.7264 195.010071 
L 200.4048 193.048061 
L 208.44 187.758983 
L 209.7792 187.116101 
L 211.788 186.431778 
L 215.8056 185.414555 
L 227.8584 182.701636 
L 229.1976 182.947042 
L 230.5368 183.490348 
L 233.2152 184.880472 
L 234.5544 185.742737 
L 235.8936 186.898346 
L 237.2328 188.454758 
L 239.2416 191.318726 
L 240.5808 193.501159 
L 245.9376 202.845168 
L 250.6248 209.914427 
L 253.3032 213.681643 
L 257.3208 218.639556 
L 259.3296 220.878029 
L 261.3384 222.787235 
L 264.0168 225.003399 
L 267.3648 227.313157 
L 269.3736 228.580258 
L 270.0432 197.502548 
L 270.7128 183.665712 
L 271.3824 177.026127 
L 272.052 173.179215 
L 272.7216 170.786566 
L 273.3912 169.332438 
L 274.0608 168.547105 
L 274.7304 168.260119 
L 275.4 168.349479 
L 276.0696 168.725489 
L 276.7392 169.317166 
L 278.0784 170.934871 
L 280.0872 173.913793 
L 286.7832 184.203238 
L 288.792 186.920722 
L 290.8008 189.309471 
L 293.4792 192.065307 
L 295.488 193.91968 
L 297.4968 195.492071 
L 299.5056 196.762815 
L 301.5144 197.744764 
L 303.5232 198.45612 
L 305.532 198.917748 
L 307.5408 199.148685 
L 309.5496 199.165956 
L 311.5584 198.984685 
L 313.5672 198.617873 
L 316.2456 197.858742 
L 318.924 196.809384 
L 321.6024 195.483207 
L 324.2808 193.887159 
L 326.9592 192.019427 
L 329.6376 189.868303 
L 332.316 187.410008 
L 334.9944 184.610407 
L 337.6728 181.440513 
L 340.3512 177.921787 
L 346.3776 169.712698 
L 347.7168 168.325174 
L 349.056 167.206635 
L 350.3952 166.305455 
L 352.404 165.276445 
L 354.4128 164.529823 
L 355.0824 164.375774 
L 355.752 164.336006 
L 356.4216 164.418355 
L 357.0912 164.631469 
L 357.7608 164.973877 
L 358.4304 165.450405 
L 359.7696 166.849413 
L 361.1088 168.705219 
L 362.448 170.808245 
L 363.7872 173.243181 
L 366.4656 178.800655 
L 371.1528 188.555169 
L 373.1616 192.172929 
L 375.1704 195.792985 
L 377.8488 200.792048 
L 379.8576 204.040947 
L 384.5448 210.999081 
L 387.8928 215.431921 
L 389.9016 217.774069 
L 393.2496 221.127789 
L 395.2584 222.934112 
L 397.2672 224.453605 
L 399.9456 226.093759 
L 403.2936 227.919664 
L 403.9632 196.944719 
L 404.6328 183.13981 
L 405.3024 176.513867 
L 405.972 172.679971 
L 406.6416 170.308379 
L 407.3112 168.878958 
L 407.9808 168.117484 
L 408.6504 167.861576 
L 409.32 167.997917 
L 409.9896 168.43546 
L 410.6592 169.099293 
L 411.9984 170.884169 
L 414.0072 174.156256 
L 419.364 183.209218 
L 421.3728 186.21332 
L 423.3816 188.883684 
L 425.3904 191.183736 
L 427.3992 193.114536 
L 430.0776 195.380578 
L 432.0864 196.789933 
L 434.0952 197.907005 
L 436.104 198.742537 
L 438.1128 199.317687 
L 440.1216 199.652877 
L 442.1304 199.766824 
L 444.1392 199.676424 
L 446.148 199.396062 
L 448.1568 198.937735 
L 450.8352 198.066846 
L 453.5136 196.91567 
L 456.192 195.496176 
L 458.8704 193.813502 
L 461.5488 191.864373 
L 464.2272 189.635289 
L 466.9056 187.101365 
L 469.584 184.228646 
L 472.2624 180.994107 
L 474.9408 177.642491 
L 476.9496 175.414368 
L 478.2888 174.138469 
L 479.628 173.136062 
L 480.9672 172.361048 
L 482.976 171.519584 
L 484.3152 171.153269 
L 485.6544 171.080398 
L 486.9936 171.402962 
L 488.3328 172.019106 
L 489.672 172.841602 
L 491.0112 174.031555 
L 492.3504 175.600082 
L 493.6896 177.541297 
L 495.0288 179.752729 
L 498.3768 186.011363 
L 501.0552 190.890483 
L 503.7336 195.239239 
L 506.412 199.053201 
L 512.4384 207.136821 
L 514.4472 209.823305 
L 519.1344 215.872442 
L 521.8128 219.475328 
L 523.8216 221.81261 
L 527.8392 226.070374 
L 529.848 227.991114 
L 532.5264 230.209573 
L 534.5352 231.596004 
L 536.544 232.722062 
L 537.2136 233.043827 
L 537.8832 201.003831 
L 538.5528 186.801171 
L 539.2224 180.062077 
L 539.892 176.29168 
L 540.5616 174.044341 
L 541.2312 172.757931 
L 541.9008 172.146421 
L 542.5704 172.035011 
L 543.24 172.302283 
L 543.9096 172.856536 
L 545.2488 174.559422 
L 546.588 176.739361 
L 553.284 188.373485 
L 555.2928 191.201893 
L 557.3016 193.577909 
L 559.3104 195.496989 
L 561.3192 196.978376 
L 562.6584 197.739035 
L 564.6672 198.565351 
L 566.676 199.046911 
L 568.6848 199.216879 
L 570.6936 199.103788 
L 572.7024 198.731652 
L 574.7112 198.11955 
L 576.72 197.281721 
L 578.7288 196.227766 
L 580.7376 194.961462 
L 582.7464 193.481799 
L 584.7552 191.78011 
L 586.764 189.838922 
L 588.7728 187.630464 
L 590.7816 185.113261 
L 592.7904 182.238119 
L 594.7992 178.964302 
L 597.4776 174.020852 
L 602.1648 164.982701 
L 603.504 162.79855 
L 604.8432 161.050487 
L 606.1824 159.697582 
L 607.5216 158.669407 
L 608.8608 157.906608 
L 610.2 157.355747 
L 612.2088 156.829557 
L 614.2176 156.56818 
L 615.5568 156.643218 
L 617.5656 157.101161 
L 625.6008 159.558188 
L 626.94 160.40841 
L 628.2792 161.703631 
L 630.288 164.140243 
L 631.6272 166.201595 
L 633.636 170.027689 
L 636.984 177.034078 
L 638.9928 181.477845 
L 645.0192 195.856444 
L 647.028 200.07014 
L 649.7064 205.019908 
L 651.7152 208.368915 
L 654.3936 212.351292 
L 657.7416 216.950762 
L 662.4288 222.963449 
L 664.4376 225.116157 
L 666.4464 226.907844 
L 668.4552 228.392617 
L 671.1336 230.10175 
L 671.8032 198.711939 
L 672.4728 184.762052 
L 673.1424 178.11894 
L 673.812 174.356506 
L 674.4816 172.089015 
L 675.1512 170.769122 
L 675.8208 170.11421 
L 676.4904 169.948115 
L 677.16 170.1481 
L 677.8296 170.622595 
L 679.1688 172.129417 
L 680.508 174.073051 
L 687.204 184.424 
L 689.2128 186.944735 
L 691.2216 189.067179 
L 693.2304 190.778498 
L 695.9088 192.564659 
L 697.9176 193.682938 
L 699.9264 194.529292 
L 701.9352 195.093237 
L 703.944 195.388824 
L 705.9528 195.434742 
L 707.9616 195.247457 
L 709.9704 194.84066 
L 711.9792 194.224957 
L 713.988 193.407046 
L 715.9968 192.390851 
L 718.0056 191.176245 
L 720.0144 189.758448 
L 722.0232 188.128246 
L 724.032 186.271852 
L 726.0408 184.171565 
L 728.0496 181.812703 
L 730.728 178.267162 
L 734.076 173.353421 
L 738.0936 167.471156 
L 740.1024 164.870122 
L 742.1112 162.628636 
L 743.4504 161.374586 
L 744.7896 160.455399 
L 746.1288 159.853948 
L 747.468 159.478635 
L 748.8072 159.351737 
L 750.1464 159.513621 
L 752.1552 160.092034 
L 753.4944 160.679444 
L 755.5032 161.942019 
L 757.512 163.505534 
L 759.5208 165.447081 
L 761.5296 167.598576 
L 763.5384 170.111565 
L 766.8864 174.907582 
L 771.5736 182.138953 
L 777.6 191.877182 
L 777.6 191.877182 
" clip-path="url(#p6c8b5dd276)" style="fill: none; stroke: #4169e1; stroke-width: 1.5; stroke-linecap: square"/>
   </g>
   <g id="patch_3">
    <path d="M 108 256.32 
L 108 34.56 
" style="fill: none; stroke: #000000; stroke-width: 0.8; stroke-linejoin: miter; stroke-linecap: square"/>
   </g>
   <g id="patch_4">
    <path d="M 777.6 256.32 
L 777.6 34.56 
" style="fill: none; stroke: #000000; stroke-width: 0.8; stroke-linejoin: miter; stroke-linecap: square"/>
   </g>
   <g id="patch_5">
    <path d="M 108 256.32 
L 777.6 256.32 
" style="fill: none; stroke: #000000; stroke-width: 0.8; stroke-linejoin: miter; stroke-linecap: square"/>
   </g>
   <g id="patch_6">
    <path d="M 108 34.56 
L 777.6 34.56 
" style="fill: none; stroke: #000000; stroke-width: 0.8; stroke-linejoin: miter; stroke-linecap: square"/>
   </g>
   <g id="legend_1">
    <g id="patch_7">
     <path d="M 695.098438 71.91625 
L 770.6 71.91625 
Q 772.6 71.91625 772.6 69.91625 
L 772.6 41.56 
Q 772.6 39.56 770.6 39.56 
L 695.098438 39.56 
Q 693.098438 39.56 693.098438 41.56 
L 693.098438 69.91625 
Q 693.098438 71.91625 695.098438 71.91625 
z
" style="fill: #ffffff; opacity: 0.8; stroke: #cccccc; stroke-linejoin: miter"/>
    </g>
    <g id="line2d_25">
     <path d="M 697.098438 47.658437 
L 707.098438 47.658437 
L 717.098438 47.658437 
" style="fill: none; stroke: #000000; stroke-width: 1.5; stroke-linecap: square"/>
    </g>
    <g id="text_14">
     <!-- Soma -->
     <g transform="translate(725.098438 51.158437) scale(0.1 -0.1)">
      <defs>
       <path id="DejaVuSans-53" d="M 3425 4513 
L 3425 3897 
Q 3066 4069 2747 4153 
Q 2428 4238 2131 4238 
Q 1616 4238 1336 4038 
Q 1056 3838 1056 3469 
Q 1056 3159 1242 3001 
Q 1428 2844 1947 2747 
L 2328 2669 
Q 3034 2534 3370 2195 
Q 3706 1856 3706 1288 
Q 3706 609 3251 259 
Q 2797 -91 1919 -91 
Q 1588 -91 1214 -16 
Q 841 59 441 206 
L 441 856 
Q 825 641 1194 531 
Q 1563 422 1919 422 
Q 2459 422 2753 634 
Q 3047 847 3047 1241 
Q 3047 1584 2836 1778 
Q 2625 1972 2144 2069 
L 1759 2144 
Q 1053 2284 737 2584 
Q 422 2884 422 3419 
Q 422 4038 858 4394 
Q 1294 4750 2059 4750 
Q 2388 4750 2728 4690 
Q 3069 4631 3425 4513 
z
" transform="scale(0.015625)"/>
       <path id="DejaVuSans-6f" d="M 1959 3097 
Q 1497 3097 1228 2736 
Q 959 2375 959 1747 
Q 959 1119 1226 758 
Q 1494 397 1959 397 
Q 2419 397 2687 759 
Q 2956 1122 2956 1747 
Q 2956 2369 2687 2733 
Q 2419 3097 1959 3097 
z
M 1959 3584 
Q 2709 3584 3137 3096 
Q 3566 2609 3566 1747 
Q 3566 888 3137 398 
Q 2709 -91 1959 -91 
Q 1206 -91 779 398 
Q 353 888 353 1747 
Q 353 2609 779 3096 
Q 1206 3584 1959 3584 
z
" transform="scale(0.015625)"/>
       <path id="DejaVuSans-61" d="M 2194 1759 
Q 1497 1759 1228 1600 
Q 959 1441 959 1056 
Q 959 750 1161 570 
Q 1363 391 1709 391 
Q 2188 391 2477 730 
Q 2766 1069 2766 1631 
L 2766 1759 
L 2194 1759 
z
M 3341 1997 
L 3341 0 
L 2766 0 
L 2766 531 
Q 2569 213 2275 61 
Q 1981 -91 1556 -91 
Q 1019 -91 701 211 
Q 384 513 384 1019 
Q 384 1609 779 1909 
Q 1175 2209 1959 2209 
L 2766 2209 
L 2766 2266 
Q 2766 2663 2505 2880 
Q 2244 3097 1772 3097 
Q 1472 3097 1187 3025 
Q 903 2953 641 2809 
L 641 3341 
Q 956 3463 1253 3523 
Q 1550 3584 1831 3584 
Q 2591 3584 2966 3190 
Q 3341 2797 3341 1997 
z
" transform="scale(0.015625)"/>
      </defs>
      <use xlink:href="#DejaVuSans-53"/>
      <use xlink:href="#DejaVuSans-6f" x="63.476562"/>
      <use xlink:href="#DejaVuSans-6d" x="124.658203"/>
      <use xlink:href="#DejaVuSans-61" x="222.070312"/>
     </g>
    </g>
    <g id="line2d_26">
     <path d="M 697.098438 62.336562 
L 707.098438 62.336562 
L 717.098438 62.336562 
" style="fill: none; stroke: #4169e1; stroke-width: 1.5; stroke-linecap: square"/>
    </g>
    <g id="text_15">
     <!-- Dendrite -->
     <g transform="translate(725.098438 65.836562) scale(0.1 -0.1)">
      <defs>
       <path id="DejaVuSans-44" d="M 1259 4147 
L 1259 519 
L 2022 519 
Q 2988 519 3436 956 
Q 3884 1394 3884 2338 
Q 3884 3275 3436 3711 
Q 2988 4147 2022 4147 
L 1259 4147 
z
M 628 4666 
L 1925 4666 
Q 3281 4666 3915 4102 
Q 4550 3538 4550 2338 
Q 4550 1131 3912 565 
Q 3275 0 1925 0 
L 628 0 
L 628 4666 
z
" transform="scale(0.015625)"/>
       <path id="DejaVuSans-6e" d="M 3513 2113 
L 3513 0 
L 2938 0 
L 2938 2094 
Q 2938 2591 2744 2837 
Q 2550 3084 2163 3084 
Q 1697 3084 1428 2787 
Q 1159 2491 1159 1978 
L 1159 0 
L 581 0 
L 581 3500 
L 1159 3500 
L 1159 2956 
Q 1366 3272 1645 3428 
Q 1925 3584 2291 3584 
Q 2894 3584 3203 3211 
Q 3513 2838 3513 2113 
z
" transform="scale(0.015625)"/>
       <path id="DejaVuSans-64" d="M 2906 2969 
L 2906 4863 
L 3481 4863 
L 3481 0 
L 2906 0 
L 2906 525 
Q 2725 213 2448 61 
Q 2172 -91 1784 -91 
Q 1150 -91 751 415 
Q 353 922 353 1747 
Q 353 2572 751 3078 
Q 1150 3584 1784 3584 
Q 2172 3584 2448 3432 
Q 2725 3281 2906 2969 
z
M 947 1747 
Q 947 1113 1208 752 
Q 1469 391 1925 391 
Q 2381 391 2643 752 
Q 2906 1113 2906 1747 
Q 2906 2381 2643 2742 
Q 2381 3103 1925 3103 
Q 1469 3103 1208 2742 
Q 947 2381 947 1747 
z
" transform="scale(0.015625)"/>
       <path id="DejaVuSans-72" d="M 2631 2963 
Q 2534 3019 2420 3045 
Q 2306 3072 2169 3072 
Q 1681 3072 1420 2755 
Q 1159 2438 1159 1844 
L 1159 0 
L 581 0 
L 581 3500 
L 1159 3500 
L 1159 2956 
Q 1341 3275 1631 3429 
Q 1922 3584 2338 3584 
Q 2397 3584 2469 3576 
Q 2541 3569 2628 3553 
L 2631 2963 
z
" transform="scale(0.015625)"/>
       <path id="DejaVuSans-74" d="M 1172 4494 
L 1172 3500 
L 2356 3500 
L 2356 3053 
L 1172 3053 
L 1172 1153 
Q 1172 725 1289 603 
Q 1406 481 1766 481 
L 2356 481 
L 2356 0 
L 1766 0 
Q 1100 0 847 248 
Q 594 497 594 1153 
L 594 3053 
L 172 3053 
L 172 3500 
L 594 3500 
L 594 4494 
L 1172 4494 
z
" transform="scale(0.015625)"/>
      </defs>
      <use xlink:href="#DejaVuSans-44"/>
      <use xlink:href="#DejaVuSans-65" x="77.001953"/>
      <use xlink:href="#DejaVuSans-6e" x="138.525391"/>
      <use xlink:href="#DejaVuSans-64" x="201.904297"/>
      <use xlink:href="#DejaVuSans-72" x="265.380859"/>
      <use xlink:href="#DejaVuSans-69" x="306.494141"/>
      <use xlink:href="#DejaVuSans-74" x="334.277344"/>
      <use xlink:href="#DejaVuSans-65" x="373.486328"/>
     </g>
    </g>
   </g>
  </g>
 </g>
 <defs>
  <clipPath id="p6c8b5dd276">
   <rect x="108" y="34.56" width="669.6" height="221.76"/>
  </clipPath>
 </defs>
</svg>
