<?xml version="1.0" encoding="utf-8" standalone="no"?>
<!DOCTYPE svg PUBLIC "-//W3C//DTD SVG 1.1//EN"
  "http://www.w3.org/Graphics/SVG/1.1/DTD/svg11.dtd">
<svg xmlns:xlink="http://www.w3.org/1999/xlink" width="864pt" height="288pt" viewBox="0 0 864 288" xmlns="http://www.w3.org/2000/svg" version="1.1">
 <metadata>
  <rdf:RDF xmlns:dc="http://purl.org/dc/elements/1.1/" xmlns:cc="http://creativecommons.org/ns#" xmlns:rdf="http://www.w3.org/1999/02/22-rdf-syntax-ns#">
   <cc:Work>
    <dc:type rdf:resource="http://purl.org/dc/dcmitype/StillImage"/>
    <dc:date>2024-04-26T13:30:00.356268</dc:date>
    <dc:format>image/svg+xml</dc:format>
    <dc:creator>
     <cc:Agent>
      <dc:title>Matplotlib v3.8.2, https://matplotlib.org/</dc:title>
     </cc:Agent>
    </dc:creator>
   </cc:Work>
  </rdf:RDF>
 </metadata>
 <defs>
  <style type="text/css">*{stroke-linejoin: round; stroke-linecap: butt}</style>
 </defs>
 <g id="figure_1">
  <g id="patch_1">
   <path d="M 0 288 
L 864 288 
L 864 0 
L 0 0 
z
" style="fill: #ffffff"/>
  </g>
  <g id="axes_1">
   <g id="patch_2">
    <path d="M 108 256.32 
L 777.6 256.32 
L 777.6 34.56 
L 108 34.56 
z
" style="fill: #ffffff"/>
   </g>
   <g id="matplotlib.axis_1">
    <g id="xtick_1">
     <g id="line2d_1">
      <path d="M 108 256.32 
L 108 34.56 
" clip-path="url(#p446c88a9a9)" style="fill: none; stroke: #b0b0b0; stroke-width: 0.8; stroke-linecap: square"/>
     </g>
     <g id="line2d_2">
      <defs>
       <path id="m5de9138cf3" d="M 0 0 
L 0 3.5 
" style="stroke: #000000; stroke-width: 0.8"/>
      </defs>
      <g>
       <use xlink:href="#m5de9138cf3" x="108" y="256.32" style="stroke: #000000; stroke-width: 0.8"/>
      </g>
     </g>
     <g id="text_1">
      <!-- 100 -->
      <g transform="translate(94.63875 273.957812) scale(0.14 -0.14)">
       <defs>
        <path id="DejaVuSans-31" d="M 794 531 
L 1825 531 
L 1825 4091 
L 703 3866 
L 703 4441 
L 1819 4666 
L 2450 4666 
L 2450 531 
L 3481 531 
L 3481 0 
L 794 0 
L 794 531 
z
" transform="scale(0.015625)"/>
        <path id="DejaVuSans-30" d="M 2034 4250 
Q 1547 4250 1301 3770 
Q 1056 3291 1056 2328 
Q 1056 1369 1301 889 
Q 1547 409 2034 409 
Q 2525 409 2770 889 
Q 3016 1369 3016 2328 
Q 3016 3291 2770 3770 
Q 2525 4250 2034 4250 
z
M 2034 4750 
Q 2819 4750 3233 4129 
Q 3647 3509 3647 2328 
Q 3647 1150 3233 529 
Q 2819 -91 2034 -91 
Q 1250 -91 836 529 
Q 422 1150 422 2328 
Q 422 3509 836 4129 
Q 1250 4750 2034 4750 
z
" transform="scale(0.015625)"/>
       </defs>
       <use xlink:href="#DejaVuSans-31"/>
       <use xlink:href="#DejaVuSans-30" x="63.623047"/>
       <use xlink:href="#DejaVuSans-30" x="127.246094"/>
      </g>
     </g>
    </g>
    <g id="xtick_2">
     <g id="line2d_3">
      <path d="M 241.92 256.32 
L 241.92 34.56 
" clip-path="url(#p446c88a9a9)" style="fill: none; stroke: #b0b0b0; stroke-width: 0.8; stroke-linecap: square"/>
     </g>
     <g id="line2d_4">
      <g>
       <use xlink:href="#m5de9138cf3" x="241.92" y="256.32" style="stroke: #000000; stroke-width: 0.8"/>
      </g>
     </g>
     <g id="text_2">
      <!-- 120 -->
      <g transform="translate(228.55875 273.957812) scale(0.14 -0.14)">
       <defs>
        <path id="DejaVuSans-32" d="M 1228 531 
L 3431 531 
L 3431 0 
L 469 0 
L 469 531 
Q 828 903 1448 1529 
Q 2069 2156 2228 2338 
Q 2531 2678 2651 2914 
Q 2772 3150 2772 3378 
Q 2772 3750 2511 3984 
Q 2250 4219 1831 4219 
Q 1534 4219 1204 4116 
Q 875 4013 500 3803 
L 500 4441 
Q 881 4594 1212 4672 
Q 1544 4750 1819 4750 
Q 2544 4750 2975 4387 
Q 3406 4025 3406 3419 
Q 3406 3131 3298 2873 
Q 3191 2616 2906 2266 
Q 2828 2175 2409 1742 
Q 1991 1309 1228 531 
z
" transform="scale(0.015625)"/>
       </defs>
       <use xlink:href="#DejaVuSans-31"/>
       <use xlink:href="#DejaVuSans-32" x="63.623047"/>
       <use xlink:href="#DejaVuSans-30" x="127.246094"/>
      </g>
     </g>
    </g>
    <g id="xtick_3">
     <g id="line2d_5">
      <path d="M 375.84 256.32 
L 375.84 34.56 
" clip-path="url(#p446c88a9a9)" style="fill: none; stroke: #b0b0b0; stroke-width: 0.8; stroke-linecap: square"/>
     </g>
     <g id="line2d_6">
      <g>
       <use xlink:href="#m5de9138cf3" x="375.84" y="256.32" style="stroke: #000000; stroke-width: 0.8"/>
      </g>
     </g>
     <g id="text_3">
      <!-- 140 -->
      <g transform="translate(362.47875 273.957812) scale(0.14 -0.14)">
       <defs>
        <path id="DejaVuSans-34" d="M 2419 4116 
L 825 1625 
L 2419 1625 
L 2419 4116 
z
M 2253 4666 
L 3047 4666 
L 3047 1625 
L 3713 1625 
L 3713 1100 
L 3047 1100 
L 3047 0 
L 2419 0 
L 2419 1100 
L 313 1100 
L 313 1709 
L 2253 4666 
z
" transform="scale(0.015625)"/>
       </defs>
       <use xlink:href="#DejaVuSans-31"/>
       <use xlink:href="#DejaVuSans-34" x="63.623047"/>
       <use xlink:href="#DejaVuSans-30" x="127.246094"/>
      </g>
     </g>
    </g>
    <g id="xtick_4">
     <g id="line2d_7">
      <path d="M 509.76 256.32 
L 509.76 34.56 
" clip-path="url(#p446c88a9a9)" style="fill: none; stroke: #b0b0b0; stroke-width: 0.8; stroke-linecap: square"/>
     </g>
     <g id="line2d_8">
      <g>
       <use xlink:href="#m5de9138cf3" x="509.76" y="256.32" style="stroke: #000000; stroke-width: 0.8"/>
      </g>
     </g>
     <g id="text_4">
      <!-- 160 -->
      <g transform="translate(496.39875 273.957812) scale(0.14 -0.14)">
       <defs>
        <path id="DejaVuSans-36" d="M 2113 2584 
Q 1688 2584 1439 2293 
Q 1191 2003 1191 1497 
Q 1191 994 1439 701 
Q 1688 409 2113 409 
Q 2538 409 2786 701 
Q 3034 994 3034 1497 
Q 3034 2003 2786 2293 
Q 2538 2584 2113 2584 
z
M 3366 4563 
L 3366 3988 
Q 3128 4100 2886 4159 
Q 2644 4219 2406 4219 
Q 1781 4219 1451 3797 
Q 1122 3375 1075 2522 
Q 1259 2794 1537 2939 
Q 1816 3084 2150 3084 
Q 2853 3084 3261 2657 
Q 3669 2231 3669 1497 
Q 3669 778 3244 343 
Q 2819 -91 2113 -91 
Q 1303 -91 875 529 
Q 447 1150 447 2328 
Q 447 3434 972 4092 
Q 1497 4750 2381 4750 
Q 2619 4750 2861 4703 
Q 3103 4656 3366 4563 
z
" transform="scale(0.015625)"/>
       </defs>
       <use xlink:href="#DejaVuSans-31"/>
       <use xlink:href="#DejaVuSans-36" x="63.623047"/>
       <use xlink:href="#DejaVuSans-30" x="127.246094"/>
      </g>
     </g>
    </g>
    <g id="xtick_5">
     <g id="line2d_9">
      <path d="M 643.68 256.32 
L 643.68 34.56 
" clip-path="url(#p446c88a9a9)" style="fill: none; stroke: #b0b0b0; stroke-width: 0.8; stroke-linecap: square"/>
     </g>
     <g id="line2d_10">
      <g>
       <use xlink:href="#m5de9138cf3" x="643.68" y="256.32" style="stroke: #000000; stroke-width: 0.8"/>
      </g>
     </g>
     <g id="text_5">
      <!-- 180 -->
      <g transform="translate(630.31875 273.957812) scale(0.14 -0.14)">
       <defs>
        <path id="DejaVuSans-38" d="M 2034 2216 
Q 1584 2216 1326 1975 
Q 1069 1734 1069 1313 
Q 1069 891 1326 650 
Q 1584 409 2034 409 
Q 2484 409 2743 651 
Q 3003 894 3003 1313 
Q 3003 1734 2745 1975 
Q 2488 2216 2034 2216 
z
M 1403 2484 
Q 997 2584 770 2862 
Q 544 3141 544 3541 
Q 544 4100 942 4425 
Q 1341 4750 2034 4750 
Q 2731 4750 3128 4425 
Q 3525 4100 3525 3541 
Q 3525 3141 3298 2862 
Q 3072 2584 2669 2484 
Q 3125 2378 3379 2068 
Q 3634 1759 3634 1313 
Q 3634 634 3220 271 
Q 2806 -91 2034 -91 
Q 1263 -91 848 271 
Q 434 634 434 1313 
Q 434 1759 690 2068 
Q 947 2378 1403 2484 
z
M 1172 3481 
Q 1172 3119 1398 2916 
Q 1625 2713 2034 2713 
Q 2441 2713 2670 2916 
Q 2900 3119 2900 3481 
Q 2900 3844 2670 4047 
Q 2441 4250 2034 4250 
Q 1625 4250 1398 4047 
Q 1172 3844 1172 3481 
z
" transform="scale(0.015625)"/>
       </defs>
       <use xlink:href="#DejaVuSans-31"/>
       <use xlink:href="#DejaVuSans-38" x="63.623047"/>
       <use xlink:href="#DejaVuSans-30" x="127.246094"/>
      </g>
     </g>
    </g>
    <g id="xtick_6">
     <g id="line2d_11">
      <path d="M 777.6 256.32 
L 777.6 34.56 
" clip-path="url(#p446c88a9a9)" style="fill: none; stroke: #b0b0b0; stroke-width: 0.8; stroke-linecap: square"/>
     </g>
     <g id="line2d_12">
      <g>
       <use xlink:href="#m5de9138cf3" x="777.6" y="256.32" style="stroke: #000000; stroke-width: 0.8"/>
      </g>
     </g>
     <g id="text_6">
      <!-- 200 -->
      <g transform="translate(764.23875 273.957812) scale(0.14 -0.14)">
       <use xlink:href="#DejaVuSans-32"/>
       <use xlink:href="#DejaVuSans-30" x="63.623047"/>
       <use xlink:href="#DejaVuSans-30" x="127.246094"/>
      </g>
     </g>
    </g>
    <g id="text_7">
     <!-- Time (ms) -->
     <g transform="translate(407.521094 291.507187) scale(0.14 -0.14)">
      <defs>
       <path id="DejaVuSans-54" d="M -19 4666 
L 3928 4666 
L 3928 4134 
L 2272 4134 
L 2272 0 
L 1638 0 
L 1638 4134 
L -19 4134 
L -19 4666 
z
" transform="scale(0.015625)"/>
       <path id="DejaVuSans-69" d="M 603 3500 
L 1178 3500 
L 1178 0 
L 603 0 
L 603 3500 
z
M 603 4863 
L 1178 4863 
L 1178 4134 
L 603 4134 
L 603 4863 
z
" transform="scale(0.015625)"/>
       <path id="DejaVuSans-6d" d="M 3328 2828 
Q 3544 3216 3844 3400 
Q 4144 3584 4550 3584 
Q 5097 3584 5394 3201 
Q 5691 2819 5691 2113 
L 5691 0 
L 5113 0 
L 5113 2094 
Q 5113 2597 4934 2840 
Q 4756 3084 4391 3084 
Q 3944 3084 3684 2787 
Q 3425 2491 3425 1978 
L 3425 0 
L 2847 0 
L 2847 2094 
Q 2847 2600 2669 2842 
Q 2491 3084 2119 3084 
Q 1678 3084 1418 2786 
Q 1159 2488 1159 1978 
L 1159 0 
L 581 0 
L 581 3500 
L 1159 3500 
L 1159 2956 
Q 1356 3278 1631 3431 
Q 1906 3584 2284 3584 
Q 2666 3584 2933 3390 
Q 3200 3197 3328 2828 
z
" transform="scale(0.015625)"/>
       <path id="DejaVuSans-65" d="M 3597 1894 
L 3597 1613 
L 953 1613 
Q 991 1019 1311 708 
Q 1631 397 2203 397 
Q 2534 397 2845 478 
Q 3156 559 3463 722 
L 3463 178 
Q 3153 47 2828 -22 
Q 2503 -91 2169 -91 
Q 1331 -91 842 396 
Q 353 884 353 1716 
Q 353 2575 817 3079 
Q 1281 3584 2069 3584 
Q 2775 3584 3186 3129 
Q 3597 2675 3597 1894 
z
M 3022 2063 
Q 3016 2534 2758 2815 
Q 2500 3097 2075 3097 
Q 1594 3097 1305 2825 
Q 1016 2553 972 2059 
L 3022 2063 
z
" transform="scale(0.015625)"/>
       <path id="DejaVuSans-20" transform="scale(0.015625)"/>
       <path id="DejaVuSans-28" d="M 1984 4856 
Q 1566 4138 1362 3434 
Q 1159 2731 1159 2009 
Q 1159 1288 1364 580 
Q 1569 -128 1984 -844 
L 1484 -844 
Q 1016 -109 783 600 
Q 550 1309 550 2009 
Q 550 2706 781 3412 
Q 1013 4119 1484 4856 
L 1984 4856 
z
" transform="scale(0.015625)"/>
       <path id="DejaVuSans-73" d="M 2834 3397 
L 2834 2853 
Q 2591 2978 2328 3040 
Q 2066 3103 1784 3103 
Q 1356 3103 1142 2972 
Q 928 2841 928 2578 
Q 928 2378 1081 2264 
Q 1234 2150 1697 2047 
L 1894 2003 
Q 2506 1872 2764 1633 
Q 3022 1394 3022 966 
Q 3022 478 2636 193 
Q 2250 -91 1575 -91 
Q 1294 -91 989 -36 
Q 684 19 347 128 
L 347 722 
Q 666 556 975 473 
Q 1284 391 1588 391 
Q 1994 391 2212 530 
Q 2431 669 2431 922 
Q 2431 1156 2273 1281 
Q 2116 1406 1581 1522 
L 1381 1569 
Q 847 1681 609 1914 
Q 372 2147 372 2553 
Q 372 3047 722 3315 
Q 1072 3584 1716 3584 
Q 2034 3584 2315 3537 
Q 2597 3491 2834 3397 
z
" transform="scale(0.015625)"/>
       <path id="DejaVuSans-29" d="M 513 4856 
L 1013 4856 
Q 1481 4119 1714 3412 
Q 1947 2706 1947 2009 
Q 1947 1309 1714 600 
Q 1481 -109 1013 -844 
L 513 -844 
Q 928 -128 1133 580 
Q 1338 1288 1338 2009 
Q 1338 2731 1133 3434 
Q 928 4138 513 4856 
z
" transform="scale(0.015625)"/>
      </defs>
      <use xlink:href="#DejaVuSans-54"/>
      <use xlink:href="#DejaVuSans-69" x="57.958984"/>
      <use xlink:href="#DejaVuSans-6d" x="85.742188"/>
      <use xlink:href="#DejaVuSans-65" x="183.154297"/>
      <use xlink:href="#DejaVuSans-20" x="244.677734"/>
      <use xlink:href="#DejaVuSans-28" x="276.464844"/>
      <use xlink:href="#DejaVuSans-6d" x="315.478516"/>
      <use xlink:href="#DejaVuSans-73" x="412.890625"/>
      <use xlink:href="#DejaVuSans-29" x="464.990234"/>
     </g>
    </g>
   </g>
   <g id="matplotlib.axis_2">
    <g id="ytick_1">
     <g id="line2d_13">
      <path d="M 108 224.199266 
L 777.6 224.199266 
" clip-path="url(#p446c88a9a9)" style="fill: none; stroke: #b0b0b0; stroke-width: 0.8; stroke-linecap: square"/>
     </g>
     <g id="line2d_14">
      <defs>
       <path id="m9921042a15" d="M 0 0 
L -3.5 0 
" style="stroke: #000000; stroke-width: 0.8"/>
      </defs>
      <g>
       <use xlink:href="#m9921042a15" x="108" y="224.199266" style="stroke: #000000; stroke-width: 0.8"/>
      </g>
     </g>
     <g id="text_8">
      <!-- −60 -->
      <g transform="translate(71.453437 229.518173) scale(0.14 -0.14)">
       <defs>
        <path id="DejaVuSans-2212" d="M 678 2272 
L 4684 2272 
L 4684 1741 
L 678 1741 
L 678 2272 
z
" transform="scale(0.015625)"/>
       </defs>
       <use xlink:href="#DejaVuSans-2212"/>
       <use xlink:href="#DejaVuSans-36" x="83.789062"/>
       <use xlink:href="#DejaVuSans-30" x="147.412109"/>
      </g>
     </g>
    </g>
    <g id="ytick_2">
     <g id="line2d_15">
      <path d="M 108 180.188039 
L 777.6 180.188039 
" clip-path="url(#p446c88a9a9)" style="fill: none; stroke: #b0b0b0; stroke-width: 0.8; stroke-linecap: square"/>
     </g>
     <g id="line2d_16">
      <g>
       <use xlink:href="#m9921042a15" x="108" y="180.188039" style="stroke: #000000; stroke-width: 0.8"/>
      </g>
     </g>
     <g id="text_9">
      <!-- −40 -->
      <g transform="translate(71.453437 185.506945) scale(0.14 -0.14)">
       <use xlink:href="#DejaVuSans-2212"/>
       <use xlink:href="#DejaVuSans-34" x="83.789062"/>
       <use xlink:href="#DejaVuSans-30" x="147.412109"/>
      </g>
     </g>
    </g>
    <g id="ytick_3">
     <g id="line2d_17">
      <path d="M 108 136.176811 
L 777.6 136.176811 
" clip-path="url(#p446c88a9a9)" style="fill: none; stroke: #b0b0b0; stroke-width: 0.8; stroke-linecap: square"/>
     </g>
     <g id="line2d_18">
      <g>
       <use xlink:href="#m9921042a15" x="108" y="136.176811" style="stroke: #000000; stroke-width: 0.8"/>
      </g>
     </g>
     <g id="text_10">
      <!-- −20 -->
      <g transform="translate(71.453437 141.495717) scale(0.14 -0.14)">
       <use xlink:href="#DejaVuSans-2212"/>
       <use xlink:href="#DejaVuSans-32" x="83.789062"/>
       <use xlink:href="#DejaVuSans-30" x="147.412109"/>
      </g>
     </g>
    </g>
    <g id="ytick_4">
     <g id="line2d_19">
      <path d="M 108 92.165584 
L 777.6 92.165584 
" clip-path="url(#p446c88a9a9)" style="fill: none; stroke: #b0b0b0; stroke-width: 0.8; stroke-linecap: square"/>
     </g>
     <g id="line2d_20">
      <g>
       <use xlink:href="#m9921042a15" x="108" y="92.165584" style="stroke: #000000; stroke-width: 0.8"/>
      </g>
     </g>
     <g id="text_11">
      <!-- 0 -->
      <g transform="translate(92.0925 97.48449) scale(0.14 -0.14)">
       <use xlink:href="#DejaVuSans-30"/>
      </g>
     </g>
    </g>
    <g id="ytick_5">
     <g id="line2d_21">
      <path d="M 108 48.154356 
L 777.6 48.154356 
" clip-path="url(#p446c88a9a9)" style="fill: none; stroke: #b0b0b0; stroke-width: 0.8; stroke-linecap: square"/>
     </g>
     <g id="line2d_22">
      <g>
       <use xlink:href="#m9921042a15" x="108" y="48.154356" style="stroke: #000000; stroke-width: 0.8"/>
      </g>
     </g>
     <g id="text_12">
      <!-- 20 -->
      <g transform="translate(83.185 53.473262) scale(0.14 -0.14)">
       <use xlink:href="#DejaVuSans-32"/>
       <use xlink:href="#DejaVuSans-30" x="63.623047"/>
      </g>
     </g>
    </g>
    <g id="text_13">
     <!-- $V_{m}$ (mV) -->
     <g transform="translate(64.541875 174.49) rotate(-90) scale(0.14 -0.14)">
      <defs>
       <path id="DejaVuSans-Oblique-56" d="M 1319 0 
L 500 4666 
L 1119 4666 
L 1797 653 
L 4063 4666 
L 4750 4666 
L 2053 0 
L 1319 0 
z
" transform="scale(0.015625)"/>
       <path id="DejaVuSans-Oblique-6d" d="M 5747 2113 
L 5338 0 
L 4763 0 
L 5166 2094 
Q 5191 2228 5203 2325 
Q 5216 2422 5216 2491 
Q 5216 2772 5059 2928 
Q 4903 3084 4622 3084 
Q 4203 3084 3875 2770 
Q 3547 2456 3450 1953 
L 3066 0 
L 2491 0 
L 2900 2094 
Q 2925 2209 2937 2307 
Q 2950 2406 2950 2484 
Q 2950 2769 2794 2926 
Q 2638 3084 2363 3084 
Q 1938 3084 1609 2770 
Q 1281 2456 1184 1953 
L 800 0 
L 225 0 
L 909 3500 
L 1484 3500 
L 1375 2956 
Q 1609 3263 1923 3423 
Q 2238 3584 2597 3584 
Q 2978 3584 3223 3384 
Q 3469 3184 3519 2828 
Q 3781 3197 4126 3390 
Q 4472 3584 4856 3584 
Q 5306 3584 5551 3325 
Q 5797 3066 5797 2591 
Q 5797 2488 5784 2364 
Q 5772 2241 5747 2113 
z
" transform="scale(0.015625)"/>
       <path id="DejaVuSans-56" d="M 1831 0 
L 50 4666 
L 709 4666 
L 2188 738 
L 3669 4666 
L 4325 4666 
L 2547 0 
L 1831 0 
z
" transform="scale(0.015625)"/>
      </defs>
      <use xlink:href="#DejaVuSans-Oblique-56" transform="translate(0 0.125)"/>
      <use xlink:href="#DejaVuSans-Oblique-6d" transform="translate(68.408203 -16.28125) scale(0.7)"/>
      <use xlink:href="#DejaVuSans-20" transform="translate(139.331055 0.125)"/>
      <use xlink:href="#DejaVuSans-28" transform="translate(171.118164 0.125)"/>
      <use xlink:href="#DejaVuSans-6d" transform="translate(210.131836 0.125)"/>
      <use xlink:href="#DejaVuSans-56" transform="translate(307.543945 0.125)"/>
      <use xlink:href="#DejaVuSans-29" transform="translate(375.952148 0.125)"/>
     </g>
    </g>
   </g>
   <g id="line2d_23">
    <path d="M 108 218.534573 
L 109.3392 219.166087 
L 110.6784 219.55249 
L 111.348 219.686122 
L 112.6872 220.601774 
L 114.0264 221.007968 
L 116.0352 222.539363 
L 118.044 225.01029 
L 118.7136 226.138467 
L 119.3832 227.006065 
L 120.0528 227.54894 
L 120.7224 228.601449 
L 122.7312 230.913842 
L 124.0704 231.687047 
L 125.4096 232.17522 
L 127.4184 232.630249 
L 129.4272 232.866103 
L 132.1056 232.940777 
L 134.1144 232.858911 
L 136.1232 233.693638 
L 136.7928 234.554983 
L 137.4624 235.162184 
L 138.132 235.492608 
L 138.8016 235.69769 
L 140.1408 236.43977 
L 141.48 236.748763 
L 143.4888 236.902605 
L 144.828 237.399056 
L 146.1672 237.541708 
L 148.176 237.506921 
L 149.5152 237.897096 
L 150.8544 237.94906 
L 152.8632 237.794775 
L 155.5416 237.381935 
L 158.8896 236.639035 
L 162.9072 235.489745 
L 166.9248 234.110282 
L 171.612 232.257962 
L 176.9688 229.871906 
L 182.3256 227.246207 
L 188.352 224.057787 
L 195.7176 219.899822 
L 198.396 218.334099 
L 199.7352 218.368336 
L 201.0744 217.980136 
L 203.7528 216.836198 
L 205.7616 215.874774 
L 207.1008 216.063462 
L 208.44 215.802299 
L 209.7792 216.218464 
L 211.1184 216.129387 
L 213.1272 215.665282 
L 215.8056 214.815029 
L 217.1448 214.205837 
L 219.8232 212.619826 
L 225.18 209.415033 
L 225.8496 209.03012 
L 227.1888 209.227631 
L 227.8584 210.13197 
L 228.528 210.834055 
L 229.1976 211.167095 
L 230.5368 211.378699 
L 231.876 211.326173 
L 232.5456 211.245533 
L 234.5544 212.487094 
L 235.8936 214.422711 
L 236.5632 215.572327 
L 239.2416 218.801984 
L 239.9112 219.854594 
L 240.5808 221.384696 
L 241.2504 222.500949 
L 241.92 223.20666 
L 243.2592 224.108463 
L 244.5984 224.684227 
L 245.9376 225.726373 
L 246.6072 226.033849 
L 247.2768 226.609269 
L 247.9464 227.410891 
L 249.9552 229.216837 
L 251.2944 230.410641 
L 252.6336 231.008165 
L 253.9728 231.361161 
L 255.312 232.699329 
L 255.9816 233.346119 
L 256.6512 233.820559 
L 257.9904 234.343094 
L 259.9992 234.733361 
L 260.6688 234.806416 
L 262.008 235.415617 
L 263.3472 235.653845 
L 264.6864 235.741717 
L 267.3648 236.941215 
L 268.704 237.179634 
L 270.7128 237.2537 
L 272.052 237.706803 
L 273.3912 237.816376 
L 275.4 237.743499 
L 278.0784 237.431036 
L 281.4264 236.801293 
L 282.096 236.648807 
L 283.4352 236.846326 
L 284.7744 236.722363 
L 287.4528 236.168854 
L 290.8008 235.234186 
L 291.4704 235.023993 
L 292.8096 235.140989 
L 294.1488 234.930102 
L 296.8272 234.203585 
L 300.8448 232.821087 
L 305.532 230.931185 
L 310.8888 228.494747 
L 316.9152 225.473266 
L 323.6112 221.843192 
L 331.6464 217.21465 
L 343.0296 210.366476 
L 345.0384 209.126425 
L 346.3776 209.270006 
L 347.7168 208.956742 
L 349.7256 208.179862 
L 351.0648 207.45069 
L 353.0736 206.034659 
L 354.4128 204.984987 
L 355.752 205.992132 
L 356.4216 206.173348 
L 358.4304 207.855173 
L 359.1 208.896309 
L 359.7696 209.638423 
L 360.4392 210.080353 
L 361.7784 210.551433 
L 363.1176 212.499803 
L 363.7872 213.465684 
L 364.4568 214.179133 
L 365.1264 214.631605 
L 365.796 214.946847 
L 367.1352 216.154036 
L 367.8048 216.492216 
L 369.144 217.677538 
L 370.4832 218.235369 
L 371.8224 218.52447 
L 372.492 218.611676 
L 373.8312 220.204751 
L 374.5008 221.776815 
L 375.1704 222.978952 
L 375.84 223.690465 
L 377.1792 224.543005 
L 378.5184 225.059484 
L 379.188 225.244318 
L 379.8576 225.751018 
L 381.8664 228.010101 
L 382.536 228.402153 
L 383.8752 229.496975 
L 384.5448 229.813726 
L 386.5536 231.398435 
L 387.2232 231.85375 
L 388.5624 232.358309 
L 391.2408 233.106954 
L 391.9104 233.69929 
L 392.58 234.106268 
L 393.9192 234.500722 
L 395.928 234.735869 
L 398.6064 234.752455 
L 399.9456 235.211422 
L 400.6152 235.293157 
L 401.9544 235.843141 
L 403.2936 236.00158 
L 405.972 237.175163 
L 407.3112 237.383746 
L 407.9808 237.416251 
L 409.32 237.902381 
L 410.6592 238.028416 
L 412.668 237.965067 
L 415.3464 237.651773 
L 418.6944 237.012182 
L 422.0424 236.159236 
L 426.06 234.905465 
L 426.7296 234.67497 
L 428.0688 234.761639 
L 429.408 234.521475 
L 432.0864 233.74117 
L 436.104 232.28961 
L 440.7912 230.332641 
L 446.148 227.832975 
L 452.1744 224.754155 
L 458.8704 221.075604 
L 467.5752 216.011209 
L 472.932 212.797508 
L 474.2712 212.89774 
L 475.6104 212.547407 
L 476.9496 212.027329 
L 478.2888 212.355864 
L 479.628 212.194241 
L 481.6368 211.627059 
L 483.6456 210.913543 
L 486.324 211.76508 
L 487.6632 211.648484 
L 489.0024 211.293953 
L 490.3416 212.648959 
L 491.0112 212.924176 
L 491.6808 213.512345 
L 492.3504 214.405539 
L 493.02 215.018076 
L 493.6896 215.369578 
L 494.3592 216.029423 
L 495.0288 216.969194 
L 495.6984 217.629419 
L 497.7072 218.918032 
L 498.3768 219.402836 
L 499.716 219.90254 
L 501.0552 220.144804 
L 502.3944 220.986192 
L 503.7336 221.319885 
L 504.4032 221.397117 
L 505.7424 222.175908 
L 507.0816 222.460738 
L 507.7512 222.517045 
L 508.4208 222.926326 
L 510.4296 226.211597 
L 511.0992 226.937478 
L 512.4384 227.725718 
L 513.7776 228.161565 
L 515.1168 229.031251 
L 515.7864 229.92208 
L 516.456 230.609371 
L 517.1256 231.017013 
L 519.804 234.521159 
L 521.1432 235.271249 
L 522.4824 235.71798 
L 523.152 235.877978 
L 523.8216 236.284229 
L 524.4912 236.881166 
L 526.5 238.213768 
L 527.8392 239.102483 
L 529.1784 239.520391 
L 529.848 239.651606 
L 531.1872 240.279797 
L 532.5264 240.554631 
L 534.5352 240.713918 
L 537.2136 240.682426 
L 539.892 240.449574 
L 543.24 239.930205 
L 546.588 239.197465 
L 550.6056 238.079766 
L 554.6232 236.739359 
L 559.3104 234.934756 
L 564.6672 232.60113 
L 570.024 230.021984 
L 576.0504 226.874824 
L 582.7464 223.130596 
L 590.7816 218.383382 
L 602.1648 211.388729 
L 603.504 211.49029 
L 604.8432 211.137088 
L 607.5216 210.013035 
L 611.5392 208.030179 
L 613.548 206.954893 
L 614.8872 207.226713 
L 616.2264 207.044707 
L 617.5656 206.65884 
L 618.9048 206.060206 
L 620.9136 204.775638 
L 622.9224 203.247745 
L 624.2616 203.239565 
L 624.9312 203.103135 
L 625.6008 203.437024 
L 626.2704 204.279695 
L 626.94 204.943633 
L 627.6096 205.348881 
L 628.9488 205.757897 
L 629.6184 205.841386 
L 630.288 206.388204 
L 630.9576 207.856323 
L 631.6272 209.003021 
L 632.2968 209.697104 
L 632.9664 210.154335 
L 633.636 210.475364 
L 634.9752 211.750872 
L 635.6448 212.106142 
L 636.984 213.368276 
L 637.6536 213.717852 
L 638.9928 216.959953 
L 639.6624 218.045262 
L 640.332 218.744397 
L 641.0016 219.651631 
L 641.6712 220.370511 
L 642.3408 220.869036 
L 643.0104 221.634122 
L 643.68 222.627677 
L 644.3496 223.355882 
L 645.0192 223.847617 
L 646.3584 225.170019 
L 648.3672 226.483157 
L 649.0368 227.311396 
L 649.7064 227.911619 
L 653.0544 229.905654 
L 653.724 230.444707 
L 654.3936 231.186484 
L 658.4112 234.408627 
L 659.7504 236.01821 
L 660.42 236.591741 
L 661.7592 237.248562 
L 663.0984 237.644436 
L 665.1072 237.998341 
L 668.4552 238.468298 
L 669.7944 238.786872 
L 671.8032 238.86959 
L 674.4816 238.729573 
L 677.8296 238.29372 
L 681.1776 237.627409 
L 685.1952 236.574619 
L 689.2128 235.287159 
L 693.9 233.53276 
L 695.2392 233.572568 
L 696.5784 233.281303 
L 699.2568 232.399669 
L 703.2744 230.810385 
L 707.9616 228.714423 
L 713.3184 226.081122 
L 719.3448 222.880687 
L 726.7104 218.712754 
L 736.7544 212.746033 
L 742.7808 209.06161 
L 744.12 209.206094 
L 745.4592 208.893498 
L 747.468 208.116422 
L 748.8072 208.498623 
L 750.1464 208.394704 
L 751.4856 208.07608 
L 752.1552 207.83997 
L 753.4944 208.170088 
L 754.8336 207.911795 
L 756.1728 207.413187 
L 757.512 207.820098 
L 758.8512 207.760722 
L 760.1904 207.508488 
L 761.5296 208.145359 
L 762.1992 208.25495 
L 763.5384 209.183869 
L 764.8776 209.487891 
L 765.5472 209.524026 
L 766.8864 210.393309 
L 768.2256 210.687972 
L 768.8952 210.728027 
L 770.2344 212.461369 
L 770.904 212.891428 
L 771.5736 213.154928 
L 774.252 215.574632 
L 775.5912 216.148815 
L 776.9304 216.426449 
L 777.6 216.935277 
L 777.6 216.935277 
" clip-path="url(#p446c88a9a9)" style="fill: none; stroke: #000000; stroke-width: 1.5; stroke-linecap: square"/>
   </g>
   <g id="line2d_24">
    <path d="M 108 141.941319 
L 110.6784 143.334703 
L 115.3656 145.564603 
L 116.7048 146.36573 
L 118.044 147.387751 
L 119.3832 148.66397 
L 120.7224 150.165452 
L 122.0616 151.918123 
L 124.0704 154.968275 
L 126.7488 159.554327 
L 128.7576 163.4305 
L 130.7664 167.778337 
L 133.4448 174.279773 
L 136.1232 181.322549 
L 142.8192 199.790195 
L 144.828 204.182821 
L 146.8368 207.9834 
L 148.8456 211.181824 
L 150.8544 213.942021 
L 152.8632 216.270346 
L 154.872 218.171417 
L 156.8808 219.694309 
L 158.8896 220.889036 
L 160.8984 221.798591 
L 162.9072 222.459145 
L 164.916 222.901236 
L 166.9248 223.150821 
L 169.6032 223.22207 
L 172.2816 223.034426 
L 174.96 222.624221 
L 178.308 221.843704 
L 181.656 220.809634 
L 185.004 219.560139 
L 189.0216 217.81948 
L 193.7088 215.509813 
L 202.4136 211.057488 
L 208.44 208.549426 
L 210.4488 208.050573 
L 215.8056 207.038695 
L 216.4752 179.410737 
L 217.1448 166.571172 
L 217.8144 159.272064 
L 218.484 154.263854 
L 219.1536 150.663102 
L 219.8232 148.033352 
L 220.4928 146.099987 
L 221.1624 144.678527 
L 221.832 143.636682 
L 222.5016 142.876439 
L 223.1712 142.322091 
L 224.5104 141.605279 
L 226.5192 140.969409 
L 227.8584 140.732084 
L 229.8672 140.7652 
L 231.876 140.812794 
L 235.224 140.745706 
L 236.5632 141.009513 
L 237.9024 141.499376 
L 239.9112 142.477952 
L 241.2504 143.364704 
L 245.9376 146.784447 
L 247.9464 148.250693 
L 249.9552 150.018135 
L 251.964 152.133356 
L 254.6424 155.293577 
L 255.9816 157.164843 
L 257.3208 159.351143 
L 259.3296 163.126229 
L 261.3384 167.469565 
L 263.3472 172.543168 
L 266.0256 180.152832 
L 270.7128 194.02136 
L 272.7216 199.172131 
L 274.7304 203.653621 
L 276.7392 207.408755 
L 278.748 210.49918 
L 280.7568 213.013816 
L 282.7656 215.048778 
L 284.7744 216.796401 
L 286.7832 218.247767 
L 288.792 219.3856 
L 290.8008 220.240599 
L 294.1488 221.293723 
L 296.1576 221.77141 
L 298.1664 222.071621 
L 300.8448 222.212617 
L 303.5232 222.094013 
L 306.2016 221.750868 
L 308.88 221.211914 
L 312.228 220.298867 
L 315.576 219.155545 
L 319.5936 217.523943 
L 323.6112 215.651345 
L 328.2984 213.211496 
L 333.6552 210.147362 
L 339.6816 206.424541 
L 347.7168 201.404608 
L 349.7256 200.44245 
L 350.3952 174.014684 
L 351.0648 161.509377 
L 351.7344 154.221038 
L 352.404 149.238159 
L 353.0736 145.670117 
L 353.7432 143.057364 
L 354.4128 141.127535 
L 355.0824 139.738218 
L 355.752 138.795191 
L 356.4216 138.20623 
L 357.0912 137.898244 
L 357.7608 137.803111 
L 358.4304 137.869517 
L 359.7696 138.352727 
L 364.4568 140.556906 
L 366.4656 141.419561 
L 369.8136 142.603532 
L 372.492 143.34169 
L 373.8312 143.707991 
L 375.1704 144.332296 
L 380.5272 147.7524 
L 382.536 149.308424 
L 384.5448 151.153061 
L 386.5536 153.268028 
L 388.5624 155.754035 
L 390.5712 158.520691 
L 391.9104 160.586874 
L 393.2496 162.989041 
L 395.2584 167.17568 
L 397.2672 171.950882 
L 399.9456 179.003396 
L 406.6416 197.314818 
L 408.6504 201.977428 
L 410.6592 206.064634 
L 412.668 209.54166 
L 414.6768 212.42084 
L 416.6856 214.77315 
L 418.6944 216.671732 
L 420.7032 218.180096 
L 422.712 219.351624 
L 424.7208 220.231021 
L 426.7296 220.855876 
L 430.7472 221.775151 
L 432.756 222.031052 
L 435.4344 222.119787 
L 438.1128 221.953738 
L 440.7912 221.567639 
L 444.1392 220.818416 
L 447.4872 219.814449 
L 450.8352 218.592054 
L 454.8528 216.878603 
L 458.8704 214.936119 
L 463.5576 212.427605 
L 468.9144 209.299852 
L 474.9408 205.683477 
L 477.6192 204.44211 
L 479.628 203.750211 
L 483.6456 202.550788 
L 484.3152 175.78842 
L 484.9848 163.249912 
L 485.6544 156.057702 
L 486.324 151.222154 
L 486.9936 147.849402 
L 487.6632 145.470977 
L 488.3328 143.798904 
L 489.0024 142.639126 
L 489.672 141.888275 
L 490.3416 141.4684 
L 491.0112 141.297357 
L 491.6808 141.311834 
L 493.02 141.735673 
L 495.0288 142.760323 
L 497.7072 144.155978 
L 499.716 144.945826 
L 501.7248 145.449958 
L 505.7424 146.166352 
L 509.0904 146.809833 
L 510.4296 147.378694 
L 512.4384 148.670933 
L 515.7864 151.052895 
L 517.1256 152.248388 
L 518.4648 153.688869 
L 519.804 155.482188 
L 521.8128 158.682745 
L 523.8216 162.344557 
L 525.1608 165.20291 
L 526.5 168.53879 
L 527.8392 172.385814 
L 529.848 178.907225 
L 534.5352 194.790289 
L 536.544 200.605032 
L 538.5528 205.517011 
L 539.892 208.315333 
L 541.2312 210.768253 
L 542.5704 212.909186 
L 543.9096 214.770242 
L 545.9184 217.100654 
L 547.9272 218.953419 
L 549.936 220.400413 
L 551.9448 221.500951 
L 553.9536 222.30404 
L 555.9624 222.850364 
L 557.9712 223.173868 
L 559.98 223.303016 
L 562.6584 223.213802 
L 565.3368 222.868258 
L 568.0152 222.304216 
L 571.3632 221.338099 
L 574.7112 220.125987 
L 578.7288 218.399089 
L 582.7464 216.422524 
L 587.4336 213.853819 
L 592.7904 210.633701 
L 598.8168 206.723857 
L 604.1736 203.217931 
L 610.8696 199.771031 
L 615.5568 197.38883 
L 617.5656 196.654594 
L 618.2352 171.064562 
L 618.9048 158.944964 
L 619.5744 151.951955 
L 620.244 147.252587 
L 620.9136 143.932469 
L 621.5832 141.530536 
L 622.2528 139.778536 
L 622.9224 138.504904 
L 623.592 137.607076 
L 624.2616 137.00908 
L 624.9312 136.640149 
L 625.6008 136.452434 
L 626.2704 136.422255 
L 627.6096 136.696701 
L 633.636 138.750423 
L 639.6624 141.002187 
L 643.0104 143.170773 
L 646.3584 145.582044 
L 649.7064 148.196876 
L 652.3848 150.63246 
L 654.3936 152.708045 
L 655.7328 154.339825 
L 657.7416 157.22424 
L 659.0808 159.522034 
L 660.42 162.291104 
L 661.7592 165.528321 
L 663.768 171.115406 
L 666.4464 179.551941 
L 670.464 192.430329 
L 672.4728 198.14013 
L 674.4816 203.01693 
L 676.4904 207.073354 
L 677.8296 209.365468 
L 679.1688 211.363838 
L 681.1776 213.875273 
L 683.1864 215.882437 
L 685.1952 217.461317 
L 687.204 218.674911 
L 689.2128 219.575265 
L 691.2216 220.205499 
L 693.2304 220.601507 
L 697.9176 221.099095 
L 700.596 221.122195 
L 703.2744 220.897201 
L 705.9528 220.455478 
L 709.3008 219.641378 
L 712.6488 218.577065 
L 715.9968 217.297838 
L 720.0144 215.519547 
L 724.7016 213.161279 
L 729.3888 210.549604 
L 734.7456 207.314449 
L 740.772 203.42429 
L 744.12 201.246546 
L 746.7984 199.883137 
L 748.8072 198.997887 
L 751.4856 198.172937 
L 752.1552 172.302628 
L 752.8248 160.099623 
L 753.4944 153.095241 
L 754.164 148.428712 
L 754.8336 145.182329 
L 755.5032 142.885743 
L 756.1728 141.260271 
L 756.8424 140.140873 
L 757.512 139.413033 
L 758.1816 138.98028 
L 758.8512 138.758092 
L 760.1904 138.678324 
L 762.1992 138.965717 
L 766.2168 139.675486 
L 772.2432 140.402126 
L 774.252 140.919776 
L 777.6 141.887936 
L 777.6 141.887936 
" clip-path="url(#p446c88a9a9)" style="fill: none; stroke: #4169e1; stroke-width: 1.5; stroke-linecap: square"/>
   </g>
   <g id="patch_3">
    <path d="M 108 256.32 
L 108 34.56 
" style="fill: none; stroke: #000000; stroke-width: 0.8; stroke-linejoin: miter; stroke-linecap: square"/>
   </g>
   <g id="patch_4">
    <path d="M 777.6 256.32 
L 777.6 34.56 
" style="fill: none; stroke: #000000; stroke-width: 0.8; stroke-linejoin: miter; stroke-linecap: square"/>
   </g>
   <g id="patch_5">
    <path d="M 108 256.32 
L 777.6 256.32 
" style="fill: none; stroke: #000000; stroke-width: 0.8; stroke-linejoin: miter; stroke-linecap: square"/>
   </g>
   <g id="patch_6">
    <path d="M 108 34.56 
L 777.6 34.56 
" style="fill: none; stroke: #000000; stroke-width: 0.8; stroke-linejoin: miter; stroke-linecap: square"/>
   </g>
   <g id="legend_1">
    <g id="patch_7">
     <path d="M 695.098438 71.91625 
L 770.6 71.91625 
Q 772.6 71.91625 772.6 69.91625 
L 772.6 41.56 
Q 772.6 39.56 770.6 39.56 
L 695.098438 39.56 
Q 693.098438 39.56 693.098438 41.56 
L 693.098438 69.91625 
Q 693.098438 71.91625 695.098438 71.91625 
z
" style="fill: #ffffff; opacity: 0.8; stroke: #cccccc; stroke-linejoin: miter"/>
    </g>
    <g id="line2d_25">
     <path d="M 697.098438 47.658437 
L 707.098438 47.658437 
L 717.098438 47.658437 
" style="fill: none; stroke: #000000; stroke-width: 1.5; stroke-linecap: square"/>
    </g>
    <g id="text_14">
     <!-- Soma -->
     <g transform="translate(725.098438 51.158437) scale(0.1 -0.1)">
      <defs>
       <path id="DejaVuSans-53" d="M 3425 4513 
L 3425 3897 
Q 3066 4069 2747 4153 
Q 2428 4238 2131 4238 
Q 1616 4238 1336 4038 
Q 1056 3838 1056 3469 
Q 1056 3159 1242 3001 
Q 1428 2844 1947 2747 
L 2328 2669 
Q 3034 2534 3370 2195 
Q 3706 1856 3706 1288 
Q 3706 609 3251 259 
Q 2797 -91 1919 -91 
Q 1588 -91 1214 -16 
Q 841 59 441 206 
L 441 856 
Q 825 641 1194 531 
Q 1563 422 1919 422 
Q 2459 422 2753 634 
Q 3047 847 3047 1241 
Q 3047 1584 2836 1778 
Q 2625 1972 2144 2069 
L 1759 2144 
Q 1053 2284 737 2584 
Q 422 2884 422 3419 
Q 422 4038 858 4394 
Q 1294 4750 2059 4750 
Q 2388 4750 2728 4690 
Q 3069 4631 3425 4513 
z
" transform="scale(0.015625)"/>
       <path id="DejaVuSans-6f" d="M 1959 3097 
Q 1497 3097 1228 2736 
Q 959 2375 959 1747 
Q 959 1119 1226 758 
Q 1494 397 1959 397 
Q 2419 397 2687 759 
Q 2956 1122 2956 1747 
Q 2956 2369 2687 2733 
Q 2419 3097 1959 3097 
z
M 1959 3584 
Q 2709 3584 3137 3096 
Q 3566 2609 3566 1747 
Q 3566 888 3137 398 
Q 2709 -91 1959 -91 
Q 1206 -91 779 398 
Q 353 888 353 1747 
Q 353 2609 779 3096 
Q 1206 3584 1959 3584 
z
" transform="scale(0.015625)"/>
       <path id="DejaVuSans-61" d="M 2194 1759 
Q 1497 1759 1228 1600 
Q 959 1441 959 1056 
Q 959 750 1161 570 
Q 1363 391 1709 391 
Q 2188 391 2477 730 
Q 2766 1069 2766 1631 
L 2766 1759 
L 2194 1759 
z
M 3341 1997 
L 3341 0 
L 2766 0 
L 2766 531 
Q 2569 213 2275 61 
Q 1981 -91 1556 -91 
Q 1019 -91 701 211 
Q 384 513 384 1019 
Q 384 1609 779 1909 
Q 1175 2209 1959 2209 
L 2766 2209 
L 2766 2266 
Q 2766 2663 2505 2880 
Q 2244 3097 1772 3097 
Q 1472 3097 1187 3025 
Q 903 2953 641 2809 
L 641 3341 
Q 956 3463 1253 3523 
Q 1550 3584 1831 3584 
Q 2591 3584 2966 3190 
Q 3341 2797 3341 1997 
z
" transform="scale(0.015625)"/>
      </defs>
      <use xlink:href="#DejaVuSans-53"/>
      <use xlink:href="#DejaVuSans-6f" x="63.476562"/>
      <use xlink:href="#DejaVuSans-6d" x="124.658203"/>
      <use xlink:href="#DejaVuSans-61" x="222.070312"/>
     </g>
    </g>
    <g id="line2d_26">
     <path d="M 697.098438 62.336562 
L 707.098438 62.336562 
L 717.098438 62.336562 
" style="fill: none; stroke: #4169e1; stroke-width: 1.5; stroke-linecap: square"/>
    </g>
    <g id="text_15">
     <!-- Dendrite -->
     <g transform="translate(725.098438 65.836562) scale(0.1 -0.1)">
      <defs>
       <path id="DejaVuSans-44" d="M 1259 4147 
L 1259 519 
L 2022 519 
Q 2988 519 3436 956 
Q 3884 1394 3884 2338 
Q 3884 3275 3436 3711 
Q 2988 4147 2022 4147 
L 1259 4147 
z
M 628 4666 
L 1925 4666 
Q 3281 4666 3915 4102 
Q 4550 3538 4550 2338 
Q 4550 1131 3912 565 
Q 3275 0 1925 0 
L 628 0 
L 628 4666 
z
" transform="scale(0.015625)"/>
       <path id="DejaVuSans-6e" d="M 3513 2113 
L 3513 0 
L 2938 0 
L 2938 2094 
Q 2938 2591 2744 2837 
Q 2550 3084 2163 3084 
Q 1697 3084 1428 2787 
Q 1159 2491 1159 1978 
L 1159 0 
L 581 0 
L 581 3500 
L 1159 3500 
L 1159 2956 
Q 1366 3272 1645 3428 
Q 1925 3584 2291 3584 
Q 2894 3584 3203 3211 
Q 3513 2838 3513 2113 
z
" transform="scale(0.015625)"/>
       <path id="DejaVuSans-64" d="M 2906 2969 
L 2906 4863 
L 3481 4863 
L 3481 0 
L 2906 0 
L 2906 525 
Q 2725 213 2448 61 
Q 2172 -91 1784 -91 
Q 1150 -91 751 415 
Q 353 922 353 1747 
Q 353 2572 751 3078 
Q 1150 3584 1784 3584 
Q 2172 3584 2448 3432 
Q 2725 3281 2906 2969 
z
M 947 1747 
Q 947 1113 1208 752 
Q 1469 391 1925 391 
Q 2381 391 2643 752 
Q 2906 1113 2906 1747 
Q 2906 2381 2643 2742 
Q 2381 3103 1925 3103 
Q 1469 3103 1208 2742 
Q 947 2381 947 1747 
z
" transform="scale(0.015625)"/>
       <path id="DejaVuSans-72" d="M 2631 2963 
Q 2534 3019 2420 3045 
Q 2306 3072 2169 3072 
Q 1681 3072 1420 2755 
Q 1159 2438 1159 1844 
L 1159 0 
L 581 0 
L 581 3500 
L 1159 3500 
L 1159 2956 
Q 1341 3275 1631 3429 
Q 1922 3584 2338 3584 
Q 2397 3584 2469 3576 
Q 2541 3569 2628 3553 
L 2631 2963 
z
" transform="scale(0.015625)"/>
       <path id="DejaVuSans-74" d="M 1172 4494 
L 1172 3500 
L 2356 3500 
L 2356 3053 
L 1172 3053 
L 1172 1153 
Q 1172 725 1289 603 
Q 1406 481 1766 481 
L 2356 481 
L 2356 0 
L 1766 0 
Q 1100 0 847 248 
Q 594 497 594 1153 
L 594 3053 
L 172 3053 
L 172 3500 
L 594 3500 
L 594 4494 
L 1172 4494 
z
" transform="scale(0.015625)"/>
      </defs>
      <use xlink:href="#DejaVuSans-44"/>
      <use xlink:href="#DejaVuSans-65" x="77.001953"/>
      <use xlink:href="#DejaVuSans-6e" x="138.525391"/>
      <use xlink:href="#DejaVuSans-64" x="201.904297"/>
      <use xlink:href="#DejaVuSans-72" x="265.380859"/>
      <use xlink:href="#DejaVuSans-69" x="306.494141"/>
      <use xlink:href="#DejaVuSans-74" x="334.277344"/>
      <use xlink:href="#DejaVuSans-65" x="373.486328"/>
     </g>
    </g>
   </g>
  </g>
 </g>
 <defs>
  <clipPath id="p446c88a9a9">
   <rect x="108" y="34.56" width="669.6" height="221.76"/>
  </clipPath>
 </defs>
</svg>
