<?xml version="1.0" encoding="utf-8" standalone="no"?>
<!DOCTYPE svg PUBLIC "-//W3C//DTD SVG 1.1//EN"
  "http://www.w3.org/Graphics/SVG/1.1/DTD/svg11.dtd">
<svg xmlns:xlink="http://www.w3.org/1999/xlink" width="864pt" height="288pt" viewBox="0 0 864 288" xmlns="http://www.w3.org/2000/svg" version="1.1">
 <metadata>
  <rdf:RDF xmlns:dc="http://purl.org/dc/elements/1.1/" xmlns:cc="http://creativecommons.org/ns#" xmlns:rdf="http://www.w3.org/1999/02/22-rdf-syntax-ns#">
   <cc:Work>
    <dc:type rdf:resource="http://purl.org/dc/dcmitype/StillImage"/>
    <dc:date>2024-04-23T19:17:36.207286</dc:date>
    <dc:format>image/svg+xml</dc:format>
    <dc:creator>
     <cc:Agent>
      <dc:title>Matplotlib v3.8.2, https://matplotlib.org/</dc:title>
     </cc:Agent>
    </dc:creator>
   </cc:Work>
  </rdf:RDF>
 </metadata>
 <defs>
  <style type="text/css">*{stroke-linejoin: round; stroke-linecap: butt}</style>
 </defs>
 <g id="figure_1">
  <g id="patch_1">
   <path d="M 0 288 
L 864 288 
L 864 0 
L 0 0 
z
" style="fill: #ffffff"/>
  </g>
  <g id="axes_1">
   <g id="patch_2">
    <path d="M 108 256.32 
L 777.6 256.32 
L 777.6 34.56 
L 108 34.56 
z
" style="fill: #ffffff"/>
   </g>
   <g id="matplotlib.axis_1">
    <g id="xtick_1">
     <g id="line2d_1">
      <path d="M 108 256.32 
L 108 34.56 
" clip-path="url(#p1e12f8cd09)" style="fill: none; stroke: #b0b0b0; stroke-width: 0.8; stroke-linecap: square"/>
     </g>
     <g id="line2d_2">
      <defs>
       <path id="m771ed7b60e" d="M 0 0 
L 0 3.5 
" style="stroke: #000000; stroke-width: 0.8"/>
      </defs>
      <g>
       <use xlink:href="#m771ed7b60e" x="108" y="256.32" style="stroke: #000000; stroke-width: 0.8"/>
      </g>
     </g>
     <g id="text_1">
      <!-- 100 -->
      <g transform="translate(94.63875 273.957812) scale(0.14 -0.14)">
       <defs>
        <path id="DejaVuSans-31" d="M 794 531 
L 1825 531 
L 1825 4091 
L 703 3866 
L 703 4441 
L 1819 4666 
L 2450 4666 
L 2450 531 
L 3481 531 
L 3481 0 
L 794 0 
L 794 531 
z
" transform="scale(0.015625)"/>
        <path id="DejaVuSans-30" d="M 2034 4250 
Q 1547 4250 1301 3770 
Q 1056 3291 1056 2328 
Q 1056 1369 1301 889 
Q 1547 409 2034 409 
Q 2525 409 2770 889 
Q 3016 1369 3016 2328 
Q 3016 3291 2770 3770 
Q 2525 4250 2034 4250 
z
M 2034 4750 
Q 2819 4750 3233 4129 
Q 3647 3509 3647 2328 
Q 3647 1150 3233 529 
Q 2819 -91 2034 -91 
Q 1250 -91 836 529 
Q 422 1150 422 2328 
Q 422 3509 836 4129 
Q 1250 4750 2034 4750 
z
" transform="scale(0.015625)"/>
       </defs>
       <use xlink:href="#DejaVuSans-31"/>
       <use xlink:href="#DejaVuSans-30" x="63.623047"/>
       <use xlink:href="#DejaVuSans-30" x="127.246094"/>
      </g>
     </g>
    </g>
    <g id="xtick_2">
     <g id="line2d_3">
      <path d="M 241.92 256.32 
L 241.92 34.56 
" clip-path="url(#p1e12f8cd09)" style="fill: none; stroke: #b0b0b0; stroke-width: 0.8; stroke-linecap: square"/>
     </g>
     <g id="line2d_4">
      <g>
       <use xlink:href="#m771ed7b60e" x="241.92" y="256.32" style="stroke: #000000; stroke-width: 0.8"/>
      </g>
     </g>
     <g id="text_2">
      <!-- 120 -->
      <g transform="translate(228.55875 273.957812) scale(0.14 -0.14)">
       <defs>
        <path id="DejaVuSans-32" d="M 1228 531 
L 3431 531 
L 3431 0 
L 469 0 
L 469 531 
Q 828 903 1448 1529 
Q 2069 2156 2228 2338 
Q 2531 2678 2651 2914 
Q 2772 3150 2772 3378 
Q 2772 3750 2511 3984 
Q 2250 4219 1831 4219 
Q 1534 4219 1204 4116 
Q 875 4013 500 3803 
L 500 4441 
Q 881 4594 1212 4672 
Q 1544 4750 1819 4750 
Q 2544 4750 2975 4387 
Q 3406 4025 3406 3419 
Q 3406 3131 3298 2873 
Q 3191 2616 2906 2266 
Q 2828 2175 2409 1742 
Q 1991 1309 1228 531 
z
" transform="scale(0.015625)"/>
       </defs>
       <use xlink:href="#DejaVuSans-31"/>
       <use xlink:href="#DejaVuSans-32" x="63.623047"/>
       <use xlink:href="#DejaVuSans-30" x="127.246094"/>
      </g>
     </g>
    </g>
    <g id="xtick_3">
     <g id="line2d_5">
      <path d="M 375.84 256.32 
L 375.84 34.56 
" clip-path="url(#p1e12f8cd09)" style="fill: none; stroke: #b0b0b0; stroke-width: 0.8; stroke-linecap: square"/>
     </g>
     <g id="line2d_6">
      <g>
       <use xlink:href="#m771ed7b60e" x="375.84" y="256.32" style="stroke: #000000; stroke-width: 0.8"/>
      </g>
     </g>
     <g id="text_3">
      <!-- 140 -->
      <g transform="translate(362.47875 273.957812) scale(0.14 -0.14)">
       <defs>
        <path id="DejaVuSans-34" d="M 2419 4116 
L 825 1625 
L 2419 1625 
L 2419 4116 
z
M 2253 4666 
L 3047 4666 
L 3047 1625 
L 3713 1625 
L 3713 1100 
L 3047 1100 
L 3047 0 
L 2419 0 
L 2419 1100 
L 313 1100 
L 313 1709 
L 2253 4666 
z
" transform="scale(0.015625)"/>
       </defs>
       <use xlink:href="#DejaVuSans-31"/>
       <use xlink:href="#DejaVuSans-34" x="63.623047"/>
       <use xlink:href="#DejaVuSans-30" x="127.246094"/>
      </g>
     </g>
    </g>
    <g id="xtick_4">
     <g id="line2d_7">
      <path d="M 509.76 256.32 
L 509.76 34.56 
" clip-path="url(#p1e12f8cd09)" style="fill: none; stroke: #b0b0b0; stroke-width: 0.8; stroke-linecap: square"/>
     </g>
     <g id="line2d_8">
      <g>
       <use xlink:href="#m771ed7b60e" x="509.76" y="256.32" style="stroke: #000000; stroke-width: 0.8"/>
      </g>
     </g>
     <g id="text_4">
      <!-- 160 -->
      <g transform="translate(496.39875 273.957812) scale(0.14 -0.14)">
       <defs>
        <path id="DejaVuSans-36" d="M 2113 2584 
Q 1688 2584 1439 2293 
Q 1191 2003 1191 1497 
Q 1191 994 1439 701 
Q 1688 409 2113 409 
Q 2538 409 2786 701 
Q 3034 994 3034 1497 
Q 3034 2003 2786 2293 
Q 2538 2584 2113 2584 
z
M 3366 4563 
L 3366 3988 
Q 3128 4100 2886 4159 
Q 2644 4219 2406 4219 
Q 1781 4219 1451 3797 
Q 1122 3375 1075 2522 
Q 1259 2794 1537 2939 
Q 1816 3084 2150 3084 
Q 2853 3084 3261 2657 
Q 3669 2231 3669 1497 
Q 3669 778 3244 343 
Q 2819 -91 2113 -91 
Q 1303 -91 875 529 
Q 447 1150 447 2328 
Q 447 3434 972 4092 
Q 1497 4750 2381 4750 
Q 2619 4750 2861 4703 
Q 3103 4656 3366 4563 
z
" transform="scale(0.015625)"/>
       </defs>
       <use xlink:href="#DejaVuSans-31"/>
       <use xlink:href="#DejaVuSans-36" x="63.623047"/>
       <use xlink:href="#DejaVuSans-30" x="127.246094"/>
      </g>
     </g>
    </g>
    <g id="xtick_5">
     <g id="line2d_9">
      <path d="M 643.68 256.32 
L 643.68 34.56 
" clip-path="url(#p1e12f8cd09)" style="fill: none; stroke: #b0b0b0; stroke-width: 0.8; stroke-linecap: square"/>
     </g>
     <g id="line2d_10">
      <g>
       <use xlink:href="#m771ed7b60e" x="643.68" y="256.32" style="stroke: #000000; stroke-width: 0.8"/>
      </g>
     </g>
     <g id="text_5">
      <!-- 180 -->
      <g transform="translate(630.31875 273.957812) scale(0.14 -0.14)">
       <defs>
        <path id="DejaVuSans-38" d="M 2034 2216 
Q 1584 2216 1326 1975 
Q 1069 1734 1069 1313 
Q 1069 891 1326 650 
Q 1584 409 2034 409 
Q 2484 409 2743 651 
Q 3003 894 3003 1313 
Q 3003 1734 2745 1975 
Q 2488 2216 2034 2216 
z
M 1403 2484 
Q 997 2584 770 2862 
Q 544 3141 544 3541 
Q 544 4100 942 4425 
Q 1341 4750 2034 4750 
Q 2731 4750 3128 4425 
Q 3525 4100 3525 3541 
Q 3525 3141 3298 2862 
Q 3072 2584 2669 2484 
Q 3125 2378 3379 2068 
Q 3634 1759 3634 1313 
Q 3634 634 3220 271 
Q 2806 -91 2034 -91 
Q 1263 -91 848 271 
Q 434 634 434 1313 
Q 434 1759 690 2068 
Q 947 2378 1403 2484 
z
M 1172 3481 
Q 1172 3119 1398 2916 
Q 1625 2713 2034 2713 
Q 2441 2713 2670 2916 
Q 2900 3119 2900 3481 
Q 2900 3844 2670 4047 
Q 2441 4250 2034 4250 
Q 1625 4250 1398 4047 
Q 1172 3844 1172 3481 
z
" transform="scale(0.015625)"/>
       </defs>
       <use xlink:href="#DejaVuSans-31"/>
       <use xlink:href="#DejaVuSans-38" x="63.623047"/>
       <use xlink:href="#DejaVuSans-30" x="127.246094"/>
      </g>
     </g>
    </g>
    <g id="xtick_6">
     <g id="line2d_11">
      <path d="M 777.6 256.32 
L 777.6 34.56 
" clip-path="url(#p1e12f8cd09)" style="fill: none; stroke: #b0b0b0; stroke-width: 0.8; stroke-linecap: square"/>
     </g>
     <g id="line2d_12">
      <g>
       <use xlink:href="#m771ed7b60e" x="777.6" y="256.32" style="stroke: #000000; stroke-width: 0.8"/>
      </g>
     </g>
     <g id="text_6">
      <!-- 200 -->
      <g transform="translate(764.23875 273.957812) scale(0.14 -0.14)">
       <use xlink:href="#DejaVuSans-32"/>
       <use xlink:href="#DejaVuSans-30" x="63.623047"/>
       <use xlink:href="#DejaVuSans-30" x="127.246094"/>
      </g>
     </g>
    </g>
    <g id="text_7">
     <!-- Time (ms) -->
     <g transform="translate(407.521094 291.507187) scale(0.14 -0.14)">
      <defs>
       <path id="DejaVuSans-54" d="M -19 4666 
L 3928 4666 
L 3928 4134 
L 2272 4134 
L 2272 0 
L 1638 0 
L 1638 4134 
L -19 4134 
L -19 4666 
z
" transform="scale(0.015625)"/>
       <path id="DejaVuSans-69" d="M 603 3500 
L 1178 3500 
L 1178 0 
L 603 0 
L 603 3500 
z
M 603 4863 
L 1178 4863 
L 1178 4134 
L 603 4134 
L 603 4863 
z
" transform="scale(0.015625)"/>
       <path id="DejaVuSans-6d" d="M 3328 2828 
Q 3544 3216 3844 3400 
Q 4144 3584 4550 3584 
Q 5097 3584 5394 3201 
Q 5691 2819 5691 2113 
L 5691 0 
L 5113 0 
L 5113 2094 
Q 5113 2597 4934 2840 
Q 4756 3084 4391 3084 
Q 3944 3084 3684 2787 
Q 3425 2491 3425 1978 
L 3425 0 
L 2847 0 
L 2847 2094 
Q 2847 2600 2669 2842 
Q 2491 3084 2119 3084 
Q 1678 3084 1418 2786 
Q 1159 2488 1159 1978 
L 1159 0 
L 581 0 
L 581 3500 
L 1159 3500 
L 1159 2956 
Q 1356 3278 1631 3431 
Q 1906 3584 2284 3584 
Q 2666 3584 2933 3390 
Q 3200 3197 3328 2828 
z
" transform="scale(0.015625)"/>
       <path id="DejaVuSans-65" d="M 3597 1894 
L 3597 1613 
L 953 1613 
Q 991 1019 1311 708 
Q 1631 397 2203 397 
Q 2534 397 2845 478 
Q 3156 559 3463 722 
L 3463 178 
Q 3153 47 2828 -22 
Q 2503 -91 2169 -91 
Q 1331 -91 842 396 
Q 353 884 353 1716 
Q 353 2575 817 3079 
Q 1281 3584 2069 3584 
Q 2775 3584 3186 3129 
Q 3597 2675 3597 1894 
z
M 3022 2063 
Q 3016 2534 2758 2815 
Q 2500 3097 2075 3097 
Q 1594 3097 1305 2825 
Q 1016 2553 972 2059 
L 3022 2063 
z
" transform="scale(0.015625)"/>
       <path id="DejaVuSans-20" transform="scale(0.015625)"/>
       <path id="DejaVuSans-28" d="M 1984 4856 
Q 1566 4138 1362 3434 
Q 1159 2731 1159 2009 
Q 1159 1288 1364 580 
Q 1569 -128 1984 -844 
L 1484 -844 
Q 1016 -109 783 600 
Q 550 1309 550 2009 
Q 550 2706 781 3412 
Q 1013 4119 1484 4856 
L 1984 4856 
z
" transform="scale(0.015625)"/>
       <path id="DejaVuSans-73" d="M 2834 3397 
L 2834 2853 
Q 2591 2978 2328 3040 
Q 2066 3103 1784 3103 
Q 1356 3103 1142 2972 
Q 928 2841 928 2578 
Q 928 2378 1081 2264 
Q 1234 2150 1697 2047 
L 1894 2003 
Q 2506 1872 2764 1633 
Q 3022 1394 3022 966 
Q 3022 478 2636 193 
Q 2250 -91 1575 -91 
Q 1294 -91 989 -36 
Q 684 19 347 128 
L 347 722 
Q 666 556 975 473 
Q 1284 391 1588 391 
Q 1994 391 2212 530 
Q 2431 669 2431 922 
Q 2431 1156 2273 1281 
Q 2116 1406 1581 1522 
L 1381 1569 
Q 847 1681 609 1914 
Q 372 2147 372 2553 
Q 372 3047 722 3315 
Q 1072 3584 1716 3584 
Q 2034 3584 2315 3537 
Q 2597 3491 2834 3397 
z
" transform="scale(0.015625)"/>
       <path id="DejaVuSans-29" d="M 513 4856 
L 1013 4856 
Q 1481 4119 1714 3412 
Q 1947 2706 1947 2009 
Q 1947 1309 1714 600 
Q 1481 -109 1013 -844 
L 513 -844 
Q 928 -128 1133 580 
Q 1338 1288 1338 2009 
Q 1338 2731 1133 3434 
Q 928 4138 513 4856 
z
" transform="scale(0.015625)"/>
      </defs>
      <use xlink:href="#DejaVuSans-54"/>
      <use xlink:href="#DejaVuSans-69" x="57.958984"/>
      <use xlink:href="#DejaVuSans-6d" x="85.742188"/>
      <use xlink:href="#DejaVuSans-65" x="183.154297"/>
      <use xlink:href="#DejaVuSans-20" x="244.677734"/>
      <use xlink:href="#DejaVuSans-28" x="276.464844"/>
      <use xlink:href="#DejaVuSans-6d" x="315.478516"/>
      <use xlink:href="#DejaVuSans-73" x="412.890625"/>
      <use xlink:href="#DejaVuSans-29" x="464.990234"/>
     </g>
    </g>
   </g>
   <g id="matplotlib.axis_2">
    <g id="ytick_1">
     <g id="line2d_13">
      <path d="M 108 225.043524 
L 777.6 225.043524 
" clip-path="url(#p1e12f8cd09)" style="fill: none; stroke: #b0b0b0; stroke-width: 0.8; stroke-linecap: square"/>
     </g>
     <g id="line2d_14">
      <defs>
       <path id="me31aae71df" d="M 0 0 
L -3.5 0 
" style="stroke: #000000; stroke-width: 0.8"/>
      </defs>
      <g>
       <use xlink:href="#me31aae71df" x="108" y="225.043524" style="stroke: #000000; stroke-width: 0.8"/>
      </g>
     </g>
     <g id="text_8">
      <!-- −60 -->
      <g transform="translate(71.453437 230.36243) scale(0.14 -0.14)">
       <defs>
        <path id="DejaVuSans-2212" d="M 678 2272 
L 4684 2272 
L 4684 1741 
L 678 1741 
L 678 2272 
z
" transform="scale(0.015625)"/>
       </defs>
       <use xlink:href="#DejaVuSans-2212"/>
       <use xlink:href="#DejaVuSans-36" x="83.789062"/>
       <use xlink:href="#DejaVuSans-30" x="147.412109"/>
      </g>
     </g>
    </g>
    <g id="ytick_2">
     <g id="line2d_15">
      <path d="M 108 182.71812 
L 777.6 182.71812 
" clip-path="url(#p1e12f8cd09)" style="fill: none; stroke: #b0b0b0; stroke-width: 0.8; stroke-linecap: square"/>
     </g>
     <g id="line2d_16">
      <g>
       <use xlink:href="#me31aae71df" x="108" y="182.71812" style="stroke: #000000; stroke-width: 0.8"/>
      </g>
     </g>
     <g id="text_9">
      <!-- −40 -->
      <g transform="translate(71.453437 188.037027) scale(0.14 -0.14)">
       <use xlink:href="#DejaVuSans-2212"/>
       <use xlink:href="#DejaVuSans-34" x="83.789062"/>
       <use xlink:href="#DejaVuSans-30" x="147.412109"/>
      </g>
     </g>
    </g>
    <g id="ytick_3">
     <g id="line2d_17">
      <path d="M 108 140.392717 
L 777.6 140.392717 
" clip-path="url(#p1e12f8cd09)" style="fill: none; stroke: #b0b0b0; stroke-width: 0.8; stroke-linecap: square"/>
     </g>
     <g id="line2d_18">
      <g>
       <use xlink:href="#me31aae71df" x="108" y="140.392717" style="stroke: #000000; stroke-width: 0.8"/>
      </g>
     </g>
     <g id="text_10">
      <!-- −20 -->
      <g transform="translate(71.453437 145.711623) scale(0.14 -0.14)">
       <use xlink:href="#DejaVuSans-2212"/>
       <use xlink:href="#DejaVuSans-32" x="83.789062"/>
       <use xlink:href="#DejaVuSans-30" x="147.412109"/>
      </g>
     </g>
    </g>
    <g id="ytick_4">
     <g id="line2d_19">
      <path d="M 108 98.067314 
L 777.6 98.067314 
" clip-path="url(#p1e12f8cd09)" style="fill: none; stroke: #b0b0b0; stroke-width: 0.8; stroke-linecap: square"/>
     </g>
     <g id="line2d_20">
      <g>
       <use xlink:href="#me31aae71df" x="108" y="98.067314" style="stroke: #000000; stroke-width: 0.8"/>
      </g>
     </g>
     <g id="text_11">
      <!-- 0 -->
      <g transform="translate(92.0925 103.38622) scale(0.14 -0.14)">
       <use xlink:href="#DejaVuSans-30"/>
      </g>
     </g>
    </g>
    <g id="ytick_5">
     <g id="line2d_21">
      <path d="M 108 55.741911 
L 777.6 55.741911 
" clip-path="url(#p1e12f8cd09)" style="fill: none; stroke: #b0b0b0; stroke-width: 0.8; stroke-linecap: square"/>
     </g>
     <g id="line2d_22">
      <g>
       <use xlink:href="#me31aae71df" x="108" y="55.741911" style="stroke: #000000; stroke-width: 0.8"/>
      </g>
     </g>
     <g id="text_12">
      <!-- 20 -->
      <g transform="translate(83.185 61.060817) scale(0.14 -0.14)">
       <use xlink:href="#DejaVuSans-32"/>
       <use xlink:href="#DejaVuSans-30" x="63.623047"/>
      </g>
     </g>
    </g>
    <g id="text_13">
     <!-- $V_{m}$ (mV) -->
     <g transform="translate(64.541875 174.49) rotate(-90) scale(0.14 -0.14)">
      <defs>
       <path id="DejaVuSans-Oblique-56" d="M 1319 0 
L 500 4666 
L 1119 4666 
L 1797 653 
L 4063 4666 
L 4750 4666 
L 2053 0 
L 1319 0 
z
" transform="scale(0.015625)"/>
       <path id="DejaVuSans-Oblique-6d" d="M 5747 2113 
L 5338 0 
L 4763 0 
L 5166 2094 
Q 5191 2228 5203 2325 
Q 5216 2422 5216 2491 
Q 5216 2772 5059 2928 
Q 4903 3084 4622 3084 
Q 4203 3084 3875 2770 
Q 3547 2456 3450 1953 
L 3066 0 
L 2491 0 
L 2900 2094 
Q 2925 2209 2937 2307 
Q 2950 2406 2950 2484 
Q 2950 2769 2794 2926 
Q 2638 3084 2363 3084 
Q 1938 3084 1609 2770 
Q 1281 2456 1184 1953 
L 800 0 
L 225 0 
L 909 3500 
L 1484 3500 
L 1375 2956 
Q 1609 3263 1923 3423 
Q 2238 3584 2597 3584 
Q 2978 3584 3223 3384 
Q 3469 3184 3519 2828 
Q 3781 3197 4126 3390 
Q 4472 3584 4856 3584 
Q 5306 3584 5551 3325 
Q 5797 3066 5797 2591 
Q 5797 2488 5784 2364 
Q 5772 2241 5747 2113 
z
" transform="scale(0.015625)"/>
       <path id="DejaVuSans-56" d="M 1831 0 
L 50 4666 
L 709 4666 
L 2188 738 
L 3669 4666 
L 4325 4666 
L 2547 0 
L 1831 0 
z
" transform="scale(0.015625)"/>
      </defs>
      <use xlink:href="#DejaVuSans-Oblique-56" transform="translate(0 0.125)"/>
      <use xlink:href="#DejaVuSans-Oblique-6d" transform="translate(68.408203 -16.28125) scale(0.7)"/>
      <use xlink:href="#DejaVuSans-20" transform="translate(139.331055 0.125)"/>
      <use xlink:href="#DejaVuSans-28" transform="translate(171.118164 0.125)"/>
      <use xlink:href="#DejaVuSans-6d" transform="translate(210.131836 0.125)"/>
      <use xlink:href="#DejaVuSans-56" transform="translate(307.543945 0.125)"/>
      <use xlink:href="#DejaVuSans-29" transform="translate(375.952148 0.125)"/>
     </g>
    </g>
   </g>
   <g id="line2d_23">
    <path d="M 108 223.792312 
L 110.0088 224.11129 
L 111.348 225.498949 
L 112.0176 225.843476 
L 112.6872 226.750047 
L 113.3568 227.457824 
L 114.0264 227.876873 
L 115.3656 228.367085 
L 117.3744 228.725032 
L 118.7136 229.415382 
L 119.3832 229.5835 
L 120.7224 230.326853 
L 121.392 230.506678 
L 122.7312 231.249878 
L 124.0704 231.538266 
L 125.4096 232.195122 
L 126.7488 232.432372 
L 128.7576 232.489339 
L 130.0968 233.510211 
L 131.436 233.845474 
L 133.4448 233.930203 
L 134.1144 233.906606 
L 135.4536 234.338604 
L 136.7928 234.410722 
L 137.4624 234.385951 
L 138.8016 234.799243 
L 140.1408 234.852016 
L 141.48 234.76135 
L 142.1496 234.974964 
L 142.8192 235.406001 
L 143.4888 235.671044 
L 144.828 235.821178 
L 146.8368 235.739967 
L 149.5152 235.398391 
L 152.8632 234.758315 
L 156.8808 233.767467 
L 160.8984 232.567066 
L 161.568 232.347948 
L 162.9072 232.475871 
L 164.2464 232.270696 
L 166.9248 231.555897 
L 169.6032 230.630278 
L 171.612 229.498215 
L 176.9688 226.376736 
L 187.0128 220.600593 
L 195.048 215.762524 
L 196.3872 215.786857 
L 197.7264 215.385246 
L 199.0656 215.665045 
L 200.4048 215.457208 
L 202.4136 214.831368 
L 205.7616 213.503684 
L 209.1096 212.00684 
L 210.4488 212.267822 
L 211.788 212.072903 
L 213.7968 211.478781 
L 217.1448 210.220035 
L 217.8144 209.945611 
L 218.484 210.154334 
L 219.1536 210.783317 
L 219.8232 211.187977 
L 220.4928 211.355243 
L 221.1624 211.406014 
L 223.8408 213.282454 
L 224.5104 213.523505 
L 225.8496 214.550123 
L 227.1888 214.944037 
L 228.528 215.068637 
L 229.8672 215.864669 
L 231.2064 216.135433 
L 232.5456 216.973759 
L 233.8848 217.272601 
L 234.5544 217.745812 
L 235.224 218.52538 
L 235.8936 219.062798 
L 236.5632 219.371678 
L 237.9024 220.427028 
L 239.2416 220.884911 
L 239.9112 221.009497 
L 240.5808 221.480525 
L 241.2504 222.232909 
L 241.92 222.75607 
L 243.2592 223.269705 
L 243.9288 223.41213 
L 245.268 224.248584 
L 246.6072 224.596206 
L 248.616 224.764239 
L 250.6248 224.720221 
L 251.964 225.2729 
L 252.6336 226.078686 
L 253.3032 226.690152 
L 253.9728 227.01573 
L 255.312 227.332857 
L 257.3208 227.464438 
L 259.9992 227.319071 
L 260.6688 227.587185 
L 261.3384 228.455534 
L 262.008 229.06827 
L 262.6776 229.382892 
L 264.0168 230.255249 
L 264.6864 230.465092 
L 265.356 231.216685 
L 266.0256 231.799466 
L 267.3648 232.331492 
L 268.704 232.564598 
L 270.0432 232.65781 
L 271.3824 233.203269 
L 272.7216 233.366734 
L 274.7304 233.343047 
L 275.4 233.296043 
L 276.7392 233.702308 
L 278.0784 233.753224 
L 278.748 233.719518 
L 282.096 234.808589 
L 284.1048 234.816029 
L 285.444 234.707772 
L 286.7832 235.073569 
L 288.1224 235.100956 
L 290.8008 234.830179 
L 294.1488 234.227396 
L 298.1664 233.238763 
L 302.184 232.013848 
L 303.5232 231.509175 
L 305.532 230.38378 
L 310.8888 227.300679 
L 320.2632 221.970182 
L 329.6376 216.348551 
L 341.6904 208.859163 
L 343.0296 208.955603 
L 344.3688 208.62013 
L 345.708 208.097831 
L 347.0472 208.463144 
L 348.3864 208.35389 
L 350.3952 207.823324 
L 353.0736 206.823654 
L 355.752 205.592009 
L 357.7608 204.522749 
L 358.4304 204.117026 
L 359.1 204.216966 
L 360.4392 205.368147 
L 361.1088 205.683115 
L 361.7784 205.856891 
L 363.1176 207.914615 
L 363.7872 208.514463 
L 365.1264 209.1615 
L 366.4656 209.44877 
L 367.1352 209.513679 
L 369.144 213.698455 
L 369.8136 214.369451 
L 371.8224 215.873401 
L 372.492 216.432314 
L 373.1616 216.795156 
L 375.84 219.334557 
L 377.1792 219.979991 
L 377.8488 220.960093 
L 378.5184 222.492928 
L 379.188 223.568332 
L 379.8576 224.23342 
L 381.1968 225.070921 
L 381.8664 225.363332 
L 383.2056 226.424929 
L 385.2144 227.498924 
L 385.884 227.917996 
L 389.232 230.911029 
L 389.9016 231.265074 
L 391.2408 232.258763 
L 392.58 232.752033 
L 393.9192 233.031592 
L 394.5888 233.415979 
L 395.2584 234.00622 
L 395.928 234.413769 
L 396.5976 234.655517 
L 397.9368 235.924722 
L 399.276 236.45805 
L 400.6152 236.719365 
L 401.2848 236.797772 
L 403.9632 238.034801 
L 404.6328 238.190316 
L 405.972 238.796071 
L 407.3112 239.016533 
L 409.32 239.079186 
L 411.9984 238.9243 
L 415.3464 238.494877 
L 419.364 237.740202 
L 423.3816 236.766512 
L 427.3992 235.586384 
L 432.0864 233.969956 
L 436.7736 232.125269 
L 438.1128 231.394597 
L 447.4872 225.376899 
L 460.2096 217.407451 
L 474.2712 208.339492 
L 474.9408 207.887312 
L 476.28 207.961697 
L 477.6192 207.61085 
L 479.628 206.74396 
L 482.3064 205.294504 
L 484.3152 203.988811 
L 486.324 202.364846 
L 487.6632 200.861701 
L 488.3328 199.877856 
L 489.672 196.897366 
L 490.3416 193.266784 
L 491.0112 177.041513 
L 491.6808 85.778477 
L 492.3504 47.083673 
L 493.02 72.296428 
L 493.6896 92.721532 
L 495.0288 120.479747 
L 496.368 142.636886 
L 499.716 192.51493 
L 500.3856 199.776983 
L 501.0552 204.535583 
L 501.7248 207.621106 
L 503.064 212.488522 
L 505.7424 219.151003 
L 506.412 220.591271 
L 508.4208 223.607909 
L 509.0904 224.220321 
L 511.0992 227.407992 
L 512.4384 228.391568 
L 513.108 228.723813 
L 514.4472 229.762922 
L 515.7864 230.295288 
L 517.1256 230.599316 
L 517.7952 231.003324 
L 518.4648 231.619935 
L 519.1344 232.043515 
L 519.804 232.292817 
L 521.8128 233.592991 
L 522.4824 233.959011 
L 523.152 234.177973 
L 525.1608 236.212235 
L 525.8304 236.528026 
L 527.1696 237.368588 
L 528.5088 237.753091 
L 530.5176 237.999696 
L 533.196 238.018748 
L 534.5352 237.936279 
L 535.8744 238.739636 
L 537.2136 238.954316 
L 539.2224 238.929613 
L 541.9008 238.647409 
L 543.24 238.439029 
L 544.5792 238.671055 
L 545.9184 238.604018 
L 548.5968 238.196707 
L 552.6144 237.322776 
L 556.632 236.235159 
L 561.3192 234.724795 
L 566.0064 232.977668 
L 570.6936 231.021785 
L 572.0328 230.263103 
L 580.7376 224.504215 
L 596.1384 214.731717 
L 597.4776 214.7404 
L 598.8168 214.318406 
L 601.4952 213.104562 
L 604.1736 211.753839 
L 605.5128 211.953188 
L 606.852 211.695706 
L 608.8608 211.015761 
L 610.8696 210.212047 
L 612.2088 211.452515 
L 612.8784 211.6802 
L 614.2176 211.752194 
L 616.896 213.494933 
L 617.5656 214.600579 
L 618.2352 215.454357 
L 618.9048 215.937087 
L 620.244 216.447416 
L 621.5832 216.678827 
L 623.592 216.753954 
L 625.6008 216.623179 
L 626.94 217.243126 
L 628.2792 217.385466 
L 630.9576 219.07376 
L 631.6272 219.693094 
L 632.2968 220.149889 
L 632.9664 220.411068 
L 635.6448 222.49562 
L 636.984 222.968231 
L 638.3232 223.186771 
L 639.6624 223.272317 
L 640.332 223.65079 
L 641.0016 224.310699 
L 641.6712 224.758064 
L 642.3408 225.005505 
L 644.3496 226.468279 
L 647.028 229.361147 
L 647.6976 229.873465 
L 648.3672 230.203729 
L 649.0368 230.749628 
L 651.0456 232.85673 
L 652.3848 233.475409 
L 653.724 234.841908 
L 654.3936 235.477391 
L 655.0632 235.943615 
L 656.4024 236.463893 
L 658.4112 236.847794 
L 660.42 236.986751 
L 663.0984 236.920976 
L 664.4376 237.291722 
L 665.7768 237.334934 
L 666.4464 237.301648 
L 667.7856 237.660923 
L 669.1248 237.685019 
L 671.8032 237.398364 
L 675.1512 236.757833 
L 679.1688 235.727218 
L 683.856 234.274126 
L 685.1952 233.821274 
L 686.5344 233.912466 
L 687.8736 233.687471 
L 690.552 232.960258 
L 694.5696 231.624902 
L 699.2568 229.82928 
L 704.6136 227.523712 
L 705.9528 226.753078 
L 714.6576 220.964529 
L 736.0848 207.297886 
L 739.4328 204.944212 
L 741.4416 203.313086 
L 742.7808 202.040244 
L 744.12 200.382343 
L 744.7896 199.280911 
L 745.4592 197.744163 
L 746.1288 195.227865 
L 746.7984 189.140543 
L 747.468 159.609081 
L 748.1376 60.848934 
L 748.8072 61.813576 
L 749.4768 82.529021 
L 750.1464 97.589635 
L 751.4856 121.203318 
L 754.8336 173.446959 
L 756.1728 190.030886 
L 756.8424 196.799484 
L 757.512 201.589957 
L 758.1816 205.123936 
L 758.8512 207.555023 
L 759.5208 209.2302 
L 760.1904 210.456472 
L 760.86 211.380891 
L 761.5296 212.082421 
L 762.1992 213.026046 
L 764.208 215.262641 
L 764.8776 215.65024 
L 766.2168 216.0446 
L 767.556 216.138145 
L 768.8952 216.031584 
L 770.904 215.610606 
L 771.5736 215.418263 
L 772.9128 215.776637 
L 773.5824 215.749516 
L 774.252 216.501706 
L 774.9216 217.069634 
L 775.5912 217.314147 
L 776.9304 217.428249 
L 777.6 217.812652 
L 777.6 217.812652 
" clip-path="url(#p1e12f8cd09)" style="fill: none; stroke: #000000; stroke-width: 1.5; stroke-linecap: square"/>
   </g>
   <g id="line2d_24">
    <path d="M 108 137.956583 
L 112.6872 139.88524 
L 124.74 146.307256 
L 130.0968 149.715712 
L 133.4448 152.320903 
L 136.1232 154.599651 
L 138.8016 157.249433 
L 140.8104 159.593679 
L 142.8192 162.297714 
L 144.1584 164.481737 
L 146.1672 168.33542 
L 148.176 172.816748 
L 150.8544 179.565836 
L 154.872 189.83714 
L 156.8808 194.32167 
L 158.8896 198.156401 
L 160.8984 201.333886 
L 162.9072 203.959424 
L 164.916 206.218734 
L 166.9248 208.066771 
L 168.9336 209.517516 
L 169.6032 173.87559 
L 170.2728 158.80485 
L 170.9424 152.06861 
L 171.612 147.935009 
L 172.2816 145.180699 
L 172.9512 143.23045 
L 173.6208 141.783906 
L 174.2904 140.665858 
L 175.6296 139.018981 
L 176.9688 137.807171 
L 178.9776 136.392865 
L 180.9864 135.2573 
L 183.6648 134.043246 
L 186.3432 133.091481 
L 189.6912 132.171678 
L 193.7088 131.339596 
L 196.3872 130.938954 
L 199.0656 130.78312 
L 208.44 130.62558 
L 211.1184 130.632576 
L 220.4928 131.115003 
L 223.1712 131.639981 
L 231.876 133.947097 
L 235.8936 135.146073 
L 241.92 137.426867 
L 247.9464 139.879341 
L 253.9728 142.183456 
L 257.9904 144.133216 
L 262.008 145.990178 
L 264.0168 147.30434 
L 266.0256 148.828192 
L 270.0432 152.347694 
L 272.7216 154.913142 
L 275.4 157.776267 
L 277.4088 160.238424 
L 279.4176 163.116814 
L 280.7568 165.363996 
L 282.096 167.975972 
L 284.1048 172.509043 
L 286.1136 177.611299 
L 292.14 193.6674 
L 294.1488 198.027591 
L 296.1576 201.681039 
L 297.4968 203.745206 
L 298.836 205.537798 
L 300.1752 207.083082 
L 302.184 208.98899 
L 302.8536 209.525438 
L 303.5232 173.932965 
L 304.1928 158.9209 
L 304.8624 152.2672 
L 305.532 148.205507 
L 306.2016 145.506734 
L 306.8712 143.597576 
L 307.5408 142.179032 
L 308.88 140.186774 
L 310.2192 138.79084 
L 311.5584 137.69109 
L 313.5672 136.347256 
L 315.576 135.24839 
L 318.2544 134.072426 
L 320.9328 133.153077 
L 324.2808 132.265319 
L 328.2984 131.461104 
L 332.9856 130.756389 
L 339.012 130.08213 
L 343.0296 129.767453 
L 347.0472 129.813888 
L 353.7432 130.161842 
L 361.1088 130.399037 
L 363.1176 130.874462 
L 369.144 132.934321 
L 373.1616 134.839797 
L 377.8488 137.00197 
L 379.8576 138.182614 
L 383.2056 140.170827 
L 388.5624 143.263802 
L 393.2496 146.560167 
L 395.928 148.49441 
L 397.9368 150.186144 
L 401.2848 153.459246 
L 403.2936 155.632127 
L 405.3024 158.187429 
L 407.3112 161.233911 
L 409.32 164.814553 
L 411.3288 169.036234 
L 413.3376 174.003316 
L 415.3464 179.632112 
L 420.0336 193.063958 
L 422.0424 197.965522 
L 424.0512 202.111392 
L 425.3904 204.46458 
L 426.7296 206.513553 
L 428.0688 208.28423 
L 429.408 209.803085 
L 430.7472 211.095367 
L 432.756 212.659115 
L 434.7648 213.833347 
L 436.7736 214.675472 
L 437.4432 177.582882 
L 438.1128 161.289303 
L 438.7824 154.032879 
L 439.452 149.543982 
L 440.1216 146.528034 
L 440.7912 144.374603 
L 441.4608 142.763403 
L 442.1304 141.507324 
L 443.4696 139.640831 
L 444.8088 138.263914 
L 446.148 137.157991 
L 448.1568 135.812998 
L 450.1656 134.731859 
L 452.844 133.592885 
L 455.5224 132.708662 
L 458.8704 131.852721 
L 462.888 131.069723 
L 468.2448 130.287879 
L 474.9408 129.559459 
L 477.6192 129.461997 
L 483.6456 129.35293 
L 487.6632 129.065872 
L 489.672 128.695786 
L 490.3416 128.441789 
L 491.0112 127.738694 
L 491.6808 124.435226 
L 493.02 113.99132 
L 493.6896 110.812671 
L 494.3592 109.34173 
L 495.0288 109.10894 
L 495.6984 109.681135 
L 496.368 110.758781 
L 497.7072 113.775561 
L 499.716 119.422084 
L 501.7248 125.047799 
L 503.064 127.978424 
L 504.4032 130.284926 
L 505.7424 132.176473 
L 507.7512 134.517757 
L 509.76 136.430543 
L 512.4384 138.703902 
L 515.1168 140.597388 
L 517.7952 142.208953 
L 521.8128 144.672106 
L 524.4912 146.507565 
L 527.1696 148.689784 
L 535.2048 155.710586 
L 537.2136 157.925578 
L 539.2224 160.505658 
L 541.2312 163.453042 
L 543.24 166.877173 
L 544.5792 169.536641 
L 545.9184 172.576614 
L 547.9272 177.749366 
L 553.9536 194.113847 
L 555.9624 198.612262 
L 557.9712 202.39015 
L 559.3104 204.524671 
L 560.6496 206.376523 
L 561.9888 207.970137 
L 563.328 209.329948 
L 565.3368 210.981292 
L 567.3456 212.227728 
L 569.3544 213.128377 
L 570.6936 213.561484 
L 571.3632 176.720702 
L 572.0328 160.627281 
L 572.7024 153.431831 
L 573.372 148.971281 
L 574.0416 145.970576 
L 574.7112 143.827371 
L 575.3808 142.224328 
L 576.0504 140.976789 
L 577.3896 139.129979 
L 578.7288 137.776129 
L 580.068 136.69512 
L 582.0768 135.383559 
L 584.0856 134.3291 
L 586.764 133.214106 
L 589.4424 132.344753 
L 592.7904 131.499925 
L 596.808 130.737727 
L 600.156 130.439968 
L 606.1824 130.08707 
L 612.2088 130.16075 
L 615.5568 130.625135 
L 617.5656 131.056832 
L 622.9224 132.539773 
L 630.9576 134.150398 
L 634.3056 135.249541 
L 639.6624 137.117978 
L 642.3408 138.025372 
L 645.0192 139.141388 
L 647.6976 140.577293 
L 651.0456 142.571783 
L 655.0632 145.285409 
L 659.0808 148.130534 
L 665.7768 152.692716 
L 668.4552 154.882143 
L 671.1336 157.417901 
L 673.812 160.275078 
L 675.8208 162.708869 
L 677.8296 165.476556 
L 679.8384 168.65297 
L 681.8472 172.281487 
L 684.5256 177.739438 
L 687.8736 185.134171 
L 690.552 190.849614 
L 692.5608 194.58488 
L 694.5696 197.748909 
L 696.5784 200.34883 
L 698.5872 202.430915 
L 700.596 204.054439 
L 702.6048 205.278671 
L 704.6136 206.157431 
L 705.2832 171.244896 
L 705.9528 156.861853 
L 706.6224 150.360155 
L 707.292 146.357213 
L 707.9616 143.674289 
L 708.6312 141.761662 
L 709.3008 140.333888 
L 709.9704 139.225103 
L 711.3096 137.589713 
L 712.6488 136.39437 
L 714.6576 135.016529 
L 716.6664 133.920646 
L 719.3448 132.748365 
L 722.0232 131.822483 
L 725.3712 130.917856 
L 729.3888 130.088895 
L 734.076 129.351638 
L 745.4592 127.76075 
L 746.1288 127.542043 
L 746.7984 127.160244 
L 747.468 125.971546 
L 748.1376 121.889089 
L 748.8072 116.702461 
L 749.4768 112.563704 
L 750.1464 110.072218 
L 750.816 108.988433 
L 751.4856 108.905492 
L 752.1552 109.489936 
L 752.8248 110.545085 
L 754.164 113.508587 
L 758.8512 125.186493 
L 760.1904 127.454972 
L 761.5296 129.118931 
L 762.8688 130.379302 
L 764.8776 131.859684 
L 766.8864 132.95065 
L 768.8952 133.721337 
L 770.904 134.270074 
L 774.9216 135.233284 
L 777.6 136.089972 
L 777.6 136.089972 
" clip-path="url(#p1e12f8cd09)" style="fill: none; stroke: #4169e1; stroke-width: 1.5; stroke-linecap: square"/>
   </g>
   <g id="patch_3">
    <path d="M 108 256.32 
L 108 34.56 
" style="fill: none; stroke: #000000; stroke-width: 0.8; stroke-linejoin: miter; stroke-linecap: square"/>
   </g>
   <g id="patch_4">
    <path d="M 777.6 256.32 
L 777.6 34.56 
" style="fill: none; stroke: #000000; stroke-width: 0.8; stroke-linejoin: miter; stroke-linecap: square"/>
   </g>
   <g id="patch_5">
    <path d="M 108 256.32 
L 777.6 256.32 
" style="fill: none; stroke: #000000; stroke-width: 0.8; stroke-linejoin: miter; stroke-linecap: square"/>
   </g>
   <g id="patch_6">
    <path d="M 108 34.56 
L 777.6 34.56 
" style="fill: none; stroke: #000000; stroke-width: 0.8; stroke-linejoin: miter; stroke-linecap: square"/>
   </g>
   <g id="legend_1">
    <g id="patch_7">
     <path d="M 115 71.91625 
L 190.501563 71.91625 
Q 192.501563 71.91625 192.501563 69.91625 
L 192.501563 41.56 
Q 192.501563 39.56 190.501563 39.56 
L 115 39.56 
Q 113 39.56 113 41.56 
L 113 69.91625 
Q 113 71.91625 115 71.91625 
z
" style="fill: #ffffff; opacity: 0.8; stroke: #cccccc; stroke-linejoin: miter"/>
    </g>
    <g id="line2d_25">
     <path d="M 117 47.658437 
L 127 47.658437 
L 137 47.658437 
" style="fill: none; stroke: #000000; stroke-width: 1.5; stroke-linecap: square"/>
    </g>
    <g id="text_14">
     <!-- Soma -->
     <g transform="translate(145 51.158437) scale(0.1 -0.1)">
      <defs>
       <path id="DejaVuSans-53" d="M 3425 4513 
L 3425 3897 
Q 3066 4069 2747 4153 
Q 2428 4238 2131 4238 
Q 1616 4238 1336 4038 
Q 1056 3838 1056 3469 
Q 1056 3159 1242 3001 
Q 1428 2844 1947 2747 
L 2328 2669 
Q 3034 2534 3370 2195 
Q 3706 1856 3706 1288 
Q 3706 609 3251 259 
Q 2797 -91 1919 -91 
Q 1588 -91 1214 -16 
Q 841 59 441 206 
L 441 856 
Q 825 641 1194 531 
Q 1563 422 1919 422 
Q 2459 422 2753 634 
Q 3047 847 3047 1241 
Q 3047 1584 2836 1778 
Q 2625 1972 2144 2069 
L 1759 2144 
Q 1053 2284 737 2584 
Q 422 2884 422 3419 
Q 422 4038 858 4394 
Q 1294 4750 2059 4750 
Q 2388 4750 2728 4690 
Q 3069 4631 3425 4513 
z
" transform="scale(0.015625)"/>
       <path id="DejaVuSans-6f" d="M 1959 3097 
Q 1497 3097 1228 2736 
Q 959 2375 959 1747 
Q 959 1119 1226 758 
Q 1494 397 1959 397 
Q 2419 397 2687 759 
Q 2956 1122 2956 1747 
Q 2956 2369 2687 2733 
Q 2419 3097 1959 3097 
z
M 1959 3584 
Q 2709 3584 3137 3096 
Q 3566 2609 3566 1747 
Q 3566 888 3137 398 
Q 2709 -91 1959 -91 
Q 1206 -91 779 398 
Q 353 888 353 1747 
Q 353 2609 779 3096 
Q 1206 3584 1959 3584 
z
" transform="scale(0.015625)"/>
       <path id="DejaVuSans-61" d="M 2194 1759 
Q 1497 1759 1228 1600 
Q 959 1441 959 1056 
Q 959 750 1161 570 
Q 1363 391 1709 391 
Q 2188 391 2477 730 
Q 2766 1069 2766 1631 
L 2766 1759 
L 2194 1759 
z
M 3341 1997 
L 3341 0 
L 2766 0 
L 2766 531 
Q 2569 213 2275 61 
Q 1981 -91 1556 -91 
Q 1019 -91 701 211 
Q 384 513 384 1019 
Q 384 1609 779 1909 
Q 1175 2209 1959 2209 
L 2766 2209 
L 2766 2266 
Q 2766 2663 2505 2880 
Q 2244 3097 1772 3097 
Q 1472 3097 1187 3025 
Q 903 2953 641 2809 
L 641 3341 
Q 956 3463 1253 3523 
Q 1550 3584 1831 3584 
Q 2591 3584 2966 3190 
Q 3341 2797 3341 1997 
z
" transform="scale(0.015625)"/>
      </defs>
      <use xlink:href="#DejaVuSans-53"/>
      <use xlink:href="#DejaVuSans-6f" x="63.476562"/>
      <use xlink:href="#DejaVuSans-6d" x="124.658203"/>
      <use xlink:href="#DejaVuSans-61" x="222.070312"/>
     </g>
    </g>
    <g id="line2d_26">
     <path d="M 117 62.336562 
L 127 62.336562 
L 137 62.336562 
" style="fill: none; stroke: #4169e1; stroke-width: 1.5; stroke-linecap: square"/>
    </g>
    <g id="text_15">
     <!-- Dendrite -->
     <g transform="translate(145 65.836562) scale(0.1 -0.1)">
      <defs>
       <path id="DejaVuSans-44" d="M 1259 4147 
L 1259 519 
L 2022 519 
Q 2988 519 3436 956 
Q 3884 1394 3884 2338 
Q 3884 3275 3436 3711 
Q 2988 4147 2022 4147 
L 1259 4147 
z
M 628 4666 
L 1925 4666 
Q 3281 4666 3915 4102 
Q 4550 3538 4550 2338 
Q 4550 1131 3912 565 
Q 3275 0 1925 0 
L 628 0 
L 628 4666 
z
" transform="scale(0.015625)"/>
       <path id="DejaVuSans-6e" d="M 3513 2113 
L 3513 0 
L 2938 0 
L 2938 2094 
Q 2938 2591 2744 2837 
Q 2550 3084 2163 3084 
Q 1697 3084 1428 2787 
Q 1159 2491 1159 1978 
L 1159 0 
L 581 0 
L 581 3500 
L 1159 3500 
L 1159 2956 
Q 1366 3272 1645 3428 
Q 1925 3584 2291 3584 
Q 2894 3584 3203 3211 
Q 3513 2838 3513 2113 
z
" transform="scale(0.015625)"/>
       <path id="DejaVuSans-64" d="M 2906 2969 
L 2906 4863 
L 3481 4863 
L 3481 0 
L 2906 0 
L 2906 525 
Q 2725 213 2448 61 
Q 2172 -91 1784 -91 
Q 1150 -91 751 415 
Q 353 922 353 1747 
Q 353 2572 751 3078 
Q 1150 3584 1784 3584 
Q 2172 3584 2448 3432 
Q 2725 3281 2906 2969 
z
M 947 1747 
Q 947 1113 1208 752 
Q 1469 391 1925 391 
Q 2381 391 2643 752 
Q 2906 1113 2906 1747 
Q 2906 2381 2643 2742 
Q 2381 3103 1925 3103 
Q 1469 3103 1208 2742 
Q 947 2381 947 1747 
z
" transform="scale(0.015625)"/>
       <path id="DejaVuSans-72" d="M 2631 2963 
Q 2534 3019 2420 3045 
Q 2306 3072 2169 3072 
Q 1681 3072 1420 2755 
Q 1159 2438 1159 1844 
L 1159 0 
L 581 0 
L 581 3500 
L 1159 3500 
L 1159 2956 
Q 1341 3275 1631 3429 
Q 1922 3584 2338 3584 
Q 2397 3584 2469 3576 
Q 2541 3569 2628 3553 
L 2631 2963 
z
" transform="scale(0.015625)"/>
       <path id="DejaVuSans-74" d="M 1172 4494 
L 1172 3500 
L 2356 3500 
L 2356 3053 
L 1172 3053 
L 1172 1153 
Q 1172 725 1289 603 
Q 1406 481 1766 481 
L 2356 481 
L 2356 0 
L 1766 0 
Q 1100 0 847 248 
Q 594 497 594 1153 
L 594 3053 
L 172 3053 
L 172 3500 
L 594 3500 
L 594 4494 
L 1172 4494 
z
" transform="scale(0.015625)"/>
      </defs>
      <use xlink:href="#DejaVuSans-44"/>
      <use xlink:href="#DejaVuSans-65" x="77.001953"/>
      <use xlink:href="#DejaVuSans-6e" x="138.525391"/>
      <use xlink:href="#DejaVuSans-64" x="201.904297"/>
      <use xlink:href="#DejaVuSans-72" x="265.380859"/>
      <use xlink:href="#DejaVuSans-69" x="306.494141"/>
      <use xlink:href="#DejaVuSans-74" x="334.277344"/>
      <use xlink:href="#DejaVuSans-65" x="373.486328"/>
     </g>
    </g>
   </g>
  </g>
 </g>
 <defs>
  <clipPath id="p1e12f8cd09">
   <rect x="108" y="34.56" width="669.6" height="221.76"/>
  </clipPath>
 </defs>
</svg>
