<?xml version="1.0" encoding="utf-8" standalone="no"?>
<!DOCTYPE svg PUBLIC "-//W3C//DTD SVG 1.1//EN"
  "http://www.w3.org/Graphics/SVG/1.1/DTD/svg11.dtd">
<svg xmlns:xlink="http://www.w3.org/1999/xlink" width="864pt" height="288pt" viewBox="0 0 864 288" xmlns="http://www.w3.org/2000/svg" version="1.1">
 <metadata>
  <rdf:RDF xmlns:dc="http://purl.org/dc/elements/1.1/" xmlns:cc="http://creativecommons.org/ns#" xmlns:rdf="http://www.w3.org/1999/02/22-rdf-syntax-ns#">
   <cc:Work>
    <dc:type rdf:resource="http://purl.org/dc/dcmitype/StillImage"/>
    <dc:date>2024-04-26T13:29:32.498629</dc:date>
    <dc:format>image/svg+xml</dc:format>
    <dc:creator>
     <cc:Agent>
      <dc:title>Matplotlib v3.8.2, https://matplotlib.org/</dc:title>
     </cc:Agent>
    </dc:creator>
   </cc:Work>
  </rdf:RDF>
 </metadata>
 <defs>
  <style type="text/css">*{stroke-linejoin: round; stroke-linecap: butt}</style>
 </defs>
 <g id="figure_1">
  <g id="patch_1">
   <path d="M 0 288 
L 864 288 
L 864 0 
L 0 0 
z
" style="fill: #ffffff"/>
  </g>
  <g id="axes_1">
   <g id="patch_2">
    <path d="M 108 256.32 
L 777.6 256.32 
L 777.6 34.56 
L 108 34.56 
z
" style="fill: #ffffff"/>
   </g>
   <g id="matplotlib.axis_1">
    <g id="xtick_1">
     <g id="line2d_1">
      <path d="M 108 256.32 
L 108 34.56 
" clip-path="url(#p506499b064)" style="fill: none; stroke: #b0b0b0; stroke-width: 0.8; stroke-linecap: square"/>
     </g>
     <g id="line2d_2">
      <defs>
       <path id="md466190c91" d="M 0 0 
L 0 3.5 
" style="stroke: #000000; stroke-width: 0.8"/>
      </defs>
      <g>
       <use xlink:href="#md466190c91" x="108" y="256.32" style="stroke: #000000; stroke-width: 0.8"/>
      </g>
     </g>
     <g id="text_1">
      <!-- 100 -->
      <g transform="translate(94.63875 273.957812) scale(0.14 -0.14)">
       <defs>
        <path id="DejaVuSans-31" d="M 794 531 
L 1825 531 
L 1825 4091 
L 703 3866 
L 703 4441 
L 1819 4666 
L 2450 4666 
L 2450 531 
L 3481 531 
L 3481 0 
L 794 0 
L 794 531 
z
" transform="scale(0.015625)"/>
        <path id="DejaVuSans-30" d="M 2034 4250 
Q 1547 4250 1301 3770 
Q 1056 3291 1056 2328 
Q 1056 1369 1301 889 
Q 1547 409 2034 409 
Q 2525 409 2770 889 
Q 3016 1369 3016 2328 
Q 3016 3291 2770 3770 
Q 2525 4250 2034 4250 
z
M 2034 4750 
Q 2819 4750 3233 4129 
Q 3647 3509 3647 2328 
Q 3647 1150 3233 529 
Q 2819 -91 2034 -91 
Q 1250 -91 836 529 
Q 422 1150 422 2328 
Q 422 3509 836 4129 
Q 1250 4750 2034 4750 
z
" transform="scale(0.015625)"/>
       </defs>
       <use xlink:href="#DejaVuSans-31"/>
       <use xlink:href="#DejaVuSans-30" x="63.623047"/>
       <use xlink:href="#DejaVuSans-30" x="127.246094"/>
      </g>
     </g>
    </g>
    <g id="xtick_2">
     <g id="line2d_3">
      <path d="M 241.92 256.32 
L 241.92 34.56 
" clip-path="url(#p506499b064)" style="fill: none; stroke: #b0b0b0; stroke-width: 0.8; stroke-linecap: square"/>
     </g>
     <g id="line2d_4">
      <g>
       <use xlink:href="#md466190c91" x="241.92" y="256.32" style="stroke: #000000; stroke-width: 0.8"/>
      </g>
     </g>
     <g id="text_2">
      <!-- 120 -->
      <g transform="translate(228.55875 273.957812) scale(0.14 -0.14)">
       <defs>
        <path id="DejaVuSans-32" d="M 1228 531 
L 3431 531 
L 3431 0 
L 469 0 
L 469 531 
Q 828 903 1448 1529 
Q 2069 2156 2228 2338 
Q 2531 2678 2651 2914 
Q 2772 3150 2772 3378 
Q 2772 3750 2511 3984 
Q 2250 4219 1831 4219 
Q 1534 4219 1204 4116 
Q 875 4013 500 3803 
L 500 4441 
Q 881 4594 1212 4672 
Q 1544 4750 1819 4750 
Q 2544 4750 2975 4387 
Q 3406 4025 3406 3419 
Q 3406 3131 3298 2873 
Q 3191 2616 2906 2266 
Q 2828 2175 2409 1742 
Q 1991 1309 1228 531 
z
" transform="scale(0.015625)"/>
       </defs>
       <use xlink:href="#DejaVuSans-31"/>
       <use xlink:href="#DejaVuSans-32" x="63.623047"/>
       <use xlink:href="#DejaVuSans-30" x="127.246094"/>
      </g>
     </g>
    </g>
    <g id="xtick_3">
     <g id="line2d_5">
      <path d="M 375.84 256.32 
L 375.84 34.56 
" clip-path="url(#p506499b064)" style="fill: none; stroke: #b0b0b0; stroke-width: 0.8; stroke-linecap: square"/>
     </g>
     <g id="line2d_6">
      <g>
       <use xlink:href="#md466190c91" x="375.84" y="256.32" style="stroke: #000000; stroke-width: 0.8"/>
      </g>
     </g>
     <g id="text_3">
      <!-- 140 -->
      <g transform="translate(362.47875 273.957812) scale(0.14 -0.14)">
       <defs>
        <path id="DejaVuSans-34" d="M 2419 4116 
L 825 1625 
L 2419 1625 
L 2419 4116 
z
M 2253 4666 
L 3047 4666 
L 3047 1625 
L 3713 1625 
L 3713 1100 
L 3047 1100 
L 3047 0 
L 2419 0 
L 2419 1100 
L 313 1100 
L 313 1709 
L 2253 4666 
z
" transform="scale(0.015625)"/>
       </defs>
       <use xlink:href="#DejaVuSans-31"/>
       <use xlink:href="#DejaVuSans-34" x="63.623047"/>
       <use xlink:href="#DejaVuSans-30" x="127.246094"/>
      </g>
     </g>
    </g>
    <g id="xtick_4">
     <g id="line2d_7">
      <path d="M 509.76 256.32 
L 509.76 34.56 
" clip-path="url(#p506499b064)" style="fill: none; stroke: #b0b0b0; stroke-width: 0.8; stroke-linecap: square"/>
     </g>
     <g id="line2d_8">
      <g>
       <use xlink:href="#md466190c91" x="509.76" y="256.32" style="stroke: #000000; stroke-width: 0.8"/>
      </g>
     </g>
     <g id="text_4">
      <!-- 160 -->
      <g transform="translate(496.39875 273.957812) scale(0.14 -0.14)">
       <defs>
        <path id="DejaVuSans-36" d="M 2113 2584 
Q 1688 2584 1439 2293 
Q 1191 2003 1191 1497 
Q 1191 994 1439 701 
Q 1688 409 2113 409 
Q 2538 409 2786 701 
Q 3034 994 3034 1497 
Q 3034 2003 2786 2293 
Q 2538 2584 2113 2584 
z
M 3366 4563 
L 3366 3988 
Q 3128 4100 2886 4159 
Q 2644 4219 2406 4219 
Q 1781 4219 1451 3797 
Q 1122 3375 1075 2522 
Q 1259 2794 1537 2939 
Q 1816 3084 2150 3084 
Q 2853 3084 3261 2657 
Q 3669 2231 3669 1497 
Q 3669 778 3244 343 
Q 2819 -91 2113 -91 
Q 1303 -91 875 529 
Q 447 1150 447 2328 
Q 447 3434 972 4092 
Q 1497 4750 2381 4750 
Q 2619 4750 2861 4703 
Q 3103 4656 3366 4563 
z
" transform="scale(0.015625)"/>
       </defs>
       <use xlink:href="#DejaVuSans-31"/>
       <use xlink:href="#DejaVuSans-36" x="63.623047"/>
       <use xlink:href="#DejaVuSans-30" x="127.246094"/>
      </g>
     </g>
    </g>
    <g id="xtick_5">
     <g id="line2d_9">
      <path d="M 643.68 256.32 
L 643.68 34.56 
" clip-path="url(#p506499b064)" style="fill: none; stroke: #b0b0b0; stroke-width: 0.8; stroke-linecap: square"/>
     </g>
     <g id="line2d_10">
      <g>
       <use xlink:href="#md466190c91" x="643.68" y="256.32" style="stroke: #000000; stroke-width: 0.8"/>
      </g>
     </g>
     <g id="text_5">
      <!-- 180 -->
      <g transform="translate(630.31875 273.957812) scale(0.14 -0.14)">
       <defs>
        <path id="DejaVuSans-38" d="M 2034 2216 
Q 1584 2216 1326 1975 
Q 1069 1734 1069 1313 
Q 1069 891 1326 650 
Q 1584 409 2034 409 
Q 2484 409 2743 651 
Q 3003 894 3003 1313 
Q 3003 1734 2745 1975 
Q 2488 2216 2034 2216 
z
M 1403 2484 
Q 997 2584 770 2862 
Q 544 3141 544 3541 
Q 544 4100 942 4425 
Q 1341 4750 2034 4750 
Q 2731 4750 3128 4425 
Q 3525 4100 3525 3541 
Q 3525 3141 3298 2862 
Q 3072 2584 2669 2484 
Q 3125 2378 3379 2068 
Q 3634 1759 3634 1313 
Q 3634 634 3220 271 
Q 2806 -91 2034 -91 
Q 1263 -91 848 271 
Q 434 634 434 1313 
Q 434 1759 690 2068 
Q 947 2378 1403 2484 
z
M 1172 3481 
Q 1172 3119 1398 2916 
Q 1625 2713 2034 2713 
Q 2441 2713 2670 2916 
Q 2900 3119 2900 3481 
Q 2900 3844 2670 4047 
Q 2441 4250 2034 4250 
Q 1625 4250 1398 4047 
Q 1172 3844 1172 3481 
z
" transform="scale(0.015625)"/>
       </defs>
       <use xlink:href="#DejaVuSans-31"/>
       <use xlink:href="#DejaVuSans-38" x="63.623047"/>
       <use xlink:href="#DejaVuSans-30" x="127.246094"/>
      </g>
     </g>
    </g>
    <g id="xtick_6">
     <g id="line2d_11">
      <path d="M 777.6 256.32 
L 777.6 34.56 
" clip-path="url(#p506499b064)" style="fill: none; stroke: #b0b0b0; stroke-width: 0.8; stroke-linecap: square"/>
     </g>
     <g id="line2d_12">
      <g>
       <use xlink:href="#md466190c91" x="777.6" y="256.32" style="stroke: #000000; stroke-width: 0.8"/>
      </g>
     </g>
     <g id="text_6">
      <!-- 200 -->
      <g transform="translate(764.23875 273.957812) scale(0.14 -0.14)">
       <use xlink:href="#DejaVuSans-32"/>
       <use xlink:href="#DejaVuSans-30" x="63.623047"/>
       <use xlink:href="#DejaVuSans-30" x="127.246094"/>
      </g>
     </g>
    </g>
    <g id="text_7">
     <!-- Time (ms) -->
     <g transform="translate(407.521094 291.507187) scale(0.14 -0.14)">
      <defs>
       <path id="DejaVuSans-54" d="M -19 4666 
L 3928 4666 
L 3928 4134 
L 2272 4134 
L 2272 0 
L 1638 0 
L 1638 4134 
L -19 4134 
L -19 4666 
z
" transform="scale(0.015625)"/>
       <path id="DejaVuSans-69" d="M 603 3500 
L 1178 3500 
L 1178 0 
L 603 0 
L 603 3500 
z
M 603 4863 
L 1178 4863 
L 1178 4134 
L 603 4134 
L 603 4863 
z
" transform="scale(0.015625)"/>
       <path id="DejaVuSans-6d" d="M 3328 2828 
Q 3544 3216 3844 3400 
Q 4144 3584 4550 3584 
Q 5097 3584 5394 3201 
Q 5691 2819 5691 2113 
L 5691 0 
L 5113 0 
L 5113 2094 
Q 5113 2597 4934 2840 
Q 4756 3084 4391 3084 
Q 3944 3084 3684 2787 
Q 3425 2491 3425 1978 
L 3425 0 
L 2847 0 
L 2847 2094 
Q 2847 2600 2669 2842 
Q 2491 3084 2119 3084 
Q 1678 3084 1418 2786 
Q 1159 2488 1159 1978 
L 1159 0 
L 581 0 
L 581 3500 
L 1159 3500 
L 1159 2956 
Q 1356 3278 1631 3431 
Q 1906 3584 2284 3584 
Q 2666 3584 2933 3390 
Q 3200 3197 3328 2828 
z
" transform="scale(0.015625)"/>
       <path id="DejaVuSans-65" d="M 3597 1894 
L 3597 1613 
L 953 1613 
Q 991 1019 1311 708 
Q 1631 397 2203 397 
Q 2534 397 2845 478 
Q 3156 559 3463 722 
L 3463 178 
Q 3153 47 2828 -22 
Q 2503 -91 2169 -91 
Q 1331 -91 842 396 
Q 353 884 353 1716 
Q 353 2575 817 3079 
Q 1281 3584 2069 3584 
Q 2775 3584 3186 3129 
Q 3597 2675 3597 1894 
z
M 3022 2063 
Q 3016 2534 2758 2815 
Q 2500 3097 2075 3097 
Q 1594 3097 1305 2825 
Q 1016 2553 972 2059 
L 3022 2063 
z
" transform="scale(0.015625)"/>
       <path id="DejaVuSans-20" transform="scale(0.015625)"/>
       <path id="DejaVuSans-28" d="M 1984 4856 
Q 1566 4138 1362 3434 
Q 1159 2731 1159 2009 
Q 1159 1288 1364 580 
Q 1569 -128 1984 -844 
L 1484 -844 
Q 1016 -109 783 600 
Q 550 1309 550 2009 
Q 550 2706 781 3412 
Q 1013 4119 1484 4856 
L 1984 4856 
z
" transform="scale(0.015625)"/>
       <path id="DejaVuSans-73" d="M 2834 3397 
L 2834 2853 
Q 2591 2978 2328 3040 
Q 2066 3103 1784 3103 
Q 1356 3103 1142 2972 
Q 928 2841 928 2578 
Q 928 2378 1081 2264 
Q 1234 2150 1697 2047 
L 1894 2003 
Q 2506 1872 2764 1633 
Q 3022 1394 3022 966 
Q 3022 478 2636 193 
Q 2250 -91 1575 -91 
Q 1294 -91 989 -36 
Q 684 19 347 128 
L 347 722 
Q 666 556 975 473 
Q 1284 391 1588 391 
Q 1994 391 2212 530 
Q 2431 669 2431 922 
Q 2431 1156 2273 1281 
Q 2116 1406 1581 1522 
L 1381 1569 
Q 847 1681 609 1914 
Q 372 2147 372 2553 
Q 372 3047 722 3315 
Q 1072 3584 1716 3584 
Q 2034 3584 2315 3537 
Q 2597 3491 2834 3397 
z
" transform="scale(0.015625)"/>
       <path id="DejaVuSans-29" d="M 513 4856 
L 1013 4856 
Q 1481 4119 1714 3412 
Q 1947 2706 1947 2009 
Q 1947 1309 1714 600 
Q 1481 -109 1013 -844 
L 513 -844 
Q 928 -128 1133 580 
Q 1338 1288 1338 2009 
Q 1338 2731 1133 3434 
Q 928 4138 513 4856 
z
" transform="scale(0.015625)"/>
      </defs>
      <use xlink:href="#DejaVuSans-54"/>
      <use xlink:href="#DejaVuSans-69" x="57.958984"/>
      <use xlink:href="#DejaVuSans-6d" x="85.742188"/>
      <use xlink:href="#DejaVuSans-65" x="183.154297"/>
      <use xlink:href="#DejaVuSans-20" x="244.677734"/>
      <use xlink:href="#DejaVuSans-28" x="276.464844"/>
      <use xlink:href="#DejaVuSans-6d" x="315.478516"/>
      <use xlink:href="#DejaVuSans-73" x="412.890625"/>
      <use xlink:href="#DejaVuSans-29" x="464.990234"/>
     </g>
    </g>
   </g>
   <g id="matplotlib.axis_2">
    <g id="ytick_1">
     <g id="line2d_13">
      <path d="M 108 225.017634 
L 777.6 225.017634 
" clip-path="url(#p506499b064)" style="fill: none; stroke: #b0b0b0; stroke-width: 0.8; stroke-linecap: square"/>
     </g>
     <g id="line2d_14">
      <defs>
       <path id="m6f0a84ae50" d="M 0 0 
L -3.5 0 
" style="stroke: #000000; stroke-width: 0.8"/>
      </defs>
      <g>
       <use xlink:href="#m6f0a84ae50" x="108" y="225.017634" style="stroke: #000000; stroke-width: 0.8"/>
      </g>
     </g>
     <g id="text_8">
      <!-- −60 -->
      <g transform="translate(71.453437 230.33654) scale(0.14 -0.14)">
       <defs>
        <path id="DejaVuSans-2212" d="M 678 2272 
L 4684 2272 
L 4684 1741 
L 678 1741 
L 678 2272 
z
" transform="scale(0.015625)"/>
       </defs>
       <use xlink:href="#DejaVuSans-2212"/>
       <use xlink:href="#DejaVuSans-36" x="83.789062"/>
       <use xlink:href="#DejaVuSans-30" x="147.412109"/>
      </g>
     </g>
    </g>
    <g id="ytick_2">
     <g id="line2d_15">
      <path d="M 108 182.640535 
L 777.6 182.640535 
" clip-path="url(#p506499b064)" style="fill: none; stroke: #b0b0b0; stroke-width: 0.8; stroke-linecap: square"/>
     </g>
     <g id="line2d_16">
      <g>
       <use xlink:href="#m6f0a84ae50" x="108" y="182.640535" style="stroke: #000000; stroke-width: 0.8"/>
      </g>
     </g>
     <g id="text_9">
      <!-- −40 -->
      <g transform="translate(71.453437 187.959441) scale(0.14 -0.14)">
       <use xlink:href="#DejaVuSans-2212"/>
       <use xlink:href="#DejaVuSans-34" x="83.789062"/>
       <use xlink:href="#DejaVuSans-30" x="147.412109"/>
      </g>
     </g>
    </g>
    <g id="ytick_3">
     <g id="line2d_17">
      <path d="M 108 140.263435 
L 777.6 140.263435 
" clip-path="url(#p506499b064)" style="fill: none; stroke: #b0b0b0; stroke-width: 0.8; stroke-linecap: square"/>
     </g>
     <g id="line2d_18">
      <g>
       <use xlink:href="#m6f0a84ae50" x="108" y="140.263435" style="stroke: #000000; stroke-width: 0.8"/>
      </g>
     </g>
     <g id="text_10">
      <!-- −20 -->
      <g transform="translate(71.453437 145.582341) scale(0.14 -0.14)">
       <use xlink:href="#DejaVuSans-2212"/>
       <use xlink:href="#DejaVuSans-32" x="83.789062"/>
       <use xlink:href="#DejaVuSans-30" x="147.412109"/>
      </g>
     </g>
    </g>
    <g id="ytick_4">
     <g id="line2d_19">
      <path d="M 108 97.886335 
L 777.6 97.886335 
" clip-path="url(#p506499b064)" style="fill: none; stroke: #b0b0b0; stroke-width: 0.8; stroke-linecap: square"/>
     </g>
     <g id="line2d_20">
      <g>
       <use xlink:href="#m6f0a84ae50" x="108" y="97.886335" style="stroke: #000000; stroke-width: 0.8"/>
      </g>
     </g>
     <g id="text_11">
      <!-- 0 -->
      <g transform="translate(92.0925 103.205241) scale(0.14 -0.14)">
       <use xlink:href="#DejaVuSans-30"/>
      </g>
     </g>
    </g>
    <g id="ytick_5">
     <g id="line2d_21">
      <path d="M 108 55.509236 
L 777.6 55.509236 
" clip-path="url(#p506499b064)" style="fill: none; stroke: #b0b0b0; stroke-width: 0.8; stroke-linecap: square"/>
     </g>
     <g id="line2d_22">
      <g>
       <use xlink:href="#m6f0a84ae50" x="108" y="55.509236" style="stroke: #000000; stroke-width: 0.8"/>
      </g>
     </g>
     <g id="text_12">
      <!-- 20 -->
      <g transform="translate(83.185 60.828142) scale(0.14 -0.14)">
       <use xlink:href="#DejaVuSans-32"/>
       <use xlink:href="#DejaVuSans-30" x="63.623047"/>
      </g>
     </g>
    </g>
    <g id="text_13">
     <!-- $V_{m}$ (mV) -->
     <g transform="translate(64.541875 174.49) rotate(-90) scale(0.14 -0.14)">
      <defs>
       <path id="DejaVuSans-Oblique-56" d="M 1319 0 
L 500 4666 
L 1119 4666 
L 1797 653 
L 4063 4666 
L 4750 4666 
L 2053 0 
L 1319 0 
z
" transform="scale(0.015625)"/>
       <path id="DejaVuSans-Oblique-6d" d="M 5747 2113 
L 5338 0 
L 4763 0 
L 5166 2094 
Q 5191 2228 5203 2325 
Q 5216 2422 5216 2491 
Q 5216 2772 5059 2928 
Q 4903 3084 4622 3084 
Q 4203 3084 3875 2770 
Q 3547 2456 3450 1953 
L 3066 0 
L 2491 0 
L 2900 2094 
Q 2925 2209 2937 2307 
Q 2950 2406 2950 2484 
Q 2950 2769 2794 2926 
Q 2638 3084 2363 3084 
Q 1938 3084 1609 2770 
Q 1281 2456 1184 1953 
L 800 0 
L 225 0 
L 909 3500 
L 1484 3500 
L 1375 2956 
Q 1609 3263 1923 3423 
Q 2238 3584 2597 3584 
Q 2978 3584 3223 3384 
Q 3469 3184 3519 2828 
Q 3781 3197 4126 3390 
Q 4472 3584 4856 3584 
Q 5306 3584 5551 3325 
Q 5797 3066 5797 2591 
Q 5797 2488 5784 2364 
Q 5772 2241 5747 2113 
z
" transform="scale(0.015625)"/>
       <path id="DejaVuSans-56" d="M 1831 0 
L 50 4666 
L 709 4666 
L 2188 738 
L 3669 4666 
L 4325 4666 
L 2547 0 
L 1831 0 
z
" transform="scale(0.015625)"/>
      </defs>
      <use xlink:href="#DejaVuSans-Oblique-56" transform="translate(0 0.125)"/>
      <use xlink:href="#DejaVuSans-Oblique-6d" transform="translate(68.408203 -16.28125) scale(0.7)"/>
      <use xlink:href="#DejaVuSans-20" transform="translate(139.331055 0.125)"/>
      <use xlink:href="#DejaVuSans-28" transform="translate(171.118164 0.125)"/>
      <use xlink:href="#DejaVuSans-6d" transform="translate(210.131836 0.125)"/>
      <use xlink:href="#DejaVuSans-56" transform="translate(307.543945 0.125)"/>
      <use xlink:href="#DejaVuSans-29" transform="translate(375.952148 0.125)"/>
     </g>
    </g>
   </g>
   <g id="line2d_23">
    <path d="M 108 219.153463 
L 109.3392 219.803909 
L 110.6784 220.216309 
L 111.348 220.365006 
L 112.6872 221.290151 
L 114.0264 221.723465 
L 116.0352 223.266343 
L 118.044 225.718151 
L 118.7136 226.829448 
L 119.3832 227.6899 
L 120.0528 228.238121 
L 120.7224 229.277556 
L 122.7312 231.585792 
L 124.0704 232.38941 
L 125.4096 232.921633 
L 127.4184 233.454906 
L 129.4272 233.773312 
L 132.1056 233.950258 
L 134.1144 233.932248 
L 136.1232 234.766319 
L 136.7928 235.593686 
L 137.4624 236.177695 
L 140.1408 237.403493 
L 141.48 237.695036 
L 144.1584 238.095155 
L 145.4976 238.38154 
L 147.5064 238.402 
L 148.176 238.364857 
L 149.5152 238.722118 
L 150.8544 238.757708 
L 153.5328 238.50222 
L 156.8808 237.897839 
L 160.2288 237.07653 
L 164.2464 235.865228 
L 168.9336 234.1956 
L 173.6208 232.295383 
L 178.9776 229.887541 
L 185.004 226.929285 
L 189.6912 224.436763 
L 192.3696 222.498974 
L 197.0568 219.128463 
L 198.396 218.210472 
L 199.7352 218.115864 
L 201.0744 217.619974 
L 203.7528 216.288913 
L 205.7616 215.1983 
L 207.1008 215.29953 
L 208.44 214.961161 
L 209.7792 215.300892 
L 211.1184 215.144244 
L 213.1272 214.584288 
L 216.4752 213.346347 
L 221.1624 211.313549 
L 225.8496 209.051966 
L 227.1888 209.316736 
L 228.528 210.978452 
L 229.1976 211.349376 
L 230.5368 211.63645 
L 231.876 211.653631 
L 232.5456 211.606022 
L 234.5544 212.909865 
L 235.8936 214.854288 
L 236.5632 216.003314 
L 239.2416 219.245579 
L 239.9112 220.291036 
L 240.5808 221.799025 
L 241.2504 222.904057 
L 241.92 223.60971 
L 243.2592 224.525781 
L 244.5984 225.126027 
L 245.9376 226.179404 
L 246.6072 226.499785 
L 247.2768 227.079955 
L 247.9464 227.879304 
L 249.9552 229.700886 
L 251.2944 230.90858 
L 252.6336 231.544541 
L 253.9728 231.948941 
L 255.312 233.303305 
L 255.9816 233.959012 
L 256.6512 234.449065 
L 257.9904 235.01937 
L 259.9992 235.492969 
L 260.6688 235.594091 
L 262.008 236.233227 
L 263.3472 236.510637 
L 264.6864 236.636175 
L 267.3648 237.832801 
L 268.704 238.074582 
L 270.7128 238.154704 
L 272.052 238.584517 
L 273.3912 238.684225 
L 275.4 238.603308 
L 278.0784 238.284965 
L 281.4264 237.655017 
L 282.096 237.50348 
L 283.4352 237.678333 
L 284.7744 237.547342 
L 287.4528 236.994539 
L 290.8008 236.072675 
L 291.4704 235.866224 
L 292.8096 235.965809 
L 294.1488 235.753065 
L 296.8272 235.037528 
L 300.8448 233.686313 
L 305.532 231.847554 
L 310.8888 229.484681 
L 316.9152 226.561647 
L 322.9416 223.417218 
L 324.2808 222.560809 
L 334.3248 215.378131 
L 345.0384 208.113947 
L 346.3776 208.151705 
L 347.7168 207.765457 
L 349.7256 206.856657 
L 352.404 205.346957 
L 354.4128 203.999182 
L 355.752 205.129796 
L 356.4216 205.465095 
L 358.4304 207.563439 
L 359.1 208.723966 
L 359.7696 209.570726 
L 360.4392 210.106672 
L 361.7784 210.715629 
L 363.1176 212.724378 
L 363.7872 213.713631 
L 364.4568 214.449526 
L 365.1264 214.927407 
L 365.796 215.266934 
L 367.1352 216.498621 
L 367.8048 216.853589 
L 369.144 218.055023 
L 370.4832 218.641639 
L 371.8224 218.965254 
L 372.492 219.071049 
L 373.8312 220.659894 
L 374.5008 222.206411 
L 375.1704 223.393122 
L 375.84 224.103189 
L 377.1792 224.969756 
L 378.5184 225.511515 
L 379.188 225.711998 
L 379.8576 226.224641 
L 381.8664 228.479724 
L 382.536 228.883313 
L 383.8752 229.992814 
L 384.5448 230.326136 
L 386.5536 231.943098 
L 387.2232 232.413333 
L 388.5624 232.965254 
L 391.2408 233.823569 
L 391.9104 234.425686 
L 392.58 234.849411 
L 393.9192 235.292446 
L 395.928 235.606077 
L 399.276 235.982651 
L 402.624 236.93129 
L 403.2936 236.983842 
L 405.972 238.104719 
L 407.3112 238.299128 
L 407.9808 238.326918 
L 409.32 238.780155 
L 410.6592 238.889649 
L 412.668 238.811698 
L 415.3464 238.487573 
L 418.6944 237.844717 
L 422.712 236.808202 
L 426.7296 235.538316 
L 428.0688 235.608442 
L 429.408 235.367308 
L 432.0864 234.599699 
L 436.104 233.181709 
L 440.7912 231.278141 
L 446.148 228.854223 
L 452.1744 225.875861 
L 457.5312 223.009627 
L 460.2096 221.059382 
L 464.8968 217.658972 
L 472.932 212.221704 
L 474.2712 212.229715 
L 475.6104 211.800285 
L 476.9496 211.202474 
L 478.2888 211.45409 
L 479.628 211.232301 
L 481.6368 210.574783 
L 483.6456 209.769319 
L 484.9848 210.116302 
L 485.6544 210.579993 
L 486.324 210.906518 
L 487.6632 211.051472 
L 489.0024 210.934418 
L 490.3416 212.462713 
L 491.0112 212.81765 
L 491.6808 213.464365 
L 492.3504 214.398846 
L 493.02 215.051266 
L 493.6896 215.439171 
L 494.3592 216.121698 
L 495.0288 217.073385 
L 495.6984 217.748844 
L 497.7072 219.082172 
L 498.3768 219.578015 
L 499.716 220.10842 
L 501.0552 220.386102 
L 502.3944 221.247215 
L 503.7336 221.613663 
L 504.4032 221.709662 
L 505.7424 222.50912 
L 507.0816 222.828527 
L 507.7512 222.904859 
L 508.4208 223.324193 
L 510.4296 226.578295 
L 511.0992 227.304351 
L 512.4384 228.113855 
L 513.7776 228.584229 
L 515.1168 229.477156 
L 515.7864 230.365203 
L 516.456 231.05709 
L 517.1256 231.479673 
L 519.804 234.98188 
L 521.1432 235.770526 
L 522.4824 236.268798 
L 523.152 236.457072 
L 523.8216 236.880742 
L 524.4912 237.485833 
L 526.5 238.852961 
L 527.8392 239.754051 
L 529.1784 240.196451 
L 529.848 240.339809 
L 531.1872 240.966719 
L 532.5264 241.247714 
L 534.5352 241.413266 
L 537.2136 241.381768 
L 539.892 241.145633 
L 543.24 240.624888 
L 546.588 239.89737 
L 550.6056 238.796019 
L 555.2928 237.245539 
L 559.98 235.453168 
L 565.3368 233.154177 
L 571.3632 230.298909 
L 578.0592 226.851834 
L 585.4248 222.798869 
L 591.4512 219.294793 
L 594.1296 217.238248 
L 598.8168 213.647303 
L 602.1648 211.246102 
L 603.504 211.226481 
L 604.8432 210.777409 
L 607.5216 209.477738 
L 611.5392 207.188495 
L 613.548 205.901688 
L 614.8872 206.023344 
L 616.2264 205.751498 
L 618.2352 204.974685 
L 620.244 203.890384 
L 622.2528 202.497354 
L 622.9224 201.907924 
L 624.9312 201.358816 
L 625.6008 201.533619 
L 627.6096 203.721866 
L 628.9488 204.650396 
L 629.6184 204.957487 
L 630.288 205.691102 
L 630.9576 207.326614 
L 631.6272 208.662341 
L 632.2968 209.516873 
L 632.9664 210.103725 
L 633.636 210.527459 
L 634.9752 211.931484 
L 635.6448 212.342426 
L 636.984 213.675334 
L 637.6536 214.057561 
L 638.9928 217.286595 
L 639.6624 218.374089 
L 640.332 219.082003 
L 641.6712 220.713044 
L 642.3408 221.220478 
L 643.0104 221.986142 
L 643.68 222.97292 
L 644.3496 223.701202 
L 645.0192 224.199597 
L 646.3584 225.525048 
L 648.3672 226.864084 
L 649.0368 227.689518 
L 649.7064 228.294398 
L 653.0544 230.354773 
L 653.724 230.904877 
L 654.3936 231.651303 
L 658.4112 234.954524 
L 660.42 237.151918 
L 661.7592 237.845422 
L 663.0984 238.282882 
L 665.1072 238.694479 
L 668.4552 239.218377 
L 669.7944 239.536475 
L 671.8032 239.624734 
L 674.4816 239.487748 
L 677.8296 239.054135 
L 681.1776 238.39427 
L 685.1952 237.357988 
L 689.2128 236.097272 
L 693.9 234.386456 
L 695.2392 234.414506 
L 696.5784 234.126754 
L 699.2568 233.266215 
L 703.2744 231.721693 
L 707.9616 229.690535 
L 713.3184 227.144133 
L 720.0144 223.69919 
L 725.3712 220.742199 
L 728.0496 218.757513 
L 732.7368 215.291556 
L 740.1024 210.231177 
L 742.7808 208.375078 
L 744.12 208.406187 
L 745.4592 208.011789 
L 747.468 207.100753 
L 748.8072 207.388476 
L 750.1464 207.234809 
L 752.1552 206.617872 
L 753.4944 207.086842 
L 754.8336 207.105792 
L 756.1728 206.885379 
L 757.512 207.530448 
L 758.8512 207.693231 
L 760.1904 207.600736 
L 761.5296 208.336581 
L 762.1992 208.493722 
L 763.5384 209.491915 
L 764.8776 209.878967 
L 765.5472 209.952604 
L 766.8864 210.866179 
L 768.2256 211.212587 
L 768.8952 211.279095 
L 770.2344 213.021923 
L 770.904 213.467954 
L 771.5736 213.74958 
L 774.252 216.192117 
L 775.5912 216.790637 
L 776.9304 217.100148 
L 777.6 217.612857 
L 777.6 217.612857 
" clip-path="url(#p506499b064)" style="fill: none; stroke: #000000; stroke-width: 1.5; stroke-linecap: square"/>
   </g>
   <g id="line2d_24">
    <path d="M 108 150.755673 
L 112.6872 156.46723 
L 114.696 159.245775 
L 116.0352 161.342184 
L 117.3744 163.799379 
L 118.7136 166.72842 
L 120.0528 170.172937 
L 121.392 174.087672 
L 124.0704 182.902289 
L 126.7488 191.496059 
L 128.7576 197.108755 
L 130.7664 201.861897 
L 132.1056 204.572319 
L 133.4448 206.950058 
L 135.4536 210.011819 
L 140.1408 216.413669 
L 142.1496 218.781692 
L 144.1584 220.784972 
L 146.1672 222.543029 
L 148.176 224.034348 
L 150.8544 225.721958 
L 152.8632 226.768141 
L 154.872 227.589673 
L 156.8808 228.204534 
L 158.8896 228.635572 
L 161.568 228.958915 
L 164.2464 229.031349 
L 166.9248 228.886042 
L 170.2728 228.440084 
L 173.6208 227.741891 
L 176.9688 226.828035 
L 180.9864 225.488524 
L 185.004 223.923392 
L 189.0216 222.166705 
L 189.6912 192.713197 
L 190.3608 179.227405 
L 191.0304 172.225929 
L 191.7 167.621648 
L 192.3696 164.304041 
L 193.0392 161.837476 
L 193.7088 159.977584 
L 194.3784 158.558651 
L 195.048 157.460072 
L 196.3872 155.881499 
L 197.7264 154.735371 
L 199.7352 153.304953 
L 204.4224 150.202733 
L 207.1008 148.377464 
L 209.1096 147.315886 
L 211.1184 146.588711 
L 214.4664 145.693217 
L 219.1536 144.676931 
L 223.8408 143.934897 
L 227.1888 143.611968 
L 228.528 143.775133 
L 230.5368 144.415071 
L 234.5544 145.893339 
L 235.8936 146.64156 
L 237.2328 147.684946 
L 239.2416 149.660667 
L 240.5808 151.252172 
L 242.5896 154.19741 
L 245.268 158.574311 
L 247.2768 162.283541 
L 248.616 165.149975 
L 249.9552 168.433278 
L 251.964 174.122282 
L 255.9816 186.714583 
L 258.66 195.020105 
L 260.6688 200.421987 
L 262.6776 205.057274 
L 264.6864 209.00098 
L 266.6952 212.367992 
L 268.704 215.355249 
L 270.7128 217.893424 
L 272.7216 220.064407 
L 274.7304 221.926047 
L 276.7392 223.449166 
L 278.748 224.663467 
L 280.7568 225.607979 
L 283.4352 226.547405 
L 286.1136 227.316446 
L 288.792 227.803861 
L 291.4704 228.012052 
L 296.8272 228.148014 
L 299.5056 227.971307 
L 302.8536 227.497203 
L 306.2016 226.780851 
L 309.5496 225.855839 
L 313.5672 224.508214 
L 317.5848 222.937561 
L 322.272 220.865912 
L 322.9416 220.551349 
L 323.6112 191.408997 
L 324.2808 178.029251 
L 324.9504 171.001222 
L 325.62 166.323464 
L 326.2896 162.932187 
L 326.9592 160.400186 
L 327.6288 158.481635 
L 328.2984 157.012165 
L 328.968 155.870667 
L 330.3072 154.222815 
L 331.6464 153.035329 
L 341.0208 145.943093 
L 343.6992 144.175331 
L 345.708 143.052379 
L 347.7168 142.276092 
L 351.0648 141.392057 
L 355.0824 140.504643 
L 356.4216 140.453412 
L 357.7608 140.648831 
L 359.1 141.08554 
L 361.1088 142.107907 
L 363.1176 143.256921 
L 365.1264 144.706936 
L 369.144 147.876339 
L 373.8312 151.920515 
L 375.1704 153.471916 
L 377.1792 156.406986 
L 379.8576 160.81151 
L 381.1968 163.35722 
L 382.536 166.317862 
L 384.5448 171.474817 
L 386.5536 177.360701 
L 391.2408 191.818146 
L 393.9192 199.110254 
L 395.928 203.788058 
L 397.9368 207.691953 
L 399.9456 210.947957 
L 401.9544 213.787319 
L 403.9632 216.291104 
L 406.6416 219.255012 
L 408.6504 221.196462 
L 410.6592 222.916359 
L 412.668 224.372898 
L 414.6768 225.547638 
L 416.6856 226.467831 
L 418.6944 227.163907 
L 420.7032 227.662193 
L 423.3816 228.056958 
L 426.06 228.183592 
L 432.756 228.03371 
L 436.104 227.612026 
L 439.452 226.938848 
L 442.8 226.050622 
L 446.8176 224.740884 
L 450.8352 223.202597 
L 455.5224 221.162851 
L 456.8616 220.537511 
L 457.5312 191.396256 
L 458.2008 178.013848 
L 458.8704 170.98162 
L 459.54 166.298165 
L 460.2096 162.900888 
L 460.8792 160.363192 
L 461.5488 158.439489 
L 462.2184 156.965684 
L 462.888 155.820653 
L 464.2272 154.167929 
L 465.5664 152.977979 
L 473.6016 146.898307 
L 475.6104 145.671294 
L 477.6192 144.6892 
L 479.628 144.012738 
L 482.976 143.205318 
L 484.9848 142.846913 
L 486.324 142.805379 
L 489.0024 143.033866 
L 490.3416 143.277163 
L 491.6808 143.690624 
L 493.6896 144.634203 
L 495.6984 145.858566 
L 499.716 148.771117 
L 504.4032 152.387617 
L 506.412 154.152315 
L 508.4208 156.099459 
L 509.76 157.682526 
L 511.0992 159.733928 
L 513.108 163.477157 
L 515.1168 167.782923 
L 516.456 171.124405 
L 517.7952 174.906696 
L 519.804 181.441231 
L 523.152 192.825149 
L 525.1608 198.932519 
L 527.1696 204.456121 
L 529.1784 209.336617 
L 531.1872 213.501141 
L 533.196 217.055089 
L 535.2048 220.010523 
L 537.2136 222.433578 
L 539.2224 224.403225 
L 541.2312 225.987233 
L 543.24 227.241131 
L 545.2488 228.210524 
L 547.2576 228.933243 
L 549.2664 229.440975 
L 551.2752 229.760453 
L 553.9536 229.932295 
L 556.632 229.854154 
L 559.3104 229.562413 
L 562.6584 228.942122 
L 566.0064 228.080824 
L 570.024 226.780413 
L 574.0416 225.2353 
L 578.7288 223.174436 
L 584.0856 220.536687 
L 589.4424 217.652501 
L 590.7816 216.898824 
L 591.4512 188.435266 
L 592.1208 175.28401 
L 592.7904 168.166441 
L 593.46 163.313763 
L 594.1296 159.75495 
L 594.7992 157.076346 
L 595.4688 155.032724 
L 596.1384 153.454767 
L 596.808 152.219821 
L 598.1472 150.438928 
L 599.4864 149.193096 
L 601.4952 147.736322 
L 603.504 146.474807 
L 606.852 144.774616 
L 612.2088 142.273372 
L 614.8872 141.245555 
L 616.896 140.783566 
L 625.6008 139.263455 
L 626.94 139.310772 
L 628.2792 139.621946 
L 630.288 140.338905 
L 631.6272 141.061808 
L 634.9752 143.477864 
L 638.3232 146.094144 
L 639.6624 147.475277 
L 641.6712 149.924353 
L 643.68 152.618263 
L 645.6888 155.696562 
L 647.6976 159.19387 
L 649.0368 161.798316 
L 651.0456 166.347886 
L 653.0544 171.6342 
L 655.0632 177.64674 
L 662.4288 201.258943 
L 664.4376 206.443267 
L 665.7768 209.403987 
L 667.116 212.006451 
L 669.1248 215.359992 
L 671.1336 218.221567 
L 673.1424 220.594503 
L 675.1512 222.525025 
L 677.16 224.075337 
L 679.1688 225.300039 
L 681.1776 226.244302 
L 683.1864 226.945454 
L 685.1952 227.434614 
L 687.204 227.737955 
L 689.8824 227.891185 
L 692.5608 227.796801 
L 699.2568 227.131548 
L 702.6048 226.539413 
L 705.9528 225.716533 
L 709.9704 224.47069 
L 713.988 222.984176 
L 718.6752 220.991962 
L 723.3624 218.76551 
L 724.7016 218.092019 
L 725.3712 189.419919 
L 726.0408 176.206145 
L 726.7104 169.138025 
L 727.38 164.363736 
L 728.0496 160.880357 
L 728.7192 158.271921 
L 729.3888 156.290169 
L 730.0584 154.76802 
L 730.728 153.583088 
L 732.0672 151.876417 
L 733.4064 150.66936 
L 736.0848 148.750057 
L 743.4504 143.778483 
L 745.4592 142.827013 
L 748.1376 141.887366 
L 750.1464 141.47267 
L 753.4944 141.096372 
L 756.1728 141.12591 
L 758.1816 141.305072 
L 761.5296 141.85804 
L 763.5384 142.41138 
L 766.8864 143.66774 
L 770.2344 145.227165 
L 772.2432 146.503462 
L 774.252 148.014209 
L 777.6 150.841989 
L 777.6 150.841989 
" clip-path="url(#p506499b064)" style="fill: none; stroke: #4169e1; stroke-width: 1.5; stroke-linecap: square"/>
   </g>
   <g id="patch_3">
    <path d="M 108 256.32 
L 108 34.56 
" style="fill: none; stroke: #000000; stroke-width: 0.8; stroke-linejoin: miter; stroke-linecap: square"/>
   </g>
   <g id="patch_4">
    <path d="M 777.6 256.32 
L 777.6 34.56 
" style="fill: none; stroke: #000000; stroke-width: 0.8; stroke-linejoin: miter; stroke-linecap: square"/>
   </g>
   <g id="patch_5">
    <path d="M 108 256.32 
L 777.6 256.32 
" style="fill: none; stroke: #000000; stroke-width: 0.8; stroke-linejoin: miter; stroke-linecap: square"/>
   </g>
   <g id="patch_6">
    <path d="M 108 34.56 
L 777.6 34.56 
" style="fill: none; stroke: #000000; stroke-width: 0.8; stroke-linejoin: miter; stroke-linecap: square"/>
   </g>
   <g id="legend_1">
    <g id="patch_7">
     <path d="M 695.098438 71.91625 
L 770.6 71.91625 
Q 772.6 71.91625 772.6 69.91625 
L 772.6 41.56 
Q 772.6 39.56 770.6 39.56 
L 695.098438 39.56 
Q 693.098438 39.56 693.098438 41.56 
L 693.098438 69.91625 
Q 693.098438 71.91625 695.098438 71.91625 
z
" style="fill: #ffffff; opacity: 0.8; stroke: #cccccc; stroke-linejoin: miter"/>
    </g>
    <g id="line2d_25">
     <path d="M 697.098438 47.658437 
L 707.098438 47.658437 
L 717.098438 47.658437 
" style="fill: none; stroke: #000000; stroke-width: 1.5; stroke-linecap: square"/>
    </g>
    <g id="text_14">
     <!-- Soma -->
     <g transform="translate(725.098438 51.158437) scale(0.1 -0.1)">
      <defs>
       <path id="DejaVuSans-53" d="M 3425 4513 
L 3425 3897 
Q 3066 4069 2747 4153 
Q 2428 4238 2131 4238 
Q 1616 4238 1336 4038 
Q 1056 3838 1056 3469 
Q 1056 3159 1242 3001 
Q 1428 2844 1947 2747 
L 2328 2669 
Q 3034 2534 3370 2195 
Q 3706 1856 3706 1288 
Q 3706 609 3251 259 
Q 2797 -91 1919 -91 
Q 1588 -91 1214 -16 
Q 841 59 441 206 
L 441 856 
Q 825 641 1194 531 
Q 1563 422 1919 422 
Q 2459 422 2753 634 
Q 3047 847 3047 1241 
Q 3047 1584 2836 1778 
Q 2625 1972 2144 2069 
L 1759 2144 
Q 1053 2284 737 2584 
Q 422 2884 422 3419 
Q 422 4038 858 4394 
Q 1294 4750 2059 4750 
Q 2388 4750 2728 4690 
Q 3069 4631 3425 4513 
z
" transform="scale(0.015625)"/>
       <path id="DejaVuSans-6f" d="M 1959 3097 
Q 1497 3097 1228 2736 
Q 959 2375 959 1747 
Q 959 1119 1226 758 
Q 1494 397 1959 397 
Q 2419 397 2687 759 
Q 2956 1122 2956 1747 
Q 2956 2369 2687 2733 
Q 2419 3097 1959 3097 
z
M 1959 3584 
Q 2709 3584 3137 3096 
Q 3566 2609 3566 1747 
Q 3566 888 3137 398 
Q 2709 -91 1959 -91 
Q 1206 -91 779 398 
Q 353 888 353 1747 
Q 353 2609 779 3096 
Q 1206 3584 1959 3584 
z
" transform="scale(0.015625)"/>
       <path id="DejaVuSans-61" d="M 2194 1759 
Q 1497 1759 1228 1600 
Q 959 1441 959 1056 
Q 959 750 1161 570 
Q 1363 391 1709 391 
Q 2188 391 2477 730 
Q 2766 1069 2766 1631 
L 2766 1759 
L 2194 1759 
z
M 3341 1997 
L 3341 0 
L 2766 0 
L 2766 531 
Q 2569 213 2275 61 
Q 1981 -91 1556 -91 
Q 1019 -91 701 211 
Q 384 513 384 1019 
Q 384 1609 779 1909 
Q 1175 2209 1959 2209 
L 2766 2209 
L 2766 2266 
Q 2766 2663 2505 2880 
Q 2244 3097 1772 3097 
Q 1472 3097 1187 3025 
Q 903 2953 641 2809 
L 641 3341 
Q 956 3463 1253 3523 
Q 1550 3584 1831 3584 
Q 2591 3584 2966 3190 
Q 3341 2797 3341 1997 
z
" transform="scale(0.015625)"/>
      </defs>
      <use xlink:href="#DejaVuSans-53"/>
      <use xlink:href="#DejaVuSans-6f" x="63.476562"/>
      <use xlink:href="#DejaVuSans-6d" x="124.658203"/>
      <use xlink:href="#DejaVuSans-61" x="222.070312"/>
     </g>
    </g>
    <g id="line2d_26">
     <path d="M 697.098438 62.336562 
L 707.098438 62.336562 
L 717.098438 62.336562 
" style="fill: none; stroke: #4169e1; stroke-width: 1.5; stroke-linecap: square"/>
    </g>
    <g id="text_15">
     <!-- Dendrite -->
     <g transform="translate(725.098438 65.836562) scale(0.1 -0.1)">
      <defs>
       <path id="DejaVuSans-44" d="M 1259 4147 
L 1259 519 
L 2022 519 
Q 2988 519 3436 956 
Q 3884 1394 3884 2338 
Q 3884 3275 3436 3711 
Q 2988 4147 2022 4147 
L 1259 4147 
z
M 628 4666 
L 1925 4666 
Q 3281 4666 3915 4102 
Q 4550 3538 4550 2338 
Q 4550 1131 3912 565 
Q 3275 0 1925 0 
L 628 0 
L 628 4666 
z
" transform="scale(0.015625)"/>
       <path id="DejaVuSans-6e" d="M 3513 2113 
L 3513 0 
L 2938 0 
L 2938 2094 
Q 2938 2591 2744 2837 
Q 2550 3084 2163 3084 
Q 1697 3084 1428 2787 
Q 1159 2491 1159 1978 
L 1159 0 
L 581 0 
L 581 3500 
L 1159 3500 
L 1159 2956 
Q 1366 3272 1645 3428 
Q 1925 3584 2291 3584 
Q 2894 3584 3203 3211 
Q 3513 2838 3513 2113 
z
" transform="scale(0.015625)"/>
       <path id="DejaVuSans-64" d="M 2906 2969 
L 2906 4863 
L 3481 4863 
L 3481 0 
L 2906 0 
L 2906 525 
Q 2725 213 2448 61 
Q 2172 -91 1784 -91 
Q 1150 -91 751 415 
Q 353 922 353 1747 
Q 353 2572 751 3078 
Q 1150 3584 1784 3584 
Q 2172 3584 2448 3432 
Q 2725 3281 2906 2969 
z
M 947 1747 
Q 947 1113 1208 752 
Q 1469 391 1925 391 
Q 2381 391 2643 752 
Q 2906 1113 2906 1747 
Q 2906 2381 2643 2742 
Q 2381 3103 1925 3103 
Q 1469 3103 1208 2742 
Q 947 2381 947 1747 
z
" transform="scale(0.015625)"/>
       <path id="DejaVuSans-72" d="M 2631 2963 
Q 2534 3019 2420 3045 
Q 2306 3072 2169 3072 
Q 1681 3072 1420 2755 
Q 1159 2438 1159 1844 
L 1159 0 
L 581 0 
L 581 3500 
L 1159 3500 
L 1159 2956 
Q 1341 3275 1631 3429 
Q 1922 3584 2338 3584 
Q 2397 3584 2469 3576 
Q 2541 3569 2628 3553 
L 2631 2963 
z
" transform="scale(0.015625)"/>
       <path id="DejaVuSans-74" d="M 1172 4494 
L 1172 3500 
L 2356 3500 
L 2356 3053 
L 1172 3053 
L 1172 1153 
Q 1172 725 1289 603 
Q 1406 481 1766 481 
L 2356 481 
L 2356 0 
L 1766 0 
Q 1100 0 847 248 
Q 594 497 594 1153 
L 594 3053 
L 172 3053 
L 172 3500 
L 594 3500 
L 594 4494 
L 1172 4494 
z
" transform="scale(0.015625)"/>
      </defs>
      <use xlink:href="#DejaVuSans-44"/>
      <use xlink:href="#DejaVuSans-65" x="77.001953"/>
      <use xlink:href="#DejaVuSans-6e" x="138.525391"/>
      <use xlink:href="#DejaVuSans-64" x="201.904297"/>
      <use xlink:href="#DejaVuSans-72" x="265.380859"/>
      <use xlink:href="#DejaVuSans-69" x="306.494141"/>
      <use xlink:href="#DejaVuSans-74" x="334.277344"/>
      <use xlink:href="#DejaVuSans-65" x="373.486328"/>
     </g>
    </g>
   </g>
  </g>
 </g>
 <defs>
  <clipPath id="p506499b064">
   <rect x="108" y="34.56" width="669.6" height="221.76"/>
  </clipPath>
 </defs>
</svg>
