<?xml version="1.0" encoding="utf-8" standalone="no"?>
<!DOCTYPE svg PUBLIC "-//W3C//DTD SVG 1.1//EN"
  "http://www.w3.org/Graphics/SVG/1.1/DTD/svg11.dtd">
<svg xmlns:xlink="http://www.w3.org/1999/xlink" width="864pt" height="288pt" viewBox="0 0 864 288" xmlns="http://www.w3.org/2000/svg" version="1.1">
 <metadata>
  <rdf:RDF xmlns:dc="http://purl.org/dc/elements/1.1/" xmlns:cc="http://creativecommons.org/ns#" xmlns:rdf="http://www.w3.org/1999/02/22-rdf-syntax-ns#">
   <cc:Work>
    <dc:type rdf:resource="http://purl.org/dc/dcmitype/StillImage"/>
    <dc:date>2024-04-23T19:18:19.000980</dc:date>
    <dc:format>image/svg+xml</dc:format>
    <dc:creator>
     <cc:Agent>
      <dc:title>Matplotlib v3.8.2, https://matplotlib.org/</dc:title>
     </cc:Agent>
    </dc:creator>
   </cc:Work>
  </rdf:RDF>
 </metadata>
 <defs>
  <style type="text/css">*{stroke-linejoin: round; stroke-linecap: butt}</style>
 </defs>
 <g id="figure_1">
  <g id="patch_1">
   <path d="M 0 288 
L 864 288 
L 864 0 
L 0 0 
z
" style="fill: #ffffff"/>
  </g>
  <g id="axes_1">
   <g id="patch_2">
    <path d="M 108 256.32 
L 777.6 256.32 
L 777.6 34.56 
L 108 34.56 
z
" style="fill: #ffffff"/>
   </g>
   <g id="matplotlib.axis_1">
    <g id="xtick_1">
     <g id="line2d_1">
      <path d="M 108 256.32 
L 108 34.56 
" clip-path="url(#p375cd84497)" style="fill: none; stroke: #b0b0b0; stroke-width: 0.8; stroke-linecap: square"/>
     </g>
     <g id="line2d_2">
      <defs>
       <path id="m9e1c2c7d00" d="M 0 0 
L 0 3.5 
" style="stroke: #000000; stroke-width: 0.8"/>
      </defs>
      <g>
       <use xlink:href="#m9e1c2c7d00" x="108" y="256.32" style="stroke: #000000; stroke-width: 0.8"/>
      </g>
     </g>
     <g id="text_1">
      <!-- 100 -->
      <g transform="translate(94.63875 273.957812) scale(0.14 -0.14)">
       <defs>
        <path id="DejaVuSans-31" d="M 794 531 
L 1825 531 
L 1825 4091 
L 703 3866 
L 703 4441 
L 1819 4666 
L 2450 4666 
L 2450 531 
L 3481 531 
L 3481 0 
L 794 0 
L 794 531 
z
" transform="scale(0.015625)"/>
        <path id="DejaVuSans-30" d="M 2034 4250 
Q 1547 4250 1301 3770 
Q 1056 3291 1056 2328 
Q 1056 1369 1301 889 
Q 1547 409 2034 409 
Q 2525 409 2770 889 
Q 3016 1369 3016 2328 
Q 3016 3291 2770 3770 
Q 2525 4250 2034 4250 
z
M 2034 4750 
Q 2819 4750 3233 4129 
Q 3647 3509 3647 2328 
Q 3647 1150 3233 529 
Q 2819 -91 2034 -91 
Q 1250 -91 836 529 
Q 422 1150 422 2328 
Q 422 3509 836 4129 
Q 1250 4750 2034 4750 
z
" transform="scale(0.015625)"/>
       </defs>
       <use xlink:href="#DejaVuSans-31"/>
       <use xlink:href="#DejaVuSans-30" x="63.623047"/>
       <use xlink:href="#DejaVuSans-30" x="127.246094"/>
      </g>
     </g>
    </g>
    <g id="xtick_2">
     <g id="line2d_3">
      <path d="M 241.92 256.32 
L 241.92 34.56 
" clip-path="url(#p375cd84497)" style="fill: none; stroke: #b0b0b0; stroke-width: 0.8; stroke-linecap: square"/>
     </g>
     <g id="line2d_4">
      <g>
       <use xlink:href="#m9e1c2c7d00" x="241.92" y="256.32" style="stroke: #000000; stroke-width: 0.8"/>
      </g>
     </g>
     <g id="text_2">
      <!-- 120 -->
      <g transform="translate(228.55875 273.957812) scale(0.14 -0.14)">
       <defs>
        <path id="DejaVuSans-32" d="M 1228 531 
L 3431 531 
L 3431 0 
L 469 0 
L 469 531 
Q 828 903 1448 1529 
Q 2069 2156 2228 2338 
Q 2531 2678 2651 2914 
Q 2772 3150 2772 3378 
Q 2772 3750 2511 3984 
Q 2250 4219 1831 4219 
Q 1534 4219 1204 4116 
Q 875 4013 500 3803 
L 500 4441 
Q 881 4594 1212 4672 
Q 1544 4750 1819 4750 
Q 2544 4750 2975 4387 
Q 3406 4025 3406 3419 
Q 3406 3131 3298 2873 
Q 3191 2616 2906 2266 
Q 2828 2175 2409 1742 
Q 1991 1309 1228 531 
z
" transform="scale(0.015625)"/>
       </defs>
       <use xlink:href="#DejaVuSans-31"/>
       <use xlink:href="#DejaVuSans-32" x="63.623047"/>
       <use xlink:href="#DejaVuSans-30" x="127.246094"/>
      </g>
     </g>
    </g>
    <g id="xtick_3">
     <g id="line2d_5">
      <path d="M 375.84 256.32 
L 375.84 34.56 
" clip-path="url(#p375cd84497)" style="fill: none; stroke: #b0b0b0; stroke-width: 0.8; stroke-linecap: square"/>
     </g>
     <g id="line2d_6">
      <g>
       <use xlink:href="#m9e1c2c7d00" x="375.84" y="256.32" style="stroke: #000000; stroke-width: 0.8"/>
      </g>
     </g>
     <g id="text_3">
      <!-- 140 -->
      <g transform="translate(362.47875 273.957812) scale(0.14 -0.14)">
       <defs>
        <path id="DejaVuSans-34" d="M 2419 4116 
L 825 1625 
L 2419 1625 
L 2419 4116 
z
M 2253 4666 
L 3047 4666 
L 3047 1625 
L 3713 1625 
L 3713 1100 
L 3047 1100 
L 3047 0 
L 2419 0 
L 2419 1100 
L 313 1100 
L 313 1709 
L 2253 4666 
z
" transform="scale(0.015625)"/>
       </defs>
       <use xlink:href="#DejaVuSans-31"/>
       <use xlink:href="#DejaVuSans-34" x="63.623047"/>
       <use xlink:href="#DejaVuSans-30" x="127.246094"/>
      </g>
     </g>
    </g>
    <g id="xtick_4">
     <g id="line2d_7">
      <path d="M 509.76 256.32 
L 509.76 34.56 
" clip-path="url(#p375cd84497)" style="fill: none; stroke: #b0b0b0; stroke-width: 0.8; stroke-linecap: square"/>
     </g>
     <g id="line2d_8">
      <g>
       <use xlink:href="#m9e1c2c7d00" x="509.76" y="256.32" style="stroke: #000000; stroke-width: 0.8"/>
      </g>
     </g>
     <g id="text_4">
      <!-- 160 -->
      <g transform="translate(496.39875 273.957812) scale(0.14 -0.14)">
       <defs>
        <path id="DejaVuSans-36" d="M 2113 2584 
Q 1688 2584 1439 2293 
Q 1191 2003 1191 1497 
Q 1191 994 1439 701 
Q 1688 409 2113 409 
Q 2538 409 2786 701 
Q 3034 994 3034 1497 
Q 3034 2003 2786 2293 
Q 2538 2584 2113 2584 
z
M 3366 4563 
L 3366 3988 
Q 3128 4100 2886 4159 
Q 2644 4219 2406 4219 
Q 1781 4219 1451 3797 
Q 1122 3375 1075 2522 
Q 1259 2794 1537 2939 
Q 1816 3084 2150 3084 
Q 2853 3084 3261 2657 
Q 3669 2231 3669 1497 
Q 3669 778 3244 343 
Q 2819 -91 2113 -91 
Q 1303 -91 875 529 
Q 447 1150 447 2328 
Q 447 3434 972 4092 
Q 1497 4750 2381 4750 
Q 2619 4750 2861 4703 
Q 3103 4656 3366 4563 
z
" transform="scale(0.015625)"/>
       </defs>
       <use xlink:href="#DejaVuSans-31"/>
       <use xlink:href="#DejaVuSans-36" x="63.623047"/>
       <use xlink:href="#DejaVuSans-30" x="127.246094"/>
      </g>
     </g>
    </g>
    <g id="xtick_5">
     <g id="line2d_9">
      <path d="M 643.68 256.32 
L 643.68 34.56 
" clip-path="url(#p375cd84497)" style="fill: none; stroke: #b0b0b0; stroke-width: 0.8; stroke-linecap: square"/>
     </g>
     <g id="line2d_10">
      <g>
       <use xlink:href="#m9e1c2c7d00" x="643.68" y="256.32" style="stroke: #000000; stroke-width: 0.8"/>
      </g>
     </g>
     <g id="text_5">
      <!-- 180 -->
      <g transform="translate(630.31875 273.957812) scale(0.14 -0.14)">
       <defs>
        <path id="DejaVuSans-38" d="M 2034 2216 
Q 1584 2216 1326 1975 
Q 1069 1734 1069 1313 
Q 1069 891 1326 650 
Q 1584 409 2034 409 
Q 2484 409 2743 651 
Q 3003 894 3003 1313 
Q 3003 1734 2745 1975 
Q 2488 2216 2034 2216 
z
M 1403 2484 
Q 997 2584 770 2862 
Q 544 3141 544 3541 
Q 544 4100 942 4425 
Q 1341 4750 2034 4750 
Q 2731 4750 3128 4425 
Q 3525 4100 3525 3541 
Q 3525 3141 3298 2862 
Q 3072 2584 2669 2484 
Q 3125 2378 3379 2068 
Q 3634 1759 3634 1313 
Q 3634 634 3220 271 
Q 2806 -91 2034 -91 
Q 1263 -91 848 271 
Q 434 634 434 1313 
Q 434 1759 690 2068 
Q 947 2378 1403 2484 
z
M 1172 3481 
Q 1172 3119 1398 2916 
Q 1625 2713 2034 2713 
Q 2441 2713 2670 2916 
Q 2900 3119 2900 3481 
Q 2900 3844 2670 4047 
Q 2441 4250 2034 4250 
Q 1625 4250 1398 4047 
Q 1172 3844 1172 3481 
z
" transform="scale(0.015625)"/>
       </defs>
       <use xlink:href="#DejaVuSans-31"/>
       <use xlink:href="#DejaVuSans-38" x="63.623047"/>
       <use xlink:href="#DejaVuSans-30" x="127.246094"/>
      </g>
     </g>
    </g>
    <g id="xtick_6">
     <g id="line2d_11">
      <path d="M 777.6 256.32 
L 777.6 34.56 
" clip-path="url(#p375cd84497)" style="fill: none; stroke: #b0b0b0; stroke-width: 0.8; stroke-linecap: square"/>
     </g>
     <g id="line2d_12">
      <g>
       <use xlink:href="#m9e1c2c7d00" x="777.6" y="256.32" style="stroke: #000000; stroke-width: 0.8"/>
      </g>
     </g>
     <g id="text_6">
      <!-- 200 -->
      <g transform="translate(764.23875 273.957812) scale(0.14 -0.14)">
       <use xlink:href="#DejaVuSans-32"/>
       <use xlink:href="#DejaVuSans-30" x="63.623047"/>
       <use xlink:href="#DejaVuSans-30" x="127.246094"/>
      </g>
     </g>
    </g>
    <g id="text_7">
     <!-- Time (ms) -->
     <g transform="translate(407.521094 291.507187) scale(0.14 -0.14)">
      <defs>
       <path id="DejaVuSans-54" d="M -19 4666 
L 3928 4666 
L 3928 4134 
L 2272 4134 
L 2272 0 
L 1638 0 
L 1638 4134 
L -19 4134 
L -19 4666 
z
" transform="scale(0.015625)"/>
       <path id="DejaVuSans-69" d="M 603 3500 
L 1178 3500 
L 1178 0 
L 603 0 
L 603 3500 
z
M 603 4863 
L 1178 4863 
L 1178 4134 
L 603 4134 
L 603 4863 
z
" transform="scale(0.015625)"/>
       <path id="DejaVuSans-6d" d="M 3328 2828 
Q 3544 3216 3844 3400 
Q 4144 3584 4550 3584 
Q 5097 3584 5394 3201 
Q 5691 2819 5691 2113 
L 5691 0 
L 5113 0 
L 5113 2094 
Q 5113 2597 4934 2840 
Q 4756 3084 4391 3084 
Q 3944 3084 3684 2787 
Q 3425 2491 3425 1978 
L 3425 0 
L 2847 0 
L 2847 2094 
Q 2847 2600 2669 2842 
Q 2491 3084 2119 3084 
Q 1678 3084 1418 2786 
Q 1159 2488 1159 1978 
L 1159 0 
L 581 0 
L 581 3500 
L 1159 3500 
L 1159 2956 
Q 1356 3278 1631 3431 
Q 1906 3584 2284 3584 
Q 2666 3584 2933 3390 
Q 3200 3197 3328 2828 
z
" transform="scale(0.015625)"/>
       <path id="DejaVuSans-65" d="M 3597 1894 
L 3597 1613 
L 953 1613 
Q 991 1019 1311 708 
Q 1631 397 2203 397 
Q 2534 397 2845 478 
Q 3156 559 3463 722 
L 3463 178 
Q 3153 47 2828 -22 
Q 2503 -91 2169 -91 
Q 1331 -91 842 396 
Q 353 884 353 1716 
Q 353 2575 817 3079 
Q 1281 3584 2069 3584 
Q 2775 3584 3186 3129 
Q 3597 2675 3597 1894 
z
M 3022 2063 
Q 3016 2534 2758 2815 
Q 2500 3097 2075 3097 
Q 1594 3097 1305 2825 
Q 1016 2553 972 2059 
L 3022 2063 
z
" transform="scale(0.015625)"/>
       <path id="DejaVuSans-20" transform="scale(0.015625)"/>
       <path id="DejaVuSans-28" d="M 1984 4856 
Q 1566 4138 1362 3434 
Q 1159 2731 1159 2009 
Q 1159 1288 1364 580 
Q 1569 -128 1984 -844 
L 1484 -844 
Q 1016 -109 783 600 
Q 550 1309 550 2009 
Q 550 2706 781 3412 
Q 1013 4119 1484 4856 
L 1984 4856 
z
" transform="scale(0.015625)"/>
       <path id="DejaVuSans-73" d="M 2834 3397 
L 2834 2853 
Q 2591 2978 2328 3040 
Q 2066 3103 1784 3103 
Q 1356 3103 1142 2972 
Q 928 2841 928 2578 
Q 928 2378 1081 2264 
Q 1234 2150 1697 2047 
L 1894 2003 
Q 2506 1872 2764 1633 
Q 3022 1394 3022 966 
Q 3022 478 2636 193 
Q 2250 -91 1575 -91 
Q 1294 -91 989 -36 
Q 684 19 347 128 
L 347 722 
Q 666 556 975 473 
Q 1284 391 1588 391 
Q 1994 391 2212 530 
Q 2431 669 2431 922 
Q 2431 1156 2273 1281 
Q 2116 1406 1581 1522 
L 1381 1569 
Q 847 1681 609 1914 
Q 372 2147 372 2553 
Q 372 3047 722 3315 
Q 1072 3584 1716 3584 
Q 2034 3584 2315 3537 
Q 2597 3491 2834 3397 
z
" transform="scale(0.015625)"/>
       <path id="DejaVuSans-29" d="M 513 4856 
L 1013 4856 
Q 1481 4119 1714 3412 
Q 1947 2706 1947 2009 
Q 1947 1309 1714 600 
Q 1481 -109 1013 -844 
L 513 -844 
Q 928 -128 1133 580 
Q 1338 1288 1338 2009 
Q 1338 2731 1133 3434 
Q 928 4138 513 4856 
z
" transform="scale(0.015625)"/>
      </defs>
      <use xlink:href="#DejaVuSans-54"/>
      <use xlink:href="#DejaVuSans-69" x="57.958984"/>
      <use xlink:href="#DejaVuSans-6d" x="85.742188"/>
      <use xlink:href="#DejaVuSans-65" x="183.154297"/>
      <use xlink:href="#DejaVuSans-20" x="244.677734"/>
      <use xlink:href="#DejaVuSans-28" x="276.464844"/>
      <use xlink:href="#DejaVuSans-6d" x="315.478516"/>
      <use xlink:href="#DejaVuSans-73" x="412.890625"/>
      <use xlink:href="#DejaVuSans-29" x="464.990234"/>
     </g>
    </g>
   </g>
   <g id="matplotlib.axis_2">
    <g id="ytick_1">
     <g id="line2d_13">
      <path d="M 108 246.24 
L 777.6 246.24 
" clip-path="url(#p375cd84497)" style="fill: none; stroke: #b0b0b0; stroke-width: 0.8; stroke-linecap: square"/>
     </g>
     <g id="line2d_14">
      <defs>
       <path id="m3c5f71ffda" d="M 0 0 
L -3.5 0 
" style="stroke: #000000; stroke-width: 0.8"/>
      </defs>
      <g>
       <use xlink:href="#m3c5f71ffda" x="108" y="246.24" style="stroke: #000000; stroke-width: 0.8"/>
      </g>
     </g>
     <g id="text_8">
      <!-- 0.00 -->
      <g transform="translate(69.828125 251.558906) scale(0.14 -0.14)">
       <defs>
        <path id="DejaVuSans-2e" d="M 684 794 
L 1344 794 
L 1344 0 
L 684 0 
L 684 794 
z
" transform="scale(0.015625)"/>
       </defs>
       <use xlink:href="#DejaVuSans-30"/>
       <use xlink:href="#DejaVuSans-2e" x="63.623047"/>
       <use xlink:href="#DejaVuSans-30" x="95.410156"/>
       <use xlink:href="#DejaVuSans-30" x="159.033203"/>
      </g>
     </g>
    </g>
    <g id="ytick_2">
     <g id="line2d_15">
      <path d="M 108 208.879078 
L 777.6 208.879078 
" clip-path="url(#p375cd84497)" style="fill: none; stroke: #b0b0b0; stroke-width: 0.8; stroke-linecap: square"/>
     </g>
     <g id="line2d_16">
      <g>
       <use xlink:href="#m3c5f71ffda" x="108" y="208.879078" style="stroke: #000000; stroke-width: 0.8"/>
      </g>
     </g>
     <g id="text_9">
      <!-- 0.05 -->
      <g transform="translate(69.828125 214.197984) scale(0.14 -0.14)">
       <defs>
        <path id="DejaVuSans-35" d="M 691 4666 
L 3169 4666 
L 3169 4134 
L 1269 4134 
L 1269 2991 
Q 1406 3038 1543 3061 
Q 1681 3084 1819 3084 
Q 2600 3084 3056 2656 
Q 3513 2228 3513 1497 
Q 3513 744 3044 326 
Q 2575 -91 1722 -91 
Q 1428 -91 1123 -41 
Q 819 9 494 109 
L 494 744 
Q 775 591 1075 516 
Q 1375 441 1709 441 
Q 2250 441 2565 725 
Q 2881 1009 2881 1497 
Q 2881 1984 2565 2268 
Q 2250 2553 1709 2553 
Q 1456 2553 1204 2497 
Q 953 2441 691 2322 
L 691 4666 
z
" transform="scale(0.015625)"/>
       </defs>
       <use xlink:href="#DejaVuSans-30"/>
       <use xlink:href="#DejaVuSans-2e" x="63.623047"/>
       <use xlink:href="#DejaVuSans-30" x="95.410156"/>
       <use xlink:href="#DejaVuSans-35" x="159.033203"/>
      </g>
     </g>
    </g>
    <g id="ytick_3">
     <g id="line2d_17">
      <path d="M 108 171.518155 
L 777.6 171.518155 
" clip-path="url(#p375cd84497)" style="fill: none; stroke: #b0b0b0; stroke-width: 0.8; stroke-linecap: square"/>
     </g>
     <g id="line2d_18">
      <g>
       <use xlink:href="#m3c5f71ffda" x="108" y="171.518155" style="stroke: #000000; stroke-width: 0.8"/>
      </g>
     </g>
     <g id="text_10">
      <!-- 0.10 -->
      <g transform="translate(69.828125 176.837062) scale(0.14 -0.14)">
       <use xlink:href="#DejaVuSans-30"/>
       <use xlink:href="#DejaVuSans-2e" x="63.623047"/>
       <use xlink:href="#DejaVuSans-31" x="95.410156"/>
       <use xlink:href="#DejaVuSans-30" x="159.033203"/>
      </g>
     </g>
    </g>
    <g id="ytick_4">
     <g id="line2d_19">
      <path d="M 108 134.157233 
L 777.6 134.157233 
" clip-path="url(#p375cd84497)" style="fill: none; stroke: #b0b0b0; stroke-width: 0.8; stroke-linecap: square"/>
     </g>
     <g id="line2d_20">
      <g>
       <use xlink:href="#m3c5f71ffda" x="108" y="134.157233" style="stroke: #000000; stroke-width: 0.8"/>
      </g>
     </g>
     <g id="text_11">
      <!-- 0.15 -->
      <g transform="translate(69.828125 139.476139) scale(0.14 -0.14)">
       <use xlink:href="#DejaVuSans-30"/>
       <use xlink:href="#DejaVuSans-2e" x="63.623047"/>
       <use xlink:href="#DejaVuSans-31" x="95.410156"/>
       <use xlink:href="#DejaVuSans-35" x="159.033203"/>
      </g>
     </g>
    </g>
    <g id="ytick_5">
     <g id="line2d_21">
      <path d="M 108 96.796311 
L 777.6 96.796311 
" clip-path="url(#p375cd84497)" style="fill: none; stroke: #b0b0b0; stroke-width: 0.8; stroke-linecap: square"/>
     </g>
     <g id="line2d_22">
      <g>
       <use xlink:href="#m3c5f71ffda" x="108" y="96.796311" style="stroke: #000000; stroke-width: 0.8"/>
      </g>
     </g>
     <g id="text_12">
      <!-- 0.20 -->
      <g transform="translate(69.828125 102.115217) scale(0.14 -0.14)">
       <use xlink:href="#DejaVuSans-30"/>
       <use xlink:href="#DejaVuSans-2e" x="63.623047"/>
       <use xlink:href="#DejaVuSans-32" x="95.410156"/>
       <use xlink:href="#DejaVuSans-30" x="159.033203"/>
      </g>
     </g>
    </g>
    <g id="ytick_6">
     <g id="line2d_23">
      <path d="M 108 59.435388 
L 777.6 59.435388 
" clip-path="url(#p375cd84497)" style="fill: none; stroke: #b0b0b0; stroke-width: 0.8; stroke-linecap: square"/>
     </g>
     <g id="line2d_24">
      <g>
       <use xlink:href="#m3c5f71ffda" x="108" y="59.435388" style="stroke: #000000; stroke-width: 0.8"/>
      </g>
     </g>
     <g id="text_13">
      <!-- 0.25 -->
      <g transform="translate(69.828125 64.754295) scale(0.14 -0.14)">
       <use xlink:href="#DejaVuSans-30"/>
       <use xlink:href="#DejaVuSans-2e" x="63.623047"/>
       <use xlink:href="#DejaVuSans-32" x="95.410156"/>
       <use xlink:href="#DejaVuSans-35" x="159.033203"/>
      </g>
     </g>
    </g>
    <g id="text_14">
     <!-- $g_{Inhib}$ (µS) -->
     <g transform="translate(62.888125 178.83) rotate(-90) scale(0.14 -0.14)">
      <defs>
       <path id="DejaVuSans-Oblique-67" d="M 3816 3500 
L 3219 434 
Q 3047 -456 2561 -893 
Q 2075 -1331 1253 -1331 
Q 950 -1331 690 -1286 
Q 431 -1241 206 -1147 
L 313 -588 
Q 525 -725 762 -790 
Q 1000 -856 1269 -856 
Q 1816 -856 2167 -557 
Q 2519 -259 2631 300 
L 2681 563 
Q 2441 288 2122 144 
Q 1803 0 1434 0 
Q 903 0 598 351 
Q 294 703 294 1319 
Q 294 1803 478 2267 
Q 663 2731 997 3091 
Q 1219 3328 1514 3456 
Q 1809 3584 2131 3584 
Q 2484 3584 2746 3420 
Q 3009 3256 3138 2956 
L 3238 3500 
L 3816 3500 
z
M 2950 2216 
Q 2950 2641 2750 2872 
Q 2550 3103 2181 3103 
Q 1953 3103 1747 3012 
Q 1541 2922 1394 2759 
Q 1156 2491 1023 2127 
Q 891 1763 891 1375 
Q 891 944 1092 712 
Q 1294 481 1672 481 
Q 2219 481 2584 976 
Q 2950 1472 2950 2216 
z
" transform="scale(0.015625)"/>
       <path id="DejaVuSans-Oblique-49" d="M 1081 4666 
L 1716 4666 
L 806 0 
L 172 0 
L 1081 4666 
z
" transform="scale(0.015625)"/>
       <path id="DejaVuSans-Oblique-6e" d="M 3566 2113 
L 3156 0 
L 2578 0 
L 2988 2091 
Q 3016 2238 3031 2350 
Q 3047 2463 3047 2528 
Q 3047 2791 2881 2937 
Q 2716 3084 2419 3084 
Q 1956 3084 1622 2776 
Q 1288 2469 1184 1941 
L 800 0 
L 225 0 
L 903 3500 
L 1478 3500 
L 1363 2950 
Q 1603 3253 1940 3418 
Q 2278 3584 2650 3584 
Q 3113 3584 3367 3334 
Q 3622 3084 3622 2631 
Q 3622 2519 3608 2391 
Q 3594 2263 3566 2113 
z
" transform="scale(0.015625)"/>
       <path id="DejaVuSans-Oblique-68" d="M 3566 2113 
L 3156 0 
L 2578 0 
L 2988 2091 
Q 3016 2238 3031 2350 
Q 3047 2463 3047 2528 
Q 3047 2791 2881 2937 
Q 2716 3084 2419 3084 
Q 1956 3084 1617 2771 
Q 1278 2459 1178 1941 
L 800 0 
L 225 0 
L 1172 4863 
L 1747 4863 
L 1375 2950 
Q 1594 3244 1934 3414 
Q 2275 3584 2650 3584 
Q 3113 3584 3367 3334 
Q 3622 3084 3622 2631 
Q 3622 2519 3608 2391 
Q 3594 2263 3566 2113 
z
" transform="scale(0.015625)"/>
       <path id="DejaVuSans-Oblique-69" d="M 1172 4863 
L 1747 4863 
L 1606 4134 
L 1031 4134 
L 1172 4863 
z
M 909 3500 
L 1484 3500 
L 800 0 
L 225 0 
L 909 3500 
z
" transform="scale(0.015625)"/>
       <path id="DejaVuSans-Oblique-62" d="M 3169 2138 
Q 3169 2591 2961 2847 
Q 2753 3103 2388 3103 
Q 2122 3103 1889 2973 
Q 1656 2844 1484 2597 
Q 1303 2338 1198 1995 
Q 1094 1653 1094 1313 
Q 1094 881 1298 636 
Q 1503 391 1863 391 
Q 2134 391 2365 517 
Q 2597 644 2772 891 
Q 2950 1147 3059 1487 
Q 3169 1828 3169 2138 
z
M 1381 2969 
Q 1594 3256 1914 3420 
Q 2234 3584 2584 3584 
Q 3122 3584 3439 3221 
Q 3756 2859 3756 2241 
Q 3756 1734 3570 1259 
Q 3384 784 3041 416 
Q 2816 172 2522 40 
Q 2228 -91 1906 -91 
Q 1566 -91 1316 65 
Q 1066 222 909 531 
L 806 0 
L 231 0 
L 1178 4863 
L 1753 4863 
L 1381 2969 
z
" transform="scale(0.015625)"/>
       <path id="DejaVuSans-b5" d="M 544 -1331 
L 544 3500 
L 1119 3500 
L 1119 1325 
Q 1119 872 1334 640 
Q 1550 409 1972 409 
Q 2434 409 2667 671 
Q 2900 934 2900 1459 
L 2900 3500 
L 3475 3500 
L 3475 806 
Q 3475 619 3529 530 
Q 3584 441 3700 441 
Q 3728 441 3778 458 
Q 3828 475 3916 513 
L 3916 50 
Q 3788 -22 3673 -56 
Q 3559 -91 3450 -91 
Q 3234 -91 3106 31 
Q 2978 153 2931 403 
Q 2775 156 2548 32 
Q 2322 -91 2016 -91 
Q 1697 -91 1473 31 
Q 1250 153 1119 397 
L 1119 -1331 
L 544 -1331 
z
" transform="scale(0.015625)"/>
       <path id="DejaVuSans-53" d="M 3425 4513 
L 3425 3897 
Q 3066 4069 2747 4153 
Q 2428 4238 2131 4238 
Q 1616 4238 1336 4038 
Q 1056 3838 1056 3469 
Q 1056 3159 1242 3001 
Q 1428 2844 1947 2747 
L 2328 2669 
Q 3034 2534 3370 2195 
Q 3706 1856 3706 1288 
Q 3706 609 3251 259 
Q 2797 -91 1919 -91 
Q 1588 -91 1214 -16 
Q 841 59 441 206 
L 441 856 
Q 825 641 1194 531 
Q 1563 422 1919 422 
Q 2459 422 2753 634 
Q 3047 847 3047 1241 
Q 3047 1584 2836 1778 
Q 2625 1972 2144 2069 
L 1759 2144 
Q 1053 2284 737 2584 
Q 422 2884 422 3419 
Q 422 4038 858 4394 
Q 1294 4750 2059 4750 
Q 2388 4750 2728 4690 
Q 3069 4631 3425 4513 
z
" transform="scale(0.015625)"/>
      </defs>
      <use xlink:href="#DejaVuSans-Oblique-67" transform="translate(0 0.125)"/>
      <use xlink:href="#DejaVuSans-Oblique-49" transform="translate(63.476562 -16.28125) scale(0.7)"/>
      <use xlink:href="#DejaVuSans-Oblique-6e" transform="translate(84.121094 -16.28125) scale(0.7)"/>
      <use xlink:href="#DejaVuSans-Oblique-68" transform="translate(128.486328 -16.28125) scale(0.7)"/>
      <use xlink:href="#DejaVuSans-Oblique-69" transform="translate(172.851562 -16.28125) scale(0.7)"/>
      <use xlink:href="#DejaVuSans-Oblique-62" transform="translate(192.299805 -16.28125) scale(0.7)"/>
      <use xlink:href="#DejaVuSans-20" transform="translate(239.467773 0.125)"/>
      <use xlink:href="#DejaVuSans-28" transform="translate(271.254883 0.125)"/>
      <use xlink:href="#DejaVuSans-b5" transform="translate(310.268555 0.125)"/>
      <use xlink:href="#DejaVuSans-53" transform="translate(373.891602 0.125)"/>
      <use xlink:href="#DejaVuSans-29" transform="translate(437.368164 0.125)"/>
     </g>
    </g>
   </g>
   <g id="line2d_25">
    <path d="M 108 155.099334 
L 111.348 162.190653 
L 112.0176 156.504044 
L 112.6872 155.285716 
L 113.3568 149.556049 
L 114.0264 148.449372 
L 114.696 135.792323 
L 115.3656 132.246483 
L 116.0352 119.695789 
L 116.7048 109.371374 
L 118.7136 86.632633 
L 119.3832 86.383085 
L 120.0528 81.760647 
L 120.7224 74.706169 
L 121.392 74.648273 
L 124.0704 85.268103 
L 124.74 80.8176 
L 125.4096 73.778276 
L 126.0792 73.735291 
L 129.4272 87.012892 
L 130.0968 82.534352 
L 130.7664 82.504679 
L 132.1056 87.57314 
L 132.7752 76.048358 
L 133.4448 73.462574 
L 134.1144 68.893744 
L 134.784 69.083269 
L 136.7928 77.338108 
L 137.4624 65.977799 
L 138.132 63.553843 
L 139.4712 69.074927 
L 142.8192 82.859488 
L 146.1672 95.571522 
L 149.5152 107.29448 
L 152.8632 118.105318 
L 156.2112 128.075005 
L 159.5592 137.268987 
L 162.9072 145.747619 
L 166.2552 153.56656 
L 169.6032 160.777139 
L 172.9512 167.426688 
L 176.2992 173.558861 
L 179.6472 179.213912 
L 182.9952 184.428965 
L 186.3432 189.238253 
L 189.6912 193.673349 
L 193.0392 197.763366 
L 196.3872 201.535154 
L 199.7352 205.013473 
L 203.0832 208.221157 
L 207.1008 211.742671 
L 210.4488 214.42678 
L 211.1184 207.900764 
L 211.788 198.81928 
L 212.4576 196.76695 
L 213.7968 198.192645 
L 215.8056 200.471911 
L 216.4752 194.170143 
L 217.1448 192.34654 
L 217.8144 193.058563 
L 218.484 186.875923 
L 219.1536 185.169535 
L 220.4928 186.964964 
L 223.8408 191.576935 
L 224.5104 192.455343 
L 225.18 186.282396 
L 225.8496 170.51107 
L 226.5192 159.216062 
L 227.1888 150.608879 
L 227.8584 149.331266 
L 228.528 150.734522 
L 229.1976 145.232008 
L 229.8672 144.194816 
L 231.876 148.886519 
L 232.5456 143.413702 
L 233.2152 142.405729 
L 233.8848 143.920274 
L 234.5544 138.527262 
L 235.224 130.560573 
L 235.8936 129.605126 
L 237.2328 133.17199 
L 237.9024 120.914458 
L 238.572 117.607698 
L 239.9112 121.405506 
L 243.2592 131.118417 
L 243.9288 118.893886 
L 244.5984 115.619595 
L 245.9376 119.480785 
L 246.6072 114.480502 
L 247.2768 106.900233 
L 247.9464 106.324995 
L 249.2856 110.634047 
L 249.9552 105.775927 
L 251.2944 90.86069 
L 251.964 90.543199 
L 253.3032 95.355386 
L 253.9728 83.705548 
L 254.6424 80.996716 
L 255.9816 85.961709 
L 256.6512 81.500061 
L 257.3208 81.487008 
L 257.9904 83.980486 
L 258.66 79.550675 
L 259.3296 79.568948 
L 262.008 89.880029 
L 262.6776 85.355416 
L 263.3472 85.28041 
L 264.0168 87.71293 
L 264.6864 83.22314 
L 265.356 83.182399 
L 270.7128 102.865076 
L 271.3824 98.131799 
L 272.052 97.851483 
L 276.7392 113.619949 
L 277.4088 108.713847 
L 278.0784 108.263483 
L 285.444 130.65371 
L 288.792 139.647052 
L 292.14 147.940656 
L 295.488 155.588965 
L 298.836 162.642188 
L 302.184 169.146625 
L 305.532 175.144976 
L 308.88 180.676617 
L 312.228 185.777862 
L 315.576 190.482198 
L 318.924 194.820506 
L 322.272 198.821267 
L 325.62 202.510744 
L 328.968 205.913156 
L 332.9856 209.648449 
L 336.3336 212.495503 
L 337.0032 206.000522 
L 337.6728 203.986811 
L 338.3424 204.51178 
L 341.6904 207.758499 
L 345.708 211.322867 
L 349.7256 214.557083 
L 350.3952 208.028973 
L 351.0648 205.982666 
L 351.7344 206.475563 
L 353.7432 208.361905 
L 354.4128 201.933349 
L 355.0824 199.984995 
L 356.4216 201.308096 
L 357.0912 187.955653 
L 357.7608 183.571575 
L 358.4304 184.270589 
L 361.1088 188.158866 
L 361.7784 175.017724 
L 362.448 170.841552 
L 363.1176 164.707893 
L 364.4568 147.913861 
L 365.1264 132.605079 
L 365.796 121.919201 
L 366.4656 120.948598 
L 369.144 128.663309 
L 369.8136 123.515468 
L 370.4832 122.827249 
L 371.1528 117.619173 
L 371.8224 109.988467 
L 372.492 109.363603 
L 373.1616 111.409118 
L 373.8312 106.538543 
L 374.5008 106.123135 
L 377.1792 114.768071 
L 377.8488 102.806281 
L 378.5184 99.79051 
L 379.188 94.798604 
L 379.8576 94.571851 
L 380.5272 89.817824 
L 381.1968 89.67111 
L 383.2056 96.949305 
L 383.8752 92.311091 
L 384.5448 85.087073 
L 385.2144 84.862362 
L 386.5536 89.855658 
L 387.2232 85.331436 
L 387.8928 85.256815 
L 389.232 90.237536 
L 389.9016 85.707177 
L 390.5712 85.626519 
L 391.2408 88.053477 
L 391.9104 83.558215 
L 392.58 83.512089 
L 397.2672 100.817831 
L 397.9368 96.117453 
L 398.6064 95.869507 
L 403.2936 111.850453 
L 403.9632 106.972786 
L 404.6328 106.5504 
L 405.3024 101.603884 
L 405.972 101.267774 
L 409.9896 114.553863 
L 410.6592 109.632753 
L 411.3288 109.167623 
L 418.6944 131.410271 
L 422.0424 140.344749 
L 425.3904 148.584067 
L 428.7384 156.182315 
L 432.0864 163.189371 
L 435.4344 169.651234 
L 438.7824 175.610323 
L 442.1304 181.105757 
L 445.4784 186.173612 
L 448.8264 190.847156 
L 452.1744 195.157069 
L 455.5224 199.131643 
L 458.8704 202.796971 
L 462.2184 206.177112 
L 466.236 209.887957 
L 468.2448 211.612422 
L 468.9144 205.131631 
L 469.584 203.131883 
L 470.2536 203.670591 
L 473.6016 206.982759 
L 477.6192 210.61898 
L 481.6368 213.918395 
L 482.976 214.948831 
L 483.6456 208.414426 
L 484.3152 206.361925 
L 484.9848 206.848728 
L 489.0024 210.497363 
L 489.672 204.034491 
L 490.3416 202.052374 
L 491.0112 202.608428 
L 491.6808 196.272327 
L 492.3504 194.414943 
L 493.6896 195.915622 
L 496.368 199.07323 
L 497.0376 192.793938 
L 497.7072 190.99245 
L 498.3768 191.726232 
L 499.0464 178.527764 
L 499.716 174.295188 
L 500.3856 168.10603 
L 501.7248 151.203663 
L 502.3944 149.916492 
L 503.064 151.310343 
L 503.7336 145.798576 
L 505.0728 129.607387 
L 505.7424 128.667257 
L 507.0816 132.264021 
L 507.7512 127.058318 
L 508.4208 126.313168 
L 511.0992 133.691278 
L 512.4384 137.279415 
L 513.108 131.993117 
L 513.7776 131.168668 
L 514.4472 125.826549 
L 515.1168 118.063954 
L 515.7864 117.309321 
L 517.7952 123.276417 
L 518.4648 118.215141 
L 519.1344 117.612096 
L 519.804 119.525062 
L 520.4736 114.524068 
L 521.1432 106.943099 
L 521.8128 106.367172 
L 523.8216 112.853341 
L 524.4912 100.922319 
L 525.1608 97.936823 
L 526.5 102.361753 
L 529.848 113.556388 
L 531.1872 91.580218 
L 531.8568 91.097147 
L 533.196 95.891674 
L 533.8656 84.233218 
L 534.5352 81.515907 
L 535.8744 86.464348 
L 539.2224 98.895901 
L 542.5704 110.360202 
L 543.9096 114.692151 
L 544.5792 109.768819 
L 545.2488 109.301502 
L 546.588 113.51566 
L 547.2576 108.611234 
L 547.9272 108.162519 
L 555.2928 130.569226 
L 558.6408 139.569142 
L 559.3104 134.246049 
L 559.98 133.385396 
L 562.6584 140.319758 
L 566.0064 148.561021 
L 569.3544 156.161062 
L 572.7024 163.169772 
L 576.0504 169.63316 
L 579.3984 175.593655 
L 582.7464 181.090386 
L 586.0944 186.159437 
L 589.4424 190.834084 
L 592.7904 195.145014 
L 596.1384 199.120526 
L 599.4864 202.786719 
L 602.8344 206.167658 
L 604.8432 208.068607 
L 605.5128 201.644763 
L 606.1824 199.701047 
L 607.5216 201.033201 
L 608.1912 194.722413 
L 608.8608 192.889935 
L 609.5304 186.555987 
L 610.2 184.85474 
L 610.8696 185.687152 
L 611.5392 179.622967 
L 612.2088 178.03313 
L 613.548 180.056073 
L 614.2176 181.119615 
L 614.8872 175.128828 
L 616.2264 158.002569 
L 616.896 156.606143 
L 618.2352 159.312194 
L 620.9136 164.766488 
L 621.5832 159.038487 
L 622.2528 157.779432 
L 623.592 160.448078 
L 624.9312 163.183188 
L 625.6008 157.480631 
L 626.2704 156.246609 
L 626.94 150.501501 
L 627.6096 149.379631 
L 629.6184 153.825378 
L 631.6272 158.209336 
L 632.2968 145.549467 
L 632.9664 141.846835 
L 633.636 143.216344 
L 636.984 151.232234 
L 638.9928 155.739205 
L 639.6624 150.156268 
L 640.332 134.96547 
L 641.0016 131.2789 
L 641.6712 132.81823 
L 642.3408 134.640859 
L 643.0104 129.396962 
L 643.68 128.614231 
L 646.3584 135.847961 
L 647.028 137.621904 
L 647.6976 132.330103 
L 648.3672 131.500238 
L 649.0368 133.190029 
L 649.7064 127.969446 
L 650.376 120.172416 
L 651.0456 119.383901 
L 651.7152 114.231157 
L 652.3848 113.692133 
L 653.0544 115.668091 
L 653.724 103.691839 
L 654.3936 100.661837 
L 655.7328 104.999892 
L 658.4112 113.862017 
L 659.0808 108.952025 
L 659.7504 108.497834 
L 664.4376 123.124941 
L 665.1072 118.066099 
L 665.7768 117.465449 
L 666.4464 112.343534 
L 667.116 111.834843 
L 667.7856 106.803409 
L 668.4552 106.383744 
L 669.1248 101.439907 
L 669.7944 87.031955 
L 670.464 84.115652 
L 671.8032 88.981211 
L 675.1512 101.216937 
L 678.4992 112.500646 
L 680.508 118.844963 
L 681.1776 113.854897 
L 681.8472 113.321919 
L 689.2128 134.886483 
L 692.5608 143.550489 
L 695.9088 151.540381 
L 699.2568 158.908609 
L 702.6048 165.703542 
L 705.9528 171.969786 
L 709.3008 177.748478 
L 712.6488 183.07755 
L 715.9968 187.991987 
L 719.3448 192.52405 
L 722.6928 196.70349 
L 726.0408 200.557743 
L 729.3888 204.112111 
L 732.7368 207.389926 
L 736.7544 210.988433 
L 740.1024 213.731227 
L 740.772 207.216389 
L 741.4416 205.18314 
L 742.1112 205.688884 
L 743.4504 206.981684 
L 744.12 200.575307 
L 744.7896 198.648777 
L 746.1288 200.014477 
L 749.4768 203.611115 
L 751.4856 205.63334 
L 752.1552 199.24863 
L 752.8248 197.343419 
L 754.164 198.750735 
L 757.512 202.4457 
L 759.5208 204.52321 
L 760.1904 198.15634 
L 760.86 196.268681 
L 762.1992 197.710261 
L 762.8688 191.452871 
L 763.5384 189.672933 
L 764.208 190.427919 
L 764.8776 184.287552 
L 765.5472 182.622758 
L 766.2168 183.491036 
L 766.8864 177.462142 
L 767.556 175.907028 
L 768.8952 177.997753 
L 769.5648 172.057133 
L 770.2344 163.551637 
L 770.904 162.06604 
L 772.2432 164.598025 
L 772.9128 165.90997 
L 773.5824 160.163594 
L 774.252 158.886459 
L 774.9216 160.136168 
L 775.5912 154.482574 
L 776.2608 153.29673 
L 777.6 156.108288 
L 777.6 156.108288 
" clip-path="url(#p375cd84497)" style="fill: none; stroke: #ff4500; stroke-width: 1.5; stroke-linecap: square"/>
   </g>
   <g id="patch_3">
    <path d="M 108 256.32 
L 108 34.56 
" style="fill: none; stroke: #000000; stroke-width: 0.8; stroke-linejoin: miter; stroke-linecap: square"/>
   </g>
   <g id="patch_4">
    <path d="M 777.6 256.32 
L 777.6 34.56 
" style="fill: none; stroke: #000000; stroke-width: 0.8; stroke-linejoin: miter; stroke-linecap: square"/>
   </g>
   <g id="patch_5">
    <path d="M 108 256.32 
L 777.6 256.32 
" style="fill: none; stroke: #000000; stroke-width: 0.8; stroke-linejoin: miter; stroke-linecap: square"/>
   </g>
   <g id="patch_6">
    <path d="M 108 34.56 
L 777.6 34.56 
" style="fill: none; stroke: #000000; stroke-width: 0.8; stroke-linejoin: miter; stroke-linecap: square"/>
   </g>
  </g>
 </g>
 <defs>
  <clipPath id="p375cd84497">
   <rect x="108" y="34.56" width="669.6" height="221.76"/>
  </clipPath>
 </defs>
</svg>
