<?xml version="1.0" encoding="utf-8" standalone="no"?>
<!DOCTYPE svg PUBLIC "-//W3C//DTD SVG 1.1//EN"
  "http://www.w3.org/Graphics/SVG/1.1/DTD/svg11.dtd">
<svg xmlns:xlink="http://www.w3.org/1999/xlink" width="864pt" height="288pt" viewBox="0 0 864 288" xmlns="http://www.w3.org/2000/svg" version="1.1">
 <metadata>
  <rdf:RDF xmlns:dc="http://purl.org/dc/elements/1.1/" xmlns:cc="http://creativecommons.org/ns#" xmlns:rdf="http://www.w3.org/1999/02/22-rdf-syntax-ns#">
   <cc:Work>
    <dc:type rdf:resource="http://purl.org/dc/dcmitype/StillImage"/>
    <dc:date>2024-04-23T19:16:31.512014</dc:date>
    <dc:format>image/svg+xml</dc:format>
    <dc:creator>
     <cc:Agent>
      <dc:title>Matplotlib v3.8.2, https://matplotlib.org/</dc:title>
     </cc:Agent>
    </dc:creator>
   </cc:Work>
  </rdf:RDF>
 </metadata>
 <defs>
  <style type="text/css">*{stroke-linejoin: round; stroke-linecap: butt}</style>
 </defs>
 <g id="figure_1">
  <g id="patch_1">
   <path d="M 0 288 
L 864 288 
L 864 0 
L 0 0 
z
" style="fill: #ffffff"/>
  </g>
  <g id="axes_1">
   <g id="patch_2">
    <path d="M 108 256.32 
L 777.6 256.32 
L 777.6 34.56 
L 108 34.56 
z
" style="fill: #ffffff"/>
   </g>
   <g id="matplotlib.axis_1">
    <g id="xtick_1">
     <g id="line2d_1">
      <path d="M 108 256.32 
L 108 34.56 
" clip-path="url(#pb1a59842ed)" style="fill: none; stroke: #b0b0b0; stroke-width: 0.8; stroke-linecap: square"/>
     </g>
     <g id="line2d_2">
      <defs>
       <path id="me18f15ebde" d="M 0 0 
L 0 3.5 
" style="stroke: #000000; stroke-width: 0.8"/>
      </defs>
      <g>
       <use xlink:href="#me18f15ebde" x="108" y="256.32" style="stroke: #000000; stroke-width: 0.8"/>
      </g>
     </g>
     <g id="text_1">
      <!-- 100 -->
      <g transform="translate(94.63875 273.957812) scale(0.14 -0.14)">
       <defs>
        <path id="DejaVuSans-31" d="M 794 531 
L 1825 531 
L 1825 4091 
L 703 3866 
L 703 4441 
L 1819 4666 
L 2450 4666 
L 2450 531 
L 3481 531 
L 3481 0 
L 794 0 
L 794 531 
z
" transform="scale(0.015625)"/>
        <path id="DejaVuSans-30" d="M 2034 4250 
Q 1547 4250 1301 3770 
Q 1056 3291 1056 2328 
Q 1056 1369 1301 889 
Q 1547 409 2034 409 
Q 2525 409 2770 889 
Q 3016 1369 3016 2328 
Q 3016 3291 2770 3770 
Q 2525 4250 2034 4250 
z
M 2034 4750 
Q 2819 4750 3233 4129 
Q 3647 3509 3647 2328 
Q 3647 1150 3233 529 
Q 2819 -91 2034 -91 
Q 1250 -91 836 529 
Q 422 1150 422 2328 
Q 422 3509 836 4129 
Q 1250 4750 2034 4750 
z
" transform="scale(0.015625)"/>
       </defs>
       <use xlink:href="#DejaVuSans-31"/>
       <use xlink:href="#DejaVuSans-30" x="63.623047"/>
       <use xlink:href="#DejaVuSans-30" x="127.246094"/>
      </g>
     </g>
    </g>
    <g id="xtick_2">
     <g id="line2d_3">
      <path d="M 241.92 256.32 
L 241.92 34.56 
" clip-path="url(#pb1a59842ed)" style="fill: none; stroke: #b0b0b0; stroke-width: 0.8; stroke-linecap: square"/>
     </g>
     <g id="line2d_4">
      <g>
       <use xlink:href="#me18f15ebde" x="241.92" y="256.32" style="stroke: #000000; stroke-width: 0.8"/>
      </g>
     </g>
     <g id="text_2">
      <!-- 120 -->
      <g transform="translate(228.55875 273.957812) scale(0.14 -0.14)">
       <defs>
        <path id="DejaVuSans-32" d="M 1228 531 
L 3431 531 
L 3431 0 
L 469 0 
L 469 531 
Q 828 903 1448 1529 
Q 2069 2156 2228 2338 
Q 2531 2678 2651 2914 
Q 2772 3150 2772 3378 
Q 2772 3750 2511 3984 
Q 2250 4219 1831 4219 
Q 1534 4219 1204 4116 
Q 875 4013 500 3803 
L 500 4441 
Q 881 4594 1212 4672 
Q 1544 4750 1819 4750 
Q 2544 4750 2975 4387 
Q 3406 4025 3406 3419 
Q 3406 3131 3298 2873 
Q 3191 2616 2906 2266 
Q 2828 2175 2409 1742 
Q 1991 1309 1228 531 
z
" transform="scale(0.015625)"/>
       </defs>
       <use xlink:href="#DejaVuSans-31"/>
       <use xlink:href="#DejaVuSans-32" x="63.623047"/>
       <use xlink:href="#DejaVuSans-30" x="127.246094"/>
      </g>
     </g>
    </g>
    <g id="xtick_3">
     <g id="line2d_5">
      <path d="M 375.84 256.32 
L 375.84 34.56 
" clip-path="url(#pb1a59842ed)" style="fill: none; stroke: #b0b0b0; stroke-width: 0.8; stroke-linecap: square"/>
     </g>
     <g id="line2d_6">
      <g>
       <use xlink:href="#me18f15ebde" x="375.84" y="256.32" style="stroke: #000000; stroke-width: 0.8"/>
      </g>
     </g>
     <g id="text_3">
      <!-- 140 -->
      <g transform="translate(362.47875 273.957812) scale(0.14 -0.14)">
       <defs>
        <path id="DejaVuSans-34" d="M 2419 4116 
L 825 1625 
L 2419 1625 
L 2419 4116 
z
M 2253 4666 
L 3047 4666 
L 3047 1625 
L 3713 1625 
L 3713 1100 
L 3047 1100 
L 3047 0 
L 2419 0 
L 2419 1100 
L 313 1100 
L 313 1709 
L 2253 4666 
z
" transform="scale(0.015625)"/>
       </defs>
       <use xlink:href="#DejaVuSans-31"/>
       <use xlink:href="#DejaVuSans-34" x="63.623047"/>
       <use xlink:href="#DejaVuSans-30" x="127.246094"/>
      </g>
     </g>
    </g>
    <g id="xtick_4">
     <g id="line2d_7">
      <path d="M 509.76 256.32 
L 509.76 34.56 
" clip-path="url(#pb1a59842ed)" style="fill: none; stroke: #b0b0b0; stroke-width: 0.8; stroke-linecap: square"/>
     </g>
     <g id="line2d_8">
      <g>
       <use xlink:href="#me18f15ebde" x="509.76" y="256.32" style="stroke: #000000; stroke-width: 0.8"/>
      </g>
     </g>
     <g id="text_4">
      <!-- 160 -->
      <g transform="translate(496.39875 273.957812) scale(0.14 -0.14)">
       <defs>
        <path id="DejaVuSans-36" d="M 2113 2584 
Q 1688 2584 1439 2293 
Q 1191 2003 1191 1497 
Q 1191 994 1439 701 
Q 1688 409 2113 409 
Q 2538 409 2786 701 
Q 3034 994 3034 1497 
Q 3034 2003 2786 2293 
Q 2538 2584 2113 2584 
z
M 3366 4563 
L 3366 3988 
Q 3128 4100 2886 4159 
Q 2644 4219 2406 4219 
Q 1781 4219 1451 3797 
Q 1122 3375 1075 2522 
Q 1259 2794 1537 2939 
Q 1816 3084 2150 3084 
Q 2853 3084 3261 2657 
Q 3669 2231 3669 1497 
Q 3669 778 3244 343 
Q 2819 -91 2113 -91 
Q 1303 -91 875 529 
Q 447 1150 447 2328 
Q 447 3434 972 4092 
Q 1497 4750 2381 4750 
Q 2619 4750 2861 4703 
Q 3103 4656 3366 4563 
z
" transform="scale(0.015625)"/>
       </defs>
       <use xlink:href="#DejaVuSans-31"/>
       <use xlink:href="#DejaVuSans-36" x="63.623047"/>
       <use xlink:href="#DejaVuSans-30" x="127.246094"/>
      </g>
     </g>
    </g>
    <g id="xtick_5">
     <g id="line2d_9">
      <path d="M 643.68 256.32 
L 643.68 34.56 
" clip-path="url(#pb1a59842ed)" style="fill: none; stroke: #b0b0b0; stroke-width: 0.8; stroke-linecap: square"/>
     </g>
     <g id="line2d_10">
      <g>
       <use xlink:href="#me18f15ebde" x="643.68" y="256.32" style="stroke: #000000; stroke-width: 0.8"/>
      </g>
     </g>
     <g id="text_5">
      <!-- 180 -->
      <g transform="translate(630.31875 273.957812) scale(0.14 -0.14)">
       <defs>
        <path id="DejaVuSans-38" d="M 2034 2216 
Q 1584 2216 1326 1975 
Q 1069 1734 1069 1313 
Q 1069 891 1326 650 
Q 1584 409 2034 409 
Q 2484 409 2743 651 
Q 3003 894 3003 1313 
Q 3003 1734 2745 1975 
Q 2488 2216 2034 2216 
z
M 1403 2484 
Q 997 2584 770 2862 
Q 544 3141 544 3541 
Q 544 4100 942 4425 
Q 1341 4750 2034 4750 
Q 2731 4750 3128 4425 
Q 3525 4100 3525 3541 
Q 3525 3141 3298 2862 
Q 3072 2584 2669 2484 
Q 3125 2378 3379 2068 
Q 3634 1759 3634 1313 
Q 3634 634 3220 271 
Q 2806 -91 2034 -91 
Q 1263 -91 848 271 
Q 434 634 434 1313 
Q 434 1759 690 2068 
Q 947 2378 1403 2484 
z
M 1172 3481 
Q 1172 3119 1398 2916 
Q 1625 2713 2034 2713 
Q 2441 2713 2670 2916 
Q 2900 3119 2900 3481 
Q 2900 3844 2670 4047 
Q 2441 4250 2034 4250 
Q 1625 4250 1398 4047 
Q 1172 3844 1172 3481 
z
" transform="scale(0.015625)"/>
       </defs>
       <use xlink:href="#DejaVuSans-31"/>
       <use xlink:href="#DejaVuSans-38" x="63.623047"/>
       <use xlink:href="#DejaVuSans-30" x="127.246094"/>
      </g>
     </g>
    </g>
    <g id="xtick_6">
     <g id="line2d_11">
      <path d="M 777.6 256.32 
L 777.6 34.56 
" clip-path="url(#pb1a59842ed)" style="fill: none; stroke: #b0b0b0; stroke-width: 0.8; stroke-linecap: square"/>
     </g>
     <g id="line2d_12">
      <g>
       <use xlink:href="#me18f15ebde" x="777.6" y="256.32" style="stroke: #000000; stroke-width: 0.8"/>
      </g>
     </g>
     <g id="text_6">
      <!-- 200 -->
      <g transform="translate(764.23875 273.957812) scale(0.14 -0.14)">
       <use xlink:href="#DejaVuSans-32"/>
       <use xlink:href="#DejaVuSans-30" x="63.623047"/>
       <use xlink:href="#DejaVuSans-30" x="127.246094"/>
      </g>
     </g>
    </g>
    <g id="text_7">
     <!-- Time (ms) -->
     <g transform="translate(407.521094 291.507187) scale(0.14 -0.14)">
      <defs>
       <path id="DejaVuSans-54" d="M -19 4666 
L 3928 4666 
L 3928 4134 
L 2272 4134 
L 2272 0 
L 1638 0 
L 1638 4134 
L -19 4134 
L -19 4666 
z
" transform="scale(0.015625)"/>
       <path id="DejaVuSans-69" d="M 603 3500 
L 1178 3500 
L 1178 0 
L 603 0 
L 603 3500 
z
M 603 4863 
L 1178 4863 
L 1178 4134 
L 603 4134 
L 603 4863 
z
" transform="scale(0.015625)"/>
       <path id="DejaVuSans-6d" d="M 3328 2828 
Q 3544 3216 3844 3400 
Q 4144 3584 4550 3584 
Q 5097 3584 5394 3201 
Q 5691 2819 5691 2113 
L 5691 0 
L 5113 0 
L 5113 2094 
Q 5113 2597 4934 2840 
Q 4756 3084 4391 3084 
Q 3944 3084 3684 2787 
Q 3425 2491 3425 1978 
L 3425 0 
L 2847 0 
L 2847 2094 
Q 2847 2600 2669 2842 
Q 2491 3084 2119 3084 
Q 1678 3084 1418 2786 
Q 1159 2488 1159 1978 
L 1159 0 
L 581 0 
L 581 3500 
L 1159 3500 
L 1159 2956 
Q 1356 3278 1631 3431 
Q 1906 3584 2284 3584 
Q 2666 3584 2933 3390 
Q 3200 3197 3328 2828 
z
" transform="scale(0.015625)"/>
       <path id="DejaVuSans-65" d="M 3597 1894 
L 3597 1613 
L 953 1613 
Q 991 1019 1311 708 
Q 1631 397 2203 397 
Q 2534 397 2845 478 
Q 3156 559 3463 722 
L 3463 178 
Q 3153 47 2828 -22 
Q 2503 -91 2169 -91 
Q 1331 -91 842 396 
Q 353 884 353 1716 
Q 353 2575 817 3079 
Q 1281 3584 2069 3584 
Q 2775 3584 3186 3129 
Q 3597 2675 3597 1894 
z
M 3022 2063 
Q 3016 2534 2758 2815 
Q 2500 3097 2075 3097 
Q 1594 3097 1305 2825 
Q 1016 2553 972 2059 
L 3022 2063 
z
" transform="scale(0.015625)"/>
       <path id="DejaVuSans-20" transform="scale(0.015625)"/>
       <path id="DejaVuSans-28" d="M 1984 4856 
Q 1566 4138 1362 3434 
Q 1159 2731 1159 2009 
Q 1159 1288 1364 580 
Q 1569 -128 1984 -844 
L 1484 -844 
Q 1016 -109 783 600 
Q 550 1309 550 2009 
Q 550 2706 781 3412 
Q 1013 4119 1484 4856 
L 1984 4856 
z
" transform="scale(0.015625)"/>
       <path id="DejaVuSans-73" d="M 2834 3397 
L 2834 2853 
Q 2591 2978 2328 3040 
Q 2066 3103 1784 3103 
Q 1356 3103 1142 2972 
Q 928 2841 928 2578 
Q 928 2378 1081 2264 
Q 1234 2150 1697 2047 
L 1894 2003 
Q 2506 1872 2764 1633 
Q 3022 1394 3022 966 
Q 3022 478 2636 193 
Q 2250 -91 1575 -91 
Q 1294 -91 989 -36 
Q 684 19 347 128 
L 347 722 
Q 666 556 975 473 
Q 1284 391 1588 391 
Q 1994 391 2212 530 
Q 2431 669 2431 922 
Q 2431 1156 2273 1281 
Q 2116 1406 1581 1522 
L 1381 1569 
Q 847 1681 609 1914 
Q 372 2147 372 2553 
Q 372 3047 722 3315 
Q 1072 3584 1716 3584 
Q 2034 3584 2315 3537 
Q 2597 3491 2834 3397 
z
" transform="scale(0.015625)"/>
       <path id="DejaVuSans-29" d="M 513 4856 
L 1013 4856 
Q 1481 4119 1714 3412 
Q 1947 2706 1947 2009 
Q 1947 1309 1714 600 
Q 1481 -109 1013 -844 
L 513 -844 
Q 928 -128 1133 580 
Q 1338 1288 1338 2009 
Q 1338 2731 1133 3434 
Q 928 4138 513 4856 
z
" transform="scale(0.015625)"/>
      </defs>
      <use xlink:href="#DejaVuSans-54"/>
      <use xlink:href="#DejaVuSans-69" x="57.958984"/>
      <use xlink:href="#DejaVuSans-6d" x="85.742188"/>
      <use xlink:href="#DejaVuSans-65" x="183.154297"/>
      <use xlink:href="#DejaVuSans-20" x="244.677734"/>
      <use xlink:href="#DejaVuSans-28" x="276.464844"/>
      <use xlink:href="#DejaVuSans-6d" x="315.478516"/>
      <use xlink:href="#DejaVuSans-73" x="412.890625"/>
      <use xlink:href="#DejaVuSans-29" x="464.990234"/>
     </g>
    </g>
   </g>
   <g id="matplotlib.axis_2">
    <g id="ytick_1">
     <g id="line2d_13">
      <path d="M 108 224.726802 
L 777.6 224.726802 
" clip-path="url(#pb1a59842ed)" style="fill: none; stroke: #b0b0b0; stroke-width: 0.8; stroke-linecap: square"/>
     </g>
     <g id="line2d_14">
      <defs>
       <path id="m1afde09df4" d="M 0 0 
L -3.5 0 
" style="stroke: #000000; stroke-width: 0.8"/>
      </defs>
      <g>
       <use xlink:href="#m1afde09df4" x="108" y="224.726802" style="stroke: #000000; stroke-width: 0.8"/>
      </g>
     </g>
     <g id="text_8">
      <!-- −60 -->
      <g transform="translate(71.453437 230.045709) scale(0.14 -0.14)">
       <defs>
        <path id="DejaVuSans-2212" d="M 678 2272 
L 4684 2272 
L 4684 1741 
L 678 1741 
L 678 2272 
z
" transform="scale(0.015625)"/>
       </defs>
       <use xlink:href="#DejaVuSans-2212"/>
       <use xlink:href="#DejaVuSans-36" x="83.789062"/>
       <use xlink:href="#DejaVuSans-30" x="147.412109"/>
      </g>
     </g>
    </g>
    <g id="ytick_2">
     <g id="line2d_15">
      <path d="M 108 181.768966 
L 777.6 181.768966 
" clip-path="url(#pb1a59842ed)" style="fill: none; stroke: #b0b0b0; stroke-width: 0.8; stroke-linecap: square"/>
     </g>
     <g id="line2d_16">
      <g>
       <use xlink:href="#m1afde09df4" x="108" y="181.768966" style="stroke: #000000; stroke-width: 0.8"/>
      </g>
     </g>
     <g id="text_9">
      <!-- −40 -->
      <g transform="translate(71.453437 187.087872) scale(0.14 -0.14)">
       <use xlink:href="#DejaVuSans-2212"/>
       <use xlink:href="#DejaVuSans-34" x="83.789062"/>
       <use xlink:href="#DejaVuSans-30" x="147.412109"/>
      </g>
     </g>
    </g>
    <g id="ytick_3">
     <g id="line2d_17">
      <path d="M 108 138.81113 
L 777.6 138.81113 
" clip-path="url(#pb1a59842ed)" style="fill: none; stroke: #b0b0b0; stroke-width: 0.8; stroke-linecap: square"/>
     </g>
     <g id="line2d_18">
      <g>
       <use xlink:href="#m1afde09df4" x="108" y="138.81113" style="stroke: #000000; stroke-width: 0.8"/>
      </g>
     </g>
     <g id="text_10">
      <!-- −20 -->
      <g transform="translate(71.453437 144.130036) scale(0.14 -0.14)">
       <use xlink:href="#DejaVuSans-2212"/>
       <use xlink:href="#DejaVuSans-32" x="83.789062"/>
       <use xlink:href="#DejaVuSans-30" x="147.412109"/>
      </g>
     </g>
    </g>
    <g id="ytick_4">
     <g id="line2d_19">
      <path d="M 108 95.853293 
L 777.6 95.853293 
" clip-path="url(#pb1a59842ed)" style="fill: none; stroke: #b0b0b0; stroke-width: 0.8; stroke-linecap: square"/>
     </g>
     <g id="line2d_20">
      <g>
       <use xlink:href="#m1afde09df4" x="108" y="95.853293" style="stroke: #000000; stroke-width: 0.8"/>
      </g>
     </g>
     <g id="text_11">
      <!-- 0 -->
      <g transform="translate(92.0925 101.1722) scale(0.14 -0.14)">
       <use xlink:href="#DejaVuSans-30"/>
      </g>
     </g>
    </g>
    <g id="ytick_5">
     <g id="line2d_21">
      <path d="M 108 52.895457 
L 777.6 52.895457 
" clip-path="url(#pb1a59842ed)" style="fill: none; stroke: #b0b0b0; stroke-width: 0.8; stroke-linecap: square"/>
     </g>
     <g id="line2d_22">
      <g>
       <use xlink:href="#m1afde09df4" x="108" y="52.895457" style="stroke: #000000; stroke-width: 0.8"/>
      </g>
     </g>
     <g id="text_12">
      <!-- 20 -->
      <g transform="translate(83.185 58.214363) scale(0.14 -0.14)">
       <use xlink:href="#DejaVuSans-32"/>
       <use xlink:href="#DejaVuSans-30" x="63.623047"/>
      </g>
     </g>
    </g>
    <g id="text_13">
     <!-- $V_{m}$ (mV) -->
     <g transform="translate(64.541875 174.49) rotate(-90) scale(0.14 -0.14)">
      <defs>
       <path id="DejaVuSans-Oblique-56" d="M 1319 0 
L 500 4666 
L 1119 4666 
L 1797 653 
L 4063 4666 
L 4750 4666 
L 2053 0 
L 1319 0 
z
" transform="scale(0.015625)"/>
       <path id="DejaVuSans-Oblique-6d" d="M 5747 2113 
L 5338 0 
L 4763 0 
L 5166 2094 
Q 5191 2228 5203 2325 
Q 5216 2422 5216 2491 
Q 5216 2772 5059 2928 
Q 4903 3084 4622 3084 
Q 4203 3084 3875 2770 
Q 3547 2456 3450 1953 
L 3066 0 
L 2491 0 
L 2900 2094 
Q 2925 2209 2937 2307 
Q 2950 2406 2950 2484 
Q 2950 2769 2794 2926 
Q 2638 3084 2363 3084 
Q 1938 3084 1609 2770 
Q 1281 2456 1184 1953 
L 800 0 
L 225 0 
L 909 3500 
L 1484 3500 
L 1375 2956 
Q 1609 3263 1923 3423 
Q 2238 3584 2597 3584 
Q 2978 3584 3223 3384 
Q 3469 3184 3519 2828 
Q 3781 3197 4126 3390 
Q 4472 3584 4856 3584 
Q 5306 3584 5551 3325 
Q 5797 3066 5797 2591 
Q 5797 2488 5784 2364 
Q 5772 2241 5747 2113 
z
" transform="scale(0.015625)"/>
       <path id="DejaVuSans-56" d="M 1831 0 
L 50 4666 
L 709 4666 
L 2188 738 
L 3669 4666 
L 4325 4666 
L 2547 0 
L 1831 0 
z
" transform="scale(0.015625)"/>
      </defs>
      <use xlink:href="#DejaVuSans-Oblique-56" transform="translate(0 0.125)"/>
      <use xlink:href="#DejaVuSans-Oblique-6d" transform="translate(68.408203 -16.28125) scale(0.7)"/>
      <use xlink:href="#DejaVuSans-20" transform="translate(139.331055 0.125)"/>
      <use xlink:href="#DejaVuSans-28" transform="translate(171.118164 0.125)"/>
      <use xlink:href="#DejaVuSans-6d" transform="translate(210.131836 0.125)"/>
      <use xlink:href="#DejaVuSans-56" transform="translate(307.543945 0.125)"/>
      <use xlink:href="#DejaVuSans-29" transform="translate(375.952148 0.125)"/>
     </g>
    </g>
   </g>
   <g id="line2d_23">
    <path d="M 108 225.025196 
L 108.6696 225.369378 
L 109.3392 225.58026 
L 111.348 226.934816 
L 112.0176 227.329386 
L 113.3568 227.70863 
L 115.3656 227.920899 
L 116.7048 228.553639 
L 118.044 228.765074 
L 120.0528 228.782002 
L 121.392 228.687112 
L 122.0616 228.950811 
L 122.7312 229.796869 
L 123.4008 230.389834 
L 124.0704 230.690119 
L 125.4096 230.954944 
L 126.7488 231.021529 
L 128.088 231.552082 
L 128.7576 232.262357 
L 129.4272 232.791655 
L 130.0968 233.065018 
L 131.436 233.846259 
L 132.7752 234.132954 
L 134.784 234.213956 
L 137.4624 234.007619 
L 138.8016 233.812638 
L 142.1496 234.651896 
L 142.8192 234.641336 
L 144.1584 235.046723 
L 145.4976 235.068234 
L 147.5064 234.835983 
L 150.1848 234.296067 
L 153.5328 233.381952 
L 157.5504 232.025136 
L 161.568 230.444043 
L 164.2464 229.285869 
L 165.5856 229.311502 
L 166.9248 228.983124 
L 169.6032 228.00956 
L 173.6208 226.277231 
L 178.9776 223.685798 
L 185.004 220.508034 
L 193.0392 215.986151 
L 198.396 212.862441 
L 199.7352 212.965176 
L 201.0744 212.623003 
L 203.7528 211.541301 
L 207.7704 209.634333 
L 210.4488 208.267456 
L 211.1184 208.422551 
L 211.788 209.027772 
L 212.4576 209.418932 
L 213.1272 209.569947 
L 214.4664 209.559325 
L 215.8056 210.277742 
L 217.1448 210.43804 
L 219.1536 210.268626 
L 220.4928 210.936865 
L 221.832 211.086133 
L 223.8408 210.933321 
L 225.18 211.609674 
L 226.5192 211.772312 
L 227.8584 213.438646 
L 228.528 214.289953 
L 229.1976 214.908269 
L 229.8672 215.716311 
L 230.5368 216.326657 
L 231.2064 217.132085 
L 231.876 218.158283 
L 232.5456 218.891329 
L 235.8936 221.246231 
L 237.2328 221.700067 
L 239.2416 222.0757 
L 240.5808 222.900016 
L 241.2504 223.116963 
L 242.5896 224.041967 
L 243.9288 224.355211 
L 244.5984 224.390773 
L 247.2768 225.877654 
L 248.616 226.183351 
L 250.6248 226.285595 
L 251.964 227.505468 
L 252.6336 227.780234 
L 254.6424 229.171172 
L 255.9816 231.244839 
L 256.6512 231.914046 
L 257.3208 232.326605 
L 257.9904 233.489008 
L 258.66 234.389164 
L 259.3296 234.920047 
L 260.6688 235.549031 
L 261.3384 235.754553 
L 262.6776 236.52485 
L 264.0168 236.878071 
L 266.0256 237.09022 
L 268.0344 237.093611 
L 269.3736 237.497426 
L 270.7128 237.56247 
L 272.7216 237.423091 
L 275.4 237.016962 
L 278.0784 236.432946 
L 279.4176 236.597613 
L 280.7568 236.442804 
L 283.4352 235.827945 
L 286.7832 234.812201 
L 290.8008 233.353057 
L 295.488 231.393949 
L 300.8448 228.882887 
L 306.8712 225.779797 
L 313.5672 222.064551 
L 322.272 216.945636 
L 334.3248 209.570087 
L 339.6816 206.103549 
L 341.0208 205.159738 
L 342.36 205.235651 
L 343.6992 204.916451 
L 345.708 204.055838 
L 347.7168 202.875259 
L 349.056 201.921947 
L 350.3952 200.674865 
L 351.0648 199.879715 
L 351.7344 198.896866 
L 352.404 197.490112 
L 353.0736 195.224349 
L 353.7432 190.380422 
L 354.4128 167.209548 
L 355.0824 63.647623 
L 355.752 55.497391 
L 356.4216 78.817195 
L 357.0912 95.170303 
L 358.4304 119.823389 
L 360.4392 153.847695 
L 362.448 182.935774 
L 363.1176 191.988087 
L 363.7872 199.109272 
L 364.4568 204.217547 
L 365.796 210.649673 
L 367.1352 214.897345 
L 367.8048 216.398486 
L 368.4744 217.505955 
L 369.8136 219.066142 
L 370.4832 219.628508 
L 371.1528 220.814521 
L 371.8224 221.759409 
L 372.492 222.367532 
L 373.8312 223.143538 
L 374.5008 223.405231 
L 375.84 224.404428 
L 377.1792 224.839159 
L 378.5184 224.945025 
L 379.188 224.934575 
L 379.8576 225.603939 
L 381.1968 227.329644 
L 381.8664 227.888464 
L 383.8752 228.892492 
L 384.5448 229.571643 
L 385.2144 230.036132 
L 387.2232 230.91655 
L 387.8928 231.247983 
L 388.5624 231.741636 
L 389.232 232.403235 
L 390.5712 233.406594 
L 391.2408 234.097406 
L 391.9104 234.569916 
L 392.58 234.856842 
L 394.5888 236.175826 
L 395.2584 236.5371 
L 397.2672 237.260248 
L 397.9368 237.536123 
L 399.276 237.780487 
L 401.9544 238.101877 
L 402.624 238.27748 
L 403.9632 238.821093 
L 405.3024 238.952126 
L 407.3112 238.874929 
L 409.9896 238.525541 
L 413.3376 237.826838 
L 416.6856 236.90683 
L 420.7032 235.56787 
L 425.3904 233.738673 
L 430.0776 231.67058 
L 435.4344 229.064539 
L 441.4608 225.879971 
L 448.8264 221.707784 
L 458.2008 216.113122 
L 462.2184 213.671259 
L 463.5576 213.7361 
L 464.8968 213.35932 
L 467.5752 212.22229 
L 470.9232 210.60458 
L 472.2624 211.752425 
L 472.932 211.936051 
L 473.6016 211.970097 
L 474.9408 212.711131 
L 476.28 212.857959 
L 478.2888 212.666151 
L 480.9672 212.101482 
L 482.976 211.547883 
L 484.3152 212.025258 
L 485.6544 212.018041 
L 487.6632 211.68362 
L 490.3416 211.006502 
L 491.0112 210.811958 
L 492.3504 211.303375 
L 493.6896 211.310753 
L 495.6984 210.993365 
L 497.0376 210.689142 
L 498.3768 211.241697 
L 499.0464 211.785233 
L 499.716 212.181058 
L 501.0552 212.45681 
L 503.064 212.432812 
L 504.4032 212.287005 
L 505.0728 212.656018 
L 505.7424 213.402456 
L 506.412 213.90839 
L 507.7512 214.326986 
L 509.0904 214.453537 
L 509.76 214.909072 
L 510.4296 215.707654 
L 511.0992 216.234416 
L 511.7688 216.499421 
L 512.4384 217.061716 
L 513.108 217.900574 
L 513.7776 218.476764 
L 515.1168 219.033023 
L 515.7864 219.184122 
L 517.1256 220.094896 
L 518.4648 220.475022 
L 523.152 223.818061 
L 523.8216 224.013828 
L 525.1608 224.910291 
L 526.5 225.295396 
L 527.1696 225.397199 
L 527.8392 225.818609 
L 528.5088 226.497015 
L 529.1784 226.96198 
L 529.848 227.568998 
L 530.5176 228.676169 
L 531.1872 229.474632 
L 531.8568 229.947198 
L 532.5264 230.266912 
L 533.196 230.813285 
L 535.2048 232.927515 
L 536.544 233.542947 
L 537.8832 233.881705 
L 539.892 234.128487 
L 541.9008 234.167663 
L 544.5792 233.986293 
L 547.2576 233.596455 
L 547.9272 233.471339 
L 551.2752 234.252349 
L 553.284 234.093308 
L 555.9624 233.593211 
L 559.3104 232.710298 
L 563.328 231.38259 
L 564.6672 230.88679 
L 566.0064 230.970738 
L 567.3456 230.706681 
L 570.024 229.860775 
L 574.0416 228.300379 
L 578.7288 226.216103 
L 584.0856 223.582204 
L 590.7816 220.010711 
L 598.8168 215.451914 
L 610.2 208.714299 
L 614.2176 206.205769 
L 615.5568 206.347499 
L 616.896 206.070883 
L 618.2352 205.587222 
L 618.9048 205.830871 
L 619.5744 206.549085 
L 620.244 207.574468 
L 620.9136 208.300229 
L 621.5832 208.718953 
L 622.9224 209.124693 
L 624.2616 210.15533 
L 625.6008 210.561191 
L 626.94 210.683902 
L 628.9488 210.615594 
L 631.6272 210.249338 
L 632.9664 210.891124 
L 633.636 211.005088 
L 634.3056 211.509466 
L 634.9752 212.365943 
L 635.6448 213.412848 
L 636.3144 214.130988 
L 636.984 214.564867 
L 638.9928 216.646698 
L 639.6624 217.250332 
L 640.332 217.637875 
L 641.6712 218.874603 
L 642.3408 219.230736 
L 643.0104 219.887139 
L 643.68 220.803449 
L 645.6888 222.811992 
L 647.028 223.403719 
L 648.3672 225.388664 
L 649.0368 226.449152 
L 649.7064 227.180545 
L 650.376 227.661305 
L 651.0456 228.667765 
L 651.7152 229.464092 
L 652.3848 229.97036 
L 653.724 230.621382 
L 655.0632 231.033737 
L 656.4024 231.299767 
L 657.7416 232.014331 
L 659.0808 232.31798 
L 660.42 233.524912 
L 661.7592 234.000754 
L 663.768 234.256711 
L 665.7768 234.270281 
L 667.116 235.231969 
L 667.7856 235.430436 
L 669.1248 236.080662 
L 670.464 236.286591 
L 672.4728 236.287407 
L 673.812 236.680632 
L 675.1512 236.72367 
L 675.8208 236.68541 
L 677.16 237.041503 
L 678.4992 237.048365 
L 680.508 236.817892 
L 682.5168 236.444071 
L 683.856 236.647014 
L 685.1952 236.524386 
L 687.8736 235.962553 
L 691.2216 234.999319 
L 695.2392 233.590642 
L 699.9264 231.679192 
L 704.6136 229.535066 
L 709.9704 226.852988 
L 715.9968 223.599206 
L 723.3624 219.369623 
L 734.076 212.92445 
L 734.7456 212.514581 
L 736.0848 212.594301 
L 737.424 212.230183 
L 738.7632 212.591821 
L 740.1024 212.442281 
L 742.1112 211.878957 
L 742.7808 211.651492 
L 744.12 212.056395 
L 745.4592 211.974807 
L 747.468 211.521976 
L 750.1464 210.681609 
L 751.4856 211.115869 
L 752.8248 211.072438 
L 754.8336 210.675327 
L 756.8424 210.118279 
L 758.1816 210.612435 
L 758.8512 211.137521 
L 759.5208 211.519438 
L 760.1904 211.69599 
L 761.5296 212.651421 
L 762.8688 212.979272 
L 764.208 213.044695 
L 764.8776 213.484207 
L 765.5472 214.281379 
L 766.2168 214.832004 
L 767.556 215.328284 
L 768.2256 215.447995 
L 769.5648 216.362596 
L 770.904 216.727759 
L 772.2432 217.643952 
L 773.5824 218.016247 
L 774.252 218.107563 
L 775.5912 219.700542 
L 776.2608 220.103353 
L 777.6 220.546899 
L 777.6 220.546899 
" clip-path="url(#pb1a59842ed)" style="fill: none; stroke: #000000; stroke-width: 1.5; stroke-linecap: square"/>
   </g>
   <g id="line2d_24">
    <path d="M 108 171.227929 
L 108.6696 173.016459 
L 109.3392 148.756035 
L 110.0088 143.310083 
L 110.6784 140.571688 
L 111.348 139.130297 
L 112.0176 138.328798 
L 112.6872 137.867248 
L 114.0264 137.392546 
L 118.7136 136.192081 
L 123.4008 134.720978 
L 127.4184 134.093358 
L 129.4272 133.933604 
L 132.7752 133.993812 
L 138.132 134.026989 
L 140.8104 134.080261 
L 145.4976 134.523243 
L 150.8544 134.97925 
L 162.9072 135.685778 
L 166.9248 136.000106 
L 173.6208 136.622815 
L 183.6648 137.290854 
L 197.0568 137.946667 
L 200.4048 138.193159 
L 207.7704 139.151783 
L 211.788 139.610475 
L 213.7968 140.214944 
L 216.4752 141.260565 
L 222.5016 143.997178 
L 225.8496 145.721006 
L 227.1888 146.537689 
L 228.528 147.576942 
L 229.8672 148.861925 
L 231.2064 150.363444 
L 232.5456 152.122053 
L 234.5544 155.132503 
L 236.5632 158.546281 
L 239.2416 163.589645 
L 241.2504 167.824823 
L 242.5896 170.954339 
L 243.2592 147.435651 
L 243.9288 142.393323 
L 244.5984 139.790639 
L 245.268 138.399751 
L 245.9376 137.609042 
L 246.6072 137.147332 
L 247.9464 136.685241 
L 253.3032 135.404763 
L 255.312 134.996621 
L 257.3208 134.83192 
L 259.9992 134.865783 
L 265.356 134.861413 
L 272.052 134.852568 
L 281.4264 135.134018 
L 291.4704 135.658602 
L 313.5672 136.592044 
L 330.3072 137.064421 
L 344.3688 137.47035 
L 348.3864 137.878958 
L 351.0648 137.913389 
L 352.404 137.757593 
L 353.0736 137.568589 
L 353.7432 137.186427 
L 354.4128 135.936116 
L 355.0824 130.728216 
L 355.752 123.547396 
L 356.4216 117.587922 
L 357.0912 113.760941 
L 357.7608 111.811895 
L 358.4304 111.235955 
L 359.1 111.626441 
L 359.7696 112.688238 
L 360.4392 114.227418 
L 361.7784 118.221338 
L 363.7872 125.503573 
L 365.796 132.839081 
L 367.8048 139.090884 
L 369.8136 144.419376 
L 375.84 159.22092 
L 376.5096 160.99881 
L 377.1792 142.299285 
L 377.8488 139.013173 
L 378.5184 137.33293 
L 379.188 136.522158 
L 379.8576 136.14696 
L 380.5272 136.013229 
L 381.8664 136.082456 
L 383.8752 136.23739 
L 385.884 136.169859 
L 388.5624 135.771282 
L 391.2408 135.420341 
L 395.2584 135.168195 
L 402.624 135.02718 
L 407.9808 135.251665 
L 464.2272 137.311825 
L 472.932 138.477748 
L 474.9408 139.148854 
L 479.628 140.883848 
L 487.6632 143.564584 
L 493.6896 145.833512 
L 499.0464 148.406466 
L 501.0552 149.810542 
L 505.7424 153.48061 
L 507.7512 155.57059 
L 509.76 157.937819 
L 510.4296 158.819306 
L 511.0992 140.695233 
L 511.7688 137.442813 
L 512.4384 135.716547 
L 513.108 134.860033 
L 513.7776 134.441312 
L 515.1168 134.159118 
L 519.1344 133.816073 
L 525.8304 132.874758 
L 529.1784 132.558345 
L 531.1872 132.628667 
L 535.2048 133.135753 
L 538.5528 133.607562 
L 543.24 133.96291 
L 550.6056 134.457734 
L 556.632 135.166234 
L 585.4248 137.739652 
L 598.1472 138.498868 
L 611.5392 139.079215 
L 616.2264 139.334525 
L 619.5744 139.948909 
L 620.9136 140.497402 
L 623.592 142.024848 
L 630.288 146.103205 
L 633.636 147.993466 
L 634.9752 148.9529 
L 636.3144 150.212633 
L 638.3232 152.559485 
L 640.332 155.408414 
L 642.3408 158.747826 
L 643.68 161.29191 
L 644.3496 162.699347 
L 645.0192 142.950234 
L 645.6888 139.358174 
L 646.3584 137.497203 
L 647.028 136.57328 
L 647.6976 136.123156 
L 648.3672 135.93959 
L 649.7064 135.958511 
L 653.0544 136.212464 
L 655.0632 136.021517 
L 662.4288 134.787189 
L 667.116 134.361969 
L 670.464 134.420922 
L 677.8296 134.757698 
L 697.248 136.191965 
L 713.988 137.126889 
L 728.7192 137.735976 
L 736.7544 138.09486 
L 738.7632 138.42365 
L 744.7896 139.841602 
L 750.1464 141.288494 
L 752.1552 141.871597 
L 758.8512 144.163597 
L 760.86 145.236063 
L 763.5384 147.040767 
L 765.5472 148.501229 
L 767.556 150.317993 
L 769.5648 152.348104 
L 771.5736 154.638101 
L 773.5824 157.258568 
L 774.9216 159.181578 
L 776.2608 161.409908 
L 777.6 163.897748 
L 777.6 163.897748 
" clip-path="url(#pb1a59842ed)" style="fill: none; stroke: #4169e1; stroke-width: 1.5; stroke-linecap: square"/>
   </g>
   <g id="patch_3">
    <path d="M 108 256.32 
L 108 34.56 
" style="fill: none; stroke: #000000; stroke-width: 0.8; stroke-linejoin: miter; stroke-linecap: square"/>
   </g>
   <g id="patch_4">
    <path d="M 777.6 256.32 
L 777.6 34.56 
" style="fill: none; stroke: #000000; stroke-width: 0.8; stroke-linejoin: miter; stroke-linecap: square"/>
   </g>
   <g id="patch_5">
    <path d="M 108 256.32 
L 777.6 256.32 
" style="fill: none; stroke: #000000; stroke-width: 0.8; stroke-linejoin: miter; stroke-linecap: square"/>
   </g>
   <g id="patch_6">
    <path d="M 108 34.56 
L 777.6 34.56 
" style="fill: none; stroke: #000000; stroke-width: 0.8; stroke-linejoin: miter; stroke-linecap: square"/>
   </g>
   <g id="legend_1">
    <g id="patch_7">
     <path d="M 695.098438 71.91625 
L 770.6 71.91625 
Q 772.6 71.91625 772.6 69.91625 
L 772.6 41.56 
Q 772.6 39.56 770.6 39.56 
L 695.098438 39.56 
Q 693.098438 39.56 693.098438 41.56 
L 693.098438 69.91625 
Q 693.098438 71.91625 695.098438 71.91625 
z
" style="fill: #ffffff; opacity: 0.8; stroke: #cccccc; stroke-linejoin: miter"/>
    </g>
    <g id="line2d_25">
     <path d="M 697.098438 47.658437 
L 707.098438 47.658437 
L 717.098438 47.658437 
" style="fill: none; stroke: #000000; stroke-width: 1.5; stroke-linecap: square"/>
    </g>
    <g id="text_14">
     <!-- Soma -->
     <g transform="translate(725.098438 51.158437) scale(0.1 -0.1)">
      <defs>
       <path id="DejaVuSans-53" d="M 3425 4513 
L 3425 3897 
Q 3066 4069 2747 4153 
Q 2428 4238 2131 4238 
Q 1616 4238 1336 4038 
Q 1056 3838 1056 3469 
Q 1056 3159 1242 3001 
Q 1428 2844 1947 2747 
L 2328 2669 
Q 3034 2534 3370 2195 
Q 3706 1856 3706 1288 
Q 3706 609 3251 259 
Q 2797 -91 1919 -91 
Q 1588 -91 1214 -16 
Q 841 59 441 206 
L 441 856 
Q 825 641 1194 531 
Q 1563 422 1919 422 
Q 2459 422 2753 634 
Q 3047 847 3047 1241 
Q 3047 1584 2836 1778 
Q 2625 1972 2144 2069 
L 1759 2144 
Q 1053 2284 737 2584 
Q 422 2884 422 3419 
Q 422 4038 858 4394 
Q 1294 4750 2059 4750 
Q 2388 4750 2728 4690 
Q 3069 4631 3425 4513 
z
" transform="scale(0.015625)"/>
       <path id="DejaVuSans-6f" d="M 1959 3097 
Q 1497 3097 1228 2736 
Q 959 2375 959 1747 
Q 959 1119 1226 758 
Q 1494 397 1959 397 
Q 2419 397 2687 759 
Q 2956 1122 2956 1747 
Q 2956 2369 2687 2733 
Q 2419 3097 1959 3097 
z
M 1959 3584 
Q 2709 3584 3137 3096 
Q 3566 2609 3566 1747 
Q 3566 888 3137 398 
Q 2709 -91 1959 -91 
Q 1206 -91 779 398 
Q 353 888 353 1747 
Q 353 2609 779 3096 
Q 1206 3584 1959 3584 
z
" transform="scale(0.015625)"/>
       <path id="DejaVuSans-61" d="M 2194 1759 
Q 1497 1759 1228 1600 
Q 959 1441 959 1056 
Q 959 750 1161 570 
Q 1363 391 1709 391 
Q 2188 391 2477 730 
Q 2766 1069 2766 1631 
L 2766 1759 
L 2194 1759 
z
M 3341 1997 
L 3341 0 
L 2766 0 
L 2766 531 
Q 2569 213 2275 61 
Q 1981 -91 1556 -91 
Q 1019 -91 701 211 
Q 384 513 384 1019 
Q 384 1609 779 1909 
Q 1175 2209 1959 2209 
L 2766 2209 
L 2766 2266 
Q 2766 2663 2505 2880 
Q 2244 3097 1772 3097 
Q 1472 3097 1187 3025 
Q 903 2953 641 2809 
L 641 3341 
Q 956 3463 1253 3523 
Q 1550 3584 1831 3584 
Q 2591 3584 2966 3190 
Q 3341 2797 3341 1997 
z
" transform="scale(0.015625)"/>
      </defs>
      <use xlink:href="#DejaVuSans-53"/>
      <use xlink:href="#DejaVuSans-6f" x="63.476562"/>
      <use xlink:href="#DejaVuSans-6d" x="124.658203"/>
      <use xlink:href="#DejaVuSans-61" x="222.070312"/>
     </g>
    </g>
    <g id="line2d_26">
     <path d="M 697.098438 62.336562 
L 707.098438 62.336562 
L 717.098438 62.336562 
" style="fill: none; stroke: #4169e1; stroke-width: 1.5; stroke-linecap: square"/>
    </g>
    <g id="text_15">
     <!-- Dendrite -->
     <g transform="translate(725.098438 65.836562) scale(0.1 -0.1)">
      <defs>
       <path id="DejaVuSans-44" d="M 1259 4147 
L 1259 519 
L 2022 519 
Q 2988 519 3436 956 
Q 3884 1394 3884 2338 
Q 3884 3275 3436 3711 
Q 2988 4147 2022 4147 
L 1259 4147 
z
M 628 4666 
L 1925 4666 
Q 3281 4666 3915 4102 
Q 4550 3538 4550 2338 
Q 4550 1131 3912 565 
Q 3275 0 1925 0 
L 628 0 
L 628 4666 
z
" transform="scale(0.015625)"/>
       <path id="DejaVuSans-6e" d="M 3513 2113 
L 3513 0 
L 2938 0 
L 2938 2094 
Q 2938 2591 2744 2837 
Q 2550 3084 2163 3084 
Q 1697 3084 1428 2787 
Q 1159 2491 1159 1978 
L 1159 0 
L 581 0 
L 581 3500 
L 1159 3500 
L 1159 2956 
Q 1366 3272 1645 3428 
Q 1925 3584 2291 3584 
Q 2894 3584 3203 3211 
Q 3513 2838 3513 2113 
z
" transform="scale(0.015625)"/>
       <path id="DejaVuSans-64" d="M 2906 2969 
L 2906 4863 
L 3481 4863 
L 3481 0 
L 2906 0 
L 2906 525 
Q 2725 213 2448 61 
Q 2172 -91 1784 -91 
Q 1150 -91 751 415 
Q 353 922 353 1747 
Q 353 2572 751 3078 
Q 1150 3584 1784 3584 
Q 2172 3584 2448 3432 
Q 2725 3281 2906 2969 
z
M 947 1747 
Q 947 1113 1208 752 
Q 1469 391 1925 391 
Q 2381 391 2643 752 
Q 2906 1113 2906 1747 
Q 2906 2381 2643 2742 
Q 2381 3103 1925 3103 
Q 1469 3103 1208 2742 
Q 947 2381 947 1747 
z
" transform="scale(0.015625)"/>
       <path id="DejaVuSans-72" d="M 2631 2963 
Q 2534 3019 2420 3045 
Q 2306 3072 2169 3072 
Q 1681 3072 1420 2755 
Q 1159 2438 1159 1844 
L 1159 0 
L 581 0 
L 581 3500 
L 1159 3500 
L 1159 2956 
Q 1341 3275 1631 3429 
Q 1922 3584 2338 3584 
Q 2397 3584 2469 3576 
Q 2541 3569 2628 3553 
L 2631 2963 
z
" transform="scale(0.015625)"/>
       <path id="DejaVuSans-74" d="M 1172 4494 
L 1172 3500 
L 2356 3500 
L 2356 3053 
L 1172 3053 
L 1172 1153 
Q 1172 725 1289 603 
Q 1406 481 1766 481 
L 2356 481 
L 2356 0 
L 1766 0 
Q 1100 0 847 248 
Q 594 497 594 1153 
L 594 3053 
L 172 3053 
L 172 3500 
L 594 3500 
L 594 4494 
L 1172 4494 
z
" transform="scale(0.015625)"/>
      </defs>
      <use xlink:href="#DejaVuSans-44"/>
      <use xlink:href="#DejaVuSans-65" x="77.001953"/>
      <use xlink:href="#DejaVuSans-6e" x="138.525391"/>
      <use xlink:href="#DejaVuSans-64" x="201.904297"/>
      <use xlink:href="#DejaVuSans-72" x="265.380859"/>
      <use xlink:href="#DejaVuSans-69" x="306.494141"/>
      <use xlink:href="#DejaVuSans-74" x="334.277344"/>
      <use xlink:href="#DejaVuSans-65" x="373.486328"/>
     </g>
    </g>
   </g>
  </g>
 </g>
 <defs>
  <clipPath id="pb1a59842ed">
   <rect x="108" y="34.56" width="669.6" height="221.76"/>
  </clipPath>
 </defs>
</svg>
