<?xml version="1.0" encoding="utf-8" standalone="no"?>
<!DOCTYPE svg PUBLIC "-//W3C//DTD SVG 1.1//EN"
  "http://www.w3.org/Graphics/SVG/1.1/DTD/svg11.dtd">
<svg xmlns:xlink="http://www.w3.org/1999/xlink" width="864pt" height="288pt" viewBox="0 0 864 288" xmlns="http://www.w3.org/2000/svg" version="1.1">
 <metadata>
  <rdf:RDF xmlns:dc="http://purl.org/dc/elements/1.1/" xmlns:cc="http://creativecommons.org/ns#" xmlns:rdf="http://www.w3.org/1999/02/22-rdf-syntax-ns#">
   <cc:Work>
    <dc:type rdf:resource="http://purl.org/dc/dcmitype/StillImage"/>
    <dc:date>2024-04-23T19:17:21.954193</dc:date>
    <dc:format>image/svg+xml</dc:format>
    <dc:creator>
     <cc:Agent>
      <dc:title>Matplotlib v3.8.2, https://matplotlib.org/</dc:title>
     </cc:Agent>
    </dc:creator>
   </cc:Work>
  </rdf:RDF>
 </metadata>
 <defs>
  <style type="text/css">*{stroke-linejoin: round; stroke-linecap: butt}</style>
 </defs>
 <g id="figure_1">
  <g id="patch_1">
   <path d="M 0 288 
L 864 288 
L 864 0 
L 0 0 
z
" style="fill: #ffffff"/>
  </g>
  <g id="axes_1">
   <g id="patch_2">
    <path d="M 108 256.32 
L 777.6 256.32 
L 777.6 34.56 
L 108 34.56 
z
" style="fill: #ffffff"/>
   </g>
   <g id="matplotlib.axis_1">
    <g id="xtick_1">
     <g id="line2d_1">
      <path d="M 108 256.32 
L 108 34.56 
" clip-path="url(#p238dc178e4)" style="fill: none; stroke: #b0b0b0; stroke-width: 0.8; stroke-linecap: square"/>
     </g>
     <g id="line2d_2">
      <defs>
       <path id="m13aeb31fae" d="M 0 0 
L 0 3.5 
" style="stroke: #000000; stroke-width: 0.8"/>
      </defs>
      <g>
       <use xlink:href="#m13aeb31fae" x="108" y="256.32" style="stroke: #000000; stroke-width: 0.8"/>
      </g>
     </g>
     <g id="text_1">
      <!-- 100 -->
      <g transform="translate(94.63875 273.957812) scale(0.14 -0.14)">
       <defs>
        <path id="DejaVuSans-31" d="M 794 531 
L 1825 531 
L 1825 4091 
L 703 3866 
L 703 4441 
L 1819 4666 
L 2450 4666 
L 2450 531 
L 3481 531 
L 3481 0 
L 794 0 
L 794 531 
z
" transform="scale(0.015625)"/>
        <path id="DejaVuSans-30" d="M 2034 4250 
Q 1547 4250 1301 3770 
Q 1056 3291 1056 2328 
Q 1056 1369 1301 889 
Q 1547 409 2034 409 
Q 2525 409 2770 889 
Q 3016 1369 3016 2328 
Q 3016 3291 2770 3770 
Q 2525 4250 2034 4250 
z
M 2034 4750 
Q 2819 4750 3233 4129 
Q 3647 3509 3647 2328 
Q 3647 1150 3233 529 
Q 2819 -91 2034 -91 
Q 1250 -91 836 529 
Q 422 1150 422 2328 
Q 422 3509 836 4129 
Q 1250 4750 2034 4750 
z
" transform="scale(0.015625)"/>
       </defs>
       <use xlink:href="#DejaVuSans-31"/>
       <use xlink:href="#DejaVuSans-30" x="63.623047"/>
       <use xlink:href="#DejaVuSans-30" x="127.246094"/>
      </g>
     </g>
    </g>
    <g id="xtick_2">
     <g id="line2d_3">
      <path d="M 241.92 256.32 
L 241.92 34.56 
" clip-path="url(#p238dc178e4)" style="fill: none; stroke: #b0b0b0; stroke-width: 0.8; stroke-linecap: square"/>
     </g>
     <g id="line2d_4">
      <g>
       <use xlink:href="#m13aeb31fae" x="241.92" y="256.32" style="stroke: #000000; stroke-width: 0.8"/>
      </g>
     </g>
     <g id="text_2">
      <!-- 120 -->
      <g transform="translate(228.55875 273.957812) scale(0.14 -0.14)">
       <defs>
        <path id="DejaVuSans-32" d="M 1228 531 
L 3431 531 
L 3431 0 
L 469 0 
L 469 531 
Q 828 903 1448 1529 
Q 2069 2156 2228 2338 
Q 2531 2678 2651 2914 
Q 2772 3150 2772 3378 
Q 2772 3750 2511 3984 
Q 2250 4219 1831 4219 
Q 1534 4219 1204 4116 
Q 875 4013 500 3803 
L 500 4441 
Q 881 4594 1212 4672 
Q 1544 4750 1819 4750 
Q 2544 4750 2975 4387 
Q 3406 4025 3406 3419 
Q 3406 3131 3298 2873 
Q 3191 2616 2906 2266 
Q 2828 2175 2409 1742 
Q 1991 1309 1228 531 
z
" transform="scale(0.015625)"/>
       </defs>
       <use xlink:href="#DejaVuSans-31"/>
       <use xlink:href="#DejaVuSans-32" x="63.623047"/>
       <use xlink:href="#DejaVuSans-30" x="127.246094"/>
      </g>
     </g>
    </g>
    <g id="xtick_3">
     <g id="line2d_5">
      <path d="M 375.84 256.32 
L 375.84 34.56 
" clip-path="url(#p238dc178e4)" style="fill: none; stroke: #b0b0b0; stroke-width: 0.8; stroke-linecap: square"/>
     </g>
     <g id="line2d_6">
      <g>
       <use xlink:href="#m13aeb31fae" x="375.84" y="256.32" style="stroke: #000000; stroke-width: 0.8"/>
      </g>
     </g>
     <g id="text_3">
      <!-- 140 -->
      <g transform="translate(362.47875 273.957812) scale(0.14 -0.14)">
       <defs>
        <path id="DejaVuSans-34" d="M 2419 4116 
L 825 1625 
L 2419 1625 
L 2419 4116 
z
M 2253 4666 
L 3047 4666 
L 3047 1625 
L 3713 1625 
L 3713 1100 
L 3047 1100 
L 3047 0 
L 2419 0 
L 2419 1100 
L 313 1100 
L 313 1709 
L 2253 4666 
z
" transform="scale(0.015625)"/>
       </defs>
       <use xlink:href="#DejaVuSans-31"/>
       <use xlink:href="#DejaVuSans-34" x="63.623047"/>
       <use xlink:href="#DejaVuSans-30" x="127.246094"/>
      </g>
     </g>
    </g>
    <g id="xtick_4">
     <g id="line2d_7">
      <path d="M 509.76 256.32 
L 509.76 34.56 
" clip-path="url(#p238dc178e4)" style="fill: none; stroke: #b0b0b0; stroke-width: 0.8; stroke-linecap: square"/>
     </g>
     <g id="line2d_8">
      <g>
       <use xlink:href="#m13aeb31fae" x="509.76" y="256.32" style="stroke: #000000; stroke-width: 0.8"/>
      </g>
     </g>
     <g id="text_4">
      <!-- 160 -->
      <g transform="translate(496.39875 273.957812) scale(0.14 -0.14)">
       <defs>
        <path id="DejaVuSans-36" d="M 2113 2584 
Q 1688 2584 1439 2293 
Q 1191 2003 1191 1497 
Q 1191 994 1439 701 
Q 1688 409 2113 409 
Q 2538 409 2786 701 
Q 3034 994 3034 1497 
Q 3034 2003 2786 2293 
Q 2538 2584 2113 2584 
z
M 3366 4563 
L 3366 3988 
Q 3128 4100 2886 4159 
Q 2644 4219 2406 4219 
Q 1781 4219 1451 3797 
Q 1122 3375 1075 2522 
Q 1259 2794 1537 2939 
Q 1816 3084 2150 3084 
Q 2853 3084 3261 2657 
Q 3669 2231 3669 1497 
Q 3669 778 3244 343 
Q 2819 -91 2113 -91 
Q 1303 -91 875 529 
Q 447 1150 447 2328 
Q 447 3434 972 4092 
Q 1497 4750 2381 4750 
Q 2619 4750 2861 4703 
Q 3103 4656 3366 4563 
z
" transform="scale(0.015625)"/>
       </defs>
       <use xlink:href="#DejaVuSans-31"/>
       <use xlink:href="#DejaVuSans-36" x="63.623047"/>
       <use xlink:href="#DejaVuSans-30" x="127.246094"/>
      </g>
     </g>
    </g>
    <g id="xtick_5">
     <g id="line2d_9">
      <path d="M 643.68 256.32 
L 643.68 34.56 
" clip-path="url(#p238dc178e4)" style="fill: none; stroke: #b0b0b0; stroke-width: 0.8; stroke-linecap: square"/>
     </g>
     <g id="line2d_10">
      <g>
       <use xlink:href="#m13aeb31fae" x="643.68" y="256.32" style="stroke: #000000; stroke-width: 0.8"/>
      </g>
     </g>
     <g id="text_5">
      <!-- 180 -->
      <g transform="translate(630.31875 273.957812) scale(0.14 -0.14)">
       <defs>
        <path id="DejaVuSans-38" d="M 2034 2216 
Q 1584 2216 1326 1975 
Q 1069 1734 1069 1313 
Q 1069 891 1326 650 
Q 1584 409 2034 409 
Q 2484 409 2743 651 
Q 3003 894 3003 1313 
Q 3003 1734 2745 1975 
Q 2488 2216 2034 2216 
z
M 1403 2484 
Q 997 2584 770 2862 
Q 544 3141 544 3541 
Q 544 4100 942 4425 
Q 1341 4750 2034 4750 
Q 2731 4750 3128 4425 
Q 3525 4100 3525 3541 
Q 3525 3141 3298 2862 
Q 3072 2584 2669 2484 
Q 3125 2378 3379 2068 
Q 3634 1759 3634 1313 
Q 3634 634 3220 271 
Q 2806 -91 2034 -91 
Q 1263 -91 848 271 
Q 434 634 434 1313 
Q 434 1759 690 2068 
Q 947 2378 1403 2484 
z
M 1172 3481 
Q 1172 3119 1398 2916 
Q 1625 2713 2034 2713 
Q 2441 2713 2670 2916 
Q 2900 3119 2900 3481 
Q 2900 3844 2670 4047 
Q 2441 4250 2034 4250 
Q 1625 4250 1398 4047 
Q 1172 3844 1172 3481 
z
" transform="scale(0.015625)"/>
       </defs>
       <use xlink:href="#DejaVuSans-31"/>
       <use xlink:href="#DejaVuSans-38" x="63.623047"/>
       <use xlink:href="#DejaVuSans-30" x="127.246094"/>
      </g>
     </g>
    </g>
    <g id="xtick_6">
     <g id="line2d_11">
      <path d="M 777.6 256.32 
L 777.6 34.56 
" clip-path="url(#p238dc178e4)" style="fill: none; stroke: #b0b0b0; stroke-width: 0.8; stroke-linecap: square"/>
     </g>
     <g id="line2d_12">
      <g>
       <use xlink:href="#m13aeb31fae" x="777.6" y="256.32" style="stroke: #000000; stroke-width: 0.8"/>
      </g>
     </g>
     <g id="text_6">
      <!-- 200 -->
      <g transform="translate(764.23875 273.957812) scale(0.14 -0.14)">
       <use xlink:href="#DejaVuSans-32"/>
       <use xlink:href="#DejaVuSans-30" x="63.623047"/>
       <use xlink:href="#DejaVuSans-30" x="127.246094"/>
      </g>
     </g>
    </g>
    <g id="text_7">
     <!-- Time (ms) -->
     <g transform="translate(407.521094 291.507187) scale(0.14 -0.14)">
      <defs>
       <path id="DejaVuSans-54" d="M -19 4666 
L 3928 4666 
L 3928 4134 
L 2272 4134 
L 2272 0 
L 1638 0 
L 1638 4134 
L -19 4134 
L -19 4666 
z
" transform="scale(0.015625)"/>
       <path id="DejaVuSans-69" d="M 603 3500 
L 1178 3500 
L 1178 0 
L 603 0 
L 603 3500 
z
M 603 4863 
L 1178 4863 
L 1178 4134 
L 603 4134 
L 603 4863 
z
" transform="scale(0.015625)"/>
       <path id="DejaVuSans-6d" d="M 3328 2828 
Q 3544 3216 3844 3400 
Q 4144 3584 4550 3584 
Q 5097 3584 5394 3201 
Q 5691 2819 5691 2113 
L 5691 0 
L 5113 0 
L 5113 2094 
Q 5113 2597 4934 2840 
Q 4756 3084 4391 3084 
Q 3944 3084 3684 2787 
Q 3425 2491 3425 1978 
L 3425 0 
L 2847 0 
L 2847 2094 
Q 2847 2600 2669 2842 
Q 2491 3084 2119 3084 
Q 1678 3084 1418 2786 
Q 1159 2488 1159 1978 
L 1159 0 
L 581 0 
L 581 3500 
L 1159 3500 
L 1159 2956 
Q 1356 3278 1631 3431 
Q 1906 3584 2284 3584 
Q 2666 3584 2933 3390 
Q 3200 3197 3328 2828 
z
" transform="scale(0.015625)"/>
       <path id="DejaVuSans-65" d="M 3597 1894 
L 3597 1613 
L 953 1613 
Q 991 1019 1311 708 
Q 1631 397 2203 397 
Q 2534 397 2845 478 
Q 3156 559 3463 722 
L 3463 178 
Q 3153 47 2828 -22 
Q 2503 -91 2169 -91 
Q 1331 -91 842 396 
Q 353 884 353 1716 
Q 353 2575 817 3079 
Q 1281 3584 2069 3584 
Q 2775 3584 3186 3129 
Q 3597 2675 3597 1894 
z
M 3022 2063 
Q 3016 2534 2758 2815 
Q 2500 3097 2075 3097 
Q 1594 3097 1305 2825 
Q 1016 2553 972 2059 
L 3022 2063 
z
" transform="scale(0.015625)"/>
       <path id="DejaVuSans-20" transform="scale(0.015625)"/>
       <path id="DejaVuSans-28" d="M 1984 4856 
Q 1566 4138 1362 3434 
Q 1159 2731 1159 2009 
Q 1159 1288 1364 580 
Q 1569 -128 1984 -844 
L 1484 -844 
Q 1016 -109 783 600 
Q 550 1309 550 2009 
Q 550 2706 781 3412 
Q 1013 4119 1484 4856 
L 1984 4856 
z
" transform="scale(0.015625)"/>
       <path id="DejaVuSans-73" d="M 2834 3397 
L 2834 2853 
Q 2591 2978 2328 3040 
Q 2066 3103 1784 3103 
Q 1356 3103 1142 2972 
Q 928 2841 928 2578 
Q 928 2378 1081 2264 
Q 1234 2150 1697 2047 
L 1894 2003 
Q 2506 1872 2764 1633 
Q 3022 1394 3022 966 
Q 3022 478 2636 193 
Q 2250 -91 1575 -91 
Q 1294 -91 989 -36 
Q 684 19 347 128 
L 347 722 
Q 666 556 975 473 
Q 1284 391 1588 391 
Q 1994 391 2212 530 
Q 2431 669 2431 922 
Q 2431 1156 2273 1281 
Q 2116 1406 1581 1522 
L 1381 1569 
Q 847 1681 609 1914 
Q 372 2147 372 2553 
Q 372 3047 722 3315 
Q 1072 3584 1716 3584 
Q 2034 3584 2315 3537 
Q 2597 3491 2834 3397 
z
" transform="scale(0.015625)"/>
       <path id="DejaVuSans-29" d="M 513 4856 
L 1013 4856 
Q 1481 4119 1714 3412 
Q 1947 2706 1947 2009 
Q 1947 1309 1714 600 
Q 1481 -109 1013 -844 
L 513 -844 
Q 928 -128 1133 580 
Q 1338 1288 1338 2009 
Q 1338 2731 1133 3434 
Q 928 4138 513 4856 
z
" transform="scale(0.015625)"/>
      </defs>
      <use xlink:href="#DejaVuSans-54"/>
      <use xlink:href="#DejaVuSans-69" x="57.958984"/>
      <use xlink:href="#DejaVuSans-6d" x="85.742188"/>
      <use xlink:href="#DejaVuSans-65" x="183.154297"/>
      <use xlink:href="#DejaVuSans-20" x="244.677734"/>
      <use xlink:href="#DejaVuSans-28" x="276.464844"/>
      <use xlink:href="#DejaVuSans-6d" x="315.478516"/>
      <use xlink:href="#DejaVuSans-73" x="412.890625"/>
      <use xlink:href="#DejaVuSans-29" x="464.990234"/>
     </g>
    </g>
   </g>
   <g id="matplotlib.axis_2">
    <g id="ytick_1">
     <g id="line2d_13">
      <path d="M 108 246.24 
L 777.6 246.24 
" clip-path="url(#p238dc178e4)" style="fill: none; stroke: #b0b0b0; stroke-width: 0.8; stroke-linecap: square"/>
     </g>
     <g id="line2d_14">
      <defs>
       <path id="ma6484c265f" d="M 0 0 
L -3.5 0 
" style="stroke: #000000; stroke-width: 0.8"/>
      </defs>
      <g>
       <use xlink:href="#ma6484c265f" x="108" y="246.24" style="stroke: #000000; stroke-width: 0.8"/>
      </g>
     </g>
     <g id="text_8">
      <!-- 0.00 -->
      <g transform="translate(69.828125 251.558906) scale(0.14 -0.14)">
       <defs>
        <path id="DejaVuSans-2e" d="M 684 794 
L 1344 794 
L 1344 0 
L 684 0 
L 684 794 
z
" transform="scale(0.015625)"/>
       </defs>
       <use xlink:href="#DejaVuSans-30"/>
       <use xlink:href="#DejaVuSans-2e" x="63.623047"/>
       <use xlink:href="#DejaVuSans-30" x="95.410156"/>
       <use xlink:href="#DejaVuSans-30" x="159.033203"/>
      </g>
     </g>
    </g>
    <g id="ytick_2">
     <g id="line2d_15">
      <path d="M 108 206.881178 
L 777.6 206.881178 
" clip-path="url(#p238dc178e4)" style="fill: none; stroke: #b0b0b0; stroke-width: 0.8; stroke-linecap: square"/>
     </g>
     <g id="line2d_16">
      <g>
       <use xlink:href="#ma6484c265f" x="108" y="206.881178" style="stroke: #000000; stroke-width: 0.8"/>
      </g>
     </g>
     <g id="text_9">
      <!-- 0.05 -->
      <g transform="translate(69.828125 212.200084) scale(0.14 -0.14)">
       <defs>
        <path id="DejaVuSans-35" d="M 691 4666 
L 3169 4666 
L 3169 4134 
L 1269 4134 
L 1269 2991 
Q 1406 3038 1543 3061 
Q 1681 3084 1819 3084 
Q 2600 3084 3056 2656 
Q 3513 2228 3513 1497 
Q 3513 744 3044 326 
Q 2575 -91 1722 -91 
Q 1428 -91 1123 -41 
Q 819 9 494 109 
L 494 744 
Q 775 591 1075 516 
Q 1375 441 1709 441 
Q 2250 441 2565 725 
Q 2881 1009 2881 1497 
Q 2881 1984 2565 2268 
Q 2250 2553 1709 2553 
Q 1456 2553 1204 2497 
Q 953 2441 691 2322 
L 691 4666 
z
" transform="scale(0.015625)"/>
       </defs>
       <use xlink:href="#DejaVuSans-30"/>
       <use xlink:href="#DejaVuSans-2e" x="63.623047"/>
       <use xlink:href="#DejaVuSans-30" x="95.410156"/>
       <use xlink:href="#DejaVuSans-35" x="159.033203"/>
      </g>
     </g>
    </g>
    <g id="ytick_3">
     <g id="line2d_17">
      <path d="M 108 167.522356 
L 777.6 167.522356 
" clip-path="url(#p238dc178e4)" style="fill: none; stroke: #b0b0b0; stroke-width: 0.8; stroke-linecap: square"/>
     </g>
     <g id="line2d_18">
      <g>
       <use xlink:href="#ma6484c265f" x="108" y="167.522356" style="stroke: #000000; stroke-width: 0.8"/>
      </g>
     </g>
     <g id="text_10">
      <!-- 0.10 -->
      <g transform="translate(69.828125 172.841262) scale(0.14 -0.14)">
       <use xlink:href="#DejaVuSans-30"/>
       <use xlink:href="#DejaVuSans-2e" x="63.623047"/>
       <use xlink:href="#DejaVuSans-31" x="95.410156"/>
       <use xlink:href="#DejaVuSans-30" x="159.033203"/>
      </g>
     </g>
    </g>
    <g id="ytick_4">
     <g id="line2d_19">
      <path d="M 108 128.163534 
L 777.6 128.163534 
" clip-path="url(#p238dc178e4)" style="fill: none; stroke: #b0b0b0; stroke-width: 0.8; stroke-linecap: square"/>
     </g>
     <g id="line2d_20">
      <g>
       <use xlink:href="#ma6484c265f" x="108" y="128.163534" style="stroke: #000000; stroke-width: 0.8"/>
      </g>
     </g>
     <g id="text_11">
      <!-- 0.15 -->
      <g transform="translate(69.828125 133.48244) scale(0.14 -0.14)">
       <use xlink:href="#DejaVuSans-30"/>
       <use xlink:href="#DejaVuSans-2e" x="63.623047"/>
       <use xlink:href="#DejaVuSans-31" x="95.410156"/>
       <use xlink:href="#DejaVuSans-35" x="159.033203"/>
      </g>
     </g>
    </g>
    <g id="ytick_5">
     <g id="line2d_21">
      <path d="M 108 88.804712 
L 777.6 88.804712 
" clip-path="url(#p238dc178e4)" style="fill: none; stroke: #b0b0b0; stroke-width: 0.8; stroke-linecap: square"/>
     </g>
     <g id="line2d_22">
      <g>
       <use xlink:href="#ma6484c265f" x="108" y="88.804712" style="stroke: #000000; stroke-width: 0.8"/>
      </g>
     </g>
     <g id="text_12">
      <!-- 0.20 -->
      <g transform="translate(69.828125 94.123618) scale(0.14 -0.14)">
       <use xlink:href="#DejaVuSans-30"/>
       <use xlink:href="#DejaVuSans-2e" x="63.623047"/>
       <use xlink:href="#DejaVuSans-32" x="95.410156"/>
       <use xlink:href="#DejaVuSans-30" x="159.033203"/>
      </g>
     </g>
    </g>
    <g id="ytick_6">
     <g id="line2d_23">
      <path d="M 108 49.44589 
L 777.6 49.44589 
" clip-path="url(#p238dc178e4)" style="fill: none; stroke: #b0b0b0; stroke-width: 0.8; stroke-linecap: square"/>
     </g>
     <g id="line2d_24">
      <g>
       <use xlink:href="#ma6484c265f" x="108" y="49.44589" style="stroke: #000000; stroke-width: 0.8"/>
      </g>
     </g>
     <g id="text_13">
      <!-- 0.25 -->
      <g transform="translate(69.828125 54.764796) scale(0.14 -0.14)">
       <use xlink:href="#DejaVuSans-30"/>
       <use xlink:href="#DejaVuSans-2e" x="63.623047"/>
       <use xlink:href="#DejaVuSans-32" x="95.410156"/>
       <use xlink:href="#DejaVuSans-35" x="159.033203"/>
      </g>
     </g>
    </g>
    <g id="text_14">
     <!-- $g_{Inhib}$ (µS) -->
     <g transform="translate(62.888125 178.83) rotate(-90) scale(0.14 -0.14)">
      <defs>
       <path id="DejaVuSans-Oblique-67" d="M 3816 3500 
L 3219 434 
Q 3047 -456 2561 -893 
Q 2075 -1331 1253 -1331 
Q 950 -1331 690 -1286 
Q 431 -1241 206 -1147 
L 313 -588 
Q 525 -725 762 -790 
Q 1000 -856 1269 -856 
Q 1816 -856 2167 -557 
Q 2519 -259 2631 300 
L 2681 563 
Q 2441 288 2122 144 
Q 1803 0 1434 0 
Q 903 0 598 351 
Q 294 703 294 1319 
Q 294 1803 478 2267 
Q 663 2731 997 3091 
Q 1219 3328 1514 3456 
Q 1809 3584 2131 3584 
Q 2484 3584 2746 3420 
Q 3009 3256 3138 2956 
L 3238 3500 
L 3816 3500 
z
M 2950 2216 
Q 2950 2641 2750 2872 
Q 2550 3103 2181 3103 
Q 1953 3103 1747 3012 
Q 1541 2922 1394 2759 
Q 1156 2491 1023 2127 
Q 891 1763 891 1375 
Q 891 944 1092 712 
Q 1294 481 1672 481 
Q 2219 481 2584 976 
Q 2950 1472 2950 2216 
z
" transform="scale(0.015625)"/>
       <path id="DejaVuSans-Oblique-49" d="M 1081 4666 
L 1716 4666 
L 806 0 
L 172 0 
L 1081 4666 
z
" transform="scale(0.015625)"/>
       <path id="DejaVuSans-Oblique-6e" d="M 3566 2113 
L 3156 0 
L 2578 0 
L 2988 2091 
Q 3016 2238 3031 2350 
Q 3047 2463 3047 2528 
Q 3047 2791 2881 2937 
Q 2716 3084 2419 3084 
Q 1956 3084 1622 2776 
Q 1288 2469 1184 1941 
L 800 0 
L 225 0 
L 903 3500 
L 1478 3500 
L 1363 2950 
Q 1603 3253 1940 3418 
Q 2278 3584 2650 3584 
Q 3113 3584 3367 3334 
Q 3622 3084 3622 2631 
Q 3622 2519 3608 2391 
Q 3594 2263 3566 2113 
z
" transform="scale(0.015625)"/>
       <path id="DejaVuSans-Oblique-68" d="M 3566 2113 
L 3156 0 
L 2578 0 
L 2988 2091 
Q 3016 2238 3031 2350 
Q 3047 2463 3047 2528 
Q 3047 2791 2881 2937 
Q 2716 3084 2419 3084 
Q 1956 3084 1617 2771 
Q 1278 2459 1178 1941 
L 800 0 
L 225 0 
L 1172 4863 
L 1747 4863 
L 1375 2950 
Q 1594 3244 1934 3414 
Q 2275 3584 2650 3584 
Q 3113 3584 3367 3334 
Q 3622 3084 3622 2631 
Q 3622 2519 3608 2391 
Q 3594 2263 3566 2113 
z
" transform="scale(0.015625)"/>
       <path id="DejaVuSans-Oblique-69" d="M 1172 4863 
L 1747 4863 
L 1606 4134 
L 1031 4134 
L 1172 4863 
z
M 909 3500 
L 1484 3500 
L 800 0 
L 225 0 
L 909 3500 
z
" transform="scale(0.015625)"/>
       <path id="DejaVuSans-Oblique-62" d="M 3169 2138 
Q 3169 2591 2961 2847 
Q 2753 3103 2388 3103 
Q 2122 3103 1889 2973 
Q 1656 2844 1484 2597 
Q 1303 2338 1198 1995 
Q 1094 1653 1094 1313 
Q 1094 881 1298 636 
Q 1503 391 1863 391 
Q 2134 391 2365 517 
Q 2597 644 2772 891 
Q 2950 1147 3059 1487 
Q 3169 1828 3169 2138 
z
M 1381 2969 
Q 1594 3256 1914 3420 
Q 2234 3584 2584 3584 
Q 3122 3584 3439 3221 
Q 3756 2859 3756 2241 
Q 3756 1734 3570 1259 
Q 3384 784 3041 416 
Q 2816 172 2522 40 
Q 2228 -91 1906 -91 
Q 1566 -91 1316 65 
Q 1066 222 909 531 
L 806 0 
L 231 0 
L 1178 4863 
L 1753 4863 
L 1381 2969 
z
" transform="scale(0.015625)"/>
       <path id="DejaVuSans-b5" d="M 544 -1331 
L 544 3500 
L 1119 3500 
L 1119 1325 
Q 1119 872 1334 640 
Q 1550 409 1972 409 
Q 2434 409 2667 671 
Q 2900 934 2900 1459 
L 2900 3500 
L 3475 3500 
L 3475 806 
Q 3475 619 3529 530 
Q 3584 441 3700 441 
Q 3728 441 3778 458 
Q 3828 475 3916 513 
L 3916 50 
Q 3788 -22 3673 -56 
Q 3559 -91 3450 -91 
Q 3234 -91 3106 31 
Q 2978 153 2931 403 
Q 2775 156 2548 32 
Q 2322 -91 2016 -91 
Q 1697 -91 1473 31 
Q 1250 153 1119 397 
L 1119 -1331 
L 544 -1331 
z
" transform="scale(0.015625)"/>
       <path id="DejaVuSans-53" d="M 3425 4513 
L 3425 3897 
Q 3066 4069 2747 4153 
Q 2428 4238 2131 4238 
Q 1616 4238 1336 4038 
Q 1056 3838 1056 3469 
Q 1056 3159 1242 3001 
Q 1428 2844 1947 2747 
L 2328 2669 
Q 3034 2534 3370 2195 
Q 3706 1856 3706 1288 
Q 3706 609 3251 259 
Q 2797 -91 1919 -91 
Q 1588 -91 1214 -16 
Q 841 59 441 206 
L 441 856 
Q 825 641 1194 531 
Q 1563 422 1919 422 
Q 2459 422 2753 634 
Q 3047 847 3047 1241 
Q 3047 1584 2836 1778 
Q 2625 1972 2144 2069 
L 1759 2144 
Q 1053 2284 737 2584 
Q 422 2884 422 3419 
Q 422 4038 858 4394 
Q 1294 4750 2059 4750 
Q 2388 4750 2728 4690 
Q 3069 4631 3425 4513 
z
" transform="scale(0.015625)"/>
      </defs>
      <use xlink:href="#DejaVuSans-Oblique-67" transform="translate(0 0.125)"/>
      <use xlink:href="#DejaVuSans-Oblique-49" transform="translate(63.476562 -16.28125) scale(0.7)"/>
      <use xlink:href="#DejaVuSans-Oblique-6e" transform="translate(84.121094 -16.28125) scale(0.7)"/>
      <use xlink:href="#DejaVuSans-Oblique-68" transform="translate(128.486328 -16.28125) scale(0.7)"/>
      <use xlink:href="#DejaVuSans-Oblique-69" transform="translate(172.851562 -16.28125) scale(0.7)"/>
      <use xlink:href="#DejaVuSans-Oblique-62" transform="translate(192.299805 -16.28125) scale(0.7)"/>
      <use xlink:href="#DejaVuSans-20" transform="translate(239.467773 0.125)"/>
      <use xlink:href="#DejaVuSans-28" transform="translate(271.254883 0.125)"/>
      <use xlink:href="#DejaVuSans-b5" transform="translate(310.268555 0.125)"/>
      <use xlink:href="#DejaVuSans-53" transform="translate(373.891602 0.125)"/>
      <use xlink:href="#DejaVuSans-29" transform="translate(437.368164 0.125)"/>
     </g>
    </g>
   </g>
   <g id="line2d_25">
    <path d="M 108 107.869767 
L 108.6696 107.128449 
L 113.3568 121.894891 
L 114.0264 116.479494 
L 114.696 108.348517 
L 115.3656 107.599507 
L 116.0352 102.251575 
L 116.7048 94.349234 
L 117.3744 93.825185 
L 118.7136 98.524636 
L 119.3832 93.484787 
L 120.0528 85.723324 
L 120.7224 85.337888 
L 121.392 80.347689 
L 122.0616 80.210892 
L 124.74 90.473848 
L 125.4096 85.563371 
L 126.0792 85.34276 
L 126.7488 72.938924 
L 127.4184 70.11858 
L 128.088 65.210693 
L 128.7576 65.317139 
L 132.7752 81.925578 
L 133.4448 77.152467 
L 134.1144 77.067015 
L 137.4624 90.077667 
L 138.132 85.173556 
L 138.8016 84.95921 
L 140.1408 89.941314 
L 140.8104 85.039395 
L 141.48 84.827204 
L 148.176 108.827666 
L 151.524 119.519213 
L 154.872 129.378889 
L 158.22 138.471421 
L 161.568 146.856496 
L 164.916 154.58916 
L 168.264 161.720173 
L 171.612 168.296349 
L 174.96 174.360857 
L 178.308 179.953508 
L 181.656 185.111015 
L 185.004 189.867236 
L 188.352 194.253392 
L 191.7 198.298278 
L 193.0392 199.826696 
L 193.7088 193.158975 
L 194.3784 191.209358 
L 195.7176 192.804129 
L 199.0656 196.961777 
L 202.4136 200.795933 
L 205.7616 204.331769 
L 209.1096 207.592493 
L 213.1272 211.172237 
L 213.7968 211.735758 
L 214.4664 204.876665 
L 215.136 202.738751 
L 215.8056 203.275539 
L 216.4752 196.552397 
L 217.1448 194.548249 
L 218.484 196.036574 
L 220.4928 198.41812 
L 221.1624 191.773034 
L 221.832 182.43213 
L 222.5016 180.492634 
L 223.8408 182.429062 
L 224.5104 176.040912 
L 225.18 174.366373 
L 226.5192 176.498111 
L 229.1976 180.874073 
L 229.8672 174.510911 
L 230.5368 172.860959 
L 231.876 175.04069 
L 232.5456 176.184827 
L 233.2152 169.897018 
L 233.8848 168.321209 
L 234.5544 154.583952 
L 235.224 150.451614 
L 235.8936 151.666376 
L 239.2416 159.0248 
L 241.2504 163.162108 
L 241.92 157.083568 
L 242.5896 155.713664 
L 243.2592 149.592563 
L 243.9288 140.929477 
L 244.5984 139.656907 
L 245.9376 142.895208 
L 246.6072 137.142347 
L 247.2768 136.092889 
L 249.2856 141.160957 
L 249.9552 128.022406 
L 250.6248 124.316898 
L 251.2944 125.951631 
L 252.6336 129.786514 
L 253.3032 124.244303 
L 253.9728 123.402109 
L 254.6424 125.213797 
L 255.312 119.745066 
L 255.9816 118.975173 
L 257.3208 122.872824 
L 257.9904 117.441712 
L 258.66 116.708832 
L 259.3296 111.214518 
L 259.9992 110.581707 
L 260.6688 105.185853 
L 261.3384 97.23636 
L 262.008 96.665916 
L 262.6776 91.493681 
L 263.3472 83.764214 
L 264.0168 83.410261 
L 264.6864 85.864597 
L 265.356 81.028188 
L 266.0256 73.466896 
L 266.6952 73.278415 
L 267.3648 68.482006 
L 268.0344 68.535884 
L 269.3736 74.041576 
L 270.0432 69.395157 
L 270.7128 69.434361 
L 274.7304 85.66144 
L 275.4 80.828296 
L 276.0696 80.683775 
L 282.7656 105.303923 
L 284.7744 111.989638 
L 285.444 106.733413 
L 286.1136 106.172611 
L 293.4792 128.897115 
L 296.8272 138.027132 
L 300.1752 146.446776 
L 303.5232 154.211318 
L 306.8712 161.37173 
L 310.2192 167.975017 
L 313.5672 174.064527 
L 316.9152 179.680234 
L 320.2632 184.859003 
L 323.6112 189.634832 
L 326.9592 194.039071 
L 330.3072 198.100633 
L 333.6552 201.846179 
L 334.9944 203.261487 
L 335.664 196.538571 
L 336.3336 187.121087 
L 337.0032 185.106241 
L 338.3424 186.895584 
L 341.6904 191.512954 
L 343.0296 193.257693 
L 343.6992 186.695532 
L 344.3688 184.84978 
L 345.708 186.647299 
L 346.3776 180.191364 
L 347.0472 178.45013 
L 348.3864 180.451674 
L 351.7344 185.570421 
L 355.0824 190.290897 
L 357.7608 193.801429 
L 358.4304 187.230531 
L 359.1 177.962622 
L 359.7696 176.094949 
L 361.1088 178.171578 
L 364.4568 183.467731 
L 365.1264 177.06289 
L 365.796 175.371929 
L 367.1352 177.471609 
L 367.8048 171.163123 
L 368.4744 169.566968 
L 369.8136 171.851714 
L 370.4832 173.047096 
L 371.1528 166.809709 
L 371.8224 165.283511 
L 372.492 159.008627 
L 373.1616 157.607789 
L 374.5008 160.273803 
L 376.5096 164.351861 
L 377.1792 158.254202 
L 377.8488 156.865487 
L 378.5184 143.312317 
L 379.188 139.361108 
L 379.8576 140.754089 
L 383.2056 148.961558 
L 383.8752 143.111214 
L 384.5448 141.965839 
L 385.2144 143.479217 
L 385.884 137.716971 
L 386.5536 136.658278 
L 387.2232 130.843387 
L 387.8928 129.89515 
L 389.9016 135.257226 
L 391.9104 140.522018 
L 392.58 134.807293 
L 393.9192 117.929443 
L 394.5888 117.026472 
L 395.2584 118.940613 
L 395.928 113.57269 
L 396.5976 112.901983 
L 397.2672 114.882403 
L 397.9368 109.579693 
L 398.6064 94.146034 
L 399.276 75.99553 
L 399.9456 72.801559 
L 401.2848 78.011612 
L 404.6328 91.100842 
L 407.9808 103.171647 
L 408.6504 98.057123 
L 409.32 90.222185 
L 409.9896 89.764455 
L 410.6592 92.116683 
L 411.3288 87.179806 
L 411.9984 79.519661 
L 412.668 79.233915 
L 416.016 92.075969 
L 416.6856 87.139746 
L 417.3552 86.893804 
L 424.0512 110.585188 
L 427.3992 121.139988 
L 430.7472 130.873558 
L 434.0952 139.849795 
L 437.4432 148.127624 
L 440.7912 155.761386 
L 444.1392 162.801193 
L 447.4872 169.293259 
L 450.8352 175.280201 
L 454.1832 180.801321 
L 457.5312 185.892863 
L 460.8792 190.588251 
L 464.2272 194.918308 
L 467.5752 198.911459 
L 470.9232 202.593918 
L 471.5928 203.295288 
L 472.2624 196.571829 
L 472.932 194.567369 
L 474.2712 196.055084 
L 475.6104 197.655017 
L 476.28 191.022193 
L 476.9496 189.106913 
L 478.2888 190.768712 
L 481.6368 195.084728 
L 482.3064 188.493208 
L 482.976 186.618567 
L 484.3152 188.359696 
L 484.9848 181.876244 
L 485.6544 180.107935 
L 486.9936 182.056627 
L 490.3416 187.050499 
L 493.6896 191.655815 
L 494.3592 185.119396 
L 495.0288 183.298971 
L 495.6984 184.148147 
L 496.368 170.318813 
L 497.0376 165.933624 
L 497.7072 159.486039 
L 498.3768 150.66397 
L 499.0464 149.234971 
L 500.3856 152.167917 
L 501.0552 146.266048 
L 501.7248 145.069976 
L 502.3944 146.533473 
L 503.064 140.722146 
L 503.7336 139.615162 
L 505.7424 144.516141 
L 506.412 146.150792 
L 507.0816 140.345615 
L 507.7512 139.244681 
L 509.76 144.163235 
L 511.7688 149.005545 
L 512.4384 143.154494 
L 513.108 142.008423 
L 513.7776 136.107558 
L 514.4472 135.074728 
L 516.456 140.191096 
L 517.1256 127.068129 
L 517.7952 123.377956 
L 518.4648 125.027778 
L 519.1344 119.562037 
L 519.804 118.795085 
L 520.4736 113.267246 
L 521.1432 112.601448 
L 523.152 118.783902 
L 523.8216 113.418497 
L 524.4912 112.750269 
L 530.5176 130.718215 
L 531.1872 117.747473 
L 531.8568 114.207078 
L 532.5264 108.590712 
L 533.196 108.000064 
L 534.5352 112.247609 
L 535.2048 106.987239 
L 535.8744 106.422357 
L 539.2224 117.148978 
L 539.892 111.809846 
L 540.5616 111.167467 
L 541.2312 113.17576 
L 541.9008 107.900474 
L 543.24 91.880434 
L 543.9096 91.396057 
L 544.5792 93.722066 
L 545.2488 88.759391 
L 545.9184 88.487422 
L 546.588 83.446612 
L 547.2576 83.260016 
L 553.9536 107.494865 
L 557.3016 118.290112 
L 560.6496 128.24542 
L 563.9976 137.426143 
L 567.3456 145.892547 
L 568.0152 147.505079 
L 568.6848 141.67814 
L 569.3544 140.555793 
L 571.3632 145.412151 
L 574.7112 153.257194 
L 578.0592 160.491843 
L 581.4072 167.16359 
L 584.7552 173.316234 
L 588.1032 178.990163 
L 591.4512 184.222625 
L 594.7992 189.047968 
L 598.1472 193.497869 
L 601.4952 197.601539 
L 604.8432 201.385918 
L 608.1912 204.875849 
L 608.8608 205.540549 
L 609.5304 198.78101 
L 610.2 196.741049 
L 611.5392 198.159466 
L 612.8784 199.692309 
L 613.548 193.026748 
L 614.2176 191.079255 
L 615.5568 192.678174 
L 616.2264 193.538885 
L 616.896 186.972206 
L 617.5656 185.122007 
L 618.9048 186.910848 
L 619.5744 180.450678 
L 620.244 178.705276 
L 621.5832 180.698687 
L 622.9224 182.788193 
L 623.592 176.394271 
L 624.2616 174.714055 
L 625.6008 176.834708 
L 626.2704 170.536457 
L 626.94 168.950372 
L 628.2792 171.254776 
L 628.9488 172.45975 
L 629.6184 166.231802 
L 630.288 164.71489 
L 630.9576 158.449144 
L 631.6272 157.057296 
L 632.2968 158.328162 
L 632.9664 152.327301 
L 633.636 151.033828 
L 634.3056 144.987929 
L 634.9752 128.985278 
L 635.6448 125.102044 
L 636.3144 126.72416 
L 639.6624 136.023247 
L 640.332 137.794373 
L 641.0016 132.12348 
L 641.6712 123.741113 
L 642.3408 122.744751 
L 645.0192 130.338916 
L 648.3672 139.356752 
L 649.0368 133.660751 
L 649.7064 132.66724 
L 651.0456 136.128378 
L 651.7152 130.484256 
L 652.3848 129.541789 
L 653.0544 131.254815 
L 653.724 125.689009 
L 654.3936 124.8236 
L 655.0632 126.612445 
L 655.7328 121.121239 
L 656.4024 112.915673 
L 657.072 112.09327 
L 657.7416 106.673126 
L 658.4112 98.699733 
L 659.0808 98.105773 
L 661.0896 104.975872 
L 661.7592 99.832355 
L 662.4288 99.382449 
L 665.1072 108.442484 
L 665.7768 95.829701 
L 666.4464 92.641514 
L 667.7856 97.219054 
L 668.4552 92.200185 
L 669.1248 91.872924 
L 669.7944 86.777711 
L 670.464 86.537586 
L 672.4728 93.956455 
L 673.1424 88.990014 
L 674.4816 73.572854 
L 675.1512 73.38267 
L 681.8472 99.094763 
L 685.1952 110.543591 
L 687.204 116.980746 
L 687.8736 111.644317 
L 688.5432 111.004599 
L 695.9088 132.940403 
L 699.2568 141.755826 
L 702.6048 149.885354 
L 705.9528 157.382353 
L 709.3008 164.296039 
L 712.6488 170.671796 
L 715.9968 176.551479 
L 719.3448 181.973685 
L 722.6928 186.97401 
L 726.0408 191.585278 
L 729.3888 195.83776 
L 732.7368 199.759372 
L 736.0848 203.375858 
L 739.4328 206.710959 
L 743.4504 210.372356 
L 744.7896 211.515843 
L 745.4592 204.660283 
L 746.1288 195.112287 
L 746.7984 192.969027 
L 748.1376 194.507699 
L 751.4856 198.532798 
L 754.8336 202.244719 
L 757.512 205.005208 
L 758.1816 198.254271 
L 758.8512 196.222775 
L 760.1904 197.657715 
L 760.86 191.024848 
L 761.5296 189.109525 
L 762.1992 189.865329 
L 762.8688 183.357682 
L 763.5384 181.565566 
L 764.208 182.442597 
L 764.8776 176.05423 
L 766.2168 157.861397 
L 766.8864 156.31674 
L 768.2256 159.023913 
L 770.2344 163.161263 
L 770.904 157.082737 
L 772.2432 139.49473 
L 772.9128 138.245215 
L 774.252 141.528523 
L 774.9216 135.797623 
L 775.5912 134.769774 
L 777.6 139.900608 
L 777.6 139.900608 
" clip-path="url(#p238dc178e4)" style="fill: none; stroke: #ff4500; stroke-width: 1.5; stroke-linecap: square"/>
   </g>
   <g id="patch_3">
    <path d="M 108 256.32 
L 108 34.56 
" style="fill: none; stroke: #000000; stroke-width: 0.8; stroke-linejoin: miter; stroke-linecap: square"/>
   </g>
   <g id="patch_4">
    <path d="M 777.6 256.32 
L 777.6 34.56 
" style="fill: none; stroke: #000000; stroke-width: 0.8; stroke-linejoin: miter; stroke-linecap: square"/>
   </g>
   <g id="patch_5">
    <path d="M 108 256.32 
L 777.6 256.32 
" style="fill: none; stroke: #000000; stroke-width: 0.8; stroke-linejoin: miter; stroke-linecap: square"/>
   </g>
   <g id="patch_6">
    <path d="M 108 34.56 
L 777.6 34.56 
" style="fill: none; stroke: #000000; stroke-width: 0.8; stroke-linejoin: miter; stroke-linecap: square"/>
   </g>
  </g>
 </g>
 <defs>
  <clipPath id="p238dc178e4">
   <rect x="108" y="34.56" width="669.6" height="221.76"/>
  </clipPath>
 </defs>
</svg>
