<?xml version="1.0" encoding="utf-8" standalone="no"?>
<!DOCTYPE svg PUBLIC "-//W3C//DTD SVG 1.1//EN"
  "http://www.w3.org/Graphics/SVG/1.1/DTD/svg11.dtd">
<svg xmlns:xlink="http://www.w3.org/1999/xlink" width="864pt" height="288pt" viewBox="0 0 864 288" xmlns="http://www.w3.org/2000/svg" version="1.1">
 <metadata>
  <rdf:RDF xmlns:dc="http://purl.org/dc/elements/1.1/" xmlns:cc="http://creativecommons.org/ns#" xmlns:rdf="http://www.w3.org/1999/02/22-rdf-syntax-ns#">
   <cc:Work>
    <dc:type rdf:resource="http://purl.org/dc/dcmitype/StillImage"/>
    <dc:date>2024-04-23T19:18:47.587773</dc:date>
    <dc:format>image/svg+xml</dc:format>
    <dc:creator>
     <cc:Agent>
      <dc:title>Matplotlib v3.8.2, https://matplotlib.org/</dc:title>
     </cc:Agent>
    </dc:creator>
   </cc:Work>
  </rdf:RDF>
 </metadata>
 <defs>
  <style type="text/css">*{stroke-linejoin: round; stroke-linecap: butt}</style>
 </defs>
 <g id="figure_1">
  <g id="patch_1">
   <path d="M 0 288 
L 864 288 
L 864 0 
L 0 0 
z
" style="fill: #ffffff"/>
  </g>
  <g id="axes_1">
   <g id="patch_2">
    <path d="M 108 256.32 
L 777.6 256.32 
L 777.6 34.56 
L 108 34.56 
z
" style="fill: #ffffff"/>
   </g>
   <g id="matplotlib.axis_1">
    <g id="xtick_1">
     <g id="line2d_1">
      <path d="M 108 256.32 
L 108 34.56 
" clip-path="url(#paafb120687)" style="fill: none; stroke: #b0b0b0; stroke-width: 0.8; stroke-linecap: square"/>
     </g>
     <g id="line2d_2">
      <defs>
       <path id="mf1d5d53e86" d="M 0 0 
L 0 3.5 
" style="stroke: #000000; stroke-width: 0.8"/>
      </defs>
      <g>
       <use xlink:href="#mf1d5d53e86" x="108" y="256.32" style="stroke: #000000; stroke-width: 0.8"/>
      </g>
     </g>
     <g id="text_1">
      <!-- 100 -->
      <g transform="translate(94.63875 273.957812) scale(0.14 -0.14)">
       <defs>
        <path id="DejaVuSans-31" d="M 794 531 
L 1825 531 
L 1825 4091 
L 703 3866 
L 703 4441 
L 1819 4666 
L 2450 4666 
L 2450 531 
L 3481 531 
L 3481 0 
L 794 0 
L 794 531 
z
" transform="scale(0.015625)"/>
        <path id="DejaVuSans-30" d="M 2034 4250 
Q 1547 4250 1301 3770 
Q 1056 3291 1056 2328 
Q 1056 1369 1301 889 
Q 1547 409 2034 409 
Q 2525 409 2770 889 
Q 3016 1369 3016 2328 
Q 3016 3291 2770 3770 
Q 2525 4250 2034 4250 
z
M 2034 4750 
Q 2819 4750 3233 4129 
Q 3647 3509 3647 2328 
Q 3647 1150 3233 529 
Q 2819 -91 2034 -91 
Q 1250 -91 836 529 
Q 422 1150 422 2328 
Q 422 3509 836 4129 
Q 1250 4750 2034 4750 
z
" transform="scale(0.015625)"/>
       </defs>
       <use xlink:href="#DejaVuSans-31"/>
       <use xlink:href="#DejaVuSans-30" x="63.623047"/>
       <use xlink:href="#DejaVuSans-30" x="127.246094"/>
      </g>
     </g>
    </g>
    <g id="xtick_2">
     <g id="line2d_3">
      <path d="M 241.92 256.32 
L 241.92 34.56 
" clip-path="url(#paafb120687)" style="fill: none; stroke: #b0b0b0; stroke-width: 0.8; stroke-linecap: square"/>
     </g>
     <g id="line2d_4">
      <g>
       <use xlink:href="#mf1d5d53e86" x="241.92" y="256.32" style="stroke: #000000; stroke-width: 0.8"/>
      </g>
     </g>
     <g id="text_2">
      <!-- 120 -->
      <g transform="translate(228.55875 273.957812) scale(0.14 -0.14)">
       <defs>
        <path id="DejaVuSans-32" d="M 1228 531 
L 3431 531 
L 3431 0 
L 469 0 
L 469 531 
Q 828 903 1448 1529 
Q 2069 2156 2228 2338 
Q 2531 2678 2651 2914 
Q 2772 3150 2772 3378 
Q 2772 3750 2511 3984 
Q 2250 4219 1831 4219 
Q 1534 4219 1204 4116 
Q 875 4013 500 3803 
L 500 4441 
Q 881 4594 1212 4672 
Q 1544 4750 1819 4750 
Q 2544 4750 2975 4387 
Q 3406 4025 3406 3419 
Q 3406 3131 3298 2873 
Q 3191 2616 2906 2266 
Q 2828 2175 2409 1742 
Q 1991 1309 1228 531 
z
" transform="scale(0.015625)"/>
       </defs>
       <use xlink:href="#DejaVuSans-31"/>
       <use xlink:href="#DejaVuSans-32" x="63.623047"/>
       <use xlink:href="#DejaVuSans-30" x="127.246094"/>
      </g>
     </g>
    </g>
    <g id="xtick_3">
     <g id="line2d_5">
      <path d="M 375.84 256.32 
L 375.84 34.56 
" clip-path="url(#paafb120687)" style="fill: none; stroke: #b0b0b0; stroke-width: 0.8; stroke-linecap: square"/>
     </g>
     <g id="line2d_6">
      <g>
       <use xlink:href="#mf1d5d53e86" x="375.84" y="256.32" style="stroke: #000000; stroke-width: 0.8"/>
      </g>
     </g>
     <g id="text_3">
      <!-- 140 -->
      <g transform="translate(362.47875 273.957812) scale(0.14 -0.14)">
       <defs>
        <path id="DejaVuSans-34" d="M 2419 4116 
L 825 1625 
L 2419 1625 
L 2419 4116 
z
M 2253 4666 
L 3047 4666 
L 3047 1625 
L 3713 1625 
L 3713 1100 
L 3047 1100 
L 3047 0 
L 2419 0 
L 2419 1100 
L 313 1100 
L 313 1709 
L 2253 4666 
z
" transform="scale(0.015625)"/>
       </defs>
       <use xlink:href="#DejaVuSans-31"/>
       <use xlink:href="#DejaVuSans-34" x="63.623047"/>
       <use xlink:href="#DejaVuSans-30" x="127.246094"/>
      </g>
     </g>
    </g>
    <g id="xtick_4">
     <g id="line2d_7">
      <path d="M 509.76 256.32 
L 509.76 34.56 
" clip-path="url(#paafb120687)" style="fill: none; stroke: #b0b0b0; stroke-width: 0.8; stroke-linecap: square"/>
     </g>
     <g id="line2d_8">
      <g>
       <use xlink:href="#mf1d5d53e86" x="509.76" y="256.32" style="stroke: #000000; stroke-width: 0.8"/>
      </g>
     </g>
     <g id="text_4">
      <!-- 160 -->
      <g transform="translate(496.39875 273.957812) scale(0.14 -0.14)">
       <defs>
        <path id="DejaVuSans-36" d="M 2113 2584 
Q 1688 2584 1439 2293 
Q 1191 2003 1191 1497 
Q 1191 994 1439 701 
Q 1688 409 2113 409 
Q 2538 409 2786 701 
Q 3034 994 3034 1497 
Q 3034 2003 2786 2293 
Q 2538 2584 2113 2584 
z
M 3366 4563 
L 3366 3988 
Q 3128 4100 2886 4159 
Q 2644 4219 2406 4219 
Q 1781 4219 1451 3797 
Q 1122 3375 1075 2522 
Q 1259 2794 1537 2939 
Q 1816 3084 2150 3084 
Q 2853 3084 3261 2657 
Q 3669 2231 3669 1497 
Q 3669 778 3244 343 
Q 2819 -91 2113 -91 
Q 1303 -91 875 529 
Q 447 1150 447 2328 
Q 447 3434 972 4092 
Q 1497 4750 2381 4750 
Q 2619 4750 2861 4703 
Q 3103 4656 3366 4563 
z
" transform="scale(0.015625)"/>
       </defs>
       <use xlink:href="#DejaVuSans-31"/>
       <use xlink:href="#DejaVuSans-36" x="63.623047"/>
       <use xlink:href="#DejaVuSans-30" x="127.246094"/>
      </g>
     </g>
    </g>
    <g id="xtick_5">
     <g id="line2d_9">
      <path d="M 643.68 256.32 
L 643.68 34.56 
" clip-path="url(#paafb120687)" style="fill: none; stroke: #b0b0b0; stroke-width: 0.8; stroke-linecap: square"/>
     </g>
     <g id="line2d_10">
      <g>
       <use xlink:href="#mf1d5d53e86" x="643.68" y="256.32" style="stroke: #000000; stroke-width: 0.8"/>
      </g>
     </g>
     <g id="text_5">
      <!-- 180 -->
      <g transform="translate(630.31875 273.957812) scale(0.14 -0.14)">
       <defs>
        <path id="DejaVuSans-38" d="M 2034 2216 
Q 1584 2216 1326 1975 
Q 1069 1734 1069 1313 
Q 1069 891 1326 650 
Q 1584 409 2034 409 
Q 2484 409 2743 651 
Q 3003 894 3003 1313 
Q 3003 1734 2745 1975 
Q 2488 2216 2034 2216 
z
M 1403 2484 
Q 997 2584 770 2862 
Q 544 3141 544 3541 
Q 544 4100 942 4425 
Q 1341 4750 2034 4750 
Q 2731 4750 3128 4425 
Q 3525 4100 3525 3541 
Q 3525 3141 3298 2862 
Q 3072 2584 2669 2484 
Q 3125 2378 3379 2068 
Q 3634 1759 3634 1313 
Q 3634 634 3220 271 
Q 2806 -91 2034 -91 
Q 1263 -91 848 271 
Q 434 634 434 1313 
Q 434 1759 690 2068 
Q 947 2378 1403 2484 
z
M 1172 3481 
Q 1172 3119 1398 2916 
Q 1625 2713 2034 2713 
Q 2441 2713 2670 2916 
Q 2900 3119 2900 3481 
Q 2900 3844 2670 4047 
Q 2441 4250 2034 4250 
Q 1625 4250 1398 4047 
Q 1172 3844 1172 3481 
z
" transform="scale(0.015625)"/>
       </defs>
       <use xlink:href="#DejaVuSans-31"/>
       <use xlink:href="#DejaVuSans-38" x="63.623047"/>
       <use xlink:href="#DejaVuSans-30" x="127.246094"/>
      </g>
     </g>
    </g>
    <g id="xtick_6">
     <g id="line2d_11">
      <path d="M 777.6 256.32 
L 777.6 34.56 
" clip-path="url(#paafb120687)" style="fill: none; stroke: #b0b0b0; stroke-width: 0.8; stroke-linecap: square"/>
     </g>
     <g id="line2d_12">
      <g>
       <use xlink:href="#mf1d5d53e86" x="777.6" y="256.32" style="stroke: #000000; stroke-width: 0.8"/>
      </g>
     </g>
     <g id="text_6">
      <!-- 200 -->
      <g transform="translate(764.23875 273.957812) scale(0.14 -0.14)">
       <use xlink:href="#DejaVuSans-32"/>
       <use xlink:href="#DejaVuSans-30" x="63.623047"/>
       <use xlink:href="#DejaVuSans-30" x="127.246094"/>
      </g>
     </g>
    </g>
    <g id="text_7">
     <!-- Time (ms) -->
     <g transform="translate(407.521094 291.507187) scale(0.14 -0.14)">
      <defs>
       <path id="DejaVuSans-54" d="M -19 4666 
L 3928 4666 
L 3928 4134 
L 2272 4134 
L 2272 0 
L 1638 0 
L 1638 4134 
L -19 4134 
L -19 4666 
z
" transform="scale(0.015625)"/>
       <path id="DejaVuSans-69" d="M 603 3500 
L 1178 3500 
L 1178 0 
L 603 0 
L 603 3500 
z
M 603 4863 
L 1178 4863 
L 1178 4134 
L 603 4134 
L 603 4863 
z
" transform="scale(0.015625)"/>
       <path id="DejaVuSans-6d" d="M 3328 2828 
Q 3544 3216 3844 3400 
Q 4144 3584 4550 3584 
Q 5097 3584 5394 3201 
Q 5691 2819 5691 2113 
L 5691 0 
L 5113 0 
L 5113 2094 
Q 5113 2597 4934 2840 
Q 4756 3084 4391 3084 
Q 3944 3084 3684 2787 
Q 3425 2491 3425 1978 
L 3425 0 
L 2847 0 
L 2847 2094 
Q 2847 2600 2669 2842 
Q 2491 3084 2119 3084 
Q 1678 3084 1418 2786 
Q 1159 2488 1159 1978 
L 1159 0 
L 581 0 
L 581 3500 
L 1159 3500 
L 1159 2956 
Q 1356 3278 1631 3431 
Q 1906 3584 2284 3584 
Q 2666 3584 2933 3390 
Q 3200 3197 3328 2828 
z
" transform="scale(0.015625)"/>
       <path id="DejaVuSans-65" d="M 3597 1894 
L 3597 1613 
L 953 1613 
Q 991 1019 1311 708 
Q 1631 397 2203 397 
Q 2534 397 2845 478 
Q 3156 559 3463 722 
L 3463 178 
Q 3153 47 2828 -22 
Q 2503 -91 2169 -91 
Q 1331 -91 842 396 
Q 353 884 353 1716 
Q 353 2575 817 3079 
Q 1281 3584 2069 3584 
Q 2775 3584 3186 3129 
Q 3597 2675 3597 1894 
z
M 3022 2063 
Q 3016 2534 2758 2815 
Q 2500 3097 2075 3097 
Q 1594 3097 1305 2825 
Q 1016 2553 972 2059 
L 3022 2063 
z
" transform="scale(0.015625)"/>
       <path id="DejaVuSans-20" transform="scale(0.015625)"/>
       <path id="DejaVuSans-28" d="M 1984 4856 
Q 1566 4138 1362 3434 
Q 1159 2731 1159 2009 
Q 1159 1288 1364 580 
Q 1569 -128 1984 -844 
L 1484 -844 
Q 1016 -109 783 600 
Q 550 1309 550 2009 
Q 550 2706 781 3412 
Q 1013 4119 1484 4856 
L 1984 4856 
z
" transform="scale(0.015625)"/>
       <path id="DejaVuSans-73" d="M 2834 3397 
L 2834 2853 
Q 2591 2978 2328 3040 
Q 2066 3103 1784 3103 
Q 1356 3103 1142 2972 
Q 928 2841 928 2578 
Q 928 2378 1081 2264 
Q 1234 2150 1697 2047 
L 1894 2003 
Q 2506 1872 2764 1633 
Q 3022 1394 3022 966 
Q 3022 478 2636 193 
Q 2250 -91 1575 -91 
Q 1294 -91 989 -36 
Q 684 19 347 128 
L 347 722 
Q 666 556 975 473 
Q 1284 391 1588 391 
Q 1994 391 2212 530 
Q 2431 669 2431 922 
Q 2431 1156 2273 1281 
Q 2116 1406 1581 1522 
L 1381 1569 
Q 847 1681 609 1914 
Q 372 2147 372 2553 
Q 372 3047 722 3315 
Q 1072 3584 1716 3584 
Q 2034 3584 2315 3537 
Q 2597 3491 2834 3397 
z
" transform="scale(0.015625)"/>
       <path id="DejaVuSans-29" d="M 513 4856 
L 1013 4856 
Q 1481 4119 1714 3412 
Q 1947 2706 1947 2009 
Q 1947 1309 1714 600 
Q 1481 -109 1013 -844 
L 513 -844 
Q 928 -128 1133 580 
Q 1338 1288 1338 2009 
Q 1338 2731 1133 3434 
Q 928 4138 513 4856 
z
" transform="scale(0.015625)"/>
      </defs>
      <use xlink:href="#DejaVuSans-54"/>
      <use xlink:href="#DejaVuSans-69" x="57.958984"/>
      <use xlink:href="#DejaVuSans-6d" x="85.742188"/>
      <use xlink:href="#DejaVuSans-65" x="183.154297"/>
      <use xlink:href="#DejaVuSans-20" x="244.677734"/>
      <use xlink:href="#DejaVuSans-28" x="276.464844"/>
      <use xlink:href="#DejaVuSans-6d" x="315.478516"/>
      <use xlink:href="#DejaVuSans-73" x="412.890625"/>
      <use xlink:href="#DejaVuSans-29" x="464.990234"/>
     </g>
    </g>
   </g>
   <g id="matplotlib.axis_2">
    <g id="ytick_1">
     <g id="line2d_13">
      <path d="M 108 224.623777 
L 777.6 224.623777 
" clip-path="url(#paafb120687)" style="fill: none; stroke: #b0b0b0; stroke-width: 0.8; stroke-linecap: square"/>
     </g>
     <g id="line2d_14">
      <defs>
       <path id="mccd5cc6fae" d="M 0 0 
L -3.5 0 
" style="stroke: #000000; stroke-width: 0.8"/>
      </defs>
      <g>
       <use xlink:href="#mccd5cc6fae" x="108" y="224.623777" style="stroke: #000000; stroke-width: 0.8"/>
      </g>
     </g>
     <g id="text_8">
      <!-- −60 -->
      <g transform="translate(71.453437 229.942683) scale(0.14 -0.14)">
       <defs>
        <path id="DejaVuSans-2212" d="M 678 2272 
L 4684 2272 
L 4684 1741 
L 678 1741 
L 678 2272 
z
" transform="scale(0.015625)"/>
       </defs>
       <use xlink:href="#DejaVuSans-2212"/>
       <use xlink:href="#DejaVuSans-36" x="83.789062"/>
       <use xlink:href="#DejaVuSans-30" x="147.412109"/>
      </g>
     </g>
    </g>
    <g id="ytick_2">
     <g id="line2d_15">
      <path d="M 108 181.460218 
L 777.6 181.460218 
" clip-path="url(#paafb120687)" style="fill: none; stroke: #b0b0b0; stroke-width: 0.8; stroke-linecap: square"/>
     </g>
     <g id="line2d_16">
      <g>
       <use xlink:href="#mccd5cc6fae" x="108" y="181.460218" style="stroke: #000000; stroke-width: 0.8"/>
      </g>
     </g>
     <g id="text_9">
      <!-- −40 -->
      <g transform="translate(71.453437 186.779125) scale(0.14 -0.14)">
       <use xlink:href="#DejaVuSans-2212"/>
       <use xlink:href="#DejaVuSans-34" x="83.789062"/>
       <use xlink:href="#DejaVuSans-30" x="147.412109"/>
      </g>
     </g>
    </g>
    <g id="ytick_3">
     <g id="line2d_17">
      <path d="M 108 138.296659 
L 777.6 138.296659 
" clip-path="url(#paafb120687)" style="fill: none; stroke: #b0b0b0; stroke-width: 0.8; stroke-linecap: square"/>
     </g>
     <g id="line2d_18">
      <g>
       <use xlink:href="#mccd5cc6fae" x="108" y="138.296659" style="stroke: #000000; stroke-width: 0.8"/>
      </g>
     </g>
     <g id="text_10">
      <!-- −20 -->
      <g transform="translate(71.453437 143.615566) scale(0.14 -0.14)">
       <use xlink:href="#DejaVuSans-2212"/>
       <use xlink:href="#DejaVuSans-32" x="83.789062"/>
       <use xlink:href="#DejaVuSans-30" x="147.412109"/>
      </g>
     </g>
    </g>
    <g id="ytick_4">
     <g id="line2d_19">
      <path d="M 108 95.133101 
L 777.6 95.133101 
" clip-path="url(#paafb120687)" style="fill: none; stroke: #b0b0b0; stroke-width: 0.8; stroke-linecap: square"/>
     </g>
     <g id="line2d_20">
      <g>
       <use xlink:href="#mccd5cc6fae" x="108" y="95.133101" style="stroke: #000000; stroke-width: 0.8"/>
      </g>
     </g>
     <g id="text_11">
      <!-- 0 -->
      <g transform="translate(92.0925 100.452007) scale(0.14 -0.14)">
       <use xlink:href="#DejaVuSans-30"/>
      </g>
     </g>
    </g>
    <g id="ytick_5">
     <g id="line2d_21">
      <path d="M 108 51.969542 
L 777.6 51.969542 
" clip-path="url(#paafb120687)" style="fill: none; stroke: #b0b0b0; stroke-width: 0.8; stroke-linecap: square"/>
     </g>
     <g id="line2d_22">
      <g>
       <use xlink:href="#mccd5cc6fae" x="108" y="51.969542" style="stroke: #000000; stroke-width: 0.8"/>
      </g>
     </g>
     <g id="text_12">
      <!-- 20 -->
      <g transform="translate(83.185 57.288448) scale(0.14 -0.14)">
       <use xlink:href="#DejaVuSans-32"/>
       <use xlink:href="#DejaVuSans-30" x="63.623047"/>
      </g>
     </g>
    </g>
    <g id="text_13">
     <!-- $V_{m}$ (mV) -->
     <g transform="translate(64.541875 174.49) rotate(-90) scale(0.14 -0.14)">
      <defs>
       <path id="DejaVuSans-Oblique-56" d="M 1319 0 
L 500 4666 
L 1119 4666 
L 1797 653 
L 4063 4666 
L 4750 4666 
L 2053 0 
L 1319 0 
z
" transform="scale(0.015625)"/>
       <path id="DejaVuSans-Oblique-6d" d="M 5747 2113 
L 5338 0 
L 4763 0 
L 5166 2094 
Q 5191 2228 5203 2325 
Q 5216 2422 5216 2491 
Q 5216 2772 5059 2928 
Q 4903 3084 4622 3084 
Q 4203 3084 3875 2770 
Q 3547 2456 3450 1953 
L 3066 0 
L 2491 0 
L 2900 2094 
Q 2925 2209 2937 2307 
Q 2950 2406 2950 2484 
Q 2950 2769 2794 2926 
Q 2638 3084 2363 3084 
Q 1938 3084 1609 2770 
Q 1281 2456 1184 1953 
L 800 0 
L 225 0 
L 909 3500 
L 1484 3500 
L 1375 2956 
Q 1609 3263 1923 3423 
Q 2238 3584 2597 3584 
Q 2978 3584 3223 3384 
Q 3469 3184 3519 2828 
Q 3781 3197 4126 3390 
Q 4472 3584 4856 3584 
Q 5306 3584 5551 3325 
Q 5797 3066 5797 2591 
Q 5797 2488 5784 2364 
Q 5772 2241 5747 2113 
z
" transform="scale(0.015625)"/>
       <path id="DejaVuSans-56" d="M 1831 0 
L 50 4666 
L 709 4666 
L 2188 738 
L 3669 4666 
L 4325 4666 
L 2547 0 
L 1831 0 
z
" transform="scale(0.015625)"/>
      </defs>
      <use xlink:href="#DejaVuSans-Oblique-56" transform="translate(0 0.125)"/>
      <use xlink:href="#DejaVuSans-Oblique-6d" transform="translate(68.408203 -16.28125) scale(0.7)"/>
      <use xlink:href="#DejaVuSans-20" transform="translate(139.331055 0.125)"/>
      <use xlink:href="#DejaVuSans-28" transform="translate(171.118164 0.125)"/>
      <use xlink:href="#DejaVuSans-6d" transform="translate(210.131836 0.125)"/>
      <use xlink:href="#DejaVuSans-56" transform="translate(307.543945 0.125)"/>
      <use xlink:href="#DejaVuSans-29" transform="translate(375.952148 0.125)"/>
     </g>
    </g>
   </g>
   <g id="line2d_23">
    <path d="M 108 225.753736 
L 109.3392 226.496396 
L 110.6784 226.984784 
L 111.348 227.15645 
L 112.6872 227.980789 
L 114.0264 228.330672 
L 116.7048 229.9132 
L 118.044 230.232875 
L 119.3832 230.341531 
L 120.7224 231.474855 
L 124.0704 232.692844 
L 125.4096 232.81285 
L 126.7488 233.350128 
L 127.4184 234.03698 
L 128.088 234.547059 
L 132.7752 236.369113 
L 134.1144 236.566564 
L 136.1232 236.567633 
L 138.8016 236.297492 
L 140.1408 236.587345 
L 141.48 236.54363 
L 142.8192 236.871334 
L 144.1584 236.84421 
L 144.828 236.771451 
L 146.1672 237.065486 
L 147.5064 237.013887 
L 148.176 236.930219 
L 149.5152 237.203222 
L 150.8544 237.133182 
L 152.8632 236.796212 
L 156.2112 235.959644 
L 160.2288 234.6656 
L 164.2464 233.135398 
L 168.9336 231.111625 
L 174.2904 228.542198 
L 180.3168 225.388808 
L 187.0128 221.63453 
L 196.3872 216.092893 
L 205.7616 210.432903 
L 207.1008 210.559604 
L 208.44 210.231646 
L 209.1096 209.992927 
L 210.4488 210.383648 
L 211.788 210.26596 
L 213.7968 209.747397 
L 215.8056 209.074211 
L 217.1448 209.516881 
L 218.484 209.468623 
L 219.1536 209.358634 
L 220.4928 209.985167 
L 221.832 210.078468 
L 222.5016 210.030596 
L 224.5104 211.361621 
L 225.18 211.813439 
L 225.8496 212.050754 
L 227.8584 213.811961 
L 228.528 214.789527 
L 229.1976 215.474479 
L 229.8672 215.893654 
L 231.2064 216.385118 
L 232.5456 216.646063 
L 233.8848 216.772417 
L 235.224 217.590833 
L 235.8936 217.789704 
L 236.5632 218.297401 
L 237.2328 218.662519 
L 238.572 218.918303 
L 239.2416 219.763729 
L 239.9112 220.82859 
L 240.5808 221.515679 
L 241.2504 221.924478 
L 242.5896 222.395421 
L 243.2592 222.538367 
L 244.5984 223.400134 
L 245.9376 223.76137 
L 246.6072 224.221703 
L 247.2768 224.943327 
L 247.9464 225.441136 
L 248.616 226.084112 
L 249.2856 226.560841 
L 250.6248 227.049857 
L 251.964 227.286623 
L 253.3032 228.011433 
L 254.6424 228.287523 
L 256.6512 228.37689 
L 257.3208 229.02702 
L 257.9904 229.859512 
L 258.66 230.378178 
L 259.3296 230.667636 
L 259.9992 231.161236 
L 262.008 233.116042 
L 263.3472 233.636166 
L 264.6864 233.887148 
L 268.704 236.049933 
L 270.0432 236.341909 
L 270.7128 236.406875 
L 272.052 236.939998 
L 273.3912 237.096701 
L 275.4 237.060274 
L 278.0784 236.75663 
L 281.4264 236.100323 
L 284.7744 235.209654 
L 288.792 233.893277 
L 290.1312 233.402918 
L 291.4704 233.457233 
L 292.8096 233.180396 
L 295.488 232.324588 
L 299.5056 230.758839 
L 304.1928 228.671244 
L 309.5496 226.03095 
L 315.576 222.811196 
L 322.9416 218.616536 
L 333.6552 212.226535 
L 343.0296 206.433014 
L 344.3688 206.57444 
L 345.708 206.286988 
L 347.7168 205.506941 
L 349.056 204.880632 
L 350.3952 205.24686 
L 351.7344 205.180386 
L 353.7432 204.691814 
L 354.4128 204.474647 
L 355.752 205.028224 
L 357.0912 205.132571 
L 358.4304 204.99167 
L 359.1 204.869403 
L 360.4392 205.580104 
L 361.7784 205.81073 
L 363.1176 205.783174 
L 364.4568 206.619643 
L 365.1264 206.829986 
L 365.796 207.445566 
L 366.4656 208.438714 
L 367.1352 209.163983 
L 367.8048 209.61105 
L 369.144 210.108276 
L 370.4832 210.31897 
L 371.8224 210.303301 
L 372.492 210.2463 
L 373.8312 210.973415 
L 375.1704 211.189295 
L 377.1792 211.145505 
L 377.8488 211.081387 
L 379.188 211.785859 
L 379.8576 212.388138 
L 380.5272 212.835164 
L 381.1968 213.527736 
L 381.8664 214.045063 
L 382.536 214.786177 
L 383.8752 216.888064 
L 385.2144 220.013619 
L 385.884 221.041513 
L 386.5536 221.720767 
L 387.2232 222.221958 
L 387.8928 222.984745 
L 388.5624 223.962475 
L 389.232 224.679513 
L 390.5712 225.531213 
L 391.2408 225.822908 
L 392.58 226.881038 
L 393.2496 227.865491 
L 393.9192 228.634053 
L 394.5888 229.111232 
L 396.5976 230.235251 
L 397.2672 230.656381 
L 397.9368 230.930028 
L 399.276 231.834042 
L 399.9456 232.086066 
L 401.2848 232.935914 
L 401.9544 233.166033 
L 403.2936 233.9646 
L 405.3024 234.695537 
L 405.972 234.990016 
L 407.3112 235.257277 
L 409.32 235.360618 
L 410.6592 235.320492 
L 411.9984 235.730433 
L 412.668 235.787318 
L 414.0072 236.266294 
L 415.3464 236.356272 
L 417.3552 236.224961 
L 418.6944 236.045343 
L 420.0336 236.324842 
L 421.3728 236.268208 
L 424.0512 235.821787 
L 427.3992 234.981417 
L 431.4168 233.697192 
L 435.4344 232.179496 
L 440.1216 230.16976 
L 445.4784 227.614745 
L 451.5048 224.476329 
L 458.2008 220.73858 
L 466.9056 215.617815 
L 468.2448 215.665031 
L 468.9144 215.956533 
L 469.584 216.117278 
L 470.9232 215.979791 
L 472.932 215.414203 
L 474.2712 214.941238 
L 475.6104 215.27125 
L 476.9496 215.132912 
L 478.9584 214.620339 
L 480.2976 214.194295 
L 481.6368 215.417365 
L 482.3064 215.641711 
L 483.6456 215.729318 
L 485.6544 215.516823 
L 488.3328 214.9516 
L 489.672 215.432404 
L 491.0112 215.439545 
L 493.02 215.136486 
L 495.6984 214.503859 
L 497.0376 214.972408 
L 498.3768 214.970527 
L 499.0464 215.339526 
L 499.716 216.055179 
L 500.3856 216.530014 
L 501.0552 217.199434 
L 501.7248 217.686505 
L 502.3944 217.961598 
L 503.064 218.546596 
L 503.7336 219.407416 
L 504.4032 219.98014 
L 505.0728 220.286977 
L 506.412 220.561995 
L 508.4208 220.63592 
L 509.0904 220.612249 
L 510.4296 221.243922 
L 511.0992 222.141396 
L 511.7688 222.827769 
L 512.4384 223.200737 
L 513.7776 223.57661 
L 514.4472 223.672186 
L 515.1168 224.100267 
L 515.7864 224.797189 
L 516.456 225.272732 
L 517.7952 225.711384 
L 518.4648 225.820742 
L 519.804 226.5696 
L 520.4736 227.433836 
L 521.1432 228.093396 
L 521.8128 228.464386 
L 523.152 229.458893 
L 524.4912 229.89524 
L 525.8304 230.098328 
L 528.5088 231.561955 
L 529.848 231.858845 
L 531.8568 231.958694 
L 534.5352 231.781961 
L 535.8744 231.60167 
L 536.544 231.808086 
L 537.2136 232.258503 
L 537.8832 232.531311 
L 538.5528 232.941606 
L 539.2224 233.217902 
L 541.2312 233.692899 
L 541.9008 233.90964 
L 543.24 234.018359 
L 544.5792 234.493576 
L 545.9184 234.573951 
L 546.588 234.546387 
L 547.9272 234.948624 
L 549.2664 234.978107 
L 551.2752 234.763516 
L 553.9536 234.248613 
L 554.6232 234.09046 
L 555.9624 234.292821 
L 557.3016 234.154718 
L 559.98 233.551103 
L 563.328 232.53481 
L 567.3456 231.066182 
L 572.0328 229.091351 
L 577.3896 226.561903 
L 583.416 223.443192 
L 590.112 219.723323 
L 598.8168 214.626201 
L 606.852 209.760385 
L 607.5216 209.848602 
L 608.1912 210.376403 
L 608.8608 210.68608 
L 609.5304 210.760256 
L 610.8696 210.616726 
L 612.8784 210.103795 
L 614.2176 209.665369 
L 615.5568 210.112582 
L 616.2264 210.133474 
L 617.5656 210.877602 
L 618.9048 211.036734 
L 620.9136 210.857192 
L 622.2528 210.611679 
L 623.592 211.210199 
L 624.2616 211.774949 
L 624.9312 212.19097 
L 625.6008 213.316793 
L 628.2792 216.676857 
L 628.9488 217.328356 
L 630.288 218.04983 
L 631.6272 219.935945 
L 632.2968 220.45227 
L 633.636 221.087237 
L 634.9752 221.474066 
L 636.984 221.801447 
L 638.3232 221.872381 
L 639.6624 221.761863 
L 641.6712 222.747117 
L 642.3408 223.454236 
L 643.0104 223.925651 
L 644.3496 224.339489 
L 645.0192 224.435386 
L 646.3584 225.180882 
L 647.6976 225.446998 
L 649.0368 225.511928 
L 649.7064 225.86098 
L 651.7152 227.729649 
L 653.724 228.632918 
L 654.3936 228.97615 
L 655.0632 229.167789 
L 656.4024 229.94449 
L 657.072 230.129587 
L 657.7416 230.558635 
L 658.4112 231.195983 
L 660.42 232.577608 
L 661.7592 233.504062 
L 663.0984 233.89014 
L 664.4376 234.056805 
L 665.7768 234.630841 
L 667.116 234.813944 
L 668.4552 235.350569 
L 669.7944 235.496972 
L 671.1336 235.481662 
L 672.4728 235.892884 
L 673.812 235.94451 
L 675.8208 235.771132 
L 676.4904 235.676639 
L 677.8296 235.964614 
L 679.1688 235.911694 
L 679.8384 235.828321 
L 681.1776 236.119195 
L 682.5168 236.060054 
L 684.5256 235.734825 
L 687.204 235.097989 
L 690.552 234.087547 
L 694.5696 232.637778 
L 699.2568 230.686492 
L 704.6136 228.180356 
L 710.64 225.079975 
L 717.336 221.367057 
L 726.0408 216.253309 
L 726.7104 215.851001 
L 728.0496 215.891444 
L 729.3888 215.500727 
L 732.0672 214.343477 
L 735.4152 212.693718 
L 736.7544 212.894368 
L 738.0936 212.638798 
L 740.1024 211.962757 
L 743.4504 210.579539 
L 748.1376 208.377467 
L 750.816 206.999225 
L 751.4856 207.161803 
L 752.1552 207.790664 
L 752.8248 208.213168 
L 753.4944 208.395529 
L 754.8336 208.440181 
L 756.8424 208.154241 
L 759.5208 207.466828 
L 760.1904 207.260523 
L 761.5296 207.79462 
L 762.8688 207.855313 
L 764.208 207.696593 
L 765.5472 208.394965 
L 766.8864 208.582381 
L 768.2256 208.53114 
L 769.5648 209.304174 
L 770.904 209.550037 
L 772.2432 209.530278 
L 773.5824 209.313126 
L 774.9216 209.923462 
L 775.5912 210.020016 
L 776.9304 211.780568 
L 777.6 212.216948 
L 777.6 212.216948 
" clip-path="url(#paafb120687)" style="fill: none; stroke: #000000; stroke-width: 1.5; stroke-linecap: square"/>
   </g>
   <g id="line2d_24">
    <path d="M 108 133.034025 
L 109.3392 133.705642 
L 110.6784 134.059654 
L 112.0176 134.170983 
L 114.0264 134.096425 
L 122.7312 133.347646 
L 127.4184 133.337552 
L 131.436 133.721157 
L 138.8016 134.459698 
L 142.8192 134.884728 
L 150.1848 135.979809 
L 155.5416 136.784342 
L 163.5768 137.717444 
L 175.6296 138.893203 
L 188.352 139.922066 
L 201.744 140.77537 
L 207.1008 141.128741 
L 209.7792 141.622962 
L 212.4576 142.404496 
L 219.1536 144.596709 
L 221.1624 145.535522 
L 223.8408 147.024854 
L 225.8496 148.4937 
L 227.8584 150.332381 
L 229.1976 151.865498 
L 231.876 155.473289 
L 235.224 160.405173 
L 235.8936 161.499831 
L 236.5632 141.827833 
L 237.2328 138.190912 
L 237.9024 136.252851 
L 238.572 135.24466 
L 239.2416 134.711839 
L 239.9112 134.452877 
L 241.2504 134.317097 
L 243.2592 134.227098 
L 245.9376 133.824107 
L 248.616 133.348197 
L 255.9816 132.487369 
L 257.9904 132.368444 
L 260.6688 132.535109 
L 268.704 133.659323 
L 274.7304 134.610563 
L 280.0872 135.224731 
L 312.8976 138.35357 
L 325.62 139.200354 
L 339.012 139.862897 
L 345.0384 140.199853 
L 350.3952 141.145499 
L 354.4128 142.277919 
L 356.4216 142.959797 
L 360.4392 144.672748 
L 363.7872 146.517458 
L 365.796 147.879679 
L 367.1352 149.059421 
L 369.8136 151.938743 
L 370.4832 136.896924 
L 371.1528 134.201631 
L 371.8224 132.785311 
L 372.492 132.069249 
L 373.1616 131.69943 
L 374.5008 131.413508 
L 377.1792 131.098861 
L 381.8664 130.229343 
L 383.8752 130.106389 
L 385.2144 130.226154 
L 391.2408 131.135577 
L 394.5888 131.602836 
L 411.9984 134.533503 
L 421.3728 136.155937 
L 426.7296 137.002903 
L 435.4344 138.104297 
L 446.8176 139.319193 
L 458.8704 140.391127 
L 468.9144 141.24958 
L 471.5928 141.982699 
L 477.6192 143.834873 
L 481.6368 145.313025 
L 484.3152 146.814342 
L 491.6808 151.207196 
L 497.0376 155.019145 
L 499.0464 156.777563 
L 500.3856 158.228764 
L 501.7248 160.011897 
L 503.064 162.085974 
L 503.7336 163.249887 
L 504.4032 142.77828 
L 505.0728 138.936903 
L 505.7424 136.896311 
L 506.412 135.82892 
L 507.0816 135.236729 
L 508.4208 134.663951 
L 510.4296 134.222968 
L 521.1432 132.511888 
L 524.4912 132.504514 
L 529.1784 132.59954 
L 534.5352 132.812139 
L 537.8832 132.966644 
L 541.9008 133.547115 
L 559.98 136.324497 
L 566.676 137.146283 
L 577.3896 138.211072 
L 589.4424 139.17782 
L 601.4952 139.926503 
L 608.1912 140.328345 
L 610.2 140.852468 
L 617.5656 143.264849 
L 623.592 146.260923 
L 624.9312 147.093122 
L 626.2704 148.191502 
L 627.6096 149.604056 
L 629.6184 152.188278 
L 631.6272 155.191599 
L 633.636 158.766849 
L 636.3144 164.063799 
L 637.6536 166.884623 
L 638.3232 144.785013 
L 638.9928 140.367487 
L 639.6624 138.021337 
L 640.332 136.764499 
L 641.0016 136.050917 
L 641.6712 135.635291 
L 643.0104 135.254172 
L 647.028 134.548351 
L 652.3848 133.315183 
L 655.7328 132.940069 
L 658.4112 132.818425 
L 661.0896 132.941191 
L 679.1688 134.619176 
L 695.2392 136.391817 
L 707.9616 137.36883 
L 721.3536 138.177648 
L 728.7192 138.636269 
L 738.7632 140.148725 
L 743.4504 141.075686 
L 748.8072 141.906609 
L 752.1552 142.418514 
L 753.4944 142.875246 
L 762.8688 146.857622 
L 765.5472 148.317943 
L 768.2256 150.117887 
L 770.2344 151.672224 
L 771.5736 152.833082 
L 772.2432 137.243007 
L 772.9128 134.413919 
L 773.5824 132.887949 
L 774.252 132.096741 
L 774.9216 131.672436 
L 776.2608 131.317325 
L 777.6 131.258223 
L 777.6 131.258223 
" clip-path="url(#paafb120687)" style="fill: none; stroke: #4169e1; stroke-width: 1.5; stroke-linecap: square"/>
   </g>
   <g id="patch_3">
    <path d="M 108 256.32 
L 108 34.56 
" style="fill: none; stroke: #000000; stroke-width: 0.8; stroke-linejoin: miter; stroke-linecap: square"/>
   </g>
   <g id="patch_4">
    <path d="M 777.6 256.32 
L 777.6 34.56 
" style="fill: none; stroke: #000000; stroke-width: 0.8; stroke-linejoin: miter; stroke-linecap: square"/>
   </g>
   <g id="patch_5">
    <path d="M 108 256.32 
L 777.6 256.32 
" style="fill: none; stroke: #000000; stroke-width: 0.8; stroke-linejoin: miter; stroke-linecap: square"/>
   </g>
   <g id="patch_6">
    <path d="M 108 34.56 
L 777.6 34.56 
" style="fill: none; stroke: #000000; stroke-width: 0.8; stroke-linejoin: miter; stroke-linecap: square"/>
   </g>
   <g id="legend_1">
    <g id="patch_7">
     <path d="M 695.098438 71.91625 
L 770.6 71.91625 
Q 772.6 71.91625 772.6 69.91625 
L 772.6 41.56 
Q 772.6 39.56 770.6 39.56 
L 695.098438 39.56 
Q 693.098438 39.56 693.098438 41.56 
L 693.098438 69.91625 
Q 693.098438 71.91625 695.098438 71.91625 
z
" style="fill: #ffffff; opacity: 0.8; stroke: #cccccc; stroke-linejoin: miter"/>
    </g>
    <g id="line2d_25">
     <path d="M 697.098438 47.658437 
L 707.098438 47.658437 
L 717.098438 47.658437 
" style="fill: none; stroke: #000000; stroke-width: 1.5; stroke-linecap: square"/>
    </g>
    <g id="text_14">
     <!-- Soma -->
     <g transform="translate(725.098438 51.158437) scale(0.1 -0.1)">
      <defs>
       <path id="DejaVuSans-53" d="M 3425 4513 
L 3425 3897 
Q 3066 4069 2747 4153 
Q 2428 4238 2131 4238 
Q 1616 4238 1336 4038 
Q 1056 3838 1056 3469 
Q 1056 3159 1242 3001 
Q 1428 2844 1947 2747 
L 2328 2669 
Q 3034 2534 3370 2195 
Q 3706 1856 3706 1288 
Q 3706 609 3251 259 
Q 2797 -91 1919 -91 
Q 1588 -91 1214 -16 
Q 841 59 441 206 
L 441 856 
Q 825 641 1194 531 
Q 1563 422 1919 422 
Q 2459 422 2753 634 
Q 3047 847 3047 1241 
Q 3047 1584 2836 1778 
Q 2625 1972 2144 2069 
L 1759 2144 
Q 1053 2284 737 2584 
Q 422 2884 422 3419 
Q 422 4038 858 4394 
Q 1294 4750 2059 4750 
Q 2388 4750 2728 4690 
Q 3069 4631 3425 4513 
z
" transform="scale(0.015625)"/>
       <path id="DejaVuSans-6f" d="M 1959 3097 
Q 1497 3097 1228 2736 
Q 959 2375 959 1747 
Q 959 1119 1226 758 
Q 1494 397 1959 397 
Q 2419 397 2687 759 
Q 2956 1122 2956 1747 
Q 2956 2369 2687 2733 
Q 2419 3097 1959 3097 
z
M 1959 3584 
Q 2709 3584 3137 3096 
Q 3566 2609 3566 1747 
Q 3566 888 3137 398 
Q 2709 -91 1959 -91 
Q 1206 -91 779 398 
Q 353 888 353 1747 
Q 353 2609 779 3096 
Q 1206 3584 1959 3584 
z
" transform="scale(0.015625)"/>
       <path id="DejaVuSans-61" d="M 2194 1759 
Q 1497 1759 1228 1600 
Q 959 1441 959 1056 
Q 959 750 1161 570 
Q 1363 391 1709 391 
Q 2188 391 2477 730 
Q 2766 1069 2766 1631 
L 2766 1759 
L 2194 1759 
z
M 3341 1997 
L 3341 0 
L 2766 0 
L 2766 531 
Q 2569 213 2275 61 
Q 1981 -91 1556 -91 
Q 1019 -91 701 211 
Q 384 513 384 1019 
Q 384 1609 779 1909 
Q 1175 2209 1959 2209 
L 2766 2209 
L 2766 2266 
Q 2766 2663 2505 2880 
Q 2244 3097 1772 3097 
Q 1472 3097 1187 3025 
Q 903 2953 641 2809 
L 641 3341 
Q 956 3463 1253 3523 
Q 1550 3584 1831 3584 
Q 2591 3584 2966 3190 
Q 3341 2797 3341 1997 
z
" transform="scale(0.015625)"/>
      </defs>
      <use xlink:href="#DejaVuSans-53"/>
      <use xlink:href="#DejaVuSans-6f" x="63.476562"/>
      <use xlink:href="#DejaVuSans-6d" x="124.658203"/>
      <use xlink:href="#DejaVuSans-61" x="222.070312"/>
     </g>
    </g>
    <g id="line2d_26">
     <path d="M 697.098438 62.336562 
L 707.098438 62.336562 
L 717.098438 62.336562 
" style="fill: none; stroke: #4169e1; stroke-width: 1.5; stroke-linecap: square"/>
    </g>
    <g id="text_15">
     <!-- Dendrite -->
     <g transform="translate(725.098438 65.836562) scale(0.1 -0.1)">
      <defs>
       <path id="DejaVuSans-44" d="M 1259 4147 
L 1259 519 
L 2022 519 
Q 2988 519 3436 956 
Q 3884 1394 3884 2338 
Q 3884 3275 3436 3711 
Q 2988 4147 2022 4147 
L 1259 4147 
z
M 628 4666 
L 1925 4666 
Q 3281 4666 3915 4102 
Q 4550 3538 4550 2338 
Q 4550 1131 3912 565 
Q 3275 0 1925 0 
L 628 0 
L 628 4666 
z
" transform="scale(0.015625)"/>
       <path id="DejaVuSans-6e" d="M 3513 2113 
L 3513 0 
L 2938 0 
L 2938 2094 
Q 2938 2591 2744 2837 
Q 2550 3084 2163 3084 
Q 1697 3084 1428 2787 
Q 1159 2491 1159 1978 
L 1159 0 
L 581 0 
L 581 3500 
L 1159 3500 
L 1159 2956 
Q 1366 3272 1645 3428 
Q 1925 3584 2291 3584 
Q 2894 3584 3203 3211 
Q 3513 2838 3513 2113 
z
" transform="scale(0.015625)"/>
       <path id="DejaVuSans-64" d="M 2906 2969 
L 2906 4863 
L 3481 4863 
L 3481 0 
L 2906 0 
L 2906 525 
Q 2725 213 2448 61 
Q 2172 -91 1784 -91 
Q 1150 -91 751 415 
Q 353 922 353 1747 
Q 353 2572 751 3078 
Q 1150 3584 1784 3584 
Q 2172 3584 2448 3432 
Q 2725 3281 2906 2969 
z
M 947 1747 
Q 947 1113 1208 752 
Q 1469 391 1925 391 
Q 2381 391 2643 752 
Q 2906 1113 2906 1747 
Q 2906 2381 2643 2742 
Q 2381 3103 1925 3103 
Q 1469 3103 1208 2742 
Q 947 2381 947 1747 
z
" transform="scale(0.015625)"/>
       <path id="DejaVuSans-72" d="M 2631 2963 
Q 2534 3019 2420 3045 
Q 2306 3072 2169 3072 
Q 1681 3072 1420 2755 
Q 1159 2438 1159 1844 
L 1159 0 
L 581 0 
L 581 3500 
L 1159 3500 
L 1159 2956 
Q 1341 3275 1631 3429 
Q 1922 3584 2338 3584 
Q 2397 3584 2469 3576 
Q 2541 3569 2628 3553 
L 2631 2963 
z
" transform="scale(0.015625)"/>
       <path id="DejaVuSans-74" d="M 1172 4494 
L 1172 3500 
L 2356 3500 
L 2356 3053 
L 1172 3053 
L 1172 1153 
Q 1172 725 1289 603 
Q 1406 481 1766 481 
L 2356 481 
L 2356 0 
L 1766 0 
Q 1100 0 847 248 
Q 594 497 594 1153 
L 594 3053 
L 172 3053 
L 172 3500 
L 594 3500 
L 594 4494 
L 1172 4494 
z
" transform="scale(0.015625)"/>
      </defs>
      <use xlink:href="#DejaVuSans-44"/>
      <use xlink:href="#DejaVuSans-65" x="77.001953"/>
      <use xlink:href="#DejaVuSans-6e" x="138.525391"/>
      <use xlink:href="#DejaVuSans-64" x="201.904297"/>
      <use xlink:href="#DejaVuSans-72" x="265.380859"/>
      <use xlink:href="#DejaVuSans-69" x="306.494141"/>
      <use xlink:href="#DejaVuSans-74" x="334.277344"/>
      <use xlink:href="#DejaVuSans-65" x="373.486328"/>
     </g>
    </g>
   </g>
  </g>
 </g>
 <defs>
  <clipPath id="paafb120687">
   <rect x="108" y="34.56" width="669.6" height="221.76"/>
  </clipPath>
 </defs>
</svg>
