<?xml version="1.0" encoding="utf-8" standalone="no"?>
<!DOCTYPE svg PUBLIC "-//W3C//DTD SVG 1.1//EN"
  "http://www.w3.org/Graphics/SVG/1.1/DTD/svg11.dtd">
<svg xmlns:xlink="http://www.w3.org/1999/xlink" width="864pt" height="288pt" viewBox="0 0 864 288" xmlns="http://www.w3.org/2000/svg" version="1.1">
 <metadata>
  <rdf:RDF xmlns:dc="http://purl.org/dc/elements/1.1/" xmlns:cc="http://creativecommons.org/ns#" xmlns:rdf="http://www.w3.org/1999/02/22-rdf-syntax-ns#">
   <cc:Work>
    <dc:type rdf:resource="http://purl.org/dc/dcmitype/StillImage"/>
    <dc:date>2024-04-26T13:29:25.426323</dc:date>
    <dc:format>image/svg+xml</dc:format>
    <dc:creator>
     <cc:Agent>
      <dc:title>Matplotlib v3.8.2, https://matplotlib.org/</dc:title>
     </cc:Agent>
    </dc:creator>
   </cc:Work>
  </rdf:RDF>
 </metadata>
 <defs>
  <style type="text/css">*{stroke-linejoin: round; stroke-linecap: butt}</style>
 </defs>
 <g id="figure_1">
  <g id="patch_1">
   <path d="M 0 288 
L 864 288 
L 864 0 
L 0 0 
z
" style="fill: #ffffff"/>
  </g>
  <g id="axes_1">
   <g id="patch_2">
    <path d="M 108 256.32 
L 777.6 256.32 
L 777.6 34.56 
L 108 34.56 
z
" style="fill: #ffffff"/>
   </g>
   <g id="matplotlib.axis_1">
    <g id="xtick_1">
     <g id="line2d_1">
      <path d="M 108 256.32 
L 108 34.56 
" clip-path="url(#pc1a3ff5276)" style="fill: none; stroke: #b0b0b0; stroke-width: 0.8; stroke-linecap: square"/>
     </g>
     <g id="line2d_2">
      <defs>
       <path id="m0b91bf1555" d="M 0 0 
L 0 3.5 
" style="stroke: #000000; stroke-width: 0.8"/>
      </defs>
      <g>
       <use xlink:href="#m0b91bf1555" x="108" y="256.32" style="stroke: #000000; stroke-width: 0.8"/>
      </g>
     </g>
     <g id="text_1">
      <!-- 100 -->
      <g transform="translate(94.63875 273.957812) scale(0.14 -0.14)">
       <defs>
        <path id="DejaVuSans-31" d="M 794 531 
L 1825 531 
L 1825 4091 
L 703 3866 
L 703 4441 
L 1819 4666 
L 2450 4666 
L 2450 531 
L 3481 531 
L 3481 0 
L 794 0 
L 794 531 
z
" transform="scale(0.015625)"/>
        <path id="DejaVuSans-30" d="M 2034 4250 
Q 1547 4250 1301 3770 
Q 1056 3291 1056 2328 
Q 1056 1369 1301 889 
Q 1547 409 2034 409 
Q 2525 409 2770 889 
Q 3016 1369 3016 2328 
Q 3016 3291 2770 3770 
Q 2525 4250 2034 4250 
z
M 2034 4750 
Q 2819 4750 3233 4129 
Q 3647 3509 3647 2328 
Q 3647 1150 3233 529 
Q 2819 -91 2034 -91 
Q 1250 -91 836 529 
Q 422 1150 422 2328 
Q 422 3509 836 4129 
Q 1250 4750 2034 4750 
z
" transform="scale(0.015625)"/>
       </defs>
       <use xlink:href="#DejaVuSans-31"/>
       <use xlink:href="#DejaVuSans-30" x="63.623047"/>
       <use xlink:href="#DejaVuSans-30" x="127.246094"/>
      </g>
     </g>
    </g>
    <g id="xtick_2">
     <g id="line2d_3">
      <path d="M 241.92 256.32 
L 241.92 34.56 
" clip-path="url(#pc1a3ff5276)" style="fill: none; stroke: #b0b0b0; stroke-width: 0.8; stroke-linecap: square"/>
     </g>
     <g id="line2d_4">
      <g>
       <use xlink:href="#m0b91bf1555" x="241.92" y="256.32" style="stroke: #000000; stroke-width: 0.8"/>
      </g>
     </g>
     <g id="text_2">
      <!-- 120 -->
      <g transform="translate(228.55875 273.957812) scale(0.14 -0.14)">
       <defs>
        <path id="DejaVuSans-32" d="M 1228 531 
L 3431 531 
L 3431 0 
L 469 0 
L 469 531 
Q 828 903 1448 1529 
Q 2069 2156 2228 2338 
Q 2531 2678 2651 2914 
Q 2772 3150 2772 3378 
Q 2772 3750 2511 3984 
Q 2250 4219 1831 4219 
Q 1534 4219 1204 4116 
Q 875 4013 500 3803 
L 500 4441 
Q 881 4594 1212 4672 
Q 1544 4750 1819 4750 
Q 2544 4750 2975 4387 
Q 3406 4025 3406 3419 
Q 3406 3131 3298 2873 
Q 3191 2616 2906 2266 
Q 2828 2175 2409 1742 
Q 1991 1309 1228 531 
z
" transform="scale(0.015625)"/>
       </defs>
       <use xlink:href="#DejaVuSans-31"/>
       <use xlink:href="#DejaVuSans-32" x="63.623047"/>
       <use xlink:href="#DejaVuSans-30" x="127.246094"/>
      </g>
     </g>
    </g>
    <g id="xtick_3">
     <g id="line2d_5">
      <path d="M 375.84 256.32 
L 375.84 34.56 
" clip-path="url(#pc1a3ff5276)" style="fill: none; stroke: #b0b0b0; stroke-width: 0.8; stroke-linecap: square"/>
     </g>
     <g id="line2d_6">
      <g>
       <use xlink:href="#m0b91bf1555" x="375.84" y="256.32" style="stroke: #000000; stroke-width: 0.8"/>
      </g>
     </g>
     <g id="text_3">
      <!-- 140 -->
      <g transform="translate(362.47875 273.957812) scale(0.14 -0.14)">
       <defs>
        <path id="DejaVuSans-34" d="M 2419 4116 
L 825 1625 
L 2419 1625 
L 2419 4116 
z
M 2253 4666 
L 3047 4666 
L 3047 1625 
L 3713 1625 
L 3713 1100 
L 3047 1100 
L 3047 0 
L 2419 0 
L 2419 1100 
L 313 1100 
L 313 1709 
L 2253 4666 
z
" transform="scale(0.015625)"/>
       </defs>
       <use xlink:href="#DejaVuSans-31"/>
       <use xlink:href="#DejaVuSans-34" x="63.623047"/>
       <use xlink:href="#DejaVuSans-30" x="127.246094"/>
      </g>
     </g>
    </g>
    <g id="xtick_4">
     <g id="line2d_7">
      <path d="M 509.76 256.32 
L 509.76 34.56 
" clip-path="url(#pc1a3ff5276)" style="fill: none; stroke: #b0b0b0; stroke-width: 0.8; stroke-linecap: square"/>
     </g>
     <g id="line2d_8">
      <g>
       <use xlink:href="#m0b91bf1555" x="509.76" y="256.32" style="stroke: #000000; stroke-width: 0.8"/>
      </g>
     </g>
     <g id="text_4">
      <!-- 160 -->
      <g transform="translate(496.39875 273.957812) scale(0.14 -0.14)">
       <defs>
        <path id="DejaVuSans-36" d="M 2113 2584 
Q 1688 2584 1439 2293 
Q 1191 2003 1191 1497 
Q 1191 994 1439 701 
Q 1688 409 2113 409 
Q 2538 409 2786 701 
Q 3034 994 3034 1497 
Q 3034 2003 2786 2293 
Q 2538 2584 2113 2584 
z
M 3366 4563 
L 3366 3988 
Q 3128 4100 2886 4159 
Q 2644 4219 2406 4219 
Q 1781 4219 1451 3797 
Q 1122 3375 1075 2522 
Q 1259 2794 1537 2939 
Q 1816 3084 2150 3084 
Q 2853 3084 3261 2657 
Q 3669 2231 3669 1497 
Q 3669 778 3244 343 
Q 2819 -91 2113 -91 
Q 1303 -91 875 529 
Q 447 1150 447 2328 
Q 447 3434 972 4092 
Q 1497 4750 2381 4750 
Q 2619 4750 2861 4703 
Q 3103 4656 3366 4563 
z
" transform="scale(0.015625)"/>
       </defs>
       <use xlink:href="#DejaVuSans-31"/>
       <use xlink:href="#DejaVuSans-36" x="63.623047"/>
       <use xlink:href="#DejaVuSans-30" x="127.246094"/>
      </g>
     </g>
    </g>
    <g id="xtick_5">
     <g id="line2d_9">
      <path d="M 643.68 256.32 
L 643.68 34.56 
" clip-path="url(#pc1a3ff5276)" style="fill: none; stroke: #b0b0b0; stroke-width: 0.8; stroke-linecap: square"/>
     </g>
     <g id="line2d_10">
      <g>
       <use xlink:href="#m0b91bf1555" x="643.68" y="256.32" style="stroke: #000000; stroke-width: 0.8"/>
      </g>
     </g>
     <g id="text_5">
      <!-- 180 -->
      <g transform="translate(630.31875 273.957812) scale(0.14 -0.14)">
       <defs>
        <path id="DejaVuSans-38" d="M 2034 2216 
Q 1584 2216 1326 1975 
Q 1069 1734 1069 1313 
Q 1069 891 1326 650 
Q 1584 409 2034 409 
Q 2484 409 2743 651 
Q 3003 894 3003 1313 
Q 3003 1734 2745 1975 
Q 2488 2216 2034 2216 
z
M 1403 2484 
Q 997 2584 770 2862 
Q 544 3141 544 3541 
Q 544 4100 942 4425 
Q 1341 4750 2034 4750 
Q 2731 4750 3128 4425 
Q 3525 4100 3525 3541 
Q 3525 3141 3298 2862 
Q 3072 2584 2669 2484 
Q 3125 2378 3379 2068 
Q 3634 1759 3634 1313 
Q 3634 634 3220 271 
Q 2806 -91 2034 -91 
Q 1263 -91 848 271 
Q 434 634 434 1313 
Q 434 1759 690 2068 
Q 947 2378 1403 2484 
z
M 1172 3481 
Q 1172 3119 1398 2916 
Q 1625 2713 2034 2713 
Q 2441 2713 2670 2916 
Q 2900 3119 2900 3481 
Q 2900 3844 2670 4047 
Q 2441 4250 2034 4250 
Q 1625 4250 1398 4047 
Q 1172 3844 1172 3481 
z
" transform="scale(0.015625)"/>
       </defs>
       <use xlink:href="#DejaVuSans-31"/>
       <use xlink:href="#DejaVuSans-38" x="63.623047"/>
       <use xlink:href="#DejaVuSans-30" x="127.246094"/>
      </g>
     </g>
    </g>
    <g id="xtick_6">
     <g id="line2d_11">
      <path d="M 777.6 256.32 
L 777.6 34.56 
" clip-path="url(#pc1a3ff5276)" style="fill: none; stroke: #b0b0b0; stroke-width: 0.8; stroke-linecap: square"/>
     </g>
     <g id="line2d_12">
      <g>
       <use xlink:href="#m0b91bf1555" x="777.6" y="256.32" style="stroke: #000000; stroke-width: 0.8"/>
      </g>
     </g>
     <g id="text_6">
      <!-- 200 -->
      <g transform="translate(764.23875 273.957812) scale(0.14 -0.14)">
       <use xlink:href="#DejaVuSans-32"/>
       <use xlink:href="#DejaVuSans-30" x="63.623047"/>
       <use xlink:href="#DejaVuSans-30" x="127.246094"/>
      </g>
     </g>
    </g>
    <g id="text_7">
     <!-- Time (ms) -->
     <g transform="translate(407.521094 291.507187) scale(0.14 -0.14)">
      <defs>
       <path id="DejaVuSans-54" d="M -19 4666 
L 3928 4666 
L 3928 4134 
L 2272 4134 
L 2272 0 
L 1638 0 
L 1638 4134 
L -19 4134 
L -19 4666 
z
" transform="scale(0.015625)"/>
       <path id="DejaVuSans-69" d="M 603 3500 
L 1178 3500 
L 1178 0 
L 603 0 
L 603 3500 
z
M 603 4863 
L 1178 4863 
L 1178 4134 
L 603 4134 
L 603 4863 
z
" transform="scale(0.015625)"/>
       <path id="DejaVuSans-6d" d="M 3328 2828 
Q 3544 3216 3844 3400 
Q 4144 3584 4550 3584 
Q 5097 3584 5394 3201 
Q 5691 2819 5691 2113 
L 5691 0 
L 5113 0 
L 5113 2094 
Q 5113 2597 4934 2840 
Q 4756 3084 4391 3084 
Q 3944 3084 3684 2787 
Q 3425 2491 3425 1978 
L 3425 0 
L 2847 0 
L 2847 2094 
Q 2847 2600 2669 2842 
Q 2491 3084 2119 3084 
Q 1678 3084 1418 2786 
Q 1159 2488 1159 1978 
L 1159 0 
L 581 0 
L 581 3500 
L 1159 3500 
L 1159 2956 
Q 1356 3278 1631 3431 
Q 1906 3584 2284 3584 
Q 2666 3584 2933 3390 
Q 3200 3197 3328 2828 
z
" transform="scale(0.015625)"/>
       <path id="DejaVuSans-65" d="M 3597 1894 
L 3597 1613 
L 953 1613 
Q 991 1019 1311 708 
Q 1631 397 2203 397 
Q 2534 397 2845 478 
Q 3156 559 3463 722 
L 3463 178 
Q 3153 47 2828 -22 
Q 2503 -91 2169 -91 
Q 1331 -91 842 396 
Q 353 884 353 1716 
Q 353 2575 817 3079 
Q 1281 3584 2069 3584 
Q 2775 3584 3186 3129 
Q 3597 2675 3597 1894 
z
M 3022 2063 
Q 3016 2534 2758 2815 
Q 2500 3097 2075 3097 
Q 1594 3097 1305 2825 
Q 1016 2553 972 2059 
L 3022 2063 
z
" transform="scale(0.015625)"/>
       <path id="DejaVuSans-20" transform="scale(0.015625)"/>
       <path id="DejaVuSans-28" d="M 1984 4856 
Q 1566 4138 1362 3434 
Q 1159 2731 1159 2009 
Q 1159 1288 1364 580 
Q 1569 -128 1984 -844 
L 1484 -844 
Q 1016 -109 783 600 
Q 550 1309 550 2009 
Q 550 2706 781 3412 
Q 1013 4119 1484 4856 
L 1984 4856 
z
" transform="scale(0.015625)"/>
       <path id="DejaVuSans-73" d="M 2834 3397 
L 2834 2853 
Q 2591 2978 2328 3040 
Q 2066 3103 1784 3103 
Q 1356 3103 1142 2972 
Q 928 2841 928 2578 
Q 928 2378 1081 2264 
Q 1234 2150 1697 2047 
L 1894 2003 
Q 2506 1872 2764 1633 
Q 3022 1394 3022 966 
Q 3022 478 2636 193 
Q 2250 -91 1575 -91 
Q 1294 -91 989 -36 
Q 684 19 347 128 
L 347 722 
Q 666 556 975 473 
Q 1284 391 1588 391 
Q 1994 391 2212 530 
Q 2431 669 2431 922 
Q 2431 1156 2273 1281 
Q 2116 1406 1581 1522 
L 1381 1569 
Q 847 1681 609 1914 
Q 372 2147 372 2553 
Q 372 3047 722 3315 
Q 1072 3584 1716 3584 
Q 2034 3584 2315 3537 
Q 2597 3491 2834 3397 
z
" transform="scale(0.015625)"/>
       <path id="DejaVuSans-29" d="M 513 4856 
L 1013 4856 
Q 1481 4119 1714 3412 
Q 1947 2706 1947 2009 
Q 1947 1309 1714 600 
Q 1481 -109 1013 -844 
L 513 -844 
Q 928 -128 1133 580 
Q 1338 1288 1338 2009 
Q 1338 2731 1133 3434 
Q 928 4138 513 4856 
z
" transform="scale(0.015625)"/>
      </defs>
      <use xlink:href="#DejaVuSans-54"/>
      <use xlink:href="#DejaVuSans-69" x="57.958984"/>
      <use xlink:href="#DejaVuSans-6d" x="85.742188"/>
      <use xlink:href="#DejaVuSans-65" x="183.154297"/>
      <use xlink:href="#DejaVuSans-20" x="244.677734"/>
      <use xlink:href="#DejaVuSans-28" x="276.464844"/>
      <use xlink:href="#DejaVuSans-6d" x="315.478516"/>
      <use xlink:href="#DejaVuSans-73" x="412.890625"/>
      <use xlink:href="#DejaVuSans-29" x="464.990234"/>
     </g>
    </g>
   </g>
   <g id="matplotlib.axis_2">
    <g id="ytick_1">
     <g id="line2d_13">
      <path d="M 108 224.888841 
L 777.6 224.888841 
" clip-path="url(#pc1a3ff5276)" style="fill: none; stroke: #b0b0b0; stroke-width: 0.8; stroke-linecap: square"/>
     </g>
     <g id="line2d_14">
      <defs>
       <path id="m2676c51774" d="M 0 0 
L -3.5 0 
" style="stroke: #000000; stroke-width: 0.8"/>
      </defs>
      <g>
       <use xlink:href="#m2676c51774" x="108" y="224.888841" style="stroke: #000000; stroke-width: 0.8"/>
      </g>
     </g>
     <g id="text_8">
      <!-- −60 -->
      <g transform="translate(71.453437 230.207748) scale(0.14 -0.14)">
       <defs>
        <path id="DejaVuSans-2212" d="M 678 2272 
L 4684 2272 
L 4684 1741 
L 678 1741 
L 678 2272 
z
" transform="scale(0.015625)"/>
       </defs>
       <use xlink:href="#DejaVuSans-2212"/>
       <use xlink:href="#DejaVuSans-36" x="83.789062"/>
       <use xlink:href="#DejaVuSans-30" x="147.412109"/>
      </g>
     </g>
    </g>
    <g id="ytick_2">
     <g id="line2d_15">
      <path d="M 108 182.254567 
L 777.6 182.254567 
" clip-path="url(#pc1a3ff5276)" style="fill: none; stroke: #b0b0b0; stroke-width: 0.8; stroke-linecap: square"/>
     </g>
     <g id="line2d_16">
      <g>
       <use xlink:href="#m2676c51774" x="108" y="182.254567" style="stroke: #000000; stroke-width: 0.8"/>
      </g>
     </g>
     <g id="text_9">
      <!-- −40 -->
      <g transform="translate(71.453437 187.573473) scale(0.14 -0.14)">
       <use xlink:href="#DejaVuSans-2212"/>
       <use xlink:href="#DejaVuSans-34" x="83.789062"/>
       <use xlink:href="#DejaVuSans-30" x="147.412109"/>
      </g>
     </g>
    </g>
    <g id="ytick_3">
     <g id="line2d_17">
      <path d="M 108 139.620292 
L 777.6 139.620292 
" clip-path="url(#pc1a3ff5276)" style="fill: none; stroke: #b0b0b0; stroke-width: 0.8; stroke-linecap: square"/>
     </g>
     <g id="line2d_18">
      <g>
       <use xlink:href="#m2676c51774" x="108" y="139.620292" style="stroke: #000000; stroke-width: 0.8"/>
      </g>
     </g>
     <g id="text_10">
      <!-- −20 -->
      <g transform="translate(71.453437 144.939198) scale(0.14 -0.14)">
       <use xlink:href="#DejaVuSans-2212"/>
       <use xlink:href="#DejaVuSans-32" x="83.789062"/>
       <use xlink:href="#DejaVuSans-30" x="147.412109"/>
      </g>
     </g>
    </g>
    <g id="ytick_4">
     <g id="line2d_19">
      <path d="M 108 96.986017 
L 777.6 96.986017 
" clip-path="url(#pc1a3ff5276)" style="fill: none; stroke: #b0b0b0; stroke-width: 0.8; stroke-linecap: square"/>
     </g>
     <g id="line2d_20">
      <g>
       <use xlink:href="#m2676c51774" x="108" y="96.986017" style="stroke: #000000; stroke-width: 0.8"/>
      </g>
     </g>
     <g id="text_11">
      <!-- 0 -->
      <g transform="translate(92.0925 102.304923) scale(0.14 -0.14)">
       <use xlink:href="#DejaVuSans-30"/>
      </g>
     </g>
    </g>
    <g id="ytick_5">
     <g id="line2d_21">
      <path d="M 108 54.351742 
L 777.6 54.351742 
" clip-path="url(#pc1a3ff5276)" style="fill: none; stroke: #b0b0b0; stroke-width: 0.8; stroke-linecap: square"/>
     </g>
     <g id="line2d_22">
      <g>
       <use xlink:href="#m2676c51774" x="108" y="54.351742" style="stroke: #000000; stroke-width: 0.8"/>
      </g>
     </g>
     <g id="text_12">
      <!-- 20 -->
      <g transform="translate(83.185 59.670648) scale(0.14 -0.14)">
       <use xlink:href="#DejaVuSans-32"/>
       <use xlink:href="#DejaVuSans-30" x="63.623047"/>
      </g>
     </g>
    </g>
    <g id="text_13">
     <!-- $V_{m}$ (mV) -->
     <g transform="translate(64.541875 174.49) rotate(-90) scale(0.14 -0.14)">
      <defs>
       <path id="DejaVuSans-Oblique-56" d="M 1319 0 
L 500 4666 
L 1119 4666 
L 1797 653 
L 4063 4666 
L 4750 4666 
L 2053 0 
L 1319 0 
z
" transform="scale(0.015625)"/>
       <path id="DejaVuSans-Oblique-6d" d="M 5747 2113 
L 5338 0 
L 4763 0 
L 5166 2094 
Q 5191 2228 5203 2325 
Q 5216 2422 5216 2491 
Q 5216 2772 5059 2928 
Q 4903 3084 4622 3084 
Q 4203 3084 3875 2770 
Q 3547 2456 3450 1953 
L 3066 0 
L 2491 0 
L 2900 2094 
Q 2925 2209 2937 2307 
Q 2950 2406 2950 2484 
Q 2950 2769 2794 2926 
Q 2638 3084 2363 3084 
Q 1938 3084 1609 2770 
Q 1281 2456 1184 1953 
L 800 0 
L 225 0 
L 909 3500 
L 1484 3500 
L 1375 2956 
Q 1609 3263 1923 3423 
Q 2238 3584 2597 3584 
Q 2978 3584 3223 3384 
Q 3469 3184 3519 2828 
Q 3781 3197 4126 3390 
Q 4472 3584 4856 3584 
Q 5306 3584 5551 3325 
Q 5797 3066 5797 2591 
Q 5797 2488 5784 2364 
Q 5772 2241 5747 2113 
z
" transform="scale(0.015625)"/>
       <path id="DejaVuSans-56" d="M 1831 0 
L 50 4666 
L 709 4666 
L 2188 738 
L 3669 4666 
L 4325 4666 
L 2547 0 
L 1831 0 
z
" transform="scale(0.015625)"/>
      </defs>
      <use xlink:href="#DejaVuSans-Oblique-56" transform="translate(0 0.125)"/>
      <use xlink:href="#DejaVuSans-Oblique-6d" transform="translate(68.408203 -16.28125) scale(0.7)"/>
      <use xlink:href="#DejaVuSans-20" transform="translate(139.331055 0.125)"/>
      <use xlink:href="#DejaVuSans-28" transform="translate(171.118164 0.125)"/>
      <use xlink:href="#DejaVuSans-6d" transform="translate(210.131836 0.125)"/>
      <use xlink:href="#DejaVuSans-56" transform="translate(307.543945 0.125)"/>
      <use xlink:href="#DejaVuSans-29" transform="translate(375.952148 0.125)"/>
     </g>
    </g>
   </g>
   <g id="line2d_23">
    <path d="M 108 218.965542 
L 109.3392 219.630842 
L 110.6784 220.057187 
L 111.348 220.212811 
L 112.6872 221.156126 
L 114.0264 221.605639 
L 116.0352 223.179346 
L 118.044 225.667829 
L 118.7136 226.792716 
L 119.3832 227.665523 
L 120.0528 228.224626 
L 120.7224 229.276678 
L 122.7312 231.616648 
L 124.0704 232.435573 
L 125.4096 232.979191 
L 127.4184 233.523115 
L 129.4272 233.84592 
L 132.1056 234.022316 
L 134.1144 234.001086 
L 136.1232 234.833385 
L 136.7928 235.661675 
L 137.4624 236.245885 
L 140.1408 237.469091 
L 141.48 237.758308 
L 144.1584 238.153219 
L 145.4976 238.437357 
L 147.5064 238.453143 
L 148.176 238.414311 
L 149.5152 238.769824 
L 150.8544 238.802569 
L 153.5328 238.540356 
L 156.8808 237.926798 
L 160.2288 237.095788 
L 164.2464 235.87236 
L 168.9336 234.188062 
L 173.6208 232.272722 
L 178.9776 229.847141 
L 182.9952 227.844638 
L 185.004 226.469632 
L 189.6912 223.213241 
L 198.396 217.514217 
L 199.7352 217.456119 
L 201.0744 216.981141 
L 203.7528 215.672107 
L 205.7616 214.593657 
L 207.1008 214.713781 
L 208.44 214.389526 
L 209.7792 214.751545 
L 211.1184 214.611536 
L 213.1272 214.071894 
L 216.4752 212.86318 
L 220.4928 211.166613 
L 225.8496 208.628417 
L 227.1888 208.908071 
L 228.528 210.60141 
L 229.1976 210.984602 
L 230.5368 211.289858 
L 231.876 211.321322 
L 232.5456 211.280032 
L 234.5544 212.613152 
L 235.8936 214.584732 
L 236.5632 215.74823 
L 239.2416 219.035578 
L 239.9112 220.093537 
L 240.5808 221.617047 
L 241.2504 222.734854 
L 241.92 223.450716 
L 243.2592 224.384513 
L 244.5984 225.00154 
L 245.9376 226.07553 
L 246.6072 226.405479 
L 247.2768 226.996933 
L 247.9464 227.808944 
L 249.9552 229.666293 
L 251.2944 230.897672 
L 252.6336 231.553792 
L 253.9728 231.975545 
L 255.312 233.34777 
L 255.9816 234.011036 
L 256.6512 234.507259 
L 257.9904 235.086232 
L 259.9992 235.566567 
L 260.6688 235.668683 
L 262.008 236.309817 
L 263.3472 236.587017 
L 264.6864 236.711094 
L 267.3648 237.906124 
L 268.704 238.145696 
L 270.7128 238.22141 
L 272.052 238.649421 
L 273.3912 238.746265 
L 275.4 238.660304 
L 278.0784 238.334593 
L 281.4264 237.694821 
L 282.096 237.541258 
L 283.4352 237.713957 
L 284.7744 237.579709 
L 287.4528 237.019432 
L 290.8008 236.087605 
L 291.4704 235.879111 
L 292.8096 235.976861 
L 294.1488 235.761015 
L 296.8272 235.038182 
L 300.8448 233.675148 
L 305.532 231.821904 
L 310.8888 229.441847 
L 316.2456 226.837848 
L 317.5848 226.021394 
L 327.6288 219.108307 
L 343.0296 208.873341 
L 345.0384 207.476731 
L 346.3776 207.529899 
L 347.7168 207.157656 
L 349.7256 206.247331 
L 352.404 204.736909 
L 354.4128 203.336069 
L 355.752 204.460824 
L 356.4216 204.806345 
L 358.4304 207.004784 
L 359.1 208.201954 
L 359.7696 209.086445 
L 360.4392 209.650569 
L 361.7784 210.30218 
L 363.1176 212.353384 
L 363.7872 213.362221 
L 364.4568 214.113819 
L 365.1264 214.604153 
L 365.796 214.95451 
L 367.1352 216.209852 
L 367.8048 216.573984 
L 369.144 217.796739 
L 370.4832 218.399421 
L 371.8224 218.736979 
L 372.492 218.849405 
L 373.8312 220.461028 
L 374.5008 222.023853 
L 375.1704 223.22439 
L 375.84 223.945181 
L 377.1792 224.830116 
L 378.5184 225.389267 
L 379.188 225.598515 
L 379.8576 226.122038 
L 381.8664 228.41502 
L 382.536 228.829754 
L 383.8752 229.963252 
L 384.5448 230.307464 
L 386.5536 231.957853 
L 387.2232 232.437862 
L 388.5624 233.005763 
L 391.2408 233.885691 
L 391.9104 234.492416 
L 392.58 234.919536 
L 393.9192 235.366444 
L 395.928 235.681558 
L 399.276 236.055065 
L 402.624 236.999588 
L 403.2936 237.050779 
L 405.972 238.168935 
L 407.3112 238.360821 
L 407.9808 238.387123 
L 409.32 238.83875 
L 410.6592 238.945514 
L 412.668 238.86269 
L 415.3464 238.531416 
L 418.6944 237.879002 
L 422.712 236.830401 
L 426.7296 235.547963 
L 428.0688 235.616167 
L 429.408 235.371835 
L 432.0864 234.596742 
L 436.104 233.166707 
L 440.7912 231.248433 
L 446.148 228.807131 
L 450.8352 226.4524 
L 452.844 225.063982 
L 457.5312 221.767386 
L 468.2448 214.688722 
L 472.932 211.572556 
L 474.2712 211.596118 
L 475.6104 211.180913 
L 476.9496 210.595454 
L 478.2888 210.869798 
L 479.628 210.666352 
L 481.6368 210.031197 
L 483.6456 209.242009 
L 484.9848 209.606531 
L 485.6544 210.085507 
L 486.324 210.427052 
L 487.6632 210.593802 
L 489.0024 210.493352 
L 490.3416 212.052308 
L 491.0112 212.419971 
L 491.6808 213.081049 
L 492.3504 214.031585 
L 493.02 214.697171 
L 493.6896 215.095965 
L 494.3592 215.791141 
L 495.0288 216.75724 
L 495.6984 217.444642 
L 497.7072 218.806448 
L 498.3768 219.311875 
L 499.716 219.857716 
L 501.0552 220.148831 
L 502.3944 221.027745 
L 503.7336 221.40859 
L 504.4032 221.511326 
L 505.7424 222.328723 
L 507.0816 222.663295 
L 507.7512 222.746931 
L 508.4208 223.175919 
L 510.4296 226.471721 
L 511.0992 227.209751 
L 512.4384 228.04031 
L 513.7776 228.531149 
L 515.1168 229.447558 
L 515.7864 230.34939 
L 516.456 231.054028 
L 517.1256 231.488006 
L 519.804 235.036934 
L 521.1432 235.840757 
L 522.4824 236.349739 
L 523.152 236.541897 
L 523.8216 236.969248 
L 524.4912 237.577722 
L 526.5 238.950256 
L 527.8392 239.852748 
L 529.1784 240.294312 
L 529.848 240.436764 
L 531.1872 241.06235 
L 532.5264 241.340785 
L 534.5352 241.501452 
L 537.2136 241.462478 
L 539.892 241.218277 
L 543.24 240.68699 
L 546.588 239.948615 
L 550.6056 238.833965 
L 555.2928 237.267716 
L 559.98 235.459364 
L 565.3368 233.141896 
L 571.3632 230.265615 
L 578.0592 226.794958 
L 584.0856 223.474378 
L 585.4248 222.58118 
L 594.7992 215.624597 
L 602.1648 210.521599 
L 603.504 210.528975 
L 604.8432 210.098726 
L 606.852 209.163559 
L 610.2 207.329671 
L 612.8784 205.675996 
L 613.548 205.229866 
L 614.8872 205.358168 
L 616.2264 205.096866 
L 617.5656 204.610919 
L 619.5744 203.590111 
L 621.5832 202.254979 
L 622.9224 201.016027 
L 624.2616 200.517337 
L 624.9312 200.10952 
L 625.6008 200.0483 
L 627.6096 201.273409 
L 628.2792 201.338836 
L 628.9488 200.649328 
L 629.6184 194.912007 
L 630.288 176.460572 
L 630.9576 86.033836 
L 631.6272 47.074575 
L 632.2968 72.45676 
L 632.9664 92.243493 
L 634.3056 119.38764 
L 636.3144 153.356414 
L 639.6624 203.278447 
L 640.332 208.166139 
L 641.0016 211.68992 
L 641.6712 214.22276 
L 643.68 219.711008 
L 644.3496 221.084728 
L 646.3584 224.213554 
L 648.3672 226.279307 
L 649.0368 227.243118 
L 649.7064 227.956868 
L 652.3848 229.955277 
L 653.0544 230.299608 
L 653.724 230.86421 
L 654.3936 231.611663 
L 656.4024 233.286122 
L 657.072 233.619386 
L 657.7416 234.151868 
L 659.0808 235.623833 
L 659.7504 236.430274 
L 660.42 236.996859 
L 661.7592 237.660961 
L 663.768 238.226604 
L 665.7768 238.53503 
L 667.7856 238.670561 
L 669.1248 239.145557 
L 670.464 239.298407 
L 672.4728 239.303239 
L 675.1512 239.098901 
L 678.4992 238.603934 
L 681.8472 237.896701 
L 685.8648 236.815383 
L 689.8824 235.518255 
L 693.9 234.035613 
L 695.2392 234.070164 
L 696.5784 233.785146 
L 699.2568 232.927028 
L 703.2744 231.384024 
L 707.9616 229.352922 
L 713.3184 226.8051 
L 718.6752 224.024636 
L 720.684 222.604925 
L 725.3712 219.237218 
L 732.7368 214.324582 
L 742.7808 207.768374 
L 744.12 207.881552 
L 745.4592 207.550535 
L 747.468 206.745724 
L 748.8072 207.118837 
L 750.1464 207.021283 
L 752.1552 206.506061 
L 753.4944 207.046743 
L 754.8336 207.099878 
L 756.1728 206.919595 
L 757.512 207.601412 
L 758.8512 207.762065 
L 760.1904 207.67963 
L 761.5296 208.428396 
L 762.1992 208.58266 
L 763.5384 209.571442 
L 764.8776 209.937162 
L 765.5472 210.002654 
L 766.8864 210.905374 
L 768.2256 211.238641 
L 768.8952 211.30096 
L 770.2344 213.036708 
L 770.904 213.474631 
L 771.5736 213.749842 
L 774.252 216.18036 
L 775.5912 216.774981 
L 776.9304 217.08311 
L 777.6 217.597558 
L 777.6 217.597558 
" clip-path="url(#pc1a3ff5276)" style="fill: none; stroke: #000000; stroke-width: 1.5; stroke-linecap: square"/>
   </g>
   <g id="line2d_24">
    <path d="M 108 153.258273 
L 111.348 158.308848 
L 113.3568 161.657 
L 115.3656 165.439376 
L 116.7048 168.32722 
L 118.044 171.648327 
L 120.0528 177.435218 
L 123.4008 188.228411 
L 125.4096 194.385531 
L 127.4184 199.7223 
L 129.4272 204.192072 
L 131.436 207.883126 
L 133.4448 210.909891 
L 135.4536 213.424075 
L 141.48 220.284839 
L 143.4888 222.132704 
L 146.1672 224.22701 
L 148.176 225.535015 
L 150.8544 227.020074 
L 152.8632 227.93971 
L 154.872 228.652876 
L 156.8808 229.174896 
L 159.5592 229.608772 
L 162.2376 229.78134 
L 164.916 229.727248 
L 167.5944 229.475306 
L 170.9424 228.918826 
L 174.2904 228.130523 
L 178.308 226.923892 
L 182.3256 225.475518 
L 182.9952 195.189344 
L 183.6648 181.401703 
L 184.3344 174.418829 
L 185.004 169.981759 
L 185.6736 166.869321 
L 186.3432 164.608285 
L 187.0128 162.942869 
L 187.6824 161.706775 
L 188.352 160.778557 
L 189.6912 159.498337 
L 191.7 158.176669 
L 193.7088 156.829334 
L 195.7176 155.16442 
L 198.396 152.545262 
L 200.4048 150.666768 
L 202.4136 149.076016 
L 205.092 147.271115 
L 207.1008 146.195925 
L 209.1096 145.495527 
L 211.1184 145.145914 
L 215.8056 144.748559 
L 222.5016 144.38269 
L 227.1888 144.312987 
L 228.528 144.593464 
L 230.5368 145.431279 
L 234.5544 147.353366 
L 235.8936 148.275342 
L 237.2328 149.527567 
L 238.572 151.052875 
L 239.9112 152.812822 
L 241.2504 154.942143 
L 243.2592 158.740367 
L 245.268 162.951984 
L 247.2768 167.709831 
L 249.2856 173.254517 
L 251.964 181.685939 
L 254.6424 190.074386 
L 257.3208 197.823745 
L 259.3296 202.905345 
L 261.3384 207.183765 
L 263.3472 210.843979 
L 265.356 213.935453 
L 268.0344 217.488286 
L 270.0432 219.772605 
L 272.052 221.704073 
L 274.0608 223.391563 
L 276.0696 224.787571 
L 278.0784 225.900423 
L 280.0872 226.762456 
L 282.096 227.404457 
L 286.1136 228.392143 
L 288.792 228.764366 
L 291.4704 228.878653 
L 297.4968 228.833694 
L 300.1752 228.558522 
L 303.5232 227.981454 
L 306.8712 227.180466 
L 310.8888 225.965456 
L 314.9064 224.512481 
L 316.2456 223.981358 
L 316.9152 193.981733 
L 317.5848 180.285815 
L 318.2544 173.283608 
L 318.924 168.77386 
L 319.5936 165.576248 
L 320.2632 163.230696 
L 320.9328 161.487012 
L 321.6024 160.176103 
L 322.272 159.175919 
L 323.6112 157.765543 
L 325.62 156.281523 
L 328.2984 154.306722 
L 330.9768 151.937354 
L 335.664 147.663779 
L 337.6728 146.100299 
L 339.6816 144.75772 
L 342.36 143.288731 
L 345.0384 142.118698 
L 346.3776 141.686378 
L 348.3864 141.297001 
L 355.0824 140.428178 
L 356.4216 140.478953 
L 357.7608 140.781533 
L 359.1 141.339416 
L 361.1088 142.574217 
L 363.1176 143.960532 
L 365.1264 145.681606 
L 368.4744 148.830052 
L 372.492 153.058828 
L 373.8312 154.609759 
L 375.1704 156.561095 
L 376.5096 158.952601 
L 378.5184 163.011024 
L 380.5272 167.532452 
L 381.8664 171.025201 
L 383.8752 176.911804 
L 389.9016 195.242829 
L 391.9104 200.301482 
L 393.9192 204.81649 
L 395.928 208.679962 
L 397.9368 211.883754 
L 399.9456 214.556183 
L 402.624 217.64197 
L 405.3024 220.299073 
L 407.9808 222.674171 
L 410.6592 224.697602 
L 412.668 225.959536 
L 414.6768 226.968962 
L 416.6856 227.748619 
L 418.6944 228.325049 
L 421.3728 228.816815 
L 424.0512 229.033198 
L 426.7296 229.011377 
L 433.4256 228.648654 
L 436.7736 228.118532 
L 440.1216 227.356557 
L 444.1392 226.181349 
L 448.1568 224.762399 
L 450.1656 223.972773 
L 450.8352 193.973202 
L 451.5048 180.274137 
L 452.1744 173.267949 
L 452.844 168.75266 
L 453.5136 165.54885 
L 454.1832 163.197062 
L 454.8528 161.447609 
L 455.5224 160.131523 
L 456.192 159.126593 
L 457.5312 157.708543 
L 459.54 156.216928 
L 462.2184 154.238427 
L 464.8968 151.872596 
L 469.584 147.615147 
L 471.5928 146.058847 
L 473.6016 144.740395 
L 474.9408 144.087863 
L 476.9496 143.365073 
L 478.2888 143.031964 
L 480.9672 142.698439 
L 484.9848 142.434759 
L 486.324 142.557378 
L 489.0024 143.097784 
L 490.3416 143.491925 
L 491.6808 144.059486 
L 493.6896 145.250525 
L 495.6984 146.752116 
L 499.0464 149.716462 
L 503.064 153.601063 
L 505.7424 156.562361 
L 507.7512 159.11432 
L 509.0904 161.033846 
L 510.4296 163.438788 
L 511.7688 166.387693 
L 513.7776 171.454331 
L 515.7864 177.059159 
L 518.4648 185.398703 
L 521.8128 196.204335 
L 523.8216 201.81029 
L 525.8304 206.74298 
L 527.8392 211.158226 
L 529.848 215.019653 
L 531.8568 218.334375 
L 533.8656 221.158433 
L 535.8744 223.496779 
L 537.8832 225.407569 
L 539.892 226.951469 
L 541.9008 228.179685 
L 543.9096 229.134514 
L 545.9184 229.85118 
L 547.9272 230.359333 
L 549.936 230.684139 
L 552.6144 230.868688 
L 555.2928 230.807791 
L 557.9712 230.536378 
L 561.3192 229.944341 
L 564.6672 229.113256 
L 568.6848 227.850537 
L 572.7024 226.34386 
L 577.3896 224.328046 
L 582.0768 222.079264 
L 584.0856 221.053936 
L 584.7552 191.579883 
L 585.4248 178.043841 
L 586.0944 170.961071 
L 586.764 166.266192 
L 587.4336 162.865469 
L 588.1032 160.323949 
L 588.7728 158.394675 
L 589.4424 156.910228 
L 590.112 155.749072 
L 591.4512 154.051344 
L 592.7904 152.803234 
L 600.8256 146.322036 
L 602.8344 144.83664 
L 604.8432 143.711507 
L 607.5216 142.579788 
L 610.8696 141.423895 
L 614.2176 140.469789 
L 616.2264 140.170008 
L 623.592 139.442803 
L 626.2704 139.182335 
L 627.6096 139.305004 
L 628.9488 139.546233 
L 629.6184 139.457905 
L 630.288 138.588795 
L 630.9576 134.13319 
L 632.2968 119.974037 
L 632.9664 115.489936 
L 633.636 113.106705 
L 634.3056 112.297226 
L 634.9752 112.571539 
L 635.6448 113.570149 
L 636.3144 115.070264 
L 637.6536 119.02171 
L 638.9928 123.924857 
L 641.6712 134.548289 
L 643.0104 139.031526 
L 645.0192 144.909622 
L 651.0456 161.566913 
L 653.0544 168.057669 
L 655.0632 175.237621 
L 660.42 195.095188 
L 662.4288 201.579949 
L 663.768 205.314921 
L 665.1072 208.584936 
L 666.4464 211.433709 
L 667.7856 213.910211 
L 669.7944 217.108634 
L 671.8032 219.786787 
L 673.812 221.966431 
L 675.8208 223.714364 
L 677.8296 225.097254 
L 679.8384 226.170305 
L 681.8472 226.978237 
L 683.856 227.55753 
L 685.8648 227.93827 
L 688.5432 228.179773 
L 691.2216 228.160983 
L 693.9 227.920821 
L 701.2656 226.995793 
L 704.6136 226.243448 
L 708.6312 225.073434 
L 712.6488 223.656055 
L 717.336 221.738034 
L 718.0056 221.443446 
L 718.6752 191.92933 
L 719.3448 178.401802 
L 720.0144 171.388026 
L 720.684 166.803685 
L 721.3536 163.527277 
L 722.0232 161.110521 
L 722.6928 159.300723 
L 723.3624 157.926751 
L 724.032 156.865371 
L 725.3712 155.336898 
L 727.38 153.705514 
L 730.728 151.110608 
L 737.424 145.612244 
L 740.1024 143.853757 
L 742.7808 142.431943 
L 744.12 141.898664 
L 746.1288 141.379795 
L 748.8072 140.956405 
L 751.4856 140.906419 
L 753.4944 140.976789 
L 756.8424 141.430938 
L 759.5208 142.054078 
L 762.1992 142.822712 
L 764.208 143.650473 
L 767.556 145.297046 
L 770.2344 146.869516 
L 772.2432 148.41528 
L 774.252 150.250613 
L 777.6 153.776495 
L 777.6 153.776495 
" clip-path="url(#pc1a3ff5276)" style="fill: none; stroke: #4169e1; stroke-width: 1.5; stroke-linecap: square"/>
   </g>
   <g id="patch_3">
    <path d="M 108 256.32 
L 108 34.56 
" style="fill: none; stroke: #000000; stroke-width: 0.8; stroke-linejoin: miter; stroke-linecap: square"/>
   </g>
   <g id="patch_4">
    <path d="M 777.6 256.32 
L 777.6 34.56 
" style="fill: none; stroke: #000000; stroke-width: 0.8; stroke-linejoin: miter; stroke-linecap: square"/>
   </g>
   <g id="patch_5">
    <path d="M 108 256.32 
L 777.6 256.32 
" style="fill: none; stroke: #000000; stroke-width: 0.8; stroke-linejoin: miter; stroke-linecap: square"/>
   </g>
   <g id="patch_6">
    <path d="M 108 34.56 
L 777.6 34.56 
" style="fill: none; stroke: #000000; stroke-width: 0.8; stroke-linejoin: miter; stroke-linecap: square"/>
   </g>
   <g id="legend_1">
    <g id="patch_7">
     <path d="M 695.098438 71.91625 
L 770.6 71.91625 
Q 772.6 71.91625 772.6 69.91625 
L 772.6 41.56 
Q 772.6 39.56 770.6 39.56 
L 695.098438 39.56 
Q 693.098438 39.56 693.098438 41.56 
L 693.098438 69.91625 
Q 693.098438 71.91625 695.098438 71.91625 
z
" style="fill: #ffffff; opacity: 0.8; stroke: #cccccc; stroke-linejoin: miter"/>
    </g>
    <g id="line2d_25">
     <path d="M 697.098438 47.658437 
L 707.098438 47.658437 
L 717.098438 47.658437 
" style="fill: none; stroke: #000000; stroke-width: 1.5; stroke-linecap: square"/>
    </g>
    <g id="text_14">
     <!-- Soma -->
     <g transform="translate(725.098438 51.158437) scale(0.1 -0.1)">
      <defs>
       <path id="DejaVuSans-53" d="M 3425 4513 
L 3425 3897 
Q 3066 4069 2747 4153 
Q 2428 4238 2131 4238 
Q 1616 4238 1336 4038 
Q 1056 3838 1056 3469 
Q 1056 3159 1242 3001 
Q 1428 2844 1947 2747 
L 2328 2669 
Q 3034 2534 3370 2195 
Q 3706 1856 3706 1288 
Q 3706 609 3251 259 
Q 2797 -91 1919 -91 
Q 1588 -91 1214 -16 
Q 841 59 441 206 
L 441 856 
Q 825 641 1194 531 
Q 1563 422 1919 422 
Q 2459 422 2753 634 
Q 3047 847 3047 1241 
Q 3047 1584 2836 1778 
Q 2625 1972 2144 2069 
L 1759 2144 
Q 1053 2284 737 2584 
Q 422 2884 422 3419 
Q 422 4038 858 4394 
Q 1294 4750 2059 4750 
Q 2388 4750 2728 4690 
Q 3069 4631 3425 4513 
z
" transform="scale(0.015625)"/>
       <path id="DejaVuSans-6f" d="M 1959 3097 
Q 1497 3097 1228 2736 
Q 959 2375 959 1747 
Q 959 1119 1226 758 
Q 1494 397 1959 397 
Q 2419 397 2687 759 
Q 2956 1122 2956 1747 
Q 2956 2369 2687 2733 
Q 2419 3097 1959 3097 
z
M 1959 3584 
Q 2709 3584 3137 3096 
Q 3566 2609 3566 1747 
Q 3566 888 3137 398 
Q 2709 -91 1959 -91 
Q 1206 -91 779 398 
Q 353 888 353 1747 
Q 353 2609 779 3096 
Q 1206 3584 1959 3584 
z
" transform="scale(0.015625)"/>
       <path id="DejaVuSans-61" d="M 2194 1759 
Q 1497 1759 1228 1600 
Q 959 1441 959 1056 
Q 959 750 1161 570 
Q 1363 391 1709 391 
Q 2188 391 2477 730 
Q 2766 1069 2766 1631 
L 2766 1759 
L 2194 1759 
z
M 3341 1997 
L 3341 0 
L 2766 0 
L 2766 531 
Q 2569 213 2275 61 
Q 1981 -91 1556 -91 
Q 1019 -91 701 211 
Q 384 513 384 1019 
Q 384 1609 779 1909 
Q 1175 2209 1959 2209 
L 2766 2209 
L 2766 2266 
Q 2766 2663 2505 2880 
Q 2244 3097 1772 3097 
Q 1472 3097 1187 3025 
Q 903 2953 641 2809 
L 641 3341 
Q 956 3463 1253 3523 
Q 1550 3584 1831 3584 
Q 2591 3584 2966 3190 
Q 3341 2797 3341 1997 
z
" transform="scale(0.015625)"/>
      </defs>
      <use xlink:href="#DejaVuSans-53"/>
      <use xlink:href="#DejaVuSans-6f" x="63.476562"/>
      <use xlink:href="#DejaVuSans-6d" x="124.658203"/>
      <use xlink:href="#DejaVuSans-61" x="222.070312"/>
     </g>
    </g>
    <g id="line2d_26">
     <path d="M 697.098438 62.336562 
L 707.098438 62.336562 
L 717.098438 62.336562 
" style="fill: none; stroke: #4169e1; stroke-width: 1.5; stroke-linecap: square"/>
    </g>
    <g id="text_15">
     <!-- Dendrite -->
     <g transform="translate(725.098438 65.836562) scale(0.1 -0.1)">
      <defs>
       <path id="DejaVuSans-44" d="M 1259 4147 
L 1259 519 
L 2022 519 
Q 2988 519 3436 956 
Q 3884 1394 3884 2338 
Q 3884 3275 3436 3711 
Q 2988 4147 2022 4147 
L 1259 4147 
z
M 628 4666 
L 1925 4666 
Q 3281 4666 3915 4102 
Q 4550 3538 4550 2338 
Q 4550 1131 3912 565 
Q 3275 0 1925 0 
L 628 0 
L 628 4666 
z
" transform="scale(0.015625)"/>
       <path id="DejaVuSans-6e" d="M 3513 2113 
L 3513 0 
L 2938 0 
L 2938 2094 
Q 2938 2591 2744 2837 
Q 2550 3084 2163 3084 
Q 1697 3084 1428 2787 
Q 1159 2491 1159 1978 
L 1159 0 
L 581 0 
L 581 3500 
L 1159 3500 
L 1159 2956 
Q 1366 3272 1645 3428 
Q 1925 3584 2291 3584 
Q 2894 3584 3203 3211 
Q 3513 2838 3513 2113 
z
" transform="scale(0.015625)"/>
       <path id="DejaVuSans-64" d="M 2906 2969 
L 2906 4863 
L 3481 4863 
L 3481 0 
L 2906 0 
L 2906 525 
Q 2725 213 2448 61 
Q 2172 -91 1784 -91 
Q 1150 -91 751 415 
Q 353 922 353 1747 
Q 353 2572 751 3078 
Q 1150 3584 1784 3584 
Q 2172 3584 2448 3432 
Q 2725 3281 2906 2969 
z
M 947 1747 
Q 947 1113 1208 752 
Q 1469 391 1925 391 
Q 2381 391 2643 752 
Q 2906 1113 2906 1747 
Q 2906 2381 2643 2742 
Q 2381 3103 1925 3103 
Q 1469 3103 1208 2742 
Q 947 2381 947 1747 
z
" transform="scale(0.015625)"/>
       <path id="DejaVuSans-72" d="M 2631 2963 
Q 2534 3019 2420 3045 
Q 2306 3072 2169 3072 
Q 1681 3072 1420 2755 
Q 1159 2438 1159 1844 
L 1159 0 
L 581 0 
L 581 3500 
L 1159 3500 
L 1159 2956 
Q 1341 3275 1631 3429 
Q 1922 3584 2338 3584 
Q 2397 3584 2469 3576 
Q 2541 3569 2628 3553 
L 2631 2963 
z
" transform="scale(0.015625)"/>
       <path id="DejaVuSans-74" d="M 1172 4494 
L 1172 3500 
L 2356 3500 
L 2356 3053 
L 1172 3053 
L 1172 1153 
Q 1172 725 1289 603 
Q 1406 481 1766 481 
L 2356 481 
L 2356 0 
L 1766 0 
Q 1100 0 847 248 
Q 594 497 594 1153 
L 594 3053 
L 172 3053 
L 172 3500 
L 594 3500 
L 594 4494 
L 1172 4494 
z
" transform="scale(0.015625)"/>
      </defs>
      <use xlink:href="#DejaVuSans-44"/>
      <use xlink:href="#DejaVuSans-65" x="77.001953"/>
      <use xlink:href="#DejaVuSans-6e" x="138.525391"/>
      <use xlink:href="#DejaVuSans-64" x="201.904297"/>
      <use xlink:href="#DejaVuSans-72" x="265.380859"/>
      <use xlink:href="#DejaVuSans-69" x="306.494141"/>
      <use xlink:href="#DejaVuSans-74" x="334.277344"/>
      <use xlink:href="#DejaVuSans-65" x="373.486328"/>
     </g>
    </g>
   </g>
  </g>
 </g>
 <defs>
  <clipPath id="pc1a3ff5276">
   <rect x="108" y="34.56" width="669.6" height="221.76"/>
  </clipPath>
 </defs>
</svg>
