<?xml version="1.0" encoding="utf-8" standalone="no"?>
<!DOCTYPE svg PUBLIC "-//W3C//DTD SVG 1.1//EN"
  "http://www.w3.org/Graphics/SVG/1.1/DTD/svg11.dtd">
<svg xmlns:xlink="http://www.w3.org/1999/xlink" width="864pt" height="288pt" viewBox="0 0 864 288" xmlns="http://www.w3.org/2000/svg" version="1.1">
 <metadata>
  <rdf:RDF xmlns:dc="http://purl.org/dc/elements/1.1/" xmlns:cc="http://creativecommons.org/ns#" xmlns:rdf="http://www.w3.org/1999/02/22-rdf-syntax-ns#">
   <cc:Work>
    <dc:type rdf:resource="http://purl.org/dc/dcmitype/StillImage"/>
    <dc:date>2024-04-23T19:18:11.920872</dc:date>
    <dc:format>image/svg+xml</dc:format>
    <dc:creator>
     <cc:Agent>
      <dc:title>Matplotlib v3.8.2, https://matplotlib.org/</dc:title>
     </cc:Agent>
    </dc:creator>
   </cc:Work>
  </rdf:RDF>
 </metadata>
 <defs>
  <style type="text/css">*{stroke-linejoin: round; stroke-linecap: butt}</style>
 </defs>
 <g id="figure_1">
  <g id="patch_1">
   <path d="M 0 288 
L 864 288 
L 864 0 
L 0 0 
z
" style="fill: #ffffff"/>
  </g>
  <g id="axes_1">
   <g id="patch_2">
    <path d="M 108 256.32 
L 777.6 256.32 
L 777.6 34.56 
L 108 34.56 
z
" style="fill: #ffffff"/>
   </g>
   <g id="matplotlib.axis_1">
    <g id="xtick_1">
     <g id="line2d_1">
      <path d="M 108 256.32 
L 108 34.56 
" clip-path="url(#p055adc2cd4)" style="fill: none; stroke: #b0b0b0; stroke-width: 0.8; stroke-linecap: square"/>
     </g>
     <g id="line2d_2">
      <defs>
       <path id="m05cee304c3" d="M 0 0 
L 0 3.5 
" style="stroke: #000000; stroke-width: 0.8"/>
      </defs>
      <g>
       <use xlink:href="#m05cee304c3" x="108" y="256.32" style="stroke: #000000; stroke-width: 0.8"/>
      </g>
     </g>
     <g id="text_1">
      <!-- 100 -->
      <g transform="translate(94.63875 273.957812) scale(0.14 -0.14)">
       <defs>
        <path id="DejaVuSans-31" d="M 794 531 
L 1825 531 
L 1825 4091 
L 703 3866 
L 703 4441 
L 1819 4666 
L 2450 4666 
L 2450 531 
L 3481 531 
L 3481 0 
L 794 0 
L 794 531 
z
" transform="scale(0.015625)"/>
        <path id="DejaVuSans-30" d="M 2034 4250 
Q 1547 4250 1301 3770 
Q 1056 3291 1056 2328 
Q 1056 1369 1301 889 
Q 1547 409 2034 409 
Q 2525 409 2770 889 
Q 3016 1369 3016 2328 
Q 3016 3291 2770 3770 
Q 2525 4250 2034 4250 
z
M 2034 4750 
Q 2819 4750 3233 4129 
Q 3647 3509 3647 2328 
Q 3647 1150 3233 529 
Q 2819 -91 2034 -91 
Q 1250 -91 836 529 
Q 422 1150 422 2328 
Q 422 3509 836 4129 
Q 1250 4750 2034 4750 
z
" transform="scale(0.015625)"/>
       </defs>
       <use xlink:href="#DejaVuSans-31"/>
       <use xlink:href="#DejaVuSans-30" x="63.623047"/>
       <use xlink:href="#DejaVuSans-30" x="127.246094"/>
      </g>
     </g>
    </g>
    <g id="xtick_2">
     <g id="line2d_3">
      <path d="M 241.92 256.32 
L 241.92 34.56 
" clip-path="url(#p055adc2cd4)" style="fill: none; stroke: #b0b0b0; stroke-width: 0.8; stroke-linecap: square"/>
     </g>
     <g id="line2d_4">
      <g>
       <use xlink:href="#m05cee304c3" x="241.92" y="256.32" style="stroke: #000000; stroke-width: 0.8"/>
      </g>
     </g>
     <g id="text_2">
      <!-- 120 -->
      <g transform="translate(228.55875 273.957812) scale(0.14 -0.14)">
       <defs>
        <path id="DejaVuSans-32" d="M 1228 531 
L 3431 531 
L 3431 0 
L 469 0 
L 469 531 
Q 828 903 1448 1529 
Q 2069 2156 2228 2338 
Q 2531 2678 2651 2914 
Q 2772 3150 2772 3378 
Q 2772 3750 2511 3984 
Q 2250 4219 1831 4219 
Q 1534 4219 1204 4116 
Q 875 4013 500 3803 
L 500 4441 
Q 881 4594 1212 4672 
Q 1544 4750 1819 4750 
Q 2544 4750 2975 4387 
Q 3406 4025 3406 3419 
Q 3406 3131 3298 2873 
Q 3191 2616 2906 2266 
Q 2828 2175 2409 1742 
Q 1991 1309 1228 531 
z
" transform="scale(0.015625)"/>
       </defs>
       <use xlink:href="#DejaVuSans-31"/>
       <use xlink:href="#DejaVuSans-32" x="63.623047"/>
       <use xlink:href="#DejaVuSans-30" x="127.246094"/>
      </g>
     </g>
    </g>
    <g id="xtick_3">
     <g id="line2d_5">
      <path d="M 375.84 256.32 
L 375.84 34.56 
" clip-path="url(#p055adc2cd4)" style="fill: none; stroke: #b0b0b0; stroke-width: 0.8; stroke-linecap: square"/>
     </g>
     <g id="line2d_6">
      <g>
       <use xlink:href="#m05cee304c3" x="375.84" y="256.32" style="stroke: #000000; stroke-width: 0.8"/>
      </g>
     </g>
     <g id="text_3">
      <!-- 140 -->
      <g transform="translate(362.47875 273.957812) scale(0.14 -0.14)">
       <defs>
        <path id="DejaVuSans-34" d="M 2419 4116 
L 825 1625 
L 2419 1625 
L 2419 4116 
z
M 2253 4666 
L 3047 4666 
L 3047 1625 
L 3713 1625 
L 3713 1100 
L 3047 1100 
L 3047 0 
L 2419 0 
L 2419 1100 
L 313 1100 
L 313 1709 
L 2253 4666 
z
" transform="scale(0.015625)"/>
       </defs>
       <use xlink:href="#DejaVuSans-31"/>
       <use xlink:href="#DejaVuSans-34" x="63.623047"/>
       <use xlink:href="#DejaVuSans-30" x="127.246094"/>
      </g>
     </g>
    </g>
    <g id="xtick_4">
     <g id="line2d_7">
      <path d="M 509.76 256.32 
L 509.76 34.56 
" clip-path="url(#p055adc2cd4)" style="fill: none; stroke: #b0b0b0; stroke-width: 0.8; stroke-linecap: square"/>
     </g>
     <g id="line2d_8">
      <g>
       <use xlink:href="#m05cee304c3" x="509.76" y="256.32" style="stroke: #000000; stroke-width: 0.8"/>
      </g>
     </g>
     <g id="text_4">
      <!-- 160 -->
      <g transform="translate(496.39875 273.957812) scale(0.14 -0.14)">
       <defs>
        <path id="DejaVuSans-36" d="M 2113 2584 
Q 1688 2584 1439 2293 
Q 1191 2003 1191 1497 
Q 1191 994 1439 701 
Q 1688 409 2113 409 
Q 2538 409 2786 701 
Q 3034 994 3034 1497 
Q 3034 2003 2786 2293 
Q 2538 2584 2113 2584 
z
M 3366 4563 
L 3366 3988 
Q 3128 4100 2886 4159 
Q 2644 4219 2406 4219 
Q 1781 4219 1451 3797 
Q 1122 3375 1075 2522 
Q 1259 2794 1537 2939 
Q 1816 3084 2150 3084 
Q 2853 3084 3261 2657 
Q 3669 2231 3669 1497 
Q 3669 778 3244 343 
Q 2819 -91 2113 -91 
Q 1303 -91 875 529 
Q 447 1150 447 2328 
Q 447 3434 972 4092 
Q 1497 4750 2381 4750 
Q 2619 4750 2861 4703 
Q 3103 4656 3366 4563 
z
" transform="scale(0.015625)"/>
       </defs>
       <use xlink:href="#DejaVuSans-31"/>
       <use xlink:href="#DejaVuSans-36" x="63.623047"/>
       <use xlink:href="#DejaVuSans-30" x="127.246094"/>
      </g>
     </g>
    </g>
    <g id="xtick_5">
     <g id="line2d_9">
      <path d="M 643.68 256.32 
L 643.68 34.56 
" clip-path="url(#p055adc2cd4)" style="fill: none; stroke: #b0b0b0; stroke-width: 0.8; stroke-linecap: square"/>
     </g>
     <g id="line2d_10">
      <g>
       <use xlink:href="#m05cee304c3" x="643.68" y="256.32" style="stroke: #000000; stroke-width: 0.8"/>
      </g>
     </g>
     <g id="text_5">
      <!-- 180 -->
      <g transform="translate(630.31875 273.957812) scale(0.14 -0.14)">
       <defs>
        <path id="DejaVuSans-38" d="M 2034 2216 
Q 1584 2216 1326 1975 
Q 1069 1734 1069 1313 
Q 1069 891 1326 650 
Q 1584 409 2034 409 
Q 2484 409 2743 651 
Q 3003 894 3003 1313 
Q 3003 1734 2745 1975 
Q 2488 2216 2034 2216 
z
M 1403 2484 
Q 997 2584 770 2862 
Q 544 3141 544 3541 
Q 544 4100 942 4425 
Q 1341 4750 2034 4750 
Q 2731 4750 3128 4425 
Q 3525 4100 3525 3541 
Q 3525 3141 3298 2862 
Q 3072 2584 2669 2484 
Q 3125 2378 3379 2068 
Q 3634 1759 3634 1313 
Q 3634 634 3220 271 
Q 2806 -91 2034 -91 
Q 1263 -91 848 271 
Q 434 634 434 1313 
Q 434 1759 690 2068 
Q 947 2378 1403 2484 
z
M 1172 3481 
Q 1172 3119 1398 2916 
Q 1625 2713 2034 2713 
Q 2441 2713 2670 2916 
Q 2900 3119 2900 3481 
Q 2900 3844 2670 4047 
Q 2441 4250 2034 4250 
Q 1625 4250 1398 4047 
Q 1172 3844 1172 3481 
z
" transform="scale(0.015625)"/>
       </defs>
       <use xlink:href="#DejaVuSans-31"/>
       <use xlink:href="#DejaVuSans-38" x="63.623047"/>
       <use xlink:href="#DejaVuSans-30" x="127.246094"/>
      </g>
     </g>
    </g>
    <g id="xtick_6">
     <g id="line2d_11">
      <path d="M 777.6 256.32 
L 777.6 34.56 
" clip-path="url(#p055adc2cd4)" style="fill: none; stroke: #b0b0b0; stroke-width: 0.8; stroke-linecap: square"/>
     </g>
     <g id="line2d_12">
      <g>
       <use xlink:href="#m05cee304c3" x="777.6" y="256.32" style="stroke: #000000; stroke-width: 0.8"/>
      </g>
     </g>
     <g id="text_6">
      <!-- 200 -->
      <g transform="translate(764.23875 273.957812) scale(0.14 -0.14)">
       <use xlink:href="#DejaVuSans-32"/>
       <use xlink:href="#DejaVuSans-30" x="63.623047"/>
       <use xlink:href="#DejaVuSans-30" x="127.246094"/>
      </g>
     </g>
    </g>
    <g id="text_7">
     <!-- Time (ms) -->
     <g transform="translate(407.521094 291.507187) scale(0.14 -0.14)">
      <defs>
       <path id="DejaVuSans-54" d="M -19 4666 
L 3928 4666 
L 3928 4134 
L 2272 4134 
L 2272 0 
L 1638 0 
L 1638 4134 
L -19 4134 
L -19 4666 
z
" transform="scale(0.015625)"/>
       <path id="DejaVuSans-69" d="M 603 3500 
L 1178 3500 
L 1178 0 
L 603 0 
L 603 3500 
z
M 603 4863 
L 1178 4863 
L 1178 4134 
L 603 4134 
L 603 4863 
z
" transform="scale(0.015625)"/>
       <path id="DejaVuSans-6d" d="M 3328 2828 
Q 3544 3216 3844 3400 
Q 4144 3584 4550 3584 
Q 5097 3584 5394 3201 
Q 5691 2819 5691 2113 
L 5691 0 
L 5113 0 
L 5113 2094 
Q 5113 2597 4934 2840 
Q 4756 3084 4391 3084 
Q 3944 3084 3684 2787 
Q 3425 2491 3425 1978 
L 3425 0 
L 2847 0 
L 2847 2094 
Q 2847 2600 2669 2842 
Q 2491 3084 2119 3084 
Q 1678 3084 1418 2786 
Q 1159 2488 1159 1978 
L 1159 0 
L 581 0 
L 581 3500 
L 1159 3500 
L 1159 2956 
Q 1356 3278 1631 3431 
Q 1906 3584 2284 3584 
Q 2666 3584 2933 3390 
Q 3200 3197 3328 2828 
z
" transform="scale(0.015625)"/>
       <path id="DejaVuSans-65" d="M 3597 1894 
L 3597 1613 
L 953 1613 
Q 991 1019 1311 708 
Q 1631 397 2203 397 
Q 2534 397 2845 478 
Q 3156 559 3463 722 
L 3463 178 
Q 3153 47 2828 -22 
Q 2503 -91 2169 -91 
Q 1331 -91 842 396 
Q 353 884 353 1716 
Q 353 2575 817 3079 
Q 1281 3584 2069 3584 
Q 2775 3584 3186 3129 
Q 3597 2675 3597 1894 
z
M 3022 2063 
Q 3016 2534 2758 2815 
Q 2500 3097 2075 3097 
Q 1594 3097 1305 2825 
Q 1016 2553 972 2059 
L 3022 2063 
z
" transform="scale(0.015625)"/>
       <path id="DejaVuSans-20" transform="scale(0.015625)"/>
       <path id="DejaVuSans-28" d="M 1984 4856 
Q 1566 4138 1362 3434 
Q 1159 2731 1159 2009 
Q 1159 1288 1364 580 
Q 1569 -128 1984 -844 
L 1484 -844 
Q 1016 -109 783 600 
Q 550 1309 550 2009 
Q 550 2706 781 3412 
Q 1013 4119 1484 4856 
L 1984 4856 
z
" transform="scale(0.015625)"/>
       <path id="DejaVuSans-73" d="M 2834 3397 
L 2834 2853 
Q 2591 2978 2328 3040 
Q 2066 3103 1784 3103 
Q 1356 3103 1142 2972 
Q 928 2841 928 2578 
Q 928 2378 1081 2264 
Q 1234 2150 1697 2047 
L 1894 2003 
Q 2506 1872 2764 1633 
Q 3022 1394 3022 966 
Q 3022 478 2636 193 
Q 2250 -91 1575 -91 
Q 1294 -91 989 -36 
Q 684 19 347 128 
L 347 722 
Q 666 556 975 473 
Q 1284 391 1588 391 
Q 1994 391 2212 530 
Q 2431 669 2431 922 
Q 2431 1156 2273 1281 
Q 2116 1406 1581 1522 
L 1381 1569 
Q 847 1681 609 1914 
Q 372 2147 372 2553 
Q 372 3047 722 3315 
Q 1072 3584 1716 3584 
Q 2034 3584 2315 3537 
Q 2597 3491 2834 3397 
z
" transform="scale(0.015625)"/>
       <path id="DejaVuSans-29" d="M 513 4856 
L 1013 4856 
Q 1481 4119 1714 3412 
Q 1947 2706 1947 2009 
Q 1947 1309 1714 600 
Q 1481 -109 1013 -844 
L 513 -844 
Q 928 -128 1133 580 
Q 1338 1288 1338 2009 
Q 1338 2731 1133 3434 
Q 928 4138 513 4856 
z
" transform="scale(0.015625)"/>
      </defs>
      <use xlink:href="#DejaVuSans-54"/>
      <use xlink:href="#DejaVuSans-69" x="57.958984"/>
      <use xlink:href="#DejaVuSans-6d" x="85.742188"/>
      <use xlink:href="#DejaVuSans-65" x="183.154297"/>
      <use xlink:href="#DejaVuSans-20" x="244.677734"/>
      <use xlink:href="#DejaVuSans-28" x="276.464844"/>
      <use xlink:href="#DejaVuSans-6d" x="315.478516"/>
      <use xlink:href="#DejaVuSans-73" x="412.890625"/>
      <use xlink:href="#DejaVuSans-29" x="464.990234"/>
     </g>
    </g>
   </g>
   <g id="matplotlib.axis_2">
    <g id="ytick_1">
     <g id="line2d_13">
      <path d="M 108 225.336789 
L 777.6 225.336789 
" clip-path="url(#p055adc2cd4)" style="fill: none; stroke: #b0b0b0; stroke-width: 0.8; stroke-linecap: square"/>
     </g>
     <g id="line2d_14">
      <defs>
       <path id="m3acfa847e0" d="M 0 0 
L -3.5 0 
" style="stroke: #000000; stroke-width: 0.8"/>
      </defs>
      <g>
       <use xlink:href="#m3acfa847e0" x="108" y="225.336789" style="stroke: #000000; stroke-width: 0.8"/>
      </g>
     </g>
     <g id="text_8">
      <!-- −60 -->
      <g transform="translate(71.453437 230.655696) scale(0.14 -0.14)">
       <defs>
        <path id="DejaVuSans-2212" d="M 678 2272 
L 4684 2272 
L 4684 1741 
L 678 1741 
L 678 2272 
z
" transform="scale(0.015625)"/>
       </defs>
       <use xlink:href="#DejaVuSans-2212"/>
       <use xlink:href="#DejaVuSans-36" x="83.789062"/>
       <use xlink:href="#DejaVuSans-30" x="147.412109"/>
      </g>
     </g>
    </g>
    <g id="ytick_2">
     <g id="line2d_15">
      <path d="M 108 183.596983 
L 777.6 183.596983 
" clip-path="url(#p055adc2cd4)" style="fill: none; stroke: #b0b0b0; stroke-width: 0.8; stroke-linecap: square"/>
     </g>
     <g id="line2d_16">
      <g>
       <use xlink:href="#m3acfa847e0" x="108" y="183.596983" style="stroke: #000000; stroke-width: 0.8"/>
      </g>
     </g>
     <g id="text_9">
      <!-- −40 -->
      <g transform="translate(71.453437 188.915889) scale(0.14 -0.14)">
       <use xlink:href="#DejaVuSans-2212"/>
       <use xlink:href="#DejaVuSans-34" x="83.789062"/>
       <use xlink:href="#DejaVuSans-30" x="147.412109"/>
      </g>
     </g>
    </g>
    <g id="ytick_3">
     <g id="line2d_17">
      <path d="M 108 141.857177 
L 777.6 141.857177 
" clip-path="url(#p055adc2cd4)" style="fill: none; stroke: #b0b0b0; stroke-width: 0.8; stroke-linecap: square"/>
     </g>
     <g id="line2d_18">
      <g>
       <use xlink:href="#m3acfa847e0" x="108" y="141.857177" style="stroke: #000000; stroke-width: 0.8"/>
      </g>
     </g>
     <g id="text_10">
      <!-- −20 -->
      <g transform="translate(71.453437 147.176083) scale(0.14 -0.14)">
       <use xlink:href="#DejaVuSans-2212"/>
       <use xlink:href="#DejaVuSans-32" x="83.789062"/>
       <use xlink:href="#DejaVuSans-30" x="147.412109"/>
      </g>
     </g>
    </g>
    <g id="ytick_4">
     <g id="line2d_19">
      <path d="M 108 100.117371 
L 777.6 100.117371 
" clip-path="url(#p055adc2cd4)" style="fill: none; stroke: #b0b0b0; stroke-width: 0.8; stroke-linecap: square"/>
     </g>
     <g id="line2d_20">
      <g>
       <use xlink:href="#m3acfa847e0" x="108" y="100.117371" style="stroke: #000000; stroke-width: 0.8"/>
      </g>
     </g>
     <g id="text_11">
      <!-- 0 -->
      <g transform="translate(92.0925 105.436277) scale(0.14 -0.14)">
       <use xlink:href="#DejaVuSans-30"/>
      </g>
     </g>
    </g>
    <g id="ytick_5">
     <g id="line2d_21">
      <path d="M 108 58.377564 
L 777.6 58.377564 
" clip-path="url(#p055adc2cd4)" style="fill: none; stroke: #b0b0b0; stroke-width: 0.8; stroke-linecap: square"/>
     </g>
     <g id="line2d_22">
      <g>
       <use xlink:href="#m3acfa847e0" x="108" y="58.377564" style="stroke: #000000; stroke-width: 0.8"/>
      </g>
     </g>
     <g id="text_12">
      <!-- 20 -->
      <g transform="translate(83.185 63.696471) scale(0.14 -0.14)">
       <use xlink:href="#DejaVuSans-32"/>
       <use xlink:href="#DejaVuSans-30" x="63.623047"/>
      </g>
     </g>
    </g>
    <g id="text_13">
     <!-- $V_{m}$ (mV) -->
     <g transform="translate(64.541875 174.49) rotate(-90) scale(0.14 -0.14)">
      <defs>
       <path id="DejaVuSans-Oblique-56" d="M 1319 0 
L 500 4666 
L 1119 4666 
L 1797 653 
L 4063 4666 
L 4750 4666 
L 2053 0 
L 1319 0 
z
" transform="scale(0.015625)"/>
       <path id="DejaVuSans-Oblique-6d" d="M 5747 2113 
L 5338 0 
L 4763 0 
L 5166 2094 
Q 5191 2228 5203 2325 
Q 5216 2422 5216 2491 
Q 5216 2772 5059 2928 
Q 4903 3084 4622 3084 
Q 4203 3084 3875 2770 
Q 3547 2456 3450 1953 
L 3066 0 
L 2491 0 
L 2900 2094 
Q 2925 2209 2937 2307 
Q 2950 2406 2950 2484 
Q 2950 2769 2794 2926 
Q 2638 3084 2363 3084 
Q 1938 3084 1609 2770 
Q 1281 2456 1184 1953 
L 800 0 
L 225 0 
L 909 3500 
L 1484 3500 
L 1375 2956 
Q 1609 3263 1923 3423 
Q 2238 3584 2597 3584 
Q 2978 3584 3223 3384 
Q 3469 3184 3519 2828 
Q 3781 3197 4126 3390 
Q 4472 3584 4856 3584 
Q 5306 3584 5551 3325 
Q 5797 3066 5797 2591 
Q 5797 2488 5784 2364 
Q 5772 2241 5747 2113 
z
" transform="scale(0.015625)"/>
       <path id="DejaVuSans-56" d="M 1831 0 
L 50 4666 
L 709 4666 
L 2188 738 
L 3669 4666 
L 4325 4666 
L 2547 0 
L 1831 0 
z
" transform="scale(0.015625)"/>
      </defs>
      <use xlink:href="#DejaVuSans-Oblique-56" transform="translate(0 0.125)"/>
      <use xlink:href="#DejaVuSans-Oblique-6d" transform="translate(68.408203 -16.28125) scale(0.7)"/>
      <use xlink:href="#DejaVuSans-20" transform="translate(139.331055 0.125)"/>
      <use xlink:href="#DejaVuSans-28" transform="translate(171.118164 0.125)"/>
      <use xlink:href="#DejaVuSans-6d" transform="translate(210.131836 0.125)"/>
      <use xlink:href="#DejaVuSans-56" transform="translate(307.543945 0.125)"/>
      <use xlink:href="#DejaVuSans-29" transform="translate(375.952148 0.125)"/>
     </g>
    </g>
   </g>
   <g id="line2d_23">
    <path d="M 108 223.681675 
L 109.3392 224.261122 
L 112.0176 226.409322 
L 112.6872 226.73029 
L 114.0264 227.744398 
L 115.3656 228.241718 
L 116.7048 228.518745 
L 119.3832 230.151795 
L 120.0528 230.379031 
L 121.392 231.191809 
L 122.7312 231.539342 
L 124.74 231.727108 
L 127.4184 232.9935 
L 128.7576 233.760728 
L 130.0968 234.039213 
L 130.7664 234.09791 
L 132.7752 235.877859 
L 134.1144 236.292271 
L 136.1232 236.492217 
L 136.7928 236.501336 
L 138.132 236.944365 
L 139.4712 237.041125 
L 141.48 236.941425 
L 144.1584 236.582534 
L 147.5064 235.887593 
L 148.8456 235.54818 
L 150.1848 235.695389 
L 151.524 235.527223 
L 154.2024 234.89443 
L 157.5504 233.872656 
L 161.568 232.427506 
L 166.2552 230.510835 
L 171.612 228.079451 
L 177.6384 225.10356 
L 185.004 221.211981 
L 195.048 215.632358 
L 196.3872 214.875556 
L 197.7264 214.969517 
L 199.0656 214.637346 
L 201.744 213.597054 
L 203.7528 212.624801 
L 210.4488 208.677643 
L 213.7968 206.581268 
L 214.4664 206.645582 
L 215.136 207.197439 
L 215.8056 207.585674 
L 216.4752 207.752049 
L 217.8144 207.761613 
L 218.484 208.171274 
L 219.1536 208.998447 
L 219.8232 209.590703 
L 220.4928 209.924054 
L 221.832 210.22548 
L 223.1712 211.165719 
L 224.5104 211.516646 
L 225.8496 211.598541 
L 227.8584 211.479769 
L 230.5368 211.054381 
L 233.8848 210.248151 
L 234.5544 210.53584 
L 235.224 211.233889 
L 235.8936 211.707265 
L 236.5632 211.943949 
L 237.9024 212.966316 
L 238.572 213.210554 
L 239.2416 213.795778 
L 241.2504 216.466911 
L 241.92 217.735538 
L 242.5896 218.71499 
L 243.2592 220.095877 
L 243.9288 221.145632 
L 244.5984 221.815169 
L 247.9464 224.238862 
L 249.2856 224.728552 
L 251.2944 225.148064 
L 251.964 225.231144 
L 253.3032 225.969878 
L 253.9728 226.15561 
L 255.312 226.969778 
L 256.6512 227.304006 
L 257.3208 227.388521 
L 258.66 228.07751 
L 259.9992 228.332836 
L 261.3384 229.590357 
L 262.008 229.89015 
L 263.3472 230.760772 
L 264.6864 231.12295 
L 266.6952 231.307422 
L 267.3648 231.316039 
L 270.0432 232.519228 
L 271.3824 233.268279 
L 272.7216 233.525585 
L 274.7304 233.581574 
L 276.7392 233.443303 
L 280.0872 234.439828 
L 282.096 234.395224 
L 284.7744 234.036886 
L 286.1136 234.312515 
L 287.4528 234.249091 
L 290.1312 233.790639 
L 292.14 233.311828 
L 293.4792 233.497308 
L 294.8184 233.348542 
L 297.4968 232.735216 
L 299.5056 232.154085 
L 300.8448 232.298556 
L 302.184 232.104932 
L 304.8624 231.404359 
L 308.88 230.060175 
L 313.5672 228.230242 
L 318.924 225.898212 
L 325.62 222.730129 
L 332.316 219.371277 
L 333.6552 219.462945 
L 334.9944 219.150519 
L 337.0032 218.399426 
L 339.6816 216.91059 
L 357.0912 206.667355 
L 359.7696 204.709664 
L 361.1088 203.530019 
L 363.1176 204.666673 
L 363.7872 205.309632 
L 364.4568 206.388234 
L 365.1264 207.742881 
L 365.796 208.760657 
L 366.4656 209.421642 
L 367.1352 210.336948 
L 367.8048 211.058719 
L 368.4744 211.522802 
L 370.4832 213.740963 
L 371.1528 214.810963 
L 373.1616 217.183442 
L 374.5008 217.979099 
L 375.84 218.43603 
L 377.8488 218.8027 
L 379.188 218.906239 
L 380.5272 219.66287 
L 381.1968 219.841689 
L 381.8664 220.33703 
L 383.8752 223.835337 
L 385.884 226.110272 
L 387.2232 226.873395 
L 388.5624 227.334147 
L 390.5712 227.732096 
L 391.9104 229.053178 
L 393.2496 229.605832 
L 394.5888 229.871789 
L 395.928 230.00295 
L 397.2672 231.17652 
L 397.9368 231.454652 
L 399.276 233.100759 
L 399.9456 233.949233 
L 400.6152 234.517389 
L 401.9544 235.125484 
L 403.2936 235.451106 
L 405.3024 235.679877 
L 406.6416 235.716428 
L 407.9808 236.176812 
L 409.32 236.291432 
L 411.3288 236.219961 
L 412.668 236.085461 
L 414.0072 236.397248 
L 415.3464 236.380981 
L 418.0248 236.021813 
L 421.3728 235.293406 
L 425.3904 234.145234 
L 429.408 232.765639 
L 434.0952 230.920763 
L 434.7648 230.639293 
L 436.104 230.666739 
L 437.4432 230.357476 
L 440.1216 229.440393 
L 444.1392 227.81383 
L 449.496 225.391303 
L 456.192 222.095515 
L 464.8968 217.534414 
L 470.9232 214.238263 
L 472.2624 214.21348 
L 472.932 214.460791 
L 473.6016 214.58166 
L 474.9408 214.377773 
L 476.28 213.977657 
L 477.6192 214.350934 
L 478.2888 214.338698 
L 479.628 214.950428 
L 480.9672 215.010983 
L 482.976 214.72311 
L 485.6544 214.054405 
L 489.0024 212.973641 
L 490.3416 212.488833 
L 491.6808 212.850758 
L 493.02 212.756376 
L 494.3592 213.33586 
L 495.0288 213.408637 
L 495.6984 214.29308 
L 497.0376 216.574911 
L 497.7072 217.339853 
L 498.3768 217.804491 
L 499.716 219.075852 
L 501.0552 219.667789 
L 502.3944 219.967646 
L 503.064 220.055292 
L 503.7336 220.504466 
L 504.4032 221.246087 
L 505.0728 221.760611 
L 505.7424 222.06108 
L 507.0816 223.07194 
L 508.4208 223.517804 
L 509.76 223.726977 
L 510.4296 224.503826 
L 511.0992 225.473574 
L 511.7688 226.101893 
L 513.108 226.73571 
L 513.7776 226.920516 
L 514.4472 227.392212 
L 515.7864 229.483149 
L 517.1256 230.914548 
L 517.7952 231.762848 
L 518.4648 232.365062 
L 519.804 233.052514 
L 521.1432 233.454111 
L 522.4824 233.70157 
L 523.152 234.067269 
L 525.1608 235.739483 
L 526.5 236.185682 
L 527.8392 236.401118 
L 529.1784 236.97431 
L 530.5176 237.180982 
L 532.5264 237.223865 
L 535.2048 237.02562 
L 536.544 237.33073 
L 537.8832 237.315016 
L 538.5528 237.253587 
L 541.2312 238.002394 
L 542.5704 238.044345 
L 544.5792 237.845854 
L 547.2576 237.358078 
L 550.6056 236.519334 
L 554.6232 235.264764 
L 559.3104 233.533072 
L 563.9976 231.56837 
L 569.3544 229.091375 
L 575.3808 226.06796 
L 582.7464 222.11582 
L 592.7904 216.4405 
L 604.1736 209.796839 
L 606.1824 208.416931 
L 609.5304 205.829739 
L 610.8696 205.763121 
L 612.2088 205.326591 
L 613.548 204.645374 
L 615.5568 203.298503 
L 616.896 202.054368 
L 617.5656 201.24104 
L 618.2352 200.224246 
L 618.9048 198.727363 
L 619.5744 196.160316 
L 620.244 188.90059 
L 620.9136 151.024393 
L 621.5832 56.207513 
L 622.2528 66.867011 
L 622.9224 88.462361 
L 624.2616 116.104987 
L 625.6008 138.579853 
L 627.6096 167.953574 
L 629.6184 194.062992 
L 630.288 200.522263 
L 630.9576 204.748775 
L 631.6272 207.50972 
L 632.2968 209.442137 
L 632.9664 210.873815 
L 636.984 217.30801 
L 637.6536 218.240448 
L 638.3232 218.933774 
L 638.9928 219.382347 
L 640.332 219.912747 
L 641.6712 220.155159 
L 642.3408 220.200972 
L 643.0104 221.339368 
L 644.3496 224.945715 
L 645.0192 225.950206 
L 645.6888 226.577834 
L 647.028 227.350182 
L 647.6976 227.605086 
L 649.7064 230.066982 
L 650.376 230.77577 
L 651.7152 231.949102 
L 652.3848 232.724186 
L 653.0544 233.274097 
L 654.3936 233.894914 
L 655.7328 234.254165 
L 656.4024 234.653793 
L 657.072 235.240916 
L 657.7416 235.6482 
L 659.0808 236.06141 
L 661.0896 236.323139 
L 663.0984 236.369278 
L 663.768 236.349844 
L 665.1072 236.752823 
L 666.4464 236.822847 
L 668.4552 236.698264 
L 669.1248 236.890833 
L 669.7944 237.284572 
L 670.464 237.521142 
L 671.8032 237.636784 
L 673.812 237.516233 
L 674.4816 237.43616 
L 675.8208 238.182755 
L 677.16 238.334485 
L 679.1688 238.206964 
L 681.8472 237.77882 
L 685.1952 236.996891 
L 689.2128 235.798854 
L 693.2304 234.379016 
L 697.9176 232.495493 
L 703.2744 230.098159 
L 709.3008 227.150791 
L 716.6664 223.274953 
L 723.3624 219.572852 
L 724.7016 219.598265 
L 726.0408 219.222434 
L 728.7192 218.129264 
L 734.076 215.619564 
L 736.7544 214.302381 
L 738.0936 214.49099 
L 739.4328 214.15211 
L 740.1024 213.880962 
L 741.4416 214.126518 
L 742.7808 213.908137 
L 745.4592 213.072551 
L 749.4768 211.516012 
L 754.8336 209.152937 
L 756.8424 208.204544 
L 758.1816 209.445703 
L 758.8512 209.6917 
L 759.5208 209.7833 
L 762.1992 211.772845 
L 763.5384 212.17658 
L 764.8776 212.280592 
L 766.2168 212.236754 
L 767.556 212.952268 
L 768.2256 213.094775 
L 770.904 215.111195 
L 772.2432 215.547539 
L 773.5824 215.707939 
L 774.9216 215.730768 
L 775.5912 216.135793 
L 776.2608 216.875435 
L 777.6 218.81266 
L 777.6 218.81266 
" clip-path="url(#p055adc2cd4)" style="fill: none; stroke: #000000; stroke-width: 1.5; stroke-linecap: square"/>
   </g>
   <g id="line2d_24">
    <path d="M 108 134.104187 
L 112.0176 135.314696 
L 118.7136 137.208166 
L 130.7664 140.798164 
L 132.7752 141.535444 
L 136.7928 143.094096 
L 144.828 145.811506 
L 152.8632 148.332351 
L 162.9072 151.685504 
L 174.2904 155.571808 
L 186.3432 159.962993 
L 195.048 163.046824 
L 197.7264 163.979614 
L 200.4048 165.289856 
L 202.4136 166.348555 
L 203.0832 145.842209 
L 203.7528 141.739403 
L 204.4224 139.399306 
L 205.092 138.027417 
L 205.7616 137.138669 
L 207.1008 136.03219 
L 209.1096 134.954397 
L 214.4664 132.472214 
L 215.8056 132.028104 
L 218.484 131.487354 
L 220.4928 131.348981 
L 225.8496 131.36885 
L 231.2064 131.253322 
L 235.224 131.179308 
L 237.2328 131.396607 
L 239.9112 131.880694 
L 241.92 132.467532 
L 243.9288 133.274938 
L 246.6072 134.359696 
L 249.2856 135.252275 
L 252.6336 136.095135 
L 257.9904 137.491672 
L 262.008 138.663413 
L 267.3648 140.450039 
L 270.7128 141.530781 
L 276.0696 143.451993 
L 279.4176 144.58856 
L 291.4704 149.202932 
L 294.1488 150.292879 
L 300.8448 153.401356 
L 304.1928 155.299803 
L 308.88 158.178473 
L 312.8976 160.893479 
L 316.2456 163.395854 
L 319.5936 166.143975 
L 323.6112 169.72869 
L 330.3072 175.781758 
L 335.664 180.071678 
L 336.3336 180.598832 
L 337.0032 154.092823 
L 337.6728 147.134456 
L 338.3424 143.512748 
L 339.012 141.368498 
L 339.6816 139.95468 
L 340.3512 138.949136 
L 341.6904 137.576064 
L 343.0296 136.603044 
L 345.708 135.063404 
L 349.056 133.460524 
L 351.7344 132.403189 
L 355.0824 131.338313 
L 359.1 130.332234 
L 362.448 129.679109 
L 363.7872 129.639004 
L 365.1264 129.794981 
L 367.8048 130.505682 
L 373.1616 132.133957 
L 375.84 132.928769 
L 378.5184 133.476469 
L 381.8664 134.086845 
L 383.2056 134.464912 
L 385.884 135.57144 
L 388.5624 136.603271 
L 399.9456 140.333797 
L 403.9632 142.183387 
L 407.9808 143.660491 
L 418.6944 147.50966 
L 428.0688 150.686378 
L 436.104 153.479941 
L 439.452 155.022341 
L 446.148 158.369232 
L 451.5048 161.282723 
L 457.5312 164.819555 
L 465.5664 169.565642 
L 468.9144 171.299623 
L 470.2536 171.915101 
L 470.9232 148.778846 
L 471.5928 143.705549 
L 472.2624 140.886268 
L 472.932 139.244531 
L 473.6016 138.204489 
L 474.2712 137.500925 
L 475.6104 136.592383 
L 477.6192 135.699376 
L 480.2976 134.839239 
L 489.0024 132.486272 
L 491.6808 131.988611 
L 494.3592 131.770961 
L 496.368 131.828515 
L 498.3768 132.223881 
L 502.3944 133.063056 
L 505.7424 133.633025 
L 512.4384 135.14432 
L 516.456 136.359371 
L 521.8128 138.3914 
L 525.8304 139.695527 
L 529.848 141.029376 
L 533.8656 142.203045 
L 539.892 143.863197 
L 552.6144 147.834357 
L 591.4512 158.564182 
L 598.1472 160.171015 
L 602.8344 161.094456 
L 604.1736 161.314934 
L 604.8432 143.175094 
L 605.5128 139.695043 
L 606.1824 137.670315 
L 606.852 136.475576 
L 607.5216 135.694061 
L 608.8608 134.690899 
L 610.8696 133.685644 
L 618.9048 130.321158 
L 619.5744 129.931082 
L 620.244 129.351121 
L 620.9136 127.736457 
L 622.9224 114.039552 
L 623.592 111.781122 
L 624.2616 110.901326 
L 624.9312 110.97848 
L 625.6008 111.675161 
L 626.2704 112.762284 
L 627.6096 115.573521 
L 631.6272 125.026577 
L 632.9664 127.233624 
L 634.3056 128.793103 
L 635.6448 129.940951 
L 637.6536 131.272627 
L 639.6624 132.287617 
L 641.6712 132.988092 
L 643.68 133.583449 
L 651.7152 136.984111 
L 655.7328 138.536565 
L 663.0984 140.857293 
L 669.7944 142.638042 
L 676.4904 144.787827 
L 681.8472 146.668786 
L 689.2128 148.933087 
L 706.6224 154.23821 
L 719.3448 158.406245 
L 724.7016 160.241681 
L 727.38 161.552899 
L 738.0936 167.279864 
L 738.7632 146.370742 
L 739.4328 142.177941 
L 740.1024 139.81249 
L 740.772 138.45427 
L 741.4416 137.61054 
L 742.1112 137.04946 
L 743.4504 136.326884 
L 750.816 133.385851 
L 754.164 132.210296 
L 756.8424 131.444242 
L 758.1816 131.204803 
L 760.1904 131.087769 
L 762.1992 131.15587 
L 766.8864 131.42515 
L 769.5648 131.644669 
L 776.9304 132.733823 
L 777.6 132.90105 
L 777.6 132.90105 
" clip-path="url(#p055adc2cd4)" style="fill: none; stroke: #4169e1; stroke-width: 1.5; stroke-linecap: square"/>
   </g>
   <g id="patch_3">
    <path d="M 108 256.32 
L 108 34.56 
" style="fill: none; stroke: #000000; stroke-width: 0.8; stroke-linejoin: miter; stroke-linecap: square"/>
   </g>
   <g id="patch_4">
    <path d="M 777.6 256.32 
L 777.6 34.56 
" style="fill: none; stroke: #000000; stroke-width: 0.8; stroke-linejoin: miter; stroke-linecap: square"/>
   </g>
   <g id="patch_5">
    <path d="M 108 256.32 
L 777.6 256.32 
" style="fill: none; stroke: #000000; stroke-width: 0.8; stroke-linejoin: miter; stroke-linecap: square"/>
   </g>
   <g id="patch_6">
    <path d="M 108 34.56 
L 777.6 34.56 
" style="fill: none; stroke: #000000; stroke-width: 0.8; stroke-linejoin: miter; stroke-linecap: square"/>
   </g>
   <g id="legend_1">
    <g id="patch_7">
     <path d="M 695.098438 71.91625 
L 770.6 71.91625 
Q 772.6 71.91625 772.6 69.91625 
L 772.6 41.56 
Q 772.6 39.56 770.6 39.56 
L 695.098438 39.56 
Q 693.098438 39.56 693.098438 41.56 
L 693.098438 69.91625 
Q 693.098438 71.91625 695.098438 71.91625 
z
" style="fill: #ffffff; opacity: 0.8; stroke: #cccccc; stroke-linejoin: miter"/>
    </g>
    <g id="line2d_25">
     <path d="M 697.098438 47.658437 
L 707.098438 47.658437 
L 717.098438 47.658437 
" style="fill: none; stroke: #000000; stroke-width: 1.5; stroke-linecap: square"/>
    </g>
    <g id="text_14">
     <!-- Soma -->
     <g transform="translate(725.098438 51.158437) scale(0.1 -0.1)">
      <defs>
       <path id="DejaVuSans-53" d="M 3425 4513 
L 3425 3897 
Q 3066 4069 2747 4153 
Q 2428 4238 2131 4238 
Q 1616 4238 1336 4038 
Q 1056 3838 1056 3469 
Q 1056 3159 1242 3001 
Q 1428 2844 1947 2747 
L 2328 2669 
Q 3034 2534 3370 2195 
Q 3706 1856 3706 1288 
Q 3706 609 3251 259 
Q 2797 -91 1919 -91 
Q 1588 -91 1214 -16 
Q 841 59 441 206 
L 441 856 
Q 825 641 1194 531 
Q 1563 422 1919 422 
Q 2459 422 2753 634 
Q 3047 847 3047 1241 
Q 3047 1584 2836 1778 
Q 2625 1972 2144 2069 
L 1759 2144 
Q 1053 2284 737 2584 
Q 422 2884 422 3419 
Q 422 4038 858 4394 
Q 1294 4750 2059 4750 
Q 2388 4750 2728 4690 
Q 3069 4631 3425 4513 
z
" transform="scale(0.015625)"/>
       <path id="DejaVuSans-6f" d="M 1959 3097 
Q 1497 3097 1228 2736 
Q 959 2375 959 1747 
Q 959 1119 1226 758 
Q 1494 397 1959 397 
Q 2419 397 2687 759 
Q 2956 1122 2956 1747 
Q 2956 2369 2687 2733 
Q 2419 3097 1959 3097 
z
M 1959 3584 
Q 2709 3584 3137 3096 
Q 3566 2609 3566 1747 
Q 3566 888 3137 398 
Q 2709 -91 1959 -91 
Q 1206 -91 779 398 
Q 353 888 353 1747 
Q 353 2609 779 3096 
Q 1206 3584 1959 3584 
z
" transform="scale(0.015625)"/>
       <path id="DejaVuSans-61" d="M 2194 1759 
Q 1497 1759 1228 1600 
Q 959 1441 959 1056 
Q 959 750 1161 570 
Q 1363 391 1709 391 
Q 2188 391 2477 730 
Q 2766 1069 2766 1631 
L 2766 1759 
L 2194 1759 
z
M 3341 1997 
L 3341 0 
L 2766 0 
L 2766 531 
Q 2569 213 2275 61 
Q 1981 -91 1556 -91 
Q 1019 -91 701 211 
Q 384 513 384 1019 
Q 384 1609 779 1909 
Q 1175 2209 1959 2209 
L 2766 2209 
L 2766 2266 
Q 2766 2663 2505 2880 
Q 2244 3097 1772 3097 
Q 1472 3097 1187 3025 
Q 903 2953 641 2809 
L 641 3341 
Q 956 3463 1253 3523 
Q 1550 3584 1831 3584 
Q 2591 3584 2966 3190 
Q 3341 2797 3341 1997 
z
" transform="scale(0.015625)"/>
      </defs>
      <use xlink:href="#DejaVuSans-53"/>
      <use xlink:href="#DejaVuSans-6f" x="63.476562"/>
      <use xlink:href="#DejaVuSans-6d" x="124.658203"/>
      <use xlink:href="#DejaVuSans-61" x="222.070312"/>
     </g>
    </g>
    <g id="line2d_26">
     <path d="M 697.098438 62.336562 
L 707.098438 62.336562 
L 717.098438 62.336562 
" style="fill: none; stroke: #4169e1; stroke-width: 1.5; stroke-linecap: square"/>
    </g>
    <g id="text_15">
     <!-- Dendrite -->
     <g transform="translate(725.098438 65.836562) scale(0.1 -0.1)">
      <defs>
       <path id="DejaVuSans-44" d="M 1259 4147 
L 1259 519 
L 2022 519 
Q 2988 519 3436 956 
Q 3884 1394 3884 2338 
Q 3884 3275 3436 3711 
Q 2988 4147 2022 4147 
L 1259 4147 
z
M 628 4666 
L 1925 4666 
Q 3281 4666 3915 4102 
Q 4550 3538 4550 2338 
Q 4550 1131 3912 565 
Q 3275 0 1925 0 
L 628 0 
L 628 4666 
z
" transform="scale(0.015625)"/>
       <path id="DejaVuSans-6e" d="M 3513 2113 
L 3513 0 
L 2938 0 
L 2938 2094 
Q 2938 2591 2744 2837 
Q 2550 3084 2163 3084 
Q 1697 3084 1428 2787 
Q 1159 2491 1159 1978 
L 1159 0 
L 581 0 
L 581 3500 
L 1159 3500 
L 1159 2956 
Q 1366 3272 1645 3428 
Q 1925 3584 2291 3584 
Q 2894 3584 3203 3211 
Q 3513 2838 3513 2113 
z
" transform="scale(0.015625)"/>
       <path id="DejaVuSans-64" d="M 2906 2969 
L 2906 4863 
L 3481 4863 
L 3481 0 
L 2906 0 
L 2906 525 
Q 2725 213 2448 61 
Q 2172 -91 1784 -91 
Q 1150 -91 751 415 
Q 353 922 353 1747 
Q 353 2572 751 3078 
Q 1150 3584 1784 3584 
Q 2172 3584 2448 3432 
Q 2725 3281 2906 2969 
z
M 947 1747 
Q 947 1113 1208 752 
Q 1469 391 1925 391 
Q 2381 391 2643 752 
Q 2906 1113 2906 1747 
Q 2906 2381 2643 2742 
Q 2381 3103 1925 3103 
Q 1469 3103 1208 2742 
Q 947 2381 947 1747 
z
" transform="scale(0.015625)"/>
       <path id="DejaVuSans-72" d="M 2631 2963 
Q 2534 3019 2420 3045 
Q 2306 3072 2169 3072 
Q 1681 3072 1420 2755 
Q 1159 2438 1159 1844 
L 1159 0 
L 581 0 
L 581 3500 
L 1159 3500 
L 1159 2956 
Q 1341 3275 1631 3429 
Q 1922 3584 2338 3584 
Q 2397 3584 2469 3576 
Q 2541 3569 2628 3553 
L 2631 2963 
z
" transform="scale(0.015625)"/>
       <path id="DejaVuSans-74" d="M 1172 4494 
L 1172 3500 
L 2356 3500 
L 2356 3053 
L 1172 3053 
L 1172 1153 
Q 1172 725 1289 603 
Q 1406 481 1766 481 
L 2356 481 
L 2356 0 
L 1766 0 
Q 1100 0 847 248 
Q 594 497 594 1153 
L 594 3053 
L 172 3053 
L 172 3500 
L 594 3500 
L 594 4494 
L 1172 4494 
z
" transform="scale(0.015625)"/>
      </defs>
      <use xlink:href="#DejaVuSans-44"/>
      <use xlink:href="#DejaVuSans-65" x="77.001953"/>
      <use xlink:href="#DejaVuSans-6e" x="138.525391"/>
      <use xlink:href="#DejaVuSans-64" x="201.904297"/>
      <use xlink:href="#DejaVuSans-72" x="265.380859"/>
      <use xlink:href="#DejaVuSans-69" x="306.494141"/>
      <use xlink:href="#DejaVuSans-74" x="334.277344"/>
      <use xlink:href="#DejaVuSans-65" x="373.486328"/>
     </g>
    </g>
   </g>
  </g>
 </g>
 <defs>
  <clipPath id="p055adc2cd4">
   <rect x="108" y="34.56" width="669.6" height="221.76"/>
  </clipPath>
 </defs>
</svg>
