<?xml version="1.0" encoding="utf-8" standalone="no"?>
<!DOCTYPE svg PUBLIC "-//W3C//DTD SVG 1.1//EN"
  "http://www.w3.org/Graphics/SVG/1.1/DTD/svg11.dtd">
<svg xmlns:xlink="http://www.w3.org/1999/xlink" width="864pt" height="288pt" viewBox="0 0 864 288" xmlns="http://www.w3.org/2000/svg" version="1.1">
 <metadata>
  <rdf:RDF xmlns:dc="http://purl.org/dc/elements/1.1/" xmlns:cc="http://creativecommons.org/ns#" xmlns:rdf="http://www.w3.org/1999/02/22-rdf-syntax-ns#">
   <cc:Work>
    <dc:type rdf:resource="http://purl.org/dc/dcmitype/StillImage"/>
    <dc:date>2024-04-26T13:29:18.478374</dc:date>
    <dc:format>image/svg+xml</dc:format>
    <dc:creator>
     <cc:Agent>
      <dc:title>Matplotlib v3.8.2, https://matplotlib.org/</dc:title>
     </cc:Agent>
    </dc:creator>
   </cc:Work>
  </rdf:RDF>
 </metadata>
 <defs>
  <style type="text/css">*{stroke-linejoin: round; stroke-linecap: butt}</style>
 </defs>
 <g id="figure_1">
  <g id="patch_1">
   <path d="M 0 288 
L 864 288 
L 864 0 
L 0 0 
z
" style="fill: #ffffff"/>
  </g>
  <g id="axes_1">
   <g id="patch_2">
    <path d="M 108 256.32 
L 777.6 256.32 
L 777.6 34.56 
L 108 34.56 
z
" style="fill: #ffffff"/>
   </g>
   <g id="matplotlib.axis_1">
    <g id="xtick_1">
     <g id="line2d_1">
      <path d="M 108 256.32 
L 108 34.56 
" clip-path="url(#p49424e39c4)" style="fill: none; stroke: #b0b0b0; stroke-width: 0.8; stroke-linecap: square"/>
     </g>
     <g id="line2d_2">
      <defs>
       <path id="m02e2c7d5ef" d="M 0 0 
L 0 3.5 
" style="stroke: #000000; stroke-width: 0.8"/>
      </defs>
      <g>
       <use xlink:href="#m02e2c7d5ef" x="108" y="256.32" style="stroke: #000000; stroke-width: 0.8"/>
      </g>
     </g>
     <g id="text_1">
      <!-- 100 -->
      <g transform="translate(94.63875 273.957812) scale(0.14 -0.14)">
       <defs>
        <path id="DejaVuSans-31" d="M 794 531 
L 1825 531 
L 1825 4091 
L 703 3866 
L 703 4441 
L 1819 4666 
L 2450 4666 
L 2450 531 
L 3481 531 
L 3481 0 
L 794 0 
L 794 531 
z
" transform="scale(0.015625)"/>
        <path id="DejaVuSans-30" d="M 2034 4250 
Q 1547 4250 1301 3770 
Q 1056 3291 1056 2328 
Q 1056 1369 1301 889 
Q 1547 409 2034 409 
Q 2525 409 2770 889 
Q 3016 1369 3016 2328 
Q 3016 3291 2770 3770 
Q 2525 4250 2034 4250 
z
M 2034 4750 
Q 2819 4750 3233 4129 
Q 3647 3509 3647 2328 
Q 3647 1150 3233 529 
Q 2819 -91 2034 -91 
Q 1250 -91 836 529 
Q 422 1150 422 2328 
Q 422 3509 836 4129 
Q 1250 4750 2034 4750 
z
" transform="scale(0.015625)"/>
       </defs>
       <use xlink:href="#DejaVuSans-31"/>
       <use xlink:href="#DejaVuSans-30" x="63.623047"/>
       <use xlink:href="#DejaVuSans-30" x="127.246094"/>
      </g>
     </g>
    </g>
    <g id="xtick_2">
     <g id="line2d_3">
      <path d="M 241.92 256.32 
L 241.92 34.56 
" clip-path="url(#p49424e39c4)" style="fill: none; stroke: #b0b0b0; stroke-width: 0.8; stroke-linecap: square"/>
     </g>
     <g id="line2d_4">
      <g>
       <use xlink:href="#m02e2c7d5ef" x="241.92" y="256.32" style="stroke: #000000; stroke-width: 0.8"/>
      </g>
     </g>
     <g id="text_2">
      <!-- 120 -->
      <g transform="translate(228.55875 273.957812) scale(0.14 -0.14)">
       <defs>
        <path id="DejaVuSans-32" d="M 1228 531 
L 3431 531 
L 3431 0 
L 469 0 
L 469 531 
Q 828 903 1448 1529 
Q 2069 2156 2228 2338 
Q 2531 2678 2651 2914 
Q 2772 3150 2772 3378 
Q 2772 3750 2511 3984 
Q 2250 4219 1831 4219 
Q 1534 4219 1204 4116 
Q 875 4013 500 3803 
L 500 4441 
Q 881 4594 1212 4672 
Q 1544 4750 1819 4750 
Q 2544 4750 2975 4387 
Q 3406 4025 3406 3419 
Q 3406 3131 3298 2873 
Q 3191 2616 2906 2266 
Q 2828 2175 2409 1742 
Q 1991 1309 1228 531 
z
" transform="scale(0.015625)"/>
       </defs>
       <use xlink:href="#DejaVuSans-31"/>
       <use xlink:href="#DejaVuSans-32" x="63.623047"/>
       <use xlink:href="#DejaVuSans-30" x="127.246094"/>
      </g>
     </g>
    </g>
    <g id="xtick_3">
     <g id="line2d_5">
      <path d="M 375.84 256.32 
L 375.84 34.56 
" clip-path="url(#p49424e39c4)" style="fill: none; stroke: #b0b0b0; stroke-width: 0.8; stroke-linecap: square"/>
     </g>
     <g id="line2d_6">
      <g>
       <use xlink:href="#m02e2c7d5ef" x="375.84" y="256.32" style="stroke: #000000; stroke-width: 0.8"/>
      </g>
     </g>
     <g id="text_3">
      <!-- 140 -->
      <g transform="translate(362.47875 273.957812) scale(0.14 -0.14)">
       <defs>
        <path id="DejaVuSans-34" d="M 2419 4116 
L 825 1625 
L 2419 1625 
L 2419 4116 
z
M 2253 4666 
L 3047 4666 
L 3047 1625 
L 3713 1625 
L 3713 1100 
L 3047 1100 
L 3047 0 
L 2419 0 
L 2419 1100 
L 313 1100 
L 313 1709 
L 2253 4666 
z
" transform="scale(0.015625)"/>
       </defs>
       <use xlink:href="#DejaVuSans-31"/>
       <use xlink:href="#DejaVuSans-34" x="63.623047"/>
       <use xlink:href="#DejaVuSans-30" x="127.246094"/>
      </g>
     </g>
    </g>
    <g id="xtick_4">
     <g id="line2d_7">
      <path d="M 509.76 256.32 
L 509.76 34.56 
" clip-path="url(#p49424e39c4)" style="fill: none; stroke: #b0b0b0; stroke-width: 0.8; stroke-linecap: square"/>
     </g>
     <g id="line2d_8">
      <g>
       <use xlink:href="#m02e2c7d5ef" x="509.76" y="256.32" style="stroke: #000000; stroke-width: 0.8"/>
      </g>
     </g>
     <g id="text_4">
      <!-- 160 -->
      <g transform="translate(496.39875 273.957812) scale(0.14 -0.14)">
       <defs>
        <path id="DejaVuSans-36" d="M 2113 2584 
Q 1688 2584 1439 2293 
Q 1191 2003 1191 1497 
Q 1191 994 1439 701 
Q 1688 409 2113 409 
Q 2538 409 2786 701 
Q 3034 994 3034 1497 
Q 3034 2003 2786 2293 
Q 2538 2584 2113 2584 
z
M 3366 4563 
L 3366 3988 
Q 3128 4100 2886 4159 
Q 2644 4219 2406 4219 
Q 1781 4219 1451 3797 
Q 1122 3375 1075 2522 
Q 1259 2794 1537 2939 
Q 1816 3084 2150 3084 
Q 2853 3084 3261 2657 
Q 3669 2231 3669 1497 
Q 3669 778 3244 343 
Q 2819 -91 2113 -91 
Q 1303 -91 875 529 
Q 447 1150 447 2328 
Q 447 3434 972 4092 
Q 1497 4750 2381 4750 
Q 2619 4750 2861 4703 
Q 3103 4656 3366 4563 
z
" transform="scale(0.015625)"/>
       </defs>
       <use xlink:href="#DejaVuSans-31"/>
       <use xlink:href="#DejaVuSans-36" x="63.623047"/>
       <use xlink:href="#DejaVuSans-30" x="127.246094"/>
      </g>
     </g>
    </g>
    <g id="xtick_5">
     <g id="line2d_9">
      <path d="M 643.68 256.32 
L 643.68 34.56 
" clip-path="url(#p49424e39c4)" style="fill: none; stroke: #b0b0b0; stroke-width: 0.8; stroke-linecap: square"/>
     </g>
     <g id="line2d_10">
      <g>
       <use xlink:href="#m02e2c7d5ef" x="643.68" y="256.32" style="stroke: #000000; stroke-width: 0.8"/>
      </g>
     </g>
     <g id="text_5">
      <!-- 180 -->
      <g transform="translate(630.31875 273.957812) scale(0.14 -0.14)">
       <defs>
        <path id="DejaVuSans-38" d="M 2034 2216 
Q 1584 2216 1326 1975 
Q 1069 1734 1069 1313 
Q 1069 891 1326 650 
Q 1584 409 2034 409 
Q 2484 409 2743 651 
Q 3003 894 3003 1313 
Q 3003 1734 2745 1975 
Q 2488 2216 2034 2216 
z
M 1403 2484 
Q 997 2584 770 2862 
Q 544 3141 544 3541 
Q 544 4100 942 4425 
Q 1341 4750 2034 4750 
Q 2731 4750 3128 4425 
Q 3525 4100 3525 3541 
Q 3525 3141 3298 2862 
Q 3072 2584 2669 2484 
Q 3125 2378 3379 2068 
Q 3634 1759 3634 1313 
Q 3634 634 3220 271 
Q 2806 -91 2034 -91 
Q 1263 -91 848 271 
Q 434 634 434 1313 
Q 434 1759 690 2068 
Q 947 2378 1403 2484 
z
M 1172 3481 
Q 1172 3119 1398 2916 
Q 1625 2713 2034 2713 
Q 2441 2713 2670 2916 
Q 2900 3119 2900 3481 
Q 2900 3844 2670 4047 
Q 2441 4250 2034 4250 
Q 1625 4250 1398 4047 
Q 1172 3844 1172 3481 
z
" transform="scale(0.015625)"/>
       </defs>
       <use xlink:href="#DejaVuSans-31"/>
       <use xlink:href="#DejaVuSans-38" x="63.623047"/>
       <use xlink:href="#DejaVuSans-30" x="127.246094"/>
      </g>
     </g>
    </g>
    <g id="xtick_6">
     <g id="line2d_11">
      <path d="M 777.6 256.32 
L 777.6 34.56 
" clip-path="url(#p49424e39c4)" style="fill: none; stroke: #b0b0b0; stroke-width: 0.8; stroke-linecap: square"/>
     </g>
     <g id="line2d_12">
      <g>
       <use xlink:href="#m02e2c7d5ef" x="777.6" y="256.32" style="stroke: #000000; stroke-width: 0.8"/>
      </g>
     </g>
     <g id="text_6">
      <!-- 200 -->
      <g transform="translate(764.23875 273.957812) scale(0.14 -0.14)">
       <use xlink:href="#DejaVuSans-32"/>
       <use xlink:href="#DejaVuSans-30" x="63.623047"/>
       <use xlink:href="#DejaVuSans-30" x="127.246094"/>
      </g>
     </g>
    </g>
    <g id="text_7">
     <!-- Time (ms) -->
     <g transform="translate(407.521094 291.507187) scale(0.14 -0.14)">
      <defs>
       <path id="DejaVuSans-54" d="M -19 4666 
L 3928 4666 
L 3928 4134 
L 2272 4134 
L 2272 0 
L 1638 0 
L 1638 4134 
L -19 4134 
L -19 4666 
z
" transform="scale(0.015625)"/>
       <path id="DejaVuSans-69" d="M 603 3500 
L 1178 3500 
L 1178 0 
L 603 0 
L 603 3500 
z
M 603 4863 
L 1178 4863 
L 1178 4134 
L 603 4134 
L 603 4863 
z
" transform="scale(0.015625)"/>
       <path id="DejaVuSans-6d" d="M 3328 2828 
Q 3544 3216 3844 3400 
Q 4144 3584 4550 3584 
Q 5097 3584 5394 3201 
Q 5691 2819 5691 2113 
L 5691 0 
L 5113 0 
L 5113 2094 
Q 5113 2597 4934 2840 
Q 4756 3084 4391 3084 
Q 3944 3084 3684 2787 
Q 3425 2491 3425 1978 
L 3425 0 
L 2847 0 
L 2847 2094 
Q 2847 2600 2669 2842 
Q 2491 3084 2119 3084 
Q 1678 3084 1418 2786 
Q 1159 2488 1159 1978 
L 1159 0 
L 581 0 
L 581 3500 
L 1159 3500 
L 1159 2956 
Q 1356 3278 1631 3431 
Q 1906 3584 2284 3584 
Q 2666 3584 2933 3390 
Q 3200 3197 3328 2828 
z
" transform="scale(0.015625)"/>
       <path id="DejaVuSans-65" d="M 3597 1894 
L 3597 1613 
L 953 1613 
Q 991 1019 1311 708 
Q 1631 397 2203 397 
Q 2534 397 2845 478 
Q 3156 559 3463 722 
L 3463 178 
Q 3153 47 2828 -22 
Q 2503 -91 2169 -91 
Q 1331 -91 842 396 
Q 353 884 353 1716 
Q 353 2575 817 3079 
Q 1281 3584 2069 3584 
Q 2775 3584 3186 3129 
Q 3597 2675 3597 1894 
z
M 3022 2063 
Q 3016 2534 2758 2815 
Q 2500 3097 2075 3097 
Q 1594 3097 1305 2825 
Q 1016 2553 972 2059 
L 3022 2063 
z
" transform="scale(0.015625)"/>
       <path id="DejaVuSans-20" transform="scale(0.015625)"/>
       <path id="DejaVuSans-28" d="M 1984 4856 
Q 1566 4138 1362 3434 
Q 1159 2731 1159 2009 
Q 1159 1288 1364 580 
Q 1569 -128 1984 -844 
L 1484 -844 
Q 1016 -109 783 600 
Q 550 1309 550 2009 
Q 550 2706 781 3412 
Q 1013 4119 1484 4856 
L 1984 4856 
z
" transform="scale(0.015625)"/>
       <path id="DejaVuSans-73" d="M 2834 3397 
L 2834 2853 
Q 2591 2978 2328 3040 
Q 2066 3103 1784 3103 
Q 1356 3103 1142 2972 
Q 928 2841 928 2578 
Q 928 2378 1081 2264 
Q 1234 2150 1697 2047 
L 1894 2003 
Q 2506 1872 2764 1633 
Q 3022 1394 3022 966 
Q 3022 478 2636 193 
Q 2250 -91 1575 -91 
Q 1294 -91 989 -36 
Q 684 19 347 128 
L 347 722 
Q 666 556 975 473 
Q 1284 391 1588 391 
Q 1994 391 2212 530 
Q 2431 669 2431 922 
Q 2431 1156 2273 1281 
Q 2116 1406 1581 1522 
L 1381 1569 
Q 847 1681 609 1914 
Q 372 2147 372 2553 
Q 372 3047 722 3315 
Q 1072 3584 1716 3584 
Q 2034 3584 2315 3537 
Q 2597 3491 2834 3397 
z
" transform="scale(0.015625)"/>
       <path id="DejaVuSans-29" d="M 513 4856 
L 1013 4856 
Q 1481 4119 1714 3412 
Q 1947 2706 1947 2009 
Q 1947 1309 1714 600 
Q 1481 -109 1013 -844 
L 513 -844 
Q 928 -128 1133 580 
Q 1338 1288 1338 2009 
Q 1338 2731 1133 3434 
Q 928 4138 513 4856 
z
" transform="scale(0.015625)"/>
      </defs>
      <use xlink:href="#DejaVuSans-54"/>
      <use xlink:href="#DejaVuSans-69" x="57.958984"/>
      <use xlink:href="#DejaVuSans-6d" x="85.742188"/>
      <use xlink:href="#DejaVuSans-65" x="183.154297"/>
      <use xlink:href="#DejaVuSans-20" x="244.677734"/>
      <use xlink:href="#DejaVuSans-28" x="276.464844"/>
      <use xlink:href="#DejaVuSans-6d" x="315.478516"/>
      <use xlink:href="#DejaVuSans-73" x="412.890625"/>
      <use xlink:href="#DejaVuSans-29" x="464.990234"/>
     </g>
    </g>
   </g>
   <g id="matplotlib.axis_2">
    <g id="ytick_1">
     <g id="line2d_13">
      <path d="M 108 225.127655 
L 777.6 225.127655 
" clip-path="url(#p49424e39c4)" style="fill: none; stroke: #b0b0b0; stroke-width: 0.8; stroke-linecap: square"/>
     </g>
     <g id="line2d_14">
      <defs>
       <path id="m70b1d68637" d="M 0 0 
L -3.5 0 
" style="stroke: #000000; stroke-width: 0.8"/>
      </defs>
      <g>
       <use xlink:href="#m70b1d68637" x="108" y="225.127655" style="stroke: #000000; stroke-width: 0.8"/>
      </g>
     </g>
     <g id="text_8">
      <!-- −60 -->
      <g transform="translate(71.453437 230.446561) scale(0.14 -0.14)">
       <defs>
        <path id="DejaVuSans-2212" d="M 678 2272 
L 4684 2272 
L 4684 1741 
L 678 1741 
L 678 2272 
z
" transform="scale(0.015625)"/>
       </defs>
       <use xlink:href="#DejaVuSans-2212"/>
       <use xlink:href="#DejaVuSans-36" x="83.789062"/>
       <use xlink:href="#DejaVuSans-30" x="147.412109"/>
      </g>
     </g>
    </g>
    <g id="ytick_2">
     <g id="line2d_15">
      <path d="M 108 182.970247 
L 777.6 182.970247 
" clip-path="url(#p49424e39c4)" style="fill: none; stroke: #b0b0b0; stroke-width: 0.8; stroke-linecap: square"/>
     </g>
     <g id="line2d_16">
      <g>
       <use xlink:href="#m70b1d68637" x="108" y="182.970247" style="stroke: #000000; stroke-width: 0.8"/>
      </g>
     </g>
     <g id="text_9">
      <!-- −40 -->
      <g transform="translate(71.453437 188.289153) scale(0.14 -0.14)">
       <use xlink:href="#DejaVuSans-2212"/>
       <use xlink:href="#DejaVuSans-34" x="83.789062"/>
       <use xlink:href="#DejaVuSans-30" x="147.412109"/>
      </g>
     </g>
    </g>
    <g id="ytick_3">
     <g id="line2d_17">
      <path d="M 108 140.812838 
L 777.6 140.812838 
" clip-path="url(#p49424e39c4)" style="fill: none; stroke: #b0b0b0; stroke-width: 0.8; stroke-linecap: square"/>
     </g>
     <g id="line2d_18">
      <g>
       <use xlink:href="#m70b1d68637" x="108" y="140.812838" style="stroke: #000000; stroke-width: 0.8"/>
      </g>
     </g>
     <g id="text_10">
      <!-- −20 -->
      <g transform="translate(71.453437 146.131744) scale(0.14 -0.14)">
       <use xlink:href="#DejaVuSans-2212"/>
       <use xlink:href="#DejaVuSans-32" x="83.789062"/>
       <use xlink:href="#DejaVuSans-30" x="147.412109"/>
      </g>
     </g>
    </g>
    <g id="ytick_4">
     <g id="line2d_19">
      <path d="M 108 98.65543 
L 777.6 98.65543 
" clip-path="url(#p49424e39c4)" style="fill: none; stroke: #b0b0b0; stroke-width: 0.8; stroke-linecap: square"/>
     </g>
     <g id="line2d_20">
      <g>
       <use xlink:href="#m70b1d68637" x="108" y="98.65543" style="stroke: #000000; stroke-width: 0.8"/>
      </g>
     </g>
     <g id="text_11">
      <!-- 0 -->
      <g transform="translate(92.0925 103.974336) scale(0.14 -0.14)">
       <use xlink:href="#DejaVuSans-30"/>
      </g>
     </g>
    </g>
    <g id="ytick_5">
     <g id="line2d_21">
      <path d="M 108 56.498021 
L 777.6 56.498021 
" clip-path="url(#p49424e39c4)" style="fill: none; stroke: #b0b0b0; stroke-width: 0.8; stroke-linecap: square"/>
     </g>
     <g id="line2d_22">
      <g>
       <use xlink:href="#m70b1d68637" x="108" y="56.498021" style="stroke: #000000; stroke-width: 0.8"/>
      </g>
     </g>
     <g id="text_12">
      <!-- 20 -->
      <g transform="translate(83.185 61.816927) scale(0.14 -0.14)">
       <use xlink:href="#DejaVuSans-32"/>
       <use xlink:href="#DejaVuSans-30" x="63.623047"/>
      </g>
     </g>
    </g>
    <g id="text_13">
     <!-- $V_{m}$ (mV) -->
     <g transform="translate(64.541875 174.49) rotate(-90) scale(0.14 -0.14)">
      <defs>
       <path id="DejaVuSans-Oblique-56" d="M 1319 0 
L 500 4666 
L 1119 4666 
L 1797 653 
L 4063 4666 
L 4750 4666 
L 2053 0 
L 1319 0 
z
" transform="scale(0.015625)"/>
       <path id="DejaVuSans-Oblique-6d" d="M 5747 2113 
L 5338 0 
L 4763 0 
L 5166 2094 
Q 5191 2228 5203 2325 
Q 5216 2422 5216 2491 
Q 5216 2772 5059 2928 
Q 4903 3084 4622 3084 
Q 4203 3084 3875 2770 
Q 3547 2456 3450 1953 
L 3066 0 
L 2491 0 
L 2900 2094 
Q 2925 2209 2937 2307 
Q 2950 2406 2950 2484 
Q 2950 2769 2794 2926 
Q 2638 3084 2363 3084 
Q 1938 3084 1609 2770 
Q 1281 2456 1184 1953 
L 800 0 
L 225 0 
L 909 3500 
L 1484 3500 
L 1375 2956 
Q 1609 3263 1923 3423 
Q 2238 3584 2597 3584 
Q 2978 3584 3223 3384 
Q 3469 3184 3519 2828 
Q 3781 3197 4126 3390 
Q 4472 3584 4856 3584 
Q 5306 3584 5551 3325 
Q 5797 3066 5797 2591 
Q 5797 2488 5784 2364 
Q 5772 2241 5747 2113 
z
" transform="scale(0.015625)"/>
       <path id="DejaVuSans-56" d="M 1831 0 
L 50 4666 
L 709 4666 
L 2188 738 
L 3669 4666 
L 4325 4666 
L 2547 0 
L 1831 0 
z
" transform="scale(0.015625)"/>
      </defs>
      <use xlink:href="#DejaVuSans-Oblique-56" transform="translate(0 0.125)"/>
      <use xlink:href="#DejaVuSans-Oblique-6d" transform="translate(68.408203 -16.28125) scale(0.7)"/>
      <use xlink:href="#DejaVuSans-20" transform="translate(139.331055 0.125)"/>
      <use xlink:href="#DejaVuSans-28" transform="translate(171.118164 0.125)"/>
      <use xlink:href="#DejaVuSans-6d" transform="translate(210.131836 0.125)"/>
      <use xlink:href="#DejaVuSans-56" transform="translate(307.543945 0.125)"/>
      <use xlink:href="#DejaVuSans-29" transform="translate(375.952148 0.125)"/>
     </g>
    </g>
   </g>
   <g id="line2d_23">
    <path d="M 108 219.281932 
L 109.3392 219.951193 
L 110.6784 220.385251 
L 111.348 220.545815 
L 112.6872 221.492138 
L 114.0264 221.951494 
L 116.0352 223.529579 
L 118.044 226.009559 
L 118.7136 227.126908 
L 119.3832 227.995021 
L 120.0528 228.553119 
L 120.7224 229.596705 
L 122.7312 231.918053 
L 124.0704 232.73131 
L 125.4096 233.27057 
L 127.4184 233.808009 
L 129.4272 234.124426 
L 132.1056 234.29341 
L 134.1144 234.267919 
L 136.1232 235.083688 
L 136.7928 235.898775 
L 137.4624 236.47323 
L 140.1408 237.673152 
L 141.48 237.955275 
L 144.1584 238.338701 
L 145.4976 238.616036 
L 147.5064 238.62729 
L 148.176 238.58757 
L 149.5152 238.935603 
L 150.8544 238.965246 
L 153.5328 238.701363 
L 156.8808 238.089795 
L 160.8984 237.077287 
L 164.916 235.827108 
L 169.6032 234.122635 
L 174.96 231.905021 
L 176.2992 231.268735 
L 178.308 230.000158 
L 182.9952 226.997922 
L 198.396 217.43483 
L 199.7352 217.390905 
L 201.0744 216.933197 
L 203.7528 215.662871 
L 205.7616 214.616684 
L 207.1008 214.753382 
L 208.44 214.448913 
L 209.7792 214.825769 
L 211.1184 214.704518 
L 213.1272 214.19255 
L 216.4752 213.03161 
L 220.4928 211.389908 
L 225.18 209.2488 
L 225.8496 208.922341 
L 227.1888 209.210786 
L 228.528 210.901865 
L 229.1976 211.288704 
L 230.5368 211.604038 
L 231.876 211.647207 
L 232.5456 211.612136 
L 234.5544 212.948269 
L 235.8936 214.910105 
L 236.5632 216.066499 
L 239.2416 219.33901 
L 239.9112 220.390615 
L 240.5808 221.902507 
L 241.2504 223.013374 
L 241.92 223.727064 
L 243.2592 224.663064 
L 244.5984 225.287274 
L 245.9376 226.363965 
L 246.6072 226.698093 
L 247.2768 227.290505 
L 247.9464 228.100574 
L 249.9552 229.957901 
L 251.2944 231.186839 
L 252.6336 231.845642 
L 253.9728 232.2704 
L 255.312 233.629221 
L 255.9816 234.285065 
L 256.6512 234.775649 
L 257.9904 235.347746 
L 259.9992 235.820514 
L 260.6688 235.920417 
L 262.008 236.550361 
L 263.3472 236.8211 
L 264.6864 236.940588 
L 267.3648 238.112687 
L 268.704 238.345774 
L 270.7128 238.415703 
L 272.052 238.834697 
L 273.3912 238.927134 
L 275.4 238.837813 
L 278.0784 238.510655 
L 281.4264 237.872495 
L 282.096 237.719636 
L 283.4352 237.887488 
L 284.7744 237.752507 
L 287.4528 237.194771 
L 290.8008 236.269439 
L 291.4704 236.062569 
L 292.8096 236.157049 
L 294.1488 235.942002 
L 296.8272 235.224626 
L 300.8448 233.873634 
L 305.532 232.038192 
L 309.5496 230.293826 
L 310.8888 229.54694 
L 320.9328 223.135065 
L 330.3072 217.240158 
L 343.6992 208.506423 
L 345.0384 207.591066 
L 346.3776 207.650019 
L 347.7168 207.292566 
L 349.7256 206.404914 
L 352.404 204.916216 
L 354.4128 203.50023 
L 357.0912 205.673653 
L 357.7608 206.300432 
L 358.4304 207.194952 
L 359.1 208.403819 
L 359.7696 209.305847 
L 360.4392 209.884572 
L 361.7784 210.560988 
L 363.1176 212.6149 
L 363.7872 213.623753 
L 364.4568 214.376416 
L 365.1264 214.869482 
L 365.796 215.223587 
L 367.1352 216.479135 
L 367.8048 216.845618 
L 369.144 218.067559 
L 370.4832 218.675618 
L 371.8224 219.021621 
L 372.492 219.139052 
L 373.8312 220.745623 
L 374.5008 222.297453 
L 375.1704 223.491053 
L 375.84 224.210476 
L 377.1792 225.099744 
L 378.5184 225.668166 
L 379.188 225.883295 
L 379.8576 226.409013 
L 381.8664 228.699222 
L 382.536 229.11707 
L 383.8752 230.251514 
L 384.5448 230.59832 
L 386.5536 232.243739 
L 387.2232 232.72149 
L 388.5624 233.288117 
L 391.2408 234.161563 
L 391.9104 234.759939 
L 392.58 235.180926 
L 393.9192 235.620558 
L 395.928 235.928378 
L 399.276 236.289907 
L 402.624 237.213675 
L 403.2936 237.262623 
L 405.972 238.359325 
L 407.3112 238.545621 
L 407.9808 238.570095 
L 409.32 239.012712 
L 410.6592 239.1152 
L 412.668 239.029334 
L 415.3464 238.697134 
L 418.6944 238.047009 
L 422.712 237.005058 
L 426.7296 235.732752 
L 428.0688 235.798157 
L 429.408 235.555058 
L 432.0864 234.786202 
L 436.104 233.369216 
L 440.7912 231.469721 
L 444.1392 229.944038 
L 446.148 228.65946 
L 450.8352 225.609657 
L 468.2448 214.638366 
L 472.932 211.59722 
L 474.2712 211.637398 
L 475.6104 211.24393 
L 476.9496 210.681049 
L 478.2888 210.971965 
L 479.628 210.788726 
L 481.6368 210.184408 
L 483.6456 209.420949 
L 484.9848 209.796309 
L 486.324 210.628967 
L 487.6632 210.812507 
L 489.0024 210.728463 
L 490.3416 212.287856 
L 491.0112 212.659639 
L 491.6808 213.32239 
L 492.3504 214.27107 
L 493.02 214.937026 
L 493.6896 215.338673 
L 494.3592 216.033323 
L 495.0288 216.995896 
L 495.6984 217.682296 
L 497.7072 219.047333 
L 498.3768 219.553147 
L 499.716 220.104633 
L 501.0552 220.404299 
L 502.3944 221.285901 
L 503.7336 221.67538 
L 504.4032 221.783669 
L 505.7424 222.605875 
L 507.0816 222.951618 
L 507.7512 223.042205 
L 508.4208 223.474306 
L 510.4296 226.755791 
L 511.0992 227.49354 
L 512.4384 228.331819 
L 513.7776 228.834616 
L 515.1168 229.75622 
L 515.7864 230.653753 
L 516.456 231.356088 
L 517.1256 231.790794 
L 519.804 235.30809 
L 521.1432 236.10509 
L 522.4824 236.608878 
L 523.152 236.798542 
L 523.8216 237.219492 
L 524.4912 237.818535 
L 526.5 239.16791 
L 527.8392 240.054348 
L 529.1784 240.486224 
L 529.848 240.624879 
L 531.1872 241.237873 
L 532.5264 241.50866 
L 534.5352 241.661513 
L 537.2136 241.615817 
L 540.5616 241.279808 
L 543.9096 240.703631 
L 547.9272 239.755573 
L 551.9448 238.573979 
L 556.632 236.947262 
L 561.3192 235.093294 
L 566.676 232.738291 
L 572.7024 229.835196 
L 578.0592 227.02444 
L 580.7376 225.09509 
L 585.4248 221.758566 
L 598.8168 212.753833 
L 602.1648 210.487998 
L 603.504 210.513481 
L 604.8432 210.10584 
L 606.852 209.198261 
L 610.2 207.413035 
L 612.8784 205.77399 
L 613.548 205.333203 
L 614.8872 205.456019 
L 616.2264 205.206964 
L 617.5656 204.715561 
L 619.5744 203.688205 
L 620.9136 202.826314 
L 622.2528 201.681225 
L 622.9224 200.939963 
L 624.2616 200.153514 
L 625.6008 198.710243 
L 626.2704 197.562582 
L 626.94 190.008536 
L 627.6096 155.240314 
L 628.2792 56.410716 
L 628.9488 64.32562 
L 629.6184 85.980706 
L 630.9576 116.080906 
L 632.2968 139.61819 
L 634.3056 169.95966 
L 636.3144 197.440511 
L 636.984 203.46652 
L 638.3232 210.996445 
L 638.9928 214.094298 
L 639.6624 216.234802 
L 641.0016 219.331483 
L 641.6712 220.56868 
L 643.0104 222.589151 
L 643.68 223.798718 
L 644.3496 224.706314 
L 645.0192 225.358652 
L 646.3584 226.862057 
L 648.3672 228.335304 
L 649.0368 229.145035 
L 649.7064 229.732906 
L 653.724 232.183413 
L 654.3936 232.876962 
L 658.4112 235.898691 
L 660.42 237.940333 
L 661.7592 238.558653 
L 663.768 239.067957 
L 665.7768 239.328471 
L 667.7856 239.422557 
L 669.1248 239.860858 
L 670.464 239.98665 
L 673.1424 239.915944 
L 676.4904 239.530715 
L 679.8384 238.911258 
L 683.856 237.920351 
L 687.8736 236.703434 
L 692.5608 235.042258 
L 693.9 234.52535 
L 695.2392 234.54617 
L 696.5784 234.253916 
L 699.2568 233.38769 
L 703.2744 231.839135 
L 708.6312 229.502264 
L 711.9792 227.879156 
L 713.988 226.542456 
L 718.6752 223.373825 
L 738.0936 210.944744 
L 742.7808 207.967111 
L 744.12 208.093629 
L 745.4592 207.780716 
L 747.468 206.999307 
L 748.8072 207.381621 
L 750.1464 207.29982 
L 752.1552 206.810129 
L 753.4944 207.358732 
L 754.8336 207.425235 
L 756.1728 207.259547 
L 757.512 207.946793 
L 758.8512 208.119836 
L 760.1904 208.049577 
L 761.5296 208.800647 
L 762.1992 208.958239 
L 763.5384 209.946017 
L 764.8776 210.317268 
L 765.5472 210.386546 
L 766.8864 211.2879 
L 768.2256 211.625836 
L 768.8952 211.691589 
L 770.2344 213.415887 
L 770.904 213.852898 
L 771.5736 214.129075 
L 774.252 216.548365 
L 775.5912 217.145149 
L 776.9304 217.459468 
L 777.6 217.972983 
L 777.6 217.972983 
" clip-path="url(#p49424e39c4)" style="fill: none; stroke: #000000; stroke-width: 1.5; stroke-linecap: square"/>
   </g>
   <g id="line2d_24">
    <path d="M 108 158.204236 
L 110.6784 163.133882 
L 112.6872 167.149851 
L 115.3656 173.139599 
L 117.3744 178.205348 
L 120.0528 185.828187 
L 124.0704 197.458174 
L 126.0792 202.427192 
L 128.088 206.592038 
L 130.0968 210.0391 
L 132.1056 212.877416 
L 134.1144 215.203661 
L 139.4712 220.578716 
L 142.1496 223.037495 
L 144.1584 224.568785 
L 146.8368 226.336233 
L 149.5152 227.754599 
L 152.1936 228.949357 
L 154.2024 229.63214 
L 156.8808 230.261668 
L 159.5592 230.60987 
L 162.2376 230.715118 
L 164.916 230.608894 
L 168.264 230.218341 
L 171.612 229.580773 
L 174.96 228.731201 
L 175.6296 228.538483 
L 176.2992 198.068303 
L 176.9688 184.275801 
L 177.6384 177.420549 
L 178.308 173.212275 
L 178.9776 170.35945 
L 179.6472 168.360011 
L 180.3168 166.949814 
L 180.9864 165.96029 
L 181.656 165.269804 
L 182.3256 164.788089 
L 183.6648 164.185936 
L 186.3432 163.258719 
L 187.6824 162.569256 
L 189.0216 161.63189 
L 190.3608 160.447383 
L 192.3696 158.308576 
L 197.7264 152.21175 
L 199.0656 150.933712 
L 200.4048 149.897837 
L 202.4136 148.702294 
L 204.4224 147.766239 
L 206.4312 147.026097 
L 208.44 146.605774 
L 209.7792 146.500562 
L 212.4576 146.592514 
L 227.8584 147.569159 
L 229.1976 148.105229 
L 232.5456 149.9587 
L 234.5544 151.205734 
L 235.8936 152.319274 
L 237.2328 153.805118 
L 238.572 155.619496 
L 239.9112 157.732124 
L 241.2504 160.293092 
L 243.2592 164.896467 
L 245.268 170.023437 
L 247.9464 177.597786 
L 253.9728 195.676171 
L 256.6512 202.412466 
L 258.66 206.854631 
L 260.6688 210.60189 
L 262.6776 213.789815 
L 264.6864 216.515139 
L 267.3648 219.612515 
L 269.3736 221.665602 
L 271.3824 223.400063 
L 274.0608 225.380234 
L 276.0696 226.577681 
L 278.0784 227.524127 
L 280.0872 228.246777 
L 282.7656 228.918595 
L 286.1136 229.575441 
L 288.792 229.854433 
L 291.4704 229.895509 
L 298.1664 229.671078 
L 301.5144 229.207244 
L 304.8624 228.511269 
L 308.88 227.414538 
L 309.5496 227.206925 
L 310.2192 196.989562 
L 310.8888 183.271516 
L 311.5584 176.40205 
L 312.228 172.126905 
L 312.8976 169.188583 
L 313.5672 167.098682 
L 314.2368 165.597051 
L 314.9064 164.515774 
L 315.576 163.734841 
L 316.9152 162.726257 
L 321.6024 160.251519 
L 322.9416 159.199578 
L 324.9504 157.272637 
L 331.6464 150.321376 
L 333.6552 148.680453 
L 335.664 147.315685 
L 337.6728 146.195226 
L 340.3512 145.010021 
L 343.0296 144.088925 
L 345.708 143.369839 
L 347.7168 143.119282 
L 355.0824 142.731261 
L 356.4216 142.857403 
L 357.7608 143.242094 
L 359.1 143.899008 
L 361.1088 145.321945 
L 363.1176 146.934668 
L 365.1264 148.929964 
L 367.8048 151.87601 
L 370.4832 155.210879 
L 373.1616 158.837137 
L 374.5008 160.998423 
L 375.84 163.71051 
L 377.8488 168.504612 
L 380.5272 175.590561 
L 383.2056 183.544188 
L 386.5536 193.404173 
L 388.5624 198.749389 
L 390.5712 203.366209 
L 392.58 207.358765 
L 394.5888 210.90369 
L 396.5976 213.896706 
L 398.6064 216.368528 
L 401.2848 219.135259 
L 403.9632 221.547405 
L 407.3112 224.219046 
L 409.9896 226.044638 
L 411.9984 227.217288 
L 414.0072 228.162476 
L 416.016 228.89169 
L 418.0248 229.4286 
L 420.7032 229.882026 
L 423.3816 230.073729 
L 426.06 230.038328 
L 433.4256 229.521648 
L 436.7736 228.958134 
L 440.1216 228.175414 
L 443.4696 227.203786 
L 444.1392 196.985355 
L 444.8088 183.26371 
L 445.4784 176.3905 
L 446.148 172.110316 
L 446.8176 169.166216 
L 447.4872 167.070318 
L 448.1568 165.562849 
L 448.8264 164.475968 
L 449.496 163.68986 
L 450.8352 162.671992 
L 455.5224 160.17389 
L 456.8616 159.118606 
L 458.8704 157.19086 
L 465.5664 150.265403 
L 467.5752 148.633619 
L 469.584 147.276533 
L 471.5928 146.162091 
L 473.6016 145.266996 
L 475.6104 144.72114 
L 477.6192 144.398931 
L 479.628 144.33428 
L 484.9848 144.536054 
L 486.324 144.787137 
L 489.0024 145.583663 
L 490.3416 146.107831 
L 491.6808 146.813659 
L 493.02 147.723732 
L 495.0288 149.381203 
L 497.7072 152.097605 
L 501.0552 155.958507 
L 503.064 158.51642 
L 505.0728 161.361839 
L 507.0816 164.609636 
L 509.0904 168.295805 
L 510.4296 171.327408 
L 512.4384 176.763394 
L 521.1432 201.549261 
L 523.152 206.383871 
L 525.1608 210.560298 
L 527.1696 214.33368 
L 529.1784 217.717132 
L 531.1872 220.639335 
L 533.196 223.171118 
L 535.2048 225.288908 
L 537.2136 227.025164 
L 539.2224 228.429773 
L 541.2312 229.547016 
L 543.24 230.413869 
L 545.2488 231.061319 
L 547.2576 231.515627 
L 549.936 231.859274 
L 552.6144 231.943875 
L 555.2928 231.806244 
L 558.6408 231.367509 
L 561.9888 230.676895 
L 565.3368 229.772746 
L 569.3544 228.448709 
L 573.372 226.903247 
L 577.3896 225.169647 
L 578.0592 195.289553 
L 578.7288 181.647656 
L 579.3984 174.70122 
L 580.068 170.255715 
L 580.7376 167.113597 
L 581.4072 164.81106 
L 582.0768 163.095272 
L 582.7464 161.800136 
L 583.416 160.808146 
L 584.7552 159.388292 
L 586.764 157.850093 
L 589.4424 155.762244 
L 592.1208 153.26545 
L 596.1384 149.407021 
L 598.1472 147.723536 
L 600.156 146.275115 
L 602.1648 145.054948 
L 603.504 144.417938 
L 605.5128 143.767469 
L 608.8608 143.003151 
L 614.2176 142.042611 
L 616.2264 141.928079 
L 622.2528 141.816125 
L 625.6008 141.378043 
L 626.2704 141.241658 
L 626.94 140.842927 
L 627.6096 139.070474 
L 628.2792 133.070739 
L 628.9488 125.769184 
L 629.6184 120.062973 
L 630.288 116.543683 
L 630.9576 114.894955 
L 631.6272 114.60298 
L 632.2968 115.225629 
L 632.9664 116.453417 
L 633.636 118.08733 
L 634.9752 122.184754 
L 636.984 129.647899 
L 638.9928 137.007969 
L 641.0016 143.428253 
L 643.68 150.962553 
L 647.028 160.55636 
L 649.0368 166.930316 
L 651.7152 176.443959 
L 655.7328 190.924052 
L 657.7416 197.453298 
L 659.7504 203.284289 
L 661.7592 208.490335 
L 663.0984 211.504077 
L 664.4376 214.147321 
L 665.7768 216.454491 
L 667.7856 219.369886 
L 669.7944 221.812313 
L 671.8032 223.875487 
L 673.812 225.553833 
L 675.8208 226.891059 
L 677.8296 227.935426 
L 679.8384 228.727876 
L 681.8472 229.3021 
L 683.856 229.685993 
L 686.5344 229.941572 
L 689.2128 229.945417 
L 691.8912 229.734284 
L 698.5872 228.807673 
L 701.9352 228.163687 
L 705.2832 227.308916 
L 709.3008 226.046161 
L 711.3096 225.32967 
L 711.9792 195.4591 
L 712.6488 181.846343 
L 713.3184 174.959255 
L 713.988 170.605459 
L 714.6576 167.572534 
L 715.3272 165.385899 
L 715.9968 163.786408 
L 716.6664 162.606316 
L 717.336 161.72386 
L 718.6752 160.506416 
L 721.3536 158.807736 
L 723.3624 157.366257 
L 725.3712 155.589764 
L 732.0672 149.144079 
L 734.076 147.590998 
L 736.0848 146.286405 
L 738.0936 145.206497 
L 740.772 144.054874 
L 743.4504 143.177906 
L 745.4592 142.845367 
L 748.1376 142.655839 
L 750.1464 142.746174 
L 753.4944 143.118286 
L 756.8424 143.850299 
L 759.5208 144.693245 
L 762.1992 145.688044 
L 764.208 146.70026 
L 767.556 148.700066 
L 770.2344 150.610215 
L 772.2432 152.469676 
L 774.252 154.691816 
L 776.9304 158.149337 
L 777.6 159.069277 
L 777.6 159.069277 
" clip-path="url(#p49424e39c4)" style="fill: none; stroke: #4169e1; stroke-width: 1.5; stroke-linecap: square"/>
   </g>
   <g id="patch_3">
    <path d="M 108 256.32 
L 108 34.56 
" style="fill: none; stroke: #000000; stroke-width: 0.8; stroke-linejoin: miter; stroke-linecap: square"/>
   </g>
   <g id="patch_4">
    <path d="M 777.6 256.32 
L 777.6 34.56 
" style="fill: none; stroke: #000000; stroke-width: 0.8; stroke-linejoin: miter; stroke-linecap: square"/>
   </g>
   <g id="patch_5">
    <path d="M 108 256.32 
L 777.6 256.32 
" style="fill: none; stroke: #000000; stroke-width: 0.8; stroke-linejoin: miter; stroke-linecap: square"/>
   </g>
   <g id="patch_6">
    <path d="M 108 34.56 
L 777.6 34.56 
" style="fill: none; stroke: #000000; stroke-width: 0.8; stroke-linejoin: miter; stroke-linecap: square"/>
   </g>
   <g id="legend_1">
    <g id="patch_7">
     <path d="M 695.098438 71.91625 
L 770.6 71.91625 
Q 772.6 71.91625 772.6 69.91625 
L 772.6 41.56 
Q 772.6 39.56 770.6 39.56 
L 695.098438 39.56 
Q 693.098438 39.56 693.098438 41.56 
L 693.098438 69.91625 
Q 693.098438 71.91625 695.098438 71.91625 
z
" style="fill: #ffffff; opacity: 0.8; stroke: #cccccc; stroke-linejoin: miter"/>
    </g>
    <g id="line2d_25">
     <path d="M 697.098438 47.658437 
L 707.098438 47.658437 
L 717.098438 47.658437 
" style="fill: none; stroke: #000000; stroke-width: 1.5; stroke-linecap: square"/>
    </g>
    <g id="text_14">
     <!-- Soma -->
     <g transform="translate(725.098438 51.158437) scale(0.1 -0.1)">
      <defs>
       <path id="DejaVuSans-53" d="M 3425 4513 
L 3425 3897 
Q 3066 4069 2747 4153 
Q 2428 4238 2131 4238 
Q 1616 4238 1336 4038 
Q 1056 3838 1056 3469 
Q 1056 3159 1242 3001 
Q 1428 2844 1947 2747 
L 2328 2669 
Q 3034 2534 3370 2195 
Q 3706 1856 3706 1288 
Q 3706 609 3251 259 
Q 2797 -91 1919 -91 
Q 1588 -91 1214 -16 
Q 841 59 441 206 
L 441 856 
Q 825 641 1194 531 
Q 1563 422 1919 422 
Q 2459 422 2753 634 
Q 3047 847 3047 1241 
Q 3047 1584 2836 1778 
Q 2625 1972 2144 2069 
L 1759 2144 
Q 1053 2284 737 2584 
Q 422 2884 422 3419 
Q 422 4038 858 4394 
Q 1294 4750 2059 4750 
Q 2388 4750 2728 4690 
Q 3069 4631 3425 4513 
z
" transform="scale(0.015625)"/>
       <path id="DejaVuSans-6f" d="M 1959 3097 
Q 1497 3097 1228 2736 
Q 959 2375 959 1747 
Q 959 1119 1226 758 
Q 1494 397 1959 397 
Q 2419 397 2687 759 
Q 2956 1122 2956 1747 
Q 2956 2369 2687 2733 
Q 2419 3097 1959 3097 
z
M 1959 3584 
Q 2709 3584 3137 3096 
Q 3566 2609 3566 1747 
Q 3566 888 3137 398 
Q 2709 -91 1959 -91 
Q 1206 -91 779 398 
Q 353 888 353 1747 
Q 353 2609 779 3096 
Q 1206 3584 1959 3584 
z
" transform="scale(0.015625)"/>
       <path id="DejaVuSans-61" d="M 2194 1759 
Q 1497 1759 1228 1600 
Q 959 1441 959 1056 
Q 959 750 1161 570 
Q 1363 391 1709 391 
Q 2188 391 2477 730 
Q 2766 1069 2766 1631 
L 2766 1759 
L 2194 1759 
z
M 3341 1997 
L 3341 0 
L 2766 0 
L 2766 531 
Q 2569 213 2275 61 
Q 1981 -91 1556 -91 
Q 1019 -91 701 211 
Q 384 513 384 1019 
Q 384 1609 779 1909 
Q 1175 2209 1959 2209 
L 2766 2209 
L 2766 2266 
Q 2766 2663 2505 2880 
Q 2244 3097 1772 3097 
Q 1472 3097 1187 3025 
Q 903 2953 641 2809 
L 641 3341 
Q 956 3463 1253 3523 
Q 1550 3584 1831 3584 
Q 2591 3584 2966 3190 
Q 3341 2797 3341 1997 
z
" transform="scale(0.015625)"/>
      </defs>
      <use xlink:href="#DejaVuSans-53"/>
      <use xlink:href="#DejaVuSans-6f" x="63.476562"/>
      <use xlink:href="#DejaVuSans-6d" x="124.658203"/>
      <use xlink:href="#DejaVuSans-61" x="222.070312"/>
     </g>
    </g>
    <g id="line2d_26">
     <path d="M 697.098438 62.336562 
L 707.098438 62.336562 
L 717.098438 62.336562 
" style="fill: none; stroke: #4169e1; stroke-width: 1.5; stroke-linecap: square"/>
    </g>
    <g id="text_15">
     <!-- Dendrite -->
     <g transform="translate(725.098438 65.836562) scale(0.1 -0.1)">
      <defs>
       <path id="DejaVuSans-44" d="M 1259 4147 
L 1259 519 
L 2022 519 
Q 2988 519 3436 956 
Q 3884 1394 3884 2338 
Q 3884 3275 3436 3711 
Q 2988 4147 2022 4147 
L 1259 4147 
z
M 628 4666 
L 1925 4666 
Q 3281 4666 3915 4102 
Q 4550 3538 4550 2338 
Q 4550 1131 3912 565 
Q 3275 0 1925 0 
L 628 0 
L 628 4666 
z
" transform="scale(0.015625)"/>
       <path id="DejaVuSans-6e" d="M 3513 2113 
L 3513 0 
L 2938 0 
L 2938 2094 
Q 2938 2591 2744 2837 
Q 2550 3084 2163 3084 
Q 1697 3084 1428 2787 
Q 1159 2491 1159 1978 
L 1159 0 
L 581 0 
L 581 3500 
L 1159 3500 
L 1159 2956 
Q 1366 3272 1645 3428 
Q 1925 3584 2291 3584 
Q 2894 3584 3203 3211 
Q 3513 2838 3513 2113 
z
" transform="scale(0.015625)"/>
       <path id="DejaVuSans-64" d="M 2906 2969 
L 2906 4863 
L 3481 4863 
L 3481 0 
L 2906 0 
L 2906 525 
Q 2725 213 2448 61 
Q 2172 -91 1784 -91 
Q 1150 -91 751 415 
Q 353 922 353 1747 
Q 353 2572 751 3078 
Q 1150 3584 1784 3584 
Q 2172 3584 2448 3432 
Q 2725 3281 2906 2969 
z
M 947 1747 
Q 947 1113 1208 752 
Q 1469 391 1925 391 
Q 2381 391 2643 752 
Q 2906 1113 2906 1747 
Q 2906 2381 2643 2742 
Q 2381 3103 1925 3103 
Q 1469 3103 1208 2742 
Q 947 2381 947 1747 
z
" transform="scale(0.015625)"/>
       <path id="DejaVuSans-72" d="M 2631 2963 
Q 2534 3019 2420 3045 
Q 2306 3072 2169 3072 
Q 1681 3072 1420 2755 
Q 1159 2438 1159 1844 
L 1159 0 
L 581 0 
L 581 3500 
L 1159 3500 
L 1159 2956 
Q 1341 3275 1631 3429 
Q 1922 3584 2338 3584 
Q 2397 3584 2469 3576 
Q 2541 3569 2628 3553 
L 2631 2963 
z
" transform="scale(0.015625)"/>
       <path id="DejaVuSans-74" d="M 1172 4494 
L 1172 3500 
L 2356 3500 
L 2356 3053 
L 1172 3053 
L 1172 1153 
Q 1172 725 1289 603 
Q 1406 481 1766 481 
L 2356 481 
L 2356 0 
L 1766 0 
Q 1100 0 847 248 
Q 594 497 594 1153 
L 594 3053 
L 172 3053 
L 172 3500 
L 594 3500 
L 594 4494 
L 1172 4494 
z
" transform="scale(0.015625)"/>
      </defs>
      <use xlink:href="#DejaVuSans-44"/>
      <use xlink:href="#DejaVuSans-65" x="77.001953"/>
      <use xlink:href="#DejaVuSans-6e" x="138.525391"/>
      <use xlink:href="#DejaVuSans-64" x="201.904297"/>
      <use xlink:href="#DejaVuSans-72" x="265.380859"/>
      <use xlink:href="#DejaVuSans-69" x="306.494141"/>
      <use xlink:href="#DejaVuSans-74" x="334.277344"/>
      <use xlink:href="#DejaVuSans-65" x="373.486328"/>
     </g>
    </g>
   </g>
  </g>
 </g>
 <defs>
  <clipPath id="p49424e39c4">
   <rect x="108" y="34.56" width="669.6" height="221.76"/>
  </clipPath>
 </defs>
</svg>
