<?xml version="1.0" encoding="utf-8" standalone="no"?>
<!DOCTYPE svg PUBLIC "-//W3C//DTD SVG 1.1//EN"
  "http://www.w3.org/Graphics/SVG/1.1/DTD/svg11.dtd">
<svg xmlns:xlink="http://www.w3.org/1999/xlink" width="864pt" height="288pt" viewBox="0 0 864 288" xmlns="http://www.w3.org/2000/svg" version="1.1">
 <metadata>
  <rdf:RDF xmlns:dc="http://purl.org/dc/elements/1.1/" xmlns:cc="http://creativecommons.org/ns#" xmlns:rdf="http://www.w3.org/1999/02/22-rdf-syntax-ns#">
   <cc:Work>
    <dc:type rdf:resource="http://purl.org/dc/dcmitype/StillImage"/>
    <dc:date>2024-04-23T19:16:53.179146</dc:date>
    <dc:format>image/svg+xml</dc:format>
    <dc:creator>
     <cc:Agent>
      <dc:title>Matplotlib v3.8.2, https://matplotlib.org/</dc:title>
     </cc:Agent>
    </dc:creator>
   </cc:Work>
  </rdf:RDF>
 </metadata>
 <defs>
  <style type="text/css">*{stroke-linejoin: round; stroke-linecap: butt}</style>
 </defs>
 <g id="figure_1">
  <g id="patch_1">
   <path d="M 0 288 
L 864 288 
L 864 0 
L 0 0 
z
" style="fill: #ffffff"/>
  </g>
  <g id="axes_1">
   <g id="patch_2">
    <path d="M 108 256.32 
L 777.6 256.32 
L 777.6 34.56 
L 108 34.56 
z
" style="fill: #ffffff"/>
   </g>
   <g id="matplotlib.axis_1">
    <g id="xtick_1">
     <g id="line2d_1">
      <path d="M 108 256.32 
L 108 34.56 
" clip-path="url(#p6a45c9159a)" style="fill: none; stroke: #b0b0b0; stroke-width: 0.8; stroke-linecap: square"/>
     </g>
     <g id="line2d_2">
      <defs>
       <path id="m44fa9c9ffa" d="M 0 0 
L 0 3.5 
" style="stroke: #000000; stroke-width: 0.8"/>
      </defs>
      <g>
       <use xlink:href="#m44fa9c9ffa" x="108" y="256.32" style="stroke: #000000; stroke-width: 0.8"/>
      </g>
     </g>
     <g id="text_1">
      <!-- 100 -->
      <g transform="translate(94.63875 273.957812) scale(0.14 -0.14)">
       <defs>
        <path id="DejaVuSans-31" d="M 794 531 
L 1825 531 
L 1825 4091 
L 703 3866 
L 703 4441 
L 1819 4666 
L 2450 4666 
L 2450 531 
L 3481 531 
L 3481 0 
L 794 0 
L 794 531 
z
" transform="scale(0.015625)"/>
        <path id="DejaVuSans-30" d="M 2034 4250 
Q 1547 4250 1301 3770 
Q 1056 3291 1056 2328 
Q 1056 1369 1301 889 
Q 1547 409 2034 409 
Q 2525 409 2770 889 
Q 3016 1369 3016 2328 
Q 3016 3291 2770 3770 
Q 2525 4250 2034 4250 
z
M 2034 4750 
Q 2819 4750 3233 4129 
Q 3647 3509 3647 2328 
Q 3647 1150 3233 529 
Q 2819 -91 2034 -91 
Q 1250 -91 836 529 
Q 422 1150 422 2328 
Q 422 3509 836 4129 
Q 1250 4750 2034 4750 
z
" transform="scale(0.015625)"/>
       </defs>
       <use xlink:href="#DejaVuSans-31"/>
       <use xlink:href="#DejaVuSans-30" x="63.623047"/>
       <use xlink:href="#DejaVuSans-30" x="127.246094"/>
      </g>
     </g>
    </g>
    <g id="xtick_2">
     <g id="line2d_3">
      <path d="M 241.92 256.32 
L 241.92 34.56 
" clip-path="url(#p6a45c9159a)" style="fill: none; stroke: #b0b0b0; stroke-width: 0.8; stroke-linecap: square"/>
     </g>
     <g id="line2d_4">
      <g>
       <use xlink:href="#m44fa9c9ffa" x="241.92" y="256.32" style="stroke: #000000; stroke-width: 0.8"/>
      </g>
     </g>
     <g id="text_2">
      <!-- 120 -->
      <g transform="translate(228.55875 273.957812) scale(0.14 -0.14)">
       <defs>
        <path id="DejaVuSans-32" d="M 1228 531 
L 3431 531 
L 3431 0 
L 469 0 
L 469 531 
Q 828 903 1448 1529 
Q 2069 2156 2228 2338 
Q 2531 2678 2651 2914 
Q 2772 3150 2772 3378 
Q 2772 3750 2511 3984 
Q 2250 4219 1831 4219 
Q 1534 4219 1204 4116 
Q 875 4013 500 3803 
L 500 4441 
Q 881 4594 1212 4672 
Q 1544 4750 1819 4750 
Q 2544 4750 2975 4387 
Q 3406 4025 3406 3419 
Q 3406 3131 3298 2873 
Q 3191 2616 2906 2266 
Q 2828 2175 2409 1742 
Q 1991 1309 1228 531 
z
" transform="scale(0.015625)"/>
       </defs>
       <use xlink:href="#DejaVuSans-31"/>
       <use xlink:href="#DejaVuSans-32" x="63.623047"/>
       <use xlink:href="#DejaVuSans-30" x="127.246094"/>
      </g>
     </g>
    </g>
    <g id="xtick_3">
     <g id="line2d_5">
      <path d="M 375.84 256.32 
L 375.84 34.56 
" clip-path="url(#p6a45c9159a)" style="fill: none; stroke: #b0b0b0; stroke-width: 0.8; stroke-linecap: square"/>
     </g>
     <g id="line2d_6">
      <g>
       <use xlink:href="#m44fa9c9ffa" x="375.84" y="256.32" style="stroke: #000000; stroke-width: 0.8"/>
      </g>
     </g>
     <g id="text_3">
      <!-- 140 -->
      <g transform="translate(362.47875 273.957812) scale(0.14 -0.14)">
       <defs>
        <path id="DejaVuSans-34" d="M 2419 4116 
L 825 1625 
L 2419 1625 
L 2419 4116 
z
M 2253 4666 
L 3047 4666 
L 3047 1625 
L 3713 1625 
L 3713 1100 
L 3047 1100 
L 3047 0 
L 2419 0 
L 2419 1100 
L 313 1100 
L 313 1709 
L 2253 4666 
z
" transform="scale(0.015625)"/>
       </defs>
       <use xlink:href="#DejaVuSans-31"/>
       <use xlink:href="#DejaVuSans-34" x="63.623047"/>
       <use xlink:href="#DejaVuSans-30" x="127.246094"/>
      </g>
     </g>
    </g>
    <g id="xtick_4">
     <g id="line2d_7">
      <path d="M 509.76 256.32 
L 509.76 34.56 
" clip-path="url(#p6a45c9159a)" style="fill: none; stroke: #b0b0b0; stroke-width: 0.8; stroke-linecap: square"/>
     </g>
     <g id="line2d_8">
      <g>
       <use xlink:href="#m44fa9c9ffa" x="509.76" y="256.32" style="stroke: #000000; stroke-width: 0.8"/>
      </g>
     </g>
     <g id="text_4">
      <!-- 160 -->
      <g transform="translate(496.39875 273.957812) scale(0.14 -0.14)">
       <defs>
        <path id="DejaVuSans-36" d="M 2113 2584 
Q 1688 2584 1439 2293 
Q 1191 2003 1191 1497 
Q 1191 994 1439 701 
Q 1688 409 2113 409 
Q 2538 409 2786 701 
Q 3034 994 3034 1497 
Q 3034 2003 2786 2293 
Q 2538 2584 2113 2584 
z
M 3366 4563 
L 3366 3988 
Q 3128 4100 2886 4159 
Q 2644 4219 2406 4219 
Q 1781 4219 1451 3797 
Q 1122 3375 1075 2522 
Q 1259 2794 1537 2939 
Q 1816 3084 2150 3084 
Q 2853 3084 3261 2657 
Q 3669 2231 3669 1497 
Q 3669 778 3244 343 
Q 2819 -91 2113 -91 
Q 1303 -91 875 529 
Q 447 1150 447 2328 
Q 447 3434 972 4092 
Q 1497 4750 2381 4750 
Q 2619 4750 2861 4703 
Q 3103 4656 3366 4563 
z
" transform="scale(0.015625)"/>
       </defs>
       <use xlink:href="#DejaVuSans-31"/>
       <use xlink:href="#DejaVuSans-36" x="63.623047"/>
       <use xlink:href="#DejaVuSans-30" x="127.246094"/>
      </g>
     </g>
    </g>
    <g id="xtick_5">
     <g id="line2d_9">
      <path d="M 643.68 256.32 
L 643.68 34.56 
" clip-path="url(#p6a45c9159a)" style="fill: none; stroke: #b0b0b0; stroke-width: 0.8; stroke-linecap: square"/>
     </g>
     <g id="line2d_10">
      <g>
       <use xlink:href="#m44fa9c9ffa" x="643.68" y="256.32" style="stroke: #000000; stroke-width: 0.8"/>
      </g>
     </g>
     <g id="text_5">
      <!-- 180 -->
      <g transform="translate(630.31875 273.957812) scale(0.14 -0.14)">
       <defs>
        <path id="DejaVuSans-38" d="M 2034 2216 
Q 1584 2216 1326 1975 
Q 1069 1734 1069 1313 
Q 1069 891 1326 650 
Q 1584 409 2034 409 
Q 2484 409 2743 651 
Q 3003 894 3003 1313 
Q 3003 1734 2745 1975 
Q 2488 2216 2034 2216 
z
M 1403 2484 
Q 997 2584 770 2862 
Q 544 3141 544 3541 
Q 544 4100 942 4425 
Q 1341 4750 2034 4750 
Q 2731 4750 3128 4425 
Q 3525 4100 3525 3541 
Q 3525 3141 3298 2862 
Q 3072 2584 2669 2484 
Q 3125 2378 3379 2068 
Q 3634 1759 3634 1313 
Q 3634 634 3220 271 
Q 2806 -91 2034 -91 
Q 1263 -91 848 271 
Q 434 634 434 1313 
Q 434 1759 690 2068 
Q 947 2378 1403 2484 
z
M 1172 3481 
Q 1172 3119 1398 2916 
Q 1625 2713 2034 2713 
Q 2441 2713 2670 2916 
Q 2900 3119 2900 3481 
Q 2900 3844 2670 4047 
Q 2441 4250 2034 4250 
Q 1625 4250 1398 4047 
Q 1172 3844 1172 3481 
z
" transform="scale(0.015625)"/>
       </defs>
       <use xlink:href="#DejaVuSans-31"/>
       <use xlink:href="#DejaVuSans-38" x="63.623047"/>
       <use xlink:href="#DejaVuSans-30" x="127.246094"/>
      </g>
     </g>
    </g>
    <g id="xtick_6">
     <g id="line2d_11">
      <path d="M 777.6 256.32 
L 777.6 34.56 
" clip-path="url(#p6a45c9159a)" style="fill: none; stroke: #b0b0b0; stroke-width: 0.8; stroke-linecap: square"/>
     </g>
     <g id="line2d_12">
      <g>
       <use xlink:href="#m44fa9c9ffa" x="777.6" y="256.32" style="stroke: #000000; stroke-width: 0.8"/>
      </g>
     </g>
     <g id="text_6">
      <!-- 200 -->
      <g transform="translate(764.23875 273.957812) scale(0.14 -0.14)">
       <use xlink:href="#DejaVuSans-32"/>
       <use xlink:href="#DejaVuSans-30" x="63.623047"/>
       <use xlink:href="#DejaVuSans-30" x="127.246094"/>
      </g>
     </g>
    </g>
    <g id="text_7">
     <!-- Time (ms) -->
     <g transform="translate(407.521094 291.507187) scale(0.14 -0.14)">
      <defs>
       <path id="DejaVuSans-54" d="M -19 4666 
L 3928 4666 
L 3928 4134 
L 2272 4134 
L 2272 0 
L 1638 0 
L 1638 4134 
L -19 4134 
L -19 4666 
z
" transform="scale(0.015625)"/>
       <path id="DejaVuSans-69" d="M 603 3500 
L 1178 3500 
L 1178 0 
L 603 0 
L 603 3500 
z
M 603 4863 
L 1178 4863 
L 1178 4134 
L 603 4134 
L 603 4863 
z
" transform="scale(0.015625)"/>
       <path id="DejaVuSans-6d" d="M 3328 2828 
Q 3544 3216 3844 3400 
Q 4144 3584 4550 3584 
Q 5097 3584 5394 3201 
Q 5691 2819 5691 2113 
L 5691 0 
L 5113 0 
L 5113 2094 
Q 5113 2597 4934 2840 
Q 4756 3084 4391 3084 
Q 3944 3084 3684 2787 
Q 3425 2491 3425 1978 
L 3425 0 
L 2847 0 
L 2847 2094 
Q 2847 2600 2669 2842 
Q 2491 3084 2119 3084 
Q 1678 3084 1418 2786 
Q 1159 2488 1159 1978 
L 1159 0 
L 581 0 
L 581 3500 
L 1159 3500 
L 1159 2956 
Q 1356 3278 1631 3431 
Q 1906 3584 2284 3584 
Q 2666 3584 2933 3390 
Q 3200 3197 3328 2828 
z
" transform="scale(0.015625)"/>
       <path id="DejaVuSans-65" d="M 3597 1894 
L 3597 1613 
L 953 1613 
Q 991 1019 1311 708 
Q 1631 397 2203 397 
Q 2534 397 2845 478 
Q 3156 559 3463 722 
L 3463 178 
Q 3153 47 2828 -22 
Q 2503 -91 2169 -91 
Q 1331 -91 842 396 
Q 353 884 353 1716 
Q 353 2575 817 3079 
Q 1281 3584 2069 3584 
Q 2775 3584 3186 3129 
Q 3597 2675 3597 1894 
z
M 3022 2063 
Q 3016 2534 2758 2815 
Q 2500 3097 2075 3097 
Q 1594 3097 1305 2825 
Q 1016 2553 972 2059 
L 3022 2063 
z
" transform="scale(0.015625)"/>
       <path id="DejaVuSans-20" transform="scale(0.015625)"/>
       <path id="DejaVuSans-28" d="M 1984 4856 
Q 1566 4138 1362 3434 
Q 1159 2731 1159 2009 
Q 1159 1288 1364 580 
Q 1569 -128 1984 -844 
L 1484 -844 
Q 1016 -109 783 600 
Q 550 1309 550 2009 
Q 550 2706 781 3412 
Q 1013 4119 1484 4856 
L 1984 4856 
z
" transform="scale(0.015625)"/>
       <path id="DejaVuSans-73" d="M 2834 3397 
L 2834 2853 
Q 2591 2978 2328 3040 
Q 2066 3103 1784 3103 
Q 1356 3103 1142 2972 
Q 928 2841 928 2578 
Q 928 2378 1081 2264 
Q 1234 2150 1697 2047 
L 1894 2003 
Q 2506 1872 2764 1633 
Q 3022 1394 3022 966 
Q 3022 478 2636 193 
Q 2250 -91 1575 -91 
Q 1294 -91 989 -36 
Q 684 19 347 128 
L 347 722 
Q 666 556 975 473 
Q 1284 391 1588 391 
Q 1994 391 2212 530 
Q 2431 669 2431 922 
Q 2431 1156 2273 1281 
Q 2116 1406 1581 1522 
L 1381 1569 
Q 847 1681 609 1914 
Q 372 2147 372 2553 
Q 372 3047 722 3315 
Q 1072 3584 1716 3584 
Q 2034 3584 2315 3537 
Q 2597 3491 2834 3397 
z
" transform="scale(0.015625)"/>
       <path id="DejaVuSans-29" d="M 513 4856 
L 1013 4856 
Q 1481 4119 1714 3412 
Q 1947 2706 1947 2009 
Q 1947 1309 1714 600 
Q 1481 -109 1013 -844 
L 513 -844 
Q 928 -128 1133 580 
Q 1338 1288 1338 2009 
Q 1338 2731 1133 3434 
Q 928 4138 513 4856 
z
" transform="scale(0.015625)"/>
      </defs>
      <use xlink:href="#DejaVuSans-54"/>
      <use xlink:href="#DejaVuSans-69" x="57.958984"/>
      <use xlink:href="#DejaVuSans-6d" x="85.742188"/>
      <use xlink:href="#DejaVuSans-65" x="183.154297"/>
      <use xlink:href="#DejaVuSans-20" x="244.677734"/>
      <use xlink:href="#DejaVuSans-28" x="276.464844"/>
      <use xlink:href="#DejaVuSans-6d" x="315.478516"/>
      <use xlink:href="#DejaVuSans-73" x="412.890625"/>
      <use xlink:href="#DejaVuSans-29" x="464.990234"/>
     </g>
    </g>
   </g>
   <g id="matplotlib.axis_2">
    <g id="ytick_1">
     <g id="line2d_13">
      <path d="M 108 224.997977 
L 777.6 224.997977 
" clip-path="url(#p6a45c9159a)" style="fill: none; stroke: #b0b0b0; stroke-width: 0.8; stroke-linecap: square"/>
     </g>
     <g id="line2d_14">
      <defs>
       <path id="m66be7f9f3c" d="M 0 0 
L -3.5 0 
" style="stroke: #000000; stroke-width: 0.8"/>
      </defs>
      <g>
       <use xlink:href="#m66be7f9f3c" x="108" y="224.997977" style="stroke: #000000; stroke-width: 0.8"/>
      </g>
     </g>
     <g id="text_8">
      <!-- −60 -->
      <g transform="translate(71.453437 230.316883) scale(0.14 -0.14)">
       <defs>
        <path id="DejaVuSans-2212" d="M 678 2272 
L 4684 2272 
L 4684 1741 
L 678 1741 
L 678 2272 
z
" transform="scale(0.015625)"/>
       </defs>
       <use xlink:href="#DejaVuSans-2212"/>
       <use xlink:href="#DejaVuSans-36" x="83.789062"/>
       <use xlink:href="#DejaVuSans-30" x="147.412109"/>
      </g>
     </g>
    </g>
    <g id="ytick_2">
     <g id="line2d_15">
      <path d="M 108 182.581626 
L 777.6 182.581626 
" clip-path="url(#p6a45c9159a)" style="fill: none; stroke: #b0b0b0; stroke-width: 0.8; stroke-linecap: square"/>
     </g>
     <g id="line2d_16">
      <g>
       <use xlink:href="#m66be7f9f3c" x="108" y="182.581626" style="stroke: #000000; stroke-width: 0.8"/>
      </g>
     </g>
     <g id="text_9">
      <!-- −40 -->
      <g transform="translate(71.453437 187.900532) scale(0.14 -0.14)">
       <use xlink:href="#DejaVuSans-2212"/>
       <use xlink:href="#DejaVuSans-34" x="83.789062"/>
       <use xlink:href="#DejaVuSans-30" x="147.412109"/>
      </g>
     </g>
    </g>
    <g id="ytick_3">
     <g id="line2d_17">
      <path d="M 108 140.165274 
L 777.6 140.165274 
" clip-path="url(#p6a45c9159a)" style="fill: none; stroke: #b0b0b0; stroke-width: 0.8; stroke-linecap: square"/>
     </g>
     <g id="line2d_18">
      <g>
       <use xlink:href="#m66be7f9f3c" x="108" y="140.165274" style="stroke: #000000; stroke-width: 0.8"/>
      </g>
     </g>
     <g id="text_10">
      <!-- −20 -->
      <g transform="translate(71.453437 145.484181) scale(0.14 -0.14)">
       <use xlink:href="#DejaVuSans-2212"/>
       <use xlink:href="#DejaVuSans-32" x="83.789062"/>
       <use xlink:href="#DejaVuSans-30" x="147.412109"/>
      </g>
     </g>
    </g>
    <g id="ytick_4">
     <g id="line2d_19">
      <path d="M 108 97.748923 
L 777.6 97.748923 
" clip-path="url(#p6a45c9159a)" style="fill: none; stroke: #b0b0b0; stroke-width: 0.8; stroke-linecap: square"/>
     </g>
     <g id="line2d_20">
      <g>
       <use xlink:href="#m66be7f9f3c" x="108" y="97.748923" style="stroke: #000000; stroke-width: 0.8"/>
      </g>
     </g>
     <g id="text_11">
      <!-- 0 -->
      <g transform="translate(92.0925 103.067829) scale(0.14 -0.14)">
       <use xlink:href="#DejaVuSans-30"/>
      </g>
     </g>
    </g>
    <g id="ytick_5">
     <g id="line2d_21">
      <path d="M 108 55.332571 
L 777.6 55.332571 
" clip-path="url(#p6a45c9159a)" style="fill: none; stroke: #b0b0b0; stroke-width: 0.8; stroke-linecap: square"/>
     </g>
     <g id="line2d_22">
      <g>
       <use xlink:href="#m66be7f9f3c" x="108" y="55.332571" style="stroke: #000000; stroke-width: 0.8"/>
      </g>
     </g>
     <g id="text_12">
      <!-- 20 -->
      <g transform="translate(83.185 60.651478) scale(0.14 -0.14)">
       <use xlink:href="#DejaVuSans-32"/>
       <use xlink:href="#DejaVuSans-30" x="63.623047"/>
      </g>
     </g>
    </g>
    <g id="text_13">
     <!-- $V_{m}$ (mV) -->
     <g transform="translate(64.541875 174.49) rotate(-90) scale(0.14 -0.14)">
      <defs>
       <path id="DejaVuSans-Oblique-56" d="M 1319 0 
L 500 4666 
L 1119 4666 
L 1797 653 
L 4063 4666 
L 4750 4666 
L 2053 0 
L 1319 0 
z
" transform="scale(0.015625)"/>
       <path id="DejaVuSans-Oblique-6d" d="M 5747 2113 
L 5338 0 
L 4763 0 
L 5166 2094 
Q 5191 2228 5203 2325 
Q 5216 2422 5216 2491 
Q 5216 2772 5059 2928 
Q 4903 3084 4622 3084 
Q 4203 3084 3875 2770 
Q 3547 2456 3450 1953 
L 3066 0 
L 2491 0 
L 2900 2094 
Q 2925 2209 2937 2307 
Q 2950 2406 2950 2484 
Q 2950 2769 2794 2926 
Q 2638 3084 2363 3084 
Q 1938 3084 1609 2770 
Q 1281 2456 1184 1953 
L 800 0 
L 225 0 
L 909 3500 
L 1484 3500 
L 1375 2956 
Q 1609 3263 1923 3423 
Q 2238 3584 2597 3584 
Q 2978 3584 3223 3384 
Q 3469 3184 3519 2828 
Q 3781 3197 4126 3390 
Q 4472 3584 4856 3584 
Q 5306 3584 5551 3325 
Q 5797 3066 5797 2591 
Q 5797 2488 5784 2364 
Q 5772 2241 5747 2113 
z
" transform="scale(0.015625)"/>
       <path id="DejaVuSans-56" d="M 1831 0 
L 50 4666 
L 709 4666 
L 2188 738 
L 3669 4666 
L 4325 4666 
L 2547 0 
L 1831 0 
z
" transform="scale(0.015625)"/>
      </defs>
      <use xlink:href="#DejaVuSans-Oblique-56" transform="translate(0 0.125)"/>
      <use xlink:href="#DejaVuSans-Oblique-6d" transform="translate(68.408203 -16.28125) scale(0.7)"/>
      <use xlink:href="#DejaVuSans-20" transform="translate(139.331055 0.125)"/>
      <use xlink:href="#DejaVuSans-28" transform="translate(171.118164 0.125)"/>
      <use xlink:href="#DejaVuSans-6d" transform="translate(210.131836 0.125)"/>
      <use xlink:href="#DejaVuSans-56" transform="translate(307.543945 0.125)"/>
      <use xlink:href="#DejaVuSans-29" transform="translate(375.952148 0.125)"/>
     </g>
    </g>
   </g>
   <g id="line2d_23">
    <path d="M 108 217.14932 
L 108.6696 217.672705 
L 109.3392 218.412414 
L 111.348 221.222293 
L 112.0176 221.722188 
L 112.6872 222.462619 
L 113.3568 223.417962 
L 115.3656 225.568859 
L 116.0352 226.006291 
L 117.3744 227.22416 
L 119.3832 228.447321 
L 120.0528 228.905438 
L 121.392 229.446921 
L 123.4008 229.91027 
L 124.0704 230.01235 
L 124.74 230.412247 
L 125.4096 231.047527 
L 126.0792 231.494634 
L 126.7488 231.768323 
L 127.4184 232.2614 
L 128.088 232.944681 
L 128.7576 233.428174 
L 129.4272 233.69261 
L 130.0968 233.825776 
L 132.7752 235.103155 
L 133.4448 235.254442 
L 136.1232 236.601612 
L 137.4624 236.85912 
L 139.4712 236.932282 
L 142.1496 236.739745 
L 143.4888 236.555801 
L 144.828 236.822599 
L 146.1672 236.763652 
L 148.8456 236.322663 
L 152.1936 235.49465 
L 156.2112 234.227632 
L 160.2288 232.727883 
L 164.916 230.739158 
L 166.2552 230.73642 
L 167.5944 230.393337 
L 170.2728 229.403472 
L 174.2904 227.657029 
L 179.6472 225.055066 
L 185.6736 221.869734 
L 190.3608 219.255853 
L 191.7 219.279146 
L 193.0392 218.892794 
L 195.7176 217.764757 
L 199.0656 216.157482 
L 200.4048 216.312087 
L 201.744 216.030341 
L 204.4224 215.074193 
L 207.1008 213.945279 
L 208.44 214.204406 
L 209.7792 214.010092 
L 211.788 213.426547 
L 214.4664 212.456844 
L 215.8056 212.805436 
L 216.4752 213.246709 
L 217.1448 213.548135 
L 218.484 213.662103 
L 220.4928 213.425545 
L 223.1712 212.815557 
L 223.8408 212.63149 
L 225.18 213.103678 
L 226.5192 213.099046 
L 228.528 212.770524 
L 229.1976 212.621463 
L 230.5368 213.150293 
L 231.2064 213.211123 
L 232.5456 213.977293 
L 233.2152 215.008396 
L 233.8848 215.806355 
L 234.5544 216.246257 
L 235.224 216.940084 
L 235.8936 217.884165 
L 236.5632 218.547735 
L 237.9024 219.240966 
L 239.2416 219.598125 
L 239.9112 220.107312 
L 240.5808 221.290874 
L 241.2504 222.164994 
L 241.92 222.683213 
L 243.2592 223.296981 
L 244.5984 223.65309 
L 246.6072 223.929706 
L 249.2856 223.99392 
L 249.9552 223.969422 
L 251.2944 224.558189 
L 252.6336 224.725939 
L 254.6424 224.696082 
L 255.9816 225.257095 
L 256.6512 225.361257 
L 258.66 226.559223 
L 261.3384 230.714615 
L 262.008 231.409675 
L 262.6776 231.869634 
L 263.3472 232.169344 
L 264.6864 233.003137 
L 266.0256 233.325933 
L 268.0344 233.489946 
L 269.3736 234.022099 
L 270.7128 234.183218 
L 271.3824 234.199225 
L 272.7216 234.682136 
L 274.0608 234.791711 
L 276.0696 234.691883 
L 277.4088 234.531684 
L 278.748 234.84345 
L 280.0872 234.810313 
L 281.4264 234.640032 
L 282.096 234.81646 
L 282.7656 235.21244 
L 283.4352 235.441984 
L 284.7744 235.518295 
L 286.7832 235.319029 
L 289.4616 234.801433 
L 292.8096 233.906293 
L 296.8272 232.569024 
L 300.8448 231.006882 
L 305.532 228.954264 
L 310.8888 226.36152 
L 316.9152 223.194887 
L 324.2808 219.059889 
L 334.3248 213.137369 
L 341.6904 208.638931 
L 343.0296 208.758248 
L 344.3688 209.395711 
L 345.708 209.410963 
L 347.0472 209.163883 
L 348.3864 209.733756 
L 349.7256 209.792994 
L 351.7344 209.487606 
L 352.404 209.33429 
L 353.7432 209.908032 
L 354.4128 210.472979 
L 355.0824 210.89055 
L 356.4216 211.198701 
L 357.7608 211.22816 
L 359.7696 211.0366 
L 362.448 210.531299 
L 365.1264 209.84342 
L 366.4656 210.3637 
L 367.1352 210.903353 
L 367.8048 211.768381 
L 369.8136 214.780097 
L 370.4832 215.704227 
L 371.1528 216.398609 
L 372.492 217.16977 
L 373.8312 217.592749 
L 374.5008 218.144522 
L 376.5096 220.695161 
L 377.8488 221.461285 
L 378.5184 221.705171 
L 379.8576 223.411061 
L 380.5272 223.876373 
L 381.1968 224.560169 
L 382.536 227.044395 
L 383.2056 227.884586 
L 384.5448 228.862452 
L 385.2144 229.196841 
L 386.5536 230.274814 
L 387.8928 230.868835 
L 388.5624 231.078521 
L 389.9016 231.950847 
L 390.5712 232.209698 
L 391.2408 232.699367 
L 393.2496 234.697488 
L 393.9192 235.052157 
L 394.5888 235.588404 
L 395.2584 236.28195 
L 395.928 236.781244 
L 396.5976 237.111316 
L 397.9368 237.418029 
L 398.6064 237.459397 
L 399.9456 237.918547 
L 401.2848 238.040496 
L 401.9544 238.048219 
L 402.624 238.293333 
L 403.2936 238.725508 
L 403.9632 239.000084 
L 405.3024 239.194515 
L 407.3112 239.183277 
L 409.9896 238.901641 
L 413.3376 238.269043 
L 416.6856 237.402487 
L 420.7032 236.117372 
L 424.7208 234.611551 
L 429.408 232.62248 
L 434.7648 230.093997 
L 440.7912 226.982989 
L 447.4872 223.265566 
L 455.5224 218.546428 
L 467.5752 211.181473 
L 474.2712 206.87992 
L 475.6104 205.939219 
L 476.9496 205.996572 
L 478.2888 205.662343 
L 478.9584 205.407316 
L 480.2976 205.8386 
L 481.6368 205.819841 
L 482.976 205.551745 
L 484.9848 204.904746 
L 485.6544 205.154763 
L 486.324 205.90872 
L 486.9936 206.491601 
L 488.3328 208.007433 
L 489.0024 208.423648 
L 490.3416 208.860881 
L 491.6808 209.022101 
L 493.6896 208.98241 
L 494.3592 208.917971 
L 495.6984 209.657934 
L 497.0376 210.789188 
L 497.7072 211.064539 
L 499.0464 212.191867 
L 499.716 212.485608 
L 500.3856 213.124141 
L 501.0552 214.071374 
L 501.7248 214.745973 
L 502.3944 215.162081 
L 503.7336 215.651645 
L 504.4032 215.802686 
L 505.7424 216.775021 
L 507.0816 217.204252 
L 507.7512 217.737844 
L 509.76 220.245746 
L 511.0992 220.983847 
L 511.7688 221.214442 
L 513.108 222.229274 
L 514.4472 222.71867 
L 516.456 223.068621 
L 517.7952 224.5137 
L 518.4648 224.881199 
L 519.1344 225.47592 
L 519.804 226.283916 
L 520.4736 226.856598 
L 522.4824 228.012459 
L 523.152 228.440103 
L 524.4912 228.915305 
L 527.1696 230.763602 
L 529.1784 231.688605 
L 529.848 232.053801 
L 531.1872 232.40279 
L 532.5264 232.418974 
L 533.196 232.369307 
L 536.544 233.479921 
L 538.5528 233.506936 
L 541.2312 233.233888 
L 541.9008 233.128969 
L 545.2488 233.980158 
L 547.2576 233.850367 
L 548.5968 233.645298 
L 549.936 233.924781 
L 551.2752 233.852802 
L 553.284 233.508672 
L 555.9624 232.849996 
L 557.3016 233.023198 
L 558.6408 232.853843 
L 561.3192 232.18935 
L 564.6672 231.106018 
L 568.6848 229.570017 
L 573.372 227.532706 
L 578.7288 224.950521 
L 580.068 224.966056 
L 581.4072 224.604898 
L 584.0856 223.550557 
L 588.1032 221.706522 
L 593.46 219.002947 
L 600.8256 215.010982 
L 606.852 211.592704 
L 608.1912 211.724943 
L 608.8608 211.606233 
L 610.2 212.081374 
L 611.5392 212.011809 
L 612.2088 212.353427 
L 612.8784 213.063651 
L 613.548 213.527608 
L 614.2176 213.746618 
L 615.5568 213.872758 
L 617.5656 213.721197 
L 620.244 213.213961 
L 623.592 212.304406 
L 625.6008 211.656722 
L 626.94 212.080266 
L 627.6096 212.097999 
L 630.9576 214.009493 
L 632.2968 214.159791 
L 634.3056 214.079516 
L 634.9752 214.004971 
L 636.984 215.194714 
L 637.6536 216.031248 
L 638.3232 217.438131 
L 639.6624 219.44361 
L 640.332 220.169322 
L 641.6712 220.987253 
L 642.3408 222.0092 
L 644.3496 226.5704 
L 645.0192 227.355435 
L 646.3584 228.381462 
L 647.6976 229.062836 
L 649.0368 230.121802 
L 649.7064 230.453282 
L 651.0456 231.470969 
L 652.3848 232.013432 
L 653.724 232.355017 
L 655.0632 233.651818 
L 656.4024 234.24058 
L 657.7416 234.570153 
L 659.0808 235.288785 
L 659.7504 235.487509 
L 661.0896 236.225739 
L 661.7592 236.424629 
L 663.0984 237.144632 
L 664.4376 237.463773 
L 665.7768 237.4749 
L 667.7856 237.155297 
L 669.7944 236.749759 
L 671.1336 236.953134 
L 671.8032 236.925139 
L 672.4728 237.121026 
L 673.1424 237.508109 
L 673.812 237.731041 
L 675.1512 237.807606 
L 677.16 237.616476 
L 678.4992 237.391253 
L 679.8384 237.602535 
L 681.1776 237.492209 
L 683.856 236.954071 
L 687.204 236.015752 
L 691.2216 234.63317 
L 695.9088 232.749628 
L 700.596 230.631627 
L 705.9528 227.977002 
L 711.9792 224.750292 
L 719.3448 220.545663 
L 728.7192 214.931885 
L 730.0584 214.972785 
L 731.3976 214.583207 
L 734.076 213.423733 
L 738.7632 211.073954 
L 740.772 210.002151 
L 742.1112 210.208423 
L 743.4504 209.965271 
L 745.4592 209.288424 
L 748.8072 207.858989 
L 750.1464 207.226271 
L 751.4856 207.545208 
L 752.8248 207.435181 
L 754.8336 206.902584 
L 756.8424 206.166518 
L 757.512 206.405862 
L 758.1816 207.121437 
L 758.8512 207.654621 
L 759.5208 207.948771 
L 760.1904 208.104073 
L 761.5296 209.126095 
L 762.8688 209.532919 
L 763.5384 209.613176 
L 766.8864 212.090248 
L 767.556 212.290681 
L 768.2256 212.876974 
L 769.5648 214.877861 
L 770.2344 216.060137 
L 770.904 216.885905 
L 771.5736 218.630581 
L 772.9128 221.204868 
L 773.5824 222.101977 
L 776.2608 224.569047 
L 777.6 225.337523 
L 777.6 225.337523 
" clip-path="url(#p6a45c9159a)" style="fill: none; stroke: #000000; stroke-width: 1.5; stroke-linecap: square"/>
   </g>
   <g id="line2d_24">
    <path d="M 108 146.804664 
L 110.0088 148.750694 
L 112.0176 151.161507 
L 114.0264 154.005609 
L 116.0352 157.400225 
L 118.044 161.366077 
L 120.0528 165.956404 
L 122.0616 171.241958 
L 125.4096 180.933823 
L 128.7576 190.977347 
L 129.4272 161.219061 
L 130.0968 151.652084 
L 130.7664 147.343491 
L 131.436 144.950859 
L 132.1056 143.509486 
L 132.7752 142.595497 
L 133.4448 141.98429 
L 134.784 141.224574 
L 137.4624 140.269707 
L 142.1496 138.499359 
L 144.828 137.597004 
L 148.176 136.801246 
L 152.1936 136.094792 
L 156.8808 135.533062 
L 162.2376 135.129066 
L 166.9248 134.968294 
L 182.9952 135.089719 
L 192.3696 135.223066 
L 206.4312 136.441943 
L 209.1096 136.761147 
L 217.8144 138.288994 
L 221.832 139.412179 
L 227.1888 140.802813 
L 231.876 142.278066 
L 233.2152 142.887933 
L 235.224 144.15659 
L 237.2328 145.758875 
L 241.2504 149.293149 
L 243.9288 152.306696 
L 248.616 157.935884 
L 251.2944 161.520262 
L 253.3032 164.675619 
L 255.312 168.178252 
L 257.3208 172.156298 
L 259.3296 176.726598 
L 260.6688 180.292544 
L 262.6776 186.272049 
L 263.3472 157.970846 
L 264.0168 149.702832 
L 264.6864 145.876524 
L 265.356 143.784016 
L 266.0256 142.536023 
L 266.6952 141.745095 
L 267.3648 141.211005 
L 268.704 140.511479 
L 273.3912 138.795564 
L 278.748 136.995388 
L 282.096 136.249578 
L 284.1048 136.008445 
L 292.8096 135.425772 
L 300.1752 135.169675 
L 310.8888 135.053317 
L 342.36 135.061224 
L 344.3688 135.265756 
L 349.056 136.252877 
L 355.752 138.025987 
L 359.7696 139.411885 
L 363.7872 140.490238 
L 367.1352 141.384386 
L 368.4744 142.004773 
L 369.8136 142.897659 
L 372.492 145.138438 
L 375.84 148.051508 
L 378.5184 150.956809 
L 380.5272 153.467517 
L 381.8664 155.427763 
L 383.2056 157.804708 
L 385.2144 162.040085 
L 387.2232 166.979759 
L 389.232 172.636471 
L 391.9104 181.102 
L 396.5976 196.520338 
L 397.2672 165.225735 
L 397.9368 154.209276 
L 398.6064 149.413325 
L 399.276 146.720826 
L 399.9456 145.075634 
L 400.6152 144.008255 
L 401.2848 143.273878 
L 402.624 142.305456 
L 404.6328 141.366047 
L 412.668 138.122257 
L 415.3464 137.32649 
L 418.6944 136.571717 
L 422.712 135.931754 
L 427.3992 135.432485 
L 433.4256 135.031638 
L 442.1304 134.711795 
L 456.192 134.458596 
L 477.6192 134.253117 
L 480.2976 134.521243 
L 486.9936 135.720992 
L 489.0024 136.511814 
L 492.3504 137.924 
L 497.7072 139.94272 
L 500.3856 141.393185 
L 502.3944 142.739098 
L 508.4208 147.091859 
L 510.4296 148.997919 
L 513.108 151.87244 
L 516.456 155.884192 
L 517.7952 157.698644 
L 519.1344 159.794063 
L 520.4736 162.245585 
L 522.4824 166.563689 
L 524.4912 171.598823 
L 526.5 177.237471 
L 530.5176 189.21143 
L 531.1872 159.926736 
L 531.8568 150.821505 
L 532.5264 146.652083 
L 533.196 144.319863 
L 533.8656 142.894634 
L 534.5352 141.972175 
L 535.2048 141.347662 
L 536.544 140.551831 
L 542.5704 137.963984 
L 544.5792 137.2529 
L 547.9272 136.375282 
L 550.6056 135.850717 
L 555.2928 135.258917 
L 557.9712 135.054859 
L 568.6848 134.750307 
L 579.3984 134.657441 
L 604.8432 135.41621 
L 608.8608 135.574095 
L 611.5392 136.026058 
L 613.548 136.552281 
L 618.2352 138.019947 
L 622.2528 138.931163 
L 628.2792 140.191709 
L 630.288 140.948076 
L 637.6536 144.264152 
L 638.9928 145.233009 
L 641.0016 147.13204 
L 643.0104 149.286895 
L 644.3496 151.154532 
L 646.3584 154.485001 
L 649.0368 159.407674 
L 651.0456 163.734106 
L 653.0544 168.8196 
L 655.0632 174.657948 
L 662.4288 197.929447 
L 664.4376 203.129775 
L 665.1072 169.795115 
L 665.7768 156.869295 
L 666.4464 151.322149 
L 667.116 148.112487 
L 667.7856 146.080121 
L 668.4552 144.703945 
L 669.1248 143.715309 
L 670.464 142.354859 
L 671.8032 141.395602 
L 673.812 140.284326 
L 677.16 138.810913 
L 679.8384 137.825557 
L 682.5168 137.108456 
L 685.8648 136.413244 
L 689.8824 135.803655 
L 694.5696 135.318586 
L 700.596 134.923189 
L 709.3008 134.602667 
L 723.3624 134.345956 
L 730.728 134.348982 
L 738.0936 134.765283 
L 742.7808 135.006315 
L 748.8072 135.643228 
L 752.1552 135.981407 
L 758.8512 137.130546 
L 761.5296 138.099445 
L 765.5472 139.869283 
L 768.8952 141.738445 
L 770.2344 142.702736 
L 771.5736 143.88725 
L 772.9128 145.348093 
L 776.2608 149.495582 
L 777.6 151.228537 
L 777.6 151.228537 
" clip-path="url(#p6a45c9159a)" style="fill: none; stroke: #4169e1; stroke-width: 1.5; stroke-linecap: square"/>
   </g>
   <g id="patch_3">
    <path d="M 108 256.32 
L 108 34.56 
" style="fill: none; stroke: #000000; stroke-width: 0.8; stroke-linejoin: miter; stroke-linecap: square"/>
   </g>
   <g id="patch_4">
    <path d="M 777.6 256.32 
L 777.6 34.56 
" style="fill: none; stroke: #000000; stroke-width: 0.8; stroke-linejoin: miter; stroke-linecap: square"/>
   </g>
   <g id="patch_5">
    <path d="M 108 256.32 
L 777.6 256.32 
" style="fill: none; stroke: #000000; stroke-width: 0.8; stroke-linejoin: miter; stroke-linecap: square"/>
   </g>
   <g id="patch_6">
    <path d="M 108 34.56 
L 777.6 34.56 
" style="fill: none; stroke: #000000; stroke-width: 0.8; stroke-linejoin: miter; stroke-linecap: square"/>
   </g>
   <g id="legend_1">
    <g id="patch_7">
     <path d="M 695.098438 71.91625 
L 770.6 71.91625 
Q 772.6 71.91625 772.6 69.91625 
L 772.6 41.56 
Q 772.6 39.56 770.6 39.56 
L 695.098438 39.56 
Q 693.098438 39.56 693.098438 41.56 
L 693.098438 69.91625 
Q 693.098438 71.91625 695.098438 71.91625 
z
" style="fill: #ffffff; opacity: 0.8; stroke: #cccccc; stroke-linejoin: miter"/>
    </g>
    <g id="line2d_25">
     <path d="M 697.098438 47.658437 
L 707.098438 47.658437 
L 717.098438 47.658437 
" style="fill: none; stroke: #000000; stroke-width: 1.5; stroke-linecap: square"/>
    </g>
    <g id="text_14">
     <!-- Soma -->
     <g transform="translate(725.098438 51.158437) scale(0.1 -0.1)">
      <defs>
       <path id="DejaVuSans-53" d="M 3425 4513 
L 3425 3897 
Q 3066 4069 2747 4153 
Q 2428 4238 2131 4238 
Q 1616 4238 1336 4038 
Q 1056 3838 1056 3469 
Q 1056 3159 1242 3001 
Q 1428 2844 1947 2747 
L 2328 2669 
Q 3034 2534 3370 2195 
Q 3706 1856 3706 1288 
Q 3706 609 3251 259 
Q 2797 -91 1919 -91 
Q 1588 -91 1214 -16 
Q 841 59 441 206 
L 441 856 
Q 825 641 1194 531 
Q 1563 422 1919 422 
Q 2459 422 2753 634 
Q 3047 847 3047 1241 
Q 3047 1584 2836 1778 
Q 2625 1972 2144 2069 
L 1759 2144 
Q 1053 2284 737 2584 
Q 422 2884 422 3419 
Q 422 4038 858 4394 
Q 1294 4750 2059 4750 
Q 2388 4750 2728 4690 
Q 3069 4631 3425 4513 
z
" transform="scale(0.015625)"/>
       <path id="DejaVuSans-6f" d="M 1959 3097 
Q 1497 3097 1228 2736 
Q 959 2375 959 1747 
Q 959 1119 1226 758 
Q 1494 397 1959 397 
Q 2419 397 2687 759 
Q 2956 1122 2956 1747 
Q 2956 2369 2687 2733 
Q 2419 3097 1959 3097 
z
M 1959 3584 
Q 2709 3584 3137 3096 
Q 3566 2609 3566 1747 
Q 3566 888 3137 398 
Q 2709 -91 1959 -91 
Q 1206 -91 779 398 
Q 353 888 353 1747 
Q 353 2609 779 3096 
Q 1206 3584 1959 3584 
z
" transform="scale(0.015625)"/>
       <path id="DejaVuSans-61" d="M 2194 1759 
Q 1497 1759 1228 1600 
Q 959 1441 959 1056 
Q 959 750 1161 570 
Q 1363 391 1709 391 
Q 2188 391 2477 730 
Q 2766 1069 2766 1631 
L 2766 1759 
L 2194 1759 
z
M 3341 1997 
L 3341 0 
L 2766 0 
L 2766 531 
Q 2569 213 2275 61 
Q 1981 -91 1556 -91 
Q 1019 -91 701 211 
Q 384 513 384 1019 
Q 384 1609 779 1909 
Q 1175 2209 1959 2209 
L 2766 2209 
L 2766 2266 
Q 2766 2663 2505 2880 
Q 2244 3097 1772 3097 
Q 1472 3097 1187 3025 
Q 903 2953 641 2809 
L 641 3341 
Q 956 3463 1253 3523 
Q 1550 3584 1831 3584 
Q 2591 3584 2966 3190 
Q 3341 2797 3341 1997 
z
" transform="scale(0.015625)"/>
      </defs>
      <use xlink:href="#DejaVuSans-53"/>
      <use xlink:href="#DejaVuSans-6f" x="63.476562"/>
      <use xlink:href="#DejaVuSans-6d" x="124.658203"/>
      <use xlink:href="#DejaVuSans-61" x="222.070312"/>
     </g>
    </g>
    <g id="line2d_26">
     <path d="M 697.098438 62.336562 
L 707.098438 62.336562 
L 717.098438 62.336562 
" style="fill: none; stroke: #4169e1; stroke-width: 1.5; stroke-linecap: square"/>
    </g>
    <g id="text_15">
     <!-- Dendrite -->
     <g transform="translate(725.098438 65.836562) scale(0.1 -0.1)">
      <defs>
       <path id="DejaVuSans-44" d="M 1259 4147 
L 1259 519 
L 2022 519 
Q 2988 519 3436 956 
Q 3884 1394 3884 2338 
Q 3884 3275 3436 3711 
Q 2988 4147 2022 4147 
L 1259 4147 
z
M 628 4666 
L 1925 4666 
Q 3281 4666 3915 4102 
Q 4550 3538 4550 2338 
Q 4550 1131 3912 565 
Q 3275 0 1925 0 
L 628 0 
L 628 4666 
z
" transform="scale(0.015625)"/>
       <path id="DejaVuSans-6e" d="M 3513 2113 
L 3513 0 
L 2938 0 
L 2938 2094 
Q 2938 2591 2744 2837 
Q 2550 3084 2163 3084 
Q 1697 3084 1428 2787 
Q 1159 2491 1159 1978 
L 1159 0 
L 581 0 
L 581 3500 
L 1159 3500 
L 1159 2956 
Q 1366 3272 1645 3428 
Q 1925 3584 2291 3584 
Q 2894 3584 3203 3211 
Q 3513 2838 3513 2113 
z
" transform="scale(0.015625)"/>
       <path id="DejaVuSans-64" d="M 2906 2969 
L 2906 4863 
L 3481 4863 
L 3481 0 
L 2906 0 
L 2906 525 
Q 2725 213 2448 61 
Q 2172 -91 1784 -91 
Q 1150 -91 751 415 
Q 353 922 353 1747 
Q 353 2572 751 3078 
Q 1150 3584 1784 3584 
Q 2172 3584 2448 3432 
Q 2725 3281 2906 2969 
z
M 947 1747 
Q 947 1113 1208 752 
Q 1469 391 1925 391 
Q 2381 391 2643 752 
Q 2906 1113 2906 1747 
Q 2906 2381 2643 2742 
Q 2381 3103 1925 3103 
Q 1469 3103 1208 2742 
Q 947 2381 947 1747 
z
" transform="scale(0.015625)"/>
       <path id="DejaVuSans-72" d="M 2631 2963 
Q 2534 3019 2420 3045 
Q 2306 3072 2169 3072 
Q 1681 3072 1420 2755 
Q 1159 2438 1159 1844 
L 1159 0 
L 581 0 
L 581 3500 
L 1159 3500 
L 1159 2956 
Q 1341 3275 1631 3429 
Q 1922 3584 2338 3584 
Q 2397 3584 2469 3576 
Q 2541 3569 2628 3553 
L 2631 2963 
z
" transform="scale(0.015625)"/>
       <path id="DejaVuSans-74" d="M 1172 4494 
L 1172 3500 
L 2356 3500 
L 2356 3053 
L 1172 3053 
L 1172 1153 
Q 1172 725 1289 603 
Q 1406 481 1766 481 
L 2356 481 
L 2356 0 
L 1766 0 
Q 1100 0 847 248 
Q 594 497 594 1153 
L 594 3053 
L 172 3053 
L 172 3500 
L 594 3500 
L 594 4494 
L 1172 4494 
z
" transform="scale(0.015625)"/>
      </defs>
      <use xlink:href="#DejaVuSans-44"/>
      <use xlink:href="#DejaVuSans-65" x="77.001953"/>
      <use xlink:href="#DejaVuSans-6e" x="138.525391"/>
      <use xlink:href="#DejaVuSans-64" x="201.904297"/>
      <use xlink:href="#DejaVuSans-72" x="265.380859"/>
      <use xlink:href="#DejaVuSans-69" x="306.494141"/>
      <use xlink:href="#DejaVuSans-74" x="334.277344"/>
      <use xlink:href="#DejaVuSans-65" x="373.486328"/>
     </g>
    </g>
   </g>
  </g>
 </g>
 <defs>
  <clipPath id="p6a45c9159a">
   <rect x="108" y="34.56" width="669.6" height="221.76"/>
  </clipPath>
 </defs>
</svg>
