<?xml version="1.0" encoding="utf-8" standalone="no"?>
<!DOCTYPE svg PUBLIC "-//W3C//DTD SVG 1.1//EN"
  "http://www.w3.org/Graphics/SVG/1.1/DTD/svg11.dtd">
<svg xmlns:xlink="http://www.w3.org/1999/xlink" width="864pt" height="288pt" viewBox="0 0 864 288" xmlns="http://www.w3.org/2000/svg" version="1.1">
 <metadata>
  <rdf:RDF xmlns:dc="http://purl.org/dc/elements/1.1/" xmlns:cc="http://creativecommons.org/ns#" xmlns:rdf="http://www.w3.org/1999/02/22-rdf-syntax-ns#">
   <cc:Work>
    <dc:type rdf:resource="http://purl.org/dc/dcmitype/StillImage"/>
    <dc:date>2024-04-23T19:16:45.794625</dc:date>
    <dc:format>image/svg+xml</dc:format>
    <dc:creator>
     <cc:Agent>
      <dc:title>Matplotlib v3.8.2, https://matplotlib.org/</dc:title>
     </cc:Agent>
    </dc:creator>
   </cc:Work>
  </rdf:RDF>
 </metadata>
 <defs>
  <style type="text/css">*{stroke-linejoin: round; stroke-linecap: butt}</style>
 </defs>
 <g id="figure_1">
  <g id="patch_1">
   <path d="M 0 288 
L 864 288 
L 864 0 
L 0 0 
z
" style="fill: #ffffff"/>
  </g>
  <g id="axes_1">
   <g id="patch_2">
    <path d="M 108 256.32 
L 777.6 256.32 
L 777.6 34.56 
L 108 34.56 
z
" style="fill: #ffffff"/>
   </g>
   <g id="matplotlib.axis_1">
    <g id="xtick_1">
     <g id="line2d_1">
      <path d="M 108 256.32 
L 108 34.56 
" clip-path="url(#p4e02de95ac)" style="fill: none; stroke: #b0b0b0; stroke-width: 0.8; stroke-linecap: square"/>
     </g>
     <g id="line2d_2">
      <defs>
       <path id="mc609a3eb44" d="M 0 0 
L 0 3.5 
" style="stroke: #000000; stroke-width: 0.8"/>
      </defs>
      <g>
       <use xlink:href="#mc609a3eb44" x="108" y="256.32" style="stroke: #000000; stroke-width: 0.8"/>
      </g>
     </g>
     <g id="text_1">
      <!-- 100 -->
      <g transform="translate(94.63875 273.957812) scale(0.14 -0.14)">
       <defs>
        <path id="DejaVuSans-31" d="M 794 531 
L 1825 531 
L 1825 4091 
L 703 3866 
L 703 4441 
L 1819 4666 
L 2450 4666 
L 2450 531 
L 3481 531 
L 3481 0 
L 794 0 
L 794 531 
z
" transform="scale(0.015625)"/>
        <path id="DejaVuSans-30" d="M 2034 4250 
Q 1547 4250 1301 3770 
Q 1056 3291 1056 2328 
Q 1056 1369 1301 889 
Q 1547 409 2034 409 
Q 2525 409 2770 889 
Q 3016 1369 3016 2328 
Q 3016 3291 2770 3770 
Q 2525 4250 2034 4250 
z
M 2034 4750 
Q 2819 4750 3233 4129 
Q 3647 3509 3647 2328 
Q 3647 1150 3233 529 
Q 2819 -91 2034 -91 
Q 1250 -91 836 529 
Q 422 1150 422 2328 
Q 422 3509 836 4129 
Q 1250 4750 2034 4750 
z
" transform="scale(0.015625)"/>
       </defs>
       <use xlink:href="#DejaVuSans-31"/>
       <use xlink:href="#DejaVuSans-30" x="63.623047"/>
       <use xlink:href="#DejaVuSans-30" x="127.246094"/>
      </g>
     </g>
    </g>
    <g id="xtick_2">
     <g id="line2d_3">
      <path d="M 241.92 256.32 
L 241.92 34.56 
" clip-path="url(#p4e02de95ac)" style="fill: none; stroke: #b0b0b0; stroke-width: 0.8; stroke-linecap: square"/>
     </g>
     <g id="line2d_4">
      <g>
       <use xlink:href="#mc609a3eb44" x="241.92" y="256.32" style="stroke: #000000; stroke-width: 0.8"/>
      </g>
     </g>
     <g id="text_2">
      <!-- 120 -->
      <g transform="translate(228.55875 273.957812) scale(0.14 -0.14)">
       <defs>
        <path id="DejaVuSans-32" d="M 1228 531 
L 3431 531 
L 3431 0 
L 469 0 
L 469 531 
Q 828 903 1448 1529 
Q 2069 2156 2228 2338 
Q 2531 2678 2651 2914 
Q 2772 3150 2772 3378 
Q 2772 3750 2511 3984 
Q 2250 4219 1831 4219 
Q 1534 4219 1204 4116 
Q 875 4013 500 3803 
L 500 4441 
Q 881 4594 1212 4672 
Q 1544 4750 1819 4750 
Q 2544 4750 2975 4387 
Q 3406 4025 3406 3419 
Q 3406 3131 3298 2873 
Q 3191 2616 2906 2266 
Q 2828 2175 2409 1742 
Q 1991 1309 1228 531 
z
" transform="scale(0.015625)"/>
       </defs>
       <use xlink:href="#DejaVuSans-31"/>
       <use xlink:href="#DejaVuSans-32" x="63.623047"/>
       <use xlink:href="#DejaVuSans-30" x="127.246094"/>
      </g>
     </g>
    </g>
    <g id="xtick_3">
     <g id="line2d_5">
      <path d="M 375.84 256.32 
L 375.84 34.56 
" clip-path="url(#p4e02de95ac)" style="fill: none; stroke: #b0b0b0; stroke-width: 0.8; stroke-linecap: square"/>
     </g>
     <g id="line2d_6">
      <g>
       <use xlink:href="#mc609a3eb44" x="375.84" y="256.32" style="stroke: #000000; stroke-width: 0.8"/>
      </g>
     </g>
     <g id="text_3">
      <!-- 140 -->
      <g transform="translate(362.47875 273.957812) scale(0.14 -0.14)">
       <defs>
        <path id="DejaVuSans-34" d="M 2419 4116 
L 825 1625 
L 2419 1625 
L 2419 4116 
z
M 2253 4666 
L 3047 4666 
L 3047 1625 
L 3713 1625 
L 3713 1100 
L 3047 1100 
L 3047 0 
L 2419 0 
L 2419 1100 
L 313 1100 
L 313 1709 
L 2253 4666 
z
" transform="scale(0.015625)"/>
       </defs>
       <use xlink:href="#DejaVuSans-31"/>
       <use xlink:href="#DejaVuSans-34" x="63.623047"/>
       <use xlink:href="#DejaVuSans-30" x="127.246094"/>
      </g>
     </g>
    </g>
    <g id="xtick_4">
     <g id="line2d_7">
      <path d="M 509.76 256.32 
L 509.76 34.56 
" clip-path="url(#p4e02de95ac)" style="fill: none; stroke: #b0b0b0; stroke-width: 0.8; stroke-linecap: square"/>
     </g>
     <g id="line2d_8">
      <g>
       <use xlink:href="#mc609a3eb44" x="509.76" y="256.32" style="stroke: #000000; stroke-width: 0.8"/>
      </g>
     </g>
     <g id="text_4">
      <!-- 160 -->
      <g transform="translate(496.39875 273.957812) scale(0.14 -0.14)">
       <defs>
        <path id="DejaVuSans-36" d="M 2113 2584 
Q 1688 2584 1439 2293 
Q 1191 2003 1191 1497 
Q 1191 994 1439 701 
Q 1688 409 2113 409 
Q 2538 409 2786 701 
Q 3034 994 3034 1497 
Q 3034 2003 2786 2293 
Q 2538 2584 2113 2584 
z
M 3366 4563 
L 3366 3988 
Q 3128 4100 2886 4159 
Q 2644 4219 2406 4219 
Q 1781 4219 1451 3797 
Q 1122 3375 1075 2522 
Q 1259 2794 1537 2939 
Q 1816 3084 2150 3084 
Q 2853 3084 3261 2657 
Q 3669 2231 3669 1497 
Q 3669 778 3244 343 
Q 2819 -91 2113 -91 
Q 1303 -91 875 529 
Q 447 1150 447 2328 
Q 447 3434 972 4092 
Q 1497 4750 2381 4750 
Q 2619 4750 2861 4703 
Q 3103 4656 3366 4563 
z
" transform="scale(0.015625)"/>
       </defs>
       <use xlink:href="#DejaVuSans-31"/>
       <use xlink:href="#DejaVuSans-36" x="63.623047"/>
       <use xlink:href="#DejaVuSans-30" x="127.246094"/>
      </g>
     </g>
    </g>
    <g id="xtick_5">
     <g id="line2d_9">
      <path d="M 643.68 256.32 
L 643.68 34.56 
" clip-path="url(#p4e02de95ac)" style="fill: none; stroke: #b0b0b0; stroke-width: 0.8; stroke-linecap: square"/>
     </g>
     <g id="line2d_10">
      <g>
       <use xlink:href="#mc609a3eb44" x="643.68" y="256.32" style="stroke: #000000; stroke-width: 0.8"/>
      </g>
     </g>
     <g id="text_5">
      <!-- 180 -->
      <g transform="translate(630.31875 273.957812) scale(0.14 -0.14)">
       <defs>
        <path id="DejaVuSans-38" d="M 2034 2216 
Q 1584 2216 1326 1975 
Q 1069 1734 1069 1313 
Q 1069 891 1326 650 
Q 1584 409 2034 409 
Q 2484 409 2743 651 
Q 3003 894 3003 1313 
Q 3003 1734 2745 1975 
Q 2488 2216 2034 2216 
z
M 1403 2484 
Q 997 2584 770 2862 
Q 544 3141 544 3541 
Q 544 4100 942 4425 
Q 1341 4750 2034 4750 
Q 2731 4750 3128 4425 
Q 3525 4100 3525 3541 
Q 3525 3141 3298 2862 
Q 3072 2584 2669 2484 
Q 3125 2378 3379 2068 
Q 3634 1759 3634 1313 
Q 3634 634 3220 271 
Q 2806 -91 2034 -91 
Q 1263 -91 848 271 
Q 434 634 434 1313 
Q 434 1759 690 2068 
Q 947 2378 1403 2484 
z
M 1172 3481 
Q 1172 3119 1398 2916 
Q 1625 2713 2034 2713 
Q 2441 2713 2670 2916 
Q 2900 3119 2900 3481 
Q 2900 3844 2670 4047 
Q 2441 4250 2034 4250 
Q 1625 4250 1398 4047 
Q 1172 3844 1172 3481 
z
" transform="scale(0.015625)"/>
       </defs>
       <use xlink:href="#DejaVuSans-31"/>
       <use xlink:href="#DejaVuSans-38" x="63.623047"/>
       <use xlink:href="#DejaVuSans-30" x="127.246094"/>
      </g>
     </g>
    </g>
    <g id="xtick_6">
     <g id="line2d_11">
      <path d="M 777.6 256.32 
L 777.6 34.56 
" clip-path="url(#p4e02de95ac)" style="fill: none; stroke: #b0b0b0; stroke-width: 0.8; stroke-linecap: square"/>
     </g>
     <g id="line2d_12">
      <g>
       <use xlink:href="#mc609a3eb44" x="777.6" y="256.32" style="stroke: #000000; stroke-width: 0.8"/>
      </g>
     </g>
     <g id="text_6">
      <!-- 200 -->
      <g transform="translate(764.23875 273.957812) scale(0.14 -0.14)">
       <use xlink:href="#DejaVuSans-32"/>
       <use xlink:href="#DejaVuSans-30" x="63.623047"/>
       <use xlink:href="#DejaVuSans-30" x="127.246094"/>
      </g>
     </g>
    </g>
    <g id="text_7">
     <!-- Time (ms) -->
     <g transform="translate(407.521094 291.507187) scale(0.14 -0.14)">
      <defs>
       <path id="DejaVuSans-54" d="M -19 4666 
L 3928 4666 
L 3928 4134 
L 2272 4134 
L 2272 0 
L 1638 0 
L 1638 4134 
L -19 4134 
L -19 4666 
z
" transform="scale(0.015625)"/>
       <path id="DejaVuSans-69" d="M 603 3500 
L 1178 3500 
L 1178 0 
L 603 0 
L 603 3500 
z
M 603 4863 
L 1178 4863 
L 1178 4134 
L 603 4134 
L 603 4863 
z
" transform="scale(0.015625)"/>
       <path id="DejaVuSans-6d" d="M 3328 2828 
Q 3544 3216 3844 3400 
Q 4144 3584 4550 3584 
Q 5097 3584 5394 3201 
Q 5691 2819 5691 2113 
L 5691 0 
L 5113 0 
L 5113 2094 
Q 5113 2597 4934 2840 
Q 4756 3084 4391 3084 
Q 3944 3084 3684 2787 
Q 3425 2491 3425 1978 
L 3425 0 
L 2847 0 
L 2847 2094 
Q 2847 2600 2669 2842 
Q 2491 3084 2119 3084 
Q 1678 3084 1418 2786 
Q 1159 2488 1159 1978 
L 1159 0 
L 581 0 
L 581 3500 
L 1159 3500 
L 1159 2956 
Q 1356 3278 1631 3431 
Q 1906 3584 2284 3584 
Q 2666 3584 2933 3390 
Q 3200 3197 3328 2828 
z
" transform="scale(0.015625)"/>
       <path id="DejaVuSans-65" d="M 3597 1894 
L 3597 1613 
L 953 1613 
Q 991 1019 1311 708 
Q 1631 397 2203 397 
Q 2534 397 2845 478 
Q 3156 559 3463 722 
L 3463 178 
Q 3153 47 2828 -22 
Q 2503 -91 2169 -91 
Q 1331 -91 842 396 
Q 353 884 353 1716 
Q 353 2575 817 3079 
Q 1281 3584 2069 3584 
Q 2775 3584 3186 3129 
Q 3597 2675 3597 1894 
z
M 3022 2063 
Q 3016 2534 2758 2815 
Q 2500 3097 2075 3097 
Q 1594 3097 1305 2825 
Q 1016 2553 972 2059 
L 3022 2063 
z
" transform="scale(0.015625)"/>
       <path id="DejaVuSans-20" transform="scale(0.015625)"/>
       <path id="DejaVuSans-28" d="M 1984 4856 
Q 1566 4138 1362 3434 
Q 1159 2731 1159 2009 
Q 1159 1288 1364 580 
Q 1569 -128 1984 -844 
L 1484 -844 
Q 1016 -109 783 600 
Q 550 1309 550 2009 
Q 550 2706 781 3412 
Q 1013 4119 1484 4856 
L 1984 4856 
z
" transform="scale(0.015625)"/>
       <path id="DejaVuSans-73" d="M 2834 3397 
L 2834 2853 
Q 2591 2978 2328 3040 
Q 2066 3103 1784 3103 
Q 1356 3103 1142 2972 
Q 928 2841 928 2578 
Q 928 2378 1081 2264 
Q 1234 2150 1697 2047 
L 1894 2003 
Q 2506 1872 2764 1633 
Q 3022 1394 3022 966 
Q 3022 478 2636 193 
Q 2250 -91 1575 -91 
Q 1294 -91 989 -36 
Q 684 19 347 128 
L 347 722 
Q 666 556 975 473 
Q 1284 391 1588 391 
Q 1994 391 2212 530 
Q 2431 669 2431 922 
Q 2431 1156 2273 1281 
Q 2116 1406 1581 1522 
L 1381 1569 
Q 847 1681 609 1914 
Q 372 2147 372 2553 
Q 372 3047 722 3315 
Q 1072 3584 1716 3584 
Q 2034 3584 2315 3537 
Q 2597 3491 2834 3397 
z
" transform="scale(0.015625)"/>
       <path id="DejaVuSans-29" d="M 513 4856 
L 1013 4856 
Q 1481 4119 1714 3412 
Q 1947 2706 1947 2009 
Q 1947 1309 1714 600 
Q 1481 -109 1013 -844 
L 513 -844 
Q 928 -128 1133 580 
Q 1338 1288 1338 2009 
Q 1338 2731 1133 3434 
Q 928 4138 513 4856 
z
" transform="scale(0.015625)"/>
      </defs>
      <use xlink:href="#DejaVuSans-54"/>
      <use xlink:href="#DejaVuSans-69" x="57.958984"/>
      <use xlink:href="#DejaVuSans-6d" x="85.742188"/>
      <use xlink:href="#DejaVuSans-65" x="183.154297"/>
      <use xlink:href="#DejaVuSans-20" x="244.677734"/>
      <use xlink:href="#DejaVuSans-28" x="276.464844"/>
      <use xlink:href="#DejaVuSans-6d" x="315.478516"/>
      <use xlink:href="#DejaVuSans-73" x="412.890625"/>
      <use xlink:href="#DejaVuSans-29" x="464.990234"/>
     </g>
    </g>
   </g>
   <g id="matplotlib.axis_2">
    <g id="ytick_1">
     <g id="line2d_13">
      <path d="M 108 224.851919 
L 777.6 224.851919 
" clip-path="url(#p4e02de95ac)" style="fill: none; stroke: #b0b0b0; stroke-width: 0.8; stroke-linecap: square"/>
     </g>
     <g id="line2d_14">
      <defs>
       <path id="m50b213954b" d="M 0 0 
L -3.5 0 
" style="stroke: #000000; stroke-width: 0.8"/>
      </defs>
      <g>
       <use xlink:href="#m50b213954b" x="108" y="224.851919" style="stroke: #000000; stroke-width: 0.8"/>
      </g>
     </g>
     <g id="text_8">
      <!-- −60 -->
      <g transform="translate(71.453437 230.170825) scale(0.14 -0.14)">
       <defs>
        <path id="DejaVuSans-2212" d="M 678 2272 
L 4684 2272 
L 4684 1741 
L 678 1741 
L 678 2272 
z
" transform="scale(0.015625)"/>
       </defs>
       <use xlink:href="#DejaVuSans-2212"/>
       <use xlink:href="#DejaVuSans-36" x="83.789062"/>
       <use xlink:href="#DejaVuSans-30" x="147.412109"/>
      </g>
     </g>
    </g>
    <g id="ytick_2">
     <g id="line2d_15">
      <path d="M 108 182.143916 
L 777.6 182.143916 
" clip-path="url(#p4e02de95ac)" style="fill: none; stroke: #b0b0b0; stroke-width: 0.8; stroke-linecap: square"/>
     </g>
     <g id="line2d_16">
      <g>
       <use xlink:href="#m50b213954b" x="108" y="182.143916" style="stroke: #000000; stroke-width: 0.8"/>
      </g>
     </g>
     <g id="text_9">
      <!-- −40 -->
      <g transform="translate(71.453437 187.462822) scale(0.14 -0.14)">
       <use xlink:href="#DejaVuSans-2212"/>
       <use xlink:href="#DejaVuSans-34" x="83.789062"/>
       <use xlink:href="#DejaVuSans-30" x="147.412109"/>
      </g>
     </g>
    </g>
    <g id="ytick_3">
     <g id="line2d_17">
      <path d="M 108 139.435913 
L 777.6 139.435913 
" clip-path="url(#p4e02de95ac)" style="fill: none; stroke: #b0b0b0; stroke-width: 0.8; stroke-linecap: square"/>
     </g>
     <g id="line2d_18">
      <g>
       <use xlink:href="#m50b213954b" x="108" y="139.435913" style="stroke: #000000; stroke-width: 0.8"/>
      </g>
     </g>
     <g id="text_10">
      <!-- −20 -->
      <g transform="translate(71.453437 144.754819) scale(0.14 -0.14)">
       <use xlink:href="#DejaVuSans-2212"/>
       <use xlink:href="#DejaVuSans-32" x="83.789062"/>
       <use xlink:href="#DejaVuSans-30" x="147.412109"/>
      </g>
     </g>
    </g>
    <g id="ytick_4">
     <g id="line2d_19">
      <path d="M 108 96.72791 
L 777.6 96.72791 
" clip-path="url(#p4e02de95ac)" style="fill: none; stroke: #b0b0b0; stroke-width: 0.8; stroke-linecap: square"/>
     </g>
     <g id="line2d_20">
      <g>
       <use xlink:href="#m50b213954b" x="108" y="96.72791" style="stroke: #000000; stroke-width: 0.8"/>
      </g>
     </g>
     <g id="text_11">
      <!-- 0 -->
      <g transform="translate(92.0925 102.046817) scale(0.14 -0.14)">
       <use xlink:href="#DejaVuSans-30"/>
      </g>
     </g>
    </g>
    <g id="ytick_5">
     <g id="line2d_21">
      <path d="M 108 54.019907 
L 777.6 54.019907 
" clip-path="url(#p4e02de95ac)" style="fill: none; stroke: #b0b0b0; stroke-width: 0.8; stroke-linecap: square"/>
     </g>
     <g id="line2d_22">
      <g>
       <use xlink:href="#m50b213954b" x="108" y="54.019907" style="stroke: #000000; stroke-width: 0.8"/>
      </g>
     </g>
     <g id="text_12">
      <!-- 20 -->
      <g transform="translate(83.185 59.338814) scale(0.14 -0.14)">
       <use xlink:href="#DejaVuSans-32"/>
       <use xlink:href="#DejaVuSans-30" x="63.623047"/>
      </g>
     </g>
    </g>
    <g id="text_13">
     <!-- $V_{m}$ (mV) -->
     <g transform="translate(64.541875 174.49) rotate(-90) scale(0.14 -0.14)">
      <defs>
       <path id="DejaVuSans-Oblique-56" d="M 1319 0 
L 500 4666 
L 1119 4666 
L 1797 653 
L 4063 4666 
L 4750 4666 
L 2053 0 
L 1319 0 
z
" transform="scale(0.015625)"/>
       <path id="DejaVuSans-Oblique-6d" d="M 5747 2113 
L 5338 0 
L 4763 0 
L 5166 2094 
Q 5191 2228 5203 2325 
Q 5216 2422 5216 2491 
Q 5216 2772 5059 2928 
Q 4903 3084 4622 3084 
Q 4203 3084 3875 2770 
Q 3547 2456 3450 1953 
L 3066 0 
L 2491 0 
L 2900 2094 
Q 2925 2209 2937 2307 
Q 2950 2406 2950 2484 
Q 2950 2769 2794 2926 
Q 2638 3084 2363 3084 
Q 1938 3084 1609 2770 
Q 1281 2456 1184 1953 
L 800 0 
L 225 0 
L 909 3500 
L 1484 3500 
L 1375 2956 
Q 1609 3263 1923 3423 
Q 2238 3584 2597 3584 
Q 2978 3584 3223 3384 
Q 3469 3184 3519 2828 
Q 3781 3197 4126 3390 
Q 4472 3584 4856 3584 
Q 5306 3584 5551 3325 
Q 5797 3066 5797 2591 
Q 5797 2488 5784 2364 
Q 5772 2241 5747 2113 
z
" transform="scale(0.015625)"/>
       <path id="DejaVuSans-56" d="M 1831 0 
L 50 4666 
L 709 4666 
L 2188 738 
L 3669 4666 
L 4325 4666 
L 2547 0 
L 1831 0 
z
" transform="scale(0.015625)"/>
      </defs>
      <use xlink:href="#DejaVuSans-Oblique-56" transform="translate(0 0.125)"/>
      <use xlink:href="#DejaVuSans-Oblique-6d" transform="translate(68.408203 -16.28125) scale(0.7)"/>
      <use xlink:href="#DejaVuSans-20" transform="translate(139.331055 0.125)"/>
      <use xlink:href="#DejaVuSans-28" transform="translate(171.118164 0.125)"/>
      <use xlink:href="#DejaVuSans-6d" transform="translate(210.131836 0.125)"/>
      <use xlink:href="#DejaVuSans-56" transform="translate(307.543945 0.125)"/>
      <use xlink:href="#DejaVuSans-29" transform="translate(375.952148 0.125)"/>
     </g>
    </g>
   </g>
   <g id="line2d_23">
    <path d="M 108 223.253915 
L 109.3392 224.202857 
L 110.6784 224.581574 
L 113.3568 226.383314 
L 114.0264 226.63514 
L 118.7136 232.468932 
L 120.0528 233.167351 
L 121.392 233.621421 
L 123.4008 234.210443 
L 124.0704 234.428424 
L 125.4096 234.545932 
L 126.0792 234.545021 
L 127.4184 235.515904 
L 128.088 235.722767 
L 128.7576 236.107666 
L 130.7664 237.691633 
L 132.1056 238.069453 
L 132.7752 238.161873 
L 134.1144 238.705659 
L 135.4536 238.87747 
L 137.4624 238.862417 
L 140.1408 238.581952 
L 140.8104 238.477618 
L 142.1496 238.708665 
L 143.4888 238.627004 
L 146.1672 238.153784 
L 149.5152 237.294777 
L 153.5328 235.998022 
L 157.5504 234.473831 
L 162.2376 232.460728 
L 167.5944 229.904088 
L 173.6208 226.761972 
L 180.3168 223.011535 
L 189.0216 217.85014 
L 201.0744 210.415453 
L 202.4136 209.569483 
L 203.7528 209.6706 
L 205.092 209.328146 
L 207.1008 208.502665 
L 209.7792 207.194662 
L 211.1184 207.480043 
L 212.4576 207.321266 
L 214.4664 206.721431 
L 217.1448 205.614507 
L 217.8144 205.30016 
L 219.1536 205.672965 
L 220.4928 205.635375 
L 222.5016 205.190881 
L 224.5104 204.504569 
L 226.5192 203.580152 
L 227.1888 203.754839 
L 228.528 205.068664 
L 229.1976 205.459872 
L 231.876 208.460114 
L 232.5456 209.398899 
L 233.2152 210.131784 
L 233.8848 210.604025 
L 235.224 211.165132 
L 236.5632 211.457957 
L 237.9024 211.592084 
L 239.2416 212.480714 
L 239.9112 212.700996 
L 241.2504 214.568483 
L 241.92 215.056057 
L 243.2592 217.576359 
L 243.9288 218.884267 
L 245.268 222.1616 
L 245.9376 223.248289 
L 246.6072 223.992204 
L 247.2768 224.560058 
L 248.616 226.031068 
L 249.2856 226.511634 
L 250.6248 227.816332 
L 252.6336 229.167795 
L 253.3032 229.663002 
L 255.312 232.427077 
L 255.9816 232.921406 
L 256.6512 233.262127 
L 257.9904 234.174573 
L 259.3296 234.593533 
L 261.3384 234.9056 
L 262.6776 235.506645 
L 263.3472 235.652745 
L 264.6864 236.288072 
L 266.0256 236.523027 
L 268.0344 236.589693 
L 269.3736 237.019935 
L 270.7128 237.103049 
L 272.7216 236.983622 
L 275.4 236.597791 
L 276.0696 236.471125 
L 277.4088 236.691835 
L 278.748 236.589421 
L 281.4264 236.069932 
L 284.7744 235.157777 
L 288.792 233.805028 
L 289.4616 233.556885 
L 290.8008 233.60473 
L 292.14 233.324737 
L 294.8184 232.465293 
L 298.836 230.896212 
L 303.5232 228.806737 
L 308.88 226.166266 
L 314.9064 222.948122 
L 322.272 218.756087 
L 332.316 212.762809 
L 338.3424 209.051474 
L 339.6816 209.164269 
L 341.0208 208.838598 
L 343.0296 208.034999 
L 345.708 206.744959 
L 346.3776 206.90598 
L 347.0472 207.541592 
L 347.7168 207.985004 
L 348.3864 208.184586 
L 349.7256 208.252924 
L 351.7344 207.985044 
L 354.4128 207.301957 
L 355.752 207.847248 
L 357.0912 207.919305 
L 358.4304 207.767942 
L 359.7696 208.464221 
L 361.1088 208.651577 
L 361.7784 208.644183 
L 363.1176 209.457131 
L 364.4568 209.730671 
L 365.796 209.75056 
L 366.4656 209.709952 
L 367.8048 210.468682 
L 368.4744 211.104685 
L 369.144 212.051023 
L 369.8136 214.053704 
L 371.1528 216.852656 
L 371.8224 217.795053 
L 372.492 218.433757 
L 373.8312 219.284527 
L 374.5008 219.587261 
L 376.5096 221.490887 
L 377.1792 222.808405 
L 377.8488 223.788648 
L 378.5184 224.406061 
L 379.188 224.852478 
L 379.8576 225.552261 
L 380.5272 226.798874 
L 381.1968 227.733884 
L 381.8664 228.33464 
L 383.2056 229.131676 
L 384.5448 230.807475 
L 386.5536 232.250327 
L 387.2232 233.025986 
L 387.8928 233.596729 
L 388.5624 233.986771 
L 389.9016 235.036569 
L 390.5712 235.322888 
L 391.9104 236.087147 
L 393.2496 236.382971 
L 395.2584 236.546993 
L 397.9368 236.515101 
L 398.6064 236.4709 
L 399.9456 236.838509 
L 401.2848 236.871921 
L 402.624 237.260703 
L 403.2936 237.305383 
L 404.6328 237.735532 
L 405.972 237.789303 
L 407.9808 237.612061 
L 410.6592 237.145905 
L 412.668 236.677815 
L 414.0072 236.826572 
L 415.3464 236.658803 
L 418.0248 236.020981 
L 421.3728 234.97995 
L 425.3904 233.494919 
L 430.0776 231.511008 
L 435.4344 228.977429 
L 441.4608 225.854926 
L 448.1568 222.123768 
L 456.8616 216.990461 
L 466.236 211.262575 
L 467.5752 211.349576 
L 468.9144 210.993977 
L 471.5928 209.866457 
L 474.9408 208.202175 
L 478.9584 205.94929 
L 481.6368 204.213358 
L 483.6456 202.617444 
L 484.9848 201.281718 
L 485.6544 200.420558 
L 486.324 199.373994 
L 486.9936 197.875128 
L 487.6632 195.436338 
L 488.3328 189.830174 
L 489.0024 161.431466 
L 489.672 54.960114 
L 490.3416 58.198107 
L 491.0112 81.989568 
L 491.6808 98.972115 
L 493.02 125.1438 
L 495.6984 168.074388 
L 497.0376 187.089521 
L 497.7072 195.103459 
L 498.3768 201.305238 
L 499.716 209.615356 
L 501.0552 214.904943 
L 501.7248 216.876937 
L 502.3944 218.280515 
L 503.7336 220.241615 
L 505.0728 221.551844 
L 505.7424 222.739099 
L 506.412 223.69116 
L 507.0816 224.318556 
L 508.4208 225.749509 
L 509.0904 226.514288 
L 509.76 227.104819 
L 511.0992 227.805912 
L 512.4384 228.225506 
L 515.1168 230.027336 
L 515.7864 230.283557 
L 516.456 231.3782 
L 517.1256 232.236054 
L 519.1344 233.837429 
L 520.4736 234.904676 
L 521.8128 235.449389 
L 522.4824 235.633982 
L 523.8216 236.394122 
L 525.1608 236.636708 
L 525.8304 236.642288 
L 527.1696 237.050456 
L 528.5088 237.122338 
L 529.848 237.070999 
L 531.1872 237.439286 
L 532.5264 237.475109 
L 533.8656 237.856982 
L 535.2048 237.889037 
L 537.2136 237.695877 
L 539.892 237.220571 
L 543.24 236.391312 
L 543.9096 236.19994 
L 545.2488 236.310278 
L 546.588 236.105216 
L 547.9272 236.29575 
L 549.2664 236.141435 
L 551.9448 235.501601 
L 555.2928 234.441274 
L 559.3104 232.928244 
L 563.9976 230.913181 
L 569.3544 228.348791 
L 575.3808 225.199084 
L 582.0768 221.449012 
L 591.4512 215.917513 
L 610.2 204.532347 
L 612.2088 203.167825 
L 613.548 203.300597 
L 614.2176 203.225213 
L 615.5568 203.946104 
L 616.896 204.159123 
L 618.2352 204.074633 
L 620.244 203.656403 
L 621.5832 203.249971 
L 622.9224 203.84155 
L 624.2616 204.019213 
L 625.6008 203.94356 
L 626.2704 204.376904 
L 626.94 205.288077 
L 627.6096 205.994189 
L 628.2792 206.928326 
L 628.9488 207.657802 
L 629.6184 208.119384 
L 630.9576 208.636531 
L 631.6272 208.779818 
L 632.2968 209.357941 
L 632.9664 210.308618 
L 633.636 210.992144 
L 634.3056 211.408026 
L 635.6448 211.882932 
L 636.984 212.118381 
L 638.3232 213.061806 
L 639.6624 213.452334 
L 640.332 213.548296 
L 641.6712 214.462846 
L 643.0104 214.832208 
L 643.68 215.358185 
L 644.3496 216.206273 
L 645.6888 219.068039 
L 647.6976 221.773562 
L 652.3848 225.498865 
L 653.0544 226.202968 
L 653.724 227.092553 
L 654.3936 227.739251 
L 655.7328 228.504094 
L 657.072 228.990155 
L 658.4112 229.880062 
L 659.7504 230.199922 
L 660.42 230.266603 
L 661.0896 230.620125 
L 662.4288 232.44887 
L 663.0984 233.044489 
L 664.4376 233.654123 
L 665.7768 233.97057 
L 666.4464 234.069743 
L 667.7856 234.702233 
L 668.4552 235.411353 
L 669.1248 235.945685 
L 670.464 236.426832 
L 671.8032 236.632299 
L 673.812 236.708174 
L 675.1512 237.14421 
L 676.4904 237.232825 
L 678.4992 237.120276 
L 681.1776 236.741361 
L 684.5256 236.014834 
L 687.8736 235.070352 
L 691.8912 233.703827 
L 696.5784 231.844221 
L 701.2656 229.748221 
L 702.6048 229.736782 
L 703.944 229.377907 
L 706.6224 228.351846 
L 710.64 226.553323 
L 715.9968 223.890487 
L 722.6928 220.277221 
L 730.728 215.67391 
L 736.0848 212.51262 
L 737.424 212.611879 
L 738.7632 212.266866 
L 741.4416 211.175642 
L 745.4592 209.255673 
L 750.1464 206.782312 
L 753.4944 204.808364 
L 754.164 204.382986 
L 755.5032 204.548809 
L 756.8424 204.34803 
L 757.512 204.682869 
L 758.1816 205.506347 
L 758.8512 206.141162 
L 759.5208 206.51669 
L 760.86 206.873691 
L 762.1992 206.948079 
L 763.5384 207.827828 
L 764.208 208.534103 
L 764.8776 209.565033 
L 765.5472 210.309845 
L 766.2168 211.230815 
L 766.8864 211.929386 
L 767.556 212.374532 
L 768.8952 212.90251 
L 770.2344 213.180003 
L 771.5736 213.309264 
L 772.2432 213.784553 
L 773.5824 216.408654 
L 774.252 217.301843 
L 774.9216 217.862478 
L 775.5912 219.063445 
L 776.2608 220.018157 
L 776.9304 220.622274 
L 777.6 221.056555 
L 777.6 221.056555 
" clip-path="url(#p4e02de95ac)" style="fill: none; stroke: #000000; stroke-width: 1.5; stroke-linecap: square"/>
   </g>
   <g id="line2d_24">
    <path d="M 108 156.433676 
L 110.0088 159.281446 
L 112.0176 162.629865 
L 113.3568 165.238193 
L 114.696 168.190091 
L 116.0352 171.629882 
L 117.3744 175.565852 
L 122.0616 190.916894 
L 122.7312 160.886895 
L 123.4008 151.189763 
L 124.0704 146.842201 
L 124.74 144.42746 
L 125.4096 142.959625 
L 126.0792 142.00764 
L 126.7488 141.36546 
L 128.088 140.57183 
L 130.0968 139.839536 
L 141.48 136.622324 
L 144.828 136.120813 
L 150.1848 135.582774 
L 156.2112 135.232882 
L 164.2464 135.027042 
L 176.9688 134.969982 
L 204.4224 135.091415 
L 213.1272 136.031174 
L 217.1448 136.607771 
L 219.8232 137.000929 
L 225.8496 138.163197 
L 227.8584 138.498858 
L 229.1976 138.932321 
L 230.5368 139.547561 
L 232.5456 140.797713 
L 241.2504 147.226589 
L 242.5896 148.546231 
L 243.9288 150.194613 
L 245.268 152.300768 
L 247.2768 156.216465 
L 249.2856 160.729694 
L 251.2944 165.939679 
L 253.3032 171.868063 
L 255.312 178.635567 
L 255.9816 181.038142 
L 256.6512 154.370696 
L 257.3208 147.419024 
L 257.9904 144.149223 
L 258.66 142.42593 
L 259.3296 141.449178 
L 259.9992 140.868383 
L 261.3384 140.246587 
L 275.4 136.199468 
L 278.0784 135.725906 
L 282.7656 135.227973 
L 288.792 134.825449 
L 292.14 134.777931 
L 320.9328 135.098804 
L 341.0208 135.404615 
L 347.7168 136.155119 
L 359.7696 139.428769 
L 363.1176 140.726563 
L 368.4744 143.215679 
L 369.8136 144.12885 
L 371.1528 145.465762 
L 373.8312 148.759306 
L 376.5096 152.213113 
L 377.8488 154.262491 
L 379.8576 157.899152 
L 381.1968 160.771868 
L 383.2056 165.877109 
L 384.5448 169.784607 
L 386.5536 176.371189 
L 389.9016 188.202812 
L 390.5712 159.14943 
L 391.2408 150.307501 
L 391.9104 146.322967 
L 392.58 144.160752 
L 393.2496 142.884148 
L 393.9192 142.084786 
L 394.5888 141.551937 
L 395.928 140.854501 
L 403.2936 137.892731 
L 405.972 137.111293 
L 409.9896 136.197034 
L 413.3376 135.627971 
L 416.6856 135.327276 
L 423.3816 134.9532 
L 431.4168 134.7444 
L 444.1392 134.677648 
L 467.5752 134.743759 
L 478.2888 135.488737 
L 482.976 135.556298 
L 485.6544 135.422554 
L 486.9936 135.209604 
L 487.6632 134.999478 
L 488.3328 134.58969 
L 489.0024 133.203766 
L 489.672 127.967714 
L 490.3416 121.272657 
L 491.0112 115.958058 
L 491.6808 112.725922 
L 492.3504 111.273496 
L 493.02 111.088905 
L 493.6896 111.74618 
L 494.3592 112.971805 
L 495.6984 116.472023 
L 497.0376 120.805544 
L 499.716 130.032062 
L 501.0552 134.054441 
L 502.3944 137.587588 
L 503.7336 140.673958 
L 505.7424 144.689182 
L 510.4296 153.773028 
L 513.108 159.471261 
L 515.1168 164.335125 
L 516.456 168.038385 
L 517.7952 172.274927 
L 519.804 179.376755 
L 523.152 191.385351 
L 523.8216 193.592128 
L 524.4912 162.863761 
L 525.1608 152.504687 
L 525.8304 147.945773 
L 526.5 145.408678 
L 527.1696 143.871263 
L 527.8392 142.881542 
L 528.5088 142.203924 
L 529.848 141.299343 
L 532.5264 140.03294 
L 537.2136 138.073125 
L 540.5616 136.883051 
L 543.9096 135.968197 
L 546.588 135.493935 
L 549.2664 135.24111 
L 557.3016 134.794322 
L 565.3368 134.577162 
L 578.0592 134.486967 
L 613.548 134.531877 
L 615.5568 134.78887 
L 624.2616 136.766721 
L 626.94 137.574464 
L 628.2792 138.190936 
L 632.2968 140.559256 
L 634.3056 141.897014 
L 643.0104 148.200009 
L 644.3496 149.369134 
L 645.6888 150.864897 
L 647.028 152.767561 
L 649.0368 156.140322 
L 651.0456 159.978412 
L 653.0544 164.438144 
L 654.3936 167.915896 
L 656.4024 173.792872 
L 657.7416 177.919073 
L 658.4112 152.179032 
L 659.0808 145.883936 
L 659.7504 142.809425 
L 660.42 141.162729 
L 661.0896 140.215862 
L 661.7592 139.665623 
L 662.4288 139.356699 
L 663.768 139.077296 
L 666.4464 138.60243 
L 673.812 136.819036 
L 676.4904 136.298019 
L 681.1776 135.63343 
L 685.8648 135.183931 
L 691.8912 134.855416 
L 699.9264 134.675522 
L 703.2744 134.712854 
L 712.6488 135.06835 
L 730.728 135.444921 
L 738.0936 135.652859 
L 745.4592 136.331127 
L 752.8248 136.709188 
L 756.1728 136.909288 
L 758.1816 137.282152 
L 760.1904 138.029836 
L 764.8776 140.110848 
L 766.8864 141.472309 
L 770.904 144.42536 
L 772.9128 145.820334 
L 774.252 147.064122 
L 775.5912 148.553512 
L 777.6 151.193746 
L 777.6 151.193746 
" clip-path="url(#p4e02de95ac)" style="fill: none; stroke: #4169e1; stroke-width: 1.5; stroke-linecap: square"/>
   </g>
   <g id="patch_3">
    <path d="M 108 256.32 
L 108 34.56 
" style="fill: none; stroke: #000000; stroke-width: 0.8; stroke-linejoin: miter; stroke-linecap: square"/>
   </g>
   <g id="patch_4">
    <path d="M 777.6 256.32 
L 777.6 34.56 
" style="fill: none; stroke: #000000; stroke-width: 0.8; stroke-linejoin: miter; stroke-linecap: square"/>
   </g>
   <g id="patch_5">
    <path d="M 108 256.32 
L 777.6 256.32 
" style="fill: none; stroke: #000000; stroke-width: 0.8; stroke-linejoin: miter; stroke-linecap: square"/>
   </g>
   <g id="patch_6">
    <path d="M 108 34.56 
L 777.6 34.56 
" style="fill: none; stroke: #000000; stroke-width: 0.8; stroke-linejoin: miter; stroke-linecap: square"/>
   </g>
   <g id="legend_1">
    <g id="patch_7">
     <path d="M 695.098438 71.91625 
L 770.6 71.91625 
Q 772.6 71.91625 772.6 69.91625 
L 772.6 41.56 
Q 772.6 39.56 770.6 39.56 
L 695.098438 39.56 
Q 693.098438 39.56 693.098438 41.56 
L 693.098438 69.91625 
Q 693.098438 71.91625 695.098438 71.91625 
z
" style="fill: #ffffff; opacity: 0.8; stroke: #cccccc; stroke-linejoin: miter"/>
    </g>
    <g id="line2d_25">
     <path d="M 697.098438 47.658437 
L 707.098438 47.658437 
L 717.098438 47.658437 
" style="fill: none; stroke: #000000; stroke-width: 1.5; stroke-linecap: square"/>
    </g>
    <g id="text_14">
     <!-- Soma -->
     <g transform="translate(725.098438 51.158437) scale(0.1 -0.1)">
      <defs>
       <path id="DejaVuSans-53" d="M 3425 4513 
L 3425 3897 
Q 3066 4069 2747 4153 
Q 2428 4238 2131 4238 
Q 1616 4238 1336 4038 
Q 1056 3838 1056 3469 
Q 1056 3159 1242 3001 
Q 1428 2844 1947 2747 
L 2328 2669 
Q 3034 2534 3370 2195 
Q 3706 1856 3706 1288 
Q 3706 609 3251 259 
Q 2797 -91 1919 -91 
Q 1588 -91 1214 -16 
Q 841 59 441 206 
L 441 856 
Q 825 641 1194 531 
Q 1563 422 1919 422 
Q 2459 422 2753 634 
Q 3047 847 3047 1241 
Q 3047 1584 2836 1778 
Q 2625 1972 2144 2069 
L 1759 2144 
Q 1053 2284 737 2584 
Q 422 2884 422 3419 
Q 422 4038 858 4394 
Q 1294 4750 2059 4750 
Q 2388 4750 2728 4690 
Q 3069 4631 3425 4513 
z
" transform="scale(0.015625)"/>
       <path id="DejaVuSans-6f" d="M 1959 3097 
Q 1497 3097 1228 2736 
Q 959 2375 959 1747 
Q 959 1119 1226 758 
Q 1494 397 1959 397 
Q 2419 397 2687 759 
Q 2956 1122 2956 1747 
Q 2956 2369 2687 2733 
Q 2419 3097 1959 3097 
z
M 1959 3584 
Q 2709 3584 3137 3096 
Q 3566 2609 3566 1747 
Q 3566 888 3137 398 
Q 2709 -91 1959 -91 
Q 1206 -91 779 398 
Q 353 888 353 1747 
Q 353 2609 779 3096 
Q 1206 3584 1959 3584 
z
" transform="scale(0.015625)"/>
       <path id="DejaVuSans-61" d="M 2194 1759 
Q 1497 1759 1228 1600 
Q 959 1441 959 1056 
Q 959 750 1161 570 
Q 1363 391 1709 391 
Q 2188 391 2477 730 
Q 2766 1069 2766 1631 
L 2766 1759 
L 2194 1759 
z
M 3341 1997 
L 3341 0 
L 2766 0 
L 2766 531 
Q 2569 213 2275 61 
Q 1981 -91 1556 -91 
Q 1019 -91 701 211 
Q 384 513 384 1019 
Q 384 1609 779 1909 
Q 1175 2209 1959 2209 
L 2766 2209 
L 2766 2266 
Q 2766 2663 2505 2880 
Q 2244 3097 1772 3097 
Q 1472 3097 1187 3025 
Q 903 2953 641 2809 
L 641 3341 
Q 956 3463 1253 3523 
Q 1550 3584 1831 3584 
Q 2591 3584 2966 3190 
Q 3341 2797 3341 1997 
z
" transform="scale(0.015625)"/>
      </defs>
      <use xlink:href="#DejaVuSans-53"/>
      <use xlink:href="#DejaVuSans-6f" x="63.476562"/>
      <use xlink:href="#DejaVuSans-6d" x="124.658203"/>
      <use xlink:href="#DejaVuSans-61" x="222.070312"/>
     </g>
    </g>
    <g id="line2d_26">
     <path d="M 697.098438 62.336562 
L 707.098438 62.336562 
L 717.098438 62.336562 
" style="fill: none; stroke: #4169e1; stroke-width: 1.5; stroke-linecap: square"/>
    </g>
    <g id="text_15">
     <!-- Dendrite -->
     <g transform="translate(725.098438 65.836562) scale(0.1 -0.1)">
      <defs>
       <path id="DejaVuSans-44" d="M 1259 4147 
L 1259 519 
L 2022 519 
Q 2988 519 3436 956 
Q 3884 1394 3884 2338 
Q 3884 3275 3436 3711 
Q 2988 4147 2022 4147 
L 1259 4147 
z
M 628 4666 
L 1925 4666 
Q 3281 4666 3915 4102 
Q 4550 3538 4550 2338 
Q 4550 1131 3912 565 
Q 3275 0 1925 0 
L 628 0 
L 628 4666 
z
" transform="scale(0.015625)"/>
       <path id="DejaVuSans-6e" d="M 3513 2113 
L 3513 0 
L 2938 0 
L 2938 2094 
Q 2938 2591 2744 2837 
Q 2550 3084 2163 3084 
Q 1697 3084 1428 2787 
Q 1159 2491 1159 1978 
L 1159 0 
L 581 0 
L 581 3500 
L 1159 3500 
L 1159 2956 
Q 1366 3272 1645 3428 
Q 1925 3584 2291 3584 
Q 2894 3584 3203 3211 
Q 3513 2838 3513 2113 
z
" transform="scale(0.015625)"/>
       <path id="DejaVuSans-64" d="M 2906 2969 
L 2906 4863 
L 3481 4863 
L 3481 0 
L 2906 0 
L 2906 525 
Q 2725 213 2448 61 
Q 2172 -91 1784 -91 
Q 1150 -91 751 415 
Q 353 922 353 1747 
Q 353 2572 751 3078 
Q 1150 3584 1784 3584 
Q 2172 3584 2448 3432 
Q 2725 3281 2906 2969 
z
M 947 1747 
Q 947 1113 1208 752 
Q 1469 391 1925 391 
Q 2381 391 2643 752 
Q 2906 1113 2906 1747 
Q 2906 2381 2643 2742 
Q 2381 3103 1925 3103 
Q 1469 3103 1208 2742 
Q 947 2381 947 1747 
z
" transform="scale(0.015625)"/>
       <path id="DejaVuSans-72" d="M 2631 2963 
Q 2534 3019 2420 3045 
Q 2306 3072 2169 3072 
Q 1681 3072 1420 2755 
Q 1159 2438 1159 1844 
L 1159 0 
L 581 0 
L 581 3500 
L 1159 3500 
L 1159 2956 
Q 1341 3275 1631 3429 
Q 1922 3584 2338 3584 
Q 2397 3584 2469 3576 
Q 2541 3569 2628 3553 
L 2631 2963 
z
" transform="scale(0.015625)"/>
       <path id="DejaVuSans-74" d="M 1172 4494 
L 1172 3500 
L 2356 3500 
L 2356 3053 
L 1172 3053 
L 1172 1153 
Q 1172 725 1289 603 
Q 1406 481 1766 481 
L 2356 481 
L 2356 0 
L 1766 0 
Q 1100 0 847 248 
Q 594 497 594 1153 
L 594 3053 
L 172 3053 
L 172 3500 
L 594 3500 
L 594 4494 
L 1172 4494 
z
" transform="scale(0.015625)"/>
      </defs>
      <use xlink:href="#DejaVuSans-44"/>
      <use xlink:href="#DejaVuSans-65" x="77.001953"/>
      <use xlink:href="#DejaVuSans-6e" x="138.525391"/>
      <use xlink:href="#DejaVuSans-64" x="201.904297"/>
      <use xlink:href="#DejaVuSans-72" x="265.380859"/>
      <use xlink:href="#DejaVuSans-69" x="306.494141"/>
      <use xlink:href="#DejaVuSans-74" x="334.277344"/>
      <use xlink:href="#DejaVuSans-65" x="373.486328"/>
     </g>
    </g>
   </g>
  </g>
 </g>
 <defs>
  <clipPath id="p4e02de95ac">
   <rect x="108" y="34.56" width="669.6" height="221.76"/>
  </clipPath>
 </defs>
</svg>
