<?xml version="1.0" encoding="utf-8" standalone="no"?>
<!DOCTYPE svg PUBLIC "-//W3C//DTD SVG 1.1//EN"
  "http://www.w3.org/Graphics/SVG/1.1/DTD/svg11.dtd">
<svg xmlns:xlink="http://www.w3.org/1999/xlink" width="864pt" height="288pt" viewBox="0 0 864 288" xmlns="http://www.w3.org/2000/svg" version="1.1">
 <metadata>
  <rdf:RDF xmlns:dc="http://purl.org/dc/elements/1.1/" xmlns:cc="http://creativecommons.org/ns#" xmlns:rdf="http://www.w3.org/1999/02/22-rdf-syntax-ns#">
   <cc:Work>
    <dc:type rdf:resource="http://purl.org/dc/dcmitype/StillImage"/>
    <dc:date>2024-04-23T19:18:47.631732</dc:date>
    <dc:format>image/svg+xml</dc:format>
    <dc:creator>
     <cc:Agent>
      <dc:title>Matplotlib v3.8.2, https://matplotlib.org/</dc:title>
     </cc:Agent>
    </dc:creator>
   </cc:Work>
  </rdf:RDF>
 </metadata>
 <defs>
  <style type="text/css">*{stroke-linejoin: round; stroke-linecap: butt}</style>
 </defs>
 <g id="figure_1">
  <g id="patch_1">
   <path d="M 0 288 
L 864 288 
L 864 0 
L 0 0 
z
" style="fill: #ffffff"/>
  </g>
  <g id="axes_1">
   <g id="patch_2">
    <path d="M 108 256.32 
L 777.6 256.32 
L 777.6 34.56 
L 108 34.56 
z
" style="fill: #ffffff"/>
   </g>
   <g id="matplotlib.axis_1">
    <g id="xtick_1">
     <g id="line2d_1">
      <path d="M 108 256.32 
L 108 34.56 
" clip-path="url(#p5e9584fdf3)" style="fill: none; stroke: #b0b0b0; stroke-width: 0.8; stroke-linecap: square"/>
     </g>
     <g id="line2d_2">
      <defs>
       <path id="mbc2b9377fd" d="M 0 0 
L 0 3.5 
" style="stroke: #000000; stroke-width: 0.8"/>
      </defs>
      <g>
       <use xlink:href="#mbc2b9377fd" x="108" y="256.32" style="stroke: #000000; stroke-width: 0.8"/>
      </g>
     </g>
     <g id="text_1">
      <!-- 100 -->
      <g transform="translate(94.63875 273.957812) scale(0.14 -0.14)">
       <defs>
        <path id="DejaVuSans-31" d="M 794 531 
L 1825 531 
L 1825 4091 
L 703 3866 
L 703 4441 
L 1819 4666 
L 2450 4666 
L 2450 531 
L 3481 531 
L 3481 0 
L 794 0 
L 794 531 
z
" transform="scale(0.015625)"/>
        <path id="DejaVuSans-30" d="M 2034 4250 
Q 1547 4250 1301 3770 
Q 1056 3291 1056 2328 
Q 1056 1369 1301 889 
Q 1547 409 2034 409 
Q 2525 409 2770 889 
Q 3016 1369 3016 2328 
Q 3016 3291 2770 3770 
Q 2525 4250 2034 4250 
z
M 2034 4750 
Q 2819 4750 3233 4129 
Q 3647 3509 3647 2328 
Q 3647 1150 3233 529 
Q 2819 -91 2034 -91 
Q 1250 -91 836 529 
Q 422 1150 422 2328 
Q 422 3509 836 4129 
Q 1250 4750 2034 4750 
z
" transform="scale(0.015625)"/>
       </defs>
       <use xlink:href="#DejaVuSans-31"/>
       <use xlink:href="#DejaVuSans-30" x="63.623047"/>
       <use xlink:href="#DejaVuSans-30" x="127.246094"/>
      </g>
     </g>
    </g>
    <g id="xtick_2">
     <g id="line2d_3">
      <path d="M 241.92 256.32 
L 241.92 34.56 
" clip-path="url(#p5e9584fdf3)" style="fill: none; stroke: #b0b0b0; stroke-width: 0.8; stroke-linecap: square"/>
     </g>
     <g id="line2d_4">
      <g>
       <use xlink:href="#mbc2b9377fd" x="241.92" y="256.32" style="stroke: #000000; stroke-width: 0.8"/>
      </g>
     </g>
     <g id="text_2">
      <!-- 120 -->
      <g transform="translate(228.55875 273.957812) scale(0.14 -0.14)">
       <defs>
        <path id="DejaVuSans-32" d="M 1228 531 
L 3431 531 
L 3431 0 
L 469 0 
L 469 531 
Q 828 903 1448 1529 
Q 2069 2156 2228 2338 
Q 2531 2678 2651 2914 
Q 2772 3150 2772 3378 
Q 2772 3750 2511 3984 
Q 2250 4219 1831 4219 
Q 1534 4219 1204 4116 
Q 875 4013 500 3803 
L 500 4441 
Q 881 4594 1212 4672 
Q 1544 4750 1819 4750 
Q 2544 4750 2975 4387 
Q 3406 4025 3406 3419 
Q 3406 3131 3298 2873 
Q 3191 2616 2906 2266 
Q 2828 2175 2409 1742 
Q 1991 1309 1228 531 
z
" transform="scale(0.015625)"/>
       </defs>
       <use xlink:href="#DejaVuSans-31"/>
       <use xlink:href="#DejaVuSans-32" x="63.623047"/>
       <use xlink:href="#DejaVuSans-30" x="127.246094"/>
      </g>
     </g>
    </g>
    <g id="xtick_3">
     <g id="line2d_5">
      <path d="M 375.84 256.32 
L 375.84 34.56 
" clip-path="url(#p5e9584fdf3)" style="fill: none; stroke: #b0b0b0; stroke-width: 0.8; stroke-linecap: square"/>
     </g>
     <g id="line2d_6">
      <g>
       <use xlink:href="#mbc2b9377fd" x="375.84" y="256.32" style="stroke: #000000; stroke-width: 0.8"/>
      </g>
     </g>
     <g id="text_3">
      <!-- 140 -->
      <g transform="translate(362.47875 273.957812) scale(0.14 -0.14)">
       <defs>
        <path id="DejaVuSans-34" d="M 2419 4116 
L 825 1625 
L 2419 1625 
L 2419 4116 
z
M 2253 4666 
L 3047 4666 
L 3047 1625 
L 3713 1625 
L 3713 1100 
L 3047 1100 
L 3047 0 
L 2419 0 
L 2419 1100 
L 313 1100 
L 313 1709 
L 2253 4666 
z
" transform="scale(0.015625)"/>
       </defs>
       <use xlink:href="#DejaVuSans-31"/>
       <use xlink:href="#DejaVuSans-34" x="63.623047"/>
       <use xlink:href="#DejaVuSans-30" x="127.246094"/>
      </g>
     </g>
    </g>
    <g id="xtick_4">
     <g id="line2d_7">
      <path d="M 509.76 256.32 
L 509.76 34.56 
" clip-path="url(#p5e9584fdf3)" style="fill: none; stroke: #b0b0b0; stroke-width: 0.8; stroke-linecap: square"/>
     </g>
     <g id="line2d_8">
      <g>
       <use xlink:href="#mbc2b9377fd" x="509.76" y="256.32" style="stroke: #000000; stroke-width: 0.8"/>
      </g>
     </g>
     <g id="text_4">
      <!-- 160 -->
      <g transform="translate(496.39875 273.957812) scale(0.14 -0.14)">
       <defs>
        <path id="DejaVuSans-36" d="M 2113 2584 
Q 1688 2584 1439 2293 
Q 1191 2003 1191 1497 
Q 1191 994 1439 701 
Q 1688 409 2113 409 
Q 2538 409 2786 701 
Q 3034 994 3034 1497 
Q 3034 2003 2786 2293 
Q 2538 2584 2113 2584 
z
M 3366 4563 
L 3366 3988 
Q 3128 4100 2886 4159 
Q 2644 4219 2406 4219 
Q 1781 4219 1451 3797 
Q 1122 3375 1075 2522 
Q 1259 2794 1537 2939 
Q 1816 3084 2150 3084 
Q 2853 3084 3261 2657 
Q 3669 2231 3669 1497 
Q 3669 778 3244 343 
Q 2819 -91 2113 -91 
Q 1303 -91 875 529 
Q 447 1150 447 2328 
Q 447 3434 972 4092 
Q 1497 4750 2381 4750 
Q 2619 4750 2861 4703 
Q 3103 4656 3366 4563 
z
" transform="scale(0.015625)"/>
       </defs>
       <use xlink:href="#DejaVuSans-31"/>
       <use xlink:href="#DejaVuSans-36" x="63.623047"/>
       <use xlink:href="#DejaVuSans-30" x="127.246094"/>
      </g>
     </g>
    </g>
    <g id="xtick_5">
     <g id="line2d_9">
      <path d="M 643.68 256.32 
L 643.68 34.56 
" clip-path="url(#p5e9584fdf3)" style="fill: none; stroke: #b0b0b0; stroke-width: 0.8; stroke-linecap: square"/>
     </g>
     <g id="line2d_10">
      <g>
       <use xlink:href="#mbc2b9377fd" x="643.68" y="256.32" style="stroke: #000000; stroke-width: 0.8"/>
      </g>
     </g>
     <g id="text_5">
      <!-- 180 -->
      <g transform="translate(630.31875 273.957812) scale(0.14 -0.14)">
       <defs>
        <path id="DejaVuSans-38" d="M 2034 2216 
Q 1584 2216 1326 1975 
Q 1069 1734 1069 1313 
Q 1069 891 1326 650 
Q 1584 409 2034 409 
Q 2484 409 2743 651 
Q 3003 894 3003 1313 
Q 3003 1734 2745 1975 
Q 2488 2216 2034 2216 
z
M 1403 2484 
Q 997 2584 770 2862 
Q 544 3141 544 3541 
Q 544 4100 942 4425 
Q 1341 4750 2034 4750 
Q 2731 4750 3128 4425 
Q 3525 4100 3525 3541 
Q 3525 3141 3298 2862 
Q 3072 2584 2669 2484 
Q 3125 2378 3379 2068 
Q 3634 1759 3634 1313 
Q 3634 634 3220 271 
Q 2806 -91 2034 -91 
Q 1263 -91 848 271 
Q 434 634 434 1313 
Q 434 1759 690 2068 
Q 947 2378 1403 2484 
z
M 1172 3481 
Q 1172 3119 1398 2916 
Q 1625 2713 2034 2713 
Q 2441 2713 2670 2916 
Q 2900 3119 2900 3481 
Q 2900 3844 2670 4047 
Q 2441 4250 2034 4250 
Q 1625 4250 1398 4047 
Q 1172 3844 1172 3481 
z
" transform="scale(0.015625)"/>
       </defs>
       <use xlink:href="#DejaVuSans-31"/>
       <use xlink:href="#DejaVuSans-38" x="63.623047"/>
       <use xlink:href="#DejaVuSans-30" x="127.246094"/>
      </g>
     </g>
    </g>
    <g id="xtick_6">
     <g id="line2d_11">
      <path d="M 777.6 256.32 
L 777.6 34.56 
" clip-path="url(#p5e9584fdf3)" style="fill: none; stroke: #b0b0b0; stroke-width: 0.8; stroke-linecap: square"/>
     </g>
     <g id="line2d_12">
      <g>
       <use xlink:href="#mbc2b9377fd" x="777.6" y="256.32" style="stroke: #000000; stroke-width: 0.8"/>
      </g>
     </g>
     <g id="text_6">
      <!-- 200 -->
      <g transform="translate(764.23875 273.957812) scale(0.14 -0.14)">
       <use xlink:href="#DejaVuSans-32"/>
       <use xlink:href="#DejaVuSans-30" x="63.623047"/>
       <use xlink:href="#DejaVuSans-30" x="127.246094"/>
      </g>
     </g>
    </g>
    <g id="text_7">
     <!-- Time (ms) -->
     <g transform="translate(407.521094 291.507187) scale(0.14 -0.14)">
      <defs>
       <path id="DejaVuSans-54" d="M -19 4666 
L 3928 4666 
L 3928 4134 
L 2272 4134 
L 2272 0 
L 1638 0 
L 1638 4134 
L -19 4134 
L -19 4666 
z
" transform="scale(0.015625)"/>
       <path id="DejaVuSans-69" d="M 603 3500 
L 1178 3500 
L 1178 0 
L 603 0 
L 603 3500 
z
M 603 4863 
L 1178 4863 
L 1178 4134 
L 603 4134 
L 603 4863 
z
" transform="scale(0.015625)"/>
       <path id="DejaVuSans-6d" d="M 3328 2828 
Q 3544 3216 3844 3400 
Q 4144 3584 4550 3584 
Q 5097 3584 5394 3201 
Q 5691 2819 5691 2113 
L 5691 0 
L 5113 0 
L 5113 2094 
Q 5113 2597 4934 2840 
Q 4756 3084 4391 3084 
Q 3944 3084 3684 2787 
Q 3425 2491 3425 1978 
L 3425 0 
L 2847 0 
L 2847 2094 
Q 2847 2600 2669 2842 
Q 2491 3084 2119 3084 
Q 1678 3084 1418 2786 
Q 1159 2488 1159 1978 
L 1159 0 
L 581 0 
L 581 3500 
L 1159 3500 
L 1159 2956 
Q 1356 3278 1631 3431 
Q 1906 3584 2284 3584 
Q 2666 3584 2933 3390 
Q 3200 3197 3328 2828 
z
" transform="scale(0.015625)"/>
       <path id="DejaVuSans-65" d="M 3597 1894 
L 3597 1613 
L 953 1613 
Q 991 1019 1311 708 
Q 1631 397 2203 397 
Q 2534 397 2845 478 
Q 3156 559 3463 722 
L 3463 178 
Q 3153 47 2828 -22 
Q 2503 -91 2169 -91 
Q 1331 -91 842 396 
Q 353 884 353 1716 
Q 353 2575 817 3079 
Q 1281 3584 2069 3584 
Q 2775 3584 3186 3129 
Q 3597 2675 3597 1894 
z
M 3022 2063 
Q 3016 2534 2758 2815 
Q 2500 3097 2075 3097 
Q 1594 3097 1305 2825 
Q 1016 2553 972 2059 
L 3022 2063 
z
" transform="scale(0.015625)"/>
       <path id="DejaVuSans-20" transform="scale(0.015625)"/>
       <path id="DejaVuSans-28" d="M 1984 4856 
Q 1566 4138 1362 3434 
Q 1159 2731 1159 2009 
Q 1159 1288 1364 580 
Q 1569 -128 1984 -844 
L 1484 -844 
Q 1016 -109 783 600 
Q 550 1309 550 2009 
Q 550 2706 781 3412 
Q 1013 4119 1484 4856 
L 1984 4856 
z
" transform="scale(0.015625)"/>
       <path id="DejaVuSans-73" d="M 2834 3397 
L 2834 2853 
Q 2591 2978 2328 3040 
Q 2066 3103 1784 3103 
Q 1356 3103 1142 2972 
Q 928 2841 928 2578 
Q 928 2378 1081 2264 
Q 1234 2150 1697 2047 
L 1894 2003 
Q 2506 1872 2764 1633 
Q 3022 1394 3022 966 
Q 3022 478 2636 193 
Q 2250 -91 1575 -91 
Q 1294 -91 989 -36 
Q 684 19 347 128 
L 347 722 
Q 666 556 975 473 
Q 1284 391 1588 391 
Q 1994 391 2212 530 
Q 2431 669 2431 922 
Q 2431 1156 2273 1281 
Q 2116 1406 1581 1522 
L 1381 1569 
Q 847 1681 609 1914 
Q 372 2147 372 2553 
Q 372 3047 722 3315 
Q 1072 3584 1716 3584 
Q 2034 3584 2315 3537 
Q 2597 3491 2834 3397 
z
" transform="scale(0.015625)"/>
       <path id="DejaVuSans-29" d="M 513 4856 
L 1013 4856 
Q 1481 4119 1714 3412 
Q 1947 2706 1947 2009 
Q 1947 1309 1714 600 
Q 1481 -109 1013 -844 
L 513 -844 
Q 928 -128 1133 580 
Q 1338 1288 1338 2009 
Q 1338 2731 1133 3434 
Q 928 4138 513 4856 
z
" transform="scale(0.015625)"/>
      </defs>
      <use xlink:href="#DejaVuSans-54"/>
      <use xlink:href="#DejaVuSans-69" x="57.958984"/>
      <use xlink:href="#DejaVuSans-6d" x="85.742188"/>
      <use xlink:href="#DejaVuSans-65" x="183.154297"/>
      <use xlink:href="#DejaVuSans-20" x="244.677734"/>
      <use xlink:href="#DejaVuSans-28" x="276.464844"/>
      <use xlink:href="#DejaVuSans-6d" x="315.478516"/>
      <use xlink:href="#DejaVuSans-73" x="412.890625"/>
      <use xlink:href="#DejaVuSans-29" x="464.990234"/>
     </g>
    </g>
   </g>
   <g id="matplotlib.axis_2">
    <g id="ytick_1">
     <g id="line2d_13">
      <path d="M 108 246.24 
L 777.6 246.24 
" clip-path="url(#p5e9584fdf3)" style="fill: none; stroke: #b0b0b0; stroke-width: 0.8; stroke-linecap: square"/>
     </g>
     <g id="line2d_14">
      <defs>
       <path id="m7919efe052" d="M 0 0 
L -3.5 0 
" style="stroke: #000000; stroke-width: 0.8"/>
      </defs>
      <g>
       <use xlink:href="#m7919efe052" x="108" y="246.24" style="stroke: #000000; stroke-width: 0.8"/>
      </g>
     </g>
     <g id="text_8">
      <!-- 0.00 -->
      <g transform="translate(69.828125 251.558906) scale(0.14 -0.14)">
       <defs>
        <path id="DejaVuSans-2e" d="M 684 794 
L 1344 794 
L 1344 0 
L 684 0 
L 684 794 
z
" transform="scale(0.015625)"/>
       </defs>
       <use xlink:href="#DejaVuSans-30"/>
       <use xlink:href="#DejaVuSans-2e" x="63.623047"/>
       <use xlink:href="#DejaVuSans-30" x="95.410156"/>
       <use xlink:href="#DejaVuSans-30" x="159.033203"/>
      </g>
     </g>
    </g>
    <g id="ytick_2">
     <g id="line2d_15">
      <path d="M 108 206.946588 
L 777.6 206.946588 
" clip-path="url(#p5e9584fdf3)" style="fill: none; stroke: #b0b0b0; stroke-width: 0.8; stroke-linecap: square"/>
     </g>
     <g id="line2d_16">
      <g>
       <use xlink:href="#m7919efe052" x="108" y="206.946588" style="stroke: #000000; stroke-width: 0.8"/>
      </g>
     </g>
     <g id="text_9">
      <!-- 0.05 -->
      <g transform="translate(69.828125 212.265494) scale(0.14 -0.14)">
       <defs>
        <path id="DejaVuSans-35" d="M 691 4666 
L 3169 4666 
L 3169 4134 
L 1269 4134 
L 1269 2991 
Q 1406 3038 1543 3061 
Q 1681 3084 1819 3084 
Q 2600 3084 3056 2656 
Q 3513 2228 3513 1497 
Q 3513 744 3044 326 
Q 2575 -91 1722 -91 
Q 1428 -91 1123 -41 
Q 819 9 494 109 
L 494 744 
Q 775 591 1075 516 
Q 1375 441 1709 441 
Q 2250 441 2565 725 
Q 2881 1009 2881 1497 
Q 2881 1984 2565 2268 
Q 2250 2553 1709 2553 
Q 1456 2553 1204 2497 
Q 953 2441 691 2322 
L 691 4666 
z
" transform="scale(0.015625)"/>
       </defs>
       <use xlink:href="#DejaVuSans-30"/>
       <use xlink:href="#DejaVuSans-2e" x="63.623047"/>
       <use xlink:href="#DejaVuSans-30" x="95.410156"/>
       <use xlink:href="#DejaVuSans-35" x="159.033203"/>
      </g>
     </g>
    </g>
    <g id="ytick_3">
     <g id="line2d_17">
      <path d="M 108 167.653176 
L 777.6 167.653176 
" clip-path="url(#p5e9584fdf3)" style="fill: none; stroke: #b0b0b0; stroke-width: 0.8; stroke-linecap: square"/>
     </g>
     <g id="line2d_18">
      <g>
       <use xlink:href="#m7919efe052" x="108" y="167.653176" style="stroke: #000000; stroke-width: 0.8"/>
      </g>
     </g>
     <g id="text_10">
      <!-- 0.10 -->
      <g transform="translate(69.828125 172.972082) scale(0.14 -0.14)">
       <use xlink:href="#DejaVuSans-30"/>
       <use xlink:href="#DejaVuSans-2e" x="63.623047"/>
       <use xlink:href="#DejaVuSans-31" x="95.410156"/>
       <use xlink:href="#DejaVuSans-30" x="159.033203"/>
      </g>
     </g>
    </g>
    <g id="ytick_4">
     <g id="line2d_19">
      <path d="M 108 128.359764 
L 777.6 128.359764 
" clip-path="url(#p5e9584fdf3)" style="fill: none; stroke: #b0b0b0; stroke-width: 0.8; stroke-linecap: square"/>
     </g>
     <g id="line2d_20">
      <g>
       <use xlink:href="#m7919efe052" x="108" y="128.359764" style="stroke: #000000; stroke-width: 0.8"/>
      </g>
     </g>
     <g id="text_11">
      <!-- 0.15 -->
      <g transform="translate(69.828125 133.678671) scale(0.14 -0.14)">
       <use xlink:href="#DejaVuSans-30"/>
       <use xlink:href="#DejaVuSans-2e" x="63.623047"/>
       <use xlink:href="#DejaVuSans-31" x="95.410156"/>
       <use xlink:href="#DejaVuSans-35" x="159.033203"/>
      </g>
     </g>
    </g>
    <g id="ytick_5">
     <g id="line2d_21">
      <path d="M 108 89.066352 
L 777.6 89.066352 
" clip-path="url(#p5e9584fdf3)" style="fill: none; stroke: #b0b0b0; stroke-width: 0.8; stroke-linecap: square"/>
     </g>
     <g id="line2d_22">
      <g>
       <use xlink:href="#m7919efe052" x="108" y="89.066352" style="stroke: #000000; stroke-width: 0.8"/>
      </g>
     </g>
     <g id="text_12">
      <!-- 0.20 -->
      <g transform="translate(69.828125 94.385259) scale(0.14 -0.14)">
       <use xlink:href="#DejaVuSans-30"/>
       <use xlink:href="#DejaVuSans-2e" x="63.623047"/>
       <use xlink:href="#DejaVuSans-32" x="95.410156"/>
       <use xlink:href="#DejaVuSans-30" x="159.033203"/>
      </g>
     </g>
    </g>
    <g id="ytick_6">
     <g id="line2d_23">
      <path d="M 108 49.772941 
L 777.6 49.772941 
" clip-path="url(#p5e9584fdf3)" style="fill: none; stroke: #b0b0b0; stroke-width: 0.8; stroke-linecap: square"/>
     </g>
     <g id="line2d_24">
      <g>
       <use xlink:href="#m7919efe052" x="108" y="49.772941" style="stroke: #000000; stroke-width: 0.8"/>
      </g>
     </g>
     <g id="text_13">
      <!-- 0.25 -->
      <g transform="translate(69.828125 55.091847) scale(0.14 -0.14)">
       <use xlink:href="#DejaVuSans-30"/>
       <use xlink:href="#DejaVuSans-2e" x="63.623047"/>
       <use xlink:href="#DejaVuSans-32" x="95.410156"/>
       <use xlink:href="#DejaVuSans-35" x="159.033203"/>
      </g>
     </g>
    </g>
    <g id="text_14">
     <!-- $g_{Inhib}$ (µS) -->
     <g transform="translate(62.888125 178.83) rotate(-90) scale(0.14 -0.14)">
      <defs>
       <path id="DejaVuSans-Oblique-67" d="M 3816 3500 
L 3219 434 
Q 3047 -456 2561 -893 
Q 2075 -1331 1253 -1331 
Q 950 -1331 690 -1286 
Q 431 -1241 206 -1147 
L 313 -588 
Q 525 -725 762 -790 
Q 1000 -856 1269 -856 
Q 1816 -856 2167 -557 
Q 2519 -259 2631 300 
L 2681 563 
Q 2441 288 2122 144 
Q 1803 0 1434 0 
Q 903 0 598 351 
Q 294 703 294 1319 
Q 294 1803 478 2267 
Q 663 2731 997 3091 
Q 1219 3328 1514 3456 
Q 1809 3584 2131 3584 
Q 2484 3584 2746 3420 
Q 3009 3256 3138 2956 
L 3238 3500 
L 3816 3500 
z
M 2950 2216 
Q 2950 2641 2750 2872 
Q 2550 3103 2181 3103 
Q 1953 3103 1747 3012 
Q 1541 2922 1394 2759 
Q 1156 2491 1023 2127 
Q 891 1763 891 1375 
Q 891 944 1092 712 
Q 1294 481 1672 481 
Q 2219 481 2584 976 
Q 2950 1472 2950 2216 
z
" transform="scale(0.015625)"/>
       <path id="DejaVuSans-Oblique-49" d="M 1081 4666 
L 1716 4666 
L 806 0 
L 172 0 
L 1081 4666 
z
" transform="scale(0.015625)"/>
       <path id="DejaVuSans-Oblique-6e" d="M 3566 2113 
L 3156 0 
L 2578 0 
L 2988 2091 
Q 3016 2238 3031 2350 
Q 3047 2463 3047 2528 
Q 3047 2791 2881 2937 
Q 2716 3084 2419 3084 
Q 1956 3084 1622 2776 
Q 1288 2469 1184 1941 
L 800 0 
L 225 0 
L 903 3500 
L 1478 3500 
L 1363 2950 
Q 1603 3253 1940 3418 
Q 2278 3584 2650 3584 
Q 3113 3584 3367 3334 
Q 3622 3084 3622 2631 
Q 3622 2519 3608 2391 
Q 3594 2263 3566 2113 
z
" transform="scale(0.015625)"/>
       <path id="DejaVuSans-Oblique-68" d="M 3566 2113 
L 3156 0 
L 2578 0 
L 2988 2091 
Q 3016 2238 3031 2350 
Q 3047 2463 3047 2528 
Q 3047 2791 2881 2937 
Q 2716 3084 2419 3084 
Q 1956 3084 1617 2771 
Q 1278 2459 1178 1941 
L 800 0 
L 225 0 
L 1172 4863 
L 1747 4863 
L 1375 2950 
Q 1594 3244 1934 3414 
Q 2275 3584 2650 3584 
Q 3113 3584 3367 3334 
Q 3622 3084 3622 2631 
Q 3622 2519 3608 2391 
Q 3594 2263 3566 2113 
z
" transform="scale(0.015625)"/>
       <path id="DejaVuSans-Oblique-69" d="M 1172 4863 
L 1747 4863 
L 1606 4134 
L 1031 4134 
L 1172 4863 
z
M 909 3500 
L 1484 3500 
L 800 0 
L 225 0 
L 909 3500 
z
" transform="scale(0.015625)"/>
       <path id="DejaVuSans-Oblique-62" d="M 3169 2138 
Q 3169 2591 2961 2847 
Q 2753 3103 2388 3103 
Q 2122 3103 1889 2973 
Q 1656 2844 1484 2597 
Q 1303 2338 1198 1995 
Q 1094 1653 1094 1313 
Q 1094 881 1298 636 
Q 1503 391 1863 391 
Q 2134 391 2365 517 
Q 2597 644 2772 891 
Q 2950 1147 3059 1487 
Q 3169 1828 3169 2138 
z
M 1381 2969 
Q 1594 3256 1914 3420 
Q 2234 3584 2584 3584 
Q 3122 3584 3439 3221 
Q 3756 2859 3756 2241 
Q 3756 1734 3570 1259 
Q 3384 784 3041 416 
Q 2816 172 2522 40 
Q 2228 -91 1906 -91 
Q 1566 -91 1316 65 
Q 1066 222 909 531 
L 806 0 
L 231 0 
L 1178 4863 
L 1753 4863 
L 1381 2969 
z
" transform="scale(0.015625)"/>
       <path id="DejaVuSans-b5" d="M 544 -1331 
L 544 3500 
L 1119 3500 
L 1119 1325 
Q 1119 872 1334 640 
Q 1550 409 1972 409 
Q 2434 409 2667 671 
Q 2900 934 2900 1459 
L 2900 3500 
L 3475 3500 
L 3475 806 
Q 3475 619 3529 530 
Q 3584 441 3700 441 
Q 3728 441 3778 458 
Q 3828 475 3916 513 
L 3916 50 
Q 3788 -22 3673 -56 
Q 3559 -91 3450 -91 
Q 3234 -91 3106 31 
Q 2978 153 2931 403 
Q 2775 156 2548 32 
Q 2322 -91 2016 -91 
Q 1697 -91 1473 31 
Q 1250 153 1119 397 
L 1119 -1331 
L 544 -1331 
z
" transform="scale(0.015625)"/>
       <path id="DejaVuSans-53" d="M 3425 4513 
L 3425 3897 
Q 3066 4069 2747 4153 
Q 2428 4238 2131 4238 
Q 1616 4238 1336 4038 
Q 1056 3838 1056 3469 
Q 1056 3159 1242 3001 
Q 1428 2844 1947 2747 
L 2328 2669 
Q 3034 2534 3370 2195 
Q 3706 1856 3706 1288 
Q 3706 609 3251 259 
Q 2797 -91 1919 -91 
Q 1588 -91 1214 -16 
Q 841 59 441 206 
L 441 856 
Q 825 641 1194 531 
Q 1563 422 1919 422 
Q 2459 422 2753 634 
Q 3047 847 3047 1241 
Q 3047 1584 2836 1778 
Q 2625 1972 2144 2069 
L 1759 2144 
Q 1053 2284 737 2584 
Q 422 2884 422 3419 
Q 422 4038 858 4394 
Q 1294 4750 2059 4750 
Q 2388 4750 2728 4690 
Q 3069 4631 3425 4513 
z
" transform="scale(0.015625)"/>
      </defs>
      <use xlink:href="#DejaVuSans-Oblique-67" transform="translate(0 0.125)"/>
      <use xlink:href="#DejaVuSans-Oblique-49" transform="translate(63.476562 -16.28125) scale(0.7)"/>
      <use xlink:href="#DejaVuSans-Oblique-6e" transform="translate(84.121094 -16.28125) scale(0.7)"/>
      <use xlink:href="#DejaVuSans-Oblique-68" transform="translate(128.486328 -16.28125) scale(0.7)"/>
      <use xlink:href="#DejaVuSans-Oblique-69" transform="translate(172.851562 -16.28125) scale(0.7)"/>
      <use xlink:href="#DejaVuSans-Oblique-62" transform="translate(192.299805 -16.28125) scale(0.7)"/>
      <use xlink:href="#DejaVuSans-20" transform="translate(239.467773 0.125)"/>
      <use xlink:href="#DejaVuSans-28" transform="translate(271.254883 0.125)"/>
      <use xlink:href="#DejaVuSans-b5" transform="translate(310.268555 0.125)"/>
      <use xlink:href="#DejaVuSans-53" transform="translate(373.891602 0.125)"/>
      <use xlink:href="#DejaVuSans-29" transform="translate(437.368164 0.125)"/>
     </g>
    </g>
   </g>
   <g id="line2d_25">
    <path d="M 108 99.843692 
L 111.348 111.234249 
L 112.0176 106.002483 
L 112.6872 105.458084 
L 114.0264 109.786935 
L 114.696 104.578427 
L 115.3656 104.056911 
L 116.0352 98.778497 
L 116.7048 98.350184 
L 119.3832 107.475245 
L 120.0528 94.902647 
L 120.7224 91.738672 
L 122.0616 96.345526 
L 122.7312 91.353015 
L 123.4008 91.044025 
L 125.4096 98.249379 
L 126.0792 93.226274 
L 126.7488 92.887182 
L 127.4184 80.387021 
L 128.088 77.456305 
L 129.4272 82.518492 
L 130.0968 77.748174 
L 130.7664 77.657807 
L 131.436 80.204851 
L 132.1056 75.471712 
L 132.7752 75.417927 
L 138.8016 98.450969 
L 139.4712 93.424624 
L 140.1408 93.082344 
L 141.48 97.805743 
L 142.1496 92.789766 
L 142.8192 92.457689 
L 144.828 99.595982 
L 145.4976 94.551237 
L 146.1672 94.190853 
L 148.176 101.246929 
L 148.8456 96.175654 
L 149.5152 95.789167 
L 156.2112 118.150404 
L 159.5592 128.116583 
L 162.9072 137.30733 
L 166.2552 145.782979 
L 169.6032 153.599169 
L 172.9512 160.80721 
L 176.2992 167.45442 
L 179.6472 173.584435 
L 182.9952 179.237496 
L 186.3432 184.450714 
L 189.6912 189.25831 
L 193.0392 193.691845 
L 196.3872 197.780423 
L 199.7352 201.550884 
L 203.0832 205.027979 
L 205.7616 207.613832 
L 206.4312 200.833296 
L 207.1008 198.765014 
L 207.7704 199.365928 
L 209.1096 200.860308 
L 209.7792 194.188298 
L 210.4488 192.226798 
L 211.788 193.789398 
L 215.136 197.870386 
L 215.8056 198.64766 
L 216.4752 192.011206 
L 217.1448 190.084691 
L 218.484 191.715583 
L 219.1536 192.591762 
L 219.8232 186.052623 
L 220.4928 184.221859 
L 221.832 186.039662 
L 222.5016 187.007051 
L 223.1712 180.557655 
L 223.8408 178.815193 
L 224.5104 172.335452 
L 225.18 170.725116 
L 225.8496 171.776617 
L 226.5192 165.571966 
L 227.1888 164.070316 
L 227.8584 157.827518 
L 228.528 149.049078 
L 229.1976 147.650958 
L 231.2064 152.170997 
L 233.8848 158.073366 
L 234.5544 152.08892 
L 235.224 150.803936 
L 235.8936 152.17556 
L 236.5632 146.285888 
L 237.2328 145.094155 
L 238.572 148.159379 
L 239.9112 123.724526 
L 240.5808 122.571374 
L 243.2592 130.176675 
L 243.9288 124.640514 
L 244.5984 123.796611 
L 245.9376 127.540816 
L 246.6072 122.047012 
L 247.2768 113.843547 
L 247.9464 113.011162 
L 248.616 107.588858 
L 249.2856 107.018966 
L 251.964 115.600104 
L 252.6336 110.298182 
L 253.3032 109.684753 
L 256.6512 120.157792 
L 257.9904 96.615651 
L 258.66 95.898124 
L 259.3296 98.152056 
L 259.9992 93.130515 
L 261.3384 77.615305 
L 262.008 77.365089 
L 264.6864 87.806862 
L 265.356 82.951563 
L 266.0256 82.77758 
L 266.6952 77.841114 
L 267.3648 77.749253 
L 268.0344 72.89359 
L 268.704 72.881234 
L 270.7128 80.948193 
L 271.3824 76.203109 
L 272.052 76.13757 
L 278.748 101.437877 
L 282.096 112.704395 
L 285.444 123.094308 
L 288.792 132.67582 
L 290.1312 136.29633 
L 290.8008 130.66183 
L 291.4704 129.721167 
L 293.4792 135.091758 
L 296.8272 143.739793 
L 300.1752 151.714956 
L 303.5232 159.0696 
L 306.8712 165.852007 
L 310.2192 172.1067 
L 313.5672 177.874739 
L 316.9152 183.193987 
L 320.2632 188.099365 
L 323.6112 192.623073 
L 326.9592 196.794808 
L 330.3072 200.641956 
L 333.6552 204.189772 
L 337.0032 207.461545 
L 341.0208 211.053418 
L 343.0296 212.722596 
L 343.6992 205.859965 
L 344.3688 203.710907 
L 345.0384 204.232344 
L 348.3864 207.500804 
L 349.056 208.123323 
L 349.7256 201.3346 
L 350.3952 199.258263 
L 351.0648 199.851251 
L 354.4128 203.460588 
L 355.0824 196.746793 
L 355.752 194.744179 
L 357.0912 196.226523 
L 359.1 198.599058 
L 359.7696 191.963385 
L 360.4392 190.037638 
L 361.7784 191.67003 
L 363.1176 193.409761 
L 363.7872 186.857477 
L 364.4568 185.01378 
L 365.1264 185.835669 
L 365.796 179.405097 
L 366.4656 170.279917 
L 367.1352 168.540628 
L 368.4744 170.85836 
L 371.8224 176.723528 
L 372.492 177.840621 
L 373.1616 171.538526 
L 373.8312 169.940996 
L 375.1704 172.214084 
L 377.8488 176.858847 
L 378.5184 170.572528 
L 379.188 168.990522 
L 379.8576 162.668658 
L 380.5272 161.213662 
L 381.1968 155.016769 
L 381.8664 153.684735 
L 382.536 147.608828 
L 383.8752 130.356809 
L 384.5448 114.456587 
L 385.2144 103.415167 
L 385.884 102.588376 
L 387.2232 107.008715 
L 387.8928 101.844852 
L 388.5624 93.966025 
L 389.232 93.453061 
L 391.2408 100.544135 
L 391.9104 95.484155 
L 392.58 95.108779 
L 393.2496 82.572919 
L 393.9192 79.607077 
L 395.2584 84.600695 
L 395.928 87.198156 
L 396.5976 82.352638 
L 397.2672 82.188279 
L 397.9368 84.662522 
L 398.6064 79.85775 
L 399.276 79.733483 
L 399.9456 82.247173 
L 400.6152 77.481215 
L 401.2848 77.395138 
L 401.9544 79.946403 
L 402.624 75.217417 
L 403.2936 75.167718 
L 404.6328 80.462248 
L 405.3024 75.724973 
L 405.972 75.667118 
L 410.6592 93.806664 
L 411.3288 88.854951 
L 411.9984 88.586103 
L 412.668 90.957536 
L 413.3376 86.051607 
L 414.0072 85.827808 
L 418.6944 102.878062 
L 419.364 97.780576 
L 420.0336 97.368298 
L 427.3992 121.530116 
L 430.7472 131.233332 
L 434.0952 140.181576 
L 437.4432 148.43359 
L 440.7912 156.043546 
L 444.1392 163.061399 
L 447.4872 169.533219 
L 450.8352 175.50149 
L 454.1832 181.005393 
L 457.5312 186.081057 
L 460.8792 190.761802 
L 464.2272 195.078356 
L 466.9056 198.288499 
L 467.5752 191.657816 
L 468.2448 189.73698 
L 468.9144 183.081731 
L 469.584 181.298708 
L 470.9232 183.209703 
L 474.2712 188.113858 
L 474.9408 181.646677 
L 475.6104 179.886714 
L 476.9496 181.842725 
L 480.2976 186.853239 
L 480.9672 173.005077 
L 481.6368 168.586036 
L 482.3064 169.509926 
L 485.6544 175.48001 
L 488.3328 179.919853 
L 489.0024 173.584345 
L 489.672 171.95394 
L 491.0112 174.162854 
L 494.3592 179.77091 
L 495.6984 181.889994 
L 496.368 175.522827 
L 497.0376 173.861272 
L 498.3768 176.009378 
L 499.0464 169.736709 
L 499.716 160.766895 
L 500.3856 159.180476 
L 501.0552 153.016255 
L 501.7248 151.716368 
L 502.3944 153.07333 
L 503.064 147.169232 
L 503.7336 138.562066 
L 504.4032 137.332466 
L 506.412 142.341993 
L 509.0904 148.861084 
L 509.76 143.024675 
L 510.4296 141.885348 
L 511.0992 128.597812 
L 511.7688 124.892373 
L 512.4384 126.518398 
L 514.4472 132.197742 
L 515.1168 126.629104 
L 515.7864 118.352007 
L 516.456 117.447173 
L 518.4648 123.400017 
L 519.1344 117.972754 
L 519.804 117.235998 
L 520.4736 104.344565 
L 521.1432 101.028863 
L 521.8128 103.038363 
L 522.4824 97.938301 
L 523.152 97.523489 
L 525.8304 106.700422 
L 526.5 101.541512 
L 527.1696 101.068799 
L 527.8392 95.838402 
L 528.5088 95.457334 
L 535.2048 117.8682 
L 535.8744 119.931069 
L 536.544 114.55955 
L 537.2136 106.476405 
L 537.8832 105.762405 
L 538.5528 100.456585 
L 539.2224 100.001305 
L 540.5616 104.504122 
L 541.2312 99.380506 
L 541.9008 98.942519 
L 543.24 103.479091 
L 543.9096 98.371947 
L 544.5792 97.950166 
L 546.588 104.827907 
L 547.2576 99.699088 
L 547.9272 99.255981 
L 554.6232 121.098726 
L 555.2928 115.708443 
L 555.9624 115.008074 
L 563.9976 138.05747 
L 567.3456 146.474753 
L 570.6936 154.237119 
L 574.0416 161.395523 
L 577.3896 167.996959 
L 580.7376 174.084761 
L 584.0856 179.698894 
L 587.4336 184.876212 
L 590.7816 189.650702 
L 594.1296 194.053706 
L 597.4776 198.114129 
L 600.8256 201.858625 
L 604.1736 205.311776 
L 606.852 207.879822 
L 607.5216 201.095012 
L 608.1912 191.621286 
L 608.8608 189.539052 
L 610.2 191.187339 
L 613.548 195.470783 
L 614.2176 196.286618 
L 614.8872 189.688105 
L 615.5568 187.798921 
L 616.2264 188.576055 
L 616.896 182.101446 
L 617.5656 180.334175 
L 618.9048 182.275921 
L 622.2528 187.25273 
L 622.9224 180.799386 
L 623.592 179.053039 
L 624.2616 172.569476 
L 624.9312 170.955379 
L 625.6008 157.200703 
L 626.2704 153.035631 
L 626.94 146.80817 
L 627.6096 145.608044 
L 628.2792 139.661925 
L 628.9488 138.576636 
L 630.288 141.849642 
L 630.9576 128.724665 
L 631.6272 125.017187 
L 632.2968 126.641207 
L 635.6448 135.946747 
L 638.9928 144.528258 
L 639.6624 146.162714 
L 640.332 140.369666 
L 641.0016 139.273003 
L 641.6712 133.428685 
L 642.3408 125.042322 
L 643.0104 124.029978 
L 645.0192 129.670547 
L 645.6888 124.14252 
L 646.3584 123.30662 
L 649.0368 130.865787 
L 649.7064 125.318553 
L 651.0456 108.777165 
L 651.7152 108.026193 
L 653.0544 112.273171 
L 653.724 107.02471 
L 654.3936 106.463884 
L 655.0632 108.54803 
L 655.7328 103.359431 
L 656.4024 102.857504 
L 657.072 104.999602 
L 657.7416 99.868024 
L 658.4112 92.020964 
L 659.0808 91.539256 
L 659.7504 86.461995 
L 660.42 86.231601 
L 661.0896 81.239631 
L 661.7592 81.093158 
L 664.4376 91.301013 
L 665.1072 86.389565 
L 665.7768 86.160335 
L 667.116 91.104412 
L 667.7856 86.196123 
L 668.4552 85.970002 
L 671.1336 95.871859 
L 671.8032 90.886959 
L 672.4728 90.585459 
L 676.4904 104.853655 
L 677.16 99.724423 
L 677.8296 99.280909 
L 679.8384 106.095522 
L 680.508 100.946333 
L 681.1776 100.483184 
L 688.5432 124.136574 
L 691.8912 133.636991 
L 695.2392 142.398216 
L 698.5872 150.477762 
L 701.9352 157.928668 
L 705.2832 164.799847 
L 708.6312 171.136404 
L 711.9792 176.979938 
L 715.3272 182.368808 
L 718.6752 187.338389 
L 722.0232 191.921306 
L 725.3712 196.147643 
L 726.7104 197.744625 
L 727.38 191.122682 
L 728.0496 189.210445 
L 729.3888 190.869208 
L 732.7368 195.177405 
L 735.4152 198.381333 
L 736.0848 191.749159 
L 736.7544 189.826854 
L 738.0936 191.465966 
L 741.4416 195.727731 
L 744.7896 199.657904 
L 748.1376 203.282285 
L 750.816 205.977672 
L 751.4856 199.223428 
L 752.1552 189.779778 
L 752.8248 187.727136 
L 754.164 189.433188 
L 757.512 193.853116 
L 760.1904 197.140137 
L 760.86 190.527908 
L 761.5296 188.625228 
L 762.8688 190.302649 
L 764.208 192.085973 
L 764.8776 185.554962 
L 765.5472 183.732195 
L 766.8864 185.565609 
L 768.2256 187.499954 
L 768.8952 181.042638 
L 769.5648 179.292381 
L 770.904 181.26734 
L 773.5824 185.344056 
L 774.252 178.921384 
L 774.9216 177.205216 
L 775.5912 178.152585 
L 776.2608 164.444238 
L 776.9304 160.162765 
L 777.6 161.222013 
L 777.6 161.222013 
" clip-path="url(#p5e9584fdf3)" style="fill: none; stroke: #ff4500; stroke-width: 1.5; stroke-linecap: square"/>
   </g>
   <g id="patch_3">
    <path d="M 108 256.32 
L 108 34.56 
" style="fill: none; stroke: #000000; stroke-width: 0.8; stroke-linejoin: miter; stroke-linecap: square"/>
   </g>
   <g id="patch_4">
    <path d="M 777.6 256.32 
L 777.6 34.56 
" style="fill: none; stroke: #000000; stroke-width: 0.8; stroke-linejoin: miter; stroke-linecap: square"/>
   </g>
   <g id="patch_5">
    <path d="M 108 256.32 
L 777.6 256.32 
" style="fill: none; stroke: #000000; stroke-width: 0.8; stroke-linejoin: miter; stroke-linecap: square"/>
   </g>
   <g id="patch_6">
    <path d="M 108 34.56 
L 777.6 34.56 
" style="fill: none; stroke: #000000; stroke-width: 0.8; stroke-linejoin: miter; stroke-linecap: square"/>
   </g>
  </g>
 </g>
 <defs>
  <clipPath id="p5e9584fdf3">
   <rect x="108" y="34.56" width="669.6" height="221.76"/>
  </clipPath>
 </defs>
</svg>
