<?xml version="1.0" encoding="utf-8" standalone="no"?>
<!DOCTYPE svg PUBLIC "-//W3C//DTD SVG 1.1//EN"
  "http://www.w3.org/Graphics/SVG/1.1/DTD/svg11.dtd">
<svg xmlns:xlink="http://www.w3.org/1999/xlink" width="864pt" height="288pt" viewBox="0 0 864 288" xmlns="http://www.w3.org/2000/svg" version="1.1">
 <metadata>
  <rdf:RDF xmlns:dc="http://purl.org/dc/elements/1.1/" xmlns:cc="http://creativecommons.org/ns#" xmlns:rdf="http://www.w3.org/1999/02/22-rdf-syntax-ns#">
   <cc:Work>
    <dc:type rdf:resource="http://purl.org/dc/dcmitype/StillImage"/>
    <dc:date>2024-04-23T19:18:26.024645</dc:date>
    <dc:format>image/svg+xml</dc:format>
    <dc:creator>
     <cc:Agent>
      <dc:title>Matplotlib v3.8.2, https://matplotlib.org/</dc:title>
     </cc:Agent>
    </dc:creator>
   </cc:Work>
  </rdf:RDF>
 </metadata>
 <defs>
  <style type="text/css">*{stroke-linejoin: round; stroke-linecap: butt}</style>
 </defs>
 <g id="figure_1">
  <g id="patch_1">
   <path d="M 0 288 
L 864 288 
L 864 0 
L 0 0 
z
" style="fill: #ffffff"/>
  </g>
  <g id="axes_1">
   <g id="patch_2">
    <path d="M 108 256.32 
L 777.6 256.32 
L 777.6 34.56 
L 108 34.56 
z
" style="fill: #ffffff"/>
   </g>
   <g id="matplotlib.axis_1">
    <g id="xtick_1">
     <g id="line2d_1">
      <path d="M 108 256.32 
L 108 34.56 
" clip-path="url(#p5cfe2ac2b8)" style="fill: none; stroke: #b0b0b0; stroke-width: 0.8; stroke-linecap: square"/>
     </g>
     <g id="line2d_2">
      <defs>
       <path id="m1a84ad2792" d="M 0 0 
L 0 3.5 
" style="stroke: #000000; stroke-width: 0.8"/>
      </defs>
      <g>
       <use xlink:href="#m1a84ad2792" x="108" y="256.32" style="stroke: #000000; stroke-width: 0.8"/>
      </g>
     </g>
     <g id="text_1">
      <!-- 100 -->
      <g transform="translate(94.63875 273.957812) scale(0.14 -0.14)">
       <defs>
        <path id="DejaVuSans-31" d="M 794 531 
L 1825 531 
L 1825 4091 
L 703 3866 
L 703 4441 
L 1819 4666 
L 2450 4666 
L 2450 531 
L 3481 531 
L 3481 0 
L 794 0 
L 794 531 
z
" transform="scale(0.015625)"/>
        <path id="DejaVuSans-30" d="M 2034 4250 
Q 1547 4250 1301 3770 
Q 1056 3291 1056 2328 
Q 1056 1369 1301 889 
Q 1547 409 2034 409 
Q 2525 409 2770 889 
Q 3016 1369 3016 2328 
Q 3016 3291 2770 3770 
Q 2525 4250 2034 4250 
z
M 2034 4750 
Q 2819 4750 3233 4129 
Q 3647 3509 3647 2328 
Q 3647 1150 3233 529 
Q 2819 -91 2034 -91 
Q 1250 -91 836 529 
Q 422 1150 422 2328 
Q 422 3509 836 4129 
Q 1250 4750 2034 4750 
z
" transform="scale(0.015625)"/>
       </defs>
       <use xlink:href="#DejaVuSans-31"/>
       <use xlink:href="#DejaVuSans-30" x="63.623047"/>
       <use xlink:href="#DejaVuSans-30" x="127.246094"/>
      </g>
     </g>
    </g>
    <g id="xtick_2">
     <g id="line2d_3">
      <path d="M 241.92 256.32 
L 241.92 34.56 
" clip-path="url(#p5cfe2ac2b8)" style="fill: none; stroke: #b0b0b0; stroke-width: 0.8; stroke-linecap: square"/>
     </g>
     <g id="line2d_4">
      <g>
       <use xlink:href="#m1a84ad2792" x="241.92" y="256.32" style="stroke: #000000; stroke-width: 0.8"/>
      </g>
     </g>
     <g id="text_2">
      <!-- 120 -->
      <g transform="translate(228.55875 273.957812) scale(0.14 -0.14)">
       <defs>
        <path id="DejaVuSans-32" d="M 1228 531 
L 3431 531 
L 3431 0 
L 469 0 
L 469 531 
Q 828 903 1448 1529 
Q 2069 2156 2228 2338 
Q 2531 2678 2651 2914 
Q 2772 3150 2772 3378 
Q 2772 3750 2511 3984 
Q 2250 4219 1831 4219 
Q 1534 4219 1204 4116 
Q 875 4013 500 3803 
L 500 4441 
Q 881 4594 1212 4672 
Q 1544 4750 1819 4750 
Q 2544 4750 2975 4387 
Q 3406 4025 3406 3419 
Q 3406 3131 3298 2873 
Q 3191 2616 2906 2266 
Q 2828 2175 2409 1742 
Q 1991 1309 1228 531 
z
" transform="scale(0.015625)"/>
       </defs>
       <use xlink:href="#DejaVuSans-31"/>
       <use xlink:href="#DejaVuSans-32" x="63.623047"/>
       <use xlink:href="#DejaVuSans-30" x="127.246094"/>
      </g>
     </g>
    </g>
    <g id="xtick_3">
     <g id="line2d_5">
      <path d="M 375.84 256.32 
L 375.84 34.56 
" clip-path="url(#p5cfe2ac2b8)" style="fill: none; stroke: #b0b0b0; stroke-width: 0.8; stroke-linecap: square"/>
     </g>
     <g id="line2d_6">
      <g>
       <use xlink:href="#m1a84ad2792" x="375.84" y="256.32" style="stroke: #000000; stroke-width: 0.8"/>
      </g>
     </g>
     <g id="text_3">
      <!-- 140 -->
      <g transform="translate(362.47875 273.957812) scale(0.14 -0.14)">
       <defs>
        <path id="DejaVuSans-34" d="M 2419 4116 
L 825 1625 
L 2419 1625 
L 2419 4116 
z
M 2253 4666 
L 3047 4666 
L 3047 1625 
L 3713 1625 
L 3713 1100 
L 3047 1100 
L 3047 0 
L 2419 0 
L 2419 1100 
L 313 1100 
L 313 1709 
L 2253 4666 
z
" transform="scale(0.015625)"/>
       </defs>
       <use xlink:href="#DejaVuSans-31"/>
       <use xlink:href="#DejaVuSans-34" x="63.623047"/>
       <use xlink:href="#DejaVuSans-30" x="127.246094"/>
      </g>
     </g>
    </g>
    <g id="xtick_4">
     <g id="line2d_7">
      <path d="M 509.76 256.32 
L 509.76 34.56 
" clip-path="url(#p5cfe2ac2b8)" style="fill: none; stroke: #b0b0b0; stroke-width: 0.8; stroke-linecap: square"/>
     </g>
     <g id="line2d_8">
      <g>
       <use xlink:href="#m1a84ad2792" x="509.76" y="256.32" style="stroke: #000000; stroke-width: 0.8"/>
      </g>
     </g>
     <g id="text_4">
      <!-- 160 -->
      <g transform="translate(496.39875 273.957812) scale(0.14 -0.14)">
       <defs>
        <path id="DejaVuSans-36" d="M 2113 2584 
Q 1688 2584 1439 2293 
Q 1191 2003 1191 1497 
Q 1191 994 1439 701 
Q 1688 409 2113 409 
Q 2538 409 2786 701 
Q 3034 994 3034 1497 
Q 3034 2003 2786 2293 
Q 2538 2584 2113 2584 
z
M 3366 4563 
L 3366 3988 
Q 3128 4100 2886 4159 
Q 2644 4219 2406 4219 
Q 1781 4219 1451 3797 
Q 1122 3375 1075 2522 
Q 1259 2794 1537 2939 
Q 1816 3084 2150 3084 
Q 2853 3084 3261 2657 
Q 3669 2231 3669 1497 
Q 3669 778 3244 343 
Q 2819 -91 2113 -91 
Q 1303 -91 875 529 
Q 447 1150 447 2328 
Q 447 3434 972 4092 
Q 1497 4750 2381 4750 
Q 2619 4750 2861 4703 
Q 3103 4656 3366 4563 
z
" transform="scale(0.015625)"/>
       </defs>
       <use xlink:href="#DejaVuSans-31"/>
       <use xlink:href="#DejaVuSans-36" x="63.623047"/>
       <use xlink:href="#DejaVuSans-30" x="127.246094"/>
      </g>
     </g>
    </g>
    <g id="xtick_5">
     <g id="line2d_9">
      <path d="M 643.68 256.32 
L 643.68 34.56 
" clip-path="url(#p5cfe2ac2b8)" style="fill: none; stroke: #b0b0b0; stroke-width: 0.8; stroke-linecap: square"/>
     </g>
     <g id="line2d_10">
      <g>
       <use xlink:href="#m1a84ad2792" x="643.68" y="256.32" style="stroke: #000000; stroke-width: 0.8"/>
      </g>
     </g>
     <g id="text_5">
      <!-- 180 -->
      <g transform="translate(630.31875 273.957812) scale(0.14 -0.14)">
       <defs>
        <path id="DejaVuSans-38" d="M 2034 2216 
Q 1584 2216 1326 1975 
Q 1069 1734 1069 1313 
Q 1069 891 1326 650 
Q 1584 409 2034 409 
Q 2484 409 2743 651 
Q 3003 894 3003 1313 
Q 3003 1734 2745 1975 
Q 2488 2216 2034 2216 
z
M 1403 2484 
Q 997 2584 770 2862 
Q 544 3141 544 3541 
Q 544 4100 942 4425 
Q 1341 4750 2034 4750 
Q 2731 4750 3128 4425 
Q 3525 4100 3525 3541 
Q 3525 3141 3298 2862 
Q 3072 2584 2669 2484 
Q 3125 2378 3379 2068 
Q 3634 1759 3634 1313 
Q 3634 634 3220 271 
Q 2806 -91 2034 -91 
Q 1263 -91 848 271 
Q 434 634 434 1313 
Q 434 1759 690 2068 
Q 947 2378 1403 2484 
z
M 1172 3481 
Q 1172 3119 1398 2916 
Q 1625 2713 2034 2713 
Q 2441 2713 2670 2916 
Q 2900 3119 2900 3481 
Q 2900 3844 2670 4047 
Q 2441 4250 2034 4250 
Q 1625 4250 1398 4047 
Q 1172 3844 1172 3481 
z
" transform="scale(0.015625)"/>
       </defs>
       <use xlink:href="#DejaVuSans-31"/>
       <use xlink:href="#DejaVuSans-38" x="63.623047"/>
       <use xlink:href="#DejaVuSans-30" x="127.246094"/>
      </g>
     </g>
    </g>
    <g id="xtick_6">
     <g id="line2d_11">
      <path d="M 777.6 256.32 
L 777.6 34.56 
" clip-path="url(#p5cfe2ac2b8)" style="fill: none; stroke: #b0b0b0; stroke-width: 0.8; stroke-linecap: square"/>
     </g>
     <g id="line2d_12">
      <g>
       <use xlink:href="#m1a84ad2792" x="777.6" y="256.32" style="stroke: #000000; stroke-width: 0.8"/>
      </g>
     </g>
     <g id="text_6">
      <!-- 200 -->
      <g transform="translate(764.23875 273.957812) scale(0.14 -0.14)">
       <use xlink:href="#DejaVuSans-32"/>
       <use xlink:href="#DejaVuSans-30" x="63.623047"/>
       <use xlink:href="#DejaVuSans-30" x="127.246094"/>
      </g>
     </g>
    </g>
    <g id="text_7">
     <!-- Time (ms) -->
     <g transform="translate(407.521094 291.507187) scale(0.14 -0.14)">
      <defs>
       <path id="DejaVuSans-54" d="M -19 4666 
L 3928 4666 
L 3928 4134 
L 2272 4134 
L 2272 0 
L 1638 0 
L 1638 4134 
L -19 4134 
L -19 4666 
z
" transform="scale(0.015625)"/>
       <path id="DejaVuSans-69" d="M 603 3500 
L 1178 3500 
L 1178 0 
L 603 0 
L 603 3500 
z
M 603 4863 
L 1178 4863 
L 1178 4134 
L 603 4134 
L 603 4863 
z
" transform="scale(0.015625)"/>
       <path id="DejaVuSans-6d" d="M 3328 2828 
Q 3544 3216 3844 3400 
Q 4144 3584 4550 3584 
Q 5097 3584 5394 3201 
Q 5691 2819 5691 2113 
L 5691 0 
L 5113 0 
L 5113 2094 
Q 5113 2597 4934 2840 
Q 4756 3084 4391 3084 
Q 3944 3084 3684 2787 
Q 3425 2491 3425 1978 
L 3425 0 
L 2847 0 
L 2847 2094 
Q 2847 2600 2669 2842 
Q 2491 3084 2119 3084 
Q 1678 3084 1418 2786 
Q 1159 2488 1159 1978 
L 1159 0 
L 581 0 
L 581 3500 
L 1159 3500 
L 1159 2956 
Q 1356 3278 1631 3431 
Q 1906 3584 2284 3584 
Q 2666 3584 2933 3390 
Q 3200 3197 3328 2828 
z
" transform="scale(0.015625)"/>
       <path id="DejaVuSans-65" d="M 3597 1894 
L 3597 1613 
L 953 1613 
Q 991 1019 1311 708 
Q 1631 397 2203 397 
Q 2534 397 2845 478 
Q 3156 559 3463 722 
L 3463 178 
Q 3153 47 2828 -22 
Q 2503 -91 2169 -91 
Q 1331 -91 842 396 
Q 353 884 353 1716 
Q 353 2575 817 3079 
Q 1281 3584 2069 3584 
Q 2775 3584 3186 3129 
Q 3597 2675 3597 1894 
z
M 3022 2063 
Q 3016 2534 2758 2815 
Q 2500 3097 2075 3097 
Q 1594 3097 1305 2825 
Q 1016 2553 972 2059 
L 3022 2063 
z
" transform="scale(0.015625)"/>
       <path id="DejaVuSans-20" transform="scale(0.015625)"/>
       <path id="DejaVuSans-28" d="M 1984 4856 
Q 1566 4138 1362 3434 
Q 1159 2731 1159 2009 
Q 1159 1288 1364 580 
Q 1569 -128 1984 -844 
L 1484 -844 
Q 1016 -109 783 600 
Q 550 1309 550 2009 
Q 550 2706 781 3412 
Q 1013 4119 1484 4856 
L 1984 4856 
z
" transform="scale(0.015625)"/>
       <path id="DejaVuSans-73" d="M 2834 3397 
L 2834 2853 
Q 2591 2978 2328 3040 
Q 2066 3103 1784 3103 
Q 1356 3103 1142 2972 
Q 928 2841 928 2578 
Q 928 2378 1081 2264 
Q 1234 2150 1697 2047 
L 1894 2003 
Q 2506 1872 2764 1633 
Q 3022 1394 3022 966 
Q 3022 478 2636 193 
Q 2250 -91 1575 -91 
Q 1294 -91 989 -36 
Q 684 19 347 128 
L 347 722 
Q 666 556 975 473 
Q 1284 391 1588 391 
Q 1994 391 2212 530 
Q 2431 669 2431 922 
Q 2431 1156 2273 1281 
Q 2116 1406 1581 1522 
L 1381 1569 
Q 847 1681 609 1914 
Q 372 2147 372 2553 
Q 372 3047 722 3315 
Q 1072 3584 1716 3584 
Q 2034 3584 2315 3537 
Q 2597 3491 2834 3397 
z
" transform="scale(0.015625)"/>
       <path id="DejaVuSans-29" d="M 513 4856 
L 1013 4856 
Q 1481 4119 1714 3412 
Q 1947 2706 1947 2009 
Q 1947 1309 1714 600 
Q 1481 -109 1013 -844 
L 513 -844 
Q 928 -128 1133 580 
Q 1338 1288 1338 2009 
Q 1338 2731 1133 3434 
Q 928 4138 513 4856 
z
" transform="scale(0.015625)"/>
      </defs>
      <use xlink:href="#DejaVuSans-54"/>
      <use xlink:href="#DejaVuSans-69" x="57.958984"/>
      <use xlink:href="#DejaVuSans-6d" x="85.742188"/>
      <use xlink:href="#DejaVuSans-65" x="183.154297"/>
      <use xlink:href="#DejaVuSans-20" x="244.677734"/>
      <use xlink:href="#DejaVuSans-28" x="276.464844"/>
      <use xlink:href="#DejaVuSans-6d" x="315.478516"/>
      <use xlink:href="#DejaVuSans-73" x="412.890625"/>
      <use xlink:href="#DejaVuSans-29" x="464.990234"/>
     </g>
    </g>
   </g>
   <g id="matplotlib.axis_2">
    <g id="ytick_1">
     <g id="line2d_13">
      <path d="M 108 225.210561 
L 777.6 225.210561 
" clip-path="url(#p5cfe2ac2b8)" style="fill: none; stroke: #b0b0b0; stroke-width: 0.8; stroke-linecap: square"/>
     </g>
     <g id="line2d_14">
      <defs>
       <path id="mc181e331ba" d="M 0 0 
L -3.5 0 
" style="stroke: #000000; stroke-width: 0.8"/>
      </defs>
      <g>
       <use xlink:href="#mc181e331ba" x="108" y="225.210561" style="stroke: #000000; stroke-width: 0.8"/>
      </g>
     </g>
     <g id="text_8">
      <!-- −60 -->
      <g transform="translate(71.453437 230.529467) scale(0.14 -0.14)">
       <defs>
        <path id="DejaVuSans-2212" d="M 678 2272 
L 4684 2272 
L 4684 1741 
L 678 1741 
L 678 2272 
z
" transform="scale(0.015625)"/>
       </defs>
       <use xlink:href="#DejaVuSans-2212"/>
       <use xlink:href="#DejaVuSans-36" x="83.789062"/>
       <use xlink:href="#DejaVuSans-30" x="147.412109"/>
      </g>
     </g>
    </g>
    <g id="ytick_2">
     <g id="line2d_15">
      <path d="M 108 183.218699 
L 777.6 183.218699 
" clip-path="url(#p5cfe2ac2b8)" style="fill: none; stroke: #b0b0b0; stroke-width: 0.8; stroke-linecap: square"/>
     </g>
     <g id="line2d_16">
      <g>
       <use xlink:href="#mc181e331ba" x="108" y="183.218699" style="stroke: #000000; stroke-width: 0.8"/>
      </g>
     </g>
     <g id="text_9">
      <!-- −40 -->
      <g transform="translate(71.453437 188.537606) scale(0.14 -0.14)">
       <use xlink:href="#DejaVuSans-2212"/>
       <use xlink:href="#DejaVuSans-34" x="83.789062"/>
       <use xlink:href="#DejaVuSans-30" x="147.412109"/>
      </g>
     </g>
    </g>
    <g id="ytick_3">
     <g id="line2d_17">
      <path d="M 108 141.226838 
L 777.6 141.226838 
" clip-path="url(#p5cfe2ac2b8)" style="fill: none; stroke: #b0b0b0; stroke-width: 0.8; stroke-linecap: square"/>
     </g>
     <g id="line2d_18">
      <g>
       <use xlink:href="#mc181e331ba" x="108" y="141.226838" style="stroke: #000000; stroke-width: 0.8"/>
      </g>
     </g>
     <g id="text_10">
      <!-- −20 -->
      <g transform="translate(71.453437 146.545744) scale(0.14 -0.14)">
       <use xlink:href="#DejaVuSans-2212"/>
       <use xlink:href="#DejaVuSans-32" x="83.789062"/>
       <use xlink:href="#DejaVuSans-30" x="147.412109"/>
      </g>
     </g>
    </g>
    <g id="ytick_4">
     <g id="line2d_19">
      <path d="M 108 99.234977 
L 777.6 99.234977 
" clip-path="url(#p5cfe2ac2b8)" style="fill: none; stroke: #b0b0b0; stroke-width: 0.8; stroke-linecap: square"/>
     </g>
     <g id="line2d_20">
      <g>
       <use xlink:href="#mc181e331ba" x="108" y="99.234977" style="stroke: #000000; stroke-width: 0.8"/>
      </g>
     </g>
     <g id="text_11">
      <!-- 0 -->
      <g transform="translate(92.0925 104.553883) scale(0.14 -0.14)">
       <use xlink:href="#DejaVuSans-30"/>
      </g>
     </g>
    </g>
    <g id="ytick_5">
     <g id="line2d_21">
      <path d="M 108 57.243115 
L 777.6 57.243115 
" clip-path="url(#p5cfe2ac2b8)" style="fill: none; stroke: #b0b0b0; stroke-width: 0.8; stroke-linecap: square"/>
     </g>
     <g id="line2d_22">
      <g>
       <use xlink:href="#mc181e331ba" x="108" y="57.243115" style="stroke: #000000; stroke-width: 0.8"/>
      </g>
     </g>
     <g id="text_12">
      <!-- 20 -->
      <g transform="translate(83.185 62.562021) scale(0.14 -0.14)">
       <use xlink:href="#DejaVuSans-32"/>
       <use xlink:href="#DejaVuSans-30" x="63.623047"/>
      </g>
     </g>
    </g>
    <g id="text_13">
     <!-- $V_{m}$ (mV) -->
     <g transform="translate(64.541875 174.49) rotate(-90) scale(0.14 -0.14)">
      <defs>
       <path id="DejaVuSans-Oblique-56" d="M 1319 0 
L 500 4666 
L 1119 4666 
L 1797 653 
L 4063 4666 
L 4750 4666 
L 2053 0 
L 1319 0 
z
" transform="scale(0.015625)"/>
       <path id="DejaVuSans-Oblique-6d" d="M 5747 2113 
L 5338 0 
L 4763 0 
L 5166 2094 
Q 5191 2228 5203 2325 
Q 5216 2422 5216 2491 
Q 5216 2772 5059 2928 
Q 4903 3084 4622 3084 
Q 4203 3084 3875 2770 
Q 3547 2456 3450 1953 
L 3066 0 
L 2491 0 
L 2900 2094 
Q 2925 2209 2937 2307 
Q 2950 2406 2950 2484 
Q 2950 2769 2794 2926 
Q 2638 3084 2363 3084 
Q 1938 3084 1609 2770 
Q 1281 2456 1184 1953 
L 800 0 
L 225 0 
L 909 3500 
L 1484 3500 
L 1375 2956 
Q 1609 3263 1923 3423 
Q 2238 3584 2597 3584 
Q 2978 3584 3223 3384 
Q 3469 3184 3519 2828 
Q 3781 3197 4126 3390 
Q 4472 3584 4856 3584 
Q 5306 3584 5551 3325 
Q 5797 3066 5797 2591 
Q 5797 2488 5784 2364 
Q 5772 2241 5747 2113 
z
" transform="scale(0.015625)"/>
       <path id="DejaVuSans-56" d="M 1831 0 
L 50 4666 
L 709 4666 
L 2188 738 
L 3669 4666 
L 4325 4666 
L 2547 0 
L 1831 0 
z
" transform="scale(0.015625)"/>
      </defs>
      <use xlink:href="#DejaVuSans-Oblique-56" transform="translate(0 0.125)"/>
      <use xlink:href="#DejaVuSans-Oblique-6d" transform="translate(68.408203 -16.28125) scale(0.7)"/>
      <use xlink:href="#DejaVuSans-20" transform="translate(139.331055 0.125)"/>
      <use xlink:href="#DejaVuSans-28" transform="translate(171.118164 0.125)"/>
      <use xlink:href="#DejaVuSans-6d" transform="translate(210.131836 0.125)"/>
      <use xlink:href="#DejaVuSans-56" transform="translate(307.543945 0.125)"/>
      <use xlink:href="#DejaVuSans-29" transform="translate(375.952148 0.125)"/>
     </g>
    </g>
   </g>
   <g id="line2d_23">
    <path d="M 108 228.577999 
L 109.3392 229.120428 
L 110.0088 229.306807 
L 110.6784 229.762575 
L 112.6872 231.709067 
L 114.0264 232.254036 
L 114.696 232.417825 
L 115.3656 232.829689 
L 116.0352 233.436557 
L 116.7048 233.854043 
L 120.7224 235.244799 
L 122.7312 235.370254 
L 125.4096 235.254754 
L 128.088 234.919042 
L 128.7576 234.807148 
L 130.0968 235.073325 
L 131.436 235.009387 
L 133.4448 234.696045 
L 134.784 235.454 
L 138.132 236.034215 
L 138.8016 236.291593 
L 139.4712 236.733272 
L 140.1408 237.002109 
L 141.48 237.153102 
L 143.4888 237.05079 
L 146.1672 236.643875 
L 149.5152 235.870874 
L 153.5328 234.667277 
L 157.5504 233.230239 
L 162.2376 231.316095 
L 167.5944 228.873244 
L 173.6208 225.864326 
L 180.3168 222.273327 
L 189.6912 216.963105 
L 198.396 211.920686 
L 199.7352 212.045476 
L 201.0744 211.729037 
L 201.744 211.498702 
L 203.0832 211.875451 
L 204.4224 211.760557 
L 206.4312 211.259905 
L 209.7792 210.136107 
L 214.4664 208.282378 
L 215.8056 208.671726 
L 216.4752 208.654409 
L 217.8144 209.293027 
L 219.1536 209.340962 
L 220.4928 209.155573 
L 221.832 210.690985 
L 222.5016 211.050926 
L 223.1712 211.24663 
L 224.5104 212.263191 
L 225.8496 212.651258 
L 227.1888 212.763965 
L 228.528 212.73731 
L 229.1976 213.143484 
L 229.8672 213.910065 
L 230.5368 214.434706 
L 231.2064 215.156066 
L 231.876 215.689903 
L 233.2152 216.206654 
L 233.8848 216.341435 
L 235.224 217.2566 
L 235.8936 218.305207 
L 236.5632 219.120693 
L 237.2328 219.597025 
L 238.572 220.139508 
L 239.9112 221.835392 
L 240.5808 222.28425 
L 241.92 222.811301 
L 242.5896 222.979488 
L 243.2592 223.473989 
L 243.9288 224.585027 
L 244.5984 225.40181 
L 245.268 225.886113 
L 246.6072 226.460111 
L 247.9464 226.790342 
L 249.9552 227.035302 
L 250.6248 227.407526 
L 251.2944 228.032057 
L 251.964 228.457668 
L 253.3032 228.849734 
L 255.312 229.044842 
L 256.6512 229.044947 
L 257.9904 229.567668 
L 258.66 229.66269 
L 259.9992 230.275848 
L 261.3384 230.450174 
L 263.3472 230.409649 
L 264.6864 230.279859 
L 268.0344 231.364997 
L 268.704 232.304655 
L 269.3736 233.604405 
L 270.0432 234.432853 
L 270.7128 234.898325 
L 272.052 235.403599 
L 273.3912 235.651304 
L 275.4 235.770963 
L 278.0784 235.637649 
L 280.7568 235.273338 
L 283.4352 234.733657 
L 284.7744 234.936537 
L 286.1136 234.812487 
L 288.792 234.251391 
L 292.14 233.298909 
L 296.1576 231.914604 
L 300.8448 230.044676 
L 306.2016 227.640901 
L 312.228 224.668764 
L 318.924 221.115728 
L 328.2984 215.857517 
L 329.6376 215.928054 
L 330.9768 215.574297 
L 333.6552 214.497491 
L 338.3424 212.308963 
L 344.3688 209.25808 
L 349.7256 206.295057 
L 351.7344 204.923676 
L 353.7432 203.242842 
L 355.752 204.460594 
L 356.4216 204.595401 
L 357.7608 205.661277 
L 358.4304 205.978635 
L 361.1088 208.755383 
L 361.7784 209.170975 
L 363.1176 209.62295 
L 364.4568 209.804688 
L 369.8136 213.715727 
L 371.1528 214.050069 
L 373.1616 214.215535 
L 373.8312 214.214966 
L 374.5008 214.634995 
L 375.1704 215.402738 
L 375.84 216.354954 
L 376.5096 217.003015 
L 377.1792 217.3902 
L 377.8488 218.05677 
L 379.8576 220.747652 
L 380.5272 221.215491 
L 381.8664 222.488997 
L 382.536 223.942283 
L 383.2056 225.079047 
L 384.5448 226.587721 
L 385.2144 227.877588 
L 385.884 228.835667 
L 388.5624 231.243289 
L 389.9016 231.840871 
L 392.58 232.813012 
L 393.2496 233.434787 
L 393.9192 233.871525 
L 394.5888 234.140663 
L 395.928 234.967414 
L 396.5976 235.192094 
L 397.9368 235.948347 
L 399.276 236.280397 
L 400.6152 236.433179 
L 401.9544 236.966301 
L 403.2936 237.142332 
L 405.3024 237.149592 
L 406.6416 237.53929 
L 407.9808 237.595476 
L 408.6504 237.566897 
L 409.9896 237.923596 
L 411.3288 237.945093 
L 413.3376 237.746527 
L 416.016 237.274559 
L 419.364 236.459813 
L 423.3816 235.230391 
L 427.3992 233.779726 
L 432.0864 231.857362 
L 437.4432 229.410215 
L 443.4696 226.399161 
L 450.1656 222.804989 
L 458.8704 217.865032 
L 468.9144 211.971016 
L 470.2536 212.076935 
L 471.5928 211.747124 
L 474.2712 210.682609 
L 476.9496 209.446714 
L 478.2888 209.731877 
L 479.628 210.495712 
L 480.9672 210.625167 
L 482.976 210.38094 
L 484.3152 210.069531 
L 486.324 209.349895 
L 491.0112 207.350904 
L 492.3504 206.712739 
L 493.6896 207.042828 
L 495.0288 206.963888 
L 497.0376 206.478602 
L 499.716 205.519157 
L 501.7248 204.587949 
L 503.064 203.844483 
L 505.0728 204.107294 
L 505.7424 204.040895 
L 506.412 204.442942 
L 507.7512 206.097846 
L 508.4208 206.601139 
L 509.76 207.162258 
L 511.0992 208.344195 
L 512.4384 210.680606 
L 513.108 211.326768 
L 515.1168 212.74745 
L 515.7864 213.296782 
L 516.456 214.941355 
L 517.1256 216.247839 
L 518.4648 217.970253 
L 519.1344 219.86512 
L 519.804 221.292081 
L 521.1432 223.171979 
L 521.8128 224.302047 
L 523.8216 226.788389 
L 525.1608 227.716656 
L 525.8304 228.053091 
L 528.5088 230.322617 
L 529.848 230.94016 
L 531.8568 231.467715 
L 532.5264 231.581467 
L 533.8656 232.815105 
L 535.2048 233.336104 
L 536.544 233.592752 
L 537.2136 233.956769 
L 537.8832 234.521607 
L 540.5616 235.982569 
L 541.9008 236.222031 
L 543.9096 236.338591 
L 546.588 236.224296 
L 547.9272 236.081726 
L 549.2664 236.3914 
L 550.6056 236.374034 
L 553.284 236.014522 
L 555.9624 235.450259 
L 557.3016 235.63052 
L 558.6408 235.489632 
L 561.3192 234.902099 
L 564.6672 233.924451 
L 568.6848 232.518309 
L 573.372 230.631519 
L 578.7288 228.216586 
L 584.7552 225.238938 
L 591.4512 221.684855 
L 600.156 216.80842 
L 608.8608 211.774881 
L 610.2 211.894657 
L 611.5392 211.578977 
L 614.2176 210.539973 
L 616.2264 209.640595 
L 617.5656 209.943582 
L 618.2352 210.37134 
L 618.9048 210.645474 
L 620.244 210.655763 
L 620.9136 210.550316 
L 622.2528 211.145046 
L 622.9224 211.227774 
L 625.6008 213.135495 
L 626.2704 213.830473 
L 626.94 214.347112 
L 628.2792 214.826852 
L 629.6184 215.004429 
L 630.9576 215.832765 
L 632.2968 216.127613 
L 632.9664 216.179673 
L 635.6448 218.005046 
L 636.3144 218.659284 
L 636.984 219.545111 
L 637.6536 220.161125 
L 638.9928 220.788897 
L 639.6624 220.969906 
L 640.332 221.484569 
L 641.0016 222.641128 
L 641.6712 223.491523 
L 642.3408 223.994364 
L 643.68 225.22896 
L 645.0192 225.835855 
L 646.3584 226.17713 
L 648.3672 226.430589 
L 649.0368 226.465583 
L 650.376 227.104836 
L 651.7152 227.322548 
L 652.3848 227.358448 
L 653.724 227.968809 
L 654.3936 228.095294 
L 655.0632 228.486382 
L 655.7328 229.104296 
L 656.4024 229.517302 
L 657.7416 229.879002 
L 659.0808 230.005635 
L 661.7592 231.335229 
L 662.4288 231.496446 
L 663.0984 231.888372 
L 663.768 232.478773 
L 664.4376 232.872665 
L 665.7768 233.220581 
L 667.116 233.342261 
L 668.4552 233.87851 
L 669.7944 234.029389 
L 671.8032 233.980368 
L 673.1424 234.378186 
L 674.4816 234.418991 
L 676.4904 234.23365 
L 679.1688 235.047392 
L 680.508 235.616276 
L 681.8472 235.72844 
L 683.856 235.59701 
L 686.5344 235.166346 
L 689.8824 234.371691 
L 693.9 233.146386 
L 694.5696 232.918298 
L 695.9088 233.007877 
L 697.248 232.767691 
L 699.9264 231.984528 
L 703.944 230.52553 
L 708.6312 228.561669 
L 713.988 226.064356 
L 720.0144 223.009797 
L 727.38 219.023783 
L 738.0936 212.934873 
L 746.1288 208.161 
L 748.8072 206.431006 
L 750.1464 206.531598 
L 751.4856 206.24514 
L 752.8248 205.683882 
L 753.4944 205.331171 
L 754.8336 205.563419 
L 755.5032 205.529333 
L 756.8424 206.26757 
L 758.1816 206.4877 
L 759.5208 206.419305 
L 760.1904 206.321758 
L 761.5296 207.032249 
L 762.8688 207.266104 
L 764.208 207.234234 
L 766.2168 206.928196 
L 766.8864 207.281192 
L 767.556 208.083311 
L 768.2256 208.684056 
L 768.8952 209.028003 
L 770.2344 209.356264 
L 771.5736 209.441058 
L 772.2432 209.42769 
L 773.5824 210.23083 
L 774.252 210.418354 
L 775.5912 211.426892 
L 776.2608 211.675589 
L 776.9304 212.280227 
L 777.6 213.206814 
L 777.6 213.206814 
" clip-path="url(#p5cfe2ac2b8)" style="fill: none; stroke: #000000; stroke-width: 1.5; stroke-linecap: square"/>
   </g>
   <g id="line2d_24">
    <path d="M 108 134.095275 
L 110.0088 134.596585 
L 116.0352 135.922302 
L 122.0616 137.186936 
L 126.7488 137.872631 
L 133.4448 138.795576 
L 136.1232 139.323049 
L 140.1408 140.342735 
L 144.1584 141.461294 
L 148.8456 142.495043 
L 156.2112 143.873212 
L 167.5944 145.753827 
L 179.6472 147.527359 
L 191.0304 148.976194 
L 200.4048 150.137782 
L 203.0832 150.911495 
L 206.4312 152.330337 
L 211.788 154.566244 
L 215.8056 156.18285 
L 216.4752 140.430572 
L 217.1448 137.525087 
L 217.8144 135.945398 
L 218.484 135.111905 
L 219.1536 134.642923 
L 220.4928 134.161633 
L 221.832 133.941659 
L 225.8496 133.491391 
L 229.1976 132.813793 
L 231.2064 132.551261 
L 235.224 132.41603 
L 237.2328 132.544808 
L 241.2504 133.040517 
L 245.268 133.678009 
L 248.616 134.301267 
L 253.3032 135.040938 
L 257.3208 135.666254 
L 262.008 136.500604 
L 268.704 137.732988 
L 270.7128 138.494031 
L 273.3912 139.53361 
L 276.7392 140.528723 
L 281.4264 141.634145 
L 288.1224 143.176778 
L 294.1488 144.490892 
L 304.1928 146.421322 
L 316.2456 148.504723 
L 326.9592 150.136124 
L 329.6376 150.570161 
L 332.9856 151.487891 
L 339.6816 153.292646 
L 345.708 154.687562 
L 349.7256 155.451292 
L 350.3952 139.927166 
L 351.0648 136.979355 
L 351.7344 135.301859 
L 352.404 134.336621 
L 353.0736 133.716587 
L 354.4128 132.94046 
L 355.752 132.513427 
L 357.7608 132.121537 
L 360.4392 131.793855 
L 369.144 131.310072 
L 373.8312 131.390682 
L 375.84 131.480862 
L 378.5184 131.92764 
L 381.8664 132.793942 
L 384.5448 133.704956 
L 390.5712 135.918786 
L 409.32 140.911056 
L 416.016 142.567115 
L 423.3816 144.065949 
L 434.7648 146.135123 
L 448.1568 148.34469 
L 458.8704 149.907172 
L 468.2448 151.063829 
L 470.2536 151.351104 
L 472.932 152.044025 
L 478.9584 153.837282 
L 480.2976 154.553862 
L 483.6456 156.748475 
L 484.3152 140.792681 
L 484.9848 137.855762 
L 485.6544 136.227602 
L 486.324 135.3337 
L 486.9936 134.796982 
L 488.3328 134.177813 
L 498.3768 130.932946 
L 503.064 129.707249 
L 505.0728 129.340751 
L 507.0816 129.179367 
L 509.0904 129.321218 
L 511.7688 129.669906 
L 516.456 130.798631 
L 519.1344 131.781773 
L 525.8304 134.771261 
L 531.1872 136.556747 
L 537.8832 138.50751 
L 546.588 141.183418 
L 557.9712 144.078745 
L 564.6672 145.854549 
L 574.7112 148.227141 
L 590.112 151.634039 
L 600.8256 153.796952 
L 611.5392 155.878991 
L 616.896 157.772282 
L 617.5656 158.057946 
L 618.2352 141.363579 
L 618.9048 138.292533 
L 619.5744 136.598953 
L 620.244 135.68417 
L 620.9136 135.150372 
L 622.2528 134.613472 
L 624.2616 134.243597 
L 636.3144 132.759169 
L 638.9928 132.915226 
L 641.6712 133.163769 
L 648.3672 134.183788 
L 653.0544 134.68942 
L 656.4024 135.221858 
L 665.7768 137.29637 
L 671.1336 138.571138 
L 679.1688 140.3698 
L 687.8736 142.72687 
L 715.3272 148.749768 
L 726.7104 150.906114 
L 736.0848 152.464945 
L 743.4504 153.479269 
L 748.8072 153.997234 
L 750.816 154.281253 
L 751.4856 154.434421 
L 752.1552 139.469135 
L 752.8248 136.64685 
L 753.4944 135.068823 
L 754.164 134.195818 
L 754.8336 133.679558 
L 756.1728 133.137583 
L 758.8512 132.646968 
L 764.208 131.472461 
L 767.556 130.765356 
L 770.2344 130.599289 
L 774.9216 130.468538 
L 777.6 130.675423 
L 777.6 130.675423 
" clip-path="url(#p5cfe2ac2b8)" style="fill: none; stroke: #4169e1; stroke-width: 1.5; stroke-linecap: square"/>
   </g>
   <g id="patch_3">
    <path d="M 108 256.32 
L 108 34.56 
" style="fill: none; stroke: #000000; stroke-width: 0.8; stroke-linejoin: miter; stroke-linecap: square"/>
   </g>
   <g id="patch_4">
    <path d="M 777.6 256.32 
L 777.6 34.56 
" style="fill: none; stroke: #000000; stroke-width: 0.8; stroke-linejoin: miter; stroke-linecap: square"/>
   </g>
   <g id="patch_5">
    <path d="M 108 256.32 
L 777.6 256.32 
" style="fill: none; stroke: #000000; stroke-width: 0.8; stroke-linejoin: miter; stroke-linecap: square"/>
   </g>
   <g id="patch_6">
    <path d="M 108 34.56 
L 777.6 34.56 
" style="fill: none; stroke: #000000; stroke-width: 0.8; stroke-linejoin: miter; stroke-linecap: square"/>
   </g>
   <g id="legend_1">
    <g id="patch_7">
     <path d="M 695.098438 71.91625 
L 770.6 71.91625 
Q 772.6 71.91625 772.6 69.91625 
L 772.6 41.56 
Q 772.6 39.56 770.6 39.56 
L 695.098438 39.56 
Q 693.098438 39.56 693.098438 41.56 
L 693.098438 69.91625 
Q 693.098438 71.91625 695.098438 71.91625 
z
" style="fill: #ffffff; opacity: 0.8; stroke: #cccccc; stroke-linejoin: miter"/>
    </g>
    <g id="line2d_25">
     <path d="M 697.098438 47.658437 
L 707.098438 47.658437 
L 717.098438 47.658437 
" style="fill: none; stroke: #000000; stroke-width: 1.5; stroke-linecap: square"/>
    </g>
    <g id="text_14">
     <!-- Soma -->
     <g transform="translate(725.098438 51.158437) scale(0.1 -0.1)">
      <defs>
       <path id="DejaVuSans-53" d="M 3425 4513 
L 3425 3897 
Q 3066 4069 2747 4153 
Q 2428 4238 2131 4238 
Q 1616 4238 1336 4038 
Q 1056 3838 1056 3469 
Q 1056 3159 1242 3001 
Q 1428 2844 1947 2747 
L 2328 2669 
Q 3034 2534 3370 2195 
Q 3706 1856 3706 1288 
Q 3706 609 3251 259 
Q 2797 -91 1919 -91 
Q 1588 -91 1214 -16 
Q 841 59 441 206 
L 441 856 
Q 825 641 1194 531 
Q 1563 422 1919 422 
Q 2459 422 2753 634 
Q 3047 847 3047 1241 
Q 3047 1584 2836 1778 
Q 2625 1972 2144 2069 
L 1759 2144 
Q 1053 2284 737 2584 
Q 422 2884 422 3419 
Q 422 4038 858 4394 
Q 1294 4750 2059 4750 
Q 2388 4750 2728 4690 
Q 3069 4631 3425 4513 
z
" transform="scale(0.015625)"/>
       <path id="DejaVuSans-6f" d="M 1959 3097 
Q 1497 3097 1228 2736 
Q 959 2375 959 1747 
Q 959 1119 1226 758 
Q 1494 397 1959 397 
Q 2419 397 2687 759 
Q 2956 1122 2956 1747 
Q 2956 2369 2687 2733 
Q 2419 3097 1959 3097 
z
M 1959 3584 
Q 2709 3584 3137 3096 
Q 3566 2609 3566 1747 
Q 3566 888 3137 398 
Q 2709 -91 1959 -91 
Q 1206 -91 779 398 
Q 353 888 353 1747 
Q 353 2609 779 3096 
Q 1206 3584 1959 3584 
z
" transform="scale(0.015625)"/>
       <path id="DejaVuSans-61" d="M 2194 1759 
Q 1497 1759 1228 1600 
Q 959 1441 959 1056 
Q 959 750 1161 570 
Q 1363 391 1709 391 
Q 2188 391 2477 730 
Q 2766 1069 2766 1631 
L 2766 1759 
L 2194 1759 
z
M 3341 1997 
L 3341 0 
L 2766 0 
L 2766 531 
Q 2569 213 2275 61 
Q 1981 -91 1556 -91 
Q 1019 -91 701 211 
Q 384 513 384 1019 
Q 384 1609 779 1909 
Q 1175 2209 1959 2209 
L 2766 2209 
L 2766 2266 
Q 2766 2663 2505 2880 
Q 2244 3097 1772 3097 
Q 1472 3097 1187 3025 
Q 903 2953 641 2809 
L 641 3341 
Q 956 3463 1253 3523 
Q 1550 3584 1831 3584 
Q 2591 3584 2966 3190 
Q 3341 2797 3341 1997 
z
" transform="scale(0.015625)"/>
      </defs>
      <use xlink:href="#DejaVuSans-53"/>
      <use xlink:href="#DejaVuSans-6f" x="63.476562"/>
      <use xlink:href="#DejaVuSans-6d" x="124.658203"/>
      <use xlink:href="#DejaVuSans-61" x="222.070312"/>
     </g>
    </g>
    <g id="line2d_26">
     <path d="M 697.098438 62.336562 
L 707.098438 62.336562 
L 717.098438 62.336562 
" style="fill: none; stroke: #4169e1; stroke-width: 1.5; stroke-linecap: square"/>
    </g>
    <g id="text_15">
     <!-- Dendrite -->
     <g transform="translate(725.098438 65.836562) scale(0.1 -0.1)">
      <defs>
       <path id="DejaVuSans-44" d="M 1259 4147 
L 1259 519 
L 2022 519 
Q 2988 519 3436 956 
Q 3884 1394 3884 2338 
Q 3884 3275 3436 3711 
Q 2988 4147 2022 4147 
L 1259 4147 
z
M 628 4666 
L 1925 4666 
Q 3281 4666 3915 4102 
Q 4550 3538 4550 2338 
Q 4550 1131 3912 565 
Q 3275 0 1925 0 
L 628 0 
L 628 4666 
z
" transform="scale(0.015625)"/>
       <path id="DejaVuSans-6e" d="M 3513 2113 
L 3513 0 
L 2938 0 
L 2938 2094 
Q 2938 2591 2744 2837 
Q 2550 3084 2163 3084 
Q 1697 3084 1428 2787 
Q 1159 2491 1159 1978 
L 1159 0 
L 581 0 
L 581 3500 
L 1159 3500 
L 1159 2956 
Q 1366 3272 1645 3428 
Q 1925 3584 2291 3584 
Q 2894 3584 3203 3211 
Q 3513 2838 3513 2113 
z
" transform="scale(0.015625)"/>
       <path id="DejaVuSans-64" d="M 2906 2969 
L 2906 4863 
L 3481 4863 
L 3481 0 
L 2906 0 
L 2906 525 
Q 2725 213 2448 61 
Q 2172 -91 1784 -91 
Q 1150 -91 751 415 
Q 353 922 353 1747 
Q 353 2572 751 3078 
Q 1150 3584 1784 3584 
Q 2172 3584 2448 3432 
Q 2725 3281 2906 2969 
z
M 947 1747 
Q 947 1113 1208 752 
Q 1469 391 1925 391 
Q 2381 391 2643 752 
Q 2906 1113 2906 1747 
Q 2906 2381 2643 2742 
Q 2381 3103 1925 3103 
Q 1469 3103 1208 2742 
Q 947 2381 947 1747 
z
" transform="scale(0.015625)"/>
       <path id="DejaVuSans-72" d="M 2631 2963 
Q 2534 3019 2420 3045 
Q 2306 3072 2169 3072 
Q 1681 3072 1420 2755 
Q 1159 2438 1159 1844 
L 1159 0 
L 581 0 
L 581 3500 
L 1159 3500 
L 1159 2956 
Q 1341 3275 1631 3429 
Q 1922 3584 2338 3584 
Q 2397 3584 2469 3576 
Q 2541 3569 2628 3553 
L 2631 2963 
z
" transform="scale(0.015625)"/>
       <path id="DejaVuSans-74" d="M 1172 4494 
L 1172 3500 
L 2356 3500 
L 2356 3053 
L 1172 3053 
L 1172 1153 
Q 1172 725 1289 603 
Q 1406 481 1766 481 
L 2356 481 
L 2356 0 
L 1766 0 
Q 1100 0 847 248 
Q 594 497 594 1153 
L 594 3053 
L 172 3053 
L 172 3500 
L 594 3500 
L 594 4494 
L 1172 4494 
z
" transform="scale(0.015625)"/>
      </defs>
      <use xlink:href="#DejaVuSans-44"/>
      <use xlink:href="#DejaVuSans-65" x="77.001953"/>
      <use xlink:href="#DejaVuSans-6e" x="138.525391"/>
      <use xlink:href="#DejaVuSans-64" x="201.904297"/>
      <use xlink:href="#DejaVuSans-72" x="265.380859"/>
      <use xlink:href="#DejaVuSans-69" x="306.494141"/>
      <use xlink:href="#DejaVuSans-74" x="334.277344"/>
      <use xlink:href="#DejaVuSans-65" x="373.486328"/>
     </g>
    </g>
   </g>
  </g>
 </g>
 <defs>
  <clipPath id="p5cfe2ac2b8">
   <rect x="108" y="34.56" width="669.6" height="221.76"/>
  </clipPath>
 </defs>
</svg>
