<?xml version="1.0" encoding="utf-8" standalone="no"?>
<!DOCTYPE svg PUBLIC "-//W3C//DTD SVG 1.1//EN"
  "http://www.w3.org/Graphics/SVG/1.1/DTD/svg11.dtd">
<svg xmlns:xlink="http://www.w3.org/1999/xlink" width="864pt" height="288pt" viewBox="0 0 864 288" xmlns="http://www.w3.org/2000/svg" version="1.1">
 <metadata>
  <rdf:RDF xmlns:dc="http://purl.org/dc/elements/1.1/" xmlns:cc="http://creativecommons.org/ns#" xmlns:rdf="http://www.w3.org/1999/02/22-rdf-syntax-ns#">
   <cc:Work>
    <dc:type rdf:resource="http://purl.org/dc/dcmitype/StillImage"/>
    <dc:date>2024-04-23T19:18:26.069046</dc:date>
    <dc:format>image/svg+xml</dc:format>
    <dc:creator>
     <cc:Agent>
      <dc:title>Matplotlib v3.8.2, https://matplotlib.org/</dc:title>
     </cc:Agent>
    </dc:creator>
   </cc:Work>
  </rdf:RDF>
 </metadata>
 <defs>
  <style type="text/css">*{stroke-linejoin: round; stroke-linecap: butt}</style>
 </defs>
 <g id="figure_1">
  <g id="patch_1">
   <path d="M 0 288 
L 864 288 
L 864 0 
L 0 0 
z
" style="fill: #ffffff"/>
  </g>
  <g id="axes_1">
   <g id="patch_2">
    <path d="M 108 256.32 
L 777.6 256.32 
L 777.6 34.56 
L 108 34.56 
z
" style="fill: #ffffff"/>
   </g>
   <g id="matplotlib.axis_1">
    <g id="xtick_1">
     <g id="line2d_1">
      <path d="M 108 256.32 
L 108 34.56 
" clip-path="url(#p00f7887bce)" style="fill: none; stroke: #b0b0b0; stroke-width: 0.8; stroke-linecap: square"/>
     </g>
     <g id="line2d_2">
      <defs>
       <path id="m597431aae5" d="M 0 0 
L 0 3.5 
" style="stroke: #000000; stroke-width: 0.8"/>
      </defs>
      <g>
       <use xlink:href="#m597431aae5" x="108" y="256.32" style="stroke: #000000; stroke-width: 0.8"/>
      </g>
     </g>
     <g id="text_1">
      <!-- 100 -->
      <g transform="translate(94.63875 273.957812) scale(0.14 -0.14)">
       <defs>
        <path id="DejaVuSans-31" d="M 794 531 
L 1825 531 
L 1825 4091 
L 703 3866 
L 703 4441 
L 1819 4666 
L 2450 4666 
L 2450 531 
L 3481 531 
L 3481 0 
L 794 0 
L 794 531 
z
" transform="scale(0.015625)"/>
        <path id="DejaVuSans-30" d="M 2034 4250 
Q 1547 4250 1301 3770 
Q 1056 3291 1056 2328 
Q 1056 1369 1301 889 
Q 1547 409 2034 409 
Q 2525 409 2770 889 
Q 3016 1369 3016 2328 
Q 3016 3291 2770 3770 
Q 2525 4250 2034 4250 
z
M 2034 4750 
Q 2819 4750 3233 4129 
Q 3647 3509 3647 2328 
Q 3647 1150 3233 529 
Q 2819 -91 2034 -91 
Q 1250 -91 836 529 
Q 422 1150 422 2328 
Q 422 3509 836 4129 
Q 1250 4750 2034 4750 
z
" transform="scale(0.015625)"/>
       </defs>
       <use xlink:href="#DejaVuSans-31"/>
       <use xlink:href="#DejaVuSans-30" x="63.623047"/>
       <use xlink:href="#DejaVuSans-30" x="127.246094"/>
      </g>
     </g>
    </g>
    <g id="xtick_2">
     <g id="line2d_3">
      <path d="M 241.92 256.32 
L 241.92 34.56 
" clip-path="url(#p00f7887bce)" style="fill: none; stroke: #b0b0b0; stroke-width: 0.8; stroke-linecap: square"/>
     </g>
     <g id="line2d_4">
      <g>
       <use xlink:href="#m597431aae5" x="241.92" y="256.32" style="stroke: #000000; stroke-width: 0.8"/>
      </g>
     </g>
     <g id="text_2">
      <!-- 120 -->
      <g transform="translate(228.55875 273.957812) scale(0.14 -0.14)">
       <defs>
        <path id="DejaVuSans-32" d="M 1228 531 
L 3431 531 
L 3431 0 
L 469 0 
L 469 531 
Q 828 903 1448 1529 
Q 2069 2156 2228 2338 
Q 2531 2678 2651 2914 
Q 2772 3150 2772 3378 
Q 2772 3750 2511 3984 
Q 2250 4219 1831 4219 
Q 1534 4219 1204 4116 
Q 875 4013 500 3803 
L 500 4441 
Q 881 4594 1212 4672 
Q 1544 4750 1819 4750 
Q 2544 4750 2975 4387 
Q 3406 4025 3406 3419 
Q 3406 3131 3298 2873 
Q 3191 2616 2906 2266 
Q 2828 2175 2409 1742 
Q 1991 1309 1228 531 
z
" transform="scale(0.015625)"/>
       </defs>
       <use xlink:href="#DejaVuSans-31"/>
       <use xlink:href="#DejaVuSans-32" x="63.623047"/>
       <use xlink:href="#DejaVuSans-30" x="127.246094"/>
      </g>
     </g>
    </g>
    <g id="xtick_3">
     <g id="line2d_5">
      <path d="M 375.84 256.32 
L 375.84 34.56 
" clip-path="url(#p00f7887bce)" style="fill: none; stroke: #b0b0b0; stroke-width: 0.8; stroke-linecap: square"/>
     </g>
     <g id="line2d_6">
      <g>
       <use xlink:href="#m597431aae5" x="375.84" y="256.32" style="stroke: #000000; stroke-width: 0.8"/>
      </g>
     </g>
     <g id="text_3">
      <!-- 140 -->
      <g transform="translate(362.47875 273.957812) scale(0.14 -0.14)">
       <defs>
        <path id="DejaVuSans-34" d="M 2419 4116 
L 825 1625 
L 2419 1625 
L 2419 4116 
z
M 2253 4666 
L 3047 4666 
L 3047 1625 
L 3713 1625 
L 3713 1100 
L 3047 1100 
L 3047 0 
L 2419 0 
L 2419 1100 
L 313 1100 
L 313 1709 
L 2253 4666 
z
" transform="scale(0.015625)"/>
       </defs>
       <use xlink:href="#DejaVuSans-31"/>
       <use xlink:href="#DejaVuSans-34" x="63.623047"/>
       <use xlink:href="#DejaVuSans-30" x="127.246094"/>
      </g>
     </g>
    </g>
    <g id="xtick_4">
     <g id="line2d_7">
      <path d="M 509.76 256.32 
L 509.76 34.56 
" clip-path="url(#p00f7887bce)" style="fill: none; stroke: #b0b0b0; stroke-width: 0.8; stroke-linecap: square"/>
     </g>
     <g id="line2d_8">
      <g>
       <use xlink:href="#m597431aae5" x="509.76" y="256.32" style="stroke: #000000; stroke-width: 0.8"/>
      </g>
     </g>
     <g id="text_4">
      <!-- 160 -->
      <g transform="translate(496.39875 273.957812) scale(0.14 -0.14)">
       <defs>
        <path id="DejaVuSans-36" d="M 2113 2584 
Q 1688 2584 1439 2293 
Q 1191 2003 1191 1497 
Q 1191 994 1439 701 
Q 1688 409 2113 409 
Q 2538 409 2786 701 
Q 3034 994 3034 1497 
Q 3034 2003 2786 2293 
Q 2538 2584 2113 2584 
z
M 3366 4563 
L 3366 3988 
Q 3128 4100 2886 4159 
Q 2644 4219 2406 4219 
Q 1781 4219 1451 3797 
Q 1122 3375 1075 2522 
Q 1259 2794 1537 2939 
Q 1816 3084 2150 3084 
Q 2853 3084 3261 2657 
Q 3669 2231 3669 1497 
Q 3669 778 3244 343 
Q 2819 -91 2113 -91 
Q 1303 -91 875 529 
Q 447 1150 447 2328 
Q 447 3434 972 4092 
Q 1497 4750 2381 4750 
Q 2619 4750 2861 4703 
Q 3103 4656 3366 4563 
z
" transform="scale(0.015625)"/>
       </defs>
       <use xlink:href="#DejaVuSans-31"/>
       <use xlink:href="#DejaVuSans-36" x="63.623047"/>
       <use xlink:href="#DejaVuSans-30" x="127.246094"/>
      </g>
     </g>
    </g>
    <g id="xtick_5">
     <g id="line2d_9">
      <path d="M 643.68 256.32 
L 643.68 34.56 
" clip-path="url(#p00f7887bce)" style="fill: none; stroke: #b0b0b0; stroke-width: 0.8; stroke-linecap: square"/>
     </g>
     <g id="line2d_10">
      <g>
       <use xlink:href="#m597431aae5" x="643.68" y="256.32" style="stroke: #000000; stroke-width: 0.8"/>
      </g>
     </g>
     <g id="text_5">
      <!-- 180 -->
      <g transform="translate(630.31875 273.957812) scale(0.14 -0.14)">
       <defs>
        <path id="DejaVuSans-38" d="M 2034 2216 
Q 1584 2216 1326 1975 
Q 1069 1734 1069 1313 
Q 1069 891 1326 650 
Q 1584 409 2034 409 
Q 2484 409 2743 651 
Q 3003 894 3003 1313 
Q 3003 1734 2745 1975 
Q 2488 2216 2034 2216 
z
M 1403 2484 
Q 997 2584 770 2862 
Q 544 3141 544 3541 
Q 544 4100 942 4425 
Q 1341 4750 2034 4750 
Q 2731 4750 3128 4425 
Q 3525 4100 3525 3541 
Q 3525 3141 3298 2862 
Q 3072 2584 2669 2484 
Q 3125 2378 3379 2068 
Q 3634 1759 3634 1313 
Q 3634 634 3220 271 
Q 2806 -91 2034 -91 
Q 1263 -91 848 271 
Q 434 634 434 1313 
Q 434 1759 690 2068 
Q 947 2378 1403 2484 
z
M 1172 3481 
Q 1172 3119 1398 2916 
Q 1625 2713 2034 2713 
Q 2441 2713 2670 2916 
Q 2900 3119 2900 3481 
Q 2900 3844 2670 4047 
Q 2441 4250 2034 4250 
Q 1625 4250 1398 4047 
Q 1172 3844 1172 3481 
z
" transform="scale(0.015625)"/>
       </defs>
       <use xlink:href="#DejaVuSans-31"/>
       <use xlink:href="#DejaVuSans-38" x="63.623047"/>
       <use xlink:href="#DejaVuSans-30" x="127.246094"/>
      </g>
     </g>
    </g>
    <g id="xtick_6">
     <g id="line2d_11">
      <path d="M 777.6 256.32 
L 777.6 34.56 
" clip-path="url(#p00f7887bce)" style="fill: none; stroke: #b0b0b0; stroke-width: 0.8; stroke-linecap: square"/>
     </g>
     <g id="line2d_12">
      <g>
       <use xlink:href="#m597431aae5" x="777.6" y="256.32" style="stroke: #000000; stroke-width: 0.8"/>
      </g>
     </g>
     <g id="text_6">
      <!-- 200 -->
      <g transform="translate(764.23875 273.957812) scale(0.14 -0.14)">
       <use xlink:href="#DejaVuSans-32"/>
       <use xlink:href="#DejaVuSans-30" x="63.623047"/>
       <use xlink:href="#DejaVuSans-30" x="127.246094"/>
      </g>
     </g>
    </g>
    <g id="text_7">
     <!-- Time (ms) -->
     <g transform="translate(407.521094 291.507187) scale(0.14 -0.14)">
      <defs>
       <path id="DejaVuSans-54" d="M -19 4666 
L 3928 4666 
L 3928 4134 
L 2272 4134 
L 2272 0 
L 1638 0 
L 1638 4134 
L -19 4134 
L -19 4666 
z
" transform="scale(0.015625)"/>
       <path id="DejaVuSans-69" d="M 603 3500 
L 1178 3500 
L 1178 0 
L 603 0 
L 603 3500 
z
M 603 4863 
L 1178 4863 
L 1178 4134 
L 603 4134 
L 603 4863 
z
" transform="scale(0.015625)"/>
       <path id="DejaVuSans-6d" d="M 3328 2828 
Q 3544 3216 3844 3400 
Q 4144 3584 4550 3584 
Q 5097 3584 5394 3201 
Q 5691 2819 5691 2113 
L 5691 0 
L 5113 0 
L 5113 2094 
Q 5113 2597 4934 2840 
Q 4756 3084 4391 3084 
Q 3944 3084 3684 2787 
Q 3425 2491 3425 1978 
L 3425 0 
L 2847 0 
L 2847 2094 
Q 2847 2600 2669 2842 
Q 2491 3084 2119 3084 
Q 1678 3084 1418 2786 
Q 1159 2488 1159 1978 
L 1159 0 
L 581 0 
L 581 3500 
L 1159 3500 
L 1159 2956 
Q 1356 3278 1631 3431 
Q 1906 3584 2284 3584 
Q 2666 3584 2933 3390 
Q 3200 3197 3328 2828 
z
" transform="scale(0.015625)"/>
       <path id="DejaVuSans-65" d="M 3597 1894 
L 3597 1613 
L 953 1613 
Q 991 1019 1311 708 
Q 1631 397 2203 397 
Q 2534 397 2845 478 
Q 3156 559 3463 722 
L 3463 178 
Q 3153 47 2828 -22 
Q 2503 -91 2169 -91 
Q 1331 -91 842 396 
Q 353 884 353 1716 
Q 353 2575 817 3079 
Q 1281 3584 2069 3584 
Q 2775 3584 3186 3129 
Q 3597 2675 3597 1894 
z
M 3022 2063 
Q 3016 2534 2758 2815 
Q 2500 3097 2075 3097 
Q 1594 3097 1305 2825 
Q 1016 2553 972 2059 
L 3022 2063 
z
" transform="scale(0.015625)"/>
       <path id="DejaVuSans-20" transform="scale(0.015625)"/>
       <path id="DejaVuSans-28" d="M 1984 4856 
Q 1566 4138 1362 3434 
Q 1159 2731 1159 2009 
Q 1159 1288 1364 580 
Q 1569 -128 1984 -844 
L 1484 -844 
Q 1016 -109 783 600 
Q 550 1309 550 2009 
Q 550 2706 781 3412 
Q 1013 4119 1484 4856 
L 1984 4856 
z
" transform="scale(0.015625)"/>
       <path id="DejaVuSans-73" d="M 2834 3397 
L 2834 2853 
Q 2591 2978 2328 3040 
Q 2066 3103 1784 3103 
Q 1356 3103 1142 2972 
Q 928 2841 928 2578 
Q 928 2378 1081 2264 
Q 1234 2150 1697 2047 
L 1894 2003 
Q 2506 1872 2764 1633 
Q 3022 1394 3022 966 
Q 3022 478 2636 193 
Q 2250 -91 1575 -91 
Q 1294 -91 989 -36 
Q 684 19 347 128 
L 347 722 
Q 666 556 975 473 
Q 1284 391 1588 391 
Q 1994 391 2212 530 
Q 2431 669 2431 922 
Q 2431 1156 2273 1281 
Q 2116 1406 1581 1522 
L 1381 1569 
Q 847 1681 609 1914 
Q 372 2147 372 2553 
Q 372 3047 722 3315 
Q 1072 3584 1716 3584 
Q 2034 3584 2315 3537 
Q 2597 3491 2834 3397 
z
" transform="scale(0.015625)"/>
       <path id="DejaVuSans-29" d="M 513 4856 
L 1013 4856 
Q 1481 4119 1714 3412 
Q 1947 2706 1947 2009 
Q 1947 1309 1714 600 
Q 1481 -109 1013 -844 
L 513 -844 
Q 928 -128 1133 580 
Q 1338 1288 1338 2009 
Q 1338 2731 1133 3434 
Q 928 4138 513 4856 
z
" transform="scale(0.015625)"/>
      </defs>
      <use xlink:href="#DejaVuSans-54"/>
      <use xlink:href="#DejaVuSans-69" x="57.958984"/>
      <use xlink:href="#DejaVuSans-6d" x="85.742188"/>
      <use xlink:href="#DejaVuSans-65" x="183.154297"/>
      <use xlink:href="#DejaVuSans-20" x="244.677734"/>
      <use xlink:href="#DejaVuSans-28" x="276.464844"/>
      <use xlink:href="#DejaVuSans-6d" x="315.478516"/>
      <use xlink:href="#DejaVuSans-73" x="412.890625"/>
      <use xlink:href="#DejaVuSans-29" x="464.990234"/>
     </g>
    </g>
   </g>
   <g id="matplotlib.axis_2">
    <g id="ytick_1">
     <g id="line2d_13">
      <path d="M 108 246.24 
L 777.6 246.24 
" clip-path="url(#p00f7887bce)" style="fill: none; stroke: #b0b0b0; stroke-width: 0.8; stroke-linecap: square"/>
     </g>
     <g id="line2d_14">
      <defs>
       <path id="me4ccf2c2eb" d="M 0 0 
L -3.5 0 
" style="stroke: #000000; stroke-width: 0.8"/>
      </defs>
      <g>
       <use xlink:href="#me4ccf2c2eb" x="108" y="246.24" style="stroke: #000000; stroke-width: 0.8"/>
      </g>
     </g>
     <g id="text_8">
      <!-- 0.00 -->
      <g transform="translate(69.828125 251.558906) scale(0.14 -0.14)">
       <defs>
        <path id="DejaVuSans-2e" d="M 684 794 
L 1344 794 
L 1344 0 
L 684 0 
L 684 794 
z
" transform="scale(0.015625)"/>
       </defs>
       <use xlink:href="#DejaVuSans-30"/>
       <use xlink:href="#DejaVuSans-2e" x="63.623047"/>
       <use xlink:href="#DejaVuSans-30" x="95.410156"/>
       <use xlink:href="#DejaVuSans-30" x="159.033203"/>
      </g>
     </g>
    </g>
    <g id="ytick_2">
     <g id="line2d_15">
      <path d="M 108 210.684783 
L 777.6 210.684783 
" clip-path="url(#p00f7887bce)" style="fill: none; stroke: #b0b0b0; stroke-width: 0.8; stroke-linecap: square"/>
     </g>
     <g id="line2d_16">
      <g>
       <use xlink:href="#me4ccf2c2eb" x="108" y="210.684783" style="stroke: #000000; stroke-width: 0.8"/>
      </g>
     </g>
     <g id="text_9">
      <!-- 0.05 -->
      <g transform="translate(69.828125 216.00369) scale(0.14 -0.14)">
       <defs>
        <path id="DejaVuSans-35" d="M 691 4666 
L 3169 4666 
L 3169 4134 
L 1269 4134 
L 1269 2991 
Q 1406 3038 1543 3061 
Q 1681 3084 1819 3084 
Q 2600 3084 3056 2656 
Q 3513 2228 3513 1497 
Q 3513 744 3044 326 
Q 2575 -91 1722 -91 
Q 1428 -91 1123 -41 
Q 819 9 494 109 
L 494 744 
Q 775 591 1075 516 
Q 1375 441 1709 441 
Q 2250 441 2565 725 
Q 2881 1009 2881 1497 
Q 2881 1984 2565 2268 
Q 2250 2553 1709 2553 
Q 1456 2553 1204 2497 
Q 953 2441 691 2322 
L 691 4666 
z
" transform="scale(0.015625)"/>
       </defs>
       <use xlink:href="#DejaVuSans-30"/>
       <use xlink:href="#DejaVuSans-2e" x="63.623047"/>
       <use xlink:href="#DejaVuSans-30" x="95.410156"/>
       <use xlink:href="#DejaVuSans-35" x="159.033203"/>
      </g>
     </g>
    </g>
    <g id="ytick_3">
     <g id="line2d_17">
      <path d="M 108 175.129567 
L 777.6 175.129567 
" clip-path="url(#p00f7887bce)" style="fill: none; stroke: #b0b0b0; stroke-width: 0.8; stroke-linecap: square"/>
     </g>
     <g id="line2d_18">
      <g>
       <use xlink:href="#me4ccf2c2eb" x="108" y="175.129567" style="stroke: #000000; stroke-width: 0.8"/>
      </g>
     </g>
     <g id="text_10">
      <!-- 0.10 -->
      <g transform="translate(69.828125 180.448473) scale(0.14 -0.14)">
       <use xlink:href="#DejaVuSans-30"/>
       <use xlink:href="#DejaVuSans-2e" x="63.623047"/>
       <use xlink:href="#DejaVuSans-31" x="95.410156"/>
       <use xlink:href="#DejaVuSans-30" x="159.033203"/>
      </g>
     </g>
    </g>
    <g id="ytick_4">
     <g id="line2d_19">
      <path d="M 108 139.57435 
L 777.6 139.57435 
" clip-path="url(#p00f7887bce)" style="fill: none; stroke: #b0b0b0; stroke-width: 0.8; stroke-linecap: square"/>
     </g>
     <g id="line2d_20">
      <g>
       <use xlink:href="#me4ccf2c2eb" x="108" y="139.57435" style="stroke: #000000; stroke-width: 0.8"/>
      </g>
     </g>
     <g id="text_11">
      <!-- 0.15 -->
      <g transform="translate(69.828125 144.893256) scale(0.14 -0.14)">
       <use xlink:href="#DejaVuSans-30"/>
       <use xlink:href="#DejaVuSans-2e" x="63.623047"/>
       <use xlink:href="#DejaVuSans-31" x="95.410156"/>
       <use xlink:href="#DejaVuSans-35" x="159.033203"/>
      </g>
     </g>
    </g>
    <g id="ytick_5">
     <g id="line2d_21">
      <path d="M 108 104.019133 
L 777.6 104.019133 
" clip-path="url(#p00f7887bce)" style="fill: none; stroke: #b0b0b0; stroke-width: 0.8; stroke-linecap: square"/>
     </g>
     <g id="line2d_22">
      <g>
       <use xlink:href="#me4ccf2c2eb" x="108" y="104.019133" style="stroke: #000000; stroke-width: 0.8"/>
      </g>
     </g>
     <g id="text_12">
      <!-- 0.20 -->
      <g transform="translate(69.828125 109.33804) scale(0.14 -0.14)">
       <use xlink:href="#DejaVuSans-30"/>
       <use xlink:href="#DejaVuSans-2e" x="63.623047"/>
       <use xlink:href="#DejaVuSans-32" x="95.410156"/>
       <use xlink:href="#DejaVuSans-30" x="159.033203"/>
      </g>
     </g>
    </g>
    <g id="ytick_6">
     <g id="line2d_23">
      <path d="M 108 68.463917 
L 777.6 68.463917 
" clip-path="url(#p00f7887bce)" style="fill: none; stroke: #b0b0b0; stroke-width: 0.8; stroke-linecap: square"/>
     </g>
     <g id="line2d_24">
      <g>
       <use xlink:href="#me4ccf2c2eb" x="108" y="68.463917" style="stroke: #000000; stroke-width: 0.8"/>
      </g>
     </g>
     <g id="text_13">
      <!-- 0.25 -->
      <g transform="translate(69.828125 73.782823) scale(0.14 -0.14)">
       <use xlink:href="#DejaVuSans-30"/>
       <use xlink:href="#DejaVuSans-2e" x="63.623047"/>
       <use xlink:href="#DejaVuSans-32" x="95.410156"/>
       <use xlink:href="#DejaVuSans-35" x="159.033203"/>
      </g>
     </g>
    </g>
    <g id="text_14">
     <!-- $g_{Inhib}$ (µS) -->
     <g transform="translate(62.888125 178.83) rotate(-90) scale(0.14 -0.14)">
      <defs>
       <path id="DejaVuSans-Oblique-67" d="M 3816 3500 
L 3219 434 
Q 3047 -456 2561 -893 
Q 2075 -1331 1253 -1331 
Q 950 -1331 690 -1286 
Q 431 -1241 206 -1147 
L 313 -588 
Q 525 -725 762 -790 
Q 1000 -856 1269 -856 
Q 1816 -856 2167 -557 
Q 2519 -259 2631 300 
L 2681 563 
Q 2441 288 2122 144 
Q 1803 0 1434 0 
Q 903 0 598 351 
Q 294 703 294 1319 
Q 294 1803 478 2267 
Q 663 2731 997 3091 
Q 1219 3328 1514 3456 
Q 1809 3584 2131 3584 
Q 2484 3584 2746 3420 
Q 3009 3256 3138 2956 
L 3238 3500 
L 3816 3500 
z
M 2950 2216 
Q 2950 2641 2750 2872 
Q 2550 3103 2181 3103 
Q 1953 3103 1747 3012 
Q 1541 2922 1394 2759 
Q 1156 2491 1023 2127 
Q 891 1763 891 1375 
Q 891 944 1092 712 
Q 1294 481 1672 481 
Q 2219 481 2584 976 
Q 2950 1472 2950 2216 
z
" transform="scale(0.015625)"/>
       <path id="DejaVuSans-Oblique-49" d="M 1081 4666 
L 1716 4666 
L 806 0 
L 172 0 
L 1081 4666 
z
" transform="scale(0.015625)"/>
       <path id="DejaVuSans-Oblique-6e" d="M 3566 2113 
L 3156 0 
L 2578 0 
L 2988 2091 
Q 3016 2238 3031 2350 
Q 3047 2463 3047 2528 
Q 3047 2791 2881 2937 
Q 2716 3084 2419 3084 
Q 1956 3084 1622 2776 
Q 1288 2469 1184 1941 
L 800 0 
L 225 0 
L 903 3500 
L 1478 3500 
L 1363 2950 
Q 1603 3253 1940 3418 
Q 2278 3584 2650 3584 
Q 3113 3584 3367 3334 
Q 3622 3084 3622 2631 
Q 3622 2519 3608 2391 
Q 3594 2263 3566 2113 
z
" transform="scale(0.015625)"/>
       <path id="DejaVuSans-Oblique-68" d="M 3566 2113 
L 3156 0 
L 2578 0 
L 2988 2091 
Q 3016 2238 3031 2350 
Q 3047 2463 3047 2528 
Q 3047 2791 2881 2937 
Q 2716 3084 2419 3084 
Q 1956 3084 1617 2771 
Q 1278 2459 1178 1941 
L 800 0 
L 225 0 
L 1172 4863 
L 1747 4863 
L 1375 2950 
Q 1594 3244 1934 3414 
Q 2275 3584 2650 3584 
Q 3113 3584 3367 3334 
Q 3622 3084 3622 2631 
Q 3622 2519 3608 2391 
Q 3594 2263 3566 2113 
z
" transform="scale(0.015625)"/>
       <path id="DejaVuSans-Oblique-69" d="M 1172 4863 
L 1747 4863 
L 1606 4134 
L 1031 4134 
L 1172 4863 
z
M 909 3500 
L 1484 3500 
L 800 0 
L 225 0 
L 909 3500 
z
" transform="scale(0.015625)"/>
       <path id="DejaVuSans-Oblique-62" d="M 3169 2138 
Q 3169 2591 2961 2847 
Q 2753 3103 2388 3103 
Q 2122 3103 1889 2973 
Q 1656 2844 1484 2597 
Q 1303 2338 1198 1995 
Q 1094 1653 1094 1313 
Q 1094 881 1298 636 
Q 1503 391 1863 391 
Q 2134 391 2365 517 
Q 2597 644 2772 891 
Q 2950 1147 3059 1487 
Q 3169 1828 3169 2138 
z
M 1381 2969 
Q 1594 3256 1914 3420 
Q 2234 3584 2584 3584 
Q 3122 3584 3439 3221 
Q 3756 2859 3756 2241 
Q 3756 1734 3570 1259 
Q 3384 784 3041 416 
Q 2816 172 2522 40 
Q 2228 -91 1906 -91 
Q 1566 -91 1316 65 
Q 1066 222 909 531 
L 806 0 
L 231 0 
L 1178 4863 
L 1753 4863 
L 1381 2969 
z
" transform="scale(0.015625)"/>
       <path id="DejaVuSans-b5" d="M 544 -1331 
L 544 3500 
L 1119 3500 
L 1119 1325 
Q 1119 872 1334 640 
Q 1550 409 1972 409 
Q 2434 409 2667 671 
Q 2900 934 2900 1459 
L 2900 3500 
L 3475 3500 
L 3475 806 
Q 3475 619 3529 530 
Q 3584 441 3700 441 
Q 3728 441 3778 458 
Q 3828 475 3916 513 
L 3916 50 
Q 3788 -22 3673 -56 
Q 3559 -91 3450 -91 
Q 3234 -91 3106 31 
Q 2978 153 2931 403 
Q 2775 156 2548 32 
Q 2322 -91 2016 -91 
Q 1697 -91 1473 31 
Q 1250 153 1119 397 
L 1119 -1331 
L 544 -1331 
z
" transform="scale(0.015625)"/>
       <path id="DejaVuSans-53" d="M 3425 4513 
L 3425 3897 
Q 3066 4069 2747 4153 
Q 2428 4238 2131 4238 
Q 1616 4238 1336 4038 
Q 1056 3838 1056 3469 
Q 1056 3159 1242 3001 
Q 1428 2844 1947 2747 
L 2328 2669 
Q 3034 2534 3370 2195 
Q 3706 1856 3706 1288 
Q 3706 609 3251 259 
Q 2797 -91 1919 -91 
Q 1588 -91 1214 -16 
Q 841 59 441 206 
L 441 856 
Q 825 641 1194 531 
Q 1563 422 1919 422 
Q 2459 422 2753 634 
Q 3047 847 3047 1241 
Q 3047 1584 2836 1778 
Q 2625 1972 2144 2069 
L 1759 2144 
Q 1053 2284 737 2584 
Q 422 2884 422 3419 
Q 422 4038 858 4394 
Q 1294 4750 2059 4750 
Q 2388 4750 2728 4690 
Q 3069 4631 3425 4513 
z
" transform="scale(0.015625)"/>
      </defs>
      <use xlink:href="#DejaVuSans-Oblique-67" transform="translate(0 0.125)"/>
      <use xlink:href="#DejaVuSans-Oblique-49" transform="translate(63.476562 -16.28125) scale(0.7)"/>
      <use xlink:href="#DejaVuSans-Oblique-6e" transform="translate(84.121094 -16.28125) scale(0.7)"/>
      <use xlink:href="#DejaVuSans-Oblique-68" transform="translate(128.486328 -16.28125) scale(0.7)"/>
      <use xlink:href="#DejaVuSans-Oblique-69" transform="translate(172.851562 -16.28125) scale(0.7)"/>
      <use xlink:href="#DejaVuSans-Oblique-62" transform="translate(192.299805 -16.28125) scale(0.7)"/>
      <use xlink:href="#DejaVuSans-20" transform="translate(239.467773 0.125)"/>
      <use xlink:href="#DejaVuSans-28" transform="translate(271.254883 0.125)"/>
      <use xlink:href="#DejaVuSans-b5" transform="translate(310.268555 0.125)"/>
      <use xlink:href="#DejaVuSans-53" transform="translate(373.891602 0.125)"/>
      <use xlink:href="#DejaVuSans-29" transform="translate(437.368164 0.125)"/>
     </g>
    </g>
   </g>
   <g id="line2d_25">
    <path d="M 108 105.849052 
L 110.0088 112.508907 
L 110.6784 107.960778 
L 112.0176 93.913194 
L 112.6872 93.682672 
L 114.696 100.777774 
L 115.3656 96.418159 
L 116.0352 89.596839 
L 116.7048 89.43568 
L 118.044 94.2905 
L 118.7136 90.035131 
L 119.3832 90.013503 
L 126.0792 113.251861 
L 128.7576 121.596216 
L 129.4272 116.902059 
L 130.0968 116.448692 
L 133.4448 126.409898 
L 134.1144 114.941269 
L 134.784 111.987651 
L 136.1232 115.979278 
L 136.7928 111.375383 
L 137.4624 111.010827 
L 138.132 113.037316 
L 138.8016 108.480696 
L 139.4712 101.465538 
L 140.1408 101.113655 
L 146.8368 122.691888 
L 150.1848 132.304711 
L 153.5328 141.169595 
L 156.8808 149.344735 
L 160.2288 156.883798 
L 163.5768 163.836274 
L 166.9248 170.247804 
L 170.2728 176.160476 
L 173.6208 181.613105 
L 176.9688 186.641485 
L 180.3168 191.278626 
L 183.6648 195.554967 
L 187.0128 199.498583 
L 190.3608 203.13536 
L 193.7088 206.489173 
L 197.7264 210.171113 
L 198.396 210.750721 
L 199.0656 204.623897 
L 199.7352 202.760886 
L 201.0744 204.002814 
L 201.744 204.681544 
L 202.4136 198.652248 
L 203.0832 196.885198 
L 204.4224 198.314447 
L 207.7704 202.043358 
L 211.1184 205.482135 
L 214.4664 208.653354 
L 215.136 202.560234 
L 215.8056 200.730385 
L 216.4752 201.315127 
L 217.1448 195.339928 
L 217.8144 193.626105 
L 219.1536 195.159257 
L 220.4928 196.787749 
L 221.1624 184.188184 
L 221.832 180.121804 
L 222.5016 180.891141 
L 223.1712 181.941264 
L 223.8408 176.277393 
L 224.5104 174.869895 
L 225.8496 177.001009 
L 228.528 181.345416 
L 229.1976 175.69112 
L 229.8672 167.595926 
L 230.5368 166.181361 
L 231.2064 160.62417 
L 231.876 159.468211 
L 233.8848 163.442584 
L 234.5544 158.075977 
L 235.224 156.960967 
L 235.8936 144.854824 
L 236.5632 141.420511 
L 237.2328 142.811758 
L 238.572 146.109127 
L 239.2416 134.323942 
L 239.9112 131.058854 
L 241.2504 134.442477 
L 242.5896 138.006666 
L 243.2592 133.048801 
L 243.9288 118.941728 
L 244.5984 115.77725 
L 245.9376 119.648063 
L 249.2856 129.497714 
L 249.9552 131.373703 
L 250.6248 126.522426 
L 251.2944 119.217347 
L 251.964 118.580201 
L 256.6512 132.133168 
L 257.3208 127.269687 
L 257.9904 126.649718 
L 258.66 128.424899 
L 259.3296 123.621008 
L 259.9992 123.059672 
L 264.6864 136.13241 
L 265.356 131.204664 
L 266.0256 130.521462 
L 266.6952 125.537307 
L 267.3648 124.945176 
L 268.0344 126.747748 
L 269.3736 89.799233 
L 270.0432 86.809913 
L 271.3824 91.604225 
L 274.7304 103.635864 
L 278.0784 114.731365 
L 281.4264 124.963567 
L 283.4352 130.716669 
L 284.1048 125.875951 
L 284.7744 125.278379 
L 292.14 144.89768 
L 295.488 152.782752 
L 298.836 160.054316 
L 302.184 166.760106 
L 305.532 172.944143 
L 308.88 178.647023 
L 312.228 183.906183 
L 315.576 188.756147 
L 318.924 193.228754 
L 322.272 197.353363 
L 325.62 201.157052 
L 328.2984 203.985786 
L 328.968 197.967671 
L 329.6376 196.211622 
L 330.9768 197.662345 
L 334.3248 201.441993 
L 337.6728 204.927561 
L 341.0208 208.141929 
L 345.0384 211.670781 
L 349.056 214.872772 
L 353.0736 217.778177 
L 353.7432 218.235544 
L 354.4128 205.291324 
L 355.0824 200.885827 
L 355.752 201.321497 
L 356.4216 202.043315 
L 357.0912 196.056414 
L 357.7608 194.331078 
L 358.4304 195.018654 
L 359.1 189.144636 
L 359.7696 187.530368 
L 360.4392 181.630109 
L 361.1088 180.136597 
L 362.448 182.099804 
L 364.4568 185.142481 
L 365.1264 179.427168 
L 365.796 177.969056 
L 366.4656 172.222442 
L 367.1352 170.880106 
L 367.8048 171.944526 
L 368.4744 166.441298 
L 369.144 165.191862 
L 370.4832 167.631518 
L 373.8312 173.747754 
L 374.5008 168.215548 
L 375.84 152.246997 
L 376.5096 151.079082 
L 377.1792 152.461695 
L 377.8488 147.271545 
L 379.188 131.970704 
L 379.8576 131.128619 
L 380.5272 132.831825 
L 381.1968 127.957118 
L 381.8664 127.326102 
L 382.536 108.999058 
L 383.2056 103.609168 
L 383.8752 105.46145 
L 384.5448 101.02657 
L 385.2144 87.434078 
L 385.884 84.775912 
L 386.5536 87.077409 
L 387.2232 82.937952 
L 387.8928 83.030371 
L 391.9104 98.012573 
L 392.58 93.697393 
L 393.2496 86.919795 
L 393.9192 86.801654 
L 394.5888 89.217172 
L 395.2584 85.04333 
L 395.928 85.101917 
L 396.5976 87.544749 
L 397.2672 83.397782 
L 397.9368 83.482812 
L 400.6152 93.555408 
L 401.2848 89.311852 
L 401.9544 89.301846 
L 405.3024 101.375248 
L 405.972 97.006031 
L 406.6416 96.872384 
L 408.6504 103.816172 
L 409.32 99.407731 
L 409.9896 99.235489 
L 416.6856 121.094619 
L 420.0336 130.831719 
L 423.3816 139.811211 
L 426.7296 148.092042 
L 430.0776 155.728573 
L 433.4256 162.770933 
L 436.7736 169.265353 
L 440.1216 175.254466 
L 443.4696 180.777588 
L 446.8176 185.870977 
L 450.1656 190.568068 
L 453.5136 194.899695 
L 456.8616 198.894295 
L 460.2096 202.578089 
L 463.5576 205.975261 
L 467.5752 209.704802 
L 468.9144 210.869572 
L 469.584 204.740838 
L 470.2536 202.875947 
L 471.5928 204.114207 
L 474.9408 207.391859 
L 476.9496 209.234735 
L 477.6192 203.132272 
L 478.2888 201.29323 
L 478.9584 195.171809 
L 479.628 193.460688 
L 480.9672 194.999113 
L 484.3152 198.985977 
L 487.6632 202.662638 
L 491.0112 206.053232 
L 492.3504 207.334416 
L 493.02 201.26249 
L 493.6896 199.453495 
L 495.0288 200.800865 
L 498.3768 204.336316 
L 501.7248 207.596687 
L 503.064 208.828665 
L 503.7336 202.732727 
L 504.4032 200.900106 
L 505.7424 202.201357 
L 506.412 196.211917 
L 507.0816 187.786963 
L 507.7512 186.047939 
L 509.0904 187.822688 
L 509.76 188.761424 
L 510.4296 182.987957 
L 511.0992 181.472624 
L 511.7688 168.972592 
L 512.4384 165.150718 
L 513.108 166.160633 
L 514.4472 168.713623 
L 515.1168 163.262313 
L 515.7864 162.063962 
L 516.456 143.178698 
L 517.1256 137.239558 
L 517.7952 138.551417 
L 518.4648 133.584799 
L 519.1344 112.771994 
L 519.804 107.1749 
L 520.4736 108.969883 
L 521.1432 104.478625 
L 521.8128 97.527778 
L 522.4824 97.239173 
L 523.152 92.789847 
L 523.8216 92.723951 
L 525.8304 99.864532 
L 526.5 95.519592 
L 527.1696 95.409831 
L 527.8392 90.989902 
L 528.5088 90.952931 
L 532.5264 105.201302 
L 533.196 94.073484 
L 533.8656 91.4552 
L 535.2048 96.101418 
L 536.544 100.887947 
L 537.2136 96.526561 
L 537.8832 89.7035 
L 538.5528 89.540627 
L 539.2224 85.215013 
L 539.892 85.270841 
L 545.9184 106.98068 
L 547.9272 113.586853 
L 548.5968 109.021402 
L 549.2664 108.694674 
L 555.9624 129.139099 
L 556.632 124.323732 
L 557.3016 123.751103 
L 564.6672 143.619694 
L 568.0152 151.604201 
L 571.3632 158.967464 
L 574.7112 165.757817 
L 578.0592 172.019839 
L 581.4072 177.794636 
L 584.7552 183.120117 
L 588.1032 188.031242 
L 591.4512 192.560251 
L 594.7992 196.736874 
L 598.1472 200.588529 
L 601.4952 204.140502 
L 604.8432 207.416108 
L 608.8608 211.01219 
L 609.5304 204.881164 
L 610.2 203.014019 
L 611.5392 204.247877 
L 614.8872 207.515129 
L 616.2264 208.749707 
L 616.896 202.655038 
L 617.5656 200.823665 
L 618.2352 194.70979 
L 618.9048 193.006093 
L 620.244 194.559011 
L 620.9136 195.389498 
L 621.5832 189.509521 
L 622.2528 187.88939 
L 622.9224 188.68048 
L 623.592 182.908314 
L 624.2616 181.394261 
L 624.9312 175.592606 
L 625.6008 174.196113 
L 626.2704 168.510128 
L 626.94 167.227447 
L 628.2792 169.602207 
L 629.6184 172.045477 
L 630.288 166.540626 
L 630.9576 165.289594 
L 632.2968 167.726134 
L 632.9664 168.987812 
L 633.636 163.532096 
L 634.3056 162.329409 
L 634.9752 156.834117 
L 635.6448 155.739063 
L 636.3144 150.349674 
L 636.984 142.661703 
L 637.6536 141.647818 
L 639.6624 146.467553 
L 640.332 141.373726 
L 641.0016 127.132876 
L 641.6712 123.836771 
L 642.3408 125.51058 
L 643.0104 120.753521 
L 643.68 120.238264 
L 649.0368 135.423325 
L 649.7064 130.506974 
L 650.376 129.834983 
L 652.3848 135.215094 
L 653.0544 130.302089 
L 653.724 129.633391 
L 654.3936 131.360625 
L 655.0632 126.509559 
L 655.7328 119.204687 
L 656.4024 118.567744 
L 659.0808 126.438933 
L 659.7504 121.666956 
L 660.42 121.13702 
L 661.0896 116.303668 
L 661.7592 115.859917 
L 662.4288 117.808484 
L 663.0984 113.175194 
L 663.768 106.084598 
L 664.4376 105.658489 
L 667.116 114.33967 
L 667.7856 109.762121 
L 668.4552 109.42349 
L 671.8032 119.931301 
L 672.4728 115.263898 
L 673.1424 114.836856 
L 676.4904 124.923472 
L 677.16 120.175848 
L 677.8296 119.669874 
L 678.4992 114.860098 
L 679.1688 114.439545 
L 679.8384 109.713818 
L 680.508 109.375963 
L 687.204 129.718495 
L 690.552 138.784603 
L 693.9 147.145311 
L 694.5696 148.737712 
L 695.2392 143.607405 
L 695.9088 142.724897 
L 697.9176 147.493538 
L 701.2656 155.176635 
L 704.6136 162.26194 
L 707.9616 168.795962 
L 711.3096 174.821597 
L 714.6576 180.378399 
L 718.0056 185.502847 
L 721.3536 190.228581 
L 724.7016 194.586623 
L 728.0496 198.605581 
L 731.3976 202.31184 
L 734.7456 205.729728 
L 738.7632 209.482011 
L 742.7808 212.886738 
L 746.7984 215.9761 
L 748.8072 217.411757 
L 749.4768 211.177893 
L 750.1464 209.209563 
L 750.816 209.658049 
L 753.4944 211.953387 
L 754.164 205.807237 
L 754.8336 203.92521 
L 755.5032 204.458613 
L 756.1728 198.4329 
L 756.8424 196.669375 
L 758.1816 198.105504 
L 760.1904 200.388905 
L 760.86 194.42859 
L 761.5296 192.729412 
L 762.8688 194.291151 
L 766.2168 198.333099 
L 766.8864 192.40582 
L 767.556 184.042028 
L 768.2256 182.363183 
L 769.5648 184.255405 
L 772.2432 188.144635 
L 772.9128 182.381079 
L 773.5824 180.875498 
L 774.252 181.779298 
L 774.9216 176.11803 
L 775.5912 174.713094 
L 776.2608 175.71592 
L 776.9304 170.152087 
L 777.6 162.145902 
L 777.6 162.145902 
" clip-path="url(#p00f7887bce)" style="fill: none; stroke: #ff4500; stroke-width: 1.5; stroke-linecap: square"/>
   </g>
   <g id="patch_3">
    <path d="M 108 256.32 
L 108 34.56 
" style="fill: none; stroke: #000000; stroke-width: 0.8; stroke-linejoin: miter; stroke-linecap: square"/>
   </g>
   <g id="patch_4">
    <path d="M 777.6 256.32 
L 777.6 34.56 
" style="fill: none; stroke: #000000; stroke-width: 0.8; stroke-linejoin: miter; stroke-linecap: square"/>
   </g>
   <g id="patch_5">
    <path d="M 108 256.32 
L 777.6 256.32 
" style="fill: none; stroke: #000000; stroke-width: 0.8; stroke-linejoin: miter; stroke-linecap: square"/>
   </g>
   <g id="patch_6">
    <path d="M 108 34.56 
L 777.6 34.56 
" style="fill: none; stroke: #000000; stroke-width: 0.8; stroke-linejoin: miter; stroke-linecap: square"/>
   </g>
  </g>
 </g>
 <defs>
  <clipPath id="p00f7887bce">
   <rect x="108" y="34.56" width="669.6" height="221.76"/>
  </clipPath>
 </defs>
</svg>
