<?xml version="1.0" encoding="utf-8" standalone="no"?>
<!DOCTYPE svg PUBLIC "-//W3C//DTD SVG 1.1//EN"
  "http://www.w3.org/Graphics/SVG/1.1/DTD/svg11.dtd">
<svg xmlns:xlink="http://www.w3.org/1999/xlink" width="864pt" height="288pt" viewBox="0 0 864 288" xmlns="http://www.w3.org/2000/svg" version="1.1">
 <metadata>
  <rdf:RDF xmlns:dc="http://purl.org/dc/elements/1.1/" xmlns:cc="http://creativecommons.org/ns#" xmlns:rdf="http://www.w3.org/1999/02/22-rdf-syntax-ns#">
   <cc:Work>
    <dc:type rdf:resource="http://purl.org/dc/dcmitype/StillImage"/>
    <dc:date>2024-04-26T13:30:07.293970</dc:date>
    <dc:format>image/svg+xml</dc:format>
    <dc:creator>
     <cc:Agent>
      <dc:title>Matplotlib v3.8.2, https://matplotlib.org/</dc:title>
     </cc:Agent>
    </dc:creator>
   </cc:Work>
  </rdf:RDF>
 </metadata>
 <defs>
  <style type="text/css">*{stroke-linejoin: round; stroke-linecap: butt}</style>
 </defs>
 <g id="figure_1">
  <g id="patch_1">
   <path d="M 0 288 
L 864 288 
L 864 0 
L 0 0 
z
" style="fill: #ffffff"/>
  </g>
  <g id="axes_1">
   <g id="patch_2">
    <path d="M 108 256.32 
L 777.6 256.32 
L 777.6 34.56 
L 108 34.56 
z
" style="fill: #ffffff"/>
   </g>
   <g id="matplotlib.axis_1">
    <g id="xtick_1">
     <g id="line2d_1">
      <path d="M 108 256.32 
L 108 34.56 
" clip-path="url(#p3eb517e1ea)" style="fill: none; stroke: #b0b0b0; stroke-width: 0.8; stroke-linecap: square"/>
     </g>
     <g id="line2d_2">
      <defs>
       <path id="m055b908adf" d="M 0 0 
L 0 3.5 
" style="stroke: #000000; stroke-width: 0.8"/>
      </defs>
      <g>
       <use xlink:href="#m055b908adf" x="108" y="256.32" style="stroke: #000000; stroke-width: 0.8"/>
      </g>
     </g>
     <g id="text_1">
      <!-- 100 -->
      <g transform="translate(94.63875 273.957812) scale(0.14 -0.14)">
       <defs>
        <path id="DejaVuSans-31" d="M 794 531 
L 1825 531 
L 1825 4091 
L 703 3866 
L 703 4441 
L 1819 4666 
L 2450 4666 
L 2450 531 
L 3481 531 
L 3481 0 
L 794 0 
L 794 531 
z
" transform="scale(0.015625)"/>
        <path id="DejaVuSans-30" d="M 2034 4250 
Q 1547 4250 1301 3770 
Q 1056 3291 1056 2328 
Q 1056 1369 1301 889 
Q 1547 409 2034 409 
Q 2525 409 2770 889 
Q 3016 1369 3016 2328 
Q 3016 3291 2770 3770 
Q 2525 4250 2034 4250 
z
M 2034 4750 
Q 2819 4750 3233 4129 
Q 3647 3509 3647 2328 
Q 3647 1150 3233 529 
Q 2819 -91 2034 -91 
Q 1250 -91 836 529 
Q 422 1150 422 2328 
Q 422 3509 836 4129 
Q 1250 4750 2034 4750 
z
" transform="scale(0.015625)"/>
       </defs>
       <use xlink:href="#DejaVuSans-31"/>
       <use xlink:href="#DejaVuSans-30" x="63.623047"/>
       <use xlink:href="#DejaVuSans-30" x="127.246094"/>
      </g>
     </g>
    </g>
    <g id="xtick_2">
     <g id="line2d_3">
      <path d="M 241.92 256.32 
L 241.92 34.56 
" clip-path="url(#p3eb517e1ea)" style="fill: none; stroke: #b0b0b0; stroke-width: 0.8; stroke-linecap: square"/>
     </g>
     <g id="line2d_4">
      <g>
       <use xlink:href="#m055b908adf" x="241.92" y="256.32" style="stroke: #000000; stroke-width: 0.8"/>
      </g>
     </g>
     <g id="text_2">
      <!-- 120 -->
      <g transform="translate(228.55875 273.957812) scale(0.14 -0.14)">
       <defs>
        <path id="DejaVuSans-32" d="M 1228 531 
L 3431 531 
L 3431 0 
L 469 0 
L 469 531 
Q 828 903 1448 1529 
Q 2069 2156 2228 2338 
Q 2531 2678 2651 2914 
Q 2772 3150 2772 3378 
Q 2772 3750 2511 3984 
Q 2250 4219 1831 4219 
Q 1534 4219 1204 4116 
Q 875 4013 500 3803 
L 500 4441 
Q 881 4594 1212 4672 
Q 1544 4750 1819 4750 
Q 2544 4750 2975 4387 
Q 3406 4025 3406 3419 
Q 3406 3131 3298 2873 
Q 3191 2616 2906 2266 
Q 2828 2175 2409 1742 
Q 1991 1309 1228 531 
z
" transform="scale(0.015625)"/>
       </defs>
       <use xlink:href="#DejaVuSans-31"/>
       <use xlink:href="#DejaVuSans-32" x="63.623047"/>
       <use xlink:href="#DejaVuSans-30" x="127.246094"/>
      </g>
     </g>
    </g>
    <g id="xtick_3">
     <g id="line2d_5">
      <path d="M 375.84 256.32 
L 375.84 34.56 
" clip-path="url(#p3eb517e1ea)" style="fill: none; stroke: #b0b0b0; stroke-width: 0.8; stroke-linecap: square"/>
     </g>
     <g id="line2d_6">
      <g>
       <use xlink:href="#m055b908adf" x="375.84" y="256.32" style="stroke: #000000; stroke-width: 0.8"/>
      </g>
     </g>
     <g id="text_3">
      <!-- 140 -->
      <g transform="translate(362.47875 273.957812) scale(0.14 -0.14)">
       <defs>
        <path id="DejaVuSans-34" d="M 2419 4116 
L 825 1625 
L 2419 1625 
L 2419 4116 
z
M 2253 4666 
L 3047 4666 
L 3047 1625 
L 3713 1625 
L 3713 1100 
L 3047 1100 
L 3047 0 
L 2419 0 
L 2419 1100 
L 313 1100 
L 313 1709 
L 2253 4666 
z
" transform="scale(0.015625)"/>
       </defs>
       <use xlink:href="#DejaVuSans-31"/>
       <use xlink:href="#DejaVuSans-34" x="63.623047"/>
       <use xlink:href="#DejaVuSans-30" x="127.246094"/>
      </g>
     </g>
    </g>
    <g id="xtick_4">
     <g id="line2d_7">
      <path d="M 509.76 256.32 
L 509.76 34.56 
" clip-path="url(#p3eb517e1ea)" style="fill: none; stroke: #b0b0b0; stroke-width: 0.8; stroke-linecap: square"/>
     </g>
     <g id="line2d_8">
      <g>
       <use xlink:href="#m055b908adf" x="509.76" y="256.32" style="stroke: #000000; stroke-width: 0.8"/>
      </g>
     </g>
     <g id="text_4">
      <!-- 160 -->
      <g transform="translate(496.39875 273.957812) scale(0.14 -0.14)">
       <defs>
        <path id="DejaVuSans-36" d="M 2113 2584 
Q 1688 2584 1439 2293 
Q 1191 2003 1191 1497 
Q 1191 994 1439 701 
Q 1688 409 2113 409 
Q 2538 409 2786 701 
Q 3034 994 3034 1497 
Q 3034 2003 2786 2293 
Q 2538 2584 2113 2584 
z
M 3366 4563 
L 3366 3988 
Q 3128 4100 2886 4159 
Q 2644 4219 2406 4219 
Q 1781 4219 1451 3797 
Q 1122 3375 1075 2522 
Q 1259 2794 1537 2939 
Q 1816 3084 2150 3084 
Q 2853 3084 3261 2657 
Q 3669 2231 3669 1497 
Q 3669 778 3244 343 
Q 2819 -91 2113 -91 
Q 1303 -91 875 529 
Q 447 1150 447 2328 
Q 447 3434 972 4092 
Q 1497 4750 2381 4750 
Q 2619 4750 2861 4703 
Q 3103 4656 3366 4563 
z
" transform="scale(0.015625)"/>
       </defs>
       <use xlink:href="#DejaVuSans-31"/>
       <use xlink:href="#DejaVuSans-36" x="63.623047"/>
       <use xlink:href="#DejaVuSans-30" x="127.246094"/>
      </g>
     </g>
    </g>
    <g id="xtick_5">
     <g id="line2d_9">
      <path d="M 643.68 256.32 
L 643.68 34.56 
" clip-path="url(#p3eb517e1ea)" style="fill: none; stroke: #b0b0b0; stroke-width: 0.8; stroke-linecap: square"/>
     </g>
     <g id="line2d_10">
      <g>
       <use xlink:href="#m055b908adf" x="643.68" y="256.32" style="stroke: #000000; stroke-width: 0.8"/>
      </g>
     </g>
     <g id="text_5">
      <!-- 180 -->
      <g transform="translate(630.31875 273.957812) scale(0.14 -0.14)">
       <defs>
        <path id="DejaVuSans-38" d="M 2034 2216 
Q 1584 2216 1326 1975 
Q 1069 1734 1069 1313 
Q 1069 891 1326 650 
Q 1584 409 2034 409 
Q 2484 409 2743 651 
Q 3003 894 3003 1313 
Q 3003 1734 2745 1975 
Q 2488 2216 2034 2216 
z
M 1403 2484 
Q 997 2584 770 2862 
Q 544 3141 544 3541 
Q 544 4100 942 4425 
Q 1341 4750 2034 4750 
Q 2731 4750 3128 4425 
Q 3525 4100 3525 3541 
Q 3525 3141 3298 2862 
Q 3072 2584 2669 2484 
Q 3125 2378 3379 2068 
Q 3634 1759 3634 1313 
Q 3634 634 3220 271 
Q 2806 -91 2034 -91 
Q 1263 -91 848 271 
Q 434 634 434 1313 
Q 434 1759 690 2068 
Q 947 2378 1403 2484 
z
M 1172 3481 
Q 1172 3119 1398 2916 
Q 1625 2713 2034 2713 
Q 2441 2713 2670 2916 
Q 2900 3119 2900 3481 
Q 2900 3844 2670 4047 
Q 2441 4250 2034 4250 
Q 1625 4250 1398 4047 
Q 1172 3844 1172 3481 
z
" transform="scale(0.015625)"/>
       </defs>
       <use xlink:href="#DejaVuSans-31"/>
       <use xlink:href="#DejaVuSans-38" x="63.623047"/>
       <use xlink:href="#DejaVuSans-30" x="127.246094"/>
      </g>
     </g>
    </g>
    <g id="xtick_6">
     <g id="line2d_11">
      <path d="M 777.6 256.32 
L 777.6 34.56 
" clip-path="url(#p3eb517e1ea)" style="fill: none; stroke: #b0b0b0; stroke-width: 0.8; stroke-linecap: square"/>
     </g>
     <g id="line2d_12">
      <g>
       <use xlink:href="#m055b908adf" x="777.6" y="256.32" style="stroke: #000000; stroke-width: 0.8"/>
      </g>
     </g>
     <g id="text_6">
      <!-- 200 -->
      <g transform="translate(764.23875 273.957812) scale(0.14 -0.14)">
       <use xlink:href="#DejaVuSans-32"/>
       <use xlink:href="#DejaVuSans-30" x="63.623047"/>
       <use xlink:href="#DejaVuSans-30" x="127.246094"/>
      </g>
     </g>
    </g>
    <g id="text_7">
     <!-- Time (ms) -->
     <g transform="translate(407.521094 291.507187) scale(0.14 -0.14)">
      <defs>
       <path id="DejaVuSans-54" d="M -19 4666 
L 3928 4666 
L 3928 4134 
L 2272 4134 
L 2272 0 
L 1638 0 
L 1638 4134 
L -19 4134 
L -19 4666 
z
" transform="scale(0.015625)"/>
       <path id="DejaVuSans-69" d="M 603 3500 
L 1178 3500 
L 1178 0 
L 603 0 
L 603 3500 
z
M 603 4863 
L 1178 4863 
L 1178 4134 
L 603 4134 
L 603 4863 
z
" transform="scale(0.015625)"/>
       <path id="DejaVuSans-6d" d="M 3328 2828 
Q 3544 3216 3844 3400 
Q 4144 3584 4550 3584 
Q 5097 3584 5394 3201 
Q 5691 2819 5691 2113 
L 5691 0 
L 5113 0 
L 5113 2094 
Q 5113 2597 4934 2840 
Q 4756 3084 4391 3084 
Q 3944 3084 3684 2787 
Q 3425 2491 3425 1978 
L 3425 0 
L 2847 0 
L 2847 2094 
Q 2847 2600 2669 2842 
Q 2491 3084 2119 3084 
Q 1678 3084 1418 2786 
Q 1159 2488 1159 1978 
L 1159 0 
L 581 0 
L 581 3500 
L 1159 3500 
L 1159 2956 
Q 1356 3278 1631 3431 
Q 1906 3584 2284 3584 
Q 2666 3584 2933 3390 
Q 3200 3197 3328 2828 
z
" transform="scale(0.015625)"/>
       <path id="DejaVuSans-65" d="M 3597 1894 
L 3597 1613 
L 953 1613 
Q 991 1019 1311 708 
Q 1631 397 2203 397 
Q 2534 397 2845 478 
Q 3156 559 3463 722 
L 3463 178 
Q 3153 47 2828 -22 
Q 2503 -91 2169 -91 
Q 1331 -91 842 396 
Q 353 884 353 1716 
Q 353 2575 817 3079 
Q 1281 3584 2069 3584 
Q 2775 3584 3186 3129 
Q 3597 2675 3597 1894 
z
M 3022 2063 
Q 3016 2534 2758 2815 
Q 2500 3097 2075 3097 
Q 1594 3097 1305 2825 
Q 1016 2553 972 2059 
L 3022 2063 
z
" transform="scale(0.015625)"/>
       <path id="DejaVuSans-20" transform="scale(0.015625)"/>
       <path id="DejaVuSans-28" d="M 1984 4856 
Q 1566 4138 1362 3434 
Q 1159 2731 1159 2009 
Q 1159 1288 1364 580 
Q 1569 -128 1984 -844 
L 1484 -844 
Q 1016 -109 783 600 
Q 550 1309 550 2009 
Q 550 2706 781 3412 
Q 1013 4119 1484 4856 
L 1984 4856 
z
" transform="scale(0.015625)"/>
       <path id="DejaVuSans-73" d="M 2834 3397 
L 2834 2853 
Q 2591 2978 2328 3040 
Q 2066 3103 1784 3103 
Q 1356 3103 1142 2972 
Q 928 2841 928 2578 
Q 928 2378 1081 2264 
Q 1234 2150 1697 2047 
L 1894 2003 
Q 2506 1872 2764 1633 
Q 3022 1394 3022 966 
Q 3022 478 2636 193 
Q 2250 -91 1575 -91 
Q 1294 -91 989 -36 
Q 684 19 347 128 
L 347 722 
Q 666 556 975 473 
Q 1284 391 1588 391 
Q 1994 391 2212 530 
Q 2431 669 2431 922 
Q 2431 1156 2273 1281 
Q 2116 1406 1581 1522 
L 1381 1569 
Q 847 1681 609 1914 
Q 372 2147 372 2553 
Q 372 3047 722 3315 
Q 1072 3584 1716 3584 
Q 2034 3584 2315 3537 
Q 2597 3491 2834 3397 
z
" transform="scale(0.015625)"/>
       <path id="DejaVuSans-29" d="M 513 4856 
L 1013 4856 
Q 1481 4119 1714 3412 
Q 1947 2706 1947 2009 
Q 1947 1309 1714 600 
Q 1481 -109 1013 -844 
L 513 -844 
Q 928 -128 1133 580 
Q 1338 1288 1338 2009 
Q 1338 2731 1133 3434 
Q 928 4138 513 4856 
z
" transform="scale(0.015625)"/>
      </defs>
      <use xlink:href="#DejaVuSans-54"/>
      <use xlink:href="#DejaVuSans-69" x="57.958984"/>
      <use xlink:href="#DejaVuSans-6d" x="85.742188"/>
      <use xlink:href="#DejaVuSans-65" x="183.154297"/>
      <use xlink:href="#DejaVuSans-20" x="244.677734"/>
      <use xlink:href="#DejaVuSans-28" x="276.464844"/>
      <use xlink:href="#DejaVuSans-6d" x="315.478516"/>
      <use xlink:href="#DejaVuSans-73" x="412.890625"/>
      <use xlink:href="#DejaVuSans-29" x="464.990234"/>
     </g>
    </g>
   </g>
   <g id="matplotlib.axis_2">
    <g id="ytick_1">
     <g id="line2d_13">
      <path d="M 108 224.797899 
L 777.6 224.797899 
" clip-path="url(#p3eb517e1ea)" style="fill: none; stroke: #b0b0b0; stroke-width: 0.8; stroke-linecap: square"/>
     </g>
     <g id="line2d_14">
      <defs>
       <path id="m210bc098c2" d="M 0 0 
L -3.5 0 
" style="stroke: #000000; stroke-width: 0.8"/>
      </defs>
      <g>
       <use xlink:href="#m210bc098c2" x="108" y="224.797899" style="stroke: #000000; stroke-width: 0.8"/>
      </g>
     </g>
     <g id="text_8">
      <!-- −60 -->
      <g transform="translate(71.453437 230.116805) scale(0.14 -0.14)">
       <defs>
        <path id="DejaVuSans-2212" d="M 678 2272 
L 4684 2272 
L 4684 1741 
L 678 1741 
L 678 2272 
z
" transform="scale(0.015625)"/>
       </defs>
       <use xlink:href="#DejaVuSans-2212"/>
       <use xlink:href="#DejaVuSans-36" x="83.789062"/>
       <use xlink:href="#DejaVuSans-30" x="147.412109"/>
      </g>
     </g>
    </g>
    <g id="ytick_2">
     <g id="line2d_15">
      <path d="M 108 181.982029 
L 777.6 181.982029 
" clip-path="url(#p3eb517e1ea)" style="fill: none; stroke: #b0b0b0; stroke-width: 0.8; stroke-linecap: square"/>
     </g>
     <g id="line2d_16">
      <g>
       <use xlink:href="#m210bc098c2" x="108" y="181.982029" style="stroke: #000000; stroke-width: 0.8"/>
      </g>
     </g>
     <g id="text_9">
      <!-- −40 -->
      <g transform="translate(71.453437 187.300936) scale(0.14 -0.14)">
       <use xlink:href="#DejaVuSans-2212"/>
       <use xlink:href="#DejaVuSans-34" x="83.789062"/>
       <use xlink:href="#DejaVuSans-30" x="147.412109"/>
      </g>
     </g>
    </g>
    <g id="ytick_3">
     <g id="line2d_17">
      <path d="M 108 139.16616 
L 777.6 139.16616 
" clip-path="url(#p3eb517e1ea)" style="fill: none; stroke: #b0b0b0; stroke-width: 0.8; stroke-linecap: square"/>
     </g>
     <g id="line2d_18">
      <g>
       <use xlink:href="#m210bc098c2" x="108" y="139.16616" style="stroke: #000000; stroke-width: 0.8"/>
      </g>
     </g>
     <g id="text_10">
      <!-- −20 -->
      <g transform="translate(71.453437 144.485066) scale(0.14 -0.14)">
       <use xlink:href="#DejaVuSans-2212"/>
       <use xlink:href="#DejaVuSans-32" x="83.789062"/>
       <use xlink:href="#DejaVuSans-30" x="147.412109"/>
      </g>
     </g>
    </g>
    <g id="ytick_4">
     <g id="line2d_19">
      <path d="M 108 96.35029 
L 777.6 96.35029 
" clip-path="url(#p3eb517e1ea)" style="fill: none; stroke: #b0b0b0; stroke-width: 0.8; stroke-linecap: square"/>
     </g>
     <g id="line2d_20">
      <g>
       <use xlink:href="#m210bc098c2" x="108" y="96.35029" style="stroke: #000000; stroke-width: 0.8"/>
      </g>
     </g>
     <g id="text_11">
      <!-- 0 -->
      <g transform="translate(92.0925 101.669196) scale(0.14 -0.14)">
       <use xlink:href="#DejaVuSans-30"/>
      </g>
     </g>
    </g>
    <g id="ytick_5">
     <g id="line2d_21">
      <path d="M 108 53.53442 
L 777.6 53.53442 
" clip-path="url(#p3eb517e1ea)" style="fill: none; stroke: #b0b0b0; stroke-width: 0.8; stroke-linecap: square"/>
     </g>
     <g id="line2d_22">
      <g>
       <use xlink:href="#m210bc098c2" x="108" y="53.53442" style="stroke: #000000; stroke-width: 0.8"/>
      </g>
     </g>
     <g id="text_12">
      <!-- 20 -->
      <g transform="translate(83.185 58.853326) scale(0.14 -0.14)">
       <use xlink:href="#DejaVuSans-32"/>
       <use xlink:href="#DejaVuSans-30" x="63.623047"/>
      </g>
     </g>
    </g>
    <g id="text_13">
     <!-- $V_{m}$ (mV) -->
     <g transform="translate(64.541875 174.49) rotate(-90) scale(0.14 -0.14)">
      <defs>
       <path id="DejaVuSans-Oblique-56" d="M 1319 0 
L 500 4666 
L 1119 4666 
L 1797 653 
L 4063 4666 
L 4750 4666 
L 2053 0 
L 1319 0 
z
" transform="scale(0.015625)"/>
       <path id="DejaVuSans-Oblique-6d" d="M 5747 2113 
L 5338 0 
L 4763 0 
L 5166 2094 
Q 5191 2228 5203 2325 
Q 5216 2422 5216 2491 
Q 5216 2772 5059 2928 
Q 4903 3084 4622 3084 
Q 4203 3084 3875 2770 
Q 3547 2456 3450 1953 
L 3066 0 
L 2491 0 
L 2900 2094 
Q 2925 2209 2937 2307 
Q 2950 2406 2950 2484 
Q 2950 2769 2794 2926 
Q 2638 3084 2363 3084 
Q 1938 3084 1609 2770 
Q 1281 2456 1184 1953 
L 800 0 
L 225 0 
L 909 3500 
L 1484 3500 
L 1375 2956 
Q 1609 3263 1923 3423 
Q 2238 3584 2597 3584 
Q 2978 3584 3223 3384 
Q 3469 3184 3519 2828 
Q 3781 3197 4126 3390 
Q 4472 3584 4856 3584 
Q 5306 3584 5551 3325 
Q 5797 3066 5797 2591 
Q 5797 2488 5784 2364 
Q 5772 2241 5747 2113 
z
" transform="scale(0.015625)"/>
       <path id="DejaVuSans-56" d="M 1831 0 
L 50 4666 
L 709 4666 
L 2188 738 
L 3669 4666 
L 4325 4666 
L 2547 0 
L 1831 0 
z
" transform="scale(0.015625)"/>
      </defs>
      <use xlink:href="#DejaVuSans-Oblique-56" transform="translate(0 0.125)"/>
      <use xlink:href="#DejaVuSans-Oblique-6d" transform="translate(68.408203 -16.28125) scale(0.7)"/>
      <use xlink:href="#DejaVuSans-20" transform="translate(139.331055 0.125)"/>
      <use xlink:href="#DejaVuSans-28" transform="translate(171.118164 0.125)"/>
      <use xlink:href="#DejaVuSans-6d" transform="translate(210.131836 0.125)"/>
      <use xlink:href="#DejaVuSans-56" transform="translate(307.543945 0.125)"/>
      <use xlink:href="#DejaVuSans-29" transform="translate(375.952148 0.125)"/>
     </g>
    </g>
   </g>
   <g id="line2d_23">
    <path d="M 108 219.482762 
L 109.3392 220.087185 
L 110.6784 220.454114 
L 111.348 220.579766 
L 112.6872 221.459992 
L 114.0264 221.845797 
L 116.0352 223.319222 
L 118.044 225.704655 
L 118.7136 226.79553 
L 119.3832 227.63349 
L 120.0528 228.156188 
L 120.7224 229.17373 
L 122.7312 231.405591 
L 124.0704 232.146697 
L 125.4096 232.610101 
L 127.4184 233.033683 
L 129.4272 233.24088 
L 132.1056 233.277663 
L 134.1144 233.166597 
L 136.1232 233.946891 
L 136.7928 234.775802 
L 137.4624 235.357443 
L 140.1408 236.567826 
L 141.48 236.856078 
L 143.4888 236.992688 
L 144.828 237.472431 
L 146.1672 237.609108 
L 148.176 237.574571 
L 149.5152 237.956967 
L 150.8544 238.009827 
L 152.8632 237.863382 
L 155.5416 237.467106 
L 158.8896 236.751279 
L 162.9072 235.641129 
L 166.9248 234.306349 
L 171.612 232.511681 
L 176.9688 230.197373 
L 182.9952 227.315443 
L 189.6912 223.835066 
L 197.0568 219.751574 
L 198.396 218.987608 
L 199.7352 219.022673 
L 201.0744 218.645964 
L 203.7528 217.534341 
L 205.7616 216.599697 
L 207.1008 216.784925 
L 208.44 216.531836 
L 209.7792 216.938599 
L 211.1184 216.853125 
L 213.1272 216.402658 
L 216.4752 215.346054 
L 220.4928 213.829331 
L 223.1712 212.680268 
L 225.18 211.470275 
L 225.8496 211.026617 
L 227.1888 211.04953 
L 227.8584 211.837921 
L 228.528 212.436937 
L 229.1976 212.687219 
L 230.5368 212.787598 
L 232.5456 212.57353 
L 234.5544 213.733678 
L 235.8936 215.589467 
L 236.5632 216.695196 
L 239.2416 219.800194 
L 239.9112 220.815092 
L 240.5808 222.293026 
L 241.2504 223.37021 
L 241.92 224.049794 
L 243.2592 224.915394 
L 244.5984 225.465112 
L 245.9376 226.466874 
L 246.6072 226.760653 
L 247.2768 227.314212 
L 247.9464 228.08712 
L 249.9552 229.825057 
L 251.2944 230.973758 
L 252.6336 231.543747 
L 253.9728 231.875992 
L 255.312 233.163965 
L 255.9816 233.78617 
L 256.6512 234.240906 
L 257.9904 234.735729 
L 259.9992 235.093379 
L 260.6688 235.156399 
L 262.008 235.731393 
L 263.3472 235.944106 
L 264.6864 236.009082 
L 267.3648 237.13438 
L 268.704 237.346534 
L 270.7128 237.39267 
L 272.052 237.82107 
L 273.3912 237.917624 
L 275.4 237.836414 
L 278.0784 237.525615 
L 281.4264 236.910909 
L 282.096 236.762644 
L 283.4352 236.957064 
L 284.7744 236.838034 
L 287.4528 236.302542 
L 290.8008 235.397254 
L 291.4704 235.193585 
L 292.8096 235.310706 
L 294.1488 235.107894 
L 296.8272 234.404999 
L 300.8448 233.065149 
L 305.532 231.231686 
L 310.8888 228.866154 
L 316.9152 225.930687 
L 323.6112 222.402059 
L 331.6464 217.900758 
L 343.0296 211.236155 
L 345.0384 210.028063 
L 346.3776 210.168365 
L 347.7168 209.86395 
L 349.7256 209.106652 
L 353.0736 207.560593 
L 354.4128 206.888184 
L 355.752 208.173245 
L 356.4216 208.456808 
L 357.0912 209.041486 
L 357.7608 209.441166 
L 358.4304 210.074178 
L 359.1 210.983101 
L 359.7696 211.58468 
L 360.4392 211.901278 
L 361.7784 212.165283 
L 363.1176 213.905032 
L 363.7872 214.78816 
L 364.4568 215.438479 
L 366.4656 216.762753 
L 367.1352 217.270604 
L 367.8048 217.588324 
L 369.144 218.722719 
L 370.4832 219.253302 
L 371.8224 219.525124 
L 372.492 219.605804 
L 373.8312 221.142105 
L 374.5008 222.661908 
L 375.1704 223.823254 
L 375.84 224.509176 
L 377.1792 225.328144 
L 378.5184 225.821217 
L 379.188 225.996489 
L 379.8576 226.483768 
L 381.8664 228.662104 
L 382.536 229.038104 
L 383.8752 230.091369 
L 384.5448 230.394166 
L 386.5536 231.917717 
L 387.2232 232.354658 
L 388.5624 232.834037 
L 391.2408 233.537642 
L 391.9104 234.106508 
L 392.58 234.495095 
L 393.9192 234.863785 
L 395.928 235.067367 
L 398.6064 235.043964 
L 399.9456 235.469099 
L 400.6152 235.537685 
L 401.9544 236.051804 
L 403.2936 236.185741 
L 405.972 237.296886 
L 407.3112 237.488411 
L 407.9808 237.515346 
L 409.32 237.982654 
L 410.6592 238.101067 
L 412.668 238.036043 
L 415.3464 237.730616 
L 418.6944 237.110916 
L 422.712 236.098704 
L 426.7296 234.847718 
L 428.0688 234.935631 
L 429.408 234.704567 
L 432.0864 233.949715 
L 436.104 232.543109 
L 440.7912 230.644773 
L 446.148 228.218046 
L 452.1744 225.227069 
L 458.8704 221.651524 
L 467.5752 216.726532 
L 472.932 213.599709 
L 474.2712 213.69836 
L 475.6104 213.358285 
L 476.9496 212.852719 
L 478.2888 213.173975 
L 479.628 213.017745 
L 481.6368 212.466765 
L 483.6456 211.772962 
L 484.9848 212.166899 
L 485.6544 212.638294 
L 486.324 212.968684 
L 487.6632 213.130626 
L 489.0024 213.043535 
L 490.3416 214.553659 
L 491.0112 214.865453 
L 491.6808 215.421864 
L 492.3504 216.230639 
L 493.02 216.74938 
L 493.6896 217.008544 
L 494.3592 217.56322 
L 495.0288 218.39226 
L 495.6984 218.961133 
L 497.7072 220.061218 
L 498.3768 220.499665 
L 499.716 220.941557 
L 501.0552 221.151259 
L 502.3944 221.950345 
L 503.7336 222.263018 
L 504.4032 222.333592 
L 505.7424 223.080326 
L 507.0816 223.349126 
L 507.7512 223.400085 
L 508.4208 223.792905 
L 510.4296 226.964473 
L 511.0992 227.663964 
L 512.4384 228.419899 
L 513.7776 228.834077 
L 515.1168 229.668564 
L 515.7864 230.527833 
L 516.456 231.18975 
L 517.1256 231.580465 
L 519.804 234.960174 
L 521.1432 235.677691 
L 522.4824 236.100156 
L 523.152 236.249533 
L 523.8216 236.637716 
L 524.4912 237.210814 
L 526.5 238.483554 
L 527.8392 239.330915 
L 529.1784 239.719562 
L 529.848 239.837981 
L 531.1872 240.430607 
L 532.5264 240.680257 
L 534.5352 240.811997 
L 537.2136 240.759366 
L 540.5616 240.435669 
L 543.9096 239.87996 
L 547.9272 238.955867 
L 551.9448 237.792778 
L 556.632 236.178861 
L 561.3192 234.327976 
L 566.676 231.965219 
L 572.7024 229.040337 
L 579.3984 225.51794 
L 586.764 221.386026 
L 596.808 215.468389 
L 602.1648 212.237159 
L 603.504 212.336326 
L 604.8432 211.992572 
L 607.5216 210.896736 
L 611.5392 208.96273 
L 613.548 207.912118 
L 614.8872 208.175699 
L 616.2264 207.998112 
L 618.2352 207.397354 
L 620.9136 206.337764 
L 622.9224 205.396834 
L 624.2616 205.760128 
L 624.9312 205.746054 
L 625.6008 206.123534 
L 626.2704 206.902084 
L 626.94 207.441472 
L 627.6096 207.701716 
L 628.9488 207.82181 
L 629.6184 207.782709 
L 630.288 208.207729 
L 630.9576 209.532412 
L 631.6272 210.563025 
L 632.2968 211.167883 
L 633.636 211.838873 
L 634.9752 213.026546 
L 635.6448 213.354553 
L 636.984 214.554923 
L 637.6536 214.884595 
L 638.9928 218.012767 
L 639.6624 219.058838 
L 640.332 219.731424 
L 641.6712 221.298812 
L 642.3408 221.778072 
L 643.0104 222.515849 
L 643.68 223.475282 
L 644.3496 224.17759 
L 645.0192 224.65068 
L 646.3584 225.925551 
L 648.3672 227.187637 
L 649.0368 227.987012 
L 649.7064 228.565235 
L 653.0544 230.478662 
L 653.724 230.997198 
L 654.3936 231.712401 
L 658.4112 234.809352 
L 659.7504 236.360606 
L 660.42 236.911316 
L 661.7592 237.535528 
L 663.768 238.03571 
L 665.7768 238.28363 
L 667.7856 238.370422 
L 669.1248 238.828173 
L 670.464 238.967157 
L 673.1424 238.926961 
L 676.4904 238.590155 
L 679.8384 238.019817 
L 683.856 237.079206 
L 687.8736 235.90024 
L 692.5608 234.268099 
L 693.9 233.756729 
L 695.2392 233.797917 
L 696.5784 233.516171 
L 699.2568 232.660984 
L 703.2744 231.118036 
L 707.9616 229.082025 
L 713.3184 226.522813 
L 720.0144 223.052627 
L 727.38 218.978116 
L 737.424 213.155505 
L 742.7808 209.961287 
L 744.12 210.102208 
L 745.4592 209.798197 
L 747.468 209.040073 
L 748.8072 209.411574 
L 750.1464 209.311132 
L 752.1552 208.807591 
L 753.4944 209.327765 
L 754.8336 209.362112 
L 756.1728 209.17588 
L 757.512 209.827762 
L 758.1816 209.941946 
L 759.5208 209.825073 
L 760.1904 209.650687 
L 761.5296 210.10611 
L 762.1992 210.113168 
L 763.5384 210.822657 
L 764.8776 210.974867 
L 765.5472 210.958508 
L 766.8864 211.727835 
L 768.2256 211.96975 
L 768.8952 211.993826 
L 770.2344 213.651145 
L 770.904 214.059571 
L 771.5736 214.308167 
L 774.252 216.63275 
L 775.5912 217.180662 
L 776.9304 217.441626 
L 777.6 217.931027 
L 777.6 217.931027 
" clip-path="url(#p3eb517e1ea)" style="fill: none; stroke: #000000; stroke-width: 1.5; stroke-linecap: square"/>
   </g>
   <g id="line2d_24">
    <path d="M 108 145.703416 
L 110.0088 146.538111 
L 113.3568 147.572355 
L 116.0352 148.461568 
L 117.3744 149.099302 
L 118.7136 149.95004 
L 120.7224 151.620986 
L 122.7312 153.733396 
L 125.4096 156.982183 
L 128.088 160.484814 
L 130.7664 164.398936 
L 132.7752 167.727988 
L 134.784 171.463646 
L 136.1232 174.279408 
L 137.4624 177.519888 
L 139.4712 183.050992 
L 143.4888 194.430404 
L 145.4976 199.45427 
L 147.5064 203.85857 
L 149.5152 207.613742 
L 151.524 210.857806 
L 153.5328 213.569092 
L 155.5416 215.786222 
L 157.5504 217.573333 
L 159.5592 218.989845 
L 161.568 220.086216 
L 163.5768 220.904745 
L 165.5856 221.480983 
L 167.5944 221.844974 
L 169.6032 222.022253 
L 172.2816 222.005386 
L 174.96 221.738222 
L 177.6384 221.256166 
L 180.9864 220.395305 
L 184.3344 219.290039 
L 188.352 217.692555 
L 192.3696 215.846763 
L 197.0568 213.433444 
L 200.4048 211.708997 
L 207.7704 208.615655 
L 209.7792 208.044979 
L 220.4928 205.795787 
L 222.5016 205.214685 
L 223.1712 178.873771 
L 223.8408 166.532709 
L 224.5104 159.40042 
L 225.18 154.499833 
L 225.8496 150.976867 
L 226.5192 148.415995 
L 227.1888 146.562389 
L 227.8584 145.272048 
L 228.528 144.436402 
L 229.1976 143.951038 
L 229.8672 143.717951 
L 231.2064 143.692618 
L 233.8848 144.134204 
L 235.8936 144.621148 
L 237.9024 145.436189 
L 240.5808 146.778457 
L 245.268 149.660311 
L 248.616 151.517067 
L 250.6248 152.935669 
L 253.9728 155.734181 
L 255.312 156.9827 
L 256.6512 158.456616 
L 258.66 161.030121 
L 260.6688 163.927088 
L 262.6776 167.299381 
L 264.6864 171.279605 
L 266.6952 175.922417 
L 268.704 181.279851 
L 273.3912 194.206218 
L 275.4 199.126832 
L 277.4088 203.353401 
L 279.4176 206.887861 
L 281.4264 209.796766 
L 283.4352 212.20586 
L 285.444 214.282681 
L 287.4528 215.989554 
L 289.4616 217.341082 
L 291.4704 218.378966 
L 294.8184 219.75106 
L 296.8272 220.354596 
L 298.836 220.75852 
L 300.8448 220.979917 
L 303.5232 221.02488 
L 306.2016 220.820406 
L 308.88 220.399585 
L 312.228 219.610673 
L 315.576 218.570377 
L 318.924 217.314658 
L 322.9416 215.564894 
L 327.6288 213.241437 
L 332.316 210.666998 
L 337.6728 207.4776 
L 343.6992 203.641021 
L 346.3776 201.941063 
L 349.056 200.600031 
L 355.752 197.479319 
L 356.4216 197.323069 
L 357.0912 172.677581 
L 357.7608 161.114315 
L 358.4304 154.581052 
L 359.1 150.349896 
L 359.7696 147.52951 
L 360.4392 145.655259 
L 361.1088 144.443311 
L 361.7784 143.703172 
L 362.448 143.331043 
L 363.1176 143.248059 
L 363.7872 143.387484 
L 365.1264 144.066224 
L 369.144 146.459651 
L 371.1528 147.304322 
L 373.1616 147.798143 
L 374.5008 148.173641 
L 376.5096 149.149598 
L 379.188 150.447595 
L 381.1968 151.373007 
L 383.2056 152.58412 
L 385.884 154.499626 
L 387.8928 156.220432 
L 391.2408 159.472979 
L 392.58 161.009234 
L 394.5888 163.74132 
L 396.5976 166.894163 
L 398.6064 170.474662 
L 400.6152 174.613468 
L 402.624 179.40633 
L 405.3024 186.448961 
L 408.6504 195.373216 
L 410.6592 200.202402 
L 412.668 204.413576 
L 414.6768 207.956645 
L 416.6856 210.886741 
L 418.6944 213.280562 
L 420.7032 215.211458 
L 422.712 216.743592 
L 424.7208 217.931515 
L 426.7296 218.821223 
L 430.0776 219.979066 
L 432.0864 220.47084 
L 434.0952 220.773342 
L 436.7736 220.910339 
L 439.452 220.782557 
L 442.1304 220.426525 
L 444.8088 219.872114 
L 448.1568 218.9375 
L 451.5048 217.7713 
L 455.5224 216.11176 
L 459.54 214.211719 
L 464.2272 211.741593 
L 469.584 208.646297 
L 474.9408 205.480612 
L 477.6192 204.252051 
L 479.628 203.567434 
L 484.9848 202.045862 
L 486.324 201.878026 
L 489.0024 201.890319 
L 490.3416 202.053205 
L 491.0112 176.618561 
L 491.6808 164.823507 
L 492.3504 158.202041 
L 493.02 153.893857 
L 493.6896 151.006239 
L 494.3592 149.089451 
L 495.0288 147.879688 
L 495.6984 147.194218 
L 496.368 146.890365 
L 497.0376 146.852357 
L 497.7072 147.004512 
L 499.0464 147.647807 
L 501.7248 149.128893 
L 503.7336 149.980165 
L 505.7424 150.525033 
L 507.7512 150.873803 
L 509.0904 151.058367 
L 510.4296 151.46432 
L 513.108 152.772041 
L 515.7864 154.116214 
L 517.7952 155.468667 
L 519.1344 156.677513 
L 521.1432 158.97746 
L 523.8216 162.515703 
L 525.1608 164.600952 
L 526.5 167.054507 
L 527.8392 169.940987 
L 529.848 175.057026 
L 531.8568 180.970546 
L 536.544 195.475684 
L 538.5528 200.849298 
L 540.5616 205.430676 
L 542.5704 209.247148 
L 544.5792 212.381684 
L 546.588 214.927015 
L 548.5968 216.968694 
L 550.6056 218.580513 
L 552.6144 219.824518 
L 554.6232 220.752468 
L 556.632 221.407547 
L 558.6408 221.825873 
L 560.6496 222.037784 
L 562.6584 222.068881 
L 565.3368 221.866061 
L 568.0152 221.422577 
L 570.6936 220.77295 
L 574.0416 219.713366 
L 577.3896 218.419352 
L 581.4072 216.605643 
L 585.4248 214.55174 
L 590.112 211.902073 
L 595.4688 208.599412 
L 601.4952 204.605745 
L 603.504 203.296734 
L 606.1824 201.873527 
L 612.8784 198.387597 
L 614.8872 197.355694 
L 617.5656 196.332199 
L 624.2616 193.891155 
L 624.9312 169.890083 
L 625.6008 158.649089 
L 626.2704 152.365069 
L 626.94 148.317132 
L 627.6096 145.601031 
L 628.2792 143.764465 
L 628.9488 142.542821 
L 629.6184 141.76363 
L 630.288 141.319332 
L 630.9576 141.16206 
L 631.6272 141.241923 
L 632.9664 141.828104 
L 636.984 143.962536 
L 638.9928 144.877456 
L 649.7064 151.181286 
L 653.0544 153.469969 
L 655.0632 155.084355 
L 657.072 157.082671 
L 658.4112 158.632021 
L 659.7504 160.484487 
L 661.0896 162.704496 
L 663.0984 166.60413 
L 665.1072 171.149097 
L 667.116 176.335146 
L 669.7944 184.032401 
L 673.1424 193.799756 
L 675.1512 198.965705 
L 677.16 203.391467 
L 679.1688 207.08613 
L 681.1776 210.121473 
L 683.1864 212.583785 
L 685.1952 214.554679 
L 687.204 216.105328 
L 689.2128 217.295875 
L 691.2216 218.176589 
L 693.2304 218.789448 
L 697.248 219.591229 
L 699.9264 219.866302 
L 702.6048 219.859618 
L 705.2832 219.604601 
L 707.9616 219.134909 
L 711.3096 218.287463 
L 714.6576 217.190901 
L 718.0056 215.880384 
L 722.0232 214.065909 
L 726.7104 211.667573 
L 731.3976 209.018489 
L 736.7544 205.743473 
L 745.4592 200.264556 
L 748.8072 198.721491 
L 751.4856 197.893564 
L 753.4944 197.405182 
L 756.1728 197.093822 
L 758.1816 197.066419 
L 758.8512 172.565243 
L 759.5208 161.107197 
L 760.1904 154.643367 
L 760.86 150.41524 
L 761.5296 147.532973 
L 762.1992 145.547574 
L 762.8688 144.208761 
L 763.5384 143.354118 
L 764.208 142.85809 
L 764.8776 142.618436 
L 765.5472 142.553035 
L 766.8864 142.76293 
L 776.2608 145.489886 
L 777.6 145.718575 
L 777.6 145.718575 
" clip-path="url(#p3eb517e1ea)" style="fill: none; stroke: #4169e1; stroke-width: 1.5; stroke-linecap: square"/>
   </g>
   <g id="patch_3">
    <path d="M 108 256.32 
L 108 34.56 
" style="fill: none; stroke: #000000; stroke-width: 0.8; stroke-linejoin: miter; stroke-linecap: square"/>
   </g>
   <g id="patch_4">
    <path d="M 777.6 256.32 
L 777.6 34.56 
" style="fill: none; stroke: #000000; stroke-width: 0.8; stroke-linejoin: miter; stroke-linecap: square"/>
   </g>
   <g id="patch_5">
    <path d="M 108 256.32 
L 777.6 256.32 
" style="fill: none; stroke: #000000; stroke-width: 0.8; stroke-linejoin: miter; stroke-linecap: square"/>
   </g>
   <g id="patch_6">
    <path d="M 108 34.56 
L 777.6 34.56 
" style="fill: none; stroke: #000000; stroke-width: 0.8; stroke-linejoin: miter; stroke-linecap: square"/>
   </g>
   <g id="legend_1">
    <g id="patch_7">
     <path d="M 695.098438 71.91625 
L 770.6 71.91625 
Q 772.6 71.91625 772.6 69.91625 
L 772.6 41.56 
Q 772.6 39.56 770.6 39.56 
L 695.098438 39.56 
Q 693.098438 39.56 693.098438 41.56 
L 693.098438 69.91625 
Q 693.098438 71.91625 695.098438 71.91625 
z
" style="fill: #ffffff; opacity: 0.8; stroke: #cccccc; stroke-linejoin: miter"/>
    </g>
    <g id="line2d_25">
     <path d="M 697.098438 47.658437 
L 707.098438 47.658437 
L 717.098438 47.658437 
" style="fill: none; stroke: #000000; stroke-width: 1.5; stroke-linecap: square"/>
    </g>
    <g id="text_14">
     <!-- Soma -->
     <g transform="translate(725.098438 51.158437) scale(0.1 -0.1)">
      <defs>
       <path id="DejaVuSans-53" d="M 3425 4513 
L 3425 3897 
Q 3066 4069 2747 4153 
Q 2428 4238 2131 4238 
Q 1616 4238 1336 4038 
Q 1056 3838 1056 3469 
Q 1056 3159 1242 3001 
Q 1428 2844 1947 2747 
L 2328 2669 
Q 3034 2534 3370 2195 
Q 3706 1856 3706 1288 
Q 3706 609 3251 259 
Q 2797 -91 1919 -91 
Q 1588 -91 1214 -16 
Q 841 59 441 206 
L 441 856 
Q 825 641 1194 531 
Q 1563 422 1919 422 
Q 2459 422 2753 634 
Q 3047 847 3047 1241 
Q 3047 1584 2836 1778 
Q 2625 1972 2144 2069 
L 1759 2144 
Q 1053 2284 737 2584 
Q 422 2884 422 3419 
Q 422 4038 858 4394 
Q 1294 4750 2059 4750 
Q 2388 4750 2728 4690 
Q 3069 4631 3425 4513 
z
" transform="scale(0.015625)"/>
       <path id="DejaVuSans-6f" d="M 1959 3097 
Q 1497 3097 1228 2736 
Q 959 2375 959 1747 
Q 959 1119 1226 758 
Q 1494 397 1959 397 
Q 2419 397 2687 759 
Q 2956 1122 2956 1747 
Q 2956 2369 2687 2733 
Q 2419 3097 1959 3097 
z
M 1959 3584 
Q 2709 3584 3137 3096 
Q 3566 2609 3566 1747 
Q 3566 888 3137 398 
Q 2709 -91 1959 -91 
Q 1206 -91 779 398 
Q 353 888 353 1747 
Q 353 2609 779 3096 
Q 1206 3584 1959 3584 
z
" transform="scale(0.015625)"/>
       <path id="DejaVuSans-61" d="M 2194 1759 
Q 1497 1759 1228 1600 
Q 959 1441 959 1056 
Q 959 750 1161 570 
Q 1363 391 1709 391 
Q 2188 391 2477 730 
Q 2766 1069 2766 1631 
L 2766 1759 
L 2194 1759 
z
M 3341 1997 
L 3341 0 
L 2766 0 
L 2766 531 
Q 2569 213 2275 61 
Q 1981 -91 1556 -91 
Q 1019 -91 701 211 
Q 384 513 384 1019 
Q 384 1609 779 1909 
Q 1175 2209 1959 2209 
L 2766 2209 
L 2766 2266 
Q 2766 2663 2505 2880 
Q 2244 3097 1772 3097 
Q 1472 3097 1187 3025 
Q 903 2953 641 2809 
L 641 3341 
Q 956 3463 1253 3523 
Q 1550 3584 1831 3584 
Q 2591 3584 2966 3190 
Q 3341 2797 3341 1997 
z
" transform="scale(0.015625)"/>
      </defs>
      <use xlink:href="#DejaVuSans-53"/>
      <use xlink:href="#DejaVuSans-6f" x="63.476562"/>
      <use xlink:href="#DejaVuSans-6d" x="124.658203"/>
      <use xlink:href="#DejaVuSans-61" x="222.070312"/>
     </g>
    </g>
    <g id="line2d_26">
     <path d="M 697.098438 62.336562 
L 707.098438 62.336562 
L 717.098438 62.336562 
" style="fill: none; stroke: #4169e1; stroke-width: 1.5; stroke-linecap: square"/>
    </g>
    <g id="text_15">
     <!-- Dendrite -->
     <g transform="translate(725.098438 65.836562) scale(0.1 -0.1)">
      <defs>
       <path id="DejaVuSans-44" d="M 1259 4147 
L 1259 519 
L 2022 519 
Q 2988 519 3436 956 
Q 3884 1394 3884 2338 
Q 3884 3275 3436 3711 
Q 2988 4147 2022 4147 
L 1259 4147 
z
M 628 4666 
L 1925 4666 
Q 3281 4666 3915 4102 
Q 4550 3538 4550 2338 
Q 4550 1131 3912 565 
Q 3275 0 1925 0 
L 628 0 
L 628 4666 
z
" transform="scale(0.015625)"/>
       <path id="DejaVuSans-6e" d="M 3513 2113 
L 3513 0 
L 2938 0 
L 2938 2094 
Q 2938 2591 2744 2837 
Q 2550 3084 2163 3084 
Q 1697 3084 1428 2787 
Q 1159 2491 1159 1978 
L 1159 0 
L 581 0 
L 581 3500 
L 1159 3500 
L 1159 2956 
Q 1366 3272 1645 3428 
Q 1925 3584 2291 3584 
Q 2894 3584 3203 3211 
Q 3513 2838 3513 2113 
z
" transform="scale(0.015625)"/>
       <path id="DejaVuSans-64" d="M 2906 2969 
L 2906 4863 
L 3481 4863 
L 3481 0 
L 2906 0 
L 2906 525 
Q 2725 213 2448 61 
Q 2172 -91 1784 -91 
Q 1150 -91 751 415 
Q 353 922 353 1747 
Q 353 2572 751 3078 
Q 1150 3584 1784 3584 
Q 2172 3584 2448 3432 
Q 2725 3281 2906 2969 
z
M 947 1747 
Q 947 1113 1208 752 
Q 1469 391 1925 391 
Q 2381 391 2643 752 
Q 2906 1113 2906 1747 
Q 2906 2381 2643 2742 
Q 2381 3103 1925 3103 
Q 1469 3103 1208 2742 
Q 947 2381 947 1747 
z
" transform="scale(0.015625)"/>
       <path id="DejaVuSans-72" d="M 2631 2963 
Q 2534 3019 2420 3045 
Q 2306 3072 2169 3072 
Q 1681 3072 1420 2755 
Q 1159 2438 1159 1844 
L 1159 0 
L 581 0 
L 581 3500 
L 1159 3500 
L 1159 2956 
Q 1341 3275 1631 3429 
Q 1922 3584 2338 3584 
Q 2397 3584 2469 3576 
Q 2541 3569 2628 3553 
L 2631 2963 
z
" transform="scale(0.015625)"/>
       <path id="DejaVuSans-74" d="M 1172 4494 
L 1172 3500 
L 2356 3500 
L 2356 3053 
L 1172 3053 
L 1172 1153 
Q 1172 725 1289 603 
Q 1406 481 1766 481 
L 2356 481 
L 2356 0 
L 1766 0 
Q 1100 0 847 248 
Q 594 497 594 1153 
L 594 3053 
L 172 3053 
L 172 3500 
L 594 3500 
L 594 4494 
L 1172 4494 
z
" transform="scale(0.015625)"/>
      </defs>
      <use xlink:href="#DejaVuSans-44"/>
      <use xlink:href="#DejaVuSans-65" x="77.001953"/>
      <use xlink:href="#DejaVuSans-6e" x="138.525391"/>
      <use xlink:href="#DejaVuSans-64" x="201.904297"/>
      <use xlink:href="#DejaVuSans-72" x="265.380859"/>
      <use xlink:href="#DejaVuSans-69" x="306.494141"/>
      <use xlink:href="#DejaVuSans-74" x="334.277344"/>
      <use xlink:href="#DejaVuSans-65" x="373.486328"/>
     </g>
    </g>
   </g>
  </g>
 </g>
 <defs>
  <clipPath id="p3eb517e1ea">
   <rect x="108" y="34.56" width="669.6" height="221.76"/>
  </clipPath>
 </defs>
</svg>
