<?xml version="1.0" encoding="utf-8" standalone="no"?>
<!DOCTYPE svg PUBLIC "-//W3C//DTD SVG 1.1//EN"
  "http://www.w3.org/Graphics/SVG/1.1/DTD/svg11.dtd">
<svg xmlns:xlink="http://www.w3.org/1999/xlink" width="864pt" height="288pt" viewBox="0 0 864 288" xmlns="http://www.w3.org/2000/svg" version="1.1">
 <metadata>
  <rdf:RDF xmlns:dc="http://purl.org/dc/elements/1.1/" xmlns:cc="http://creativecommons.org/ns#" xmlns:rdf="http://www.w3.org/1999/02/22-rdf-syntax-ns#">
   <cc:Work>
    <dc:type rdf:resource="http://purl.org/dc/dcmitype/StillImage"/>
    <dc:date>2024-04-26T13:29:11.574109</dc:date>
    <dc:format>image/svg+xml</dc:format>
    <dc:creator>
     <cc:Agent>
      <dc:title>Matplotlib v3.8.2, https://matplotlib.org/</dc:title>
     </cc:Agent>
    </dc:creator>
   </cc:Work>
  </rdf:RDF>
 </metadata>
 <defs>
  <style type="text/css">*{stroke-linejoin: round; stroke-linecap: butt}</style>
 </defs>
 <g id="figure_1">
  <g id="patch_1">
   <path d="M 0 288 
L 864 288 
L 864 0 
L 0 0 
z
" style="fill: #ffffff"/>
  </g>
  <g id="axes_1">
   <g id="patch_2">
    <path d="M 108 256.32 
L 777.6 256.32 
L 777.6 34.56 
L 108 34.56 
z
" style="fill: #ffffff"/>
   </g>
   <g id="matplotlib.axis_1">
    <g id="xtick_1">
     <g id="line2d_1">
      <path d="M 108 256.32 
L 108 34.56 
" clip-path="url(#p982d54107c)" style="fill: none; stroke: #b0b0b0; stroke-width: 0.8; stroke-linecap: square"/>
     </g>
     <g id="line2d_2">
      <defs>
       <path id="md56d64f5a1" d="M 0 0 
L 0 3.5 
" style="stroke: #000000; stroke-width: 0.8"/>
      </defs>
      <g>
       <use xlink:href="#md56d64f5a1" x="108" y="256.32" style="stroke: #000000; stroke-width: 0.8"/>
      </g>
     </g>
     <g id="text_1">
      <!-- 100 -->
      <g transform="translate(94.63875 273.957812) scale(0.14 -0.14)">
       <defs>
        <path id="DejaVuSans-31" d="M 794 531 
L 1825 531 
L 1825 4091 
L 703 3866 
L 703 4441 
L 1819 4666 
L 2450 4666 
L 2450 531 
L 3481 531 
L 3481 0 
L 794 0 
L 794 531 
z
" transform="scale(0.015625)"/>
        <path id="DejaVuSans-30" d="M 2034 4250 
Q 1547 4250 1301 3770 
Q 1056 3291 1056 2328 
Q 1056 1369 1301 889 
Q 1547 409 2034 409 
Q 2525 409 2770 889 
Q 3016 1369 3016 2328 
Q 3016 3291 2770 3770 
Q 2525 4250 2034 4250 
z
M 2034 4750 
Q 2819 4750 3233 4129 
Q 3647 3509 3647 2328 
Q 3647 1150 3233 529 
Q 2819 -91 2034 -91 
Q 1250 -91 836 529 
Q 422 1150 422 2328 
Q 422 3509 836 4129 
Q 1250 4750 2034 4750 
z
" transform="scale(0.015625)"/>
       </defs>
       <use xlink:href="#DejaVuSans-31"/>
       <use xlink:href="#DejaVuSans-30" x="63.623047"/>
       <use xlink:href="#DejaVuSans-30" x="127.246094"/>
      </g>
     </g>
    </g>
    <g id="xtick_2">
     <g id="line2d_3">
      <path d="M 241.92 256.32 
L 241.92 34.56 
" clip-path="url(#p982d54107c)" style="fill: none; stroke: #b0b0b0; stroke-width: 0.8; stroke-linecap: square"/>
     </g>
     <g id="line2d_4">
      <g>
       <use xlink:href="#md56d64f5a1" x="241.92" y="256.32" style="stroke: #000000; stroke-width: 0.8"/>
      </g>
     </g>
     <g id="text_2">
      <!-- 120 -->
      <g transform="translate(228.55875 273.957812) scale(0.14 -0.14)">
       <defs>
        <path id="DejaVuSans-32" d="M 1228 531 
L 3431 531 
L 3431 0 
L 469 0 
L 469 531 
Q 828 903 1448 1529 
Q 2069 2156 2228 2338 
Q 2531 2678 2651 2914 
Q 2772 3150 2772 3378 
Q 2772 3750 2511 3984 
Q 2250 4219 1831 4219 
Q 1534 4219 1204 4116 
Q 875 4013 500 3803 
L 500 4441 
Q 881 4594 1212 4672 
Q 1544 4750 1819 4750 
Q 2544 4750 2975 4387 
Q 3406 4025 3406 3419 
Q 3406 3131 3298 2873 
Q 3191 2616 2906 2266 
Q 2828 2175 2409 1742 
Q 1991 1309 1228 531 
z
" transform="scale(0.015625)"/>
       </defs>
       <use xlink:href="#DejaVuSans-31"/>
       <use xlink:href="#DejaVuSans-32" x="63.623047"/>
       <use xlink:href="#DejaVuSans-30" x="127.246094"/>
      </g>
     </g>
    </g>
    <g id="xtick_3">
     <g id="line2d_5">
      <path d="M 375.84 256.32 
L 375.84 34.56 
" clip-path="url(#p982d54107c)" style="fill: none; stroke: #b0b0b0; stroke-width: 0.8; stroke-linecap: square"/>
     </g>
     <g id="line2d_6">
      <g>
       <use xlink:href="#md56d64f5a1" x="375.84" y="256.32" style="stroke: #000000; stroke-width: 0.8"/>
      </g>
     </g>
     <g id="text_3">
      <!-- 140 -->
      <g transform="translate(362.47875 273.957812) scale(0.14 -0.14)">
       <defs>
        <path id="DejaVuSans-34" d="M 2419 4116 
L 825 1625 
L 2419 1625 
L 2419 4116 
z
M 2253 4666 
L 3047 4666 
L 3047 1625 
L 3713 1625 
L 3713 1100 
L 3047 1100 
L 3047 0 
L 2419 0 
L 2419 1100 
L 313 1100 
L 313 1709 
L 2253 4666 
z
" transform="scale(0.015625)"/>
       </defs>
       <use xlink:href="#DejaVuSans-31"/>
       <use xlink:href="#DejaVuSans-34" x="63.623047"/>
       <use xlink:href="#DejaVuSans-30" x="127.246094"/>
      </g>
     </g>
    </g>
    <g id="xtick_4">
     <g id="line2d_7">
      <path d="M 509.76 256.32 
L 509.76 34.56 
" clip-path="url(#p982d54107c)" style="fill: none; stroke: #b0b0b0; stroke-width: 0.8; stroke-linecap: square"/>
     </g>
     <g id="line2d_8">
      <g>
       <use xlink:href="#md56d64f5a1" x="509.76" y="256.32" style="stroke: #000000; stroke-width: 0.8"/>
      </g>
     </g>
     <g id="text_4">
      <!-- 160 -->
      <g transform="translate(496.39875 273.957812) scale(0.14 -0.14)">
       <defs>
        <path id="DejaVuSans-36" d="M 2113 2584 
Q 1688 2584 1439 2293 
Q 1191 2003 1191 1497 
Q 1191 994 1439 701 
Q 1688 409 2113 409 
Q 2538 409 2786 701 
Q 3034 994 3034 1497 
Q 3034 2003 2786 2293 
Q 2538 2584 2113 2584 
z
M 3366 4563 
L 3366 3988 
Q 3128 4100 2886 4159 
Q 2644 4219 2406 4219 
Q 1781 4219 1451 3797 
Q 1122 3375 1075 2522 
Q 1259 2794 1537 2939 
Q 1816 3084 2150 3084 
Q 2853 3084 3261 2657 
Q 3669 2231 3669 1497 
Q 3669 778 3244 343 
Q 2819 -91 2113 -91 
Q 1303 -91 875 529 
Q 447 1150 447 2328 
Q 447 3434 972 4092 
Q 1497 4750 2381 4750 
Q 2619 4750 2861 4703 
Q 3103 4656 3366 4563 
z
" transform="scale(0.015625)"/>
       </defs>
       <use xlink:href="#DejaVuSans-31"/>
       <use xlink:href="#DejaVuSans-36" x="63.623047"/>
       <use xlink:href="#DejaVuSans-30" x="127.246094"/>
      </g>
     </g>
    </g>
    <g id="xtick_5">
     <g id="line2d_9">
      <path d="M 643.68 256.32 
L 643.68 34.56 
" clip-path="url(#p982d54107c)" style="fill: none; stroke: #b0b0b0; stroke-width: 0.8; stroke-linecap: square"/>
     </g>
     <g id="line2d_10">
      <g>
       <use xlink:href="#md56d64f5a1" x="643.68" y="256.32" style="stroke: #000000; stroke-width: 0.8"/>
      </g>
     </g>
     <g id="text_5">
      <!-- 180 -->
      <g transform="translate(630.31875 273.957812) scale(0.14 -0.14)">
       <defs>
        <path id="DejaVuSans-38" d="M 2034 2216 
Q 1584 2216 1326 1975 
Q 1069 1734 1069 1313 
Q 1069 891 1326 650 
Q 1584 409 2034 409 
Q 2484 409 2743 651 
Q 3003 894 3003 1313 
Q 3003 1734 2745 1975 
Q 2488 2216 2034 2216 
z
M 1403 2484 
Q 997 2584 770 2862 
Q 544 3141 544 3541 
Q 544 4100 942 4425 
Q 1341 4750 2034 4750 
Q 2731 4750 3128 4425 
Q 3525 4100 3525 3541 
Q 3525 3141 3298 2862 
Q 3072 2584 2669 2484 
Q 3125 2378 3379 2068 
Q 3634 1759 3634 1313 
Q 3634 634 3220 271 
Q 2806 -91 2034 -91 
Q 1263 -91 848 271 
Q 434 634 434 1313 
Q 434 1759 690 2068 
Q 947 2378 1403 2484 
z
M 1172 3481 
Q 1172 3119 1398 2916 
Q 1625 2713 2034 2713 
Q 2441 2713 2670 2916 
Q 2900 3119 2900 3481 
Q 2900 3844 2670 4047 
Q 2441 4250 2034 4250 
Q 1625 4250 1398 4047 
Q 1172 3844 1172 3481 
z
" transform="scale(0.015625)"/>
       </defs>
       <use xlink:href="#DejaVuSans-31"/>
       <use xlink:href="#DejaVuSans-38" x="63.623047"/>
       <use xlink:href="#DejaVuSans-30" x="127.246094"/>
      </g>
     </g>
    </g>
    <g id="xtick_6">
     <g id="line2d_11">
      <path d="M 777.6 256.32 
L 777.6 34.56 
" clip-path="url(#p982d54107c)" style="fill: none; stroke: #b0b0b0; stroke-width: 0.8; stroke-linecap: square"/>
     </g>
     <g id="line2d_12">
      <g>
       <use xlink:href="#md56d64f5a1" x="777.6" y="256.32" style="stroke: #000000; stroke-width: 0.8"/>
      </g>
     </g>
     <g id="text_6">
      <!-- 200 -->
      <g transform="translate(764.23875 273.957812) scale(0.14 -0.14)">
       <use xlink:href="#DejaVuSans-32"/>
       <use xlink:href="#DejaVuSans-30" x="63.623047"/>
       <use xlink:href="#DejaVuSans-30" x="127.246094"/>
      </g>
     </g>
    </g>
    <g id="text_7">
     <!-- Time (ms) -->
     <g transform="translate(407.521094 291.507187) scale(0.14 -0.14)">
      <defs>
       <path id="DejaVuSans-54" d="M -19 4666 
L 3928 4666 
L 3928 4134 
L 2272 4134 
L 2272 0 
L 1638 0 
L 1638 4134 
L -19 4134 
L -19 4666 
z
" transform="scale(0.015625)"/>
       <path id="DejaVuSans-69" d="M 603 3500 
L 1178 3500 
L 1178 0 
L 603 0 
L 603 3500 
z
M 603 4863 
L 1178 4863 
L 1178 4134 
L 603 4134 
L 603 4863 
z
" transform="scale(0.015625)"/>
       <path id="DejaVuSans-6d" d="M 3328 2828 
Q 3544 3216 3844 3400 
Q 4144 3584 4550 3584 
Q 5097 3584 5394 3201 
Q 5691 2819 5691 2113 
L 5691 0 
L 5113 0 
L 5113 2094 
Q 5113 2597 4934 2840 
Q 4756 3084 4391 3084 
Q 3944 3084 3684 2787 
Q 3425 2491 3425 1978 
L 3425 0 
L 2847 0 
L 2847 2094 
Q 2847 2600 2669 2842 
Q 2491 3084 2119 3084 
Q 1678 3084 1418 2786 
Q 1159 2488 1159 1978 
L 1159 0 
L 581 0 
L 581 3500 
L 1159 3500 
L 1159 2956 
Q 1356 3278 1631 3431 
Q 1906 3584 2284 3584 
Q 2666 3584 2933 3390 
Q 3200 3197 3328 2828 
z
" transform="scale(0.015625)"/>
       <path id="DejaVuSans-65" d="M 3597 1894 
L 3597 1613 
L 953 1613 
Q 991 1019 1311 708 
Q 1631 397 2203 397 
Q 2534 397 2845 478 
Q 3156 559 3463 722 
L 3463 178 
Q 3153 47 2828 -22 
Q 2503 -91 2169 -91 
Q 1331 -91 842 396 
Q 353 884 353 1716 
Q 353 2575 817 3079 
Q 1281 3584 2069 3584 
Q 2775 3584 3186 3129 
Q 3597 2675 3597 1894 
z
M 3022 2063 
Q 3016 2534 2758 2815 
Q 2500 3097 2075 3097 
Q 1594 3097 1305 2825 
Q 1016 2553 972 2059 
L 3022 2063 
z
" transform="scale(0.015625)"/>
       <path id="DejaVuSans-20" transform="scale(0.015625)"/>
       <path id="DejaVuSans-28" d="M 1984 4856 
Q 1566 4138 1362 3434 
Q 1159 2731 1159 2009 
Q 1159 1288 1364 580 
Q 1569 -128 1984 -844 
L 1484 -844 
Q 1016 -109 783 600 
Q 550 1309 550 2009 
Q 550 2706 781 3412 
Q 1013 4119 1484 4856 
L 1984 4856 
z
" transform="scale(0.015625)"/>
       <path id="DejaVuSans-73" d="M 2834 3397 
L 2834 2853 
Q 2591 2978 2328 3040 
Q 2066 3103 1784 3103 
Q 1356 3103 1142 2972 
Q 928 2841 928 2578 
Q 928 2378 1081 2264 
Q 1234 2150 1697 2047 
L 1894 2003 
Q 2506 1872 2764 1633 
Q 3022 1394 3022 966 
Q 3022 478 2636 193 
Q 2250 -91 1575 -91 
Q 1294 -91 989 -36 
Q 684 19 347 128 
L 347 722 
Q 666 556 975 473 
Q 1284 391 1588 391 
Q 1994 391 2212 530 
Q 2431 669 2431 922 
Q 2431 1156 2273 1281 
Q 2116 1406 1581 1522 
L 1381 1569 
Q 847 1681 609 1914 
Q 372 2147 372 2553 
Q 372 3047 722 3315 
Q 1072 3584 1716 3584 
Q 2034 3584 2315 3537 
Q 2597 3491 2834 3397 
z
" transform="scale(0.015625)"/>
       <path id="DejaVuSans-29" d="M 513 4856 
L 1013 4856 
Q 1481 4119 1714 3412 
Q 1947 2706 1947 2009 
Q 1947 1309 1714 600 
Q 1481 -109 1013 -844 
L 513 -844 
Q 928 -128 1133 580 
Q 1338 1288 1338 2009 
Q 1338 2731 1133 3434 
Q 928 4138 513 4856 
z
" transform="scale(0.015625)"/>
      </defs>
      <use xlink:href="#DejaVuSans-54"/>
      <use xlink:href="#DejaVuSans-69" x="57.958984"/>
      <use xlink:href="#DejaVuSans-6d" x="85.742188"/>
      <use xlink:href="#DejaVuSans-65" x="183.154297"/>
      <use xlink:href="#DejaVuSans-20" x="244.677734"/>
      <use xlink:href="#DejaVuSans-28" x="276.464844"/>
      <use xlink:href="#DejaVuSans-6d" x="315.478516"/>
      <use xlink:href="#DejaVuSans-73" x="412.890625"/>
      <use xlink:href="#DejaVuSans-29" x="464.990234"/>
     </g>
    </g>
   </g>
   <g id="matplotlib.axis_2">
    <g id="ytick_1">
     <g id="line2d_13">
      <path d="M 108 225.188244 
L 777.6 225.188244 
" clip-path="url(#p982d54107c)" style="fill: none; stroke: #b0b0b0; stroke-width: 0.8; stroke-linecap: square"/>
     </g>
     <g id="line2d_14">
      <defs>
       <path id="mdbd1d87661" d="M 0 0 
L -3.5 0 
" style="stroke: #000000; stroke-width: 0.8"/>
      </defs>
      <g>
       <use xlink:href="#mdbd1d87661" x="108" y="225.188244" style="stroke: #000000; stroke-width: 0.8"/>
      </g>
     </g>
     <g id="text_8">
      <!-- −60 -->
      <g transform="translate(71.453437 230.50715) scale(0.14 -0.14)">
       <defs>
        <path id="DejaVuSans-2212" d="M 678 2272 
L 4684 2272 
L 4684 1741 
L 678 1741 
L 678 2272 
z
" transform="scale(0.015625)"/>
       </defs>
       <use xlink:href="#DejaVuSans-2212"/>
       <use xlink:href="#DejaVuSans-36" x="83.789062"/>
       <use xlink:href="#DejaVuSans-30" x="147.412109"/>
      </g>
     </g>
    </g>
    <g id="ytick_2">
     <g id="line2d_15">
      <path d="M 108 183.151819 
L 777.6 183.151819 
" clip-path="url(#p982d54107c)" style="fill: none; stroke: #b0b0b0; stroke-width: 0.8; stroke-linecap: square"/>
     </g>
     <g id="line2d_16">
      <g>
       <use xlink:href="#mdbd1d87661" x="108" y="183.151819" style="stroke: #000000; stroke-width: 0.8"/>
      </g>
     </g>
     <g id="text_9">
      <!-- −40 -->
      <g transform="translate(71.453437 188.470725) scale(0.14 -0.14)">
       <use xlink:href="#DejaVuSans-2212"/>
       <use xlink:href="#DejaVuSans-34" x="83.789062"/>
       <use xlink:href="#DejaVuSans-30" x="147.412109"/>
      </g>
     </g>
    </g>
    <g id="ytick_3">
     <g id="line2d_17">
      <path d="M 108 141.115394 
L 777.6 141.115394 
" clip-path="url(#p982d54107c)" style="fill: none; stroke: #b0b0b0; stroke-width: 0.8; stroke-linecap: square"/>
     </g>
     <g id="line2d_18">
      <g>
       <use xlink:href="#mdbd1d87661" x="108" y="141.115394" style="stroke: #000000; stroke-width: 0.8"/>
      </g>
     </g>
     <g id="text_10">
      <!-- −20 -->
      <g transform="translate(71.453437 146.434301) scale(0.14 -0.14)">
       <use xlink:href="#DejaVuSans-2212"/>
       <use xlink:href="#DejaVuSans-32" x="83.789062"/>
       <use xlink:href="#DejaVuSans-30" x="147.412109"/>
      </g>
     </g>
    </g>
    <g id="ytick_4">
     <g id="line2d_19">
      <path d="M 108 99.07897 
L 777.6 99.07897 
" clip-path="url(#p982d54107c)" style="fill: none; stroke: #b0b0b0; stroke-width: 0.8; stroke-linecap: square"/>
     </g>
     <g id="line2d_20">
      <g>
       <use xlink:href="#mdbd1d87661" x="108" y="99.07897" style="stroke: #000000; stroke-width: 0.8"/>
      </g>
     </g>
     <g id="text_11">
      <!-- 0 -->
      <g transform="translate(92.0925 104.397876) scale(0.14 -0.14)">
       <use xlink:href="#DejaVuSans-30"/>
      </g>
     </g>
    </g>
    <g id="ytick_5">
     <g id="line2d_21">
      <path d="M 108 57.042545 
L 777.6 57.042545 
" clip-path="url(#p982d54107c)" style="fill: none; stroke: #b0b0b0; stroke-width: 0.8; stroke-linecap: square"/>
     </g>
     <g id="line2d_22">
      <g>
       <use xlink:href="#mdbd1d87661" x="108" y="57.042545" style="stroke: #000000; stroke-width: 0.8"/>
      </g>
     </g>
     <g id="text_12">
      <!-- 20 -->
      <g transform="translate(83.185 62.361451) scale(0.14 -0.14)">
       <use xlink:href="#DejaVuSans-32"/>
       <use xlink:href="#DejaVuSans-30" x="63.623047"/>
      </g>
     </g>
    </g>
    <g id="text_13">
     <!-- $V_{m}$ (mV) -->
     <g transform="translate(64.541875 174.49) rotate(-90) scale(0.14 -0.14)">
      <defs>
       <path id="DejaVuSans-Oblique-56" d="M 1319 0 
L 500 4666 
L 1119 4666 
L 1797 653 
L 4063 4666 
L 4750 4666 
L 2053 0 
L 1319 0 
z
" transform="scale(0.015625)"/>
       <path id="DejaVuSans-Oblique-6d" d="M 5747 2113 
L 5338 0 
L 4763 0 
L 5166 2094 
Q 5191 2228 5203 2325 
Q 5216 2422 5216 2491 
Q 5216 2772 5059 2928 
Q 4903 3084 4622 3084 
Q 4203 3084 3875 2770 
Q 3547 2456 3450 1953 
L 3066 0 
L 2491 0 
L 2900 2094 
Q 2925 2209 2937 2307 
Q 2950 2406 2950 2484 
Q 2950 2769 2794 2926 
Q 2638 3084 2363 3084 
Q 1938 3084 1609 2770 
Q 1281 2456 1184 1953 
L 800 0 
L 225 0 
L 909 3500 
L 1484 3500 
L 1375 2956 
Q 1609 3263 1923 3423 
Q 2238 3584 2597 3584 
Q 2978 3584 3223 3384 
Q 3469 3184 3519 2828 
Q 3781 3197 4126 3390 
Q 4472 3584 4856 3584 
Q 5306 3584 5551 3325 
Q 5797 3066 5797 2591 
Q 5797 2488 5784 2364 
Q 5772 2241 5747 2113 
z
" transform="scale(0.015625)"/>
       <path id="DejaVuSans-56" d="M 1831 0 
L 50 4666 
L 709 4666 
L 2188 738 
L 3669 4666 
L 4325 4666 
L 2547 0 
L 1831 0 
z
" transform="scale(0.015625)"/>
      </defs>
      <use xlink:href="#DejaVuSans-Oblique-56" transform="translate(0 0.125)"/>
      <use xlink:href="#DejaVuSans-Oblique-6d" transform="translate(68.408203 -16.28125) scale(0.7)"/>
      <use xlink:href="#DejaVuSans-20" transform="translate(139.331055 0.125)"/>
      <use xlink:href="#DejaVuSans-28" transform="translate(171.118164 0.125)"/>
      <use xlink:href="#DejaVuSans-6d" transform="translate(210.131836 0.125)"/>
      <use xlink:href="#DejaVuSans-56" transform="translate(307.543945 0.125)"/>
      <use xlink:href="#DejaVuSans-29" transform="translate(375.952148 0.125)"/>
     </g>
    </g>
   </g>
   <g id="line2d_23">
    <path d="M 108 219.410082 
L 109.3392 220.089464 
L 110.6784 220.535596 
L 111.348 220.702764 
L 112.6872 221.659842 
L 114.0264 222.132077 
L 116.0352 223.723543 
L 118.044 226.207826 
L 118.7136 227.323685 
L 119.3832 228.191018 
L 120.0528 228.749449 
L 120.7224 229.789859 
L 122.7312 232.102709 
L 124.0704 232.912113 
L 125.4096 233.447639 
L 127.4184 233.979195 
L 129.4272 234.289728 
L 132.1056 234.451446 
L 134.1144 234.421154 
L 136.1232 235.227502 
L 136.7928 236.036541 
L 137.4624 236.606311 
L 140.1408 237.793758 
L 141.48 238.071469 
L 144.1584 238.447259 
L 145.4976 238.720473 
L 147.5064 238.727712 
L 148.176 238.6869 
L 149.5152 239.030755 
L 150.8544 239.057832 
L 153.5328 238.790544 
L 156.8808 238.176347 
L 160.8984 237.162361 
L 164.916 235.912169 
L 168.9336 234.46689 
L 170.2728 233.811602 
L 180.9864 227.702262 
L 187.6824 223.865848 
L 194.3784 219.759931 
L 198.396 217.217518 
L 199.7352 217.187411 
L 201.0744 216.743511 
L 203.7528 215.501839 
L 205.7616 214.477603 
L 207.1008 214.628714 
L 208.44 214.339128 
L 209.7792 214.730693 
L 211.1184 214.624024 
L 213.1272 214.132694 
L 216.4752 213.004711 
L 220.4928 211.399655 
L 225.18 209.30002 
L 225.8496 208.979429 
L 227.1888 209.277794 
L 228.528 210.975775 
L 229.1976 211.367379 
L 230.5368 211.692461 
L 231.876 211.745685 
L 232.5456 211.715819 
L 234.5544 213.063213 
L 235.8936 215.028646 
L 236.5632 216.186082 
L 239.2416 219.468141 
L 239.9112 220.521593 
L 240.5808 222.033638 
L 241.2504 223.146364 
L 241.92 223.863736 
L 243.2592 224.80984 
L 244.5984 225.446241 
L 245.9376 226.53289 
L 246.6072 226.872705 
L 247.2768 227.46909 
L 247.9464 228.281445 
L 249.9552 230.144875 
L 251.2944 231.374338 
L 252.6336 232.034285 
L 253.9728 232.459204 
L 255.312 233.810504 
L 255.9816 234.462162 
L 256.6512 234.949276 
L 257.9904 235.516228 
L 259.9992 235.982409 
L 260.6688 236.080258 
L 262.008 236.703367 
L 263.3472 236.969269 
L 264.6864 237.084733 
L 267.3648 238.243537 
L 268.704 238.472064 
L 270.7128 238.536798 
L 272.052 238.950433 
L 273.3912 239.039338 
L 275.4 238.946045 
L 278.0784 238.614886 
L 281.4264 237.973223 
L 282.096 237.819831 
L 283.4352 237.984436 
L 284.7744 237.847721 
L 287.4528 237.288054 
L 290.8008 236.361665 
L 291.4704 236.15472 
L 292.8096 236.246886 
L 294.1488 236.03094 
L 296.8272 235.313156 
L 300.8448 233.963039 
L 303.5232 232.901894 
L 305.532 231.738735 
L 310.2192 228.965384 
L 321.6024 222.403854 
L 329.6376 217.4069 
L 343.6992 208.381287 
L 345.0384 207.477078 
L 346.3776 207.538677 
L 347.7168 207.191826 
L 349.7256 206.320761 
L 352.404 204.841961 
L 354.4128 203.414567 
L 357.0912 205.592935 
L 357.7608 206.238235 
L 358.4304 207.150314 
L 359.1 208.374072 
L 359.7696 209.293092 
L 360.4392 209.885262 
L 361.7784 210.583349 
L 363.1176 212.650399 
L 363.7872 213.664751 
L 364.4568 214.42258 
L 365.1264 214.920893 
L 365.796 215.280347 
L 367.1352 216.544424 
L 367.8048 216.915716 
L 369.144 218.145868 
L 370.4832 218.764192 
L 371.8224 219.121897 
L 372.492 219.245685 
L 373.8312 220.860665 
L 374.5008 222.414008 
L 375.1704 223.610433 
L 375.84 224.334584 
L 377.1792 225.235861 
L 378.5184 225.817877 
L 379.188 226.040001 
L 379.8576 226.57097 
L 381.8664 228.870399 
L 382.536 229.29189 
L 383.8752 230.429859 
L 384.5448 230.778585 
L 386.5536 232.422166 
L 387.2232 232.8985 
L 388.5624 233.463143 
L 391.2408 234.330049 
L 391.9104 234.923983 
L 392.58 235.341443 
L 393.9192 235.776072 
L 395.928 236.07792 
L 399.276 236.429785 
L 402.624 237.340839 
L 403.2936 237.388021 
L 405.972 238.473117 
L 407.3112 238.655637 
L 407.9808 238.678602 
L 409.32 239.116276 
L 410.6592 239.215613 
L 412.668 239.126329 
L 415.3464 238.790829 
L 418.6944 238.138001 
L 422.712 237.094438 
L 426.7296 235.821988 
L 428.0688 235.885369 
L 429.408 235.64162 
L 432.0864 234.872791 
L 436.104 233.45724 
L 437.4432 232.896204 
L 439.452 231.733761 
L 444.1392 228.96 
L 455.5224 222.39479 
L 463.5576 217.396587 
L 472.932 211.428769 
L 474.2712 211.484357 
L 475.6104 211.107067 
L 476.9496 210.559768 
L 478.2888 210.866062 
L 479.628 210.69824 
L 481.6368 210.115596 
L 483.6456 209.368806 
L 484.9848 209.756145 
L 486.324 210.603288 
L 487.6632 210.801552 
L 489.0024 210.730647 
L 490.3416 212.299846 
L 491.0112 212.677189 
L 491.6808 213.345147 
L 492.3504 214.297973 
L 493.02 214.968337 
L 493.6896 215.374892 
L 494.3592 216.073528 
L 495.0288 217.039303 
L 495.6984 217.729452 
L 497.7072 219.107332 
L 498.3768 219.617398 
L 499.716 220.178989 
L 501.0552 220.490201 
L 502.3944 221.382341 
L 503.7336 221.784839 
L 504.4032 221.900334 
L 505.7424 222.735354 
L 507.0816 223.096621 
L 507.7512 223.1956 
L 508.4208 223.63464 
L 510.4296 226.926443 
L 511.0992 227.668707 
L 512.4384 228.518034 
L 513.7776 229.031483 
L 515.1168 229.958484 
L 515.7864 230.854867 
L 516.456 231.556457 
L 517.1256 231.991352 
L 519.804 235.491548 
L 521.1432 236.283159 
L 522.4824 236.782129 
L 523.152 236.969424 
L 523.8216 237.38636 
L 524.4912 237.980139 
L 526.5 239.316114 
L 527.8392 240.193544 
L 529.1784 240.619144 
L 529.848 240.755122 
L 531.1872 241.360812 
L 532.5264 241.626372 
L 534.5352 241.772972 
L 537.2136 241.720605 
L 540.5616 241.378232 
L 543.9096 240.79746 
L 547.9272 239.845811 
L 551.9448 238.662383 
L 556.632 237.035389 
L 561.3192 235.182837 
L 566.676 232.831186 
L 571.3632 230.555333 
L 574.0416 228.727621 
L 578.7288 225.578948 
L 597.4776 213.357841 
L 602.1648 210.239702 
L 603.504 210.282993 
L 604.8432 209.892323 
L 606.852 209.003775 
L 610.2 207.24649 
L 613.548 205.177274 
L 614.8872 205.282879 
L 616.2264 205.033028 
L 617.5656 204.543286 
L 619.5744 203.512933 
L 620.9136 202.622053 
L 622.2528 201.389462 
L 622.9224 200.58354 
L 623.592 200.064052 
L 624.2616 199.347471 
L 624.9312 198.077461 
L 625.6008 195.618966 
L 626.2704 184.42623 
L 626.94 123.692161 
L 627.6096 51.180895 
L 628.2792 68.633874 
L 628.9488 89.759656 
L 630.288 117.322361 
L 631.6272 142.385529 
L 632.9664 162.880226 
L 634.9752 191.34346 
L 635.6448 198.941761 
L 636.3144 204.494076 
L 636.984 208.110666 
L 637.6536 210.54535 
L 638.9928 216.068058 
L 639.6624 217.869798 
L 641.6712 221.606692 
L 643.0104 223.402283 
L 643.68 224.526879 
L 644.3496 225.366151 
L 645.0192 225.962407 
L 646.3584 227.377062 
L 648.3672 228.76719 
L 649.0368 229.556238 
L 649.7064 230.128612 
L 653.724 232.529541 
L 654.3936 233.21534 
L 658.4112 236.198799 
L 660.42 238.215095 
L 661.7592 238.822179 
L 663.768 239.317382 
L 665.7768 239.565538 
L 667.7856 239.64864 
L 669.1248 240.076778 
L 670.464 240.195054 
L 673.1424 240.112125 
L 676.4904 239.714441 
L 679.8384 239.084893 
L 683.856 238.084462 
L 687.8736 236.860413 
L 692.5608 235.193511 
L 693.9 234.675419 
L 695.2392 234.692205 
L 696.5784 234.397769 
L 699.2568 233.529005 
L 703.2744 231.978566 
L 705.2832 231.090481 
L 707.292 229.857313 
L 711.9792 226.926647 
L 726.0408 218.380561 
L 742.7808 207.841996 
L 744.12 207.982951 
L 745.4592 207.685959 
L 747.468 206.92237 
L 748.8072 207.318258 
L 750.1464 207.252285 
L 752.1552 206.784812 
L 753.4944 207.346446 
L 754.8336 207.427353 
L 756.1728 207.275334 
L 757.512 207.974187 
L 758.8512 208.161558 
L 760.1904 208.103432 
L 761.5296 208.863655 
L 762.1992 209.026163 
L 763.5384 210.021682 
L 764.8776 210.402062 
L 765.5472 210.476025 
L 766.8864 211.384257 
L 768.2256 211.730451 
L 768.8952 211.800638 
L 770.2344 213.528811 
L 770.904 213.969075 
L 771.5736 214.249073 
L 774.252 216.679924 
L 775.5912 217.285518 
L 776.9304 217.610571 
L 777.6 218.128382 
L 777.6 218.128382 
" clip-path="url(#p982d54107c)" style="fill: none; stroke: #000000; stroke-width: 1.5; stroke-linecap: square"/>
   </g>
   <g id="line2d_24">
    <path d="M 108 163.353154 
L 110.6784 169.299223 
L 114.0264 177.260588 
L 118.044 187.309104 
L 123.4008 201.06702 
L 125.4096 205.501741 
L 127.4184 209.237053 
L 129.4272 212.341105 
L 131.436 214.908636 
L 133.4448 217.022298 
L 136.1232 219.353412 
L 142.8192 225.051049 
L 145.4976 226.78084 
L 147.5064 227.891708 
L 150.8544 229.400831 
L 153.5328 230.336233 
L 156.2112 230.959828 
L 158.8896 231.307196 
L 161.568 231.415804 
L 164.2464 231.316464 
L 167.5944 230.938494 
L 168.9336 230.71704 
L 169.6032 199.963058 
L 170.2728 186.117521 
L 170.9424 179.332914 
L 171.612 175.296121 
L 172.2816 172.659751 
L 172.9512 170.896817 
L 173.6208 169.731678 
L 174.2904 168.992423 
L 174.96 168.55654 
L 175.6296 168.332702 
L 176.9688 168.261647 
L 180.3168 168.436255 
L 181.656 168.194736 
L 182.9952 167.657102 
L 184.3344 166.799665 
L 185.6736 165.627487 
L 187.0128 164.173089 
L 189.0216 161.601575 
L 193.7088 155.329151 
L 195.7176 153.103842 
L 197.7264 151.283435 
L 199.0656 150.298048 
L 200.4048 149.561205 
L 202.4136 148.790683 
L 205.092 148.083021 
L 207.1008 147.755941 
L 209.1096 147.718767 
L 211.1184 147.964646 
L 220.4928 149.465155 
L 227.1888 150.39408 
L 228.528 150.88852 
L 229.8672 151.678322 
L 233.2152 154.017225 
L 234.5544 155.0948 
L 235.8936 156.462027 
L 237.2328 158.259835 
L 238.572 160.455262 
L 239.9112 163.019723 
L 241.2504 166.101481 
L 243.2592 171.540968 
L 252.6336 198.277716 
L 254.6424 202.921265 
L 257.3208 208.423371 
L 259.3296 211.987564 
L 261.3384 214.98297 
L 263.3472 217.57906 
L 265.356 219.794071 
L 268.0344 222.405059 
L 270.0432 224.116136 
L 272.7216 226.018143 
L 274.7304 227.229511 
L 276.7392 228.206353 
L 278.748 228.961623 
L 280.7568 229.519973 
L 284.1048 230.156324 
L 286.7832 230.535706 
L 289.4616 230.68632 
L 293.4792 230.602357 
L 296.8272 230.458226 
L 300.1752 230.060628 
L 302.8536 229.57 
L 303.5232 199.028534 
L 304.1928 185.238326 
L 304.8624 178.440381 
L 305.532 174.341989 
L 306.2016 171.62448 
L 306.8712 169.770517 
L 307.5408 168.509686 
L 308.2104 167.670213 
L 308.88 167.130455 
L 309.5496 166.800305 
L 310.8888 166.501841 
L 313.5672 166.197371 
L 314.9064 165.814419 
L 316.2456 165.160268 
L 317.5848 164.210965 
L 318.924 162.981329 
L 320.9328 160.720405 
L 326.9592 153.40527 
L 328.968 151.471394 
L 330.9768 149.889564 
L 332.9856 148.621493 
L 334.9944 147.611675 
L 337.6728 146.573255 
L 340.3512 145.792409 
L 343.6992 145.05486 
L 346.3776 144.649906 
L 349.056 144.639935 
L 353.7432 144.684014 
L 355.0824 144.664326 
L 356.4216 144.853567 
L 357.7608 145.315537 
L 359.1 146.07461 
L 361.1088 147.707785 
L 363.1176 149.588996 
L 365.1264 151.927339 
L 367.8048 155.465377 
L 369.8136 158.49195 
L 372.492 162.957417 
L 373.8312 165.443105 
L 375.1704 168.431448 
L 377.1792 173.804054 
L 385.2144 196.278532 
L 387.2232 201.13324 
L 389.232 205.43264 
L 391.2408 209.073552 
L 393.9192 213.314101 
L 395.928 216.01334 
L 397.9368 218.257737 
L 399.9456 220.141703 
L 402.624 222.376705 
L 405.972 224.834867 
L 408.6504 226.593548 
L 411.3288 228.107989 
L 413.3376 229.019207 
L 415.3464 229.723756 
L 417.3552 230.242099 
L 420.0336 230.678726 
L 422.712 230.861281 
L 425.3904 230.822943 
L 432.0864 230.33449 
L 435.4344 229.835726 
L 436.7736 229.571523 
L 437.4432 199.028092 
L 438.1128 185.23395 
L 438.7824 178.432469 
L 439.452 174.329691 
L 440.1216 171.607203 
L 440.7912 169.748024 
L 441.4608 168.482016 
L 442.1304 167.637484 
L 442.8 167.092833 
L 443.4696 166.757856 
L 444.8088 166.449916 
L 447.4872 166.126894 
L 448.8264 165.734769 
L 450.1656 165.071845 
L 451.5048 164.114844 
L 452.844 162.879502 
L 454.8528 160.615425 
L 460.8792 153.329517 
L 462.888 151.409228 
L 464.8968 149.839095 
L 466.9056 148.580169 
L 468.9144 147.577258 
L 471.5928 146.545208 
L 473.6016 145.961404 
L 475.6104 145.678643 
L 477.6192 145.584597 
L 479.628 145.725696 
L 484.9848 146.404556 
L 486.324 146.768909 
L 489.0024 147.813732 
L 490.3416 148.47448 
L 491.6808 149.333923 
L 493.02 150.422575 
L 495.0288 152.407843 
L 497.0376 154.831613 
L 499.0464 157.571041 
L 501.7248 161.624894 
L 503.7336 165.074891 
L 505.7424 168.908784 
L 508.4208 174.632199 
L 509.76 177.830229 
L 511.7688 183.320769 
L 514.4472 190.671374 
L 517.7952 199.045984 
L 521.1432 206.872426 
L 523.152 210.895362 
L 525.8304 215.492505 
L 528.5088 219.589146 
L 530.5176 222.247793 
L 532.5264 224.574685 
L 534.5352 226.550489 
L 536.544 228.177762 
L 538.5528 229.496454 
L 540.5616 230.546049 
L 542.5704 231.36005 
L 544.5792 231.966666 
L 546.588 232.389914 
L 549.2664 232.70429 
L 551.9448 232.770523 
L 554.6232 232.622968 
L 557.9712 232.180941 
L 561.3192 231.494764 
L 564.6672 230.60092 
L 568.6848 229.295153 
L 570.6936 228.558912 
L 571.3632 198.13341 
L 572.0328 184.326252 
L 572.7024 177.439243 
L 573.372 173.190442 
L 574.0416 170.288788 
L 574.7112 168.233731 
L 575.3808 166.760188 
L 576.0504 165.699856 
L 576.72 164.930907 
L 578.0592 163.932922 
L 582.7464 161.35407 
L 584.0856 160.234295 
L 586.0944 158.177736 
L 592.7904 150.763268 
L 594.7992 149.033443 
L 596.808 147.605471 
L 598.8168 146.441132 
L 600.8256 145.493354 
L 602.8344 144.732693 
L 604.8432 144.296424 
L 608.8608 143.847238 
L 614.8872 143.329048 
L 617.5656 143.451619 
L 620.9136 143.598014 
L 622.9224 143.506885 
L 624.9312 143.202981 
L 625.6008 142.977033 
L 626.2704 142.309287 
L 626.94 139.192153 
L 628.2792 124.919499 
L 628.9488 119.632065 
L 629.6184 116.545313 
L 630.288 115.204962 
L 630.9576 115.139033 
L 631.6272 115.957396 
L 632.2968 117.364974 
L 633.636 121.227142 
L 634.9752 125.983199 
L 638.3232 138.724938 
L 640.332 145.359025 
L 646.3584 164.265945 
L 649.0368 173.908043 
L 653.0544 188.828134 
L 655.0632 195.482815 
L 657.072 201.417535 
L 659.0808 206.589738 
L 661.0896 211.244026 
L 663.0984 215.244339 
L 665.1072 218.538213 
L 667.116 221.222732 
L 669.1248 223.438778 
L 671.1336 225.338048 
L 673.1424 226.898148 
L 675.1512 228.142286 
L 677.16 229.112022 
L 679.1688 229.844691 
L 681.1776 230.371319 
L 683.856 230.796886 
L 686.5344 230.951431 
L 689.2128 230.875089 
L 691.8912 230.600466 
L 699.2568 229.445798 
L 702.6048 228.72286 
L 704.6136 228.193581 
L 705.2832 197.891387 
L 705.9528 184.158811 
L 706.6224 177.337087 
L 707.292 173.16744 
L 707.9616 170.359875 
L 708.6312 168.408673 
L 709.3008 167.044155 
L 709.9704 166.094913 
L 710.64 165.437755 
L 711.9792 164.659157 
L 715.9968 163.174434 
L 717.336 162.351898 
L 718.6752 161.274774 
L 720.684 159.250194 
L 727.38 151.765796 
L 729.3888 150.00194 
L 731.3976 148.549333 
L 733.4064 147.372655 
L 735.4152 146.423565 
L 738.0936 145.436593 
L 740.772 144.686016 
L 743.4504 144.124885 
L 745.4592 143.990232 
L 748.1376 144.030794 
L 750.1464 144.27978 
L 753.4944 144.905959 
L 756.8424 145.897819 
L 759.5208 146.96715 
L 762.1992 148.211938 
L 764.208 149.440546 
L 766.8864 151.348697 
L 769.5648 153.575351 
L 770.904 154.949398 
L 772.9128 157.364056 
L 774.9216 160.280481 
L 777.6 164.721867 
L 777.6 164.721867 
" clip-path="url(#p982d54107c)" style="fill: none; stroke: #4169e1; stroke-width: 1.5; stroke-linecap: square"/>
   </g>
   <g id="patch_3">
    <path d="M 108 256.32 
L 108 34.56 
" style="fill: none; stroke: #000000; stroke-width: 0.8; stroke-linejoin: miter; stroke-linecap: square"/>
   </g>
   <g id="patch_4">
    <path d="M 777.6 256.32 
L 777.6 34.56 
" style="fill: none; stroke: #000000; stroke-width: 0.8; stroke-linejoin: miter; stroke-linecap: square"/>
   </g>
   <g id="patch_5">
    <path d="M 108 256.32 
L 777.6 256.32 
" style="fill: none; stroke: #000000; stroke-width: 0.8; stroke-linejoin: miter; stroke-linecap: square"/>
   </g>
   <g id="patch_6">
    <path d="M 108 34.56 
L 777.6 34.56 
" style="fill: none; stroke: #000000; stroke-width: 0.8; stroke-linejoin: miter; stroke-linecap: square"/>
   </g>
   <g id="legend_1">
    <g id="patch_7">
     <path d="M 695.098438 71.91625 
L 770.6 71.91625 
Q 772.6 71.91625 772.6 69.91625 
L 772.6 41.56 
Q 772.6 39.56 770.6 39.56 
L 695.098438 39.56 
Q 693.098438 39.56 693.098438 41.56 
L 693.098438 69.91625 
Q 693.098438 71.91625 695.098438 71.91625 
z
" style="fill: #ffffff; opacity: 0.8; stroke: #cccccc; stroke-linejoin: miter"/>
    </g>
    <g id="line2d_25">
     <path d="M 697.098438 47.658437 
L 707.098438 47.658437 
L 717.098438 47.658437 
" style="fill: none; stroke: #000000; stroke-width: 1.5; stroke-linecap: square"/>
    </g>
    <g id="text_14">
     <!-- Soma -->
     <g transform="translate(725.098438 51.158437) scale(0.1 -0.1)">
      <defs>
       <path id="DejaVuSans-53" d="M 3425 4513 
L 3425 3897 
Q 3066 4069 2747 4153 
Q 2428 4238 2131 4238 
Q 1616 4238 1336 4038 
Q 1056 3838 1056 3469 
Q 1056 3159 1242 3001 
Q 1428 2844 1947 2747 
L 2328 2669 
Q 3034 2534 3370 2195 
Q 3706 1856 3706 1288 
Q 3706 609 3251 259 
Q 2797 -91 1919 -91 
Q 1588 -91 1214 -16 
Q 841 59 441 206 
L 441 856 
Q 825 641 1194 531 
Q 1563 422 1919 422 
Q 2459 422 2753 634 
Q 3047 847 3047 1241 
Q 3047 1584 2836 1778 
Q 2625 1972 2144 2069 
L 1759 2144 
Q 1053 2284 737 2584 
Q 422 2884 422 3419 
Q 422 4038 858 4394 
Q 1294 4750 2059 4750 
Q 2388 4750 2728 4690 
Q 3069 4631 3425 4513 
z
" transform="scale(0.015625)"/>
       <path id="DejaVuSans-6f" d="M 1959 3097 
Q 1497 3097 1228 2736 
Q 959 2375 959 1747 
Q 959 1119 1226 758 
Q 1494 397 1959 397 
Q 2419 397 2687 759 
Q 2956 1122 2956 1747 
Q 2956 2369 2687 2733 
Q 2419 3097 1959 3097 
z
M 1959 3584 
Q 2709 3584 3137 3096 
Q 3566 2609 3566 1747 
Q 3566 888 3137 398 
Q 2709 -91 1959 -91 
Q 1206 -91 779 398 
Q 353 888 353 1747 
Q 353 2609 779 3096 
Q 1206 3584 1959 3584 
z
" transform="scale(0.015625)"/>
       <path id="DejaVuSans-61" d="M 2194 1759 
Q 1497 1759 1228 1600 
Q 959 1441 959 1056 
Q 959 750 1161 570 
Q 1363 391 1709 391 
Q 2188 391 2477 730 
Q 2766 1069 2766 1631 
L 2766 1759 
L 2194 1759 
z
M 3341 1997 
L 3341 0 
L 2766 0 
L 2766 531 
Q 2569 213 2275 61 
Q 1981 -91 1556 -91 
Q 1019 -91 701 211 
Q 384 513 384 1019 
Q 384 1609 779 1909 
Q 1175 2209 1959 2209 
L 2766 2209 
L 2766 2266 
Q 2766 2663 2505 2880 
Q 2244 3097 1772 3097 
Q 1472 3097 1187 3025 
Q 903 2953 641 2809 
L 641 3341 
Q 956 3463 1253 3523 
Q 1550 3584 1831 3584 
Q 2591 3584 2966 3190 
Q 3341 2797 3341 1997 
z
" transform="scale(0.015625)"/>
      </defs>
      <use xlink:href="#DejaVuSans-53"/>
      <use xlink:href="#DejaVuSans-6f" x="63.476562"/>
      <use xlink:href="#DejaVuSans-6d" x="124.658203"/>
      <use xlink:href="#DejaVuSans-61" x="222.070312"/>
     </g>
    </g>
    <g id="line2d_26">
     <path d="M 697.098438 62.336562 
L 707.098438 62.336562 
L 717.098438 62.336562 
" style="fill: none; stroke: #4169e1; stroke-width: 1.5; stroke-linecap: square"/>
    </g>
    <g id="text_15">
     <!-- Dendrite -->
     <g transform="translate(725.098438 65.836562) scale(0.1 -0.1)">
      <defs>
       <path id="DejaVuSans-44" d="M 1259 4147 
L 1259 519 
L 2022 519 
Q 2988 519 3436 956 
Q 3884 1394 3884 2338 
Q 3884 3275 3436 3711 
Q 2988 4147 2022 4147 
L 1259 4147 
z
M 628 4666 
L 1925 4666 
Q 3281 4666 3915 4102 
Q 4550 3538 4550 2338 
Q 4550 1131 3912 565 
Q 3275 0 1925 0 
L 628 0 
L 628 4666 
z
" transform="scale(0.015625)"/>
       <path id="DejaVuSans-6e" d="M 3513 2113 
L 3513 0 
L 2938 0 
L 2938 2094 
Q 2938 2591 2744 2837 
Q 2550 3084 2163 3084 
Q 1697 3084 1428 2787 
Q 1159 2491 1159 1978 
L 1159 0 
L 581 0 
L 581 3500 
L 1159 3500 
L 1159 2956 
Q 1366 3272 1645 3428 
Q 1925 3584 2291 3584 
Q 2894 3584 3203 3211 
Q 3513 2838 3513 2113 
z
" transform="scale(0.015625)"/>
       <path id="DejaVuSans-64" d="M 2906 2969 
L 2906 4863 
L 3481 4863 
L 3481 0 
L 2906 0 
L 2906 525 
Q 2725 213 2448 61 
Q 2172 -91 1784 -91 
Q 1150 -91 751 415 
Q 353 922 353 1747 
Q 353 2572 751 3078 
Q 1150 3584 1784 3584 
Q 2172 3584 2448 3432 
Q 2725 3281 2906 2969 
z
M 947 1747 
Q 947 1113 1208 752 
Q 1469 391 1925 391 
Q 2381 391 2643 752 
Q 2906 1113 2906 1747 
Q 2906 2381 2643 2742 
Q 2381 3103 1925 3103 
Q 1469 3103 1208 2742 
Q 947 2381 947 1747 
z
" transform="scale(0.015625)"/>
       <path id="DejaVuSans-72" d="M 2631 2963 
Q 2534 3019 2420 3045 
Q 2306 3072 2169 3072 
Q 1681 3072 1420 2755 
Q 1159 2438 1159 1844 
L 1159 0 
L 581 0 
L 581 3500 
L 1159 3500 
L 1159 2956 
Q 1341 3275 1631 3429 
Q 1922 3584 2338 3584 
Q 2397 3584 2469 3576 
Q 2541 3569 2628 3553 
L 2631 2963 
z
" transform="scale(0.015625)"/>
       <path id="DejaVuSans-74" d="M 1172 4494 
L 1172 3500 
L 2356 3500 
L 2356 3053 
L 1172 3053 
L 1172 1153 
Q 1172 725 1289 603 
Q 1406 481 1766 481 
L 2356 481 
L 2356 0 
L 1766 0 
Q 1100 0 847 248 
Q 594 497 594 1153 
L 594 3053 
L 172 3053 
L 172 3500 
L 594 3500 
L 594 4494 
L 1172 4494 
z
" transform="scale(0.015625)"/>
      </defs>
      <use xlink:href="#DejaVuSans-44"/>
      <use xlink:href="#DejaVuSans-65" x="77.001953"/>
      <use xlink:href="#DejaVuSans-6e" x="138.525391"/>
      <use xlink:href="#DejaVuSans-64" x="201.904297"/>
      <use xlink:href="#DejaVuSans-72" x="265.380859"/>
      <use xlink:href="#DejaVuSans-69" x="306.494141"/>
      <use xlink:href="#DejaVuSans-74" x="334.277344"/>
      <use xlink:href="#DejaVuSans-65" x="373.486328"/>
     </g>
    </g>
   </g>
  </g>
 </g>
 <defs>
  <clipPath id="p982d54107c">
   <rect x="108" y="34.56" width="669.6" height="221.76"/>
  </clipPath>
 </defs>
</svg>
