<?xml version="1.0" encoding="utf-8" standalone="no"?>
<!DOCTYPE svg PUBLIC "-//W3C//DTD SVG 1.1//EN"
  "http://www.w3.org/Graphics/SVG/1.1/DTD/svg11.dtd">
<svg xmlns:xlink="http://www.w3.org/1999/xlink" width="864pt" height="288pt" viewBox="0 0 864 288" xmlns="http://www.w3.org/2000/svg" version="1.1">
 <metadata>
  <rdf:RDF xmlns:dc="http://purl.org/dc/elements/1.1/" xmlns:cc="http://creativecommons.org/ns#" xmlns:rdf="http://www.w3.org/1999/02/22-rdf-syntax-ns#">
   <cc:Work>
    <dc:type rdf:resource="http://purl.org/dc/dcmitype/StillImage"/>
    <dc:date>2024-04-23T19:17:50.575685</dc:date>
    <dc:format>image/svg+xml</dc:format>
    <dc:creator>
     <cc:Agent>
      <dc:title>Matplotlib v3.8.2, https://matplotlib.org/</dc:title>
     </cc:Agent>
    </dc:creator>
   </cc:Work>
  </rdf:RDF>
 </metadata>
 <defs>
  <style type="text/css">*{stroke-linejoin: round; stroke-linecap: butt}</style>
 </defs>
 <g id="figure_1">
  <g id="patch_1">
   <path d="M 0 288 
L 864 288 
L 864 0 
L 0 0 
z
" style="fill: #ffffff"/>
  </g>
  <g id="axes_1">
   <g id="patch_2">
    <path d="M 108 256.32 
L 777.6 256.32 
L 777.6 34.56 
L 108 34.56 
z
" style="fill: #ffffff"/>
   </g>
   <g id="matplotlib.axis_1">
    <g id="xtick_1">
     <g id="line2d_1">
      <path d="M 108 256.32 
L 108 34.56 
" clip-path="url(#p18f97727ae)" style="fill: none; stroke: #b0b0b0; stroke-width: 0.8; stroke-linecap: square"/>
     </g>
     <g id="line2d_2">
      <defs>
       <path id="m486244ba51" d="M 0 0 
L 0 3.5 
" style="stroke: #000000; stroke-width: 0.8"/>
      </defs>
      <g>
       <use xlink:href="#m486244ba51" x="108" y="256.32" style="stroke: #000000; stroke-width: 0.8"/>
      </g>
     </g>
     <g id="text_1">
      <!-- 100 -->
      <g transform="translate(94.63875 273.957812) scale(0.14 -0.14)">
       <defs>
        <path id="DejaVuSans-31" d="M 794 531 
L 1825 531 
L 1825 4091 
L 703 3866 
L 703 4441 
L 1819 4666 
L 2450 4666 
L 2450 531 
L 3481 531 
L 3481 0 
L 794 0 
L 794 531 
z
" transform="scale(0.015625)"/>
        <path id="DejaVuSans-30" d="M 2034 4250 
Q 1547 4250 1301 3770 
Q 1056 3291 1056 2328 
Q 1056 1369 1301 889 
Q 1547 409 2034 409 
Q 2525 409 2770 889 
Q 3016 1369 3016 2328 
Q 3016 3291 2770 3770 
Q 2525 4250 2034 4250 
z
M 2034 4750 
Q 2819 4750 3233 4129 
Q 3647 3509 3647 2328 
Q 3647 1150 3233 529 
Q 2819 -91 2034 -91 
Q 1250 -91 836 529 
Q 422 1150 422 2328 
Q 422 3509 836 4129 
Q 1250 4750 2034 4750 
z
" transform="scale(0.015625)"/>
       </defs>
       <use xlink:href="#DejaVuSans-31"/>
       <use xlink:href="#DejaVuSans-30" x="63.623047"/>
       <use xlink:href="#DejaVuSans-30" x="127.246094"/>
      </g>
     </g>
    </g>
    <g id="xtick_2">
     <g id="line2d_3">
      <path d="M 241.92 256.32 
L 241.92 34.56 
" clip-path="url(#p18f97727ae)" style="fill: none; stroke: #b0b0b0; stroke-width: 0.8; stroke-linecap: square"/>
     </g>
     <g id="line2d_4">
      <g>
       <use xlink:href="#m486244ba51" x="241.92" y="256.32" style="stroke: #000000; stroke-width: 0.8"/>
      </g>
     </g>
     <g id="text_2">
      <!-- 120 -->
      <g transform="translate(228.55875 273.957812) scale(0.14 -0.14)">
       <defs>
        <path id="DejaVuSans-32" d="M 1228 531 
L 3431 531 
L 3431 0 
L 469 0 
L 469 531 
Q 828 903 1448 1529 
Q 2069 2156 2228 2338 
Q 2531 2678 2651 2914 
Q 2772 3150 2772 3378 
Q 2772 3750 2511 3984 
Q 2250 4219 1831 4219 
Q 1534 4219 1204 4116 
Q 875 4013 500 3803 
L 500 4441 
Q 881 4594 1212 4672 
Q 1544 4750 1819 4750 
Q 2544 4750 2975 4387 
Q 3406 4025 3406 3419 
Q 3406 3131 3298 2873 
Q 3191 2616 2906 2266 
Q 2828 2175 2409 1742 
Q 1991 1309 1228 531 
z
" transform="scale(0.015625)"/>
       </defs>
       <use xlink:href="#DejaVuSans-31"/>
       <use xlink:href="#DejaVuSans-32" x="63.623047"/>
       <use xlink:href="#DejaVuSans-30" x="127.246094"/>
      </g>
     </g>
    </g>
    <g id="xtick_3">
     <g id="line2d_5">
      <path d="M 375.84 256.32 
L 375.84 34.56 
" clip-path="url(#p18f97727ae)" style="fill: none; stroke: #b0b0b0; stroke-width: 0.8; stroke-linecap: square"/>
     </g>
     <g id="line2d_6">
      <g>
       <use xlink:href="#m486244ba51" x="375.84" y="256.32" style="stroke: #000000; stroke-width: 0.8"/>
      </g>
     </g>
     <g id="text_3">
      <!-- 140 -->
      <g transform="translate(362.47875 273.957812) scale(0.14 -0.14)">
       <defs>
        <path id="DejaVuSans-34" d="M 2419 4116 
L 825 1625 
L 2419 1625 
L 2419 4116 
z
M 2253 4666 
L 3047 4666 
L 3047 1625 
L 3713 1625 
L 3713 1100 
L 3047 1100 
L 3047 0 
L 2419 0 
L 2419 1100 
L 313 1100 
L 313 1709 
L 2253 4666 
z
" transform="scale(0.015625)"/>
       </defs>
       <use xlink:href="#DejaVuSans-31"/>
       <use xlink:href="#DejaVuSans-34" x="63.623047"/>
       <use xlink:href="#DejaVuSans-30" x="127.246094"/>
      </g>
     </g>
    </g>
    <g id="xtick_4">
     <g id="line2d_7">
      <path d="M 509.76 256.32 
L 509.76 34.56 
" clip-path="url(#p18f97727ae)" style="fill: none; stroke: #b0b0b0; stroke-width: 0.8; stroke-linecap: square"/>
     </g>
     <g id="line2d_8">
      <g>
       <use xlink:href="#m486244ba51" x="509.76" y="256.32" style="stroke: #000000; stroke-width: 0.8"/>
      </g>
     </g>
     <g id="text_4">
      <!-- 160 -->
      <g transform="translate(496.39875 273.957812) scale(0.14 -0.14)">
       <defs>
        <path id="DejaVuSans-36" d="M 2113 2584 
Q 1688 2584 1439 2293 
Q 1191 2003 1191 1497 
Q 1191 994 1439 701 
Q 1688 409 2113 409 
Q 2538 409 2786 701 
Q 3034 994 3034 1497 
Q 3034 2003 2786 2293 
Q 2538 2584 2113 2584 
z
M 3366 4563 
L 3366 3988 
Q 3128 4100 2886 4159 
Q 2644 4219 2406 4219 
Q 1781 4219 1451 3797 
Q 1122 3375 1075 2522 
Q 1259 2794 1537 2939 
Q 1816 3084 2150 3084 
Q 2853 3084 3261 2657 
Q 3669 2231 3669 1497 
Q 3669 778 3244 343 
Q 2819 -91 2113 -91 
Q 1303 -91 875 529 
Q 447 1150 447 2328 
Q 447 3434 972 4092 
Q 1497 4750 2381 4750 
Q 2619 4750 2861 4703 
Q 3103 4656 3366 4563 
z
" transform="scale(0.015625)"/>
       </defs>
       <use xlink:href="#DejaVuSans-31"/>
       <use xlink:href="#DejaVuSans-36" x="63.623047"/>
       <use xlink:href="#DejaVuSans-30" x="127.246094"/>
      </g>
     </g>
    </g>
    <g id="xtick_5">
     <g id="line2d_9">
      <path d="M 643.68 256.32 
L 643.68 34.56 
" clip-path="url(#p18f97727ae)" style="fill: none; stroke: #b0b0b0; stroke-width: 0.8; stroke-linecap: square"/>
     </g>
     <g id="line2d_10">
      <g>
       <use xlink:href="#m486244ba51" x="643.68" y="256.32" style="stroke: #000000; stroke-width: 0.8"/>
      </g>
     </g>
     <g id="text_5">
      <!-- 180 -->
      <g transform="translate(630.31875 273.957812) scale(0.14 -0.14)">
       <defs>
        <path id="DejaVuSans-38" d="M 2034 2216 
Q 1584 2216 1326 1975 
Q 1069 1734 1069 1313 
Q 1069 891 1326 650 
Q 1584 409 2034 409 
Q 2484 409 2743 651 
Q 3003 894 3003 1313 
Q 3003 1734 2745 1975 
Q 2488 2216 2034 2216 
z
M 1403 2484 
Q 997 2584 770 2862 
Q 544 3141 544 3541 
Q 544 4100 942 4425 
Q 1341 4750 2034 4750 
Q 2731 4750 3128 4425 
Q 3525 4100 3525 3541 
Q 3525 3141 3298 2862 
Q 3072 2584 2669 2484 
Q 3125 2378 3379 2068 
Q 3634 1759 3634 1313 
Q 3634 634 3220 271 
Q 2806 -91 2034 -91 
Q 1263 -91 848 271 
Q 434 634 434 1313 
Q 434 1759 690 2068 
Q 947 2378 1403 2484 
z
M 1172 3481 
Q 1172 3119 1398 2916 
Q 1625 2713 2034 2713 
Q 2441 2713 2670 2916 
Q 2900 3119 2900 3481 
Q 2900 3844 2670 4047 
Q 2441 4250 2034 4250 
Q 1625 4250 1398 4047 
Q 1172 3844 1172 3481 
z
" transform="scale(0.015625)"/>
       </defs>
       <use xlink:href="#DejaVuSans-31"/>
       <use xlink:href="#DejaVuSans-38" x="63.623047"/>
       <use xlink:href="#DejaVuSans-30" x="127.246094"/>
      </g>
     </g>
    </g>
    <g id="xtick_6">
     <g id="line2d_11">
      <path d="M 777.6 256.32 
L 777.6 34.56 
" clip-path="url(#p18f97727ae)" style="fill: none; stroke: #b0b0b0; stroke-width: 0.8; stroke-linecap: square"/>
     </g>
     <g id="line2d_12">
      <g>
       <use xlink:href="#m486244ba51" x="777.6" y="256.32" style="stroke: #000000; stroke-width: 0.8"/>
      </g>
     </g>
     <g id="text_6">
      <!-- 200 -->
      <g transform="translate(764.23875 273.957812) scale(0.14 -0.14)">
       <use xlink:href="#DejaVuSans-32"/>
       <use xlink:href="#DejaVuSans-30" x="63.623047"/>
       <use xlink:href="#DejaVuSans-30" x="127.246094"/>
      </g>
     </g>
    </g>
    <g id="text_7">
     <!-- Time (ms) -->
     <g transform="translate(407.521094 291.507187) scale(0.14 -0.14)">
      <defs>
       <path id="DejaVuSans-54" d="M -19 4666 
L 3928 4666 
L 3928 4134 
L 2272 4134 
L 2272 0 
L 1638 0 
L 1638 4134 
L -19 4134 
L -19 4666 
z
" transform="scale(0.015625)"/>
       <path id="DejaVuSans-69" d="M 603 3500 
L 1178 3500 
L 1178 0 
L 603 0 
L 603 3500 
z
M 603 4863 
L 1178 4863 
L 1178 4134 
L 603 4134 
L 603 4863 
z
" transform="scale(0.015625)"/>
       <path id="DejaVuSans-6d" d="M 3328 2828 
Q 3544 3216 3844 3400 
Q 4144 3584 4550 3584 
Q 5097 3584 5394 3201 
Q 5691 2819 5691 2113 
L 5691 0 
L 5113 0 
L 5113 2094 
Q 5113 2597 4934 2840 
Q 4756 3084 4391 3084 
Q 3944 3084 3684 2787 
Q 3425 2491 3425 1978 
L 3425 0 
L 2847 0 
L 2847 2094 
Q 2847 2600 2669 2842 
Q 2491 3084 2119 3084 
Q 1678 3084 1418 2786 
Q 1159 2488 1159 1978 
L 1159 0 
L 581 0 
L 581 3500 
L 1159 3500 
L 1159 2956 
Q 1356 3278 1631 3431 
Q 1906 3584 2284 3584 
Q 2666 3584 2933 3390 
Q 3200 3197 3328 2828 
z
" transform="scale(0.015625)"/>
       <path id="DejaVuSans-65" d="M 3597 1894 
L 3597 1613 
L 953 1613 
Q 991 1019 1311 708 
Q 1631 397 2203 397 
Q 2534 397 2845 478 
Q 3156 559 3463 722 
L 3463 178 
Q 3153 47 2828 -22 
Q 2503 -91 2169 -91 
Q 1331 -91 842 396 
Q 353 884 353 1716 
Q 353 2575 817 3079 
Q 1281 3584 2069 3584 
Q 2775 3584 3186 3129 
Q 3597 2675 3597 1894 
z
M 3022 2063 
Q 3016 2534 2758 2815 
Q 2500 3097 2075 3097 
Q 1594 3097 1305 2825 
Q 1016 2553 972 2059 
L 3022 2063 
z
" transform="scale(0.015625)"/>
       <path id="DejaVuSans-20" transform="scale(0.015625)"/>
       <path id="DejaVuSans-28" d="M 1984 4856 
Q 1566 4138 1362 3434 
Q 1159 2731 1159 2009 
Q 1159 1288 1364 580 
Q 1569 -128 1984 -844 
L 1484 -844 
Q 1016 -109 783 600 
Q 550 1309 550 2009 
Q 550 2706 781 3412 
Q 1013 4119 1484 4856 
L 1984 4856 
z
" transform="scale(0.015625)"/>
       <path id="DejaVuSans-73" d="M 2834 3397 
L 2834 2853 
Q 2591 2978 2328 3040 
Q 2066 3103 1784 3103 
Q 1356 3103 1142 2972 
Q 928 2841 928 2578 
Q 928 2378 1081 2264 
Q 1234 2150 1697 2047 
L 1894 2003 
Q 2506 1872 2764 1633 
Q 3022 1394 3022 966 
Q 3022 478 2636 193 
Q 2250 -91 1575 -91 
Q 1294 -91 989 -36 
Q 684 19 347 128 
L 347 722 
Q 666 556 975 473 
Q 1284 391 1588 391 
Q 1994 391 2212 530 
Q 2431 669 2431 922 
Q 2431 1156 2273 1281 
Q 2116 1406 1581 1522 
L 1381 1569 
Q 847 1681 609 1914 
Q 372 2147 372 2553 
Q 372 3047 722 3315 
Q 1072 3584 1716 3584 
Q 2034 3584 2315 3537 
Q 2597 3491 2834 3397 
z
" transform="scale(0.015625)"/>
       <path id="DejaVuSans-29" d="M 513 4856 
L 1013 4856 
Q 1481 4119 1714 3412 
Q 1947 2706 1947 2009 
Q 1947 1309 1714 600 
Q 1481 -109 1013 -844 
L 513 -844 
Q 928 -128 1133 580 
Q 1338 1288 1338 2009 
Q 1338 2731 1133 3434 
Q 928 4138 513 4856 
z
" transform="scale(0.015625)"/>
      </defs>
      <use xlink:href="#DejaVuSans-54"/>
      <use xlink:href="#DejaVuSans-69" x="57.958984"/>
      <use xlink:href="#DejaVuSans-6d" x="85.742188"/>
      <use xlink:href="#DejaVuSans-65" x="183.154297"/>
      <use xlink:href="#DejaVuSans-20" x="244.677734"/>
      <use xlink:href="#DejaVuSans-28" x="276.464844"/>
      <use xlink:href="#DejaVuSans-6d" x="315.478516"/>
      <use xlink:href="#DejaVuSans-73" x="412.890625"/>
      <use xlink:href="#DejaVuSans-29" x="464.990234"/>
     </g>
    </g>
   </g>
   <g id="matplotlib.axis_2">
    <g id="ytick_1">
     <g id="line2d_13">
      <path d="M 108 246.24 
L 777.6 246.24 
" clip-path="url(#p18f97727ae)" style="fill: none; stroke: #b0b0b0; stroke-width: 0.8; stroke-linecap: square"/>
     </g>
     <g id="line2d_14">
      <defs>
       <path id="m0ef8125240" d="M 0 0 
L -3.5 0 
" style="stroke: #000000; stroke-width: 0.8"/>
      </defs>
      <g>
       <use xlink:href="#m0ef8125240" x="108" y="246.24" style="stroke: #000000; stroke-width: 0.8"/>
      </g>
     </g>
     <g id="text_8">
      <!-- 0.00 -->
      <g transform="translate(69.828125 251.558906) scale(0.14 -0.14)">
       <defs>
        <path id="DejaVuSans-2e" d="M 684 794 
L 1344 794 
L 1344 0 
L 684 0 
L 684 794 
z
" transform="scale(0.015625)"/>
       </defs>
       <use xlink:href="#DejaVuSans-30"/>
       <use xlink:href="#DejaVuSans-2e" x="63.623047"/>
       <use xlink:href="#DejaVuSans-30" x="95.410156"/>
       <use xlink:href="#DejaVuSans-30" x="159.033203"/>
      </g>
     </g>
    </g>
    <g id="ytick_2">
     <g id="line2d_15">
      <path d="M 108 205.477952 
L 777.6 205.477952 
" clip-path="url(#p18f97727ae)" style="fill: none; stroke: #b0b0b0; stroke-width: 0.8; stroke-linecap: square"/>
     </g>
     <g id="line2d_16">
      <g>
       <use xlink:href="#m0ef8125240" x="108" y="205.477952" style="stroke: #000000; stroke-width: 0.8"/>
      </g>
     </g>
     <g id="text_9">
      <!-- 0.05 -->
      <g transform="translate(69.828125 210.796858) scale(0.14 -0.14)">
       <defs>
        <path id="DejaVuSans-35" d="M 691 4666 
L 3169 4666 
L 3169 4134 
L 1269 4134 
L 1269 2991 
Q 1406 3038 1543 3061 
Q 1681 3084 1819 3084 
Q 2600 3084 3056 2656 
Q 3513 2228 3513 1497 
Q 3513 744 3044 326 
Q 2575 -91 1722 -91 
Q 1428 -91 1123 -41 
Q 819 9 494 109 
L 494 744 
Q 775 591 1075 516 
Q 1375 441 1709 441 
Q 2250 441 2565 725 
Q 2881 1009 2881 1497 
Q 2881 1984 2565 2268 
Q 2250 2553 1709 2553 
Q 1456 2553 1204 2497 
Q 953 2441 691 2322 
L 691 4666 
z
" transform="scale(0.015625)"/>
       </defs>
       <use xlink:href="#DejaVuSans-30"/>
       <use xlink:href="#DejaVuSans-2e" x="63.623047"/>
       <use xlink:href="#DejaVuSans-30" x="95.410156"/>
       <use xlink:href="#DejaVuSans-35" x="159.033203"/>
      </g>
     </g>
    </g>
    <g id="ytick_3">
     <g id="line2d_17">
      <path d="M 108 164.715904 
L 777.6 164.715904 
" clip-path="url(#p18f97727ae)" style="fill: none; stroke: #b0b0b0; stroke-width: 0.8; stroke-linecap: square"/>
     </g>
     <g id="line2d_18">
      <g>
       <use xlink:href="#m0ef8125240" x="108" y="164.715904" style="stroke: #000000; stroke-width: 0.8"/>
      </g>
     </g>
     <g id="text_10">
      <!-- 0.10 -->
      <g transform="translate(69.828125 170.03481) scale(0.14 -0.14)">
       <use xlink:href="#DejaVuSans-30"/>
       <use xlink:href="#DejaVuSans-2e" x="63.623047"/>
       <use xlink:href="#DejaVuSans-31" x="95.410156"/>
       <use xlink:href="#DejaVuSans-30" x="159.033203"/>
      </g>
     </g>
    </g>
    <g id="ytick_4">
     <g id="line2d_19">
      <path d="M 108 123.953856 
L 777.6 123.953856 
" clip-path="url(#p18f97727ae)" style="fill: none; stroke: #b0b0b0; stroke-width: 0.8; stroke-linecap: square"/>
     </g>
     <g id="line2d_20">
      <g>
       <use xlink:href="#m0ef8125240" x="108" y="123.953856" style="stroke: #000000; stroke-width: 0.8"/>
      </g>
     </g>
     <g id="text_11">
      <!-- 0.15 -->
      <g transform="translate(69.828125 129.272763) scale(0.14 -0.14)">
       <use xlink:href="#DejaVuSans-30"/>
       <use xlink:href="#DejaVuSans-2e" x="63.623047"/>
       <use xlink:href="#DejaVuSans-31" x="95.410156"/>
       <use xlink:href="#DejaVuSans-35" x="159.033203"/>
      </g>
     </g>
    </g>
    <g id="ytick_5">
     <g id="line2d_21">
      <path d="M 108 83.191808 
L 777.6 83.191808 
" clip-path="url(#p18f97727ae)" style="fill: none; stroke: #b0b0b0; stroke-width: 0.8; stroke-linecap: square"/>
     </g>
     <g id="line2d_22">
      <g>
       <use xlink:href="#m0ef8125240" x="108" y="83.191808" style="stroke: #000000; stroke-width: 0.8"/>
      </g>
     </g>
     <g id="text_12">
      <!-- 0.20 -->
      <g transform="translate(69.828125 88.510715) scale(0.14 -0.14)">
       <use xlink:href="#DejaVuSans-30"/>
       <use xlink:href="#DejaVuSans-2e" x="63.623047"/>
       <use xlink:href="#DejaVuSans-32" x="95.410156"/>
       <use xlink:href="#DejaVuSans-30" x="159.033203"/>
      </g>
     </g>
    </g>
    <g id="ytick_6">
     <g id="line2d_23">
      <path d="M 108 42.429761 
L 777.6 42.429761 
" clip-path="url(#p18f97727ae)" style="fill: none; stroke: #b0b0b0; stroke-width: 0.8; stroke-linecap: square"/>
     </g>
     <g id="line2d_24">
      <g>
       <use xlink:href="#m0ef8125240" x="108" y="42.429761" style="stroke: #000000; stroke-width: 0.8"/>
      </g>
     </g>
     <g id="text_13">
      <!-- 0.25 -->
      <g transform="translate(69.828125 47.748667) scale(0.14 -0.14)">
       <use xlink:href="#DejaVuSans-30"/>
       <use xlink:href="#DejaVuSans-2e" x="63.623047"/>
       <use xlink:href="#DejaVuSans-32" x="95.410156"/>
       <use xlink:href="#DejaVuSans-35" x="159.033203"/>
      </g>
     </g>
    </g>
    <g id="text_14">
     <!-- $g_{Inhib}$ (µS) -->
     <g transform="translate(62.888125 178.83) rotate(-90) scale(0.14 -0.14)">
      <defs>
       <path id="DejaVuSans-Oblique-67" d="M 3816 3500 
L 3219 434 
Q 3047 -456 2561 -893 
Q 2075 -1331 1253 -1331 
Q 950 -1331 690 -1286 
Q 431 -1241 206 -1147 
L 313 -588 
Q 525 -725 762 -790 
Q 1000 -856 1269 -856 
Q 1816 -856 2167 -557 
Q 2519 -259 2631 300 
L 2681 563 
Q 2441 288 2122 144 
Q 1803 0 1434 0 
Q 903 0 598 351 
Q 294 703 294 1319 
Q 294 1803 478 2267 
Q 663 2731 997 3091 
Q 1219 3328 1514 3456 
Q 1809 3584 2131 3584 
Q 2484 3584 2746 3420 
Q 3009 3256 3138 2956 
L 3238 3500 
L 3816 3500 
z
M 2950 2216 
Q 2950 2641 2750 2872 
Q 2550 3103 2181 3103 
Q 1953 3103 1747 3012 
Q 1541 2922 1394 2759 
Q 1156 2491 1023 2127 
Q 891 1763 891 1375 
Q 891 944 1092 712 
Q 1294 481 1672 481 
Q 2219 481 2584 976 
Q 2950 1472 2950 2216 
z
" transform="scale(0.015625)"/>
       <path id="DejaVuSans-Oblique-49" d="M 1081 4666 
L 1716 4666 
L 806 0 
L 172 0 
L 1081 4666 
z
" transform="scale(0.015625)"/>
       <path id="DejaVuSans-Oblique-6e" d="M 3566 2113 
L 3156 0 
L 2578 0 
L 2988 2091 
Q 3016 2238 3031 2350 
Q 3047 2463 3047 2528 
Q 3047 2791 2881 2937 
Q 2716 3084 2419 3084 
Q 1956 3084 1622 2776 
Q 1288 2469 1184 1941 
L 800 0 
L 225 0 
L 903 3500 
L 1478 3500 
L 1363 2950 
Q 1603 3253 1940 3418 
Q 2278 3584 2650 3584 
Q 3113 3584 3367 3334 
Q 3622 3084 3622 2631 
Q 3622 2519 3608 2391 
Q 3594 2263 3566 2113 
z
" transform="scale(0.015625)"/>
       <path id="DejaVuSans-Oblique-68" d="M 3566 2113 
L 3156 0 
L 2578 0 
L 2988 2091 
Q 3016 2238 3031 2350 
Q 3047 2463 3047 2528 
Q 3047 2791 2881 2937 
Q 2716 3084 2419 3084 
Q 1956 3084 1617 2771 
Q 1278 2459 1178 1941 
L 800 0 
L 225 0 
L 1172 4863 
L 1747 4863 
L 1375 2950 
Q 1594 3244 1934 3414 
Q 2275 3584 2650 3584 
Q 3113 3584 3367 3334 
Q 3622 3084 3622 2631 
Q 3622 2519 3608 2391 
Q 3594 2263 3566 2113 
z
" transform="scale(0.015625)"/>
       <path id="DejaVuSans-Oblique-69" d="M 1172 4863 
L 1747 4863 
L 1606 4134 
L 1031 4134 
L 1172 4863 
z
M 909 3500 
L 1484 3500 
L 800 0 
L 225 0 
L 909 3500 
z
" transform="scale(0.015625)"/>
       <path id="DejaVuSans-Oblique-62" d="M 3169 2138 
Q 3169 2591 2961 2847 
Q 2753 3103 2388 3103 
Q 2122 3103 1889 2973 
Q 1656 2844 1484 2597 
Q 1303 2338 1198 1995 
Q 1094 1653 1094 1313 
Q 1094 881 1298 636 
Q 1503 391 1863 391 
Q 2134 391 2365 517 
Q 2597 644 2772 891 
Q 2950 1147 3059 1487 
Q 3169 1828 3169 2138 
z
M 1381 2969 
Q 1594 3256 1914 3420 
Q 2234 3584 2584 3584 
Q 3122 3584 3439 3221 
Q 3756 2859 3756 2241 
Q 3756 1734 3570 1259 
Q 3384 784 3041 416 
Q 2816 172 2522 40 
Q 2228 -91 1906 -91 
Q 1566 -91 1316 65 
Q 1066 222 909 531 
L 806 0 
L 231 0 
L 1178 4863 
L 1753 4863 
L 1381 2969 
z
" transform="scale(0.015625)"/>
       <path id="DejaVuSans-b5" d="M 544 -1331 
L 544 3500 
L 1119 3500 
L 1119 1325 
Q 1119 872 1334 640 
Q 1550 409 1972 409 
Q 2434 409 2667 671 
Q 2900 934 2900 1459 
L 2900 3500 
L 3475 3500 
L 3475 806 
Q 3475 619 3529 530 
Q 3584 441 3700 441 
Q 3728 441 3778 458 
Q 3828 475 3916 513 
L 3916 50 
Q 3788 -22 3673 -56 
Q 3559 -91 3450 -91 
Q 3234 -91 3106 31 
Q 2978 153 2931 403 
Q 2775 156 2548 32 
Q 2322 -91 2016 -91 
Q 1697 -91 1473 31 
Q 1250 153 1119 397 
L 1119 -1331 
L 544 -1331 
z
" transform="scale(0.015625)"/>
       <path id="DejaVuSans-53" d="M 3425 4513 
L 3425 3897 
Q 3066 4069 2747 4153 
Q 2428 4238 2131 4238 
Q 1616 4238 1336 4038 
Q 1056 3838 1056 3469 
Q 1056 3159 1242 3001 
Q 1428 2844 1947 2747 
L 2328 2669 
Q 3034 2534 3370 2195 
Q 3706 1856 3706 1288 
Q 3706 609 3251 259 
Q 2797 -91 1919 -91 
Q 1588 -91 1214 -16 
Q 841 59 441 206 
L 441 856 
Q 825 641 1194 531 
Q 1563 422 1919 422 
Q 2459 422 2753 634 
Q 3047 847 3047 1241 
Q 3047 1584 2836 1778 
Q 2625 1972 2144 2069 
L 1759 2144 
Q 1053 2284 737 2584 
Q 422 2884 422 3419 
Q 422 4038 858 4394 
Q 1294 4750 2059 4750 
Q 2388 4750 2728 4690 
Q 3069 4631 3425 4513 
z
" transform="scale(0.015625)"/>
      </defs>
      <use xlink:href="#DejaVuSans-Oblique-67" transform="translate(0 0.125)"/>
      <use xlink:href="#DejaVuSans-Oblique-49" transform="translate(63.476562 -16.28125) scale(0.7)"/>
      <use xlink:href="#DejaVuSans-Oblique-6e" transform="translate(84.121094 -16.28125) scale(0.7)"/>
      <use xlink:href="#DejaVuSans-Oblique-68" transform="translate(128.486328 -16.28125) scale(0.7)"/>
      <use xlink:href="#DejaVuSans-Oblique-69" transform="translate(172.851562 -16.28125) scale(0.7)"/>
      <use xlink:href="#DejaVuSans-Oblique-62" transform="translate(192.299805 -16.28125) scale(0.7)"/>
      <use xlink:href="#DejaVuSans-20" transform="translate(239.467773 0.125)"/>
      <use xlink:href="#DejaVuSans-28" transform="translate(271.254883 0.125)"/>
      <use xlink:href="#DejaVuSans-b5" transform="translate(310.268555 0.125)"/>
      <use xlink:href="#DejaVuSans-53" transform="translate(373.891602 0.125)"/>
      <use xlink:href="#DejaVuSans-29" transform="translate(437.368164 0.125)"/>
     </g>
    </g>
   </g>
   <g id="line2d_25">
    <path d="M 108 102.474386 
L 108.6696 101.714067 
L 112.6872 114.945887 
L 113.3568 109.377848 
L 114.0264 108.674632 
L 114.696 103.03933 
L 115.3656 102.43797 
L 116.0352 96.902888 
L 116.7048 96.400138 
L 117.3744 98.639949 
L 118.044 93.333938 
L 118.7136 92.888539 
L 123.4008 109.176343 
L 124.0704 96.023149 
L 124.74 92.632015 
L 125.4096 87.086471 
L 126.0792 86.741466 
L 128.088 94.145063 
L 128.7576 81.233414 
L 129.4272 78.079944 
L 130.7664 83.110335 
L 134.1144 95.802852 
L 137.4624 107.507811 
L 140.8104 118.302051 
L 144.1584 128.25643 
L 147.5064 137.436296 
L 148.176 131.506848 
L 148.8456 130.44803 
L 150.8544 135.778279 
L 154.2024 144.372897 
L 156.8808 150.764559 
L 157.5504 144.620933 
L 158.22 143.351378 
L 160.2288 148.069519 
L 163.5768 155.707802 
L 166.9248 162.751778 
L 168.9336 166.712286 
L 169.6032 160.312387 
L 170.2728 158.790679 
L 171.612 161.41329 
L 174.96 168.013343 
L 178.308 174.09987 
L 181.656 179.712828 
L 185.004 184.889061 
L 188.352 189.662551 
L 191.7 194.064634 
L 195.048 198.124206 
L 198.396 201.867919 
L 201.744 205.320347 
L 205.7616 209.110549 
L 209.7792 212.549683 
L 213.7968 215.670265 
L 214.4664 208.483637 
L 215.136 206.187841 
L 215.8056 206.66342 
L 219.8232 210.32922 
L 221.1624 211.474083 
L 221.832 204.354885 
L 222.5016 202.125437 
L 223.1712 202.666296 
L 224.5104 204.055458 
L 225.8496 176.808446 
L 226.5192 174.685577 
L 227.8584 176.801447 
L 230.5368 181.158376 
L 231.2064 174.526336 
L 231.876 165.098349 
L 232.5456 163.331695 
L 233.8848 165.809535 
L 234.5544 167.102011 
L 235.224 160.695849 
L 235.8936 159.167979 
L 237.2328 161.778562 
L 237.9024 155.457945 
L 238.572 154.014246 
L 239.2416 147.650359 
L 239.9112 130.976387 
L 240.5808 119.177666 
L 241.2504 117.980895 
L 241.92 112.196046 
L 242.5896 111.447543 
L 246.6072 123.777795 
L 247.2768 118.067832 
L 248.616 100.995261 
L 249.2856 100.25871 
L 251.2944 107.021077 
L 251.964 93.902518 
L 252.6336 90.545462 
L 253.3032 92.711315 
L 253.9728 87.500574 
L 254.6424 87.148915 
L 255.312 89.537388 
L 255.9816 84.37765 
L 256.6512 84.076174 
L 257.3208 78.836156 
L 257.9904 78.62373 
L 258.66 73.47133 
L 259.3296 73.345113 
L 259.9992 68.277538 
L 260.6688 68.234783 
L 265.356 87.16563 
L 266.0256 82.044005 
L 266.6952 81.78003 
L 270.7128 96.858251 
L 271.3824 91.58087 
L 272.052 91.163642 
L 273.3912 95.942254 
L 274.0608 83.001725 
L 274.7304 79.819839 
L 276.0696 84.79476 
L 279.4176 97.356218 
L 281.4264 104.418956 
L 282.096 99.020079 
L 282.7656 98.483307 
L 290.1312 122.457978 
L 293.4792 132.089 
L 296.8272 140.970668 
L 298.1664 144.326733 
L 298.836 138.286558 
L 299.5056 137.118794 
L 301.5144 142.132596 
L 304.8624 150.232809 
L 308.2104 157.702774 
L 311.5584 164.591529 
L 314.9064 170.944295 
L 318.2544 176.802776 
L 321.6024 182.20543 
L 324.9504 187.187723 
L 328.2984 191.782363 
L 331.6464 196.019511 
L 334.9944 199.926981 
L 338.3424 203.530426 
L 340.3512 205.55648 
L 341.0208 198.532375 
L 341.6904 196.396491 
L 342.36 197.029412 
L 343.0296 197.820201 
L 343.6992 190.920414 
L 344.3688 188.906851 
L 345.708 190.569336 
L 347.7168 193.210237 
L 348.3864 186.384529 
L 349.056 184.443856 
L 350.3952 186.248624 
L 351.0648 187.212655 
L 351.7344 180.483326 
L 352.404 178.637481 
L 353.0736 171.877912 
L 353.7432 170.170352 
L 355.0824 172.43017 
L 358.4304 178.173041 
L 359.7696 151.751179 
L 360.4392 150.030968 
L 361.1088 151.408959 
L 361.7784 145.254977 
L 362.448 143.975234 
L 364.4568 148.66378 
L 365.1264 150.23178 
L 365.796 144.096714 
L 366.4656 142.835584 
L 368.4744 147.578193 
L 369.144 149.163637 
L 369.8136 143.045736 
L 371.1528 125.176851 
L 371.8224 124.051715 
L 373.8312 129.685391 
L 375.84 135.2145 
L 376.5096 129.320754 
L 377.1792 128.297066 
L 377.8488 114.668573 
L 378.5184 110.977817 
L 379.8576 114.959399 
L 380.5272 109.391143 
L 381.1968 108.687713 
L 385.884 123.281742 
L 386.5536 109.901882 
L 387.2232 106.287724 
L 387.8928 92.844872 
L 388.5624 89.504811 
L 389.232 91.687388 
L 389.9016 86.493101 
L 390.5712 86.157631 
L 393.9192 98.455554 
L 394.5888 93.152506 
L 395.2584 77.354286 
L 395.928 74.095113 
L 397.2672 79.252543 
L 400.6152 92.24522 
L 401.2848 94.719837 
L 401.9544 89.47682 
L 402.624 81.415535 
L 403.2936 80.99362 
L 409.32 103.264892 
L 409.9896 97.884561 
L 410.6592 97.366036 
L 418.0248 121.523074 
L 418.6944 115.849343 
L 419.364 115.042133 
L 422.0424 123.114089 
L 423.3816 127.039435 
L 424.0512 121.277058 
L 424.7208 120.382628 
L 427.3992 128.119495 
L 430.7472 137.310015 
L 434.0952 145.785455 
L 437.4432 153.601453 
L 440.7912 160.809316 
L 444.1392 167.456362 
L 447.4872 173.586226 
L 450.8352 179.239148 
L 454.1832 184.452237 
L 457.5312 189.259715 
L 460.8792 193.69314 
L 464.2272 197.781618 
L 467.5752 201.551985 
L 470.9232 205.028995 
L 471.5928 198.013366 
L 472.2624 195.885823 
L 472.932 196.52695 
L 476.28 200.394939 
L 479.628 203.961974 
L 480.2976 204.64136 
L 480.9672 197.631961 
L 481.6368 195.510546 
L 482.3064 196.157704 
L 485.6544 200.054422 
L 489.0024 203.647952 
L 491.0112 205.66843 
L 491.6808 198.642526 
L 492.3504 196.504872 
L 493.02 189.458183 
L 493.6896 187.468118 
L 495.0288 160.584584 
L 495.6984 158.722424 
L 497.0376 161.347211 
L 498.3768 164.053656 
L 499.0464 150.018612 
L 499.716 145.759799 
L 500.3856 147.038387 
L 503.7336 154.756898 
L 505.7424 159.096667 
L 506.412 152.819147 
L 507.0816 151.417851 
L 508.4208 154.275514 
L 509.0904 148.075467 
L 509.76 146.7504 
L 511.0992 149.756864 
L 511.7688 143.629431 
L 513.108 125.741937 
L 513.7776 124.60772 
L 514.4472 118.716381 
L 515.1168 117.863099 
L 515.7864 119.758011 
L 516.456 106.434776 
L 517.1256 102.876333 
L 517.7952 104.844036 
L 518.4648 99.438328 
L 519.1344 98.894835 
L 521.1432 105.721902 
L 521.8128 100.302087 
L 522.4824 99.744714 
L 523.152 94.252911 
L 523.8216 86.114876 
L 524.4912 85.617445 
L 526.5 93.074364 
L 527.1696 87.857789 
L 527.8392 87.500389 
L 529.848 94.867985 
L 530.5176 89.622587 
L 531.1872 81.55896 
L 531.8568 65.779004 
L 532.5264 62.705839 
L 533.8656 68.226368 
L 537.2136 82.076951 
L 537.8832 77.037099 
L 538.5528 76.853582 
L 541.9008 89.875419 
L 542.5704 84.710249 
L 543.24 84.403429 
L 549.936 108.46227 
L 550.6056 110.676287 
L 551.2752 105.176858 
L 551.9448 104.54115 
L 559.3104 127.52703 
L 559.98 121.756819 
L 560.6496 120.854679 
L 563.328 128.561927 
L 566.676 137.718023 
L 570.024 146.161717 
L 573.372 153.948439 
L 576.72 161.129305 
L 580.068 167.751454 
L 583.416 173.858358 
L 586.764 179.490106 
L 590.112 184.683669 
L 590.7816 177.99498 
L 591.4512 176.189121 
L 592.7904 178.257057 
L 596.1384 183.546559 
L 599.4864 188.424504 
L 602.1648 192.052143 
L 602.8344 185.245046 
L 603.504 183.322683 
L 604.8432 185.163196 
L 608.1912 189.915356 
L 611.5392 194.297769 
L 614.8872 198.339202 
L 615.5568 191.431075 
L 616.2264 189.409306 
L 617.5656 191.055772 
L 618.2352 191.942554 
L 618.9048 185.137218 
L 619.5744 183.216588 
L 620.244 176.383435 
L 620.9136 166.925605 
L 621.5832 165.129588 
L 622.2528 158.587083 
L 622.9224 157.0931 
L 624.2616 159.769831 
L 624.9312 153.481494 
L 625.6008 152.069555 
L 626.94 154.90644 
L 628.2792 157.818222 
L 628.9488 151.561246 
L 629.6184 134.824428 
L 630.288 130.64174 
L 630.9576 132.163267 
L 634.3056 141.039156 
L 634.9752 135.051811 
L 635.6448 133.936028 
L 636.984 137.351024 
L 637.6536 131.422945 
L 638.3232 130.365476 
L 638.9928 124.381613 
L 639.6624 123.437294 
L 640.332 117.564763 
L 641.0016 116.729988 
L 641.6712 110.96524 
L 642.3408 102.558647 
L 643.0104 101.796973 
L 643.68 103.95006 
L 644.3496 98.558718 
L 645.6888 82.108112 
L 646.3584 81.675068 
L 647.028 76.473635 
L 647.6976 76.299172 
L 648.3672 78.861995 
L 649.0368 66.195938 
L 649.7064 63.284112 
L 651.0456 68.786205 
L 651.7152 71.637796 
L 652.3848 66.765695 
L 653.0544 66.747235 
L 653.724 69.463552 
L 654.3936 64.626391 
L 655.0632 64.642308 
L 656.4024 70.266439 
L 657.072 65.416375 
L 657.7416 65.419597 
L 660.42 76.605125 
L 661.0896 63.975334 
L 661.7592 61.099192 
L 663.0984 66.670942 
L 666.4464 80.642547 
L 669.7944 93.527074 
L 672.4728 103.109062 
L 673.1424 97.731235 
L 673.812 97.215174 
L 676.4904 106.405685 
L 677.16 100.974882 
L 677.8296 100.406697 
L 685.1952 124.067423 
L 688.5432 133.573221 
L 691.8912 142.339407 
L 695.2392 150.423528 
L 698.5872 157.878654 
L 701.9352 164.753725 
L 705.2832 171.093871 
L 708.6312 176.940714 
L 711.9792 182.332635 
L 715.3272 187.305031 
L 718.6752 191.890544 
L 722.0232 196.119274 
L 725.3712 200.018983 
L 728.7192 203.61527 
L 732.0672 206.931743 
L 736.0848 210.572689 
L 736.7544 203.467976 
L 737.424 193.574912 
L 738.0936 191.350654 
L 739.4328 192.935228 
L 742.7808 197.082676 
L 746.1288 200.907426 
L 747.468 202.352662 
L 748.1376 195.380041 
L 748.8072 193.294814 
L 750.1464 194.817407 
L 750.816 195.643742 
L 751.4856 188.778929 
L 752.1552 186.799779 
L 753.4944 188.529439 
L 756.8424 193.019684 
L 757.512 186.197039 
L 758.1816 176.58151 
L 758.8512 174.630327 
L 760.1904 176.747958 
L 760.86 170.186791 
L 761.5296 168.506407 
L 762.8688 170.819273 
L 765.5472 175.551554 
L 766.2168 169.009613 
L 766.8864 167.348145 
L 767.556 168.447858 
L 768.2256 162.02007 
L 768.8952 160.47092 
L 769.5648 154.003278 
L 770.2344 152.582954 
L 770.904 153.919936 
L 771.5736 147.725604 
L 772.2432 146.406159 
L 772.9128 140.164531 
L 773.5824 138.966588 
L 774.252 132.84451 
L 774.9216 131.764197 
L 776.9304 137.032009 
L 777.6 131.109057 
L 777.6 131.109057 
" clip-path="url(#p18f97727ae)" style="fill: none; stroke: #ff4500; stroke-width: 1.5; stroke-linecap: square"/>
   </g>
   <g id="patch_3">
    <path d="M 108 256.32 
L 108 34.56 
" style="fill: none; stroke: #000000; stroke-width: 0.8; stroke-linejoin: miter; stroke-linecap: square"/>
   </g>
   <g id="patch_4">
    <path d="M 777.6 256.32 
L 777.6 34.56 
" style="fill: none; stroke: #000000; stroke-width: 0.8; stroke-linejoin: miter; stroke-linecap: square"/>
   </g>
   <g id="patch_5">
    <path d="M 108 256.32 
L 777.6 256.32 
" style="fill: none; stroke: #000000; stroke-width: 0.8; stroke-linejoin: miter; stroke-linecap: square"/>
   </g>
   <g id="patch_6">
    <path d="M 108 34.56 
L 777.6 34.56 
" style="fill: none; stroke: #000000; stroke-width: 0.8; stroke-linejoin: miter; stroke-linecap: square"/>
   </g>
  </g>
 </g>
 <defs>
  <clipPath id="p18f97727ae">
   <rect x="108" y="34.56" width="669.6" height="221.76"/>
  </clipPath>
 </defs>
</svg>
