<?xml version="1.0" encoding="utf-8" standalone="no"?>
<!DOCTYPE svg PUBLIC "-//W3C//DTD SVG 1.1//EN"
  "http://www.w3.org/Graphics/SVG/1.1/DTD/svg11.dtd">
<svg xmlns:xlink="http://www.w3.org/1999/xlink" width="864pt" height="288pt" viewBox="0 0 864 288" xmlns="http://www.w3.org/2000/svg" version="1.1">
 <metadata>
  <rdf:RDF xmlns:dc="http://purl.org/dc/elements/1.1/" xmlns:cc="http://creativecommons.org/ns#" xmlns:rdf="http://www.w3.org/1999/02/22-rdf-syntax-ns#">
   <cc:Work>
    <dc:type rdf:resource="http://purl.org/dc/dcmitype/StillImage"/>
    <dc:date>2024-04-23T19:16:45.838379</dc:date>
    <dc:format>image/svg+xml</dc:format>
    <dc:creator>
     <cc:Agent>
      <dc:title>Matplotlib v3.8.2, https://matplotlib.org/</dc:title>
     </cc:Agent>
    </dc:creator>
   </cc:Work>
  </rdf:RDF>
 </metadata>
 <defs>
  <style type="text/css">*{stroke-linejoin: round; stroke-linecap: butt}</style>
 </defs>
 <g id="figure_1">
  <g id="patch_1">
   <path d="M 0 288 
L 864 288 
L 864 0 
L 0 0 
z
" style="fill: #ffffff"/>
  </g>
  <g id="axes_1">
   <g id="patch_2">
    <path d="M 108 256.32 
L 777.6 256.32 
L 777.6 34.56 
L 108 34.56 
z
" style="fill: #ffffff"/>
   </g>
   <g id="matplotlib.axis_1">
    <g id="xtick_1">
     <g id="line2d_1">
      <path d="M 108 256.32 
L 108 34.56 
" clip-path="url(#p530e4abe6c)" style="fill: none; stroke: #b0b0b0; stroke-width: 0.8; stroke-linecap: square"/>
     </g>
     <g id="line2d_2">
      <defs>
       <path id="m4b4aaf8435" d="M 0 0 
L 0 3.5 
" style="stroke: #000000; stroke-width: 0.8"/>
      </defs>
      <g>
       <use xlink:href="#m4b4aaf8435" x="108" y="256.32" style="stroke: #000000; stroke-width: 0.8"/>
      </g>
     </g>
     <g id="text_1">
      <!-- 100 -->
      <g transform="translate(94.63875 273.957812) scale(0.14 -0.14)">
       <defs>
        <path id="DejaVuSans-31" d="M 794 531 
L 1825 531 
L 1825 4091 
L 703 3866 
L 703 4441 
L 1819 4666 
L 2450 4666 
L 2450 531 
L 3481 531 
L 3481 0 
L 794 0 
L 794 531 
z
" transform="scale(0.015625)"/>
        <path id="DejaVuSans-30" d="M 2034 4250 
Q 1547 4250 1301 3770 
Q 1056 3291 1056 2328 
Q 1056 1369 1301 889 
Q 1547 409 2034 409 
Q 2525 409 2770 889 
Q 3016 1369 3016 2328 
Q 3016 3291 2770 3770 
Q 2525 4250 2034 4250 
z
M 2034 4750 
Q 2819 4750 3233 4129 
Q 3647 3509 3647 2328 
Q 3647 1150 3233 529 
Q 2819 -91 2034 -91 
Q 1250 -91 836 529 
Q 422 1150 422 2328 
Q 422 3509 836 4129 
Q 1250 4750 2034 4750 
z
" transform="scale(0.015625)"/>
       </defs>
       <use xlink:href="#DejaVuSans-31"/>
       <use xlink:href="#DejaVuSans-30" x="63.623047"/>
       <use xlink:href="#DejaVuSans-30" x="127.246094"/>
      </g>
     </g>
    </g>
    <g id="xtick_2">
     <g id="line2d_3">
      <path d="M 241.92 256.32 
L 241.92 34.56 
" clip-path="url(#p530e4abe6c)" style="fill: none; stroke: #b0b0b0; stroke-width: 0.8; stroke-linecap: square"/>
     </g>
     <g id="line2d_4">
      <g>
       <use xlink:href="#m4b4aaf8435" x="241.92" y="256.32" style="stroke: #000000; stroke-width: 0.8"/>
      </g>
     </g>
     <g id="text_2">
      <!-- 120 -->
      <g transform="translate(228.55875 273.957812) scale(0.14 -0.14)">
       <defs>
        <path id="DejaVuSans-32" d="M 1228 531 
L 3431 531 
L 3431 0 
L 469 0 
L 469 531 
Q 828 903 1448 1529 
Q 2069 2156 2228 2338 
Q 2531 2678 2651 2914 
Q 2772 3150 2772 3378 
Q 2772 3750 2511 3984 
Q 2250 4219 1831 4219 
Q 1534 4219 1204 4116 
Q 875 4013 500 3803 
L 500 4441 
Q 881 4594 1212 4672 
Q 1544 4750 1819 4750 
Q 2544 4750 2975 4387 
Q 3406 4025 3406 3419 
Q 3406 3131 3298 2873 
Q 3191 2616 2906 2266 
Q 2828 2175 2409 1742 
Q 1991 1309 1228 531 
z
" transform="scale(0.015625)"/>
       </defs>
       <use xlink:href="#DejaVuSans-31"/>
       <use xlink:href="#DejaVuSans-32" x="63.623047"/>
       <use xlink:href="#DejaVuSans-30" x="127.246094"/>
      </g>
     </g>
    </g>
    <g id="xtick_3">
     <g id="line2d_5">
      <path d="M 375.84 256.32 
L 375.84 34.56 
" clip-path="url(#p530e4abe6c)" style="fill: none; stroke: #b0b0b0; stroke-width: 0.8; stroke-linecap: square"/>
     </g>
     <g id="line2d_6">
      <g>
       <use xlink:href="#m4b4aaf8435" x="375.84" y="256.32" style="stroke: #000000; stroke-width: 0.8"/>
      </g>
     </g>
     <g id="text_3">
      <!-- 140 -->
      <g transform="translate(362.47875 273.957812) scale(0.14 -0.14)">
       <defs>
        <path id="DejaVuSans-34" d="M 2419 4116 
L 825 1625 
L 2419 1625 
L 2419 4116 
z
M 2253 4666 
L 3047 4666 
L 3047 1625 
L 3713 1625 
L 3713 1100 
L 3047 1100 
L 3047 0 
L 2419 0 
L 2419 1100 
L 313 1100 
L 313 1709 
L 2253 4666 
z
" transform="scale(0.015625)"/>
       </defs>
       <use xlink:href="#DejaVuSans-31"/>
       <use xlink:href="#DejaVuSans-34" x="63.623047"/>
       <use xlink:href="#DejaVuSans-30" x="127.246094"/>
      </g>
     </g>
    </g>
    <g id="xtick_4">
     <g id="line2d_7">
      <path d="M 509.76 256.32 
L 509.76 34.56 
" clip-path="url(#p530e4abe6c)" style="fill: none; stroke: #b0b0b0; stroke-width: 0.8; stroke-linecap: square"/>
     </g>
     <g id="line2d_8">
      <g>
       <use xlink:href="#m4b4aaf8435" x="509.76" y="256.32" style="stroke: #000000; stroke-width: 0.8"/>
      </g>
     </g>
     <g id="text_4">
      <!-- 160 -->
      <g transform="translate(496.39875 273.957812) scale(0.14 -0.14)">
       <defs>
        <path id="DejaVuSans-36" d="M 2113 2584 
Q 1688 2584 1439 2293 
Q 1191 2003 1191 1497 
Q 1191 994 1439 701 
Q 1688 409 2113 409 
Q 2538 409 2786 701 
Q 3034 994 3034 1497 
Q 3034 2003 2786 2293 
Q 2538 2584 2113 2584 
z
M 3366 4563 
L 3366 3988 
Q 3128 4100 2886 4159 
Q 2644 4219 2406 4219 
Q 1781 4219 1451 3797 
Q 1122 3375 1075 2522 
Q 1259 2794 1537 2939 
Q 1816 3084 2150 3084 
Q 2853 3084 3261 2657 
Q 3669 2231 3669 1497 
Q 3669 778 3244 343 
Q 2819 -91 2113 -91 
Q 1303 -91 875 529 
Q 447 1150 447 2328 
Q 447 3434 972 4092 
Q 1497 4750 2381 4750 
Q 2619 4750 2861 4703 
Q 3103 4656 3366 4563 
z
" transform="scale(0.015625)"/>
       </defs>
       <use xlink:href="#DejaVuSans-31"/>
       <use xlink:href="#DejaVuSans-36" x="63.623047"/>
       <use xlink:href="#DejaVuSans-30" x="127.246094"/>
      </g>
     </g>
    </g>
    <g id="xtick_5">
     <g id="line2d_9">
      <path d="M 643.68 256.32 
L 643.68 34.56 
" clip-path="url(#p530e4abe6c)" style="fill: none; stroke: #b0b0b0; stroke-width: 0.8; stroke-linecap: square"/>
     </g>
     <g id="line2d_10">
      <g>
       <use xlink:href="#m4b4aaf8435" x="643.68" y="256.32" style="stroke: #000000; stroke-width: 0.8"/>
      </g>
     </g>
     <g id="text_5">
      <!-- 180 -->
      <g transform="translate(630.31875 273.957812) scale(0.14 -0.14)">
       <defs>
        <path id="DejaVuSans-38" d="M 2034 2216 
Q 1584 2216 1326 1975 
Q 1069 1734 1069 1313 
Q 1069 891 1326 650 
Q 1584 409 2034 409 
Q 2484 409 2743 651 
Q 3003 894 3003 1313 
Q 3003 1734 2745 1975 
Q 2488 2216 2034 2216 
z
M 1403 2484 
Q 997 2584 770 2862 
Q 544 3141 544 3541 
Q 544 4100 942 4425 
Q 1341 4750 2034 4750 
Q 2731 4750 3128 4425 
Q 3525 4100 3525 3541 
Q 3525 3141 3298 2862 
Q 3072 2584 2669 2484 
Q 3125 2378 3379 2068 
Q 3634 1759 3634 1313 
Q 3634 634 3220 271 
Q 2806 -91 2034 -91 
Q 1263 -91 848 271 
Q 434 634 434 1313 
Q 434 1759 690 2068 
Q 947 2378 1403 2484 
z
M 1172 3481 
Q 1172 3119 1398 2916 
Q 1625 2713 2034 2713 
Q 2441 2713 2670 2916 
Q 2900 3119 2900 3481 
Q 2900 3844 2670 4047 
Q 2441 4250 2034 4250 
Q 1625 4250 1398 4047 
Q 1172 3844 1172 3481 
z
" transform="scale(0.015625)"/>
       </defs>
       <use xlink:href="#DejaVuSans-31"/>
       <use xlink:href="#DejaVuSans-38" x="63.623047"/>
       <use xlink:href="#DejaVuSans-30" x="127.246094"/>
      </g>
     </g>
    </g>
    <g id="xtick_6">
     <g id="line2d_11">
      <path d="M 777.6 256.32 
L 777.6 34.56 
" clip-path="url(#p530e4abe6c)" style="fill: none; stroke: #b0b0b0; stroke-width: 0.8; stroke-linecap: square"/>
     </g>
     <g id="line2d_12">
      <g>
       <use xlink:href="#m4b4aaf8435" x="777.6" y="256.32" style="stroke: #000000; stroke-width: 0.8"/>
      </g>
     </g>
     <g id="text_6">
      <!-- 200 -->
      <g transform="translate(764.23875 273.957812) scale(0.14 -0.14)">
       <use xlink:href="#DejaVuSans-32"/>
       <use xlink:href="#DejaVuSans-30" x="63.623047"/>
       <use xlink:href="#DejaVuSans-30" x="127.246094"/>
      </g>
     </g>
    </g>
    <g id="text_7">
     <!-- Time (ms) -->
     <g transform="translate(407.521094 291.507187) scale(0.14 -0.14)">
      <defs>
       <path id="DejaVuSans-54" d="M -19 4666 
L 3928 4666 
L 3928 4134 
L 2272 4134 
L 2272 0 
L 1638 0 
L 1638 4134 
L -19 4134 
L -19 4666 
z
" transform="scale(0.015625)"/>
       <path id="DejaVuSans-69" d="M 603 3500 
L 1178 3500 
L 1178 0 
L 603 0 
L 603 3500 
z
M 603 4863 
L 1178 4863 
L 1178 4134 
L 603 4134 
L 603 4863 
z
" transform="scale(0.015625)"/>
       <path id="DejaVuSans-6d" d="M 3328 2828 
Q 3544 3216 3844 3400 
Q 4144 3584 4550 3584 
Q 5097 3584 5394 3201 
Q 5691 2819 5691 2113 
L 5691 0 
L 5113 0 
L 5113 2094 
Q 5113 2597 4934 2840 
Q 4756 3084 4391 3084 
Q 3944 3084 3684 2787 
Q 3425 2491 3425 1978 
L 3425 0 
L 2847 0 
L 2847 2094 
Q 2847 2600 2669 2842 
Q 2491 3084 2119 3084 
Q 1678 3084 1418 2786 
Q 1159 2488 1159 1978 
L 1159 0 
L 581 0 
L 581 3500 
L 1159 3500 
L 1159 2956 
Q 1356 3278 1631 3431 
Q 1906 3584 2284 3584 
Q 2666 3584 2933 3390 
Q 3200 3197 3328 2828 
z
" transform="scale(0.015625)"/>
       <path id="DejaVuSans-65" d="M 3597 1894 
L 3597 1613 
L 953 1613 
Q 991 1019 1311 708 
Q 1631 397 2203 397 
Q 2534 397 2845 478 
Q 3156 559 3463 722 
L 3463 178 
Q 3153 47 2828 -22 
Q 2503 -91 2169 -91 
Q 1331 -91 842 396 
Q 353 884 353 1716 
Q 353 2575 817 3079 
Q 1281 3584 2069 3584 
Q 2775 3584 3186 3129 
Q 3597 2675 3597 1894 
z
M 3022 2063 
Q 3016 2534 2758 2815 
Q 2500 3097 2075 3097 
Q 1594 3097 1305 2825 
Q 1016 2553 972 2059 
L 3022 2063 
z
" transform="scale(0.015625)"/>
       <path id="DejaVuSans-20" transform="scale(0.015625)"/>
       <path id="DejaVuSans-28" d="M 1984 4856 
Q 1566 4138 1362 3434 
Q 1159 2731 1159 2009 
Q 1159 1288 1364 580 
Q 1569 -128 1984 -844 
L 1484 -844 
Q 1016 -109 783 600 
Q 550 1309 550 2009 
Q 550 2706 781 3412 
Q 1013 4119 1484 4856 
L 1984 4856 
z
" transform="scale(0.015625)"/>
       <path id="DejaVuSans-73" d="M 2834 3397 
L 2834 2853 
Q 2591 2978 2328 3040 
Q 2066 3103 1784 3103 
Q 1356 3103 1142 2972 
Q 928 2841 928 2578 
Q 928 2378 1081 2264 
Q 1234 2150 1697 2047 
L 1894 2003 
Q 2506 1872 2764 1633 
Q 3022 1394 3022 966 
Q 3022 478 2636 193 
Q 2250 -91 1575 -91 
Q 1294 -91 989 -36 
Q 684 19 347 128 
L 347 722 
Q 666 556 975 473 
Q 1284 391 1588 391 
Q 1994 391 2212 530 
Q 2431 669 2431 922 
Q 2431 1156 2273 1281 
Q 2116 1406 1581 1522 
L 1381 1569 
Q 847 1681 609 1914 
Q 372 2147 372 2553 
Q 372 3047 722 3315 
Q 1072 3584 1716 3584 
Q 2034 3584 2315 3537 
Q 2597 3491 2834 3397 
z
" transform="scale(0.015625)"/>
       <path id="DejaVuSans-29" d="M 513 4856 
L 1013 4856 
Q 1481 4119 1714 3412 
Q 1947 2706 1947 2009 
Q 1947 1309 1714 600 
Q 1481 -109 1013 -844 
L 513 -844 
Q 928 -128 1133 580 
Q 1338 1288 1338 2009 
Q 1338 2731 1133 3434 
Q 928 4138 513 4856 
z
" transform="scale(0.015625)"/>
      </defs>
      <use xlink:href="#DejaVuSans-54"/>
      <use xlink:href="#DejaVuSans-69" x="57.958984"/>
      <use xlink:href="#DejaVuSans-6d" x="85.742188"/>
      <use xlink:href="#DejaVuSans-65" x="183.154297"/>
      <use xlink:href="#DejaVuSans-20" x="244.677734"/>
      <use xlink:href="#DejaVuSans-28" x="276.464844"/>
      <use xlink:href="#DejaVuSans-6d" x="315.478516"/>
      <use xlink:href="#DejaVuSans-73" x="412.890625"/>
      <use xlink:href="#DejaVuSans-29" x="464.990234"/>
     </g>
    </g>
   </g>
   <g id="matplotlib.axis_2">
    <g id="ytick_1">
     <g id="line2d_13">
      <path d="M 108 246.24 
L 777.6 246.24 
" clip-path="url(#p530e4abe6c)" style="fill: none; stroke: #b0b0b0; stroke-width: 0.8; stroke-linecap: square"/>
     </g>
     <g id="line2d_14">
      <defs>
       <path id="md2858451cc" d="M 0 0 
L -3.5 0 
" style="stroke: #000000; stroke-width: 0.8"/>
      </defs>
      <g>
       <use xlink:href="#md2858451cc" x="108" y="246.24" style="stroke: #000000; stroke-width: 0.8"/>
      </g>
     </g>
     <g id="text_8">
      <!-- 0.00 -->
      <g transform="translate(69.828125 251.558906) scale(0.14 -0.14)">
       <defs>
        <path id="DejaVuSans-2e" d="M 684 794 
L 1344 794 
L 1344 0 
L 684 0 
L 684 794 
z
" transform="scale(0.015625)"/>
       </defs>
       <use xlink:href="#DejaVuSans-30"/>
       <use xlink:href="#DejaVuSans-2e" x="63.623047"/>
       <use xlink:href="#DejaVuSans-30" x="95.410156"/>
       <use xlink:href="#DejaVuSans-30" x="159.033203"/>
      </g>
     </g>
    </g>
    <g id="ytick_2">
     <g id="line2d_15">
      <path d="M 108 208.090304 
L 777.6 208.090304 
" clip-path="url(#p530e4abe6c)" style="fill: none; stroke: #b0b0b0; stroke-width: 0.8; stroke-linecap: square"/>
     </g>
     <g id="line2d_16">
      <g>
       <use xlink:href="#md2858451cc" x="108" y="208.090304" style="stroke: #000000; stroke-width: 0.8"/>
      </g>
     </g>
     <g id="text_9">
      <!-- 0.05 -->
      <g transform="translate(69.828125 213.409211) scale(0.14 -0.14)">
       <defs>
        <path id="DejaVuSans-35" d="M 691 4666 
L 3169 4666 
L 3169 4134 
L 1269 4134 
L 1269 2991 
Q 1406 3038 1543 3061 
Q 1681 3084 1819 3084 
Q 2600 3084 3056 2656 
Q 3513 2228 3513 1497 
Q 3513 744 3044 326 
Q 2575 -91 1722 -91 
Q 1428 -91 1123 -41 
Q 819 9 494 109 
L 494 744 
Q 775 591 1075 516 
Q 1375 441 1709 441 
Q 2250 441 2565 725 
Q 2881 1009 2881 1497 
Q 2881 1984 2565 2268 
Q 2250 2553 1709 2553 
Q 1456 2553 1204 2497 
Q 953 2441 691 2322 
L 691 4666 
z
" transform="scale(0.015625)"/>
       </defs>
       <use xlink:href="#DejaVuSans-30"/>
       <use xlink:href="#DejaVuSans-2e" x="63.623047"/>
       <use xlink:href="#DejaVuSans-30" x="95.410156"/>
       <use xlink:href="#DejaVuSans-35" x="159.033203"/>
      </g>
     </g>
    </g>
    <g id="ytick_3">
     <g id="line2d_17">
      <path d="M 108 169.940609 
L 777.6 169.940609 
" clip-path="url(#p530e4abe6c)" style="fill: none; stroke: #b0b0b0; stroke-width: 0.8; stroke-linecap: square"/>
     </g>
     <g id="line2d_18">
      <g>
       <use xlink:href="#md2858451cc" x="108" y="169.940609" style="stroke: #000000; stroke-width: 0.8"/>
      </g>
     </g>
     <g id="text_10">
      <!-- 0.10 -->
      <g transform="translate(69.828125 175.259515) scale(0.14 -0.14)">
       <use xlink:href="#DejaVuSans-30"/>
       <use xlink:href="#DejaVuSans-2e" x="63.623047"/>
       <use xlink:href="#DejaVuSans-31" x="95.410156"/>
       <use xlink:href="#DejaVuSans-30" x="159.033203"/>
      </g>
     </g>
    </g>
    <g id="ytick_4">
     <g id="line2d_19">
      <path d="M 108 131.790913 
L 777.6 131.790913 
" clip-path="url(#p530e4abe6c)" style="fill: none; stroke: #b0b0b0; stroke-width: 0.8; stroke-linecap: square"/>
     </g>
     <g id="line2d_20">
      <g>
       <use xlink:href="#md2858451cc" x="108" y="131.790913" style="stroke: #000000; stroke-width: 0.8"/>
      </g>
     </g>
     <g id="text_11">
      <!-- 0.15 -->
      <g transform="translate(69.828125 137.10982) scale(0.14 -0.14)">
       <use xlink:href="#DejaVuSans-30"/>
       <use xlink:href="#DejaVuSans-2e" x="63.623047"/>
       <use xlink:href="#DejaVuSans-31" x="95.410156"/>
       <use xlink:href="#DejaVuSans-35" x="159.033203"/>
      </g>
     </g>
    </g>
    <g id="ytick_5">
     <g id="line2d_21">
      <path d="M 108 93.641218 
L 777.6 93.641218 
" clip-path="url(#p530e4abe6c)" style="fill: none; stroke: #b0b0b0; stroke-width: 0.8; stroke-linecap: square"/>
     </g>
     <g id="line2d_22">
      <g>
       <use xlink:href="#md2858451cc" x="108" y="93.641218" style="stroke: #000000; stroke-width: 0.8"/>
      </g>
     </g>
     <g id="text_12">
      <!-- 0.20 -->
      <g transform="translate(69.828125 98.960124) scale(0.14 -0.14)">
       <use xlink:href="#DejaVuSans-30"/>
       <use xlink:href="#DejaVuSans-2e" x="63.623047"/>
       <use xlink:href="#DejaVuSans-32" x="95.410156"/>
       <use xlink:href="#DejaVuSans-30" x="159.033203"/>
      </g>
     </g>
    </g>
    <g id="ytick_6">
     <g id="line2d_23">
      <path d="M 108 55.491522 
L 777.6 55.491522 
" clip-path="url(#p530e4abe6c)" style="fill: none; stroke: #b0b0b0; stroke-width: 0.8; stroke-linecap: square"/>
     </g>
     <g id="line2d_24">
      <g>
       <use xlink:href="#md2858451cc" x="108" y="55.491522" style="stroke: #000000; stroke-width: 0.8"/>
      </g>
     </g>
     <g id="text_13">
      <!-- 0.25 -->
      <g transform="translate(69.828125 60.810428) scale(0.14 -0.14)">
       <use xlink:href="#DejaVuSans-30"/>
       <use xlink:href="#DejaVuSans-2e" x="63.623047"/>
       <use xlink:href="#DejaVuSans-32" x="95.410156"/>
       <use xlink:href="#DejaVuSans-35" x="159.033203"/>
      </g>
     </g>
    </g>
    <g id="text_14">
     <!-- $g_{Inhib}$ (µS) -->
     <g transform="translate(62.888125 178.83) rotate(-90) scale(0.14 -0.14)">
      <defs>
       <path id="DejaVuSans-Oblique-67" d="M 3816 3500 
L 3219 434 
Q 3047 -456 2561 -893 
Q 2075 -1331 1253 -1331 
Q 950 -1331 690 -1286 
Q 431 -1241 206 -1147 
L 313 -588 
Q 525 -725 762 -790 
Q 1000 -856 1269 -856 
Q 1816 -856 2167 -557 
Q 2519 -259 2631 300 
L 2681 563 
Q 2441 288 2122 144 
Q 1803 0 1434 0 
Q 903 0 598 351 
Q 294 703 294 1319 
Q 294 1803 478 2267 
Q 663 2731 997 3091 
Q 1219 3328 1514 3456 
Q 1809 3584 2131 3584 
Q 2484 3584 2746 3420 
Q 3009 3256 3138 2956 
L 3238 3500 
L 3816 3500 
z
M 2950 2216 
Q 2950 2641 2750 2872 
Q 2550 3103 2181 3103 
Q 1953 3103 1747 3012 
Q 1541 2922 1394 2759 
Q 1156 2491 1023 2127 
Q 891 1763 891 1375 
Q 891 944 1092 712 
Q 1294 481 1672 481 
Q 2219 481 2584 976 
Q 2950 1472 2950 2216 
z
" transform="scale(0.015625)"/>
       <path id="DejaVuSans-Oblique-49" d="M 1081 4666 
L 1716 4666 
L 806 0 
L 172 0 
L 1081 4666 
z
" transform="scale(0.015625)"/>
       <path id="DejaVuSans-Oblique-6e" d="M 3566 2113 
L 3156 0 
L 2578 0 
L 2988 2091 
Q 3016 2238 3031 2350 
Q 3047 2463 3047 2528 
Q 3047 2791 2881 2937 
Q 2716 3084 2419 3084 
Q 1956 3084 1622 2776 
Q 1288 2469 1184 1941 
L 800 0 
L 225 0 
L 903 3500 
L 1478 3500 
L 1363 2950 
Q 1603 3253 1940 3418 
Q 2278 3584 2650 3584 
Q 3113 3584 3367 3334 
Q 3622 3084 3622 2631 
Q 3622 2519 3608 2391 
Q 3594 2263 3566 2113 
z
" transform="scale(0.015625)"/>
       <path id="DejaVuSans-Oblique-68" d="M 3566 2113 
L 3156 0 
L 2578 0 
L 2988 2091 
Q 3016 2238 3031 2350 
Q 3047 2463 3047 2528 
Q 3047 2791 2881 2937 
Q 2716 3084 2419 3084 
Q 1956 3084 1617 2771 
Q 1278 2459 1178 1941 
L 800 0 
L 225 0 
L 1172 4863 
L 1747 4863 
L 1375 2950 
Q 1594 3244 1934 3414 
Q 2275 3584 2650 3584 
Q 3113 3584 3367 3334 
Q 3622 3084 3622 2631 
Q 3622 2519 3608 2391 
Q 3594 2263 3566 2113 
z
" transform="scale(0.015625)"/>
       <path id="DejaVuSans-Oblique-69" d="M 1172 4863 
L 1747 4863 
L 1606 4134 
L 1031 4134 
L 1172 4863 
z
M 909 3500 
L 1484 3500 
L 800 0 
L 225 0 
L 909 3500 
z
" transform="scale(0.015625)"/>
       <path id="DejaVuSans-Oblique-62" d="M 3169 2138 
Q 3169 2591 2961 2847 
Q 2753 3103 2388 3103 
Q 2122 3103 1889 2973 
Q 1656 2844 1484 2597 
Q 1303 2338 1198 1995 
Q 1094 1653 1094 1313 
Q 1094 881 1298 636 
Q 1503 391 1863 391 
Q 2134 391 2365 517 
Q 2597 644 2772 891 
Q 2950 1147 3059 1487 
Q 3169 1828 3169 2138 
z
M 1381 2969 
Q 1594 3256 1914 3420 
Q 2234 3584 2584 3584 
Q 3122 3584 3439 3221 
Q 3756 2859 3756 2241 
Q 3756 1734 3570 1259 
Q 3384 784 3041 416 
Q 2816 172 2522 40 
Q 2228 -91 1906 -91 
Q 1566 -91 1316 65 
Q 1066 222 909 531 
L 806 0 
L 231 0 
L 1178 4863 
L 1753 4863 
L 1381 2969 
z
" transform="scale(0.015625)"/>
       <path id="DejaVuSans-b5" d="M 544 -1331 
L 544 3500 
L 1119 3500 
L 1119 1325 
Q 1119 872 1334 640 
Q 1550 409 1972 409 
Q 2434 409 2667 671 
Q 2900 934 2900 1459 
L 2900 3500 
L 3475 3500 
L 3475 806 
Q 3475 619 3529 530 
Q 3584 441 3700 441 
Q 3728 441 3778 458 
Q 3828 475 3916 513 
L 3916 50 
Q 3788 -22 3673 -56 
Q 3559 -91 3450 -91 
Q 3234 -91 3106 31 
Q 2978 153 2931 403 
Q 2775 156 2548 32 
Q 2322 -91 2016 -91 
Q 1697 -91 1473 31 
Q 1250 153 1119 397 
L 1119 -1331 
L 544 -1331 
z
" transform="scale(0.015625)"/>
       <path id="DejaVuSans-53" d="M 3425 4513 
L 3425 3897 
Q 3066 4069 2747 4153 
Q 2428 4238 2131 4238 
Q 1616 4238 1336 4038 
Q 1056 3838 1056 3469 
Q 1056 3159 1242 3001 
Q 1428 2844 1947 2747 
L 2328 2669 
Q 3034 2534 3370 2195 
Q 3706 1856 3706 1288 
Q 3706 609 3251 259 
Q 2797 -91 1919 -91 
Q 1588 -91 1214 -16 
Q 841 59 441 206 
L 441 856 
Q 825 641 1194 531 
Q 1563 422 1919 422 
Q 2459 422 2753 634 
Q 3047 847 3047 1241 
Q 3047 1584 2836 1778 
Q 2625 1972 2144 2069 
L 1759 2144 
Q 1053 2284 737 2584 
Q 422 2884 422 3419 
Q 422 4038 858 4394 
Q 1294 4750 2059 4750 
Q 2388 4750 2728 4690 
Q 3069 4631 3425 4513 
z
" transform="scale(0.015625)"/>
      </defs>
      <use xlink:href="#DejaVuSans-Oblique-67" transform="translate(0 0.125)"/>
      <use xlink:href="#DejaVuSans-Oblique-49" transform="translate(63.476562 -16.28125) scale(0.7)"/>
      <use xlink:href="#DejaVuSans-Oblique-6e" transform="translate(84.121094 -16.28125) scale(0.7)"/>
      <use xlink:href="#DejaVuSans-Oblique-68" transform="translate(128.486328 -16.28125) scale(0.7)"/>
      <use xlink:href="#DejaVuSans-Oblique-69" transform="translate(172.851562 -16.28125) scale(0.7)"/>
      <use xlink:href="#DejaVuSans-Oblique-62" transform="translate(192.299805 -16.28125) scale(0.7)"/>
      <use xlink:href="#DejaVuSans-20" transform="translate(239.467773 0.125)"/>
      <use xlink:href="#DejaVuSans-28" transform="translate(271.254883 0.125)"/>
      <use xlink:href="#DejaVuSans-b5" transform="translate(310.268555 0.125)"/>
      <use xlink:href="#DejaVuSans-53" transform="translate(373.891602 0.125)"/>
      <use xlink:href="#DejaVuSans-29" transform="translate(437.368164 0.125)"/>
     </g>
    </g>
   </g>
   <g id="line2d_25">
    <path d="M 108 138.037506 
L 108.6696 132.433185 
L 109.3392 131.545498 
L 110.6784 135.047301 
L 111.348 129.648301 
L 112.0176 128.805365 
L 112.6872 123.3494 
L 113.3568 122.607684 
L 114.0264 124.437123 
L 115.3656 101.560795 
L 116.0352 100.854672 
L 116.7048 95.84786 
L 117.3744 81.17646 
L 118.044 78.238668 
L 119.3832 83.285191 
L 122.7312 95.964103 
L 123.4008 91.19315 
L 124.0704 90.968169 
L 126.0792 98.181686 
L 126.7488 86.189287 
L 127.4184 83.328211 
L 128.088 85.631581 
L 128.7576 81.026665 
L 130.0968 66.491016 
L 130.7664 66.505716 
L 132.7752 74.879682 
L 133.4448 70.447544 
L 134.1144 70.555934 
L 140.1408 94.252741 
L 140.8104 96.695098 
L 141.48 91.912398 
L 142.1496 91.675859 
L 148.8456 114.656353 
L 152.1936 124.894391 
L 155.5416 134.335845 
L 158.8896 143.042694 
L 162.2376 151.072095 
L 165.5856 158.476759 
L 168.9336 165.305293 
L 172.2816 171.602523 
L 175.6296 177.40979 
L 178.9776 182.765214 
L 182.3256 187.703953 
L 185.6736 192.258427 
L 189.0216 196.458534 
L 192.3696 200.331846 
L 195.7176 203.90379 
L 199.0656 207.197814 
L 202.4136 210.235543 
L 203.0832 203.628306 
L 203.7528 201.596549 
L 204.4224 202.156677 
L 207.7704 205.586638 
L 209.7792 207.515149 
L 210.4488 200.951627 
L 211.1184 198.962884 
L 212.4576 200.315371 
L 215.8056 203.888597 
L 217.8144 205.89766 
L 218.484 199.36013 
L 219.1536 197.396961 
L 220.4928 198.799372 
L 223.8408 202.490552 
L 226.5192 205.235615 
L 227.1888 198.708725 
L 227.8584 189.570214 
L 228.528 187.607094 
L 229.1976 188.392025 
L 229.8672 182.135803 
L 230.5368 180.44942 
L 231.2064 174.163561 
L 231.876 172.605288 
L 232.5456 166.445481 
L 233.2152 165.011233 
L 234.5544 167.446124 
L 237.9024 173.576785 
L 238.572 167.558635 
L 239.2416 166.1065 
L 239.9112 167.236935 
L 240.5808 154.134854 
L 241.2504 150.181927 
L 241.92 151.410992 
L 243.2592 127.674718 
L 243.9288 119.363147 
L 244.5984 104.156599 
L 245.268 93.663719 
L 245.9376 93.084498 
L 247.2768 97.812467 
L 247.9464 93.011811 
L 248.616 92.757605 
L 249.2856 95.066718 
L 249.9552 90.310185 
L 250.6248 90.099393 
L 251.964 94.922529 
L 252.6336 90.168313 
L 253.3032 89.959801 
L 253.9728 77.942254 
L 254.6424 68.027893 
L 255.312 67.860627 
L 256.6512 73.392752 
L 257.3208 68.984508 
L 257.9904 69.116409 
L 261.3384 82.75034 
L 262.008 78.191724 
L 262.6776 78.17567 
L 263.3472 80.719107 
L 264.0168 76.193133 
L 264.6864 76.209195 
L 268.0344 89.291262 
L 268.704 84.627538 
L 269.3736 84.508063 
L 276.0696 108.560564 
L 276.7392 103.587191 
L 277.4088 103.163044 
L 284.7744 126.383025 
L 288.1224 135.708653 
L 289.4616 139.232475 
L 290.1312 133.766221 
L 290.8008 132.857112 
L 292.8096 138.083505 
L 296.1576 146.498763 
L 299.5056 154.25926 
L 302.8536 161.415942 
L 306.2016 168.015789 
L 309.5496 174.102126 
L 312.8976 179.714908 
L 316.2456 184.89098 
L 319.5936 189.66432 
L 322.9416 194.066265 
L 326.2896 198.125711 
L 329.6376 201.869306 
L 332.9856 205.321626 
L 337.0032 209.11171 
L 338.3424 210.295388 
L 339.012 203.687189 
L 339.6816 201.654487 
L 340.3512 202.213684 
L 343.6992 205.639209 
L 345.708 207.565226 
L 346.3776 201.0009 
L 347.0472 191.825554 
L 347.7168 189.826193 
L 349.056 191.469965 
L 352.404 195.731419 
L 354.4128 198.127441 
L 355.0824 191.714775 
L 355.752 189.874463 
L 357.0912 191.516696 
L 358.4304 193.261316 
L 359.1 186.926846 
L 359.7696 185.163474 
L 361.1088 186.955896 
L 361.7784 187.908561 
L 362.448 181.660108 
L 363.1176 179.981369 
L 364.4568 181.939001 
L 366.4656 184.989307 
L 367.1352 178.787764 
L 367.8048 177.155183 
L 368.4744 170.92226 
L 369.144 162.230264 
L 369.8136 139.149053 
L 371.1528 126.732277 
L 371.8224 125.936201 
L 374.5008 133.334866 
L 375.1704 127.963383 
L 375.84 127.147524 
L 376.5096 121.718199 
L 377.1792 106.631076 
L 377.8488 103.284242 
L 379.188 107.532293 
L 379.8576 102.575444 
L 380.5272 87.795936 
L 381.1968 84.751772 
L 382.536 89.590653 
L 383.2056 92.107927 
L 383.8752 80.21313 
L 384.5448 77.448088 
L 385.884 82.519815 
L 386.5536 77.964904 
L 387.2232 70.766684 
L 387.8928 70.712676 
L 388.5624 73.376041 
L 389.232 68.968066 
L 389.9016 69.10023 
L 390.5712 71.789506 
L 391.2408 67.407025 
L 391.9104 67.564275 
L 397.9368 91.666959 
L 398.6064 94.150869 
L 399.276 89.409053 
L 399.9456 89.212741 
L 401.2848 94.064145 
L 401.9544 89.323722 
L 402.624 89.128782 
L 403.2936 91.496209 
L 403.9632 86.797052 
L 404.6328 86.642714 
L 411.3288 110.375959 
L 412.668 114.707406 
L 413.3376 109.635257 
L 414.0072 109.11392 
L 421.3728 131.362569 
L 424.7208 140.300758 
L 428.0688 148.543499 
L 431.4168 156.144903 
L 434.7648 163.15487 
L 438.1128 169.619418 
L 441.4608 175.580982 
L 444.8088 181.0787 
L 448.1568 186.14866 
L 451.5048 190.824145 
L 454.8528 195.135848 
L 458.2008 199.112074 
L 461.5488 202.778924 
L 464.8968 206.16047 
L 466.236 207.438235 
L 466.9056 200.875949 
L 467.5752 198.888422 
L 468.9144 200.243283 
L 472.2624 203.822118 
L 475.6104 207.122497 
L 479.628 210.745775 
L 483.6456 214.033444 
L 487.6632 217.016592 
L 488.3328 210.300387 
L 489.0024 208.161414 
L 489.672 208.616048 
L 490.3416 209.220646 
L 491.0112 202.629718 
L 492.3504 184.217273 
L 493.02 182.340173 
L 493.6896 183.20974 
L 494.3592 177.036794 
L 495.0288 175.43235 
L 495.6984 169.227113 
L 496.368 167.748166 
L 497.7072 170.095802 
L 498.3768 164.13359 
L 499.0464 155.550684 
L 499.716 139.76262 
L 500.3856 135.883379 
L 501.0552 122.970594 
L 501.7248 119.518462 
L 503.064 123.248954 
L 505.0728 129.083394 
L 505.7424 116.59442 
L 506.412 113.244749 
L 507.0816 115.067376 
L 507.7512 109.989442 
L 508.4208 109.462414 
L 509.0904 104.31728 
L 509.76 103.881401 
L 512.4384 112.663897 
L 513.108 107.624587 
L 513.7776 107.135561 
L 514.4472 102.027818 
L 515.1168 101.62873 
L 515.7864 103.795289 
L 516.456 84.526872 
L 517.1256 78.976006 
L 517.7952 81.192044 
L 518.4648 76.65847 
L 519.1344 76.667054 
L 519.804 72.048924 
L 520.4736 72.131581 
L 522.4824 80.238667 
L 523.152 75.720413 
L 523.8216 75.744071 
L 525.8304 83.679788 
L 526.5 79.106236 
L 527.1696 79.075486 
L 529.848 89.414432 
L 530.5176 84.748728 
L 531.1872 84.627306 
L 532.5264 89.624896 
L 533.196 84.95581 
L 533.8656 84.83106 
L 540.5616 108.835254 
L 543.9096 119.52621 
L 544.5792 114.376625 
L 545.2488 113.779098 
L 546.588 117.847307 
L 547.2576 112.724702 
L 547.9272 112.15372 
L 555.2928 133.906198 
L 558.6408 142.646476 
L 561.9888 150.706706 
L 565.3368 158.139799 
L 568.6848 164.99455 
L 572.0328 171.315959 
L 575.3808 177.145522 
L 578.7288 182.521508 
L 582.0768 187.479209 
L 585.4248 192.051169 
L 588.7728 196.267402 
L 592.1208 200.155585 
L 595.4688 203.741243 
L 598.8168 207.047915 
L 602.8344 210.678101 
L 606.852 213.972039 
L 610.8696 216.960875 
L 612.2088 217.894315 
L 612.8784 211.164005 
L 613.548 209.011154 
L 614.2176 209.452133 
L 614.8872 202.857485 
L 615.5568 200.838116 
L 616.2264 201.410431 
L 619.5744 204.898455 
L 621.5832 206.859612 
L 622.2528 200.306624 
L 622.9224 198.328246 
L 624.2616 199.700966 
L 625.6008 201.184665 
L 626.2704 194.722871 
L 626.94 185.64841 
L 627.6096 183.748312 
L 628.2792 177.409442 
L 628.9488 175.799009 
L 630.288 177.889978 
L 631.6272 180.069028 
L 632.2968 173.946551 
L 632.9664 165.205956 
L 633.636 163.634357 
L 634.9752 166.113144 
L 636.984 169.914196 
L 637.6536 163.954902 
L 638.3232 162.560677 
L 639.6624 165.073694 
L 640.332 166.377995 
L 641.0016 160.475526 
L 641.6712 159.137213 
L 643.0104 161.759372 
L 643.68 155.931122 
L 644.3496 147.480025 
L 645.0192 131.821653 
L 645.6888 120.88421 
L 646.3584 119.867569 
L 647.028 114.55523 
L 647.6976 113.954832 
L 649.0368 118.017439 
L 649.7064 112.8921 
L 650.376 112.318428 
L 651.0456 114.313209 
L 651.7152 109.247395 
L 652.3848 108.732291 
L 653.0544 103.59889 
L 653.724 95.988745 
L 654.3936 95.529432 
L 657.072 104.835973 
L 657.7416 99.922453 
L 658.4112 99.557197 
L 660.42 106.363268 
L 661.0896 101.425205 
L 661.7592 86.66418 
L 662.4288 76.452394 
L 663.0984 76.14975 
L 666.4464 89.236443 
L 667.116 84.573599 
L 667.7856 84.454991 
L 668.4552 72.525903 
L 669.1248 69.884391 
L 670.464 75.197254 
L 673.812 88.505459 
L 674.4816 83.854362 
L 675.1512 83.747311 
L 681.8472 107.913589 
L 685.1952 118.676257 
L 688.5432 128.601521 
L 691.8912 137.754537 
L 695.2392 146.19539 
L 698.5872 153.979492 
L 701.2656 159.768387 
L 701.9352 153.972131 
L 702.6048 152.738324 
L 704.6136 157.021594 
L 707.9616 163.963349 
L 711.3096 170.364991 
L 714.6576 176.268546 
L 718.0056 181.712766 
L 721.3536 186.733392 
L 724.7016 191.363382 
L 728.0496 195.633129 
L 731.3976 199.570662 
L 734.7456 203.201831 
L 736.0848 204.57392 
L 736.7544 198.057663 
L 737.424 196.115424 
L 738.7632 197.55869 
L 742.1112 201.346403 
L 745.4592 204.839408 
L 748.8072 208.060635 
L 752.8248 211.597018 
L 754.164 212.701462 
L 754.8336 206.054599 
L 755.5032 203.983853 
L 756.1728 204.505618 
L 756.8424 205.176268 
L 757.512 198.650331 
L 758.1816 189.512759 
L 758.8512 187.550563 
L 760.1904 189.266883 
L 762.1992 191.969569 
L 762.8688 185.655857 
L 763.5384 183.912909 
L 764.208 177.571394 
L 764.8776 168.772549 
L 765.5472 167.143637 
L 766.2168 161.071596 
L 766.8864 159.723704 
L 768.2256 162.327165 
L 771.5736 168.856113 
L 772.2432 162.913822 
L 772.9128 147.164707 
L 773.5824 135.980708 
L 774.252 134.721475 
L 774.9216 136.356251 
L 775.5912 123.750406 
L 776.2608 120.285742 
L 777.6 123.991773 
L 777.6 123.991773 
" clip-path="url(#p530e4abe6c)" style="fill: none; stroke: #ff4500; stroke-width: 1.5; stroke-linecap: square"/>
   </g>
   <g id="patch_3">
    <path d="M 108 256.32 
L 108 34.56 
" style="fill: none; stroke: #000000; stroke-width: 0.8; stroke-linejoin: miter; stroke-linecap: square"/>
   </g>
   <g id="patch_4">
    <path d="M 777.6 256.32 
L 777.6 34.56 
" style="fill: none; stroke: #000000; stroke-width: 0.8; stroke-linejoin: miter; stroke-linecap: square"/>
   </g>
   <g id="patch_5">
    <path d="M 108 256.32 
L 777.6 256.32 
" style="fill: none; stroke: #000000; stroke-width: 0.8; stroke-linejoin: miter; stroke-linecap: square"/>
   </g>
   <g id="patch_6">
    <path d="M 108 34.56 
L 777.6 34.56 
" style="fill: none; stroke: #000000; stroke-width: 0.8; stroke-linejoin: miter; stroke-linecap: square"/>
   </g>
  </g>
 </g>
 <defs>
  <clipPath id="p530e4abe6c">
   <rect x="108" y="34.56" width="669.6" height="221.76"/>
  </clipPath>
 </defs>
</svg>
