<?xml version="1.0" encoding="utf-8" standalone="no"?>
<!DOCTYPE svg PUBLIC "-//W3C//DTD SVG 1.1//EN"
  "http://www.w3.org/Graphics/SVG/1.1/DTD/svg11.dtd">
<svg xmlns:xlink="http://www.w3.org/1999/xlink" width="864pt" height="288pt" viewBox="0 0 864 288" xmlns="http://www.w3.org/2000/svg" version="1.1">
 <metadata>
  <rdf:RDF xmlns:dc="http://purl.org/dc/elements/1.1/" xmlns:cc="http://creativecommons.org/ns#" xmlns:rdf="http://www.w3.org/1999/02/22-rdf-syntax-ns#">
   <cc:Work>
    <dc:type rdf:resource="http://purl.org/dc/dcmitype/StillImage"/>
    <dc:date>2024-04-26T13:28:29.516317</dc:date>
    <dc:format>image/svg+xml</dc:format>
    <dc:creator>
     <cc:Agent>
      <dc:title>Matplotlib v3.8.2, https://matplotlib.org/</dc:title>
     </cc:Agent>
    </dc:creator>
   </cc:Work>
  </rdf:RDF>
 </metadata>
 <defs>
  <style type="text/css">*{stroke-linejoin: round; stroke-linecap: butt}</style>
 </defs>
 <g id="figure_1">
  <g id="patch_1">
   <path d="M 0 288 
L 864 288 
L 864 0 
L 0 0 
z
" style="fill: #ffffff"/>
  </g>
  <g id="axes_1">
   <g id="patch_2">
    <path d="M 108 256.32 
L 777.6 256.32 
L 777.6 34.56 
L 108 34.56 
z
" style="fill: #ffffff"/>
   </g>
   <g id="matplotlib.axis_1">
    <g id="xtick_1">
     <g id="line2d_1">
      <path d="M 108 256.32 
L 108 34.56 
" clip-path="url(#pa00adbc31a)" style="fill: none; stroke: #b0b0b0; stroke-width: 0.8; stroke-linecap: square"/>
     </g>
     <g id="line2d_2">
      <defs>
       <path id="m4fac2ed8e7" d="M 0 0 
L 0 3.5 
" style="stroke: #000000; stroke-width: 0.8"/>
      </defs>
      <g>
       <use xlink:href="#m4fac2ed8e7" x="108" y="256.32" style="stroke: #000000; stroke-width: 0.8"/>
      </g>
     </g>
     <g id="text_1">
      <!-- 100 -->
      <g transform="translate(94.63875 273.957812) scale(0.14 -0.14)">
       <defs>
        <path id="DejaVuSans-31" d="M 794 531 
L 1825 531 
L 1825 4091 
L 703 3866 
L 703 4441 
L 1819 4666 
L 2450 4666 
L 2450 531 
L 3481 531 
L 3481 0 
L 794 0 
L 794 531 
z
" transform="scale(0.015625)"/>
        <path id="DejaVuSans-30" d="M 2034 4250 
Q 1547 4250 1301 3770 
Q 1056 3291 1056 2328 
Q 1056 1369 1301 889 
Q 1547 409 2034 409 
Q 2525 409 2770 889 
Q 3016 1369 3016 2328 
Q 3016 3291 2770 3770 
Q 2525 4250 2034 4250 
z
M 2034 4750 
Q 2819 4750 3233 4129 
Q 3647 3509 3647 2328 
Q 3647 1150 3233 529 
Q 2819 -91 2034 -91 
Q 1250 -91 836 529 
Q 422 1150 422 2328 
Q 422 3509 836 4129 
Q 1250 4750 2034 4750 
z
" transform="scale(0.015625)"/>
       </defs>
       <use xlink:href="#DejaVuSans-31"/>
       <use xlink:href="#DejaVuSans-30" x="63.623047"/>
       <use xlink:href="#DejaVuSans-30" x="127.246094"/>
      </g>
     </g>
    </g>
    <g id="xtick_2">
     <g id="line2d_3">
      <path d="M 241.92 256.32 
L 241.92 34.56 
" clip-path="url(#pa00adbc31a)" style="fill: none; stroke: #b0b0b0; stroke-width: 0.8; stroke-linecap: square"/>
     </g>
     <g id="line2d_4">
      <g>
       <use xlink:href="#m4fac2ed8e7" x="241.92" y="256.32" style="stroke: #000000; stroke-width: 0.8"/>
      </g>
     </g>
     <g id="text_2">
      <!-- 120 -->
      <g transform="translate(228.55875 273.957812) scale(0.14 -0.14)">
       <defs>
        <path id="DejaVuSans-32" d="M 1228 531 
L 3431 531 
L 3431 0 
L 469 0 
L 469 531 
Q 828 903 1448 1529 
Q 2069 2156 2228 2338 
Q 2531 2678 2651 2914 
Q 2772 3150 2772 3378 
Q 2772 3750 2511 3984 
Q 2250 4219 1831 4219 
Q 1534 4219 1204 4116 
Q 875 4013 500 3803 
L 500 4441 
Q 881 4594 1212 4672 
Q 1544 4750 1819 4750 
Q 2544 4750 2975 4387 
Q 3406 4025 3406 3419 
Q 3406 3131 3298 2873 
Q 3191 2616 2906 2266 
Q 2828 2175 2409 1742 
Q 1991 1309 1228 531 
z
" transform="scale(0.015625)"/>
       </defs>
       <use xlink:href="#DejaVuSans-31"/>
       <use xlink:href="#DejaVuSans-32" x="63.623047"/>
       <use xlink:href="#DejaVuSans-30" x="127.246094"/>
      </g>
     </g>
    </g>
    <g id="xtick_3">
     <g id="line2d_5">
      <path d="M 375.84 256.32 
L 375.84 34.56 
" clip-path="url(#pa00adbc31a)" style="fill: none; stroke: #b0b0b0; stroke-width: 0.8; stroke-linecap: square"/>
     </g>
     <g id="line2d_6">
      <g>
       <use xlink:href="#m4fac2ed8e7" x="375.84" y="256.32" style="stroke: #000000; stroke-width: 0.8"/>
      </g>
     </g>
     <g id="text_3">
      <!-- 140 -->
      <g transform="translate(362.47875 273.957812) scale(0.14 -0.14)">
       <defs>
        <path id="DejaVuSans-34" d="M 2419 4116 
L 825 1625 
L 2419 1625 
L 2419 4116 
z
M 2253 4666 
L 3047 4666 
L 3047 1625 
L 3713 1625 
L 3713 1100 
L 3047 1100 
L 3047 0 
L 2419 0 
L 2419 1100 
L 313 1100 
L 313 1709 
L 2253 4666 
z
" transform="scale(0.015625)"/>
       </defs>
       <use xlink:href="#DejaVuSans-31"/>
       <use xlink:href="#DejaVuSans-34" x="63.623047"/>
       <use xlink:href="#DejaVuSans-30" x="127.246094"/>
      </g>
     </g>
    </g>
    <g id="xtick_4">
     <g id="line2d_7">
      <path d="M 509.76 256.32 
L 509.76 34.56 
" clip-path="url(#pa00adbc31a)" style="fill: none; stroke: #b0b0b0; stroke-width: 0.8; stroke-linecap: square"/>
     </g>
     <g id="line2d_8">
      <g>
       <use xlink:href="#m4fac2ed8e7" x="509.76" y="256.32" style="stroke: #000000; stroke-width: 0.8"/>
      </g>
     </g>
     <g id="text_4">
      <!-- 160 -->
      <g transform="translate(496.39875 273.957812) scale(0.14 -0.14)">
       <defs>
        <path id="DejaVuSans-36" d="M 2113 2584 
Q 1688 2584 1439 2293 
Q 1191 2003 1191 1497 
Q 1191 994 1439 701 
Q 1688 409 2113 409 
Q 2538 409 2786 701 
Q 3034 994 3034 1497 
Q 3034 2003 2786 2293 
Q 2538 2584 2113 2584 
z
M 3366 4563 
L 3366 3988 
Q 3128 4100 2886 4159 
Q 2644 4219 2406 4219 
Q 1781 4219 1451 3797 
Q 1122 3375 1075 2522 
Q 1259 2794 1537 2939 
Q 1816 3084 2150 3084 
Q 2853 3084 3261 2657 
Q 3669 2231 3669 1497 
Q 3669 778 3244 343 
Q 2819 -91 2113 -91 
Q 1303 -91 875 529 
Q 447 1150 447 2328 
Q 447 3434 972 4092 
Q 1497 4750 2381 4750 
Q 2619 4750 2861 4703 
Q 3103 4656 3366 4563 
z
" transform="scale(0.015625)"/>
       </defs>
       <use xlink:href="#DejaVuSans-31"/>
       <use xlink:href="#DejaVuSans-36" x="63.623047"/>
       <use xlink:href="#DejaVuSans-30" x="127.246094"/>
      </g>
     </g>
    </g>
    <g id="xtick_5">
     <g id="line2d_9">
      <path d="M 643.68 256.32 
L 643.68 34.56 
" clip-path="url(#pa00adbc31a)" style="fill: none; stroke: #b0b0b0; stroke-width: 0.8; stroke-linecap: square"/>
     </g>
     <g id="line2d_10">
      <g>
       <use xlink:href="#m4fac2ed8e7" x="643.68" y="256.32" style="stroke: #000000; stroke-width: 0.8"/>
      </g>
     </g>
     <g id="text_5">
      <!-- 180 -->
      <g transform="translate(630.31875 273.957812) scale(0.14 -0.14)">
       <defs>
        <path id="DejaVuSans-38" d="M 2034 2216 
Q 1584 2216 1326 1975 
Q 1069 1734 1069 1313 
Q 1069 891 1326 650 
Q 1584 409 2034 409 
Q 2484 409 2743 651 
Q 3003 894 3003 1313 
Q 3003 1734 2745 1975 
Q 2488 2216 2034 2216 
z
M 1403 2484 
Q 997 2584 770 2862 
Q 544 3141 544 3541 
Q 544 4100 942 4425 
Q 1341 4750 2034 4750 
Q 2731 4750 3128 4425 
Q 3525 4100 3525 3541 
Q 3525 3141 3298 2862 
Q 3072 2584 2669 2484 
Q 3125 2378 3379 2068 
Q 3634 1759 3634 1313 
Q 3634 634 3220 271 
Q 2806 -91 2034 -91 
Q 1263 -91 848 271 
Q 434 634 434 1313 
Q 434 1759 690 2068 
Q 947 2378 1403 2484 
z
M 1172 3481 
Q 1172 3119 1398 2916 
Q 1625 2713 2034 2713 
Q 2441 2713 2670 2916 
Q 2900 3119 2900 3481 
Q 2900 3844 2670 4047 
Q 2441 4250 2034 4250 
Q 1625 4250 1398 4047 
Q 1172 3844 1172 3481 
z
" transform="scale(0.015625)"/>
       </defs>
       <use xlink:href="#DejaVuSans-31"/>
       <use xlink:href="#DejaVuSans-38" x="63.623047"/>
       <use xlink:href="#DejaVuSans-30" x="127.246094"/>
      </g>
     </g>
    </g>
    <g id="xtick_6">
     <g id="line2d_11">
      <path d="M 777.6 256.32 
L 777.6 34.56 
" clip-path="url(#pa00adbc31a)" style="fill: none; stroke: #b0b0b0; stroke-width: 0.8; stroke-linecap: square"/>
     </g>
     <g id="line2d_12">
      <g>
       <use xlink:href="#m4fac2ed8e7" x="777.6" y="256.32" style="stroke: #000000; stroke-width: 0.8"/>
      </g>
     </g>
     <g id="text_6">
      <!-- 200 -->
      <g transform="translate(764.23875 273.957812) scale(0.14 -0.14)">
       <use xlink:href="#DejaVuSans-32"/>
       <use xlink:href="#DejaVuSans-30" x="63.623047"/>
       <use xlink:href="#DejaVuSans-30" x="127.246094"/>
      </g>
     </g>
    </g>
    <g id="text_7">
     <!-- Time (ms) -->
     <g transform="translate(407.521094 291.507187) scale(0.14 -0.14)">
      <defs>
       <path id="DejaVuSans-54" d="M -19 4666 
L 3928 4666 
L 3928 4134 
L 2272 4134 
L 2272 0 
L 1638 0 
L 1638 4134 
L -19 4134 
L -19 4666 
z
" transform="scale(0.015625)"/>
       <path id="DejaVuSans-69" d="M 603 3500 
L 1178 3500 
L 1178 0 
L 603 0 
L 603 3500 
z
M 603 4863 
L 1178 4863 
L 1178 4134 
L 603 4134 
L 603 4863 
z
" transform="scale(0.015625)"/>
       <path id="DejaVuSans-6d" d="M 3328 2828 
Q 3544 3216 3844 3400 
Q 4144 3584 4550 3584 
Q 5097 3584 5394 3201 
Q 5691 2819 5691 2113 
L 5691 0 
L 5113 0 
L 5113 2094 
Q 5113 2597 4934 2840 
Q 4756 3084 4391 3084 
Q 3944 3084 3684 2787 
Q 3425 2491 3425 1978 
L 3425 0 
L 2847 0 
L 2847 2094 
Q 2847 2600 2669 2842 
Q 2491 3084 2119 3084 
Q 1678 3084 1418 2786 
Q 1159 2488 1159 1978 
L 1159 0 
L 581 0 
L 581 3500 
L 1159 3500 
L 1159 2956 
Q 1356 3278 1631 3431 
Q 1906 3584 2284 3584 
Q 2666 3584 2933 3390 
Q 3200 3197 3328 2828 
z
" transform="scale(0.015625)"/>
       <path id="DejaVuSans-65" d="M 3597 1894 
L 3597 1613 
L 953 1613 
Q 991 1019 1311 708 
Q 1631 397 2203 397 
Q 2534 397 2845 478 
Q 3156 559 3463 722 
L 3463 178 
Q 3153 47 2828 -22 
Q 2503 -91 2169 -91 
Q 1331 -91 842 396 
Q 353 884 353 1716 
Q 353 2575 817 3079 
Q 1281 3584 2069 3584 
Q 2775 3584 3186 3129 
Q 3597 2675 3597 1894 
z
M 3022 2063 
Q 3016 2534 2758 2815 
Q 2500 3097 2075 3097 
Q 1594 3097 1305 2825 
Q 1016 2553 972 2059 
L 3022 2063 
z
" transform="scale(0.015625)"/>
       <path id="DejaVuSans-20" transform="scale(0.015625)"/>
       <path id="DejaVuSans-28" d="M 1984 4856 
Q 1566 4138 1362 3434 
Q 1159 2731 1159 2009 
Q 1159 1288 1364 580 
Q 1569 -128 1984 -844 
L 1484 -844 
Q 1016 -109 783 600 
Q 550 1309 550 2009 
Q 550 2706 781 3412 
Q 1013 4119 1484 4856 
L 1984 4856 
z
" transform="scale(0.015625)"/>
       <path id="DejaVuSans-73" d="M 2834 3397 
L 2834 2853 
Q 2591 2978 2328 3040 
Q 2066 3103 1784 3103 
Q 1356 3103 1142 2972 
Q 928 2841 928 2578 
Q 928 2378 1081 2264 
Q 1234 2150 1697 2047 
L 1894 2003 
Q 2506 1872 2764 1633 
Q 3022 1394 3022 966 
Q 3022 478 2636 193 
Q 2250 -91 1575 -91 
Q 1294 -91 989 -36 
Q 684 19 347 128 
L 347 722 
Q 666 556 975 473 
Q 1284 391 1588 391 
Q 1994 391 2212 530 
Q 2431 669 2431 922 
Q 2431 1156 2273 1281 
Q 2116 1406 1581 1522 
L 1381 1569 
Q 847 1681 609 1914 
Q 372 2147 372 2553 
Q 372 3047 722 3315 
Q 1072 3584 1716 3584 
Q 2034 3584 2315 3537 
Q 2597 3491 2834 3397 
z
" transform="scale(0.015625)"/>
       <path id="DejaVuSans-29" d="M 513 4856 
L 1013 4856 
Q 1481 4119 1714 3412 
Q 1947 2706 1947 2009 
Q 1947 1309 1714 600 
Q 1481 -109 1013 -844 
L 513 -844 
Q 928 -128 1133 580 
Q 1338 1288 1338 2009 
Q 1338 2731 1133 3434 
Q 928 4138 513 4856 
z
" transform="scale(0.015625)"/>
      </defs>
      <use xlink:href="#DejaVuSans-54"/>
      <use xlink:href="#DejaVuSans-69" x="57.958984"/>
      <use xlink:href="#DejaVuSans-6d" x="85.742188"/>
      <use xlink:href="#DejaVuSans-65" x="183.154297"/>
      <use xlink:href="#DejaVuSans-20" x="244.677734"/>
      <use xlink:href="#DejaVuSans-28" x="276.464844"/>
      <use xlink:href="#DejaVuSans-6d" x="315.478516"/>
      <use xlink:href="#DejaVuSans-73" x="412.890625"/>
      <use xlink:href="#DejaVuSans-29" x="464.990234"/>
     </g>
    </g>
   </g>
   <g id="matplotlib.axis_2">
    <g id="ytick_1">
     <g id="line2d_13">
      <path d="M 108 224.790141 
L 777.6 224.790141 
" clip-path="url(#pa00adbc31a)" style="fill: none; stroke: #b0b0b0; stroke-width: 0.8; stroke-linecap: square"/>
     </g>
     <g id="line2d_14">
      <defs>
       <path id="md22a6ac473" d="M 0 0 
L -3.5 0 
" style="stroke: #000000; stroke-width: 0.8"/>
      </defs>
      <g>
       <use xlink:href="#md22a6ac473" x="108" y="224.790141" style="stroke: #000000; stroke-width: 0.8"/>
      </g>
     </g>
     <g id="text_8">
      <!-- −60 -->
      <g transform="translate(71.453437 230.109047) scale(0.14 -0.14)">
       <defs>
        <path id="DejaVuSans-2212" d="M 678 2272 
L 4684 2272 
L 4684 1741 
L 678 1741 
L 678 2272 
z
" transform="scale(0.015625)"/>
       </defs>
       <use xlink:href="#DejaVuSans-2212"/>
       <use xlink:href="#DejaVuSans-36" x="83.789062"/>
       <use xlink:href="#DejaVuSans-30" x="147.412109"/>
      </g>
     </g>
    </g>
    <g id="ytick_2">
     <g id="line2d_15">
      <path d="M 108 181.95878 
L 777.6 181.95878 
" clip-path="url(#pa00adbc31a)" style="fill: none; stroke: #b0b0b0; stroke-width: 0.8; stroke-linecap: square"/>
     </g>
     <g id="line2d_16">
      <g>
       <use xlink:href="#md22a6ac473" x="108" y="181.95878" style="stroke: #000000; stroke-width: 0.8"/>
      </g>
     </g>
     <g id="text_9">
      <!-- −40 -->
      <g transform="translate(71.453437 187.277686) scale(0.14 -0.14)">
       <use xlink:href="#DejaVuSans-2212"/>
       <use xlink:href="#DejaVuSans-34" x="83.789062"/>
       <use xlink:href="#DejaVuSans-30" x="147.412109"/>
      </g>
     </g>
    </g>
    <g id="ytick_3">
     <g id="line2d_17">
      <path d="M 108 139.127419 
L 777.6 139.127419 
" clip-path="url(#pa00adbc31a)" style="fill: none; stroke: #b0b0b0; stroke-width: 0.8; stroke-linecap: square"/>
     </g>
     <g id="line2d_18">
      <g>
       <use xlink:href="#md22a6ac473" x="108" y="139.127419" style="stroke: #000000; stroke-width: 0.8"/>
      </g>
     </g>
     <g id="text_10">
      <!-- −20 -->
      <g transform="translate(71.453437 144.446325) scale(0.14 -0.14)">
       <use xlink:href="#DejaVuSans-2212"/>
       <use xlink:href="#DejaVuSans-32" x="83.789062"/>
       <use xlink:href="#DejaVuSans-30" x="147.412109"/>
      </g>
     </g>
    </g>
    <g id="ytick_4">
     <g id="line2d_19">
      <path d="M 108 96.296058 
L 777.6 96.296058 
" clip-path="url(#pa00adbc31a)" style="fill: none; stroke: #b0b0b0; stroke-width: 0.8; stroke-linecap: square"/>
     </g>
     <g id="line2d_20">
      <g>
       <use xlink:href="#md22a6ac473" x="108" y="96.296058" style="stroke: #000000; stroke-width: 0.8"/>
      </g>
     </g>
     <g id="text_11">
      <!-- 0 -->
      <g transform="translate(92.0925 101.614964) scale(0.14 -0.14)">
       <use xlink:href="#DejaVuSans-30"/>
      </g>
     </g>
    </g>
    <g id="ytick_5">
     <g id="line2d_21">
      <path d="M 108 53.464697 
L 777.6 53.464697 
" clip-path="url(#pa00adbc31a)" style="fill: none; stroke: #b0b0b0; stroke-width: 0.8; stroke-linecap: square"/>
     </g>
     <g id="line2d_22">
      <g>
       <use xlink:href="#md22a6ac473" x="108" y="53.464697" style="stroke: #000000; stroke-width: 0.8"/>
      </g>
     </g>
     <g id="text_12">
      <!-- 20 -->
      <g transform="translate(83.185 58.783603) scale(0.14 -0.14)">
       <use xlink:href="#DejaVuSans-32"/>
       <use xlink:href="#DejaVuSans-30" x="63.623047"/>
      </g>
     </g>
    </g>
    <g id="text_13">
     <!-- $V_{m}$ (mV) -->
     <g transform="translate(64.541875 174.49) rotate(-90) scale(0.14 -0.14)">
      <defs>
       <path id="DejaVuSans-Oblique-56" d="M 1319 0 
L 500 4666 
L 1119 4666 
L 1797 653 
L 4063 4666 
L 4750 4666 
L 2053 0 
L 1319 0 
z
" transform="scale(0.015625)"/>
       <path id="DejaVuSans-Oblique-6d" d="M 5747 2113 
L 5338 0 
L 4763 0 
L 5166 2094 
Q 5191 2228 5203 2325 
Q 5216 2422 5216 2491 
Q 5216 2772 5059 2928 
Q 4903 3084 4622 3084 
Q 4203 3084 3875 2770 
Q 3547 2456 3450 1953 
L 3066 0 
L 2491 0 
L 2900 2094 
Q 2925 2209 2937 2307 
Q 2950 2406 2950 2484 
Q 2950 2769 2794 2926 
Q 2638 3084 2363 3084 
Q 1938 3084 1609 2770 
Q 1281 2456 1184 1953 
L 800 0 
L 225 0 
L 909 3500 
L 1484 3500 
L 1375 2956 
Q 1609 3263 1923 3423 
Q 2238 3584 2597 3584 
Q 2978 3584 3223 3384 
Q 3469 3184 3519 2828 
Q 3781 3197 4126 3390 
Q 4472 3584 4856 3584 
Q 5306 3584 5551 3325 
Q 5797 3066 5797 2591 
Q 5797 2488 5784 2364 
Q 5772 2241 5747 2113 
z
" transform="scale(0.015625)"/>
       <path id="DejaVuSans-56" d="M 1831 0 
L 50 4666 
L 709 4666 
L 2188 738 
L 3669 4666 
L 4325 4666 
L 2547 0 
L 1831 0 
z
" transform="scale(0.015625)"/>
      </defs>
      <use xlink:href="#DejaVuSans-Oblique-56" transform="translate(0 0.125)"/>
      <use xlink:href="#DejaVuSans-Oblique-6d" transform="translate(68.408203 -16.28125) scale(0.7)"/>
      <use xlink:href="#DejaVuSans-20" transform="translate(139.331055 0.125)"/>
      <use xlink:href="#DejaVuSans-28" transform="translate(171.118164 0.125)"/>
      <use xlink:href="#DejaVuSans-6d" transform="translate(210.131836 0.125)"/>
      <use xlink:href="#DejaVuSans-56" transform="translate(307.543945 0.125)"/>
      <use xlink:href="#DejaVuSans-29" transform="translate(375.952148 0.125)"/>
     </g>
    </g>
   </g>
   <g id="line2d_23">
    <path d="M 108 220.328332 
L 109.3392 221.009377 
L 110.6784 221.457225 
L 111.348 221.624291 
L 112.6872 222.574831 
L 114.0264 223.03872 
L 116.0352 224.605303 
L 118.044 227.052529 
L 118.7136 228.153608 
L 119.3832 229.00686 
L 120.0528 229.552077 
L 120.7224 230.577071 
L 122.7312 232.845842 
L 124.0704 233.627651 
L 125.4096 234.136038 
L 127.4184 234.627548 
L 129.4272 234.85999 
L 130.7664 234.751798 
L 134.1144 234.163855 
L 136.1232 234.727534 
L 136.7928 235.486772 
L 137.4624 236.0078 
L 140.1408 237.022737 
L 141.48 237.226929 
L 143.4888 237.246615 
L 144.828 237.650927 
L 146.1672 237.718155 
L 148.176 237.588789 
L 149.5152 237.914802 
L 150.8544 237.916721 
L 153.5328 237.602293 
L 156.8808 236.943266 
L 160.8984 235.889704 
L 164.916 234.606615 
L 169.6032 232.866199 
L 174.2904 230.901515 
L 179.6472 228.422043 
L 185.6736 225.38143 
L 192.3696 221.750674 
L 198.396 218.309892 
L 199.7352 218.341827 
L 201.0744 217.957594 
L 203.7528 216.825927 
L 205.7616 215.873683 
L 207.1008 216.056573 
L 208.44 215.797061 
L 209.7792 216.205447 
L 211.1184 216.116395 
L 213.1272 215.655532 
L 216.4752 214.579406 
L 220.4928 213.034944 
L 225.8496 210.713922 
L 227.1888 211.0206 
L 227.8584 211.940586 
L 228.528 212.658415 
L 229.1976 213.013294 
L 230.5368 213.286555 
L 231.876 213.307738 
L 232.5456 213.266471 
L 234.5544 214.559553 
L 235.8936 216.470493 
L 236.5632 217.598225 
L 239.2416 220.801425 
L 239.9112 221.836396 
L 240.5808 223.325504 
L 241.2504 224.420335 
L 241.92 225.124716 
L 243.2592 226.049512 
L 244.5984 226.664878 
L 245.9376 227.721087 
L 246.6072 228.046387 
L 247.2768 228.62444 
L 247.9464 229.415303 
L 249.9552 231.216407 
L 251.2944 232.402195 
L 252.6336 233.0226 
L 253.9728 233.409213 
L 255.312 234.715633 
L 255.9816 235.345615 
L 256.6512 235.812502 
L 257.9904 236.342346 
L 259.9992 236.756751 
L 260.6688 236.838063 
L 262.008 237.427473 
L 263.3472 237.62222 
L 264.6864 237.509216 
L 268.0344 238.222619 
L 270.0432 238.121764 
L 270.7128 238.051197 
L 272.052 238.35705 
L 273.3912 238.349129 
L 276.0696 238.030968 
L 279.4176 237.381035 
L 282.096 236.720406 
L 283.4352 236.86539 
L 284.7744 236.701422 
L 287.4528 236.088099 
L 291.4704 234.886229 
L 292.8096 234.981396 
L 294.1488 234.756457 
L 296.8272 234.012587 
L 300.8448 232.619948 
L 305.532 230.734233 
L 310.8888 228.315896 
L 316.9152 225.324371 
L 323.6112 221.732413 
L 331.6464 217.146737 
L 341.6904 211.134784 
L 345.0384 209.05184 
L 346.3776 209.165895 
L 347.7168 208.837086 
L 349.7256 208.022564 
L 352.404 206.713834 
L 354.4128 205.589027 
L 355.752 206.845224 
L 356.4216 207.148946 
L 358.4304 209.069756 
L 359.1 210.144258 
L 359.7696 210.914368 
L 360.4392 211.387384 
L 361.7784 211.924352 
L 363.1176 213.880446 
L 363.7872 214.848497 
L 364.4568 215.571684 
L 366.4656 217.07054 
L 367.1352 217.627104 
L 367.8048 217.992627 
L 369.144 219.214955 
L 370.4832 219.835033 
L 371.8224 220.198668 
L 372.492 220.325967 
L 373.8312 221.936683 
L 374.5008 223.481025 
L 375.1704 224.670375 
L 375.84 225.390417 
L 377.1792 226.284738 
L 378.5184 226.857026 
L 379.188 227.072704 
L 379.8576 227.593387 
L 381.8664 229.849713 
L 382.536 230.257571 
L 383.8752 231.363803 
L 384.5448 231.697264 
L 386.5536 233.289012 
L 387.2232 233.748179 
L 388.5624 234.280421 
L 391.2408 235.084134 
L 391.9104 235.661346 
L 392.58 236.062992 
L 393.9192 236.467901 
L 395.928 236.727446 
L 397.2672 236.741263 
L 398.6064 236.526287 
L 399.9456 236.717253 
L 400.6152 236.680568 
L 401.9544 236.999698 
L 403.2936 236.977701 
L 405.972 237.829364 
L 407.3112 237.918612 
L 407.9808 237.898797 
L 409.32 238.275532 
L 410.6592 238.31364 
L 412.668 238.141693 
L 416.016 237.583605 
L 419.364 236.804358 
L 423.3816 235.644592 
L 426.7296 234.518464 
L 428.0688 234.586979 
L 429.408 234.335859 
L 432.0864 233.54323 
L 436.104 232.087024 
L 440.7912 230.13842 
L 446.148 227.659701 
L 452.1744 224.612378 
L 458.8704 220.972075 
L 466.9056 216.346569 
L 472.932 212.749794 
L 474.2712 212.839657 
L 475.6104 212.486221 
L 476.9496 211.963771 
L 478.2888 212.27864 
L 479.628 212.110282 
L 481.6368 211.533874 
L 483.6456 210.805381 
L 484.9848 211.191462 
L 485.6544 211.666729 
L 486.324 212.002809 
L 487.6632 212.16746 
L 489.0024 212.075787 
L 490.3416 213.605922 
L 491.0112 213.960752 
L 491.6808 214.607885 
L 492.3504 215.539882 
L 493.02 216.19187 
L 493.6896 216.58534 
L 494.3592 217.272598 
L 495.0288 218.226331 
L 495.6984 218.907946 
L 497.7072 220.27874 
L 498.3768 220.788127 
L 499.716 221.354748 
L 501.0552 221.674433 
L 502.3944 222.568329 
L 503.7336 222.975327 
L 504.4032 223.092942 
L 505.7424 223.923262 
L 507.0816 224.28029 
L 507.7512 224.376209 
L 508.4208 224.807429 
L 510.4296 228.048659 
L 511.0992 228.775709 
L 512.4384 229.597806 
L 513.7776 230.083191 
L 515.1168 230.975114 
L 515.7864 231.849504 
L 516.456 232.530538 
L 517.1256 232.946822 
L 519.804 236.360052 
L 521.1432 237.115643 
L 522.4824 237.580734 
L 523.152 237.751592 
L 523.8216 238.151296 
L 524.4912 238.727506 
L 526.5 240.014882 
L 527.8392 240.861967 
L 529.1784 241.259466 
L 529.848 241.381893 
L 531.1872 241.921263 
L 532.5264 241.965155 
L 535.2048 241.64273 
L 539.892 240.83041 
L 544.5792 239.766974 
L 549.2664 238.443509 
L 553.9536 236.873802 
L 558.6408 235.076283 
L 563.9976 232.771106 
L 569.3544 230.230244 
L 575.3808 227.128922 
L 582.0768 223.430604 
L 590.112 218.719832 
L 599.4864 212.961418 
L 602.1648 211.269384 
L 603.504 211.339313 
L 604.8432 210.962096 
L 606.852 210.099413 
L 610.2 208.398715 
L 613.548 206.493334 
L 614.8872 206.6871 
L 616.2264 206.464919 
L 618.2352 205.769533 
L 620.9136 204.544374 
L 622.9224 203.380426 
L 624.9312 203.567826 
L 625.6008 204.00724 
L 626.94 205.728637 
L 627.6096 206.237192 
L 628.9488 206.81395 
L 629.6184 206.96958 
L 630.288 207.569004 
L 630.9576 209.05358 
L 631.6272 210.218691 
L 632.2968 210.937972 
L 634.3056 212.51093 
L 634.9752 213.105039 
L 635.6448 213.492309 
L 636.984 214.799879 
L 637.6536 215.180543 
L 638.9928 218.391438 
L 639.6624 219.478525 
L 640.332 220.193953 
L 641.6712 221.843907 
L 642.3408 222.366618 
L 643.0104 223.144733 
L 643.68 224.141104 
L 644.3496 224.882525 
L 645.0192 225.397091 
L 646.3584 226.748019 
L 648.3672 228.128252 
L 649.0368 228.958132 
L 649.7064 229.569804 
L 653.0544 231.654407 
L 653.724 232.200417 
L 654.3936 232.936604 
L 658.4112 236.158215 
L 659.7504 237.721254 
L 660.42 238.282053 
L 661.7592 238.936556 
L 663.0984 239.337077 
L 664.4376 239.600807 
L 665.7768 239.643072 
L 667.7856 239.407446 
L 669.1248 239.658359 
L 671.1336 239.57423 
L 674.4816 239.128009 
L 678.4992 238.337507 
L 682.5168 237.315066 
L 687.204 235.86522 
L 691.8912 234.167531 
L 693.9 233.370607 
L 695.2392 233.393965 
L 696.5784 233.092838 
L 699.2568 232.199673 
L 703.2744 230.604095 
L 707.9616 228.511192 
L 713.3184 225.889143 
L 719.3448 222.705144 
L 726.7104 218.554518 
L 735.4152 213.390566 
L 742.7808 208.811649 
L 744.12 208.912809 
L 745.4592 208.572593 
L 747.468 207.73996 
L 748.8072 208.082188 
L 750.1464 207.956902 
L 752.1552 207.409218 
L 753.4944 207.9208 
L 754.8336 207.951569 
L 756.1728 207.758704 
L 757.512 208.425438 
L 758.8512 208.58833 
L 760.1904 208.515547 
L 761.5296 209.273375 
L 762.1992 209.439971 
L 763.5384 210.446259 
L 764.8776 210.835245 
L 765.5472 210.916494 
L 766.8864 211.847577 
L 768.2256 212.219328 
L 768.8952 212.301056 
L 770.2344 214.0555 
L 770.904 214.510483 
L 771.5736 214.804754 
L 774.252 217.292697 
L 775.5912 217.924842 
L 776.9304 218.274371 
L 777.6 218.802972 
L 777.6 218.802972 
" clip-path="url(#pa00adbc31a)" style="fill: none; stroke: #000000; stroke-width: 1.5; stroke-linecap: square"/>
   </g>
   <g id="line2d_24">
    <path d="M 108 194.035596 
L 110.0088 197.262573 
L 112.0176 200.081202 
L 114.696 203.436007 
L 118.044 207.488318 
L 121.392 212.072025 
L 124.74 216.690182 
L 126.7488 219.037311 
L 128.7576 221.013823 
L 129.4272 192.105888 
L 130.0968 179.195914 
L 130.7664 172.810588 
L 131.436 168.901289 
L 132.1056 166.34414 
L 132.7752 164.689619 
L 133.4448 163.685748 
L 134.1144 163.163218 
L 134.784 163.011592 
L 135.4536 163.144679 
L 136.1232 163.501949 
L 136.7928 164.056072 
L 138.132 165.623064 
L 140.1408 168.590245 
L 144.1584 175.243779 
L 148.8456 183.428157 
L 154.2024 192.766302 
L 156.2112 195.83157 
L 158.22 198.530959 
L 160.2288 200.849678 
L 162.2376 202.798422 
L 164.2464 204.400637 
L 166.2552 205.684565 
L 168.264 206.678926 
L 170.2728 207.411121 
L 172.2816 207.905941 
L 174.2904 208.185756 
L 176.2992 208.27037 
L 178.308 208.177174 
L 180.9864 207.802452 
L 183.6648 207.169679 
L 186.3432 206.304846 
L 189.0216 205.229698 
L 192.3696 203.617286 
L 195.7176 201.732593 
L 202.4136 197.761545 
L 208.44 194.638166 
L 210.4488 193.987401 
L 214.4664 193.166043 
L 219.8232 191.997066 
L 223.8408 190.907814 
L 227.1888 189.915086 
L 228.528 189.827469 
L 229.8672 190.0716 
L 232.5456 190.916524 
L 234.5544 191.74361 
L 235.8936 192.601878 
L 237.2328 193.835285 
L 239.2416 196.179639 
L 240.5808 198.008633 
L 246.6072 206.98917 
L 253.3032 215.796986 
L 257.9904 221.076417 
L 259.9992 223.047562 
L 262.6776 225.267239 
L 263.3472 195.444958 
L 264.0168 182.155632 
L 264.6864 175.68759 
L 265.356 171.805694 
L 266.0256 169.304692 
L 266.6952 167.734742 
L 267.3648 166.851657 
L 268.0344 166.491908 
L 268.704 166.531107 
L 269.3736 166.87295 
L 270.0432 167.442015 
L 271.3824 169.052551 
L 272.7216 171.097431 
L 275.4 175.741016 
L 279.4176 182.728466 
L 282.096 186.985066 
L 285.444 191.881348 
L 287.4528 194.50648 
L 289.4616 196.786545 
L 291.4704 198.708388 
L 294.1488 200.933144 
L 296.1576 202.374239 
L 298.1664 203.553643 
L 300.1752 204.475415 
L 302.184 205.157598 
L 304.1928 205.618908 
L 306.2016 205.877163 
L 308.2104 205.948354 
L 310.8888 205.776716 
L 313.5672 205.327319 
L 316.2456 204.625508 
L 318.924 203.692463 
L 321.6024 202.546079 
L 324.9504 200.834986 
L 328.2984 198.834273 
L 331.6464 196.555909 
L 334.9944 193.99944 
L 338.3424 191.145584 
L 341.6904 187.949229 
L 344.3688 185.10095 
L 347.0472 182.177562 
L 349.7256 179.618806 
L 353.0736 176.721843 
L 355.0824 175.191581 
L 356.4216 174.60566 
L 357.0912 174.505658 
L 357.7608 174.538866 
L 358.4304 174.711607 
L 359.1 175.041214 
L 360.4392 176.127574 
L 361.7784 177.568524 
L 363.1176 179.304209 
L 364.4568 181.394542 
L 368.4744 188.406249 
L 371.1528 193.008226 
L 379.8576 206.575116 
L 385.884 214.678301 
L 388.5624 217.89246 
L 390.5712 219.981959 
L 394.5888 223.646598 
L 396.5976 225.171782 
L 397.2672 195.323387 
L 397.9368 181.991792 
L 398.6064 175.484291 
L 399.276 171.570065 
L 399.9456 169.038988 
L 400.6152 167.424501 
L 401.2848 166.481513 
L 401.9544 166.052429 
L 402.624 166.015768 
L 403.2936 166.275555 
L 403.9632 166.766609 
L 405.3024 168.258346 
L 406.6416 170.217202 
L 408.6504 173.56819 
L 412.668 180.891867 
L 416.016 186.808918 
L 418.6944 191.084546 
L 420.7032 193.912303 
L 422.712 196.368392 
L 424.7208 198.443824 
L 426.7296 200.151294 
L 429.408 202.095544 
L 431.4168 203.336479 
L 433.4256 204.326803 
L 435.4344 205.07229 
L 437.4432 205.590665 
L 439.452 205.900555 
L 441.4608 206.018905 
L 443.4696 205.960721 
L 446.148 205.631315 
L 448.8264 205.03898 
L 451.5048 204.206887 
L 454.1832 203.154186 
L 456.8616 201.897238 
L 460.2096 200.057484 
L 463.5576 197.935636 
L 466.9056 195.539451 
L 470.2536 192.862503 
L 477.6192 186.709018 
L 479.628 185.446219 
L 482.976 183.735276 
L 484.9848 182.887661 
L 486.324 182.623928 
L 487.6632 182.639155 
L 489.0024 182.82079 
L 490.3416 183.252495 
L 491.6808 184.03155 
L 493.02 185.18442 
L 494.3592 186.632685 
L 496.368 189.285849 
L 502.3944 197.737065 
L 505.0728 201.032539 
L 507.7512 204.023912 
L 509.76 206.199148 
L 523.152 222.562992 
L 527.1696 226.625168 
L 529.848 229.091155 
L 530.5176 229.644861 
L 531.1872 198.966676 
L 531.8568 185.39364 
L 532.5264 178.959876 
L 533.196 175.298127 
L 533.8656 173.081303 
L 534.5352 171.798465 
L 535.2048 171.188654 
L 535.8744 171.088587 
L 536.544 171.382222 
L 537.2136 171.981098 
L 537.8832 172.815978 
L 539.2224 174.986863 
L 541.2312 178.945139 
L 546.588 190.004582 
L 548.5968 193.641035 
L 550.6056 196.819135 
L 552.6144 199.507822 
L 554.6232 201.718556 
L 556.632 203.485592 
L 558.6408 204.8518 
L 560.6496 205.860759 
L 562.6584 206.552574 
L 564.6672 206.962979 
L 566.676 207.122662 
L 568.6848 207.05781 
L 570.6936 206.79062 
L 572.7024 206.339693 
L 575.3808 205.478998 
L 578.0592 204.348364 
L 580.7376 202.969534 
L 583.416 201.358211 
L 586.0944 199.523264 
L 588.7728 197.466846 
L 591.4512 195.182172 
L 594.1296 192.649322 
L 596.808 189.828963 
L 599.4864 186.657816 
L 602.1648 183.056066 
L 605.5128 178.478678 
L 608.8608 174.294144 
L 610.8696 172.055771 
L 612.8784 170.104915 
L 614.2176 169.001872 
L 615.5568 168.20711 
L 616.896 167.720302 
L 618.2352 167.455838 
L 620.244 167.318908 
L 623.592 167.399735 
L 624.9312 167.609212 
L 626.2704 168.103753 
L 627.6096 169.069551 
L 628.9488 170.392669 
L 630.288 171.897501 
L 631.6272 173.751504 
L 633.636 177.166456 
L 638.3232 185.761371 
L 640.332 189.943919 
L 643.68 196.958495 
L 646.3584 202.119328 
L 648.3672 205.582017 
L 651.0456 209.801584 
L 653.724 213.544274 
L 657.7416 218.698704 
L 663.0984 225.065779 
L 664.4376 226.378117 
L 665.1072 196.404143 
L 665.7768 183.095567 
L 666.4464 176.721837 
L 667.116 173.020312 
L 667.7856 170.734001 
L 668.4552 169.377725 
L 669.1248 168.699523 
L 669.7944 168.53209 
L 670.464 168.753331 
L 671.1336 169.269771 
L 671.8032 170.00933 
L 673.1424 171.947468 
L 675.1512 175.479946 
L 681.1776 186.596661 
L 683.1864 189.866123 
L 685.1952 192.767488 
L 687.204 195.261058 
L 689.2128 197.338967 
L 691.2216 199.016963 
L 693.2304 200.323518 
L 695.9088 201.667165 
L 697.9176 202.517559 
L 699.9264 203.15366 
L 701.9352 203.56728 
L 703.944 203.772738 
L 705.9528 203.78617 
L 707.9616 203.622178 
L 710.64 203.149142 
L 713.3184 202.408202 
L 715.9968 201.419489 
L 718.6752 200.198463 
L 721.3536 198.757065 
L 724.032 197.101932 
L 726.7104 195.234826 
L 729.3888 193.150726 
L 732.0672 190.834981 
L 734.7456 188.261846 
L 737.424 185.397948 
L 740.1024 182.219501 
L 745.4592 175.539628 
L 747.468 173.582021 
L 748.8072 172.554243 
L 750.1464 171.85179 
L 751.4856 171.411825 
L 752.8248 171.18362 
L 754.164 171.253879 
L 755.5032 171.58079 
L 756.8424 172.085833 
L 758.1816 172.829127 
L 760.1904 174.246905 
L 762.1992 175.948752 
L 764.208 178.052099 
L 767.556 181.992921 
L 770.904 186.215442 
L 774.9216 191.873909 
L 776.9304 194.613227 
L 777.6 195.46544 
L 777.6 195.46544 
" clip-path="url(#pa00adbc31a)" style="fill: none; stroke: #4169e1; stroke-width: 1.5; stroke-linecap: square"/>
   </g>
   <g id="patch_3">
    <path d="M 108 256.32 
L 108 34.56 
" style="fill: none; stroke: #000000; stroke-width: 0.8; stroke-linejoin: miter; stroke-linecap: square"/>
   </g>
   <g id="patch_4">
    <path d="M 777.6 256.32 
L 777.6 34.56 
" style="fill: none; stroke: #000000; stroke-width: 0.8; stroke-linejoin: miter; stroke-linecap: square"/>
   </g>
   <g id="patch_5">
    <path d="M 108 256.32 
L 777.6 256.32 
" style="fill: none; stroke: #000000; stroke-width: 0.8; stroke-linejoin: miter; stroke-linecap: square"/>
   </g>
   <g id="patch_6">
    <path d="M 108 34.56 
L 777.6 34.56 
" style="fill: none; stroke: #000000; stroke-width: 0.8; stroke-linejoin: miter; stroke-linecap: square"/>
   </g>
   <g id="legend_1">
    <g id="patch_7">
     <path d="M 695.098438 71.91625 
L 770.6 71.91625 
Q 772.6 71.91625 772.6 69.91625 
L 772.6 41.56 
Q 772.6 39.56 770.6 39.56 
L 695.098438 39.56 
Q 693.098438 39.56 693.098438 41.56 
L 693.098438 69.91625 
Q 693.098438 71.91625 695.098438 71.91625 
z
" style="fill: #ffffff; opacity: 0.8; stroke: #cccccc; stroke-linejoin: miter"/>
    </g>
    <g id="line2d_25">
     <path d="M 697.098438 47.658437 
L 707.098438 47.658437 
L 717.098438 47.658437 
" style="fill: none; stroke: #000000; stroke-width: 1.5; stroke-linecap: square"/>
    </g>
    <g id="text_14">
     <!-- Soma -->
     <g transform="translate(725.098438 51.158437) scale(0.1 -0.1)">
      <defs>
       <path id="DejaVuSans-53" d="M 3425 4513 
L 3425 3897 
Q 3066 4069 2747 4153 
Q 2428 4238 2131 4238 
Q 1616 4238 1336 4038 
Q 1056 3838 1056 3469 
Q 1056 3159 1242 3001 
Q 1428 2844 1947 2747 
L 2328 2669 
Q 3034 2534 3370 2195 
Q 3706 1856 3706 1288 
Q 3706 609 3251 259 
Q 2797 -91 1919 -91 
Q 1588 -91 1214 -16 
Q 841 59 441 206 
L 441 856 
Q 825 641 1194 531 
Q 1563 422 1919 422 
Q 2459 422 2753 634 
Q 3047 847 3047 1241 
Q 3047 1584 2836 1778 
Q 2625 1972 2144 2069 
L 1759 2144 
Q 1053 2284 737 2584 
Q 422 2884 422 3419 
Q 422 4038 858 4394 
Q 1294 4750 2059 4750 
Q 2388 4750 2728 4690 
Q 3069 4631 3425 4513 
z
" transform="scale(0.015625)"/>
       <path id="DejaVuSans-6f" d="M 1959 3097 
Q 1497 3097 1228 2736 
Q 959 2375 959 1747 
Q 959 1119 1226 758 
Q 1494 397 1959 397 
Q 2419 397 2687 759 
Q 2956 1122 2956 1747 
Q 2956 2369 2687 2733 
Q 2419 3097 1959 3097 
z
M 1959 3584 
Q 2709 3584 3137 3096 
Q 3566 2609 3566 1747 
Q 3566 888 3137 398 
Q 2709 -91 1959 -91 
Q 1206 -91 779 398 
Q 353 888 353 1747 
Q 353 2609 779 3096 
Q 1206 3584 1959 3584 
z
" transform="scale(0.015625)"/>
       <path id="DejaVuSans-61" d="M 2194 1759 
Q 1497 1759 1228 1600 
Q 959 1441 959 1056 
Q 959 750 1161 570 
Q 1363 391 1709 391 
Q 2188 391 2477 730 
Q 2766 1069 2766 1631 
L 2766 1759 
L 2194 1759 
z
M 3341 1997 
L 3341 0 
L 2766 0 
L 2766 531 
Q 2569 213 2275 61 
Q 1981 -91 1556 -91 
Q 1019 -91 701 211 
Q 384 513 384 1019 
Q 384 1609 779 1909 
Q 1175 2209 1959 2209 
L 2766 2209 
L 2766 2266 
Q 2766 2663 2505 2880 
Q 2244 3097 1772 3097 
Q 1472 3097 1187 3025 
Q 903 2953 641 2809 
L 641 3341 
Q 956 3463 1253 3523 
Q 1550 3584 1831 3584 
Q 2591 3584 2966 3190 
Q 3341 2797 3341 1997 
z
" transform="scale(0.015625)"/>
      </defs>
      <use xlink:href="#DejaVuSans-53"/>
      <use xlink:href="#DejaVuSans-6f" x="63.476562"/>
      <use xlink:href="#DejaVuSans-6d" x="124.658203"/>
      <use xlink:href="#DejaVuSans-61" x="222.070312"/>
     </g>
    </g>
    <g id="line2d_26">
     <path d="M 697.098438 62.336562 
L 707.098438 62.336562 
L 717.098438 62.336562 
" style="fill: none; stroke: #4169e1; stroke-width: 1.5; stroke-linecap: square"/>
    </g>
    <g id="text_15">
     <!-- Dendrite -->
     <g transform="translate(725.098438 65.836562) scale(0.1 -0.1)">
      <defs>
       <path id="DejaVuSans-44" d="M 1259 4147 
L 1259 519 
L 2022 519 
Q 2988 519 3436 956 
Q 3884 1394 3884 2338 
Q 3884 3275 3436 3711 
Q 2988 4147 2022 4147 
L 1259 4147 
z
M 628 4666 
L 1925 4666 
Q 3281 4666 3915 4102 
Q 4550 3538 4550 2338 
Q 4550 1131 3912 565 
Q 3275 0 1925 0 
L 628 0 
L 628 4666 
z
" transform="scale(0.015625)"/>
       <path id="DejaVuSans-6e" d="M 3513 2113 
L 3513 0 
L 2938 0 
L 2938 2094 
Q 2938 2591 2744 2837 
Q 2550 3084 2163 3084 
Q 1697 3084 1428 2787 
Q 1159 2491 1159 1978 
L 1159 0 
L 581 0 
L 581 3500 
L 1159 3500 
L 1159 2956 
Q 1366 3272 1645 3428 
Q 1925 3584 2291 3584 
Q 2894 3584 3203 3211 
Q 3513 2838 3513 2113 
z
" transform="scale(0.015625)"/>
       <path id="DejaVuSans-64" d="M 2906 2969 
L 2906 4863 
L 3481 4863 
L 3481 0 
L 2906 0 
L 2906 525 
Q 2725 213 2448 61 
Q 2172 -91 1784 -91 
Q 1150 -91 751 415 
Q 353 922 353 1747 
Q 353 2572 751 3078 
Q 1150 3584 1784 3584 
Q 2172 3584 2448 3432 
Q 2725 3281 2906 2969 
z
M 947 1747 
Q 947 1113 1208 752 
Q 1469 391 1925 391 
Q 2381 391 2643 752 
Q 2906 1113 2906 1747 
Q 2906 2381 2643 2742 
Q 2381 3103 1925 3103 
Q 1469 3103 1208 2742 
Q 947 2381 947 1747 
z
" transform="scale(0.015625)"/>
       <path id="DejaVuSans-72" d="M 2631 2963 
Q 2534 3019 2420 3045 
Q 2306 3072 2169 3072 
Q 1681 3072 1420 2755 
Q 1159 2438 1159 1844 
L 1159 0 
L 581 0 
L 581 3500 
L 1159 3500 
L 1159 2956 
Q 1341 3275 1631 3429 
Q 1922 3584 2338 3584 
Q 2397 3584 2469 3576 
Q 2541 3569 2628 3553 
L 2631 2963 
z
" transform="scale(0.015625)"/>
       <path id="DejaVuSans-74" d="M 1172 4494 
L 1172 3500 
L 2356 3500 
L 2356 3053 
L 1172 3053 
L 1172 1153 
Q 1172 725 1289 603 
Q 1406 481 1766 481 
L 2356 481 
L 2356 0 
L 1766 0 
Q 1100 0 847 248 
Q 594 497 594 1153 
L 594 3053 
L 172 3053 
L 172 3500 
L 594 3500 
L 594 4494 
L 1172 4494 
z
" transform="scale(0.015625)"/>
      </defs>
      <use xlink:href="#DejaVuSans-44"/>
      <use xlink:href="#DejaVuSans-65" x="77.001953"/>
      <use xlink:href="#DejaVuSans-6e" x="138.525391"/>
      <use xlink:href="#DejaVuSans-64" x="201.904297"/>
      <use xlink:href="#DejaVuSans-72" x="265.380859"/>
      <use xlink:href="#DejaVuSans-69" x="306.494141"/>
      <use xlink:href="#DejaVuSans-74" x="334.277344"/>
      <use xlink:href="#DejaVuSans-65" x="373.486328"/>
     </g>
    </g>
   </g>
  </g>
 </g>
 <defs>
  <clipPath id="pa00adbc31a">
   <rect x="108" y="34.56" width="669.6" height="221.76"/>
  </clipPath>
 </defs>
</svg>
