<?xml version="1.0" encoding="utf-8" standalone="no"?>
<!DOCTYPE svg PUBLIC "-//W3C//DTD SVG 1.1//EN"
  "http://www.w3.org/Graphics/SVG/1.1/DTD/svg11.dtd">
<svg xmlns:xlink="http://www.w3.org/1999/xlink" width="864pt" height="288pt" viewBox="0 0 864 288" xmlns="http://www.w3.org/2000/svg" version="1.1">
 <metadata>
  <rdf:RDF xmlns:dc="http://purl.org/dc/elements/1.1/" xmlns:cc="http://creativecommons.org/ns#" xmlns:rdf="http://www.w3.org/1999/02/22-rdf-syntax-ns#">
   <cc:Work>
    <dc:type rdf:resource="http://purl.org/dc/dcmitype/StillImage"/>
    <dc:date>2024-04-23T19:18:33.400432</dc:date>
    <dc:format>image/svg+xml</dc:format>
    <dc:creator>
     <cc:Agent>
      <dc:title>Matplotlib v3.8.2, https://matplotlib.org/</dc:title>
     </cc:Agent>
    </dc:creator>
   </cc:Work>
  </rdf:RDF>
 </metadata>
 <defs>
  <style type="text/css">*{stroke-linejoin: round; stroke-linecap: butt}</style>
 </defs>
 <g id="figure_1">
  <g id="patch_1">
   <path d="M 0 288 
L 864 288 
L 864 0 
L 0 0 
z
" style="fill: #ffffff"/>
  </g>
  <g id="axes_1">
   <g id="patch_2">
    <path d="M 108 256.32 
L 777.6 256.32 
L 777.6 34.56 
L 108 34.56 
z
" style="fill: #ffffff"/>
   </g>
   <g id="matplotlib.axis_1">
    <g id="xtick_1">
     <g id="line2d_1">
      <path d="M 108 256.32 
L 108 34.56 
" clip-path="url(#pea88adfc1e)" style="fill: none; stroke: #b0b0b0; stroke-width: 0.8; stroke-linecap: square"/>
     </g>
     <g id="line2d_2">
      <defs>
       <path id="m37f734bc12" d="M 0 0 
L 0 3.5 
" style="stroke: #000000; stroke-width: 0.8"/>
      </defs>
      <g>
       <use xlink:href="#m37f734bc12" x="108" y="256.32" style="stroke: #000000; stroke-width: 0.8"/>
      </g>
     </g>
     <g id="text_1">
      <!-- 100 -->
      <g transform="translate(94.63875 273.957812) scale(0.14 -0.14)">
       <defs>
        <path id="DejaVuSans-31" d="M 794 531 
L 1825 531 
L 1825 4091 
L 703 3866 
L 703 4441 
L 1819 4666 
L 2450 4666 
L 2450 531 
L 3481 531 
L 3481 0 
L 794 0 
L 794 531 
z
" transform="scale(0.015625)"/>
        <path id="DejaVuSans-30" d="M 2034 4250 
Q 1547 4250 1301 3770 
Q 1056 3291 1056 2328 
Q 1056 1369 1301 889 
Q 1547 409 2034 409 
Q 2525 409 2770 889 
Q 3016 1369 3016 2328 
Q 3016 3291 2770 3770 
Q 2525 4250 2034 4250 
z
M 2034 4750 
Q 2819 4750 3233 4129 
Q 3647 3509 3647 2328 
Q 3647 1150 3233 529 
Q 2819 -91 2034 -91 
Q 1250 -91 836 529 
Q 422 1150 422 2328 
Q 422 3509 836 4129 
Q 1250 4750 2034 4750 
z
" transform="scale(0.015625)"/>
       </defs>
       <use xlink:href="#DejaVuSans-31"/>
       <use xlink:href="#DejaVuSans-30" x="63.623047"/>
       <use xlink:href="#DejaVuSans-30" x="127.246094"/>
      </g>
     </g>
    </g>
    <g id="xtick_2">
     <g id="line2d_3">
      <path d="M 241.92 256.32 
L 241.92 34.56 
" clip-path="url(#pea88adfc1e)" style="fill: none; stroke: #b0b0b0; stroke-width: 0.8; stroke-linecap: square"/>
     </g>
     <g id="line2d_4">
      <g>
       <use xlink:href="#m37f734bc12" x="241.92" y="256.32" style="stroke: #000000; stroke-width: 0.8"/>
      </g>
     </g>
     <g id="text_2">
      <!-- 120 -->
      <g transform="translate(228.55875 273.957812) scale(0.14 -0.14)">
       <defs>
        <path id="DejaVuSans-32" d="M 1228 531 
L 3431 531 
L 3431 0 
L 469 0 
L 469 531 
Q 828 903 1448 1529 
Q 2069 2156 2228 2338 
Q 2531 2678 2651 2914 
Q 2772 3150 2772 3378 
Q 2772 3750 2511 3984 
Q 2250 4219 1831 4219 
Q 1534 4219 1204 4116 
Q 875 4013 500 3803 
L 500 4441 
Q 881 4594 1212 4672 
Q 1544 4750 1819 4750 
Q 2544 4750 2975 4387 
Q 3406 4025 3406 3419 
Q 3406 3131 3298 2873 
Q 3191 2616 2906 2266 
Q 2828 2175 2409 1742 
Q 1991 1309 1228 531 
z
" transform="scale(0.015625)"/>
       </defs>
       <use xlink:href="#DejaVuSans-31"/>
       <use xlink:href="#DejaVuSans-32" x="63.623047"/>
       <use xlink:href="#DejaVuSans-30" x="127.246094"/>
      </g>
     </g>
    </g>
    <g id="xtick_3">
     <g id="line2d_5">
      <path d="M 375.84 256.32 
L 375.84 34.56 
" clip-path="url(#pea88adfc1e)" style="fill: none; stroke: #b0b0b0; stroke-width: 0.8; stroke-linecap: square"/>
     </g>
     <g id="line2d_6">
      <g>
       <use xlink:href="#m37f734bc12" x="375.84" y="256.32" style="stroke: #000000; stroke-width: 0.8"/>
      </g>
     </g>
     <g id="text_3">
      <!-- 140 -->
      <g transform="translate(362.47875 273.957812) scale(0.14 -0.14)">
       <defs>
        <path id="DejaVuSans-34" d="M 2419 4116 
L 825 1625 
L 2419 1625 
L 2419 4116 
z
M 2253 4666 
L 3047 4666 
L 3047 1625 
L 3713 1625 
L 3713 1100 
L 3047 1100 
L 3047 0 
L 2419 0 
L 2419 1100 
L 313 1100 
L 313 1709 
L 2253 4666 
z
" transform="scale(0.015625)"/>
       </defs>
       <use xlink:href="#DejaVuSans-31"/>
       <use xlink:href="#DejaVuSans-34" x="63.623047"/>
       <use xlink:href="#DejaVuSans-30" x="127.246094"/>
      </g>
     </g>
    </g>
    <g id="xtick_4">
     <g id="line2d_7">
      <path d="M 509.76 256.32 
L 509.76 34.56 
" clip-path="url(#pea88adfc1e)" style="fill: none; stroke: #b0b0b0; stroke-width: 0.8; stroke-linecap: square"/>
     </g>
     <g id="line2d_8">
      <g>
       <use xlink:href="#m37f734bc12" x="509.76" y="256.32" style="stroke: #000000; stroke-width: 0.8"/>
      </g>
     </g>
     <g id="text_4">
      <!-- 160 -->
      <g transform="translate(496.39875 273.957812) scale(0.14 -0.14)">
       <defs>
        <path id="DejaVuSans-36" d="M 2113 2584 
Q 1688 2584 1439 2293 
Q 1191 2003 1191 1497 
Q 1191 994 1439 701 
Q 1688 409 2113 409 
Q 2538 409 2786 701 
Q 3034 994 3034 1497 
Q 3034 2003 2786 2293 
Q 2538 2584 2113 2584 
z
M 3366 4563 
L 3366 3988 
Q 3128 4100 2886 4159 
Q 2644 4219 2406 4219 
Q 1781 4219 1451 3797 
Q 1122 3375 1075 2522 
Q 1259 2794 1537 2939 
Q 1816 3084 2150 3084 
Q 2853 3084 3261 2657 
Q 3669 2231 3669 1497 
Q 3669 778 3244 343 
Q 2819 -91 2113 -91 
Q 1303 -91 875 529 
Q 447 1150 447 2328 
Q 447 3434 972 4092 
Q 1497 4750 2381 4750 
Q 2619 4750 2861 4703 
Q 3103 4656 3366 4563 
z
" transform="scale(0.015625)"/>
       </defs>
       <use xlink:href="#DejaVuSans-31"/>
       <use xlink:href="#DejaVuSans-36" x="63.623047"/>
       <use xlink:href="#DejaVuSans-30" x="127.246094"/>
      </g>
     </g>
    </g>
    <g id="xtick_5">
     <g id="line2d_9">
      <path d="M 643.68 256.32 
L 643.68 34.56 
" clip-path="url(#pea88adfc1e)" style="fill: none; stroke: #b0b0b0; stroke-width: 0.8; stroke-linecap: square"/>
     </g>
     <g id="line2d_10">
      <g>
       <use xlink:href="#m37f734bc12" x="643.68" y="256.32" style="stroke: #000000; stroke-width: 0.8"/>
      </g>
     </g>
     <g id="text_5">
      <!-- 180 -->
      <g transform="translate(630.31875 273.957812) scale(0.14 -0.14)">
       <defs>
        <path id="DejaVuSans-38" d="M 2034 2216 
Q 1584 2216 1326 1975 
Q 1069 1734 1069 1313 
Q 1069 891 1326 650 
Q 1584 409 2034 409 
Q 2484 409 2743 651 
Q 3003 894 3003 1313 
Q 3003 1734 2745 1975 
Q 2488 2216 2034 2216 
z
M 1403 2484 
Q 997 2584 770 2862 
Q 544 3141 544 3541 
Q 544 4100 942 4425 
Q 1341 4750 2034 4750 
Q 2731 4750 3128 4425 
Q 3525 4100 3525 3541 
Q 3525 3141 3298 2862 
Q 3072 2584 2669 2484 
Q 3125 2378 3379 2068 
Q 3634 1759 3634 1313 
Q 3634 634 3220 271 
Q 2806 -91 2034 -91 
Q 1263 -91 848 271 
Q 434 634 434 1313 
Q 434 1759 690 2068 
Q 947 2378 1403 2484 
z
M 1172 3481 
Q 1172 3119 1398 2916 
Q 1625 2713 2034 2713 
Q 2441 2713 2670 2916 
Q 2900 3119 2900 3481 
Q 2900 3844 2670 4047 
Q 2441 4250 2034 4250 
Q 1625 4250 1398 4047 
Q 1172 3844 1172 3481 
z
" transform="scale(0.015625)"/>
       </defs>
       <use xlink:href="#DejaVuSans-31"/>
       <use xlink:href="#DejaVuSans-38" x="63.623047"/>
       <use xlink:href="#DejaVuSans-30" x="127.246094"/>
      </g>
     </g>
    </g>
    <g id="xtick_6">
     <g id="line2d_11">
      <path d="M 777.6 256.32 
L 777.6 34.56 
" clip-path="url(#pea88adfc1e)" style="fill: none; stroke: #b0b0b0; stroke-width: 0.8; stroke-linecap: square"/>
     </g>
     <g id="line2d_12">
      <g>
       <use xlink:href="#m37f734bc12" x="777.6" y="256.32" style="stroke: #000000; stroke-width: 0.8"/>
      </g>
     </g>
     <g id="text_6">
      <!-- 200 -->
      <g transform="translate(764.23875 273.957812) scale(0.14 -0.14)">
       <use xlink:href="#DejaVuSans-32"/>
       <use xlink:href="#DejaVuSans-30" x="63.623047"/>
       <use xlink:href="#DejaVuSans-30" x="127.246094"/>
      </g>
     </g>
    </g>
    <g id="text_7">
     <!-- Time (ms) -->
     <g transform="translate(407.521094 291.507187) scale(0.14 -0.14)">
      <defs>
       <path id="DejaVuSans-54" d="M -19 4666 
L 3928 4666 
L 3928 4134 
L 2272 4134 
L 2272 0 
L 1638 0 
L 1638 4134 
L -19 4134 
L -19 4666 
z
" transform="scale(0.015625)"/>
       <path id="DejaVuSans-69" d="M 603 3500 
L 1178 3500 
L 1178 0 
L 603 0 
L 603 3500 
z
M 603 4863 
L 1178 4863 
L 1178 4134 
L 603 4134 
L 603 4863 
z
" transform="scale(0.015625)"/>
       <path id="DejaVuSans-6d" d="M 3328 2828 
Q 3544 3216 3844 3400 
Q 4144 3584 4550 3584 
Q 5097 3584 5394 3201 
Q 5691 2819 5691 2113 
L 5691 0 
L 5113 0 
L 5113 2094 
Q 5113 2597 4934 2840 
Q 4756 3084 4391 3084 
Q 3944 3084 3684 2787 
Q 3425 2491 3425 1978 
L 3425 0 
L 2847 0 
L 2847 2094 
Q 2847 2600 2669 2842 
Q 2491 3084 2119 3084 
Q 1678 3084 1418 2786 
Q 1159 2488 1159 1978 
L 1159 0 
L 581 0 
L 581 3500 
L 1159 3500 
L 1159 2956 
Q 1356 3278 1631 3431 
Q 1906 3584 2284 3584 
Q 2666 3584 2933 3390 
Q 3200 3197 3328 2828 
z
" transform="scale(0.015625)"/>
       <path id="DejaVuSans-65" d="M 3597 1894 
L 3597 1613 
L 953 1613 
Q 991 1019 1311 708 
Q 1631 397 2203 397 
Q 2534 397 2845 478 
Q 3156 559 3463 722 
L 3463 178 
Q 3153 47 2828 -22 
Q 2503 -91 2169 -91 
Q 1331 -91 842 396 
Q 353 884 353 1716 
Q 353 2575 817 3079 
Q 1281 3584 2069 3584 
Q 2775 3584 3186 3129 
Q 3597 2675 3597 1894 
z
M 3022 2063 
Q 3016 2534 2758 2815 
Q 2500 3097 2075 3097 
Q 1594 3097 1305 2825 
Q 1016 2553 972 2059 
L 3022 2063 
z
" transform="scale(0.015625)"/>
       <path id="DejaVuSans-20" transform="scale(0.015625)"/>
       <path id="DejaVuSans-28" d="M 1984 4856 
Q 1566 4138 1362 3434 
Q 1159 2731 1159 2009 
Q 1159 1288 1364 580 
Q 1569 -128 1984 -844 
L 1484 -844 
Q 1016 -109 783 600 
Q 550 1309 550 2009 
Q 550 2706 781 3412 
Q 1013 4119 1484 4856 
L 1984 4856 
z
" transform="scale(0.015625)"/>
       <path id="DejaVuSans-73" d="M 2834 3397 
L 2834 2853 
Q 2591 2978 2328 3040 
Q 2066 3103 1784 3103 
Q 1356 3103 1142 2972 
Q 928 2841 928 2578 
Q 928 2378 1081 2264 
Q 1234 2150 1697 2047 
L 1894 2003 
Q 2506 1872 2764 1633 
Q 3022 1394 3022 966 
Q 3022 478 2636 193 
Q 2250 -91 1575 -91 
Q 1294 -91 989 -36 
Q 684 19 347 128 
L 347 722 
Q 666 556 975 473 
Q 1284 391 1588 391 
Q 1994 391 2212 530 
Q 2431 669 2431 922 
Q 2431 1156 2273 1281 
Q 2116 1406 1581 1522 
L 1381 1569 
Q 847 1681 609 1914 
Q 372 2147 372 2553 
Q 372 3047 722 3315 
Q 1072 3584 1716 3584 
Q 2034 3584 2315 3537 
Q 2597 3491 2834 3397 
z
" transform="scale(0.015625)"/>
       <path id="DejaVuSans-29" d="M 513 4856 
L 1013 4856 
Q 1481 4119 1714 3412 
Q 1947 2706 1947 2009 
Q 1947 1309 1714 600 
Q 1481 -109 1013 -844 
L 513 -844 
Q 928 -128 1133 580 
Q 1338 1288 1338 2009 
Q 1338 2731 1133 3434 
Q 928 4138 513 4856 
z
" transform="scale(0.015625)"/>
      </defs>
      <use xlink:href="#DejaVuSans-54"/>
      <use xlink:href="#DejaVuSans-69" x="57.958984"/>
      <use xlink:href="#DejaVuSans-6d" x="85.742188"/>
      <use xlink:href="#DejaVuSans-65" x="183.154297"/>
      <use xlink:href="#DejaVuSans-20" x="244.677734"/>
      <use xlink:href="#DejaVuSans-28" x="276.464844"/>
      <use xlink:href="#DejaVuSans-6d" x="315.478516"/>
      <use xlink:href="#DejaVuSans-73" x="412.890625"/>
      <use xlink:href="#DejaVuSans-29" x="464.990234"/>
     </g>
    </g>
   </g>
   <g id="matplotlib.axis_2">
    <g id="ytick_1">
     <g id="line2d_13">
      <path d="M 108 225.022637 
L 777.6 225.022637 
" clip-path="url(#pea88adfc1e)" style="fill: none; stroke: #b0b0b0; stroke-width: 0.8; stroke-linecap: square"/>
     </g>
     <g id="line2d_14">
      <defs>
       <path id="m491ed8c813" d="M 0 0 
L -3.5 0 
" style="stroke: #000000; stroke-width: 0.8"/>
      </defs>
      <g>
       <use xlink:href="#m491ed8c813" x="108" y="225.022637" style="stroke: #000000; stroke-width: 0.8"/>
      </g>
     </g>
     <g id="text_8">
      <!-- −60 -->
      <g transform="translate(71.453437 230.341544) scale(0.14 -0.14)">
       <defs>
        <path id="DejaVuSans-2212" d="M 678 2272 
L 4684 2272 
L 4684 1741 
L 678 1741 
L 678 2272 
z
" transform="scale(0.015625)"/>
       </defs>
       <use xlink:href="#DejaVuSans-2212"/>
       <use xlink:href="#DejaVuSans-36" x="83.789062"/>
       <use xlink:href="#DejaVuSans-30" x="147.412109"/>
      </g>
     </g>
    </g>
    <g id="ytick_2">
     <g id="line2d_15">
      <path d="M 108 182.655528 
L 777.6 182.655528 
" clip-path="url(#pea88adfc1e)" style="fill: none; stroke: #b0b0b0; stroke-width: 0.8; stroke-linecap: square"/>
     </g>
     <g id="line2d_16">
      <g>
       <use xlink:href="#m491ed8c813" x="108" y="182.655528" style="stroke: #000000; stroke-width: 0.8"/>
      </g>
     </g>
     <g id="text_9">
      <!-- −40 -->
      <g transform="translate(71.453437 187.974435) scale(0.14 -0.14)">
       <use xlink:href="#DejaVuSans-2212"/>
       <use xlink:href="#DejaVuSans-34" x="83.789062"/>
       <use xlink:href="#DejaVuSans-30" x="147.412109"/>
      </g>
     </g>
    </g>
    <g id="ytick_3">
     <g id="line2d_17">
      <path d="M 108 140.288419 
L 777.6 140.288419 
" clip-path="url(#pea88adfc1e)" style="fill: none; stroke: #b0b0b0; stroke-width: 0.8; stroke-linecap: square"/>
     </g>
     <g id="line2d_18">
      <g>
       <use xlink:href="#m491ed8c813" x="108" y="140.288419" style="stroke: #000000; stroke-width: 0.8"/>
      </g>
     </g>
     <g id="text_10">
      <!-- −20 -->
      <g transform="translate(71.453437 145.607325) scale(0.14 -0.14)">
       <use xlink:href="#DejaVuSans-2212"/>
       <use xlink:href="#DejaVuSans-32" x="83.789062"/>
       <use xlink:href="#DejaVuSans-30" x="147.412109"/>
      </g>
     </g>
    </g>
    <g id="ytick_4">
     <g id="line2d_19">
      <path d="M 108 97.92131 
L 777.6 97.92131 
" clip-path="url(#pea88adfc1e)" style="fill: none; stroke: #b0b0b0; stroke-width: 0.8; stroke-linecap: square"/>
     </g>
     <g id="line2d_20">
      <g>
       <use xlink:href="#m491ed8c813" x="108" y="97.92131" style="stroke: #000000; stroke-width: 0.8"/>
      </g>
     </g>
     <g id="text_11">
      <!-- 0 -->
      <g transform="translate(92.0925 103.240216) scale(0.14 -0.14)">
       <use xlink:href="#DejaVuSans-30"/>
      </g>
     </g>
    </g>
    <g id="ytick_5">
     <g id="line2d_21">
      <path d="M 108 55.554201 
L 777.6 55.554201 
" clip-path="url(#pea88adfc1e)" style="fill: none; stroke: #b0b0b0; stroke-width: 0.8; stroke-linecap: square"/>
     </g>
     <g id="line2d_22">
      <g>
       <use xlink:href="#m491ed8c813" x="108" y="55.554201" style="stroke: #000000; stroke-width: 0.8"/>
      </g>
     </g>
     <g id="text_12">
      <!-- 20 -->
      <g transform="translate(83.185 60.873107) scale(0.14 -0.14)">
       <use xlink:href="#DejaVuSans-32"/>
       <use xlink:href="#DejaVuSans-30" x="63.623047"/>
      </g>
     </g>
    </g>
    <g id="text_13">
     <!-- $V_{m}$ (mV) -->
     <g transform="translate(64.541875 174.49) rotate(-90) scale(0.14 -0.14)">
      <defs>
       <path id="DejaVuSans-Oblique-56" d="M 1319 0 
L 500 4666 
L 1119 4666 
L 1797 653 
L 4063 4666 
L 4750 4666 
L 2053 0 
L 1319 0 
z
" transform="scale(0.015625)"/>
       <path id="DejaVuSans-Oblique-6d" d="M 5747 2113 
L 5338 0 
L 4763 0 
L 5166 2094 
Q 5191 2228 5203 2325 
Q 5216 2422 5216 2491 
Q 5216 2772 5059 2928 
Q 4903 3084 4622 3084 
Q 4203 3084 3875 2770 
Q 3547 2456 3450 1953 
L 3066 0 
L 2491 0 
L 2900 2094 
Q 2925 2209 2937 2307 
Q 2950 2406 2950 2484 
Q 2950 2769 2794 2926 
Q 2638 3084 2363 3084 
Q 1938 3084 1609 2770 
Q 1281 2456 1184 1953 
L 800 0 
L 225 0 
L 909 3500 
L 1484 3500 
L 1375 2956 
Q 1609 3263 1923 3423 
Q 2238 3584 2597 3584 
Q 2978 3584 3223 3384 
Q 3469 3184 3519 2828 
Q 3781 3197 4126 3390 
Q 4472 3584 4856 3584 
Q 5306 3584 5551 3325 
Q 5797 3066 5797 2591 
Q 5797 2488 5784 2364 
Q 5772 2241 5747 2113 
z
" transform="scale(0.015625)"/>
       <path id="DejaVuSans-56" d="M 1831 0 
L 50 4666 
L 709 4666 
L 2188 738 
L 3669 4666 
L 4325 4666 
L 2547 0 
L 1831 0 
z
" transform="scale(0.015625)"/>
      </defs>
      <use xlink:href="#DejaVuSans-Oblique-56" transform="translate(0 0.125)"/>
      <use xlink:href="#DejaVuSans-Oblique-6d" transform="translate(68.408203 -16.28125) scale(0.7)"/>
      <use xlink:href="#DejaVuSans-20" transform="translate(139.331055 0.125)"/>
      <use xlink:href="#DejaVuSans-28" transform="translate(171.118164 0.125)"/>
      <use xlink:href="#DejaVuSans-6d" transform="translate(210.131836 0.125)"/>
      <use xlink:href="#DejaVuSans-56" transform="translate(307.543945 0.125)"/>
      <use xlink:href="#DejaVuSans-29" transform="translate(375.952148 0.125)"/>
     </g>
    </g>
   </g>
   <g id="line2d_23">
    <path d="M 108 221.956847 
L 108.6696 222.571579 
L 109.3392 222.93704 
L 110.6784 223.336422 
L 112.6872 224.710537 
L 113.3568 225.803068 
L 114.0264 226.584032 
L 114.696 227.030738 
L 115.3656 227.322088 
L 116.0352 227.856868 
L 116.7048 228.594532 
L 118.7136 230.2065 
L 120.0528 230.706877 
L 122.0616 231.042188 
L 122.7312 231.092201 
L 124.0704 231.684274 
L 125.4096 231.880805 
L 126.7488 233.001574 
L 128.088 233.401827 
L 129.4272 233.538892 
L 132.1056 234.756168 
L 133.4448 234.969699 
L 134.1144 235.001014 
L 135.4536 235.4911 
L 136.7928 235.607774 
L 137.4624 235.601786 
L 138.8016 236.023729 
L 140.1408 236.086424 
L 141.48 236.002923 
L 142.8192 236.34508 
L 143.4888 236.371037 
L 144.828 236.780822 
L 146.1672 236.813493 
L 148.176 236.606835 
L 150.8544 236.108177 
L 153.5328 235.440069 
L 154.872 235.579378 
L 156.2112 235.39799 
L 158.8896 234.732821 
L 162.2376 233.665274 
L 166.2552 232.16021 
L 170.9424 230.168003 
L 176.2992 227.643178 
L 182.3256 224.55308 
L 189.6912 220.510454 
L 198.396 215.505351 
L 199.7352 215.571084 
L 201.0744 215.207743 
L 203.7528 214.111078 
L 208.44 211.899703 
L 211.788 210.230471 
L 213.1272 210.478576 
L 214.4664 210.270277 
L 215.136 210.089353 
L 215.8056 210.372515 
L 216.4752 211.057889 
L 217.1448 211.505397 
L 217.8144 211.708446 
L 218.484 212.71956 
L 219.8232 215.2176 
L 220.4928 216.062029 
L 221.1624 216.58981 
L 222.5016 217.223977 
L 223.8408 217.500988 
L 225.18 217.563793 
L 226.5192 218.288623 
L 227.1888 218.446738 
L 228.528 219.31353 
L 229.8672 219.635566 
L 231.876 219.737057 
L 233.8848 219.618074 
L 235.224 219.454622 
L 235.8936 219.75851 
L 236.5632 220.384286 
L 237.2328 220.791898 
L 238.572 221.087516 
L 239.2416 221.128722 
L 240.5808 223.572576 
L 241.2504 224.364058 
L 241.92 224.835626 
L 242.5896 225.152848 
L 243.9288 226.184877 
L 244.5984 226.468612 
L 246.6072 228.013571 
L 247.2768 228.458291 
L 248.616 228.920905 
L 250.6248 229.214022 
L 252.6336 229.263516 
L 255.312 229.080068 
L 255.9816 228.998624 
L 257.3208 229.405075 
L 258.66 229.429664 
L 259.9992 229.302955 
L 261.3384 230.293702 
L 262.6776 230.559297 
L 264.0168 231.705471 
L 266.0256 232.456612 
L 266.6952 233.028825 
L 267.3648 233.406174 
L 268.704 233.722891 
L 269.3736 233.786471 
L 270.7128 234.340521 
L 272.052 234.497037 
L 274.0608 234.446016 
L 275.4 234.310725 
L 276.7392 234.646365 
L 278.0784 234.633301 
L 278.748 234.568143 
L 280.0872 234.90348 
L 281.4264 234.881626 
L 283.4352 234.605952 
L 286.1136 234.029064 
L 288.1224 233.489084 
L 289.4616 233.641554 
L 290.8008 233.459594 
L 293.4792 232.780669 
L 296.8272 231.690368 
L 300.8448 230.15642 
L 305.532 228.131562 
L 310.8888 225.573382 
L 316.9152 222.454132 
L 324.2808 218.392967 
L 330.9768 214.554645 
L 332.316 214.638824 
L 333.6552 214.288945 
L 336.3336 213.207178 
L 339.012 211.975262 
L 340.3512 212.226076 
L 341.6904 212.021522 
L 343.6992 211.415372 
L 347.0472 210.147793 
L 348.3864 211.41674 
L 349.056 211.665828 
L 350.3952 211.780741 
L 352.404 211.583038 
L 355.0824 211.026431 
L 356.4216 211.572152 
L 357.0912 211.619796 
L 357.7608 212.032341 
L 358.4304 212.785011 
L 359.1 213.279059 
L 359.7696 213.524052 
L 361.1088 213.705595 
L 363.1176 213.650719 
L 365.1264 214.905145 
L 365.796 215.325284 
L 366.4656 215.976765 
L 367.1352 216.458711 
L 367.8048 216.732508 
L 369.144 217.775557 
L 369.8136 218.040105 
L 373.8312 221.443289 
L 375.1704 221.991038 
L 376.5096 222.267669 
L 377.8488 222.401083 
L 378.5184 223.178699 
L 379.188 224.163284 
L 382.536 227.265517 
L 384.5448 228.338465 
L 385.2144 228.739336 
L 386.5536 229.159212 
L 387.8928 229.368825 
L 388.5624 230.380398 
L 389.232 231.180289 
L 389.9016 231.620862 
L 391.2408 232.098974 
L 391.9104 232.241493 
L 393.2496 233.484538 
L 394.5888 233.992208 
L 395.2584 234.128929 
L 395.928 234.507864 
L 396.5976 235.078887 
L 397.2672 235.46658 
L 397.9368 235.689283 
L 398.6064 236.102395 
L 399.276 236.679563 
L 399.9456 237.070423 
L 401.2848 237.443099 
L 403.2936 237.633906 
L 404.6328 237.633905 
L 405.972 238.036081 
L 407.3112 238.103464 
L 409.32 237.969412 
L 411.9984 237.572254 
L 415.3464 236.834073 
L 419.364 235.676146 
L 423.3816 234.279251 
L 428.0688 232.401867 
L 433.4256 229.987131 
L 439.452 226.992104 
L 446.148 223.393394 
L 454.1832 218.806747 
L 466.236 211.634223 
L 473.6016 207.053076 
L 474.9408 206.149321 
L 476.28 207.252121 
L 476.9496 207.483007 
L 478.2888 207.540069 
L 479.628 207.340555 
L 480.2976 207.185981 
L 481.6368 207.788478 
L 482.976 207.904499 
L 484.3152 208.727679 
L 485.6544 208.994022 
L 486.324 209.016988 
L 488.3328 210.548792 
L 489.0024 211.066546 
L 489.672 211.829685 
L 490.3416 212.412787 
L 491.0112 212.745822 
L 492.3504 213.040606 
L 493.02 213.091663 
L 493.6896 213.557793 
L 494.3592 214.808904 
L 495.0288 215.737636 
L 495.6984 216.272825 
L 497.0376 216.872213 
L 497.7072 217.053909 
L 499.0464 218.043513 
L 499.716 218.307389 
L 501.0552 219.343338 
L 501.7248 219.618351 
L 503.064 222.417164 
L 503.7336 224.053275 
L 504.4032 225.204562 
L 505.0728 225.934344 
L 506.412 226.869245 
L 507.7512 227.468368 
L 509.76 228.024521 
L 510.4296 228.145288 
L 511.7688 229.493591 
L 513.108 230.069497 
L 514.4472 230.356257 
L 516.456 230.542947 
L 517.1256 230.559786 
L 517.7952 231.183124 
L 518.4648 231.974508 
L 519.1344 232.469841 
L 520.4736 232.927456 
L 521.1432 233.045182 
L 522.4824 233.69855 
L 523.8216 233.938879 
L 525.8304 233.999398 
L 528.5088 233.80052 
L 531.1872 233.384735 
L 534.5352 232.632699 
L 537.2136 231.878842 
L 537.8832 231.986417 
L 539.2224 233.386343 
L 541.2312 234.594695 
L 542.5704 234.819676 
L 544.5792 234.782314 
L 547.2576 234.418992 
L 550.6056 233.667794 
L 553.9536 232.685342 
L 557.9712 231.272758 
L 561.3192 229.936697 
L 562.6584 229.983537 
L 563.9976 229.682682 
L 566.676 228.768066 
L 570.6936 227.122485 
L 575.3808 224.964879 
L 581.4072 221.928559 
L 588.7728 217.937962 
L 598.1472 212.591302 
L 603.504 209.431435 
L 604.8432 209.571865 
L 606.1824 209.275752 
L 608.1912 208.520025 
L 611.5392 206.970718 
L 612.8784 207.274144 
L 614.2176 207.155525 
L 616.2264 206.610754 
L 618.9048 205.582563 
L 621.5832 204.286039 
L 623.592 203.046246 
L 624.9312 202.008965 
L 625.6008 201.322644 
L 626.94 200.749082 
L 627.6096 201.374676 
L 628.9488 202.818116 
L 630.288 203.90631 
L 631.6272 204.591477 
L 632.2968 204.806487 
L 632.9664 205.463817 
L 633.636 206.556499 
L 634.3056 207.405589 
L 634.9752 208.452851 
L 635.6448 209.737073 
L 636.3144 210.678395 
L 636.984 211.289957 
L 638.3232 212.874664 
L 640.332 214.354382 
L 641.0016 214.910401 
L 641.6712 215.693424 
L 642.3408 216.715151 
L 643.0104 217.448301 
L 643.68 217.92209 
L 645.0192 219.256866 
L 646.3584 219.937325 
L 647.6976 220.334854 
L 648.3672 220.472179 
L 649.7064 221.366104 
L 650.376 221.605649 
L 651.0456 222.144342 
L 653.0544 225.6472 
L 653.724 227.092186 
L 654.3936 228.131379 
L 657.072 230.655498 
L 658.4112 231.26935 
L 659.0808 232.382654 
L 659.7504 233.268287 
L 660.42 233.800339 
L 661.7592 234.458474 
L 663.0984 234.870536 
L 665.1072 235.232766 
L 665.7768 235.303314 
L 666.4464 235.628344 
L 667.116 236.151298 
L 667.7856 236.503886 
L 669.1248 236.825123 
L 671.1336 236.973943 
L 673.812 236.876772 
L 676.4904 236.553514 
L 679.8384 235.90753 
L 681.1776 236.098549 
L 682.5168 235.969703 
L 685.1952 235.406351 
L 685.8648 235.233739 
L 687.204 235.387223 
L 688.5432 235.215225 
L 691.2216 234.562395 
L 694.5696 233.504668 
L 698.5872 232.007281 
L 703.2744 230.020502 
L 708.6312 227.498375 
L 714.6576 224.407424 
L 722.0232 220.357446 
L 731.3976 214.930057 
L 741.4416 208.901837 
L 746.1288 205.841139 
L 748.1376 204.35286 
L 750.1464 202.550559 
L 751.4856 200.940829 
L 752.1552 199.881205 
L 752.8248 198.402858 
L 753.4944 196.05765 
L 754.164 190.467239 
L 754.8336 163.074067 
L 755.5032 56.015894 
L 756.1728 59.17118 
L 756.8424 82.238783 
L 757.512 97.966815 
L 758.8512 121.86662 
L 761.5296 164.527668 
L 762.8688 182.752006 
L 763.5384 190.742078 
L 764.208 197.033285 
L 764.8776 201.825981 
L 765.5472 205.485783 
L 766.2168 207.983406 
L 766.8864 209.710489 
L 768.8952 213.439422 
L 769.5648 214.190916 
L 772.2432 216.404145 
L 772.9128 217.126601 
L 773.5824 218.045494 
L 774.252 218.666904 
L 774.9216 219.028281 
L 775.5912 219.640403 
L 776.2608 220.096354 
L 777.6 220.505605 
L 777.6 220.505605 
" clip-path="url(#pea88adfc1e)" style="fill: none; stroke: #000000; stroke-width: 1.5; stroke-linecap: square"/>
   </g>
   <g id="line2d_24">
    <path d="M 108 132.075805 
L 111.348 132.585211 
L 114.0264 132.964547 
L 122.7312 134.645408 
L 126.7488 135.274869 
L 145.4976 139.255881 
L 150.1848 140.304221 
L 170.2728 144.141124 
L 181.656 145.935652 
L 193.0392 147.512337 
L 200.4048 148.539707 
L 213.7968 151.875763 
L 215.8056 152.670433 
L 217.1448 153.427651 
L 218.484 154.441643 
L 219.8232 155.880842 
L 221.1624 157.771905 
L 222.5016 159.912775 
L 223.1712 142.193602 
L 223.8408 139.016855 
L 224.5104 137.321854 
L 225.18 136.447343 
L 225.8496 135.98248 
L 227.1888 135.598855 
L 231.876 134.968353 
L 235.224 134.007208 
L 237.2328 133.511697 
L 239.9112 133.121752 
L 241.92 133.177404 
L 247.9464 133.721997 
L 251.964 134.058393 
L 260.6688 134.597884 
L 263.3472 135.019793 
L 267.3648 135.946778 
L 272.7216 137.238926 
L 285.444 139.844103 
L 294.8184 141.654706 
L 302.184 142.911168 
L 312.228 144.393082 
L 322.9416 145.759014 
L 332.9856 146.971908 
L 340.3512 148.711888 
L 343.6992 149.882436 
L 348.3864 151.633755 
L 350.3952 152.905772 
L 356.4216 157.241787 
L 357.0912 140.546379 
L 357.7608 137.512933 
L 358.4304 135.882341 
L 359.1 135.053827 
L 359.7696 134.62214 
L 361.1088 134.25421 
L 371.8224 132.74332 
L 374.5008 132.701163 
L 380.5272 132.821455 
L 389.232 134.197817 
L 399.276 136.521847 
L 403.2936 137.572466 
L 411.3288 139.214509 
L 418.0248 140.282466 
L 428.0688 141.652268 
L 440.7912 143.157916 
L 452.844 144.360616 
L 464.2272 145.27432 
L 473.6016 145.81861 
L 475.6104 145.919644 
L 476.9496 146.219444 
L 479.628 147.227933 
L 481.6368 148.080421 
L 483.6456 149.141012 
L 485.6544 150.461999 
L 487.6632 151.961496 
L 489.0024 153.17634 
L 490.3416 154.638157 
L 491.0112 139.442757 
L 491.6808 136.757535 
L 492.3504 135.358413 
L 493.02 134.665271 
L 493.6896 134.320502 
L 494.3592 134.180714 
L 495.6984 134.20447 
L 497.7072 134.286862 
L 500.3856 134.07862 
L 503.064 133.834407 
L 505.0728 134.030743 
L 507.7512 134.23849 
L 517.7952 134.460688 
L 520.4736 134.792148 
L 527.8392 135.68982 
L 535.8744 136.28873 
L 538.5528 136.507914 
L 540.5616 136.959388 
L 544.5792 138.014577 
L 548.5968 138.778484 
L 555.2928 139.769891 
L 565.3368 141.193286 
L 571.3632 142.133935 
L 580.068 143.253602 
L 590.7816 144.39758 
L 601.4952 145.31521 
L 604.8432 145.61269 
L 608.1912 146.309802 
L 614.2176 147.70662 
L 620.244 149.639448 
L 622.9224 150.296729 
L 624.2616 150.543316 
L 624.9312 136.9086 
L 625.6008 134.256473 
L 626.2704 132.78661 
L 626.94 131.964554 
L 627.6096 131.482269 
L 628.2792 131.206489 
L 629.6184 130.989847 
L 635.6448 130.754826 
L 645.0192 131.453261 
L 648.3672 131.78091 
L 651.7152 132.109008 
L 653.0544 132.421321 
L 663.768 135.776346 
L 673.1424 137.809777 
L 679.1688 138.781291 
L 683.1864 139.463393 
L 700.596 142.48913 
L 711.3096 143.974307 
L 722.6928 145.334709 
L 733.4064 146.399551 
L 742.1112 147.07591 
L 747.468 147.300878 
L 750.1464 147.244073 
L 752.1552 146.98581 
L 753.4944 146.513394 
L 754.164 145.961844 
L 754.8336 144.20632 
L 755.5032 137.600462 
L 756.1728 129.129377 
L 756.8424 122.383271 
L 757.512 118.076826 
L 758.1816 115.818667 
L 758.8512 112.557202 
L 759.5208 112.04064 
L 760.1904 112.517093 
L 760.86 113.554428 
L 762.1992 116.533539 
L 765.5472 124.829171 
L 766.8864 127.212456 
L 768.2256 128.844142 
L 769.5648 129.925469 
L 770.904 130.604355 
L 772.2432 131.028626 
L 774.9216 131.596456 
L 777.6 131.950156 
L 777.6 131.950156 
" clip-path="url(#pea88adfc1e)" style="fill: none; stroke: #4169e1; stroke-width: 1.5; stroke-linecap: square"/>
   </g>
   <g id="patch_3">
    <path d="M 108 256.32 
L 108 34.56 
" style="fill: none; stroke: #000000; stroke-width: 0.8; stroke-linejoin: miter; stroke-linecap: square"/>
   </g>
   <g id="patch_4">
    <path d="M 777.6 256.32 
L 777.6 34.56 
" style="fill: none; stroke: #000000; stroke-width: 0.8; stroke-linejoin: miter; stroke-linecap: square"/>
   </g>
   <g id="patch_5">
    <path d="M 108 256.32 
L 777.6 256.32 
" style="fill: none; stroke: #000000; stroke-width: 0.8; stroke-linejoin: miter; stroke-linecap: square"/>
   </g>
   <g id="patch_6">
    <path d="M 108 34.56 
L 777.6 34.56 
" style="fill: none; stroke: #000000; stroke-width: 0.8; stroke-linejoin: miter; stroke-linecap: square"/>
   </g>
   <g id="legend_1">
    <g id="patch_7">
     <path d="M 115 71.91625 
L 190.501563 71.91625 
Q 192.501563 71.91625 192.501563 69.91625 
L 192.501563 41.56 
Q 192.501563 39.56 190.501563 39.56 
L 115 39.56 
Q 113 39.56 113 41.56 
L 113 69.91625 
Q 113 71.91625 115 71.91625 
z
" style="fill: #ffffff; opacity: 0.8; stroke: #cccccc; stroke-linejoin: miter"/>
    </g>
    <g id="line2d_25">
     <path d="M 117 47.658437 
L 127 47.658437 
L 137 47.658437 
" style="fill: none; stroke: #000000; stroke-width: 1.5; stroke-linecap: square"/>
    </g>
    <g id="text_14">
     <!-- Soma -->
     <g transform="translate(145 51.158437) scale(0.1 -0.1)">
      <defs>
       <path id="DejaVuSans-53" d="M 3425 4513 
L 3425 3897 
Q 3066 4069 2747 4153 
Q 2428 4238 2131 4238 
Q 1616 4238 1336 4038 
Q 1056 3838 1056 3469 
Q 1056 3159 1242 3001 
Q 1428 2844 1947 2747 
L 2328 2669 
Q 3034 2534 3370 2195 
Q 3706 1856 3706 1288 
Q 3706 609 3251 259 
Q 2797 -91 1919 -91 
Q 1588 -91 1214 -16 
Q 841 59 441 206 
L 441 856 
Q 825 641 1194 531 
Q 1563 422 1919 422 
Q 2459 422 2753 634 
Q 3047 847 3047 1241 
Q 3047 1584 2836 1778 
Q 2625 1972 2144 2069 
L 1759 2144 
Q 1053 2284 737 2584 
Q 422 2884 422 3419 
Q 422 4038 858 4394 
Q 1294 4750 2059 4750 
Q 2388 4750 2728 4690 
Q 3069 4631 3425 4513 
z
" transform="scale(0.015625)"/>
       <path id="DejaVuSans-6f" d="M 1959 3097 
Q 1497 3097 1228 2736 
Q 959 2375 959 1747 
Q 959 1119 1226 758 
Q 1494 397 1959 397 
Q 2419 397 2687 759 
Q 2956 1122 2956 1747 
Q 2956 2369 2687 2733 
Q 2419 3097 1959 3097 
z
M 1959 3584 
Q 2709 3584 3137 3096 
Q 3566 2609 3566 1747 
Q 3566 888 3137 398 
Q 2709 -91 1959 -91 
Q 1206 -91 779 398 
Q 353 888 353 1747 
Q 353 2609 779 3096 
Q 1206 3584 1959 3584 
z
" transform="scale(0.015625)"/>
       <path id="DejaVuSans-61" d="M 2194 1759 
Q 1497 1759 1228 1600 
Q 959 1441 959 1056 
Q 959 750 1161 570 
Q 1363 391 1709 391 
Q 2188 391 2477 730 
Q 2766 1069 2766 1631 
L 2766 1759 
L 2194 1759 
z
M 3341 1997 
L 3341 0 
L 2766 0 
L 2766 531 
Q 2569 213 2275 61 
Q 1981 -91 1556 -91 
Q 1019 -91 701 211 
Q 384 513 384 1019 
Q 384 1609 779 1909 
Q 1175 2209 1959 2209 
L 2766 2209 
L 2766 2266 
Q 2766 2663 2505 2880 
Q 2244 3097 1772 3097 
Q 1472 3097 1187 3025 
Q 903 2953 641 2809 
L 641 3341 
Q 956 3463 1253 3523 
Q 1550 3584 1831 3584 
Q 2591 3584 2966 3190 
Q 3341 2797 3341 1997 
z
" transform="scale(0.015625)"/>
      </defs>
      <use xlink:href="#DejaVuSans-53"/>
      <use xlink:href="#DejaVuSans-6f" x="63.476562"/>
      <use xlink:href="#DejaVuSans-6d" x="124.658203"/>
      <use xlink:href="#DejaVuSans-61" x="222.070312"/>
     </g>
    </g>
    <g id="line2d_26">
     <path d="M 117 62.336562 
L 127 62.336562 
L 137 62.336562 
" style="fill: none; stroke: #4169e1; stroke-width: 1.5; stroke-linecap: square"/>
    </g>
    <g id="text_15">
     <!-- Dendrite -->
     <g transform="translate(145 65.836562) scale(0.1 -0.1)">
      <defs>
       <path id="DejaVuSans-44" d="M 1259 4147 
L 1259 519 
L 2022 519 
Q 2988 519 3436 956 
Q 3884 1394 3884 2338 
Q 3884 3275 3436 3711 
Q 2988 4147 2022 4147 
L 1259 4147 
z
M 628 4666 
L 1925 4666 
Q 3281 4666 3915 4102 
Q 4550 3538 4550 2338 
Q 4550 1131 3912 565 
Q 3275 0 1925 0 
L 628 0 
L 628 4666 
z
" transform="scale(0.015625)"/>
       <path id="DejaVuSans-6e" d="M 3513 2113 
L 3513 0 
L 2938 0 
L 2938 2094 
Q 2938 2591 2744 2837 
Q 2550 3084 2163 3084 
Q 1697 3084 1428 2787 
Q 1159 2491 1159 1978 
L 1159 0 
L 581 0 
L 581 3500 
L 1159 3500 
L 1159 2956 
Q 1366 3272 1645 3428 
Q 1925 3584 2291 3584 
Q 2894 3584 3203 3211 
Q 3513 2838 3513 2113 
z
" transform="scale(0.015625)"/>
       <path id="DejaVuSans-64" d="M 2906 2969 
L 2906 4863 
L 3481 4863 
L 3481 0 
L 2906 0 
L 2906 525 
Q 2725 213 2448 61 
Q 2172 -91 1784 -91 
Q 1150 -91 751 415 
Q 353 922 353 1747 
Q 353 2572 751 3078 
Q 1150 3584 1784 3584 
Q 2172 3584 2448 3432 
Q 2725 3281 2906 2969 
z
M 947 1747 
Q 947 1113 1208 752 
Q 1469 391 1925 391 
Q 2381 391 2643 752 
Q 2906 1113 2906 1747 
Q 2906 2381 2643 2742 
Q 2381 3103 1925 3103 
Q 1469 3103 1208 2742 
Q 947 2381 947 1747 
z
" transform="scale(0.015625)"/>
       <path id="DejaVuSans-72" d="M 2631 2963 
Q 2534 3019 2420 3045 
Q 2306 3072 2169 3072 
Q 1681 3072 1420 2755 
Q 1159 2438 1159 1844 
L 1159 0 
L 581 0 
L 581 3500 
L 1159 3500 
L 1159 2956 
Q 1341 3275 1631 3429 
Q 1922 3584 2338 3584 
Q 2397 3584 2469 3576 
Q 2541 3569 2628 3553 
L 2631 2963 
z
" transform="scale(0.015625)"/>
       <path id="DejaVuSans-74" d="M 1172 4494 
L 1172 3500 
L 2356 3500 
L 2356 3053 
L 1172 3053 
L 1172 1153 
Q 1172 725 1289 603 
Q 1406 481 1766 481 
L 2356 481 
L 2356 0 
L 1766 0 
Q 1100 0 847 248 
Q 594 497 594 1153 
L 594 3053 
L 172 3053 
L 172 3500 
L 594 3500 
L 594 4494 
L 1172 4494 
z
" transform="scale(0.015625)"/>
      </defs>
      <use xlink:href="#DejaVuSans-44"/>
      <use xlink:href="#DejaVuSans-65" x="77.001953"/>
      <use xlink:href="#DejaVuSans-6e" x="138.525391"/>
      <use xlink:href="#DejaVuSans-64" x="201.904297"/>
      <use xlink:href="#DejaVuSans-72" x="265.380859"/>
      <use xlink:href="#DejaVuSans-69" x="306.494141"/>
      <use xlink:href="#DejaVuSans-74" x="334.277344"/>
      <use xlink:href="#DejaVuSans-65" x="373.486328"/>
     </g>
    </g>
   </g>
  </g>
 </g>
 <defs>
  <clipPath id="pea88adfc1e">
   <rect x="108" y="34.56" width="669.6" height="221.76"/>
  </clipPath>
 </defs>
</svg>
