<?xml version="1.0" encoding="utf-8" standalone="no"?>
<!DOCTYPE svg PUBLIC "-//W3C//DTD SVG 1.1//EN"
  "http://www.w3.org/Graphics/SVG/1.1/DTD/svg11.dtd">
<svg xmlns:xlink="http://www.w3.org/1999/xlink" width="864pt" height="288pt" viewBox="0 0 864 288" xmlns="http://www.w3.org/2000/svg" version="1.1">
 <metadata>
  <rdf:RDF xmlns:dc="http://purl.org/dc/elements/1.1/" xmlns:cc="http://creativecommons.org/ns#" xmlns:rdf="http://www.w3.org/1999/02/22-rdf-syntax-ns#">
   <cc:Work>
    <dc:type rdf:resource="http://purl.org/dc/dcmitype/StillImage"/>
    <dc:date>2024-04-23T19:18:11.966395</dc:date>
    <dc:format>image/svg+xml</dc:format>
    <dc:creator>
     <cc:Agent>
      <dc:title>Matplotlib v3.8.2, https://matplotlib.org/</dc:title>
     </cc:Agent>
    </dc:creator>
   </cc:Work>
  </rdf:RDF>
 </metadata>
 <defs>
  <style type="text/css">*{stroke-linejoin: round; stroke-linecap: butt}</style>
 </defs>
 <g id="figure_1">
  <g id="patch_1">
   <path d="M 0 288 
L 864 288 
L 864 0 
L 0 0 
z
" style="fill: #ffffff"/>
  </g>
  <g id="axes_1">
   <g id="patch_2">
    <path d="M 108 256.32 
L 777.6 256.32 
L 777.6 34.56 
L 108 34.56 
z
" style="fill: #ffffff"/>
   </g>
   <g id="matplotlib.axis_1">
    <g id="xtick_1">
     <g id="line2d_1">
      <path d="M 108 256.32 
L 108 34.56 
" clip-path="url(#pa3a4e6742f)" style="fill: none; stroke: #b0b0b0; stroke-width: 0.8; stroke-linecap: square"/>
     </g>
     <g id="line2d_2">
      <defs>
       <path id="m6d69d5ab50" d="M 0 0 
L 0 3.5 
" style="stroke: #000000; stroke-width: 0.8"/>
      </defs>
      <g>
       <use xlink:href="#m6d69d5ab50" x="108" y="256.32" style="stroke: #000000; stroke-width: 0.8"/>
      </g>
     </g>
     <g id="text_1">
      <!-- 100 -->
      <g transform="translate(94.63875 273.957812) scale(0.14 -0.14)">
       <defs>
        <path id="DejaVuSans-31" d="M 794 531 
L 1825 531 
L 1825 4091 
L 703 3866 
L 703 4441 
L 1819 4666 
L 2450 4666 
L 2450 531 
L 3481 531 
L 3481 0 
L 794 0 
L 794 531 
z
" transform="scale(0.015625)"/>
        <path id="DejaVuSans-30" d="M 2034 4250 
Q 1547 4250 1301 3770 
Q 1056 3291 1056 2328 
Q 1056 1369 1301 889 
Q 1547 409 2034 409 
Q 2525 409 2770 889 
Q 3016 1369 3016 2328 
Q 3016 3291 2770 3770 
Q 2525 4250 2034 4250 
z
M 2034 4750 
Q 2819 4750 3233 4129 
Q 3647 3509 3647 2328 
Q 3647 1150 3233 529 
Q 2819 -91 2034 -91 
Q 1250 -91 836 529 
Q 422 1150 422 2328 
Q 422 3509 836 4129 
Q 1250 4750 2034 4750 
z
" transform="scale(0.015625)"/>
       </defs>
       <use xlink:href="#DejaVuSans-31"/>
       <use xlink:href="#DejaVuSans-30" x="63.623047"/>
       <use xlink:href="#DejaVuSans-30" x="127.246094"/>
      </g>
     </g>
    </g>
    <g id="xtick_2">
     <g id="line2d_3">
      <path d="M 241.92 256.32 
L 241.92 34.56 
" clip-path="url(#pa3a4e6742f)" style="fill: none; stroke: #b0b0b0; stroke-width: 0.8; stroke-linecap: square"/>
     </g>
     <g id="line2d_4">
      <g>
       <use xlink:href="#m6d69d5ab50" x="241.92" y="256.32" style="stroke: #000000; stroke-width: 0.8"/>
      </g>
     </g>
     <g id="text_2">
      <!-- 120 -->
      <g transform="translate(228.55875 273.957812) scale(0.14 -0.14)">
       <defs>
        <path id="DejaVuSans-32" d="M 1228 531 
L 3431 531 
L 3431 0 
L 469 0 
L 469 531 
Q 828 903 1448 1529 
Q 2069 2156 2228 2338 
Q 2531 2678 2651 2914 
Q 2772 3150 2772 3378 
Q 2772 3750 2511 3984 
Q 2250 4219 1831 4219 
Q 1534 4219 1204 4116 
Q 875 4013 500 3803 
L 500 4441 
Q 881 4594 1212 4672 
Q 1544 4750 1819 4750 
Q 2544 4750 2975 4387 
Q 3406 4025 3406 3419 
Q 3406 3131 3298 2873 
Q 3191 2616 2906 2266 
Q 2828 2175 2409 1742 
Q 1991 1309 1228 531 
z
" transform="scale(0.015625)"/>
       </defs>
       <use xlink:href="#DejaVuSans-31"/>
       <use xlink:href="#DejaVuSans-32" x="63.623047"/>
       <use xlink:href="#DejaVuSans-30" x="127.246094"/>
      </g>
     </g>
    </g>
    <g id="xtick_3">
     <g id="line2d_5">
      <path d="M 375.84 256.32 
L 375.84 34.56 
" clip-path="url(#pa3a4e6742f)" style="fill: none; stroke: #b0b0b0; stroke-width: 0.8; stroke-linecap: square"/>
     </g>
     <g id="line2d_6">
      <g>
       <use xlink:href="#m6d69d5ab50" x="375.84" y="256.32" style="stroke: #000000; stroke-width: 0.8"/>
      </g>
     </g>
     <g id="text_3">
      <!-- 140 -->
      <g transform="translate(362.47875 273.957812) scale(0.14 -0.14)">
       <defs>
        <path id="DejaVuSans-34" d="M 2419 4116 
L 825 1625 
L 2419 1625 
L 2419 4116 
z
M 2253 4666 
L 3047 4666 
L 3047 1625 
L 3713 1625 
L 3713 1100 
L 3047 1100 
L 3047 0 
L 2419 0 
L 2419 1100 
L 313 1100 
L 313 1709 
L 2253 4666 
z
" transform="scale(0.015625)"/>
       </defs>
       <use xlink:href="#DejaVuSans-31"/>
       <use xlink:href="#DejaVuSans-34" x="63.623047"/>
       <use xlink:href="#DejaVuSans-30" x="127.246094"/>
      </g>
     </g>
    </g>
    <g id="xtick_4">
     <g id="line2d_7">
      <path d="M 509.76 256.32 
L 509.76 34.56 
" clip-path="url(#pa3a4e6742f)" style="fill: none; stroke: #b0b0b0; stroke-width: 0.8; stroke-linecap: square"/>
     </g>
     <g id="line2d_8">
      <g>
       <use xlink:href="#m6d69d5ab50" x="509.76" y="256.32" style="stroke: #000000; stroke-width: 0.8"/>
      </g>
     </g>
     <g id="text_4">
      <!-- 160 -->
      <g transform="translate(496.39875 273.957812) scale(0.14 -0.14)">
       <defs>
        <path id="DejaVuSans-36" d="M 2113 2584 
Q 1688 2584 1439 2293 
Q 1191 2003 1191 1497 
Q 1191 994 1439 701 
Q 1688 409 2113 409 
Q 2538 409 2786 701 
Q 3034 994 3034 1497 
Q 3034 2003 2786 2293 
Q 2538 2584 2113 2584 
z
M 3366 4563 
L 3366 3988 
Q 3128 4100 2886 4159 
Q 2644 4219 2406 4219 
Q 1781 4219 1451 3797 
Q 1122 3375 1075 2522 
Q 1259 2794 1537 2939 
Q 1816 3084 2150 3084 
Q 2853 3084 3261 2657 
Q 3669 2231 3669 1497 
Q 3669 778 3244 343 
Q 2819 -91 2113 -91 
Q 1303 -91 875 529 
Q 447 1150 447 2328 
Q 447 3434 972 4092 
Q 1497 4750 2381 4750 
Q 2619 4750 2861 4703 
Q 3103 4656 3366 4563 
z
" transform="scale(0.015625)"/>
       </defs>
       <use xlink:href="#DejaVuSans-31"/>
       <use xlink:href="#DejaVuSans-36" x="63.623047"/>
       <use xlink:href="#DejaVuSans-30" x="127.246094"/>
      </g>
     </g>
    </g>
    <g id="xtick_5">
     <g id="line2d_9">
      <path d="M 643.68 256.32 
L 643.68 34.56 
" clip-path="url(#pa3a4e6742f)" style="fill: none; stroke: #b0b0b0; stroke-width: 0.8; stroke-linecap: square"/>
     </g>
     <g id="line2d_10">
      <g>
       <use xlink:href="#m6d69d5ab50" x="643.68" y="256.32" style="stroke: #000000; stroke-width: 0.8"/>
      </g>
     </g>
     <g id="text_5">
      <!-- 180 -->
      <g transform="translate(630.31875 273.957812) scale(0.14 -0.14)">
       <defs>
        <path id="DejaVuSans-38" d="M 2034 2216 
Q 1584 2216 1326 1975 
Q 1069 1734 1069 1313 
Q 1069 891 1326 650 
Q 1584 409 2034 409 
Q 2484 409 2743 651 
Q 3003 894 3003 1313 
Q 3003 1734 2745 1975 
Q 2488 2216 2034 2216 
z
M 1403 2484 
Q 997 2584 770 2862 
Q 544 3141 544 3541 
Q 544 4100 942 4425 
Q 1341 4750 2034 4750 
Q 2731 4750 3128 4425 
Q 3525 4100 3525 3541 
Q 3525 3141 3298 2862 
Q 3072 2584 2669 2484 
Q 3125 2378 3379 2068 
Q 3634 1759 3634 1313 
Q 3634 634 3220 271 
Q 2806 -91 2034 -91 
Q 1263 -91 848 271 
Q 434 634 434 1313 
Q 434 1759 690 2068 
Q 947 2378 1403 2484 
z
M 1172 3481 
Q 1172 3119 1398 2916 
Q 1625 2713 2034 2713 
Q 2441 2713 2670 2916 
Q 2900 3119 2900 3481 
Q 2900 3844 2670 4047 
Q 2441 4250 2034 4250 
Q 1625 4250 1398 4047 
Q 1172 3844 1172 3481 
z
" transform="scale(0.015625)"/>
       </defs>
       <use xlink:href="#DejaVuSans-31"/>
       <use xlink:href="#DejaVuSans-38" x="63.623047"/>
       <use xlink:href="#DejaVuSans-30" x="127.246094"/>
      </g>
     </g>
    </g>
    <g id="xtick_6">
     <g id="line2d_11">
      <path d="M 777.6 256.32 
L 777.6 34.56 
" clip-path="url(#pa3a4e6742f)" style="fill: none; stroke: #b0b0b0; stroke-width: 0.8; stroke-linecap: square"/>
     </g>
     <g id="line2d_12">
      <g>
       <use xlink:href="#m6d69d5ab50" x="777.6" y="256.32" style="stroke: #000000; stroke-width: 0.8"/>
      </g>
     </g>
     <g id="text_6">
      <!-- 200 -->
      <g transform="translate(764.23875 273.957812) scale(0.14 -0.14)">
       <use xlink:href="#DejaVuSans-32"/>
       <use xlink:href="#DejaVuSans-30" x="63.623047"/>
       <use xlink:href="#DejaVuSans-30" x="127.246094"/>
      </g>
     </g>
    </g>
    <g id="text_7">
     <!-- Time (ms) -->
     <g transform="translate(407.521094 291.507187) scale(0.14 -0.14)">
      <defs>
       <path id="DejaVuSans-54" d="M -19 4666 
L 3928 4666 
L 3928 4134 
L 2272 4134 
L 2272 0 
L 1638 0 
L 1638 4134 
L -19 4134 
L -19 4666 
z
" transform="scale(0.015625)"/>
       <path id="DejaVuSans-69" d="M 603 3500 
L 1178 3500 
L 1178 0 
L 603 0 
L 603 3500 
z
M 603 4863 
L 1178 4863 
L 1178 4134 
L 603 4134 
L 603 4863 
z
" transform="scale(0.015625)"/>
       <path id="DejaVuSans-6d" d="M 3328 2828 
Q 3544 3216 3844 3400 
Q 4144 3584 4550 3584 
Q 5097 3584 5394 3201 
Q 5691 2819 5691 2113 
L 5691 0 
L 5113 0 
L 5113 2094 
Q 5113 2597 4934 2840 
Q 4756 3084 4391 3084 
Q 3944 3084 3684 2787 
Q 3425 2491 3425 1978 
L 3425 0 
L 2847 0 
L 2847 2094 
Q 2847 2600 2669 2842 
Q 2491 3084 2119 3084 
Q 1678 3084 1418 2786 
Q 1159 2488 1159 1978 
L 1159 0 
L 581 0 
L 581 3500 
L 1159 3500 
L 1159 2956 
Q 1356 3278 1631 3431 
Q 1906 3584 2284 3584 
Q 2666 3584 2933 3390 
Q 3200 3197 3328 2828 
z
" transform="scale(0.015625)"/>
       <path id="DejaVuSans-65" d="M 3597 1894 
L 3597 1613 
L 953 1613 
Q 991 1019 1311 708 
Q 1631 397 2203 397 
Q 2534 397 2845 478 
Q 3156 559 3463 722 
L 3463 178 
Q 3153 47 2828 -22 
Q 2503 -91 2169 -91 
Q 1331 -91 842 396 
Q 353 884 353 1716 
Q 353 2575 817 3079 
Q 1281 3584 2069 3584 
Q 2775 3584 3186 3129 
Q 3597 2675 3597 1894 
z
M 3022 2063 
Q 3016 2534 2758 2815 
Q 2500 3097 2075 3097 
Q 1594 3097 1305 2825 
Q 1016 2553 972 2059 
L 3022 2063 
z
" transform="scale(0.015625)"/>
       <path id="DejaVuSans-20" transform="scale(0.015625)"/>
       <path id="DejaVuSans-28" d="M 1984 4856 
Q 1566 4138 1362 3434 
Q 1159 2731 1159 2009 
Q 1159 1288 1364 580 
Q 1569 -128 1984 -844 
L 1484 -844 
Q 1016 -109 783 600 
Q 550 1309 550 2009 
Q 550 2706 781 3412 
Q 1013 4119 1484 4856 
L 1984 4856 
z
" transform="scale(0.015625)"/>
       <path id="DejaVuSans-73" d="M 2834 3397 
L 2834 2853 
Q 2591 2978 2328 3040 
Q 2066 3103 1784 3103 
Q 1356 3103 1142 2972 
Q 928 2841 928 2578 
Q 928 2378 1081 2264 
Q 1234 2150 1697 2047 
L 1894 2003 
Q 2506 1872 2764 1633 
Q 3022 1394 3022 966 
Q 3022 478 2636 193 
Q 2250 -91 1575 -91 
Q 1294 -91 989 -36 
Q 684 19 347 128 
L 347 722 
Q 666 556 975 473 
Q 1284 391 1588 391 
Q 1994 391 2212 530 
Q 2431 669 2431 922 
Q 2431 1156 2273 1281 
Q 2116 1406 1581 1522 
L 1381 1569 
Q 847 1681 609 1914 
Q 372 2147 372 2553 
Q 372 3047 722 3315 
Q 1072 3584 1716 3584 
Q 2034 3584 2315 3537 
Q 2597 3491 2834 3397 
z
" transform="scale(0.015625)"/>
       <path id="DejaVuSans-29" d="M 513 4856 
L 1013 4856 
Q 1481 4119 1714 3412 
Q 1947 2706 1947 2009 
Q 1947 1309 1714 600 
Q 1481 -109 1013 -844 
L 513 -844 
Q 928 -128 1133 580 
Q 1338 1288 1338 2009 
Q 1338 2731 1133 3434 
Q 928 4138 513 4856 
z
" transform="scale(0.015625)"/>
      </defs>
      <use xlink:href="#DejaVuSans-54"/>
      <use xlink:href="#DejaVuSans-69" x="57.958984"/>
      <use xlink:href="#DejaVuSans-6d" x="85.742188"/>
      <use xlink:href="#DejaVuSans-65" x="183.154297"/>
      <use xlink:href="#DejaVuSans-20" x="244.677734"/>
      <use xlink:href="#DejaVuSans-28" x="276.464844"/>
      <use xlink:href="#DejaVuSans-6d" x="315.478516"/>
      <use xlink:href="#DejaVuSans-73" x="412.890625"/>
      <use xlink:href="#DejaVuSans-29" x="464.990234"/>
     </g>
    </g>
   </g>
   <g id="matplotlib.axis_2">
    <g id="ytick_1">
     <g id="line2d_13">
      <path d="M 108 246.24 
L 777.6 246.24 
" clip-path="url(#pa3a4e6742f)" style="fill: none; stroke: #b0b0b0; stroke-width: 0.8; stroke-linecap: square"/>
     </g>
     <g id="line2d_14">
      <defs>
       <path id="m9f9b65ed62" d="M 0 0 
L -3.5 0 
" style="stroke: #000000; stroke-width: 0.8"/>
      </defs>
      <g>
       <use xlink:href="#m9f9b65ed62" x="108" y="246.24" style="stroke: #000000; stroke-width: 0.8"/>
      </g>
     </g>
     <g id="text_8">
      <!-- 0.00 -->
      <g transform="translate(69.828125 251.558906) scale(0.14 -0.14)">
       <defs>
        <path id="DejaVuSans-2e" d="M 684 794 
L 1344 794 
L 1344 0 
L 684 0 
L 684 794 
z
" transform="scale(0.015625)"/>
       </defs>
       <use xlink:href="#DejaVuSans-30"/>
       <use xlink:href="#DejaVuSans-2e" x="63.623047"/>
       <use xlink:href="#DejaVuSans-30" x="95.410156"/>
       <use xlink:href="#DejaVuSans-30" x="159.033203"/>
      </g>
     </g>
    </g>
    <g id="ytick_2">
     <g id="line2d_15">
      <path d="M 108 208.425209 
L 777.6 208.425209 
" clip-path="url(#pa3a4e6742f)" style="fill: none; stroke: #b0b0b0; stroke-width: 0.8; stroke-linecap: square"/>
     </g>
     <g id="line2d_16">
      <g>
       <use xlink:href="#m9f9b65ed62" x="108" y="208.425209" style="stroke: #000000; stroke-width: 0.8"/>
      </g>
     </g>
     <g id="text_9">
      <!-- 0.05 -->
      <g transform="translate(69.828125 213.744115) scale(0.14 -0.14)">
       <defs>
        <path id="DejaVuSans-35" d="M 691 4666 
L 3169 4666 
L 3169 4134 
L 1269 4134 
L 1269 2991 
Q 1406 3038 1543 3061 
Q 1681 3084 1819 3084 
Q 2600 3084 3056 2656 
Q 3513 2228 3513 1497 
Q 3513 744 3044 326 
Q 2575 -91 1722 -91 
Q 1428 -91 1123 -41 
Q 819 9 494 109 
L 494 744 
Q 775 591 1075 516 
Q 1375 441 1709 441 
Q 2250 441 2565 725 
Q 2881 1009 2881 1497 
Q 2881 1984 2565 2268 
Q 2250 2553 1709 2553 
Q 1456 2553 1204 2497 
Q 953 2441 691 2322 
L 691 4666 
z
" transform="scale(0.015625)"/>
       </defs>
       <use xlink:href="#DejaVuSans-30"/>
       <use xlink:href="#DejaVuSans-2e" x="63.623047"/>
       <use xlink:href="#DejaVuSans-30" x="95.410156"/>
       <use xlink:href="#DejaVuSans-35" x="159.033203"/>
      </g>
     </g>
    </g>
    <g id="ytick_3">
     <g id="line2d_17">
      <path d="M 108 170.610418 
L 777.6 170.610418 
" clip-path="url(#pa3a4e6742f)" style="fill: none; stroke: #b0b0b0; stroke-width: 0.8; stroke-linecap: square"/>
     </g>
     <g id="line2d_18">
      <g>
       <use xlink:href="#m9f9b65ed62" x="108" y="170.610418" style="stroke: #000000; stroke-width: 0.8"/>
      </g>
     </g>
     <g id="text_10">
      <!-- 0.10 -->
      <g transform="translate(69.828125 175.929325) scale(0.14 -0.14)">
       <use xlink:href="#DejaVuSans-30"/>
       <use xlink:href="#DejaVuSans-2e" x="63.623047"/>
       <use xlink:href="#DejaVuSans-31" x="95.410156"/>
       <use xlink:href="#DejaVuSans-30" x="159.033203"/>
      </g>
     </g>
    </g>
    <g id="ytick_4">
     <g id="line2d_19">
      <path d="M 108 132.795628 
L 777.6 132.795628 
" clip-path="url(#pa3a4e6742f)" style="fill: none; stroke: #b0b0b0; stroke-width: 0.8; stroke-linecap: square"/>
     </g>
     <g id="line2d_20">
      <g>
       <use xlink:href="#m9f9b65ed62" x="108" y="132.795628" style="stroke: #000000; stroke-width: 0.8"/>
      </g>
     </g>
     <g id="text_11">
      <!-- 0.15 -->
      <g transform="translate(69.828125 138.114534) scale(0.14 -0.14)">
       <use xlink:href="#DejaVuSans-30"/>
       <use xlink:href="#DejaVuSans-2e" x="63.623047"/>
       <use xlink:href="#DejaVuSans-31" x="95.410156"/>
       <use xlink:href="#DejaVuSans-35" x="159.033203"/>
      </g>
     </g>
    </g>
    <g id="ytick_5">
     <g id="line2d_21">
      <path d="M 108 94.980837 
L 777.6 94.980837 
" clip-path="url(#pa3a4e6742f)" style="fill: none; stroke: #b0b0b0; stroke-width: 0.8; stroke-linecap: square"/>
     </g>
     <g id="line2d_22">
      <g>
       <use xlink:href="#m9f9b65ed62" x="108" y="94.980837" style="stroke: #000000; stroke-width: 0.8"/>
      </g>
     </g>
     <g id="text_12">
      <!-- 0.20 -->
      <g transform="translate(69.828125 100.299743) scale(0.14 -0.14)">
       <use xlink:href="#DejaVuSans-30"/>
       <use xlink:href="#DejaVuSans-2e" x="63.623047"/>
       <use xlink:href="#DejaVuSans-32" x="95.410156"/>
       <use xlink:href="#DejaVuSans-30" x="159.033203"/>
      </g>
     </g>
    </g>
    <g id="ytick_6">
     <g id="line2d_23">
      <path d="M 108 57.166046 
L 777.6 57.166046 
" clip-path="url(#pa3a4e6742f)" style="fill: none; stroke: #b0b0b0; stroke-width: 0.8; stroke-linecap: square"/>
     </g>
     <g id="line2d_24">
      <g>
       <use xlink:href="#m9f9b65ed62" x="108" y="57.166046" style="stroke: #000000; stroke-width: 0.8"/>
      </g>
     </g>
     <g id="text_13">
      <!-- 0.25 -->
      <g transform="translate(69.828125 62.484952) scale(0.14 -0.14)">
       <use xlink:href="#DejaVuSans-30"/>
       <use xlink:href="#DejaVuSans-2e" x="63.623047"/>
       <use xlink:href="#DejaVuSans-32" x="95.410156"/>
       <use xlink:href="#DejaVuSans-35" x="159.033203"/>
      </g>
     </g>
    </g>
    <g id="text_14">
     <!-- $g_{Inhib}$ (µS) -->
     <g transform="translate(62.888125 178.83) rotate(-90) scale(0.14 -0.14)">
      <defs>
       <path id="DejaVuSans-Oblique-67" d="M 3816 3500 
L 3219 434 
Q 3047 -456 2561 -893 
Q 2075 -1331 1253 -1331 
Q 950 -1331 690 -1286 
Q 431 -1241 206 -1147 
L 313 -588 
Q 525 -725 762 -790 
Q 1000 -856 1269 -856 
Q 1816 -856 2167 -557 
Q 2519 -259 2631 300 
L 2681 563 
Q 2441 288 2122 144 
Q 1803 0 1434 0 
Q 903 0 598 351 
Q 294 703 294 1319 
Q 294 1803 478 2267 
Q 663 2731 997 3091 
Q 1219 3328 1514 3456 
Q 1809 3584 2131 3584 
Q 2484 3584 2746 3420 
Q 3009 3256 3138 2956 
L 3238 3500 
L 3816 3500 
z
M 2950 2216 
Q 2950 2641 2750 2872 
Q 2550 3103 2181 3103 
Q 1953 3103 1747 3012 
Q 1541 2922 1394 2759 
Q 1156 2491 1023 2127 
Q 891 1763 891 1375 
Q 891 944 1092 712 
Q 1294 481 1672 481 
Q 2219 481 2584 976 
Q 2950 1472 2950 2216 
z
" transform="scale(0.015625)"/>
       <path id="DejaVuSans-Oblique-49" d="M 1081 4666 
L 1716 4666 
L 806 0 
L 172 0 
L 1081 4666 
z
" transform="scale(0.015625)"/>
       <path id="DejaVuSans-Oblique-6e" d="M 3566 2113 
L 3156 0 
L 2578 0 
L 2988 2091 
Q 3016 2238 3031 2350 
Q 3047 2463 3047 2528 
Q 3047 2791 2881 2937 
Q 2716 3084 2419 3084 
Q 1956 3084 1622 2776 
Q 1288 2469 1184 1941 
L 800 0 
L 225 0 
L 903 3500 
L 1478 3500 
L 1363 2950 
Q 1603 3253 1940 3418 
Q 2278 3584 2650 3584 
Q 3113 3584 3367 3334 
Q 3622 3084 3622 2631 
Q 3622 2519 3608 2391 
Q 3594 2263 3566 2113 
z
" transform="scale(0.015625)"/>
       <path id="DejaVuSans-Oblique-68" d="M 3566 2113 
L 3156 0 
L 2578 0 
L 2988 2091 
Q 3016 2238 3031 2350 
Q 3047 2463 3047 2528 
Q 3047 2791 2881 2937 
Q 2716 3084 2419 3084 
Q 1956 3084 1617 2771 
Q 1278 2459 1178 1941 
L 800 0 
L 225 0 
L 1172 4863 
L 1747 4863 
L 1375 2950 
Q 1594 3244 1934 3414 
Q 2275 3584 2650 3584 
Q 3113 3584 3367 3334 
Q 3622 3084 3622 2631 
Q 3622 2519 3608 2391 
Q 3594 2263 3566 2113 
z
" transform="scale(0.015625)"/>
       <path id="DejaVuSans-Oblique-69" d="M 1172 4863 
L 1747 4863 
L 1606 4134 
L 1031 4134 
L 1172 4863 
z
M 909 3500 
L 1484 3500 
L 800 0 
L 225 0 
L 909 3500 
z
" transform="scale(0.015625)"/>
       <path id="DejaVuSans-Oblique-62" d="M 3169 2138 
Q 3169 2591 2961 2847 
Q 2753 3103 2388 3103 
Q 2122 3103 1889 2973 
Q 1656 2844 1484 2597 
Q 1303 2338 1198 1995 
Q 1094 1653 1094 1313 
Q 1094 881 1298 636 
Q 1503 391 1863 391 
Q 2134 391 2365 517 
Q 2597 644 2772 891 
Q 2950 1147 3059 1487 
Q 3169 1828 3169 2138 
z
M 1381 2969 
Q 1594 3256 1914 3420 
Q 2234 3584 2584 3584 
Q 3122 3584 3439 3221 
Q 3756 2859 3756 2241 
Q 3756 1734 3570 1259 
Q 3384 784 3041 416 
Q 2816 172 2522 40 
Q 2228 -91 1906 -91 
Q 1566 -91 1316 65 
Q 1066 222 909 531 
L 806 0 
L 231 0 
L 1178 4863 
L 1753 4863 
L 1381 2969 
z
" transform="scale(0.015625)"/>
       <path id="DejaVuSans-b5" d="M 544 -1331 
L 544 3500 
L 1119 3500 
L 1119 1325 
Q 1119 872 1334 640 
Q 1550 409 1972 409 
Q 2434 409 2667 671 
Q 2900 934 2900 1459 
L 2900 3500 
L 3475 3500 
L 3475 806 
Q 3475 619 3529 530 
Q 3584 441 3700 441 
Q 3728 441 3778 458 
Q 3828 475 3916 513 
L 3916 50 
Q 3788 -22 3673 -56 
Q 3559 -91 3450 -91 
Q 3234 -91 3106 31 
Q 2978 153 2931 403 
Q 2775 156 2548 32 
Q 2322 -91 2016 -91 
Q 1697 -91 1473 31 
Q 1250 153 1119 397 
L 1119 -1331 
L 544 -1331 
z
" transform="scale(0.015625)"/>
       <path id="DejaVuSans-53" d="M 3425 4513 
L 3425 3897 
Q 3066 4069 2747 4153 
Q 2428 4238 2131 4238 
Q 1616 4238 1336 4038 
Q 1056 3838 1056 3469 
Q 1056 3159 1242 3001 
Q 1428 2844 1947 2747 
L 2328 2669 
Q 3034 2534 3370 2195 
Q 3706 1856 3706 1288 
Q 3706 609 3251 259 
Q 2797 -91 1919 -91 
Q 1588 -91 1214 -16 
Q 841 59 441 206 
L 441 856 
Q 825 641 1194 531 
Q 1563 422 1919 422 
Q 2459 422 2753 634 
Q 3047 847 3047 1241 
Q 3047 1584 2836 1778 
Q 2625 1972 2144 2069 
L 1759 2144 
Q 1053 2284 737 2584 
Q 422 2884 422 3419 
Q 422 4038 858 4394 
Q 1294 4750 2059 4750 
Q 2388 4750 2728 4690 
Q 3069 4631 3425 4513 
z
" transform="scale(0.015625)"/>
      </defs>
      <use xlink:href="#DejaVuSans-Oblique-67" transform="translate(0 0.125)"/>
      <use xlink:href="#DejaVuSans-Oblique-49" transform="translate(63.476562 -16.28125) scale(0.7)"/>
      <use xlink:href="#DejaVuSans-Oblique-6e" transform="translate(84.121094 -16.28125) scale(0.7)"/>
      <use xlink:href="#DejaVuSans-Oblique-68" transform="translate(128.486328 -16.28125) scale(0.7)"/>
      <use xlink:href="#DejaVuSans-Oblique-69" transform="translate(172.851562 -16.28125) scale(0.7)"/>
      <use xlink:href="#DejaVuSans-Oblique-62" transform="translate(192.299805 -16.28125) scale(0.7)"/>
      <use xlink:href="#DejaVuSans-20" transform="translate(239.467773 0.125)"/>
      <use xlink:href="#DejaVuSans-28" transform="translate(271.254883 0.125)"/>
      <use xlink:href="#DejaVuSans-b5" transform="translate(310.268555 0.125)"/>
      <use xlink:href="#DejaVuSans-53" transform="translate(373.891602 0.125)"/>
      <use xlink:href="#DejaVuSans-29" transform="translate(437.368164 0.125)"/>
     </g>
    </g>
   </g>
   <g id="line2d_25">
    <path d="M 108 113.99295 
L 109.3392 118.209084 
L 110.0088 113.143747 
L 110.6784 112.589879 
L 111.348 107.45895 
L 112.0176 106.996434 
L 112.6872 109.078117 
L 113.3568 104.15951 
L 114.0264 103.750014 
L 116.7048 112.542069 
L 117.3744 107.567798 
L 118.044 107.103532 
L 118.7136 102.060767 
L 119.3832 101.684996 
L 120.0528 103.852032 
L 120.7224 99.017405 
L 121.392 98.69054 
L 124.74 110.024711 
L 125.4096 105.090893 
L 126.0792 104.66643 
L 126.7488 99.662827 
L 127.4184 99.32559 
L 128.088 94.407812 
L 128.7576 94.155021 
L 130.7664 101.218697 
L 132.1056 79.317504 
L 132.7752 78.995428 
L 136.7928 94.342778 
L 137.4624 89.66096 
L 138.132 89.484448 
L 144.828 112.79388 
L 148.176 123.17683 
L 148.8456 125.154392 
L 149.5152 119.977447 
L 150.1848 119.313765 
L 158.22 141.607568 
L 161.568 149.748632 
L 164.916 157.256269 
L 168.264 164.179764 
L 171.612 170.564568 
L 174.96 176.452594 
L 178.308 181.882495 
L 181.656 186.889915 
L 185.004 191.507726 
L 188.352 195.766242 
L 191.7 199.693419 
L 195.048 203.315036 
L 196.3872 204.683516 
L 197.0568 198.22858 
L 197.7264 196.307442 
L 199.0656 197.745945 
L 202.4136 201.519088 
L 205.7616 204.998657 
L 209.1096 208.207494 
L 213.1272 211.730273 
L 213.7968 212.284827 
L 214.4664 205.707741 
L 215.136 196.543689 
L 215.8056 194.493737 
L 217.1448 195.990063 
L 217.8144 196.797553 
L 218.484 190.46934 
L 219.1536 181.550161 
L 219.8232 179.741148 
L 221.1624 181.707797 
L 221.832 182.744796 
L 222.5016 176.642404 
L 223.1712 175.068144 
L 224.5104 177.183772 
L 227.8584 182.556782 
L 231.2064 187.511738 
L 233.8848 191.196649 
L 234.5544 184.95844 
L 235.224 176.127818 
L 235.8936 174.405939 
L 236.5632 175.404387 
L 237.2328 169.419951 
L 237.9024 167.961752 
L 238.572 169.063755 
L 239.2416 163.181209 
L 240.5808 146.200255 
L 241.2504 144.959297 
L 241.92 132.185481 
L 242.5896 128.632965 
L 243.2592 115.965615 
L 243.9288 112.673744 
L 245.268 116.625168 
L 245.9376 118.708012 
L 246.6072 113.634657 
L 247.2768 113.0729 
L 251.964 127.207833 
L 252.6336 121.997891 
L 253.3032 121.301741 
L 253.9728 123.153545 
L 254.6424 118.008753 
L 255.312 117.376707 
L 257.3208 123.338795 
L 257.9904 118.191026 
L 258.66 117.55605 
L 259.9992 121.505206 
L 260.6688 109.264174 
L 261.3384 106.079992 
L 262.008 108.020513 
L 262.6776 103.118901 
L 263.3472 102.726127 
L 267.3648 115.87541 
L 268.0344 110.847574 
L 268.704 110.330603 
L 269.3736 105.235981 
L 270.0432 104.809186 
L 270.7128 99.80329 
L 271.3824 99.463795 
L 276.7392 117.165745 
L 277.4088 112.117174 
L 278.0784 111.579802 
L 278.748 106.465105 
L 279.4176 106.018559 
L 284.7744 122.923756 
L 285.444 117.782657 
L 286.1136 117.154243 
L 292.14 134.530297 
L 292.8096 129.202686 
L 293.4792 128.390759 
L 296.1576 135.636728 
L 299.5056 144.24236 
L 300.1752 138.758682 
L 300.8448 137.793194 
L 302.8536 142.786767 
L 306.2016 150.836081 
L 309.5496 158.259107 
L 312.8976 165.104576 
L 316.2456 171.417424 
L 319.5936 177.239092 
L 322.9416 182.607798 
L 326.2896 187.558785 
L 329.6376 192.124554 
L 332.316 195.520033 
L 332.9856 189.212349 
L 333.6552 187.436097 
L 334.9944 189.157425 
L 338.3424 193.59881 
L 341.6904 197.694626 
L 345.0384 201.471763 
L 348.3864 204.955014 
L 351.7344 208.167246 
L 355.752 211.693754 
L 359.7696 214.893617 
L 361.1088 215.892963 
L 361.7784 202.135168 
L 362.448 197.458596 
L 363.1176 197.930711 
L 363.7872 191.584288 
L 365.1264 173.697823 
L 365.796 172.014992 
L 366.4656 173.051861 
L 367.1352 167.105229 
L 367.8048 165.684227 
L 368.4744 166.822828 
L 369.144 160.976293 
L 369.8136 159.65378 
L 370.4832 153.76656 
L 371.1528 145.437175 
L 371.8224 144.208479 
L 372.492 138.569457 
L 373.1616 137.60701 
L 375.1704 142.609414 
L 378.5184 150.672528 
L 379.188 152.208248 
L 379.8576 146.596562 
L 380.5272 145.505124 
L 381.1968 146.967992 
L 381.8664 141.440515 
L 382.536 126.186476 
L 383.2056 115.451744 
L 383.8752 107.426281 
L 384.5448 106.8084 
L 385.2144 101.770378 
L 385.884 101.399273 
L 390.5712 116.785695 
L 391.2408 104.620504 
L 391.9104 101.510942 
L 393.2496 105.818245 
L 395.928 114.629022 
L 396.5976 102.498487 
L 397.2672 99.423026 
L 397.9368 101.470521 
L 399.276 79.561299 
L 399.9456 72.112578 
L 400.6152 72.06217 
L 406.6416 95.55584 
L 407.3112 90.854529 
L 407.9808 90.658837 
L 412.668 107.196704 
L 413.3376 102.30833 
L 414.0072 101.928581 
L 421.3728 125.351231 
L 424.7208 134.75714 
L 428.0688 143.431209 
L 431.4168 151.430382 
L 434.7648 158.807168 
L 435.4344 153.089441 
L 436.104 151.893666 
L 438.1128 156.218341 
L 441.4608 163.222594 
L 444.8088 169.681872 
L 448.1568 175.638577 
L 451.5048 181.131813 
L 454.8528 186.197641 
L 458.2008 190.869315 
L 461.5488 195.177504 
L 464.8968 199.150488 
L 468.2448 202.814349 
L 470.9232 205.539096 
L 471.5928 199.070411 
L 472.2624 197.135745 
L 472.932 190.646208 
L 473.6016 188.846915 
L 474.9408 190.523266 
L 476.28 192.299556 
L 476.9496 186.043624 
L 477.6192 184.318292 
L 478.2888 185.157453 
L 478.9584 179.01629 
L 479.628 177.403884 
L 480.9672 179.445046 
L 484.3152 184.642115 
L 487.6632 189.434819 
L 490.3416 192.999066 
L 491.0112 186.731893 
L 491.6808 184.9955 
L 493.02 186.794637 
L 493.6896 180.627165 
L 494.3592 178.988873 
L 495.0288 179.913675 
L 496.368 155.503627 
L 497.0376 146.834552 
L 497.7072 145.5834 
L 498.3768 147.045011 
L 499.0464 141.516296 
L 499.716 140.506495 
L 501.7248 145.371354 
L 503.064 148.587121 
L 503.7336 143.033625 
L 504.4032 134.876713 
L 505.0728 133.817718 
L 505.7424 135.468398 
L 506.412 130.125712 
L 507.0816 129.298952 
L 509.76 136.487937 
L 511.0992 113.462334 
L 511.7688 112.591568 
L 513.7776 118.780653 
L 514.4472 113.706131 
L 515.1168 98.897769 
L 515.7864 88.601553 
L 516.456 88.130287 
L 517.1256 83.392412 
L 517.7952 76.193904 
L 518.4648 76.077912 
L 522.4824 91.695498 
L 523.152 87.056221 
L 524.4912 72.502188 
L 525.1608 72.44552 
L 527.8392 83.201779 
L 528.5088 78.698991 
L 529.1784 78.698632 
L 535.2048 101.291937 
L 535.8744 96.49845 
L 536.544 96.212063 
L 538.5528 103.178157 
L 539.2224 98.354359 
L 539.892 98.038149 
L 540.5616 93.141059 
L 541.2312 92.908624 
L 547.9272 115.70594 
L 551.2752 125.862314 
L 554.6232 135.228457 
L 557.9712 143.865855 
L 561.3192 151.83121 
L 564.6672 159.176809 
L 568.0152 165.950875 
L 571.3632 172.197875 
L 574.7112 177.95882 
L 578.0592 183.271526 
L 581.4072 188.170871 
L 584.7552 192.689015 
L 588.1032 196.85562 
L 591.4512 200.698036 
L 594.7992 204.241488 
L 598.1472 207.509237 
L 602.1648 211.096693 
L 606.1824 214.351859 
L 609.5304 216.832957 
L 610.2 210.182786 
L 610.8696 208.06955 
L 611.5392 208.52704 
L 615.5568 212.020222 
L 619.5744 215.189845 
L 620.244 215.688805 
L 621.5832 190.13822 
L 622.2528 188.035312 
L 623.592 189.737537 
L 624.2616 183.522774 
L 624.9312 181.837951 
L 626.2704 183.737752 
L 628.9488 187.659462 
L 629.6184 181.478094 
L 630.288 179.826127 
L 631.6272 181.790067 
L 633.636 184.847438 
L 634.3056 178.711257 
L 634.9752 177.103752 
L 635.6448 170.936119 
L 636.3144 162.330829 
L 636.984 160.830661 
L 637.6536 154.924528 
L 638.3232 153.699264 
L 640.332 157.938285 
L 642.3408 162.127135 
L 643.0104 142.110602 
L 643.68 114.337753 
L 644.3496 100.788989 
L 645.0192 99.965989 
L 647.6976 108.995473 
L 649.0368 86.84635 
L 649.7064 86.40329 
L 650.376 81.693166 
L 651.0456 81.644693 
L 651.7152 77.011038 
L 652.3848 69.915075 
L 653.0544 69.899981 
L 655.7328 80.81596 
L 656.4024 76.351511 
L 657.072 69.266147 
L 657.7416 69.26148 
L 663.768 93.135118 
L 664.4376 88.472707 
L 665.1072 88.315289 
L 668.4552 100.45672 
L 669.1248 95.676655 
L 669.7944 88.280745 
L 670.464 87.970524 
L 674.4816 102.486551 
L 675.1512 90.551139 
L 675.8208 87.667666 
L 677.16 92.416302 
L 680.508 104.384756 
L 683.856 115.421989 
L 687.204 125.600455 
L 690.552 134.986973 
L 693.9 143.64316 
L 697.248 151.625842 
L 700.596 158.98742 
L 703.944 165.776221 
L 707.292 172.036811 
L 710.64 177.810287 
L 713.988 183.13455 
L 717.336 188.044553 
L 720.684 192.572525 
L 723.3624 195.939897 
L 724.032 189.625466 
L 724.7016 187.842575 
L 726.0408 189.550945 
L 729.3888 193.961711 
L 732.7368 198.029292 
L 736.0848 201.780389 
L 736.7544 202.494832 
L 737.424 196.075066 
L 738.0936 194.188534 
L 739.4328 195.69459 
L 740.1024 196.506828 
L 740.772 190.183287 
L 741.4416 188.391433 
L 742.7808 190.082304 
L 746.1288 194.451727 
L 749.4768 198.481182 
L 752.8248 202.197119 
L 756.1728 205.623933 
L 756.8424 206.276612 
L 757.512 192.673347 
L 758.1816 188.148822 
L 758.8512 188.77054 
L 759.5208 189.694045 
L 760.1904 183.479981 
L 760.86 181.795845 
L 761.5296 175.552813 
L 762.1992 173.996063 
L 763.5384 176.14587 
L 766.2168 180.543933 
L 766.8864 174.476907 
L 767.556 172.937446 
L 768.2256 173.959492 
L 768.8952 167.998274 
L 769.5648 166.562922 
L 770.2344 160.564675 
L 770.904 159.248776 
L 772.2432 161.868737 
L 774.9216 167.162621 
L 775.5912 161.310626 
L 777.6 136.054722 
L 777.6 136.054722 
" clip-path="url(#pa3a4e6742f)" style="fill: none; stroke: #ff4500; stroke-width: 1.5; stroke-linecap: square"/>
   </g>
   <g id="patch_3">
    <path d="M 108 256.32 
L 108 34.56 
" style="fill: none; stroke: #000000; stroke-width: 0.8; stroke-linejoin: miter; stroke-linecap: square"/>
   </g>
   <g id="patch_4">
    <path d="M 777.6 256.32 
L 777.6 34.56 
" style="fill: none; stroke: #000000; stroke-width: 0.8; stroke-linejoin: miter; stroke-linecap: square"/>
   </g>
   <g id="patch_5">
    <path d="M 108 256.32 
L 777.6 256.32 
" style="fill: none; stroke: #000000; stroke-width: 0.8; stroke-linejoin: miter; stroke-linecap: square"/>
   </g>
   <g id="patch_6">
    <path d="M 108 34.56 
L 777.6 34.56 
" style="fill: none; stroke: #000000; stroke-width: 0.8; stroke-linejoin: miter; stroke-linecap: square"/>
   </g>
  </g>
 </g>
 <defs>
  <clipPath id="pa3a4e6742f">
   <rect x="108" y="34.56" width="669.6" height="221.76"/>
  </clipPath>
 </defs>
</svg>
