<?xml version="1.0" encoding="utf-8" standalone="no"?>
<!DOCTYPE svg PUBLIC "-//W3C//DTD SVG 1.1//EN"
  "http://www.w3.org/Graphics/SVG/1.1/DTD/svg11.dtd">
<svg xmlns:xlink="http://www.w3.org/1999/xlink" width="864pt" height="288pt" viewBox="0 0 864 288" xmlns="http://www.w3.org/2000/svg" version="1.1">
 <metadata>
  <rdf:RDF xmlns:dc="http://purl.org/dc/elements/1.1/" xmlns:cc="http://creativecommons.org/ns#" xmlns:rdf="http://www.w3.org/1999/02/22-rdf-syntax-ns#">
   <cc:Work>
    <dc:type rdf:resource="http://purl.org/dc/dcmitype/StillImage"/>
    <dc:date>2024-04-23T19:18:04.690446</dc:date>
    <dc:format>image/svg+xml</dc:format>
    <dc:creator>
     <cc:Agent>
      <dc:title>Matplotlib v3.8.2, https://matplotlib.org/</dc:title>
     </cc:Agent>
    </dc:creator>
   </cc:Work>
  </rdf:RDF>
 </metadata>
 <defs>
  <style type="text/css">*{stroke-linejoin: round; stroke-linecap: butt}</style>
 </defs>
 <g id="figure_1">
  <g id="patch_1">
   <path d="M 0 288 
L 864 288 
L 864 0 
L 0 0 
z
" style="fill: #ffffff"/>
  </g>
  <g id="axes_1">
   <g id="patch_2">
    <path d="M 108 256.32 
L 777.6 256.32 
L 777.6 34.56 
L 108 34.56 
z
" style="fill: #ffffff"/>
   </g>
   <g id="matplotlib.axis_1">
    <g id="xtick_1">
     <g id="line2d_1">
      <path d="M 108 256.32 
L 108 34.56 
" clip-path="url(#p052c2cc237)" style="fill: none; stroke: #b0b0b0; stroke-width: 0.8; stroke-linecap: square"/>
     </g>
     <g id="line2d_2">
      <defs>
       <path id="m69ede9ca08" d="M 0 0 
L 0 3.5 
" style="stroke: #000000; stroke-width: 0.8"/>
      </defs>
      <g>
       <use xlink:href="#m69ede9ca08" x="108" y="256.32" style="stroke: #000000; stroke-width: 0.8"/>
      </g>
     </g>
     <g id="text_1">
      <!-- 100 -->
      <g transform="translate(94.63875 273.957812) scale(0.14 -0.14)">
       <defs>
        <path id="DejaVuSans-31" d="M 794 531 
L 1825 531 
L 1825 4091 
L 703 3866 
L 703 4441 
L 1819 4666 
L 2450 4666 
L 2450 531 
L 3481 531 
L 3481 0 
L 794 0 
L 794 531 
z
" transform="scale(0.015625)"/>
        <path id="DejaVuSans-30" d="M 2034 4250 
Q 1547 4250 1301 3770 
Q 1056 3291 1056 2328 
Q 1056 1369 1301 889 
Q 1547 409 2034 409 
Q 2525 409 2770 889 
Q 3016 1369 3016 2328 
Q 3016 3291 2770 3770 
Q 2525 4250 2034 4250 
z
M 2034 4750 
Q 2819 4750 3233 4129 
Q 3647 3509 3647 2328 
Q 3647 1150 3233 529 
Q 2819 -91 2034 -91 
Q 1250 -91 836 529 
Q 422 1150 422 2328 
Q 422 3509 836 4129 
Q 1250 4750 2034 4750 
z
" transform="scale(0.015625)"/>
       </defs>
       <use xlink:href="#DejaVuSans-31"/>
       <use xlink:href="#DejaVuSans-30" x="63.623047"/>
       <use xlink:href="#DejaVuSans-30" x="127.246094"/>
      </g>
     </g>
    </g>
    <g id="xtick_2">
     <g id="line2d_3">
      <path d="M 241.92 256.32 
L 241.92 34.56 
" clip-path="url(#p052c2cc237)" style="fill: none; stroke: #b0b0b0; stroke-width: 0.8; stroke-linecap: square"/>
     </g>
     <g id="line2d_4">
      <g>
       <use xlink:href="#m69ede9ca08" x="241.92" y="256.32" style="stroke: #000000; stroke-width: 0.8"/>
      </g>
     </g>
     <g id="text_2">
      <!-- 120 -->
      <g transform="translate(228.55875 273.957812) scale(0.14 -0.14)">
       <defs>
        <path id="DejaVuSans-32" d="M 1228 531 
L 3431 531 
L 3431 0 
L 469 0 
L 469 531 
Q 828 903 1448 1529 
Q 2069 2156 2228 2338 
Q 2531 2678 2651 2914 
Q 2772 3150 2772 3378 
Q 2772 3750 2511 3984 
Q 2250 4219 1831 4219 
Q 1534 4219 1204 4116 
Q 875 4013 500 3803 
L 500 4441 
Q 881 4594 1212 4672 
Q 1544 4750 1819 4750 
Q 2544 4750 2975 4387 
Q 3406 4025 3406 3419 
Q 3406 3131 3298 2873 
Q 3191 2616 2906 2266 
Q 2828 2175 2409 1742 
Q 1991 1309 1228 531 
z
" transform="scale(0.015625)"/>
       </defs>
       <use xlink:href="#DejaVuSans-31"/>
       <use xlink:href="#DejaVuSans-32" x="63.623047"/>
       <use xlink:href="#DejaVuSans-30" x="127.246094"/>
      </g>
     </g>
    </g>
    <g id="xtick_3">
     <g id="line2d_5">
      <path d="M 375.84 256.32 
L 375.84 34.56 
" clip-path="url(#p052c2cc237)" style="fill: none; stroke: #b0b0b0; stroke-width: 0.8; stroke-linecap: square"/>
     </g>
     <g id="line2d_6">
      <g>
       <use xlink:href="#m69ede9ca08" x="375.84" y="256.32" style="stroke: #000000; stroke-width: 0.8"/>
      </g>
     </g>
     <g id="text_3">
      <!-- 140 -->
      <g transform="translate(362.47875 273.957812) scale(0.14 -0.14)">
       <defs>
        <path id="DejaVuSans-34" d="M 2419 4116 
L 825 1625 
L 2419 1625 
L 2419 4116 
z
M 2253 4666 
L 3047 4666 
L 3047 1625 
L 3713 1625 
L 3713 1100 
L 3047 1100 
L 3047 0 
L 2419 0 
L 2419 1100 
L 313 1100 
L 313 1709 
L 2253 4666 
z
" transform="scale(0.015625)"/>
       </defs>
       <use xlink:href="#DejaVuSans-31"/>
       <use xlink:href="#DejaVuSans-34" x="63.623047"/>
       <use xlink:href="#DejaVuSans-30" x="127.246094"/>
      </g>
     </g>
    </g>
    <g id="xtick_4">
     <g id="line2d_7">
      <path d="M 509.76 256.32 
L 509.76 34.56 
" clip-path="url(#p052c2cc237)" style="fill: none; stroke: #b0b0b0; stroke-width: 0.8; stroke-linecap: square"/>
     </g>
     <g id="line2d_8">
      <g>
       <use xlink:href="#m69ede9ca08" x="509.76" y="256.32" style="stroke: #000000; stroke-width: 0.8"/>
      </g>
     </g>
     <g id="text_4">
      <!-- 160 -->
      <g transform="translate(496.39875 273.957812) scale(0.14 -0.14)">
       <defs>
        <path id="DejaVuSans-36" d="M 2113 2584 
Q 1688 2584 1439 2293 
Q 1191 2003 1191 1497 
Q 1191 994 1439 701 
Q 1688 409 2113 409 
Q 2538 409 2786 701 
Q 3034 994 3034 1497 
Q 3034 2003 2786 2293 
Q 2538 2584 2113 2584 
z
M 3366 4563 
L 3366 3988 
Q 3128 4100 2886 4159 
Q 2644 4219 2406 4219 
Q 1781 4219 1451 3797 
Q 1122 3375 1075 2522 
Q 1259 2794 1537 2939 
Q 1816 3084 2150 3084 
Q 2853 3084 3261 2657 
Q 3669 2231 3669 1497 
Q 3669 778 3244 343 
Q 2819 -91 2113 -91 
Q 1303 -91 875 529 
Q 447 1150 447 2328 
Q 447 3434 972 4092 
Q 1497 4750 2381 4750 
Q 2619 4750 2861 4703 
Q 3103 4656 3366 4563 
z
" transform="scale(0.015625)"/>
       </defs>
       <use xlink:href="#DejaVuSans-31"/>
       <use xlink:href="#DejaVuSans-36" x="63.623047"/>
       <use xlink:href="#DejaVuSans-30" x="127.246094"/>
      </g>
     </g>
    </g>
    <g id="xtick_5">
     <g id="line2d_9">
      <path d="M 643.68 256.32 
L 643.68 34.56 
" clip-path="url(#p052c2cc237)" style="fill: none; stroke: #b0b0b0; stroke-width: 0.8; stroke-linecap: square"/>
     </g>
     <g id="line2d_10">
      <g>
       <use xlink:href="#m69ede9ca08" x="643.68" y="256.32" style="stroke: #000000; stroke-width: 0.8"/>
      </g>
     </g>
     <g id="text_5">
      <!-- 180 -->
      <g transform="translate(630.31875 273.957812) scale(0.14 -0.14)">
       <defs>
        <path id="DejaVuSans-38" d="M 2034 2216 
Q 1584 2216 1326 1975 
Q 1069 1734 1069 1313 
Q 1069 891 1326 650 
Q 1584 409 2034 409 
Q 2484 409 2743 651 
Q 3003 894 3003 1313 
Q 3003 1734 2745 1975 
Q 2488 2216 2034 2216 
z
M 1403 2484 
Q 997 2584 770 2862 
Q 544 3141 544 3541 
Q 544 4100 942 4425 
Q 1341 4750 2034 4750 
Q 2731 4750 3128 4425 
Q 3525 4100 3525 3541 
Q 3525 3141 3298 2862 
Q 3072 2584 2669 2484 
Q 3125 2378 3379 2068 
Q 3634 1759 3634 1313 
Q 3634 634 3220 271 
Q 2806 -91 2034 -91 
Q 1263 -91 848 271 
Q 434 634 434 1313 
Q 434 1759 690 2068 
Q 947 2378 1403 2484 
z
M 1172 3481 
Q 1172 3119 1398 2916 
Q 1625 2713 2034 2713 
Q 2441 2713 2670 2916 
Q 2900 3119 2900 3481 
Q 2900 3844 2670 4047 
Q 2441 4250 2034 4250 
Q 1625 4250 1398 4047 
Q 1172 3844 1172 3481 
z
" transform="scale(0.015625)"/>
       </defs>
       <use xlink:href="#DejaVuSans-31"/>
       <use xlink:href="#DejaVuSans-38" x="63.623047"/>
       <use xlink:href="#DejaVuSans-30" x="127.246094"/>
      </g>
     </g>
    </g>
    <g id="xtick_6">
     <g id="line2d_11">
      <path d="M 777.6 256.32 
L 777.6 34.56 
" clip-path="url(#p052c2cc237)" style="fill: none; stroke: #b0b0b0; stroke-width: 0.8; stroke-linecap: square"/>
     </g>
     <g id="line2d_12">
      <g>
       <use xlink:href="#m69ede9ca08" x="777.6" y="256.32" style="stroke: #000000; stroke-width: 0.8"/>
      </g>
     </g>
     <g id="text_6">
      <!-- 200 -->
      <g transform="translate(764.23875 273.957812) scale(0.14 -0.14)">
       <use xlink:href="#DejaVuSans-32"/>
       <use xlink:href="#DejaVuSans-30" x="63.623047"/>
       <use xlink:href="#DejaVuSans-30" x="127.246094"/>
      </g>
     </g>
    </g>
    <g id="text_7">
     <!-- Time (ms) -->
     <g transform="translate(407.521094 291.507187) scale(0.14 -0.14)">
      <defs>
       <path id="DejaVuSans-54" d="M -19 4666 
L 3928 4666 
L 3928 4134 
L 2272 4134 
L 2272 0 
L 1638 0 
L 1638 4134 
L -19 4134 
L -19 4666 
z
" transform="scale(0.015625)"/>
       <path id="DejaVuSans-69" d="M 603 3500 
L 1178 3500 
L 1178 0 
L 603 0 
L 603 3500 
z
M 603 4863 
L 1178 4863 
L 1178 4134 
L 603 4134 
L 603 4863 
z
" transform="scale(0.015625)"/>
       <path id="DejaVuSans-6d" d="M 3328 2828 
Q 3544 3216 3844 3400 
Q 4144 3584 4550 3584 
Q 5097 3584 5394 3201 
Q 5691 2819 5691 2113 
L 5691 0 
L 5113 0 
L 5113 2094 
Q 5113 2597 4934 2840 
Q 4756 3084 4391 3084 
Q 3944 3084 3684 2787 
Q 3425 2491 3425 1978 
L 3425 0 
L 2847 0 
L 2847 2094 
Q 2847 2600 2669 2842 
Q 2491 3084 2119 3084 
Q 1678 3084 1418 2786 
Q 1159 2488 1159 1978 
L 1159 0 
L 581 0 
L 581 3500 
L 1159 3500 
L 1159 2956 
Q 1356 3278 1631 3431 
Q 1906 3584 2284 3584 
Q 2666 3584 2933 3390 
Q 3200 3197 3328 2828 
z
" transform="scale(0.015625)"/>
       <path id="DejaVuSans-65" d="M 3597 1894 
L 3597 1613 
L 953 1613 
Q 991 1019 1311 708 
Q 1631 397 2203 397 
Q 2534 397 2845 478 
Q 3156 559 3463 722 
L 3463 178 
Q 3153 47 2828 -22 
Q 2503 -91 2169 -91 
Q 1331 -91 842 396 
Q 353 884 353 1716 
Q 353 2575 817 3079 
Q 1281 3584 2069 3584 
Q 2775 3584 3186 3129 
Q 3597 2675 3597 1894 
z
M 3022 2063 
Q 3016 2534 2758 2815 
Q 2500 3097 2075 3097 
Q 1594 3097 1305 2825 
Q 1016 2553 972 2059 
L 3022 2063 
z
" transform="scale(0.015625)"/>
       <path id="DejaVuSans-20" transform="scale(0.015625)"/>
       <path id="DejaVuSans-28" d="M 1984 4856 
Q 1566 4138 1362 3434 
Q 1159 2731 1159 2009 
Q 1159 1288 1364 580 
Q 1569 -128 1984 -844 
L 1484 -844 
Q 1016 -109 783 600 
Q 550 1309 550 2009 
Q 550 2706 781 3412 
Q 1013 4119 1484 4856 
L 1984 4856 
z
" transform="scale(0.015625)"/>
       <path id="DejaVuSans-73" d="M 2834 3397 
L 2834 2853 
Q 2591 2978 2328 3040 
Q 2066 3103 1784 3103 
Q 1356 3103 1142 2972 
Q 928 2841 928 2578 
Q 928 2378 1081 2264 
Q 1234 2150 1697 2047 
L 1894 2003 
Q 2506 1872 2764 1633 
Q 3022 1394 3022 966 
Q 3022 478 2636 193 
Q 2250 -91 1575 -91 
Q 1294 -91 989 -36 
Q 684 19 347 128 
L 347 722 
Q 666 556 975 473 
Q 1284 391 1588 391 
Q 1994 391 2212 530 
Q 2431 669 2431 922 
Q 2431 1156 2273 1281 
Q 2116 1406 1581 1522 
L 1381 1569 
Q 847 1681 609 1914 
Q 372 2147 372 2553 
Q 372 3047 722 3315 
Q 1072 3584 1716 3584 
Q 2034 3584 2315 3537 
Q 2597 3491 2834 3397 
z
" transform="scale(0.015625)"/>
       <path id="DejaVuSans-29" d="M 513 4856 
L 1013 4856 
Q 1481 4119 1714 3412 
Q 1947 2706 1947 2009 
Q 1947 1309 1714 600 
Q 1481 -109 1013 -844 
L 513 -844 
Q 928 -128 1133 580 
Q 1338 1288 1338 2009 
Q 1338 2731 1133 3434 
Q 928 4138 513 4856 
z
" transform="scale(0.015625)"/>
      </defs>
      <use xlink:href="#DejaVuSans-54"/>
      <use xlink:href="#DejaVuSans-69" x="57.958984"/>
      <use xlink:href="#DejaVuSans-6d" x="85.742188"/>
      <use xlink:href="#DejaVuSans-65" x="183.154297"/>
      <use xlink:href="#DejaVuSans-20" x="244.677734"/>
      <use xlink:href="#DejaVuSans-28" x="276.464844"/>
      <use xlink:href="#DejaVuSans-6d" x="315.478516"/>
      <use xlink:href="#DejaVuSans-73" x="412.890625"/>
      <use xlink:href="#DejaVuSans-29" x="464.990234"/>
     </g>
    </g>
   </g>
   <g id="matplotlib.axis_2">
    <g id="ytick_1">
     <g id="line2d_13">
      <path d="M 108 246.24 
L 777.6 246.24 
" clip-path="url(#p052c2cc237)" style="fill: none; stroke: #b0b0b0; stroke-width: 0.8; stroke-linecap: square"/>
     </g>
     <g id="line2d_14">
      <defs>
       <path id="m3c7e21f8e5" d="M 0 0 
L -3.5 0 
" style="stroke: #000000; stroke-width: 0.8"/>
      </defs>
      <g>
       <use xlink:href="#m3c7e21f8e5" x="108" y="246.24" style="stroke: #000000; stroke-width: 0.8"/>
      </g>
     </g>
     <g id="text_8">
      <!-- 0.00 -->
      <g transform="translate(69.828125 251.558906) scale(0.14 -0.14)">
       <defs>
        <path id="DejaVuSans-2e" d="M 684 794 
L 1344 794 
L 1344 0 
L 684 0 
L 684 794 
z
" transform="scale(0.015625)"/>
       </defs>
       <use xlink:href="#DejaVuSans-30"/>
       <use xlink:href="#DejaVuSans-2e" x="63.623047"/>
       <use xlink:href="#DejaVuSans-30" x="95.410156"/>
       <use xlink:href="#DejaVuSans-30" x="159.033203"/>
      </g>
     </g>
    </g>
    <g id="ytick_2">
     <g id="line2d_15">
      <path d="M 108 207.228521 
L 777.6 207.228521 
" clip-path="url(#p052c2cc237)" style="fill: none; stroke: #b0b0b0; stroke-width: 0.8; stroke-linecap: square"/>
     </g>
     <g id="line2d_16">
      <g>
       <use xlink:href="#m3c7e21f8e5" x="108" y="207.228521" style="stroke: #000000; stroke-width: 0.8"/>
      </g>
     </g>
     <g id="text_9">
      <!-- 0.05 -->
      <g transform="translate(69.828125 212.547428) scale(0.14 -0.14)">
       <defs>
        <path id="DejaVuSans-35" d="M 691 4666 
L 3169 4666 
L 3169 4134 
L 1269 4134 
L 1269 2991 
Q 1406 3038 1543 3061 
Q 1681 3084 1819 3084 
Q 2600 3084 3056 2656 
Q 3513 2228 3513 1497 
Q 3513 744 3044 326 
Q 2575 -91 1722 -91 
Q 1428 -91 1123 -41 
Q 819 9 494 109 
L 494 744 
Q 775 591 1075 516 
Q 1375 441 1709 441 
Q 2250 441 2565 725 
Q 2881 1009 2881 1497 
Q 2881 1984 2565 2268 
Q 2250 2553 1709 2553 
Q 1456 2553 1204 2497 
Q 953 2441 691 2322 
L 691 4666 
z
" transform="scale(0.015625)"/>
       </defs>
       <use xlink:href="#DejaVuSans-30"/>
       <use xlink:href="#DejaVuSans-2e" x="63.623047"/>
       <use xlink:href="#DejaVuSans-30" x="95.410156"/>
       <use xlink:href="#DejaVuSans-35" x="159.033203"/>
      </g>
     </g>
    </g>
    <g id="ytick_3">
     <g id="line2d_17">
      <path d="M 108 168.217043 
L 777.6 168.217043 
" clip-path="url(#p052c2cc237)" style="fill: none; stroke: #b0b0b0; stroke-width: 0.8; stroke-linecap: square"/>
     </g>
     <g id="line2d_18">
      <g>
       <use xlink:href="#m3c7e21f8e5" x="108" y="168.217043" style="stroke: #000000; stroke-width: 0.8"/>
      </g>
     </g>
     <g id="text_10">
      <!-- 0.10 -->
      <g transform="translate(69.828125 173.535949) scale(0.14 -0.14)">
       <use xlink:href="#DejaVuSans-30"/>
       <use xlink:href="#DejaVuSans-2e" x="63.623047"/>
       <use xlink:href="#DejaVuSans-31" x="95.410156"/>
       <use xlink:href="#DejaVuSans-30" x="159.033203"/>
      </g>
     </g>
    </g>
    <g id="ytick_4">
     <g id="line2d_19">
      <path d="M 108 129.205564 
L 777.6 129.205564 
" clip-path="url(#p052c2cc237)" style="fill: none; stroke: #b0b0b0; stroke-width: 0.8; stroke-linecap: square"/>
     </g>
     <g id="line2d_20">
      <g>
       <use xlink:href="#m3c7e21f8e5" x="108" y="129.205564" style="stroke: #000000; stroke-width: 0.8"/>
      </g>
     </g>
     <g id="text_11">
      <!-- 0.15 -->
      <g transform="translate(69.828125 134.524471) scale(0.14 -0.14)">
       <use xlink:href="#DejaVuSans-30"/>
       <use xlink:href="#DejaVuSans-2e" x="63.623047"/>
       <use xlink:href="#DejaVuSans-31" x="95.410156"/>
       <use xlink:href="#DejaVuSans-35" x="159.033203"/>
      </g>
     </g>
    </g>
    <g id="ytick_5">
     <g id="line2d_21">
      <path d="M 108 90.194086 
L 777.6 90.194086 
" clip-path="url(#p052c2cc237)" style="fill: none; stroke: #b0b0b0; stroke-width: 0.8; stroke-linecap: square"/>
     </g>
     <g id="line2d_22">
      <g>
       <use xlink:href="#m3c7e21f8e5" x="108" y="90.194086" style="stroke: #000000; stroke-width: 0.8"/>
      </g>
     </g>
     <g id="text_12">
      <!-- 0.20 -->
      <g transform="translate(69.828125 95.512992) scale(0.14 -0.14)">
       <use xlink:href="#DejaVuSans-30"/>
       <use xlink:href="#DejaVuSans-2e" x="63.623047"/>
       <use xlink:href="#DejaVuSans-32" x="95.410156"/>
       <use xlink:href="#DejaVuSans-30" x="159.033203"/>
      </g>
     </g>
    </g>
    <g id="ytick_6">
     <g id="line2d_23">
      <path d="M 108 51.182607 
L 777.6 51.182607 
" clip-path="url(#p052c2cc237)" style="fill: none; stroke: #b0b0b0; stroke-width: 0.8; stroke-linecap: square"/>
     </g>
     <g id="line2d_24">
      <g>
       <use xlink:href="#m3c7e21f8e5" x="108" y="51.182607" style="stroke: #000000; stroke-width: 0.8"/>
      </g>
     </g>
     <g id="text_13">
      <!-- 0.25 -->
      <g transform="translate(69.828125 56.501513) scale(0.14 -0.14)">
       <use xlink:href="#DejaVuSans-30"/>
       <use xlink:href="#DejaVuSans-2e" x="63.623047"/>
       <use xlink:href="#DejaVuSans-32" x="95.410156"/>
       <use xlink:href="#DejaVuSans-35" x="159.033203"/>
      </g>
     </g>
    </g>
    <g id="text_14">
     <!-- $g_{Inhib}$ (µS) -->
     <g transform="translate(62.888125 178.83) rotate(-90) scale(0.14 -0.14)">
      <defs>
       <path id="DejaVuSans-Oblique-67" d="M 3816 3500 
L 3219 434 
Q 3047 -456 2561 -893 
Q 2075 -1331 1253 -1331 
Q 950 -1331 690 -1286 
Q 431 -1241 206 -1147 
L 313 -588 
Q 525 -725 762 -790 
Q 1000 -856 1269 -856 
Q 1816 -856 2167 -557 
Q 2519 -259 2631 300 
L 2681 563 
Q 2441 288 2122 144 
Q 1803 0 1434 0 
Q 903 0 598 351 
Q 294 703 294 1319 
Q 294 1803 478 2267 
Q 663 2731 997 3091 
Q 1219 3328 1514 3456 
Q 1809 3584 2131 3584 
Q 2484 3584 2746 3420 
Q 3009 3256 3138 2956 
L 3238 3500 
L 3816 3500 
z
M 2950 2216 
Q 2950 2641 2750 2872 
Q 2550 3103 2181 3103 
Q 1953 3103 1747 3012 
Q 1541 2922 1394 2759 
Q 1156 2491 1023 2127 
Q 891 1763 891 1375 
Q 891 944 1092 712 
Q 1294 481 1672 481 
Q 2219 481 2584 976 
Q 2950 1472 2950 2216 
z
" transform="scale(0.015625)"/>
       <path id="DejaVuSans-Oblique-49" d="M 1081 4666 
L 1716 4666 
L 806 0 
L 172 0 
L 1081 4666 
z
" transform="scale(0.015625)"/>
       <path id="DejaVuSans-Oblique-6e" d="M 3566 2113 
L 3156 0 
L 2578 0 
L 2988 2091 
Q 3016 2238 3031 2350 
Q 3047 2463 3047 2528 
Q 3047 2791 2881 2937 
Q 2716 3084 2419 3084 
Q 1956 3084 1622 2776 
Q 1288 2469 1184 1941 
L 800 0 
L 225 0 
L 903 3500 
L 1478 3500 
L 1363 2950 
Q 1603 3253 1940 3418 
Q 2278 3584 2650 3584 
Q 3113 3584 3367 3334 
Q 3622 3084 3622 2631 
Q 3622 2519 3608 2391 
Q 3594 2263 3566 2113 
z
" transform="scale(0.015625)"/>
       <path id="DejaVuSans-Oblique-68" d="M 3566 2113 
L 3156 0 
L 2578 0 
L 2988 2091 
Q 3016 2238 3031 2350 
Q 3047 2463 3047 2528 
Q 3047 2791 2881 2937 
Q 2716 3084 2419 3084 
Q 1956 3084 1617 2771 
Q 1278 2459 1178 1941 
L 800 0 
L 225 0 
L 1172 4863 
L 1747 4863 
L 1375 2950 
Q 1594 3244 1934 3414 
Q 2275 3584 2650 3584 
Q 3113 3584 3367 3334 
Q 3622 3084 3622 2631 
Q 3622 2519 3608 2391 
Q 3594 2263 3566 2113 
z
" transform="scale(0.015625)"/>
       <path id="DejaVuSans-Oblique-69" d="M 1172 4863 
L 1747 4863 
L 1606 4134 
L 1031 4134 
L 1172 4863 
z
M 909 3500 
L 1484 3500 
L 800 0 
L 225 0 
L 909 3500 
z
" transform="scale(0.015625)"/>
       <path id="DejaVuSans-Oblique-62" d="M 3169 2138 
Q 3169 2591 2961 2847 
Q 2753 3103 2388 3103 
Q 2122 3103 1889 2973 
Q 1656 2844 1484 2597 
Q 1303 2338 1198 1995 
Q 1094 1653 1094 1313 
Q 1094 881 1298 636 
Q 1503 391 1863 391 
Q 2134 391 2365 517 
Q 2597 644 2772 891 
Q 2950 1147 3059 1487 
Q 3169 1828 3169 2138 
z
M 1381 2969 
Q 1594 3256 1914 3420 
Q 2234 3584 2584 3584 
Q 3122 3584 3439 3221 
Q 3756 2859 3756 2241 
Q 3756 1734 3570 1259 
Q 3384 784 3041 416 
Q 2816 172 2522 40 
Q 2228 -91 1906 -91 
Q 1566 -91 1316 65 
Q 1066 222 909 531 
L 806 0 
L 231 0 
L 1178 4863 
L 1753 4863 
L 1381 2969 
z
" transform="scale(0.015625)"/>
       <path id="DejaVuSans-b5" d="M 544 -1331 
L 544 3500 
L 1119 3500 
L 1119 1325 
Q 1119 872 1334 640 
Q 1550 409 1972 409 
Q 2434 409 2667 671 
Q 2900 934 2900 1459 
L 2900 3500 
L 3475 3500 
L 3475 806 
Q 3475 619 3529 530 
Q 3584 441 3700 441 
Q 3728 441 3778 458 
Q 3828 475 3916 513 
L 3916 50 
Q 3788 -22 3673 -56 
Q 3559 -91 3450 -91 
Q 3234 -91 3106 31 
Q 2978 153 2931 403 
Q 2775 156 2548 32 
Q 2322 -91 2016 -91 
Q 1697 -91 1473 31 
Q 1250 153 1119 397 
L 1119 -1331 
L 544 -1331 
z
" transform="scale(0.015625)"/>
       <path id="DejaVuSans-53" d="M 3425 4513 
L 3425 3897 
Q 3066 4069 2747 4153 
Q 2428 4238 2131 4238 
Q 1616 4238 1336 4038 
Q 1056 3838 1056 3469 
Q 1056 3159 1242 3001 
Q 1428 2844 1947 2747 
L 2328 2669 
Q 3034 2534 3370 2195 
Q 3706 1856 3706 1288 
Q 3706 609 3251 259 
Q 2797 -91 1919 -91 
Q 1588 -91 1214 -16 
Q 841 59 441 206 
L 441 856 
Q 825 641 1194 531 
Q 1563 422 1919 422 
Q 2459 422 2753 634 
Q 3047 847 3047 1241 
Q 3047 1584 2836 1778 
Q 2625 1972 2144 2069 
L 1759 2144 
Q 1053 2284 737 2584 
Q 422 2884 422 3419 
Q 422 4038 858 4394 
Q 1294 4750 2059 4750 
Q 2388 4750 2728 4690 
Q 3069 4631 3425 4513 
z
" transform="scale(0.015625)"/>
      </defs>
      <use xlink:href="#DejaVuSans-Oblique-67" transform="translate(0 0.125)"/>
      <use xlink:href="#DejaVuSans-Oblique-49" transform="translate(63.476562 -16.28125) scale(0.7)"/>
      <use xlink:href="#DejaVuSans-Oblique-6e" transform="translate(84.121094 -16.28125) scale(0.7)"/>
      <use xlink:href="#DejaVuSans-Oblique-68" transform="translate(128.486328 -16.28125) scale(0.7)"/>
      <use xlink:href="#DejaVuSans-Oblique-69" transform="translate(172.851562 -16.28125) scale(0.7)"/>
      <use xlink:href="#DejaVuSans-Oblique-62" transform="translate(192.299805 -16.28125) scale(0.7)"/>
      <use xlink:href="#DejaVuSans-20" transform="translate(239.467773 0.125)"/>
      <use xlink:href="#DejaVuSans-28" transform="translate(271.254883 0.125)"/>
      <use xlink:href="#DejaVuSans-b5" transform="translate(310.268555 0.125)"/>
      <use xlink:href="#DejaVuSans-53" transform="translate(373.891602 0.125)"/>
      <use xlink:href="#DejaVuSans-29" transform="translate(437.368164 0.125)"/>
     </g>
    </g>
   </g>
   <g id="line2d_25">
    <path d="M 108 134.943516 
L 108.6696 136.731993 
L 109.3392 131.143596 
L 110.0088 130.215268 
L 112.0176 135.563545 
L 112.6872 137.342059 
L 113.3568 131.743859 
L 114.0264 130.805884 
L 115.3656 134.327772 
L 116.0352 121.429876 
L 116.7048 117.879773 
L 118.044 121.655516 
L 118.7136 123.657525 
L 119.3832 110.931094 
L 120.0528 107.549702 
L 120.7224 102.108605 
L 121.392 101.646854 
L 122.7312 106.098353 
L 123.4008 101.002223 
L 124.0704 85.861983 
L 124.74 82.722616 
L 125.4096 85.028611 
L 126.0792 80.271062 
L 126.7488 80.160228 
L 127.4184 82.668223 
L 128.088 77.948603 
L 128.7576 77.875091 
L 135.4536 102.91654 
L 137.4624 109.715507 
L 138.132 104.561252 
L 138.8016 104.060088 
L 141.48 112.827988 
L 142.1496 107.623716 
L 142.8192 107.07334 
L 150.1848 129.652041 
L 150.8544 131.52555 
L 151.524 126.020818 
L 152.1936 125.17481 
L 152.8632 126.959443 
L 153.5328 121.528086 
L 154.2024 120.754274 
L 156.8808 128.474696 
L 160.2288 137.637579 
L 163.5768 146.087533 
L 166.9248 153.880026 
L 170.2728 161.066215 
L 173.6208 167.693273 
L 176.9688 173.804704 
L 180.3168 179.440627 
L 183.6648 184.638039 
L 187.0128 189.431061 
L 190.3608 193.851154 
L 193.7088 197.927337 
L 197.0568 201.686367 
L 200.4048 205.152921 
L 204.4224 208.958631 
L 208.44 212.411836 
L 209.1096 205.607304 
L 209.7792 203.482381 
L 210.4488 204.008652 
L 211.1184 197.339154 
L 211.788 195.347097 
L 213.1272 196.811363 
L 216.4752 200.657223 
L 219.1536 203.517319 
L 219.8232 196.855716 
L 220.4928 187.523294 
L 221.1624 185.52815 
L 221.832 186.342936 
L 222.5016 179.957317 
L 223.1712 178.244577 
L 223.8408 179.176406 
L 224.5104 172.90595 
L 225.18 163.958388 
L 225.8496 162.34192 
L 226.5192 163.529297 
L 227.1888 150.162147 
L 227.8584 146.150332 
L 228.528 147.437077 
L 231.876 155.124568 
L 235.224 162.213923 
L 235.8936 148.867911 
L 236.5632 130.180625 
L 237.2328 126.168258 
L 237.9024 120.427971 
L 238.572 112.323702 
L 239.2416 111.536978 
L 240.5808 115.673172 
L 241.2504 110.42318 
L 241.92 109.827818 
L 243.9288 116.143233 
L 244.5984 110.885687 
L 245.9376 94.950776 
L 246.6072 94.443225 
L 247.2768 89.373565 
L 247.9464 81.768325 
L 248.616 81.472609 
L 249.2856 83.959514 
L 249.9552 79.219144 
L 250.6248 79.125215 
L 251.2944 74.301708 
L 251.964 74.286799 
L 258.66 99.864909 
L 259.3296 94.868947 
L 259.9992 94.523534 
L 261.3384 99.20213 
L 262.008 94.216818 
L 262.6776 93.881884 
L 266.6952 107.84582 
L 267.3648 102.721609 
L 268.0344 102.250007 
L 268.704 97.054896 
L 269.3736 89.326221 
L 270.0432 88.909054 
L 273.3912 100.999663 
L 274.0608 95.985466 
L 274.7304 95.622111 
L 281.4264 118.009337 
L 284.1048 126.055184 
L 284.7744 120.638358 
L 285.444 119.878843 
L 288.1224 127.654194 
L 291.4704 136.880918 
L 294.8184 145.389744 
L 298.1664 153.23653 
L 301.5144 160.472787 
L 304.8624 167.146017 
L 308.2104 173.300028 
L 311.5584 178.975218 
L 314.9064 184.208842 
L 318.2544 189.035258 
L 321.6024 193.486148 
L 324.9504 197.59073 
L 328.2984 201.37595 
L 331.6464 204.866656 
L 334.9944 208.085763 
L 339.012 211.619818 
L 343.0296 214.826529 
L 347.0472 217.736217 
L 351.0648 220.376394 
L 351.7344 220.792009 
L 352.404 213.852811 
L 353.0736 211.595388 
L 353.7432 211.991287 
L 357.7608 215.163591 
L 358.4304 215.662973 
L 359.1 208.806196 
L 359.7696 206.629869 
L 360.4392 199.757427 
L 361.1088 197.72651 
L 362.448 199.114918 
L 363.7872 200.617301 
L 364.4568 194.0023 
L 365.1264 192.063864 
L 365.796 192.773625 
L 366.4656 186.284668 
L 367.1352 177.122116 
L 367.8048 175.294114 
L 368.4744 176.273356 
L 369.144 170.04955 
L 369.8136 153.799755 
L 370.4832 149.568663 
L 371.1528 150.800477 
L 371.8224 152.334141 
L 372.492 146.495026 
L 373.1616 145.320008 
L 375.1704 149.951747 
L 375.84 144.150916 
L 376.5096 143.013566 
L 377.1792 144.51154 
L 377.8488 138.79813 
L 378.5184 137.746797 
L 379.188 131.981271 
L 379.8576 131.039481 
L 380.5272 132.729872 
L 381.1968 127.205787 
L 381.8664 126.340737 
L 382.536 113.410367 
L 383.2056 95.292865 
L 383.8752 91.841126 
L 384.5448 86.652459 
L 385.2144 86.43908 
L 387.8928 96.312612 
L 388.5624 91.373734 
L 389.232 91.084486 
L 391.2408 98.289047 
L 391.9104 93.318408 
L 394.5888 62.900624 
L 395.2584 62.908103 
L 396.5976 68.594622 
L 397.2672 64.101158 
L 397.9368 64.250167 
L 398.6064 67.013828 
L 399.276 62.545766 
L 399.9456 62.71977 
L 400.6152 58.159889 
L 401.2848 58.404371 
L 401.9544 53.913837 
L 402.624 46.878417 
L 403.2936 47.143364 
L 409.32 74.013421 
L 412.668 87.413735 
L 416.016 99.771421 
L 419.364 111.1676 
L 422.712 121.677085 
L 426.06 131.368866 
L 429.408 140.306565 
L 432.756 148.548854 
L 436.104 156.149842 
L 439.452 163.159424 
L 442.8 169.623617 
L 446.148 175.584855 
L 449.496 181.082271 
L 452.844 186.151953 
L 454.8528 189.002405 
L 455.5224 182.57405 
L 456.192 180.819261 
L 457.5312 182.746685 
L 460.8792 187.686865 
L 464.2272 192.242668 
L 467.5752 196.444001 
L 470.9232 200.318444 
L 471.5928 193.708246 
L 472.2624 191.774536 
L 473.6016 193.352697 
L 476.9496 197.467663 
L 480.2976 201.262459 
L 483.6456 204.761995 
L 484.3152 205.428525 
L 484.9848 191.388077 
L 485.6544 186.713781 
L 486.324 187.348693 
L 489.0024 191.043834 
L 489.672 177.23454 
L 490.3416 172.787685 
L 491.0112 173.646382 
L 492.3504 175.96072 
L 493.02 169.741938 
L 493.6896 168.193354 
L 495.0288 170.523301 
L 496.368 172.937206 
L 497.0376 166.76701 
L 497.7072 165.266231 
L 499.0464 167.689497 
L 502.3944 173.801222 
L 503.7336 176.110624 
L 504.4032 169.889433 
L 505.0728 168.338479 
L 505.7424 162.08136 
L 506.412 160.655877 
L 507.7512 163.226125 
L 508.4208 157.211981 
L 509.76 139.800153 
L 510.4296 138.571896 
L 511.0992 140.141245 
L 511.7688 134.498063 
L 512.4384 133.51583 
L 513.108 127.818293 
L 513.7776 126.9434 
L 514.4472 114.003345 
L 515.1168 110.572583 
L 515.7864 112.431044 
L 516.456 107.233151 
L 517.1256 99.340917 
L 517.7952 98.762819 
L 518.4648 100.971879 
L 519.1344 95.958129 
L 519.804 73.550811 
L 520.4736 67.831409 
L 521.1432 70.215877 
L 521.8128 65.69636 
L 522.4824 58.471601 
L 523.152 58.550252 
L 523.8216 54.057373 
L 524.4912 54.367781 
L 526.5 63.314105 
L 527.1696 58.905496 
L 527.8392 59.137996 
L 529.1784 64.94471 
L 529.848 53.161764 
L 530.5176 50.708694 
L 531.8568 56.625902 
L 535.2048 71.379075 
L 538.5528 84.984358 
L 541.9008 97.531064 
L 545.2488 109.101558 
L 548.5968 119.771794 
L 551.2752 127.707054 
L 551.9448 122.263684 
L 552.6144 121.478051 
L 555.2928 129.153059 
L 558.6408 138.263162 
L 561.9888 146.664441 
L 565.3368 154.412048 
L 568.6848 161.556842 
L 572.0328 168.145726 
L 575.3808 174.221953 
L 578.7288 179.825411 
L 582.0768 184.992885 
L 585.4248 189.758297 
L 588.7728 194.15293 
L 592.1208 198.205633 
L 595.4688 201.943009 
L 598.8168 205.389595 
L 602.8344 209.173383 
L 606.852 212.606697 
L 610.8696 215.721998 
L 614.8872 218.548743 
L 618.9048 221.113659 
L 621.5832 222.690214 
L 622.9224 196.077021 
L 623.592 193.783601 
L 624.2616 179.769458 
L 624.9312 175.281868 
L 625.6008 168.752351 
L 626.2704 167.219669 
L 627.6096 169.580658 
L 630.9576 175.545238 
L 631.6272 176.681267 
L 632.2968 170.450906 
L 632.9664 168.890929 
L 633.636 169.973066 
L 634.3056 163.850503 
L 634.9752 162.396591 
L 636.3144 164.911343 
L 637.6536 167.504161 
L 638.3232 161.421272 
L 639.6624 143.875248 
L 640.332 142.581506 
L 642.3408 147.343155 
L 643.0104 141.584242 
L 643.68 125.79187 
L 644.3496 122.01085 
L 645.0192 116.33737 
L 645.6888 115.64697 
L 646.3584 110.236576 
L 647.028 102.296079 
L 647.6976 101.670493 
L 648.3672 103.832828 
L 649.0368 98.773104 
L 649.7064 98.364953 
L 650.376 93.232272 
L 651.0456 92.913159 
L 653.0544 100.030971 
L 653.724 95.032341 
L 654.3936 94.684301 
L 655.0632 89.610767 
L 655.7328 89.34985 
L 656.4024 91.710172 
L 657.072 86.845253 
L 657.7416 86.628776 
L 660.42 96.490405 
L 661.0896 91.54867 
L 661.7592 91.256612 
L 663.0984 96.03936 
L 663.768 91.104873 
L 664.4376 90.819946 
L 667.7856 102.761875 
L 668.4552 97.719361 
L 669.1248 97.328142 
L 669.7944 99.560257 
L 670.464 87.221057 
L 671.1336 84.220672 
L 672.4728 89.069493 
L 673.1424 91.595143 
L 673.812 86.732072 
L 674.4816 86.517414 
L 677.16 96.386031 
L 677.8296 91.445973 
L 678.4992 91.155565 
L 684.5256 112.054511 
L 685.1952 106.862669 
L 685.8648 106.324522 
L 693.2304 129.025449 
L 696.5784 138.14548 
L 699.9264 146.555916 
L 703.2744 154.311967 
L 706.6224 161.464547 
L 709.9704 168.060613 
L 713.3184 174.143462 
L 716.6664 179.753028 
L 720.0144 184.926133 
L 723.3624 189.696739 
L 726.7104 194.096161 
L 730.0584 198.153281 
L 733.4064 201.894731 
L 736.7544 205.345073 
L 740.772 209.132985 
L 744.7896 212.570041 
L 748.8072 215.688737 
L 749.4768 208.831546 
L 750.1464 206.654812 
L 750.816 207.130104 
L 751.4856 207.758579 
L 752.1552 201.028822 
L 752.8248 198.977474 
L 753.4944 199.576136 
L 754.8336 201.063815 
L 755.5032 194.441639 
L 756.1728 192.496143 
L 757.512 194.051299 
L 760.86 198.11191 
L 761.5296 198.885303 
L 762.1992 192.298135 
L 762.8688 190.387084 
L 764.208 192.009479 
L 766.8864 195.412179 
L 767.556 188.880822 
L 768.2256 172.328417 
L 768.8952 167.799579 
L 769.5648 168.738432 
L 770.2344 169.983842 
L 770.904 163.861105 
L 771.5736 162.407023 
L 772.2432 163.593354 
L 772.9128 157.573309 
L 773.5824 156.220268 
L 774.9216 158.931927 
L 775.5912 160.334922 
L 776.2608 147.019105 
L 776.9304 143.057796 
L 777.6 137.046103 
L 777.6 137.046103 
" clip-path="url(#p052c2cc237)" style="fill: none; stroke: #ff4500; stroke-width: 1.5; stroke-linecap: square"/>
   </g>
   <g id="patch_3">
    <path d="M 108 256.32 
L 108 34.56 
" style="fill: none; stroke: #000000; stroke-width: 0.8; stroke-linejoin: miter; stroke-linecap: square"/>
   </g>
   <g id="patch_4">
    <path d="M 777.6 256.32 
L 777.6 34.56 
" style="fill: none; stroke: #000000; stroke-width: 0.8; stroke-linejoin: miter; stroke-linecap: square"/>
   </g>
   <g id="patch_5">
    <path d="M 108 256.32 
L 777.6 256.32 
" style="fill: none; stroke: #000000; stroke-width: 0.8; stroke-linejoin: miter; stroke-linecap: square"/>
   </g>
   <g id="patch_6">
    <path d="M 108 34.56 
L 777.6 34.56 
" style="fill: none; stroke: #000000; stroke-width: 0.8; stroke-linejoin: miter; stroke-linecap: square"/>
   </g>
  </g>
 </g>
 <defs>
  <clipPath id="p052c2cc237">
   <rect x="108" y="34.56" width="669.6" height="221.76"/>
  </clipPath>
 </defs>
</svg>
