<?xml version="1.0" encoding="utf-8" standalone="no"?>
<!DOCTYPE svg PUBLIC "-//W3C//DTD SVG 1.1//EN"
  "http://www.w3.org/Graphics/SVG/1.1/DTD/svg11.dtd">
<svg xmlns:xlink="http://www.w3.org/1999/xlink" width="864pt" height="288pt" viewBox="0 0 864 288" xmlns="http://www.w3.org/2000/svg" version="1.1">
 <metadata>
  <rdf:RDF xmlns:dc="http://purl.org/dc/elements/1.1/" xmlns:cc="http://creativecommons.org/ns#" xmlns:rdf="http://www.w3.org/1999/02/22-rdf-syntax-ns#">
   <cc:Work>
    <dc:type rdf:resource="http://purl.org/dc/dcmitype/StillImage"/>
    <dc:date>2024-04-23T19:17:07.603784</dc:date>
    <dc:format>image/svg+xml</dc:format>
    <dc:creator>
     <cc:Agent>
      <dc:title>Matplotlib v3.8.2, https://matplotlib.org/</dc:title>
     </cc:Agent>
    </dc:creator>
   </cc:Work>
  </rdf:RDF>
 </metadata>
 <defs>
  <style type="text/css">*{stroke-linejoin: round; stroke-linecap: butt}</style>
 </defs>
 <g id="figure_1">
  <g id="patch_1">
   <path d="M 0 288 
L 864 288 
L 864 0 
L 0 0 
z
" style="fill: #ffffff"/>
  </g>
  <g id="axes_1">
   <g id="patch_2">
    <path d="M 108 256.32 
L 777.6 256.32 
L 777.6 34.56 
L 108 34.56 
z
" style="fill: #ffffff"/>
   </g>
   <g id="matplotlib.axis_1">
    <g id="xtick_1">
     <g id="line2d_1">
      <path d="M 108 256.32 
L 108 34.56 
" clip-path="url(#p2b7a952dd0)" style="fill: none; stroke: #b0b0b0; stroke-width: 0.8; stroke-linecap: square"/>
     </g>
     <g id="line2d_2">
      <defs>
       <path id="mc84ef233d2" d="M 0 0 
L 0 3.5 
" style="stroke: #000000; stroke-width: 0.8"/>
      </defs>
      <g>
       <use xlink:href="#mc84ef233d2" x="108" y="256.32" style="stroke: #000000; stroke-width: 0.8"/>
      </g>
     </g>
     <g id="text_1">
      <!-- 100 -->
      <g transform="translate(94.63875 273.957812) scale(0.14 -0.14)">
       <defs>
        <path id="DejaVuSans-31" d="M 794 531 
L 1825 531 
L 1825 4091 
L 703 3866 
L 703 4441 
L 1819 4666 
L 2450 4666 
L 2450 531 
L 3481 531 
L 3481 0 
L 794 0 
L 794 531 
z
" transform="scale(0.015625)"/>
        <path id="DejaVuSans-30" d="M 2034 4250 
Q 1547 4250 1301 3770 
Q 1056 3291 1056 2328 
Q 1056 1369 1301 889 
Q 1547 409 2034 409 
Q 2525 409 2770 889 
Q 3016 1369 3016 2328 
Q 3016 3291 2770 3770 
Q 2525 4250 2034 4250 
z
M 2034 4750 
Q 2819 4750 3233 4129 
Q 3647 3509 3647 2328 
Q 3647 1150 3233 529 
Q 2819 -91 2034 -91 
Q 1250 -91 836 529 
Q 422 1150 422 2328 
Q 422 3509 836 4129 
Q 1250 4750 2034 4750 
z
" transform="scale(0.015625)"/>
       </defs>
       <use xlink:href="#DejaVuSans-31"/>
       <use xlink:href="#DejaVuSans-30" x="63.623047"/>
       <use xlink:href="#DejaVuSans-30" x="127.246094"/>
      </g>
     </g>
    </g>
    <g id="xtick_2">
     <g id="line2d_3">
      <path d="M 241.92 256.32 
L 241.92 34.56 
" clip-path="url(#p2b7a952dd0)" style="fill: none; stroke: #b0b0b0; stroke-width: 0.8; stroke-linecap: square"/>
     </g>
     <g id="line2d_4">
      <g>
       <use xlink:href="#mc84ef233d2" x="241.92" y="256.32" style="stroke: #000000; stroke-width: 0.8"/>
      </g>
     </g>
     <g id="text_2">
      <!-- 120 -->
      <g transform="translate(228.55875 273.957812) scale(0.14 -0.14)">
       <defs>
        <path id="DejaVuSans-32" d="M 1228 531 
L 3431 531 
L 3431 0 
L 469 0 
L 469 531 
Q 828 903 1448 1529 
Q 2069 2156 2228 2338 
Q 2531 2678 2651 2914 
Q 2772 3150 2772 3378 
Q 2772 3750 2511 3984 
Q 2250 4219 1831 4219 
Q 1534 4219 1204 4116 
Q 875 4013 500 3803 
L 500 4441 
Q 881 4594 1212 4672 
Q 1544 4750 1819 4750 
Q 2544 4750 2975 4387 
Q 3406 4025 3406 3419 
Q 3406 3131 3298 2873 
Q 3191 2616 2906 2266 
Q 2828 2175 2409 1742 
Q 1991 1309 1228 531 
z
" transform="scale(0.015625)"/>
       </defs>
       <use xlink:href="#DejaVuSans-31"/>
       <use xlink:href="#DejaVuSans-32" x="63.623047"/>
       <use xlink:href="#DejaVuSans-30" x="127.246094"/>
      </g>
     </g>
    </g>
    <g id="xtick_3">
     <g id="line2d_5">
      <path d="M 375.84 256.32 
L 375.84 34.56 
" clip-path="url(#p2b7a952dd0)" style="fill: none; stroke: #b0b0b0; stroke-width: 0.8; stroke-linecap: square"/>
     </g>
     <g id="line2d_6">
      <g>
       <use xlink:href="#mc84ef233d2" x="375.84" y="256.32" style="stroke: #000000; stroke-width: 0.8"/>
      </g>
     </g>
     <g id="text_3">
      <!-- 140 -->
      <g transform="translate(362.47875 273.957812) scale(0.14 -0.14)">
       <defs>
        <path id="DejaVuSans-34" d="M 2419 4116 
L 825 1625 
L 2419 1625 
L 2419 4116 
z
M 2253 4666 
L 3047 4666 
L 3047 1625 
L 3713 1625 
L 3713 1100 
L 3047 1100 
L 3047 0 
L 2419 0 
L 2419 1100 
L 313 1100 
L 313 1709 
L 2253 4666 
z
" transform="scale(0.015625)"/>
       </defs>
       <use xlink:href="#DejaVuSans-31"/>
       <use xlink:href="#DejaVuSans-34" x="63.623047"/>
       <use xlink:href="#DejaVuSans-30" x="127.246094"/>
      </g>
     </g>
    </g>
    <g id="xtick_4">
     <g id="line2d_7">
      <path d="M 509.76 256.32 
L 509.76 34.56 
" clip-path="url(#p2b7a952dd0)" style="fill: none; stroke: #b0b0b0; stroke-width: 0.8; stroke-linecap: square"/>
     </g>
     <g id="line2d_8">
      <g>
       <use xlink:href="#mc84ef233d2" x="509.76" y="256.32" style="stroke: #000000; stroke-width: 0.8"/>
      </g>
     </g>
     <g id="text_4">
      <!-- 160 -->
      <g transform="translate(496.39875 273.957812) scale(0.14 -0.14)">
       <defs>
        <path id="DejaVuSans-36" d="M 2113 2584 
Q 1688 2584 1439 2293 
Q 1191 2003 1191 1497 
Q 1191 994 1439 701 
Q 1688 409 2113 409 
Q 2538 409 2786 701 
Q 3034 994 3034 1497 
Q 3034 2003 2786 2293 
Q 2538 2584 2113 2584 
z
M 3366 4563 
L 3366 3988 
Q 3128 4100 2886 4159 
Q 2644 4219 2406 4219 
Q 1781 4219 1451 3797 
Q 1122 3375 1075 2522 
Q 1259 2794 1537 2939 
Q 1816 3084 2150 3084 
Q 2853 3084 3261 2657 
Q 3669 2231 3669 1497 
Q 3669 778 3244 343 
Q 2819 -91 2113 -91 
Q 1303 -91 875 529 
Q 447 1150 447 2328 
Q 447 3434 972 4092 
Q 1497 4750 2381 4750 
Q 2619 4750 2861 4703 
Q 3103 4656 3366 4563 
z
" transform="scale(0.015625)"/>
       </defs>
       <use xlink:href="#DejaVuSans-31"/>
       <use xlink:href="#DejaVuSans-36" x="63.623047"/>
       <use xlink:href="#DejaVuSans-30" x="127.246094"/>
      </g>
     </g>
    </g>
    <g id="xtick_5">
     <g id="line2d_9">
      <path d="M 643.68 256.32 
L 643.68 34.56 
" clip-path="url(#p2b7a952dd0)" style="fill: none; stroke: #b0b0b0; stroke-width: 0.8; stroke-linecap: square"/>
     </g>
     <g id="line2d_10">
      <g>
       <use xlink:href="#mc84ef233d2" x="643.68" y="256.32" style="stroke: #000000; stroke-width: 0.8"/>
      </g>
     </g>
     <g id="text_5">
      <!-- 180 -->
      <g transform="translate(630.31875 273.957812) scale(0.14 -0.14)">
       <defs>
        <path id="DejaVuSans-38" d="M 2034 2216 
Q 1584 2216 1326 1975 
Q 1069 1734 1069 1313 
Q 1069 891 1326 650 
Q 1584 409 2034 409 
Q 2484 409 2743 651 
Q 3003 894 3003 1313 
Q 3003 1734 2745 1975 
Q 2488 2216 2034 2216 
z
M 1403 2484 
Q 997 2584 770 2862 
Q 544 3141 544 3541 
Q 544 4100 942 4425 
Q 1341 4750 2034 4750 
Q 2731 4750 3128 4425 
Q 3525 4100 3525 3541 
Q 3525 3141 3298 2862 
Q 3072 2584 2669 2484 
Q 3125 2378 3379 2068 
Q 3634 1759 3634 1313 
Q 3634 634 3220 271 
Q 2806 -91 2034 -91 
Q 1263 -91 848 271 
Q 434 634 434 1313 
Q 434 1759 690 2068 
Q 947 2378 1403 2484 
z
M 1172 3481 
Q 1172 3119 1398 2916 
Q 1625 2713 2034 2713 
Q 2441 2713 2670 2916 
Q 2900 3119 2900 3481 
Q 2900 3844 2670 4047 
Q 2441 4250 2034 4250 
Q 1625 4250 1398 4047 
Q 1172 3844 1172 3481 
z
" transform="scale(0.015625)"/>
       </defs>
       <use xlink:href="#DejaVuSans-31"/>
       <use xlink:href="#DejaVuSans-38" x="63.623047"/>
       <use xlink:href="#DejaVuSans-30" x="127.246094"/>
      </g>
     </g>
    </g>
    <g id="xtick_6">
     <g id="line2d_11">
      <path d="M 777.6 256.32 
L 777.6 34.56 
" clip-path="url(#p2b7a952dd0)" style="fill: none; stroke: #b0b0b0; stroke-width: 0.8; stroke-linecap: square"/>
     </g>
     <g id="line2d_12">
      <g>
       <use xlink:href="#mc84ef233d2" x="777.6" y="256.32" style="stroke: #000000; stroke-width: 0.8"/>
      </g>
     </g>
     <g id="text_6">
      <!-- 200 -->
      <g transform="translate(764.23875 273.957812) scale(0.14 -0.14)">
       <use xlink:href="#DejaVuSans-32"/>
       <use xlink:href="#DejaVuSans-30" x="63.623047"/>
       <use xlink:href="#DejaVuSans-30" x="127.246094"/>
      </g>
     </g>
    </g>
    <g id="text_7">
     <!-- Time (ms) -->
     <g transform="translate(407.521094 291.507187) scale(0.14 -0.14)">
      <defs>
       <path id="DejaVuSans-54" d="M -19 4666 
L 3928 4666 
L 3928 4134 
L 2272 4134 
L 2272 0 
L 1638 0 
L 1638 4134 
L -19 4134 
L -19 4666 
z
" transform="scale(0.015625)"/>
       <path id="DejaVuSans-69" d="M 603 3500 
L 1178 3500 
L 1178 0 
L 603 0 
L 603 3500 
z
M 603 4863 
L 1178 4863 
L 1178 4134 
L 603 4134 
L 603 4863 
z
" transform="scale(0.015625)"/>
       <path id="DejaVuSans-6d" d="M 3328 2828 
Q 3544 3216 3844 3400 
Q 4144 3584 4550 3584 
Q 5097 3584 5394 3201 
Q 5691 2819 5691 2113 
L 5691 0 
L 5113 0 
L 5113 2094 
Q 5113 2597 4934 2840 
Q 4756 3084 4391 3084 
Q 3944 3084 3684 2787 
Q 3425 2491 3425 1978 
L 3425 0 
L 2847 0 
L 2847 2094 
Q 2847 2600 2669 2842 
Q 2491 3084 2119 3084 
Q 1678 3084 1418 2786 
Q 1159 2488 1159 1978 
L 1159 0 
L 581 0 
L 581 3500 
L 1159 3500 
L 1159 2956 
Q 1356 3278 1631 3431 
Q 1906 3584 2284 3584 
Q 2666 3584 2933 3390 
Q 3200 3197 3328 2828 
z
" transform="scale(0.015625)"/>
       <path id="DejaVuSans-65" d="M 3597 1894 
L 3597 1613 
L 953 1613 
Q 991 1019 1311 708 
Q 1631 397 2203 397 
Q 2534 397 2845 478 
Q 3156 559 3463 722 
L 3463 178 
Q 3153 47 2828 -22 
Q 2503 -91 2169 -91 
Q 1331 -91 842 396 
Q 353 884 353 1716 
Q 353 2575 817 3079 
Q 1281 3584 2069 3584 
Q 2775 3584 3186 3129 
Q 3597 2675 3597 1894 
z
M 3022 2063 
Q 3016 2534 2758 2815 
Q 2500 3097 2075 3097 
Q 1594 3097 1305 2825 
Q 1016 2553 972 2059 
L 3022 2063 
z
" transform="scale(0.015625)"/>
       <path id="DejaVuSans-20" transform="scale(0.015625)"/>
       <path id="DejaVuSans-28" d="M 1984 4856 
Q 1566 4138 1362 3434 
Q 1159 2731 1159 2009 
Q 1159 1288 1364 580 
Q 1569 -128 1984 -844 
L 1484 -844 
Q 1016 -109 783 600 
Q 550 1309 550 2009 
Q 550 2706 781 3412 
Q 1013 4119 1484 4856 
L 1984 4856 
z
" transform="scale(0.015625)"/>
       <path id="DejaVuSans-73" d="M 2834 3397 
L 2834 2853 
Q 2591 2978 2328 3040 
Q 2066 3103 1784 3103 
Q 1356 3103 1142 2972 
Q 928 2841 928 2578 
Q 928 2378 1081 2264 
Q 1234 2150 1697 2047 
L 1894 2003 
Q 2506 1872 2764 1633 
Q 3022 1394 3022 966 
Q 3022 478 2636 193 
Q 2250 -91 1575 -91 
Q 1294 -91 989 -36 
Q 684 19 347 128 
L 347 722 
Q 666 556 975 473 
Q 1284 391 1588 391 
Q 1994 391 2212 530 
Q 2431 669 2431 922 
Q 2431 1156 2273 1281 
Q 2116 1406 1581 1522 
L 1381 1569 
Q 847 1681 609 1914 
Q 372 2147 372 2553 
Q 372 3047 722 3315 
Q 1072 3584 1716 3584 
Q 2034 3584 2315 3537 
Q 2597 3491 2834 3397 
z
" transform="scale(0.015625)"/>
       <path id="DejaVuSans-29" d="M 513 4856 
L 1013 4856 
Q 1481 4119 1714 3412 
Q 1947 2706 1947 2009 
Q 1947 1309 1714 600 
Q 1481 -109 1013 -844 
L 513 -844 
Q 928 -128 1133 580 
Q 1338 1288 1338 2009 
Q 1338 2731 1133 3434 
Q 928 4138 513 4856 
z
" transform="scale(0.015625)"/>
      </defs>
      <use xlink:href="#DejaVuSans-54"/>
      <use xlink:href="#DejaVuSans-69" x="57.958984"/>
      <use xlink:href="#DejaVuSans-6d" x="85.742188"/>
      <use xlink:href="#DejaVuSans-65" x="183.154297"/>
      <use xlink:href="#DejaVuSans-20" x="244.677734"/>
      <use xlink:href="#DejaVuSans-28" x="276.464844"/>
      <use xlink:href="#DejaVuSans-6d" x="315.478516"/>
      <use xlink:href="#DejaVuSans-73" x="412.890625"/>
      <use xlink:href="#DejaVuSans-29" x="464.990234"/>
     </g>
    </g>
   </g>
   <g id="matplotlib.axis_2">
    <g id="ytick_1">
     <g id="line2d_13">
      <path d="M 108 225.089625 
L 777.6 225.089625 
" clip-path="url(#p2b7a952dd0)" style="fill: none; stroke: #b0b0b0; stroke-width: 0.8; stroke-linecap: square"/>
     </g>
     <g id="line2d_14">
      <defs>
       <path id="md92c2c7058" d="M 0 0 
L -3.5 0 
" style="stroke: #000000; stroke-width: 0.8"/>
      </defs>
      <g>
       <use xlink:href="#md92c2c7058" x="108" y="225.089625" style="stroke: #000000; stroke-width: 0.8"/>
      </g>
     </g>
     <g id="text_8">
      <!-- −60 -->
      <g transform="translate(71.453437 230.408531) scale(0.14 -0.14)">
       <defs>
        <path id="DejaVuSans-2212" d="M 678 2272 
L 4684 2272 
L 4684 1741 
L 678 1741 
L 678 2272 
z
" transform="scale(0.015625)"/>
       </defs>
       <use xlink:href="#DejaVuSans-2212"/>
       <use xlink:href="#DejaVuSans-36" x="83.789062"/>
       <use xlink:href="#DejaVuSans-30" x="147.412109"/>
      </g>
     </g>
    </g>
    <g id="ytick_2">
     <g id="line2d_15">
      <path d="M 108 182.856277 
L 777.6 182.856277 
" clip-path="url(#p2b7a952dd0)" style="fill: none; stroke: #b0b0b0; stroke-width: 0.8; stroke-linecap: square"/>
     </g>
     <g id="line2d_16">
      <g>
       <use xlink:href="#md92c2c7058" x="108" y="182.856277" style="stroke: #000000; stroke-width: 0.8"/>
      </g>
     </g>
     <g id="text_9">
      <!-- −40 -->
      <g transform="translate(71.453437 188.175184) scale(0.14 -0.14)">
       <use xlink:href="#DejaVuSans-2212"/>
       <use xlink:href="#DejaVuSans-34" x="83.789062"/>
       <use xlink:href="#DejaVuSans-30" x="147.412109"/>
      </g>
     </g>
    </g>
    <g id="ytick_3">
     <g id="line2d_17">
      <path d="M 108 140.62293 
L 777.6 140.62293 
" clip-path="url(#p2b7a952dd0)" style="fill: none; stroke: #b0b0b0; stroke-width: 0.8; stroke-linecap: square"/>
     </g>
     <g id="line2d_18">
      <g>
       <use xlink:href="#md92c2c7058" x="108" y="140.62293" style="stroke: #000000; stroke-width: 0.8"/>
      </g>
     </g>
     <g id="text_10">
      <!-- −20 -->
      <g transform="translate(71.453437 145.941836) scale(0.14 -0.14)">
       <use xlink:href="#DejaVuSans-2212"/>
       <use xlink:href="#DejaVuSans-32" x="83.789062"/>
       <use xlink:href="#DejaVuSans-30" x="147.412109"/>
      </g>
     </g>
    </g>
    <g id="ytick_4">
     <g id="line2d_19">
      <path d="M 108 98.389582 
L 777.6 98.389582 
" clip-path="url(#p2b7a952dd0)" style="fill: none; stroke: #b0b0b0; stroke-width: 0.8; stroke-linecap: square"/>
     </g>
     <g id="line2d_20">
      <g>
       <use xlink:href="#md92c2c7058" x="108" y="98.389582" style="stroke: #000000; stroke-width: 0.8"/>
      </g>
     </g>
     <g id="text_11">
      <!-- 0 -->
      <g transform="translate(92.0925 103.708489) scale(0.14 -0.14)">
       <use xlink:href="#DejaVuSans-30"/>
      </g>
     </g>
    </g>
    <g id="ytick_5">
     <g id="line2d_21">
      <path d="M 108 56.156235 
L 777.6 56.156235 
" clip-path="url(#p2b7a952dd0)" style="fill: none; stroke: #b0b0b0; stroke-width: 0.8; stroke-linecap: square"/>
     </g>
     <g id="line2d_22">
      <g>
       <use xlink:href="#md92c2c7058" x="108" y="56.156235" style="stroke: #000000; stroke-width: 0.8"/>
      </g>
     </g>
     <g id="text_12">
      <!-- 20 -->
      <g transform="translate(83.185 61.475141) scale(0.14 -0.14)">
       <use xlink:href="#DejaVuSans-32"/>
       <use xlink:href="#DejaVuSans-30" x="63.623047"/>
      </g>
     </g>
    </g>
    <g id="text_13">
     <!-- $V_{m}$ (mV) -->
     <g transform="translate(64.541875 174.49) rotate(-90) scale(0.14 -0.14)">
      <defs>
       <path id="DejaVuSans-Oblique-56" d="M 1319 0 
L 500 4666 
L 1119 4666 
L 1797 653 
L 4063 4666 
L 4750 4666 
L 2053 0 
L 1319 0 
z
" transform="scale(0.015625)"/>
       <path id="DejaVuSans-Oblique-6d" d="M 5747 2113 
L 5338 0 
L 4763 0 
L 5166 2094 
Q 5191 2228 5203 2325 
Q 5216 2422 5216 2491 
Q 5216 2772 5059 2928 
Q 4903 3084 4622 3084 
Q 4203 3084 3875 2770 
Q 3547 2456 3450 1953 
L 3066 0 
L 2491 0 
L 2900 2094 
Q 2925 2209 2937 2307 
Q 2950 2406 2950 2484 
Q 2950 2769 2794 2926 
Q 2638 3084 2363 3084 
Q 1938 3084 1609 2770 
Q 1281 2456 1184 1953 
L 800 0 
L 225 0 
L 909 3500 
L 1484 3500 
L 1375 2956 
Q 1609 3263 1923 3423 
Q 2238 3584 2597 3584 
Q 2978 3584 3223 3384 
Q 3469 3184 3519 2828 
Q 3781 3197 4126 3390 
Q 4472 3584 4856 3584 
Q 5306 3584 5551 3325 
Q 5797 3066 5797 2591 
Q 5797 2488 5784 2364 
Q 5772 2241 5747 2113 
z
" transform="scale(0.015625)"/>
       <path id="DejaVuSans-56" d="M 1831 0 
L 50 4666 
L 709 4666 
L 2188 738 
L 3669 4666 
L 4325 4666 
L 2547 0 
L 1831 0 
z
" transform="scale(0.015625)"/>
      </defs>
      <use xlink:href="#DejaVuSans-Oblique-56" transform="translate(0 0.125)"/>
      <use xlink:href="#DejaVuSans-Oblique-6d" transform="translate(68.408203 -16.28125) scale(0.7)"/>
      <use xlink:href="#DejaVuSans-20" transform="translate(139.331055 0.125)"/>
      <use xlink:href="#DejaVuSans-28" transform="translate(171.118164 0.125)"/>
      <use xlink:href="#DejaVuSans-6d" transform="translate(210.131836 0.125)"/>
      <use xlink:href="#DejaVuSans-56" transform="translate(307.543945 0.125)"/>
      <use xlink:href="#DejaVuSans-29" transform="translate(375.952148 0.125)"/>
     </g>
    </g>
   </g>
   <g id="line2d_23">
    <path d="M 108 207.951307 
L 109.3392 208.428021 
L 110.6784 209.555998 
L 112.0176 210.081106 
L 112.6872 210.221294 
L 116.0352 212.885367 
L 117.3744 213.281737 
L 118.7136 213.475008 
L 122.0616 215.844935 
L 122.7312 216.045863 
L 124.74 217.748298 
L 126.7488 221.723547 
L 129.4272 225.177273 
L 130.0968 225.856063 
L 131.436 226.707466 
L 132.1056 227.012454 
L 133.4448 228.086441 
L 134.784 228.677468 
L 136.1232 229.059562 
L 136.7928 229.525838 
L 137.4624 230.222643 
L 138.132 230.723335 
L 139.4712 231.279699 
L 141.48 231.730547 
L 142.1496 232.130281 
L 142.8192 232.710225 
L 143.4888 233.064553 
L 144.1584 233.227434 
L 145.4976 233.860365 
L 146.8368 234.068634 
L 148.8456 234.107185 
L 150.1848 234.037029 
L 151.524 234.43494 
L 152.8632 234.480447 
L 153.5328 234.443385 
L 154.872 234.828265 
L 155.5416 234.868429 
L 156.8808 235.318535 
L 158.22 235.376127 
L 160.2288 235.194619 
L 162.9072 234.718112 
L 166.2552 233.877721 
L 170.2728 232.602491 
L 174.2904 231.096599 
L 178.9776 229.102481 
L 184.3344 226.568271 
L 190.3608 223.458167 
L 197.7264 219.380089 
L 206.4312 214.311272 
L 207.1008 214.374867 
L 207.7704 214.833111 
L 208.44 215.076926 
L 209.7792 215.020045 
L 211.1184 214.713449 
L 212.4576 215.141526 
L 213.7968 215.076877 
L 215.8056 214.647923 
L 218.484 213.834371 
L 219.1536 213.60471 
L 220.4928 213.979312 
L 221.1624 214.423975 
L 221.832 215.171802 
L 222.5016 215.658282 
L 223.1712 216.329275 
L 223.8408 216.811471 
L 225.18 217.228565 
L 226.5192 217.354099 
L 227.8584 217.335877 
L 228.528 217.711324 
L 229.1976 218.414522 
L 229.8672 218.887518 
L 231.2064 219.282602 
L 232.5456 219.404141 
L 234.5544 219.35492 
L 236.5632 219.133832 
L 237.9024 219.671415 
L 238.572 219.750135 
L 239.2416 220.159104 
L 239.9112 221.245645 
L 240.5808 222.027801 
L 241.2504 222.456656 
L 242.5896 222.899901 
L 243.9288 223.097364 
L 245.268 224.510501 
L 247.2768 226.659163 
L 247.9464 227.028511 
L 248.616 227.621391 
L 249.2856 228.412506 
L 251.2944 230.161586 
L 253.3032 231.235511 
L 253.9728 231.630239 
L 254.6424 231.882336 
L 257.3208 233.667713 
L 258.66 234.098996 
L 260.6688 234.406684 
L 263.3472 234.518848 
L 266.0256 234.414368 
L 267.3648 234.826733 
L 268.704 234.902646 
L 270.0432 234.846719 
L 270.7128 235.079954 
L 271.3824 235.531468 
L 272.052 235.81784 
L 272.7216 236.227109 
L 273.3912 236.783484 
L 276.0696 238.13076 
L 276.7392 238.456893 
L 277.4088 238.636348 
L 278.748 238.6158 
L 281.4264 238.203894 
L 284.7744 237.475172 
L 288.1224 236.545868 
L 292.14 235.19459 
L 296.8272 233.349086 
L 301.5144 231.266198 
L 306.8712 228.647152 
L 312.8976 225.454 
L 320.2632 221.280463 
L 329.6376 215.689905 
L 333.6552 213.238701 
L 334.9944 213.299226 
L 336.3336 212.9248 
L 339.012 211.783209 
L 343.0296 209.784274 
L 345.708 208.335209 
L 347.0472 208.550885 
L 347.7168 208.480159 
L 348.3864 208.829568 
L 349.056 209.5791 
L 349.7256 210.093673 
L 350.3952 210.353361 
L 351.7344 210.519441 
L 353.7432 210.380574 
L 356.4216 209.857159 
L 359.1 209.10385 
L 360.4392 209.603084 
L 361.7784 209.638188 
L 363.1176 210.37954 
L 364.4568 210.576081 
L 365.796 211.419476 
L 367.1352 211.698558 
L 367.8048 211.733694 
L 369.144 212.561752 
L 370.4832 212.843824 
L 371.1528 212.884831 
L 372.492 213.707449 
L 373.1616 213.894359 
L 374.5008 214.860669 
L 375.1704 215.956995 
L 377.8488 219.224246 
L 378.5184 219.858338 
L 379.188 220.274978 
L 379.8576 220.963446 
L 381.8664 223.658947 
L 385.2144 226.000023 
L 385.884 226.25913 
L 387.8928 227.865983 
L 388.5624 228.989905 
L 389.232 229.816805 
L 389.9016 230.32792 
L 391.2408 230.972774 
L 391.9104 231.19834 
L 393.2496 232.081397 
L 395.2584 232.973231 
L 395.928 233.328316 
L 397.2672 233.712757 
L 398.6064 233.925957 
L 399.9456 234.568208 
L 400.6152 234.733663 
L 401.9544 235.424385 
L 403.2936 235.716288 
L 403.9632 235.794815 
L 405.3024 236.377083 
L 406.6416 236.5977 
L 408.6504 236.673122 
L 409.9896 237.125847 
L 411.3288 237.093879 
L 413.3376 236.628607 
L 418.6944 235.085456 
L 420.7032 234.425161 
L 422.0424 234.497179 
L 423.3816 234.248598 
L 426.06 233.455464 
L 430.0776 231.979432 
L 432.0864 231.155958 
L 433.4256 231.177511 
L 434.7648 230.859759 
L 437.4432 229.917984 
L 441.4608 228.233926 
L 446.148 226.03046 
L 452.1744 222.931063 
L 459.54 218.854604 
L 468.9144 213.384797 
L 476.9496 208.487896 
L 480.9672 205.799166 
L 482.3064 205.858308 
L 483.6456 205.532973 
L 484.3152 205.28223 
L 484.9848 205.512209 
L 485.6544 206.230555 
L 486.324 206.770651 
L 486.9936 207.07241 
L 487.6632 208.228136 
L 488.3328 209.684191 
L 489.0024 210.68857 
L 489.672 211.314674 
L 491.0112 212.032133 
L 492.3504 212.394266 
L 493.02 212.495969 
L 494.3592 213.431333 
L 495.6984 213.809815 
L 497.7072 213.960866 
L 499.716 213.874215 
L 501.0552 215.372515 
L 501.7248 215.726561 
L 502.3944 216.360364 
L 503.064 217.675003 
L 503.7336 218.642175 
L 504.4032 219.217081 
L 505.7424 219.891945 
L 507.0816 220.275299 
L 508.4208 221.210819 
L 509.76 221.635074 
L 511.7688 221.897041 
L 513.7776 221.934326 
L 515.1168 222.574944 
L 515.7864 222.70855 
L 517.1256 223.482312 
L 518.4648 223.756071 
L 519.804 224.501312 
L 520.4736 224.673524 
L 521.8128 225.479844 
L 522.4824 225.672643 
L 523.8216 226.497016 
L 525.1608 226.82413 
L 526.5 227.573925 
L 527.8392 227.866359 
L 528.5088 227.933722 
L 529.848 228.596868 
L 530.5176 228.749659 
L 533.8656 230.870089 
L 534.5352 231.871269 
L 535.2048 232.594928 
L 535.8744 233.02294 
L 537.2136 233.530083 
L 539.2224 233.924698 
L 541.2312 234.089471 
L 541.9008 234.107963 
L 543.9096 235.022877 
L 544.5792 235.543924 
L 545.2488 235.829354 
L 546.588 235.927813 
L 548.5968 235.747936 
L 549.936 235.553031 
L 551.2752 235.828455 
L 552.6144 235.775578 
L 555.2928 235.343062 
L 558.6408 234.518772 
L 562.6584 233.248875 
L 566.676 231.742732 
L 568.0152 231.782521 
L 569.3544 231.486238 
L 572.0328 230.588841 
L 576.0504 228.966783 
L 580.7376 226.826383 
L 586.0944 224.143194 
L 592.7904 220.525896 
L 593.46 220.151562 
L 594.7992 220.168305 
L 596.1384 219.781942 
L 598.8168 218.658238 
L 603.504 216.381233 
L 610.2 212.841439 
L 615.5568 209.849661 
L 616.896 210.017417 
L 618.2352 209.744214 
L 619.5744 210.216398 
L 620.9136 210.174352 
L 622.9224 209.735469 
L 625.6008 208.868247 
L 626.94 209.310797 
L 628.2792 209.291139 
L 628.9488 209.192345 
L 630.288 209.836833 
L 630.9576 209.94823 
L 632.2968 211.716211 
L 632.9664 212.612176 
L 633.636 213.265475 
L 634.3056 213.661143 
L 634.9752 213.921341 
L 636.3144 215.82976 
L 636.984 216.335329 
L 638.3232 217.680866 
L 639.6624 218.329752 
L 641.0016 218.682618 
L 641.6712 219.598146 
L 642.3408 220.727627 
L 644.3496 224.954325 
L 646.3584 227.553381 
L 647.6976 228.482714 
L 649.0368 229.0912 
L 650.376 230.092516 
L 651.7152 230.631149 
L 653.0544 230.965957 
L 654.3936 231.73959 
L 655.7328 232.10375 
L 657.7416 232.353984 
L 660.42 232.412757 
L 661.0896 232.391983 
L 661.7592 232.662485 
L 662.4288 233.459435 
L 663.0984 234.025394 
L 663.768 234.32707 
L 665.1072 235.145063 
L 665.7768 235.354354 
L 667.116 236.087735 
L 669.1248 236.757353 
L 670.464 237.18971 
L 672.4728 237.38478 
L 675.1512 237.345401 
L 675.8208 237.299457 
L 677.16 237.661337 
L 678.4992 237.65311 
L 679.1688 237.515342 
L 680.508 237.600671 
L 681.8472 237.3639 
L 683.1864 237.52569 
L 684.5256 237.376058 
L 687.204 236.788173 
L 690.552 235.811063 
L 694.5696 234.392383 
L 699.2568 232.47457 
L 704.6136 230.006431 
L 710.64 226.947359 
L 717.336 223.274761 
L 725.3712 218.597212 
L 736.7544 211.688957 
L 743.4504 207.426572 
L 746.7984 205.030332 
L 748.1376 203.914877 
L 749.4768 203.761647 
L 750.816 203.275724 
L 752.1552 202.511577 
L 753.4944 201.383705 
L 754.164 200.635614 
L 755.5032 198.834557 
L 756.1728 198.055519 
L 756.8424 196.447258 
L 757.512 188.717004 
L 758.1816 150.95989 
L 758.8512 58.550898 
L 759.5208 67.780606 
L 760.1904 88.155326 
L 761.5296 115.552744 
L 762.8688 138.42727 
L 765.5472 179.234817 
L 766.8864 197.578424 
L 767.556 203.748899 
L 768.2256 207.659209 
L 768.8952 210.27709 
L 769.5648 212.183303 
L 770.2344 213.648555 
L 770.904 214.807679 
L 771.5736 215.737433 
L 772.2432 217.239877 
L 772.9128 218.432313 
L 774.9216 220.939552 
L 776.9304 222.503961 
L 777.6 223.372143 
L 777.6 223.372143 
" clip-path="url(#p2b7a952dd0)" style="fill: none; stroke: #000000; stroke-width: 1.5; stroke-linecap: square"/>
   </g>
   <g id="line2d_24">
    <path d="M 108 138.548589 
L 114.696 142.173898 
L 120.7224 146.082054 
L 123.4008 148.16654 
L 125.4096 150.00679 
L 126.7488 151.638351 
L 128.088 153.625072 
L 130.0968 157.118465 
L 132.1056 161.13399 
L 134.1144 165.704205 
L 136.1232 170.890263 
L 138.132 176.679098 
L 142.1496 188.928693 
L 142.8192 159.97558 
L 143.4888 151.060779 
L 144.1584 146.983477 
L 144.828 144.733396 
L 145.4976 143.38563 
L 146.1672 142.532298 
L 146.8368 141.959581 
L 148.176 141.212534 
L 152.1936 139.560903 
L 155.5416 138.316424 
L 158.22 137.58018 
L 162.2376 136.719568 
L 166.2552 136.076643 
L 170.9424 135.565021 
L 176.9688 135.160137 
L 185.004 134.869794 
L 197.7264 134.66163 
L 207.7704 134.629429 
L 211.1184 135.112256 
L 221.832 136.924536 
L 223.8408 137.64931 
L 227.1888 138.964917 
L 229.8672 139.94993 
L 234.5544 141.908206 
L 239.2416 143.659292 
L 240.5808 144.382479 
L 244.5984 147.051358 
L 246.6072 148.653845 
L 248.616 150.62154 
L 250.6248 152.932063 
L 252.6336 155.615449 
L 254.6424 158.648434 
L 255.9816 160.950623 
L 257.3208 163.57812 
L 259.3296 168.179932 
L 261.3384 173.485164 
L 264.6864 183.273049 
L 267.3648 190.877599 
L 269.3736 196.044135 
L 271.3824 200.565847 
L 274.0608 206.009676 
L 276.0696 209.763629 
L 276.7392 174.659133 
L 277.4088 160.053597 
L 278.0784 153.799001 
L 278.748 150.114477 
L 279.4176 147.750107 
L 280.0872 146.133215 
L 280.7568 144.966084 
L 282.096 143.362154 
L 283.4352 142.22003 
L 285.444 140.835058 
L 288.1224 139.292818 
L 290.8008 138.049135 
L 293.4792 137.079575 
L 296.1576 136.33087 
L 299.5056 135.623099 
L 303.5232 135.004049 
L 308.88 134.425662 
L 315.576 133.937998 
L 324.9504 133.490766 
L 334.9944 133.210117 
L 349.056 133.899909 
L 357.0912 135.741942 
L 361.7784 136.552076 
L 364.4568 137.293476 
L 367.8048 138.449377 
L 371.8224 139.998853 
L 374.5008 141.193351 
L 375.84 141.96445 
L 377.8488 143.420884 
L 380.5272 145.647156 
L 382.536 147.616448 
L 385.884 151.212398 
L 387.8928 153.589676 
L 389.232 155.468996 
L 391.2408 158.80565 
L 393.2496 162.631148 
L 395.2584 167.129244 
L 397.2672 172.44383 
L 399.9456 180.487215 
L 403.9632 192.940009 
L 405.972 198.449805 
L 407.9808 203.239596 
L 409.9896 207.289312 
L 410.6592 172.853248 
L 411.3288 158.835926 
L 411.9984 152.802569 
L 412.668 149.248058 
L 413.3376 146.961982 
L 414.0072 145.392499 
L 414.6768 144.253527 
L 416.016 142.673552 
L 417.3552 141.535023 
L 419.364 140.144027 
L 421.3728 138.95779 
L 423.3816 138.01348 
L 426.06 137.007255 
L 428.7384 136.20762 
L 432.0864 135.441572 
L 434.7648 135.061684 
L 441.4608 134.465299 
L 449.496 133.995794 
L 460.2096 133.622276 
L 481.6368 133.148763 
L 484.3152 133.280261 
L 486.324 133.572622 
L 487.6632 133.946199 
L 489.0024 134.533837 
L 492.3504 136.172118 
L 497.7072 138.25948 
L 501.7248 139.675171 
L 503.064 140.351993 
L 505.7424 142.113779 
L 511.0992 145.495952 
L 517.1256 149.208575 
L 519.804 151.291701 
L 521.8128 153.112743 
L 523.8216 155.231997 
L 525.8304 157.677327 
L 527.8392 160.513361 
L 529.848 163.767026 
L 531.1872 166.263418 
L 532.5264 169.096553 
L 533.8656 172.317379 
L 535.2048 176.020775 
L 541.2312 194.073716 
L 543.24 198.996359 
L 543.9096 200.511457 
L 544.5792 168.003633 
L 545.2488 155.822241 
L 545.9184 150.532544 
L 546.588 147.488226 
L 547.2576 145.572608 
L 547.9272 144.286243 
L 548.5968 143.371145 
L 549.936 142.121948 
L 551.2752 141.241121 
L 553.9536 139.832317 
L 557.3016 138.291421 
L 559.98 137.279295 
L 562.6584 136.473623 
L 566.0064 135.706303 
L 568.6848 135.295968 
L 574.7112 134.778755 
L 582.0768 134.356348 
L 592.1208 134.02044 
L 595.4688 134.021135 
L 603.504 134.286165 
L 618.2352 134.589891 
L 620.9136 135.013067 
L 624.9312 135.642002 
L 627.6096 136.051811 
L 630.9576 136.802913 
L 632.2968 137.265917 
L 634.3056 138.24111 
L 636.984 139.743359 
L 643.0104 143.646247 
L 644.3496 144.902959 
L 647.028 147.908274 
L 652.3848 154.238376 
L 654.3936 156.883332 
L 656.4024 159.886592 
L 658.4112 163.263615 
L 660.42 167.084114 
L 661.7592 169.925146 
L 663.0984 173.195996 
L 665.1072 178.952338 
L 671.1336 197.316542 
L 673.1424 202.361126 
L 675.1512 206.590373 
L 677.16 210.11828 
L 677.8296 211.180077 
L 678.4992 175.605195 
L 679.1688 160.581512 
L 679.8384 154.123076 
L 680.508 150.290714 
L 681.1776 147.814797 
L 681.8472 146.109459 
L 682.5168 144.877321 
L 683.1864 143.94613 
L 684.5256 142.58607 
L 686.5344 141.084373 
L 689.2128 139.461617 
L 691.8912 138.145597 
L 694.5696 137.114697 
L 697.248 136.31847 
L 700.596 135.567679 
L 704.6136 134.912592 
L 709.9704 134.301713 
L 716.6664 133.786116 
L 726.0408 133.312583 
L 740.1024 132.853052 
L 756.1728 132.334989 
L 756.8424 132.208973 
L 757.512 131.862199 
L 758.1816 130.324486 
L 758.8512 125.520716 
L 759.5208 119.789505 
L 760.1904 115.362822 
L 760.86 112.726424 
L 761.5296 111.6008 
L 762.1992 111.563772 
L 762.8688 112.263297 
L 763.5384 113.452507 
L 764.8776 116.75401 
L 766.2168 120.777497 
L 768.8952 129.181619 
L 770.2344 132.45553 
L 771.5736 135.029533 
L 773.5824 138.131297 
L 775.5912 140.734183 
L 777.6 142.989192 
L 777.6 142.989192 
" clip-path="url(#p2b7a952dd0)" style="fill: none; stroke: #4169e1; stroke-width: 1.5; stroke-linecap: square"/>
   </g>
   <g id="patch_3">
    <path d="M 108 256.32 
L 108 34.56 
" style="fill: none; stroke: #000000; stroke-width: 0.8; stroke-linejoin: miter; stroke-linecap: square"/>
   </g>
   <g id="patch_4">
    <path d="M 777.6 256.32 
L 777.6 34.56 
" style="fill: none; stroke: #000000; stroke-width: 0.8; stroke-linejoin: miter; stroke-linecap: square"/>
   </g>
   <g id="patch_5">
    <path d="M 108 256.32 
L 777.6 256.32 
" style="fill: none; stroke: #000000; stroke-width: 0.8; stroke-linejoin: miter; stroke-linecap: square"/>
   </g>
   <g id="patch_6">
    <path d="M 108 34.56 
L 777.6 34.56 
" style="fill: none; stroke: #000000; stroke-width: 0.8; stroke-linejoin: miter; stroke-linecap: square"/>
   </g>
   <g id="legend_1">
    <g id="patch_7">
     <path d="M 115 71.91625 
L 190.501563 71.91625 
Q 192.501563 71.91625 192.501563 69.91625 
L 192.501563 41.56 
Q 192.501563 39.56 190.501563 39.56 
L 115 39.56 
Q 113 39.56 113 41.56 
L 113 69.91625 
Q 113 71.91625 115 71.91625 
z
" style="fill: #ffffff; opacity: 0.8; stroke: #cccccc; stroke-linejoin: miter"/>
    </g>
    <g id="line2d_25">
     <path d="M 117 47.658437 
L 127 47.658437 
L 137 47.658437 
" style="fill: none; stroke: #000000; stroke-width: 1.5; stroke-linecap: square"/>
    </g>
    <g id="text_14">
     <!-- Soma -->
     <g transform="translate(145 51.158437) scale(0.1 -0.1)">
      <defs>
       <path id="DejaVuSans-53" d="M 3425 4513 
L 3425 3897 
Q 3066 4069 2747 4153 
Q 2428 4238 2131 4238 
Q 1616 4238 1336 4038 
Q 1056 3838 1056 3469 
Q 1056 3159 1242 3001 
Q 1428 2844 1947 2747 
L 2328 2669 
Q 3034 2534 3370 2195 
Q 3706 1856 3706 1288 
Q 3706 609 3251 259 
Q 2797 -91 1919 -91 
Q 1588 -91 1214 -16 
Q 841 59 441 206 
L 441 856 
Q 825 641 1194 531 
Q 1563 422 1919 422 
Q 2459 422 2753 634 
Q 3047 847 3047 1241 
Q 3047 1584 2836 1778 
Q 2625 1972 2144 2069 
L 1759 2144 
Q 1053 2284 737 2584 
Q 422 2884 422 3419 
Q 422 4038 858 4394 
Q 1294 4750 2059 4750 
Q 2388 4750 2728 4690 
Q 3069 4631 3425 4513 
z
" transform="scale(0.015625)"/>
       <path id="DejaVuSans-6f" d="M 1959 3097 
Q 1497 3097 1228 2736 
Q 959 2375 959 1747 
Q 959 1119 1226 758 
Q 1494 397 1959 397 
Q 2419 397 2687 759 
Q 2956 1122 2956 1747 
Q 2956 2369 2687 2733 
Q 2419 3097 1959 3097 
z
M 1959 3584 
Q 2709 3584 3137 3096 
Q 3566 2609 3566 1747 
Q 3566 888 3137 398 
Q 2709 -91 1959 -91 
Q 1206 -91 779 398 
Q 353 888 353 1747 
Q 353 2609 779 3096 
Q 1206 3584 1959 3584 
z
" transform="scale(0.015625)"/>
       <path id="DejaVuSans-61" d="M 2194 1759 
Q 1497 1759 1228 1600 
Q 959 1441 959 1056 
Q 959 750 1161 570 
Q 1363 391 1709 391 
Q 2188 391 2477 730 
Q 2766 1069 2766 1631 
L 2766 1759 
L 2194 1759 
z
M 3341 1997 
L 3341 0 
L 2766 0 
L 2766 531 
Q 2569 213 2275 61 
Q 1981 -91 1556 -91 
Q 1019 -91 701 211 
Q 384 513 384 1019 
Q 384 1609 779 1909 
Q 1175 2209 1959 2209 
L 2766 2209 
L 2766 2266 
Q 2766 2663 2505 2880 
Q 2244 3097 1772 3097 
Q 1472 3097 1187 3025 
Q 903 2953 641 2809 
L 641 3341 
Q 956 3463 1253 3523 
Q 1550 3584 1831 3584 
Q 2591 3584 2966 3190 
Q 3341 2797 3341 1997 
z
" transform="scale(0.015625)"/>
      </defs>
      <use xlink:href="#DejaVuSans-53"/>
      <use xlink:href="#DejaVuSans-6f" x="63.476562"/>
      <use xlink:href="#DejaVuSans-6d" x="124.658203"/>
      <use xlink:href="#DejaVuSans-61" x="222.070312"/>
     </g>
    </g>
    <g id="line2d_26">
     <path d="M 117 62.336562 
L 127 62.336562 
L 137 62.336562 
" style="fill: none; stroke: #4169e1; stroke-width: 1.5; stroke-linecap: square"/>
    </g>
    <g id="text_15">
     <!-- Dendrite -->
     <g transform="translate(145 65.836562) scale(0.1 -0.1)">
      <defs>
       <path id="DejaVuSans-44" d="M 1259 4147 
L 1259 519 
L 2022 519 
Q 2988 519 3436 956 
Q 3884 1394 3884 2338 
Q 3884 3275 3436 3711 
Q 2988 4147 2022 4147 
L 1259 4147 
z
M 628 4666 
L 1925 4666 
Q 3281 4666 3915 4102 
Q 4550 3538 4550 2338 
Q 4550 1131 3912 565 
Q 3275 0 1925 0 
L 628 0 
L 628 4666 
z
" transform="scale(0.015625)"/>
       <path id="DejaVuSans-6e" d="M 3513 2113 
L 3513 0 
L 2938 0 
L 2938 2094 
Q 2938 2591 2744 2837 
Q 2550 3084 2163 3084 
Q 1697 3084 1428 2787 
Q 1159 2491 1159 1978 
L 1159 0 
L 581 0 
L 581 3500 
L 1159 3500 
L 1159 2956 
Q 1366 3272 1645 3428 
Q 1925 3584 2291 3584 
Q 2894 3584 3203 3211 
Q 3513 2838 3513 2113 
z
" transform="scale(0.015625)"/>
       <path id="DejaVuSans-64" d="M 2906 2969 
L 2906 4863 
L 3481 4863 
L 3481 0 
L 2906 0 
L 2906 525 
Q 2725 213 2448 61 
Q 2172 -91 1784 -91 
Q 1150 -91 751 415 
Q 353 922 353 1747 
Q 353 2572 751 3078 
Q 1150 3584 1784 3584 
Q 2172 3584 2448 3432 
Q 2725 3281 2906 2969 
z
M 947 1747 
Q 947 1113 1208 752 
Q 1469 391 1925 391 
Q 2381 391 2643 752 
Q 2906 1113 2906 1747 
Q 2906 2381 2643 2742 
Q 2381 3103 1925 3103 
Q 1469 3103 1208 2742 
Q 947 2381 947 1747 
z
" transform="scale(0.015625)"/>
       <path id="DejaVuSans-72" d="M 2631 2963 
Q 2534 3019 2420 3045 
Q 2306 3072 2169 3072 
Q 1681 3072 1420 2755 
Q 1159 2438 1159 1844 
L 1159 0 
L 581 0 
L 581 3500 
L 1159 3500 
L 1159 2956 
Q 1341 3275 1631 3429 
Q 1922 3584 2338 3584 
Q 2397 3584 2469 3576 
Q 2541 3569 2628 3553 
L 2631 2963 
z
" transform="scale(0.015625)"/>
       <path id="DejaVuSans-74" d="M 1172 4494 
L 1172 3500 
L 2356 3500 
L 2356 3053 
L 1172 3053 
L 1172 1153 
Q 1172 725 1289 603 
Q 1406 481 1766 481 
L 2356 481 
L 2356 0 
L 1766 0 
Q 1100 0 847 248 
Q 594 497 594 1153 
L 594 3053 
L 172 3053 
L 172 3500 
L 594 3500 
L 594 4494 
L 1172 4494 
z
" transform="scale(0.015625)"/>
      </defs>
      <use xlink:href="#DejaVuSans-44"/>
      <use xlink:href="#DejaVuSans-65" x="77.001953"/>
      <use xlink:href="#DejaVuSans-6e" x="138.525391"/>
      <use xlink:href="#DejaVuSans-64" x="201.904297"/>
      <use xlink:href="#DejaVuSans-72" x="265.380859"/>
      <use xlink:href="#DejaVuSans-69" x="306.494141"/>
      <use xlink:href="#DejaVuSans-74" x="334.277344"/>
      <use xlink:href="#DejaVuSans-65" x="373.486328"/>
     </g>
    </g>
   </g>
  </g>
 </g>
 <defs>
  <clipPath id="p2b7a952dd0">
   <rect x="108" y="34.56" width="669.6" height="221.76"/>
  </clipPath>
 </defs>
</svg>
