<?xml version="1.0" encoding="utf-8" standalone="no"?>
<!DOCTYPE svg PUBLIC "-//W3C//DTD SVG 1.1//EN"
  "http://www.w3.org/Graphics/SVG/1.1/DTD/svg11.dtd">
<svg xmlns:xlink="http://www.w3.org/1999/xlink" width="864pt" height="288pt" viewBox="0 0 864 288" xmlns="http://www.w3.org/2000/svg" version="1.1">
 <metadata>
  <rdf:RDF xmlns:dc="http://purl.org/dc/elements/1.1/" xmlns:cc="http://creativecommons.org/ns#" xmlns:rdf="http://www.w3.org/1999/02/22-rdf-syntax-ns#">
   <cc:Work>
    <dc:type rdf:resource="http://purl.org/dc/dcmitype/StillImage"/>
    <dc:date>2024-04-23T19:18:40.487297</dc:date>
    <dc:format>image/svg+xml</dc:format>
    <dc:creator>
     <cc:Agent>
      <dc:title>Matplotlib v3.8.2, https://matplotlib.org/</dc:title>
     </cc:Agent>
    </dc:creator>
   </cc:Work>
  </rdf:RDF>
 </metadata>
 <defs>
  <style type="text/css">*{stroke-linejoin: round; stroke-linecap: butt}</style>
 </defs>
 <g id="figure_1">
  <g id="patch_1">
   <path d="M 0 288 
L 864 288 
L 864 0 
L 0 0 
z
" style="fill: #ffffff"/>
  </g>
  <g id="axes_1">
   <g id="patch_2">
    <path d="M 108 256.32 
L 777.6 256.32 
L 777.6 34.56 
L 108 34.56 
z
" style="fill: #ffffff"/>
   </g>
   <g id="matplotlib.axis_1">
    <g id="xtick_1">
     <g id="line2d_1">
      <path d="M 108 256.32 
L 108 34.56 
" clip-path="url(#p5e657b9c7a)" style="fill: none; stroke: #b0b0b0; stroke-width: 0.8; stroke-linecap: square"/>
     </g>
     <g id="line2d_2">
      <defs>
       <path id="me65ac71440" d="M 0 0 
L 0 3.5 
" style="stroke: #000000; stroke-width: 0.8"/>
      </defs>
      <g>
       <use xlink:href="#me65ac71440" x="108" y="256.32" style="stroke: #000000; stroke-width: 0.8"/>
      </g>
     </g>
     <g id="text_1">
      <!-- 100 -->
      <g transform="translate(94.63875 273.957812) scale(0.14 -0.14)">
       <defs>
        <path id="DejaVuSans-31" d="M 794 531 
L 1825 531 
L 1825 4091 
L 703 3866 
L 703 4441 
L 1819 4666 
L 2450 4666 
L 2450 531 
L 3481 531 
L 3481 0 
L 794 0 
L 794 531 
z
" transform="scale(0.015625)"/>
        <path id="DejaVuSans-30" d="M 2034 4250 
Q 1547 4250 1301 3770 
Q 1056 3291 1056 2328 
Q 1056 1369 1301 889 
Q 1547 409 2034 409 
Q 2525 409 2770 889 
Q 3016 1369 3016 2328 
Q 3016 3291 2770 3770 
Q 2525 4250 2034 4250 
z
M 2034 4750 
Q 2819 4750 3233 4129 
Q 3647 3509 3647 2328 
Q 3647 1150 3233 529 
Q 2819 -91 2034 -91 
Q 1250 -91 836 529 
Q 422 1150 422 2328 
Q 422 3509 836 4129 
Q 1250 4750 2034 4750 
z
" transform="scale(0.015625)"/>
       </defs>
       <use xlink:href="#DejaVuSans-31"/>
       <use xlink:href="#DejaVuSans-30" x="63.623047"/>
       <use xlink:href="#DejaVuSans-30" x="127.246094"/>
      </g>
     </g>
    </g>
    <g id="xtick_2">
     <g id="line2d_3">
      <path d="M 241.92 256.32 
L 241.92 34.56 
" clip-path="url(#p5e657b9c7a)" style="fill: none; stroke: #b0b0b0; stroke-width: 0.8; stroke-linecap: square"/>
     </g>
     <g id="line2d_4">
      <g>
       <use xlink:href="#me65ac71440" x="241.92" y="256.32" style="stroke: #000000; stroke-width: 0.8"/>
      </g>
     </g>
     <g id="text_2">
      <!-- 120 -->
      <g transform="translate(228.55875 273.957812) scale(0.14 -0.14)">
       <defs>
        <path id="DejaVuSans-32" d="M 1228 531 
L 3431 531 
L 3431 0 
L 469 0 
L 469 531 
Q 828 903 1448 1529 
Q 2069 2156 2228 2338 
Q 2531 2678 2651 2914 
Q 2772 3150 2772 3378 
Q 2772 3750 2511 3984 
Q 2250 4219 1831 4219 
Q 1534 4219 1204 4116 
Q 875 4013 500 3803 
L 500 4441 
Q 881 4594 1212 4672 
Q 1544 4750 1819 4750 
Q 2544 4750 2975 4387 
Q 3406 4025 3406 3419 
Q 3406 3131 3298 2873 
Q 3191 2616 2906 2266 
Q 2828 2175 2409 1742 
Q 1991 1309 1228 531 
z
" transform="scale(0.015625)"/>
       </defs>
       <use xlink:href="#DejaVuSans-31"/>
       <use xlink:href="#DejaVuSans-32" x="63.623047"/>
       <use xlink:href="#DejaVuSans-30" x="127.246094"/>
      </g>
     </g>
    </g>
    <g id="xtick_3">
     <g id="line2d_5">
      <path d="M 375.84 256.32 
L 375.84 34.56 
" clip-path="url(#p5e657b9c7a)" style="fill: none; stroke: #b0b0b0; stroke-width: 0.8; stroke-linecap: square"/>
     </g>
     <g id="line2d_6">
      <g>
       <use xlink:href="#me65ac71440" x="375.84" y="256.32" style="stroke: #000000; stroke-width: 0.8"/>
      </g>
     </g>
     <g id="text_3">
      <!-- 140 -->
      <g transform="translate(362.47875 273.957812) scale(0.14 -0.14)">
       <defs>
        <path id="DejaVuSans-34" d="M 2419 4116 
L 825 1625 
L 2419 1625 
L 2419 4116 
z
M 2253 4666 
L 3047 4666 
L 3047 1625 
L 3713 1625 
L 3713 1100 
L 3047 1100 
L 3047 0 
L 2419 0 
L 2419 1100 
L 313 1100 
L 313 1709 
L 2253 4666 
z
" transform="scale(0.015625)"/>
       </defs>
       <use xlink:href="#DejaVuSans-31"/>
       <use xlink:href="#DejaVuSans-34" x="63.623047"/>
       <use xlink:href="#DejaVuSans-30" x="127.246094"/>
      </g>
     </g>
    </g>
    <g id="xtick_4">
     <g id="line2d_7">
      <path d="M 509.76 256.32 
L 509.76 34.56 
" clip-path="url(#p5e657b9c7a)" style="fill: none; stroke: #b0b0b0; stroke-width: 0.8; stroke-linecap: square"/>
     </g>
     <g id="line2d_8">
      <g>
       <use xlink:href="#me65ac71440" x="509.76" y="256.32" style="stroke: #000000; stroke-width: 0.8"/>
      </g>
     </g>
     <g id="text_4">
      <!-- 160 -->
      <g transform="translate(496.39875 273.957812) scale(0.14 -0.14)">
       <defs>
        <path id="DejaVuSans-36" d="M 2113 2584 
Q 1688 2584 1439 2293 
Q 1191 2003 1191 1497 
Q 1191 994 1439 701 
Q 1688 409 2113 409 
Q 2538 409 2786 701 
Q 3034 994 3034 1497 
Q 3034 2003 2786 2293 
Q 2538 2584 2113 2584 
z
M 3366 4563 
L 3366 3988 
Q 3128 4100 2886 4159 
Q 2644 4219 2406 4219 
Q 1781 4219 1451 3797 
Q 1122 3375 1075 2522 
Q 1259 2794 1537 2939 
Q 1816 3084 2150 3084 
Q 2853 3084 3261 2657 
Q 3669 2231 3669 1497 
Q 3669 778 3244 343 
Q 2819 -91 2113 -91 
Q 1303 -91 875 529 
Q 447 1150 447 2328 
Q 447 3434 972 4092 
Q 1497 4750 2381 4750 
Q 2619 4750 2861 4703 
Q 3103 4656 3366 4563 
z
" transform="scale(0.015625)"/>
       </defs>
       <use xlink:href="#DejaVuSans-31"/>
       <use xlink:href="#DejaVuSans-36" x="63.623047"/>
       <use xlink:href="#DejaVuSans-30" x="127.246094"/>
      </g>
     </g>
    </g>
    <g id="xtick_5">
     <g id="line2d_9">
      <path d="M 643.68 256.32 
L 643.68 34.56 
" clip-path="url(#p5e657b9c7a)" style="fill: none; stroke: #b0b0b0; stroke-width: 0.8; stroke-linecap: square"/>
     </g>
     <g id="line2d_10">
      <g>
       <use xlink:href="#me65ac71440" x="643.68" y="256.32" style="stroke: #000000; stroke-width: 0.8"/>
      </g>
     </g>
     <g id="text_5">
      <!-- 180 -->
      <g transform="translate(630.31875 273.957812) scale(0.14 -0.14)">
       <defs>
        <path id="DejaVuSans-38" d="M 2034 2216 
Q 1584 2216 1326 1975 
Q 1069 1734 1069 1313 
Q 1069 891 1326 650 
Q 1584 409 2034 409 
Q 2484 409 2743 651 
Q 3003 894 3003 1313 
Q 3003 1734 2745 1975 
Q 2488 2216 2034 2216 
z
M 1403 2484 
Q 997 2584 770 2862 
Q 544 3141 544 3541 
Q 544 4100 942 4425 
Q 1341 4750 2034 4750 
Q 2731 4750 3128 4425 
Q 3525 4100 3525 3541 
Q 3525 3141 3298 2862 
Q 3072 2584 2669 2484 
Q 3125 2378 3379 2068 
Q 3634 1759 3634 1313 
Q 3634 634 3220 271 
Q 2806 -91 2034 -91 
Q 1263 -91 848 271 
Q 434 634 434 1313 
Q 434 1759 690 2068 
Q 947 2378 1403 2484 
z
M 1172 3481 
Q 1172 3119 1398 2916 
Q 1625 2713 2034 2713 
Q 2441 2713 2670 2916 
Q 2900 3119 2900 3481 
Q 2900 3844 2670 4047 
Q 2441 4250 2034 4250 
Q 1625 4250 1398 4047 
Q 1172 3844 1172 3481 
z
" transform="scale(0.015625)"/>
       </defs>
       <use xlink:href="#DejaVuSans-31"/>
       <use xlink:href="#DejaVuSans-38" x="63.623047"/>
       <use xlink:href="#DejaVuSans-30" x="127.246094"/>
      </g>
     </g>
    </g>
    <g id="xtick_6">
     <g id="line2d_11">
      <path d="M 777.6 256.32 
L 777.6 34.56 
" clip-path="url(#p5e657b9c7a)" style="fill: none; stroke: #b0b0b0; stroke-width: 0.8; stroke-linecap: square"/>
     </g>
     <g id="line2d_12">
      <g>
       <use xlink:href="#me65ac71440" x="777.6" y="256.32" style="stroke: #000000; stroke-width: 0.8"/>
      </g>
     </g>
     <g id="text_6">
      <!-- 200 -->
      <g transform="translate(764.23875 273.957812) scale(0.14 -0.14)">
       <use xlink:href="#DejaVuSans-32"/>
       <use xlink:href="#DejaVuSans-30" x="63.623047"/>
       <use xlink:href="#DejaVuSans-30" x="127.246094"/>
      </g>
     </g>
    </g>
    <g id="text_7">
     <!-- Time (ms) -->
     <g transform="translate(407.521094 291.507187) scale(0.14 -0.14)">
      <defs>
       <path id="DejaVuSans-54" d="M -19 4666 
L 3928 4666 
L 3928 4134 
L 2272 4134 
L 2272 0 
L 1638 0 
L 1638 4134 
L -19 4134 
L -19 4666 
z
" transform="scale(0.015625)"/>
       <path id="DejaVuSans-69" d="M 603 3500 
L 1178 3500 
L 1178 0 
L 603 0 
L 603 3500 
z
M 603 4863 
L 1178 4863 
L 1178 4134 
L 603 4134 
L 603 4863 
z
" transform="scale(0.015625)"/>
       <path id="DejaVuSans-6d" d="M 3328 2828 
Q 3544 3216 3844 3400 
Q 4144 3584 4550 3584 
Q 5097 3584 5394 3201 
Q 5691 2819 5691 2113 
L 5691 0 
L 5113 0 
L 5113 2094 
Q 5113 2597 4934 2840 
Q 4756 3084 4391 3084 
Q 3944 3084 3684 2787 
Q 3425 2491 3425 1978 
L 3425 0 
L 2847 0 
L 2847 2094 
Q 2847 2600 2669 2842 
Q 2491 3084 2119 3084 
Q 1678 3084 1418 2786 
Q 1159 2488 1159 1978 
L 1159 0 
L 581 0 
L 581 3500 
L 1159 3500 
L 1159 2956 
Q 1356 3278 1631 3431 
Q 1906 3584 2284 3584 
Q 2666 3584 2933 3390 
Q 3200 3197 3328 2828 
z
" transform="scale(0.015625)"/>
       <path id="DejaVuSans-65" d="M 3597 1894 
L 3597 1613 
L 953 1613 
Q 991 1019 1311 708 
Q 1631 397 2203 397 
Q 2534 397 2845 478 
Q 3156 559 3463 722 
L 3463 178 
Q 3153 47 2828 -22 
Q 2503 -91 2169 -91 
Q 1331 -91 842 396 
Q 353 884 353 1716 
Q 353 2575 817 3079 
Q 1281 3584 2069 3584 
Q 2775 3584 3186 3129 
Q 3597 2675 3597 1894 
z
M 3022 2063 
Q 3016 2534 2758 2815 
Q 2500 3097 2075 3097 
Q 1594 3097 1305 2825 
Q 1016 2553 972 2059 
L 3022 2063 
z
" transform="scale(0.015625)"/>
       <path id="DejaVuSans-20" transform="scale(0.015625)"/>
       <path id="DejaVuSans-28" d="M 1984 4856 
Q 1566 4138 1362 3434 
Q 1159 2731 1159 2009 
Q 1159 1288 1364 580 
Q 1569 -128 1984 -844 
L 1484 -844 
Q 1016 -109 783 600 
Q 550 1309 550 2009 
Q 550 2706 781 3412 
Q 1013 4119 1484 4856 
L 1984 4856 
z
" transform="scale(0.015625)"/>
       <path id="DejaVuSans-73" d="M 2834 3397 
L 2834 2853 
Q 2591 2978 2328 3040 
Q 2066 3103 1784 3103 
Q 1356 3103 1142 2972 
Q 928 2841 928 2578 
Q 928 2378 1081 2264 
Q 1234 2150 1697 2047 
L 1894 2003 
Q 2506 1872 2764 1633 
Q 3022 1394 3022 966 
Q 3022 478 2636 193 
Q 2250 -91 1575 -91 
Q 1294 -91 989 -36 
Q 684 19 347 128 
L 347 722 
Q 666 556 975 473 
Q 1284 391 1588 391 
Q 1994 391 2212 530 
Q 2431 669 2431 922 
Q 2431 1156 2273 1281 
Q 2116 1406 1581 1522 
L 1381 1569 
Q 847 1681 609 1914 
Q 372 2147 372 2553 
Q 372 3047 722 3315 
Q 1072 3584 1716 3584 
Q 2034 3584 2315 3537 
Q 2597 3491 2834 3397 
z
" transform="scale(0.015625)"/>
       <path id="DejaVuSans-29" d="M 513 4856 
L 1013 4856 
Q 1481 4119 1714 3412 
Q 1947 2706 1947 2009 
Q 1947 1309 1714 600 
Q 1481 -109 1013 -844 
L 513 -844 
Q 928 -128 1133 580 
Q 1338 1288 1338 2009 
Q 1338 2731 1133 3434 
Q 928 4138 513 4856 
z
" transform="scale(0.015625)"/>
      </defs>
      <use xlink:href="#DejaVuSans-54"/>
      <use xlink:href="#DejaVuSans-69" x="57.958984"/>
      <use xlink:href="#DejaVuSans-6d" x="85.742188"/>
      <use xlink:href="#DejaVuSans-65" x="183.154297"/>
      <use xlink:href="#DejaVuSans-20" x="244.677734"/>
      <use xlink:href="#DejaVuSans-28" x="276.464844"/>
      <use xlink:href="#DejaVuSans-6d" x="315.478516"/>
      <use xlink:href="#DejaVuSans-73" x="412.890625"/>
      <use xlink:href="#DejaVuSans-29" x="464.990234"/>
     </g>
    </g>
   </g>
   <g id="matplotlib.axis_2">
    <g id="ytick_1">
     <g id="line2d_13">
      <path d="M 108 225.072421 
L 777.6 225.072421 
" clip-path="url(#p5e657b9c7a)" style="fill: none; stroke: #b0b0b0; stroke-width: 0.8; stroke-linecap: square"/>
     </g>
     <g id="line2d_14">
      <defs>
       <path id="md6d8008e1d" d="M 0 0 
L -3.5 0 
" style="stroke: #000000; stroke-width: 0.8"/>
      </defs>
      <g>
       <use xlink:href="#md6d8008e1d" x="108" y="225.072421" style="stroke: #000000; stroke-width: 0.8"/>
      </g>
     </g>
     <g id="text_8">
      <!-- −60 -->
      <g transform="translate(71.453437 230.391327) scale(0.14 -0.14)">
       <defs>
        <path id="DejaVuSans-2212" d="M 678 2272 
L 4684 2272 
L 4684 1741 
L 678 1741 
L 678 2272 
z
" transform="scale(0.015625)"/>
       </defs>
       <use xlink:href="#DejaVuSans-2212"/>
       <use xlink:href="#DejaVuSans-36" x="83.789062"/>
       <use xlink:href="#DejaVuSans-30" x="147.412109"/>
      </g>
     </g>
    </g>
    <g id="ytick_2">
     <g id="line2d_15">
      <path d="M 108 182.80472 
L 777.6 182.80472 
" clip-path="url(#p5e657b9c7a)" style="fill: none; stroke: #b0b0b0; stroke-width: 0.8; stroke-linecap: square"/>
     </g>
     <g id="line2d_16">
      <g>
       <use xlink:href="#md6d8008e1d" x="108" y="182.80472" style="stroke: #000000; stroke-width: 0.8"/>
      </g>
     </g>
     <g id="text_9">
      <!-- −40 -->
      <g transform="translate(71.453437 188.123626) scale(0.14 -0.14)">
       <use xlink:href="#DejaVuSans-2212"/>
       <use xlink:href="#DejaVuSans-34" x="83.789062"/>
       <use xlink:href="#DejaVuSans-30" x="147.412109"/>
      </g>
     </g>
    </g>
    <g id="ytick_3">
     <g id="line2d_17">
      <path d="M 108 140.537019 
L 777.6 140.537019 
" clip-path="url(#p5e657b9c7a)" style="fill: none; stroke: #b0b0b0; stroke-width: 0.8; stroke-linecap: square"/>
     </g>
     <g id="line2d_18">
      <g>
       <use xlink:href="#md6d8008e1d" x="108" y="140.537019" style="stroke: #000000; stroke-width: 0.8"/>
      </g>
     </g>
     <g id="text_10">
      <!-- −20 -->
      <g transform="translate(71.453437 145.855925) scale(0.14 -0.14)">
       <use xlink:href="#DejaVuSans-2212"/>
       <use xlink:href="#DejaVuSans-32" x="83.789062"/>
       <use xlink:href="#DejaVuSans-30" x="147.412109"/>
      </g>
     </g>
    </g>
    <g id="ytick_4">
     <g id="line2d_19">
      <path d="M 108 98.269318 
L 777.6 98.269318 
" clip-path="url(#p5e657b9c7a)" style="fill: none; stroke: #b0b0b0; stroke-width: 0.8; stroke-linecap: square"/>
     </g>
     <g id="line2d_20">
      <g>
       <use xlink:href="#md6d8008e1d" x="108" y="98.269318" style="stroke: #000000; stroke-width: 0.8"/>
      </g>
     </g>
     <g id="text_11">
      <!-- 0 -->
      <g transform="translate(92.0925 103.588225) scale(0.14 -0.14)">
       <use xlink:href="#DejaVuSans-30"/>
      </g>
     </g>
    </g>
    <g id="ytick_5">
     <g id="line2d_21">
      <path d="M 108 56.001618 
L 777.6 56.001618 
" clip-path="url(#p5e657b9c7a)" style="fill: none; stroke: #b0b0b0; stroke-width: 0.8; stroke-linecap: square"/>
     </g>
     <g id="line2d_22">
      <g>
       <use xlink:href="#md6d8008e1d" x="108" y="56.001618" style="stroke: #000000; stroke-width: 0.8"/>
      </g>
     </g>
     <g id="text_12">
      <!-- 20 -->
      <g transform="translate(83.185 61.320524) scale(0.14 -0.14)">
       <use xlink:href="#DejaVuSans-32"/>
       <use xlink:href="#DejaVuSans-30" x="63.623047"/>
      </g>
     </g>
    </g>
    <g id="text_13">
     <!-- $V_{m}$ (mV) -->
     <g transform="translate(64.541875 174.49) rotate(-90) scale(0.14 -0.14)">
      <defs>
       <path id="DejaVuSans-Oblique-56" d="M 1319 0 
L 500 4666 
L 1119 4666 
L 1797 653 
L 4063 4666 
L 4750 4666 
L 2053 0 
L 1319 0 
z
" transform="scale(0.015625)"/>
       <path id="DejaVuSans-Oblique-6d" d="M 5747 2113 
L 5338 0 
L 4763 0 
L 5166 2094 
Q 5191 2228 5203 2325 
Q 5216 2422 5216 2491 
Q 5216 2772 5059 2928 
Q 4903 3084 4622 3084 
Q 4203 3084 3875 2770 
Q 3547 2456 3450 1953 
L 3066 0 
L 2491 0 
L 2900 2094 
Q 2925 2209 2937 2307 
Q 2950 2406 2950 2484 
Q 2950 2769 2794 2926 
Q 2638 3084 2363 3084 
Q 1938 3084 1609 2770 
Q 1281 2456 1184 1953 
L 800 0 
L 225 0 
L 909 3500 
L 1484 3500 
L 1375 2956 
Q 1609 3263 1923 3423 
Q 2238 3584 2597 3584 
Q 2978 3584 3223 3384 
Q 3469 3184 3519 2828 
Q 3781 3197 4126 3390 
Q 4472 3584 4856 3584 
Q 5306 3584 5551 3325 
Q 5797 3066 5797 2591 
Q 5797 2488 5784 2364 
Q 5772 2241 5747 2113 
z
" transform="scale(0.015625)"/>
       <path id="DejaVuSans-56" d="M 1831 0 
L 50 4666 
L 709 4666 
L 2188 738 
L 3669 4666 
L 4325 4666 
L 2547 0 
L 1831 0 
z
" transform="scale(0.015625)"/>
      </defs>
      <use xlink:href="#DejaVuSans-Oblique-56" transform="translate(0 0.125)"/>
      <use xlink:href="#DejaVuSans-Oblique-6d" transform="translate(68.408203 -16.28125) scale(0.7)"/>
      <use xlink:href="#DejaVuSans-20" transform="translate(139.331055 0.125)"/>
      <use xlink:href="#DejaVuSans-28" transform="translate(171.118164 0.125)"/>
      <use xlink:href="#DejaVuSans-6d" transform="translate(210.131836 0.125)"/>
      <use xlink:href="#DejaVuSans-56" transform="translate(307.543945 0.125)"/>
      <use xlink:href="#DejaVuSans-29" transform="translate(375.952148 0.125)"/>
     </g>
    </g>
   </g>
   <g id="line2d_23">
    <path d="M 108 217.655923 
L 108.6696 218.587005 
L 109.3392 219.103317 
L 110.0088 219.814054 
L 110.6784 220.343832 
L 111.348 220.662727 
L 112.0176 221.251911 
L 112.6872 222.077189 
L 113.3568 222.648825 
L 115.3656 223.745821 
L 116.0352 224.15511 
L 117.3744 224.556381 
L 118.044 224.662459 
L 119.3832 226.052469 
L 120.7224 227.555513 
L 122.0616 229.941984 
L 122.7312 230.711439 
L 124.0704 231.567723 
L 125.4096 232.062748 
L 126.7488 232.373658 
L 127.4184 232.775256 
L 128.088 233.382707 
L 128.7576 233.803466 
L 129.4272 234.61516 
L 130.7664 236.804023 
L 131.436 237.47178 
L 134.1144 239.065119 
L 135.4536 239.490997 
L 137.4624 239.797985 
L 138.8016 239.875658 
L 140.1408 240.31365 
L 141.48 240.430274 
L 143.4888 240.375599 
L 146.1672 240.080686 
L 149.5152 239.460882 
L 152.8632 238.622297 
L 156.8808 237.380696 
L 161.568 235.663475 
L 166.2552 233.705302 
L 171.612 231.22183 
L 177.6384 228.169892 
L 184.3344 224.524155 
L 193.0392 219.500478 
L 203.0832 213.513127 
L 203.7528 213.581399 
L 204.4224 214.0514 
L 205.092 214.303709 
L 206.4312 214.257389 
L 208.44 213.768186 
L 211.1184 212.855561 
L 212.4576 213.215502 
L 213.7968 213.106017 
L 215.8056 212.63564 
L 219.1536 211.572171 
L 223.8408 209.810656 
L 225.18 210.194702 
L 226.5192 210.11433 
L 227.1888 209.993739 
L 228.528 210.591478 
L 229.1976 210.675738 
L 229.8672 211.127111 
L 230.5368 211.443312 
L 231.876 211.567055 
L 233.2152 211.44778 
L 233.8848 211.817243 
L 234.5544 212.565571 
L 235.224 213.522856 
L 235.8936 214.16533 
L 236.5632 214.533257 
L 237.2328 214.763622 
L 238.572 215.807776 
L 239.9112 216.243008 
L 241.2504 216.416612 
L 241.92 216.448817 
L 242.5896 217.298861 
L 243.2592 218.392055 
L 246.6072 221.869374 
L 247.9464 222.514627 
L 248.616 223.452512 
L 249.2856 224.909386 
L 249.9552 225.925807 
L 250.6248 227.214227 
L 252.6336 230.131521 
L 254.6424 232.291435 
L 255.9816 233.068235 
L 257.3208 233.568094 
L 258.66 234.418035 
L 259.9992 234.848798 
L 262.008 235.174137 
L 264.0168 235.285301 
L 266.6952 235.196533 
L 268.0344 235.57957 
L 269.3736 235.622643 
L 270.0432 235.587008 
L 271.3824 235.961168 
L 272.7216 235.985301 
L 273.3912 235.938396 
L 276.0696 236.778734 
L 277.4088 236.848008 
L 278.748 236.755185 
L 280.0872 237.072633 
L 281.4264 237.049747 
L 283.4352 236.781929 
L 286.1136 236.219572 
L 289.4616 235.297996 
L 293.4792 233.950046 
L 298.1664 232.1126 
L 302.8536 230.043316 
L 308.2104 227.44696 
L 314.2368 224.289671 
L 321.6024 220.177306 
L 332.316 213.905547 
L 339.012 209.898596 
L 340.3512 210.029464 
L 341.6904 209.718269 
L 343.6992 208.948309 
L 347.0472 207.406127 
L 347.7168 207.069807 
L 349.056 207.367958 
L 350.3952 207.238417 
L 352.404 206.686877 
L 355.0824 205.671879 
L 357.0912 204.766104 
L 358.4304 205.1321 
L 359.7696 205.132889 
L 361.1088 204.901739 
L 362.448 204.534732 
L 363.7872 205.110261 
L 365.1264 207.209267 
L 365.796 207.800608 
L 366.4656 208.178845 
L 367.1352 208.907415 
L 367.8048 209.966846 
L 368.4744 210.742317 
L 369.144 211.22691 
L 370.4832 212.637988 
L 371.1528 213.036416 
L 371.8224 213.756071 
L 372.492 214.762052 
L 373.8312 216.366527 
L 374.5008 217.448646 
L 375.1704 218.226197 
L 376.5096 219.109608 
L 377.8488 219.626032 
L 379.188 221.366754 
L 379.8576 221.840105 
L 381.1968 222.416961 
L 382.536 222.760985 
L 383.2056 222.878326 
L 384.5448 224.365836 
L 385.2144 224.748642 
L 386.5536 225.184051 
L 388.5624 226.630915 
L 390.5712 229.896986 
L 392.58 231.963766 
L 395.928 233.876067 
L 397.2672 234.232654 
L 399.276 234.506825 
L 400.6152 235.083017 
L 401.9544 235.289596 
L 403.9632 235.332985 
L 406.6416 235.136399 
L 409.32 234.734402 
L 410.6592 234.470396 
L 411.9984 234.700729 
L 412.668 234.675685 
L 413.3376 234.887502 
L 414.0072 235.303161 
L 414.6768 235.545885 
L 416.016 235.640267 
L 418.0248 235.459318 
L 420.7032 234.961329 
L 422.0424 234.640645 
L 423.3816 234.815742 
L 424.7208 234.661021 
L 427.3992 234.036497 
L 430.7472 233.00691 
L 434.7648 231.535989 
L 439.452 229.573097 
L 444.8088 227.072245 
L 450.8352 224.000771 
L 458.2008 219.971859 
L 467.5752 214.572818 
L 477.6192 208.569633 
L 481.6368 205.967675 
L 482.976 206.064239 
L 484.3152 205.770199 
L 486.324 204.968311 
L 488.3328 203.872275 
L 490.3416 204.086379 
L 491.0112 203.99526 
L 492.3504 204.738424 
L 493.6896 205.062002 
L 495.0288 206.119133 
L 496.368 207.582039 
L 497.0376 208.006927 
L 498.3768 208.413493 
L 499.716 208.497698 
L 500.3856 208.475697 
L 501.7248 209.279823 
L 503.064 210.465459 
L 504.4032 210.947093 
L 507.0816 213.268171 
L 507.7512 214.04394 
L 508.4208 214.634885 
L 509.0904 215.432874 
L 509.76 216.041257 
L 510.4296 217.257717 
L 511.0992 218.208489 
L 511.7688 219.581717 
L 513.108 221.667477 
L 515.1168 224.050231 
L 516.456 224.914272 
L 517.7952 225.464794 
L 518.4648 225.670307 
L 519.804 226.603933 
L 520.4736 227.541217 
L 522.4824 229.60309 
L 524.4912 230.781938 
L 525.1608 231.503105 
L 525.8304 232.017418 
L 527.1696 232.58447 
L 527.8392 232.765165 
L 529.1784 233.538678 
L 529.848 233.748882 
L 531.1872 234.50715 
L 533.196 235.200706 
L 533.8656 235.482618 
L 535.2048 235.734648 
L 535.8744 235.791128 
L 537.2136 236.31922 
L 538.5528 236.480333 
L 540.5616 236.459751 
L 541.9008 236.843307 
L 543.24 236.886955 
L 545.2488 236.717006 
L 545.9184 236.625885 
L 547.2576 236.90094 
L 548.5968 236.848759 
L 551.2752 236.419612 
L 554.6232 235.606765 
L 558.6408 234.360593 
L 559.3104 234.129254 
L 560.6496 234.19674 
L 561.9888 233.941753 
L 564.6672 233.135929 
L 568.6848 231.646995 
L 573.372 229.648636 
L 578.7288 227.108991 
L 584.7552 224.000099 
L 592.1208 219.933997 
L 602.1648 214.102604 
L 603.504 214.178642 
L 604.8432 213.821698 
L 606.852 213.018232 
L 608.1912 213.295763 
L 609.5304 213.107952 
L 611.5392 212.520848 
L 614.8872 211.264842 
L 617.5656 210.131507 
L 618.9048 210.461767 
L 619.5744 211.391814 
L 620.244 212.121457 
L 620.9136 212.492448 
L 622.2528 212.790119 
L 623.592 212.82699 
L 625.6008 212.649499 
L 626.2704 212.550185 
L 626.94 212.898718 
L 627.6096 214.513616 
L 628.9488 216.84464 
L 629.6184 217.626814 
L 630.288 218.129712 
L 631.6272 218.728995 
L 632.9664 218.981505 
L 634.9752 219.069888 
L 636.3144 219.025348 
L 637.6536 219.667225 
L 638.9928 219.847002 
L 641.0016 219.796153 
L 641.6712 219.734542 
L 642.3408 220.848256 
L 643.0104 222.489749 
L 643.68 223.559817 
L 644.3496 225.231311 
L 645.0192 226.476838 
L 647.028 228.737173 
L 648.3672 229.53571 
L 649.7064 231.145037 
L 651.0456 231.916727 
L 652.3848 232.361965 
L 653.0544 232.518962 
L 654.3936 233.270366 
L 655.0632 233.473405 
L 656.4024 234.225342 
L 658.4112 234.911961 
L 659.0808 235.193064 
L 660.42 235.937443 
L 661.7592 236.221651 
L 664.4376 236.592392 
L 665.7768 236.8616 
L 667.116 236.875148 
L 668.4552 237.275044 
L 669.7944 237.328233 
L 671.8032 237.166447 
L 674.4816 236.730994 
L 675.8208 236.943938 
L 677.16 236.837713 
L 679.8384 236.314388 
L 683.1864 235.401764 
L 685.8648 234.529633 
L 687.204 234.596342 
L 688.5432 234.342556 
L 691.2216 233.539896 
L 695.2392 232.053981 
L 699.9264 230.056389 
L 705.2832 227.514446 
L 711.3096 224.398965 
L 718.6752 220.318604 
L 728.0496 214.853437 
L 736.0848 210.020462 
L 737.424 210.139543 
L 738.0936 210.016342 
L 739.4328 210.507719 
L 740.772 210.451465 
L 742.7808 209.984809 
L 745.4592 209.083406 
L 747.468 208.289319 
L 748.8072 208.682702 
L 750.1464 208.625312 
L 751.4856 210.225655 
L 752.1552 210.61808 
L 752.8248 210.836492 
L 753.4944 211.428245 
L 754.164 212.355113 
L 754.8336 213.013211 
L 755.5032 213.404368 
L 756.8424 213.832615 
L 758.1816 214.026443 
L 760.1904 214.078158 
L 762.8688 213.872346 
L 763.5384 213.785548 
L 764.8776 214.417495 
L 766.2168 214.495317 
L 767.556 215.951966 
L 768.2256 216.27313 
L 769.5648 216.545812 
L 771.5736 216.59559 
L 772.9128 217.289848 
L 773.5824 217.430018 
L 774.252 218.319455 
L 774.9216 219.02269 
L 775.5912 219.406713 
L 776.9304 219.79521 
L 777.6 219.894867 
L 777.6 219.894867 
" clip-path="url(#p5e657b9c7a)" style="fill: none; stroke: #000000; stroke-width: 1.5; stroke-linecap: square"/>
   </g>
   <g id="line2d_24">
    <path d="M 108 132.777918 
L 120.7224 133.615068 
L 122.7312 134.09566 
L 125.4096 134.762747 
L 130.0968 135.690704 
L 136.7928 137.727814 
L 142.8192 138.989073 
L 148.176 139.913572 
L 157.5504 141.264608 
L 170.9424 142.963989 
L 185.004 144.528529 
L 197.0568 145.650495 
L 204.4224 146.309743 
L 206.4312 146.904881 
L 213.7968 149.572405 
L 221.1624 152.757465 
L 225.8496 154.76981 
L 227.8584 155.943515 
L 229.1976 156.89376 
L 229.8672 140.501923 
L 230.5368 137.52274 
L 231.2064 135.912796 
L 231.876 135.06877 
L 232.5456 134.59668 
L 233.8848 134.129115 
L 235.224 133.954633 
L 238.572 133.733928 
L 241.2504 133.328281 
L 243.2592 132.99181 
L 245.268 132.933123 
L 249.2856 133.145169 
L 251.2944 133.555961 
L 257.3208 135.063093 
L 262.008 135.815597 
L 276.0696 137.666976 
L 284.1048 139.191344 
L 290.1312 140.088244 
L 300.1752 141.330587 
L 312.228 142.596529 
L 324.2808 143.643497 
L 336.3336 144.470172 
L 340.3512 144.759038 
L 343.6992 145.394114 
L 350.3952 146.767767 
L 356.4216 148.536277 
L 358.4304 149.088722 
L 361.1088 150.147218 
L 363.1176 151.009215 
L 363.7872 137.442285 
L 364.4568 134.93273 
L 365.1264 133.66615 
L 365.796 133.082258 
L 366.4656 132.82681 
L 367.8048 132.75364 
L 371.8224 133.057479 
L 387.2232 133.313279 
L 389.232 133.524306 
L 391.2408 133.996848 
L 395.2584 135.044538 
L 398.6064 135.702607 
L 407.9808 137.071481 
L 414.0072 137.856339 
L 420.7032 139.182776 
L 426.7296 140.252573 
L 432.756 141.21334 
L 442.1304 142.468201 
L 453.5136 143.765144 
L 464.8968 144.838328 
L 475.6104 145.638689 
L 484.3152 146.248683 
L 491.0112 147.612815 
L 492.3504 148.104691 
L 494.3592 149.12744 
L 495.6984 150.035993 
L 497.0376 151.184444 
L 497.7072 137.742904 
L 498.3768 135.311039 
L 499.0464 134.071339 
L 499.716 133.467523 
L 500.3856 133.161619 
L 501.7248 132.939031 
L 511.7688 132.635619 
L 515.1168 133.133025 
L 517.7952 133.443357 
L 521.1432 133.734228 
L 527.8392 134.945541 
L 555.2928 139.561956 
L 563.328 140.725034 
L 570.024 141.718885 
L 580.068 142.959801 
L 591.4512 144.145598 
L 604.8432 145.464844 
L 608.1912 146.202921 
L 619.5744 149.651879 
L 620.9136 150.452551 
L 623.592 152.47463 
L 627.6096 155.684849 
L 628.9488 157.320489 
L 630.288 159.415078 
L 630.9576 160.56825 
L 631.6272 142.719187 
L 632.2968 139.540524 
L 632.9664 137.854285 
L 633.636 136.994305 
L 634.3056 136.535364 
L 635.6448 136.11907 
L 641.0016 135.07933 
L 643.0104 134.596916 
L 644.3496 134.550238 
L 663.768 136.211895 
L 669.7944 136.920358 
L 680.508 138.167911 
L 708.6312 141.125944 
L 720.684 142.015642 
L 733.4064 142.727951 
L 737.424 142.96081 
L 739.4328 143.347147 
L 750.1464 146.404251 
L 751.4856 147.031679 
L 753.4944 148.344473 
L 754.8336 149.457236 
L 758.1816 152.722739 
L 764.8776 159.367229 
L 765.5472 141.857029 
L 766.2168 138.680222 
L 766.8864 136.969154 
L 767.556 136.100132 
L 768.2256 135.651642 
L 769.5648 135.285071 
L 773.5824 134.645522 
L 777.6 134.008418 
L 777.6 134.008418 
" clip-path="url(#p5e657b9c7a)" style="fill: none; stroke: #4169e1; stroke-width: 1.5; stroke-linecap: square"/>
   </g>
   <g id="patch_3">
    <path d="M 108 256.32 
L 108 34.56 
" style="fill: none; stroke: #000000; stroke-width: 0.8; stroke-linejoin: miter; stroke-linecap: square"/>
   </g>
   <g id="patch_4">
    <path d="M 777.6 256.32 
L 777.6 34.56 
" style="fill: none; stroke: #000000; stroke-width: 0.8; stroke-linejoin: miter; stroke-linecap: square"/>
   </g>
   <g id="patch_5">
    <path d="M 108 256.32 
L 777.6 256.32 
" style="fill: none; stroke: #000000; stroke-width: 0.8; stroke-linejoin: miter; stroke-linecap: square"/>
   </g>
   <g id="patch_6">
    <path d="M 108 34.56 
L 777.6 34.56 
" style="fill: none; stroke: #000000; stroke-width: 0.8; stroke-linejoin: miter; stroke-linecap: square"/>
   </g>
   <g id="legend_1">
    <g id="patch_7">
     <path d="M 695.098438 71.91625 
L 770.6 71.91625 
Q 772.6 71.91625 772.6 69.91625 
L 772.6 41.56 
Q 772.6 39.56 770.6 39.56 
L 695.098438 39.56 
Q 693.098438 39.56 693.098438 41.56 
L 693.098438 69.91625 
Q 693.098438 71.91625 695.098438 71.91625 
z
" style="fill: #ffffff; opacity: 0.8; stroke: #cccccc; stroke-linejoin: miter"/>
    </g>
    <g id="line2d_25">
     <path d="M 697.098438 47.658437 
L 707.098438 47.658437 
L 717.098438 47.658437 
" style="fill: none; stroke: #000000; stroke-width: 1.5; stroke-linecap: square"/>
    </g>
    <g id="text_14">
     <!-- Soma -->
     <g transform="translate(725.098438 51.158437) scale(0.1 -0.1)">
      <defs>
       <path id="DejaVuSans-53" d="M 3425 4513 
L 3425 3897 
Q 3066 4069 2747 4153 
Q 2428 4238 2131 4238 
Q 1616 4238 1336 4038 
Q 1056 3838 1056 3469 
Q 1056 3159 1242 3001 
Q 1428 2844 1947 2747 
L 2328 2669 
Q 3034 2534 3370 2195 
Q 3706 1856 3706 1288 
Q 3706 609 3251 259 
Q 2797 -91 1919 -91 
Q 1588 -91 1214 -16 
Q 841 59 441 206 
L 441 856 
Q 825 641 1194 531 
Q 1563 422 1919 422 
Q 2459 422 2753 634 
Q 3047 847 3047 1241 
Q 3047 1584 2836 1778 
Q 2625 1972 2144 2069 
L 1759 2144 
Q 1053 2284 737 2584 
Q 422 2884 422 3419 
Q 422 4038 858 4394 
Q 1294 4750 2059 4750 
Q 2388 4750 2728 4690 
Q 3069 4631 3425 4513 
z
" transform="scale(0.015625)"/>
       <path id="DejaVuSans-6f" d="M 1959 3097 
Q 1497 3097 1228 2736 
Q 959 2375 959 1747 
Q 959 1119 1226 758 
Q 1494 397 1959 397 
Q 2419 397 2687 759 
Q 2956 1122 2956 1747 
Q 2956 2369 2687 2733 
Q 2419 3097 1959 3097 
z
M 1959 3584 
Q 2709 3584 3137 3096 
Q 3566 2609 3566 1747 
Q 3566 888 3137 398 
Q 2709 -91 1959 -91 
Q 1206 -91 779 398 
Q 353 888 353 1747 
Q 353 2609 779 3096 
Q 1206 3584 1959 3584 
z
" transform="scale(0.015625)"/>
       <path id="DejaVuSans-61" d="M 2194 1759 
Q 1497 1759 1228 1600 
Q 959 1441 959 1056 
Q 959 750 1161 570 
Q 1363 391 1709 391 
Q 2188 391 2477 730 
Q 2766 1069 2766 1631 
L 2766 1759 
L 2194 1759 
z
M 3341 1997 
L 3341 0 
L 2766 0 
L 2766 531 
Q 2569 213 2275 61 
Q 1981 -91 1556 -91 
Q 1019 -91 701 211 
Q 384 513 384 1019 
Q 384 1609 779 1909 
Q 1175 2209 1959 2209 
L 2766 2209 
L 2766 2266 
Q 2766 2663 2505 2880 
Q 2244 3097 1772 3097 
Q 1472 3097 1187 3025 
Q 903 2953 641 2809 
L 641 3341 
Q 956 3463 1253 3523 
Q 1550 3584 1831 3584 
Q 2591 3584 2966 3190 
Q 3341 2797 3341 1997 
z
" transform="scale(0.015625)"/>
      </defs>
      <use xlink:href="#DejaVuSans-53"/>
      <use xlink:href="#DejaVuSans-6f" x="63.476562"/>
      <use xlink:href="#DejaVuSans-6d" x="124.658203"/>
      <use xlink:href="#DejaVuSans-61" x="222.070312"/>
     </g>
    </g>
    <g id="line2d_26">
     <path d="M 697.098438 62.336562 
L 707.098438 62.336562 
L 717.098438 62.336562 
" style="fill: none; stroke: #4169e1; stroke-width: 1.5; stroke-linecap: square"/>
    </g>
    <g id="text_15">
     <!-- Dendrite -->
     <g transform="translate(725.098438 65.836562) scale(0.1 -0.1)">
      <defs>
       <path id="DejaVuSans-44" d="M 1259 4147 
L 1259 519 
L 2022 519 
Q 2988 519 3436 956 
Q 3884 1394 3884 2338 
Q 3884 3275 3436 3711 
Q 2988 4147 2022 4147 
L 1259 4147 
z
M 628 4666 
L 1925 4666 
Q 3281 4666 3915 4102 
Q 4550 3538 4550 2338 
Q 4550 1131 3912 565 
Q 3275 0 1925 0 
L 628 0 
L 628 4666 
z
" transform="scale(0.015625)"/>
       <path id="DejaVuSans-6e" d="M 3513 2113 
L 3513 0 
L 2938 0 
L 2938 2094 
Q 2938 2591 2744 2837 
Q 2550 3084 2163 3084 
Q 1697 3084 1428 2787 
Q 1159 2491 1159 1978 
L 1159 0 
L 581 0 
L 581 3500 
L 1159 3500 
L 1159 2956 
Q 1366 3272 1645 3428 
Q 1925 3584 2291 3584 
Q 2894 3584 3203 3211 
Q 3513 2838 3513 2113 
z
" transform="scale(0.015625)"/>
       <path id="DejaVuSans-64" d="M 2906 2969 
L 2906 4863 
L 3481 4863 
L 3481 0 
L 2906 0 
L 2906 525 
Q 2725 213 2448 61 
Q 2172 -91 1784 -91 
Q 1150 -91 751 415 
Q 353 922 353 1747 
Q 353 2572 751 3078 
Q 1150 3584 1784 3584 
Q 2172 3584 2448 3432 
Q 2725 3281 2906 2969 
z
M 947 1747 
Q 947 1113 1208 752 
Q 1469 391 1925 391 
Q 2381 391 2643 752 
Q 2906 1113 2906 1747 
Q 2906 2381 2643 2742 
Q 2381 3103 1925 3103 
Q 1469 3103 1208 2742 
Q 947 2381 947 1747 
z
" transform="scale(0.015625)"/>
       <path id="DejaVuSans-72" d="M 2631 2963 
Q 2534 3019 2420 3045 
Q 2306 3072 2169 3072 
Q 1681 3072 1420 2755 
Q 1159 2438 1159 1844 
L 1159 0 
L 581 0 
L 581 3500 
L 1159 3500 
L 1159 2956 
Q 1341 3275 1631 3429 
Q 1922 3584 2338 3584 
Q 2397 3584 2469 3576 
Q 2541 3569 2628 3553 
L 2631 2963 
z
" transform="scale(0.015625)"/>
       <path id="DejaVuSans-74" d="M 1172 4494 
L 1172 3500 
L 2356 3500 
L 2356 3053 
L 1172 3053 
L 1172 1153 
Q 1172 725 1289 603 
Q 1406 481 1766 481 
L 2356 481 
L 2356 0 
L 1766 0 
Q 1100 0 847 248 
Q 594 497 594 1153 
L 594 3053 
L 172 3053 
L 172 3500 
L 594 3500 
L 594 4494 
L 1172 4494 
z
" transform="scale(0.015625)"/>
      </defs>
      <use xlink:href="#DejaVuSans-44"/>
      <use xlink:href="#DejaVuSans-65" x="77.001953"/>
      <use xlink:href="#DejaVuSans-6e" x="138.525391"/>
      <use xlink:href="#DejaVuSans-64" x="201.904297"/>
      <use xlink:href="#DejaVuSans-72" x="265.380859"/>
      <use xlink:href="#DejaVuSans-69" x="306.494141"/>
      <use xlink:href="#DejaVuSans-74" x="334.277344"/>
      <use xlink:href="#DejaVuSans-65" x="373.486328"/>
     </g>
    </g>
   </g>
  </g>
 </g>
 <defs>
  <clipPath id="p5e657b9c7a">
   <rect x="108" y="34.56" width="669.6" height="221.76"/>
  </clipPath>
 </defs>
</svg>
