<?xml version="1.0" encoding="utf-8" standalone="no"?>
<!DOCTYPE svg PUBLIC "-//W3C//DTD SVG 1.1//EN"
  "http://www.w3.org/Graphics/SVG/1.1/DTD/svg11.dtd">
<svg xmlns:xlink="http://www.w3.org/1999/xlink" width="864pt" height="288pt" viewBox="0 0 864 288" xmlns="http://www.w3.org/2000/svg" version="1.1">
 <metadata>
  <rdf:RDF xmlns:dc="http://purl.org/dc/elements/1.1/" xmlns:cc="http://creativecommons.org/ns#" xmlns:rdf="http://www.w3.org/1999/02/22-rdf-syntax-ns#">
   <cc:Work>
    <dc:type rdf:resource="http://purl.org/dc/dcmitype/StillImage"/>
    <dc:date>2024-04-23T19:17:29.139188</dc:date>
    <dc:format>image/svg+xml</dc:format>
    <dc:creator>
     <cc:Agent>
      <dc:title>Matplotlib v3.8.2, https://matplotlib.org/</dc:title>
     </cc:Agent>
    </dc:creator>
   </cc:Work>
  </rdf:RDF>
 </metadata>
 <defs>
  <style type="text/css">*{stroke-linejoin: round; stroke-linecap: butt}</style>
 </defs>
 <g id="figure_1">
  <g id="patch_1">
   <path d="M 0 288 
L 864 288 
L 864 0 
L 0 0 
z
" style="fill: #ffffff"/>
  </g>
  <g id="axes_1">
   <g id="patch_2">
    <path d="M 108 256.32 
L 777.6 256.32 
L 777.6 34.56 
L 108 34.56 
z
" style="fill: #ffffff"/>
   </g>
   <g id="matplotlib.axis_1">
    <g id="xtick_1">
     <g id="line2d_1">
      <path d="M 108 256.32 
L 108 34.56 
" clip-path="url(#p05065035cf)" style="fill: none; stroke: #b0b0b0; stroke-width: 0.8; stroke-linecap: square"/>
     </g>
     <g id="line2d_2">
      <defs>
       <path id="m12ce0e74b9" d="M 0 0 
L 0 3.5 
" style="stroke: #000000; stroke-width: 0.8"/>
      </defs>
      <g>
       <use xlink:href="#m12ce0e74b9" x="108" y="256.32" style="stroke: #000000; stroke-width: 0.8"/>
      </g>
     </g>
     <g id="text_1">
      <!-- 100 -->
      <g transform="translate(94.63875 273.957812) scale(0.14 -0.14)">
       <defs>
        <path id="DejaVuSans-31" d="M 794 531 
L 1825 531 
L 1825 4091 
L 703 3866 
L 703 4441 
L 1819 4666 
L 2450 4666 
L 2450 531 
L 3481 531 
L 3481 0 
L 794 0 
L 794 531 
z
" transform="scale(0.015625)"/>
        <path id="DejaVuSans-30" d="M 2034 4250 
Q 1547 4250 1301 3770 
Q 1056 3291 1056 2328 
Q 1056 1369 1301 889 
Q 1547 409 2034 409 
Q 2525 409 2770 889 
Q 3016 1369 3016 2328 
Q 3016 3291 2770 3770 
Q 2525 4250 2034 4250 
z
M 2034 4750 
Q 2819 4750 3233 4129 
Q 3647 3509 3647 2328 
Q 3647 1150 3233 529 
Q 2819 -91 2034 -91 
Q 1250 -91 836 529 
Q 422 1150 422 2328 
Q 422 3509 836 4129 
Q 1250 4750 2034 4750 
z
" transform="scale(0.015625)"/>
       </defs>
       <use xlink:href="#DejaVuSans-31"/>
       <use xlink:href="#DejaVuSans-30" x="63.623047"/>
       <use xlink:href="#DejaVuSans-30" x="127.246094"/>
      </g>
     </g>
    </g>
    <g id="xtick_2">
     <g id="line2d_3">
      <path d="M 241.92 256.32 
L 241.92 34.56 
" clip-path="url(#p05065035cf)" style="fill: none; stroke: #b0b0b0; stroke-width: 0.8; stroke-linecap: square"/>
     </g>
     <g id="line2d_4">
      <g>
       <use xlink:href="#m12ce0e74b9" x="241.92" y="256.32" style="stroke: #000000; stroke-width: 0.8"/>
      </g>
     </g>
     <g id="text_2">
      <!-- 120 -->
      <g transform="translate(228.55875 273.957812) scale(0.14 -0.14)">
       <defs>
        <path id="DejaVuSans-32" d="M 1228 531 
L 3431 531 
L 3431 0 
L 469 0 
L 469 531 
Q 828 903 1448 1529 
Q 2069 2156 2228 2338 
Q 2531 2678 2651 2914 
Q 2772 3150 2772 3378 
Q 2772 3750 2511 3984 
Q 2250 4219 1831 4219 
Q 1534 4219 1204 4116 
Q 875 4013 500 3803 
L 500 4441 
Q 881 4594 1212 4672 
Q 1544 4750 1819 4750 
Q 2544 4750 2975 4387 
Q 3406 4025 3406 3419 
Q 3406 3131 3298 2873 
Q 3191 2616 2906 2266 
Q 2828 2175 2409 1742 
Q 1991 1309 1228 531 
z
" transform="scale(0.015625)"/>
       </defs>
       <use xlink:href="#DejaVuSans-31"/>
       <use xlink:href="#DejaVuSans-32" x="63.623047"/>
       <use xlink:href="#DejaVuSans-30" x="127.246094"/>
      </g>
     </g>
    </g>
    <g id="xtick_3">
     <g id="line2d_5">
      <path d="M 375.84 256.32 
L 375.84 34.56 
" clip-path="url(#p05065035cf)" style="fill: none; stroke: #b0b0b0; stroke-width: 0.8; stroke-linecap: square"/>
     </g>
     <g id="line2d_6">
      <g>
       <use xlink:href="#m12ce0e74b9" x="375.84" y="256.32" style="stroke: #000000; stroke-width: 0.8"/>
      </g>
     </g>
     <g id="text_3">
      <!-- 140 -->
      <g transform="translate(362.47875 273.957812) scale(0.14 -0.14)">
       <defs>
        <path id="DejaVuSans-34" d="M 2419 4116 
L 825 1625 
L 2419 1625 
L 2419 4116 
z
M 2253 4666 
L 3047 4666 
L 3047 1625 
L 3713 1625 
L 3713 1100 
L 3047 1100 
L 3047 0 
L 2419 0 
L 2419 1100 
L 313 1100 
L 313 1709 
L 2253 4666 
z
" transform="scale(0.015625)"/>
       </defs>
       <use xlink:href="#DejaVuSans-31"/>
       <use xlink:href="#DejaVuSans-34" x="63.623047"/>
       <use xlink:href="#DejaVuSans-30" x="127.246094"/>
      </g>
     </g>
    </g>
    <g id="xtick_4">
     <g id="line2d_7">
      <path d="M 509.76 256.32 
L 509.76 34.56 
" clip-path="url(#p05065035cf)" style="fill: none; stroke: #b0b0b0; stroke-width: 0.8; stroke-linecap: square"/>
     </g>
     <g id="line2d_8">
      <g>
       <use xlink:href="#m12ce0e74b9" x="509.76" y="256.32" style="stroke: #000000; stroke-width: 0.8"/>
      </g>
     </g>
     <g id="text_4">
      <!-- 160 -->
      <g transform="translate(496.39875 273.957812) scale(0.14 -0.14)">
       <defs>
        <path id="DejaVuSans-36" d="M 2113 2584 
Q 1688 2584 1439 2293 
Q 1191 2003 1191 1497 
Q 1191 994 1439 701 
Q 1688 409 2113 409 
Q 2538 409 2786 701 
Q 3034 994 3034 1497 
Q 3034 2003 2786 2293 
Q 2538 2584 2113 2584 
z
M 3366 4563 
L 3366 3988 
Q 3128 4100 2886 4159 
Q 2644 4219 2406 4219 
Q 1781 4219 1451 3797 
Q 1122 3375 1075 2522 
Q 1259 2794 1537 2939 
Q 1816 3084 2150 3084 
Q 2853 3084 3261 2657 
Q 3669 2231 3669 1497 
Q 3669 778 3244 343 
Q 2819 -91 2113 -91 
Q 1303 -91 875 529 
Q 447 1150 447 2328 
Q 447 3434 972 4092 
Q 1497 4750 2381 4750 
Q 2619 4750 2861 4703 
Q 3103 4656 3366 4563 
z
" transform="scale(0.015625)"/>
       </defs>
       <use xlink:href="#DejaVuSans-31"/>
       <use xlink:href="#DejaVuSans-36" x="63.623047"/>
       <use xlink:href="#DejaVuSans-30" x="127.246094"/>
      </g>
     </g>
    </g>
    <g id="xtick_5">
     <g id="line2d_9">
      <path d="M 643.68 256.32 
L 643.68 34.56 
" clip-path="url(#p05065035cf)" style="fill: none; stroke: #b0b0b0; stroke-width: 0.8; stroke-linecap: square"/>
     </g>
     <g id="line2d_10">
      <g>
       <use xlink:href="#m12ce0e74b9" x="643.68" y="256.32" style="stroke: #000000; stroke-width: 0.8"/>
      </g>
     </g>
     <g id="text_5">
      <!-- 180 -->
      <g transform="translate(630.31875 273.957812) scale(0.14 -0.14)">
       <defs>
        <path id="DejaVuSans-38" d="M 2034 2216 
Q 1584 2216 1326 1975 
Q 1069 1734 1069 1313 
Q 1069 891 1326 650 
Q 1584 409 2034 409 
Q 2484 409 2743 651 
Q 3003 894 3003 1313 
Q 3003 1734 2745 1975 
Q 2488 2216 2034 2216 
z
M 1403 2484 
Q 997 2584 770 2862 
Q 544 3141 544 3541 
Q 544 4100 942 4425 
Q 1341 4750 2034 4750 
Q 2731 4750 3128 4425 
Q 3525 4100 3525 3541 
Q 3525 3141 3298 2862 
Q 3072 2584 2669 2484 
Q 3125 2378 3379 2068 
Q 3634 1759 3634 1313 
Q 3634 634 3220 271 
Q 2806 -91 2034 -91 
Q 1263 -91 848 271 
Q 434 634 434 1313 
Q 434 1759 690 2068 
Q 947 2378 1403 2484 
z
M 1172 3481 
Q 1172 3119 1398 2916 
Q 1625 2713 2034 2713 
Q 2441 2713 2670 2916 
Q 2900 3119 2900 3481 
Q 2900 3844 2670 4047 
Q 2441 4250 2034 4250 
Q 1625 4250 1398 4047 
Q 1172 3844 1172 3481 
z
" transform="scale(0.015625)"/>
       </defs>
       <use xlink:href="#DejaVuSans-31"/>
       <use xlink:href="#DejaVuSans-38" x="63.623047"/>
       <use xlink:href="#DejaVuSans-30" x="127.246094"/>
      </g>
     </g>
    </g>
    <g id="xtick_6">
     <g id="line2d_11">
      <path d="M 777.6 256.32 
L 777.6 34.56 
" clip-path="url(#p05065035cf)" style="fill: none; stroke: #b0b0b0; stroke-width: 0.8; stroke-linecap: square"/>
     </g>
     <g id="line2d_12">
      <g>
       <use xlink:href="#m12ce0e74b9" x="777.6" y="256.32" style="stroke: #000000; stroke-width: 0.8"/>
      </g>
     </g>
     <g id="text_6">
      <!-- 200 -->
      <g transform="translate(764.23875 273.957812) scale(0.14 -0.14)">
       <use xlink:href="#DejaVuSans-32"/>
       <use xlink:href="#DejaVuSans-30" x="63.623047"/>
       <use xlink:href="#DejaVuSans-30" x="127.246094"/>
      </g>
     </g>
    </g>
    <g id="text_7">
     <!-- Time (ms) -->
     <g transform="translate(407.521094 291.507187) scale(0.14 -0.14)">
      <defs>
       <path id="DejaVuSans-54" d="M -19 4666 
L 3928 4666 
L 3928 4134 
L 2272 4134 
L 2272 0 
L 1638 0 
L 1638 4134 
L -19 4134 
L -19 4666 
z
" transform="scale(0.015625)"/>
       <path id="DejaVuSans-69" d="M 603 3500 
L 1178 3500 
L 1178 0 
L 603 0 
L 603 3500 
z
M 603 4863 
L 1178 4863 
L 1178 4134 
L 603 4134 
L 603 4863 
z
" transform="scale(0.015625)"/>
       <path id="DejaVuSans-6d" d="M 3328 2828 
Q 3544 3216 3844 3400 
Q 4144 3584 4550 3584 
Q 5097 3584 5394 3201 
Q 5691 2819 5691 2113 
L 5691 0 
L 5113 0 
L 5113 2094 
Q 5113 2597 4934 2840 
Q 4756 3084 4391 3084 
Q 3944 3084 3684 2787 
Q 3425 2491 3425 1978 
L 3425 0 
L 2847 0 
L 2847 2094 
Q 2847 2600 2669 2842 
Q 2491 3084 2119 3084 
Q 1678 3084 1418 2786 
Q 1159 2488 1159 1978 
L 1159 0 
L 581 0 
L 581 3500 
L 1159 3500 
L 1159 2956 
Q 1356 3278 1631 3431 
Q 1906 3584 2284 3584 
Q 2666 3584 2933 3390 
Q 3200 3197 3328 2828 
z
" transform="scale(0.015625)"/>
       <path id="DejaVuSans-65" d="M 3597 1894 
L 3597 1613 
L 953 1613 
Q 991 1019 1311 708 
Q 1631 397 2203 397 
Q 2534 397 2845 478 
Q 3156 559 3463 722 
L 3463 178 
Q 3153 47 2828 -22 
Q 2503 -91 2169 -91 
Q 1331 -91 842 396 
Q 353 884 353 1716 
Q 353 2575 817 3079 
Q 1281 3584 2069 3584 
Q 2775 3584 3186 3129 
Q 3597 2675 3597 1894 
z
M 3022 2063 
Q 3016 2534 2758 2815 
Q 2500 3097 2075 3097 
Q 1594 3097 1305 2825 
Q 1016 2553 972 2059 
L 3022 2063 
z
" transform="scale(0.015625)"/>
       <path id="DejaVuSans-20" transform="scale(0.015625)"/>
       <path id="DejaVuSans-28" d="M 1984 4856 
Q 1566 4138 1362 3434 
Q 1159 2731 1159 2009 
Q 1159 1288 1364 580 
Q 1569 -128 1984 -844 
L 1484 -844 
Q 1016 -109 783 600 
Q 550 1309 550 2009 
Q 550 2706 781 3412 
Q 1013 4119 1484 4856 
L 1984 4856 
z
" transform="scale(0.015625)"/>
       <path id="DejaVuSans-73" d="M 2834 3397 
L 2834 2853 
Q 2591 2978 2328 3040 
Q 2066 3103 1784 3103 
Q 1356 3103 1142 2972 
Q 928 2841 928 2578 
Q 928 2378 1081 2264 
Q 1234 2150 1697 2047 
L 1894 2003 
Q 2506 1872 2764 1633 
Q 3022 1394 3022 966 
Q 3022 478 2636 193 
Q 2250 -91 1575 -91 
Q 1294 -91 989 -36 
Q 684 19 347 128 
L 347 722 
Q 666 556 975 473 
Q 1284 391 1588 391 
Q 1994 391 2212 530 
Q 2431 669 2431 922 
Q 2431 1156 2273 1281 
Q 2116 1406 1581 1522 
L 1381 1569 
Q 847 1681 609 1914 
Q 372 2147 372 2553 
Q 372 3047 722 3315 
Q 1072 3584 1716 3584 
Q 2034 3584 2315 3537 
Q 2597 3491 2834 3397 
z
" transform="scale(0.015625)"/>
       <path id="DejaVuSans-29" d="M 513 4856 
L 1013 4856 
Q 1481 4119 1714 3412 
Q 1947 2706 1947 2009 
Q 1947 1309 1714 600 
Q 1481 -109 1013 -844 
L 513 -844 
Q 928 -128 1133 580 
Q 1338 1288 1338 2009 
Q 1338 2731 1133 3434 
Q 928 4138 513 4856 
z
" transform="scale(0.015625)"/>
      </defs>
      <use xlink:href="#DejaVuSans-54"/>
      <use xlink:href="#DejaVuSans-69" x="57.958984"/>
      <use xlink:href="#DejaVuSans-6d" x="85.742188"/>
      <use xlink:href="#DejaVuSans-65" x="183.154297"/>
      <use xlink:href="#DejaVuSans-20" x="244.677734"/>
      <use xlink:href="#DejaVuSans-28" x="276.464844"/>
      <use xlink:href="#DejaVuSans-6d" x="315.478516"/>
      <use xlink:href="#DejaVuSans-73" x="412.890625"/>
      <use xlink:href="#DejaVuSans-29" x="464.990234"/>
     </g>
    </g>
   </g>
   <g id="matplotlib.axis_2">
    <g id="ytick_1">
     <g id="line2d_13">
      <path d="M 108 225.144914 
L 777.6 225.144914 
" clip-path="url(#p05065035cf)" style="fill: none; stroke: #b0b0b0; stroke-width: 0.8; stroke-linecap: square"/>
     </g>
     <g id="line2d_14">
      <defs>
       <path id="m74c948c05c" d="M 0 0 
L -3.5 0 
" style="stroke: #000000; stroke-width: 0.8"/>
      </defs>
      <g>
       <use xlink:href="#m74c948c05c" x="108" y="225.144914" style="stroke: #000000; stroke-width: 0.8"/>
      </g>
     </g>
     <g id="text_8">
      <!-- −60 -->
      <g transform="translate(71.453437 230.463821) scale(0.14 -0.14)">
       <defs>
        <path id="DejaVuSans-2212" d="M 678 2272 
L 4684 2272 
L 4684 1741 
L 678 1741 
L 678 2272 
z
" transform="scale(0.015625)"/>
       </defs>
       <use xlink:href="#DejaVuSans-2212"/>
       <use xlink:href="#DejaVuSans-36" x="83.789062"/>
       <use xlink:href="#DejaVuSans-30" x="147.412109"/>
      </g>
     </g>
    </g>
    <g id="ytick_2">
     <g id="line2d_15">
      <path d="M 108 183.021969 
L 777.6 183.021969 
" clip-path="url(#p05065035cf)" style="fill: none; stroke: #b0b0b0; stroke-width: 0.8; stroke-linecap: square"/>
     </g>
     <g id="line2d_16">
      <g>
       <use xlink:href="#m74c948c05c" x="108" y="183.021969" style="stroke: #000000; stroke-width: 0.8"/>
      </g>
     </g>
     <g id="text_9">
      <!-- −40 -->
      <g transform="translate(71.453437 188.340876) scale(0.14 -0.14)">
       <use xlink:href="#DejaVuSans-2212"/>
       <use xlink:href="#DejaVuSans-34" x="83.789062"/>
       <use xlink:href="#DejaVuSans-30" x="147.412109"/>
      </g>
     </g>
    </g>
    <g id="ytick_3">
     <g id="line2d_17">
      <path d="M 108 140.899024 
L 777.6 140.899024 
" clip-path="url(#p05065035cf)" style="fill: none; stroke: #b0b0b0; stroke-width: 0.8; stroke-linecap: square"/>
     </g>
     <g id="line2d_18">
      <g>
       <use xlink:href="#m74c948c05c" x="108" y="140.899024" style="stroke: #000000; stroke-width: 0.8"/>
      </g>
     </g>
     <g id="text_10">
      <!-- −20 -->
      <g transform="translate(71.453437 146.217931) scale(0.14 -0.14)">
       <use xlink:href="#DejaVuSans-2212"/>
       <use xlink:href="#DejaVuSans-32" x="83.789062"/>
       <use xlink:href="#DejaVuSans-30" x="147.412109"/>
      </g>
     </g>
    </g>
    <g id="ytick_4">
     <g id="line2d_19">
      <path d="M 108 98.776079 
L 777.6 98.776079 
" clip-path="url(#p05065035cf)" style="fill: none; stroke: #b0b0b0; stroke-width: 0.8; stroke-linecap: square"/>
     </g>
     <g id="line2d_20">
      <g>
       <use xlink:href="#m74c948c05c" x="108" y="98.776079" style="stroke: #000000; stroke-width: 0.8"/>
      </g>
     </g>
     <g id="text_11">
      <!-- 0 -->
      <g transform="translate(92.0925 104.094986) scale(0.14 -0.14)">
       <use xlink:href="#DejaVuSans-30"/>
      </g>
     </g>
    </g>
    <g id="ytick_5">
     <g id="line2d_21">
      <path d="M 108 56.653134 
L 777.6 56.653134 
" clip-path="url(#p05065035cf)" style="fill: none; stroke: #b0b0b0; stroke-width: 0.8; stroke-linecap: square"/>
     </g>
     <g id="line2d_22">
      <g>
       <use xlink:href="#m74c948c05c" x="108" y="56.653134" style="stroke: #000000; stroke-width: 0.8"/>
      </g>
     </g>
     <g id="text_12">
      <!-- 20 -->
      <g transform="translate(83.185 61.972041) scale(0.14 -0.14)">
       <use xlink:href="#DejaVuSans-32"/>
       <use xlink:href="#DejaVuSans-30" x="63.623047"/>
      </g>
     </g>
    </g>
    <g id="text_13">
     <!-- $V_{m}$ (mV) -->
     <g transform="translate(64.541875 174.49) rotate(-90) scale(0.14 -0.14)">
      <defs>
       <path id="DejaVuSans-Oblique-56" d="M 1319 0 
L 500 4666 
L 1119 4666 
L 1797 653 
L 4063 4666 
L 4750 4666 
L 2053 0 
L 1319 0 
z
" transform="scale(0.015625)"/>
       <path id="DejaVuSans-Oblique-6d" d="M 5747 2113 
L 5338 0 
L 4763 0 
L 5166 2094 
Q 5191 2228 5203 2325 
Q 5216 2422 5216 2491 
Q 5216 2772 5059 2928 
Q 4903 3084 4622 3084 
Q 4203 3084 3875 2770 
Q 3547 2456 3450 1953 
L 3066 0 
L 2491 0 
L 2900 2094 
Q 2925 2209 2937 2307 
Q 2950 2406 2950 2484 
Q 2950 2769 2794 2926 
Q 2638 3084 2363 3084 
Q 1938 3084 1609 2770 
Q 1281 2456 1184 1953 
L 800 0 
L 225 0 
L 909 3500 
L 1484 3500 
L 1375 2956 
Q 1609 3263 1923 3423 
Q 2238 3584 2597 3584 
Q 2978 3584 3223 3384 
Q 3469 3184 3519 2828 
Q 3781 3197 4126 3390 
Q 4472 3584 4856 3584 
Q 5306 3584 5551 3325 
Q 5797 3066 5797 2591 
Q 5797 2488 5784 2364 
Q 5772 2241 5747 2113 
z
" transform="scale(0.015625)"/>
       <path id="DejaVuSans-56" d="M 1831 0 
L 50 4666 
L 709 4666 
L 2188 738 
L 3669 4666 
L 4325 4666 
L 2547 0 
L 1831 0 
z
" transform="scale(0.015625)"/>
      </defs>
      <use xlink:href="#DejaVuSans-Oblique-56" transform="translate(0 0.125)"/>
      <use xlink:href="#DejaVuSans-Oblique-6d" transform="translate(68.408203 -16.28125) scale(0.7)"/>
      <use xlink:href="#DejaVuSans-20" transform="translate(139.331055 0.125)"/>
      <use xlink:href="#DejaVuSans-28" transform="translate(171.118164 0.125)"/>
      <use xlink:href="#DejaVuSans-6d" transform="translate(210.131836 0.125)"/>
      <use xlink:href="#DejaVuSans-56" transform="translate(307.543945 0.125)"/>
      <use xlink:href="#DejaVuSans-29" transform="translate(375.952148 0.125)"/>
     </g>
    </g>
   </g>
   <g id="line2d_23">
    <path d="M 108 216.717987 
L 109.3392 216.865429 
L 110.0088 216.882566 
L 113.3568 218.846054 
L 114.0264 218.983859 
L 114.696 220.259751 
L 116.0352 222.23078 
L 116.7048 222.90951 
L 117.3744 223.348193 
L 118.7136 226.166542 
L 119.3832 227.096282 
L 120.0528 227.703784 
L 121.392 228.502823 
L 122.7312 229.021118 
L 123.4008 229.213708 
L 124.74 230.076798 
L 126.0792 230.499875 
L 128.088 230.805833 
L 129.4272 230.888258 
L 130.0968 231.520039 
L 131.436 233.638009 
L 132.1056 234.285339 
L 132.7752 234.685171 
L 134.1144 235.666083 
L 135.4536 236.145359 
L 137.4624 236.500291 
L 139.4712 236.632507 
L 140.8104 237.122718 
L 142.1496 237.278817 
L 144.828 237.258535 
L 146.1672 237.165329 
L 147.5064 237.520077 
L 148.8456 237.560281 
L 151.524 237.334198 
L 154.872 236.787661 
L 158.22 236.031536 
L 162.2376 234.897696 
L 163.5768 234.308673 
L 182.3256 223.884027 
L 191.0304 218.686405 
L 203.7528 210.804901 
L 209.1096 207.320733 
L 211.788 205.387041 
L 212.4576 205.393922 
L 213.1272 205.910054 
L 213.7968 206.28215 
L 214.4664 206.434661 
L 215.8056 206.414028 
L 217.1448 206.162131 
L 219.1536 205.542109 
L 219.8232 205.288656 
L 221.1624 205.749546 
L 222.5016 205.805172 
L 223.8408 205.618864 
L 225.18 206.312112 
L 225.8496 206.472839 
L 226.5192 207.041993 
L 227.1888 208.014874 
L 227.8584 208.750634 
L 228.528 209.201446 
L 229.1976 209.495449 
L 230.5368 211.580701 
L 231.2064 212.602078 
L 231.876 213.364135 
L 232.5456 213.8566 
L 233.8848 214.463331 
L 235.224 214.805538 
L 237.2328 215.036223 
L 238.572 215.06192 
L 239.9112 216.600865 
L 240.5808 217.393231 
L 241.2504 217.970136 
L 241.92 218.323146 
L 242.5896 218.965328 
L 244.5984 221.601997 
L 245.9376 222.394368 
L 247.2768 222.846972 
L 247.9464 223.37183 
L 248.616 224.156928 
L 249.2856 224.716297 
L 249.9552 225.067487 
L 250.6248 225.664657 
L 251.2944 226.476809 
L 251.964 227.056191 
L 253.3032 227.695009 
L 254.6424 228.058564 
L 257.3208 229.828151 
L 259.3296 230.693332 
L 259.9992 231.038166 
L 261.3384 231.932664 
L 263.3472 232.72654 
L 264.0168 233.043637 
L 265.356 233.346171 
L 266.6952 233.999173 
L 268.0344 234.251129 
L 270.0432 234.344553 
L 272.7216 235.465718 
L 274.0608 235.667232 
L 276.0696 235.688744 
L 277.4088 236.117746 
L 278.748 236.20853 
L 281.4264 236.060433 
L 284.7744 235.60326 
L 288.1224 234.934784 
L 289.4616 235.149873 
L 290.8008 235.043842 
L 293.4792 234.528933 
L 296.1576 233.840427 
L 297.4968 233.290701 
L 310.2192 226.551258 
L 317.5848 222.421069 
L 318.924 222.381384 
L 320.2632 221.955191 
L 322.9416 220.768756 
L 326.9592 218.749216 
L 328.2984 218.831471 
L 329.6376 218.496967 
L 332.316 217.457619 
L 336.3336 215.620318 
L 340.3512 213.624702 
L 341.6904 213.802459 
L 343.0296 213.538035 
L 345.708 212.601339 
L 349.7256 210.878659 
L 351.0648 211.168986 
L 351.7344 211.59953 
L 352.404 211.895925 
L 353.7432 211.993927 
L 355.0824 212.712259 
L 355.752 212.837986 
L 357.0912 213.697489 
L 357.7608 213.87659 
L 359.1 214.809329 
L 360.4392 215.136161 
L 361.7784 215.207068 
L 362.448 215.627927 
L 363.1176 216.385045 
L 363.7872 216.902648 
L 364.4568 217.188352 
L 365.796 218.228931 
L 367.1352 218.658358 
L 367.8048 218.766314 
L 368.4744 219.238026 
L 369.144 220.007595 
L 369.8136 220.541385 
L 371.8224 221.579545 
L 372.492 222.740241 
L 373.1616 224.657084 
L 374.5008 227.137491 
L 375.1704 227.956454 
L 375.84 228.521218 
L 377.1792 229.859881 
L 378.5184 231.149863 
L 379.8576 232.37684 
L 381.1968 233.028917 
L 382.536 233.437557 
L 384.5448 233.802532 
L 386.5536 233.961382 
L 387.8928 233.978395 
L 389.232 234.458889 
L 390.5712 234.58576 
L 391.9104 234.569495 
L 392.58 234.81686 
L 393.2496 235.277183 
L 393.9192 235.569607 
L 395.2584 235.771516 
L 395.928 235.793541 
L 397.2672 236.257797 
L 397.9368 236.337006 
L 399.276 237.323134 
L 400.6152 237.642895 
L 403.2936 237.958986 
L 404.6328 238.196098 
L 406.6416 238.153983 
L 409.32 237.864078 
L 412.668 237.294055 
L 416.016 236.55218 
L 417.3552 236.723345 
L 418.6944 236.58815 
L 421.3728 236.032256 
L 424.7208 235.115384 
L 428.7384 233.797961 
L 430.7472 233.01393 
L 432.756 231.817561 
L 437.4432 228.960562 
L 450.8352 221.007286 
L 455.5224 218.114254 
L 456.8616 218.086323 
L 458.2008 217.648083 
L 460.8792 216.41825 
L 465.5664 213.975357 
L 472.2624 210.225528 
L 473.6016 209.444676 
L 474.9408 209.595274 
L 476.28 209.311369 
L 477.6192 209.779951 
L 478.9584 209.738947 
L 480.2976 209.469162 
L 480.9672 209.779451 
L 481.6368 210.501124 
L 482.3064 210.993457 
L 482.976 211.237135 
L 484.3152 211.399031 
L 486.324 211.280822 
L 487.6632 211.073819 
L 489.0024 211.68684 
L 489.672 212.251136 
L 490.3416 212.669294 
L 491.6808 212.989862 
L 493.02 213.880074 
L 494.3592 214.197525 
L 495.6984 214.269712 
L 497.0376 215.039745 
L 498.3768 215.289589 
L 500.3856 215.292532 
L 501.0552 215.242926 
L 502.3944 215.899904 
L 503.7336 216.068564 
L 505.0728 216.829655 
L 506.412 217.067462 
L 508.4208 217.058189 
L 510.4296 216.848463 
L 512.4384 217.930972 
L 513.108 218.298044 
L 513.7776 218.887561 
L 514.4472 219.318637 
L 515.1168 219.555286 
L 516.456 220.505286 
L 517.7952 220.883425 
L 518.4648 220.973286 
L 521.1432 222.744712 
L 521.8128 223.356239 
L 522.4824 223.812545 
L 523.152 224.445988 
L 523.8216 224.921355 
L 524.4912 225.564559 
L 525.1608 226.049712 
L 525.8304 226.353329 
L 527.1696 227.336648 
L 529.1784 228.259909 
L 529.848 228.953902 
L 530.5176 230.069499 
L 531.1872 230.868227 
L 531.8568 231.347945 
L 533.196 231.925665 
L 534.5352 232.265997 
L 536.544 232.533744 
L 537.8832 232.600364 
L 539.2224 233.141423 
L 539.892 233.256638 
L 541.2312 233.870483 
L 541.9008 234.005604 
L 543.24 234.636023 
L 544.5792 234.857761 
L 546.588 234.913312 
L 549.2664 234.75283 
L 552.6144 234.317305 
L 553.9536 234.621214 
L 555.2928 234.596559 
L 557.9712 234.233953 
L 561.3192 233.526738 
L 561.9888 233.360462 
L 563.328 233.565698 
L 564.6672 233.38938 
L 566.0064 232.891339 
L 574.7112 228.887688 
L 580.7376 225.888876 
L 587.4336 222.276968 
L 595.4688 217.664339 
L 600.156 214.883491 
L 601.4952 214.935044 
L 602.8344 214.556786 
L 605.5128 213.418302 
L 607.5216 212.457236 
L 608.8608 212.675824 
L 610.2 212.441052 
L 612.2088 211.789479 
L 612.8784 211.537544 
L 614.2176 211.898325 
L 614.8872 212.350892 
L 615.5568 212.665199 
L 616.896 212.793798 
L 618.2352 213.523976 
L 618.9048 213.655596 
L 619.5744 214.145195 
L 620.244 214.956053 
L 620.9136 215.508766 
L 621.5832 215.813098 
L 622.2528 216.421248 
L 624.2616 219.035603 
L 624.9312 219.472516 
L 626.2704 219.991982 
L 627.6096 220.271424 
L 629.6184 220.436206 
L 631.6272 220.39726 
L 632.9664 221.014002 
L 634.3056 221.177903 
L 635.6448 221.158597 
L 636.984 221.764835 
L 637.6536 221.875911 
L 638.3232 222.297231 
L 641.0016 225.051289 
L 641.6712 225.551039 
L 642.3408 226.204017 
L 643.0104 226.693544 
L 643.68 227.668821 
L 646.3584 230.697203 
L 647.6976 231.403327 
L 648.3672 231.632711 
L 649.7064 232.496059 
L 650.376 232.740379 
L 651.7152 233.567406 
L 652.3848 233.792048 
L 653.724 234.570192 
L 655.0632 234.912367 
L 656.4024 235.070846 
L 657.7416 235.631203 
L 659.0808 235.823577 
L 661.0896 235.84926 
L 663.768 235.638928 
L 667.116 235.111542 
L 669.7944 234.528283 
L 671.1336 235.250853 
L 671.8032 235.629692 
L 672.4728 235.86605 
L 673.812 235.975695 
L 675.8208 235.836963 
L 678.4992 235.422419 
L 680.508 235.010772 
L 681.8472 235.23122 
L 683.1864 235.133147 
L 685.8648 234.642457 
L 687.204 234.868519 
L 688.5432 234.766197 
L 691.2216 234.249751 
L 694.5696 233.361691 
L 697.9176 232.295734 
L 699.2568 231.66817 
L 721.3536 218.815735 
L 729.3888 213.890277 
L 730.728 213.931297 
L 732.0672 213.541059 
L 734.7456 212.375405 
L 738.7632 210.348503 
L 743.4504 207.746811 
L 746.7984 205.650852 
L 748.8072 204.193433 
L 750.1464 203.038886 
L 751.4856 201.590832 
L 752.1552 200.645397 
L 753.4944 198.156868 
L 754.164 195.841559 
L 754.8336 188.008521 
L 755.5032 145.289895 
L 756.1728 51.395247 
L 756.8424 63.502406 
L 757.512 86.014677 
L 758.1816 101.142786 
L 760.1904 136.14119 
L 762.1992 166.779154 
L 763.5384 184.890273 
L 764.208 192.620979 
L 764.8776 198.513287 
L 765.5472 202.948514 
L 766.2168 206.366117 
L 766.8864 209.125942 
L 767.556 211.074845 
L 768.2256 212.451984 
L 770.2344 215.613552 
L 770.904 216.26381 
L 772.2432 217.101652 
L 772.9128 217.365924 
L 773.5824 218.718178 
L 774.9216 220.737541 
L 775.5912 221.411759 
L 776.2608 221.834316 
L 777.6 222.981951 
L 777.6 222.981951 
" clip-path="url(#p05065035cf)" style="fill: none; stroke: #000000; stroke-width: 1.5; stroke-linecap: square"/>
   </g>
   <g id="line2d_24">
    <path d="M 108 137.613436 
L 114.696 140.190592 
L 116.7048 141.391323 
L 118.7136 142.846099 
L 125.4096 148.433911 
L 130.7664 152.886107 
L 132.1056 154.418752 
L 134.1144 157.2084 
L 136.1232 160.460398 
L 138.132 164.159726 
L 140.1408 168.443561 
L 141.48 171.76412 
L 143.4888 177.413634 
L 149.5152 195.304664 
L 151.524 200.313532 
L 153.5328 204.524675 
L 154.872 206.910998 
L 156.2112 208.991241 
L 157.5504 210.794483 
L 159.5592 213.041002 
L 161.568 214.812577 
L 162.2376 215.310436 
L 162.9072 178.447536 
L 163.5768 162.286756 
L 164.2464 155.139478 
L 164.916 150.756063 
L 165.5856 147.835176 
L 166.2552 145.767089 
L 166.9248 144.230814 
L 167.5944 143.039018 
L 168.9336 141.267964 
L 170.2728 139.947013 
L 172.2816 138.389831 
L 174.2904 137.142793 
L 176.2992 136.123798 
L 178.9776 135.044465 
L 181.656 134.205949 
L 185.004 133.396593 
L 189.0216 132.659945 
L 194.3784 131.930209 
L 201.0744 131.26761 
L 211.788 130.482086 
L 213.7968 130.475138 
L 223.8408 131.540628 
L 226.5192 132.008222 
L 228.528 132.618919 
L 230.5368 133.375243 
L 235.8936 135.70224 
L 241.92 137.815875 
L 243.9288 138.831985 
L 252.6336 144.025158 
L 259.3296 148.722378 
L 262.008 150.971431 
L 264.6864 153.525667 
L 266.6952 155.681604 
L 268.704 158.119209 
L 270.7128 160.828727 
L 272.052 162.906561 
L 273.3912 165.312319 
L 275.4 169.518113 
L 277.4088 174.435518 
L 280.0872 181.993418 
L 283.4352 191.439338 
L 285.444 196.39049 
L 287.4528 200.61068 
L 289.4616 204.157795 
L 291.4704 207.202302 
L 293.4792 209.717903 
L 295.488 211.739767 
L 296.1576 212.315265 
L 296.8272 176.253981 
L 297.4968 160.754191 
L 298.1664 153.918495 
L 298.836 149.746972 
L 299.5056 146.979274 
L 300.1752 145.025271 
L 300.8448 143.576766 
L 302.184 141.547284 
L 303.5232 140.125464 
L 304.8624 139.002846 
L 306.8712 137.628916 
L 308.88 136.506872 
L 311.5584 135.312838 
L 314.2368 134.386122 
L 317.5848 133.498898 
L 319.5936 133.14283 
L 325.62 132.455635 
L 328.968 132.215168 
L 343.6992 131.98777 
L 349.7256 132.157242 
L 351.7344 132.284918 
L 355.0824 132.852706 
L 358.4304 133.657877 
L 365.796 135.847656 
L 371.8224 138.126481 
L 373.1616 138.797568 
L 375.1704 140.216271 
L 381.8664 145.101088 
L 385.2144 147.271311 
L 391.2408 151.057389 
L 393.2496 152.487351 
L 395.2584 154.194674 
L 397.2672 156.110194 
L 398.6064 157.562784 
L 399.9456 159.264245 
L 401.9544 162.235378 
L 403.2936 164.487608 
L 404.6328 167.058407 
L 406.6416 171.564063 
L 408.6504 176.794762 
L 415.3464 195.264304 
L 417.3552 199.756838 
L 419.364 203.663667 
L 421.3728 206.926163 
L 422.712 208.757291 
L 424.7208 211.044169 
L 426.7296 212.849271 
L 428.7384 214.243306 
L 430.0776 214.974329 
L 430.7472 178.08723 
L 431.4168 161.897386 
L 432.0864 154.71351 
L 432.756 150.285791 
L 433.4256 147.321058 
L 434.0952 145.210028 
L 434.7648 143.634248 
L 435.4344 142.407498 
L 436.7736 140.583907 
L 438.1128 139.232265 
L 440.1216 137.660163 
L 442.1304 136.417886 
L 444.1392 135.409791 
L 446.8176 134.343166 
L 449.496 133.512334 
L 452.844 132.705272 
L 456.192 132.085763 
L 459.54 131.775357 
L 473.6016 130.810314 
L 476.28 130.812267 
L 478.9584 131.035178 
L 482.3064 131.453746 
L 486.9936 132.33319 
L 489.672 132.761026 
L 493.6896 133.778655 
L 500.3856 135.486005 
L 504.4032 136.479297 
L 510.4296 138.144764 
L 513.108 138.916029 
L 515.7864 140.017715 
L 521.8128 142.902442 
L 524.4912 144.57084 
L 527.8392 146.995798 
L 530.5176 149.141021 
L 532.5264 151.201047 
L 537.2136 156.461313 
L 539.2224 158.95321 
L 541.2312 161.89086 
L 542.5704 164.191944 
L 543.9096 166.833808 
L 545.9184 171.409317 
L 547.9272 176.597061 
L 553.284 191.041418 
L 555.2928 195.836116 
L 557.3016 200.021098 
L 559.3104 203.522876 
L 561.3192 206.388344 
L 563.328 208.746124 
L 563.9976 209.461526 
L 564.6672 174.221933 
L 565.3368 159.441803 
L 566.0064 152.941076 
L 566.676 149.007417 
L 567.3456 146.416751 
L 568.0152 144.60077 
L 568.6848 143.262287 
L 570.024 141.395705 
L 571.3632 140.086036 
L 573.372 138.58012 
L 575.3808 137.363369 
L 578.0592 136.052561 
L 580.7376 135.0296 
L 583.416 134.228025 
L 586.764 133.452058 
L 590.7816 132.746927 
L 596.1384 132.052714 
L 601.4952 131.578082 
L 608.8608 131.512741 
L 614.8872 131.853029 
L 618.2352 132.421683 
L 620.9136 133.064074 
L 623.592 133.957393 
L 627.6096 135.506449 
L 630.288 136.260027 
L 636.984 137.972206 
L 638.9928 138.599108 
L 641.0016 139.470415 
L 643.68 140.876221 
L 646.3584 142.599265 
L 651.0456 145.706291 
L 655.7328 148.975192 
L 659.0808 151.455757 
L 663.768 155.223924 
L 667.116 158.189721 
L 669.7944 160.869392 
L 671.1336 162.453903 
L 672.4728 164.386766 
L 673.812 166.666102 
L 675.8208 170.633485 
L 677.8296 175.188519 
L 681.1776 183.592703 
L 684.5256 192.004657 
L 686.5344 196.436411 
L 688.5432 200.363421 
L 690.552 203.722898 
L 692.5608 206.49265 
L 694.5696 208.729216 
L 696.5784 210.502636 
L 697.9176 211.460013 
L 698.5872 175.535428 
L 699.2568 160.157948 
L 699.9264 153.351641 
L 700.596 149.184088 
L 701.2656 146.406821 
L 701.9352 144.437276 
L 702.6048 142.9705 
L 703.944 140.906207 
L 705.2832 139.461312 
L 706.6224 138.328855 
L 708.6312 136.95643 
L 710.64 135.844674 
L 713.3184 134.66351 
L 715.9968 133.744957 
L 719.3448 132.860225 
L 723.3624 132.059098 
L 728.0496 131.355736 
L 730.728 131.071645 
L 752.1552 129.945928 
L 753.4944 129.691068 
L 754.164 129.494219 
L 754.8336 129.084823 
L 755.5032 127.458192 
L 757.512 113.224938 
L 758.1816 110.916762 
L 758.8512 110.027057 
L 759.5208 110.113158 
L 760.1904 110.856542 
L 760.86 112.037053 
L 762.1992 115.152389 
L 766.8864 127.444849 
L 768.2256 129.937789 
L 769.5648 131.864695 
L 770.904 133.396207 
L 772.2432 134.624143 
L 776.9304 138.127474 
L 777.6 138.58522 
L 777.6 138.58522 
" clip-path="url(#p05065035cf)" style="fill: none; stroke: #4169e1; stroke-width: 1.5; stroke-linecap: square"/>
   </g>
   <g id="patch_3">
    <path d="M 108 256.32 
L 108 34.56 
" style="fill: none; stroke: #000000; stroke-width: 0.8; stroke-linejoin: miter; stroke-linecap: square"/>
   </g>
   <g id="patch_4">
    <path d="M 777.6 256.32 
L 777.6 34.56 
" style="fill: none; stroke: #000000; stroke-width: 0.8; stroke-linejoin: miter; stroke-linecap: square"/>
   </g>
   <g id="patch_5">
    <path d="M 108 256.32 
L 777.6 256.32 
" style="fill: none; stroke: #000000; stroke-width: 0.8; stroke-linejoin: miter; stroke-linecap: square"/>
   </g>
   <g id="patch_6">
    <path d="M 108 34.56 
L 777.6 34.56 
" style="fill: none; stroke: #000000; stroke-width: 0.8; stroke-linejoin: miter; stroke-linecap: square"/>
   </g>
   <g id="legend_1">
    <g id="patch_7">
     <path d="M 115 71.91625 
L 190.501563 71.91625 
Q 192.501563 71.91625 192.501563 69.91625 
L 192.501563 41.56 
Q 192.501563 39.56 190.501563 39.56 
L 115 39.56 
Q 113 39.56 113 41.56 
L 113 69.91625 
Q 113 71.91625 115 71.91625 
z
" style="fill: #ffffff; opacity: 0.8; stroke: #cccccc; stroke-linejoin: miter"/>
    </g>
    <g id="line2d_25">
     <path d="M 117 47.658437 
L 127 47.658437 
L 137 47.658437 
" style="fill: none; stroke: #000000; stroke-width: 1.5; stroke-linecap: square"/>
    </g>
    <g id="text_14">
     <!-- Soma -->
     <g transform="translate(145 51.158437) scale(0.1 -0.1)">
      <defs>
       <path id="DejaVuSans-53" d="M 3425 4513 
L 3425 3897 
Q 3066 4069 2747 4153 
Q 2428 4238 2131 4238 
Q 1616 4238 1336 4038 
Q 1056 3838 1056 3469 
Q 1056 3159 1242 3001 
Q 1428 2844 1947 2747 
L 2328 2669 
Q 3034 2534 3370 2195 
Q 3706 1856 3706 1288 
Q 3706 609 3251 259 
Q 2797 -91 1919 -91 
Q 1588 -91 1214 -16 
Q 841 59 441 206 
L 441 856 
Q 825 641 1194 531 
Q 1563 422 1919 422 
Q 2459 422 2753 634 
Q 3047 847 3047 1241 
Q 3047 1584 2836 1778 
Q 2625 1972 2144 2069 
L 1759 2144 
Q 1053 2284 737 2584 
Q 422 2884 422 3419 
Q 422 4038 858 4394 
Q 1294 4750 2059 4750 
Q 2388 4750 2728 4690 
Q 3069 4631 3425 4513 
z
" transform="scale(0.015625)"/>
       <path id="DejaVuSans-6f" d="M 1959 3097 
Q 1497 3097 1228 2736 
Q 959 2375 959 1747 
Q 959 1119 1226 758 
Q 1494 397 1959 397 
Q 2419 397 2687 759 
Q 2956 1122 2956 1747 
Q 2956 2369 2687 2733 
Q 2419 3097 1959 3097 
z
M 1959 3584 
Q 2709 3584 3137 3096 
Q 3566 2609 3566 1747 
Q 3566 888 3137 398 
Q 2709 -91 1959 -91 
Q 1206 -91 779 398 
Q 353 888 353 1747 
Q 353 2609 779 3096 
Q 1206 3584 1959 3584 
z
" transform="scale(0.015625)"/>
       <path id="DejaVuSans-61" d="M 2194 1759 
Q 1497 1759 1228 1600 
Q 959 1441 959 1056 
Q 959 750 1161 570 
Q 1363 391 1709 391 
Q 2188 391 2477 730 
Q 2766 1069 2766 1631 
L 2766 1759 
L 2194 1759 
z
M 3341 1997 
L 3341 0 
L 2766 0 
L 2766 531 
Q 2569 213 2275 61 
Q 1981 -91 1556 -91 
Q 1019 -91 701 211 
Q 384 513 384 1019 
Q 384 1609 779 1909 
Q 1175 2209 1959 2209 
L 2766 2209 
L 2766 2266 
Q 2766 2663 2505 2880 
Q 2244 3097 1772 3097 
Q 1472 3097 1187 3025 
Q 903 2953 641 2809 
L 641 3341 
Q 956 3463 1253 3523 
Q 1550 3584 1831 3584 
Q 2591 3584 2966 3190 
Q 3341 2797 3341 1997 
z
" transform="scale(0.015625)"/>
      </defs>
      <use xlink:href="#DejaVuSans-53"/>
      <use xlink:href="#DejaVuSans-6f" x="63.476562"/>
      <use xlink:href="#DejaVuSans-6d" x="124.658203"/>
      <use xlink:href="#DejaVuSans-61" x="222.070312"/>
     </g>
    </g>
    <g id="line2d_26">
     <path d="M 117 62.336562 
L 127 62.336562 
L 137 62.336562 
" style="fill: none; stroke: #4169e1; stroke-width: 1.5; stroke-linecap: square"/>
    </g>
    <g id="text_15">
     <!-- Dendrite -->
     <g transform="translate(145 65.836562) scale(0.1 -0.1)">
      <defs>
       <path id="DejaVuSans-44" d="M 1259 4147 
L 1259 519 
L 2022 519 
Q 2988 519 3436 956 
Q 3884 1394 3884 2338 
Q 3884 3275 3436 3711 
Q 2988 4147 2022 4147 
L 1259 4147 
z
M 628 4666 
L 1925 4666 
Q 3281 4666 3915 4102 
Q 4550 3538 4550 2338 
Q 4550 1131 3912 565 
Q 3275 0 1925 0 
L 628 0 
L 628 4666 
z
" transform="scale(0.015625)"/>
       <path id="DejaVuSans-6e" d="M 3513 2113 
L 3513 0 
L 2938 0 
L 2938 2094 
Q 2938 2591 2744 2837 
Q 2550 3084 2163 3084 
Q 1697 3084 1428 2787 
Q 1159 2491 1159 1978 
L 1159 0 
L 581 0 
L 581 3500 
L 1159 3500 
L 1159 2956 
Q 1366 3272 1645 3428 
Q 1925 3584 2291 3584 
Q 2894 3584 3203 3211 
Q 3513 2838 3513 2113 
z
" transform="scale(0.015625)"/>
       <path id="DejaVuSans-64" d="M 2906 2969 
L 2906 4863 
L 3481 4863 
L 3481 0 
L 2906 0 
L 2906 525 
Q 2725 213 2448 61 
Q 2172 -91 1784 -91 
Q 1150 -91 751 415 
Q 353 922 353 1747 
Q 353 2572 751 3078 
Q 1150 3584 1784 3584 
Q 2172 3584 2448 3432 
Q 2725 3281 2906 2969 
z
M 947 1747 
Q 947 1113 1208 752 
Q 1469 391 1925 391 
Q 2381 391 2643 752 
Q 2906 1113 2906 1747 
Q 2906 2381 2643 2742 
Q 2381 3103 1925 3103 
Q 1469 3103 1208 2742 
Q 947 2381 947 1747 
z
" transform="scale(0.015625)"/>
       <path id="DejaVuSans-72" d="M 2631 2963 
Q 2534 3019 2420 3045 
Q 2306 3072 2169 3072 
Q 1681 3072 1420 2755 
Q 1159 2438 1159 1844 
L 1159 0 
L 581 0 
L 581 3500 
L 1159 3500 
L 1159 2956 
Q 1341 3275 1631 3429 
Q 1922 3584 2338 3584 
Q 2397 3584 2469 3576 
Q 2541 3569 2628 3553 
L 2631 2963 
z
" transform="scale(0.015625)"/>
       <path id="DejaVuSans-74" d="M 1172 4494 
L 1172 3500 
L 2356 3500 
L 2356 3053 
L 1172 3053 
L 1172 1153 
Q 1172 725 1289 603 
Q 1406 481 1766 481 
L 2356 481 
L 2356 0 
L 1766 0 
Q 1100 0 847 248 
Q 594 497 594 1153 
L 594 3053 
L 172 3053 
L 172 3500 
L 594 3500 
L 594 4494 
L 1172 4494 
z
" transform="scale(0.015625)"/>
      </defs>
      <use xlink:href="#DejaVuSans-44"/>
      <use xlink:href="#DejaVuSans-65" x="77.001953"/>
      <use xlink:href="#DejaVuSans-6e" x="138.525391"/>
      <use xlink:href="#DejaVuSans-64" x="201.904297"/>
      <use xlink:href="#DejaVuSans-72" x="265.380859"/>
      <use xlink:href="#DejaVuSans-69" x="306.494141"/>
      <use xlink:href="#DejaVuSans-74" x="334.277344"/>
      <use xlink:href="#DejaVuSans-65" x="373.486328"/>
     </g>
    </g>
   </g>
  </g>
 </g>
 <defs>
  <clipPath id="p05065035cf">
   <rect x="108" y="34.56" width="669.6" height="221.76"/>
  </clipPath>
 </defs>
</svg>
