<?xml version="1.0" encoding="utf-8" standalone="no"?>
<!DOCTYPE svg PUBLIC "-//W3C//DTD SVG 1.1//EN"
  "http://www.w3.org/Graphics/SVG/1.1/DTD/svg11.dtd">
<svg xmlns:xlink="http://www.w3.org/1999/xlink" width="864pt" height="288pt" viewBox="0 0 864 288" xmlns="http://www.w3.org/2000/svg" version="1.1">
 <metadata>
  <rdf:RDF xmlns:dc="http://purl.org/dc/elements/1.1/" xmlns:cc="http://creativecommons.org/ns#" xmlns:rdf="http://www.w3.org/1999/02/22-rdf-syntax-ns#">
   <cc:Work>
    <dc:type rdf:resource="http://purl.org/dc/dcmitype/StillImage"/>
    <dc:date>2024-04-26T13:29:53.412463</dc:date>
    <dc:format>image/svg+xml</dc:format>
    <dc:creator>
     <cc:Agent>
      <dc:title>Matplotlib v3.8.2, https://matplotlib.org/</dc:title>
     </cc:Agent>
    </dc:creator>
   </cc:Work>
  </rdf:RDF>
 </metadata>
 <defs>
  <style type="text/css">*{stroke-linejoin: round; stroke-linecap: butt}</style>
 </defs>
 <g id="figure_1">
  <g id="patch_1">
   <path d="M 0 288 
L 864 288 
L 864 0 
L 0 0 
z
" style="fill: #ffffff"/>
  </g>
  <g id="axes_1">
   <g id="patch_2">
    <path d="M 108 256.32 
L 777.6 256.32 
L 777.6 34.56 
L 108 34.56 
z
" style="fill: #ffffff"/>
   </g>
   <g id="matplotlib.axis_1">
    <g id="xtick_1">
     <g id="line2d_1">
      <path d="M 108 256.32 
L 108 34.56 
" clip-path="url(#pa4664932a4)" style="fill: none; stroke: #b0b0b0; stroke-width: 0.8; stroke-linecap: square"/>
     </g>
     <g id="line2d_2">
      <defs>
       <path id="mf83503d0cf" d="M 0 0 
L 0 3.5 
" style="stroke: #000000; stroke-width: 0.8"/>
      </defs>
      <g>
       <use xlink:href="#mf83503d0cf" x="108" y="256.32" style="stroke: #000000; stroke-width: 0.8"/>
      </g>
     </g>
     <g id="text_1">
      <!-- 100 -->
      <g transform="translate(94.63875 273.957812) scale(0.14 -0.14)">
       <defs>
        <path id="DejaVuSans-31" d="M 794 531 
L 1825 531 
L 1825 4091 
L 703 3866 
L 703 4441 
L 1819 4666 
L 2450 4666 
L 2450 531 
L 3481 531 
L 3481 0 
L 794 0 
L 794 531 
z
" transform="scale(0.015625)"/>
        <path id="DejaVuSans-30" d="M 2034 4250 
Q 1547 4250 1301 3770 
Q 1056 3291 1056 2328 
Q 1056 1369 1301 889 
Q 1547 409 2034 409 
Q 2525 409 2770 889 
Q 3016 1369 3016 2328 
Q 3016 3291 2770 3770 
Q 2525 4250 2034 4250 
z
M 2034 4750 
Q 2819 4750 3233 4129 
Q 3647 3509 3647 2328 
Q 3647 1150 3233 529 
Q 2819 -91 2034 -91 
Q 1250 -91 836 529 
Q 422 1150 422 2328 
Q 422 3509 836 4129 
Q 1250 4750 2034 4750 
z
" transform="scale(0.015625)"/>
       </defs>
       <use xlink:href="#DejaVuSans-31"/>
       <use xlink:href="#DejaVuSans-30" x="63.623047"/>
       <use xlink:href="#DejaVuSans-30" x="127.246094"/>
      </g>
     </g>
    </g>
    <g id="xtick_2">
     <g id="line2d_3">
      <path d="M 241.92 256.32 
L 241.92 34.56 
" clip-path="url(#pa4664932a4)" style="fill: none; stroke: #b0b0b0; stroke-width: 0.8; stroke-linecap: square"/>
     </g>
     <g id="line2d_4">
      <g>
       <use xlink:href="#mf83503d0cf" x="241.92" y="256.32" style="stroke: #000000; stroke-width: 0.8"/>
      </g>
     </g>
     <g id="text_2">
      <!-- 120 -->
      <g transform="translate(228.55875 273.957812) scale(0.14 -0.14)">
       <defs>
        <path id="DejaVuSans-32" d="M 1228 531 
L 3431 531 
L 3431 0 
L 469 0 
L 469 531 
Q 828 903 1448 1529 
Q 2069 2156 2228 2338 
Q 2531 2678 2651 2914 
Q 2772 3150 2772 3378 
Q 2772 3750 2511 3984 
Q 2250 4219 1831 4219 
Q 1534 4219 1204 4116 
Q 875 4013 500 3803 
L 500 4441 
Q 881 4594 1212 4672 
Q 1544 4750 1819 4750 
Q 2544 4750 2975 4387 
Q 3406 4025 3406 3419 
Q 3406 3131 3298 2873 
Q 3191 2616 2906 2266 
Q 2828 2175 2409 1742 
Q 1991 1309 1228 531 
z
" transform="scale(0.015625)"/>
       </defs>
       <use xlink:href="#DejaVuSans-31"/>
       <use xlink:href="#DejaVuSans-32" x="63.623047"/>
       <use xlink:href="#DejaVuSans-30" x="127.246094"/>
      </g>
     </g>
    </g>
    <g id="xtick_3">
     <g id="line2d_5">
      <path d="M 375.84 256.32 
L 375.84 34.56 
" clip-path="url(#pa4664932a4)" style="fill: none; stroke: #b0b0b0; stroke-width: 0.8; stroke-linecap: square"/>
     </g>
     <g id="line2d_6">
      <g>
       <use xlink:href="#mf83503d0cf" x="375.84" y="256.32" style="stroke: #000000; stroke-width: 0.8"/>
      </g>
     </g>
     <g id="text_3">
      <!-- 140 -->
      <g transform="translate(362.47875 273.957812) scale(0.14 -0.14)">
       <defs>
        <path id="DejaVuSans-34" d="M 2419 4116 
L 825 1625 
L 2419 1625 
L 2419 4116 
z
M 2253 4666 
L 3047 4666 
L 3047 1625 
L 3713 1625 
L 3713 1100 
L 3047 1100 
L 3047 0 
L 2419 0 
L 2419 1100 
L 313 1100 
L 313 1709 
L 2253 4666 
z
" transform="scale(0.015625)"/>
       </defs>
       <use xlink:href="#DejaVuSans-31"/>
       <use xlink:href="#DejaVuSans-34" x="63.623047"/>
       <use xlink:href="#DejaVuSans-30" x="127.246094"/>
      </g>
     </g>
    </g>
    <g id="xtick_4">
     <g id="line2d_7">
      <path d="M 509.76 256.32 
L 509.76 34.56 
" clip-path="url(#pa4664932a4)" style="fill: none; stroke: #b0b0b0; stroke-width: 0.8; stroke-linecap: square"/>
     </g>
     <g id="line2d_8">
      <g>
       <use xlink:href="#mf83503d0cf" x="509.76" y="256.32" style="stroke: #000000; stroke-width: 0.8"/>
      </g>
     </g>
     <g id="text_4">
      <!-- 160 -->
      <g transform="translate(496.39875 273.957812) scale(0.14 -0.14)">
       <defs>
        <path id="DejaVuSans-36" d="M 2113 2584 
Q 1688 2584 1439 2293 
Q 1191 2003 1191 1497 
Q 1191 994 1439 701 
Q 1688 409 2113 409 
Q 2538 409 2786 701 
Q 3034 994 3034 1497 
Q 3034 2003 2786 2293 
Q 2538 2584 2113 2584 
z
M 3366 4563 
L 3366 3988 
Q 3128 4100 2886 4159 
Q 2644 4219 2406 4219 
Q 1781 4219 1451 3797 
Q 1122 3375 1075 2522 
Q 1259 2794 1537 2939 
Q 1816 3084 2150 3084 
Q 2853 3084 3261 2657 
Q 3669 2231 3669 1497 
Q 3669 778 3244 343 
Q 2819 -91 2113 -91 
Q 1303 -91 875 529 
Q 447 1150 447 2328 
Q 447 3434 972 4092 
Q 1497 4750 2381 4750 
Q 2619 4750 2861 4703 
Q 3103 4656 3366 4563 
z
" transform="scale(0.015625)"/>
       </defs>
       <use xlink:href="#DejaVuSans-31"/>
       <use xlink:href="#DejaVuSans-36" x="63.623047"/>
       <use xlink:href="#DejaVuSans-30" x="127.246094"/>
      </g>
     </g>
    </g>
    <g id="xtick_5">
     <g id="line2d_9">
      <path d="M 643.68 256.32 
L 643.68 34.56 
" clip-path="url(#pa4664932a4)" style="fill: none; stroke: #b0b0b0; stroke-width: 0.8; stroke-linecap: square"/>
     </g>
     <g id="line2d_10">
      <g>
       <use xlink:href="#mf83503d0cf" x="643.68" y="256.32" style="stroke: #000000; stroke-width: 0.8"/>
      </g>
     </g>
     <g id="text_5">
      <!-- 180 -->
      <g transform="translate(630.31875 273.957812) scale(0.14 -0.14)">
       <defs>
        <path id="DejaVuSans-38" d="M 2034 2216 
Q 1584 2216 1326 1975 
Q 1069 1734 1069 1313 
Q 1069 891 1326 650 
Q 1584 409 2034 409 
Q 2484 409 2743 651 
Q 3003 894 3003 1313 
Q 3003 1734 2745 1975 
Q 2488 2216 2034 2216 
z
M 1403 2484 
Q 997 2584 770 2862 
Q 544 3141 544 3541 
Q 544 4100 942 4425 
Q 1341 4750 2034 4750 
Q 2731 4750 3128 4425 
Q 3525 4100 3525 3541 
Q 3525 3141 3298 2862 
Q 3072 2584 2669 2484 
Q 3125 2378 3379 2068 
Q 3634 1759 3634 1313 
Q 3634 634 3220 271 
Q 2806 -91 2034 -91 
Q 1263 -91 848 271 
Q 434 634 434 1313 
Q 434 1759 690 2068 
Q 947 2378 1403 2484 
z
M 1172 3481 
Q 1172 3119 1398 2916 
Q 1625 2713 2034 2713 
Q 2441 2713 2670 2916 
Q 2900 3119 2900 3481 
Q 2900 3844 2670 4047 
Q 2441 4250 2034 4250 
Q 1625 4250 1398 4047 
Q 1172 3844 1172 3481 
z
" transform="scale(0.015625)"/>
       </defs>
       <use xlink:href="#DejaVuSans-31"/>
       <use xlink:href="#DejaVuSans-38" x="63.623047"/>
       <use xlink:href="#DejaVuSans-30" x="127.246094"/>
      </g>
     </g>
    </g>
    <g id="xtick_6">
     <g id="line2d_11">
      <path d="M 777.6 256.32 
L 777.6 34.56 
" clip-path="url(#pa4664932a4)" style="fill: none; stroke: #b0b0b0; stroke-width: 0.8; stroke-linecap: square"/>
     </g>
     <g id="line2d_12">
      <g>
       <use xlink:href="#mf83503d0cf" x="777.6" y="256.32" style="stroke: #000000; stroke-width: 0.8"/>
      </g>
     </g>
     <g id="text_6">
      <!-- 200 -->
      <g transform="translate(764.23875 273.957812) scale(0.14 -0.14)">
       <use xlink:href="#DejaVuSans-32"/>
       <use xlink:href="#DejaVuSans-30" x="63.623047"/>
       <use xlink:href="#DejaVuSans-30" x="127.246094"/>
      </g>
     </g>
    </g>
    <g id="text_7">
     <!-- Time (ms) -->
     <g transform="translate(407.521094 291.507187) scale(0.14 -0.14)">
      <defs>
       <path id="DejaVuSans-54" d="M -19 4666 
L 3928 4666 
L 3928 4134 
L 2272 4134 
L 2272 0 
L 1638 0 
L 1638 4134 
L -19 4134 
L -19 4666 
z
" transform="scale(0.015625)"/>
       <path id="DejaVuSans-69" d="M 603 3500 
L 1178 3500 
L 1178 0 
L 603 0 
L 603 3500 
z
M 603 4863 
L 1178 4863 
L 1178 4134 
L 603 4134 
L 603 4863 
z
" transform="scale(0.015625)"/>
       <path id="DejaVuSans-6d" d="M 3328 2828 
Q 3544 3216 3844 3400 
Q 4144 3584 4550 3584 
Q 5097 3584 5394 3201 
Q 5691 2819 5691 2113 
L 5691 0 
L 5113 0 
L 5113 2094 
Q 5113 2597 4934 2840 
Q 4756 3084 4391 3084 
Q 3944 3084 3684 2787 
Q 3425 2491 3425 1978 
L 3425 0 
L 2847 0 
L 2847 2094 
Q 2847 2600 2669 2842 
Q 2491 3084 2119 3084 
Q 1678 3084 1418 2786 
Q 1159 2488 1159 1978 
L 1159 0 
L 581 0 
L 581 3500 
L 1159 3500 
L 1159 2956 
Q 1356 3278 1631 3431 
Q 1906 3584 2284 3584 
Q 2666 3584 2933 3390 
Q 3200 3197 3328 2828 
z
" transform="scale(0.015625)"/>
       <path id="DejaVuSans-65" d="M 3597 1894 
L 3597 1613 
L 953 1613 
Q 991 1019 1311 708 
Q 1631 397 2203 397 
Q 2534 397 2845 478 
Q 3156 559 3463 722 
L 3463 178 
Q 3153 47 2828 -22 
Q 2503 -91 2169 -91 
Q 1331 -91 842 396 
Q 353 884 353 1716 
Q 353 2575 817 3079 
Q 1281 3584 2069 3584 
Q 2775 3584 3186 3129 
Q 3597 2675 3597 1894 
z
M 3022 2063 
Q 3016 2534 2758 2815 
Q 2500 3097 2075 3097 
Q 1594 3097 1305 2825 
Q 1016 2553 972 2059 
L 3022 2063 
z
" transform="scale(0.015625)"/>
       <path id="DejaVuSans-20" transform="scale(0.015625)"/>
       <path id="DejaVuSans-28" d="M 1984 4856 
Q 1566 4138 1362 3434 
Q 1159 2731 1159 2009 
Q 1159 1288 1364 580 
Q 1569 -128 1984 -844 
L 1484 -844 
Q 1016 -109 783 600 
Q 550 1309 550 2009 
Q 550 2706 781 3412 
Q 1013 4119 1484 4856 
L 1984 4856 
z
" transform="scale(0.015625)"/>
       <path id="DejaVuSans-73" d="M 2834 3397 
L 2834 2853 
Q 2591 2978 2328 3040 
Q 2066 3103 1784 3103 
Q 1356 3103 1142 2972 
Q 928 2841 928 2578 
Q 928 2378 1081 2264 
Q 1234 2150 1697 2047 
L 1894 2003 
Q 2506 1872 2764 1633 
Q 3022 1394 3022 966 
Q 3022 478 2636 193 
Q 2250 -91 1575 -91 
Q 1294 -91 989 -36 
Q 684 19 347 128 
L 347 722 
Q 666 556 975 473 
Q 1284 391 1588 391 
Q 1994 391 2212 530 
Q 2431 669 2431 922 
Q 2431 1156 2273 1281 
Q 2116 1406 1581 1522 
L 1381 1569 
Q 847 1681 609 1914 
Q 372 2147 372 2553 
Q 372 3047 722 3315 
Q 1072 3584 1716 3584 
Q 2034 3584 2315 3537 
Q 2597 3491 2834 3397 
z
" transform="scale(0.015625)"/>
       <path id="DejaVuSans-29" d="M 513 4856 
L 1013 4856 
Q 1481 4119 1714 3412 
Q 1947 2706 1947 2009 
Q 1947 1309 1714 600 
Q 1481 -109 1013 -844 
L 513 -844 
Q 928 -128 1133 580 
Q 1338 1288 1338 2009 
Q 1338 2731 1133 3434 
Q 928 4138 513 4856 
z
" transform="scale(0.015625)"/>
      </defs>
      <use xlink:href="#DejaVuSans-54"/>
      <use xlink:href="#DejaVuSans-69" x="57.958984"/>
      <use xlink:href="#DejaVuSans-6d" x="85.742188"/>
      <use xlink:href="#DejaVuSans-65" x="183.154297"/>
      <use xlink:href="#DejaVuSans-20" x="244.677734"/>
      <use xlink:href="#DejaVuSans-28" x="276.464844"/>
      <use xlink:href="#DejaVuSans-6d" x="315.478516"/>
      <use xlink:href="#DejaVuSans-73" x="412.890625"/>
      <use xlink:href="#DejaVuSans-29" x="464.990234"/>
     </g>
    </g>
   </g>
   <g id="matplotlib.axis_2">
    <g id="ytick_1">
     <g id="line2d_13">
      <path d="M 108 224.199266 
L 777.6 224.199266 
" clip-path="url(#pa4664932a4)" style="fill: none; stroke: #b0b0b0; stroke-width: 0.8; stroke-linecap: square"/>
     </g>
     <g id="line2d_14">
      <defs>
       <path id="ma4afd43204" d="M 0 0 
L -3.5 0 
" style="stroke: #000000; stroke-width: 0.8"/>
      </defs>
      <g>
       <use xlink:href="#ma4afd43204" x="108" y="224.199266" style="stroke: #000000; stroke-width: 0.8"/>
      </g>
     </g>
     <g id="text_8">
      <!-- −60 -->
      <g transform="translate(71.453437 229.518173) scale(0.14 -0.14)">
       <defs>
        <path id="DejaVuSans-2212" d="M 678 2272 
L 4684 2272 
L 4684 1741 
L 678 1741 
L 678 2272 
z
" transform="scale(0.015625)"/>
       </defs>
       <use xlink:href="#DejaVuSans-2212"/>
       <use xlink:href="#DejaVuSans-36" x="83.789062"/>
       <use xlink:href="#DejaVuSans-30" x="147.412109"/>
      </g>
     </g>
    </g>
    <g id="ytick_2">
     <g id="line2d_15">
      <path d="M 108 180.188039 
L 777.6 180.188039 
" clip-path="url(#pa4664932a4)" style="fill: none; stroke: #b0b0b0; stroke-width: 0.8; stroke-linecap: square"/>
     </g>
     <g id="line2d_16">
      <g>
       <use xlink:href="#ma4afd43204" x="108" y="180.188039" style="stroke: #000000; stroke-width: 0.8"/>
      </g>
     </g>
     <g id="text_9">
      <!-- −40 -->
      <g transform="translate(71.453437 185.506945) scale(0.14 -0.14)">
       <use xlink:href="#DejaVuSans-2212"/>
       <use xlink:href="#DejaVuSans-34" x="83.789062"/>
       <use xlink:href="#DejaVuSans-30" x="147.412109"/>
      </g>
     </g>
    </g>
    <g id="ytick_3">
     <g id="line2d_17">
      <path d="M 108 136.176811 
L 777.6 136.176811 
" clip-path="url(#pa4664932a4)" style="fill: none; stroke: #b0b0b0; stroke-width: 0.8; stroke-linecap: square"/>
     </g>
     <g id="line2d_18">
      <g>
       <use xlink:href="#ma4afd43204" x="108" y="136.176811" style="stroke: #000000; stroke-width: 0.8"/>
      </g>
     </g>
     <g id="text_10">
      <!-- −20 -->
      <g transform="translate(71.453437 141.495717) scale(0.14 -0.14)">
       <use xlink:href="#DejaVuSans-2212"/>
       <use xlink:href="#DejaVuSans-32" x="83.789062"/>
       <use xlink:href="#DejaVuSans-30" x="147.412109"/>
      </g>
     </g>
    </g>
    <g id="ytick_4">
     <g id="line2d_19">
      <path d="M 108 92.165584 
L 777.6 92.165584 
" clip-path="url(#pa4664932a4)" style="fill: none; stroke: #b0b0b0; stroke-width: 0.8; stroke-linecap: square"/>
     </g>
     <g id="line2d_20">
      <g>
       <use xlink:href="#ma4afd43204" x="108" y="92.165584" style="stroke: #000000; stroke-width: 0.8"/>
      </g>
     </g>
     <g id="text_11">
      <!-- 0 -->
      <g transform="translate(92.0925 97.48449) scale(0.14 -0.14)">
       <use xlink:href="#DejaVuSans-30"/>
      </g>
     </g>
    </g>
    <g id="ytick_5">
     <g id="line2d_21">
      <path d="M 108 48.154356 
L 777.6 48.154356 
" clip-path="url(#pa4664932a4)" style="fill: none; stroke: #b0b0b0; stroke-width: 0.8; stroke-linecap: square"/>
     </g>
     <g id="line2d_22">
      <g>
       <use xlink:href="#ma4afd43204" x="108" y="48.154356" style="stroke: #000000; stroke-width: 0.8"/>
      </g>
     </g>
     <g id="text_12">
      <!-- 20 -->
      <g transform="translate(83.185 53.473262) scale(0.14 -0.14)">
       <use xlink:href="#DejaVuSans-32"/>
       <use xlink:href="#DejaVuSans-30" x="63.623047"/>
      </g>
     </g>
    </g>
    <g id="text_13">
     <!-- $V_{m}$ (mV) -->
     <g transform="translate(64.541875 174.49) rotate(-90) scale(0.14 -0.14)">
      <defs>
       <path id="DejaVuSans-Oblique-56" d="M 1319 0 
L 500 4666 
L 1119 4666 
L 1797 653 
L 4063 4666 
L 4750 4666 
L 2053 0 
L 1319 0 
z
" transform="scale(0.015625)"/>
       <path id="DejaVuSans-Oblique-6d" d="M 5747 2113 
L 5338 0 
L 4763 0 
L 5166 2094 
Q 5191 2228 5203 2325 
Q 5216 2422 5216 2491 
Q 5216 2772 5059 2928 
Q 4903 3084 4622 3084 
Q 4203 3084 3875 2770 
Q 3547 2456 3450 1953 
L 3066 0 
L 2491 0 
L 2900 2094 
Q 2925 2209 2937 2307 
Q 2950 2406 2950 2484 
Q 2950 2769 2794 2926 
Q 2638 3084 2363 3084 
Q 1938 3084 1609 2770 
Q 1281 2456 1184 1953 
L 800 0 
L 225 0 
L 909 3500 
L 1484 3500 
L 1375 2956 
Q 1609 3263 1923 3423 
Q 2238 3584 2597 3584 
Q 2978 3584 3223 3384 
Q 3469 3184 3519 2828 
Q 3781 3197 4126 3390 
Q 4472 3584 4856 3584 
Q 5306 3584 5551 3325 
Q 5797 3066 5797 2591 
Q 5797 2488 5784 2364 
Q 5772 2241 5747 2113 
z
" transform="scale(0.015625)"/>
       <path id="DejaVuSans-56" d="M 1831 0 
L 50 4666 
L 709 4666 
L 2188 738 
L 3669 4666 
L 4325 4666 
L 2547 0 
L 1831 0 
z
" transform="scale(0.015625)"/>
      </defs>
      <use xlink:href="#DejaVuSans-Oblique-56" transform="translate(0 0.125)"/>
      <use xlink:href="#DejaVuSans-Oblique-6d" transform="translate(68.408203 -16.28125) scale(0.7)"/>
      <use xlink:href="#DejaVuSans-20" transform="translate(139.331055 0.125)"/>
      <use xlink:href="#DejaVuSans-28" transform="translate(171.118164 0.125)"/>
      <use xlink:href="#DejaVuSans-6d" transform="translate(210.131836 0.125)"/>
      <use xlink:href="#DejaVuSans-56" transform="translate(307.543945 0.125)"/>
      <use xlink:href="#DejaVuSans-29" transform="translate(375.952148 0.125)"/>
     </g>
    </g>
   </g>
   <g id="line2d_23">
    <path d="M 108 218.374596 
L 109.3392 219.017321 
L 110.6784 219.413915 
L 111.348 219.55247 
L 112.6872 220.479281 
L 114.0264 220.895614 
L 116.0352 222.443793 
L 118.044 224.932781 
L 118.7136 226.067312 
L 119.3832 226.94091 
L 120.0528 227.489433 
L 120.7224 228.548207 
L 122.7312 230.879104 
L 124.0704 231.665094 
L 125.4096 232.167275 
L 127.4184 232.646511 
L 129.4272 232.910825 
L 132.1056 233.028278 
L 134.1144 232.978493 
L 136.1232 233.838417 
L 136.7928 234.704657 
L 137.4624 235.316625 
L 138.132 235.651843 
L 138.8016 235.861268 
L 140.1408 236.608141 
L 141.48 236.920509 
L 143.4888 237.076176 
L 144.828 237.570085 
L 146.1672 237.710484 
L 148.176 237.671862 
L 149.5152 238.057234 
L 150.8544 238.105411 
L 152.8632 237.945941 
L 155.5416 237.526527 
L 158.8896 236.775943 
L 162.9072 235.618356 
L 166.9248 234.231638 
L 171.612 232.372138 
L 176.9688 229.979438 
L 182.3256 227.348592 
L 188.352 224.155921 
L 195.7176 219.994593 
L 198.396 218.428041 
L 199.7352 218.460693 
L 201.0744 218.071621 
L 203.7528 216.926594 
L 205.7616 215.964562 
L 207.1008 216.151742 
L 208.44 215.889726 
L 209.1096 216.140413 
L 209.7792 216.26413 
L 211.1184 215.96606 
L 213.1272 215.087468 
L 221.832 210.715317 
L 225.8496 208.583207 
L 227.1888 208.817298 
L 227.8584 209.740329 
L 228.528 210.459145 
L 229.1976 210.806002 
L 230.5368 211.041226 
L 231.876 211.005772 
L 232.5456 210.932326 
L 234.5544 212.200606 
L 235.8936 214.158659 
L 236.5632 215.320602 
L 239.2416 218.588694 
L 239.9112 219.650759 
L 240.5808 221.191454 
L 241.2504 222.316652 
L 241.92 223.029742 
L 243.2592 223.944337 
L 244.5984 224.531701 
L 245.9376 225.586642 
L 246.6072 225.899966 
L 247.2768 226.481891 
L 247.9464 227.290527 
L 249.9552 229.116173 
L 251.2944 230.323287 
L 252.6336 230.933536 
L 253.9728 231.299701 
L 255.312 232.653124 
L 255.9816 233.307818 
L 256.6512 233.790284 
L 257.9904 234.329678 
L 259.9992 234.748399 
L 260.6688 234.831824 
L 262.008 235.462276 
L 263.3472 235.722488 
L 264.6864 235.831942 
L 267.3648 237.065366 
L 268.704 237.316663 
L 270.7128 237.404334 
L 272.052 237.861128 
L 273.3912 237.973193 
L 275.4 237.901601 
L 278.0784 237.587703 
L 281.4264 236.95369 
L 282.096 236.800194 
L 283.4352 236.993781 
L 284.7744 236.866882 
L 287.4528 236.308251 
L 290.8008 235.36768 
L 291.4704 235.156364 
L 292.8096 235.26954 
L 294.1488 235.055842 
L 296.8272 234.324664 
L 300.8448 232.936223 
L 305.532 231.040554 
L 310.8888 228.598888 
L 316.9152 225.573053 
L 323.6112 221.939767 
L 331.6464 217.309258 
L 343.0296 210.462439 
L 344.3688 209.509018 
L 345.0384 208.969679 
L 346.3776 208.818244 
L 347.7168 208.197919 
L 351.0648 206.140716 
L 354.4128 203.906705 
L 355.752 205.09424 
L 356.4216 205.369326 
L 358.4304 207.301695 
L 359.1 208.401591 
L 359.7696 209.193534 
L 360.4392 209.672635 
L 361.7784 210.190519 
L 363.1176 212.177309 
L 363.7872 213.158873 
L 364.4568 213.885154 
L 365.1264 214.34837 
L 365.796 214.672377 
L 367.1352 215.896951 
L 367.8048 216.242486 
L 369.144 217.442957 
L 370.4832 218.012899 
L 371.8224 218.313025 
L 372.492 218.405509 
L 373.8312 220.013355 
L 374.5008 221.594994 
L 375.1704 222.805439 
L 375.84 223.523657 
L 377.1792 224.38779 
L 378.5184 224.914929 
L 379.188 225.104968 
L 379.8576 225.617714 
L 381.8664 227.896635 
L 382.536 228.294533 
L 383.8752 229.40186 
L 384.5448 229.724558 
L 386.5536 231.328937 
L 387.2232 231.790995 
L 388.5624 232.309232 
L 391.2408 233.088912 
L 391.9104 233.690081 
L 392.58 234.106197 
L 393.9192 234.520136 
L 395.928 234.787463 
L 398.6064 234.848976 
L 399.9456 235.327562 
L 400.6152 235.418524 
L 401.9544 235.983394 
L 403.2936 236.154421 
L 405.972 237.3396 
L 407.3112 237.551041 
L 407.9808 237.584425 
L 409.32 238.069281 
L 410.6592 238.194116 
L 412.668 238.128181 
L 415.3464 237.810262 
L 418.6944 237.164096 
L 422.0424 236.304503 
L 426.06 235.043216 
L 426.7296 234.811535 
L 428.0688 234.894206 
L 429.408 234.651094 
L 432.0864 233.865911 
L 436.104 232.40816 
L 440.7912 230.445209 
L 446.148 227.940133 
L 452.1744 224.856803 
L 458.8704 221.174884 
L 467.5752 216.108266 
L 472.932 212.894577 
L 474.2712 212.993687 
L 475.6104 212.642591 
L 476.9496 212.122079 
L 477.6192 212.282207 
L 478.2888 212.322521 
L 479.628 211.901647 
L 481.6368 210.902776 
L 483.6456 209.807582 
L 484.9848 210.023633 
L 485.6544 210.438636 
L 486.324 210.719872 
L 487.6632 210.78116 
L 489.0024 210.593362 
L 490.3416 212.097502 
L 491.0112 212.428421 
L 491.6808 213.063231 
L 492.3504 213.99581 
L 493.02 214.638734 
L 493.6896 215.012336 
L 494.3592 215.690936 
L 495.0288 216.647545 
L 495.6984 217.320598 
L 496.368 217.734151 
L 497.0376 218.01618 
L 498.3768 219.127169 
L 499.716 219.638308 
L 501.0552 219.890363 
L 502.3944 220.744038 
L 503.7336 221.088155 
L 504.4032 221.170298 
L 505.7424 221.961452 
L 507.0816 222.257064 
L 507.7512 222.318565 
L 508.4208 222.7343 
L 510.4296 226.045412 
L 511.0992 226.778549 
L 512.4384 227.579223 
L 513.7776 228.026629 
L 515.1168 228.909186 
L 515.7864 229.807565 
L 516.456 230.501945 
L 517.1256 230.916123 
L 519.804 234.450739 
L 521.1432 235.215278 
L 522.4824 235.677354 
L 523.152 235.845573 
L 523.8216 236.260626 
L 524.4912 236.866804 
L 526.5 238.22876 
L 527.8392 239.137755 
L 529.1784 239.575834 
L 529.848 239.716699 
L 531.1872 240.361619 
L 532.5264 240.650611 
L 534.5352 240.825082 
L 537.2136 240.803876 
L 539.892 240.574099 
L 543.24 240.053746 
L 546.588 239.317823 
L 550.6056 238.195405 
L 554.6232 236.850214 
L 559.3104 235.040489 
L 564.6672 232.701933 
L 570.024 230.118974 
L 576.0504 226.968865 
L 582.7464 223.222884 
L 591.4512 218.070821 
L 602.1648 211.484273 
L 603.504 211.585155 
L 604.8432 211.231761 
L 607.5216 210.109216 
L 610.8696 208.473458 
L 612.2088 207.653117 
L 613.548 206.659011 
L 614.8872 206.60922 
L 616.2264 206.109515 
L 618.2352 205.061524 
L 621.5832 203.046295 
L 622.9224 202.087438 
L 624.9312 202.06911 
L 625.6008 202.450955 
L 626.94 204.11375 
L 627.6096 204.61572 
L 628.9488 205.153832 
L 629.6184 205.281281 
L 630.288 205.866101 
L 630.9576 207.379652 
L 631.6272 208.570616 
L 632.2968 209.30347 
L 632.9664 209.788521 
L 633.636 210.130725 
L 634.9752 211.442477 
L 635.6448 211.812251 
L 636.984 213.099574 
L 637.6536 213.459211 
L 638.9928 216.728133 
L 639.6624 217.823886 
L 640.332 218.531418 
L 641.0016 219.447253 
L 641.6712 220.173661 
L 642.3408 220.678762 
L 643.0104 221.451044 
L 643.68 222.452214 
L 644.3496 223.187099 
L 645.0192 223.684773 
L 646.3584 225.019783 
L 648.3672 226.350033 
L 649.0368 227.184935 
L 649.7064 227.791291 
L 653.0544 229.81495 
L 653.724 230.360518 
L 654.3936 231.109254 
L 658.4112 234.375188 
L 659.7504 236.001806 
L 660.42 236.584206 
L 661.7592 237.259819 
L 663.768 237.830001 
L 665.7768 238.144633 
L 667.7856 238.291393 
L 669.1248 238.793817 
L 670.464 238.964187 
L 672.4728 238.988258 
L 675.1512 238.801431 
L 678.4992 238.315949 
L 681.8472 237.605489 
L 685.8648 236.505954 
L 689.8824 235.17768 
L 693.9 233.653308 
L 695.2392 233.690081 
L 696.5784 233.396689 
L 699.2568 232.511656 
L 703.2744 230.91813 
L 707.9616 228.818193 
L 713.3184 226.181477 
L 719.3448 222.978483 
L 726.7104 218.809002 
L 736.7544 212.843022 
L 742.7808 209.162354 
L 744.12 209.306337 
L 744.7896 209.188238 
L 746.1288 208.632557 
L 747.468 207.823423 
L 748.8072 207.894674 
L 750.1464 207.48997 
L 752.1552 206.591959 
L 753.4944 206.94941 
L 754.8336 206.84914 
L 756.1728 206.541395 
L 757.512 207.131986 
L 758.8512 207.211492 
L 760.1904 207.049254 
L 761.5296 207.746986 
L 762.1992 207.878459 
L 763.5384 208.846074 
L 764.8776 209.178274 
L 765.5472 209.224076 
L 766.8864 210.112427 
L 768.2256 210.422527 
L 768.8952 210.469401 
L 770.2344 212.223005 
L 770.904 212.66161 
L 771.5736 212.932511 
L 774.252 215.383513 
L 775.5912 215.970012 
L 776.9304 216.258656 
L 777.6 216.773668 
L 777.6 216.773668 
" clip-path="url(#pa4664932a4)" style="fill: none; stroke: #000000; stroke-width: 1.5; stroke-linecap: square"/>
   </g>
   <g id="line2d_24">
    <path d="M 108 142.001628 
L 110.6784 143.795502 
L 114.696 146.353501 
L 116.7048 147.887217 
L 118.044 149.197299 
L 119.3832 150.803013 
L 120.7224 152.689947 
L 122.0616 154.902423 
L 124.0704 158.822337 
L 126.0792 163.317788 
L 128.088 168.371315 
L 130.7664 175.842906 
L 134.784 187.23245 
L 138.8016 197.727371 
L 140.8104 202.46789 
L 142.8192 206.592007 
L 144.828 210.088135 
L 146.8368 213.107577 
L 148.8456 215.642765 
L 150.8544 217.842804 
L 152.8632 219.699036 
L 154.872 221.203327 
L 156.8808 222.392668 
L 158.8896 223.306574 
L 160.8984 223.979298 
L 162.9072 224.439841 
L 164.916 224.712868 
L 167.5944 224.821314 
L 170.2728 224.675912 
L 172.9512 224.311577 
L 176.2992 223.59199 
L 179.6472 222.621593 
L 182.9952 221.437606 
L 187.0128 219.777043 
L 191.7 217.561725 
L 196.3872 215.098353 
L 200.4048 212.967666 
L 207.1008 210.058206 
L 209.1096 209.402019 
L 209.7792 181.291872 
L 210.4488 168.307324 
L 211.1184 161.057571 
L 211.788 156.114017 
L 212.4576 152.571888 
L 213.1272 149.997924 
L 213.7968 148.119243 
L 214.4664 146.750472 
L 215.136 145.756809 
L 215.8056 145.037266 
L 217.1448 144.13059 
L 218.484 143.597073 
L 222.5016 142.268111 
L 225.18 141.10578 
L 227.1888 140.224163 
L 228.528 139.897302 
L 230.5368 139.808675 
L 234.5544 139.84095 
L 235.8936 140.107677 
L 237.2328 140.648191 
L 239.2416 141.790531 
L 240.5808 142.747336 
L 243.2592 145.163999 
L 248.616 150.145492 
L 250.6248 152.568945 
L 252.6336 155.440815 
L 254.6424 158.670081 
L 255.9816 161.212688 
L 257.3208 164.183776 
L 259.3296 169.320255 
L 261.3384 175.077245 
L 268.0344 195.302786 
L 270.0432 200.471841 
L 272.052 204.89308 
L 274.0608 208.694386 
L 276.0696 211.864177 
L 278.0784 214.457816 
L 280.0872 216.555483 
L 282.096 218.229792 
L 284.7744 220.06179 
L 286.7832 221.170561 
L 288.792 222.017517 
L 290.8008 222.625675 
L 294.8184 223.465695 
L 297.4968 223.782057 
L 300.1752 223.829362 
L 302.8536 223.638882 
L 305.532 223.241941 
L 308.88 222.494211 
L 312.228 221.504743 
L 316.2456 220.044845 
L 320.2632 218.331723 
L 324.9504 216.064175 
L 329.6376 213.555429 
L 334.9944 210.449133 
L 341.6904 206.289887 
L 343.0296 205.428226 
L 343.6992 177.905368 
L 344.3688 164.962929 
L 345.0384 157.45664 
L 345.708 152.257945 
L 346.3776 148.499849 
L 347.0472 145.744789 
L 347.7168 143.71468 
L 348.3864 142.220081 
L 349.056 141.126109 
L 349.7256 140.329934 
L 350.3952 139.753084 
L 351.7344 139.021113 
L 353.7432 138.374378 
L 355.752 137.898401 
L 357.0912 137.806087 
L 358.4304 137.878662 
L 359.7696 138.139835 
L 363.7872 139.270224 
L 370.4832 142.046001 
L 374.5008 143.767507 
L 375.84 144.749875 
L 381.1968 149.269595 
L 383.2056 151.43009 
L 385.2144 153.95131 
L 387.2232 156.922521 
L 389.232 160.439077 
L 391.2408 164.455068 
L 392.58 167.569194 
L 394.5888 172.961956 
L 402.624 195.798988 
L 404.6328 200.564598 
L 406.6416 204.838615 
L 408.6504 208.567499 
L 410.6592 211.809076 
L 412.668 214.551949 
L 414.6768 216.807449 
L 416.6856 218.634281 
L 418.6944 220.090966 
L 420.7032 221.227447 
L 422.712 222.085506 
L 424.7208 222.700252 
L 426.7296 223.101391 
L 431.4168 223.720625 
L 434.0952 223.77743 
L 436.7736 223.593899 
L 439.452 223.201405 
L 442.8 222.457209 
L 446.148 221.469964 
L 449.496 220.273498 
L 453.5136 218.600579 
L 458.2008 216.371715 
L 462.888 213.894287 
L 468.2448 210.816041 
L 475.6104 206.521959 
L 476.9496 205.904894 
L 477.6192 178.396152 
L 478.2888 165.557384 
L 478.9584 158.22061 
L 479.628 153.200674 
L 480.2976 149.61027 
L 480.9672 146.998115 
L 481.6368 145.087938 
L 482.3064 143.692419 
L 482.976 142.678999 
L 483.6456 141.947724 
L 484.3152 141.440014 
L 484.9848 141.109426 
L 486.324 140.850722 
L 489.0024 140.927949 
L 491.0112 141.089152 
L 493.02 141.463482 
L 495.6984 142.221559 
L 501.0552 143.949431 
L 505.7424 145.336635 
L 509.0904 146.575365 
L 510.4296 147.407348 
L 512.4384 149.125221 
L 515.7864 152.342086 
L 517.1256 153.93802 
L 518.4648 155.838504 
L 519.804 158.176311 
L 521.1432 160.908157 
L 523.152 165.600668 
L 524.4912 169.177187 
L 525.8304 173.231256 
L 527.8392 180.091041 
L 531.8568 194.239985 
L 533.8656 200.423189 
L 535.8744 205.663993 
L 537.2136 208.650424 
L 538.5528 211.269243 
L 539.892 213.557237 
L 541.2312 215.549646 
L 543.24 218.053272 
L 545.2488 220.056671 
L 547.2576 221.636769 
L 549.2664 222.856589 
L 551.2752 223.767919 
L 553.284 224.413559 
L 555.2928 224.829108 
L 557.3016 225.044351 
L 559.98 225.062474 
L 562.6584 224.817511 
L 565.3368 224.34883 
L 568.6848 223.496329 
L 572.0328 222.393235 
L 576.0504 220.79282 
L 580.068 218.939299 
L 584.7552 216.510735 
L 590.112 213.446416 
L 596.1384 209.705796 
L 604.8432 204.176637 
L 610.8696 201.156774 
L 611.5392 174.559109 
L 612.2088 161.976967 
L 612.8784 154.64298 
L 613.548 149.615265 
L 614.2176 146.020239 
L 614.8872 143.417194 
L 615.5568 141.533133 
L 616.2264 140.182342 
L 616.896 139.230543 
L 617.5656 138.573877 
L 618.2352 138.131119 
L 619.5744 137.641241 
L 625.6008 136.469884 
L 626.94 136.395432 
L 629.6184 136.636928 
L 630.9576 136.827371 
L 632.2968 137.244837 
L 638.3232 139.631399 
L 639.6624 140.478679 
L 642.3408 142.557241 
L 645.0192 144.823432 
L 648.3672 147.962437 
L 650.376 150.097091 
L 652.3848 152.484914 
L 654.3936 155.215603 
L 655.7328 157.375727 
L 657.072 159.865737 
L 658.4112 162.718607 
L 659.7504 166.096598 
L 661.0896 170.062022 
L 663.0984 176.775857 
L 667.116 190.614533 
L 669.1248 196.74623 
L 671.1336 202.127323 
L 673.1424 206.658766 
L 674.4816 209.230265 
L 675.8208 211.478774 
L 677.16 213.437381 
L 679.1688 215.898494 
L 681.1776 217.867171 
L 683.1864 219.418738 
L 685.1952 220.61498 
L 687.204 221.506655 
L 689.2128 222.13569 
L 691.2216 222.536937 
L 693.2304 222.73955 
L 698.5872 222.879386 
L 701.2656 222.696072 
L 703.944 222.299731 
L 707.292 221.545818 
L 710.64 220.545573 
L 713.988 219.333699 
L 718.0056 217.639499 
L 722.6928 215.382266 
L 727.38 212.873106 
L 732.7368 209.755214 
L 738.7632 205.998253 
L 744.7896 202.205822 
L 745.4592 175.403757 
L 746.1288 162.767675 
L 746.7984 155.427804 
L 747.468 150.401838 
L 748.1376 146.815894 
L 748.8072 144.230626 
L 749.4768 142.370013 
L 750.1464 141.044208 
L 750.816 140.114924 
L 751.4856 139.478134 
L 752.1552 139.052612 
L 752.8248 138.791545 
L 754.164 138.609909 
L 766.2168 138.662717 
L 769.5648 139.02093 
L 771.5736 139.526573 
L 773.5824 140.223244 
L 777.6 141.938209 
L 777.6 141.938209 
" clip-path="url(#pa4664932a4)" style="fill: none; stroke: #4169e1; stroke-width: 1.5; stroke-linecap: square"/>
   </g>
   <g id="patch_3">
    <path d="M 108 256.32 
L 108 34.56 
" style="fill: none; stroke: #000000; stroke-width: 0.8; stroke-linejoin: miter; stroke-linecap: square"/>
   </g>
   <g id="patch_4">
    <path d="M 777.6 256.32 
L 777.6 34.56 
" style="fill: none; stroke: #000000; stroke-width: 0.8; stroke-linejoin: miter; stroke-linecap: square"/>
   </g>
   <g id="patch_5">
    <path d="M 108 256.32 
L 777.6 256.32 
" style="fill: none; stroke: #000000; stroke-width: 0.8; stroke-linejoin: miter; stroke-linecap: square"/>
   </g>
   <g id="patch_6">
    <path d="M 108 34.56 
L 777.6 34.56 
" style="fill: none; stroke: #000000; stroke-width: 0.8; stroke-linejoin: miter; stroke-linecap: square"/>
   </g>
   <g id="legend_1">
    <g id="patch_7">
     <path d="M 695.098438 71.91625 
L 770.6 71.91625 
Q 772.6 71.91625 772.6 69.91625 
L 772.6 41.56 
Q 772.6 39.56 770.6 39.56 
L 695.098438 39.56 
Q 693.098438 39.56 693.098438 41.56 
L 693.098438 69.91625 
Q 693.098438 71.91625 695.098438 71.91625 
z
" style="fill: #ffffff; opacity: 0.8; stroke: #cccccc; stroke-linejoin: miter"/>
    </g>
    <g id="line2d_25">
     <path d="M 697.098438 47.658437 
L 707.098438 47.658437 
L 717.098438 47.658437 
" style="fill: none; stroke: #000000; stroke-width: 1.5; stroke-linecap: square"/>
    </g>
    <g id="text_14">
     <!-- Soma -->
     <g transform="translate(725.098438 51.158437) scale(0.1 -0.1)">
      <defs>
       <path id="DejaVuSans-53" d="M 3425 4513 
L 3425 3897 
Q 3066 4069 2747 4153 
Q 2428 4238 2131 4238 
Q 1616 4238 1336 4038 
Q 1056 3838 1056 3469 
Q 1056 3159 1242 3001 
Q 1428 2844 1947 2747 
L 2328 2669 
Q 3034 2534 3370 2195 
Q 3706 1856 3706 1288 
Q 3706 609 3251 259 
Q 2797 -91 1919 -91 
Q 1588 -91 1214 -16 
Q 841 59 441 206 
L 441 856 
Q 825 641 1194 531 
Q 1563 422 1919 422 
Q 2459 422 2753 634 
Q 3047 847 3047 1241 
Q 3047 1584 2836 1778 
Q 2625 1972 2144 2069 
L 1759 2144 
Q 1053 2284 737 2584 
Q 422 2884 422 3419 
Q 422 4038 858 4394 
Q 1294 4750 2059 4750 
Q 2388 4750 2728 4690 
Q 3069 4631 3425 4513 
z
" transform="scale(0.015625)"/>
       <path id="DejaVuSans-6f" d="M 1959 3097 
Q 1497 3097 1228 2736 
Q 959 2375 959 1747 
Q 959 1119 1226 758 
Q 1494 397 1959 397 
Q 2419 397 2687 759 
Q 2956 1122 2956 1747 
Q 2956 2369 2687 2733 
Q 2419 3097 1959 3097 
z
M 1959 3584 
Q 2709 3584 3137 3096 
Q 3566 2609 3566 1747 
Q 3566 888 3137 398 
Q 2709 -91 1959 -91 
Q 1206 -91 779 398 
Q 353 888 353 1747 
Q 353 2609 779 3096 
Q 1206 3584 1959 3584 
z
" transform="scale(0.015625)"/>
       <path id="DejaVuSans-61" d="M 2194 1759 
Q 1497 1759 1228 1600 
Q 959 1441 959 1056 
Q 959 750 1161 570 
Q 1363 391 1709 391 
Q 2188 391 2477 730 
Q 2766 1069 2766 1631 
L 2766 1759 
L 2194 1759 
z
M 3341 1997 
L 3341 0 
L 2766 0 
L 2766 531 
Q 2569 213 2275 61 
Q 1981 -91 1556 -91 
Q 1019 -91 701 211 
Q 384 513 384 1019 
Q 384 1609 779 1909 
Q 1175 2209 1959 2209 
L 2766 2209 
L 2766 2266 
Q 2766 2663 2505 2880 
Q 2244 3097 1772 3097 
Q 1472 3097 1187 3025 
Q 903 2953 641 2809 
L 641 3341 
Q 956 3463 1253 3523 
Q 1550 3584 1831 3584 
Q 2591 3584 2966 3190 
Q 3341 2797 3341 1997 
z
" transform="scale(0.015625)"/>
      </defs>
      <use xlink:href="#DejaVuSans-53"/>
      <use xlink:href="#DejaVuSans-6f" x="63.476562"/>
      <use xlink:href="#DejaVuSans-6d" x="124.658203"/>
      <use xlink:href="#DejaVuSans-61" x="222.070312"/>
     </g>
    </g>
    <g id="line2d_26">
     <path d="M 697.098438 62.336562 
L 707.098438 62.336562 
L 717.098438 62.336562 
" style="fill: none; stroke: #4169e1; stroke-width: 1.5; stroke-linecap: square"/>
    </g>
    <g id="text_15">
     <!-- Dendrite -->
     <g transform="translate(725.098438 65.836562) scale(0.1 -0.1)">
      <defs>
       <path id="DejaVuSans-44" d="M 1259 4147 
L 1259 519 
L 2022 519 
Q 2988 519 3436 956 
Q 3884 1394 3884 2338 
Q 3884 3275 3436 3711 
Q 2988 4147 2022 4147 
L 1259 4147 
z
M 628 4666 
L 1925 4666 
Q 3281 4666 3915 4102 
Q 4550 3538 4550 2338 
Q 4550 1131 3912 565 
Q 3275 0 1925 0 
L 628 0 
L 628 4666 
z
" transform="scale(0.015625)"/>
       <path id="DejaVuSans-6e" d="M 3513 2113 
L 3513 0 
L 2938 0 
L 2938 2094 
Q 2938 2591 2744 2837 
Q 2550 3084 2163 3084 
Q 1697 3084 1428 2787 
Q 1159 2491 1159 1978 
L 1159 0 
L 581 0 
L 581 3500 
L 1159 3500 
L 1159 2956 
Q 1366 3272 1645 3428 
Q 1925 3584 2291 3584 
Q 2894 3584 3203 3211 
Q 3513 2838 3513 2113 
z
" transform="scale(0.015625)"/>
       <path id="DejaVuSans-64" d="M 2906 2969 
L 2906 4863 
L 3481 4863 
L 3481 0 
L 2906 0 
L 2906 525 
Q 2725 213 2448 61 
Q 2172 -91 1784 -91 
Q 1150 -91 751 415 
Q 353 922 353 1747 
Q 353 2572 751 3078 
Q 1150 3584 1784 3584 
Q 2172 3584 2448 3432 
Q 2725 3281 2906 2969 
z
M 947 1747 
Q 947 1113 1208 752 
Q 1469 391 1925 391 
Q 2381 391 2643 752 
Q 2906 1113 2906 1747 
Q 2906 2381 2643 2742 
Q 2381 3103 1925 3103 
Q 1469 3103 1208 2742 
Q 947 2381 947 1747 
z
" transform="scale(0.015625)"/>
       <path id="DejaVuSans-72" d="M 2631 2963 
Q 2534 3019 2420 3045 
Q 2306 3072 2169 3072 
Q 1681 3072 1420 2755 
Q 1159 2438 1159 1844 
L 1159 0 
L 581 0 
L 581 3500 
L 1159 3500 
L 1159 2956 
Q 1341 3275 1631 3429 
Q 1922 3584 2338 3584 
Q 2397 3584 2469 3576 
Q 2541 3569 2628 3553 
L 2631 2963 
z
" transform="scale(0.015625)"/>
       <path id="DejaVuSans-74" d="M 1172 4494 
L 1172 3500 
L 2356 3500 
L 2356 3053 
L 1172 3053 
L 1172 1153 
Q 1172 725 1289 603 
Q 1406 481 1766 481 
L 2356 481 
L 2356 0 
L 1766 0 
Q 1100 0 847 248 
Q 594 497 594 1153 
L 594 3053 
L 172 3053 
L 172 3500 
L 594 3500 
L 594 4494 
L 1172 4494 
z
" transform="scale(0.015625)"/>
      </defs>
      <use xlink:href="#DejaVuSans-44"/>
      <use xlink:href="#DejaVuSans-65" x="77.001953"/>
      <use xlink:href="#DejaVuSans-6e" x="138.525391"/>
      <use xlink:href="#DejaVuSans-64" x="201.904297"/>
      <use xlink:href="#DejaVuSans-72" x="265.380859"/>
      <use xlink:href="#DejaVuSans-69" x="306.494141"/>
      <use xlink:href="#DejaVuSans-74" x="334.277344"/>
      <use xlink:href="#DejaVuSans-65" x="373.486328"/>
     </g>
    </g>
   </g>
  </g>
 </g>
 <defs>
  <clipPath id="pa4664932a4">
   <rect x="108" y="34.56" width="669.6" height="221.76"/>
  </clipPath>
 </defs>
</svg>
