<?xml version="1.0" encoding="utf-8" standalone="no"?>
<!DOCTYPE svg PUBLIC "-//W3C//DTD SVG 1.1//EN"
  "http://www.w3.org/Graphics/SVG/1.1/DTD/svg11.dtd">
<svg xmlns:xlink="http://www.w3.org/1999/xlink" width="864pt" height="288pt" viewBox="0 0 864 288" xmlns="http://www.w3.org/2000/svg" version="1.1">
 <metadata>
  <rdf:RDF xmlns:dc="http://purl.org/dc/elements/1.1/" xmlns:cc="http://creativecommons.org/ns#" xmlns:rdf="http://www.w3.org/1999/02/22-rdf-syntax-ns#">
   <cc:Work>
    <dc:type rdf:resource="http://purl.org/dc/dcmitype/StillImage"/>
    <dc:date>2024-04-26T13:29:39.422761</dc:date>
    <dc:format>image/svg+xml</dc:format>
    <dc:creator>
     <cc:Agent>
      <dc:title>Matplotlib v3.8.2, https://matplotlib.org/</dc:title>
     </cc:Agent>
    </dc:creator>
   </cc:Work>
  </rdf:RDF>
 </metadata>
 <defs>
  <style type="text/css">*{stroke-linejoin: round; stroke-linecap: butt}</style>
 </defs>
 <g id="figure_1">
  <g id="patch_1">
   <path d="M 0 288 
L 864 288 
L 864 0 
L 0 0 
z
" style="fill: #ffffff"/>
  </g>
  <g id="axes_1">
   <g id="patch_2">
    <path d="M 108 256.32 
L 777.6 256.32 
L 777.6 34.56 
L 108 34.56 
z
" style="fill: #ffffff"/>
   </g>
   <g id="matplotlib.axis_1">
    <g id="xtick_1">
     <g id="line2d_1">
      <path d="M 108 256.32 
L 108 34.56 
" clip-path="url(#p4ac89c969b)" style="fill: none; stroke: #b0b0b0; stroke-width: 0.8; stroke-linecap: square"/>
     </g>
     <g id="line2d_2">
      <defs>
       <path id="m9c84340c8f" d="M 0 0 
L 0 3.5 
" style="stroke: #000000; stroke-width: 0.8"/>
      </defs>
      <g>
       <use xlink:href="#m9c84340c8f" x="108" y="256.32" style="stroke: #000000; stroke-width: 0.8"/>
      </g>
     </g>
     <g id="text_1">
      <!-- 100 -->
      <g transform="translate(94.63875 273.957812) scale(0.14 -0.14)">
       <defs>
        <path id="DejaVuSans-31" d="M 794 531 
L 1825 531 
L 1825 4091 
L 703 3866 
L 703 4441 
L 1819 4666 
L 2450 4666 
L 2450 531 
L 3481 531 
L 3481 0 
L 794 0 
L 794 531 
z
" transform="scale(0.015625)"/>
        <path id="DejaVuSans-30" d="M 2034 4250 
Q 1547 4250 1301 3770 
Q 1056 3291 1056 2328 
Q 1056 1369 1301 889 
Q 1547 409 2034 409 
Q 2525 409 2770 889 
Q 3016 1369 3016 2328 
Q 3016 3291 2770 3770 
Q 2525 4250 2034 4250 
z
M 2034 4750 
Q 2819 4750 3233 4129 
Q 3647 3509 3647 2328 
Q 3647 1150 3233 529 
Q 2819 -91 2034 -91 
Q 1250 -91 836 529 
Q 422 1150 422 2328 
Q 422 3509 836 4129 
Q 1250 4750 2034 4750 
z
" transform="scale(0.015625)"/>
       </defs>
       <use xlink:href="#DejaVuSans-31"/>
       <use xlink:href="#DejaVuSans-30" x="63.623047"/>
       <use xlink:href="#DejaVuSans-30" x="127.246094"/>
      </g>
     </g>
    </g>
    <g id="xtick_2">
     <g id="line2d_3">
      <path d="M 241.92 256.32 
L 241.92 34.56 
" clip-path="url(#p4ac89c969b)" style="fill: none; stroke: #b0b0b0; stroke-width: 0.8; stroke-linecap: square"/>
     </g>
     <g id="line2d_4">
      <g>
       <use xlink:href="#m9c84340c8f" x="241.92" y="256.32" style="stroke: #000000; stroke-width: 0.8"/>
      </g>
     </g>
     <g id="text_2">
      <!-- 120 -->
      <g transform="translate(228.55875 273.957812) scale(0.14 -0.14)">
       <defs>
        <path id="DejaVuSans-32" d="M 1228 531 
L 3431 531 
L 3431 0 
L 469 0 
L 469 531 
Q 828 903 1448 1529 
Q 2069 2156 2228 2338 
Q 2531 2678 2651 2914 
Q 2772 3150 2772 3378 
Q 2772 3750 2511 3984 
Q 2250 4219 1831 4219 
Q 1534 4219 1204 4116 
Q 875 4013 500 3803 
L 500 4441 
Q 881 4594 1212 4672 
Q 1544 4750 1819 4750 
Q 2544 4750 2975 4387 
Q 3406 4025 3406 3419 
Q 3406 3131 3298 2873 
Q 3191 2616 2906 2266 
Q 2828 2175 2409 1742 
Q 1991 1309 1228 531 
z
" transform="scale(0.015625)"/>
       </defs>
       <use xlink:href="#DejaVuSans-31"/>
       <use xlink:href="#DejaVuSans-32" x="63.623047"/>
       <use xlink:href="#DejaVuSans-30" x="127.246094"/>
      </g>
     </g>
    </g>
    <g id="xtick_3">
     <g id="line2d_5">
      <path d="M 375.84 256.32 
L 375.84 34.56 
" clip-path="url(#p4ac89c969b)" style="fill: none; stroke: #b0b0b0; stroke-width: 0.8; stroke-linecap: square"/>
     </g>
     <g id="line2d_6">
      <g>
       <use xlink:href="#m9c84340c8f" x="375.84" y="256.32" style="stroke: #000000; stroke-width: 0.8"/>
      </g>
     </g>
     <g id="text_3">
      <!-- 140 -->
      <g transform="translate(362.47875 273.957812) scale(0.14 -0.14)">
       <defs>
        <path id="DejaVuSans-34" d="M 2419 4116 
L 825 1625 
L 2419 1625 
L 2419 4116 
z
M 2253 4666 
L 3047 4666 
L 3047 1625 
L 3713 1625 
L 3713 1100 
L 3047 1100 
L 3047 0 
L 2419 0 
L 2419 1100 
L 313 1100 
L 313 1709 
L 2253 4666 
z
" transform="scale(0.015625)"/>
       </defs>
       <use xlink:href="#DejaVuSans-31"/>
       <use xlink:href="#DejaVuSans-34" x="63.623047"/>
       <use xlink:href="#DejaVuSans-30" x="127.246094"/>
      </g>
     </g>
    </g>
    <g id="xtick_4">
     <g id="line2d_7">
      <path d="M 509.76 256.32 
L 509.76 34.56 
" clip-path="url(#p4ac89c969b)" style="fill: none; stroke: #b0b0b0; stroke-width: 0.8; stroke-linecap: square"/>
     </g>
     <g id="line2d_8">
      <g>
       <use xlink:href="#m9c84340c8f" x="509.76" y="256.32" style="stroke: #000000; stroke-width: 0.8"/>
      </g>
     </g>
     <g id="text_4">
      <!-- 160 -->
      <g transform="translate(496.39875 273.957812) scale(0.14 -0.14)">
       <defs>
        <path id="DejaVuSans-36" d="M 2113 2584 
Q 1688 2584 1439 2293 
Q 1191 2003 1191 1497 
Q 1191 994 1439 701 
Q 1688 409 2113 409 
Q 2538 409 2786 701 
Q 3034 994 3034 1497 
Q 3034 2003 2786 2293 
Q 2538 2584 2113 2584 
z
M 3366 4563 
L 3366 3988 
Q 3128 4100 2886 4159 
Q 2644 4219 2406 4219 
Q 1781 4219 1451 3797 
Q 1122 3375 1075 2522 
Q 1259 2794 1537 2939 
Q 1816 3084 2150 3084 
Q 2853 3084 3261 2657 
Q 3669 2231 3669 1497 
Q 3669 778 3244 343 
Q 2819 -91 2113 -91 
Q 1303 -91 875 529 
Q 447 1150 447 2328 
Q 447 3434 972 4092 
Q 1497 4750 2381 4750 
Q 2619 4750 2861 4703 
Q 3103 4656 3366 4563 
z
" transform="scale(0.015625)"/>
       </defs>
       <use xlink:href="#DejaVuSans-31"/>
       <use xlink:href="#DejaVuSans-36" x="63.623047"/>
       <use xlink:href="#DejaVuSans-30" x="127.246094"/>
      </g>
     </g>
    </g>
    <g id="xtick_5">
     <g id="line2d_9">
      <path d="M 643.68 256.32 
L 643.68 34.56 
" clip-path="url(#p4ac89c969b)" style="fill: none; stroke: #b0b0b0; stroke-width: 0.8; stroke-linecap: square"/>
     </g>
     <g id="line2d_10">
      <g>
       <use xlink:href="#m9c84340c8f" x="643.68" y="256.32" style="stroke: #000000; stroke-width: 0.8"/>
      </g>
     </g>
     <g id="text_5">
      <!-- 180 -->
      <g transform="translate(630.31875 273.957812) scale(0.14 -0.14)">
       <defs>
        <path id="DejaVuSans-38" d="M 2034 2216 
Q 1584 2216 1326 1975 
Q 1069 1734 1069 1313 
Q 1069 891 1326 650 
Q 1584 409 2034 409 
Q 2484 409 2743 651 
Q 3003 894 3003 1313 
Q 3003 1734 2745 1975 
Q 2488 2216 2034 2216 
z
M 1403 2484 
Q 997 2584 770 2862 
Q 544 3141 544 3541 
Q 544 4100 942 4425 
Q 1341 4750 2034 4750 
Q 2731 4750 3128 4425 
Q 3525 4100 3525 3541 
Q 3525 3141 3298 2862 
Q 3072 2584 2669 2484 
Q 3125 2378 3379 2068 
Q 3634 1759 3634 1313 
Q 3634 634 3220 271 
Q 2806 -91 2034 -91 
Q 1263 -91 848 271 
Q 434 634 434 1313 
Q 434 1759 690 2068 
Q 947 2378 1403 2484 
z
M 1172 3481 
Q 1172 3119 1398 2916 
Q 1625 2713 2034 2713 
Q 2441 2713 2670 2916 
Q 2900 3119 2900 3481 
Q 2900 3844 2670 4047 
Q 2441 4250 2034 4250 
Q 1625 4250 1398 4047 
Q 1172 3844 1172 3481 
z
" transform="scale(0.015625)"/>
       </defs>
       <use xlink:href="#DejaVuSans-31"/>
       <use xlink:href="#DejaVuSans-38" x="63.623047"/>
       <use xlink:href="#DejaVuSans-30" x="127.246094"/>
      </g>
     </g>
    </g>
    <g id="xtick_6">
     <g id="line2d_11">
      <path d="M 777.6 256.32 
L 777.6 34.56 
" clip-path="url(#p4ac89c969b)" style="fill: none; stroke: #b0b0b0; stroke-width: 0.8; stroke-linecap: square"/>
     </g>
     <g id="line2d_12">
      <g>
       <use xlink:href="#m9c84340c8f" x="777.6" y="256.32" style="stroke: #000000; stroke-width: 0.8"/>
      </g>
     </g>
     <g id="text_6">
      <!-- 200 -->
      <g transform="translate(764.23875 273.957812) scale(0.14 -0.14)">
       <use xlink:href="#DejaVuSans-32"/>
       <use xlink:href="#DejaVuSans-30" x="63.623047"/>
       <use xlink:href="#DejaVuSans-30" x="127.246094"/>
      </g>
     </g>
    </g>
    <g id="text_7">
     <!-- Time (ms) -->
     <g transform="translate(407.521094 291.507187) scale(0.14 -0.14)">
      <defs>
       <path id="DejaVuSans-54" d="M -19 4666 
L 3928 4666 
L 3928 4134 
L 2272 4134 
L 2272 0 
L 1638 0 
L 1638 4134 
L -19 4134 
L -19 4666 
z
" transform="scale(0.015625)"/>
       <path id="DejaVuSans-69" d="M 603 3500 
L 1178 3500 
L 1178 0 
L 603 0 
L 603 3500 
z
M 603 4863 
L 1178 4863 
L 1178 4134 
L 603 4134 
L 603 4863 
z
" transform="scale(0.015625)"/>
       <path id="DejaVuSans-6d" d="M 3328 2828 
Q 3544 3216 3844 3400 
Q 4144 3584 4550 3584 
Q 5097 3584 5394 3201 
Q 5691 2819 5691 2113 
L 5691 0 
L 5113 0 
L 5113 2094 
Q 5113 2597 4934 2840 
Q 4756 3084 4391 3084 
Q 3944 3084 3684 2787 
Q 3425 2491 3425 1978 
L 3425 0 
L 2847 0 
L 2847 2094 
Q 2847 2600 2669 2842 
Q 2491 3084 2119 3084 
Q 1678 3084 1418 2786 
Q 1159 2488 1159 1978 
L 1159 0 
L 581 0 
L 581 3500 
L 1159 3500 
L 1159 2956 
Q 1356 3278 1631 3431 
Q 1906 3584 2284 3584 
Q 2666 3584 2933 3390 
Q 3200 3197 3328 2828 
z
" transform="scale(0.015625)"/>
       <path id="DejaVuSans-65" d="M 3597 1894 
L 3597 1613 
L 953 1613 
Q 991 1019 1311 708 
Q 1631 397 2203 397 
Q 2534 397 2845 478 
Q 3156 559 3463 722 
L 3463 178 
Q 3153 47 2828 -22 
Q 2503 -91 2169 -91 
Q 1331 -91 842 396 
Q 353 884 353 1716 
Q 353 2575 817 3079 
Q 1281 3584 2069 3584 
Q 2775 3584 3186 3129 
Q 3597 2675 3597 1894 
z
M 3022 2063 
Q 3016 2534 2758 2815 
Q 2500 3097 2075 3097 
Q 1594 3097 1305 2825 
Q 1016 2553 972 2059 
L 3022 2063 
z
" transform="scale(0.015625)"/>
       <path id="DejaVuSans-20" transform="scale(0.015625)"/>
       <path id="DejaVuSans-28" d="M 1984 4856 
Q 1566 4138 1362 3434 
Q 1159 2731 1159 2009 
Q 1159 1288 1364 580 
Q 1569 -128 1984 -844 
L 1484 -844 
Q 1016 -109 783 600 
Q 550 1309 550 2009 
Q 550 2706 781 3412 
Q 1013 4119 1484 4856 
L 1984 4856 
z
" transform="scale(0.015625)"/>
       <path id="DejaVuSans-73" d="M 2834 3397 
L 2834 2853 
Q 2591 2978 2328 3040 
Q 2066 3103 1784 3103 
Q 1356 3103 1142 2972 
Q 928 2841 928 2578 
Q 928 2378 1081 2264 
Q 1234 2150 1697 2047 
L 1894 2003 
Q 2506 1872 2764 1633 
Q 3022 1394 3022 966 
Q 3022 478 2636 193 
Q 2250 -91 1575 -91 
Q 1294 -91 989 -36 
Q 684 19 347 128 
L 347 722 
Q 666 556 975 473 
Q 1284 391 1588 391 
Q 1994 391 2212 530 
Q 2431 669 2431 922 
Q 2431 1156 2273 1281 
Q 2116 1406 1581 1522 
L 1381 1569 
Q 847 1681 609 1914 
Q 372 2147 372 2553 
Q 372 3047 722 3315 
Q 1072 3584 1716 3584 
Q 2034 3584 2315 3537 
Q 2597 3491 2834 3397 
z
" transform="scale(0.015625)"/>
       <path id="DejaVuSans-29" d="M 513 4856 
L 1013 4856 
Q 1481 4119 1714 3412 
Q 1947 2706 1947 2009 
Q 1947 1309 1714 600 
Q 1481 -109 1013 -844 
L 513 -844 
Q 928 -128 1133 580 
Q 1338 1288 1338 2009 
Q 1338 2731 1133 3434 
Q 928 4138 513 4856 
z
" transform="scale(0.015625)"/>
      </defs>
      <use xlink:href="#DejaVuSans-54"/>
      <use xlink:href="#DejaVuSans-69" x="57.958984"/>
      <use xlink:href="#DejaVuSans-6d" x="85.742188"/>
      <use xlink:href="#DejaVuSans-65" x="183.154297"/>
      <use xlink:href="#DejaVuSans-20" x="244.677734"/>
      <use xlink:href="#DejaVuSans-28" x="276.464844"/>
      <use xlink:href="#DejaVuSans-6d" x="315.478516"/>
      <use xlink:href="#DejaVuSans-73" x="412.890625"/>
      <use xlink:href="#DejaVuSans-29" x="464.990234"/>
     </g>
    </g>
   </g>
   <g id="matplotlib.axis_2">
    <g id="ytick_1">
     <g id="line2d_13">
      <path d="M 108 224.72007 
L 777.6 224.72007 
" clip-path="url(#p4ac89c969b)" style="fill: none; stroke: #b0b0b0; stroke-width: 0.8; stroke-linecap: square"/>
     </g>
     <g id="line2d_14">
      <defs>
       <path id="m6aadb59598" d="M 0 0 
L -3.5 0 
" style="stroke: #000000; stroke-width: 0.8"/>
      </defs>
      <g>
       <use xlink:href="#m6aadb59598" x="108" y="224.72007" style="stroke: #000000; stroke-width: 0.8"/>
      </g>
     </g>
     <g id="text_8">
      <!-- −60 -->
      <g transform="translate(71.453437 230.038976) scale(0.14 -0.14)">
       <defs>
        <path id="DejaVuSans-2212" d="M 678 2272 
L 4684 2272 
L 4684 1741 
L 678 1741 
L 678 2272 
z
" transform="scale(0.015625)"/>
       </defs>
       <use xlink:href="#DejaVuSans-2212"/>
       <use xlink:href="#DejaVuSans-36" x="83.789062"/>
       <use xlink:href="#DejaVuSans-30" x="147.412109"/>
      </g>
     </g>
    </g>
    <g id="ytick_2">
     <g id="line2d_15">
      <path d="M 108 181.748789 
L 777.6 181.748789 
" clip-path="url(#p4ac89c969b)" style="fill: none; stroke: #b0b0b0; stroke-width: 0.8; stroke-linecap: square"/>
     </g>
     <g id="line2d_16">
      <g>
       <use xlink:href="#m6aadb59598" x="108" y="181.748789" style="stroke: #000000; stroke-width: 0.8"/>
      </g>
     </g>
     <g id="text_9">
      <!-- −40 -->
      <g transform="translate(71.453437 187.067695) scale(0.14 -0.14)">
       <use xlink:href="#DejaVuSans-2212"/>
       <use xlink:href="#DejaVuSans-34" x="83.789062"/>
       <use xlink:href="#DejaVuSans-30" x="147.412109"/>
      </g>
     </g>
    </g>
    <g id="ytick_3">
     <g id="line2d_17">
      <path d="M 108 138.777509 
L 777.6 138.777509 
" clip-path="url(#p4ac89c969b)" style="fill: none; stroke: #b0b0b0; stroke-width: 0.8; stroke-linecap: square"/>
     </g>
     <g id="line2d_18">
      <g>
       <use xlink:href="#m6aadb59598" x="108" y="138.777509" style="stroke: #000000; stroke-width: 0.8"/>
      </g>
     </g>
     <g id="text_10">
      <!-- −20 -->
      <g transform="translate(71.453437 144.096415) scale(0.14 -0.14)">
       <use xlink:href="#DejaVuSans-2212"/>
       <use xlink:href="#DejaVuSans-32" x="83.789062"/>
       <use xlink:href="#DejaVuSans-30" x="147.412109"/>
      </g>
     </g>
    </g>
    <g id="ytick_4">
     <g id="line2d_19">
      <path d="M 108 95.806228 
L 777.6 95.806228 
" clip-path="url(#p4ac89c969b)" style="fill: none; stroke: #b0b0b0; stroke-width: 0.8; stroke-linecap: square"/>
     </g>
     <g id="line2d_20">
      <g>
       <use xlink:href="#m6aadb59598" x="108" y="95.806228" style="stroke: #000000; stroke-width: 0.8"/>
      </g>
     </g>
     <g id="text_11">
      <!-- 0 -->
      <g transform="translate(92.0925 101.125134) scale(0.14 -0.14)">
       <use xlink:href="#DejaVuSans-30"/>
      </g>
     </g>
    </g>
    <g id="ytick_5">
     <g id="line2d_21">
      <path d="M 108 52.834947 
L 777.6 52.834947 
" clip-path="url(#p4ac89c969b)" style="fill: none; stroke: #b0b0b0; stroke-width: 0.8; stroke-linecap: square"/>
     </g>
     <g id="line2d_22">
      <g>
       <use xlink:href="#m6aadb59598" x="108" y="52.834947" style="stroke: #000000; stroke-width: 0.8"/>
      </g>
     </g>
     <g id="text_12">
      <!-- 20 -->
      <g transform="translate(83.185 58.153854) scale(0.14 -0.14)">
       <use xlink:href="#DejaVuSans-32"/>
       <use xlink:href="#DejaVuSans-30" x="63.623047"/>
      </g>
     </g>
    </g>
    <g id="text_13">
     <!-- $V_{m}$ (mV) -->
     <g transform="translate(64.541875 174.49) rotate(-90) scale(0.14 -0.14)">
      <defs>
       <path id="DejaVuSans-Oblique-56" d="M 1319 0 
L 500 4666 
L 1119 4666 
L 1797 653 
L 4063 4666 
L 4750 4666 
L 2053 0 
L 1319 0 
z
" transform="scale(0.015625)"/>
       <path id="DejaVuSans-Oblique-6d" d="M 5747 2113 
L 5338 0 
L 4763 0 
L 5166 2094 
Q 5191 2228 5203 2325 
Q 5216 2422 5216 2491 
Q 5216 2772 5059 2928 
Q 4903 3084 4622 3084 
Q 4203 3084 3875 2770 
Q 3547 2456 3450 1953 
L 3066 0 
L 2491 0 
L 2900 2094 
Q 2925 2209 2937 2307 
Q 2950 2406 2950 2484 
Q 2950 2769 2794 2926 
Q 2638 3084 2363 3084 
Q 1938 3084 1609 2770 
Q 1281 2456 1184 1953 
L 800 0 
L 225 0 
L 909 3500 
L 1484 3500 
L 1375 2956 
Q 1609 3263 1923 3423 
Q 2238 3584 2597 3584 
Q 2978 3584 3223 3384 
Q 3469 3184 3519 2828 
Q 3781 3197 4126 3390 
Q 4472 3584 4856 3584 
Q 5306 3584 5551 3325 
Q 5797 3066 5797 2591 
Q 5797 2488 5784 2364 
Q 5772 2241 5747 2113 
z
" transform="scale(0.015625)"/>
       <path id="DejaVuSans-56" d="M 1831 0 
L 50 4666 
L 709 4666 
L 2188 738 
L 3669 4666 
L 4325 4666 
L 2547 0 
L 1831 0 
z
" transform="scale(0.015625)"/>
      </defs>
      <use xlink:href="#DejaVuSans-Oblique-56" transform="translate(0 0.125)"/>
      <use xlink:href="#DejaVuSans-Oblique-6d" transform="translate(68.408203 -16.28125) scale(0.7)"/>
      <use xlink:href="#DejaVuSans-20" transform="translate(139.331055 0.125)"/>
      <use xlink:href="#DejaVuSans-28" transform="translate(171.118164 0.125)"/>
      <use xlink:href="#DejaVuSans-6d" transform="translate(210.131836 0.125)"/>
      <use xlink:href="#DejaVuSans-56" transform="translate(307.543945 0.125)"/>
      <use xlink:href="#DejaVuSans-29" transform="translate(375.952148 0.125)"/>
     </g>
    </g>
   </g>
   <g id="line2d_23">
    <path d="M 108 218.829374 
L 109.3392 219.47827 
L 110.6784 219.885725 
L 111.348 220.031022 
L 112.6872 220.957601 
L 114.0264 221.384991 
L 116.0352 222.930287 
L 118.044 225.396126 
L 118.7136 226.516148 
L 119.3832 227.38146 
L 120.0528 227.929654 
L 120.7224 228.976387 
L 122.7312 231.293963 
L 124.0704 232.092876 
L 125.4096 232.617583 
L 127.4184 233.140041 
L 129.4272 233.450931 
L 132.1056 233.623312 
L 134.1144 233.604377 
L 136.1232 234.455046 
L 136.7928 235.297906 
L 137.4624 235.893265 
L 140.1408 237.14591 
L 141.48 237.445635 
L 144.1584 237.859284 
L 145.4976 238.153952 
L 147.5064 238.179868 
L 148.176 238.143793 
L 149.5152 238.510395 
L 150.8544 238.54987 
L 153.5328 238.296555 
L 156.8808 237.68989 
L 160.2288 236.862411 
L 164.2464 235.639582 
L 168.9336 233.951775 
L 173.6208 232.029088 
L 178.9776 229.591155 
L 185.004 226.594377 
L 191.7 223.012782 
L 196.3872 220.342431 
L 198.396 218.838466 
L 199.7352 218.59905 
L 201.0744 217.971087 
L 205.7616 215.274674 
L 207.1008 215.341886 
L 208.44 214.974728 
L 209.7792 215.295334 
L 211.1184 215.118252 
L 213.1272 214.527281 
L 216.4752 213.237632 
L 221.1624 211.128611 
L 225.8496 208.793798 
L 227.1888 209.047831 
L 227.8584 209.974675 
L 228.528 210.707136 
L 229.1976 211.071321 
L 230.5368 211.343135 
L 231.876 211.344379 
L 232.5456 211.288682 
L 234.5544 212.585455 
L 235.8936 214.539318 
L 236.5632 215.695525 
L 239.2416 218.954272 
L 239.9112 220.00745 
L 240.5808 221.529258 
L 241.2504 222.643114 
L 241.92 223.352532 
L 243.2592 224.269527 
L 244.5984 224.865971 
L 245.9376 225.920849 
L 246.6072 226.238845 
L 247.2768 226.819962 
L 247.9464 227.623094 
L 249.9552 229.446503 
L 251.2944 230.654074 
L 252.6336 231.280548 
L 253.9728 231.671529 
L 255.312 233.028341 
L 255.9816 233.685758 
L 256.6512 234.175512 
L 257.9904 234.740762 
L 259.9992 235.206671 
L 260.6688 235.305919 
L 262.008 235.951116 
L 263.3472 236.230789 
L 264.6864 236.357818 
L 267.3648 237.577589 
L 268.704 237.825813 
L 270.7128 237.911454 
L 272.052 238.351743 
L 273.3912 238.456365 
L 275.4 238.379021 
L 278.0784 238.061978 
L 281.4264 237.429709 
L 282.096 237.277261 
L 283.4352 237.458157 
L 284.7744 237.328077 
L 287.4528 236.77214 
L 290.8008 235.84229 
L 291.4704 235.633845 
L 292.8096 235.737611 
L 294.1488 235.523956 
L 296.8272 234.801783 
L 300.8448 233.43581 
L 305.532 231.575153 
L 310.8888 229.182513 
L 316.9152 226.221144 
L 323.6112 222.668677 
L 330.3072 218.872138 
L 332.316 217.364514 
L 337.6728 213.269725 
L 345.0384 208.050447 
L 346.3776 208.074421 
L 347.7168 207.666609 
L 349.7256 206.736518 
L 352.404 205.205266 
L 354.4128 203.877524 
L 355.752 205.04068 
L 356.4216 205.35635 
L 358.4304 207.394712 
L 359.1 208.535242 
L 359.7696 209.36315 
L 360.4392 209.88206 
L 361.7784 210.459072 
L 363.1176 212.463857 
L 363.7872 213.452079 
L 364.4568 214.186016 
L 365.1264 214.660203 
L 365.796 214.995046 
L 367.1352 216.226491 
L 367.8048 216.579005 
L 369.144 217.782295 
L 370.4832 218.36431 
L 371.8224 218.680561 
L 372.492 218.782035 
L 373.8312 220.379755 
L 374.5008 221.940521 
L 375.1704 223.137028 
L 375.84 223.850797 
L 377.1792 224.717348 
L 378.5184 225.254141 
L 379.188 225.450842 
L 379.8576 225.963706 
L 381.8664 228.228104 
L 382.536 228.629425 
L 383.8752 229.737836 
L 384.5448 230.066941 
L 386.5536 231.679286 
L 387.2232 232.146871 
L 388.5624 232.687948 
L 391.2408 233.526382 
L 391.9104 234.131914 
L 392.58 234.556937 
L 393.9192 234.998263 
L 395.928 235.309117 
L 398.6064 235.417455 
L 399.9456 235.896614 
L 400.6152 235.990289 
L 401.9544 236.545046 
L 403.2936 236.714045 
L 405.972 237.860315 
L 407.3112 238.061302 
L 407.9808 238.091221 
L 409.32 238.555564 
L 410.6592 238.6703 
L 412.668 238.596104 
L 415.3464 238.273231 
L 418.6944 237.627784 
L 422.712 236.583406 
L 426.7296 235.301359 
L 428.0688 235.375216 
L 429.408 235.132743 
L 432.0864 234.357706 
L 436.104 232.923929 
L 440.7912 230.997462 
L 446.148 228.542827 
L 452.1744 225.525261 
L 458.8704 221.92521 
L 464.2272 218.865101 
L 466.236 217.357206 
L 471.5928 213.261221 
L 472.932 212.295854 
L 474.2712 212.259738 
L 475.6104 211.795116 
L 476.9496 211.170269 
L 478.2888 211.402781 
L 479.628 211.158136 
L 481.6368 210.466072 
L 483.6456 209.626185 
L 484.9848 209.959249 
L 485.6544 210.417065 
L 486.324 210.736278 
L 487.6632 210.862494 
L 489.0024 210.725626 
L 490.3416 212.251176 
L 491.0112 212.598842 
L 491.6808 213.242818 
L 492.3504 214.178474 
L 493.02 214.829437 
L 493.6896 215.213111 
L 494.3592 215.895493 
L 495.0288 216.850584 
L 495.6984 217.526552 
L 497.7072 218.856131 
L 498.3768 219.351741 
L 499.716 219.876664 
L 501.0552 220.146268 
L 502.3944 221.006458 
L 503.7336 221.366036 
L 504.4032 221.457486 
L 505.7424 222.255411 
L 507.0816 222.567063 
L 507.7512 222.638316 
L 508.4208 223.056945 
L 510.4296 226.335154 
L 511.0992 227.064426 
L 512.4384 227.871132 
L 513.7776 228.332884 
L 515.1168 229.221836 
L 515.7864 230.113886 
L 516.456 230.8067 
L 517.1256 231.225979 
L 519.804 234.742295 
L 521.1432 235.524396 
L 522.4824 236.013671 
L 523.152 236.197581 
L 523.8216 236.621796 
L 524.4912 237.231537 
L 526.5 238.610648 
L 527.8392 239.523731 
L 529.1784 239.972536 
L 529.848 240.118436 
L 531.1872 240.7575 
L 532.5264 241.045533 
L 534.5352 241.218286 
L 537.2136 241.193081 
L 539.892 240.960167 
L 543.24 240.439665 
L 546.588 239.70869 
L 550.6056 238.598946 
L 554.6232 237.273288 
L 559.3104 235.494158 
L 564.6672 233.199676 
L 570.024 230.669249 
L 576.0504 227.586847 
L 583.416 223.547335 
L 592.1208 218.49654 
L 598.1472 214.853549 
L 600.156 213.29167 
L 602.1648 211.642493 
L 603.504 211.48881 
L 604.8432 210.923988 
L 608.1912 209.098012 
L 612.2088 206.685927 
L 613.548 205.81078 
L 614.8872 205.930973 
L 616.2264 205.644637 
L 618.2352 204.844827 
L 620.244 203.789809 
L 622.2528 202.432474 
L 622.9224 201.905863 
L 624.9312 201.638315 
L 625.6008 201.930343 
L 626.94 203.606884 
L 627.6096 204.203617 
L 628.9488 204.975517 
L 629.6184 205.197221 
L 630.288 205.85059 
L 630.9576 207.411944 
L 631.6272 208.675008 
L 632.2968 209.467286 
L 632.9664 210.007311 
L 633.636 210.391068 
L 634.9752 211.749837 
L 635.6448 212.143067 
L 636.984 213.454207 
L 637.6536 213.826643 
L 638.9928 217.069007 
L 639.6624 218.159154 
L 640.332 218.866596 
L 641.6712 220.501339 
L 642.3408 221.007703 
L 643.0104 221.775666 
L 643.68 222.767668 
L 644.3496 223.498265 
L 645.0192 223.996225 
L 646.3584 225.324843 
L 648.3672 226.659722 
L 649.0368 227.488318 
L 649.7064 228.093323 
L 653.0544 230.137389 
L 653.724 230.685372 
L 654.3936 231.43239 
L 658.4112 234.726885 
L 660.42 236.937524 
L 661.7592 237.632138 
L 663.0984 238.069917 
L 665.1072 238.483043 
L 668.4552 239.015153 
L 669.7944 239.339903 
L 671.8032 239.432461 
L 674.4816 239.297813 
L 677.8296 238.863349 
L 681.1776 238.199077 
L 685.1952 237.153429 
L 689.2128 235.879468 
L 693.9 234.148937 
L 695.2392 234.179326 
L 696.5784 233.888913 
L 699.2568 233.018462 
L 703.2744 231.454838 
L 707.9616 229.397425 
L 713.3184 226.817039 
L 720.0144 223.32491 
L 728.0496 218.849305 
L 732.0672 216.491613 
L 734.076 214.969268 
L 739.4328 210.806897 
L 742.7808 208.36399 
L 744.12 208.371743 
L 745.4592 207.951083 
L 747.468 207.009118 
L 748.8072 207.294661 
L 750.1464 207.117578 
L 752.1552 206.475031 
L 753.4944 206.931852 
L 754.8336 206.927728 
L 756.1728 206.683507 
L 757.512 207.313193 
L 758.8512 207.442896 
L 760.1904 207.323641 
L 761.5296 208.046841 
L 762.1992 208.195307 
L 763.5384 209.185261 
L 764.8776 209.557749 
L 765.5472 209.622458 
L 766.8864 210.528983 
L 768.2256 210.864512 
L 768.8952 210.925002 
L 770.2344 212.675882 
L 770.904 213.120674 
L 771.5736 213.399651 
L 774.252 215.850811 
L 775.5912 216.446811 
L 776.9304 216.750172 
L 777.6 217.264558 
L 777.6 217.264558 
" clip-path="url(#p4ac89c969b)" style="fill: none; stroke: #000000; stroke-width: 1.5; stroke-linecap: square"/>
   </g>
   <g id="line2d_24">
    <path d="M 108 147.058757 
L 114.696 153.859894 
L 116.0352 155.479081 
L 117.3744 157.392628 
L 118.7136 159.7085 
L 120.0528 162.491439 
L 121.392 165.758881 
L 122.7312 169.547162 
L 125.4096 178.131583 
L 128.7576 188.874085 
L 130.7664 194.556424 
L 132.7752 199.42524 
L 134.784 203.494311 
L 137.4624 208.205645 
L 140.1408 212.553154 
L 142.1496 215.392523 
L 144.1584 217.791654 
L 146.1672 219.884082 
L 148.176 221.657632 
L 150.8544 223.656465 
L 152.8632 224.895967 
L 154.872 225.880833 
L 156.8808 226.633251 
L 158.8896 227.17984 
L 160.8984 227.54406 
L 163.5768 227.780231 
L 166.2552 227.76748 
L 168.9336 227.538967 
L 172.2816 226.991785 
L 175.6296 226.195313 
L 178.9776 225.185866 
L 182.9952 223.734778 
L 187.0128 222.061064 
L 191.7 219.871804 
L 195.7176 217.824518 
L 196.3872 188.726062 
L 197.0568 175.324872 
L 197.7264 168.146228 
L 198.396 163.282134 
L 199.0656 159.736517 
L 199.7352 157.105549 
L 200.4048 155.140813 
L 201.0744 153.667691 
L 201.744 152.555286 
L 202.4136 151.703014 
L 203.7528 150.493785 
L 205.7616 149.238698 
L 207.7704 148.235456 
L 210.4488 147.115122 
L 216.4752 144.769155 
L 220.4928 143.28686 
L 223.8408 142.279975 
L 226.5192 141.642855 
L 227.8584 141.515138 
L 229.1976 141.677066 
L 233.8848 142.835796 
L 235.224 143.319643 
L 236.5632 144.062388 
L 237.9024 145.057116 
L 239.9112 146.859252 
L 241.2504 148.357857 
L 244.5984 152.718276 
L 246.6072 155.522389 
L 247.9464 157.609154 
L 249.2856 160.006765 
L 250.6248 162.770045 
L 252.6336 167.633736 
L 254.6424 173.177555 
L 256.6512 179.4766 
L 260.6688 192.406384 
L 262.6776 198.038646 
L 264.6864 202.925694 
L 266.6952 207.11621 
L 268.704 210.805565 
L 270.7128 213.931587 
L 272.7216 216.592756 
L 274.7304 218.864393 
L 276.7392 220.729195 
L 278.748 222.228121 
L 280.7568 223.409951 
L 282.7656 224.328766 
L 285.444 225.367392 
L 287.4528 225.95225 
L 289.4616 226.349324 
L 292.14 226.628926 
L 296.1576 226.896574 
L 298.836 226.840211 
L 301.5144 226.579456 
L 304.8624 226.004105 
L 308.2104 225.189583 
L 311.5584 224.168508 
L 315.576 222.708032 
L 319.5936 221.027057 
L 324.2808 218.829901 
L 329.6376 216.060415 
L 330.3072 187.302848 
L 330.9768 174.019898 
L 331.6464 166.807383 
L 332.316 161.8799 
L 332.9856 158.265784 
L 333.6552 155.549908 
L 334.3248 153.483175 
L 334.9944 151.893743 
L 335.664 150.65679 
L 337.0032 148.891183 
L 338.3424 147.676338 
L 340.3512 146.275259 
L 346.3776 142.503844 
L 348.3864 141.576443 
L 352.404 140.029174 
L 355.0824 139.12605 
L 356.4216 138.934002 
L 357.7608 138.993308 
L 359.1 139.293554 
L 361.1088 140.104976 
L 363.1176 141.035924 
L 365.796 142.68293 
L 369.8136 145.377004 
L 374.5008 148.767932 
L 375.84 150.215337 
L 378.5184 153.576228 
L 380.5272 156.280319 
L 381.8664 158.414493 
L 383.2056 160.870361 
L 385.2144 165.173455 
L 386.5536 168.50013 
L 388.5624 174.200691 
L 395.928 196.365897 
L 397.9368 201.237716 
L 399.9456 205.347417 
L 401.9544 208.916558 
L 403.9632 212.03752 
L 406.6416 215.678949 
L 408.6504 218.038774 
L 410.6592 220.113582 
L 412.668 221.870327 
L 414.6768 223.297715 
L 416.6856 224.430206 
L 418.6944 225.304552 
L 420.7032 225.952373 
L 422.712 226.400351 
L 425.3904 226.725565 
L 430.0776 226.889257 
L 432.756 226.830716 
L 435.4344 226.570946 
L 438.7824 225.994906 
L 442.1304 225.178833 
L 445.4784 224.1561 
L 449.496 222.693753 
L 453.5136 221.011058 
L 458.2008 218.812044 
L 463.5576 216.04057 
L 464.2272 187.285206 
L 464.8968 174.000002 
L 465.5664 166.783179 
L 466.236 161.850297 
L 466.9056 158.2308 
L 467.5752 155.510269 
L 468.2448 153.439689 
L 468.9144 151.847304 
L 469.584 150.60829 
L 470.9232 148.840627 
L 472.2624 147.625952 
L 473.6016 146.684892 
L 475.6104 145.620581 
L 478.9584 144.146368 
L 484.9848 142.045338 
L 486.324 141.810754 
L 489.0024 141.673077 
L 490.3416 141.743297 
L 491.6808 141.989673 
L 493.02 142.421647 
L 495.0288 143.300861 
L 498.3768 145.204946 
L 506.412 150.180914 
L 509.0904 152.208772 
L 510.4296 153.616553 
L 511.7688 155.390291 
L 513.7776 158.41833 
L 515.7864 161.885836 
L 517.1256 164.678137 
L 518.4648 167.96958 
L 519.804 171.883761 
L 521.8128 178.577542 
L 526.5 194.576544 
L 528.5088 200.800346 
L 530.5176 206.219625 
L 532.5264 210.855343 
L 534.5352 214.736496 
L 536.544 217.927969 
L 538.5528 220.531967 
L 540.5616 222.641051 
L 542.5704 224.331468 
L 544.5792 225.665276 
L 546.588 226.693267 
L 548.5968 227.457393 
L 550.6056 227.992592 
L 552.6144 228.32817 
L 555.2928 228.507249 
L 557.9712 228.423436 
L 560.6496 228.115885 
L 563.9976 227.4647 
L 567.3456 226.562882 
L 570.6936 225.449389 
L 574.7112 223.876828 
L 579.3984 221.768496 
L 584.0856 219.414705 
L 589.4424 216.477565 
L 595.4688 212.921405 
L 597.4776 211.688077 
L 598.1472 183.759816 
L 598.8168 170.760142 
L 599.4864 163.461985 
L 600.156 158.403106 
L 600.8256 154.687105 
L 601.4952 151.896555 
L 602.1648 149.77565 
L 602.8344 148.166306 
L 603.504 146.956769 
L 604.1736 146.054778 
L 604.8432 145.38072 
L 606.1824 144.469961 
L 608.1912 143.594229 
L 612.2088 141.93562 
L 615.5568 140.493825 
L 619.5744 139.286878 
L 624.9312 137.792875 
L 626.2704 137.648972 
L 627.6096 137.785274 
L 629.6184 138.289962 
L 630.9576 138.747841 
L 632.2968 139.453882 
L 637.6536 142.785784 
L 638.9928 143.822486 
L 641.0016 145.834358 
L 643.68 148.838369 
L 645.6888 151.389383 
L 648.3672 155.215303 
L 650.376 158.599631 
L 652.3848 162.56806 
L 653.724 165.598996 
L 655.0632 169.045643 
L 657.072 175.034862 
L 659.0808 181.729417 
L 663.0984 195.657079 
L 665.1072 201.574806 
L 667.116 206.533993 
L 669.1248 210.665714 
L 671.1336 214.17383 
L 673.1424 217.079157 
L 675.1512 219.446963 
L 677.16 221.357031 
L 679.1688 222.878532 
L 681.1776 224.068277 
L 683.1864 224.972815 
L 685.1952 225.630588 
L 687.204 226.073618 
L 689.2128 226.328784 
L 691.8912 226.415511 
L 695.2392 226.224052 
L 699.2568 225.920578 
L 702.6048 225.385459 
L 705.9528 224.599241 
L 709.3008 223.598909 
L 713.3184 222.156281 
L 717.336 220.486777 
L 722.0232 218.295935 
L 727.38 215.525481 
L 731.3976 213.29441 
L 732.0672 185.070514 
L 732.7368 171.977016 
L 733.4064 164.722174 
L 734.076 159.721948 
L 734.7456 156.055256 
L 735.4152 153.305214 
L 736.0848 151.217245 
L 736.7544 149.616845 
L 737.424 148.378281 
L 738.0936 147.408198 
L 739.4328 146.006288 
L 740.772 145.015681 
L 743.4504 143.466941 
L 746.1288 142.288889 
L 748.8072 141.253401 
L 751.4856 140.524001 
L 753.4944 140.086631 
L 756.1728 139.793401 
L 758.1816 139.742617 
L 761.5296 139.934583 
L 763.5384 140.284637 
L 766.8864 141.208479 
L 770.2344 142.427624 
L 772.9128 143.871967 
L 775.5912 145.676157 
L 777.6 147.063754 
L 777.6 147.063754 
" clip-path="url(#p4ac89c969b)" style="fill: none; stroke: #4169e1; stroke-width: 1.5; stroke-linecap: square"/>
   </g>
   <g id="patch_3">
    <path d="M 108 256.32 
L 108 34.56 
" style="fill: none; stroke: #000000; stroke-width: 0.8; stroke-linejoin: miter; stroke-linecap: square"/>
   </g>
   <g id="patch_4">
    <path d="M 777.6 256.32 
L 777.6 34.56 
" style="fill: none; stroke: #000000; stroke-width: 0.8; stroke-linejoin: miter; stroke-linecap: square"/>
   </g>
   <g id="patch_5">
    <path d="M 108 256.32 
L 777.6 256.32 
" style="fill: none; stroke: #000000; stroke-width: 0.8; stroke-linejoin: miter; stroke-linecap: square"/>
   </g>
   <g id="patch_6">
    <path d="M 108 34.56 
L 777.6 34.56 
" style="fill: none; stroke: #000000; stroke-width: 0.8; stroke-linejoin: miter; stroke-linecap: square"/>
   </g>
   <g id="legend_1">
    <g id="patch_7">
     <path d="M 695.098438 71.91625 
L 770.6 71.91625 
Q 772.6 71.91625 772.6 69.91625 
L 772.6 41.56 
Q 772.6 39.56 770.6 39.56 
L 695.098438 39.56 
Q 693.098438 39.56 693.098438 41.56 
L 693.098438 69.91625 
Q 693.098438 71.91625 695.098438 71.91625 
z
" style="fill: #ffffff; opacity: 0.8; stroke: #cccccc; stroke-linejoin: miter"/>
    </g>
    <g id="line2d_25">
     <path d="M 697.098438 47.658437 
L 707.098438 47.658437 
L 717.098438 47.658437 
" style="fill: none; stroke: #000000; stroke-width: 1.5; stroke-linecap: square"/>
    </g>
    <g id="text_14">
     <!-- Soma -->
     <g transform="translate(725.098438 51.158437) scale(0.1 -0.1)">
      <defs>
       <path id="DejaVuSans-53" d="M 3425 4513 
L 3425 3897 
Q 3066 4069 2747 4153 
Q 2428 4238 2131 4238 
Q 1616 4238 1336 4038 
Q 1056 3838 1056 3469 
Q 1056 3159 1242 3001 
Q 1428 2844 1947 2747 
L 2328 2669 
Q 3034 2534 3370 2195 
Q 3706 1856 3706 1288 
Q 3706 609 3251 259 
Q 2797 -91 1919 -91 
Q 1588 -91 1214 -16 
Q 841 59 441 206 
L 441 856 
Q 825 641 1194 531 
Q 1563 422 1919 422 
Q 2459 422 2753 634 
Q 3047 847 3047 1241 
Q 3047 1584 2836 1778 
Q 2625 1972 2144 2069 
L 1759 2144 
Q 1053 2284 737 2584 
Q 422 2884 422 3419 
Q 422 4038 858 4394 
Q 1294 4750 2059 4750 
Q 2388 4750 2728 4690 
Q 3069 4631 3425 4513 
z
" transform="scale(0.015625)"/>
       <path id="DejaVuSans-6f" d="M 1959 3097 
Q 1497 3097 1228 2736 
Q 959 2375 959 1747 
Q 959 1119 1226 758 
Q 1494 397 1959 397 
Q 2419 397 2687 759 
Q 2956 1122 2956 1747 
Q 2956 2369 2687 2733 
Q 2419 3097 1959 3097 
z
M 1959 3584 
Q 2709 3584 3137 3096 
Q 3566 2609 3566 1747 
Q 3566 888 3137 398 
Q 2709 -91 1959 -91 
Q 1206 -91 779 398 
Q 353 888 353 1747 
Q 353 2609 779 3096 
Q 1206 3584 1959 3584 
z
" transform="scale(0.015625)"/>
       <path id="DejaVuSans-61" d="M 2194 1759 
Q 1497 1759 1228 1600 
Q 959 1441 959 1056 
Q 959 750 1161 570 
Q 1363 391 1709 391 
Q 2188 391 2477 730 
Q 2766 1069 2766 1631 
L 2766 1759 
L 2194 1759 
z
M 3341 1997 
L 3341 0 
L 2766 0 
L 2766 531 
Q 2569 213 2275 61 
Q 1981 -91 1556 -91 
Q 1019 -91 701 211 
Q 384 513 384 1019 
Q 384 1609 779 1909 
Q 1175 2209 1959 2209 
L 2766 2209 
L 2766 2266 
Q 2766 2663 2505 2880 
Q 2244 3097 1772 3097 
Q 1472 3097 1187 3025 
Q 903 2953 641 2809 
L 641 3341 
Q 956 3463 1253 3523 
Q 1550 3584 1831 3584 
Q 2591 3584 2966 3190 
Q 3341 2797 3341 1997 
z
" transform="scale(0.015625)"/>
      </defs>
      <use xlink:href="#DejaVuSans-53"/>
      <use xlink:href="#DejaVuSans-6f" x="63.476562"/>
      <use xlink:href="#DejaVuSans-6d" x="124.658203"/>
      <use xlink:href="#DejaVuSans-61" x="222.070312"/>
     </g>
    </g>
    <g id="line2d_26">
     <path d="M 697.098438 62.336562 
L 707.098438 62.336562 
L 717.098438 62.336562 
" style="fill: none; stroke: #4169e1; stroke-width: 1.5; stroke-linecap: square"/>
    </g>
    <g id="text_15">
     <!-- Dendrite -->
     <g transform="translate(725.098438 65.836562) scale(0.1 -0.1)">
      <defs>
       <path id="DejaVuSans-44" d="M 1259 4147 
L 1259 519 
L 2022 519 
Q 2988 519 3436 956 
Q 3884 1394 3884 2338 
Q 3884 3275 3436 3711 
Q 2988 4147 2022 4147 
L 1259 4147 
z
M 628 4666 
L 1925 4666 
Q 3281 4666 3915 4102 
Q 4550 3538 4550 2338 
Q 4550 1131 3912 565 
Q 3275 0 1925 0 
L 628 0 
L 628 4666 
z
" transform="scale(0.015625)"/>
       <path id="DejaVuSans-6e" d="M 3513 2113 
L 3513 0 
L 2938 0 
L 2938 2094 
Q 2938 2591 2744 2837 
Q 2550 3084 2163 3084 
Q 1697 3084 1428 2787 
Q 1159 2491 1159 1978 
L 1159 0 
L 581 0 
L 581 3500 
L 1159 3500 
L 1159 2956 
Q 1366 3272 1645 3428 
Q 1925 3584 2291 3584 
Q 2894 3584 3203 3211 
Q 3513 2838 3513 2113 
z
" transform="scale(0.015625)"/>
       <path id="DejaVuSans-64" d="M 2906 2969 
L 2906 4863 
L 3481 4863 
L 3481 0 
L 2906 0 
L 2906 525 
Q 2725 213 2448 61 
Q 2172 -91 1784 -91 
Q 1150 -91 751 415 
Q 353 922 353 1747 
Q 353 2572 751 3078 
Q 1150 3584 1784 3584 
Q 2172 3584 2448 3432 
Q 2725 3281 2906 2969 
z
M 947 1747 
Q 947 1113 1208 752 
Q 1469 391 1925 391 
Q 2381 391 2643 752 
Q 2906 1113 2906 1747 
Q 2906 2381 2643 2742 
Q 2381 3103 1925 3103 
Q 1469 3103 1208 2742 
Q 947 2381 947 1747 
z
" transform="scale(0.015625)"/>
       <path id="DejaVuSans-72" d="M 2631 2963 
Q 2534 3019 2420 3045 
Q 2306 3072 2169 3072 
Q 1681 3072 1420 2755 
Q 1159 2438 1159 1844 
L 1159 0 
L 581 0 
L 581 3500 
L 1159 3500 
L 1159 2956 
Q 1341 3275 1631 3429 
Q 1922 3584 2338 3584 
Q 2397 3584 2469 3576 
Q 2541 3569 2628 3553 
L 2631 2963 
z
" transform="scale(0.015625)"/>
       <path id="DejaVuSans-74" d="M 1172 4494 
L 1172 3500 
L 2356 3500 
L 2356 3053 
L 1172 3053 
L 1172 1153 
Q 1172 725 1289 603 
Q 1406 481 1766 481 
L 2356 481 
L 2356 0 
L 1766 0 
Q 1100 0 847 248 
Q 594 497 594 1153 
L 594 3053 
L 172 3053 
L 172 3500 
L 594 3500 
L 594 4494 
L 1172 4494 
z
" transform="scale(0.015625)"/>
      </defs>
      <use xlink:href="#DejaVuSans-44"/>
      <use xlink:href="#DejaVuSans-65" x="77.001953"/>
      <use xlink:href="#DejaVuSans-6e" x="138.525391"/>
      <use xlink:href="#DejaVuSans-64" x="201.904297"/>
      <use xlink:href="#DejaVuSans-72" x="265.380859"/>
      <use xlink:href="#DejaVuSans-69" x="306.494141"/>
      <use xlink:href="#DejaVuSans-74" x="334.277344"/>
      <use xlink:href="#DejaVuSans-65" x="373.486328"/>
     </g>
    </g>
   </g>
  </g>
 </g>
 <defs>
  <clipPath id="p4ac89c969b">
   <rect x="108" y="34.56" width="669.6" height="221.76"/>
  </clipPath>
 </defs>
</svg>
