<?xml version="1.0" encoding="utf-8" standalone="no"?>
<!DOCTYPE svg PUBLIC "-//W3C//DTD SVG 1.1//EN"
  "http://www.w3.org/Graphics/SVG/1.1/DTD/svg11.dtd">
<svg xmlns:xlink="http://www.w3.org/1999/xlink" width="864pt" height="288pt" viewBox="0 0 864 288" xmlns="http://www.w3.org/2000/svg" version="1.1">
 <metadata>
  <rdf:RDF xmlns:dc="http://purl.org/dc/elements/1.1/" xmlns:cc="http://creativecommons.org/ns#" xmlns:rdf="http://www.w3.org/1999/02/22-rdf-syntax-ns#">
   <cc:Work>
    <dc:type rdf:resource="http://purl.org/dc/dcmitype/StillImage"/>
    <dc:date>2024-04-23T19:17:00.432434</dc:date>
    <dc:format>image/svg+xml</dc:format>
    <dc:creator>
     <cc:Agent>
      <dc:title>Matplotlib v3.8.2, https://matplotlib.org/</dc:title>
     </cc:Agent>
    </dc:creator>
   </cc:Work>
  </rdf:RDF>
 </metadata>
 <defs>
  <style type="text/css">*{stroke-linejoin: round; stroke-linecap: butt}</style>
 </defs>
 <g id="figure_1">
  <g id="patch_1">
   <path d="M 0 288 
L 864 288 
L 864 0 
L 0 0 
z
" style="fill: #ffffff"/>
  </g>
  <g id="axes_1">
   <g id="patch_2">
    <path d="M 108 256.32 
L 777.6 256.32 
L 777.6 34.56 
L 108 34.56 
z
" style="fill: #ffffff"/>
   </g>
   <g id="matplotlib.axis_1">
    <g id="xtick_1">
     <g id="line2d_1">
      <path d="M 108 256.32 
L 108 34.56 
" clip-path="url(#pf9551c28d4)" style="fill: none; stroke: #b0b0b0; stroke-width: 0.8; stroke-linecap: square"/>
     </g>
     <g id="line2d_2">
      <defs>
       <path id="m60f3ef7dc6" d="M 0 0 
L 0 3.5 
" style="stroke: #000000; stroke-width: 0.8"/>
      </defs>
      <g>
       <use xlink:href="#m60f3ef7dc6" x="108" y="256.32" style="stroke: #000000; stroke-width: 0.8"/>
      </g>
     </g>
     <g id="text_1">
      <!-- 100 -->
      <g transform="translate(94.63875 273.957812) scale(0.14 -0.14)">
       <defs>
        <path id="DejaVuSans-31" d="M 794 531 
L 1825 531 
L 1825 4091 
L 703 3866 
L 703 4441 
L 1819 4666 
L 2450 4666 
L 2450 531 
L 3481 531 
L 3481 0 
L 794 0 
L 794 531 
z
" transform="scale(0.015625)"/>
        <path id="DejaVuSans-30" d="M 2034 4250 
Q 1547 4250 1301 3770 
Q 1056 3291 1056 2328 
Q 1056 1369 1301 889 
Q 1547 409 2034 409 
Q 2525 409 2770 889 
Q 3016 1369 3016 2328 
Q 3016 3291 2770 3770 
Q 2525 4250 2034 4250 
z
M 2034 4750 
Q 2819 4750 3233 4129 
Q 3647 3509 3647 2328 
Q 3647 1150 3233 529 
Q 2819 -91 2034 -91 
Q 1250 -91 836 529 
Q 422 1150 422 2328 
Q 422 3509 836 4129 
Q 1250 4750 2034 4750 
z
" transform="scale(0.015625)"/>
       </defs>
       <use xlink:href="#DejaVuSans-31"/>
       <use xlink:href="#DejaVuSans-30" x="63.623047"/>
       <use xlink:href="#DejaVuSans-30" x="127.246094"/>
      </g>
     </g>
    </g>
    <g id="xtick_2">
     <g id="line2d_3">
      <path d="M 241.92 256.32 
L 241.92 34.56 
" clip-path="url(#pf9551c28d4)" style="fill: none; stroke: #b0b0b0; stroke-width: 0.8; stroke-linecap: square"/>
     </g>
     <g id="line2d_4">
      <g>
       <use xlink:href="#m60f3ef7dc6" x="241.92" y="256.32" style="stroke: #000000; stroke-width: 0.8"/>
      </g>
     </g>
     <g id="text_2">
      <!-- 120 -->
      <g transform="translate(228.55875 273.957812) scale(0.14 -0.14)">
       <defs>
        <path id="DejaVuSans-32" d="M 1228 531 
L 3431 531 
L 3431 0 
L 469 0 
L 469 531 
Q 828 903 1448 1529 
Q 2069 2156 2228 2338 
Q 2531 2678 2651 2914 
Q 2772 3150 2772 3378 
Q 2772 3750 2511 3984 
Q 2250 4219 1831 4219 
Q 1534 4219 1204 4116 
Q 875 4013 500 3803 
L 500 4441 
Q 881 4594 1212 4672 
Q 1544 4750 1819 4750 
Q 2544 4750 2975 4387 
Q 3406 4025 3406 3419 
Q 3406 3131 3298 2873 
Q 3191 2616 2906 2266 
Q 2828 2175 2409 1742 
Q 1991 1309 1228 531 
z
" transform="scale(0.015625)"/>
       </defs>
       <use xlink:href="#DejaVuSans-31"/>
       <use xlink:href="#DejaVuSans-32" x="63.623047"/>
       <use xlink:href="#DejaVuSans-30" x="127.246094"/>
      </g>
     </g>
    </g>
    <g id="xtick_3">
     <g id="line2d_5">
      <path d="M 375.84 256.32 
L 375.84 34.56 
" clip-path="url(#pf9551c28d4)" style="fill: none; stroke: #b0b0b0; stroke-width: 0.8; stroke-linecap: square"/>
     </g>
     <g id="line2d_6">
      <g>
       <use xlink:href="#m60f3ef7dc6" x="375.84" y="256.32" style="stroke: #000000; stroke-width: 0.8"/>
      </g>
     </g>
     <g id="text_3">
      <!-- 140 -->
      <g transform="translate(362.47875 273.957812) scale(0.14 -0.14)">
       <defs>
        <path id="DejaVuSans-34" d="M 2419 4116 
L 825 1625 
L 2419 1625 
L 2419 4116 
z
M 2253 4666 
L 3047 4666 
L 3047 1625 
L 3713 1625 
L 3713 1100 
L 3047 1100 
L 3047 0 
L 2419 0 
L 2419 1100 
L 313 1100 
L 313 1709 
L 2253 4666 
z
" transform="scale(0.015625)"/>
       </defs>
       <use xlink:href="#DejaVuSans-31"/>
       <use xlink:href="#DejaVuSans-34" x="63.623047"/>
       <use xlink:href="#DejaVuSans-30" x="127.246094"/>
      </g>
     </g>
    </g>
    <g id="xtick_4">
     <g id="line2d_7">
      <path d="M 509.76 256.32 
L 509.76 34.56 
" clip-path="url(#pf9551c28d4)" style="fill: none; stroke: #b0b0b0; stroke-width: 0.8; stroke-linecap: square"/>
     </g>
     <g id="line2d_8">
      <g>
       <use xlink:href="#m60f3ef7dc6" x="509.76" y="256.32" style="stroke: #000000; stroke-width: 0.8"/>
      </g>
     </g>
     <g id="text_4">
      <!-- 160 -->
      <g transform="translate(496.39875 273.957812) scale(0.14 -0.14)">
       <defs>
        <path id="DejaVuSans-36" d="M 2113 2584 
Q 1688 2584 1439 2293 
Q 1191 2003 1191 1497 
Q 1191 994 1439 701 
Q 1688 409 2113 409 
Q 2538 409 2786 701 
Q 3034 994 3034 1497 
Q 3034 2003 2786 2293 
Q 2538 2584 2113 2584 
z
M 3366 4563 
L 3366 3988 
Q 3128 4100 2886 4159 
Q 2644 4219 2406 4219 
Q 1781 4219 1451 3797 
Q 1122 3375 1075 2522 
Q 1259 2794 1537 2939 
Q 1816 3084 2150 3084 
Q 2853 3084 3261 2657 
Q 3669 2231 3669 1497 
Q 3669 778 3244 343 
Q 2819 -91 2113 -91 
Q 1303 -91 875 529 
Q 447 1150 447 2328 
Q 447 3434 972 4092 
Q 1497 4750 2381 4750 
Q 2619 4750 2861 4703 
Q 3103 4656 3366 4563 
z
" transform="scale(0.015625)"/>
       </defs>
       <use xlink:href="#DejaVuSans-31"/>
       <use xlink:href="#DejaVuSans-36" x="63.623047"/>
       <use xlink:href="#DejaVuSans-30" x="127.246094"/>
      </g>
     </g>
    </g>
    <g id="xtick_5">
     <g id="line2d_9">
      <path d="M 643.68 256.32 
L 643.68 34.56 
" clip-path="url(#pf9551c28d4)" style="fill: none; stroke: #b0b0b0; stroke-width: 0.8; stroke-linecap: square"/>
     </g>
     <g id="line2d_10">
      <g>
       <use xlink:href="#m60f3ef7dc6" x="643.68" y="256.32" style="stroke: #000000; stroke-width: 0.8"/>
      </g>
     </g>
     <g id="text_5">
      <!-- 180 -->
      <g transform="translate(630.31875 273.957812) scale(0.14 -0.14)">
       <defs>
        <path id="DejaVuSans-38" d="M 2034 2216 
Q 1584 2216 1326 1975 
Q 1069 1734 1069 1313 
Q 1069 891 1326 650 
Q 1584 409 2034 409 
Q 2484 409 2743 651 
Q 3003 894 3003 1313 
Q 3003 1734 2745 1975 
Q 2488 2216 2034 2216 
z
M 1403 2484 
Q 997 2584 770 2862 
Q 544 3141 544 3541 
Q 544 4100 942 4425 
Q 1341 4750 2034 4750 
Q 2731 4750 3128 4425 
Q 3525 4100 3525 3541 
Q 3525 3141 3298 2862 
Q 3072 2584 2669 2484 
Q 3125 2378 3379 2068 
Q 3634 1759 3634 1313 
Q 3634 634 3220 271 
Q 2806 -91 2034 -91 
Q 1263 -91 848 271 
Q 434 634 434 1313 
Q 434 1759 690 2068 
Q 947 2378 1403 2484 
z
M 1172 3481 
Q 1172 3119 1398 2916 
Q 1625 2713 2034 2713 
Q 2441 2713 2670 2916 
Q 2900 3119 2900 3481 
Q 2900 3844 2670 4047 
Q 2441 4250 2034 4250 
Q 1625 4250 1398 4047 
Q 1172 3844 1172 3481 
z
" transform="scale(0.015625)"/>
       </defs>
       <use xlink:href="#DejaVuSans-31"/>
       <use xlink:href="#DejaVuSans-38" x="63.623047"/>
       <use xlink:href="#DejaVuSans-30" x="127.246094"/>
      </g>
     </g>
    </g>
    <g id="xtick_6">
     <g id="line2d_11">
      <path d="M 777.6 256.32 
L 777.6 34.56 
" clip-path="url(#pf9551c28d4)" style="fill: none; stroke: #b0b0b0; stroke-width: 0.8; stroke-linecap: square"/>
     </g>
     <g id="line2d_12">
      <g>
       <use xlink:href="#m60f3ef7dc6" x="777.6" y="256.32" style="stroke: #000000; stroke-width: 0.8"/>
      </g>
     </g>
     <g id="text_6">
      <!-- 200 -->
      <g transform="translate(764.23875 273.957812) scale(0.14 -0.14)">
       <use xlink:href="#DejaVuSans-32"/>
       <use xlink:href="#DejaVuSans-30" x="63.623047"/>
       <use xlink:href="#DejaVuSans-30" x="127.246094"/>
      </g>
     </g>
    </g>
    <g id="text_7">
     <!-- Time (ms) -->
     <g transform="translate(407.521094 291.507187) scale(0.14 -0.14)">
      <defs>
       <path id="DejaVuSans-54" d="M -19 4666 
L 3928 4666 
L 3928 4134 
L 2272 4134 
L 2272 0 
L 1638 0 
L 1638 4134 
L -19 4134 
L -19 4666 
z
" transform="scale(0.015625)"/>
       <path id="DejaVuSans-69" d="M 603 3500 
L 1178 3500 
L 1178 0 
L 603 0 
L 603 3500 
z
M 603 4863 
L 1178 4863 
L 1178 4134 
L 603 4134 
L 603 4863 
z
" transform="scale(0.015625)"/>
       <path id="DejaVuSans-6d" d="M 3328 2828 
Q 3544 3216 3844 3400 
Q 4144 3584 4550 3584 
Q 5097 3584 5394 3201 
Q 5691 2819 5691 2113 
L 5691 0 
L 5113 0 
L 5113 2094 
Q 5113 2597 4934 2840 
Q 4756 3084 4391 3084 
Q 3944 3084 3684 2787 
Q 3425 2491 3425 1978 
L 3425 0 
L 2847 0 
L 2847 2094 
Q 2847 2600 2669 2842 
Q 2491 3084 2119 3084 
Q 1678 3084 1418 2786 
Q 1159 2488 1159 1978 
L 1159 0 
L 581 0 
L 581 3500 
L 1159 3500 
L 1159 2956 
Q 1356 3278 1631 3431 
Q 1906 3584 2284 3584 
Q 2666 3584 2933 3390 
Q 3200 3197 3328 2828 
z
" transform="scale(0.015625)"/>
       <path id="DejaVuSans-65" d="M 3597 1894 
L 3597 1613 
L 953 1613 
Q 991 1019 1311 708 
Q 1631 397 2203 397 
Q 2534 397 2845 478 
Q 3156 559 3463 722 
L 3463 178 
Q 3153 47 2828 -22 
Q 2503 -91 2169 -91 
Q 1331 -91 842 396 
Q 353 884 353 1716 
Q 353 2575 817 3079 
Q 1281 3584 2069 3584 
Q 2775 3584 3186 3129 
Q 3597 2675 3597 1894 
z
M 3022 2063 
Q 3016 2534 2758 2815 
Q 2500 3097 2075 3097 
Q 1594 3097 1305 2825 
Q 1016 2553 972 2059 
L 3022 2063 
z
" transform="scale(0.015625)"/>
       <path id="DejaVuSans-20" transform="scale(0.015625)"/>
       <path id="DejaVuSans-28" d="M 1984 4856 
Q 1566 4138 1362 3434 
Q 1159 2731 1159 2009 
Q 1159 1288 1364 580 
Q 1569 -128 1984 -844 
L 1484 -844 
Q 1016 -109 783 600 
Q 550 1309 550 2009 
Q 550 2706 781 3412 
Q 1013 4119 1484 4856 
L 1984 4856 
z
" transform="scale(0.015625)"/>
       <path id="DejaVuSans-73" d="M 2834 3397 
L 2834 2853 
Q 2591 2978 2328 3040 
Q 2066 3103 1784 3103 
Q 1356 3103 1142 2972 
Q 928 2841 928 2578 
Q 928 2378 1081 2264 
Q 1234 2150 1697 2047 
L 1894 2003 
Q 2506 1872 2764 1633 
Q 3022 1394 3022 966 
Q 3022 478 2636 193 
Q 2250 -91 1575 -91 
Q 1294 -91 989 -36 
Q 684 19 347 128 
L 347 722 
Q 666 556 975 473 
Q 1284 391 1588 391 
Q 1994 391 2212 530 
Q 2431 669 2431 922 
Q 2431 1156 2273 1281 
Q 2116 1406 1581 1522 
L 1381 1569 
Q 847 1681 609 1914 
Q 372 2147 372 2553 
Q 372 3047 722 3315 
Q 1072 3584 1716 3584 
Q 2034 3584 2315 3537 
Q 2597 3491 2834 3397 
z
" transform="scale(0.015625)"/>
       <path id="DejaVuSans-29" d="M 513 4856 
L 1013 4856 
Q 1481 4119 1714 3412 
Q 1947 2706 1947 2009 
Q 1947 1309 1714 600 
Q 1481 -109 1013 -844 
L 513 -844 
Q 928 -128 1133 580 
Q 1338 1288 1338 2009 
Q 1338 2731 1133 3434 
Q 928 4138 513 4856 
z
" transform="scale(0.015625)"/>
      </defs>
      <use xlink:href="#DejaVuSans-54"/>
      <use xlink:href="#DejaVuSans-69" x="57.958984"/>
      <use xlink:href="#DejaVuSans-6d" x="85.742188"/>
      <use xlink:href="#DejaVuSans-65" x="183.154297"/>
      <use xlink:href="#DejaVuSans-20" x="244.677734"/>
      <use xlink:href="#DejaVuSans-28" x="276.464844"/>
      <use xlink:href="#DejaVuSans-6d" x="315.478516"/>
      <use xlink:href="#DejaVuSans-73" x="412.890625"/>
      <use xlink:href="#DejaVuSans-29" x="464.990234"/>
     </g>
    </g>
   </g>
   <g id="matplotlib.axis_2">
    <g id="ytick_1">
     <g id="line2d_13">
      <path d="M 108 246.24 
L 777.6 246.24 
" clip-path="url(#pf9551c28d4)" style="fill: none; stroke: #b0b0b0; stroke-width: 0.8; stroke-linecap: square"/>
     </g>
     <g id="line2d_14">
      <defs>
       <path id="mb76daecb83" d="M 0 0 
L -3.5 0 
" style="stroke: #000000; stroke-width: 0.8"/>
      </defs>
      <g>
       <use xlink:href="#mb76daecb83" x="108" y="246.24" style="stroke: #000000; stroke-width: 0.8"/>
      </g>
     </g>
     <g id="text_8">
      <!-- 0.00 -->
      <g transform="translate(69.828125 251.558906) scale(0.14 -0.14)">
       <defs>
        <path id="DejaVuSans-2e" d="M 684 794 
L 1344 794 
L 1344 0 
L 684 0 
L 684 794 
z
" transform="scale(0.015625)"/>
       </defs>
       <use xlink:href="#DejaVuSans-30"/>
       <use xlink:href="#DejaVuSans-2e" x="63.623047"/>
       <use xlink:href="#DejaVuSans-30" x="95.410156"/>
       <use xlink:href="#DejaVuSans-30" x="159.033203"/>
      </g>
     </g>
    </g>
    <g id="ytick_2">
     <g id="line2d_15">
      <path d="M 108 206.557421 
L 777.6 206.557421 
" clip-path="url(#pf9551c28d4)" style="fill: none; stroke: #b0b0b0; stroke-width: 0.8; stroke-linecap: square"/>
     </g>
     <g id="line2d_16">
      <g>
       <use xlink:href="#mb76daecb83" x="108" y="206.557421" style="stroke: #000000; stroke-width: 0.8"/>
      </g>
     </g>
     <g id="text_9">
      <!-- 0.05 -->
      <g transform="translate(69.828125 211.876328) scale(0.14 -0.14)">
       <defs>
        <path id="DejaVuSans-35" d="M 691 4666 
L 3169 4666 
L 3169 4134 
L 1269 4134 
L 1269 2991 
Q 1406 3038 1543 3061 
Q 1681 3084 1819 3084 
Q 2600 3084 3056 2656 
Q 3513 2228 3513 1497 
Q 3513 744 3044 326 
Q 2575 -91 1722 -91 
Q 1428 -91 1123 -41 
Q 819 9 494 109 
L 494 744 
Q 775 591 1075 516 
Q 1375 441 1709 441 
Q 2250 441 2565 725 
Q 2881 1009 2881 1497 
Q 2881 1984 2565 2268 
Q 2250 2553 1709 2553 
Q 1456 2553 1204 2497 
Q 953 2441 691 2322 
L 691 4666 
z
" transform="scale(0.015625)"/>
       </defs>
       <use xlink:href="#DejaVuSans-30"/>
       <use xlink:href="#DejaVuSans-2e" x="63.623047"/>
       <use xlink:href="#DejaVuSans-30" x="95.410156"/>
       <use xlink:href="#DejaVuSans-35" x="159.033203"/>
      </g>
     </g>
    </g>
    <g id="ytick_3">
     <g id="line2d_17">
      <path d="M 108 166.874843 
L 777.6 166.874843 
" clip-path="url(#pf9551c28d4)" style="fill: none; stroke: #b0b0b0; stroke-width: 0.8; stroke-linecap: square"/>
     </g>
     <g id="line2d_18">
      <g>
       <use xlink:href="#mb76daecb83" x="108" y="166.874843" style="stroke: #000000; stroke-width: 0.8"/>
      </g>
     </g>
     <g id="text_10">
      <!-- 0.10 -->
      <g transform="translate(69.828125 172.193749) scale(0.14 -0.14)">
       <use xlink:href="#DejaVuSans-30"/>
       <use xlink:href="#DejaVuSans-2e" x="63.623047"/>
       <use xlink:href="#DejaVuSans-31" x="95.410156"/>
       <use xlink:href="#DejaVuSans-30" x="159.033203"/>
      </g>
     </g>
    </g>
    <g id="ytick_4">
     <g id="line2d_19">
      <path d="M 108 127.192264 
L 777.6 127.192264 
" clip-path="url(#pf9551c28d4)" style="fill: none; stroke: #b0b0b0; stroke-width: 0.8; stroke-linecap: square"/>
     </g>
     <g id="line2d_20">
      <g>
       <use xlink:href="#mb76daecb83" x="108" y="127.192264" style="stroke: #000000; stroke-width: 0.8"/>
      </g>
     </g>
     <g id="text_11">
      <!-- 0.15 -->
      <g transform="translate(69.828125 132.51117) scale(0.14 -0.14)">
       <use xlink:href="#DejaVuSans-30"/>
       <use xlink:href="#DejaVuSans-2e" x="63.623047"/>
       <use xlink:href="#DejaVuSans-31" x="95.410156"/>
       <use xlink:href="#DejaVuSans-35" x="159.033203"/>
      </g>
     </g>
    </g>
    <g id="ytick_5">
     <g id="line2d_21">
      <path d="M 108 87.509685 
L 777.6 87.509685 
" clip-path="url(#pf9551c28d4)" style="fill: none; stroke: #b0b0b0; stroke-width: 0.8; stroke-linecap: square"/>
     </g>
     <g id="line2d_22">
      <g>
       <use xlink:href="#mb76daecb83" x="108" y="87.509685" style="stroke: #000000; stroke-width: 0.8"/>
      </g>
     </g>
     <g id="text_12">
      <!-- 0.20 -->
      <g transform="translate(69.828125 92.828592) scale(0.14 -0.14)">
       <use xlink:href="#DejaVuSans-30"/>
       <use xlink:href="#DejaVuSans-2e" x="63.623047"/>
       <use xlink:href="#DejaVuSans-32" x="95.410156"/>
       <use xlink:href="#DejaVuSans-30" x="159.033203"/>
      </g>
     </g>
    </g>
    <g id="ytick_6">
     <g id="line2d_23">
      <path d="M 108 47.827107 
L 777.6 47.827107 
" clip-path="url(#pf9551c28d4)" style="fill: none; stroke: #b0b0b0; stroke-width: 0.8; stroke-linecap: square"/>
     </g>
     <g id="line2d_24">
      <g>
       <use xlink:href="#mb76daecb83" x="108" y="47.827107" style="stroke: #000000; stroke-width: 0.8"/>
      </g>
     </g>
     <g id="text_13">
      <!-- 0.25 -->
      <g transform="translate(69.828125 53.146013) scale(0.14 -0.14)">
       <use xlink:href="#DejaVuSans-30"/>
       <use xlink:href="#DejaVuSans-2e" x="63.623047"/>
       <use xlink:href="#DejaVuSans-32" x="95.410156"/>
       <use xlink:href="#DejaVuSans-35" x="159.033203"/>
      </g>
     </g>
    </g>
    <g id="text_14">
     <!-- $g_{Inhib}$ (µS) -->
     <g transform="translate(62.888125 178.83) rotate(-90) scale(0.14 -0.14)">
      <defs>
       <path id="DejaVuSans-Oblique-67" d="M 3816 3500 
L 3219 434 
Q 3047 -456 2561 -893 
Q 2075 -1331 1253 -1331 
Q 950 -1331 690 -1286 
Q 431 -1241 206 -1147 
L 313 -588 
Q 525 -725 762 -790 
Q 1000 -856 1269 -856 
Q 1816 -856 2167 -557 
Q 2519 -259 2631 300 
L 2681 563 
Q 2441 288 2122 144 
Q 1803 0 1434 0 
Q 903 0 598 351 
Q 294 703 294 1319 
Q 294 1803 478 2267 
Q 663 2731 997 3091 
Q 1219 3328 1514 3456 
Q 1809 3584 2131 3584 
Q 2484 3584 2746 3420 
Q 3009 3256 3138 2956 
L 3238 3500 
L 3816 3500 
z
M 2950 2216 
Q 2950 2641 2750 2872 
Q 2550 3103 2181 3103 
Q 1953 3103 1747 3012 
Q 1541 2922 1394 2759 
Q 1156 2491 1023 2127 
Q 891 1763 891 1375 
Q 891 944 1092 712 
Q 1294 481 1672 481 
Q 2219 481 2584 976 
Q 2950 1472 2950 2216 
z
" transform="scale(0.015625)"/>
       <path id="DejaVuSans-Oblique-49" d="M 1081 4666 
L 1716 4666 
L 806 0 
L 172 0 
L 1081 4666 
z
" transform="scale(0.015625)"/>
       <path id="DejaVuSans-Oblique-6e" d="M 3566 2113 
L 3156 0 
L 2578 0 
L 2988 2091 
Q 3016 2238 3031 2350 
Q 3047 2463 3047 2528 
Q 3047 2791 2881 2937 
Q 2716 3084 2419 3084 
Q 1956 3084 1622 2776 
Q 1288 2469 1184 1941 
L 800 0 
L 225 0 
L 903 3500 
L 1478 3500 
L 1363 2950 
Q 1603 3253 1940 3418 
Q 2278 3584 2650 3584 
Q 3113 3584 3367 3334 
Q 3622 3084 3622 2631 
Q 3622 2519 3608 2391 
Q 3594 2263 3566 2113 
z
" transform="scale(0.015625)"/>
       <path id="DejaVuSans-Oblique-68" d="M 3566 2113 
L 3156 0 
L 2578 0 
L 2988 2091 
Q 3016 2238 3031 2350 
Q 3047 2463 3047 2528 
Q 3047 2791 2881 2937 
Q 2716 3084 2419 3084 
Q 1956 3084 1617 2771 
Q 1278 2459 1178 1941 
L 800 0 
L 225 0 
L 1172 4863 
L 1747 4863 
L 1375 2950 
Q 1594 3244 1934 3414 
Q 2275 3584 2650 3584 
Q 3113 3584 3367 3334 
Q 3622 3084 3622 2631 
Q 3622 2519 3608 2391 
Q 3594 2263 3566 2113 
z
" transform="scale(0.015625)"/>
       <path id="DejaVuSans-Oblique-69" d="M 1172 4863 
L 1747 4863 
L 1606 4134 
L 1031 4134 
L 1172 4863 
z
M 909 3500 
L 1484 3500 
L 800 0 
L 225 0 
L 909 3500 
z
" transform="scale(0.015625)"/>
       <path id="DejaVuSans-Oblique-62" d="M 3169 2138 
Q 3169 2591 2961 2847 
Q 2753 3103 2388 3103 
Q 2122 3103 1889 2973 
Q 1656 2844 1484 2597 
Q 1303 2338 1198 1995 
Q 1094 1653 1094 1313 
Q 1094 881 1298 636 
Q 1503 391 1863 391 
Q 2134 391 2365 517 
Q 2597 644 2772 891 
Q 2950 1147 3059 1487 
Q 3169 1828 3169 2138 
z
M 1381 2969 
Q 1594 3256 1914 3420 
Q 2234 3584 2584 3584 
Q 3122 3584 3439 3221 
Q 3756 2859 3756 2241 
Q 3756 1734 3570 1259 
Q 3384 784 3041 416 
Q 2816 172 2522 40 
Q 2228 -91 1906 -91 
Q 1566 -91 1316 65 
Q 1066 222 909 531 
L 806 0 
L 231 0 
L 1178 4863 
L 1753 4863 
L 1381 2969 
z
" transform="scale(0.015625)"/>
       <path id="DejaVuSans-b5" d="M 544 -1331 
L 544 3500 
L 1119 3500 
L 1119 1325 
Q 1119 872 1334 640 
Q 1550 409 1972 409 
Q 2434 409 2667 671 
Q 2900 934 2900 1459 
L 2900 3500 
L 3475 3500 
L 3475 806 
Q 3475 619 3529 530 
Q 3584 441 3700 441 
Q 3728 441 3778 458 
Q 3828 475 3916 513 
L 3916 50 
Q 3788 -22 3673 -56 
Q 3559 -91 3450 -91 
Q 3234 -91 3106 31 
Q 2978 153 2931 403 
Q 2775 156 2548 32 
Q 2322 -91 2016 -91 
Q 1697 -91 1473 31 
Q 1250 153 1119 397 
L 1119 -1331 
L 544 -1331 
z
" transform="scale(0.015625)"/>
       <path id="DejaVuSans-53" d="M 3425 4513 
L 3425 3897 
Q 3066 4069 2747 4153 
Q 2428 4238 2131 4238 
Q 1616 4238 1336 4038 
Q 1056 3838 1056 3469 
Q 1056 3159 1242 3001 
Q 1428 2844 1947 2747 
L 2328 2669 
Q 3034 2534 3370 2195 
Q 3706 1856 3706 1288 
Q 3706 609 3251 259 
Q 2797 -91 1919 -91 
Q 1588 -91 1214 -16 
Q 841 59 441 206 
L 441 856 
Q 825 641 1194 531 
Q 1563 422 1919 422 
Q 2459 422 2753 634 
Q 3047 847 3047 1241 
Q 3047 1584 2836 1778 
Q 2625 1972 2144 2069 
L 1759 2144 
Q 1053 2284 737 2584 
Q 422 2884 422 3419 
Q 422 4038 858 4394 
Q 1294 4750 2059 4750 
Q 2388 4750 2728 4690 
Q 3069 4631 3425 4513 
z
" transform="scale(0.015625)"/>
      </defs>
      <use xlink:href="#DejaVuSans-Oblique-67" transform="translate(0 0.125)"/>
      <use xlink:href="#DejaVuSans-Oblique-49" transform="translate(63.476562 -16.28125) scale(0.7)"/>
      <use xlink:href="#DejaVuSans-Oblique-6e" transform="translate(84.121094 -16.28125) scale(0.7)"/>
      <use xlink:href="#DejaVuSans-Oblique-68" transform="translate(128.486328 -16.28125) scale(0.7)"/>
      <use xlink:href="#DejaVuSans-Oblique-69" transform="translate(172.851562 -16.28125) scale(0.7)"/>
      <use xlink:href="#DejaVuSans-Oblique-62" transform="translate(192.299805 -16.28125) scale(0.7)"/>
      <use xlink:href="#DejaVuSans-20" transform="translate(239.467773 0.125)"/>
      <use xlink:href="#DejaVuSans-28" transform="translate(271.254883 0.125)"/>
      <use xlink:href="#DejaVuSans-b5" transform="translate(310.268555 0.125)"/>
      <use xlink:href="#DejaVuSans-53" transform="translate(373.891602 0.125)"/>
      <use xlink:href="#DejaVuSans-29" transform="translate(437.368164 0.125)"/>
     </g>
    </g>
   </g>
   <g id="line2d_25">
    <path d="M 108 108.447386 
L 108.6696 105.010332 
L 109.3392 106.952642 
L 110.0088 101.716377 
L 112.0176 77.841036 
L 112.6872 77.557877 
L 116.0352 90.529086 
L 116.7048 85.556739 
L 117.3744 85.313181 
L 122.7312 104.72831 
L 123.4008 99.527788 
L 124.0704 99.059723 
L 124.74 93.786704 
L 125.4096 93.410895 
L 128.088 102.844345 
L 128.7576 97.674098 
L 129.4272 97.23582 
L 130.0968 91.992111 
L 130.7664 91.64514 
L 135.4536 108.070282 
L 136.1232 102.816057 
L 136.7928 102.295151 
L 137.4624 96.97014 
L 138.132 89.068634 
L 138.8016 88.605053 
L 142.8192 103.055206 
L 143.4888 97.881571 
L 144.1584 97.439959 
L 151.524 121.588715 
L 154.872 131.287372 
L 158.22 140.231411 
L 161.568 148.479548 
L 164.916 156.085928 
L 168.264 163.100484 
L 171.612 169.569263 
L 174.96 175.53473 
L 178.308 181.036046 
L 181.656 186.109325 
L 185.004 190.787871 
L 188.352 195.102396 
L 190.3608 197.528258 
L 191.0304 190.836489 
L 191.7 188.90114 
L 193.0392 190.568185 
L 196.3872 194.899804 
L 199.7352 198.894395 
L 203.0832 202.578182 
L 205.092 204.649408 
L 205.7616 197.843206 
L 206.4312 195.795262 
L 207.7704 197.242518 
L 211.1184 201.054831 
L 214.4664 204.570522 
L 216.4752 206.547236 
L 217.1448 199.710537 
L 217.8144 190.158045 
L 218.484 188.070009 
L 219.1536 181.366641 
L 219.8232 172.108926 
L 220.4928 170.31093 
L 221.832 172.570645 
L 225.18 178.302586 
L 226.5192 180.468481 
L 227.1888 174.050854 
L 227.8584 172.385241 
L 228.528 165.933919 
L 229.1976 164.398741 
L 230.5368 166.846942 
L 231.2064 160.648206 
L 231.876 151.723426 
L 232.5456 150.253014 
L 233.8848 153.152191 
L 234.5544 154.648064 
L 235.8936 129.733373 
L 236.5632 128.452741 
L 238.572 133.881951 
L 239.2416 135.687487 
L 239.9112 129.989468 
L 240.5808 129.031899 
L 241.2504 130.751784 
L 241.92 125.133079 
L 242.5896 124.253549 
L 245.268 131.751774 
L 248.616 140.65968 
L 249.2856 134.88176 
L 249.9552 133.845574 
L 250.6248 128.013565 
L 251.2944 119.613207 
L 251.964 118.65879 
L 252.6336 120.545366 
L 253.3032 115.090673 
L 253.9728 114.372519 
L 254.6424 108.853432 
L 255.312 108.235508 
L 260.6688 124.864353 
L 261.3384 111.865715 
L 262.008 108.37373 
L 263.3472 112.447089 
L 264.6864 116.712507 
L 265.356 111.319406 
L 266.0256 103.187314 
L 266.6952 102.496853 
L 268.704 109.157356 
L 269.3736 103.885662 
L 270.0432 103.347568 
L 272.7216 112.15754 
L 273.3912 106.837635 
L 274.0608 106.252104 
L 274.7304 100.863507 
L 275.4 100.373977 
L 281.4264 120.019836 
L 282.096 114.573588 
L 282.7656 113.863744 
L 283.4352 108.352833 
L 284.1048 107.742953 
L 290.8008 128.31501 
L 291.4704 122.735463 
L 292.14 121.894462 
L 294.8184 129.540707 
L 295.488 131.416005 
L 296.1576 125.786626 
L 296.8272 124.896594 
L 299.5056 132.354471 
L 302.8536 141.215483 
L 306.2016 149.387053 
L 309.5496 156.922824 
L 312.8976 163.872263 
L 316.2456 170.280993 
L 319.5936 176.191083 
L 322.9416 181.64133 
L 326.2896 186.667514 
L 328.968 190.405396 
L 329.6376 183.828088 
L 330.3072 182.00536 
L 331.6464 183.892249 
L 332.316 184.894145 
L 332.9856 178.4054 
L 333.6552 176.669812 
L 334.9944 178.726801 
L 338.3424 183.979754 
L 339.6816 185.964657 
L 340.3512 179.458709 
L 341.0208 177.706195 
L 341.6904 171.169368 
L 342.36 162.075518 
L 343.0296 160.438754 
L 344.3688 163.013201 
L 347.7168 169.488771 
L 351.0648 175.460501 
L 353.0736 178.818133 
L 353.7432 172.427027 
L 354.4128 170.787508 
L 355.752 173.03203 
L 359.1 178.728072 
L 359.7696 172.338412 
L 360.4392 163.225776 
L 361.1088 161.570528 
L 362.448 164.108894 
L 365.796 170.499212 
L 366.4656 164.241786 
L 367.1352 162.7338 
L 368.4744 165.23508 
L 369.144 151.587705 
L 369.8136 147.457408 
L 370.4832 148.717616 
L 373.8312 156.305473 
L 375.1704 159.172652 
L 375.84 153.097238 
L 376.5096 144.293798 
L 377.1792 142.942777 
L 377.8488 136.96458 
L 378.5184 135.894925 
L 379.8576 139.251848 
L 380.5272 126.02201 
L 381.1968 122.302541 
L 381.8664 116.492433 
L 383.2056 100.030419 
L 383.8752 99.390688 
L 384.5448 94.112351 
L 385.2144 78.782226 
L 385.884 75.658287 
L 386.5536 70.597729 
L 387.2232 70.594554 
L 389.9016 81.459618 
L 390.5712 76.633013 
L 391.2408 69.058313 
L 391.9104 68.916288 
L 397.9368 92.829994 
L 399.9456 100.107446 
L 400.6152 94.981179 
L 401.2848 94.586176 
L 405.3024 108.482324 
L 405.972 103.221478 
L 406.6416 102.694057 
L 407.9808 107.109448 
L 408.6504 101.870664 
L 409.32 101.364949 
L 416.6856 124.873049 
L 420.0336 134.316164 
L 423.3816 143.024544 
L 425.3904 147.920871 
L 426.06 142.026268 
L 426.7296 140.875273 
L 428.7384 145.715184 
L 432.0864 153.536648 
L 435.4344 160.749554 
L 438.7824 167.40125 
L 442.1304 173.535402 
L 445.4784 179.192279 
L 448.8264 184.409014 
L 452.1744 189.219855 
L 455.5224 193.656382 
L 458.8704 197.747719 
L 462.2184 201.520725 
L 465.5664 205.000166 
L 468.9144 208.208886 
L 472.932 211.731536 
L 473.6016 204.811528 
L 474.2712 202.651607 
L 474.9408 203.188461 
L 478.2888 206.538143 
L 481.6368 209.627198 
L 482.3064 202.741005 
L 482.976 200.614356 
L 483.6456 201.183948 
L 486.324 204.010995 
L 486.9936 197.215052 
L 487.6632 187.702661 
L 488.3328 185.654082 
L 489.672 187.424646 
L 490.3416 188.369779 
L 491.0112 181.825182 
L 491.6808 180.03464 
L 492.3504 165.985855 
L 493.02 161.624187 
L 493.6896 162.656742 
L 494.3592 163.999882 
L 495.0288 157.846897 
L 495.6984 156.441674 
L 496.368 150.246557 
L 497.0376 141.488925 
L 497.7072 140.182977 
L 499.0464 143.403194 
L 499.716 137.581187 
L 500.3856 136.501623 
L 502.3944 141.54901 
L 503.064 135.756799 
L 503.7336 134.706552 
L 504.4032 121.386166 
L 505.0728 117.741193 
L 505.7424 119.478925 
L 506.412 114.041369 
L 507.0816 113.340078 
L 507.7512 115.312122 
L 508.4208 109.941525 
L 509.0904 109.306116 
L 513.108 121.838823 
L 513.7776 116.363345 
L 514.4472 115.62474 
L 515.1168 110.085531 
L 515.7864 109.447808 
L 516.456 104.007858 
L 517.1256 103.4678 
L 517.7952 105.598487 
L 518.4648 100.383982 
L 519.1344 99.902158 
L 522.4824 111.134841 
L 523.152 105.83137 
L 523.8216 105.26201 
L 525.1608 109.595533 
L 526.5 86.11715 
L 527.1696 85.537409 
L 527.8392 80.481687 
L 528.5088 80.319682 
L 529.1784 75.347807 
L 529.848 75.268301 
L 535.8744 98.320233 
L 536.544 93.222686 
L 537.2136 92.85594 
L 539.2224 99.973788 
L 539.892 94.84967 
L 540.5616 94.456779 
L 543.9096 106.113147 
L 544.5792 100.890372 
L 545.2488 100.400411 
L 551.2752 120.042683 
L 551.9448 114.596068 
L 552.6144 113.885863 
L 560.6496 137.132179 
L 563.9976 145.621456 
L 567.3456 153.450213 
L 570.6936 160.669844 
L 574.0416 167.327742 
L 577.3896 173.467613 
L 580.7376 179.129764 
L 584.0856 184.351364 
L 587.4336 189.16669 
L 590.7816 193.607354 
L 594.1296 197.702506 
L 597.4776 201.479029 
L 600.8256 204.961715 
L 602.1648 206.277697 
L 602.8344 199.44533 
L 603.504 197.371641 
L 604.1736 197.993341 
L 604.8432 198.76864 
L 605.5128 192.056939 
L 606.1824 190.101978 
L 607.5216 191.73074 
L 610.8696 195.971904 
L 612.2088 197.574489 
L 612.8784 190.881977 
L 613.548 188.945897 
L 614.8872 190.611515 
L 617.5656 194.10193 
L 618.2352 187.465221 
L 618.9048 185.584046 
L 620.244 187.356843 
L 622.2528 190.150138 
L 622.9224 183.576932 
L 623.592 166.809157 
L 624.2616 162.270671 
L 624.9312 163.292837 
L 625.6008 164.625755 
L 626.2704 158.462713 
L 626.94 149.573052 
L 627.6096 148.137197 
L 629.6184 152.632616 
L 630.288 154.136839 
L 630.9576 140.667807 
L 631.6272 136.712987 
L 632.2968 138.145852 
L 632.9664 132.408328 
L 633.636 123.937348 
L 634.3056 122.913445 
L 636.984 130.495754 
L 638.9928 135.986421 
L 639.6624 130.283598 
L 640.332 129.321302 
L 641.0016 131.036537 
L 641.6712 125.413256 
L 642.3408 117.054683 
L 643.0104 116.141381 
L 643.68 110.593868 
L 644.3496 109.947977 
L 649.0368 124.410935 
L 649.7064 111.419583 
L 650.376 107.934767 
L 651.0456 102.355543 
L 651.7152 86.892954 
L 652.3848 83.63868 
L 653.0544 78.449881 
L 653.724 78.320526 
L 654.3936 73.380776 
L 655.0632 65.858338 
L 655.7328 65.767735 
L 659.7504 82.333206 
L 660.42 77.492562 
L 661.0896 77.378591 
L 665.1072 92.868601 
L 665.7768 87.858659 
L 666.4464 80.10357 
L 667.116 79.784052 
L 673.812 104.537609 
L 674.4816 106.814693 
L 675.1512 101.580645 
L 675.8208 101.079591 
L 676.4904 95.774114 
L 677.16 95.366368 
L 684.5256 119.853587 
L 687.8736 129.687247 
L 691.2216 138.755786 
L 694.5696 147.118736 
L 697.9176 154.830996 
L 701.2656 161.943193 
L 704.6136 168.502016 
L 707.9616 174.550522 
L 711.3096 180.128416 
L 714.6576 185.272314 
L 718.0056 190.015985 
L 721.3536 194.390568 
L 724.7016 198.424781 
L 728.0496 202.145106 
L 731.3976 205.575967 
L 735.4152 209.342493 
L 739.4328 212.760143 
L 742.1112 214.86084 
L 742.7808 207.890545 
L 743.4504 205.681146 
L 744.12 206.169317 
L 748.1376 209.880884 
L 752.1552 213.248665 
L 754.164 214.813705 
L 754.8336 207.844168 
L 755.5032 205.635514 
L 756.1728 206.124419 
L 758.8512 208.641475 
L 759.5208 201.771123 
L 760.1904 199.660059 
L 760.86 200.244986 
L 761.5296 200.984103 
L 762.1992 194.2368 
L 762.8688 192.24681 
L 763.5384 192.950864 
L 764.208 186.332652 
L 764.8776 184.469676 
L 765.5472 185.298705 
L 766.2168 178.803459 
L 766.8864 177.061474 
L 767.556 170.535008 
L 768.2256 168.925893 
L 769.5648 171.229764 
L 770.2344 164.960599 
L 770.904 163.441061 
L 772.2432 165.919793 
L 772.9128 167.210498 
L 773.5824 161.00592 
L 774.252 159.549932 
L 774.9216 153.304867 
L 775.5912 151.972632 
L 776.2608 153.323871 
L 776.9304 147.342444 
L 777.6 146.106022 
L 777.6 146.106022 
" clip-path="url(#pf9551c28d4)" style="fill: none; stroke: #ff4500; stroke-width: 1.5; stroke-linecap: square"/>
   </g>
   <g id="patch_3">
    <path d="M 108 256.32 
L 108 34.56 
" style="fill: none; stroke: #000000; stroke-width: 0.8; stroke-linejoin: miter; stroke-linecap: square"/>
   </g>
   <g id="patch_4">
    <path d="M 777.6 256.32 
L 777.6 34.56 
" style="fill: none; stroke: #000000; stroke-width: 0.8; stroke-linejoin: miter; stroke-linecap: square"/>
   </g>
   <g id="patch_5">
    <path d="M 108 256.32 
L 777.6 256.32 
" style="fill: none; stroke: #000000; stroke-width: 0.8; stroke-linejoin: miter; stroke-linecap: square"/>
   </g>
   <g id="patch_6">
    <path d="M 108 34.56 
L 777.6 34.56 
" style="fill: none; stroke: #000000; stroke-width: 0.8; stroke-linejoin: miter; stroke-linecap: square"/>
   </g>
  </g>
 </g>
 <defs>
  <clipPath id="pf9551c28d4">
   <rect x="108" y="34.56" width="669.6" height="221.76"/>
  </clipPath>
 </defs>
</svg>
