<?xml version="1.0" encoding="utf-8" standalone="no"?>
<!DOCTYPE svg PUBLIC "-//W3C//DTD SVG 1.1//EN"
  "http://www.w3.org/Graphics/SVG/1.1/DTD/svg11.dtd">
<svg xmlns:xlink="http://www.w3.org/1999/xlink" width="864pt" height="288pt" viewBox="0 0 864 288" xmlns="http://www.w3.org/2000/svg" version="1.1">
 <metadata>
  <rdf:RDF xmlns:dc="http://purl.org/dc/elements/1.1/" xmlns:cc="http://creativecommons.org/ns#" xmlns:rdf="http://www.w3.org/1999/02/22-rdf-syntax-ns#">
   <cc:Work>
    <dc:type rdf:resource="http://purl.org/dc/dcmitype/StillImage"/>
    <dc:date>2024-04-23T19:17:14.815957</dc:date>
    <dc:format>image/svg+xml</dc:format>
    <dc:creator>
     <cc:Agent>
      <dc:title>Matplotlib v3.8.2, https://matplotlib.org/</dc:title>
     </cc:Agent>
    </dc:creator>
   </cc:Work>
  </rdf:RDF>
 </metadata>
 <defs>
  <style type="text/css">*{stroke-linejoin: round; stroke-linecap: butt}</style>
 </defs>
 <g id="figure_1">
  <g id="patch_1">
   <path d="M 0 288 
L 864 288 
L 864 0 
L 0 0 
z
" style="fill: #ffffff"/>
  </g>
  <g id="axes_1">
   <g id="patch_2">
    <path d="M 108 256.32 
L 777.6 256.32 
L 777.6 34.56 
L 108 34.56 
z
" style="fill: #ffffff"/>
   </g>
   <g id="matplotlib.axis_1">
    <g id="xtick_1">
     <g id="line2d_1">
      <path d="M 108 256.32 
L 108 34.56 
" clip-path="url(#p73b4ac98a8)" style="fill: none; stroke: #b0b0b0; stroke-width: 0.8; stroke-linecap: square"/>
     </g>
     <g id="line2d_2">
      <defs>
       <path id="m1320da5476" d="M 0 0 
L 0 3.5 
" style="stroke: #000000; stroke-width: 0.8"/>
      </defs>
      <g>
       <use xlink:href="#m1320da5476" x="108" y="256.32" style="stroke: #000000; stroke-width: 0.8"/>
      </g>
     </g>
     <g id="text_1">
      <!-- 100 -->
      <g transform="translate(94.63875 273.957812) scale(0.14 -0.14)">
       <defs>
        <path id="DejaVuSans-31" d="M 794 531 
L 1825 531 
L 1825 4091 
L 703 3866 
L 703 4441 
L 1819 4666 
L 2450 4666 
L 2450 531 
L 3481 531 
L 3481 0 
L 794 0 
L 794 531 
z
" transform="scale(0.015625)"/>
        <path id="DejaVuSans-30" d="M 2034 4250 
Q 1547 4250 1301 3770 
Q 1056 3291 1056 2328 
Q 1056 1369 1301 889 
Q 1547 409 2034 409 
Q 2525 409 2770 889 
Q 3016 1369 3016 2328 
Q 3016 3291 2770 3770 
Q 2525 4250 2034 4250 
z
M 2034 4750 
Q 2819 4750 3233 4129 
Q 3647 3509 3647 2328 
Q 3647 1150 3233 529 
Q 2819 -91 2034 -91 
Q 1250 -91 836 529 
Q 422 1150 422 2328 
Q 422 3509 836 4129 
Q 1250 4750 2034 4750 
z
" transform="scale(0.015625)"/>
       </defs>
       <use xlink:href="#DejaVuSans-31"/>
       <use xlink:href="#DejaVuSans-30" x="63.623047"/>
       <use xlink:href="#DejaVuSans-30" x="127.246094"/>
      </g>
     </g>
    </g>
    <g id="xtick_2">
     <g id="line2d_3">
      <path d="M 241.92 256.32 
L 241.92 34.56 
" clip-path="url(#p73b4ac98a8)" style="fill: none; stroke: #b0b0b0; stroke-width: 0.8; stroke-linecap: square"/>
     </g>
     <g id="line2d_4">
      <g>
       <use xlink:href="#m1320da5476" x="241.92" y="256.32" style="stroke: #000000; stroke-width: 0.8"/>
      </g>
     </g>
     <g id="text_2">
      <!-- 120 -->
      <g transform="translate(228.55875 273.957812) scale(0.14 -0.14)">
       <defs>
        <path id="DejaVuSans-32" d="M 1228 531 
L 3431 531 
L 3431 0 
L 469 0 
L 469 531 
Q 828 903 1448 1529 
Q 2069 2156 2228 2338 
Q 2531 2678 2651 2914 
Q 2772 3150 2772 3378 
Q 2772 3750 2511 3984 
Q 2250 4219 1831 4219 
Q 1534 4219 1204 4116 
Q 875 4013 500 3803 
L 500 4441 
Q 881 4594 1212 4672 
Q 1544 4750 1819 4750 
Q 2544 4750 2975 4387 
Q 3406 4025 3406 3419 
Q 3406 3131 3298 2873 
Q 3191 2616 2906 2266 
Q 2828 2175 2409 1742 
Q 1991 1309 1228 531 
z
" transform="scale(0.015625)"/>
       </defs>
       <use xlink:href="#DejaVuSans-31"/>
       <use xlink:href="#DejaVuSans-32" x="63.623047"/>
       <use xlink:href="#DejaVuSans-30" x="127.246094"/>
      </g>
     </g>
    </g>
    <g id="xtick_3">
     <g id="line2d_5">
      <path d="M 375.84 256.32 
L 375.84 34.56 
" clip-path="url(#p73b4ac98a8)" style="fill: none; stroke: #b0b0b0; stroke-width: 0.8; stroke-linecap: square"/>
     </g>
     <g id="line2d_6">
      <g>
       <use xlink:href="#m1320da5476" x="375.84" y="256.32" style="stroke: #000000; stroke-width: 0.8"/>
      </g>
     </g>
     <g id="text_3">
      <!-- 140 -->
      <g transform="translate(362.47875 273.957812) scale(0.14 -0.14)">
       <defs>
        <path id="DejaVuSans-34" d="M 2419 4116 
L 825 1625 
L 2419 1625 
L 2419 4116 
z
M 2253 4666 
L 3047 4666 
L 3047 1625 
L 3713 1625 
L 3713 1100 
L 3047 1100 
L 3047 0 
L 2419 0 
L 2419 1100 
L 313 1100 
L 313 1709 
L 2253 4666 
z
" transform="scale(0.015625)"/>
       </defs>
       <use xlink:href="#DejaVuSans-31"/>
       <use xlink:href="#DejaVuSans-34" x="63.623047"/>
       <use xlink:href="#DejaVuSans-30" x="127.246094"/>
      </g>
     </g>
    </g>
    <g id="xtick_4">
     <g id="line2d_7">
      <path d="M 509.76 256.32 
L 509.76 34.56 
" clip-path="url(#p73b4ac98a8)" style="fill: none; stroke: #b0b0b0; stroke-width: 0.8; stroke-linecap: square"/>
     </g>
     <g id="line2d_8">
      <g>
       <use xlink:href="#m1320da5476" x="509.76" y="256.32" style="stroke: #000000; stroke-width: 0.8"/>
      </g>
     </g>
     <g id="text_4">
      <!-- 160 -->
      <g transform="translate(496.39875 273.957812) scale(0.14 -0.14)">
       <defs>
        <path id="DejaVuSans-36" d="M 2113 2584 
Q 1688 2584 1439 2293 
Q 1191 2003 1191 1497 
Q 1191 994 1439 701 
Q 1688 409 2113 409 
Q 2538 409 2786 701 
Q 3034 994 3034 1497 
Q 3034 2003 2786 2293 
Q 2538 2584 2113 2584 
z
M 3366 4563 
L 3366 3988 
Q 3128 4100 2886 4159 
Q 2644 4219 2406 4219 
Q 1781 4219 1451 3797 
Q 1122 3375 1075 2522 
Q 1259 2794 1537 2939 
Q 1816 3084 2150 3084 
Q 2853 3084 3261 2657 
Q 3669 2231 3669 1497 
Q 3669 778 3244 343 
Q 2819 -91 2113 -91 
Q 1303 -91 875 529 
Q 447 1150 447 2328 
Q 447 3434 972 4092 
Q 1497 4750 2381 4750 
Q 2619 4750 2861 4703 
Q 3103 4656 3366 4563 
z
" transform="scale(0.015625)"/>
       </defs>
       <use xlink:href="#DejaVuSans-31"/>
       <use xlink:href="#DejaVuSans-36" x="63.623047"/>
       <use xlink:href="#DejaVuSans-30" x="127.246094"/>
      </g>
     </g>
    </g>
    <g id="xtick_5">
     <g id="line2d_9">
      <path d="M 643.68 256.32 
L 643.68 34.56 
" clip-path="url(#p73b4ac98a8)" style="fill: none; stroke: #b0b0b0; stroke-width: 0.8; stroke-linecap: square"/>
     </g>
     <g id="line2d_10">
      <g>
       <use xlink:href="#m1320da5476" x="643.68" y="256.32" style="stroke: #000000; stroke-width: 0.8"/>
      </g>
     </g>
     <g id="text_5">
      <!-- 180 -->
      <g transform="translate(630.31875 273.957812) scale(0.14 -0.14)">
       <defs>
        <path id="DejaVuSans-38" d="M 2034 2216 
Q 1584 2216 1326 1975 
Q 1069 1734 1069 1313 
Q 1069 891 1326 650 
Q 1584 409 2034 409 
Q 2484 409 2743 651 
Q 3003 894 3003 1313 
Q 3003 1734 2745 1975 
Q 2488 2216 2034 2216 
z
M 1403 2484 
Q 997 2584 770 2862 
Q 544 3141 544 3541 
Q 544 4100 942 4425 
Q 1341 4750 2034 4750 
Q 2731 4750 3128 4425 
Q 3525 4100 3525 3541 
Q 3525 3141 3298 2862 
Q 3072 2584 2669 2484 
Q 3125 2378 3379 2068 
Q 3634 1759 3634 1313 
Q 3634 634 3220 271 
Q 2806 -91 2034 -91 
Q 1263 -91 848 271 
Q 434 634 434 1313 
Q 434 1759 690 2068 
Q 947 2378 1403 2484 
z
M 1172 3481 
Q 1172 3119 1398 2916 
Q 1625 2713 2034 2713 
Q 2441 2713 2670 2916 
Q 2900 3119 2900 3481 
Q 2900 3844 2670 4047 
Q 2441 4250 2034 4250 
Q 1625 4250 1398 4047 
Q 1172 3844 1172 3481 
z
" transform="scale(0.015625)"/>
       </defs>
       <use xlink:href="#DejaVuSans-31"/>
       <use xlink:href="#DejaVuSans-38" x="63.623047"/>
       <use xlink:href="#DejaVuSans-30" x="127.246094"/>
      </g>
     </g>
    </g>
    <g id="xtick_6">
     <g id="line2d_11">
      <path d="M 777.6 256.32 
L 777.6 34.56 
" clip-path="url(#p73b4ac98a8)" style="fill: none; stroke: #b0b0b0; stroke-width: 0.8; stroke-linecap: square"/>
     </g>
     <g id="line2d_12">
      <g>
       <use xlink:href="#m1320da5476" x="777.6" y="256.32" style="stroke: #000000; stroke-width: 0.8"/>
      </g>
     </g>
     <g id="text_6">
      <!-- 200 -->
      <g transform="translate(764.23875 273.957812) scale(0.14 -0.14)">
       <use xlink:href="#DejaVuSans-32"/>
       <use xlink:href="#DejaVuSans-30" x="63.623047"/>
       <use xlink:href="#DejaVuSans-30" x="127.246094"/>
      </g>
     </g>
    </g>
    <g id="text_7">
     <!-- Time (ms) -->
     <g transform="translate(407.521094 291.507187) scale(0.14 -0.14)">
      <defs>
       <path id="DejaVuSans-54" d="M -19 4666 
L 3928 4666 
L 3928 4134 
L 2272 4134 
L 2272 0 
L 1638 0 
L 1638 4134 
L -19 4134 
L -19 4666 
z
" transform="scale(0.015625)"/>
       <path id="DejaVuSans-69" d="M 603 3500 
L 1178 3500 
L 1178 0 
L 603 0 
L 603 3500 
z
M 603 4863 
L 1178 4863 
L 1178 4134 
L 603 4134 
L 603 4863 
z
" transform="scale(0.015625)"/>
       <path id="DejaVuSans-6d" d="M 3328 2828 
Q 3544 3216 3844 3400 
Q 4144 3584 4550 3584 
Q 5097 3584 5394 3201 
Q 5691 2819 5691 2113 
L 5691 0 
L 5113 0 
L 5113 2094 
Q 5113 2597 4934 2840 
Q 4756 3084 4391 3084 
Q 3944 3084 3684 2787 
Q 3425 2491 3425 1978 
L 3425 0 
L 2847 0 
L 2847 2094 
Q 2847 2600 2669 2842 
Q 2491 3084 2119 3084 
Q 1678 3084 1418 2786 
Q 1159 2488 1159 1978 
L 1159 0 
L 581 0 
L 581 3500 
L 1159 3500 
L 1159 2956 
Q 1356 3278 1631 3431 
Q 1906 3584 2284 3584 
Q 2666 3584 2933 3390 
Q 3200 3197 3328 2828 
z
" transform="scale(0.015625)"/>
       <path id="DejaVuSans-65" d="M 3597 1894 
L 3597 1613 
L 953 1613 
Q 991 1019 1311 708 
Q 1631 397 2203 397 
Q 2534 397 2845 478 
Q 3156 559 3463 722 
L 3463 178 
Q 3153 47 2828 -22 
Q 2503 -91 2169 -91 
Q 1331 -91 842 396 
Q 353 884 353 1716 
Q 353 2575 817 3079 
Q 1281 3584 2069 3584 
Q 2775 3584 3186 3129 
Q 3597 2675 3597 1894 
z
M 3022 2063 
Q 3016 2534 2758 2815 
Q 2500 3097 2075 3097 
Q 1594 3097 1305 2825 
Q 1016 2553 972 2059 
L 3022 2063 
z
" transform="scale(0.015625)"/>
       <path id="DejaVuSans-20" transform="scale(0.015625)"/>
       <path id="DejaVuSans-28" d="M 1984 4856 
Q 1566 4138 1362 3434 
Q 1159 2731 1159 2009 
Q 1159 1288 1364 580 
Q 1569 -128 1984 -844 
L 1484 -844 
Q 1016 -109 783 600 
Q 550 1309 550 2009 
Q 550 2706 781 3412 
Q 1013 4119 1484 4856 
L 1984 4856 
z
" transform="scale(0.015625)"/>
       <path id="DejaVuSans-73" d="M 2834 3397 
L 2834 2853 
Q 2591 2978 2328 3040 
Q 2066 3103 1784 3103 
Q 1356 3103 1142 2972 
Q 928 2841 928 2578 
Q 928 2378 1081 2264 
Q 1234 2150 1697 2047 
L 1894 2003 
Q 2506 1872 2764 1633 
Q 3022 1394 3022 966 
Q 3022 478 2636 193 
Q 2250 -91 1575 -91 
Q 1294 -91 989 -36 
Q 684 19 347 128 
L 347 722 
Q 666 556 975 473 
Q 1284 391 1588 391 
Q 1994 391 2212 530 
Q 2431 669 2431 922 
Q 2431 1156 2273 1281 
Q 2116 1406 1581 1522 
L 1381 1569 
Q 847 1681 609 1914 
Q 372 2147 372 2553 
Q 372 3047 722 3315 
Q 1072 3584 1716 3584 
Q 2034 3584 2315 3537 
Q 2597 3491 2834 3397 
z
" transform="scale(0.015625)"/>
       <path id="DejaVuSans-29" d="M 513 4856 
L 1013 4856 
Q 1481 4119 1714 3412 
Q 1947 2706 1947 2009 
Q 1947 1309 1714 600 
Q 1481 -109 1013 -844 
L 513 -844 
Q 928 -128 1133 580 
Q 1338 1288 1338 2009 
Q 1338 2731 1133 3434 
Q 928 4138 513 4856 
z
" transform="scale(0.015625)"/>
      </defs>
      <use xlink:href="#DejaVuSans-54"/>
      <use xlink:href="#DejaVuSans-69" x="57.958984"/>
      <use xlink:href="#DejaVuSans-6d" x="85.742188"/>
      <use xlink:href="#DejaVuSans-65" x="183.154297"/>
      <use xlink:href="#DejaVuSans-20" x="244.677734"/>
      <use xlink:href="#DejaVuSans-28" x="276.464844"/>
      <use xlink:href="#DejaVuSans-6d" x="315.478516"/>
      <use xlink:href="#DejaVuSans-73" x="412.890625"/>
      <use xlink:href="#DejaVuSans-29" x="464.990234"/>
     </g>
    </g>
   </g>
   <g id="matplotlib.axis_2">
    <g id="ytick_1">
     <g id="line2d_13">
      <path d="M 108 225.155371 
L 777.6 225.155371 
" clip-path="url(#p73b4ac98a8)" style="fill: none; stroke: #b0b0b0; stroke-width: 0.8; stroke-linecap: square"/>
     </g>
     <g id="line2d_14">
      <defs>
       <path id="mf1c918ee2e" d="M 0 0 
L -3.5 0 
" style="stroke: #000000; stroke-width: 0.8"/>
      </defs>
      <g>
       <use xlink:href="#mf1c918ee2e" x="108" y="225.155371" style="stroke: #000000; stroke-width: 0.8"/>
      </g>
     </g>
     <g id="text_8">
      <!-- −60 -->
      <g transform="translate(71.453437 230.474277) scale(0.14 -0.14)">
       <defs>
        <path id="DejaVuSans-2212" d="M 678 2272 
L 4684 2272 
L 4684 1741 
L 678 1741 
L 678 2272 
z
" transform="scale(0.015625)"/>
       </defs>
       <use xlink:href="#DejaVuSans-2212"/>
       <use xlink:href="#DejaVuSans-36" x="83.789062"/>
       <use xlink:href="#DejaVuSans-30" x="147.412109"/>
      </g>
     </g>
    </g>
    <g id="ytick_2">
     <g id="line2d_15">
      <path d="M 108 183.053305 
L 777.6 183.053305 
" clip-path="url(#p73b4ac98a8)" style="fill: none; stroke: #b0b0b0; stroke-width: 0.8; stroke-linecap: square"/>
     </g>
     <g id="line2d_16">
      <g>
       <use xlink:href="#mf1c918ee2e" x="108" y="183.053305" style="stroke: #000000; stroke-width: 0.8"/>
      </g>
     </g>
     <g id="text_9">
      <!-- −40 -->
      <g transform="translate(71.453437 188.372211) scale(0.14 -0.14)">
       <use xlink:href="#DejaVuSans-2212"/>
       <use xlink:href="#DejaVuSans-34" x="83.789062"/>
       <use xlink:href="#DejaVuSans-30" x="147.412109"/>
      </g>
     </g>
    </g>
    <g id="ytick_3">
     <g id="line2d_17">
      <path d="M 108 140.95124 
L 777.6 140.95124 
" clip-path="url(#p73b4ac98a8)" style="fill: none; stroke: #b0b0b0; stroke-width: 0.8; stroke-linecap: square"/>
     </g>
     <g id="line2d_18">
      <g>
       <use xlink:href="#mf1c918ee2e" x="108" y="140.95124" style="stroke: #000000; stroke-width: 0.8"/>
      </g>
     </g>
     <g id="text_10">
      <!-- −20 -->
      <g transform="translate(71.453437 146.270146) scale(0.14 -0.14)">
       <use xlink:href="#DejaVuSans-2212"/>
       <use xlink:href="#DejaVuSans-32" x="83.789062"/>
       <use xlink:href="#DejaVuSans-30" x="147.412109"/>
      </g>
     </g>
    </g>
    <g id="ytick_4">
     <g id="line2d_19">
      <path d="M 108 98.849174 
L 777.6 98.849174 
" clip-path="url(#p73b4ac98a8)" style="fill: none; stroke: #b0b0b0; stroke-width: 0.8; stroke-linecap: square"/>
     </g>
     <g id="line2d_20">
      <g>
       <use xlink:href="#mf1c918ee2e" x="108" y="98.849174" style="stroke: #000000; stroke-width: 0.8"/>
      </g>
     </g>
     <g id="text_11">
      <!-- 0 -->
      <g transform="translate(92.0925 104.16808) scale(0.14 -0.14)">
       <use xlink:href="#DejaVuSans-30"/>
      </g>
     </g>
    </g>
    <g id="ytick_5">
     <g id="line2d_21">
      <path d="M 108 56.747108 
L 777.6 56.747108 
" clip-path="url(#p73b4ac98a8)" style="fill: none; stroke: #b0b0b0; stroke-width: 0.8; stroke-linecap: square"/>
     </g>
     <g id="line2d_22">
      <g>
       <use xlink:href="#mf1c918ee2e" x="108" y="56.747108" style="stroke: #000000; stroke-width: 0.8"/>
      </g>
     </g>
     <g id="text_12">
      <!-- 20 -->
      <g transform="translate(83.185 62.066015) scale(0.14 -0.14)">
       <use xlink:href="#DejaVuSans-32"/>
       <use xlink:href="#DejaVuSans-30" x="63.623047"/>
      </g>
     </g>
    </g>
    <g id="text_13">
     <!-- $V_{m}$ (mV) -->
     <g transform="translate(64.541875 174.49) rotate(-90) scale(0.14 -0.14)">
      <defs>
       <path id="DejaVuSans-Oblique-56" d="M 1319 0 
L 500 4666 
L 1119 4666 
L 1797 653 
L 4063 4666 
L 4750 4666 
L 2053 0 
L 1319 0 
z
" transform="scale(0.015625)"/>
       <path id="DejaVuSans-Oblique-6d" d="M 5747 2113 
L 5338 0 
L 4763 0 
L 5166 2094 
Q 5191 2228 5203 2325 
Q 5216 2422 5216 2491 
Q 5216 2772 5059 2928 
Q 4903 3084 4622 3084 
Q 4203 3084 3875 2770 
Q 3547 2456 3450 1953 
L 3066 0 
L 2491 0 
L 2900 2094 
Q 2925 2209 2937 2307 
Q 2950 2406 2950 2484 
Q 2950 2769 2794 2926 
Q 2638 3084 2363 3084 
Q 1938 3084 1609 2770 
Q 1281 2456 1184 1953 
L 800 0 
L 225 0 
L 909 3500 
L 1484 3500 
L 1375 2956 
Q 1609 3263 1923 3423 
Q 2238 3584 2597 3584 
Q 2978 3584 3223 3384 
Q 3469 3184 3519 2828 
Q 3781 3197 4126 3390 
Q 4472 3584 4856 3584 
Q 5306 3584 5551 3325 
Q 5797 3066 5797 2591 
Q 5797 2488 5784 2364 
Q 5772 2241 5747 2113 
z
" transform="scale(0.015625)"/>
       <path id="DejaVuSans-56" d="M 1831 0 
L 50 4666 
L 709 4666 
L 2188 738 
L 3669 4666 
L 4325 4666 
L 2547 0 
L 1831 0 
z
" transform="scale(0.015625)"/>
      </defs>
      <use xlink:href="#DejaVuSans-Oblique-56" transform="translate(0 0.125)"/>
      <use xlink:href="#DejaVuSans-Oblique-6d" transform="translate(68.408203 -16.28125) scale(0.7)"/>
      <use xlink:href="#DejaVuSans-20" transform="translate(139.331055 0.125)"/>
      <use xlink:href="#DejaVuSans-28" transform="translate(171.118164 0.125)"/>
      <use xlink:href="#DejaVuSans-6d" transform="translate(210.131836 0.125)"/>
      <use xlink:href="#DejaVuSans-56" transform="translate(307.543945 0.125)"/>
      <use xlink:href="#DejaVuSans-29" transform="translate(375.952148 0.125)"/>
     </g>
    </g>
   </g>
   <g id="line2d_23">
    <path d="M 108 213.892 
L 109.3392 213.643439 
L 110.0088 214.40044 
L 110.6784 216.30031 
L 112.0176 218.817504 
L 113.3568 220.558428 
L 116.0352 224.779717 
L 118.7136 227.012723 
L 119.3832 227.397674 
L 120.0528 228.020878 
L 120.7224 229.160907 
L 122.0616 230.84847 
L 122.7312 231.478047 
L 123.4008 231.913954 
L 124.74 233.04252 
L 126.0792 233.661071 
L 127.4184 234.05793 
L 130.0968 235.718973 
L 131.436 236.142489 
L 133.4448 236.467993 
L 136.1232 236.624698 
L 137.4624 237.108534 
L 138.8016 237.264439 
L 140.8104 237.274358 
L 142.1496 237.202166 
L 143.4888 237.570513 
L 144.828 237.618526 
L 145.4976 237.589077 
L 148.8456 238.558488 
L 150.1848 238.41934 
L 152.8632 237.616748 
L 158.8896 235.55923 
L 163.5768 233.70816 
L 168.264 231.627461 
L 173.6208 229.013917 
L 179.6472 225.828464 
L 187.0128 221.663943 
L 196.3872 216.08194 
L 203.0832 211.98871 
L 204.4224 212.063005 
L 205.7616 211.700917 
L 208.44 210.568554 
L 212.4576 208.554815 
L 215.8056 206.67462 
L 216.4752 206.265621 
L 217.8144 206.443381 
L 219.1536 206.227348 
L 221.1624 205.540551 
L 223.1712 204.596021 
L 224.5104 203.813873 
L 225.18 203.90895 
L 226.5192 205.077614 
L 227.1888 205.421698 
L 228.528 206.762811 
L 229.1976 207.15362 
L 229.8672 207.40927 
L 231.2064 208.615897 
L 232.5456 210.951013 
L 233.2152 212.047578 
L 235.224 214.585646 
L 235.8936 215.082679 
L 237.2328 216.494489 
L 239.2416 220.028066 
L 239.9112 220.645108 
L 240.5808 221.479232 
L 241.2504 222.875022 
L 241.92 223.921826 
L 242.5896 224.599114 
L 247.9464 228.573003 
L 249.2856 229.047967 
L 249.9552 229.220569 
L 250.6248 229.67992 
L 251.2944 230.364172 
L 251.964 230.85071 
L 253.3032 231.37524 
L 253.9728 231.54073 
L 255.312 232.848049 
L 257.9904 234.236734 
L 259.3296 235.12457 
L 260.6688 235.532632 
L 261.3384 235.656975 
L 262.6776 236.309794 
L 264.0168 236.590244 
L 266.0256 236.749646 
L 268.0344 236.752644 
L 269.3736 237.182307 
L 270.7128 237.289019 
L 274.0608 237.388863 
L 277.4088 238.08295 
L 279.4176 238.031543 
L 282.096 237.706287 
L 283.4352 237.423697 
L 285.444 236.60248 
L 289.4616 234.816467 
L 290.8008 234.772911 
L 292.14 234.428917 
L 294.8184 233.476637 
L 298.836 231.806367 
L 303.5232 229.628971 
L 309.5496 226.559721 
L 310.2192 226.203063 
L 311.5584 226.159142 
L 312.8976 225.751089 
L 315.576 224.61719 
L 319.5936 222.670838 
L 320.9328 222.713786 
L 322.272 222.364276 
L 324.9504 221.316843 
L 325.62 221.025712 
L 326.9592 221.170789 
L 328.2984 220.902194 
L 330.9768 219.987572 
L 332.316 219.455827 
L 333.6552 219.663365 
L 334.3248 219.587707 
L 334.9944 219.855365 
L 335.664 220.428499 
L 336.3336 220.775286 
L 337.6728 220.934448 
L 339.012 221.561863 
L 339.6816 221.660443 
L 341.0208 222.359277 
L 342.36 222.531574 
L 344.3688 222.425963 
L 345.708 222.23775 
L 346.3776 222.504473 
L 347.0472 223.074601 
L 347.7168 223.436351 
L 349.056 223.664806 
L 351.0648 223.602265 
L 353.7432 223.207161 
L 354.4128 223.450622 
L 355.0824 223.993843 
L 355.752 224.333903 
L 357.0912 224.531696 
L 357.7608 224.532426 
L 358.4304 224.863029 
L 359.1 225.464931 
L 359.7696 225.857154 
L 361.7784 226.547331 
L 362.448 227.186747 
L 363.1176 227.613892 
L 364.4568 227.981063 
L 366.4656 228.110558 
L 367.8048 229.272676 
L 369.144 229.675873 
L 370.4832 229.798883 
L 371.1528 229.809285 
L 372.492 230.34805 
L 373.8312 230.483848 
L 375.1704 231.032001 
L 376.5096 231.168161 
L 377.1792 231.165764 
L 378.5184 231.656024 
L 379.188 231.735657 
L 380.5272 232.84309 
L 381.1968 233.081707 
L 382.536 233.812271 
L 383.2056 233.976562 
L 384.5448 235.147215 
L 385.884 235.585095 
L 388.5624 236.070602 
L 389.9016 236.381037 
L 391.9104 236.41406 
L 394.5888 236.19003 
L 397.9368 237.083525 
L 399.9456 237.044092 
L 402.624 236.73952 
L 405.972 236.131955 
L 409.9896 235.149886 
L 414.0072 233.936598 
L 417.3552 232.721858 
L 419.364 231.549772 
L 423.3816 229.133258 
L 424.7208 228.997353 
L 426.06 228.532846 
L 429.408 227.005118 
L 434.7648 224.249297 
L 441.4608 220.527431 
L 450.1656 215.418157 
L 460.2096 209.280597 
L 461.5488 209.380092 
L 462.888 209.049922 
L 464.8968 208.241624 
L 467.5752 206.929291 
L 470.2536 205.389983 
L 472.2624 204.016732 
L 473.6016 202.924319 
L 474.9408 201.522329 
L 475.6104 200.607696 
L 476.28 199.415136 
L 476.9496 197.618491 
L 477.6192 194.12137 
L 478.2888 181.27117 
L 478.9584 103.009734 
L 479.628 44.64 
L 481.6368 104.85507 
L 482.976 130.65297 
L 484.9848 162.042179 
L 486.324 180.61661 
L 487.6632 196.24708 
L 488.3328 201.460559 
L 489.0024 204.835442 
L 489.672 207.123453 
L 490.3416 208.778879 
L 491.0112 210.028315 
L 491.6808 210.990979 
L 492.3504 211.736479 
L 493.02 213.136059 
L 493.6896 214.229995 
L 494.3592 214.9153 
L 495.0288 215.787933 
L 495.6984 216.843215 
L 496.368 217.580266 
L 497.0376 218.040692 
L 497.7072 218.352367 
L 499.716 220.068315 
L 500.3856 220.544208 
L 501.7248 220.986436 
L 503.064 221.141629 
L 504.4032 221.835566 
L 505.0728 221.974252 
L 506.412 222.730859 
L 507.0816 222.888272 
L 509.76 224.578665 
L 511.0992 224.909464 
L 513.108 225.016112 
L 513.7776 224.997213 
L 514.4472 225.316141 
L 515.1168 226.254363 
L 515.7864 226.923071 
L 516.456 227.279691 
L 517.7952 227.633982 
L 519.804 227.802286 
L 521.1432 228.397971 
L 522.4824 228.578273 
L 523.8216 230.665777 
L 524.4912 231.331208 
L 525.1608 231.724577 
L 526.5 232.177027 
L 527.1696 232.315278 
L 529.848 233.851786 
L 530.5176 234.060234 
L 531.1872 234.481159 
L 531.8568 235.083152 
L 532.5264 235.497977 
L 533.8656 235.914484 
L 535.8744 236.182341 
L 537.2136 236.244966 
L 537.8832 236.523919 
L 538.5528 237.005463 
L 539.2224 237.325845 
L 540.5616 237.600998 
L 541.2312 237.663194 
L 542.5704 238.183487 
L 543.9096 238.355205 
L 545.9184 238.367433 
L 548.5968 238.15752 
L 551.2752 237.71739 
L 553.284 236.930573 
L 567.3456 230.68892 
L 573.372 227.606503 
L 580.068 223.920499 
L 588.1032 219.236906 
L 604.8432 209.141008 
L 606.1824 209.278211 
L 607.5216 208.973241 
L 608.1912 208.743519 
L 609.5304 209.162995 
L 610.8696 209.083325 
L 612.8784 208.603196 
L 615.5568 207.712526 
L 616.896 207.200505 
L 618.2352 207.630928 
L 620.9136 209.729197 
L 621.5832 210.004822 
L 622.2528 210.159308 
L 624.9312 212.389287 
L 626.2704 212.896764 
L 626.94 213.022123 
L 628.2792 213.969728 
L 629.6184 214.349232 
L 631.6272 214.50092 
L 633.636 214.416437 
L 634.9752 215.094048 
L 636.3144 215.279898 
L 636.984 215.28803 
L 638.9928 216.603047 
L 639.6624 217.449207 
L 640.332 218.029856 
L 641.6712 218.586652 
L 643.0104 218.835457 
L 645.0192 220.277316 
L 647.028 222.736997 
L 647.6976 223.151384 
L 648.3672 224.164814 
L 649.7064 225.806709 
L 650.376 226.769444 
L 651.7152 228.243506 
L 652.3848 229.16351 
L 653.0544 229.829503 
L 654.3936 230.620231 
L 655.7328 231.112175 
L 657.7416 231.564726 
L 658.4112 231.661705 
L 659.7504 232.340973 
L 661.0896 232.630926 
L 661.7592 232.708324 
L 662.4288 233.055471 
L 663.0984 233.61706 
L 663.768 233.999411 
L 665.1072 234.358292 
L 667.116 234.555621 
L 667.7856 234.575138 
L 671.1336 235.897893 
L 673.1424 236.055792 
L 675.8208 235.975218 
L 677.8296 235.780991 
L 679.1688 236.112872 
L 680.508 236.119683 
L 683.1864 235.814735 
L 685.1952 235.403612 
L 687.204 234.564747 
L 689.2128 233.642542 
L 690.552 233.599976 
L 692.5608 233.045009 
L 693.2304 232.815682 
L 694.5696 232.893768 
L 695.9088 232.632859 
L 698.5872 231.796198 
L 702.6048 230.245048 
L 707.292 228.168555 
L 712.6488 225.541752 
L 718.6752 222.342664 
L 726.7104 217.79677 
L 738.0936 211.061283 
L 738.7632 210.657009 
L 740.1024 210.77171 
L 740.772 211.126951 
L 741.4416 211.352122 
L 742.7808 211.314221 
L 744.7896 210.852446 
L 747.468 209.961447 
L 750.816 208.611933 
L 753.4944 207.410122 
L 754.8336 208.703194 
L 755.5032 208.987423 
L 756.8424 209.149311 
L 758.1816 209.067392 
L 758.8512 208.975426 
L 760.1904 210.555846 
L 760.86 210.942826 
L 761.5296 211.627404 
L 762.1992 212.608916 
L 762.8688 213.302957 
L 763.5384 213.721807 
L 764.8776 214.191855 
L 765.5472 214.764724 
L 766.2168 215.654221 
L 766.8864 216.28439 
L 768.8952 217.532595 
L 769.5648 218.014103 
L 770.2344 218.311344 
L 770.904 218.918086 
L 772.2432 220.800118 
L 772.9128 221.878626 
L 773.5824 222.633641 
L 774.252 223.847796 
L 775.5912 226.946798 
L 776.9304 228.925416 
L 777.6 229.685645 
L 777.6 229.685645 
" clip-path="url(#p73b4ac98a8)" style="fill: none; stroke: #000000; stroke-width: 1.5; stroke-linecap: square"/>
   </g>
   <g id="line2d_24">
    <path d="M 108 140.442149 
L 110.6784 141.26718 
L 112.0176 142.102471 
L 114.0264 143.740775 
L 116.0352 145.708427 
L 120.7224 150.757527 
L 122.7312 153.417931 
L 124.74 156.498001 
L 126.7488 159.990341 
L 128.7576 163.969887 
L 130.0968 167.082343 
L 132.1056 172.541737 
L 134.784 180.888564 
L 138.8016 193.510856 
L 140.8104 199.007889 
L 142.8192 203.680443 
L 144.828 207.677954 
L 146.8368 211.069105 
L 148.8456 214.062032 
L 149.5152 177.845216 
L 150.1848 162.223137 
L 150.8544 155.448548 
L 151.524 151.382519 
L 152.1936 148.727759 
L 152.8632 146.883223 
L 153.5328 145.534704 
L 154.872 143.66518 
L 156.2112 142.34472 
L 158.22 140.793977 
L 160.2288 139.514929 
L 162.2376 138.444582 
L 164.916 137.300577 
L 167.5944 136.419892 
L 170.9424 135.590602 
L 174.96 134.86385 
L 179.6472 134.252 
L 185.6736 133.692214 
L 193.7088 133.175411 
L 203.7528 132.744083 
L 207.7704 132.89819 
L 213.7968 133.02162 
L 218.484 133.106739 
L 224.5104 133.530211 
L 226.5192 133.731035 
L 228.528 134.262167 
L 231.2064 135.239729 
L 233.2152 136.242682 
L 237.2328 138.756232 
L 239.2416 140.191077 
L 241.92 142.382056 
L 252.6336 152.069744 
L 254.6424 154.276793 
L 256.6512 156.871816 
L 258.66 159.92771 
L 259.9992 162.318995 
L 262.008 166.467227 
L 263.3472 169.697693 
L 265.356 175.24334 
L 268.704 185.52843 
L 271.3824 193.591578 
L 273.3912 198.903402 
L 275.4 203.500853 
L 277.4088 207.518579 
L 279.4176 210.954201 
L 281.4264 213.787686 
L 282.7656 215.374161 
L 283.4352 178.68166 
L 284.1048 162.663738 
L 284.7744 155.679449 
L 285.444 151.45013 
L 286.1136 148.662082 
L 286.7832 146.704894 
L 287.4528 145.259663 
L 288.792 143.234589 
L 290.1312 141.809282 
L 291.4704 140.710433 
L 293.4792 139.379721 
L 295.488 138.2792 
L 298.1664 137.09573 
L 300.8448 136.181593 
L 304.1928 135.318952 
L 308.2104 134.563473 
L 311.5584 134.119883 
L 318.2544 133.727653 
L 321.6024 133.624106 
L 328.968 133.810322 
L 335.664 134.265292 
L 339.6816 135.109518 
L 346.3776 136.600089 
L 349.056 137.289442 
L 352.404 138.112916 
L 355.752 138.882499 
L 359.7696 140.183079 
L 363.1176 141.556895 
L 372.492 146.043225 
L 376.5096 148.248057 
L 379.188 149.871406 
L 381.1968 151.353855 
L 383.2056 153.126715 
L 385.2144 155.241206 
L 387.8928 158.54154 
L 389.9016 161.401544 
L 391.9104 164.746985 
L 393.9192 168.626073 
L 395.928 173.155473 
L 397.9368 178.53588 
L 403.2936 193.815356 
L 405.3024 198.605804 
L 407.3112 202.640818 
L 408.6504 204.928005 
L 409.9896 206.919436 
L 411.3288 208.641403 
L 412.668 210.12009 
L 414.6768 211.935247 
L 416.6856 213.331697 
L 417.3552 176.932999 
L 418.0248 161.144921 
L 418.6944 154.164425 
L 419.364 149.882347 
L 420.0336 147.024753 
L 420.7032 144.994375 
L 421.3728 143.479408 
L 422.712 141.341157 
L 424.0512 139.848578 
L 425.3904 138.730002 
L 427.3992 137.422321 
L 429.408 136.364305 
L 432.0864 135.230533 
L 434.7648 134.345031 
L 438.1128 133.49359 
L 442.1304 132.726171 
L 446.8176 132.056287 
L 452.844 131.418488 
L 460.8792 130.811335 
L 464.2272 130.844424 
L 469.584 130.839397 
L 474.2712 130.638628 
L 476.28 130.401272 
L 477.6192 130.010019 
L 478.2888 129.392475 
L 478.9584 126.509209 
L 480.2976 115.641839 
L 480.9672 112.019786 
L 481.6368 110.229188 
L 482.3064 109.820357 
L 482.976 110.323253 
L 483.6456 111.391947 
L 484.9848 114.443117 
L 486.9936 120.040783 
L 489.0024 125.63036 
L 490.3416 128.599161 
L 491.6808 130.849564 
L 493.02 132.569275 
L 495.0288 134.652055 
L 497.0376 136.405697 
L 499.0464 137.874191 
L 501.7248 139.610524 
L 504.4032 141.052553 
L 509.0904 143.544987 
L 516.456 147.928567 
L 522.4824 152.604712 
L 523.8216 153.900644 
L 525.1608 155.519024 
L 527.1696 158.291814 
L 529.1784 161.467347 
L 530.5176 163.951139 
L 531.8568 166.803488 
L 533.196 170.12421 
L 535.2048 175.843425 
L 539.2224 188.450149 
L 541.9008 196.529576 
L 543.9096 201.844985 
L 545.9184 206.377695 
L 547.2576 208.96062 
L 548.5968 211.222181 
L 550.6056 214.079974 
L 551.2752 177.789844 
L 551.9448 162.097563 
L 552.6144 155.282744 
L 553.284 151.175268 
L 553.9536 148.478984 
L 554.6232 146.593168 
L 555.2928 145.20442 
L 556.632 143.260986 
L 557.9712 141.87983 
L 559.98 140.26441 
L 561.9888 138.946571 
L 563.9976 137.852388 
L 566.676 136.687484 
L 569.3544 135.790823 
L 572.7024 134.941632 
L 576.72 134.191008 
L 581.4072 133.550381 
L 587.4336 132.954461 
L 595.4688 132.399226 
L 604.8432 131.962903 
L 607.5216 132.019193 
L 610.2 132.249257 
L 614.8872 132.741386 
L 618.9048 133.106226 
L 620.9136 133.586735 
L 624.9312 134.899963 
L 630.288 136.841585 
L 633.636 137.83857 
L 636.984 138.855068 
L 638.9928 139.556614 
L 641.0016 140.503893 
L 646.3584 143.314391 
L 648.3672 144.765778 
L 650.376 146.495893 
L 652.3848 148.520762 
L 656.4024 153.109085 
L 659.7504 157.159032 
L 661.7592 159.979862 
L 663.0984 162.117095 
L 664.4376 164.601933 
L 666.4464 168.94568 
L 668.4552 173.960585 
L 670.464 179.695091 
L 674.4816 191.770494 
L 676.4904 197.042647 
L 678.4992 201.547603 
L 680.508 205.429619 
L 682.5168 208.696488 
L 684.5256 211.368748 
L 685.1952 175.729322 
L 685.8648 160.590212 
L 686.5344 153.991192 
L 687.204 150.012024 
L 687.8736 147.397691 
L 688.5432 145.566662 
L 689.2128 144.216087 
L 689.8824 143.179364 
L 691.2216 141.668624 
L 692.5608 140.546987 
L 694.5696 139.215167 
L 696.5784 138.176548 
L 699.2568 137.048482 
L 701.9352 136.153461 
L 705.2832 135.297241 
L 709.3008 134.546501 
L 713.988 133.916065 
L 720.0144 133.343602 
L 728.0496 132.821295 
L 738.7632 132.359298 
L 740.772 132.397391 
L 750.816 133.315689 
L 754.8336 133.574126 
L 759.5208 134.572247 
L 761.5296 135.202349 
L 764.208 136.369628 
L 768.2256 138.221394 
L 772.2432 140.292544 
L 774.252 141.674616 
L 775.5912 142.828366 
L 777.6 144.831422 
L 777.6 144.831422 
" clip-path="url(#p73b4ac98a8)" style="fill: none; stroke: #4169e1; stroke-width: 1.5; stroke-linecap: square"/>
   </g>
   <g id="patch_3">
    <path d="M 108 256.32 
L 108 34.56 
" style="fill: none; stroke: #000000; stroke-width: 0.8; stroke-linejoin: miter; stroke-linecap: square"/>
   </g>
   <g id="patch_4">
    <path d="M 777.6 256.32 
L 777.6 34.56 
" style="fill: none; stroke: #000000; stroke-width: 0.8; stroke-linejoin: miter; stroke-linecap: square"/>
   </g>
   <g id="patch_5">
    <path d="M 108 256.32 
L 777.6 256.32 
" style="fill: none; stroke: #000000; stroke-width: 0.8; stroke-linejoin: miter; stroke-linecap: square"/>
   </g>
   <g id="patch_6">
    <path d="M 108 34.56 
L 777.6 34.56 
" style="fill: none; stroke: #000000; stroke-width: 0.8; stroke-linejoin: miter; stroke-linecap: square"/>
   </g>
   <g id="legend_1">
    <g id="patch_7">
     <path d="M 695.098438 71.91625 
L 770.6 71.91625 
Q 772.6 71.91625 772.6 69.91625 
L 772.6 41.56 
Q 772.6 39.56 770.6 39.56 
L 695.098438 39.56 
Q 693.098438 39.56 693.098438 41.56 
L 693.098438 69.91625 
Q 693.098438 71.91625 695.098438 71.91625 
z
" style="fill: #ffffff; opacity: 0.8; stroke: #cccccc; stroke-linejoin: miter"/>
    </g>
    <g id="line2d_25">
     <path d="M 697.098438 47.658437 
L 707.098438 47.658437 
L 717.098438 47.658437 
" style="fill: none; stroke: #000000; stroke-width: 1.5; stroke-linecap: square"/>
    </g>
    <g id="text_14">
     <!-- Soma -->
     <g transform="translate(725.098438 51.158437) scale(0.1 -0.1)">
      <defs>
       <path id="DejaVuSans-53" d="M 3425 4513 
L 3425 3897 
Q 3066 4069 2747 4153 
Q 2428 4238 2131 4238 
Q 1616 4238 1336 4038 
Q 1056 3838 1056 3469 
Q 1056 3159 1242 3001 
Q 1428 2844 1947 2747 
L 2328 2669 
Q 3034 2534 3370 2195 
Q 3706 1856 3706 1288 
Q 3706 609 3251 259 
Q 2797 -91 1919 -91 
Q 1588 -91 1214 -16 
Q 841 59 441 206 
L 441 856 
Q 825 641 1194 531 
Q 1563 422 1919 422 
Q 2459 422 2753 634 
Q 3047 847 3047 1241 
Q 3047 1584 2836 1778 
Q 2625 1972 2144 2069 
L 1759 2144 
Q 1053 2284 737 2584 
Q 422 2884 422 3419 
Q 422 4038 858 4394 
Q 1294 4750 2059 4750 
Q 2388 4750 2728 4690 
Q 3069 4631 3425 4513 
z
" transform="scale(0.015625)"/>
       <path id="DejaVuSans-6f" d="M 1959 3097 
Q 1497 3097 1228 2736 
Q 959 2375 959 1747 
Q 959 1119 1226 758 
Q 1494 397 1959 397 
Q 2419 397 2687 759 
Q 2956 1122 2956 1747 
Q 2956 2369 2687 2733 
Q 2419 3097 1959 3097 
z
M 1959 3584 
Q 2709 3584 3137 3096 
Q 3566 2609 3566 1747 
Q 3566 888 3137 398 
Q 2709 -91 1959 -91 
Q 1206 -91 779 398 
Q 353 888 353 1747 
Q 353 2609 779 3096 
Q 1206 3584 1959 3584 
z
" transform="scale(0.015625)"/>
       <path id="DejaVuSans-61" d="M 2194 1759 
Q 1497 1759 1228 1600 
Q 959 1441 959 1056 
Q 959 750 1161 570 
Q 1363 391 1709 391 
Q 2188 391 2477 730 
Q 2766 1069 2766 1631 
L 2766 1759 
L 2194 1759 
z
M 3341 1997 
L 3341 0 
L 2766 0 
L 2766 531 
Q 2569 213 2275 61 
Q 1981 -91 1556 -91 
Q 1019 -91 701 211 
Q 384 513 384 1019 
Q 384 1609 779 1909 
Q 1175 2209 1959 2209 
L 2766 2209 
L 2766 2266 
Q 2766 2663 2505 2880 
Q 2244 3097 1772 3097 
Q 1472 3097 1187 3025 
Q 903 2953 641 2809 
L 641 3341 
Q 956 3463 1253 3523 
Q 1550 3584 1831 3584 
Q 2591 3584 2966 3190 
Q 3341 2797 3341 1997 
z
" transform="scale(0.015625)"/>
      </defs>
      <use xlink:href="#DejaVuSans-53"/>
      <use xlink:href="#DejaVuSans-6f" x="63.476562"/>
      <use xlink:href="#DejaVuSans-6d" x="124.658203"/>
      <use xlink:href="#DejaVuSans-61" x="222.070312"/>
     </g>
    </g>
    <g id="line2d_26">
     <path d="M 697.098438 62.336562 
L 707.098438 62.336562 
L 717.098438 62.336562 
" style="fill: none; stroke: #4169e1; stroke-width: 1.5; stroke-linecap: square"/>
    </g>
    <g id="text_15">
     <!-- Dendrite -->
     <g transform="translate(725.098438 65.836562) scale(0.1 -0.1)">
      <defs>
       <path id="DejaVuSans-44" d="M 1259 4147 
L 1259 519 
L 2022 519 
Q 2988 519 3436 956 
Q 3884 1394 3884 2338 
Q 3884 3275 3436 3711 
Q 2988 4147 2022 4147 
L 1259 4147 
z
M 628 4666 
L 1925 4666 
Q 3281 4666 3915 4102 
Q 4550 3538 4550 2338 
Q 4550 1131 3912 565 
Q 3275 0 1925 0 
L 628 0 
L 628 4666 
z
" transform="scale(0.015625)"/>
       <path id="DejaVuSans-6e" d="M 3513 2113 
L 3513 0 
L 2938 0 
L 2938 2094 
Q 2938 2591 2744 2837 
Q 2550 3084 2163 3084 
Q 1697 3084 1428 2787 
Q 1159 2491 1159 1978 
L 1159 0 
L 581 0 
L 581 3500 
L 1159 3500 
L 1159 2956 
Q 1366 3272 1645 3428 
Q 1925 3584 2291 3584 
Q 2894 3584 3203 3211 
Q 3513 2838 3513 2113 
z
" transform="scale(0.015625)"/>
       <path id="DejaVuSans-64" d="M 2906 2969 
L 2906 4863 
L 3481 4863 
L 3481 0 
L 2906 0 
L 2906 525 
Q 2725 213 2448 61 
Q 2172 -91 1784 -91 
Q 1150 -91 751 415 
Q 353 922 353 1747 
Q 353 2572 751 3078 
Q 1150 3584 1784 3584 
Q 2172 3584 2448 3432 
Q 2725 3281 2906 2969 
z
M 947 1747 
Q 947 1113 1208 752 
Q 1469 391 1925 391 
Q 2381 391 2643 752 
Q 2906 1113 2906 1747 
Q 2906 2381 2643 2742 
Q 2381 3103 1925 3103 
Q 1469 3103 1208 2742 
Q 947 2381 947 1747 
z
" transform="scale(0.015625)"/>
       <path id="DejaVuSans-72" d="M 2631 2963 
Q 2534 3019 2420 3045 
Q 2306 3072 2169 3072 
Q 1681 3072 1420 2755 
Q 1159 2438 1159 1844 
L 1159 0 
L 581 0 
L 581 3500 
L 1159 3500 
L 1159 2956 
Q 1341 3275 1631 3429 
Q 1922 3584 2338 3584 
Q 2397 3584 2469 3576 
Q 2541 3569 2628 3553 
L 2631 2963 
z
" transform="scale(0.015625)"/>
       <path id="DejaVuSans-74" d="M 1172 4494 
L 1172 3500 
L 2356 3500 
L 2356 3053 
L 1172 3053 
L 1172 1153 
Q 1172 725 1289 603 
Q 1406 481 1766 481 
L 2356 481 
L 2356 0 
L 1766 0 
Q 1100 0 847 248 
Q 594 497 594 1153 
L 594 3053 
L 172 3053 
L 172 3500 
L 594 3500 
L 594 4494 
L 1172 4494 
z
" transform="scale(0.015625)"/>
      </defs>
      <use xlink:href="#DejaVuSans-44"/>
      <use xlink:href="#DejaVuSans-65" x="77.001953"/>
      <use xlink:href="#DejaVuSans-6e" x="138.525391"/>
      <use xlink:href="#DejaVuSans-64" x="201.904297"/>
      <use xlink:href="#DejaVuSans-72" x="265.380859"/>
      <use xlink:href="#DejaVuSans-69" x="306.494141"/>
      <use xlink:href="#DejaVuSans-74" x="334.277344"/>
      <use xlink:href="#DejaVuSans-65" x="373.486328"/>
     </g>
    </g>
   </g>
  </g>
 </g>
 <defs>
  <clipPath id="p73b4ac98a8">
   <rect x="108" y="34.56" width="669.6" height="221.76"/>
  </clipPath>
 </defs>
</svg>
