<?xml version="1.0" encoding="utf-8" standalone="no"?>
<!DOCTYPE svg PUBLIC "-//W3C//DTD SVG 1.1//EN"
  "http://www.w3.org/Graphics/SVG/1.1/DTD/svg11.dtd">
<svg xmlns:xlink="http://www.w3.org/1999/xlink" width="864pt" height="288pt" viewBox="0 0 864 288" xmlns="http://www.w3.org/2000/svg" version="1.1">
 <metadata>
  <rdf:RDF xmlns:dc="http://purl.org/dc/elements/1.1/" xmlns:cc="http://creativecommons.org/ns#" xmlns:rdf="http://www.w3.org/1999/02/22-rdf-syntax-ns#">
   <cc:Work>
    <dc:type rdf:resource="http://purl.org/dc/dcmitype/StillImage"/>
    <dc:date>2024-04-26T13:28:50.519150</dc:date>
    <dc:format>image/svg+xml</dc:format>
    <dc:creator>
     <cc:Agent>
      <dc:title>Matplotlib v3.8.2, https://matplotlib.org/</dc:title>
     </cc:Agent>
    </dc:creator>
   </cc:Work>
  </rdf:RDF>
 </metadata>
 <defs>
  <style type="text/css">*{stroke-linejoin: round; stroke-linecap: butt}</style>
 </defs>
 <g id="figure_1">
  <g id="patch_1">
   <path d="M 0 288 
L 864 288 
L 864 0 
L 0 0 
z
" style="fill: #ffffff"/>
  </g>
  <g id="axes_1">
   <g id="patch_2">
    <path d="M 108 256.32 
L 777.6 256.32 
L 777.6 34.56 
L 108 34.56 
z
" style="fill: #ffffff"/>
   </g>
   <g id="matplotlib.axis_1">
    <g id="xtick_1">
     <g id="line2d_1">
      <path d="M 108 256.32 
L 108 34.56 
" clip-path="url(#p49f5b8e0d7)" style="fill: none; stroke: #b0b0b0; stroke-width: 0.8; stroke-linecap: square"/>
     </g>
     <g id="line2d_2">
      <defs>
       <path id="maa7dc1aa60" d="M 0 0 
L 0 3.5 
" style="stroke: #000000; stroke-width: 0.8"/>
      </defs>
      <g>
       <use xlink:href="#maa7dc1aa60" x="108" y="256.32" style="stroke: #000000; stroke-width: 0.8"/>
      </g>
     </g>
     <g id="text_1">
      <!-- 100 -->
      <g transform="translate(94.63875 273.957812) scale(0.14 -0.14)">
       <defs>
        <path id="DejaVuSans-31" d="M 794 531 
L 1825 531 
L 1825 4091 
L 703 3866 
L 703 4441 
L 1819 4666 
L 2450 4666 
L 2450 531 
L 3481 531 
L 3481 0 
L 794 0 
L 794 531 
z
" transform="scale(0.015625)"/>
        <path id="DejaVuSans-30" d="M 2034 4250 
Q 1547 4250 1301 3770 
Q 1056 3291 1056 2328 
Q 1056 1369 1301 889 
Q 1547 409 2034 409 
Q 2525 409 2770 889 
Q 3016 1369 3016 2328 
Q 3016 3291 2770 3770 
Q 2525 4250 2034 4250 
z
M 2034 4750 
Q 2819 4750 3233 4129 
Q 3647 3509 3647 2328 
Q 3647 1150 3233 529 
Q 2819 -91 2034 -91 
Q 1250 -91 836 529 
Q 422 1150 422 2328 
Q 422 3509 836 4129 
Q 1250 4750 2034 4750 
z
" transform="scale(0.015625)"/>
       </defs>
       <use xlink:href="#DejaVuSans-31"/>
       <use xlink:href="#DejaVuSans-30" x="63.623047"/>
       <use xlink:href="#DejaVuSans-30" x="127.246094"/>
      </g>
     </g>
    </g>
    <g id="xtick_2">
     <g id="line2d_3">
      <path d="M 241.92 256.32 
L 241.92 34.56 
" clip-path="url(#p49f5b8e0d7)" style="fill: none; stroke: #b0b0b0; stroke-width: 0.8; stroke-linecap: square"/>
     </g>
     <g id="line2d_4">
      <g>
       <use xlink:href="#maa7dc1aa60" x="241.92" y="256.32" style="stroke: #000000; stroke-width: 0.8"/>
      </g>
     </g>
     <g id="text_2">
      <!-- 120 -->
      <g transform="translate(228.55875 273.957812) scale(0.14 -0.14)">
       <defs>
        <path id="DejaVuSans-32" d="M 1228 531 
L 3431 531 
L 3431 0 
L 469 0 
L 469 531 
Q 828 903 1448 1529 
Q 2069 2156 2228 2338 
Q 2531 2678 2651 2914 
Q 2772 3150 2772 3378 
Q 2772 3750 2511 3984 
Q 2250 4219 1831 4219 
Q 1534 4219 1204 4116 
Q 875 4013 500 3803 
L 500 4441 
Q 881 4594 1212 4672 
Q 1544 4750 1819 4750 
Q 2544 4750 2975 4387 
Q 3406 4025 3406 3419 
Q 3406 3131 3298 2873 
Q 3191 2616 2906 2266 
Q 2828 2175 2409 1742 
Q 1991 1309 1228 531 
z
" transform="scale(0.015625)"/>
       </defs>
       <use xlink:href="#DejaVuSans-31"/>
       <use xlink:href="#DejaVuSans-32" x="63.623047"/>
       <use xlink:href="#DejaVuSans-30" x="127.246094"/>
      </g>
     </g>
    </g>
    <g id="xtick_3">
     <g id="line2d_5">
      <path d="M 375.84 256.32 
L 375.84 34.56 
" clip-path="url(#p49f5b8e0d7)" style="fill: none; stroke: #b0b0b0; stroke-width: 0.8; stroke-linecap: square"/>
     </g>
     <g id="line2d_6">
      <g>
       <use xlink:href="#maa7dc1aa60" x="375.84" y="256.32" style="stroke: #000000; stroke-width: 0.8"/>
      </g>
     </g>
     <g id="text_3">
      <!-- 140 -->
      <g transform="translate(362.47875 273.957812) scale(0.14 -0.14)">
       <defs>
        <path id="DejaVuSans-34" d="M 2419 4116 
L 825 1625 
L 2419 1625 
L 2419 4116 
z
M 2253 4666 
L 3047 4666 
L 3047 1625 
L 3713 1625 
L 3713 1100 
L 3047 1100 
L 3047 0 
L 2419 0 
L 2419 1100 
L 313 1100 
L 313 1709 
L 2253 4666 
z
" transform="scale(0.015625)"/>
       </defs>
       <use xlink:href="#DejaVuSans-31"/>
       <use xlink:href="#DejaVuSans-34" x="63.623047"/>
       <use xlink:href="#DejaVuSans-30" x="127.246094"/>
      </g>
     </g>
    </g>
    <g id="xtick_4">
     <g id="line2d_7">
      <path d="M 509.76 256.32 
L 509.76 34.56 
" clip-path="url(#p49f5b8e0d7)" style="fill: none; stroke: #b0b0b0; stroke-width: 0.8; stroke-linecap: square"/>
     </g>
     <g id="line2d_8">
      <g>
       <use xlink:href="#maa7dc1aa60" x="509.76" y="256.32" style="stroke: #000000; stroke-width: 0.8"/>
      </g>
     </g>
     <g id="text_4">
      <!-- 160 -->
      <g transform="translate(496.39875 273.957812) scale(0.14 -0.14)">
       <defs>
        <path id="DejaVuSans-36" d="M 2113 2584 
Q 1688 2584 1439 2293 
Q 1191 2003 1191 1497 
Q 1191 994 1439 701 
Q 1688 409 2113 409 
Q 2538 409 2786 701 
Q 3034 994 3034 1497 
Q 3034 2003 2786 2293 
Q 2538 2584 2113 2584 
z
M 3366 4563 
L 3366 3988 
Q 3128 4100 2886 4159 
Q 2644 4219 2406 4219 
Q 1781 4219 1451 3797 
Q 1122 3375 1075 2522 
Q 1259 2794 1537 2939 
Q 1816 3084 2150 3084 
Q 2853 3084 3261 2657 
Q 3669 2231 3669 1497 
Q 3669 778 3244 343 
Q 2819 -91 2113 -91 
Q 1303 -91 875 529 
Q 447 1150 447 2328 
Q 447 3434 972 4092 
Q 1497 4750 2381 4750 
Q 2619 4750 2861 4703 
Q 3103 4656 3366 4563 
z
" transform="scale(0.015625)"/>
       </defs>
       <use xlink:href="#DejaVuSans-31"/>
       <use xlink:href="#DejaVuSans-36" x="63.623047"/>
       <use xlink:href="#DejaVuSans-30" x="127.246094"/>
      </g>
     </g>
    </g>
    <g id="xtick_5">
     <g id="line2d_9">
      <path d="M 643.68 256.32 
L 643.68 34.56 
" clip-path="url(#p49f5b8e0d7)" style="fill: none; stroke: #b0b0b0; stroke-width: 0.8; stroke-linecap: square"/>
     </g>
     <g id="line2d_10">
      <g>
       <use xlink:href="#maa7dc1aa60" x="643.68" y="256.32" style="stroke: #000000; stroke-width: 0.8"/>
      </g>
     </g>
     <g id="text_5">
      <!-- 180 -->
      <g transform="translate(630.31875 273.957812) scale(0.14 -0.14)">
       <defs>
        <path id="DejaVuSans-38" d="M 2034 2216 
Q 1584 2216 1326 1975 
Q 1069 1734 1069 1313 
Q 1069 891 1326 650 
Q 1584 409 2034 409 
Q 2484 409 2743 651 
Q 3003 894 3003 1313 
Q 3003 1734 2745 1975 
Q 2488 2216 2034 2216 
z
M 1403 2484 
Q 997 2584 770 2862 
Q 544 3141 544 3541 
Q 544 4100 942 4425 
Q 1341 4750 2034 4750 
Q 2731 4750 3128 4425 
Q 3525 4100 3525 3541 
Q 3525 3141 3298 2862 
Q 3072 2584 2669 2484 
Q 3125 2378 3379 2068 
Q 3634 1759 3634 1313 
Q 3634 634 3220 271 
Q 2806 -91 2034 -91 
Q 1263 -91 848 271 
Q 434 634 434 1313 
Q 434 1759 690 2068 
Q 947 2378 1403 2484 
z
M 1172 3481 
Q 1172 3119 1398 2916 
Q 1625 2713 2034 2713 
Q 2441 2713 2670 2916 
Q 2900 3119 2900 3481 
Q 2900 3844 2670 4047 
Q 2441 4250 2034 4250 
Q 1625 4250 1398 4047 
Q 1172 3844 1172 3481 
z
" transform="scale(0.015625)"/>
       </defs>
       <use xlink:href="#DejaVuSans-31"/>
       <use xlink:href="#DejaVuSans-38" x="63.623047"/>
       <use xlink:href="#DejaVuSans-30" x="127.246094"/>
      </g>
     </g>
    </g>
    <g id="xtick_6">
     <g id="line2d_11">
      <path d="M 777.6 256.32 
L 777.6 34.56 
" clip-path="url(#p49f5b8e0d7)" style="fill: none; stroke: #b0b0b0; stroke-width: 0.8; stroke-linecap: square"/>
     </g>
     <g id="line2d_12">
      <g>
       <use xlink:href="#maa7dc1aa60" x="777.6" y="256.32" style="stroke: #000000; stroke-width: 0.8"/>
      </g>
     </g>
     <g id="text_6">
      <!-- 200 -->
      <g transform="translate(764.23875 273.957812) scale(0.14 -0.14)">
       <use xlink:href="#DejaVuSans-32"/>
       <use xlink:href="#DejaVuSans-30" x="63.623047"/>
       <use xlink:href="#DejaVuSans-30" x="127.246094"/>
      </g>
     </g>
    </g>
    <g id="text_7">
     <!-- Time (ms) -->
     <g transform="translate(407.521094 291.507187) scale(0.14 -0.14)">
      <defs>
       <path id="DejaVuSans-54" d="M -19 4666 
L 3928 4666 
L 3928 4134 
L 2272 4134 
L 2272 0 
L 1638 0 
L 1638 4134 
L -19 4134 
L -19 4666 
z
" transform="scale(0.015625)"/>
       <path id="DejaVuSans-69" d="M 603 3500 
L 1178 3500 
L 1178 0 
L 603 0 
L 603 3500 
z
M 603 4863 
L 1178 4863 
L 1178 4134 
L 603 4134 
L 603 4863 
z
" transform="scale(0.015625)"/>
       <path id="DejaVuSans-6d" d="M 3328 2828 
Q 3544 3216 3844 3400 
Q 4144 3584 4550 3584 
Q 5097 3584 5394 3201 
Q 5691 2819 5691 2113 
L 5691 0 
L 5113 0 
L 5113 2094 
Q 5113 2597 4934 2840 
Q 4756 3084 4391 3084 
Q 3944 3084 3684 2787 
Q 3425 2491 3425 1978 
L 3425 0 
L 2847 0 
L 2847 2094 
Q 2847 2600 2669 2842 
Q 2491 3084 2119 3084 
Q 1678 3084 1418 2786 
Q 1159 2488 1159 1978 
L 1159 0 
L 581 0 
L 581 3500 
L 1159 3500 
L 1159 2956 
Q 1356 3278 1631 3431 
Q 1906 3584 2284 3584 
Q 2666 3584 2933 3390 
Q 3200 3197 3328 2828 
z
" transform="scale(0.015625)"/>
       <path id="DejaVuSans-65" d="M 3597 1894 
L 3597 1613 
L 953 1613 
Q 991 1019 1311 708 
Q 1631 397 2203 397 
Q 2534 397 2845 478 
Q 3156 559 3463 722 
L 3463 178 
Q 3153 47 2828 -22 
Q 2503 -91 2169 -91 
Q 1331 -91 842 396 
Q 353 884 353 1716 
Q 353 2575 817 3079 
Q 1281 3584 2069 3584 
Q 2775 3584 3186 3129 
Q 3597 2675 3597 1894 
z
M 3022 2063 
Q 3016 2534 2758 2815 
Q 2500 3097 2075 3097 
Q 1594 3097 1305 2825 
Q 1016 2553 972 2059 
L 3022 2063 
z
" transform="scale(0.015625)"/>
       <path id="DejaVuSans-20" transform="scale(0.015625)"/>
       <path id="DejaVuSans-28" d="M 1984 4856 
Q 1566 4138 1362 3434 
Q 1159 2731 1159 2009 
Q 1159 1288 1364 580 
Q 1569 -128 1984 -844 
L 1484 -844 
Q 1016 -109 783 600 
Q 550 1309 550 2009 
Q 550 2706 781 3412 
Q 1013 4119 1484 4856 
L 1984 4856 
z
" transform="scale(0.015625)"/>
       <path id="DejaVuSans-73" d="M 2834 3397 
L 2834 2853 
Q 2591 2978 2328 3040 
Q 2066 3103 1784 3103 
Q 1356 3103 1142 2972 
Q 928 2841 928 2578 
Q 928 2378 1081 2264 
Q 1234 2150 1697 2047 
L 1894 2003 
Q 2506 1872 2764 1633 
Q 3022 1394 3022 966 
Q 3022 478 2636 193 
Q 2250 -91 1575 -91 
Q 1294 -91 989 -36 
Q 684 19 347 128 
L 347 722 
Q 666 556 975 473 
Q 1284 391 1588 391 
Q 1994 391 2212 530 
Q 2431 669 2431 922 
Q 2431 1156 2273 1281 
Q 2116 1406 1581 1522 
L 1381 1569 
Q 847 1681 609 1914 
Q 372 2147 372 2553 
Q 372 3047 722 3315 
Q 1072 3584 1716 3584 
Q 2034 3584 2315 3537 
Q 2597 3491 2834 3397 
z
" transform="scale(0.015625)"/>
       <path id="DejaVuSans-29" d="M 513 4856 
L 1013 4856 
Q 1481 4119 1714 3412 
Q 1947 2706 1947 2009 
Q 1947 1309 1714 600 
Q 1481 -109 1013 -844 
L 513 -844 
Q 928 -128 1133 580 
Q 1338 1288 1338 2009 
Q 1338 2731 1133 3434 
Q 928 4138 513 4856 
z
" transform="scale(0.015625)"/>
      </defs>
      <use xlink:href="#DejaVuSans-54"/>
      <use xlink:href="#DejaVuSans-69" x="57.958984"/>
      <use xlink:href="#DejaVuSans-6d" x="85.742188"/>
      <use xlink:href="#DejaVuSans-65" x="183.154297"/>
      <use xlink:href="#DejaVuSans-20" x="244.677734"/>
      <use xlink:href="#DejaVuSans-28" x="276.464844"/>
      <use xlink:href="#DejaVuSans-6d" x="315.478516"/>
      <use xlink:href="#DejaVuSans-73" x="412.890625"/>
      <use xlink:href="#DejaVuSans-29" x="464.990234"/>
     </g>
    </g>
   </g>
   <g id="matplotlib.axis_2">
    <g id="ytick_1">
     <g id="line2d_13">
      <path d="M 108 225.038243 
L 777.6 225.038243 
" clip-path="url(#p49f5b8e0d7)" style="fill: none; stroke: #b0b0b0; stroke-width: 0.8; stroke-linecap: square"/>
     </g>
     <g id="line2d_14">
      <defs>
       <path id="mcf740afa3f" d="M 0 0 
L -3.5 0 
" style="stroke: #000000; stroke-width: 0.8"/>
      </defs>
      <g>
       <use xlink:href="#mcf740afa3f" x="108" y="225.038243" style="stroke: #000000; stroke-width: 0.8"/>
      </g>
     </g>
     <g id="text_8">
      <!-- −60 -->
      <g transform="translate(71.453437 230.35715) scale(0.14 -0.14)">
       <defs>
        <path id="DejaVuSans-2212" d="M 678 2272 
L 4684 2272 
L 4684 1741 
L 678 1741 
L 678 2272 
z
" transform="scale(0.015625)"/>
       </defs>
       <use xlink:href="#DejaVuSans-2212"/>
       <use xlink:href="#DejaVuSans-36" x="83.789062"/>
       <use xlink:href="#DejaVuSans-30" x="147.412109"/>
      </g>
     </g>
    </g>
    <g id="ytick_2">
     <g id="line2d_15">
      <path d="M 108 182.702296 
L 777.6 182.702296 
" clip-path="url(#p49f5b8e0d7)" style="fill: none; stroke: #b0b0b0; stroke-width: 0.8; stroke-linecap: square"/>
     </g>
     <g id="line2d_16">
      <g>
       <use xlink:href="#mcf740afa3f" x="108" y="182.702296" style="stroke: #000000; stroke-width: 0.8"/>
      </g>
     </g>
     <g id="text_9">
      <!-- −40 -->
      <g transform="translate(71.453437 188.021203) scale(0.14 -0.14)">
       <use xlink:href="#DejaVuSans-2212"/>
       <use xlink:href="#DejaVuSans-34" x="83.789062"/>
       <use xlink:href="#DejaVuSans-30" x="147.412109"/>
      </g>
     </g>
    </g>
    <g id="ytick_3">
     <g id="line2d_17">
      <path d="M 108 140.366349 
L 777.6 140.366349 
" clip-path="url(#p49f5b8e0d7)" style="fill: none; stroke: #b0b0b0; stroke-width: 0.8; stroke-linecap: square"/>
     </g>
     <g id="line2d_18">
      <g>
       <use xlink:href="#mcf740afa3f" x="108" y="140.366349" style="stroke: #000000; stroke-width: 0.8"/>
      </g>
     </g>
     <g id="text_10">
      <!-- −20 -->
      <g transform="translate(71.453437 145.685256) scale(0.14 -0.14)">
       <use xlink:href="#DejaVuSans-2212"/>
       <use xlink:href="#DejaVuSans-32" x="83.789062"/>
       <use xlink:href="#DejaVuSans-30" x="147.412109"/>
      </g>
     </g>
    </g>
    <g id="ytick_4">
     <g id="line2d_19">
      <path d="M 108 98.030403 
L 777.6 98.030403 
" clip-path="url(#p49f5b8e0d7)" style="fill: none; stroke: #b0b0b0; stroke-width: 0.8; stroke-linecap: square"/>
     </g>
     <g id="line2d_20">
      <g>
       <use xlink:href="#mcf740afa3f" x="108" y="98.030403" style="stroke: #000000; stroke-width: 0.8"/>
      </g>
     </g>
     <g id="text_11">
      <!-- 0 -->
      <g transform="translate(92.0925 103.349309) scale(0.14 -0.14)">
       <use xlink:href="#DejaVuSans-30"/>
      </g>
     </g>
    </g>
    <g id="ytick_5">
     <g id="line2d_21">
      <path d="M 108 55.694456 
L 777.6 55.694456 
" clip-path="url(#p49f5b8e0d7)" style="fill: none; stroke: #b0b0b0; stroke-width: 0.8; stroke-linecap: square"/>
     </g>
     <g id="line2d_22">
      <g>
       <use xlink:href="#mcf740afa3f" x="108" y="55.694456" style="stroke: #000000; stroke-width: 0.8"/>
      </g>
     </g>
     <g id="text_12">
      <!-- 20 -->
      <g transform="translate(83.185 61.013362) scale(0.14 -0.14)">
       <use xlink:href="#DejaVuSans-32"/>
       <use xlink:href="#DejaVuSans-30" x="63.623047"/>
      </g>
     </g>
    </g>
    <g id="text_13">
     <!-- $V_{m}$ (mV) -->
     <g transform="translate(64.541875 174.49) rotate(-90) scale(0.14 -0.14)">
      <defs>
       <path id="DejaVuSans-Oblique-56" d="M 1319 0 
L 500 4666 
L 1119 4666 
L 1797 653 
L 4063 4666 
L 4750 4666 
L 2053 0 
L 1319 0 
z
" transform="scale(0.015625)"/>
       <path id="DejaVuSans-Oblique-6d" d="M 5747 2113 
L 5338 0 
L 4763 0 
L 5166 2094 
Q 5191 2228 5203 2325 
Q 5216 2422 5216 2491 
Q 5216 2772 5059 2928 
Q 4903 3084 4622 3084 
Q 4203 3084 3875 2770 
Q 3547 2456 3450 1953 
L 3066 0 
L 2491 0 
L 2900 2094 
Q 2925 2209 2937 2307 
Q 2950 2406 2950 2484 
Q 2950 2769 2794 2926 
Q 2638 3084 2363 3084 
Q 1938 3084 1609 2770 
Q 1281 2456 1184 1953 
L 800 0 
L 225 0 
L 909 3500 
L 1484 3500 
L 1375 2956 
Q 1609 3263 1923 3423 
Q 2238 3584 2597 3584 
Q 2978 3584 3223 3384 
Q 3469 3184 3519 2828 
Q 3781 3197 4126 3390 
Q 4472 3584 4856 3584 
Q 5306 3584 5551 3325 
Q 5797 3066 5797 2591 
Q 5797 2488 5784 2364 
Q 5772 2241 5747 2113 
z
" transform="scale(0.015625)"/>
       <path id="DejaVuSans-56" d="M 1831 0 
L 50 4666 
L 709 4666 
L 2188 738 
L 3669 4666 
L 4325 4666 
L 2547 0 
L 1831 0 
z
" transform="scale(0.015625)"/>
      </defs>
      <use xlink:href="#DejaVuSans-Oblique-56" transform="translate(0 0.125)"/>
      <use xlink:href="#DejaVuSans-Oblique-6d" transform="translate(68.408203 -16.28125) scale(0.7)"/>
      <use xlink:href="#DejaVuSans-20" transform="translate(139.331055 0.125)"/>
      <use xlink:href="#DejaVuSans-28" transform="translate(171.118164 0.125)"/>
      <use xlink:href="#DejaVuSans-6d" transform="translate(210.131836 0.125)"/>
      <use xlink:href="#DejaVuSans-56" transform="translate(307.543945 0.125)"/>
      <use xlink:href="#DejaVuSans-29" transform="translate(375.952148 0.125)"/>
     </g>
    </g>
   </g>
   <g id="line2d_23">
    <path d="M 108 219.682022 
L 109.3392 220.388853 
L 110.6784 220.860907 
L 111.348 221.039909 
L 112.6872 222.016127 
L 114.0264 222.503545 
L 116.0352 224.106269 
L 118.044 226.588533 
L 118.7136 227.700892 
L 119.3832 228.564642 
L 120.0528 229.119651 
L 120.7224 230.154606 
L 122.7312 232.450544 
L 124.0704 233.248931 
L 125.4096 233.773234 
L 127.4184 234.287723 
L 129.4272 234.581307 
L 132.1056 234.721105 
L 134.1144 234.67503 
L 136.1232 235.46584 
L 136.7928 236.269821 
L 137.4624 236.834773 
L 140.1408 238.004285 
L 141.48 238.273505 
L 144.1584 238.633119 
L 145.4976 238.898767 
L 147.5064 238.894677 
L 148.176 238.85014 
L 149.5152 239.146427 
L 150.8544 238.962957 
L 154.2024 238.037983 
L 160.8984 235.976073 
L 165.5856 234.309589 
L 170.9424 232.151688 
L 176.2992 229.738058 
L 181.656 227.089588 
L 187.6824 223.853768 
L 193.7088 220.36418 
L 198.396 217.487434 
L 199.7352 217.465357 
L 201.0744 217.024003 
L 203.7528 215.777625 
L 205.7616 214.746364 
L 207.1008 214.893436 
L 208.44 214.599504 
L 209.7792 214.987855 
L 211.1184 214.878789 
L 213.1272 214.39109 
L 216.4752 213.28006 
L 221.1624 211.438704 
L 225.8496 209.38628 
L 227.1888 209.708226 
L 227.8584 210.654746 
L 228.528 211.406549 
L 229.1976 211.79567 
L 230.5368 212.12497 
L 231.876 212.189595 
L 232.5456 212.167309 
L 234.5544 213.531193 
L 235.8936 215.503969 
L 236.5632 216.663326 
L 239.2416 219.968399 
L 239.9112 221.027416 
L 240.5808 222.542874 
L 241.2504 223.660427 
L 241.92 224.384195 
L 243.2592 225.343349 
L 244.5984 225.990367 
L 245.9376 227.079678 
L 246.6072 227.420031 
L 247.2768 228.014045 
L 247.9464 228.821411 
L 249.9552 230.66688 
L 251.2944 231.880125 
L 252.6336 232.524845 
L 253.9728 232.934153 
L 255.312 234.263984 
L 255.9816 234.905014 
L 256.6512 235.382347 
L 257.9904 235.93174 
L 259.9992 236.373561 
L 260.6688 236.463634 
L 262.008 237.069933 
L 263.3472 237.320753 
L 264.6864 237.422015 
L 267.3648 238.551621 
L 268.704 238.767203 
L 270.7128 238.813821 
L 272.052 239.215471 
L 273.3912 239.293208 
L 275.4 239.184025 
L 278.0784 238.832846 
L 281.4264 238.167683 
L 282.096 238.009767 
L 283.4352 238.123925 
L 284.7744 237.768827 
L 290.1312 235.666112 
L 291.4704 235.136649 
L 292.8096 235.14275 
L 294.1488 234.847051 
L 296.8272 233.992733 
L 300.8448 232.476556 
L 305.532 230.474726 
L 310.8888 227.926984 
L 316.2456 225.122701 
L 321.6024 222.071726 
L 328.2984 217.977698 
L 343.6992 208.220448 
L 345.0384 207.330884 
L 346.3776 207.417866 
L 347.7168 207.090479 
L 349.7256 206.248667 
L 352.404 204.829133 
L 354.4128 203.484158 
L 357.7608 206.389763 
L 358.4304 207.289968 
L 359.1 208.504722 
L 359.7696 209.405963 
L 360.4392 209.987712 
L 361.7784 210.67555 
L 363.1176 212.749252 
L 363.7872 213.768183 
L 364.4568 214.532881 
L 367.8048 217.08122 
L 369.144 218.340869 
L 370.4832 218.990908 
L 371.8224 219.381788 
L 372.492 219.522257 
L 373.8312 221.16817 
L 374.5008 222.73472 
L 375.1704 223.943662 
L 375.84 224.68014 
L 377.1792 225.603703 
L 378.5184 226.203485 
L 379.188 226.432519 
L 379.8576 226.967928 
L 381.8664 229.269859 
L 382.536 229.690857 
L 383.8752 230.823677 
L 384.5448 231.169267 
L 386.5536 232.797531 
L 387.2232 233.268086 
L 388.5624 233.821489 
L 391.2408 234.664639 
L 391.9104 235.251551 
L 392.58 235.662458 
L 393.9192 236.084979 
L 395.928 236.369613 
L 399.276 236.69404 
L 402.624 237.579147 
L 403.2936 237.621469 
L 405.972 238.688024 
L 407.3112 238.861802 
L 407.9808 238.880477 
L 409.32 239.310071 
L 410.6592 239.401394 
L 412.668 239.300315 
L 415.3464 238.94955 
L 417.3552 238.531212 
L 419.364 237.738361 
L 426.06 234.950055 
L 426.7296 234.675252 
L 428.0688 234.669727 
L 429.408 234.358565 
L 432.0864 233.469393 
L 436.104 231.90031 
L 440.7912 229.839477 
L 446.148 227.2278 
L 451.5048 224.361519 
L 456.8616 221.252926 
L 464.8968 216.27881 
L 472.932 211.216934 
L 474.2712 211.289896 
L 475.6104 210.927215 
L 476.9496 210.393877 
L 478.2888 210.719327 
L 479.628 210.567862 
L 481.6368 210.009278 
L 483.6456 209.291539 
L 484.9848 209.701439 
L 486.324 210.568227 
L 487.6632 210.783006 
L 489.0024 210.73047 
L 490.3416 212.324598 
L 491.0112 212.712314 
L 491.6808 213.390625 
L 492.3504 214.355703 
L 493.02 215.038075 
L 493.6896 215.455909 
L 494.3592 216.16781 
L 495.0288 217.14823 
L 495.6984 217.852815 
L 497.7072 219.277542 
L 498.3768 219.804652 
L 499.716 220.40146 
L 501.0552 220.749738 
L 502.3944 221.67874 
L 503.7336 222.117257 
L 504.4032 222.250146 
L 505.7424 223.116175 
L 507.0816 223.505434 
L 507.7512 223.616836 
L 508.4208 224.065709 
L 510.4296 227.369844 
L 511.0992 228.114579 
L 512.4384 228.967364 
L 513.7776 229.480589 
L 515.1168 230.401143 
L 515.7864 231.291037 
L 516.456 231.986332 
L 517.1256 232.415527 
L 519.804 235.8818 
L 521.1432 236.659086 
L 522.4824 237.144337 
L 523.152 237.32488 
L 523.8216 237.734335 
L 524.4912 238.320177 
L 526.5 239.634282 
L 527.8392 240.497794 
L 529.1784 240.910894 
L 529.848 241.040899 
L 531.1872 241.634442 
L 532.5264 241.88876 
L 534.5352 242.019416 
L 537.2136 241.947034 
L 540.5616 241.581275 
L 543.9096 240.978629 
L 547.9272 240.002374 
L 551.2752 238.968071 
L 553.284 237.958094 
L 557.9712 235.564521 
L 569.3544 229.922818 
L 575.3808 226.638831 
L 580.7376 223.484091 
L 586.764 219.675714 
L 602.1648 209.647476 
L 603.504 209.715883 
L 604.8432 209.350545 
L 606.852 208.496235 
L 610.2 206.784449 
L 612.8784 205.186289 
L 613.548 204.74969 
L 614.8872 204.873559 
L 616.2264 204.647688 
L 617.5656 204.182923 
L 619.5744 203.193107 
L 620.9136 202.33328 
L 622.2528 201.144374 
L 622.9224 200.369526 
L 623.592 199.915767 
L 624.2616 199.303964 
L 624.9312 198.240816 
L 625.6008 196.631572 
L 626.2704 189.840221 
L 626.94 156.706199 
L 627.6096 56.63714 
L 628.2792 63.345864 
L 628.9488 85.096364 
L 630.288 113.221365 
L 631.6272 138.535697 
L 632.9664 159.352019 
L 635.6448 196.606014 
L 636.3144 202.908349 
L 636.984 207.002739 
L 639.6624 217.41095 
L 641.6712 221.321375 
L 643.0104 223.195594 
L 643.68 224.355506 
L 644.3496 225.225967 
L 645.0192 225.850476 
L 646.3584 227.318569 
L 648.3672 228.775874 
L 649.0368 229.585322 
L 649.7064 230.175531 
L 653.724 232.644231 
L 654.3936 233.336407 
L 658.4112 236.335396 
L 659.7504 237.823496 
L 660.42 238.353012 
L 661.7592 238.95833 
L 663.768 239.449029 
L 665.7768 239.69147 
L 667.7856 239.768174 
L 669.1248 240.193058 
L 670.464 240.307265 
L 673.1424 240.215434 
L 676.4904 239.806068 
L 679.8384 239.164532 
L 683.856 238.149496 
L 685.1952 237.716844 
L 687.204 236.74398 
L 691.8912 234.422134 
L 693.9 233.474739 
L 695.2392 233.414063 
L 696.5784 233.044359 
L 699.9264 231.766293 
L 704.6136 229.693465 
L 709.9704 227.049329 
L 715.3272 224.135421 
L 721.3536 220.571711 
L 742.7808 207.396477 
L 744.12 207.563537 
L 745.4592 207.29253 
L 747.468 206.564084 
L 748.8072 206.990578 
L 750.1464 206.95155 
L 752.1552 206.520901 
L 753.4944 207.112435 
L 754.8336 207.21906 
L 756.1728 207.091234 
L 757.512 207.818728 
L 758.8512 208.027865 
L 760.1904 207.992565 
L 761.5296 208.780447 
L 762.1992 208.955575 
L 763.5384 209.979152 
L 764.8776 210.383091 
L 765.5472 210.469191 
L 766.8864 211.406538 
L 768.2256 211.781411 
L 768.8952 211.866351 
L 770.2344 213.627119 
L 770.904 214.082741 
L 771.5736 214.378471 
L 774.252 216.875876 
L 775.5912 217.514664 
L 776.9304 217.872505 
L 777.6 218.406059 
L 777.6 218.406059 
" clip-path="url(#p49f5b8e0d7)" style="fill: none; stroke: #000000; stroke-width: 1.5; stroke-linecap: square"/>
   </g>
   <g id="line2d_24">
    <path d="M 108 182.027388 
L 110.6784 188.222691 
L 112.6872 192.260639 
L 114.696 195.869442 
L 124.74 212.589175 
L 126.7488 215.351696 
L 128.7576 217.677982 
L 130.7664 219.621848 
L 132.7752 221.233505 
L 134.784 222.566339 
L 137.4624 224.300485 
L 141.48 227.134831 
L 143.4888 228.321928 
L 146.8368 229.980123 
L 148.8456 230.770604 
L 149.5152 200.047351 
L 150.1848 186.377182 
L 150.8544 179.859504 
L 151.524 176.18569 
L 152.1936 173.988501 
L 152.8632 172.719905 
L 153.5328 172.094171 
L 154.2024 171.934194 
L 154.872 172.117095 
L 155.5416 172.552265 
L 156.8808 173.92167 
L 158.8896 176.598311 
L 162.9072 182.117145 
L 164.916 184.481329 
L 166.9248 186.466239 
L 168.9336 188.044266 
L 170.2728 188.867474 
L 171.612 189.508967 
L 172.9512 189.971048 
L 174.2904 190.258941 
L 175.6296 190.377447 
L 176.9688 190.330805 
L 178.308 190.12262 
L 179.6472 189.75551 
L 181.656 188.909496 
L 183.6648 187.704222 
L 185.6736 186.126703 
L 187.6824 184.152592 
L 189.6912 181.754786 
L 191.7 178.915288 
L 193.7088 175.658489 
L 197.0568 169.632214 
L 199.0656 166.055616 
L 200.4048 163.99638 
L 201.744 162.276872 
L 203.0832 160.859315 
L 204.4224 159.711431 
L 205.7616 158.799627 
L 207.1008 158.173252 
L 208.44 157.857476 
L 209.7792 157.835956 
L 211.1184 158.089537 
L 213.1272 158.767111 
L 215.8056 159.932956 
L 221.1624 162.585917 
L 227.8584 166.001373 
L 229.1976 167.206578 
L 231.2064 169.511094 
L 234.5544 173.768039 
L 235.8936 175.834613 
L 237.2328 178.303262 
L 239.2416 182.528954 
L 241.2504 187.22064 
L 243.9288 193.661303 
L 245.9376 197.922079 
L 248.616 202.988364 
L 251.964 208.815589 
L 253.9728 211.869494 
L 257.9904 217.321625 
L 259.9992 219.658497 
L 262.6776 222.28103 
L 264.6864 223.969103 
L 268.0344 226.428155 
L 270.0432 227.730491 
L 272.7216 229.181499 
L 275.4 230.37758 
L 277.4088 231.048349 
L 280.0872 231.665184 
L 282.7656 232.017025 
L 283.4352 200.909446 
L 284.1048 187.021085 
L 284.7744 180.351772 
L 285.444 176.550956 
L 286.1136 174.224075 
L 286.7832 172.81572 
L 287.4528 172.038727 
L 288.1224 171.716109 
L 288.792 171.72521 
L 289.4616 171.974822 
L 290.8008 172.936401 
L 292.14 174.233152 
L 297.4968 179.957721 
L 299.5056 181.590075 
L 300.8448 182.444986 
L 302.184 183.104544 
L 303.5232 183.564084 
L 304.8624 183.820407 
L 306.2016 183.870982 
L 307.5408 183.713163 
L 308.88 183.34356 
L 310.2192 182.75682 
L 311.5584 181.945887 
L 312.8976 180.904532 
L 314.2368 179.626257 
L 315.576 178.104107 
L 317.5848 175.370586 
L 319.5936 172.151175 
L 326.2896 160.659342 
L 327.6288 158.837043 
L 328.968 157.285448 
L 330.3072 155.997247 
L 331.6464 154.951471 
L 332.9856 154.115135 
L 334.9944 153.183267 
L 337.0032 152.545915 
L 339.6816 152.00976 
L 343.0296 151.642122 
L 345.708 151.484062 
L 347.7168 151.653129 
L 355.752 153.008533 
L 357.0912 153.596686 
L 358.4304 154.556259 
L 359.7696 155.959239 
L 361.7784 158.663112 
L 363.1176 160.76897 
L 364.4568 163.248098 
L 366.4656 167.465676 
L 369.144 173.705044 
L 373.1616 183.240899 
L 375.1704 187.974791 
L 377.8488 194.436785 
L 379.8576 198.634982 
L 383.2056 204.912501 
L 385.884 209.381302 
L 388.5624 213.36871 
L 390.5712 215.926964 
L 393.9192 219.647108 
L 395.928 221.57048 
L 397.9368 223.173495 
L 400.6152 224.947318 
L 403.9632 226.939758 
L 408.6504 229.442232 
L 411.3288 230.646001 
L 413.3376 231.359116 
L 416.016 232.032288 
L 416.6856 232.15527 
L 417.3552 201.042329 
L 418.0248 187.151613 
L 418.6944 180.483645 
L 419.364 176.693843 
L 420.0336 174.38416 
L 420.7032 172.995978 
L 421.3728 172.240319 
L 422.0424 171.937806 
L 422.712 171.965623 
L 423.3816 172.232692 
L 424.7208 173.224557 
L 426.7296 175.22727 
L 431.4168 180.073799 
L 433.4256 181.688272 
L 434.7648 182.532535 
L 436.104 183.181548 
L 437.4432 183.630606 
L 438.7824 183.87656 
L 440.1216 183.917062 
L 441.4608 183.749522 
L 442.8 183.370681 
L 444.1392 182.775315 
L 445.4784 181.956458 
L 446.8176 180.90798 
L 448.1568 179.62357 
L 449.496 178.096566 
L 451.5048 175.358653 
L 453.5136 172.13902 
L 460.2096 160.668702 
L 461.5488 158.850441 
L 462.888 157.301628 
L 464.2272 156.014944 
L 465.5664 154.969512 
L 466.9056 154.132667 
L 468.9144 153.198835 
L 470.9232 152.558959 
L 472.932 152.127985 
L 474.2712 152.000596 
L 476.28 152.116282 
L 478.2888 152.469068 
L 480.2976 153.126432 
L 484.9848 154.971309 
L 486.324 155.754593 
L 488.3328 157.279653 
L 489.672 158.428133 
L 491.0112 159.857686 
L 492.3504 161.613384 
L 493.6896 163.735917 
L 495.0288 166.180218 
L 497.0376 170.451779 
L 500.3856 178.336528 
L 503.7336 185.972317 
L 506.412 191.436381 
L 508.4208 195.048792 
L 511.0992 199.838249 
L 513.108 203.44289 
L 515.7864 207.661962 
L 522.4824 217.749704 
L 525.1608 221.071427 
L 528.5088 224.895883 
L 530.5176 226.906418 
L 532.5264 228.689313 
L 534.5352 230.207587 
L 536.544 231.449852 
L 538.5528 232.443895 
L 540.5616 233.219026 
L 542.5704 233.800405 
L 545.2488 234.310738 
L 547.9272 234.557165 
L 550.6056 234.575392 
L 551.2752 202.870818 
L 551.9448 188.72041 
L 552.6144 181.918948 
L 553.284 178.071552 
L 553.9536 175.731147 
L 554.6232 174.320606 
L 555.2928 173.543095 
L 555.9624 173.217231 
L 556.632 173.217681 
L 557.3016 173.453348 
L 558.6408 174.37131 
L 561.3192 176.858002 
L 563.328 178.590445 
L 564.6672 179.519726 
L 566.0064 180.222127 
L 567.3456 180.675507 
L 568.6848 180.865367 
L 570.024 180.77994 
L 571.3632 180.407676 
L 572.7024 179.736081 
L 574.0416 178.750186 
L 575.3808 177.435948 
L 576.72 175.782931 
L 578.0592 173.788642 
L 579.3984 171.473578 
L 581.4072 167.530522 
L 584.7552 160.712438 
L 586.764 157.218969 
L 588.1032 155.301549 
L 589.4424 153.717997 
L 590.7816 152.438747 
L 592.1208 151.419581 
L 593.46 150.615945 
L 595.4688 149.721664 
L 597.4776 149.10014 
L 600.156 148.549205 
L 602.8344 148.211522 
L 604.8432 148.261933 
L 615.5568 149.357501 
L 622.2528 150.642861 
L 624.2616 150.636862 
L 625.6008 150.425022 
L 626.2704 149.966401 
L 626.94 147.925782 
L 627.6096 140.714996 
L 628.2792 131.699428 
L 628.9488 124.606435 
L 629.6184 120.066615 
L 630.288 117.666768 
L 630.9576 116.871101 
L 631.6272 117.211516 
L 632.2968 118.328475 
L 632.9664 119.975684 
L 634.3056 124.321888 
L 635.6448 129.731952 
L 639.6624 147.149822 
L 645.0192 169.676452 
L 648.3672 183.950568 
L 650.376 191.600716 
L 652.3848 198.20525 
L 654.3936 203.771906 
L 656.4024 208.570874 
L 658.4112 212.702848 
L 661.0896 217.597697 
L 663.0984 220.734143 
L 665.1072 223.31592 
L 667.116 225.414761 
L 669.1248 227.146927 
L 671.1336 228.642223 
L 673.1424 229.863514 
L 675.1512 230.822815 
L 677.16 231.552452 
L 679.1688 232.082222 
L 681.8472 232.520105 
L 684.5256 232.694486 
L 685.1952 201.397006 
L 685.8648 187.396027 
L 686.5344 180.654135 
L 687.204 176.822698 
L 687.8736 174.485218 
L 688.5432 173.070534 
L 689.2128 172.281736 
L 689.8824 171.934825 
L 690.552 171.904132 
L 691.2216 172.097573 
L 692.5608 172.89628 
L 694.5696 174.515037 
L 697.9176 177.271489 
L 699.2568 178.13163 
L 700.596 178.781622 
L 701.9352 179.202324 
L 703.2744 179.381691 
L 704.6136 179.310096 
L 705.9528 178.978457 
L 707.292 178.377877 
L 708.6312 177.5 
L 709.9704 176.338033 
L 711.3096 174.887723 
L 712.6488 173.156035 
L 714.6576 170.085002 
L 717.336 165.424515 
L 720.0144 160.826509 
L 722.0232 157.870047 
L 723.3624 156.223673 
L 724.7016 154.841569 
L 726.0408 153.704108 
L 727.38 152.781997 
L 729.3888 151.729515 
L 731.3976 150.985613 
L 733.4064 150.463988 
L 736.0848 150.010534 
L 739.4328 149.689141 
L 743.4504 149.526184 
L 745.4592 149.740899 
L 748.1376 150.275086 
L 750.1464 150.936753 
L 753.4944 152.35485 
L 756.1728 153.895782 
L 758.1816 155.285703 
L 760.86 157.473286 
L 762.8688 159.435214 
L 764.8776 161.834615 
L 766.8864 164.530668 
L 769.5648 168.608174 
L 771.5736 172.213352 
L 774.252 177.597312 
L 777.6 184.454882 
L 777.6 184.454882 
" clip-path="url(#p49f5b8e0d7)" style="fill: none; stroke: #4169e1; stroke-width: 1.5; stroke-linecap: square"/>
   </g>
   <g id="patch_3">
    <path d="M 108 256.32 
L 108 34.56 
" style="fill: none; stroke: #000000; stroke-width: 0.8; stroke-linejoin: miter; stroke-linecap: square"/>
   </g>
   <g id="patch_4">
    <path d="M 777.6 256.32 
L 777.6 34.56 
" style="fill: none; stroke: #000000; stroke-width: 0.8; stroke-linejoin: miter; stroke-linecap: square"/>
   </g>
   <g id="patch_5">
    <path d="M 108 256.32 
L 777.6 256.32 
" style="fill: none; stroke: #000000; stroke-width: 0.8; stroke-linejoin: miter; stroke-linecap: square"/>
   </g>
   <g id="patch_6">
    <path d="M 108 34.56 
L 777.6 34.56 
" style="fill: none; stroke: #000000; stroke-width: 0.8; stroke-linejoin: miter; stroke-linecap: square"/>
   </g>
   <g id="legend_1">
    <g id="patch_7">
     <path d="M 695.098438 71.91625 
L 770.6 71.91625 
Q 772.6 71.91625 772.6 69.91625 
L 772.6 41.56 
Q 772.6 39.56 770.6 39.56 
L 695.098438 39.56 
Q 693.098438 39.56 693.098438 41.56 
L 693.098438 69.91625 
Q 693.098438 71.91625 695.098438 71.91625 
z
" style="fill: #ffffff; opacity: 0.8; stroke: #cccccc; stroke-linejoin: miter"/>
    </g>
    <g id="line2d_25">
     <path d="M 697.098438 47.658437 
L 707.098438 47.658437 
L 717.098438 47.658437 
" style="fill: none; stroke: #000000; stroke-width: 1.5; stroke-linecap: square"/>
    </g>
    <g id="text_14">
     <!-- Soma -->
     <g transform="translate(725.098438 51.158437) scale(0.1 -0.1)">
      <defs>
       <path id="DejaVuSans-53" d="M 3425 4513 
L 3425 3897 
Q 3066 4069 2747 4153 
Q 2428 4238 2131 4238 
Q 1616 4238 1336 4038 
Q 1056 3838 1056 3469 
Q 1056 3159 1242 3001 
Q 1428 2844 1947 2747 
L 2328 2669 
Q 3034 2534 3370 2195 
Q 3706 1856 3706 1288 
Q 3706 609 3251 259 
Q 2797 -91 1919 -91 
Q 1588 -91 1214 -16 
Q 841 59 441 206 
L 441 856 
Q 825 641 1194 531 
Q 1563 422 1919 422 
Q 2459 422 2753 634 
Q 3047 847 3047 1241 
Q 3047 1584 2836 1778 
Q 2625 1972 2144 2069 
L 1759 2144 
Q 1053 2284 737 2584 
Q 422 2884 422 3419 
Q 422 4038 858 4394 
Q 1294 4750 2059 4750 
Q 2388 4750 2728 4690 
Q 3069 4631 3425 4513 
z
" transform="scale(0.015625)"/>
       <path id="DejaVuSans-6f" d="M 1959 3097 
Q 1497 3097 1228 2736 
Q 959 2375 959 1747 
Q 959 1119 1226 758 
Q 1494 397 1959 397 
Q 2419 397 2687 759 
Q 2956 1122 2956 1747 
Q 2956 2369 2687 2733 
Q 2419 3097 1959 3097 
z
M 1959 3584 
Q 2709 3584 3137 3096 
Q 3566 2609 3566 1747 
Q 3566 888 3137 398 
Q 2709 -91 1959 -91 
Q 1206 -91 779 398 
Q 353 888 353 1747 
Q 353 2609 779 3096 
Q 1206 3584 1959 3584 
z
" transform="scale(0.015625)"/>
       <path id="DejaVuSans-61" d="M 2194 1759 
Q 1497 1759 1228 1600 
Q 959 1441 959 1056 
Q 959 750 1161 570 
Q 1363 391 1709 391 
Q 2188 391 2477 730 
Q 2766 1069 2766 1631 
L 2766 1759 
L 2194 1759 
z
M 3341 1997 
L 3341 0 
L 2766 0 
L 2766 531 
Q 2569 213 2275 61 
Q 1981 -91 1556 -91 
Q 1019 -91 701 211 
Q 384 513 384 1019 
Q 384 1609 779 1909 
Q 1175 2209 1959 2209 
L 2766 2209 
L 2766 2266 
Q 2766 2663 2505 2880 
Q 2244 3097 1772 3097 
Q 1472 3097 1187 3025 
Q 903 2953 641 2809 
L 641 3341 
Q 956 3463 1253 3523 
Q 1550 3584 1831 3584 
Q 2591 3584 2966 3190 
Q 3341 2797 3341 1997 
z
" transform="scale(0.015625)"/>
      </defs>
      <use xlink:href="#DejaVuSans-53"/>
      <use xlink:href="#DejaVuSans-6f" x="63.476562"/>
      <use xlink:href="#DejaVuSans-6d" x="124.658203"/>
      <use xlink:href="#DejaVuSans-61" x="222.070312"/>
     </g>
    </g>
    <g id="line2d_26">
     <path d="M 697.098438 62.336562 
L 707.098438 62.336562 
L 717.098438 62.336562 
" style="fill: none; stroke: #4169e1; stroke-width: 1.5; stroke-linecap: square"/>
    </g>
    <g id="text_15">
     <!-- Dendrite -->
     <g transform="translate(725.098438 65.836562) scale(0.1 -0.1)">
      <defs>
       <path id="DejaVuSans-44" d="M 1259 4147 
L 1259 519 
L 2022 519 
Q 2988 519 3436 956 
Q 3884 1394 3884 2338 
Q 3884 3275 3436 3711 
Q 2988 4147 2022 4147 
L 1259 4147 
z
M 628 4666 
L 1925 4666 
Q 3281 4666 3915 4102 
Q 4550 3538 4550 2338 
Q 4550 1131 3912 565 
Q 3275 0 1925 0 
L 628 0 
L 628 4666 
z
" transform="scale(0.015625)"/>
       <path id="DejaVuSans-6e" d="M 3513 2113 
L 3513 0 
L 2938 0 
L 2938 2094 
Q 2938 2591 2744 2837 
Q 2550 3084 2163 3084 
Q 1697 3084 1428 2787 
Q 1159 2491 1159 1978 
L 1159 0 
L 581 0 
L 581 3500 
L 1159 3500 
L 1159 2956 
Q 1366 3272 1645 3428 
Q 1925 3584 2291 3584 
Q 2894 3584 3203 3211 
Q 3513 2838 3513 2113 
z
" transform="scale(0.015625)"/>
       <path id="DejaVuSans-64" d="M 2906 2969 
L 2906 4863 
L 3481 4863 
L 3481 0 
L 2906 0 
L 2906 525 
Q 2725 213 2448 61 
Q 2172 -91 1784 -91 
Q 1150 -91 751 415 
Q 353 922 353 1747 
Q 353 2572 751 3078 
Q 1150 3584 1784 3584 
Q 2172 3584 2448 3432 
Q 2725 3281 2906 2969 
z
M 947 1747 
Q 947 1113 1208 752 
Q 1469 391 1925 391 
Q 2381 391 2643 752 
Q 2906 1113 2906 1747 
Q 2906 2381 2643 2742 
Q 2381 3103 1925 3103 
Q 1469 3103 1208 2742 
Q 947 2381 947 1747 
z
" transform="scale(0.015625)"/>
       <path id="DejaVuSans-72" d="M 2631 2963 
Q 2534 3019 2420 3045 
Q 2306 3072 2169 3072 
Q 1681 3072 1420 2755 
Q 1159 2438 1159 1844 
L 1159 0 
L 581 0 
L 581 3500 
L 1159 3500 
L 1159 2956 
Q 1341 3275 1631 3429 
Q 1922 3584 2338 3584 
Q 2397 3584 2469 3576 
Q 2541 3569 2628 3553 
L 2631 2963 
z
" transform="scale(0.015625)"/>
       <path id="DejaVuSans-74" d="M 1172 4494 
L 1172 3500 
L 2356 3500 
L 2356 3053 
L 1172 3053 
L 1172 1153 
Q 1172 725 1289 603 
Q 1406 481 1766 481 
L 2356 481 
L 2356 0 
L 1766 0 
Q 1100 0 847 248 
Q 594 497 594 1153 
L 594 3053 
L 172 3053 
L 172 3500 
L 594 3500 
L 594 4494 
L 1172 4494 
z
" transform="scale(0.015625)"/>
      </defs>
      <use xlink:href="#DejaVuSans-44"/>
      <use xlink:href="#DejaVuSans-65" x="77.001953"/>
      <use xlink:href="#DejaVuSans-6e" x="138.525391"/>
      <use xlink:href="#DejaVuSans-64" x="201.904297"/>
      <use xlink:href="#DejaVuSans-72" x="265.380859"/>
      <use xlink:href="#DejaVuSans-69" x="306.494141"/>
      <use xlink:href="#DejaVuSans-74" x="334.277344"/>
      <use xlink:href="#DejaVuSans-65" x="373.486328"/>
     </g>
    </g>
   </g>
  </g>
 </g>
 <defs>
  <clipPath id="p49f5b8e0d7">
   <rect x="108" y="34.56" width="669.6" height="221.76"/>
  </clipPath>
 </defs>
</svg>
