<?xml version="1.0" encoding="utf-8" standalone="no"?>
<!DOCTYPE svg PUBLIC "-//W3C//DTD SVG 1.1//EN"
  "http://www.w3.org/Graphics/SVG/1.1/DTD/svg11.dtd">
<svg xmlns:xlink="http://www.w3.org/1999/xlink" width="864pt" height="288pt" viewBox="0 0 864 288" xmlns="http://www.w3.org/2000/svg" version="1.1">
 <metadata>
  <rdf:RDF xmlns:dc="http://purl.org/dc/elements/1.1/" xmlns:cc="http://creativecommons.org/ns#" xmlns:rdf="http://www.w3.org/1999/02/22-rdf-syntax-ns#">
   <cc:Work>
    <dc:type rdf:resource="http://purl.org/dc/dcmitype/StillImage"/>
    <dc:date>2024-04-23T19:17:07.649169</dc:date>
    <dc:format>image/svg+xml</dc:format>
    <dc:creator>
     <cc:Agent>
      <dc:title>Matplotlib v3.8.2, https://matplotlib.org/</dc:title>
     </cc:Agent>
    </dc:creator>
   </cc:Work>
  </rdf:RDF>
 </metadata>
 <defs>
  <style type="text/css">*{stroke-linejoin: round; stroke-linecap: butt}</style>
 </defs>
 <g id="figure_1">
  <g id="patch_1">
   <path d="M 0 288 
L 864 288 
L 864 0 
L 0 0 
z
" style="fill: #ffffff"/>
  </g>
  <g id="axes_1">
   <g id="patch_2">
    <path d="M 108 256.32 
L 777.6 256.32 
L 777.6 34.56 
L 108 34.56 
z
" style="fill: #ffffff"/>
   </g>
   <g id="matplotlib.axis_1">
    <g id="xtick_1">
     <g id="line2d_1">
      <path d="M 108 256.32 
L 108 34.56 
" clip-path="url(#pce890de76e)" style="fill: none; stroke: #b0b0b0; stroke-width: 0.8; stroke-linecap: square"/>
     </g>
     <g id="line2d_2">
      <defs>
       <path id="m84ad5dea0e" d="M 0 0 
L 0 3.5 
" style="stroke: #000000; stroke-width: 0.8"/>
      </defs>
      <g>
       <use xlink:href="#m84ad5dea0e" x="108" y="256.32" style="stroke: #000000; stroke-width: 0.8"/>
      </g>
     </g>
     <g id="text_1">
      <!-- 100 -->
      <g transform="translate(94.63875 273.957812) scale(0.14 -0.14)">
       <defs>
        <path id="DejaVuSans-31" d="M 794 531 
L 1825 531 
L 1825 4091 
L 703 3866 
L 703 4441 
L 1819 4666 
L 2450 4666 
L 2450 531 
L 3481 531 
L 3481 0 
L 794 0 
L 794 531 
z
" transform="scale(0.015625)"/>
        <path id="DejaVuSans-30" d="M 2034 4250 
Q 1547 4250 1301 3770 
Q 1056 3291 1056 2328 
Q 1056 1369 1301 889 
Q 1547 409 2034 409 
Q 2525 409 2770 889 
Q 3016 1369 3016 2328 
Q 3016 3291 2770 3770 
Q 2525 4250 2034 4250 
z
M 2034 4750 
Q 2819 4750 3233 4129 
Q 3647 3509 3647 2328 
Q 3647 1150 3233 529 
Q 2819 -91 2034 -91 
Q 1250 -91 836 529 
Q 422 1150 422 2328 
Q 422 3509 836 4129 
Q 1250 4750 2034 4750 
z
" transform="scale(0.015625)"/>
       </defs>
       <use xlink:href="#DejaVuSans-31"/>
       <use xlink:href="#DejaVuSans-30" x="63.623047"/>
       <use xlink:href="#DejaVuSans-30" x="127.246094"/>
      </g>
     </g>
    </g>
    <g id="xtick_2">
     <g id="line2d_3">
      <path d="M 241.92 256.32 
L 241.92 34.56 
" clip-path="url(#pce890de76e)" style="fill: none; stroke: #b0b0b0; stroke-width: 0.8; stroke-linecap: square"/>
     </g>
     <g id="line2d_4">
      <g>
       <use xlink:href="#m84ad5dea0e" x="241.92" y="256.32" style="stroke: #000000; stroke-width: 0.8"/>
      </g>
     </g>
     <g id="text_2">
      <!-- 120 -->
      <g transform="translate(228.55875 273.957812) scale(0.14 -0.14)">
       <defs>
        <path id="DejaVuSans-32" d="M 1228 531 
L 3431 531 
L 3431 0 
L 469 0 
L 469 531 
Q 828 903 1448 1529 
Q 2069 2156 2228 2338 
Q 2531 2678 2651 2914 
Q 2772 3150 2772 3378 
Q 2772 3750 2511 3984 
Q 2250 4219 1831 4219 
Q 1534 4219 1204 4116 
Q 875 4013 500 3803 
L 500 4441 
Q 881 4594 1212 4672 
Q 1544 4750 1819 4750 
Q 2544 4750 2975 4387 
Q 3406 4025 3406 3419 
Q 3406 3131 3298 2873 
Q 3191 2616 2906 2266 
Q 2828 2175 2409 1742 
Q 1991 1309 1228 531 
z
" transform="scale(0.015625)"/>
       </defs>
       <use xlink:href="#DejaVuSans-31"/>
       <use xlink:href="#DejaVuSans-32" x="63.623047"/>
       <use xlink:href="#DejaVuSans-30" x="127.246094"/>
      </g>
     </g>
    </g>
    <g id="xtick_3">
     <g id="line2d_5">
      <path d="M 375.84 256.32 
L 375.84 34.56 
" clip-path="url(#pce890de76e)" style="fill: none; stroke: #b0b0b0; stroke-width: 0.8; stroke-linecap: square"/>
     </g>
     <g id="line2d_6">
      <g>
       <use xlink:href="#m84ad5dea0e" x="375.84" y="256.32" style="stroke: #000000; stroke-width: 0.8"/>
      </g>
     </g>
     <g id="text_3">
      <!-- 140 -->
      <g transform="translate(362.47875 273.957812) scale(0.14 -0.14)">
       <defs>
        <path id="DejaVuSans-34" d="M 2419 4116 
L 825 1625 
L 2419 1625 
L 2419 4116 
z
M 2253 4666 
L 3047 4666 
L 3047 1625 
L 3713 1625 
L 3713 1100 
L 3047 1100 
L 3047 0 
L 2419 0 
L 2419 1100 
L 313 1100 
L 313 1709 
L 2253 4666 
z
" transform="scale(0.015625)"/>
       </defs>
       <use xlink:href="#DejaVuSans-31"/>
       <use xlink:href="#DejaVuSans-34" x="63.623047"/>
       <use xlink:href="#DejaVuSans-30" x="127.246094"/>
      </g>
     </g>
    </g>
    <g id="xtick_4">
     <g id="line2d_7">
      <path d="M 509.76 256.32 
L 509.76 34.56 
" clip-path="url(#pce890de76e)" style="fill: none; stroke: #b0b0b0; stroke-width: 0.8; stroke-linecap: square"/>
     </g>
     <g id="line2d_8">
      <g>
       <use xlink:href="#m84ad5dea0e" x="509.76" y="256.32" style="stroke: #000000; stroke-width: 0.8"/>
      </g>
     </g>
     <g id="text_4">
      <!-- 160 -->
      <g transform="translate(496.39875 273.957812) scale(0.14 -0.14)">
       <defs>
        <path id="DejaVuSans-36" d="M 2113 2584 
Q 1688 2584 1439 2293 
Q 1191 2003 1191 1497 
Q 1191 994 1439 701 
Q 1688 409 2113 409 
Q 2538 409 2786 701 
Q 3034 994 3034 1497 
Q 3034 2003 2786 2293 
Q 2538 2584 2113 2584 
z
M 3366 4563 
L 3366 3988 
Q 3128 4100 2886 4159 
Q 2644 4219 2406 4219 
Q 1781 4219 1451 3797 
Q 1122 3375 1075 2522 
Q 1259 2794 1537 2939 
Q 1816 3084 2150 3084 
Q 2853 3084 3261 2657 
Q 3669 2231 3669 1497 
Q 3669 778 3244 343 
Q 2819 -91 2113 -91 
Q 1303 -91 875 529 
Q 447 1150 447 2328 
Q 447 3434 972 4092 
Q 1497 4750 2381 4750 
Q 2619 4750 2861 4703 
Q 3103 4656 3366 4563 
z
" transform="scale(0.015625)"/>
       </defs>
       <use xlink:href="#DejaVuSans-31"/>
       <use xlink:href="#DejaVuSans-36" x="63.623047"/>
       <use xlink:href="#DejaVuSans-30" x="127.246094"/>
      </g>
     </g>
    </g>
    <g id="xtick_5">
     <g id="line2d_9">
      <path d="M 643.68 256.32 
L 643.68 34.56 
" clip-path="url(#pce890de76e)" style="fill: none; stroke: #b0b0b0; stroke-width: 0.8; stroke-linecap: square"/>
     </g>
     <g id="line2d_10">
      <g>
       <use xlink:href="#m84ad5dea0e" x="643.68" y="256.32" style="stroke: #000000; stroke-width: 0.8"/>
      </g>
     </g>
     <g id="text_5">
      <!-- 180 -->
      <g transform="translate(630.31875 273.957812) scale(0.14 -0.14)">
       <defs>
        <path id="DejaVuSans-38" d="M 2034 2216 
Q 1584 2216 1326 1975 
Q 1069 1734 1069 1313 
Q 1069 891 1326 650 
Q 1584 409 2034 409 
Q 2484 409 2743 651 
Q 3003 894 3003 1313 
Q 3003 1734 2745 1975 
Q 2488 2216 2034 2216 
z
M 1403 2484 
Q 997 2584 770 2862 
Q 544 3141 544 3541 
Q 544 4100 942 4425 
Q 1341 4750 2034 4750 
Q 2731 4750 3128 4425 
Q 3525 4100 3525 3541 
Q 3525 3141 3298 2862 
Q 3072 2584 2669 2484 
Q 3125 2378 3379 2068 
Q 3634 1759 3634 1313 
Q 3634 634 3220 271 
Q 2806 -91 2034 -91 
Q 1263 -91 848 271 
Q 434 634 434 1313 
Q 434 1759 690 2068 
Q 947 2378 1403 2484 
z
M 1172 3481 
Q 1172 3119 1398 2916 
Q 1625 2713 2034 2713 
Q 2441 2713 2670 2916 
Q 2900 3119 2900 3481 
Q 2900 3844 2670 4047 
Q 2441 4250 2034 4250 
Q 1625 4250 1398 4047 
Q 1172 3844 1172 3481 
z
" transform="scale(0.015625)"/>
       </defs>
       <use xlink:href="#DejaVuSans-31"/>
       <use xlink:href="#DejaVuSans-38" x="63.623047"/>
       <use xlink:href="#DejaVuSans-30" x="127.246094"/>
      </g>
     </g>
    </g>
    <g id="xtick_6">
     <g id="line2d_11">
      <path d="M 777.6 256.32 
L 777.6 34.56 
" clip-path="url(#pce890de76e)" style="fill: none; stroke: #b0b0b0; stroke-width: 0.8; stroke-linecap: square"/>
     </g>
     <g id="line2d_12">
      <g>
       <use xlink:href="#m84ad5dea0e" x="777.6" y="256.32" style="stroke: #000000; stroke-width: 0.8"/>
      </g>
     </g>
     <g id="text_6">
      <!-- 200 -->
      <g transform="translate(764.23875 273.957812) scale(0.14 -0.14)">
       <use xlink:href="#DejaVuSans-32"/>
       <use xlink:href="#DejaVuSans-30" x="63.623047"/>
       <use xlink:href="#DejaVuSans-30" x="127.246094"/>
      </g>
     </g>
    </g>
    <g id="text_7">
     <!-- Time (ms) -->
     <g transform="translate(407.521094 291.507187) scale(0.14 -0.14)">
      <defs>
       <path id="DejaVuSans-54" d="M -19 4666 
L 3928 4666 
L 3928 4134 
L 2272 4134 
L 2272 0 
L 1638 0 
L 1638 4134 
L -19 4134 
L -19 4666 
z
" transform="scale(0.015625)"/>
       <path id="DejaVuSans-69" d="M 603 3500 
L 1178 3500 
L 1178 0 
L 603 0 
L 603 3500 
z
M 603 4863 
L 1178 4863 
L 1178 4134 
L 603 4134 
L 603 4863 
z
" transform="scale(0.015625)"/>
       <path id="DejaVuSans-6d" d="M 3328 2828 
Q 3544 3216 3844 3400 
Q 4144 3584 4550 3584 
Q 5097 3584 5394 3201 
Q 5691 2819 5691 2113 
L 5691 0 
L 5113 0 
L 5113 2094 
Q 5113 2597 4934 2840 
Q 4756 3084 4391 3084 
Q 3944 3084 3684 2787 
Q 3425 2491 3425 1978 
L 3425 0 
L 2847 0 
L 2847 2094 
Q 2847 2600 2669 2842 
Q 2491 3084 2119 3084 
Q 1678 3084 1418 2786 
Q 1159 2488 1159 1978 
L 1159 0 
L 581 0 
L 581 3500 
L 1159 3500 
L 1159 2956 
Q 1356 3278 1631 3431 
Q 1906 3584 2284 3584 
Q 2666 3584 2933 3390 
Q 3200 3197 3328 2828 
z
" transform="scale(0.015625)"/>
       <path id="DejaVuSans-65" d="M 3597 1894 
L 3597 1613 
L 953 1613 
Q 991 1019 1311 708 
Q 1631 397 2203 397 
Q 2534 397 2845 478 
Q 3156 559 3463 722 
L 3463 178 
Q 3153 47 2828 -22 
Q 2503 -91 2169 -91 
Q 1331 -91 842 396 
Q 353 884 353 1716 
Q 353 2575 817 3079 
Q 1281 3584 2069 3584 
Q 2775 3584 3186 3129 
Q 3597 2675 3597 1894 
z
M 3022 2063 
Q 3016 2534 2758 2815 
Q 2500 3097 2075 3097 
Q 1594 3097 1305 2825 
Q 1016 2553 972 2059 
L 3022 2063 
z
" transform="scale(0.015625)"/>
       <path id="DejaVuSans-20" transform="scale(0.015625)"/>
       <path id="DejaVuSans-28" d="M 1984 4856 
Q 1566 4138 1362 3434 
Q 1159 2731 1159 2009 
Q 1159 1288 1364 580 
Q 1569 -128 1984 -844 
L 1484 -844 
Q 1016 -109 783 600 
Q 550 1309 550 2009 
Q 550 2706 781 3412 
Q 1013 4119 1484 4856 
L 1984 4856 
z
" transform="scale(0.015625)"/>
       <path id="DejaVuSans-73" d="M 2834 3397 
L 2834 2853 
Q 2591 2978 2328 3040 
Q 2066 3103 1784 3103 
Q 1356 3103 1142 2972 
Q 928 2841 928 2578 
Q 928 2378 1081 2264 
Q 1234 2150 1697 2047 
L 1894 2003 
Q 2506 1872 2764 1633 
Q 3022 1394 3022 966 
Q 3022 478 2636 193 
Q 2250 -91 1575 -91 
Q 1294 -91 989 -36 
Q 684 19 347 128 
L 347 722 
Q 666 556 975 473 
Q 1284 391 1588 391 
Q 1994 391 2212 530 
Q 2431 669 2431 922 
Q 2431 1156 2273 1281 
Q 2116 1406 1581 1522 
L 1381 1569 
Q 847 1681 609 1914 
Q 372 2147 372 2553 
Q 372 3047 722 3315 
Q 1072 3584 1716 3584 
Q 2034 3584 2315 3537 
Q 2597 3491 2834 3397 
z
" transform="scale(0.015625)"/>
       <path id="DejaVuSans-29" d="M 513 4856 
L 1013 4856 
Q 1481 4119 1714 3412 
Q 1947 2706 1947 2009 
Q 1947 1309 1714 600 
Q 1481 -109 1013 -844 
L 513 -844 
Q 928 -128 1133 580 
Q 1338 1288 1338 2009 
Q 1338 2731 1133 3434 
Q 928 4138 513 4856 
z
" transform="scale(0.015625)"/>
      </defs>
      <use xlink:href="#DejaVuSans-54"/>
      <use xlink:href="#DejaVuSans-69" x="57.958984"/>
      <use xlink:href="#DejaVuSans-6d" x="85.742188"/>
      <use xlink:href="#DejaVuSans-65" x="183.154297"/>
      <use xlink:href="#DejaVuSans-20" x="244.677734"/>
      <use xlink:href="#DejaVuSans-28" x="276.464844"/>
      <use xlink:href="#DejaVuSans-6d" x="315.478516"/>
      <use xlink:href="#DejaVuSans-73" x="412.890625"/>
      <use xlink:href="#DejaVuSans-29" x="464.990234"/>
     </g>
    </g>
   </g>
   <g id="matplotlib.axis_2">
    <g id="ytick_1">
     <g id="line2d_13">
      <path d="M 108 246.24 
L 777.6 246.24 
" clip-path="url(#pce890de76e)" style="fill: none; stroke: #b0b0b0; stroke-width: 0.8; stroke-linecap: square"/>
     </g>
     <g id="line2d_14">
      <defs>
       <path id="m562915ad55" d="M 0 0 
L -3.5 0 
" style="stroke: #000000; stroke-width: 0.8"/>
      </defs>
      <g>
       <use xlink:href="#m562915ad55" x="108" y="246.24" style="stroke: #000000; stroke-width: 0.8"/>
      </g>
     </g>
     <g id="text_8">
      <!-- 0.00 -->
      <g transform="translate(69.828125 251.558906) scale(0.14 -0.14)">
       <defs>
        <path id="DejaVuSans-2e" d="M 684 794 
L 1344 794 
L 1344 0 
L 684 0 
L 684 794 
z
" transform="scale(0.015625)"/>
       </defs>
       <use xlink:href="#DejaVuSans-30"/>
       <use xlink:href="#DejaVuSans-2e" x="63.623047"/>
       <use xlink:href="#DejaVuSans-30" x="95.410156"/>
       <use xlink:href="#DejaVuSans-30" x="159.033203"/>
      </g>
     </g>
    </g>
    <g id="ytick_2">
     <g id="line2d_15">
      <path d="M 108 207.286331 
L 777.6 207.286331 
" clip-path="url(#pce890de76e)" style="fill: none; stroke: #b0b0b0; stroke-width: 0.8; stroke-linecap: square"/>
     </g>
     <g id="line2d_16">
      <g>
       <use xlink:href="#m562915ad55" x="108" y="207.286331" style="stroke: #000000; stroke-width: 0.8"/>
      </g>
     </g>
     <g id="text_9">
      <!-- 0.05 -->
      <g transform="translate(69.828125 212.605237) scale(0.14 -0.14)">
       <defs>
        <path id="DejaVuSans-35" d="M 691 4666 
L 3169 4666 
L 3169 4134 
L 1269 4134 
L 1269 2991 
Q 1406 3038 1543 3061 
Q 1681 3084 1819 3084 
Q 2600 3084 3056 2656 
Q 3513 2228 3513 1497 
Q 3513 744 3044 326 
Q 2575 -91 1722 -91 
Q 1428 -91 1123 -41 
Q 819 9 494 109 
L 494 744 
Q 775 591 1075 516 
Q 1375 441 1709 441 
Q 2250 441 2565 725 
Q 2881 1009 2881 1497 
Q 2881 1984 2565 2268 
Q 2250 2553 1709 2553 
Q 1456 2553 1204 2497 
Q 953 2441 691 2322 
L 691 4666 
z
" transform="scale(0.015625)"/>
       </defs>
       <use xlink:href="#DejaVuSans-30"/>
       <use xlink:href="#DejaVuSans-2e" x="63.623047"/>
       <use xlink:href="#DejaVuSans-30" x="95.410156"/>
       <use xlink:href="#DejaVuSans-35" x="159.033203"/>
      </g>
     </g>
    </g>
    <g id="ytick_3">
     <g id="line2d_17">
      <path d="M 108 168.332662 
L 777.6 168.332662 
" clip-path="url(#pce890de76e)" style="fill: none; stroke: #b0b0b0; stroke-width: 0.8; stroke-linecap: square"/>
     </g>
     <g id="line2d_18">
      <g>
       <use xlink:href="#m562915ad55" x="108" y="168.332662" style="stroke: #000000; stroke-width: 0.8"/>
      </g>
     </g>
     <g id="text_10">
      <!-- 0.10 -->
      <g transform="translate(69.828125 173.651568) scale(0.14 -0.14)">
       <use xlink:href="#DejaVuSans-30"/>
       <use xlink:href="#DejaVuSans-2e" x="63.623047"/>
       <use xlink:href="#DejaVuSans-31" x="95.410156"/>
       <use xlink:href="#DejaVuSans-30" x="159.033203"/>
      </g>
     </g>
    </g>
    <g id="ytick_4">
     <g id="line2d_19">
      <path d="M 108 129.378993 
L 777.6 129.378993 
" clip-path="url(#pce890de76e)" style="fill: none; stroke: #b0b0b0; stroke-width: 0.8; stroke-linecap: square"/>
     </g>
     <g id="line2d_20">
      <g>
       <use xlink:href="#m562915ad55" x="108" y="129.378993" style="stroke: #000000; stroke-width: 0.8"/>
      </g>
     </g>
     <g id="text_11">
      <!-- 0.15 -->
      <g transform="translate(69.828125 134.697899) scale(0.14 -0.14)">
       <use xlink:href="#DejaVuSans-30"/>
       <use xlink:href="#DejaVuSans-2e" x="63.623047"/>
       <use xlink:href="#DejaVuSans-31" x="95.410156"/>
       <use xlink:href="#DejaVuSans-35" x="159.033203"/>
      </g>
     </g>
    </g>
    <g id="ytick_5">
     <g id="line2d_21">
      <path d="M 108 90.425324 
L 777.6 90.425324 
" clip-path="url(#pce890de76e)" style="fill: none; stroke: #b0b0b0; stroke-width: 0.8; stroke-linecap: square"/>
     </g>
     <g id="line2d_22">
      <g>
       <use xlink:href="#m562915ad55" x="108" y="90.425324" style="stroke: #000000; stroke-width: 0.8"/>
      </g>
     </g>
     <g id="text_12">
      <!-- 0.20 -->
      <g transform="translate(69.828125 95.74423) scale(0.14 -0.14)">
       <use xlink:href="#DejaVuSans-30"/>
       <use xlink:href="#DejaVuSans-2e" x="63.623047"/>
       <use xlink:href="#DejaVuSans-32" x="95.410156"/>
       <use xlink:href="#DejaVuSans-30" x="159.033203"/>
      </g>
     </g>
    </g>
    <g id="ytick_6">
     <g id="line2d_23">
      <path d="M 108 51.471654 
L 777.6 51.471654 
" clip-path="url(#pce890de76e)" style="fill: none; stroke: #b0b0b0; stroke-width: 0.8; stroke-linecap: square"/>
     </g>
     <g id="line2d_24">
      <g>
       <use xlink:href="#m562915ad55" x="108" y="51.471654" style="stroke: #000000; stroke-width: 0.8"/>
      </g>
     </g>
     <g id="text_13">
      <!-- 0.25 -->
      <g transform="translate(69.828125 56.790561) scale(0.14 -0.14)">
       <use xlink:href="#DejaVuSans-30"/>
       <use xlink:href="#DejaVuSans-2e" x="63.623047"/>
       <use xlink:href="#DejaVuSans-32" x="95.410156"/>
       <use xlink:href="#DejaVuSans-35" x="159.033203"/>
      </g>
     </g>
    </g>
    <g id="text_14">
     <!-- $g_{Inhib}$ (µS) -->
     <g transform="translate(62.888125 178.83) rotate(-90) scale(0.14 -0.14)">
      <defs>
       <path id="DejaVuSans-Oblique-67" d="M 3816 3500 
L 3219 434 
Q 3047 -456 2561 -893 
Q 2075 -1331 1253 -1331 
Q 950 -1331 690 -1286 
Q 431 -1241 206 -1147 
L 313 -588 
Q 525 -725 762 -790 
Q 1000 -856 1269 -856 
Q 1816 -856 2167 -557 
Q 2519 -259 2631 300 
L 2681 563 
Q 2441 288 2122 144 
Q 1803 0 1434 0 
Q 903 0 598 351 
Q 294 703 294 1319 
Q 294 1803 478 2267 
Q 663 2731 997 3091 
Q 1219 3328 1514 3456 
Q 1809 3584 2131 3584 
Q 2484 3584 2746 3420 
Q 3009 3256 3138 2956 
L 3238 3500 
L 3816 3500 
z
M 2950 2216 
Q 2950 2641 2750 2872 
Q 2550 3103 2181 3103 
Q 1953 3103 1747 3012 
Q 1541 2922 1394 2759 
Q 1156 2491 1023 2127 
Q 891 1763 891 1375 
Q 891 944 1092 712 
Q 1294 481 1672 481 
Q 2219 481 2584 976 
Q 2950 1472 2950 2216 
z
" transform="scale(0.015625)"/>
       <path id="DejaVuSans-Oblique-49" d="M 1081 4666 
L 1716 4666 
L 806 0 
L 172 0 
L 1081 4666 
z
" transform="scale(0.015625)"/>
       <path id="DejaVuSans-Oblique-6e" d="M 3566 2113 
L 3156 0 
L 2578 0 
L 2988 2091 
Q 3016 2238 3031 2350 
Q 3047 2463 3047 2528 
Q 3047 2791 2881 2937 
Q 2716 3084 2419 3084 
Q 1956 3084 1622 2776 
Q 1288 2469 1184 1941 
L 800 0 
L 225 0 
L 903 3500 
L 1478 3500 
L 1363 2950 
Q 1603 3253 1940 3418 
Q 2278 3584 2650 3584 
Q 3113 3584 3367 3334 
Q 3622 3084 3622 2631 
Q 3622 2519 3608 2391 
Q 3594 2263 3566 2113 
z
" transform="scale(0.015625)"/>
       <path id="DejaVuSans-Oblique-68" d="M 3566 2113 
L 3156 0 
L 2578 0 
L 2988 2091 
Q 3016 2238 3031 2350 
Q 3047 2463 3047 2528 
Q 3047 2791 2881 2937 
Q 2716 3084 2419 3084 
Q 1956 3084 1617 2771 
Q 1278 2459 1178 1941 
L 800 0 
L 225 0 
L 1172 4863 
L 1747 4863 
L 1375 2950 
Q 1594 3244 1934 3414 
Q 2275 3584 2650 3584 
Q 3113 3584 3367 3334 
Q 3622 3084 3622 2631 
Q 3622 2519 3608 2391 
Q 3594 2263 3566 2113 
z
" transform="scale(0.015625)"/>
       <path id="DejaVuSans-Oblique-69" d="M 1172 4863 
L 1747 4863 
L 1606 4134 
L 1031 4134 
L 1172 4863 
z
M 909 3500 
L 1484 3500 
L 800 0 
L 225 0 
L 909 3500 
z
" transform="scale(0.015625)"/>
       <path id="DejaVuSans-Oblique-62" d="M 3169 2138 
Q 3169 2591 2961 2847 
Q 2753 3103 2388 3103 
Q 2122 3103 1889 2973 
Q 1656 2844 1484 2597 
Q 1303 2338 1198 1995 
Q 1094 1653 1094 1313 
Q 1094 881 1298 636 
Q 1503 391 1863 391 
Q 2134 391 2365 517 
Q 2597 644 2772 891 
Q 2950 1147 3059 1487 
Q 3169 1828 3169 2138 
z
M 1381 2969 
Q 1594 3256 1914 3420 
Q 2234 3584 2584 3584 
Q 3122 3584 3439 3221 
Q 3756 2859 3756 2241 
Q 3756 1734 3570 1259 
Q 3384 784 3041 416 
Q 2816 172 2522 40 
Q 2228 -91 1906 -91 
Q 1566 -91 1316 65 
Q 1066 222 909 531 
L 806 0 
L 231 0 
L 1178 4863 
L 1753 4863 
L 1381 2969 
z
" transform="scale(0.015625)"/>
       <path id="DejaVuSans-b5" d="M 544 -1331 
L 544 3500 
L 1119 3500 
L 1119 1325 
Q 1119 872 1334 640 
Q 1550 409 1972 409 
Q 2434 409 2667 671 
Q 2900 934 2900 1459 
L 2900 3500 
L 3475 3500 
L 3475 806 
Q 3475 619 3529 530 
Q 3584 441 3700 441 
Q 3728 441 3778 458 
Q 3828 475 3916 513 
L 3916 50 
Q 3788 -22 3673 -56 
Q 3559 -91 3450 -91 
Q 3234 -91 3106 31 
Q 2978 153 2931 403 
Q 2775 156 2548 32 
Q 2322 -91 2016 -91 
Q 1697 -91 1473 31 
Q 1250 153 1119 397 
L 1119 -1331 
L 544 -1331 
z
" transform="scale(0.015625)"/>
       <path id="DejaVuSans-53" d="M 3425 4513 
L 3425 3897 
Q 3066 4069 2747 4153 
Q 2428 4238 2131 4238 
Q 1616 4238 1336 4038 
Q 1056 3838 1056 3469 
Q 1056 3159 1242 3001 
Q 1428 2844 1947 2747 
L 2328 2669 
Q 3034 2534 3370 2195 
Q 3706 1856 3706 1288 
Q 3706 609 3251 259 
Q 2797 -91 1919 -91 
Q 1588 -91 1214 -16 
Q 841 59 441 206 
L 441 856 
Q 825 641 1194 531 
Q 1563 422 1919 422 
Q 2459 422 2753 634 
Q 3047 847 3047 1241 
Q 3047 1584 2836 1778 
Q 2625 1972 2144 2069 
L 1759 2144 
Q 1053 2284 737 2584 
Q 422 2884 422 3419 
Q 422 4038 858 4394 
Q 1294 4750 2059 4750 
Q 2388 4750 2728 4690 
Q 3069 4631 3425 4513 
z
" transform="scale(0.015625)"/>
      </defs>
      <use xlink:href="#DejaVuSans-Oblique-67" transform="translate(0 0.125)"/>
      <use xlink:href="#DejaVuSans-Oblique-49" transform="translate(63.476562 -16.28125) scale(0.7)"/>
      <use xlink:href="#DejaVuSans-Oblique-6e" transform="translate(84.121094 -16.28125) scale(0.7)"/>
      <use xlink:href="#DejaVuSans-Oblique-68" transform="translate(128.486328 -16.28125) scale(0.7)"/>
      <use xlink:href="#DejaVuSans-Oblique-69" transform="translate(172.851562 -16.28125) scale(0.7)"/>
      <use xlink:href="#DejaVuSans-Oblique-62" transform="translate(192.299805 -16.28125) scale(0.7)"/>
      <use xlink:href="#DejaVuSans-20" transform="translate(239.467773 0.125)"/>
      <use xlink:href="#DejaVuSans-28" transform="translate(271.254883 0.125)"/>
      <use xlink:href="#DejaVuSans-b5" transform="translate(310.268555 0.125)"/>
      <use xlink:href="#DejaVuSans-53" transform="translate(373.891602 0.125)"/>
      <use xlink:href="#DejaVuSans-29" transform="translate(437.368164 0.125)"/>
     </g>
    </g>
   </g>
   <g id="line2d_25">
    <path d="M 108 175.465325 
L 109.3392 177.721675 
L 110.0088 171.485484 
L 110.6784 169.912998 
L 112.0176 172.188356 
L 112.6872 173.378328 
L 113.3568 167.211933 
L 114.0264 165.708121 
L 114.696 159.504398 
L 115.3656 158.124442 
L 116.7048 160.775628 
L 118.7136 164.82988 
L 119.3832 158.800854 
L 120.0528 157.432204 
L 120.7224 151.36147 
L 121.392 150.112367 
L 122.7312 153.018984 
L 123.4008 147.179753 
L 124.0704 145.997848 
L 124.74 140.110859 
L 125.4096 124.368057 
L 126.0792 113.281143 
L 126.7488 104.985558 
L 127.4184 104.321109 
L 128.088 99.103843 
L 128.7576 98.694493 
L 129.4272 93.567645 
L 130.0968 93.247259 
L 132.1056 100.349452 
L 132.7752 95.356593 
L 133.4448 95.00746 
L 136.1232 104.343595 
L 136.7928 99.286552 
L 137.4624 91.537021 
L 138.132 91.088682 
L 141.48 103.009926 
L 142.1496 97.974314 
L 142.8192 90.24587 
L 143.4888 89.818279 
L 144.1584 92.171312 
L 144.828 87.309872 
L 145.4976 87.090045 
L 150.1848 104.006249 
L 150.8544 98.954627 
L 151.524 98.547675 
L 153.5328 105.398428 
L 154.2024 100.324435 
L 154.872 99.89547 
L 155.5416 102.086568 
L 156.2112 97.065794 
L 156.8808 96.689195 
L 163.5768 118.917036 
L 166.9248 128.823565 
L 170.2728 137.959305 
L 173.6208 146.384226 
L 176.9688 154.153635 
L 180.3168 161.318535 
L 183.6648 167.925961 
L 187.0128 174.019287 
L 190.3608 179.638514 
L 193.7088 184.82053 
L 197.0568 189.599352 
L 200.4048 194.006352 
L 203.7528 198.070459 
L 206.4312 201.092862 
L 207.1008 194.481108 
L 207.7704 185.20185 
L 208.44 183.248365 
L 209.7792 185.098582 
L 211.1184 187.047816 
L 211.788 180.661759 
L 212.4576 178.941815 
L 213.7968 180.929328 
L 217.1448 186.01091 
L 219.1536 188.868053 
L 219.8232 182.452746 
L 220.4928 180.704022 
L 221.1624 174.259322 
L 221.832 165.305017 
L 222.5016 163.671265 
L 223.1712 157.500273 
L 223.8408 156.152522 
L 225.18 158.866575 
L 227.8584 164.34883 
L 228.528 158.327533 
L 229.1976 149.629244 
L 229.8672 148.247393 
L 231.876 152.740494 
L 235.224 160.015346 
L 236.5632 162.764252 
L 237.2328 156.768419 
L 237.9024 155.432429 
L 238.572 156.731076 
L 239.2416 150.832194 
L 239.9112 134.917105 
L 240.5808 130.997919 
L 241.2504 132.528632 
L 243.9288 139.663464 
L 244.5984 126.701604 
L 245.268 123.07502 
L 245.9376 117.395805 
L 246.6072 109.355267 
L 247.2768 108.620598 
L 247.9464 110.671488 
L 248.616 105.512759 
L 249.2856 97.663176 
L 249.9552 97.116393 
L 250.6248 92.014904 
L 251.2944 91.719469 
L 252.6336 96.487695 
L 253.3032 91.556893 
L 253.9728 91.268818 
L 254.6424 93.598542 
L 255.312 88.714166 
L 255.9816 88.471773 
L 256.6512 83.509199 
L 257.3208 83.350447 
L 264.0168 107.573214 
L 266.0256 114.151279 
L 266.6952 108.936631 
L 267.3648 108.369274 
L 270.0432 116.867021 
L 270.7128 111.608733 
L 271.3824 103.661191 
L 272.052 103.018023 
L 272.7216 97.821697 
L 273.3912 90.095706 
L 274.0608 89.670528 
L 274.7304 84.68869 
L 275.4 84.510984 
L 276.0696 86.949302 
L 276.7392 82.171777 
L 277.4088 82.034517 
L 284.1048 106.454093 
L 287.4528 117.330319 
L 290.8008 127.360305 
L 294.1488 136.609895 
L 297.4968 145.139809 
L 300.8448 153.006042 
L 304.1928 160.260232 
L 307.5408 166.95 
L 310.8888 173.119262 
L 314.2368 178.808517 
L 317.5848 184.055112 
L 320.9328 188.893488 
L 324.2808 193.355409 
L 327.6288 197.470164 
L 330.9768 201.264765 
L 333.6552 204.08674 
L 334.3248 197.426877 
L 334.9944 195.437526 
L 336.3336 196.899143 
L 339.6816 200.738173 
L 343.0296 204.278502 
L 345.708 206.911381 
L 346.3776 200.206127 
L 347.0472 198.172115 
L 347.7168 198.783957 
L 348.3864 192.209306 
L 349.056 182.966554 
L 349.7256 181.04899 
L 351.0648 182.969325 
L 354.4128 187.892182 
L 357.7608 192.432011 
L 359.1 194.147449 
L 359.7696 187.647305 
L 360.4392 185.815107 
L 361.7784 187.583494 
L 362.448 181.188829 
L 363.1176 179.460415 
L 364.4568 181.431395 
L 365.1264 175.135591 
L 365.796 173.50445 
L 367.1352 175.66531 
L 367.8048 176.799409 
L 368.4744 170.578038 
L 369.144 169.020135 
L 370.4832 171.323958 
L 371.1528 172.52782 
L 371.8224 166.375092 
L 372.492 164.884728 
L 373.1616 166.031481 
L 373.8312 159.983146 
L 374.5008 158.595497 
L 375.1704 145.168825 
L 375.84 141.245482 
L 376.5096 135.274277 
L 377.1792 134.283687 
L 377.8488 128.584939 
L 378.5184 127.701843 
L 379.188 129.446106 
L 379.8576 123.985679 
L 381.1968 107.663137 
L 381.8664 106.95566 
L 383.2056 111.238145 
L 383.8752 106.07031 
L 384.5448 105.549013 
L 385.884 109.876343 
L 386.5536 104.730391 
L 387.2232 104.230626 
L 387.8928 99.014814 
L 388.5624 83.932405 
L 389.232 80.832516 
L 390.5712 85.789823 
L 391.9104 90.905094 
L 392.58 86.064001 
L 393.2496 85.864194 
L 394.5888 90.819091 
L 395.2584 85.97938 
L 395.928 85.780933 
L 398.6064 95.695988 
L 399.276 90.777908 
L 399.9456 90.502352 
L 400.6152 92.844392 
L 401.2848 87.972135 
L 401.9544 87.741666 
L 403.9632 95.105033 
L 404.6328 90.196449 
L 405.3024 89.930237 
L 408.6504 101.941614 
L 409.32 96.92317 
L 409.9896 96.548862 
L 416.6856 118.797691 
L 420.0336 128.713507 
L 420.7032 130.602097 
L 421.3728 125.123094 
L 422.0424 124.295628 
L 424.7208 131.794074 
L 428.0688 140.698689 
L 431.4168 148.910469 
L 432.0864 150.474504 
L 432.756 144.676162 
L 433.4256 143.534488 
L 435.4344 148.25116 
L 438.7824 155.87531 
L 442.1304 162.906253 
L 445.4784 169.390144 
L 448.8264 175.369547 
L 452.1744 180.883716 
L 455.5224 185.968847 
L 458.8704 190.658323 
L 462.2184 194.982928 
L 465.5664 198.971052 
L 468.9144 202.648874 
L 472.2624 206.040539 
L 476.28 209.764033 
L 480.2976 213.142637 
L 480.9672 213.674495 
L 481.6368 206.860561 
L 482.3064 204.719616 
L 482.976 205.226243 
L 484.3152 206.533792 
L 484.9848 199.834606 
L 485.6544 190.469319 
L 486.324 188.431189 
L 486.9936 189.199563 
L 488.3328 163.694626 
L 489.0024 161.926168 
L 490.3416 164.456152 
L 493.02 169.587688 
L 493.6896 163.482206 
L 494.3592 162.038329 
L 495.6984 164.564738 
L 499.0464 170.919588 
L 499.716 172.129949 
L 500.3856 158.646369 
L 501.0552 154.506449 
L 501.7248 155.659392 
L 502.3944 149.777731 
L 503.064 133.879588 
L 503.7336 129.977073 
L 504.4032 131.524191 
L 507.0816 138.722046 
L 507.7512 133.11256 
L 508.4208 132.156707 
L 510.4296 137.413117 
L 513.7776 145.880535 
L 514.4472 140.156015 
L 515.1168 139.086978 
L 515.7864 140.648288 
L 516.456 135.007847 
L 517.1256 134.021539 
L 518.4648 137.441143 
L 519.1344 131.85224 
L 519.804 130.91664 
L 520.4736 132.609243 
L 521.1432 127.097986 
L 521.8128 126.238784 
L 522.4824 128.006558 
L 523.152 122.569264 
L 523.8216 121.782837 
L 525.1608 125.59262 
L 525.8304 120.194117 
L 526.5 119.445857 
L 528.5088 125.305243 
L 529.1784 119.911357 
L 529.848 119.167641 
L 530.5176 121.049045 
L 531.1872 115.723554 
L 531.8568 115.047134 
L 532.5264 109.657507 
L 533.196 109.078565 
L 533.8656 103.78485 
L 534.5352 88.625788 
L 535.2048 85.450479 
L 536.544 90.260562 
L 539.892 102.396746 
L 541.9008 109.220371 
L 542.5704 104.084961 
L 543.24 103.595567 
L 543.9096 98.389961 
L 544.5792 90.654838 
L 545.2488 90.220675 
L 549.936 106.801256 
L 550.6056 101.70472 
L 551.2752 101.253575 
L 558.6408 124.78241 
L 561.9888 134.232576 
L 565.3368 142.94746 
L 566.676 146.240503 
L 567.3456 140.510199 
L 568.0152 139.43547 
L 570.024 144.346591 
L 573.372 152.274541 
L 576.72 159.585646 
L 580.068 166.327902 
L 583.416 172.545567 
L 586.764 178.279459 
L 590.112 183.567218 
L 593.46 188.443555 
L 594.1296 182.035069 
L 594.7992 180.293057 
L 596.1384 182.237492 
L 599.4864 187.217291 
L 602.8344 191.80963 
L 606.1824 196.044656 
L 609.5304 199.95017 
L 612.8784 203.551811 
L 615.5568 206.230286 
L 616.2264 199.535976 
L 616.896 197.512734 
L 618.2352 198.908192 
L 618.9048 192.331545 
L 619.5744 190.424073 
L 620.9136 192.045523 
L 624.2616 196.262195 
L 625.6008 197.855525 
L 626.2704 191.295794 
L 626.94 189.404966 
L 628.2792 191.058906 
L 628.9488 191.945638 
L 629.6184 185.480875 
L 630.288 183.683491 
L 630.9576 184.528158 
L 631.6272 170.845345 
L 632.2968 166.509394 
L 632.9664 160.132211 
L 633.636 158.742167 
L 634.9752 161.373659 
L 635.6448 148.062928 
L 636.3144 144.093078 
L 636.984 145.413359 
L 637.6536 139.696346 
L 638.3232 138.634696 
L 640.332 143.583803 
L 641.0016 145.233436 
L 643.68 94.589568 
L 644.3496 86.594347 
L 645.0192 86.225434 
L 645.6888 81.298957 
L 646.3584 81.175723 
L 649.0368 91.379732 
L 649.7064 86.531012 
L 650.376 86.323701 
L 653.0544 96.204699 
L 653.724 91.278444 
L 654.3936 90.994845 
L 661.0896 114.074326 
L 661.7592 108.860915 
L 662.4288 93.620284 
L 663.0984 90.364716 
L 663.768 92.548384 
L 664.4376 87.680884 
L 665.1072 87.455095 
L 665.7768 89.846103 
L 666.4464 85.022027 
L 667.116 84.838965 
L 668.4552 89.826546 
L 669.1248 85.002785 
L 669.7944 84.820032 
L 675.8208 106.578726 
L 676.4904 101.485765 
L 677.16 101.038139 
L 679.1688 107.770749 
L 679.8384 102.658634 
L 680.508 102.19216 
L 681.8472 106.626509 
L 682.5168 101.532781 
L 683.1864 101.084399 
L 690.552 124.640848 
L 693.9 134.102029 
L 697.248 142.82707 
L 700.596 150.873249 
L 703.944 158.293384 
L 707.292 165.136185 
L 710.64 171.446574 
L 713.988 177.265974 
L 717.336 182.632588 
L 720.684 187.581646 
L 724.032 192.145636 
L 727.38 196.354519 
L 730.728 200.235924 
L 734.076 203.815331 
L 737.424 207.116238 
L 741.4416 210.740096 
L 745.4592 214.028292 
L 748.1376 216.049419 
L 748.8072 209.197321 
L 749.4768 207.018825 
L 750.1464 207.488505 
L 754.164 211.077882 
L 754.8336 211.642919 
L 755.5032 204.861631 
L 756.8424 185.960704 
L 757.512 161.98329 
L 758.8512 148.504918 
L 759.5208 147.301718 
L 760.86 150.297941 
L 761.5296 144.502435 
L 762.1992 143.363553 
L 763.5384 146.485327 
L 764.208 140.751089 
L 764.8776 139.672489 
L 766.8864 144.572366 
L 770.2344 152.482749 
L 771.5736 155.4718 
L 772.2432 142.255908 
L 772.9128 138.379374 
L 773.5824 139.791472 
L 774.252 134.1648 
L 774.9216 133.192038 
L 776.2608 136.638088 
L 776.9304 131.062089 
L 777.6 122.801941 
L 777.6 122.801941 
" clip-path="url(#pce890de76e)" style="fill: none; stroke: #ff4500; stroke-width: 1.5; stroke-linecap: square"/>
   </g>
   <g id="patch_3">
    <path d="M 108 256.32 
L 108 34.56 
" style="fill: none; stroke: #000000; stroke-width: 0.8; stroke-linejoin: miter; stroke-linecap: square"/>
   </g>
   <g id="patch_4">
    <path d="M 777.6 256.32 
L 777.6 34.56 
" style="fill: none; stroke: #000000; stroke-width: 0.8; stroke-linejoin: miter; stroke-linecap: square"/>
   </g>
   <g id="patch_5">
    <path d="M 108 256.32 
L 777.6 256.32 
" style="fill: none; stroke: #000000; stroke-width: 0.8; stroke-linejoin: miter; stroke-linecap: square"/>
   </g>
   <g id="patch_6">
    <path d="M 108 34.56 
L 777.6 34.56 
" style="fill: none; stroke: #000000; stroke-width: 0.8; stroke-linejoin: miter; stroke-linecap: square"/>
   </g>
  </g>
 </g>
 <defs>
  <clipPath id="pce890de76e">
   <rect x="108" y="34.56" width="669.6" height="221.76"/>
  </clipPath>
 </defs>
</svg>
