<?xml version="1.0" encoding="utf-8" standalone="no"?>
<!DOCTYPE svg PUBLIC "-//W3C//DTD SVG 1.1//EN"
  "http://www.w3.org/Graphics/SVG/1.1/DTD/svg11.dtd">
<svg xmlns:xlink="http://www.w3.org/1999/xlink" width="864pt" height="288pt" viewBox="0 0 864 288" xmlns="http://www.w3.org/2000/svg" version="1.1">
 <metadata>
  <rdf:RDF xmlns:dc="http://purl.org/dc/elements/1.1/" xmlns:cc="http://creativecommons.org/ns#" xmlns:rdf="http://www.w3.org/1999/02/22-rdf-syntax-ns#">
   <cc:Work>
    <dc:type rdf:resource="http://purl.org/dc/dcmitype/StillImage"/>
    <dc:date>2024-04-26T13:29:04.533164</dc:date>
    <dc:format>image/svg+xml</dc:format>
    <dc:creator>
     <cc:Agent>
      <dc:title>Matplotlib v3.8.2, https://matplotlib.org/</dc:title>
     </cc:Agent>
    </dc:creator>
   </cc:Work>
  </rdf:RDF>
 </metadata>
 <defs>
  <style type="text/css">*{stroke-linejoin: round; stroke-linecap: butt}</style>
 </defs>
 <g id="figure_1">
  <g id="patch_1">
   <path d="M 0 288 
L 864 288 
L 864 0 
L 0 0 
z
" style="fill: #ffffff"/>
  </g>
  <g id="axes_1">
   <g id="patch_2">
    <path d="M 108 256.32 
L 777.6 256.32 
L 777.6 34.56 
L 108 34.56 
z
" style="fill: #ffffff"/>
   </g>
   <g id="matplotlib.axis_1">
    <g id="xtick_1">
     <g id="line2d_1">
      <path d="M 108 256.32 
L 108 34.56 
" clip-path="url(#pc5a29dfa85)" style="fill: none; stroke: #b0b0b0; stroke-width: 0.8; stroke-linecap: square"/>
     </g>
     <g id="line2d_2">
      <defs>
       <path id="m8b5ef376b1" d="M 0 0 
L 0 3.5 
" style="stroke: #000000; stroke-width: 0.8"/>
      </defs>
      <g>
       <use xlink:href="#m8b5ef376b1" x="108" y="256.32" style="stroke: #000000; stroke-width: 0.8"/>
      </g>
     </g>
     <g id="text_1">
      <!-- 100 -->
      <g transform="translate(94.63875 273.957812) scale(0.14 -0.14)">
       <defs>
        <path id="DejaVuSans-31" d="M 794 531 
L 1825 531 
L 1825 4091 
L 703 3866 
L 703 4441 
L 1819 4666 
L 2450 4666 
L 2450 531 
L 3481 531 
L 3481 0 
L 794 0 
L 794 531 
z
" transform="scale(0.015625)"/>
        <path id="DejaVuSans-30" d="M 2034 4250 
Q 1547 4250 1301 3770 
Q 1056 3291 1056 2328 
Q 1056 1369 1301 889 
Q 1547 409 2034 409 
Q 2525 409 2770 889 
Q 3016 1369 3016 2328 
Q 3016 3291 2770 3770 
Q 2525 4250 2034 4250 
z
M 2034 4750 
Q 2819 4750 3233 4129 
Q 3647 3509 3647 2328 
Q 3647 1150 3233 529 
Q 2819 -91 2034 -91 
Q 1250 -91 836 529 
Q 422 1150 422 2328 
Q 422 3509 836 4129 
Q 1250 4750 2034 4750 
z
" transform="scale(0.015625)"/>
       </defs>
       <use xlink:href="#DejaVuSans-31"/>
       <use xlink:href="#DejaVuSans-30" x="63.623047"/>
       <use xlink:href="#DejaVuSans-30" x="127.246094"/>
      </g>
     </g>
    </g>
    <g id="xtick_2">
     <g id="line2d_3">
      <path d="M 241.92 256.32 
L 241.92 34.56 
" clip-path="url(#pc5a29dfa85)" style="fill: none; stroke: #b0b0b0; stroke-width: 0.8; stroke-linecap: square"/>
     </g>
     <g id="line2d_4">
      <g>
       <use xlink:href="#m8b5ef376b1" x="241.92" y="256.32" style="stroke: #000000; stroke-width: 0.8"/>
      </g>
     </g>
     <g id="text_2">
      <!-- 120 -->
      <g transform="translate(228.55875 273.957812) scale(0.14 -0.14)">
       <defs>
        <path id="DejaVuSans-32" d="M 1228 531 
L 3431 531 
L 3431 0 
L 469 0 
L 469 531 
Q 828 903 1448 1529 
Q 2069 2156 2228 2338 
Q 2531 2678 2651 2914 
Q 2772 3150 2772 3378 
Q 2772 3750 2511 3984 
Q 2250 4219 1831 4219 
Q 1534 4219 1204 4116 
Q 875 4013 500 3803 
L 500 4441 
Q 881 4594 1212 4672 
Q 1544 4750 1819 4750 
Q 2544 4750 2975 4387 
Q 3406 4025 3406 3419 
Q 3406 3131 3298 2873 
Q 3191 2616 2906 2266 
Q 2828 2175 2409 1742 
Q 1991 1309 1228 531 
z
" transform="scale(0.015625)"/>
       </defs>
       <use xlink:href="#DejaVuSans-31"/>
       <use xlink:href="#DejaVuSans-32" x="63.623047"/>
       <use xlink:href="#DejaVuSans-30" x="127.246094"/>
      </g>
     </g>
    </g>
    <g id="xtick_3">
     <g id="line2d_5">
      <path d="M 375.84 256.32 
L 375.84 34.56 
" clip-path="url(#pc5a29dfa85)" style="fill: none; stroke: #b0b0b0; stroke-width: 0.8; stroke-linecap: square"/>
     </g>
     <g id="line2d_6">
      <g>
       <use xlink:href="#m8b5ef376b1" x="375.84" y="256.32" style="stroke: #000000; stroke-width: 0.8"/>
      </g>
     </g>
     <g id="text_3">
      <!-- 140 -->
      <g transform="translate(362.47875 273.957812) scale(0.14 -0.14)">
       <defs>
        <path id="DejaVuSans-34" d="M 2419 4116 
L 825 1625 
L 2419 1625 
L 2419 4116 
z
M 2253 4666 
L 3047 4666 
L 3047 1625 
L 3713 1625 
L 3713 1100 
L 3047 1100 
L 3047 0 
L 2419 0 
L 2419 1100 
L 313 1100 
L 313 1709 
L 2253 4666 
z
" transform="scale(0.015625)"/>
       </defs>
       <use xlink:href="#DejaVuSans-31"/>
       <use xlink:href="#DejaVuSans-34" x="63.623047"/>
       <use xlink:href="#DejaVuSans-30" x="127.246094"/>
      </g>
     </g>
    </g>
    <g id="xtick_4">
     <g id="line2d_7">
      <path d="M 509.76 256.32 
L 509.76 34.56 
" clip-path="url(#pc5a29dfa85)" style="fill: none; stroke: #b0b0b0; stroke-width: 0.8; stroke-linecap: square"/>
     </g>
     <g id="line2d_8">
      <g>
       <use xlink:href="#m8b5ef376b1" x="509.76" y="256.32" style="stroke: #000000; stroke-width: 0.8"/>
      </g>
     </g>
     <g id="text_4">
      <!-- 160 -->
      <g transform="translate(496.39875 273.957812) scale(0.14 -0.14)">
       <defs>
        <path id="DejaVuSans-36" d="M 2113 2584 
Q 1688 2584 1439 2293 
Q 1191 2003 1191 1497 
Q 1191 994 1439 701 
Q 1688 409 2113 409 
Q 2538 409 2786 701 
Q 3034 994 3034 1497 
Q 3034 2003 2786 2293 
Q 2538 2584 2113 2584 
z
M 3366 4563 
L 3366 3988 
Q 3128 4100 2886 4159 
Q 2644 4219 2406 4219 
Q 1781 4219 1451 3797 
Q 1122 3375 1075 2522 
Q 1259 2794 1537 2939 
Q 1816 3084 2150 3084 
Q 2853 3084 3261 2657 
Q 3669 2231 3669 1497 
Q 3669 778 3244 343 
Q 2819 -91 2113 -91 
Q 1303 -91 875 529 
Q 447 1150 447 2328 
Q 447 3434 972 4092 
Q 1497 4750 2381 4750 
Q 2619 4750 2861 4703 
Q 3103 4656 3366 4563 
z
" transform="scale(0.015625)"/>
       </defs>
       <use xlink:href="#DejaVuSans-31"/>
       <use xlink:href="#DejaVuSans-36" x="63.623047"/>
       <use xlink:href="#DejaVuSans-30" x="127.246094"/>
      </g>
     </g>
    </g>
    <g id="xtick_5">
     <g id="line2d_9">
      <path d="M 643.68 256.32 
L 643.68 34.56 
" clip-path="url(#pc5a29dfa85)" style="fill: none; stroke: #b0b0b0; stroke-width: 0.8; stroke-linecap: square"/>
     </g>
     <g id="line2d_10">
      <g>
       <use xlink:href="#m8b5ef376b1" x="643.68" y="256.32" style="stroke: #000000; stroke-width: 0.8"/>
      </g>
     </g>
     <g id="text_5">
      <!-- 180 -->
      <g transform="translate(630.31875 273.957812) scale(0.14 -0.14)">
       <defs>
        <path id="DejaVuSans-38" d="M 2034 2216 
Q 1584 2216 1326 1975 
Q 1069 1734 1069 1313 
Q 1069 891 1326 650 
Q 1584 409 2034 409 
Q 2484 409 2743 651 
Q 3003 894 3003 1313 
Q 3003 1734 2745 1975 
Q 2488 2216 2034 2216 
z
M 1403 2484 
Q 997 2584 770 2862 
Q 544 3141 544 3541 
Q 544 4100 942 4425 
Q 1341 4750 2034 4750 
Q 2731 4750 3128 4425 
Q 3525 4100 3525 3541 
Q 3525 3141 3298 2862 
Q 3072 2584 2669 2484 
Q 3125 2378 3379 2068 
Q 3634 1759 3634 1313 
Q 3634 634 3220 271 
Q 2806 -91 2034 -91 
Q 1263 -91 848 271 
Q 434 634 434 1313 
Q 434 1759 690 2068 
Q 947 2378 1403 2484 
z
M 1172 3481 
Q 1172 3119 1398 2916 
Q 1625 2713 2034 2713 
Q 2441 2713 2670 2916 
Q 2900 3119 2900 3481 
Q 2900 3844 2670 4047 
Q 2441 4250 2034 4250 
Q 1625 4250 1398 4047 
Q 1172 3844 1172 3481 
z
" transform="scale(0.015625)"/>
       </defs>
       <use xlink:href="#DejaVuSans-31"/>
       <use xlink:href="#DejaVuSans-38" x="63.623047"/>
       <use xlink:href="#DejaVuSans-30" x="127.246094"/>
      </g>
     </g>
    </g>
    <g id="xtick_6">
     <g id="line2d_11">
      <path d="M 777.6 256.32 
L 777.6 34.56 
" clip-path="url(#pc5a29dfa85)" style="fill: none; stroke: #b0b0b0; stroke-width: 0.8; stroke-linecap: square"/>
     </g>
     <g id="line2d_12">
      <g>
       <use xlink:href="#m8b5ef376b1" x="777.6" y="256.32" style="stroke: #000000; stroke-width: 0.8"/>
      </g>
     </g>
     <g id="text_6">
      <!-- 200 -->
      <g transform="translate(764.23875 273.957812) scale(0.14 -0.14)">
       <use xlink:href="#DejaVuSans-32"/>
       <use xlink:href="#DejaVuSans-30" x="63.623047"/>
       <use xlink:href="#DejaVuSans-30" x="127.246094"/>
      </g>
     </g>
    </g>
    <g id="text_7">
     <!-- Time (ms) -->
     <g transform="translate(407.521094 291.507187) scale(0.14 -0.14)">
      <defs>
       <path id="DejaVuSans-54" d="M -19 4666 
L 3928 4666 
L 3928 4134 
L 2272 4134 
L 2272 0 
L 1638 0 
L 1638 4134 
L -19 4134 
L -19 4666 
z
" transform="scale(0.015625)"/>
       <path id="DejaVuSans-69" d="M 603 3500 
L 1178 3500 
L 1178 0 
L 603 0 
L 603 3500 
z
M 603 4863 
L 1178 4863 
L 1178 4134 
L 603 4134 
L 603 4863 
z
" transform="scale(0.015625)"/>
       <path id="DejaVuSans-6d" d="M 3328 2828 
Q 3544 3216 3844 3400 
Q 4144 3584 4550 3584 
Q 5097 3584 5394 3201 
Q 5691 2819 5691 2113 
L 5691 0 
L 5113 0 
L 5113 2094 
Q 5113 2597 4934 2840 
Q 4756 3084 4391 3084 
Q 3944 3084 3684 2787 
Q 3425 2491 3425 1978 
L 3425 0 
L 2847 0 
L 2847 2094 
Q 2847 2600 2669 2842 
Q 2491 3084 2119 3084 
Q 1678 3084 1418 2786 
Q 1159 2488 1159 1978 
L 1159 0 
L 581 0 
L 581 3500 
L 1159 3500 
L 1159 2956 
Q 1356 3278 1631 3431 
Q 1906 3584 2284 3584 
Q 2666 3584 2933 3390 
Q 3200 3197 3328 2828 
z
" transform="scale(0.015625)"/>
       <path id="DejaVuSans-65" d="M 3597 1894 
L 3597 1613 
L 953 1613 
Q 991 1019 1311 708 
Q 1631 397 2203 397 
Q 2534 397 2845 478 
Q 3156 559 3463 722 
L 3463 178 
Q 3153 47 2828 -22 
Q 2503 -91 2169 -91 
Q 1331 -91 842 396 
Q 353 884 353 1716 
Q 353 2575 817 3079 
Q 1281 3584 2069 3584 
Q 2775 3584 3186 3129 
Q 3597 2675 3597 1894 
z
M 3022 2063 
Q 3016 2534 2758 2815 
Q 2500 3097 2075 3097 
Q 1594 3097 1305 2825 
Q 1016 2553 972 2059 
L 3022 2063 
z
" transform="scale(0.015625)"/>
       <path id="DejaVuSans-20" transform="scale(0.015625)"/>
       <path id="DejaVuSans-28" d="M 1984 4856 
Q 1566 4138 1362 3434 
Q 1159 2731 1159 2009 
Q 1159 1288 1364 580 
Q 1569 -128 1984 -844 
L 1484 -844 
Q 1016 -109 783 600 
Q 550 1309 550 2009 
Q 550 2706 781 3412 
Q 1013 4119 1484 4856 
L 1984 4856 
z
" transform="scale(0.015625)"/>
       <path id="DejaVuSans-73" d="M 2834 3397 
L 2834 2853 
Q 2591 2978 2328 3040 
Q 2066 3103 1784 3103 
Q 1356 3103 1142 2972 
Q 928 2841 928 2578 
Q 928 2378 1081 2264 
Q 1234 2150 1697 2047 
L 1894 2003 
Q 2506 1872 2764 1633 
Q 3022 1394 3022 966 
Q 3022 478 2636 193 
Q 2250 -91 1575 -91 
Q 1294 -91 989 -36 
Q 684 19 347 128 
L 347 722 
Q 666 556 975 473 
Q 1284 391 1588 391 
Q 1994 391 2212 530 
Q 2431 669 2431 922 
Q 2431 1156 2273 1281 
Q 2116 1406 1581 1522 
L 1381 1569 
Q 847 1681 609 1914 
Q 372 2147 372 2553 
Q 372 3047 722 3315 
Q 1072 3584 1716 3584 
Q 2034 3584 2315 3537 
Q 2597 3491 2834 3397 
z
" transform="scale(0.015625)"/>
       <path id="DejaVuSans-29" d="M 513 4856 
L 1013 4856 
Q 1481 4119 1714 3412 
Q 1947 2706 1947 2009 
Q 1947 1309 1714 600 
Q 1481 -109 1013 -844 
L 513 -844 
Q 928 -128 1133 580 
Q 1338 1288 1338 2009 
Q 1338 2731 1133 3434 
Q 928 4138 513 4856 
z
" transform="scale(0.015625)"/>
      </defs>
      <use xlink:href="#DejaVuSans-54"/>
      <use xlink:href="#DejaVuSans-69" x="57.958984"/>
      <use xlink:href="#DejaVuSans-6d" x="85.742188"/>
      <use xlink:href="#DejaVuSans-65" x="183.154297"/>
      <use xlink:href="#DejaVuSans-20" x="244.677734"/>
      <use xlink:href="#DejaVuSans-28" x="276.464844"/>
      <use xlink:href="#DejaVuSans-6d" x="315.478516"/>
      <use xlink:href="#DejaVuSans-73" x="412.890625"/>
      <use xlink:href="#DejaVuSans-29" x="464.990234"/>
     </g>
    </g>
   </g>
   <g id="matplotlib.axis_2">
    <g id="ytick_1">
     <g id="line2d_13">
      <path d="M 108 246.24 
L 777.6 246.24 
" clip-path="url(#pc5a29dfa85)" style="fill: none; stroke: #b0b0b0; stroke-width: 0.8; stroke-linecap: square"/>
     </g>
     <g id="line2d_14">
      <defs>
       <path id="me999bcf73f" d="M 0 0 
L -3.5 0 
" style="stroke: #000000; stroke-width: 0.8"/>
      </defs>
      <g>
       <use xlink:href="#me999bcf73f" x="108" y="246.24" style="stroke: #000000; stroke-width: 0.8"/>
      </g>
     </g>
     <g id="text_8">
      <!-- 0.00 -->
      <g transform="translate(69.828125 251.558906) scale(0.14 -0.14)">
       <defs>
        <path id="DejaVuSans-2e" d="M 684 794 
L 1344 794 
L 1344 0 
L 684 0 
L 684 794 
z
" transform="scale(0.015625)"/>
       </defs>
       <use xlink:href="#DejaVuSans-30"/>
       <use xlink:href="#DejaVuSans-2e" x="63.623047"/>
       <use xlink:href="#DejaVuSans-30" x="95.410156"/>
       <use xlink:href="#DejaVuSans-30" x="159.033203"/>
      </g>
     </g>
    </g>
    <g id="ytick_2">
     <g id="line2d_15">
      <path d="M 108 207.315853 
L 777.6 207.315853 
" clip-path="url(#pc5a29dfa85)" style="fill: none; stroke: #b0b0b0; stroke-width: 0.8; stroke-linecap: square"/>
     </g>
     <g id="line2d_16">
      <g>
       <use xlink:href="#me999bcf73f" x="108" y="207.315853" style="stroke: #000000; stroke-width: 0.8"/>
      </g>
     </g>
     <g id="text_9">
      <!-- 0.05 -->
      <g transform="translate(69.828125 212.634759) scale(0.14 -0.14)">
       <defs>
        <path id="DejaVuSans-35" d="M 691 4666 
L 3169 4666 
L 3169 4134 
L 1269 4134 
L 1269 2991 
Q 1406 3038 1543 3061 
Q 1681 3084 1819 3084 
Q 2600 3084 3056 2656 
Q 3513 2228 3513 1497 
Q 3513 744 3044 326 
Q 2575 -91 1722 -91 
Q 1428 -91 1123 -41 
Q 819 9 494 109 
L 494 744 
Q 775 591 1075 516 
Q 1375 441 1709 441 
Q 2250 441 2565 725 
Q 2881 1009 2881 1497 
Q 2881 1984 2565 2268 
Q 2250 2553 1709 2553 
Q 1456 2553 1204 2497 
Q 953 2441 691 2322 
L 691 4666 
z
" transform="scale(0.015625)"/>
       </defs>
       <use xlink:href="#DejaVuSans-30"/>
       <use xlink:href="#DejaVuSans-2e" x="63.623047"/>
       <use xlink:href="#DejaVuSans-30" x="95.410156"/>
       <use xlink:href="#DejaVuSans-35" x="159.033203"/>
      </g>
     </g>
    </g>
    <g id="ytick_3">
     <g id="line2d_17">
      <path d="M 108 168.391706 
L 777.6 168.391706 
" clip-path="url(#pc5a29dfa85)" style="fill: none; stroke: #b0b0b0; stroke-width: 0.8; stroke-linecap: square"/>
     </g>
     <g id="line2d_18">
      <g>
       <use xlink:href="#me999bcf73f" x="108" y="168.391706" style="stroke: #000000; stroke-width: 0.8"/>
      </g>
     </g>
     <g id="text_10">
      <!-- 0.10 -->
      <g transform="translate(69.828125 173.710612) scale(0.14 -0.14)">
       <use xlink:href="#DejaVuSans-30"/>
       <use xlink:href="#DejaVuSans-2e" x="63.623047"/>
       <use xlink:href="#DejaVuSans-31" x="95.410156"/>
       <use xlink:href="#DejaVuSans-30" x="159.033203"/>
      </g>
     </g>
    </g>
    <g id="ytick_4">
     <g id="line2d_19">
      <path d="M 108 129.467559 
L 777.6 129.467559 
" clip-path="url(#pc5a29dfa85)" style="fill: none; stroke: #b0b0b0; stroke-width: 0.8; stroke-linecap: square"/>
     </g>
     <g id="line2d_20">
      <g>
       <use xlink:href="#me999bcf73f" x="108" y="129.467559" style="stroke: #000000; stroke-width: 0.8"/>
      </g>
     </g>
     <g id="text_11">
      <!-- 0.15 -->
      <g transform="translate(69.828125 134.786465) scale(0.14 -0.14)">
       <use xlink:href="#DejaVuSans-30"/>
       <use xlink:href="#DejaVuSans-2e" x="63.623047"/>
       <use xlink:href="#DejaVuSans-31" x="95.410156"/>
       <use xlink:href="#DejaVuSans-35" x="159.033203"/>
      </g>
     </g>
    </g>
    <g id="ytick_5">
     <g id="line2d_21">
      <path d="M 108 90.543412 
L 777.6 90.543412 
" clip-path="url(#pc5a29dfa85)" style="fill: none; stroke: #b0b0b0; stroke-width: 0.8; stroke-linecap: square"/>
     </g>
     <g id="line2d_22">
      <g>
       <use xlink:href="#me999bcf73f" x="108" y="90.543412" style="stroke: #000000; stroke-width: 0.8"/>
      </g>
     </g>
     <g id="text_12">
      <!-- 0.20 -->
      <g transform="translate(69.828125 95.862318) scale(0.14 -0.14)">
       <use xlink:href="#DejaVuSans-30"/>
       <use xlink:href="#DejaVuSans-2e" x="63.623047"/>
       <use xlink:href="#DejaVuSans-32" x="95.410156"/>
       <use xlink:href="#DejaVuSans-30" x="159.033203"/>
      </g>
     </g>
    </g>
    <g id="ytick_6">
     <g id="line2d_23">
      <path d="M 108 51.619265 
L 777.6 51.619265 
" clip-path="url(#pc5a29dfa85)" style="fill: none; stroke: #b0b0b0; stroke-width: 0.8; stroke-linecap: square"/>
     </g>
     <g id="line2d_24">
      <g>
       <use xlink:href="#me999bcf73f" x="108" y="51.619265" style="stroke: #000000; stroke-width: 0.8"/>
      </g>
     </g>
     <g id="text_13">
      <!-- 0.25 -->
      <g transform="translate(69.828125 56.938171) scale(0.14 -0.14)">
       <use xlink:href="#DejaVuSans-30"/>
       <use xlink:href="#DejaVuSans-2e" x="63.623047"/>
       <use xlink:href="#DejaVuSans-32" x="95.410156"/>
       <use xlink:href="#DejaVuSans-35" x="159.033203"/>
      </g>
     </g>
    </g>
    <g id="text_14">
     <!-- $g_{Inhib}$ (µS) -->
     <g transform="translate(62.888125 178.83) rotate(-90) scale(0.14 -0.14)">
      <defs>
       <path id="DejaVuSans-Oblique-67" d="M 3816 3500 
L 3219 434 
Q 3047 -456 2561 -893 
Q 2075 -1331 1253 -1331 
Q 950 -1331 690 -1286 
Q 431 -1241 206 -1147 
L 313 -588 
Q 525 -725 762 -790 
Q 1000 -856 1269 -856 
Q 1816 -856 2167 -557 
Q 2519 -259 2631 300 
L 2681 563 
Q 2441 288 2122 144 
Q 1803 0 1434 0 
Q 903 0 598 351 
Q 294 703 294 1319 
Q 294 1803 478 2267 
Q 663 2731 997 3091 
Q 1219 3328 1514 3456 
Q 1809 3584 2131 3584 
Q 2484 3584 2746 3420 
Q 3009 3256 3138 2956 
L 3238 3500 
L 3816 3500 
z
M 2950 2216 
Q 2950 2641 2750 2872 
Q 2550 3103 2181 3103 
Q 1953 3103 1747 3012 
Q 1541 2922 1394 2759 
Q 1156 2491 1023 2127 
Q 891 1763 891 1375 
Q 891 944 1092 712 
Q 1294 481 1672 481 
Q 2219 481 2584 976 
Q 2950 1472 2950 2216 
z
" transform="scale(0.015625)"/>
       <path id="DejaVuSans-Oblique-49" d="M 1081 4666 
L 1716 4666 
L 806 0 
L 172 0 
L 1081 4666 
z
" transform="scale(0.015625)"/>
       <path id="DejaVuSans-Oblique-6e" d="M 3566 2113 
L 3156 0 
L 2578 0 
L 2988 2091 
Q 3016 2238 3031 2350 
Q 3047 2463 3047 2528 
Q 3047 2791 2881 2937 
Q 2716 3084 2419 3084 
Q 1956 3084 1622 2776 
Q 1288 2469 1184 1941 
L 800 0 
L 225 0 
L 903 3500 
L 1478 3500 
L 1363 2950 
Q 1603 3253 1940 3418 
Q 2278 3584 2650 3584 
Q 3113 3584 3367 3334 
Q 3622 3084 3622 2631 
Q 3622 2519 3608 2391 
Q 3594 2263 3566 2113 
z
" transform="scale(0.015625)"/>
       <path id="DejaVuSans-Oblique-68" d="M 3566 2113 
L 3156 0 
L 2578 0 
L 2988 2091 
Q 3016 2238 3031 2350 
Q 3047 2463 3047 2528 
Q 3047 2791 2881 2937 
Q 2716 3084 2419 3084 
Q 1956 3084 1617 2771 
Q 1278 2459 1178 1941 
L 800 0 
L 225 0 
L 1172 4863 
L 1747 4863 
L 1375 2950 
Q 1594 3244 1934 3414 
Q 2275 3584 2650 3584 
Q 3113 3584 3367 3334 
Q 3622 3084 3622 2631 
Q 3622 2519 3608 2391 
Q 3594 2263 3566 2113 
z
" transform="scale(0.015625)"/>
       <path id="DejaVuSans-Oblique-69" d="M 1172 4863 
L 1747 4863 
L 1606 4134 
L 1031 4134 
L 1172 4863 
z
M 909 3500 
L 1484 3500 
L 800 0 
L 225 0 
L 909 3500 
z
" transform="scale(0.015625)"/>
       <path id="DejaVuSans-Oblique-62" d="M 3169 2138 
Q 3169 2591 2961 2847 
Q 2753 3103 2388 3103 
Q 2122 3103 1889 2973 
Q 1656 2844 1484 2597 
Q 1303 2338 1198 1995 
Q 1094 1653 1094 1313 
Q 1094 881 1298 636 
Q 1503 391 1863 391 
Q 2134 391 2365 517 
Q 2597 644 2772 891 
Q 2950 1147 3059 1487 
Q 3169 1828 3169 2138 
z
M 1381 2969 
Q 1594 3256 1914 3420 
Q 2234 3584 2584 3584 
Q 3122 3584 3439 3221 
Q 3756 2859 3756 2241 
Q 3756 1734 3570 1259 
Q 3384 784 3041 416 
Q 2816 172 2522 40 
Q 2228 -91 1906 -91 
Q 1566 -91 1316 65 
Q 1066 222 909 531 
L 806 0 
L 231 0 
L 1178 4863 
L 1753 4863 
L 1381 2969 
z
" transform="scale(0.015625)"/>
       <path id="DejaVuSans-b5" d="M 544 -1331 
L 544 3500 
L 1119 3500 
L 1119 1325 
Q 1119 872 1334 640 
Q 1550 409 1972 409 
Q 2434 409 2667 671 
Q 2900 934 2900 1459 
L 2900 3500 
L 3475 3500 
L 3475 806 
Q 3475 619 3529 530 
Q 3584 441 3700 441 
Q 3728 441 3778 458 
Q 3828 475 3916 513 
L 3916 50 
Q 3788 -22 3673 -56 
Q 3559 -91 3450 -91 
Q 3234 -91 3106 31 
Q 2978 153 2931 403 
Q 2775 156 2548 32 
Q 2322 -91 2016 -91 
Q 1697 -91 1473 31 
Q 1250 153 1119 397 
L 1119 -1331 
L 544 -1331 
z
" transform="scale(0.015625)"/>
       <path id="DejaVuSans-53" d="M 3425 4513 
L 3425 3897 
Q 3066 4069 2747 4153 
Q 2428 4238 2131 4238 
Q 1616 4238 1336 4038 
Q 1056 3838 1056 3469 
Q 1056 3159 1242 3001 
Q 1428 2844 1947 2747 
L 2328 2669 
Q 3034 2534 3370 2195 
Q 3706 1856 3706 1288 
Q 3706 609 3251 259 
Q 2797 -91 1919 -91 
Q 1588 -91 1214 -16 
Q 841 59 441 206 
L 441 856 
Q 825 641 1194 531 
Q 1563 422 1919 422 
Q 2459 422 2753 634 
Q 3047 847 3047 1241 
Q 3047 1584 2836 1778 
Q 2625 1972 2144 2069 
L 1759 2144 
Q 1053 2284 737 2584 
Q 422 2884 422 3419 
Q 422 4038 858 4394 
Q 1294 4750 2059 4750 
Q 2388 4750 2728 4690 
Q 3069 4631 3425 4513 
z
" transform="scale(0.015625)"/>
      </defs>
      <use xlink:href="#DejaVuSans-Oblique-67" transform="translate(0 0.125)"/>
      <use xlink:href="#DejaVuSans-Oblique-49" transform="translate(63.476562 -16.28125) scale(0.7)"/>
      <use xlink:href="#DejaVuSans-Oblique-6e" transform="translate(84.121094 -16.28125) scale(0.7)"/>
      <use xlink:href="#DejaVuSans-Oblique-68" transform="translate(128.486328 -16.28125) scale(0.7)"/>
      <use xlink:href="#DejaVuSans-Oblique-69" transform="translate(172.851562 -16.28125) scale(0.7)"/>
      <use xlink:href="#DejaVuSans-Oblique-62" transform="translate(192.299805 -16.28125) scale(0.7)"/>
      <use xlink:href="#DejaVuSans-20" transform="translate(239.467773 0.125)"/>
      <use xlink:href="#DejaVuSans-28" transform="translate(271.254883 0.125)"/>
      <use xlink:href="#DejaVuSans-b5" transform="translate(310.268555 0.125)"/>
      <use xlink:href="#DejaVuSans-53" transform="translate(373.891602 0.125)"/>
      <use xlink:href="#DejaVuSans-29" transform="translate(437.368164 0.125)"/>
     </g>
    </g>
   </g>
   <g id="line2d_25">
    <path d="M 108 129.302194 
L 111.348 138.400693 
L 112.0176 132.801931 
L 112.6872 131.853172 
L 114.0264 135.342025 
L 114.696 129.792415 
L 115.3656 128.892017 
L 116.0352 123.285592 
L 117.3744 107.000695 
L 118.044 106.306086 
L 118.7136 93.730922 
L 119.3832 90.638364 
L 120.0528 92.817878 
L 120.7224 80.619924 
L 121.392 77.738053 
L 122.0616 72.793184 
L 122.7312 72.808735 
L 128.7576 96.197101 
L 132.1056 107.871386 
L 134.1144 114.435305 
L 134.784 109.221654 
L 135.4536 108.651819 
L 136.1232 103.370643 
L 136.7928 88.231462 
L 137.4624 85.066815 
L 138.8016 89.889369 
L 139.4712 85.070159 
L 140.1408 84.888425 
L 143.4888 97.292202 
L 144.1584 92.354032 
L 144.828 92.05525 
L 148.176 103.901402 
L 148.8456 98.857026 
L 149.5152 98.453745 
L 156.8808 122.439685 
L 160.2288 132.07213 
L 163.5768 140.955111 
L 166.9248 149.146939 
L 170.2728 156.701392 
L 173.6208 163.668061 
L 176.9688 170.092678 
L 180.3168 176.01742 
L 183.6648 181.48118 
L 187.0128 186.519825 
L 190.3608 191.166431 
L 193.7088 195.451502 
L 197.0568 199.403168 
L 198.396 200.896361 
L 199.0656 194.293325 
L 199.7352 192.356432 
L 201.0744 193.916396 
L 204.4224 197.987503 
L 205.7616 199.525828 
L 206.4312 192.944817 
L 207.1008 191.029593 
L 208.44 192.631858 
L 209.1096 186.161629 
L 209.7792 184.355407 
L 211.1184 186.17045 
L 214.4664 190.84424 
L 217.8144 195.15438 
L 221.1624 199.129163 
L 224.5104 202.794684 
L 225.8496 204.179753 
L 226.5192 197.523955 
L 227.1888 195.535146 
L 227.8584 181.526117 
L 228.528 177.022735 
L 229.1976 177.814097 
L 232.5456 183.138064 
L 233.2152 176.820395 
L 233.8848 175.164282 
L 234.5544 168.814286 
L 236.5632 142.343309 
L 237.2328 141.080763 
L 237.9024 135.278471 
L 238.572 134.289916 
L 239.2416 128.59675 
L 239.9112 120.383882 
L 240.5808 104.810844 
L 241.2504 101.379775 
L 242.5896 105.68226 
L 244.5984 112.350027 
L 245.268 107.169886 
L 245.9376 106.633021 
L 246.6072 108.715971 
L 247.2768 103.594227 
L 247.9464 95.783137 
L 248.616 95.268789 
L 249.2856 90.202672 
L 249.9552 89.938462 
L 250.6248 84.958 
L 251.2944 84.778069 
L 253.9728 94.756165 
L 254.6424 82.527063 
L 255.312 79.614546 
L 255.9816 74.639522 
L 256.6512 74.625404 
L 260.6688 90.373312 
L 261.3384 85.546325 
L 262.008 85.35694 
L 264.6864 95.298714 
L 265.356 90.392579 
L 266.0256 90.125316 
L 266.6952 85.141853 
L 267.3648 84.958967 
L 270.7128 97.357255 
L 271.3824 92.41804 
L 272.052 92.118229 
L 278.748 115.029803 
L 282.096 125.238784 
L 282.7656 119.851527 
L 283.4352 119.110875 
L 286.7832 128.851929 
L 290.1312 137.985461 
L 291.4704 141.436697 
L 292.14 135.789147 
L 292.8096 134.792386 
L 294.8184 139.923882 
L 298.1664 148.195947 
L 301.5144 155.824393 
L 304.8624 162.859297 
L 308.2104 169.346842 
L 311.5584 175.329615 
L 314.9064 180.84689 
L 318.2544 185.934887 
L 321.6024 190.627005 
L 324.9504 194.954047 
L 328.2984 198.944417 
L 331.6464 202.624312 
L 334.9944 206.017888 
L 339.012 209.743481 
L 343.0296 213.123988 
L 345.0384 214.694943 
L 345.708 207.870172 
L 346.3776 205.715105 
L 347.0472 206.205857 
L 351.0648 209.914039 
L 354.4128 212.740428 
L 355.0824 198.61538 
L 355.752 193.837383 
L 356.4216 194.358542 
L 357.0912 187.860566 
L 357.7608 186.027043 
L 358.4304 179.502488 
L 359.1 170.471591 
L 359.7696 168.757038 
L 361.1088 171.069369 
L 361.7784 172.277322 
L 362.448 158.802496 
L 363.1176 154.664271 
L 363.7872 148.483237 
L 364.4568 147.282488 
L 365.796 150.279444 
L 366.4656 144.489796 
L 367.1352 143.353219 
L 367.8048 144.846095 
L 368.4744 139.143759 
L 369.144 138.09309 
L 371.1528 143.068008 
L 372.492 146.357208 
L 373.1616 133.298904 
L 373.8312 129.570509 
L 374.5008 109.129351 
L 375.1704 103.017698 
L 375.84 104.83782 
L 379.188 115.839802 
L 379.8576 110.603582 
L 381.1968 94.722996 
L 381.8664 94.225684 
L 382.536 96.508014 
L 383.2056 91.582445 
L 383.8752 91.296062 
L 384.5448 93.62547 
L 385.2144 88.746222 
L 385.884 88.505416 
L 386.5536 83.547983 
L 387.2232 83.39071 
L 390.5712 95.911019 
L 391.2408 90.995044 
L 391.9104 83.386416 
L 392.58 83.071277 
L 398.6064 105.06733 
L 399.276 100.004218 
L 399.9456 99.582502 
L 400.6152 101.77875 
L 401.2848 96.768484 
L 401.9544 96.398764 
L 403.2936 101.01793 
L 403.9632 96.01989 
L 404.6328 95.6622 
L 405.3024 90.589761 
L 405.972 90.31933 
L 407.9808 97.560536 
L 408.6504 92.618054 
L 409.32 92.31503 
L 416.016 115.197171 
L 419.364 125.393129 
L 422.712 134.795778 
L 426.06 143.466842 
L 426.7296 145.118354 
L 427.3992 139.411642 
L 428.0688 138.356669 
L 430.0776 143.319083 
L 433.4256 151.32698 
L 436.7736 158.711812 
L 440.1216 165.522057 
L 443.4696 171.802422 
L 446.8176 177.594135 
L 450.1656 182.935217 
L 453.5136 187.860728 
L 456.8616 192.403004 
L 460.2096 196.591862 
L 463.5576 200.4548 
L 466.9056 204.017177 
L 470.2536 207.302379 
L 472.932 209.745524 
L 473.6016 203.000288 
L 474.2712 200.923477 
L 474.9408 201.491228 
L 476.9496 203.614017 
L 477.6192 196.96731 
L 478.2888 194.987447 
L 479.628 196.463533 
L 482.976 200.336456 
L 483.6456 201.074102 
L 484.3152 194.468211 
L 484.9848 192.528507 
L 485.6544 185.899476 
L 486.324 184.097467 
L 487.6632 185.920734 
L 489.0024 187.843757 
L 489.672 174.118786 
L 490.3416 169.734436 
L 491.0112 170.642917 
L 491.6808 164.526039 
L 492.3504 155.735806 
L 493.02 154.25805 
L 493.6896 155.57569 
L 494.3592 149.700935 
L 495.0288 141.148933 
L 495.6984 139.90558 
L 497.0376 143.137717 
L 497.7072 137.462833 
L 498.3768 136.439176 
L 500.3856 141.492553 
L 501.0552 143.17579 
L 501.7248 137.500295 
L 502.3944 136.476036 
L 504.4032 141.527664 
L 505.0728 135.878653 
L 505.7424 134.880453 
L 507.7512 140.007772 
L 508.4208 134.383185 
L 509.0904 118.745647 
L 509.76 107.758969 
L 510.4296 99.560029 
L 511.0992 98.984989 
L 513.7776 108.07167 
L 514.4472 102.960279 
L 515.1168 102.491061 
L 515.7864 89.977201 
L 516.456 86.944964 
L 517.1256 89.183829 
L 518.4648 66.888176 
L 519.1344 59.346009 
L 519.804 59.417187 
L 523.152 73.802786 
L 523.8216 69.242079 
L 524.4912 61.98301 
L 525.1608 62.011813 
L 525.8304 57.480119 
L 526.5 57.741743 
L 527.1696 53.278667 
L 527.8392 53.607806 
L 529.848 62.59053 
L 530.5176 58.209998 
L 531.1872 58.459894 
L 537.2136 83.79496 
L 540.5616 96.434209 
L 543.9096 108.090044 
L 547.2576 118.838982 
L 550.6056 128.751585 
L 553.9536 137.892925 
L 557.3016 146.323011 
L 560.6496 154.097183 
L 563.9976 161.266476 
L 567.3456 167.877952 
L 570.6936 173.975013 
L 574.0416 179.597685 
L 577.3896 184.782878 
L 580.7376 189.56463 
L 584.0856 193.974331 
L 587.4336 198.04093 
L 590.7816 201.791121 
L 594.1296 205.249525 
L 598.1472 209.046287 
L 602.1648 212.491373 
L 602.8344 205.702012 
L 603.504 203.581786 
L 604.1736 204.10682 
L 607.5216 207.385047 
L 611.5392 210.984006 
L 613.548 212.656477 
L 614.2176 205.864463 
L 614.8872 203.741627 
L 615.5568 204.264091 
L 618.9048 207.530082 
L 622.9224 211.115607 
L 623.592 204.348354 
L 624.2616 202.249881 
L 624.9312 202.796317 
L 625.6008 196.16275 
L 626.2704 186.864132 
L 626.94 184.886159 
L 628.2792 186.684281 
L 629.6184 188.582962 
L 630.288 182.177797 
L 630.9576 165.772224 
L 631.6272 161.361538 
L 632.2968 162.404567 
L 633.636 165.077303 
L 634.3056 159.049861 
L 634.9752 157.679312 
L 635.6448 158.941974 
L 636.3144 153.013124 
L 636.984 151.739582 
L 637.6536 153.097693 
L 638.3232 132.599389 
L 638.9928 118.7789 
L 639.6624 117.574098 
L 640.332 119.481231 
L 641.0016 114.186495 
L 641.6712 113.536877 
L 642.3408 115.508885 
L 643.0104 110.277983 
L 643.68 102.359488 
L 644.3496 101.739462 
L 645.0192 103.901049 
L 645.6888 98.856678 
L 646.3584 98.453402 
L 647.6976 103.007065 
L 648.3672 97.97706 
L 649.0368 90.256235 
L 649.7064 89.830702 
L 651.0456 94.659263 
L 651.7152 89.763403 
L 652.3848 89.506251 
L 653.0544 91.86442 
L 653.724 87.013472 
L 654.3936 79.468826 
L 655.0632 79.21664 
L 655.7328 74.408473 
L 656.4024 74.398068 
L 657.072 76.999017 
L 657.7416 72.386948 
L 659.7504 50.490284 
L 660.42 50.703769 
L 666.4464 77.091104 
L 667.7856 82.483696 
L 668.4552 77.783491 
L 669.1248 77.718851 
L 675.8208 102.783979 
L 679.1688 113.945762 
L 682.5168 124.239088 
L 685.8648 133.731529 
L 689.2128 142.485398 
L 692.5608 150.55816 
L 693.9 153.608568 
L 694.5696 147.765424 
L 695.2392 146.576209 
L 697.248 151.148706 
L 700.596 158.547408 
L 703.944 165.370445 
L 707.292 171.662607 
L 710.64 177.465198 
L 713.988 182.816312 
L 717.336 187.751075 
L 720.684 192.301882 
L 724.032 196.498608 
L 727.38 200.368802 
L 730.728 203.937871 
L 734.076 207.229243 
L 738.0936 210.842634 
L 742.1112 214.121332 
L 742.7808 214.637462 
L 743.4504 207.813615 
L 744.12 205.659457 
L 744.7896 206.151103 
L 747.468 208.666485 
L 748.1376 201.938588 
L 748.8072 199.878839 
L 749.4768 200.463376 
L 752.1552 203.335635 
L 752.8248 196.693402 
L 753.4944 194.71794 
L 754.8336 196.202618 
L 756.1728 197.797847 
L 756.8424 191.244603 
L 757.512 189.356701 
L 758.8512 191.012299 
L 760.1904 192.772999 
L 760.86 186.300502 
L 761.5296 184.492049 
L 762.1992 185.323845 
L 762.8688 178.971052 
L 763.5384 177.280379 
L 764.8776 179.320979 
L 765.5472 180.396334 
L 766.2168 174.122723 
L 766.8864 172.50996 
L 768.2256 174.702645 
L 768.8952 175.852214 
L 769.5648 162.319941 
L 770.2344 158.125193 
L 770.904 159.220228 
L 771.5736 160.618591 
L 772.2432 154.662799 
L 772.9128 153.362747 
L 773.5824 147.36309 
L 774.252 146.180341 
L 776.2608 150.771617 
L 776.9304 152.305745 
L 777.6 146.483536 
L 777.6 146.483536 
" clip-path="url(#pc5a29dfa85)" style="fill: none; stroke: #ff4500; stroke-width: 1.5; stroke-linecap: square"/>
   </g>
   <g id="patch_3">
    <path d="M 108 256.32 
L 108 34.56 
" style="fill: none; stroke: #000000; stroke-width: 0.8; stroke-linejoin: miter; stroke-linecap: square"/>
   </g>
   <g id="patch_4">
    <path d="M 777.6 256.32 
L 777.6 34.56 
" style="fill: none; stroke: #000000; stroke-width: 0.8; stroke-linejoin: miter; stroke-linecap: square"/>
   </g>
   <g id="patch_5">
    <path d="M 108 256.32 
L 777.6 256.32 
" style="fill: none; stroke: #000000; stroke-width: 0.8; stroke-linejoin: miter; stroke-linecap: square"/>
   </g>
   <g id="patch_6">
    <path d="M 108 34.56 
L 777.6 34.56 
" style="fill: none; stroke: #000000; stroke-width: 0.8; stroke-linejoin: miter; stroke-linecap: square"/>
   </g>
  </g>
 </g>
 <defs>
  <clipPath id="pc5a29dfa85">
   <rect x="108" y="34.56" width="669.6" height="221.76"/>
  </clipPath>
 </defs>
</svg>
