<?xml version="1.0" encoding="utf-8" standalone="no"?>
<!DOCTYPE svg PUBLIC "-//W3C//DTD SVG 1.1//EN"
  "http://www.w3.org/Graphics/SVG/1.1/DTD/svg11.dtd">
<svg xmlns:xlink="http://www.w3.org/1999/xlink" width="864pt" height="288pt" viewBox="0 0 864 288" xmlns="http://www.w3.org/2000/svg" version="1.1">
 <metadata>
  <rdf:RDF xmlns:dc="http://purl.org/dc/elements/1.1/" xmlns:cc="http://creativecommons.org/ns#" xmlns:rdf="http://www.w3.org/1999/02/22-rdf-syntax-ns#">
   <cc:Work>
    <dc:type rdf:resource="http://purl.org/dc/dcmitype/StillImage"/>
    <dc:date>2024-04-12T18:07:03.407308</dc:date>
    <dc:format>image/svg+xml</dc:format>
    <dc:creator>
     <cc:Agent>
      <dc:title>Matplotlib v3.8.2, https://matplotlib.org/</dc:title>
     </cc:Agent>
    </dc:creator>
   </cc:Work>
  </rdf:RDF>
 </metadata>
 <defs>
  <style type="text/css">*{stroke-linejoin: round; stroke-linecap: butt}</style>
 </defs>
 <g id="figure_1">
  <g id="patch_1">
   <path d="M 0 288 
L 864 288 
L 864 0 
L 0 0 
z
" style="fill: #ffffff"/>
  </g>
  <g id="axes_1">
   <g id="patch_2">
    <path d="M 108 256.32 
L 777.6 256.32 
L 777.6 34.56 
L 108 34.56 
z
" style="fill: #ffffff"/>
   </g>
   <g id="matplotlib.axis_1">
    <g id="xtick_1">
     <g id="line2d_1">
      <path d="M 108 256.32 
L 108 34.56 
" clip-path="url(#p105b6e514d)" style="fill: none; stroke: #b0b0b0; stroke-width: 0.8; stroke-linecap: square"/>
     </g>
     <g id="line2d_2">
      <defs>
       <path id="mb0d8313a05" d="M 0 0 
L 0 3.5 
" style="stroke: #000000; stroke-width: 0.8"/>
      </defs>
      <g>
       <use xlink:href="#mb0d8313a05" x="108" y="256.32" style="stroke: #000000; stroke-width: 0.8"/>
      </g>
     </g>
     <g id="text_1">
      <!-- 100 -->
      <g transform="translate(94.63875 273.957812) scale(0.14 -0.14)">
       <defs>
        <path id="DejaVuSans-31" d="M 794 531 
L 1825 531 
L 1825 4091 
L 703 3866 
L 703 4441 
L 1819 4666 
L 2450 4666 
L 2450 531 
L 3481 531 
L 3481 0 
L 794 0 
L 794 531 
z
" transform="scale(0.015625)"/>
        <path id="DejaVuSans-30" d="M 2034 4250 
Q 1547 4250 1301 3770 
Q 1056 3291 1056 2328 
Q 1056 1369 1301 889 
Q 1547 409 2034 409 
Q 2525 409 2770 889 
Q 3016 1369 3016 2328 
Q 3016 3291 2770 3770 
Q 2525 4250 2034 4250 
z
M 2034 4750 
Q 2819 4750 3233 4129 
Q 3647 3509 3647 2328 
Q 3647 1150 3233 529 
Q 2819 -91 2034 -91 
Q 1250 -91 836 529 
Q 422 1150 422 2328 
Q 422 3509 836 4129 
Q 1250 4750 2034 4750 
z
" transform="scale(0.015625)"/>
       </defs>
       <use xlink:href="#DejaVuSans-31"/>
       <use xlink:href="#DejaVuSans-30" x="63.623047"/>
       <use xlink:href="#DejaVuSans-30" x="127.246094"/>
      </g>
     </g>
    </g>
    <g id="xtick_2">
     <g id="line2d_3">
      <path d="M 241.92 256.32 
L 241.92 34.56 
" clip-path="url(#p105b6e514d)" style="fill: none; stroke: #b0b0b0; stroke-width: 0.8; stroke-linecap: square"/>
     </g>
     <g id="line2d_4">
      <g>
       <use xlink:href="#mb0d8313a05" x="241.92" y="256.32" style="stroke: #000000; stroke-width: 0.8"/>
      </g>
     </g>
     <g id="text_2">
      <!-- 120 -->
      <g transform="translate(228.55875 273.957812) scale(0.14 -0.14)">
       <defs>
        <path id="DejaVuSans-32" d="M 1228 531 
L 3431 531 
L 3431 0 
L 469 0 
L 469 531 
Q 828 903 1448 1529 
Q 2069 2156 2228 2338 
Q 2531 2678 2651 2914 
Q 2772 3150 2772 3378 
Q 2772 3750 2511 3984 
Q 2250 4219 1831 4219 
Q 1534 4219 1204 4116 
Q 875 4013 500 3803 
L 500 4441 
Q 881 4594 1212 4672 
Q 1544 4750 1819 4750 
Q 2544 4750 2975 4387 
Q 3406 4025 3406 3419 
Q 3406 3131 3298 2873 
Q 3191 2616 2906 2266 
Q 2828 2175 2409 1742 
Q 1991 1309 1228 531 
z
" transform="scale(0.015625)"/>
       </defs>
       <use xlink:href="#DejaVuSans-31"/>
       <use xlink:href="#DejaVuSans-32" x="63.623047"/>
       <use xlink:href="#DejaVuSans-30" x="127.246094"/>
      </g>
     </g>
    </g>
    <g id="xtick_3">
     <g id="line2d_5">
      <path d="M 375.84 256.32 
L 375.84 34.56 
" clip-path="url(#p105b6e514d)" style="fill: none; stroke: #b0b0b0; stroke-width: 0.8; stroke-linecap: square"/>
     </g>
     <g id="line2d_6">
      <g>
       <use xlink:href="#mb0d8313a05" x="375.84" y="256.32" style="stroke: #000000; stroke-width: 0.8"/>
      </g>
     </g>
     <g id="text_3">
      <!-- 140 -->
      <g transform="translate(362.47875 273.957812) scale(0.14 -0.14)">
       <defs>
        <path id="DejaVuSans-34" d="M 2419 4116 
L 825 1625 
L 2419 1625 
L 2419 4116 
z
M 2253 4666 
L 3047 4666 
L 3047 1625 
L 3713 1625 
L 3713 1100 
L 3047 1100 
L 3047 0 
L 2419 0 
L 2419 1100 
L 313 1100 
L 313 1709 
L 2253 4666 
z
" transform="scale(0.015625)"/>
       </defs>
       <use xlink:href="#DejaVuSans-31"/>
       <use xlink:href="#DejaVuSans-34" x="63.623047"/>
       <use xlink:href="#DejaVuSans-30" x="127.246094"/>
      </g>
     </g>
    </g>
    <g id="xtick_4">
     <g id="line2d_7">
      <path d="M 509.76 256.32 
L 509.76 34.56 
" clip-path="url(#p105b6e514d)" style="fill: none; stroke: #b0b0b0; stroke-width: 0.8; stroke-linecap: square"/>
     </g>
     <g id="line2d_8">
      <g>
       <use xlink:href="#mb0d8313a05" x="509.76" y="256.32" style="stroke: #000000; stroke-width: 0.8"/>
      </g>
     </g>
     <g id="text_4">
      <!-- 160 -->
      <g transform="translate(496.39875 273.957812) scale(0.14 -0.14)">
       <defs>
        <path id="DejaVuSans-36" d="M 2113 2584 
Q 1688 2584 1439 2293 
Q 1191 2003 1191 1497 
Q 1191 994 1439 701 
Q 1688 409 2113 409 
Q 2538 409 2786 701 
Q 3034 994 3034 1497 
Q 3034 2003 2786 2293 
Q 2538 2584 2113 2584 
z
M 3366 4563 
L 3366 3988 
Q 3128 4100 2886 4159 
Q 2644 4219 2406 4219 
Q 1781 4219 1451 3797 
Q 1122 3375 1075 2522 
Q 1259 2794 1537 2939 
Q 1816 3084 2150 3084 
Q 2853 3084 3261 2657 
Q 3669 2231 3669 1497 
Q 3669 778 3244 343 
Q 2819 -91 2113 -91 
Q 1303 -91 875 529 
Q 447 1150 447 2328 
Q 447 3434 972 4092 
Q 1497 4750 2381 4750 
Q 2619 4750 2861 4703 
Q 3103 4656 3366 4563 
z
" transform="scale(0.015625)"/>
       </defs>
       <use xlink:href="#DejaVuSans-31"/>
       <use xlink:href="#DejaVuSans-36" x="63.623047"/>
       <use xlink:href="#DejaVuSans-30" x="127.246094"/>
      </g>
     </g>
    </g>
    <g id="xtick_5">
     <g id="line2d_9">
      <path d="M 643.68 256.32 
L 643.68 34.56 
" clip-path="url(#p105b6e514d)" style="fill: none; stroke: #b0b0b0; stroke-width: 0.8; stroke-linecap: square"/>
     </g>
     <g id="line2d_10">
      <g>
       <use xlink:href="#mb0d8313a05" x="643.68" y="256.32" style="stroke: #000000; stroke-width: 0.8"/>
      </g>
     </g>
     <g id="text_5">
      <!-- 180 -->
      <g transform="translate(630.31875 273.957812) scale(0.14 -0.14)">
       <defs>
        <path id="DejaVuSans-38" d="M 2034 2216 
Q 1584 2216 1326 1975 
Q 1069 1734 1069 1313 
Q 1069 891 1326 650 
Q 1584 409 2034 409 
Q 2484 409 2743 651 
Q 3003 894 3003 1313 
Q 3003 1734 2745 1975 
Q 2488 2216 2034 2216 
z
M 1403 2484 
Q 997 2584 770 2862 
Q 544 3141 544 3541 
Q 544 4100 942 4425 
Q 1341 4750 2034 4750 
Q 2731 4750 3128 4425 
Q 3525 4100 3525 3541 
Q 3525 3141 3298 2862 
Q 3072 2584 2669 2484 
Q 3125 2378 3379 2068 
Q 3634 1759 3634 1313 
Q 3634 634 3220 271 
Q 2806 -91 2034 -91 
Q 1263 -91 848 271 
Q 434 634 434 1313 
Q 434 1759 690 2068 
Q 947 2378 1403 2484 
z
M 1172 3481 
Q 1172 3119 1398 2916 
Q 1625 2713 2034 2713 
Q 2441 2713 2670 2916 
Q 2900 3119 2900 3481 
Q 2900 3844 2670 4047 
Q 2441 4250 2034 4250 
Q 1625 4250 1398 4047 
Q 1172 3844 1172 3481 
z
" transform="scale(0.015625)"/>
       </defs>
       <use xlink:href="#DejaVuSans-31"/>
       <use xlink:href="#DejaVuSans-38" x="63.623047"/>
       <use xlink:href="#DejaVuSans-30" x="127.246094"/>
      </g>
     </g>
    </g>
    <g id="xtick_6">
     <g id="line2d_11">
      <path d="M 777.6 256.32 
L 777.6 34.56 
" clip-path="url(#p105b6e514d)" style="fill: none; stroke: #b0b0b0; stroke-width: 0.8; stroke-linecap: square"/>
     </g>
     <g id="line2d_12">
      <g>
       <use xlink:href="#mb0d8313a05" x="777.6" y="256.32" style="stroke: #000000; stroke-width: 0.8"/>
      </g>
     </g>
     <g id="text_6">
      <!-- 200 -->
      <g transform="translate(764.23875 273.957812) scale(0.14 -0.14)">
       <use xlink:href="#DejaVuSans-32"/>
       <use xlink:href="#DejaVuSans-30" x="63.623047"/>
       <use xlink:href="#DejaVuSans-30" x="127.246094"/>
      </g>
     </g>
    </g>
    <g id="text_7">
     <!-- Time (ms) -->
     <g transform="translate(407.521094 291.507187) scale(0.14 -0.14)">
      <defs>
       <path id="DejaVuSans-54" d="M -19 4666 
L 3928 4666 
L 3928 4134 
L 2272 4134 
L 2272 0 
L 1638 0 
L 1638 4134 
L -19 4134 
L -19 4666 
z
" transform="scale(0.015625)"/>
       <path id="DejaVuSans-69" d="M 603 3500 
L 1178 3500 
L 1178 0 
L 603 0 
L 603 3500 
z
M 603 4863 
L 1178 4863 
L 1178 4134 
L 603 4134 
L 603 4863 
z
" transform="scale(0.015625)"/>
       <path id="DejaVuSans-6d" d="M 3328 2828 
Q 3544 3216 3844 3400 
Q 4144 3584 4550 3584 
Q 5097 3584 5394 3201 
Q 5691 2819 5691 2113 
L 5691 0 
L 5113 0 
L 5113 2094 
Q 5113 2597 4934 2840 
Q 4756 3084 4391 3084 
Q 3944 3084 3684 2787 
Q 3425 2491 3425 1978 
L 3425 0 
L 2847 0 
L 2847 2094 
Q 2847 2600 2669 2842 
Q 2491 3084 2119 3084 
Q 1678 3084 1418 2786 
Q 1159 2488 1159 1978 
L 1159 0 
L 581 0 
L 581 3500 
L 1159 3500 
L 1159 2956 
Q 1356 3278 1631 3431 
Q 1906 3584 2284 3584 
Q 2666 3584 2933 3390 
Q 3200 3197 3328 2828 
z
" transform="scale(0.015625)"/>
       <path id="DejaVuSans-65" d="M 3597 1894 
L 3597 1613 
L 953 1613 
Q 991 1019 1311 708 
Q 1631 397 2203 397 
Q 2534 397 2845 478 
Q 3156 559 3463 722 
L 3463 178 
Q 3153 47 2828 -22 
Q 2503 -91 2169 -91 
Q 1331 -91 842 396 
Q 353 884 353 1716 
Q 353 2575 817 3079 
Q 1281 3584 2069 3584 
Q 2775 3584 3186 3129 
Q 3597 2675 3597 1894 
z
M 3022 2063 
Q 3016 2534 2758 2815 
Q 2500 3097 2075 3097 
Q 1594 3097 1305 2825 
Q 1016 2553 972 2059 
L 3022 2063 
z
" transform="scale(0.015625)"/>
       <path id="DejaVuSans-20" transform="scale(0.015625)"/>
       <path id="DejaVuSans-28" d="M 1984 4856 
Q 1566 4138 1362 3434 
Q 1159 2731 1159 2009 
Q 1159 1288 1364 580 
Q 1569 -128 1984 -844 
L 1484 -844 
Q 1016 -109 783 600 
Q 550 1309 550 2009 
Q 550 2706 781 3412 
Q 1013 4119 1484 4856 
L 1984 4856 
z
" transform="scale(0.015625)"/>
       <path id="DejaVuSans-73" d="M 2834 3397 
L 2834 2853 
Q 2591 2978 2328 3040 
Q 2066 3103 1784 3103 
Q 1356 3103 1142 2972 
Q 928 2841 928 2578 
Q 928 2378 1081 2264 
Q 1234 2150 1697 2047 
L 1894 2003 
Q 2506 1872 2764 1633 
Q 3022 1394 3022 966 
Q 3022 478 2636 193 
Q 2250 -91 1575 -91 
Q 1294 -91 989 -36 
Q 684 19 347 128 
L 347 722 
Q 666 556 975 473 
Q 1284 391 1588 391 
Q 1994 391 2212 530 
Q 2431 669 2431 922 
Q 2431 1156 2273 1281 
Q 2116 1406 1581 1522 
L 1381 1569 
Q 847 1681 609 1914 
Q 372 2147 372 2553 
Q 372 3047 722 3315 
Q 1072 3584 1716 3584 
Q 2034 3584 2315 3537 
Q 2597 3491 2834 3397 
z
" transform="scale(0.015625)"/>
       <path id="DejaVuSans-29" d="M 513 4856 
L 1013 4856 
Q 1481 4119 1714 3412 
Q 1947 2706 1947 2009 
Q 1947 1309 1714 600 
Q 1481 -109 1013 -844 
L 513 -844 
Q 928 -128 1133 580 
Q 1338 1288 1338 2009 
Q 1338 2731 1133 3434 
Q 928 4138 513 4856 
z
" transform="scale(0.015625)"/>
      </defs>
      <use xlink:href="#DejaVuSans-54"/>
      <use xlink:href="#DejaVuSans-69" x="57.958984"/>
      <use xlink:href="#DejaVuSans-6d" x="85.742188"/>
      <use xlink:href="#DejaVuSans-65" x="183.154297"/>
      <use xlink:href="#DejaVuSans-20" x="244.677734"/>
      <use xlink:href="#DejaVuSans-28" x="276.464844"/>
      <use xlink:href="#DejaVuSans-6d" x="315.478516"/>
      <use xlink:href="#DejaVuSans-73" x="412.890625"/>
      <use xlink:href="#DejaVuSans-29" x="464.990234"/>
     </g>
    </g>
   </g>
   <g id="matplotlib.axis_2">
    <g id="ytick_1">
     <g id="line2d_13">
      <path d="M 108 224.887954 
L 777.6 224.887954 
" clip-path="url(#p105b6e514d)" style="fill: none; stroke: #b0b0b0; stroke-width: 0.8; stroke-linecap: square"/>
     </g>
     <g id="line2d_14">
      <defs>
       <path id="m3d62d92a65" d="M 0 0 
L -3.5 0 
" style="stroke: #000000; stroke-width: 0.8"/>
      </defs>
      <g>
       <use xlink:href="#m3d62d92a65" x="108" y="224.887954" style="stroke: #000000; stroke-width: 0.8"/>
      </g>
     </g>
     <g id="text_8">
      <!-- −60 -->
      <g transform="translate(71.453437 230.20686) scale(0.14 -0.14)">
       <defs>
        <path id="DejaVuSans-2212" d="M 678 2272 
L 4684 2272 
L 4684 1741 
L 678 1741 
L 678 2272 
z
" transform="scale(0.015625)"/>
       </defs>
       <use xlink:href="#DejaVuSans-2212"/>
       <use xlink:href="#DejaVuSans-36" x="83.789062"/>
       <use xlink:href="#DejaVuSans-30" x="147.412109"/>
      </g>
     </g>
    </g>
    <g id="ytick_2">
     <g id="line2d_15">
      <path d="M 108 182.251908 
L 777.6 182.251908 
" clip-path="url(#p105b6e514d)" style="fill: none; stroke: #b0b0b0; stroke-width: 0.8; stroke-linecap: square"/>
     </g>
     <g id="line2d_16">
      <g>
       <use xlink:href="#m3d62d92a65" x="108" y="182.251908" style="stroke: #000000; stroke-width: 0.8"/>
      </g>
     </g>
     <g id="text_9">
      <!-- −40 -->
      <g transform="translate(71.453437 187.570814) scale(0.14 -0.14)">
       <use xlink:href="#DejaVuSans-2212"/>
       <use xlink:href="#DejaVuSans-34" x="83.789062"/>
       <use xlink:href="#DejaVuSans-30" x="147.412109"/>
      </g>
     </g>
    </g>
    <g id="ytick_3">
     <g id="line2d_17">
      <path d="M 108 139.615861 
L 777.6 139.615861 
" clip-path="url(#p105b6e514d)" style="fill: none; stroke: #b0b0b0; stroke-width: 0.8; stroke-linecap: square"/>
     </g>
     <g id="line2d_18">
      <g>
       <use xlink:href="#m3d62d92a65" x="108" y="139.615861" style="stroke: #000000; stroke-width: 0.8"/>
      </g>
     </g>
     <g id="text_10">
      <!-- −20 -->
      <g transform="translate(71.453437 144.934767) scale(0.14 -0.14)">
       <use xlink:href="#DejaVuSans-2212"/>
       <use xlink:href="#DejaVuSans-32" x="83.789062"/>
       <use xlink:href="#DejaVuSans-30" x="147.412109"/>
      </g>
     </g>
    </g>
    <g id="ytick_4">
     <g id="line2d_19">
      <path d="M 108 96.979815 
L 777.6 96.979815 
" clip-path="url(#p105b6e514d)" style="fill: none; stroke: #b0b0b0; stroke-width: 0.8; stroke-linecap: square"/>
     </g>
     <g id="line2d_20">
      <g>
       <use xlink:href="#m3d62d92a65" x="108" y="96.979815" style="stroke: #000000; stroke-width: 0.8"/>
      </g>
     </g>
     <g id="text_11">
      <!-- 0 -->
      <g transform="translate(92.0925 102.298721) scale(0.14 -0.14)">
       <use xlink:href="#DejaVuSans-30"/>
      </g>
     </g>
    </g>
    <g id="ytick_5">
     <g id="line2d_21">
      <path d="M 108 54.343768 
L 777.6 54.343768 
" clip-path="url(#p105b6e514d)" style="fill: none; stroke: #b0b0b0; stroke-width: 0.8; stroke-linecap: square"/>
     </g>
     <g id="line2d_22">
      <g>
       <use xlink:href="#m3d62d92a65" x="108" y="54.343768" style="stroke: #000000; stroke-width: 0.8"/>
      </g>
     </g>
     <g id="text_12">
      <!-- 20 -->
      <g transform="translate(83.185 59.662674) scale(0.14 -0.14)">
       <use xlink:href="#DejaVuSans-32"/>
       <use xlink:href="#DejaVuSans-30" x="63.623047"/>
      </g>
     </g>
    </g>
    <g id="text_13">
     <!-- $V_{m}$ (mV) -->
     <g transform="translate(64.541875 174.49) rotate(-90) scale(0.14 -0.14)">
      <defs>
       <path id="DejaVuSans-Oblique-56" d="M 1319 0 
L 500 4666 
L 1119 4666 
L 1797 653 
L 4063 4666 
L 4750 4666 
L 2053 0 
L 1319 0 
z
" transform="scale(0.015625)"/>
       <path id="DejaVuSans-Oblique-6d" d="M 5747 2113 
L 5338 0 
L 4763 0 
L 5166 2094 
Q 5191 2228 5203 2325 
Q 5216 2422 5216 2491 
Q 5216 2772 5059 2928 
Q 4903 3084 4622 3084 
Q 4203 3084 3875 2770 
Q 3547 2456 3450 1953 
L 3066 0 
L 2491 0 
L 2900 2094 
Q 2925 2209 2937 2307 
Q 2950 2406 2950 2484 
Q 2950 2769 2794 2926 
Q 2638 3084 2363 3084 
Q 1938 3084 1609 2770 
Q 1281 2456 1184 1953 
L 800 0 
L 225 0 
L 909 3500 
L 1484 3500 
L 1375 2956 
Q 1609 3263 1923 3423 
Q 2238 3584 2597 3584 
Q 2978 3584 3223 3384 
Q 3469 3184 3519 2828 
Q 3781 3197 4126 3390 
Q 4472 3584 4856 3584 
Q 5306 3584 5551 3325 
Q 5797 3066 5797 2591 
Q 5797 2488 5784 2364 
Q 5772 2241 5747 2113 
z
" transform="scale(0.015625)"/>
       <path id="DejaVuSans-56" d="M 1831 0 
L 50 4666 
L 709 4666 
L 2188 738 
L 3669 4666 
L 4325 4666 
L 2547 0 
L 1831 0 
z
" transform="scale(0.015625)"/>
      </defs>
      <use xlink:href="#DejaVuSans-Oblique-56" transform="translate(0 0.125)"/>
      <use xlink:href="#DejaVuSans-Oblique-6d" transform="translate(68.408203 -16.28125) scale(0.7)"/>
      <use xlink:href="#DejaVuSans-20" transform="translate(139.331055 0.125)"/>
      <use xlink:href="#DejaVuSans-28" transform="translate(171.118164 0.125)"/>
      <use xlink:href="#DejaVuSans-6d" transform="translate(210.131836 0.125)"/>
      <use xlink:href="#DejaVuSans-56" transform="translate(307.543945 0.125)"/>
      <use xlink:href="#DejaVuSans-29" transform="translate(375.952148 0.125)"/>
     </g>
    </g>
   </g>
   <g id="line2d_23">
    <path d="M 108 214.796249 
L 110.0088 214.712104 
L 111.348 214.56984 
L 112.6872 214.677145 
L 114.696 214.699262 
L 116.0352 214.906326 
L 118.044 215.6751 
L 119.3832 216.400648 
L 120.0528 216.586091 
L 121.392 217.331284 
L 122.7312 217.946412 
L 124.0704 218.253413 
L 126.0792 218.484793 
L 128.7576 218.585715 
L 130.7664 218.385898 
L 134.784 217.849163 
L 136.1232 217.956597 
L 137.4624 218.541576 
L 140.8104 219.010751 
L 142.8192 218.974129 
L 143.4888 218.929272 
L 144.828 219.071993 
L 146.8368 218.993192 
L 148.176 218.859291 
L 150.1848 218.933739 
L 152.8632 218.650817 
L 156.8808 217.973942 
L 161.568 216.964175 
L 167.5944 215.434039 
L 175.6296 213.144688 
L 191.0304 208.458868 
L 198.396 206.196382 
L 200.4048 206.034668 
L 203.7528 205.336003 
L 205.7616 204.846044 
L 207.7704 204.799451 
L 208.44 204.717971 
L 210.4488 204.870667 
L 212.4576 204.725836 
L 215.8056 204.221307 
L 219.8232 203.38682 
L 223.8408 202.367361 
L 226.5192 201.656595 
L 227.1888 201.609367 
L 229.1976 202.442681 
L 230.5368 202.774783 
L 233.8848 203.404916 
L 234.5544 203.715641 
L 235.8936 204.720802 
L 237.2328 205.843322 
L 238.572 206.802426 
L 239.9112 207.857674 
L 241.2504 209.242468 
L 242.5896 209.992335 
L 243.9288 210.453538 
L 244.5984 210.623188 
L 245.9376 211.183025 
L 246.6072 211.366373 
L 247.9464 212.076778 
L 251.964 213.936138 
L 253.9728 214.340399 
L 255.9816 215.435989 
L 257.3208 215.924628 
L 259.3296 216.30496 
L 261.3384 216.660848 
L 262.6776 216.943045 
L 264.0168 216.994862 
L 264.6864 216.966976 
L 268.704 217.505575 
L 271.3824 217.579256 
L 272.7216 217.682797 
L 275.4 217.559304 
L 278.748 217.17816 
L 282.7656 216.666462 
L 284.1048 216.61822 
L 286.7832 216.232611 
L 292.14 215.301161 
L 293.4792 215.208977 
L 296.8272 214.603955 
L 302.184 213.357518 
L 309.5496 211.390505 
L 319.5936 208.446496 
L 328.2984 205.673547 
L 332.9856 203.982357 
L 336.3336 202.521638 
L 338.3424 201.390046 
L 339.6816 200.395683 
L 340.3512 199.794558 
L 341.0208 199.007185 
L 341.6904 197.9336 
L 342.36 196.32826 
L 343.0296 193.073376 
L 343.6992 180.958663 
L 345.0384 51.06174 
L 345.708 67.82894 
L 346.3776 87.647931 
L 347.7168 114.384332 
L 349.7256 147.307962 
L 351.7344 176.019375 
L 353.0736 192.344206 
L 353.7432 198.238587 
L 354.4128 202.292979 
L 355.0824 205.317011 
L 355.752 207.471687 
L 357.0912 210.313424 
L 358.4304 212.208443 
L 359.1 213.036998 
L 359.7696 213.650771 
L 361.1088 214.392622 
L 361.7784 214.611023 
L 363.1176 215.37254 
L 364.4568 215.905188 
L 367.1352 216.268273 
L 368.4744 216.376012 
L 369.8136 216.409121 
L 371.8224 216.157653 
L 372.492 216.037473 
L 373.8312 216.319603 
L 375.1704 217.104032 
L 376.5096 217.333041 
L 378.5184 217.328746 
L 379.188 217.286249 
L 379.8576 217.377066 
L 383.2056 218.288486 
L 388.5624 219.271921 
L 391.2408 219.414984 
L 392.58 219.808469 
L 394.5888 219.958324 
L 397.2672 219.88227 
L 399.276 219.656787 
L 403.9632 219.614236 
L 405.3024 219.768173 
L 406.6416 219.843936 
L 408.6504 219.841914 
L 409.9896 219.873676 
L 412.668 219.610527 
L 416.6856 218.93939 
L 421.3728 217.919729 
L 427.3992 216.515781 
L 428.7384 216.355973 
L 432.0864 215.605479 
L 438.1128 213.985273 
L 448.1568 211.011586 
L 470.9232 203.994778 
L 472.932 203.308722 
L 475.6104 203.004249 
L 476.9496 202.724269 
L 478.9584 202.757163 
L 480.9672 202.537816 
L 484.3152 202.023905 
L 484.9848 202.050731 
L 486.9936 202.495941 
L 489.0024 202.636598 
L 494.3592 205.585413 
L 495.6984 206.493954 
L 499.0464 207.822817 
L 503.7336 208.811981 
L 504.4032 208.873869 
L 505.7424 209.260229 
L 508.4208 209.682324 
L 511.0992 211.654039 
L 512.4384 212.122997 
L 514.4472 212.658353 
L 515.1168 212.873338 
L 516.456 213.705576 
L 517.1256 213.950284 
L 519.804 215.931989 
L 521.1432 216.443617 
L 523.8216 217.161837 
L 525.8304 218.132063 
L 528.5088 219.194252 
L 532.5264 220.001675 
L 535.8744 219.929085 
L 539.892 219.607173 
L 543.9096 219.055839 
L 548.5968 218.173871 
L 553.9536 216.930948 
L 560.6496 215.126003 
L 569.3544 212.520888 
L 582.0768 208.459301 
L 591.4512 205.263788 
L 595.4688 203.69494 
L 598.8168 202.109269 
L 600.156 201.277151 
L 601.4952 200.23377 
L 602.8344 198.908803 
L 603.504 198.011894 
L 604.1736 196.644098 
L 604.8432 193.837902 
L 605.5128 183.505581 
L 606.1824 127.319155 
L 606.852 54.20498 
L 607.5216 66.455146 
L 608.1912 86.010258 
L 609.5304 112.74811 
L 611.5392 145.734269 
L 613.548 174.59464 
L 614.8872 191.554997 
L 615.5568 197.823962 
L 616.2264 202.153097 
L 616.896 205.044361 
L 617.5656 207.066449 
L 618.2352 208.55149 
L 618.9048 209.676585 
L 619.5744 210.54057 
L 620.244 211.203631 
L 621.5832 212.081739 
L 623.592 212.781149 
L 624.9312 213.01018 
L 627.6096 213.493691 
L 628.9488 213.334253 
L 629.6184 213.202687 
L 630.288 213.202907 
L 631.6272 213.633678 
L 632.9664 213.603606 
L 633.636 213.515001 
L 634.9752 213.559201 
L 635.6448 213.495187 
L 636.984 213.570292 
L 637.6536 213.520497 
L 639.6624 214.618987 
L 643.0104 215.370087 
L 644.3496 215.84771 
L 645.6888 216.157904 
L 647.028 216.399609 
L 647.6976 216.446389 
L 649.0368 216.89613 
L 650.376 217.199682 
L 651.0456 217.265909 
L 652.3848 217.596887 
L 653.724 217.869873 
L 655.7328 218.638129 
L 658.4112 219.519329 
L 660.42 220.593992 
L 661.7592 220.941127 
L 663.768 221.22399 
L 665.1072 221.295377 
L 667.116 221.124221 
L 667.7856 221.041148 
L 669.7944 221.100504 
L 673.1424 220.772957 
L 677.16 220.135396 
L 681.8472 219.156028 
L 687.204 217.811838 
L 694.5696 215.85326 
L 695.9088 215.663645 
L 699.2568 214.845912 
L 705.9528 212.935141 
L 720.684 208.43 
L 735.4152 203.790807 
L 740.1024 202.084019 
L 743.4504 200.664817 
L 744.7896 200.300953 
L 746.1288 199.769105 
L 748.8072 198.305636 
L 749.4768 197.828958 
L 750.1464 197.16319 
L 750.816 196.122531 
L 751.4856 194.316923 
L 752.1552 189.606097 
L 752.8248 169.743526 
L 753.4944 87.996325 
L 754.164 63.531776 
L 755.5032 93.253475 
L 757.512 129.187134 
L 759.5208 160.445826 
L 761.5296 188.142675 
L 762.1992 195.753589 
L 762.8688 201.526609 
L 763.5384 205.343568 
L 764.208 207.88049 
L 764.8776 209.68028 
L 766.2168 212.187383 
L 766.8864 213.092786 
L 767.556 213.766892 
L 769.5648 215.221523 
L 770.2344 215.652624 
L 771.5736 216.076367 
L 773.5824 216.670254 
L 774.9216 216.828826 
L 777.6 216.702264 
L 777.6 216.702264 
" clip-path="url(#p105b6e514d)" style="fill: none; stroke: #000000; stroke-width: 1.5; stroke-linecap: square"/>
   </g>
   <g id="line2d_24">
    <path d="M 108 146.654858 
L 116.0352 151.444481 
L 118.044 152.962311 
L 120.0528 154.817402 
L 122.0616 157.034978 
L 124.0704 159.617638 
L 126.7488 163.446407 
L 128.7576 166.552676 
L 129.4272 145.121866 
L 130.0968 140.86309 
L 130.7664 138.562911 
L 131.436 137.30486 
L 132.1056 136.56061 
L 132.7752 136.086431 
L 134.1144 135.494314 
L 138.132 134.237154 
L 144.1584 132.500624 
L 147.5064 131.799257 
L 150.8544 131.323464 
L 155.5416 130.925317 
L 160.8984 130.687387 
L 167.5944 130.621743 
L 176.2992 130.783831 
L 186.3432 131.20422 
L 197.7264 131.910034 
L 201.744 132.28961 
L 209.7792 133.298617 
L 220.4928 135.091966 
L 229.1976 136.472154 
L 233.2152 137.71218 
L 235.8936 138.71286 
L 237.9024 139.733275 
L 240.5808 141.357651 
L 247.2768 146.091766 
L 249.9552 148.165914 
L 252.6336 150.524052 
L 255.312 153.074748 
L 257.3208 155.280133 
L 259.9992 158.555612 
L 262.6776 162.183177 
L 263.3472 142.83438 
L 264.0168 139.23747 
L 264.6864 137.286289 
L 265.356 136.249963 
L 266.0256 135.667413 
L 266.6952 135.324272 
L 268.0344 134.947536 
L 271.3824 134.14185 
L 280.7568 131.452441 
L 284.1048 130.856538 
L 288.1224 130.427549 
L 292.8096 130.138427 
L 299.5056 130.093702 
L 308.2104 130.243485 
L 318.924 130.66849 
L 340.3512 131.658969 
L 342.36 131.469121 
L 343.0296 131.26394 
L 343.6992 130.676213 
L 344.3688 127.934581 
L 345.708 116.786644 
L 346.3776 112.783142 
L 347.0472 110.57958 
L 347.7168 109.784108 
L 348.3864 109.96635 
L 349.056 110.804043 
L 349.7256 112.080503 
L 351.0648 115.427357 
L 353.0736 121.422757 
L 355.0824 127.293044 
L 356.4216 130.459883 
L 357.7608 132.988069 
L 359.1 135.032084 
L 360.4392 136.735638 
L 361.7784 138.167475 
L 363.7872 139.990107 
L 365.796 141.570044 
L 368.4744 143.377732 
L 371.8224 145.355688 
L 375.1704 147.253803 
L 380.5272 150.93674 
L 382.536 152.514239 
L 385.2144 154.918803 
L 387.2232 156.974138 
L 389.9016 160.083333 
L 391.9104 162.664406 
L 393.9192 165.595158 
L 396.5976 169.907974 
L 397.2672 146.958239 
L 397.9368 142.122627 
L 398.6064 139.538949 
L 399.276 138.110836 
L 399.9456 137.255619 
L 400.6152 136.706241 
L 401.9544 136.035991 
L 407.9808 133.930698 
L 411.3288 132.873719 
L 414.6768 132.030941 
L 418.0248 131.401143 
L 422.0424 130.882535 
L 426.7296 130.516274 
L 430.7472 130.418108 
L 439.452 130.455656 
L 448.8264 130.7299 
L 459.54 131.274462 
L 472.932 132.199026 
L 476.9496 132.615419 
L 481.6368 133.31407 
L 486.9936 134.221126 
L 491.0112 135.255448 
L 493.6896 136.23219 
L 497.0376 137.712932 
L 510.4296 143.926447 
L 513.7776 146.158229 
L 516.456 148.075819 
L 518.4648 149.753558 
L 520.4736 151.750689 
L 523.8216 155.475795 
L 525.8304 158.005829 
L 527.8392 160.913565 
L 529.848 164.193375 
L 530.5176 165.35929 
L 531.1872 144.58082 
L 531.8568 140.586374 
L 532.5264 138.447384 
L 533.196 137.307532 
L 533.8656 136.658901 
L 534.5352 136.26566 
L 535.8744 135.805052 
L 539.2224 134.84397 
L 547.2576 132.15044 
L 550.6056 131.379832 
L 553.9536 130.827744 
L 557.9712 130.382899 
L 563.328 130.04578 
L 569.3544 129.89727 
L 577.3896 129.940774 
L 587.4336 130.236592 
L 600.8256 130.667541 
L 603.504 130.540333 
L 604.8432 130.28052 
L 605.5128 129.795798 
L 606.1824 127.58639 
L 608.1912 112.845727 
L 608.8608 110.49356 
L 609.5304 109.560433 
L 610.2 109.628404 
L 610.8696 110.372508 
L 611.5392 111.570361 
L 612.8784 114.784759 
L 614.8872 120.612114 
L 616.896 126.381649 
L 618.2352 129.442494 
L 619.5744 131.818864 
L 620.9136 133.666327 
L 622.2528 135.129625 
L 623.592 136.31598 
L 625.6008 137.759971 
L 628.2792 139.328474 
L 630.9576 140.575523 
L 636.3144 142.894459 
L 638.9928 144.066143 
L 641.6712 145.537723 
L 645.0192 147.588422 
L 648.3672 149.905756 
L 651.0456 152.012631 
L 653.724 154.393372 
L 655.7328 156.459369 
L 657.7416 158.83913 
L 659.7504 161.614174 
L 661.7592 164.892712 
L 664.4376 169.797052 
L 665.1072 146.996275 
L 665.7768 142.236277 
L 666.4464 139.713739 
L 667.116 138.334309 
L 667.7856 137.51677 
L 668.4552 137.00012 
L 669.7944 136.381136 
L 675.1512 134.462248 
L 679.1688 132.987233 
L 682.5168 132.027644 
L 685.8648 131.324351 
L 689.8824 130.745414 
L 694.5696 130.33282 
L 699.2568 130.2017 
L 707.292 130.192724 
L 715.9968 130.406253 
L 726.7104 130.907439 
L 750.816 132.180442 
L 751.4856 132.096458 
L 752.1552 131.856556 
L 752.8248 130.963359 
L 753.4944 127.328277 
L 754.8336 116.728662 
L 755.5032 113.25238 
L 756.1728 111.368626 
L 756.8424 110.740097 
L 757.512 111.013696 
L 758.1816 111.913286 
L 758.8512 113.243626 
L 760.1904 116.705105 
L 762.1992 122.974755 
L 764.208 129.168085 
L 765.5472 132.488702 
L 766.8864 135.152679 
L 768.2256 137.321502 
L 769.5648 139.128811 
L 771.5736 141.426139 
L 773.5824 143.374499 
L 776.2608 145.638073 
L 777.6 146.643095 
L 777.6 146.643095 
" clip-path="url(#p105b6e514d)" style="fill: none; stroke: #4169e1; stroke-width: 1.5; stroke-linecap: square"/>
   </g>
   <g id="patch_3">
    <path d="M 108 256.32 
L 108 34.56 
" style="fill: none; stroke: #000000; stroke-width: 0.8; stroke-linejoin: miter; stroke-linecap: square"/>
   </g>
   <g id="patch_4">
    <path d="M 777.6 256.32 
L 777.6 34.56 
" style="fill: none; stroke: #000000; stroke-width: 0.8; stroke-linejoin: miter; stroke-linecap: square"/>
   </g>
   <g id="patch_5">
    <path d="M 108 256.32 
L 777.6 256.32 
" style="fill: none; stroke: #000000; stroke-width: 0.8; stroke-linejoin: miter; stroke-linecap: square"/>
   </g>
   <g id="patch_6">
    <path d="M 108 34.56 
L 777.6 34.56 
" style="fill: none; stroke: #000000; stroke-width: 0.8; stroke-linejoin: miter; stroke-linecap: square"/>
   </g>
   <g id="legend_1">
    <g id="patch_7">
     <path d="M 115 71.91625 
L 190.501563 71.91625 
Q 192.501563 71.91625 192.501563 69.91625 
L 192.501563 41.56 
Q 192.501563 39.56 190.501563 39.56 
L 115 39.56 
Q 113 39.56 113 41.56 
L 113 69.91625 
Q 113 71.91625 115 71.91625 
z
" style="fill: #ffffff; opacity: 0.8; stroke: #cccccc; stroke-linejoin: miter"/>
    </g>
    <g id="line2d_25">
     <path d="M 117 47.658437 
L 127 47.658437 
L 137 47.658437 
" style="fill: none; stroke: #000000; stroke-width: 1.5; stroke-linecap: square"/>
    </g>
    <g id="text_14">
     <!-- Soma -->
     <g transform="translate(145 51.158437) scale(0.1 -0.1)">
      <defs>
       <path id="DejaVuSans-53" d="M 3425 4513 
L 3425 3897 
Q 3066 4069 2747 4153 
Q 2428 4238 2131 4238 
Q 1616 4238 1336 4038 
Q 1056 3838 1056 3469 
Q 1056 3159 1242 3001 
Q 1428 2844 1947 2747 
L 2328 2669 
Q 3034 2534 3370 2195 
Q 3706 1856 3706 1288 
Q 3706 609 3251 259 
Q 2797 -91 1919 -91 
Q 1588 -91 1214 -16 
Q 841 59 441 206 
L 441 856 
Q 825 641 1194 531 
Q 1563 422 1919 422 
Q 2459 422 2753 634 
Q 3047 847 3047 1241 
Q 3047 1584 2836 1778 
Q 2625 1972 2144 2069 
L 1759 2144 
Q 1053 2284 737 2584 
Q 422 2884 422 3419 
Q 422 4038 858 4394 
Q 1294 4750 2059 4750 
Q 2388 4750 2728 4690 
Q 3069 4631 3425 4513 
z
" transform="scale(0.015625)"/>
       <path id="DejaVuSans-6f" d="M 1959 3097 
Q 1497 3097 1228 2736 
Q 959 2375 959 1747 
Q 959 1119 1226 758 
Q 1494 397 1959 397 
Q 2419 397 2687 759 
Q 2956 1122 2956 1747 
Q 2956 2369 2687 2733 
Q 2419 3097 1959 3097 
z
M 1959 3584 
Q 2709 3584 3137 3096 
Q 3566 2609 3566 1747 
Q 3566 888 3137 398 
Q 2709 -91 1959 -91 
Q 1206 -91 779 398 
Q 353 888 353 1747 
Q 353 2609 779 3096 
Q 1206 3584 1959 3584 
z
" transform="scale(0.015625)"/>
       <path id="DejaVuSans-61" d="M 2194 1759 
Q 1497 1759 1228 1600 
Q 959 1441 959 1056 
Q 959 750 1161 570 
Q 1363 391 1709 391 
Q 2188 391 2477 730 
Q 2766 1069 2766 1631 
L 2766 1759 
L 2194 1759 
z
M 3341 1997 
L 3341 0 
L 2766 0 
L 2766 531 
Q 2569 213 2275 61 
Q 1981 -91 1556 -91 
Q 1019 -91 701 211 
Q 384 513 384 1019 
Q 384 1609 779 1909 
Q 1175 2209 1959 2209 
L 2766 2209 
L 2766 2266 
Q 2766 2663 2505 2880 
Q 2244 3097 1772 3097 
Q 1472 3097 1187 3025 
Q 903 2953 641 2809 
L 641 3341 
Q 956 3463 1253 3523 
Q 1550 3584 1831 3584 
Q 2591 3584 2966 3190 
Q 3341 2797 3341 1997 
z
" transform="scale(0.015625)"/>
      </defs>
      <use xlink:href="#DejaVuSans-53"/>
      <use xlink:href="#DejaVuSans-6f" x="63.476562"/>
      <use xlink:href="#DejaVuSans-6d" x="124.658203"/>
      <use xlink:href="#DejaVuSans-61" x="222.070312"/>
     </g>
    </g>
    <g id="line2d_26">
     <path d="M 117 62.336562 
L 127 62.336562 
L 137 62.336562 
" style="fill: none; stroke: #4169e1; stroke-width: 1.5; stroke-linecap: square"/>
    </g>
    <g id="text_15">
     <!-- Dendrite -->
     <g transform="translate(145 65.836562) scale(0.1 -0.1)">
      <defs>
       <path id="DejaVuSans-44" d="M 1259 4147 
L 1259 519 
L 2022 519 
Q 2988 519 3436 956 
Q 3884 1394 3884 2338 
Q 3884 3275 3436 3711 
Q 2988 4147 2022 4147 
L 1259 4147 
z
M 628 4666 
L 1925 4666 
Q 3281 4666 3915 4102 
Q 4550 3538 4550 2338 
Q 4550 1131 3912 565 
Q 3275 0 1925 0 
L 628 0 
L 628 4666 
z
" transform="scale(0.015625)"/>
       <path id="DejaVuSans-6e" d="M 3513 2113 
L 3513 0 
L 2938 0 
L 2938 2094 
Q 2938 2591 2744 2837 
Q 2550 3084 2163 3084 
Q 1697 3084 1428 2787 
Q 1159 2491 1159 1978 
L 1159 0 
L 581 0 
L 581 3500 
L 1159 3500 
L 1159 2956 
Q 1366 3272 1645 3428 
Q 1925 3584 2291 3584 
Q 2894 3584 3203 3211 
Q 3513 2838 3513 2113 
z
" transform="scale(0.015625)"/>
       <path id="DejaVuSans-64" d="M 2906 2969 
L 2906 4863 
L 3481 4863 
L 3481 0 
L 2906 0 
L 2906 525 
Q 2725 213 2448 61 
Q 2172 -91 1784 -91 
Q 1150 -91 751 415 
Q 353 922 353 1747 
Q 353 2572 751 3078 
Q 1150 3584 1784 3584 
Q 2172 3584 2448 3432 
Q 2725 3281 2906 2969 
z
M 947 1747 
Q 947 1113 1208 752 
Q 1469 391 1925 391 
Q 2381 391 2643 752 
Q 2906 1113 2906 1747 
Q 2906 2381 2643 2742 
Q 2381 3103 1925 3103 
Q 1469 3103 1208 2742 
Q 947 2381 947 1747 
z
" transform="scale(0.015625)"/>
       <path id="DejaVuSans-72" d="M 2631 2963 
Q 2534 3019 2420 3045 
Q 2306 3072 2169 3072 
Q 1681 3072 1420 2755 
Q 1159 2438 1159 1844 
L 1159 0 
L 581 0 
L 581 3500 
L 1159 3500 
L 1159 2956 
Q 1341 3275 1631 3429 
Q 1922 3584 2338 3584 
Q 2397 3584 2469 3576 
Q 2541 3569 2628 3553 
L 2631 2963 
z
" transform="scale(0.015625)"/>
       <path id="DejaVuSans-74" d="M 1172 4494 
L 1172 3500 
L 2356 3500 
L 2356 3053 
L 1172 3053 
L 1172 1153 
Q 1172 725 1289 603 
Q 1406 481 1766 481 
L 2356 481 
L 2356 0 
L 1766 0 
Q 1100 0 847 248 
Q 594 497 594 1153 
L 594 3053 
L 172 3053 
L 172 3500 
L 594 3500 
L 594 4494 
L 1172 4494 
z
" transform="scale(0.015625)"/>
      </defs>
      <use xlink:href="#DejaVuSans-44"/>
      <use xlink:href="#DejaVuSans-65" x="77.001953"/>
      <use xlink:href="#DejaVuSans-6e" x="138.525391"/>
      <use xlink:href="#DejaVuSans-64" x="201.904297"/>
      <use xlink:href="#DejaVuSans-72" x="265.380859"/>
      <use xlink:href="#DejaVuSans-69" x="306.494141"/>
      <use xlink:href="#DejaVuSans-74" x="334.277344"/>
      <use xlink:href="#DejaVuSans-65" x="373.486328"/>
     </g>
    </g>
   </g>
  </g>
 </g>
 <defs>
  <clipPath id="p105b6e514d">
   <rect x="108" y="34.56" width="669.6" height="221.76"/>
  </clipPath>
 </defs>
</svg>
