<?xml version="1.0" encoding="utf-8" standalone="no"?>
<!DOCTYPE svg PUBLIC "-//W3C//DTD SVG 1.1//EN"
  "http://www.w3.org/Graphics/SVG/1.1/DTD/svg11.dtd">
<svg xmlns:xlink="http://www.w3.org/1999/xlink" width="864pt" height="288pt" viewBox="0 0 864 288" xmlns="http://www.w3.org/2000/svg" version="1.1">
 <metadata>
  <rdf:RDF xmlns:dc="http://purl.org/dc/elements/1.1/" xmlns:cc="http://creativecommons.org/ns#" xmlns:rdf="http://www.w3.org/1999/02/22-rdf-syntax-ns#">
   <cc:Work>
    <dc:type rdf:resource="http://purl.org/dc/dcmitype/StillImage"/>
    <dc:date>2024-04-12T18:06:55.040138</dc:date>
    <dc:format>image/svg+xml</dc:format>
    <dc:creator>
     <cc:Agent>
      <dc:title>Matplotlib v3.8.2, https://matplotlib.org/</dc:title>
     </cc:Agent>
    </dc:creator>
   </cc:Work>
  </rdf:RDF>
 </metadata>
 <defs>
  <style type="text/css">*{stroke-linejoin: round; stroke-linecap: butt}</style>
 </defs>
 <g id="figure_1">
  <g id="patch_1">
   <path d="M 0 288 
L 864 288 
L 864 0 
L 0 0 
z
" style="fill: #ffffff"/>
  </g>
  <g id="axes_1">
   <g id="patch_2">
    <path d="M 108 256.32 
L 777.6 256.32 
L 777.6 34.56 
L 108 34.56 
z
" style="fill: #ffffff"/>
   </g>
   <g id="matplotlib.axis_1">
    <g id="xtick_1">
     <g id="line2d_1">
      <path d="M 108 256.32 
L 108 34.56 
" clip-path="url(#p8ebcf30087)" style="fill: none; stroke: #b0b0b0; stroke-width: 0.8; stroke-linecap: square"/>
     </g>
     <g id="line2d_2">
      <defs>
       <path id="ma50a3afc33" d="M 0 0 
L 0 3.5 
" style="stroke: #000000; stroke-width: 0.8"/>
      </defs>
      <g>
       <use xlink:href="#ma50a3afc33" x="108" y="256.32" style="stroke: #000000; stroke-width: 0.8"/>
      </g>
     </g>
     <g id="text_1">
      <!-- 100 -->
      <g transform="translate(94.63875 273.957812) scale(0.14 -0.14)">
       <defs>
        <path id="DejaVuSans-31" d="M 794 531 
L 1825 531 
L 1825 4091 
L 703 3866 
L 703 4441 
L 1819 4666 
L 2450 4666 
L 2450 531 
L 3481 531 
L 3481 0 
L 794 0 
L 794 531 
z
" transform="scale(0.015625)"/>
        <path id="DejaVuSans-30" d="M 2034 4250 
Q 1547 4250 1301 3770 
Q 1056 3291 1056 2328 
Q 1056 1369 1301 889 
Q 1547 409 2034 409 
Q 2525 409 2770 889 
Q 3016 1369 3016 2328 
Q 3016 3291 2770 3770 
Q 2525 4250 2034 4250 
z
M 2034 4750 
Q 2819 4750 3233 4129 
Q 3647 3509 3647 2328 
Q 3647 1150 3233 529 
Q 2819 -91 2034 -91 
Q 1250 -91 836 529 
Q 422 1150 422 2328 
Q 422 3509 836 4129 
Q 1250 4750 2034 4750 
z
" transform="scale(0.015625)"/>
       </defs>
       <use xlink:href="#DejaVuSans-31"/>
       <use xlink:href="#DejaVuSans-30" x="63.623047"/>
       <use xlink:href="#DejaVuSans-30" x="127.246094"/>
      </g>
     </g>
    </g>
    <g id="xtick_2">
     <g id="line2d_3">
      <path d="M 241.92 256.32 
L 241.92 34.56 
" clip-path="url(#p8ebcf30087)" style="fill: none; stroke: #b0b0b0; stroke-width: 0.8; stroke-linecap: square"/>
     </g>
     <g id="line2d_4">
      <g>
       <use xlink:href="#ma50a3afc33" x="241.92" y="256.32" style="stroke: #000000; stroke-width: 0.8"/>
      </g>
     </g>
     <g id="text_2">
      <!-- 120 -->
      <g transform="translate(228.55875 273.957812) scale(0.14 -0.14)">
       <defs>
        <path id="DejaVuSans-32" d="M 1228 531 
L 3431 531 
L 3431 0 
L 469 0 
L 469 531 
Q 828 903 1448 1529 
Q 2069 2156 2228 2338 
Q 2531 2678 2651 2914 
Q 2772 3150 2772 3378 
Q 2772 3750 2511 3984 
Q 2250 4219 1831 4219 
Q 1534 4219 1204 4116 
Q 875 4013 500 3803 
L 500 4441 
Q 881 4594 1212 4672 
Q 1544 4750 1819 4750 
Q 2544 4750 2975 4387 
Q 3406 4025 3406 3419 
Q 3406 3131 3298 2873 
Q 3191 2616 2906 2266 
Q 2828 2175 2409 1742 
Q 1991 1309 1228 531 
z
" transform="scale(0.015625)"/>
       </defs>
       <use xlink:href="#DejaVuSans-31"/>
       <use xlink:href="#DejaVuSans-32" x="63.623047"/>
       <use xlink:href="#DejaVuSans-30" x="127.246094"/>
      </g>
     </g>
    </g>
    <g id="xtick_3">
     <g id="line2d_5">
      <path d="M 375.84 256.32 
L 375.84 34.56 
" clip-path="url(#p8ebcf30087)" style="fill: none; stroke: #b0b0b0; stroke-width: 0.8; stroke-linecap: square"/>
     </g>
     <g id="line2d_6">
      <g>
       <use xlink:href="#ma50a3afc33" x="375.84" y="256.32" style="stroke: #000000; stroke-width: 0.8"/>
      </g>
     </g>
     <g id="text_3">
      <!-- 140 -->
      <g transform="translate(362.47875 273.957812) scale(0.14 -0.14)">
       <defs>
        <path id="DejaVuSans-34" d="M 2419 4116 
L 825 1625 
L 2419 1625 
L 2419 4116 
z
M 2253 4666 
L 3047 4666 
L 3047 1625 
L 3713 1625 
L 3713 1100 
L 3047 1100 
L 3047 0 
L 2419 0 
L 2419 1100 
L 313 1100 
L 313 1709 
L 2253 4666 
z
" transform="scale(0.015625)"/>
       </defs>
       <use xlink:href="#DejaVuSans-31"/>
       <use xlink:href="#DejaVuSans-34" x="63.623047"/>
       <use xlink:href="#DejaVuSans-30" x="127.246094"/>
      </g>
     </g>
    </g>
    <g id="xtick_4">
     <g id="line2d_7">
      <path d="M 509.76 256.32 
L 509.76 34.56 
" clip-path="url(#p8ebcf30087)" style="fill: none; stroke: #b0b0b0; stroke-width: 0.8; stroke-linecap: square"/>
     </g>
     <g id="line2d_8">
      <g>
       <use xlink:href="#ma50a3afc33" x="509.76" y="256.32" style="stroke: #000000; stroke-width: 0.8"/>
      </g>
     </g>
     <g id="text_4">
      <!-- 160 -->
      <g transform="translate(496.39875 273.957812) scale(0.14 -0.14)">
       <defs>
        <path id="DejaVuSans-36" d="M 2113 2584 
Q 1688 2584 1439 2293 
Q 1191 2003 1191 1497 
Q 1191 994 1439 701 
Q 1688 409 2113 409 
Q 2538 409 2786 701 
Q 3034 994 3034 1497 
Q 3034 2003 2786 2293 
Q 2538 2584 2113 2584 
z
M 3366 4563 
L 3366 3988 
Q 3128 4100 2886 4159 
Q 2644 4219 2406 4219 
Q 1781 4219 1451 3797 
Q 1122 3375 1075 2522 
Q 1259 2794 1537 2939 
Q 1816 3084 2150 3084 
Q 2853 3084 3261 2657 
Q 3669 2231 3669 1497 
Q 3669 778 3244 343 
Q 2819 -91 2113 -91 
Q 1303 -91 875 529 
Q 447 1150 447 2328 
Q 447 3434 972 4092 
Q 1497 4750 2381 4750 
Q 2619 4750 2861 4703 
Q 3103 4656 3366 4563 
z
" transform="scale(0.015625)"/>
       </defs>
       <use xlink:href="#DejaVuSans-31"/>
       <use xlink:href="#DejaVuSans-36" x="63.623047"/>
       <use xlink:href="#DejaVuSans-30" x="127.246094"/>
      </g>
     </g>
    </g>
    <g id="xtick_5">
     <g id="line2d_9">
      <path d="M 643.68 256.32 
L 643.68 34.56 
" clip-path="url(#p8ebcf30087)" style="fill: none; stroke: #b0b0b0; stroke-width: 0.8; stroke-linecap: square"/>
     </g>
     <g id="line2d_10">
      <g>
       <use xlink:href="#ma50a3afc33" x="643.68" y="256.32" style="stroke: #000000; stroke-width: 0.8"/>
      </g>
     </g>
     <g id="text_5">
      <!-- 180 -->
      <g transform="translate(630.31875 273.957812) scale(0.14 -0.14)">
       <defs>
        <path id="DejaVuSans-38" d="M 2034 2216 
Q 1584 2216 1326 1975 
Q 1069 1734 1069 1313 
Q 1069 891 1326 650 
Q 1584 409 2034 409 
Q 2484 409 2743 651 
Q 3003 894 3003 1313 
Q 3003 1734 2745 1975 
Q 2488 2216 2034 2216 
z
M 1403 2484 
Q 997 2584 770 2862 
Q 544 3141 544 3541 
Q 544 4100 942 4425 
Q 1341 4750 2034 4750 
Q 2731 4750 3128 4425 
Q 3525 4100 3525 3541 
Q 3525 3141 3298 2862 
Q 3072 2584 2669 2484 
Q 3125 2378 3379 2068 
Q 3634 1759 3634 1313 
Q 3634 634 3220 271 
Q 2806 -91 2034 -91 
Q 1263 -91 848 271 
Q 434 634 434 1313 
Q 434 1759 690 2068 
Q 947 2378 1403 2484 
z
M 1172 3481 
Q 1172 3119 1398 2916 
Q 1625 2713 2034 2713 
Q 2441 2713 2670 2916 
Q 2900 3119 2900 3481 
Q 2900 3844 2670 4047 
Q 2441 4250 2034 4250 
Q 1625 4250 1398 4047 
Q 1172 3844 1172 3481 
z
" transform="scale(0.015625)"/>
       </defs>
       <use xlink:href="#DejaVuSans-31"/>
       <use xlink:href="#DejaVuSans-38" x="63.623047"/>
       <use xlink:href="#DejaVuSans-30" x="127.246094"/>
      </g>
     </g>
    </g>
    <g id="xtick_6">
     <g id="line2d_11">
      <path d="M 777.6 256.32 
L 777.6 34.56 
" clip-path="url(#p8ebcf30087)" style="fill: none; stroke: #b0b0b0; stroke-width: 0.8; stroke-linecap: square"/>
     </g>
     <g id="line2d_12">
      <g>
       <use xlink:href="#ma50a3afc33" x="777.6" y="256.32" style="stroke: #000000; stroke-width: 0.8"/>
      </g>
     </g>
     <g id="text_6">
      <!-- 200 -->
      <g transform="translate(764.23875 273.957812) scale(0.14 -0.14)">
       <use xlink:href="#DejaVuSans-32"/>
       <use xlink:href="#DejaVuSans-30" x="63.623047"/>
       <use xlink:href="#DejaVuSans-30" x="127.246094"/>
      </g>
     </g>
    </g>
    <g id="text_7">
     <!-- Time (ms) -->
     <g transform="translate(407.521094 291.507187) scale(0.14 -0.14)">
      <defs>
       <path id="DejaVuSans-54" d="M -19 4666 
L 3928 4666 
L 3928 4134 
L 2272 4134 
L 2272 0 
L 1638 0 
L 1638 4134 
L -19 4134 
L -19 4666 
z
" transform="scale(0.015625)"/>
       <path id="DejaVuSans-69" d="M 603 3500 
L 1178 3500 
L 1178 0 
L 603 0 
L 603 3500 
z
M 603 4863 
L 1178 4863 
L 1178 4134 
L 603 4134 
L 603 4863 
z
" transform="scale(0.015625)"/>
       <path id="DejaVuSans-6d" d="M 3328 2828 
Q 3544 3216 3844 3400 
Q 4144 3584 4550 3584 
Q 5097 3584 5394 3201 
Q 5691 2819 5691 2113 
L 5691 0 
L 5113 0 
L 5113 2094 
Q 5113 2597 4934 2840 
Q 4756 3084 4391 3084 
Q 3944 3084 3684 2787 
Q 3425 2491 3425 1978 
L 3425 0 
L 2847 0 
L 2847 2094 
Q 2847 2600 2669 2842 
Q 2491 3084 2119 3084 
Q 1678 3084 1418 2786 
Q 1159 2488 1159 1978 
L 1159 0 
L 581 0 
L 581 3500 
L 1159 3500 
L 1159 2956 
Q 1356 3278 1631 3431 
Q 1906 3584 2284 3584 
Q 2666 3584 2933 3390 
Q 3200 3197 3328 2828 
z
" transform="scale(0.015625)"/>
       <path id="DejaVuSans-65" d="M 3597 1894 
L 3597 1613 
L 953 1613 
Q 991 1019 1311 708 
Q 1631 397 2203 397 
Q 2534 397 2845 478 
Q 3156 559 3463 722 
L 3463 178 
Q 3153 47 2828 -22 
Q 2503 -91 2169 -91 
Q 1331 -91 842 396 
Q 353 884 353 1716 
Q 353 2575 817 3079 
Q 1281 3584 2069 3584 
Q 2775 3584 3186 3129 
Q 3597 2675 3597 1894 
z
M 3022 2063 
Q 3016 2534 2758 2815 
Q 2500 3097 2075 3097 
Q 1594 3097 1305 2825 
Q 1016 2553 972 2059 
L 3022 2063 
z
" transform="scale(0.015625)"/>
       <path id="DejaVuSans-20" transform="scale(0.015625)"/>
       <path id="DejaVuSans-28" d="M 1984 4856 
Q 1566 4138 1362 3434 
Q 1159 2731 1159 2009 
Q 1159 1288 1364 580 
Q 1569 -128 1984 -844 
L 1484 -844 
Q 1016 -109 783 600 
Q 550 1309 550 2009 
Q 550 2706 781 3412 
Q 1013 4119 1484 4856 
L 1984 4856 
z
" transform="scale(0.015625)"/>
       <path id="DejaVuSans-73" d="M 2834 3397 
L 2834 2853 
Q 2591 2978 2328 3040 
Q 2066 3103 1784 3103 
Q 1356 3103 1142 2972 
Q 928 2841 928 2578 
Q 928 2378 1081 2264 
Q 1234 2150 1697 2047 
L 1894 2003 
Q 2506 1872 2764 1633 
Q 3022 1394 3022 966 
Q 3022 478 2636 193 
Q 2250 -91 1575 -91 
Q 1294 -91 989 -36 
Q 684 19 347 128 
L 347 722 
Q 666 556 975 473 
Q 1284 391 1588 391 
Q 1994 391 2212 530 
Q 2431 669 2431 922 
Q 2431 1156 2273 1281 
Q 2116 1406 1581 1522 
L 1381 1569 
Q 847 1681 609 1914 
Q 372 2147 372 2553 
Q 372 3047 722 3315 
Q 1072 3584 1716 3584 
Q 2034 3584 2315 3537 
Q 2597 3491 2834 3397 
z
" transform="scale(0.015625)"/>
       <path id="DejaVuSans-29" d="M 513 4856 
L 1013 4856 
Q 1481 4119 1714 3412 
Q 1947 2706 1947 2009 
Q 1947 1309 1714 600 
Q 1481 -109 1013 -844 
L 513 -844 
Q 928 -128 1133 580 
Q 1338 1288 1338 2009 
Q 1338 2731 1133 3434 
Q 928 4138 513 4856 
z
" transform="scale(0.015625)"/>
      </defs>
      <use xlink:href="#DejaVuSans-54"/>
      <use xlink:href="#DejaVuSans-69" x="57.958984"/>
      <use xlink:href="#DejaVuSans-6d" x="85.742188"/>
      <use xlink:href="#DejaVuSans-65" x="183.154297"/>
      <use xlink:href="#DejaVuSans-20" x="244.677734"/>
      <use xlink:href="#DejaVuSans-28" x="276.464844"/>
      <use xlink:href="#DejaVuSans-6d" x="315.478516"/>
      <use xlink:href="#DejaVuSans-73" x="412.890625"/>
      <use xlink:href="#DejaVuSans-29" x="464.990234"/>
     </g>
    </g>
   </g>
   <g id="matplotlib.axis_2">
    <g id="ytick_1">
     <g id="line2d_13">
      <path d="M 108 225.010256 
L 777.6 225.010256 
" clip-path="url(#p8ebcf30087)" style="fill: none; stroke: #b0b0b0; stroke-width: 0.8; stroke-linecap: square"/>
     </g>
     <g id="line2d_14">
      <defs>
       <path id="m0028a35fbb" d="M 0 0 
L -3.5 0 
" style="stroke: #000000; stroke-width: 0.8"/>
      </defs>
      <g>
       <use xlink:href="#m0028a35fbb" x="108" y="225.010256" style="stroke: #000000; stroke-width: 0.8"/>
      </g>
     </g>
     <g id="text_8">
      <!-- −60 -->
      <g transform="translate(71.453437 230.329163) scale(0.14 -0.14)">
       <defs>
        <path id="DejaVuSans-2212" d="M 678 2272 
L 4684 2272 
L 4684 1741 
L 678 1741 
L 678 2272 
z
" transform="scale(0.015625)"/>
       </defs>
       <use xlink:href="#DejaVuSans-2212"/>
       <use xlink:href="#DejaVuSans-36" x="83.789062"/>
       <use xlink:href="#DejaVuSans-30" x="147.412109"/>
      </g>
     </g>
    </g>
    <g id="ytick_2">
     <g id="line2d_15">
      <path d="M 108 182.618424 
L 777.6 182.618424 
" clip-path="url(#p8ebcf30087)" style="fill: none; stroke: #b0b0b0; stroke-width: 0.8; stroke-linecap: square"/>
     </g>
     <g id="line2d_16">
      <g>
       <use xlink:href="#m0028a35fbb" x="108" y="182.618424" style="stroke: #000000; stroke-width: 0.8"/>
      </g>
     </g>
     <g id="text_9">
      <!-- −40 -->
      <g transform="translate(71.453437 187.937331) scale(0.14 -0.14)">
       <use xlink:href="#DejaVuSans-2212"/>
       <use xlink:href="#DejaVuSans-34" x="83.789062"/>
       <use xlink:href="#DejaVuSans-30" x="147.412109"/>
      </g>
     </g>
    </g>
    <g id="ytick_3">
     <g id="line2d_17">
      <path d="M 108 140.226592 
L 777.6 140.226592 
" clip-path="url(#p8ebcf30087)" style="fill: none; stroke: #b0b0b0; stroke-width: 0.8; stroke-linecap: square"/>
     </g>
     <g id="line2d_18">
      <g>
       <use xlink:href="#m0028a35fbb" x="108" y="140.226592" style="stroke: #000000; stroke-width: 0.8"/>
      </g>
     </g>
     <g id="text_10">
      <!-- −20 -->
      <g transform="translate(71.453437 145.545498) scale(0.14 -0.14)">
       <use xlink:href="#DejaVuSans-2212"/>
       <use xlink:href="#DejaVuSans-32" x="83.789062"/>
       <use xlink:href="#DejaVuSans-30" x="147.412109"/>
      </g>
     </g>
    </g>
    <g id="ytick_4">
     <g id="line2d_19">
      <path d="M 108 97.83476 
L 777.6 97.83476 
" clip-path="url(#p8ebcf30087)" style="fill: none; stroke: #b0b0b0; stroke-width: 0.8; stroke-linecap: square"/>
     </g>
     <g id="line2d_20">
      <g>
       <use xlink:href="#m0028a35fbb" x="108" y="97.83476" style="stroke: #000000; stroke-width: 0.8"/>
      </g>
     </g>
     <g id="text_11">
      <!-- 0 -->
      <g transform="translate(92.0925 103.153666) scale(0.14 -0.14)">
       <use xlink:href="#DejaVuSans-30"/>
      </g>
     </g>
    </g>
    <g id="ytick_5">
     <g id="line2d_21">
      <path d="M 108 55.442928 
L 777.6 55.442928 
" clip-path="url(#p8ebcf30087)" style="fill: none; stroke: #b0b0b0; stroke-width: 0.8; stroke-linecap: square"/>
     </g>
     <g id="line2d_22">
      <g>
       <use xlink:href="#m0028a35fbb" x="108" y="55.442928" style="stroke: #000000; stroke-width: 0.8"/>
      </g>
     </g>
     <g id="text_12">
      <!-- 20 -->
      <g transform="translate(83.185 60.761834) scale(0.14 -0.14)">
       <use xlink:href="#DejaVuSans-32"/>
       <use xlink:href="#DejaVuSans-30" x="63.623047"/>
      </g>
     </g>
    </g>
    <g id="text_13">
     <!-- $V_{m}$ (mV) -->
     <g transform="translate(64.541875 174.49) rotate(-90) scale(0.14 -0.14)">
      <defs>
       <path id="DejaVuSans-Oblique-56" d="M 1319 0 
L 500 4666 
L 1119 4666 
L 1797 653 
L 4063 4666 
L 4750 4666 
L 2053 0 
L 1319 0 
z
" transform="scale(0.015625)"/>
       <path id="DejaVuSans-Oblique-6d" d="M 5747 2113 
L 5338 0 
L 4763 0 
L 5166 2094 
Q 5191 2228 5203 2325 
Q 5216 2422 5216 2491 
Q 5216 2772 5059 2928 
Q 4903 3084 4622 3084 
Q 4203 3084 3875 2770 
Q 3547 2456 3450 1953 
L 3066 0 
L 2491 0 
L 2900 2094 
Q 2925 2209 2937 2307 
Q 2950 2406 2950 2484 
Q 2950 2769 2794 2926 
Q 2638 3084 2363 3084 
Q 1938 3084 1609 2770 
Q 1281 2456 1184 1953 
L 800 0 
L 225 0 
L 909 3500 
L 1484 3500 
L 1375 2956 
Q 1609 3263 1923 3423 
Q 2238 3584 2597 3584 
Q 2978 3584 3223 3384 
Q 3469 3184 3519 2828 
Q 3781 3197 4126 3390 
Q 4472 3584 4856 3584 
Q 5306 3584 5551 3325 
Q 5797 3066 5797 2591 
Q 5797 2488 5784 2364 
Q 5772 2241 5747 2113 
z
" transform="scale(0.015625)"/>
       <path id="DejaVuSans-56" d="M 1831 0 
L 50 4666 
L 709 4666 
L 2188 738 
L 3669 4666 
L 4325 4666 
L 2547 0 
L 1831 0 
z
" transform="scale(0.015625)"/>
      </defs>
      <use xlink:href="#DejaVuSans-Oblique-56" transform="translate(0 0.125)"/>
      <use xlink:href="#DejaVuSans-Oblique-6d" transform="translate(68.408203 -16.28125) scale(0.7)"/>
      <use xlink:href="#DejaVuSans-20" transform="translate(139.331055 0.125)"/>
      <use xlink:href="#DejaVuSans-28" transform="translate(171.118164 0.125)"/>
      <use xlink:href="#DejaVuSans-6d" transform="translate(210.131836 0.125)"/>
      <use xlink:href="#DejaVuSans-56" transform="translate(307.543945 0.125)"/>
      <use xlink:href="#DejaVuSans-29" transform="translate(375.952148 0.125)"/>
     </g>
    </g>
   </g>
   <g id="line2d_23">
    <path d="M 108 215.080611 
L 110.0088 215.007419 
L 111.348 214.873543 
L 112.6872 214.987672 
L 114.696 215.021868 
L 116.0352 215.23605 
L 118.044 216.012753 
L 119.3832 216.742588 
L 120.0528 216.931968 
L 121.392 217.682498 
L 122.7312 218.275301 
L 124.0704 218.460187 
L 126.7488 218.463621 
L 130.0968 218.244716 
L 135.4536 217.810306 
L 136.1232 217.919074 
L 137.4624 218.514344 
L 140.8104 219.000224 
L 142.8192 218.972856 
L 143.4888 218.931203 
L 144.828 219.079644 
L 146.8368 219.010456 
L 148.176 218.883232 
L 150.1848 218.966603 
L 152.8632 218.696614 
L 156.8808 218.039287 
L 161.568 217.052028 
L 167.5944 215.550536 
L 175.6296 213.298425 
L 190.3608 208.883168 
L 198.396 206.449784 
L 200.4048 206.294035 
L 203.7528 205.607719 
L 205.7616 205.126905 
L 207.7704 205.087556 
L 208.44 205.00849 
L 210.4488 205.165131 
L 212.4576 205.02539 
L 215.8056 204.532553 
L 219.8232 203.71668 
L 224.5104 202.534636 
L 225.8496 202.107266 
L 227.1888 202.021918 
L 229.1976 202.87014 
L 230.5368 203.196845 
L 233.8848 203.798925 
L 234.5544 204.105394 
L 235.8936 205.098629 
L 237.2328 206.201948 
L 239.9112 208.187683 
L 241.2504 209.557686 
L 242.5896 210.300762 
L 243.9288 210.758822 
L 244.5984 210.928359 
L 245.9376 211.487542 
L 246.6072 211.671611 
L 248.616 212.694903 
L 250.6248 213.73419 
L 251.964 214.245285 
L 253.9728 214.658836 
L 255.9816 215.760041 
L 257.3208 216.177235 
L 259.3296 216.370504 
L 260.6688 216.410322 
L 262.008 216.685776 
L 264.0168 216.799617 
L 264.6864 216.799783 
L 268.0344 217.438686 
L 270.0432 217.477295 
L 270.7128 217.457563 
L 272.052 217.655909 
L 274.0608 217.654547 
L 277.4088 217.371935 
L 281.4264 216.796258 
L 282.096 216.681521 
L 284.1048 216.669161 
L 286.7832 216.296895 
L 292.14 215.391451 
L 293.4792 215.304856 
L 296.8272 214.714913 
L 302.184 213.492561 
L 309.5496 211.558014 
L 319.5936 208.656971 
L 328.2984 205.922607 
L 332.9856 204.258391 
L 336.3336 202.823247 
L 338.3424 201.725813 
L 339.6816 200.764056 
L 340.3512 200.186059 
L 341.0208 199.448544 
L 341.6904 198.451182 
L 342.36 197.012595 
L 343.0296 194.27227 
L 343.6992 185.447033 
L 344.3688 137.610062 
L 345.0384 56.505303 
L 345.708 66.327631 
L 346.3776 86.072083 
L 347.7168 112.814815 
L 349.7256 145.638416 
L 351.7344 174.418549 
L 353.0736 191.101735 
L 353.7432 197.418943 
L 354.4128 201.838395 
L 355.0824 205.095778 
L 355.752 207.388451 
L 357.0912 210.37558 
L 358.4304 212.346671 
L 359.1 213.200266 
L 359.7696 213.834587 
L 361.1088 214.608841 
L 361.7784 214.840229 
L 363.1176 215.618769 
L 364.4568 216.164094 
L 367.1352 216.547332 
L 368.4744 216.662271 
L 369.8136 216.70179 
L 371.8224 216.46099 
L 372.492 216.344459 
L 373.8312 216.629403 
L 375.1704 217.412345 
L 376.5096 217.644743 
L 378.5184 217.649555 
L 379.188 217.610791 
L 379.8576 217.704402 
L 383.2056 218.628745 
L 388.5624 219.651031 
L 391.9104 219.884408 
L 393.2496 219.968 
L 395.928 219.767084 
L 399.276 219.463921 
L 404.6328 219.606183 
L 405.972 219.805527 
L 410.6592 219.822048 
L 413.3376 219.520888 
L 417.3552 218.832885 
L 422.0424 217.810407 
L 427.3992 216.59517 
L 428.7384 216.441481 
L 432.0864 215.707364 
L 438.1128 214.116029 
L 448.1568 211.18839 
L 470.9232 204.267569 
L 472.932 203.591171 
L 475.6104 203.295519 
L 476.9496 203.020705 
L 478.9584 203.058491 
L 480.9672 202.848614 
L 484.3152 202.358478 
L 484.9848 202.388888 
L 486.9936 202.839688 
L 489.0024 202.982919 
L 490.3416 203.697659 
L 491.6808 204.303412 
L 493.02 205.19918 
L 494.3592 205.893613 
L 495.6984 206.792686 
L 499.0464 208.111318 
L 503.7336 209.101275 
L 504.4032 209.164393 
L 505.7424 209.551663 
L 508.4208 209.978394 
L 511.0992 211.943317 
L 512.4384 212.413389 
L 514.4472 212.952406 
L 515.1168 213.168853 
L 516.456 214.001516 
L 517.1256 214.247862 
L 519.804 216.229926 
L 521.1432 216.746804 
L 523.8216 217.481179 
L 525.1608 218.041977 
L 527.1696 218.77726 
L 528.5088 219.119642 
L 530.5176 219.481659 
L 531.8568 219.734215 
L 533.8656 219.860604 
L 536.544 219.828362 
L 539.892 219.576139 
L 543.9096 219.044821 
L 548.5968 218.187823 
L 553.9536 216.974976 
L 560.6496 215.206995 
L 569.3544 212.647473 
L 581.4072 208.863156 
L 590.7816 205.730448 
L 594.7992 204.225059 
L 598.1472 202.729026 
L 600.156 201.562789 
L 601.4952 200.537912 
L 602.8344 199.256216 
L 603.504 198.397385 
L 604.1736 197.106632 
L 604.8432 194.552729 
L 605.5128 185.774901 
L 606.1824 139.493775 
L 606.852 57.513788 
L 607.5216 66.148127 
L 608.1912 85.663019 
L 609.5304 112.381154 
L 611.5392 145.227021 
L 613.548 174.0392 
L 614.8872 191.087749 
L 615.5568 197.537258 
L 616.2264 202.033608 
L 616.896 205.035456 
L 617.5656 207.122554 
L 618.2352 208.648755 
L 618.9048 209.802548 
L 619.5744 210.687978 
L 620.244 211.368117 
L 621.5832 212.272226 
L 623.592 212.998459 
L 624.9312 213.240544 
L 627.6096 213.741213 
L 628.9488 213.590402 
L 629.6184 213.463064 
L 630.288 213.466324 
L 631.6272 213.899364 
L 632.9664 213.874195 
L 633.636 213.788442 
L 634.9752 213.836568 
L 635.6448 213.775075 
L 636.984 213.853695 
L 637.6536 213.806285 
L 639.6624 214.902763 
L 643.0104 215.659875 
L 644.3496 216.139373 
L 645.6888 216.453203 
L 647.028 216.699611 
L 647.6976 216.749549 
L 649.0368 217.203287 
L 650.376 217.512813 
L 651.0456 217.583115 
L 652.3848 217.921349 
L 653.724 218.203073 
L 655.7328 218.983352 
L 658.4112 219.854086 
L 660.42 220.720528 
L 661.7592 220.923338 
L 664.4376 221.022024 
L 672.4728 220.801826 
L 676.4904 220.227953 
L 681.1776 219.306453 
L 686.5344 218.019343 
L 693.2304 216.168816 
L 693.9 215.972863 
L 695.9088 215.744763 
L 699.2568 214.944384 
L 705.9528 213.067535 
L 720.0144 208.834933 
L 736.0848 203.828879 
L 740.772 202.099619 
L 743.4504 200.994122 
L 745.4592 200.421597 
L 746.7984 199.821104 
L 748.1376 199.141847 
L 749.4768 198.4097 
L 750.1464 197.876822 
L 750.816 197.088793 
L 751.4856 195.828174 
L 752.1552 193.418096 
L 752.8248 185.62824 
L 753.4944 148.732728 
L 754.164 73.83684 
L 754.8336 69.547024 
L 756.1728 98.458539 
L 758.1816 133.422164 
L 760.1904 164.015809 
L 762.1992 191.143476 
L 762.8688 198.279505 
L 763.5384 203.312941 
L 764.208 206.579207 
L 764.8776 208.801428 
L 766.2168 211.764793 
L 766.8864 212.809376 
L 767.556 213.592255 
L 769.5648 215.262558 
L 770.2344 215.740814 
L 771.5736 216.240293 
L 773.5824 216.910232 
L 774.9216 217.104396 
L 777.6 217.028738 
L 777.6 217.028738 
" clip-path="url(#p8ebcf30087)" style="fill: none; stroke: #000000; stroke-width: 1.5; stroke-linecap: square"/>
   </g>
   <g id="line2d_24">
    <path d="M 108 150.618261 
L 114.0264 155.141711 
L 116.7048 157.477053 
L 118.7136 159.61902 
L 120.7224 162.206952 
L 122.0616 164.196423 
L 122.7312 144.253393 
L 123.4008 140.484403 
L 124.0704 138.458842 
L 124.74 137.383972 
L 125.4096 136.776213 
L 126.7488 136.167023 
L 132.1056 134.596526 
L 136.1232 133.227817 
L 138.132 132.759449 
L 141.48 132.241161 
L 145.4976 131.832464 
L 150.1848 131.616571 
L 158.22 131.608645 
L 166.9248 131.815619 
L 177.6384 132.296667 
L 189.6912 133.069152 
L 199.7352 133.899478 
L 207.7704 134.945008 
L 211.788 135.694803 
L 219.1536 137.08134 
L 229.1976 138.902845 
L 232.5456 140.044673 
L 235.224 141.08727 
L 237.2328 142.129772 
L 239.9112 143.863349 
L 241.92 145.419593 
L 248.616 151.079149 
L 250.6248 153.080629 
L 253.3032 156.084678 
L 255.312 158.553216 
L 255.9816 159.453923 
L 256.6512 141.831036 
L 257.3208 138.670091 
L 257.9904 136.982139 
L 258.66 136.116885 
L 259.3296 135.652746 
L 260.6688 135.227696 
L 264.6864 134.454882 
L 272.7216 132.406838 
L 276.7392 131.74628 
L 280.7568 131.298922 
L 284.7744 131.065721 
L 292.14 130.986216 
L 299.5056 131.234461 
L 312.228 131.84132 
L 326.2896 132.757491 
L 338.3424 133.516769 
L 341.0208 133.517963 
L 342.36 133.382602 
L 343.0296 133.205494 
L 343.6992 132.738381 
L 344.3688 130.717853 
L 346.3776 115.141314 
L 347.0472 112.482201 
L 347.7168 111.330206 
L 348.3864 111.254852 
L 349.056 111.914499 
L 349.7256 113.073051 
L 351.0648 116.30781 
L 353.0736 122.327386 
L 355.0824 128.445731 
L 356.4216 131.842852 
L 357.7608 134.596876 
L 359.1 136.851339 
L 360.4392 138.752427 
L 362.448 141.10316 
L 365.1264 143.725282 
L 367.8048 145.962998 
L 371.1528 148.462893 
L 375.1704 151.337451 
L 378.5184 154.262331 
L 381.1968 156.785096 
L 383.2056 158.992235 
L 385.2144 161.484802 
L 387.2232 164.297735 
L 389.9016 168.532362 
L 390.5712 146.538483 
L 391.2408 142.072849 
L 391.9104 139.68345 
L 392.58 138.386187 
L 393.2496 137.628575 
L 393.9192 137.155004 
L 395.2584 136.58159 
L 400.6152 134.722627 
L 403.9632 133.615511 
L 406.6416 132.951095 
L 409.9896 132.36976 
L 414.6768 131.860559 
L 420.0336 131.527809 
L 426.06 131.38624 
L 430.7472 131.466589 
L 444.1392 131.998714 
L 455.5224 132.681089 
L 468.2448 133.675927 
L 476.28 134.465237 
L 480.2976 135.097609 
L 486.9936 136.351914 
L 490.3416 137.270007 
L 493.02 138.27004 
L 495.6984 139.513839 
L 508.4208 146.074246 
L 510.4296 147.349789 
L 513.108 149.447773 
L 515.7864 151.710594 
L 517.7952 153.674541 
L 519.804 156.022394 
L 522.4824 159.687039 
L 523.8216 161.672812 
L 524.4912 142.984158 
L 525.1608 139.582382 
L 525.8304 137.766468 
L 526.5 136.834509 
L 527.1696 136.340502 
L 528.5088 135.919034 
L 532.5264 135.217446 
L 535.8744 134.268021 
L 539.892 133.132482 
L 543.24 132.403447 
L 547.2576 131.793187 
L 551.9448 131.358259 
L 557.3016 131.108496 
L 563.9976 131.032336 
L 572.7024 131.179141 
L 583.416 131.602124 
L 601.4952 132.406146 
L 604.1736 132.229226 
L 604.8432 132.072327 
L 605.5128 131.639533 
L 606.1824 129.741977 
L 608.1912 114.637132 
L 608.8608 112.031131 
L 609.5304 110.904302 
L 610.2 110.836121 
L 610.8696 111.490015 
L 611.5392 112.632621 
L 612.8784 115.810346 
L 614.8872 121.703588 
L 616.896 127.672787 
L 618.2352 130.90711 
L 619.5744 133.455107 
L 620.9136 135.463396 
L 622.2528 137.075952 
L 623.592 138.401282 
L 625.6008 140.038698 
L 628.2792 141.848042 
L 630.9576 143.320205 
L 636.984 146.433526 
L 638.9928 147.515103 
L 641.6712 149.288869 
L 644.3496 151.278224 
L 647.028 153.540361 
L 649.7064 156.083176 
L 652.3848 159.042419 
L 654.3936 161.571208 
L 656.4024 164.489437 
L 657.7416 166.654491 
L 658.4112 145.565537 
L 659.0808 141.45342 
L 659.7504 139.264459 
L 660.42 138.107861 
L 661.0896 137.460404 
L 661.7592 137.077657 
L 663.0984 136.648175 
L 666.4464 135.758232 
L 673.812 133.425216 
L 677.16 132.658172 
L 680.508 132.102991 
L 684.5256 131.655563 
L 689.2128 131.349283 
L 694.5696 131.196197 
L 700.596 131.303936 
L 711.3096 131.67396 
L 722.6928 132.302217 
L 736.0848 133.283474 
L 749.4768 134.196042 
L 751.4856 134.178314 
L 752.1552 134.056628 
L 752.8248 133.667321 
L 753.4944 132.023037 
L 754.164 127.460503 
L 754.8336 121.766939 
L 755.5032 117.062668 
L 756.1728 114.018962 
L 756.8424 112.494969 
L 757.512 112.129525 
L 758.1816 112.587864 
L 758.8512 113.619716 
L 759.5208 115.050491 
L 760.86 118.674276 
L 762.8688 125.175884 
L 764.8776 131.491048 
L 766.2168 134.883193 
L 767.556 137.659068 
L 768.8952 139.963744 
L 770.904 142.86062 
L 772.9128 145.326524 
L 775.5912 148.23064 
L 777.6 150.188858 
L 777.6 150.188858 
" clip-path="url(#p8ebcf30087)" style="fill: none; stroke: #4169e1; stroke-width: 1.5; stroke-linecap: square"/>
   </g>
   <g id="patch_3">
    <path d="M 108 256.32 
L 108 34.56 
" style="fill: none; stroke: #000000; stroke-width: 0.8; stroke-linejoin: miter; stroke-linecap: square"/>
   </g>
   <g id="patch_4">
    <path d="M 777.6 256.32 
L 777.6 34.56 
" style="fill: none; stroke: #000000; stroke-width: 0.8; stroke-linejoin: miter; stroke-linecap: square"/>
   </g>
   <g id="patch_5">
    <path d="M 108 256.32 
L 777.6 256.32 
" style="fill: none; stroke: #000000; stroke-width: 0.8; stroke-linejoin: miter; stroke-linecap: square"/>
   </g>
   <g id="patch_6">
    <path d="M 108 34.56 
L 777.6 34.56 
" style="fill: none; stroke: #000000; stroke-width: 0.8; stroke-linejoin: miter; stroke-linecap: square"/>
   </g>
   <g id="legend_1">
    <g id="patch_7">
     <path d="M 115 71.91625 
L 190.501563 71.91625 
Q 192.501563 71.91625 192.501563 69.91625 
L 192.501563 41.56 
Q 192.501563 39.56 190.501563 39.56 
L 115 39.56 
Q 113 39.56 113 41.56 
L 113 69.91625 
Q 113 71.91625 115 71.91625 
z
" style="fill: #ffffff; opacity: 0.8; stroke: #cccccc; stroke-linejoin: miter"/>
    </g>
    <g id="line2d_25">
     <path d="M 117 47.658437 
L 127 47.658437 
L 137 47.658437 
" style="fill: none; stroke: #000000; stroke-width: 1.5; stroke-linecap: square"/>
    </g>
    <g id="text_14">
     <!-- Soma -->
     <g transform="translate(145 51.158437) scale(0.1 -0.1)">
      <defs>
       <path id="DejaVuSans-53" d="M 3425 4513 
L 3425 3897 
Q 3066 4069 2747 4153 
Q 2428 4238 2131 4238 
Q 1616 4238 1336 4038 
Q 1056 3838 1056 3469 
Q 1056 3159 1242 3001 
Q 1428 2844 1947 2747 
L 2328 2669 
Q 3034 2534 3370 2195 
Q 3706 1856 3706 1288 
Q 3706 609 3251 259 
Q 2797 -91 1919 -91 
Q 1588 -91 1214 -16 
Q 841 59 441 206 
L 441 856 
Q 825 641 1194 531 
Q 1563 422 1919 422 
Q 2459 422 2753 634 
Q 3047 847 3047 1241 
Q 3047 1584 2836 1778 
Q 2625 1972 2144 2069 
L 1759 2144 
Q 1053 2284 737 2584 
Q 422 2884 422 3419 
Q 422 4038 858 4394 
Q 1294 4750 2059 4750 
Q 2388 4750 2728 4690 
Q 3069 4631 3425 4513 
z
" transform="scale(0.015625)"/>
       <path id="DejaVuSans-6f" d="M 1959 3097 
Q 1497 3097 1228 2736 
Q 959 2375 959 1747 
Q 959 1119 1226 758 
Q 1494 397 1959 397 
Q 2419 397 2687 759 
Q 2956 1122 2956 1747 
Q 2956 2369 2687 2733 
Q 2419 3097 1959 3097 
z
M 1959 3584 
Q 2709 3584 3137 3096 
Q 3566 2609 3566 1747 
Q 3566 888 3137 398 
Q 2709 -91 1959 -91 
Q 1206 -91 779 398 
Q 353 888 353 1747 
Q 353 2609 779 3096 
Q 1206 3584 1959 3584 
z
" transform="scale(0.015625)"/>
       <path id="DejaVuSans-61" d="M 2194 1759 
Q 1497 1759 1228 1600 
Q 959 1441 959 1056 
Q 959 750 1161 570 
Q 1363 391 1709 391 
Q 2188 391 2477 730 
Q 2766 1069 2766 1631 
L 2766 1759 
L 2194 1759 
z
M 3341 1997 
L 3341 0 
L 2766 0 
L 2766 531 
Q 2569 213 2275 61 
Q 1981 -91 1556 -91 
Q 1019 -91 701 211 
Q 384 513 384 1019 
Q 384 1609 779 1909 
Q 1175 2209 1959 2209 
L 2766 2209 
L 2766 2266 
Q 2766 2663 2505 2880 
Q 2244 3097 1772 3097 
Q 1472 3097 1187 3025 
Q 903 2953 641 2809 
L 641 3341 
Q 956 3463 1253 3523 
Q 1550 3584 1831 3584 
Q 2591 3584 2966 3190 
Q 3341 2797 3341 1997 
z
" transform="scale(0.015625)"/>
      </defs>
      <use xlink:href="#DejaVuSans-53"/>
      <use xlink:href="#DejaVuSans-6f" x="63.476562"/>
      <use xlink:href="#DejaVuSans-6d" x="124.658203"/>
      <use xlink:href="#DejaVuSans-61" x="222.070312"/>
     </g>
    </g>
    <g id="line2d_26">
     <path d="M 117 62.336562 
L 127 62.336562 
L 137 62.336562 
" style="fill: none; stroke: #4169e1; stroke-width: 1.5; stroke-linecap: square"/>
    </g>
    <g id="text_15">
     <!-- Dendrite -->
     <g transform="translate(145 65.836562) scale(0.1 -0.1)">
      <defs>
       <path id="DejaVuSans-44" d="M 1259 4147 
L 1259 519 
L 2022 519 
Q 2988 519 3436 956 
Q 3884 1394 3884 2338 
Q 3884 3275 3436 3711 
Q 2988 4147 2022 4147 
L 1259 4147 
z
M 628 4666 
L 1925 4666 
Q 3281 4666 3915 4102 
Q 4550 3538 4550 2338 
Q 4550 1131 3912 565 
Q 3275 0 1925 0 
L 628 0 
L 628 4666 
z
" transform="scale(0.015625)"/>
       <path id="DejaVuSans-6e" d="M 3513 2113 
L 3513 0 
L 2938 0 
L 2938 2094 
Q 2938 2591 2744 2837 
Q 2550 3084 2163 3084 
Q 1697 3084 1428 2787 
Q 1159 2491 1159 1978 
L 1159 0 
L 581 0 
L 581 3500 
L 1159 3500 
L 1159 2956 
Q 1366 3272 1645 3428 
Q 1925 3584 2291 3584 
Q 2894 3584 3203 3211 
Q 3513 2838 3513 2113 
z
" transform="scale(0.015625)"/>
       <path id="DejaVuSans-64" d="M 2906 2969 
L 2906 4863 
L 3481 4863 
L 3481 0 
L 2906 0 
L 2906 525 
Q 2725 213 2448 61 
Q 2172 -91 1784 -91 
Q 1150 -91 751 415 
Q 353 922 353 1747 
Q 353 2572 751 3078 
Q 1150 3584 1784 3584 
Q 2172 3584 2448 3432 
Q 2725 3281 2906 2969 
z
M 947 1747 
Q 947 1113 1208 752 
Q 1469 391 1925 391 
Q 2381 391 2643 752 
Q 2906 1113 2906 1747 
Q 2906 2381 2643 2742 
Q 2381 3103 1925 3103 
Q 1469 3103 1208 2742 
Q 947 2381 947 1747 
z
" transform="scale(0.015625)"/>
       <path id="DejaVuSans-72" d="M 2631 2963 
Q 2534 3019 2420 3045 
Q 2306 3072 2169 3072 
Q 1681 3072 1420 2755 
Q 1159 2438 1159 1844 
L 1159 0 
L 581 0 
L 581 3500 
L 1159 3500 
L 1159 2956 
Q 1341 3275 1631 3429 
Q 1922 3584 2338 3584 
Q 2397 3584 2469 3576 
Q 2541 3569 2628 3553 
L 2631 2963 
z
" transform="scale(0.015625)"/>
       <path id="DejaVuSans-74" d="M 1172 4494 
L 1172 3500 
L 2356 3500 
L 2356 3053 
L 1172 3053 
L 1172 1153 
Q 1172 725 1289 603 
Q 1406 481 1766 481 
L 2356 481 
L 2356 0 
L 1766 0 
Q 1100 0 847 248 
Q 594 497 594 1153 
L 594 3053 
L 172 3053 
L 172 3500 
L 594 3500 
L 594 4494 
L 1172 4494 
z
" transform="scale(0.015625)"/>
      </defs>
      <use xlink:href="#DejaVuSans-44"/>
      <use xlink:href="#DejaVuSans-65" x="77.001953"/>
      <use xlink:href="#DejaVuSans-6e" x="138.525391"/>
      <use xlink:href="#DejaVuSans-64" x="201.904297"/>
      <use xlink:href="#DejaVuSans-72" x="265.380859"/>
      <use xlink:href="#DejaVuSans-69" x="306.494141"/>
      <use xlink:href="#DejaVuSans-74" x="334.277344"/>
      <use xlink:href="#DejaVuSans-65" x="373.486328"/>
     </g>
    </g>
   </g>
  </g>
 </g>
 <defs>
  <clipPath id="p8ebcf30087">
   <rect x="108" y="34.56" width="669.6" height="221.76"/>
  </clipPath>
 </defs>
</svg>
