<?xml version="1.0" encoding="utf-8" standalone="no"?>
<!DOCTYPE svg PUBLIC "-//W3C//DTD SVG 1.1//EN"
  "http://www.w3.org/Graphics/SVG/1.1/DTD/svg11.dtd">
<svg xmlns:xlink="http://www.w3.org/1999/xlink" width="864pt" height="288pt" viewBox="0 0 864 288" xmlns="http://www.w3.org/2000/svg" version="1.1">
 <metadata>
  <rdf:RDF xmlns:dc="http://purl.org/dc/elements/1.1/" xmlns:cc="http://creativecommons.org/ns#" xmlns:rdf="http://www.w3.org/1999/02/22-rdf-syntax-ns#">
   <cc:Work>
    <dc:type rdf:resource="http://purl.org/dc/dcmitype/StillImage"/>
    <dc:date>2024-04-12T18:08:22.987358</dc:date>
    <dc:format>image/svg+xml</dc:format>
    <dc:creator>
     <cc:Agent>
      <dc:title>Matplotlib v3.8.2, https://matplotlib.org/</dc:title>
     </cc:Agent>
    </dc:creator>
   </cc:Work>
  </rdf:RDF>
 </metadata>
 <defs>
  <style type="text/css">*{stroke-linejoin: round; stroke-linecap: butt}</style>
 </defs>
 <g id="figure_1">
  <g id="patch_1">
   <path d="M 0 288 
L 864 288 
L 864 0 
L 0 0 
z
" style="fill: #ffffff"/>
  </g>
  <g id="axes_1">
   <g id="patch_2">
    <path d="M 108 256.32 
L 777.6 256.32 
L 777.6 34.56 
L 108 34.56 
z
" style="fill: #ffffff"/>
   </g>
   <g id="matplotlib.axis_1">
    <g id="xtick_1">
     <g id="line2d_1">
      <path d="M 108 256.32 
L 108 34.56 
" clip-path="url(#pd3ca76411a)" style="fill: none; stroke: #b0b0b0; stroke-width: 0.8; stroke-linecap: square"/>
     </g>
     <g id="line2d_2">
      <defs>
       <path id="m765a509ed5" d="M 0 0 
L 0 3.5 
" style="stroke: #000000; stroke-width: 0.8"/>
      </defs>
      <g>
       <use xlink:href="#m765a509ed5" x="108" y="256.32" style="stroke: #000000; stroke-width: 0.8"/>
      </g>
     </g>
     <g id="text_1">
      <!-- 100 -->
      <g transform="translate(94.63875 273.957812) scale(0.14 -0.14)">
       <defs>
        <path id="DejaVuSans-31" d="M 794 531 
L 1825 531 
L 1825 4091 
L 703 3866 
L 703 4441 
L 1819 4666 
L 2450 4666 
L 2450 531 
L 3481 531 
L 3481 0 
L 794 0 
L 794 531 
z
" transform="scale(0.015625)"/>
        <path id="DejaVuSans-30" d="M 2034 4250 
Q 1547 4250 1301 3770 
Q 1056 3291 1056 2328 
Q 1056 1369 1301 889 
Q 1547 409 2034 409 
Q 2525 409 2770 889 
Q 3016 1369 3016 2328 
Q 3016 3291 2770 3770 
Q 2525 4250 2034 4250 
z
M 2034 4750 
Q 2819 4750 3233 4129 
Q 3647 3509 3647 2328 
Q 3647 1150 3233 529 
Q 2819 -91 2034 -91 
Q 1250 -91 836 529 
Q 422 1150 422 2328 
Q 422 3509 836 4129 
Q 1250 4750 2034 4750 
z
" transform="scale(0.015625)"/>
       </defs>
       <use xlink:href="#DejaVuSans-31"/>
       <use xlink:href="#DejaVuSans-30" x="63.623047"/>
       <use xlink:href="#DejaVuSans-30" x="127.246094"/>
      </g>
     </g>
    </g>
    <g id="xtick_2">
     <g id="line2d_3">
      <path d="M 241.92 256.32 
L 241.92 34.56 
" clip-path="url(#pd3ca76411a)" style="fill: none; stroke: #b0b0b0; stroke-width: 0.8; stroke-linecap: square"/>
     </g>
     <g id="line2d_4">
      <g>
       <use xlink:href="#m765a509ed5" x="241.92" y="256.32" style="stroke: #000000; stroke-width: 0.8"/>
      </g>
     </g>
     <g id="text_2">
      <!-- 120 -->
      <g transform="translate(228.55875 273.957812) scale(0.14 -0.14)">
       <defs>
        <path id="DejaVuSans-32" d="M 1228 531 
L 3431 531 
L 3431 0 
L 469 0 
L 469 531 
Q 828 903 1448 1529 
Q 2069 2156 2228 2338 
Q 2531 2678 2651 2914 
Q 2772 3150 2772 3378 
Q 2772 3750 2511 3984 
Q 2250 4219 1831 4219 
Q 1534 4219 1204 4116 
Q 875 4013 500 3803 
L 500 4441 
Q 881 4594 1212 4672 
Q 1544 4750 1819 4750 
Q 2544 4750 2975 4387 
Q 3406 4025 3406 3419 
Q 3406 3131 3298 2873 
Q 3191 2616 2906 2266 
Q 2828 2175 2409 1742 
Q 1991 1309 1228 531 
z
" transform="scale(0.015625)"/>
       </defs>
       <use xlink:href="#DejaVuSans-31"/>
       <use xlink:href="#DejaVuSans-32" x="63.623047"/>
       <use xlink:href="#DejaVuSans-30" x="127.246094"/>
      </g>
     </g>
    </g>
    <g id="xtick_3">
     <g id="line2d_5">
      <path d="M 375.84 256.32 
L 375.84 34.56 
" clip-path="url(#pd3ca76411a)" style="fill: none; stroke: #b0b0b0; stroke-width: 0.8; stroke-linecap: square"/>
     </g>
     <g id="line2d_6">
      <g>
       <use xlink:href="#m765a509ed5" x="375.84" y="256.32" style="stroke: #000000; stroke-width: 0.8"/>
      </g>
     </g>
     <g id="text_3">
      <!-- 140 -->
      <g transform="translate(362.47875 273.957812) scale(0.14 -0.14)">
       <defs>
        <path id="DejaVuSans-34" d="M 2419 4116 
L 825 1625 
L 2419 1625 
L 2419 4116 
z
M 2253 4666 
L 3047 4666 
L 3047 1625 
L 3713 1625 
L 3713 1100 
L 3047 1100 
L 3047 0 
L 2419 0 
L 2419 1100 
L 313 1100 
L 313 1709 
L 2253 4666 
z
" transform="scale(0.015625)"/>
       </defs>
       <use xlink:href="#DejaVuSans-31"/>
       <use xlink:href="#DejaVuSans-34" x="63.623047"/>
       <use xlink:href="#DejaVuSans-30" x="127.246094"/>
      </g>
     </g>
    </g>
    <g id="xtick_4">
     <g id="line2d_7">
      <path d="M 509.76 256.32 
L 509.76 34.56 
" clip-path="url(#pd3ca76411a)" style="fill: none; stroke: #b0b0b0; stroke-width: 0.8; stroke-linecap: square"/>
     </g>
     <g id="line2d_8">
      <g>
       <use xlink:href="#m765a509ed5" x="509.76" y="256.32" style="stroke: #000000; stroke-width: 0.8"/>
      </g>
     </g>
     <g id="text_4">
      <!-- 160 -->
      <g transform="translate(496.39875 273.957812) scale(0.14 -0.14)">
       <defs>
        <path id="DejaVuSans-36" d="M 2113 2584 
Q 1688 2584 1439 2293 
Q 1191 2003 1191 1497 
Q 1191 994 1439 701 
Q 1688 409 2113 409 
Q 2538 409 2786 701 
Q 3034 994 3034 1497 
Q 3034 2003 2786 2293 
Q 2538 2584 2113 2584 
z
M 3366 4563 
L 3366 3988 
Q 3128 4100 2886 4159 
Q 2644 4219 2406 4219 
Q 1781 4219 1451 3797 
Q 1122 3375 1075 2522 
Q 1259 2794 1537 2939 
Q 1816 3084 2150 3084 
Q 2853 3084 3261 2657 
Q 3669 2231 3669 1497 
Q 3669 778 3244 343 
Q 2819 -91 2113 -91 
Q 1303 -91 875 529 
Q 447 1150 447 2328 
Q 447 3434 972 4092 
Q 1497 4750 2381 4750 
Q 2619 4750 2861 4703 
Q 3103 4656 3366 4563 
z
" transform="scale(0.015625)"/>
       </defs>
       <use xlink:href="#DejaVuSans-31"/>
       <use xlink:href="#DejaVuSans-36" x="63.623047"/>
       <use xlink:href="#DejaVuSans-30" x="127.246094"/>
      </g>
     </g>
    </g>
    <g id="xtick_5">
     <g id="line2d_9">
      <path d="M 643.68 256.32 
L 643.68 34.56 
" clip-path="url(#pd3ca76411a)" style="fill: none; stroke: #b0b0b0; stroke-width: 0.8; stroke-linecap: square"/>
     </g>
     <g id="line2d_10">
      <g>
       <use xlink:href="#m765a509ed5" x="643.68" y="256.32" style="stroke: #000000; stroke-width: 0.8"/>
      </g>
     </g>
     <g id="text_5">
      <!-- 180 -->
      <g transform="translate(630.31875 273.957812) scale(0.14 -0.14)">
       <defs>
        <path id="DejaVuSans-38" d="M 2034 2216 
Q 1584 2216 1326 1975 
Q 1069 1734 1069 1313 
Q 1069 891 1326 650 
Q 1584 409 2034 409 
Q 2484 409 2743 651 
Q 3003 894 3003 1313 
Q 3003 1734 2745 1975 
Q 2488 2216 2034 2216 
z
M 1403 2484 
Q 997 2584 770 2862 
Q 544 3141 544 3541 
Q 544 4100 942 4425 
Q 1341 4750 2034 4750 
Q 2731 4750 3128 4425 
Q 3525 4100 3525 3541 
Q 3525 3141 3298 2862 
Q 3072 2584 2669 2484 
Q 3125 2378 3379 2068 
Q 3634 1759 3634 1313 
Q 3634 634 3220 271 
Q 2806 -91 2034 -91 
Q 1263 -91 848 271 
Q 434 634 434 1313 
Q 434 1759 690 2068 
Q 947 2378 1403 2484 
z
M 1172 3481 
Q 1172 3119 1398 2916 
Q 1625 2713 2034 2713 
Q 2441 2713 2670 2916 
Q 2900 3119 2900 3481 
Q 2900 3844 2670 4047 
Q 2441 4250 2034 4250 
Q 1625 4250 1398 4047 
Q 1172 3844 1172 3481 
z
" transform="scale(0.015625)"/>
       </defs>
       <use xlink:href="#DejaVuSans-31"/>
       <use xlink:href="#DejaVuSans-38" x="63.623047"/>
       <use xlink:href="#DejaVuSans-30" x="127.246094"/>
      </g>
     </g>
    </g>
    <g id="xtick_6">
     <g id="line2d_11">
      <path d="M 777.6 256.32 
L 777.6 34.56 
" clip-path="url(#pd3ca76411a)" style="fill: none; stroke: #b0b0b0; stroke-width: 0.8; stroke-linecap: square"/>
     </g>
     <g id="line2d_12">
      <g>
       <use xlink:href="#m765a509ed5" x="777.6" y="256.32" style="stroke: #000000; stroke-width: 0.8"/>
      </g>
     </g>
     <g id="text_6">
      <!-- 200 -->
      <g transform="translate(764.23875 273.957812) scale(0.14 -0.14)">
       <use xlink:href="#DejaVuSans-32"/>
       <use xlink:href="#DejaVuSans-30" x="63.623047"/>
       <use xlink:href="#DejaVuSans-30" x="127.246094"/>
      </g>
     </g>
    </g>
    <g id="text_7">
     <!-- Time (ms) -->
     <g transform="translate(407.521094 291.507187) scale(0.14 -0.14)">
      <defs>
       <path id="DejaVuSans-54" d="M -19 4666 
L 3928 4666 
L 3928 4134 
L 2272 4134 
L 2272 0 
L 1638 0 
L 1638 4134 
L -19 4134 
L -19 4666 
z
" transform="scale(0.015625)"/>
       <path id="DejaVuSans-69" d="M 603 3500 
L 1178 3500 
L 1178 0 
L 603 0 
L 603 3500 
z
M 603 4863 
L 1178 4863 
L 1178 4134 
L 603 4134 
L 603 4863 
z
" transform="scale(0.015625)"/>
       <path id="DejaVuSans-6d" d="M 3328 2828 
Q 3544 3216 3844 3400 
Q 4144 3584 4550 3584 
Q 5097 3584 5394 3201 
Q 5691 2819 5691 2113 
L 5691 0 
L 5113 0 
L 5113 2094 
Q 5113 2597 4934 2840 
Q 4756 3084 4391 3084 
Q 3944 3084 3684 2787 
Q 3425 2491 3425 1978 
L 3425 0 
L 2847 0 
L 2847 2094 
Q 2847 2600 2669 2842 
Q 2491 3084 2119 3084 
Q 1678 3084 1418 2786 
Q 1159 2488 1159 1978 
L 1159 0 
L 581 0 
L 581 3500 
L 1159 3500 
L 1159 2956 
Q 1356 3278 1631 3431 
Q 1906 3584 2284 3584 
Q 2666 3584 2933 3390 
Q 3200 3197 3328 2828 
z
" transform="scale(0.015625)"/>
       <path id="DejaVuSans-65" d="M 3597 1894 
L 3597 1613 
L 953 1613 
Q 991 1019 1311 708 
Q 1631 397 2203 397 
Q 2534 397 2845 478 
Q 3156 559 3463 722 
L 3463 178 
Q 3153 47 2828 -22 
Q 2503 -91 2169 -91 
Q 1331 -91 842 396 
Q 353 884 353 1716 
Q 353 2575 817 3079 
Q 1281 3584 2069 3584 
Q 2775 3584 3186 3129 
Q 3597 2675 3597 1894 
z
M 3022 2063 
Q 3016 2534 2758 2815 
Q 2500 3097 2075 3097 
Q 1594 3097 1305 2825 
Q 1016 2553 972 2059 
L 3022 2063 
z
" transform="scale(0.015625)"/>
       <path id="DejaVuSans-20" transform="scale(0.015625)"/>
       <path id="DejaVuSans-28" d="M 1984 4856 
Q 1566 4138 1362 3434 
Q 1159 2731 1159 2009 
Q 1159 1288 1364 580 
Q 1569 -128 1984 -844 
L 1484 -844 
Q 1016 -109 783 600 
Q 550 1309 550 2009 
Q 550 2706 781 3412 
Q 1013 4119 1484 4856 
L 1984 4856 
z
" transform="scale(0.015625)"/>
       <path id="DejaVuSans-73" d="M 2834 3397 
L 2834 2853 
Q 2591 2978 2328 3040 
Q 2066 3103 1784 3103 
Q 1356 3103 1142 2972 
Q 928 2841 928 2578 
Q 928 2378 1081 2264 
Q 1234 2150 1697 2047 
L 1894 2003 
Q 2506 1872 2764 1633 
Q 3022 1394 3022 966 
Q 3022 478 2636 193 
Q 2250 -91 1575 -91 
Q 1294 -91 989 -36 
Q 684 19 347 128 
L 347 722 
Q 666 556 975 473 
Q 1284 391 1588 391 
Q 1994 391 2212 530 
Q 2431 669 2431 922 
Q 2431 1156 2273 1281 
Q 2116 1406 1581 1522 
L 1381 1569 
Q 847 1681 609 1914 
Q 372 2147 372 2553 
Q 372 3047 722 3315 
Q 1072 3584 1716 3584 
Q 2034 3584 2315 3537 
Q 2597 3491 2834 3397 
z
" transform="scale(0.015625)"/>
       <path id="DejaVuSans-29" d="M 513 4856 
L 1013 4856 
Q 1481 4119 1714 3412 
Q 1947 2706 1947 2009 
Q 1947 1309 1714 600 
Q 1481 -109 1013 -844 
L 513 -844 
Q 928 -128 1133 580 
Q 1338 1288 1338 2009 
Q 1338 2731 1133 3434 
Q 928 4138 513 4856 
z
" transform="scale(0.015625)"/>
      </defs>
      <use xlink:href="#DejaVuSans-54"/>
      <use xlink:href="#DejaVuSans-69" x="57.958984"/>
      <use xlink:href="#DejaVuSans-6d" x="85.742188"/>
      <use xlink:href="#DejaVuSans-65" x="183.154297"/>
      <use xlink:href="#DejaVuSans-20" x="244.677734"/>
      <use xlink:href="#DejaVuSans-28" x="276.464844"/>
      <use xlink:href="#DejaVuSans-6d" x="315.478516"/>
      <use xlink:href="#DejaVuSans-73" x="412.890625"/>
      <use xlink:href="#DejaVuSans-29" x="464.990234"/>
     </g>
    </g>
   </g>
   <g id="matplotlib.axis_2">
    <g id="ytick_1">
     <g id="line2d_13">
      <path d="M 108 224.99809 
L 777.6 224.99809 
" clip-path="url(#pd3ca76411a)" style="fill: none; stroke: #b0b0b0; stroke-width: 0.8; stroke-linecap: square"/>
     </g>
     <g id="line2d_14">
      <defs>
       <path id="m9e31fc495c" d="M 0 0 
L -3.5 0 
" style="stroke: #000000; stroke-width: 0.8"/>
      </defs>
      <g>
       <use xlink:href="#m9e31fc495c" x="108" y="224.99809" style="stroke: #000000; stroke-width: 0.8"/>
      </g>
     </g>
     <g id="text_8">
      <!-- −60 -->
      <g transform="translate(71.453437 230.316996) scale(0.14 -0.14)">
       <defs>
        <path id="DejaVuSans-2212" d="M 678 2272 
L 4684 2272 
L 4684 1741 
L 678 1741 
L 678 2272 
z
" transform="scale(0.015625)"/>
       </defs>
       <use xlink:href="#DejaVuSans-2212"/>
       <use xlink:href="#DejaVuSans-36" x="83.789062"/>
       <use xlink:href="#DejaVuSans-30" x="147.412109"/>
      </g>
     </g>
    </g>
    <g id="ytick_2">
     <g id="line2d_15">
      <path d="M 108 182.581963 
L 777.6 182.581963 
" clip-path="url(#pd3ca76411a)" style="fill: none; stroke: #b0b0b0; stroke-width: 0.8; stroke-linecap: square"/>
     </g>
     <g id="line2d_16">
      <g>
       <use xlink:href="#m9e31fc495c" x="108" y="182.581963" style="stroke: #000000; stroke-width: 0.8"/>
      </g>
     </g>
     <g id="text_9">
      <!-- −40 -->
      <g transform="translate(71.453437 187.900869) scale(0.14 -0.14)">
       <use xlink:href="#DejaVuSans-2212"/>
       <use xlink:href="#DejaVuSans-34" x="83.789062"/>
       <use xlink:href="#DejaVuSans-30" x="147.412109"/>
      </g>
     </g>
    </g>
    <g id="ytick_3">
     <g id="line2d_17">
      <path d="M 108 140.165837 
L 777.6 140.165837 
" clip-path="url(#pd3ca76411a)" style="fill: none; stroke: #b0b0b0; stroke-width: 0.8; stroke-linecap: square"/>
     </g>
     <g id="line2d_18">
      <g>
       <use xlink:href="#m9e31fc495c" x="108" y="140.165837" style="stroke: #000000; stroke-width: 0.8"/>
      </g>
     </g>
     <g id="text_10">
      <!-- −20 -->
      <g transform="translate(71.453437 145.484743) scale(0.14 -0.14)">
       <use xlink:href="#DejaVuSans-2212"/>
       <use xlink:href="#DejaVuSans-32" x="83.789062"/>
       <use xlink:href="#DejaVuSans-30" x="147.412109"/>
      </g>
     </g>
    </g>
    <g id="ytick_4">
     <g id="line2d_19">
      <path d="M 108 97.74971 
L 777.6 97.74971 
" clip-path="url(#pd3ca76411a)" style="fill: none; stroke: #b0b0b0; stroke-width: 0.8; stroke-linecap: square"/>
     </g>
     <g id="line2d_20">
      <g>
       <use xlink:href="#m9e31fc495c" x="108" y="97.74971" style="stroke: #000000; stroke-width: 0.8"/>
      </g>
     </g>
     <g id="text_11">
      <!-- 0 -->
      <g transform="translate(92.0925 103.068616) scale(0.14 -0.14)">
       <use xlink:href="#DejaVuSans-30"/>
      </g>
     </g>
    </g>
    <g id="ytick_5">
     <g id="line2d_21">
      <path d="M 108 55.333584 
L 777.6 55.333584 
" clip-path="url(#pd3ca76411a)" style="fill: none; stroke: #b0b0b0; stroke-width: 0.8; stroke-linecap: square"/>
     </g>
     <g id="line2d_22">
      <g>
       <use xlink:href="#m9e31fc495c" x="108" y="55.333584" style="stroke: #000000; stroke-width: 0.8"/>
      </g>
     </g>
     <g id="text_12">
      <!-- 20 -->
      <g transform="translate(83.185 60.65249) scale(0.14 -0.14)">
       <use xlink:href="#DejaVuSans-32"/>
       <use xlink:href="#DejaVuSans-30" x="63.623047"/>
      </g>
     </g>
    </g>
    <g id="text_13">
     <!-- $V_{m}$ (mV) -->
     <g transform="translate(64.541875 174.49) rotate(-90) scale(0.14 -0.14)">
      <defs>
       <path id="DejaVuSans-Oblique-56" d="M 1319 0 
L 500 4666 
L 1119 4666 
L 1797 653 
L 4063 4666 
L 4750 4666 
L 2053 0 
L 1319 0 
z
" transform="scale(0.015625)"/>
       <path id="DejaVuSans-Oblique-6d" d="M 5747 2113 
L 5338 0 
L 4763 0 
L 5166 2094 
Q 5191 2228 5203 2325 
Q 5216 2422 5216 2491 
Q 5216 2772 5059 2928 
Q 4903 3084 4622 3084 
Q 4203 3084 3875 2770 
Q 3547 2456 3450 1953 
L 3066 0 
L 2491 0 
L 2900 2094 
Q 2925 2209 2937 2307 
Q 2950 2406 2950 2484 
Q 2950 2769 2794 2926 
Q 2638 3084 2363 3084 
Q 1938 3084 1609 2770 
Q 1281 2456 1184 1953 
L 800 0 
L 225 0 
L 909 3500 
L 1484 3500 
L 1375 2956 
Q 1609 3263 1923 3423 
Q 2238 3584 2597 3584 
Q 2978 3584 3223 3384 
Q 3469 3184 3519 2828 
Q 3781 3197 4126 3390 
Q 4472 3584 4856 3584 
Q 5306 3584 5551 3325 
Q 5797 3066 5797 2591 
Q 5797 2488 5784 2364 
Q 5772 2241 5747 2113 
z
" transform="scale(0.015625)"/>
       <path id="DejaVuSans-56" d="M 1831 0 
L 50 4666 
L 709 4666 
L 2188 738 
L 3669 4666 
L 4325 4666 
L 2547 0 
L 1831 0 
z
" transform="scale(0.015625)"/>
      </defs>
      <use xlink:href="#DejaVuSans-Oblique-56" transform="translate(0 0.125)"/>
      <use xlink:href="#DejaVuSans-Oblique-6d" transform="translate(68.408203 -16.28125) scale(0.7)"/>
      <use xlink:href="#DejaVuSans-20" transform="translate(139.331055 0.125)"/>
      <use xlink:href="#DejaVuSans-28" transform="translate(171.118164 0.125)"/>
      <use xlink:href="#DejaVuSans-6d" transform="translate(210.131836 0.125)"/>
      <use xlink:href="#DejaVuSans-56" transform="translate(307.543945 0.125)"/>
      <use xlink:href="#DejaVuSans-29" transform="translate(375.952148 0.125)"/>
     </g>
    </g>
   </g>
   <g id="line2d_23">
    <path d="M 108 215.48449 
L 110.0088 215.310282 
L 111.348 215.104032 
L 112.6872 215.141289 
L 114.696 215.057604 
L 116.0352 215.191725 
L 118.044 215.848031 
L 119.3832 216.49848 
L 120.0528 216.647572 
L 121.392 217.31897 
L 122.7312 217.860824 
L 124.0704 218.094432 
L 126.0792 218.212824 
L 128.7576 218.154889 
L 132.1056 217.869943 
L 134.784 217.66754 
L 136.1232 217.810502 
L 137.4624 218.423813 
L 140.8104 218.954266 
L 142.8192 218.95409 
L 143.4888 218.921594 
L 144.828 219.088516 
L 146.8368 219.047135 
L 148.176 218.938593 
L 150.1848 219.049845 
L 152.8632 218.817562 
L 156.8808 218.21786 
L 162.2376 217.153573 
L 168.264 215.718773 
L 176.2992 213.57175 
L 199.0656 207.318929 
L 200.4048 207.218848 
L 203.0832 206.717321 
L 206.4312 205.869776 
L 207.7704 205.737048 
L 208.44 205.622063 
L 210.4488 205.677923 
L 213.1272 205.348077 
L 216.4752 204.703637 
L 221.1624 203.532763 
L 225.18 202.315845 
L 225.8496 202.069477 
L 227.1888 201.927089 
L 229.1976 202.683351 
L 231.2064 203.040132 
L 233.2152 203.295038 
L 233.8848 203.462623 
L 234.5544 203.750147 
L 235.8936 204.712123 
L 237.2328 205.807457 
L 238.572 206.744234 
L 239.9112 207.775222 
L 241.2504 209.142232 
L 242.5896 209.869836 
L 243.9288 210.30891 
L 244.5984 210.465529 
L 245.9376 210.997017 
L 246.6072 211.165602 
L 247.9464 211.845906 
L 251.964 213.612807 
L 253.9728 213.963001 
L 255.9816 215.004476 
L 257.3208 215.453176 
L 259.3296 215.766341 
L 261.3384 216.04845 
L 262.6776 216.27836 
L 266.0256 216.643377 
L 267.3648 217.002135 
L 269.3736 217.156917 
L 271.3824 217.284431 
L 272.7216 217.420633 
L 275.4 217.359129 
L 278.748 217.05493 
L 282.7656 216.634972 
L 284.1048 216.616892 
L 286.7832 216.291529 
L 292.14 215.47747 
L 293.4792 215.41305 
L 296.8272 214.878495 
L 302.184 213.745123 
L 309.5496 211.93483 
L 320.2632 209.032238 
L 330.9768 205.900956 
L 336.3336 204.129917 
L 338.3424 203.221929 
L 340.3512 202.084226 
L 341.6904 201.104808 
L 343.0296 199.845001 
L 343.6992 198.946004 
L 344.3688 197.700338 
L 345.0384 195.647828 
L 345.708 191.049464 
L 346.3776 170.222188 
L 347.0472 73.705896 
L 347.7168 55.448719 
L 348.3864 77.282106 
L 349.056 94.143426 
L 350.3952 119.142156 
L 352.404 151.290451 
L 354.4128 179.335225 
L 355.752 195.37617 
L 356.4216 200.689166 
L 357.0912 204.37416 
L 357.7608 206.890851 
L 358.4304 208.821531 
L 359.1 210.410313 
L 359.7696 211.606638 
L 360.4392 212.499901 
L 361.1088 213.183379 
L 361.7784 213.707974 
L 363.1176 214.919418 
L 364.4568 215.756716 
L 366.4656 216.331894 
L 368.4744 216.675565 
L 369.8136 216.75885 
L 371.8224 216.533832 
L 372.492 216.412268 
L 373.8312 216.671001 
L 375.1704 217.411508 
L 376.5096 217.594603 
L 378.5184 217.515785 
L 379.188 217.446884 
L 379.8576 217.509572 
L 382.536 218.119643 
L 383.8752 218.372046 
L 385.2144 218.546976 
L 388.5624 219.000714 
L 391.2408 219.009376 
L 392.58 219.334026 
L 394.5888 219.373732 
L 397.2672 219.172934 
L 398.6064 219.016407 
L 401.9544 219.214223 
L 403.9632 219.259896 
L 405.3024 219.452005 
L 406.6416 219.561766 
L 408.6504 219.607569 
L 409.9896 219.670576 
L 412.668 219.469375 
L 416.6856 218.890908 
L 421.3728 217.978797 
L 427.3992 216.709114 
L 428.7384 216.577485 
L 432.0864 215.898563 
L 438.1128 214.40734 
L 448.1568 211.646328 
L 472.2624 204.755879 
L 472.932 204.492906 
L 474.9408 204.189195 
L 476.9496 203.689595 
L 478.9584 203.629948 
L 481.6368 203.201709 
L 483.6456 202.75747 
L 484.9848 202.781956 
L 486.9936 203.144146 
L 489.0024 203.158524 
L 494.3592 205.813762 
L 495.6984 206.669082 
L 499.0464 207.898969 
L 503.7336 208.779355 
L 504.4032 208.826589 
L 505.7424 209.18374 
L 508.4208 209.54943 
L 511.0992 211.472488 
L 512.4384 211.915368 
L 514.4472 212.409909 
L 515.1168 212.610747 
L 516.456 213.413525 
L 517.1256 213.64277 
L 519.804 215.563451 
L 521.1432 216.039841 
L 523.8216 216.678589 
L 525.8304 217.585131 
L 528.5088 218.549713 
L 530.5176 218.98205 
L 531.8568 219.269985 
L 533.8656 219.4399 
L 536.544 219.460661 
L 539.892 219.273837 
L 543.9096 218.820618 
L 548.5968 218.053303 
L 553.9536 216.939205 
L 560.6496 215.289822 
L 568.6848 213.071533 
L 581.4072 209.309677 
L 593.46 205.529714 
L 597.4776 204.103774 
L 600.8256 202.699421 
L 602.8344 201.797593 
L 604.1736 201.306415 
L 605.5128 200.551946 
L 606.1824 200.046183 
L 606.852 199.368202 
L 607.5216 198.444893 
L 608.1912 197.116069 
L 608.8608 194.631888 
L 609.5304 187.102137 
L 610.2 148.350059 
L 610.8696 59.587786 
L 611.5392 64.819482 
L 612.2088 84.460867 
L 613.548 111.36426 
L 615.5568 144.782356 
L 617.5656 173.731537 
L 618.9048 190.597531 
L 619.5744 197.080455 
L 620.244 201.654151 
L 620.9136 204.711798 
L 621.5832 206.828236 
L 622.2528 208.368156 
L 623.592 210.555941 
L 624.2616 211.349626 
L 626.2704 213.065452 
L 626.94 213.463825 
L 628.2792 213.858424 
L 630.288 214.066095 
L 630.9576 214.419287 
L 631.6272 214.642743 
L 632.9664 214.703503 
L 633.636 214.644063 
L 634.9752 214.708365 
L 635.6448 214.644098 
L 636.984 214.693173 
L 637.6536 214.624803 
L 639.6624 215.610671 
L 643.0104 216.167825 
L 644.3496 216.560626 
L 645.6888 216.788589 
L 647.028 216.949321 
L 647.6976 216.956895 
L 649.0368 217.324799 
L 650.376 217.549441 
L 651.0456 217.577585 
L 652.3848 217.831488 
L 653.724 218.028697 
L 655.7328 218.682436 
L 658.4112 219.412309 
L 660.42 220.371252 
L 661.7592 220.63891 
L 663.768 220.796354 
L 666.4464 220.781981 
L 668.4552 220.79827 
L 669.7944 220.86624 
L 672.4728 220.697954 
L 676.4904 220.178405 
L 681.1776 219.323062 
L 686.5344 218.112762 
L 693.2304 216.358634 
L 693.9 216.17222 
L 695.9088 215.971412 
L 699.2568 215.217724 
L 705.9528 213.436093 
L 721.3536 209.029548 
L 739.4328 203.755014 
L 743.4504 202.177908 
L 745.4592 201.667501 
L 748.1376 200.828782 
L 750.1464 200.447379 
L 751.4856 199.999472 
L 752.1552 199.701503 
L 754.164 199.112657 
L 755.5032 198.423393 
L 756.8424 197.431695 
L 757.512 196.666522 
L 758.1816 195.322909 
L 758.8512 192.08477 
L 759.5208 178.865142 
L 760.1904 115.379778 
L 760.86 67.14572 
L 761.5296 74.956474 
L 762.8688 103.016977 
L 764.8776 137.309262 
L 766.8864 167.8848 
L 768.2256 186.193019 
L 768.8952 194.264798 
L 769.5648 200.830332 
L 770.2344 205.259027 
L 770.904 208.127576 
L 771.5736 210.119402 
L 772.2432 211.725555 
L 773.5824 214.014422 
L 774.252 214.8353 
L 775.5912 215.905319 
L 777.6 216.820059 
L 777.6 216.820059 
" clip-path="url(#pd3ca76411a)" style="fill: none; stroke: #000000; stroke-width: 1.5; stroke-linecap: square"/>
   </g>
   <g id="line2d_24">
    <path d="M 108 131.016121 
L 113.3568 131.515047 
L 117.3744 131.951591 
L 120.7224 132.574336 
L 128.7576 134.247566 
L 138.8016 136.053738 
L 156.2112 140.336296 
L 176.9688 145.356458 
L 184.3344 147.398641 
L 191.0304 149.485052 
L 197.0568 151.602467 
L 200.4048 152.955064 
L 202.4136 153.916262 
L 203.0832 138.683735 
L 203.7528 135.85031 
L 204.4224 134.298496 
L 205.092 133.459739 
L 205.7616 132.966603 
L 207.1008 132.430689 
L 215.136 130.178803 
L 219.1536 129.083012 
L 222.5016 128.382381 
L 226.5192 127.763772 
L 228.528 127.597627 
L 231.876 127.64058 
L 235.224 127.81514 
L 237.9024 128.217888 
L 241.2504 128.943041 
L 245.268 129.845137 
L 251.964 131.221373 
L 278.0784 136.770789 
L 291.4704 139.516024 
L 296.8272 140.765342 
L 314.9064 145.154021 
L 322.9416 147.369369 
L 330.3072 149.618223 
L 336.3336 151.572585 
L 337.0032 137.441145 
L 337.6728 134.762115 
L 338.3424 133.299665 
L 339.012 132.501928 
L 339.6816 132.021582 
L 341.0208 131.441868 
L 343.6992 130.443989 
L 345.0384 129.733353 
L 345.708 129.206833 
L 346.3776 128.083097 
L 347.0472 124.146002 
L 348.3864 113.812291 
L 349.056 110.777073 
L 349.7256 109.307318 
L 350.3952 108.970193 
L 351.0648 109.38726 
L 351.7344 110.293249 
L 353.0736 112.932143 
L 355.0824 117.745185 
L 357.0912 122.451769 
L 358.4304 124.833107 
L 359.7696 126.54669 
L 361.1088 127.751068 
L 362.448 128.599052 
L 364.4568 129.493298 
L 366.4656 130.088202 
L 369.144 130.602269 
L 372.492 130.985548 
L 375.84 131.364081 
L 380.5272 131.940226 
L 385.884 132.731282 
L 404.6328 135.895273 
L 433.4256 141.975243 
L 446.148 145.015298 
L 454.1832 147.181147 
L 460.8792 149.222051 
L 466.9056 151.291209 
L 470.2536 152.54149 
L 470.9232 137.964089 
L 471.5928 135.229582 
L 472.2624 133.735081 
L 472.932 132.925183 
L 473.6016 132.449833 
L 474.9408 131.930414 
L 481.6368 130.033051 
L 485.6544 128.904582 
L 488.3328 128.441929 
L 491.0112 128.174528 
L 493.6896 128.17283 
L 497.0376 128.406829 
L 509.76 129.558992 
L 517.1256 130.931685 
L 520.4736 131.752088 
L 525.1608 132.844622 
L 537.8832 135.784811 
L 547.2576 137.516704 
L 572.7024 142.134202 
L 582.0768 144.087044 
L 591.4512 146.2756 
L 603.504 149.113323 
L 604.1736 149.255046 
L 604.8432 136.200196 
L 605.5128 133.664923 
L 606.1824 132.292151 
L 606.852 131.532297 
L 608.1912 130.675318 
L 608.8608 130.300124 
L 609.5304 129.731902 
L 610.2 128.04563 
L 610.8696 123.443618 
L 611.5392 117.946425 
L 612.2088 113.634089 
L 612.8784 111.021494 
L 613.548 109.839488 
L 614.2176 109.681586 
L 614.8872 110.212423 
L 615.5568 111.193475 
L 616.896 113.91558 
L 620.9136 123.270116 
L 622.2528 125.440096 
L 623.592 126.934681 
L 624.9312 127.951292 
L 626.2704 128.65452 
L 627.6096 129.159502 
L 629.6184 129.63983 
L 633.636 130.170638 
L 643.68 131.128116 
L 653.724 132.551248 
L 658.4112 133.42904 
L 671.8032 136.241795 
L 680.508 137.796498 
L 697.248 140.749742 
L 714.6576 144.571096 
L 722.0232 146.428072 
L 728.7192 148.328429 
L 735.4152 150.45938 
L 738.0936 151.375751 
L 738.7632 137.359023 
L 739.4328 134.707892 
L 740.1024 133.268603 
L 740.772 132.491185 
L 741.4416 132.030789 
L 742.7808 131.497839 
L 748.8072 129.63092 
L 753.4944 128.186084 
L 758.8512 126.647588 
L 759.5208 126.008811 
L 760.1904 123.622687 
L 761.5296 114.78485 
L 762.1992 111.488158 
L 762.8688 109.614244 
L 763.5384 108.915336 
L 764.208 109.060174 
L 764.8776 109.778105 
L 765.5472 110.876721 
L 766.8864 113.746834 
L 770.904 123.461439 
L 772.2432 125.755335 
L 773.5824 127.408502 
L 774.9216 128.608528 
L 776.2608 129.489265 
L 777.6 130.146765 
L 777.6 130.146765 
" clip-path="url(#pd3ca76411a)" style="fill: none; stroke: #4169e1; stroke-width: 1.5; stroke-linecap: square"/>
   </g>
   <g id="patch_3">
    <path d="M 108 256.32 
L 108 34.56 
" style="fill: none; stroke: #000000; stroke-width: 0.8; stroke-linejoin: miter; stroke-linecap: square"/>
   </g>
   <g id="patch_4">
    <path d="M 777.6 256.32 
L 777.6 34.56 
" style="fill: none; stroke: #000000; stroke-width: 0.8; stroke-linejoin: miter; stroke-linecap: square"/>
   </g>
   <g id="patch_5">
    <path d="M 108 256.32 
L 777.6 256.32 
" style="fill: none; stroke: #000000; stroke-width: 0.8; stroke-linejoin: miter; stroke-linecap: square"/>
   </g>
   <g id="patch_6">
    <path d="M 108 34.56 
L 777.6 34.56 
" style="fill: none; stroke: #000000; stroke-width: 0.8; stroke-linejoin: miter; stroke-linecap: square"/>
   </g>
   <g id="legend_1">
    <g id="patch_7">
     <path d="M 115 71.91625 
L 190.501563 71.91625 
Q 192.501563 71.91625 192.501563 69.91625 
L 192.501563 41.56 
Q 192.501563 39.56 190.501563 39.56 
L 115 39.56 
Q 113 39.56 113 41.56 
L 113 69.91625 
Q 113 71.91625 115 71.91625 
z
" style="fill: #ffffff; opacity: 0.8; stroke: #cccccc; stroke-linejoin: miter"/>
    </g>
    <g id="line2d_25">
     <path d="M 117 47.658437 
L 127 47.658437 
L 137 47.658437 
" style="fill: none; stroke: #000000; stroke-width: 1.5; stroke-linecap: square"/>
    </g>
    <g id="text_14">
     <!-- Soma -->
     <g transform="translate(145 51.158437) scale(0.1 -0.1)">
      <defs>
       <path id="DejaVuSans-53" d="M 3425 4513 
L 3425 3897 
Q 3066 4069 2747 4153 
Q 2428 4238 2131 4238 
Q 1616 4238 1336 4038 
Q 1056 3838 1056 3469 
Q 1056 3159 1242 3001 
Q 1428 2844 1947 2747 
L 2328 2669 
Q 3034 2534 3370 2195 
Q 3706 1856 3706 1288 
Q 3706 609 3251 259 
Q 2797 -91 1919 -91 
Q 1588 -91 1214 -16 
Q 841 59 441 206 
L 441 856 
Q 825 641 1194 531 
Q 1563 422 1919 422 
Q 2459 422 2753 634 
Q 3047 847 3047 1241 
Q 3047 1584 2836 1778 
Q 2625 1972 2144 2069 
L 1759 2144 
Q 1053 2284 737 2584 
Q 422 2884 422 3419 
Q 422 4038 858 4394 
Q 1294 4750 2059 4750 
Q 2388 4750 2728 4690 
Q 3069 4631 3425 4513 
z
" transform="scale(0.015625)"/>
       <path id="DejaVuSans-6f" d="M 1959 3097 
Q 1497 3097 1228 2736 
Q 959 2375 959 1747 
Q 959 1119 1226 758 
Q 1494 397 1959 397 
Q 2419 397 2687 759 
Q 2956 1122 2956 1747 
Q 2956 2369 2687 2733 
Q 2419 3097 1959 3097 
z
M 1959 3584 
Q 2709 3584 3137 3096 
Q 3566 2609 3566 1747 
Q 3566 888 3137 398 
Q 2709 -91 1959 -91 
Q 1206 -91 779 398 
Q 353 888 353 1747 
Q 353 2609 779 3096 
Q 1206 3584 1959 3584 
z
" transform="scale(0.015625)"/>
       <path id="DejaVuSans-61" d="M 2194 1759 
Q 1497 1759 1228 1600 
Q 959 1441 959 1056 
Q 959 750 1161 570 
Q 1363 391 1709 391 
Q 2188 391 2477 730 
Q 2766 1069 2766 1631 
L 2766 1759 
L 2194 1759 
z
M 3341 1997 
L 3341 0 
L 2766 0 
L 2766 531 
Q 2569 213 2275 61 
Q 1981 -91 1556 -91 
Q 1019 -91 701 211 
Q 384 513 384 1019 
Q 384 1609 779 1909 
Q 1175 2209 1959 2209 
L 2766 2209 
L 2766 2266 
Q 2766 2663 2505 2880 
Q 2244 3097 1772 3097 
Q 1472 3097 1187 3025 
Q 903 2953 641 2809 
L 641 3341 
Q 956 3463 1253 3523 
Q 1550 3584 1831 3584 
Q 2591 3584 2966 3190 
Q 3341 2797 3341 1997 
z
" transform="scale(0.015625)"/>
      </defs>
      <use xlink:href="#DejaVuSans-53"/>
      <use xlink:href="#DejaVuSans-6f" x="63.476562"/>
      <use xlink:href="#DejaVuSans-6d" x="124.658203"/>
      <use xlink:href="#DejaVuSans-61" x="222.070312"/>
     </g>
    </g>
    <g id="line2d_26">
     <path d="M 117 62.336562 
L 127 62.336562 
L 137 62.336562 
" style="fill: none; stroke: #4169e1; stroke-width: 1.5; stroke-linecap: square"/>
    </g>
    <g id="text_15">
     <!-- Dendrite -->
     <g transform="translate(145 65.836562) scale(0.1 -0.1)">
      <defs>
       <path id="DejaVuSans-44" d="M 1259 4147 
L 1259 519 
L 2022 519 
Q 2988 519 3436 956 
Q 3884 1394 3884 2338 
Q 3884 3275 3436 3711 
Q 2988 4147 2022 4147 
L 1259 4147 
z
M 628 4666 
L 1925 4666 
Q 3281 4666 3915 4102 
Q 4550 3538 4550 2338 
Q 4550 1131 3912 565 
Q 3275 0 1925 0 
L 628 0 
L 628 4666 
z
" transform="scale(0.015625)"/>
       <path id="DejaVuSans-6e" d="M 3513 2113 
L 3513 0 
L 2938 0 
L 2938 2094 
Q 2938 2591 2744 2837 
Q 2550 3084 2163 3084 
Q 1697 3084 1428 2787 
Q 1159 2491 1159 1978 
L 1159 0 
L 581 0 
L 581 3500 
L 1159 3500 
L 1159 2956 
Q 1366 3272 1645 3428 
Q 1925 3584 2291 3584 
Q 2894 3584 3203 3211 
Q 3513 2838 3513 2113 
z
" transform="scale(0.015625)"/>
       <path id="DejaVuSans-64" d="M 2906 2969 
L 2906 4863 
L 3481 4863 
L 3481 0 
L 2906 0 
L 2906 525 
Q 2725 213 2448 61 
Q 2172 -91 1784 -91 
Q 1150 -91 751 415 
Q 353 922 353 1747 
Q 353 2572 751 3078 
Q 1150 3584 1784 3584 
Q 2172 3584 2448 3432 
Q 2725 3281 2906 2969 
z
M 947 1747 
Q 947 1113 1208 752 
Q 1469 391 1925 391 
Q 2381 391 2643 752 
Q 2906 1113 2906 1747 
Q 2906 2381 2643 2742 
Q 2381 3103 1925 3103 
Q 1469 3103 1208 2742 
Q 947 2381 947 1747 
z
" transform="scale(0.015625)"/>
       <path id="DejaVuSans-72" d="M 2631 2963 
Q 2534 3019 2420 3045 
Q 2306 3072 2169 3072 
Q 1681 3072 1420 2755 
Q 1159 2438 1159 1844 
L 1159 0 
L 581 0 
L 581 3500 
L 1159 3500 
L 1159 2956 
Q 1341 3275 1631 3429 
Q 1922 3584 2338 3584 
Q 2397 3584 2469 3576 
Q 2541 3569 2628 3553 
L 2631 2963 
z
" transform="scale(0.015625)"/>
       <path id="DejaVuSans-74" d="M 1172 4494 
L 1172 3500 
L 2356 3500 
L 2356 3053 
L 1172 3053 
L 1172 1153 
Q 1172 725 1289 603 
Q 1406 481 1766 481 
L 2356 481 
L 2356 0 
L 1766 0 
Q 1100 0 847 248 
Q 594 497 594 1153 
L 594 3053 
L 172 3053 
L 172 3500 
L 594 3500 
L 594 4494 
L 1172 4494 
z
" transform="scale(0.015625)"/>
      </defs>
      <use xlink:href="#DejaVuSans-44"/>
      <use xlink:href="#DejaVuSans-65" x="77.001953"/>
      <use xlink:href="#DejaVuSans-6e" x="138.525391"/>
      <use xlink:href="#DejaVuSans-64" x="201.904297"/>
      <use xlink:href="#DejaVuSans-72" x="265.380859"/>
      <use xlink:href="#DejaVuSans-69" x="306.494141"/>
      <use xlink:href="#DejaVuSans-74" x="334.277344"/>
      <use xlink:href="#DejaVuSans-65" x="373.486328"/>
     </g>
    </g>
   </g>
  </g>
 </g>
 <defs>
  <clipPath id="pd3ca76411a">
   <rect x="108" y="34.56" width="669.6" height="221.76"/>
  </clipPath>
 </defs>
</svg>
