<?xml version="1.0" encoding="utf-8" standalone="no"?>
<!DOCTYPE svg PUBLIC "-//W3C//DTD SVG 1.1//EN"
  "http://www.w3.org/Graphics/SVG/1.1/DTD/svg11.dtd">
<svg xmlns:xlink="http://www.w3.org/1999/xlink" width="864pt" height="288pt" viewBox="0 0 864 288" xmlns="http://www.w3.org/2000/svg" version="1.1">
 <metadata>
  <rdf:RDF xmlns:dc="http://purl.org/dc/elements/1.1/" xmlns:cc="http://creativecommons.org/ns#" xmlns:rdf="http://www.w3.org/1999/02/22-rdf-syntax-ns#">
   <cc:Work>
    <dc:type rdf:resource="http://purl.org/dc/dcmitype/StillImage"/>
    <dc:date>2024-04-12T18:07:10.620372</dc:date>
    <dc:format>image/svg+xml</dc:format>
    <dc:creator>
     <cc:Agent>
      <dc:title>Matplotlib v3.8.2, https://matplotlib.org/</dc:title>
     </cc:Agent>
    </dc:creator>
   </cc:Work>
  </rdf:RDF>
 </metadata>
 <defs>
  <style type="text/css">*{stroke-linejoin: round; stroke-linecap: butt}</style>
 </defs>
 <g id="figure_1">
  <g id="patch_1">
   <path d="M 0 288 
L 864 288 
L 864 0 
L 0 0 
z
" style="fill: #ffffff"/>
  </g>
  <g id="axes_1">
   <g id="patch_2">
    <path d="M 108 256.32 
L 777.6 256.32 
L 777.6 34.56 
L 108 34.56 
z
" style="fill: #ffffff"/>
   </g>
   <g id="matplotlib.axis_1">
    <g id="xtick_1">
     <g id="line2d_1">
      <path d="M 108 256.32 
L 108 34.56 
" clip-path="url(#p672a30ebd5)" style="fill: none; stroke: #b0b0b0; stroke-width: 0.8; stroke-linecap: square"/>
     </g>
     <g id="line2d_2">
      <defs>
       <path id="ma79138acaa" d="M 0 0 
L 0 3.5 
" style="stroke: #000000; stroke-width: 0.8"/>
      </defs>
      <g>
       <use xlink:href="#ma79138acaa" x="108" y="256.32" style="stroke: #000000; stroke-width: 0.8"/>
      </g>
     </g>
     <g id="text_1">
      <!-- 100 -->
      <g transform="translate(94.63875 273.957812) scale(0.14 -0.14)">
       <defs>
        <path id="DejaVuSans-31" d="M 794 531 
L 1825 531 
L 1825 4091 
L 703 3866 
L 703 4441 
L 1819 4666 
L 2450 4666 
L 2450 531 
L 3481 531 
L 3481 0 
L 794 0 
L 794 531 
z
" transform="scale(0.015625)"/>
        <path id="DejaVuSans-30" d="M 2034 4250 
Q 1547 4250 1301 3770 
Q 1056 3291 1056 2328 
Q 1056 1369 1301 889 
Q 1547 409 2034 409 
Q 2525 409 2770 889 
Q 3016 1369 3016 2328 
Q 3016 3291 2770 3770 
Q 2525 4250 2034 4250 
z
M 2034 4750 
Q 2819 4750 3233 4129 
Q 3647 3509 3647 2328 
Q 3647 1150 3233 529 
Q 2819 -91 2034 -91 
Q 1250 -91 836 529 
Q 422 1150 422 2328 
Q 422 3509 836 4129 
Q 1250 4750 2034 4750 
z
" transform="scale(0.015625)"/>
       </defs>
       <use xlink:href="#DejaVuSans-31"/>
       <use xlink:href="#DejaVuSans-30" x="63.623047"/>
       <use xlink:href="#DejaVuSans-30" x="127.246094"/>
      </g>
     </g>
    </g>
    <g id="xtick_2">
     <g id="line2d_3">
      <path d="M 241.92 256.32 
L 241.92 34.56 
" clip-path="url(#p672a30ebd5)" style="fill: none; stroke: #b0b0b0; stroke-width: 0.8; stroke-linecap: square"/>
     </g>
     <g id="line2d_4">
      <g>
       <use xlink:href="#ma79138acaa" x="241.92" y="256.32" style="stroke: #000000; stroke-width: 0.8"/>
      </g>
     </g>
     <g id="text_2">
      <!-- 120 -->
      <g transform="translate(228.55875 273.957812) scale(0.14 -0.14)">
       <defs>
        <path id="DejaVuSans-32" d="M 1228 531 
L 3431 531 
L 3431 0 
L 469 0 
L 469 531 
Q 828 903 1448 1529 
Q 2069 2156 2228 2338 
Q 2531 2678 2651 2914 
Q 2772 3150 2772 3378 
Q 2772 3750 2511 3984 
Q 2250 4219 1831 4219 
Q 1534 4219 1204 4116 
Q 875 4013 500 3803 
L 500 4441 
Q 881 4594 1212 4672 
Q 1544 4750 1819 4750 
Q 2544 4750 2975 4387 
Q 3406 4025 3406 3419 
Q 3406 3131 3298 2873 
Q 3191 2616 2906 2266 
Q 2828 2175 2409 1742 
Q 1991 1309 1228 531 
z
" transform="scale(0.015625)"/>
       </defs>
       <use xlink:href="#DejaVuSans-31"/>
       <use xlink:href="#DejaVuSans-32" x="63.623047"/>
       <use xlink:href="#DejaVuSans-30" x="127.246094"/>
      </g>
     </g>
    </g>
    <g id="xtick_3">
     <g id="line2d_5">
      <path d="M 375.84 256.32 
L 375.84 34.56 
" clip-path="url(#p672a30ebd5)" style="fill: none; stroke: #b0b0b0; stroke-width: 0.8; stroke-linecap: square"/>
     </g>
     <g id="line2d_6">
      <g>
       <use xlink:href="#ma79138acaa" x="375.84" y="256.32" style="stroke: #000000; stroke-width: 0.8"/>
      </g>
     </g>
     <g id="text_3">
      <!-- 140 -->
      <g transform="translate(362.47875 273.957812) scale(0.14 -0.14)">
       <defs>
        <path id="DejaVuSans-34" d="M 2419 4116 
L 825 1625 
L 2419 1625 
L 2419 4116 
z
M 2253 4666 
L 3047 4666 
L 3047 1625 
L 3713 1625 
L 3713 1100 
L 3047 1100 
L 3047 0 
L 2419 0 
L 2419 1100 
L 313 1100 
L 313 1709 
L 2253 4666 
z
" transform="scale(0.015625)"/>
       </defs>
       <use xlink:href="#DejaVuSans-31"/>
       <use xlink:href="#DejaVuSans-34" x="63.623047"/>
       <use xlink:href="#DejaVuSans-30" x="127.246094"/>
      </g>
     </g>
    </g>
    <g id="xtick_4">
     <g id="line2d_7">
      <path d="M 509.76 256.32 
L 509.76 34.56 
" clip-path="url(#p672a30ebd5)" style="fill: none; stroke: #b0b0b0; stroke-width: 0.8; stroke-linecap: square"/>
     </g>
     <g id="line2d_8">
      <g>
       <use xlink:href="#ma79138acaa" x="509.76" y="256.32" style="stroke: #000000; stroke-width: 0.8"/>
      </g>
     </g>
     <g id="text_4">
      <!-- 160 -->
      <g transform="translate(496.39875 273.957812) scale(0.14 -0.14)">
       <defs>
        <path id="DejaVuSans-36" d="M 2113 2584 
Q 1688 2584 1439 2293 
Q 1191 2003 1191 1497 
Q 1191 994 1439 701 
Q 1688 409 2113 409 
Q 2538 409 2786 701 
Q 3034 994 3034 1497 
Q 3034 2003 2786 2293 
Q 2538 2584 2113 2584 
z
M 3366 4563 
L 3366 3988 
Q 3128 4100 2886 4159 
Q 2644 4219 2406 4219 
Q 1781 4219 1451 3797 
Q 1122 3375 1075 2522 
Q 1259 2794 1537 2939 
Q 1816 3084 2150 3084 
Q 2853 3084 3261 2657 
Q 3669 2231 3669 1497 
Q 3669 778 3244 343 
Q 2819 -91 2113 -91 
Q 1303 -91 875 529 
Q 447 1150 447 2328 
Q 447 3434 972 4092 
Q 1497 4750 2381 4750 
Q 2619 4750 2861 4703 
Q 3103 4656 3366 4563 
z
" transform="scale(0.015625)"/>
       </defs>
       <use xlink:href="#DejaVuSans-31"/>
       <use xlink:href="#DejaVuSans-36" x="63.623047"/>
       <use xlink:href="#DejaVuSans-30" x="127.246094"/>
      </g>
     </g>
    </g>
    <g id="xtick_5">
     <g id="line2d_9">
      <path d="M 643.68 256.32 
L 643.68 34.56 
" clip-path="url(#p672a30ebd5)" style="fill: none; stroke: #b0b0b0; stroke-width: 0.8; stroke-linecap: square"/>
     </g>
     <g id="line2d_10">
      <g>
       <use xlink:href="#ma79138acaa" x="643.68" y="256.32" style="stroke: #000000; stroke-width: 0.8"/>
      </g>
     </g>
     <g id="text_5">
      <!-- 180 -->
      <g transform="translate(630.31875 273.957812) scale(0.14 -0.14)">
       <defs>
        <path id="DejaVuSans-38" d="M 2034 2216 
Q 1584 2216 1326 1975 
Q 1069 1734 1069 1313 
Q 1069 891 1326 650 
Q 1584 409 2034 409 
Q 2484 409 2743 651 
Q 3003 894 3003 1313 
Q 3003 1734 2745 1975 
Q 2488 2216 2034 2216 
z
M 1403 2484 
Q 997 2584 770 2862 
Q 544 3141 544 3541 
Q 544 4100 942 4425 
Q 1341 4750 2034 4750 
Q 2731 4750 3128 4425 
Q 3525 4100 3525 3541 
Q 3525 3141 3298 2862 
Q 3072 2584 2669 2484 
Q 3125 2378 3379 2068 
Q 3634 1759 3634 1313 
Q 3634 634 3220 271 
Q 2806 -91 2034 -91 
Q 1263 -91 848 271 
Q 434 634 434 1313 
Q 434 1759 690 2068 
Q 947 2378 1403 2484 
z
M 1172 3481 
Q 1172 3119 1398 2916 
Q 1625 2713 2034 2713 
Q 2441 2713 2670 2916 
Q 2900 3119 2900 3481 
Q 2900 3844 2670 4047 
Q 2441 4250 2034 4250 
Q 1625 4250 1398 4047 
Q 1172 3844 1172 3481 
z
" transform="scale(0.015625)"/>
       </defs>
       <use xlink:href="#DejaVuSans-31"/>
       <use xlink:href="#DejaVuSans-38" x="63.623047"/>
       <use xlink:href="#DejaVuSans-30" x="127.246094"/>
      </g>
     </g>
    </g>
    <g id="xtick_6">
     <g id="line2d_11">
      <path d="M 777.6 256.32 
L 777.6 34.56 
" clip-path="url(#p672a30ebd5)" style="fill: none; stroke: #b0b0b0; stroke-width: 0.8; stroke-linecap: square"/>
     </g>
     <g id="line2d_12">
      <g>
       <use xlink:href="#ma79138acaa" x="777.6" y="256.32" style="stroke: #000000; stroke-width: 0.8"/>
      </g>
     </g>
     <g id="text_6">
      <!-- 200 -->
      <g transform="translate(764.23875 273.957812) scale(0.14 -0.14)">
       <use xlink:href="#DejaVuSans-32"/>
       <use xlink:href="#DejaVuSans-30" x="63.623047"/>
       <use xlink:href="#DejaVuSans-30" x="127.246094"/>
      </g>
     </g>
    </g>
    <g id="text_7">
     <!-- Time (ms) -->
     <g transform="translate(407.521094 291.507187) scale(0.14 -0.14)">
      <defs>
       <path id="DejaVuSans-54" d="M -19 4666 
L 3928 4666 
L 3928 4134 
L 2272 4134 
L 2272 0 
L 1638 0 
L 1638 4134 
L -19 4134 
L -19 4666 
z
" transform="scale(0.015625)"/>
       <path id="DejaVuSans-69" d="M 603 3500 
L 1178 3500 
L 1178 0 
L 603 0 
L 603 3500 
z
M 603 4863 
L 1178 4863 
L 1178 4134 
L 603 4134 
L 603 4863 
z
" transform="scale(0.015625)"/>
       <path id="DejaVuSans-6d" d="M 3328 2828 
Q 3544 3216 3844 3400 
Q 4144 3584 4550 3584 
Q 5097 3584 5394 3201 
Q 5691 2819 5691 2113 
L 5691 0 
L 5113 0 
L 5113 2094 
Q 5113 2597 4934 2840 
Q 4756 3084 4391 3084 
Q 3944 3084 3684 2787 
Q 3425 2491 3425 1978 
L 3425 0 
L 2847 0 
L 2847 2094 
Q 2847 2600 2669 2842 
Q 2491 3084 2119 3084 
Q 1678 3084 1418 2786 
Q 1159 2488 1159 1978 
L 1159 0 
L 581 0 
L 581 3500 
L 1159 3500 
L 1159 2956 
Q 1356 3278 1631 3431 
Q 1906 3584 2284 3584 
Q 2666 3584 2933 3390 
Q 3200 3197 3328 2828 
z
" transform="scale(0.015625)"/>
       <path id="DejaVuSans-65" d="M 3597 1894 
L 3597 1613 
L 953 1613 
Q 991 1019 1311 708 
Q 1631 397 2203 397 
Q 2534 397 2845 478 
Q 3156 559 3463 722 
L 3463 178 
Q 3153 47 2828 -22 
Q 2503 -91 2169 -91 
Q 1331 -91 842 396 
Q 353 884 353 1716 
Q 353 2575 817 3079 
Q 1281 3584 2069 3584 
Q 2775 3584 3186 3129 
Q 3597 2675 3597 1894 
z
M 3022 2063 
Q 3016 2534 2758 2815 
Q 2500 3097 2075 3097 
Q 1594 3097 1305 2825 
Q 1016 2553 972 2059 
L 3022 2063 
z
" transform="scale(0.015625)"/>
       <path id="DejaVuSans-20" transform="scale(0.015625)"/>
       <path id="DejaVuSans-28" d="M 1984 4856 
Q 1566 4138 1362 3434 
Q 1159 2731 1159 2009 
Q 1159 1288 1364 580 
Q 1569 -128 1984 -844 
L 1484 -844 
Q 1016 -109 783 600 
Q 550 1309 550 2009 
Q 550 2706 781 3412 
Q 1013 4119 1484 4856 
L 1984 4856 
z
" transform="scale(0.015625)"/>
       <path id="DejaVuSans-73" d="M 2834 3397 
L 2834 2853 
Q 2591 2978 2328 3040 
Q 2066 3103 1784 3103 
Q 1356 3103 1142 2972 
Q 928 2841 928 2578 
Q 928 2378 1081 2264 
Q 1234 2150 1697 2047 
L 1894 2003 
Q 2506 1872 2764 1633 
Q 3022 1394 3022 966 
Q 3022 478 2636 193 
Q 2250 -91 1575 -91 
Q 1294 -91 989 -36 
Q 684 19 347 128 
L 347 722 
Q 666 556 975 473 
Q 1284 391 1588 391 
Q 1994 391 2212 530 
Q 2431 669 2431 922 
Q 2431 1156 2273 1281 
Q 2116 1406 1581 1522 
L 1381 1569 
Q 847 1681 609 1914 
Q 372 2147 372 2553 
Q 372 3047 722 3315 
Q 1072 3584 1716 3584 
Q 2034 3584 2315 3537 
Q 2597 3491 2834 3397 
z
" transform="scale(0.015625)"/>
       <path id="DejaVuSans-29" d="M 513 4856 
L 1013 4856 
Q 1481 4119 1714 3412 
Q 1947 2706 1947 2009 
Q 1947 1309 1714 600 
Q 1481 -109 1013 -844 
L 513 -844 
Q 928 -128 1133 580 
Q 1338 1288 1338 2009 
Q 1338 2731 1133 3434 
Q 928 4138 513 4856 
z
" transform="scale(0.015625)"/>
      </defs>
      <use xlink:href="#DejaVuSans-54"/>
      <use xlink:href="#DejaVuSans-69" x="57.958984"/>
      <use xlink:href="#DejaVuSans-6d" x="85.742188"/>
      <use xlink:href="#DejaVuSans-65" x="183.154297"/>
      <use xlink:href="#DejaVuSans-20" x="244.677734"/>
      <use xlink:href="#DejaVuSans-28" x="276.464844"/>
      <use xlink:href="#DejaVuSans-6d" x="315.478516"/>
      <use xlink:href="#DejaVuSans-73" x="412.890625"/>
      <use xlink:href="#DejaVuSans-29" x="464.990234"/>
     </g>
    </g>
   </g>
   <g id="matplotlib.axis_2">
    <g id="ytick_1">
     <g id="line2d_13">
      <path d="M 108 224.77262 
L 777.6 224.77262 
" clip-path="url(#p672a30ebd5)" style="fill: none; stroke: #b0b0b0; stroke-width: 0.8; stroke-linecap: square"/>
     </g>
     <g id="line2d_14">
      <defs>
       <path id="mbb827a9dc7" d="M 0 0 
L -3.5 0 
" style="stroke: #000000; stroke-width: 0.8"/>
      </defs>
      <g>
       <use xlink:href="#mbb827a9dc7" x="108" y="224.77262" style="stroke: #000000; stroke-width: 0.8"/>
      </g>
     </g>
     <g id="text_8">
      <!-- −60 -->
      <g transform="translate(71.453437 230.091526) scale(0.14 -0.14)">
       <defs>
        <path id="DejaVuSans-2212" d="M 678 2272 
L 4684 2272 
L 4684 1741 
L 678 1741 
L 678 2272 
z
" transform="scale(0.015625)"/>
       </defs>
       <use xlink:href="#DejaVuSans-2212"/>
       <use xlink:href="#DejaVuSans-36" x="83.789062"/>
       <use xlink:href="#DejaVuSans-30" x="147.412109"/>
      </g>
     </g>
    </g>
    <g id="ytick_2">
     <g id="line2d_15">
      <path d="M 108 181.906273 
L 777.6 181.906273 
" clip-path="url(#p672a30ebd5)" style="fill: none; stroke: #b0b0b0; stroke-width: 0.8; stroke-linecap: square"/>
     </g>
     <g id="line2d_16">
      <g>
       <use xlink:href="#mbb827a9dc7" x="108" y="181.906273" style="stroke: #000000; stroke-width: 0.8"/>
      </g>
     </g>
     <g id="text_9">
      <!-- −40 -->
      <g transform="translate(71.453437 187.225179) scale(0.14 -0.14)">
       <use xlink:href="#DejaVuSans-2212"/>
       <use xlink:href="#DejaVuSans-34" x="83.789062"/>
       <use xlink:href="#DejaVuSans-30" x="147.412109"/>
      </g>
     </g>
    </g>
    <g id="ytick_3">
     <g id="line2d_17">
      <path d="M 108 139.039925 
L 777.6 139.039925 
" clip-path="url(#p672a30ebd5)" style="fill: none; stroke: #b0b0b0; stroke-width: 0.8; stroke-linecap: square"/>
     </g>
     <g id="line2d_18">
      <g>
       <use xlink:href="#mbb827a9dc7" x="108" y="139.039925" style="stroke: #000000; stroke-width: 0.8"/>
      </g>
     </g>
     <g id="text_10">
      <!-- −20 -->
      <g transform="translate(71.453437 144.358831) scale(0.14 -0.14)">
       <use xlink:href="#DejaVuSans-2212"/>
       <use xlink:href="#DejaVuSans-32" x="83.789062"/>
       <use xlink:href="#DejaVuSans-30" x="147.412109"/>
      </g>
     </g>
    </g>
    <g id="ytick_4">
     <g id="line2d_19">
      <path d="M 108 96.173578 
L 777.6 96.173578 
" clip-path="url(#p672a30ebd5)" style="fill: none; stroke: #b0b0b0; stroke-width: 0.8; stroke-linecap: square"/>
     </g>
     <g id="line2d_20">
      <g>
       <use xlink:href="#mbb827a9dc7" x="108" y="96.173578" style="stroke: #000000; stroke-width: 0.8"/>
      </g>
     </g>
     <g id="text_11">
      <!-- 0 -->
      <g transform="translate(92.0925 101.492484) scale(0.14 -0.14)">
       <use xlink:href="#DejaVuSans-30"/>
      </g>
     </g>
    </g>
    <g id="ytick_5">
     <g id="line2d_21">
      <path d="M 108 53.30723 
L 777.6 53.30723 
" clip-path="url(#p672a30ebd5)" style="fill: none; stroke: #b0b0b0; stroke-width: 0.8; stroke-linecap: square"/>
     </g>
     <g id="line2d_22">
      <g>
       <use xlink:href="#mbb827a9dc7" x="108" y="53.30723" style="stroke: #000000; stroke-width: 0.8"/>
      </g>
     </g>
     <g id="text_12">
      <!-- 20 -->
      <g transform="translate(83.185 58.626137) scale(0.14 -0.14)">
       <use xlink:href="#DejaVuSans-32"/>
       <use xlink:href="#DejaVuSans-30" x="63.623047"/>
      </g>
     </g>
    </g>
    <g id="text_13">
     <!-- $V_{m}$ (mV) -->
     <g transform="translate(64.541875 174.49) rotate(-90) scale(0.14 -0.14)">
      <defs>
       <path id="DejaVuSans-Oblique-56" d="M 1319 0 
L 500 4666 
L 1119 4666 
L 1797 653 
L 4063 4666 
L 4750 4666 
L 2053 0 
L 1319 0 
z
" transform="scale(0.015625)"/>
       <path id="DejaVuSans-Oblique-6d" d="M 5747 2113 
L 5338 0 
L 4763 0 
L 5166 2094 
Q 5191 2228 5203 2325 
Q 5216 2422 5216 2491 
Q 5216 2772 5059 2928 
Q 4903 3084 4622 3084 
Q 4203 3084 3875 2770 
Q 3547 2456 3450 1953 
L 3066 0 
L 2491 0 
L 2900 2094 
Q 2925 2209 2937 2307 
Q 2950 2406 2950 2484 
Q 2950 2769 2794 2926 
Q 2638 3084 2363 3084 
Q 1938 3084 1609 2770 
Q 1281 2456 1184 1953 
L 800 0 
L 225 0 
L 909 3500 
L 1484 3500 
L 1375 2956 
Q 1609 3263 1923 3423 
Q 2238 3584 2597 3584 
Q 2978 3584 3223 3384 
Q 3469 3184 3519 2828 
Q 3781 3197 4126 3390 
Q 4472 3584 4856 3584 
Q 5306 3584 5551 3325 
Q 5797 3066 5797 2591 
Q 5797 2488 5784 2364 
Q 5772 2241 5747 2113 
z
" transform="scale(0.015625)"/>
       <path id="DejaVuSans-56" d="M 1831 0 
L 50 4666 
L 709 4666 
L 2188 738 
L 3669 4666 
L 4325 4666 
L 2547 0 
L 1831 0 
z
" transform="scale(0.015625)"/>
      </defs>
      <use xlink:href="#DejaVuSans-Oblique-56" transform="translate(0 0.125)"/>
      <use xlink:href="#DejaVuSans-Oblique-6d" transform="translate(68.408203 -16.28125) scale(0.7)"/>
      <use xlink:href="#DejaVuSans-20" transform="translate(139.331055 0.125)"/>
      <use xlink:href="#DejaVuSans-28" transform="translate(171.118164 0.125)"/>
      <use xlink:href="#DejaVuSans-6d" transform="translate(210.131836 0.125)"/>
      <use xlink:href="#DejaVuSans-56" transform="translate(307.543945 0.125)"/>
      <use xlink:href="#DejaVuSans-29" transform="translate(375.952148 0.125)"/>
     </g>
    </g>
   </g>
   <g id="line2d_23">
    <path d="M 108 214.536631 
L 110.0088 214.444238 
L 111.348 214.295584 
L 112.6872 214.398021 
L 114.696 214.411354 
L 116.0352 214.613575 
L 118.044 215.377849 
L 119.3832 216.101515 
L 120.0528 216.284482 
L 121.392 217.027101 
L 122.7312 217.637637 
L 124.0704 217.936493 
L 126.0792 218.151463 
L 128.7576 218.224094 
L 132.1056 218.109695 
L 134.1144 217.964785 
L 136.1232 218.237353 
L 137.4624 218.777293 
L 140.8104 219.103633 
L 147.5064 218.958062 
L 148.176 218.882307 
L 150.1848 218.947173 
L 152.8632 218.650236 
L 156.8808 217.951629 
L 162.2376 216.754394 
L 168.264 215.169936 
L 176.2992 212.823482 
L 194.3784 207.231251 
L 198.396 205.974567 
L 200.4048 205.806651 
L 203.7528 205.095518 
L 205.7616 204.597008 
L 207.7704 204.543924 
L 208.44 204.460077 
L 210.4488 204.60857 
L 212.4576 204.458301 
L 215.8056 203.942316 
L 219.8232 203.090473 
L 223.8408 202.041815 
L 226.5192 201.296069 
L 227.1888 201.24022 
L 229.8672 202.244839 
L 231.876 202.587606 
L 232.5456 202.640417 
L 234.5544 203.362303 
L 235.8936 204.378526 
L 237.2328 205.517957 
L 238.572 206.491207 
L 239.9112 207.557523 
L 241.2504 208.955544 
L 242.5896 209.711348 
L 243.9288 210.175531 
L 244.5984 210.345397 
L 245.9376 210.906156 
L 246.6072 211.089021 
L 247.9464 211.800281 
L 251.964 213.658059 
L 253.9728 214.055553 
L 255.9816 215.148156 
L 257.3208 215.631965 
L 259.3296 216.000705 
L 261.3384 216.342542 
L 262.6776 216.61449 
L 265.356 216.951427 
L 266.6952 217.323289 
L 268.0344 217.611923 
L 270.0432 217.743334 
L 270.7128 217.705117 
L 272.052 217.832833 
L 274.0608 217.741982 
L 278.0784 217.300275 
L 282.7656 216.67273 
L 284.1048 216.617961 
L 286.7832 216.218024 
L 292.14 215.257224 
L 293.4792 215.158416 
L 296.8272 214.536144 
L 302.184 213.262839 
L 309.5496 211.26035 
L 319.5936 208.270917 
L 328.2984 205.45991 
L 332.9856 203.745587 
L 336.3336 202.263804 
L 338.3424 201.109434 
L 339.6816 200.093343 
L 340.3512 199.473232 
L 341.0208 198.654545 
L 341.6904 197.532126 
L 342.36 195.800063 
L 343.0296 192.159651 
L 343.6992 177.447359 
L 344.3688 95.995954 
L 345.0384 48.478263 
L 346.3776 88.466844 
L 347.7168 115.129642 
L 349.7256 148.125957 
L 351.7344 176.821171 
L 353.0736 192.931961 
L 353.7432 198.597296 
L 354.4128 202.44972 
L 355.0824 205.35573 
L 355.752 207.439801 
L 357.0912 210.206764 
L 358.4304 212.061928 
L 359.1 212.877285 
L 359.7696 213.479829 
L 361.1088 214.202965 
L 361.7784 214.413443 
L 363.1176 215.164812 
L 364.4568 215.689298 
L 367.1352 216.03753 
L 368.4744 216.13935 
L 369.8136 216.166881 
L 371.8224 215.90582 
L 372.492 215.782319 
L 373.8312 216.061641 
L 375.1704 216.846994 
L 376.5096 217.072841 
L 378.5184 217.060587 
L 379.188 217.014944 
L 379.8576 217.103494 
L 382.536 217.826637 
L 383.8752 218.135746 
L 385.2144 218.3667 
L 388.5624 218.961492 
L 391.2408 219.081813 
L 392.58 219.46481 
L 394.5888 219.592599 
L 397.9368 219.472699 
L 398.6064 219.423415 
L 401.9544 219.792806 
L 407.3112 219.966512 
L 407.9808 219.891851 
L 409.9896 219.9524 
L 412.668 219.660896 
L 416.6856 218.965635 
L 421.3728 217.91863 
L 427.3992 216.479786 
L 428.7384 216.312931 
L 432.0864 215.544046 
L 438.1128 213.892048 
L 448.1568 210.868432 
L 471.5928 203.522585 
L 472.932 203.056163 
L 475.6104 202.742372 
L 476.9496 202.456965 
L 478.9584 202.483852 
L 480.9672 202.254189 
L 484.3152 201.71895 
L 484.9848 201.742336 
L 486.9936 202.181601 
L 489.0024 202.317879 
L 494.3592 205.299411 
L 495.6984 206.216595 
L 499.0464 207.554914 
L 503.7336 208.543952 
L 504.4032 208.604835 
L 505.7424 208.990667 
L 508.4208 209.409058 
L 511.0992 211.388087 
L 512.4384 211.85659 
L 514.4472 212.389637 
L 515.1168 212.603739 
L 516.456 213.436549 
L 517.1256 213.680239 
L 519.804 215.664035 
L 521.1432 216.172334 
L 523.8216 216.879335 
L 525.8304 217.841835 
L 528.5088 218.888251 
L 530.5176 219.388181 
L 531.8568 219.72489 
L 534.5352 220.027607 
L 537.2136 220.132011 
L 539.2224 219.937611 
L 545.9184 218.770816 
L 551.2752 217.609127 
L 557.3016 216.049357 
L 564.6672 213.898426 
L 575.3808 210.508737 
L 588.1032 206.27499 
L 594.1296 204.054298 
L 597.4776 202.570943 
L 599.4864 201.491737 
L 600.8256 200.556576 
L 602.1648 199.34447 
L 602.8344 198.671154 
L 603.504 197.773611 
L 604.1736 196.411688 
L 604.8432 193.640094 
L 605.5128 183.592307 
L 606.1824 129.280932 
L 606.852 53.659512 
L 607.5216 65.217446 
L 608.1912 84.86959 
L 609.5304 111.774212 
L 611.5392 144.948063 
L 613.548 173.988093 
L 614.8872 191.083709 
L 615.5568 197.43627 
L 616.2264 201.829908 
L 616.896 204.76343 
L 617.5656 206.811852 
L 618.2352 208.314233 
L 618.9048 209.451423 
L 619.5744 210.324073 
L 620.244 210.993429 
L 621.5832 211.879074 
L 623.592 212.582497 
L 624.9312 212.811305 
L 627.6096 213.292304 
L 628.9488 213.128603 
L 629.6184 212.994474 
L 630.288 212.99282 
L 631.6272 213.422195 
L 632.9664 213.387885 
L 633.636 213.296668 
L 634.9752 213.336866 
L 635.6448 213.270284 
L 636.984 213.341415 
L 637.6536 213.289061 
L 639.6624 214.387584 
L 643.0104 215.131105 
L 644.3496 215.606473 
L 645.6888 215.913075 
L 647.028 216.150418 
L 647.6976 216.19438 
L 649.0368 216.640671 
L 650.376 216.939355 
L 651.0456 217.002323 
L 652.3848 217.327774 
L 653.724 217.594199 
L 655.7328 218.354037 
L 658.4112 219.220121 
L 660.42 220.283889 
L 661.7592 220.619053 
L 663.768 220.879148 
L 666.4464 221.008884 
L 667.7856 221.013188 
L 669.7944 221.289681 
L 671.8032 221.27308 
L 673.812 220.937505 
L 681.8472 219.221051 
L 687.204 217.840925 
L 694.5696 215.834143 
L 695.9088 215.636501 
L 699.2568 214.79841 
L 705.9528 212.848789 
L 721.3536 208.057199 
L 735.4152 203.55972 
L 740.1024 201.826135 
L 743.4504 200.378202 
L 744.7896 200.001332 
L 746.1288 199.441023 
L 748.8072 197.868616 
L 749.4768 197.336505 
L 750.1464 196.542878 
L 750.816 195.268436 
L 751.4856 192.819074 
L 752.1552 184.59334 
L 752.8248 145.670717 
L 753.4944 71.283997 
L 754.164 67.855338 
L 755.5032 97.060609 
L 757.512 132.306052 
L 759.5208 163.281322 
L 761.5296 190.584349 
L 762.1992 197.657998 
L 762.8688 202.767153 
L 763.5384 206.122246 
L 764.208 208.389403 
L 764.8776 210.02509 
L 766.2168 212.339877 
L 766.8864 213.182271 
L 767.556 213.805628 
L 770.2344 215.56123 
L 771.5736 215.943981 
L 773.5824 216.494261 
L 774.9216 216.630745 
L 777.6 216.469396 
L 777.6 216.469396 
" clip-path="url(#p672a30ebd5)" style="fill: none; stroke: #000000; stroke-width: 1.5; stroke-linecap: square"/>
   </g>
   <g id="line2d_24">
    <path d="M 108 143.285637 
L 117.3744 147.895561 
L 119.3832 149.269229 
L 121.392 150.906078 
L 123.4008 152.81579 
L 126.7488 156.360572 
L 130.0968 160.273564 
L 132.7752 163.726661 
L 135.4536 167.492018 
L 136.1232 145.261294 
L 136.7928 140.73553 
L 137.4624 138.31392 
L 138.132 136.99831 
L 138.8016 136.228504 
L 139.4712 135.749932 
L 140.8104 135.188924 
L 146.1672 133.440189 
L 150.1848 132.116914 
L 153.5328 131.285868 
L 156.8808 130.665226 
L 160.8984 130.153606 
L 165.5856 129.794208 
L 171.612 129.583788 
L 178.9776 129.575142 
L 187.6824 129.796913 
L 198.396 130.310025 
L 203.0832 130.722241 
L 209.7792 131.475035 
L 220.4928 133.068724 
L 229.1976 134.272417 
L 233.2152 135.392986 
L 235.8936 136.299972 
L 237.9024 137.229193 
L 240.5808 138.696837 
L 250.6248 145.059659 
L 255.312 148.595753 
L 257.9904 150.96438 
L 261.3384 154.20998 
L 264.0168 157.113915 
L 266.6952 160.378432 
L 268.704 163.194778 
L 269.3736 164.195063 
L 270.0432 143.543258 
L 270.7128 139.572353 
L 271.3824 137.419914 
L 272.052 136.260035 
L 272.7216 135.591164 
L 273.3912 135.17859 
L 274.7304 134.68249 
L 278.748 133.418283 
L 284.1048 131.53318 
L 287.4528 130.675328 
L 290.8008 130.036647 
L 294.1488 129.62421 
L 299.5056 129.271321 
L 305.532 129.100051 
L 312.8976 129.116628 
L 322.272 129.367515 
L 340.3512 129.940232 
L 342.36 129.724859 
L 343.0296 129.500704 
L 343.6992 128.827431 
L 344.3688 125.65971 
L 345.708 114.633586 
L 346.3776 110.965848 
L 347.0472 109.058637 
L 347.7168 108.485013 
L 348.3864 108.820852 
L 349.056 109.759034 
L 349.7256 111.096352 
L 351.0648 114.482858 
L 355.752 127.632457 
L 357.0912 130.28147 
L 358.4304 132.372397 
L 359.7696 134.072308 
L 361.1088 135.48078 
L 363.1176 137.195332 
L 365.1264 138.646436 
L 367.8048 140.256078 
L 371.1528 141.958754 
L 375.84 144.180612 
L 382.536 148.014386 
L 385.884 150.363563 
L 388.5624 152.536352 
L 391.9104 155.554925 
L 393.9192 157.663117 
L 396.5976 160.803356 
L 399.276 164.280021 
L 401.2848 167.186472 
L 403.2936 170.381373 
L 403.9632 146.906744 
L 404.6328 141.874759 
L 405.3024 139.206111 
L 405.972 137.735257 
L 406.6416 136.855595 
L 407.3112 136.290742 
L 408.6504 135.593666 
L 418.0248 132.114611 
L 421.3728 131.156522 
L 424.7208 130.454822 
L 428.0688 129.970152 
L 432.756 129.614844 
L 438.7824 129.387281 
L 446.148 129.354006 
L 454.8528 129.553245 
L 464.8968 130.00736 
L 475.6104 130.699048 
L 480.2976 131.270702 
L 487.6632 132.408399 
L 491.0112 133.21032 
L 493.6896 134.10904 
L 497.7072 135.743539 
L 503.7336 138.148013 
L 509.0904 140.284532 
L 511.0992 141.317171 
L 516.456 144.486631 
L 518.4648 145.884332 
L 521.1432 148.115441 
L 525.1608 151.775703 
L 527.1696 153.903691 
L 529.848 157.157867 
L 531.8568 159.901677 
L 534.5352 164.004501 
L 537.2136 168.540757 
L 537.8832 145.9332 
L 538.5528 141.272382 
L 539.2224 138.780645 
L 539.892 137.41158 
L 540.5616 136.595304 
L 541.2312 136.07154 
L 542.5704 135.416953 
L 553.9536 131.208869 
L 557.3016 130.390048 
L 560.6496 129.801792 
L 564.6672 129.322012 
L 569.3544 128.981902 
L 575.3808 128.77729 
L 582.7464 128.757154 
L 593.46 128.976792 
L 600.8256 129.076425 
L 603.504 128.928074 
L 604.8432 128.66718 
L 605.5128 128.201278 
L 606.1824 126.112368 
L 608.1912 111.688379 
L 608.8608 109.368431 
L 609.5304 108.452248 
L 610.2 108.52621 
L 610.8696 109.267299 
L 611.5392 110.454278 
L 612.8784 113.626253 
L 614.8872 119.342842 
L 616.896 124.959264 
L 618.2352 127.906216 
L 619.5744 130.166612 
L 620.9136 131.900706 
L 622.2528 133.255696 
L 623.592 134.339581 
L 625.6008 135.639945 
L 628.2792 137.029339 
L 630.9576 138.110198 
L 636.3144 140.098025 
L 639.6624 141.390198 
L 643.68 143.353214 
L 647.6976 145.573941 
L 650.376 147.208272 
L 653.724 149.498721 
L 655.7328 151.079849 
L 658.4112 153.523958 
L 660.42 155.722547 
L 662.4288 158.26563 
L 665.1072 162.040229 
L 667.7856 166.243241 
L 670.464 170.923671 
L 671.1336 172.155724 
L 671.8032 147.993334 
L 672.4728 142.633779 
L 673.1424 139.819861 
L 673.812 138.256525 
L 674.4816 137.307448 
L 675.1512 136.68675 
L 676.4904 135.900296 
L 682.5168 133.327617 
L 685.8648 132.029168 
L 688.5432 131.197388 
L 691.8912 130.409035 
L 695.2392 129.858854 
L 699.2568 129.485115 
L 704.6136 129.195058 
L 711.3096 129.068257 
L 719.3448 129.156043 
L 728.7192 129.483781 
L 750.1464 130.369633 
L 751.4856 130.193294 
L 752.1552 129.806046 
L 752.8248 128.182201 
L 753.4944 123.8179 
L 754.164 118.440394 
L 754.8336 114.035792 
L 755.5032 111.230235 
L 756.1728 109.870808 
L 756.8424 109.610347 
L 757.512 110.130418 
L 758.1816 111.189972 
L 759.5208 114.302119 
L 760.86 118.15083 
L 763.5384 126.414837 
L 764.8776 129.822442 
L 766.2168 132.517372 
L 767.556 134.663066 
L 768.8952 136.402705 
L 770.904 138.531492 
L 772.9128 140.277331 
L 775.5912 142.240365 
L 777.6 143.487092 
L 777.6 143.487092 
" clip-path="url(#p672a30ebd5)" style="fill: none; stroke: #4169e1; stroke-width: 1.5; stroke-linecap: square"/>
   </g>
   <g id="patch_3">
    <path d="M 108 256.32 
L 108 34.56 
" style="fill: none; stroke: #000000; stroke-width: 0.8; stroke-linejoin: miter; stroke-linecap: square"/>
   </g>
   <g id="patch_4">
    <path d="M 777.6 256.32 
L 777.6 34.56 
" style="fill: none; stroke: #000000; stroke-width: 0.8; stroke-linejoin: miter; stroke-linecap: square"/>
   </g>
   <g id="patch_5">
    <path d="M 108 256.32 
L 777.6 256.32 
" style="fill: none; stroke: #000000; stroke-width: 0.8; stroke-linejoin: miter; stroke-linecap: square"/>
   </g>
   <g id="patch_6">
    <path d="M 108 34.56 
L 777.6 34.56 
" style="fill: none; stroke: #000000; stroke-width: 0.8; stroke-linejoin: miter; stroke-linecap: square"/>
   </g>
   <g id="legend_1">
    <g id="patch_7">
     <path d="M 115 71.91625 
L 190.501563 71.91625 
Q 192.501563 71.91625 192.501563 69.91625 
L 192.501563 41.56 
Q 192.501563 39.56 190.501563 39.56 
L 115 39.56 
Q 113 39.56 113 41.56 
L 113 69.91625 
Q 113 71.91625 115 71.91625 
z
" style="fill: #ffffff; opacity: 0.8; stroke: #cccccc; stroke-linejoin: miter"/>
    </g>
    <g id="line2d_25">
     <path d="M 117 47.658437 
L 127 47.658437 
L 137 47.658437 
" style="fill: none; stroke: #000000; stroke-width: 1.5; stroke-linecap: square"/>
    </g>
    <g id="text_14">
     <!-- Soma -->
     <g transform="translate(145 51.158437) scale(0.1 -0.1)">
      <defs>
       <path id="DejaVuSans-53" d="M 3425 4513 
L 3425 3897 
Q 3066 4069 2747 4153 
Q 2428 4238 2131 4238 
Q 1616 4238 1336 4038 
Q 1056 3838 1056 3469 
Q 1056 3159 1242 3001 
Q 1428 2844 1947 2747 
L 2328 2669 
Q 3034 2534 3370 2195 
Q 3706 1856 3706 1288 
Q 3706 609 3251 259 
Q 2797 -91 1919 -91 
Q 1588 -91 1214 -16 
Q 841 59 441 206 
L 441 856 
Q 825 641 1194 531 
Q 1563 422 1919 422 
Q 2459 422 2753 634 
Q 3047 847 3047 1241 
Q 3047 1584 2836 1778 
Q 2625 1972 2144 2069 
L 1759 2144 
Q 1053 2284 737 2584 
Q 422 2884 422 3419 
Q 422 4038 858 4394 
Q 1294 4750 2059 4750 
Q 2388 4750 2728 4690 
Q 3069 4631 3425 4513 
z
" transform="scale(0.015625)"/>
       <path id="DejaVuSans-6f" d="M 1959 3097 
Q 1497 3097 1228 2736 
Q 959 2375 959 1747 
Q 959 1119 1226 758 
Q 1494 397 1959 397 
Q 2419 397 2687 759 
Q 2956 1122 2956 1747 
Q 2956 2369 2687 2733 
Q 2419 3097 1959 3097 
z
M 1959 3584 
Q 2709 3584 3137 3096 
Q 3566 2609 3566 1747 
Q 3566 888 3137 398 
Q 2709 -91 1959 -91 
Q 1206 -91 779 398 
Q 353 888 353 1747 
Q 353 2609 779 3096 
Q 1206 3584 1959 3584 
z
" transform="scale(0.015625)"/>
       <path id="DejaVuSans-61" d="M 2194 1759 
Q 1497 1759 1228 1600 
Q 959 1441 959 1056 
Q 959 750 1161 570 
Q 1363 391 1709 391 
Q 2188 391 2477 730 
Q 2766 1069 2766 1631 
L 2766 1759 
L 2194 1759 
z
M 3341 1997 
L 3341 0 
L 2766 0 
L 2766 531 
Q 2569 213 2275 61 
Q 1981 -91 1556 -91 
Q 1019 -91 701 211 
Q 384 513 384 1019 
Q 384 1609 779 1909 
Q 1175 2209 1959 2209 
L 2766 2209 
L 2766 2266 
Q 2766 2663 2505 2880 
Q 2244 3097 1772 3097 
Q 1472 3097 1187 3025 
Q 903 2953 641 2809 
L 641 3341 
Q 956 3463 1253 3523 
Q 1550 3584 1831 3584 
Q 2591 3584 2966 3190 
Q 3341 2797 3341 1997 
z
" transform="scale(0.015625)"/>
      </defs>
      <use xlink:href="#DejaVuSans-53"/>
      <use xlink:href="#DejaVuSans-6f" x="63.476562"/>
      <use xlink:href="#DejaVuSans-6d" x="124.658203"/>
      <use xlink:href="#DejaVuSans-61" x="222.070312"/>
     </g>
    </g>
    <g id="line2d_26">
     <path d="M 117 62.336562 
L 127 62.336562 
L 137 62.336562 
" style="fill: none; stroke: #4169e1; stroke-width: 1.5; stroke-linecap: square"/>
    </g>
    <g id="text_15">
     <!-- Dendrite -->
     <g transform="translate(145 65.836562) scale(0.1 -0.1)">
      <defs>
       <path id="DejaVuSans-44" d="M 1259 4147 
L 1259 519 
L 2022 519 
Q 2988 519 3436 956 
Q 3884 1394 3884 2338 
Q 3884 3275 3436 3711 
Q 2988 4147 2022 4147 
L 1259 4147 
z
M 628 4666 
L 1925 4666 
Q 3281 4666 3915 4102 
Q 4550 3538 4550 2338 
Q 4550 1131 3912 565 
Q 3275 0 1925 0 
L 628 0 
L 628 4666 
z
" transform="scale(0.015625)"/>
       <path id="DejaVuSans-6e" d="M 3513 2113 
L 3513 0 
L 2938 0 
L 2938 2094 
Q 2938 2591 2744 2837 
Q 2550 3084 2163 3084 
Q 1697 3084 1428 2787 
Q 1159 2491 1159 1978 
L 1159 0 
L 581 0 
L 581 3500 
L 1159 3500 
L 1159 2956 
Q 1366 3272 1645 3428 
Q 1925 3584 2291 3584 
Q 2894 3584 3203 3211 
Q 3513 2838 3513 2113 
z
" transform="scale(0.015625)"/>
       <path id="DejaVuSans-64" d="M 2906 2969 
L 2906 4863 
L 3481 4863 
L 3481 0 
L 2906 0 
L 2906 525 
Q 2725 213 2448 61 
Q 2172 -91 1784 -91 
Q 1150 -91 751 415 
Q 353 922 353 1747 
Q 353 2572 751 3078 
Q 1150 3584 1784 3584 
Q 2172 3584 2448 3432 
Q 2725 3281 2906 2969 
z
M 947 1747 
Q 947 1113 1208 752 
Q 1469 391 1925 391 
Q 2381 391 2643 752 
Q 2906 1113 2906 1747 
Q 2906 2381 2643 2742 
Q 2381 3103 1925 3103 
Q 1469 3103 1208 2742 
Q 947 2381 947 1747 
z
" transform="scale(0.015625)"/>
       <path id="DejaVuSans-72" d="M 2631 2963 
Q 2534 3019 2420 3045 
Q 2306 3072 2169 3072 
Q 1681 3072 1420 2755 
Q 1159 2438 1159 1844 
L 1159 0 
L 581 0 
L 581 3500 
L 1159 3500 
L 1159 2956 
Q 1341 3275 1631 3429 
Q 1922 3584 2338 3584 
Q 2397 3584 2469 3576 
Q 2541 3569 2628 3553 
L 2631 2963 
z
" transform="scale(0.015625)"/>
       <path id="DejaVuSans-74" d="M 1172 4494 
L 1172 3500 
L 2356 3500 
L 2356 3053 
L 1172 3053 
L 1172 1153 
Q 1172 725 1289 603 
Q 1406 481 1766 481 
L 2356 481 
L 2356 0 
L 1766 0 
Q 1100 0 847 248 
Q 594 497 594 1153 
L 594 3053 
L 172 3053 
L 172 3500 
L 594 3500 
L 594 4494 
L 1172 4494 
z
" transform="scale(0.015625)"/>
      </defs>
      <use xlink:href="#DejaVuSans-44"/>
      <use xlink:href="#DejaVuSans-65" x="77.001953"/>
      <use xlink:href="#DejaVuSans-6e" x="138.525391"/>
      <use xlink:href="#DejaVuSans-64" x="201.904297"/>
      <use xlink:href="#DejaVuSans-72" x="265.380859"/>
      <use xlink:href="#DejaVuSans-69" x="306.494141"/>
      <use xlink:href="#DejaVuSans-74" x="334.277344"/>
      <use xlink:href="#DejaVuSans-65" x="373.486328"/>
     </g>
    </g>
   </g>
  </g>
 </g>
 <defs>
  <clipPath id="p672a30ebd5">
   <rect x="108" y="34.56" width="669.6" height="221.76"/>
  </clipPath>
 </defs>
</svg>
