<?xml version="1.0" encoding="utf-8" standalone="no"?>
<!DOCTYPE svg PUBLIC "-//W3C//DTD SVG 1.1//EN"
  "http://www.w3.org/Graphics/SVG/1.1/DTD/svg11.dtd">
<svg xmlns:xlink="http://www.w3.org/1999/xlink" width="864pt" height="288pt" viewBox="0 0 864 288" xmlns="http://www.w3.org/2000/svg" version="1.1">
 <metadata>
  <rdf:RDF xmlns:dc="http://purl.org/dc/elements/1.1/" xmlns:cc="http://creativecommons.org/ns#" xmlns:rdf="http://www.w3.org/1999/02/22-rdf-syntax-ns#">
   <cc:Work>
    <dc:type rdf:resource="http://purl.org/dc/dcmitype/StillImage"/>
    <dc:date>2024-04-12T18:08:52.419858</dc:date>
    <dc:format>image/svg+xml</dc:format>
    <dc:creator>
     <cc:Agent>
      <dc:title>Matplotlib v3.8.2, https://matplotlib.org/</dc:title>
     </cc:Agent>
    </dc:creator>
   </cc:Work>
  </rdf:RDF>
 </metadata>
 <defs>
  <style type="text/css">*{stroke-linejoin: round; stroke-linecap: butt}</style>
 </defs>
 <g id="figure_1">
  <g id="patch_1">
   <path d="M 0 288 
L 864 288 
L 864 0 
L 0 0 
z
" style="fill: #ffffff"/>
  </g>
  <g id="axes_1">
   <g id="patch_2">
    <path d="M 108 256.32 
L 777.6 256.32 
L 777.6 34.56 
L 108 34.56 
z
" style="fill: #ffffff"/>
   </g>
   <g id="matplotlib.axis_1">
    <g id="xtick_1">
     <g id="line2d_1">
      <path d="M 108 256.32 
L 108 34.56 
" clip-path="url(#p6fc7cc8237)" style="fill: none; stroke: #b0b0b0; stroke-width: 0.8; stroke-linecap: square"/>
     </g>
     <g id="line2d_2">
      <defs>
       <path id="m70ec4bf8e9" d="M 0 0 
L 0 3.5 
" style="stroke: #000000; stroke-width: 0.8"/>
      </defs>
      <g>
       <use xlink:href="#m70ec4bf8e9" x="108" y="256.32" style="stroke: #000000; stroke-width: 0.8"/>
      </g>
     </g>
     <g id="text_1">
      <!-- 100 -->
      <g transform="translate(94.63875 273.957812) scale(0.14 -0.14)">
       <defs>
        <path id="DejaVuSans-31" d="M 794 531 
L 1825 531 
L 1825 4091 
L 703 3866 
L 703 4441 
L 1819 4666 
L 2450 4666 
L 2450 531 
L 3481 531 
L 3481 0 
L 794 0 
L 794 531 
z
" transform="scale(0.015625)"/>
        <path id="DejaVuSans-30" d="M 2034 4250 
Q 1547 4250 1301 3770 
Q 1056 3291 1056 2328 
Q 1056 1369 1301 889 
Q 1547 409 2034 409 
Q 2525 409 2770 889 
Q 3016 1369 3016 2328 
Q 3016 3291 2770 3770 
Q 2525 4250 2034 4250 
z
M 2034 4750 
Q 2819 4750 3233 4129 
Q 3647 3509 3647 2328 
Q 3647 1150 3233 529 
Q 2819 -91 2034 -91 
Q 1250 -91 836 529 
Q 422 1150 422 2328 
Q 422 3509 836 4129 
Q 1250 4750 2034 4750 
z
" transform="scale(0.015625)"/>
       </defs>
       <use xlink:href="#DejaVuSans-31"/>
       <use xlink:href="#DejaVuSans-30" x="63.623047"/>
       <use xlink:href="#DejaVuSans-30" x="127.246094"/>
      </g>
     </g>
    </g>
    <g id="xtick_2">
     <g id="line2d_3">
      <path d="M 241.92 256.32 
L 241.92 34.56 
" clip-path="url(#p6fc7cc8237)" style="fill: none; stroke: #b0b0b0; stroke-width: 0.8; stroke-linecap: square"/>
     </g>
     <g id="line2d_4">
      <g>
       <use xlink:href="#m70ec4bf8e9" x="241.92" y="256.32" style="stroke: #000000; stroke-width: 0.8"/>
      </g>
     </g>
     <g id="text_2">
      <!-- 120 -->
      <g transform="translate(228.55875 273.957812) scale(0.14 -0.14)">
       <defs>
        <path id="DejaVuSans-32" d="M 1228 531 
L 3431 531 
L 3431 0 
L 469 0 
L 469 531 
Q 828 903 1448 1529 
Q 2069 2156 2228 2338 
Q 2531 2678 2651 2914 
Q 2772 3150 2772 3378 
Q 2772 3750 2511 3984 
Q 2250 4219 1831 4219 
Q 1534 4219 1204 4116 
Q 875 4013 500 3803 
L 500 4441 
Q 881 4594 1212 4672 
Q 1544 4750 1819 4750 
Q 2544 4750 2975 4387 
Q 3406 4025 3406 3419 
Q 3406 3131 3298 2873 
Q 3191 2616 2906 2266 
Q 2828 2175 2409 1742 
Q 1991 1309 1228 531 
z
" transform="scale(0.015625)"/>
       </defs>
       <use xlink:href="#DejaVuSans-31"/>
       <use xlink:href="#DejaVuSans-32" x="63.623047"/>
       <use xlink:href="#DejaVuSans-30" x="127.246094"/>
      </g>
     </g>
    </g>
    <g id="xtick_3">
     <g id="line2d_5">
      <path d="M 375.84 256.32 
L 375.84 34.56 
" clip-path="url(#p6fc7cc8237)" style="fill: none; stroke: #b0b0b0; stroke-width: 0.8; stroke-linecap: square"/>
     </g>
     <g id="line2d_6">
      <g>
       <use xlink:href="#m70ec4bf8e9" x="375.84" y="256.32" style="stroke: #000000; stroke-width: 0.8"/>
      </g>
     </g>
     <g id="text_3">
      <!-- 140 -->
      <g transform="translate(362.47875 273.957812) scale(0.14 -0.14)">
       <defs>
        <path id="DejaVuSans-34" d="M 2419 4116 
L 825 1625 
L 2419 1625 
L 2419 4116 
z
M 2253 4666 
L 3047 4666 
L 3047 1625 
L 3713 1625 
L 3713 1100 
L 3047 1100 
L 3047 0 
L 2419 0 
L 2419 1100 
L 313 1100 
L 313 1709 
L 2253 4666 
z
" transform="scale(0.015625)"/>
       </defs>
       <use xlink:href="#DejaVuSans-31"/>
       <use xlink:href="#DejaVuSans-34" x="63.623047"/>
       <use xlink:href="#DejaVuSans-30" x="127.246094"/>
      </g>
     </g>
    </g>
    <g id="xtick_4">
     <g id="line2d_7">
      <path d="M 509.76 256.32 
L 509.76 34.56 
" clip-path="url(#p6fc7cc8237)" style="fill: none; stroke: #b0b0b0; stroke-width: 0.8; stroke-linecap: square"/>
     </g>
     <g id="line2d_8">
      <g>
       <use xlink:href="#m70ec4bf8e9" x="509.76" y="256.32" style="stroke: #000000; stroke-width: 0.8"/>
      </g>
     </g>
     <g id="text_4">
      <!-- 160 -->
      <g transform="translate(496.39875 273.957812) scale(0.14 -0.14)">
       <defs>
        <path id="DejaVuSans-36" d="M 2113 2584 
Q 1688 2584 1439 2293 
Q 1191 2003 1191 1497 
Q 1191 994 1439 701 
Q 1688 409 2113 409 
Q 2538 409 2786 701 
Q 3034 994 3034 1497 
Q 3034 2003 2786 2293 
Q 2538 2584 2113 2584 
z
M 3366 4563 
L 3366 3988 
Q 3128 4100 2886 4159 
Q 2644 4219 2406 4219 
Q 1781 4219 1451 3797 
Q 1122 3375 1075 2522 
Q 1259 2794 1537 2939 
Q 1816 3084 2150 3084 
Q 2853 3084 3261 2657 
Q 3669 2231 3669 1497 
Q 3669 778 3244 343 
Q 2819 -91 2113 -91 
Q 1303 -91 875 529 
Q 447 1150 447 2328 
Q 447 3434 972 4092 
Q 1497 4750 2381 4750 
Q 2619 4750 2861 4703 
Q 3103 4656 3366 4563 
z
" transform="scale(0.015625)"/>
       </defs>
       <use xlink:href="#DejaVuSans-31"/>
       <use xlink:href="#DejaVuSans-36" x="63.623047"/>
       <use xlink:href="#DejaVuSans-30" x="127.246094"/>
      </g>
     </g>
    </g>
    <g id="xtick_5">
     <g id="line2d_9">
      <path d="M 643.68 256.32 
L 643.68 34.56 
" clip-path="url(#p6fc7cc8237)" style="fill: none; stroke: #b0b0b0; stroke-width: 0.8; stroke-linecap: square"/>
     </g>
     <g id="line2d_10">
      <g>
       <use xlink:href="#m70ec4bf8e9" x="643.68" y="256.32" style="stroke: #000000; stroke-width: 0.8"/>
      </g>
     </g>
     <g id="text_5">
      <!-- 180 -->
      <g transform="translate(630.31875 273.957812) scale(0.14 -0.14)">
       <defs>
        <path id="DejaVuSans-38" d="M 2034 2216 
Q 1584 2216 1326 1975 
Q 1069 1734 1069 1313 
Q 1069 891 1326 650 
Q 1584 409 2034 409 
Q 2484 409 2743 651 
Q 3003 894 3003 1313 
Q 3003 1734 2745 1975 
Q 2488 2216 2034 2216 
z
M 1403 2484 
Q 997 2584 770 2862 
Q 544 3141 544 3541 
Q 544 4100 942 4425 
Q 1341 4750 2034 4750 
Q 2731 4750 3128 4425 
Q 3525 4100 3525 3541 
Q 3525 3141 3298 2862 
Q 3072 2584 2669 2484 
Q 3125 2378 3379 2068 
Q 3634 1759 3634 1313 
Q 3634 634 3220 271 
Q 2806 -91 2034 -91 
Q 1263 -91 848 271 
Q 434 634 434 1313 
Q 434 1759 690 2068 
Q 947 2378 1403 2484 
z
M 1172 3481 
Q 1172 3119 1398 2916 
Q 1625 2713 2034 2713 
Q 2441 2713 2670 2916 
Q 2900 3119 2900 3481 
Q 2900 3844 2670 4047 
Q 2441 4250 2034 4250 
Q 1625 4250 1398 4047 
Q 1172 3844 1172 3481 
z
" transform="scale(0.015625)"/>
       </defs>
       <use xlink:href="#DejaVuSans-31"/>
       <use xlink:href="#DejaVuSans-38" x="63.623047"/>
       <use xlink:href="#DejaVuSans-30" x="127.246094"/>
      </g>
     </g>
    </g>
    <g id="xtick_6">
     <g id="line2d_11">
      <path d="M 777.6 256.32 
L 777.6 34.56 
" clip-path="url(#p6fc7cc8237)" style="fill: none; stroke: #b0b0b0; stroke-width: 0.8; stroke-linecap: square"/>
     </g>
     <g id="line2d_12">
      <g>
       <use xlink:href="#m70ec4bf8e9" x="777.6" y="256.32" style="stroke: #000000; stroke-width: 0.8"/>
      </g>
     </g>
     <g id="text_6">
      <!-- 200 -->
      <g transform="translate(764.23875 273.957812) scale(0.14 -0.14)">
       <use xlink:href="#DejaVuSans-32"/>
       <use xlink:href="#DejaVuSans-30" x="63.623047"/>
       <use xlink:href="#DejaVuSans-30" x="127.246094"/>
      </g>
     </g>
    </g>
    <g id="text_7">
     <!-- Time (ms) -->
     <g transform="translate(407.521094 291.507187) scale(0.14 -0.14)">
      <defs>
       <path id="DejaVuSans-54" d="M -19 4666 
L 3928 4666 
L 3928 4134 
L 2272 4134 
L 2272 0 
L 1638 0 
L 1638 4134 
L -19 4134 
L -19 4666 
z
" transform="scale(0.015625)"/>
       <path id="DejaVuSans-69" d="M 603 3500 
L 1178 3500 
L 1178 0 
L 603 0 
L 603 3500 
z
M 603 4863 
L 1178 4863 
L 1178 4134 
L 603 4134 
L 603 4863 
z
" transform="scale(0.015625)"/>
       <path id="DejaVuSans-6d" d="M 3328 2828 
Q 3544 3216 3844 3400 
Q 4144 3584 4550 3584 
Q 5097 3584 5394 3201 
Q 5691 2819 5691 2113 
L 5691 0 
L 5113 0 
L 5113 2094 
Q 5113 2597 4934 2840 
Q 4756 3084 4391 3084 
Q 3944 3084 3684 2787 
Q 3425 2491 3425 1978 
L 3425 0 
L 2847 0 
L 2847 2094 
Q 2847 2600 2669 2842 
Q 2491 3084 2119 3084 
Q 1678 3084 1418 2786 
Q 1159 2488 1159 1978 
L 1159 0 
L 581 0 
L 581 3500 
L 1159 3500 
L 1159 2956 
Q 1356 3278 1631 3431 
Q 1906 3584 2284 3584 
Q 2666 3584 2933 3390 
Q 3200 3197 3328 2828 
z
" transform="scale(0.015625)"/>
       <path id="DejaVuSans-65" d="M 3597 1894 
L 3597 1613 
L 953 1613 
Q 991 1019 1311 708 
Q 1631 397 2203 397 
Q 2534 397 2845 478 
Q 3156 559 3463 722 
L 3463 178 
Q 3153 47 2828 -22 
Q 2503 -91 2169 -91 
Q 1331 -91 842 396 
Q 353 884 353 1716 
Q 353 2575 817 3079 
Q 1281 3584 2069 3584 
Q 2775 3584 3186 3129 
Q 3597 2675 3597 1894 
z
M 3022 2063 
Q 3016 2534 2758 2815 
Q 2500 3097 2075 3097 
Q 1594 3097 1305 2825 
Q 1016 2553 972 2059 
L 3022 2063 
z
" transform="scale(0.015625)"/>
       <path id="DejaVuSans-20" transform="scale(0.015625)"/>
       <path id="DejaVuSans-28" d="M 1984 4856 
Q 1566 4138 1362 3434 
Q 1159 2731 1159 2009 
Q 1159 1288 1364 580 
Q 1569 -128 1984 -844 
L 1484 -844 
Q 1016 -109 783 600 
Q 550 1309 550 2009 
Q 550 2706 781 3412 
Q 1013 4119 1484 4856 
L 1984 4856 
z
" transform="scale(0.015625)"/>
       <path id="DejaVuSans-73" d="M 2834 3397 
L 2834 2853 
Q 2591 2978 2328 3040 
Q 2066 3103 1784 3103 
Q 1356 3103 1142 2972 
Q 928 2841 928 2578 
Q 928 2378 1081 2264 
Q 1234 2150 1697 2047 
L 1894 2003 
Q 2506 1872 2764 1633 
Q 3022 1394 3022 966 
Q 3022 478 2636 193 
Q 2250 -91 1575 -91 
Q 1294 -91 989 -36 
Q 684 19 347 128 
L 347 722 
Q 666 556 975 473 
Q 1284 391 1588 391 
Q 1994 391 2212 530 
Q 2431 669 2431 922 
Q 2431 1156 2273 1281 
Q 2116 1406 1581 1522 
L 1381 1569 
Q 847 1681 609 1914 
Q 372 2147 372 2553 
Q 372 3047 722 3315 
Q 1072 3584 1716 3584 
Q 2034 3584 2315 3537 
Q 2597 3491 2834 3397 
z
" transform="scale(0.015625)"/>
       <path id="DejaVuSans-29" d="M 513 4856 
L 1013 4856 
Q 1481 4119 1714 3412 
Q 1947 2706 1947 2009 
Q 1947 1309 1714 600 
Q 1481 -109 1013 -844 
L 513 -844 
Q 928 -128 1133 580 
Q 1338 1288 1338 2009 
Q 1338 2731 1133 3434 
Q 928 4138 513 4856 
z
" transform="scale(0.015625)"/>
      </defs>
      <use xlink:href="#DejaVuSans-54"/>
      <use xlink:href="#DejaVuSans-69" x="57.958984"/>
      <use xlink:href="#DejaVuSans-6d" x="85.742188"/>
      <use xlink:href="#DejaVuSans-65" x="183.154297"/>
      <use xlink:href="#DejaVuSans-20" x="244.677734"/>
      <use xlink:href="#DejaVuSans-28" x="276.464844"/>
      <use xlink:href="#DejaVuSans-6d" x="315.478516"/>
      <use xlink:href="#DejaVuSans-73" x="412.890625"/>
      <use xlink:href="#DejaVuSans-29" x="464.990234"/>
     </g>
    </g>
   </g>
   <g id="matplotlib.axis_2">
    <g id="ytick_1">
     <g id="line2d_13">
      <path d="M 108 225.037735 
L 777.6 225.037735 
" clip-path="url(#p6fc7cc8237)" style="fill: none; stroke: #b0b0b0; stroke-width: 0.8; stroke-linecap: square"/>
     </g>
     <g id="line2d_14">
      <defs>
       <path id="m2b45484d88" d="M 0 0 
L -3.5 0 
" style="stroke: #000000; stroke-width: 0.8"/>
      </defs>
      <g>
       <use xlink:href="#m2b45484d88" x="108" y="225.037735" style="stroke: #000000; stroke-width: 0.8"/>
      </g>
     </g>
     <g id="text_8">
      <!-- −60 -->
      <g transform="translate(71.453437 230.356641) scale(0.14 -0.14)">
       <defs>
        <path id="DejaVuSans-2212" d="M 678 2272 
L 4684 2272 
L 4684 1741 
L 678 1741 
L 678 2272 
z
" transform="scale(0.015625)"/>
       </defs>
       <use xlink:href="#DejaVuSans-2212"/>
       <use xlink:href="#DejaVuSans-36" x="83.789062"/>
       <use xlink:href="#DejaVuSans-30" x="147.412109"/>
      </g>
     </g>
    </g>
    <g id="ytick_2">
     <g id="line2d_15">
      <path d="M 108 182.700772 
L 777.6 182.700772 
" clip-path="url(#p6fc7cc8237)" style="fill: none; stroke: #b0b0b0; stroke-width: 0.8; stroke-linecap: square"/>
     </g>
     <g id="line2d_16">
      <g>
       <use xlink:href="#m2b45484d88" x="108" y="182.700772" style="stroke: #000000; stroke-width: 0.8"/>
      </g>
     </g>
     <g id="text_9">
      <!-- −40 -->
      <g transform="translate(71.453437 188.019678) scale(0.14 -0.14)">
       <use xlink:href="#DejaVuSans-2212"/>
       <use xlink:href="#DejaVuSans-34" x="83.789062"/>
       <use xlink:href="#DejaVuSans-30" x="147.412109"/>
      </g>
     </g>
    </g>
    <g id="ytick_3">
     <g id="line2d_17">
      <path d="M 108 140.36381 
L 777.6 140.36381 
" clip-path="url(#p6fc7cc8237)" style="fill: none; stroke: #b0b0b0; stroke-width: 0.8; stroke-linecap: square"/>
     </g>
     <g id="line2d_18">
      <g>
       <use xlink:href="#m2b45484d88" x="108" y="140.36381" style="stroke: #000000; stroke-width: 0.8"/>
      </g>
     </g>
     <g id="text_10">
      <!-- −20 -->
      <g transform="translate(71.453437 145.682716) scale(0.14 -0.14)">
       <use xlink:href="#DejaVuSans-2212"/>
       <use xlink:href="#DejaVuSans-32" x="83.789062"/>
       <use xlink:href="#DejaVuSans-30" x="147.412109"/>
      </g>
     </g>
    </g>
    <g id="ytick_4">
     <g id="line2d_19">
      <path d="M 108 98.026847 
L 777.6 98.026847 
" clip-path="url(#p6fc7cc8237)" style="fill: none; stroke: #b0b0b0; stroke-width: 0.8; stroke-linecap: square"/>
     </g>
     <g id="line2d_20">
      <g>
       <use xlink:href="#m2b45484d88" x="108" y="98.026847" style="stroke: #000000; stroke-width: 0.8"/>
      </g>
     </g>
     <g id="text_11">
      <!-- 0 -->
      <g transform="translate(92.0925 103.345753) scale(0.14 -0.14)">
       <use xlink:href="#DejaVuSans-30"/>
      </g>
     </g>
    </g>
    <g id="ytick_5">
     <g id="line2d_21">
      <path d="M 108 55.689884 
L 777.6 55.689884 
" clip-path="url(#p6fc7cc8237)" style="fill: none; stroke: #b0b0b0; stroke-width: 0.8; stroke-linecap: square"/>
     </g>
     <g id="line2d_22">
      <g>
       <use xlink:href="#m2b45484d88" x="108" y="55.689884" style="stroke: #000000; stroke-width: 0.8"/>
      </g>
     </g>
     <g id="text_12">
      <!-- 20 -->
      <g transform="translate(83.185 61.008791) scale(0.14 -0.14)">
       <use xlink:href="#DejaVuSans-32"/>
       <use xlink:href="#DejaVuSans-30" x="63.623047"/>
      </g>
     </g>
    </g>
    <g id="text_13">
     <!-- $V_{m}$ (mV) -->
     <g transform="translate(64.541875 174.49) rotate(-90) scale(0.14 -0.14)">
      <defs>
       <path id="DejaVuSans-Oblique-56" d="M 1319 0 
L 500 4666 
L 1119 4666 
L 1797 653 
L 4063 4666 
L 4750 4666 
L 2053 0 
L 1319 0 
z
" transform="scale(0.015625)"/>
       <path id="DejaVuSans-Oblique-6d" d="M 5747 2113 
L 5338 0 
L 4763 0 
L 5166 2094 
Q 5191 2228 5203 2325 
Q 5216 2422 5216 2491 
Q 5216 2772 5059 2928 
Q 4903 3084 4622 3084 
Q 4203 3084 3875 2770 
Q 3547 2456 3450 1953 
L 3066 0 
L 2491 0 
L 2900 2094 
Q 2925 2209 2937 2307 
Q 2950 2406 2950 2484 
Q 2950 2769 2794 2926 
Q 2638 3084 2363 3084 
Q 1938 3084 1609 2770 
Q 1281 2456 1184 1953 
L 800 0 
L 225 0 
L 909 3500 
L 1484 3500 
L 1375 2956 
Q 1609 3263 1923 3423 
Q 2238 3584 2597 3584 
Q 2978 3584 3223 3384 
Q 3469 3184 3519 2828 
Q 3781 3197 4126 3390 
Q 4472 3584 4856 3584 
Q 5306 3584 5551 3325 
Q 5797 3066 5797 2591 
Q 5797 2488 5784 2364 
Q 5772 2241 5747 2113 
z
" transform="scale(0.015625)"/>
       <path id="DejaVuSans-56" d="M 1831 0 
L 50 4666 
L 709 4666 
L 2188 738 
L 3669 4666 
L 4325 4666 
L 2547 0 
L 1831 0 
z
" transform="scale(0.015625)"/>
      </defs>
      <use xlink:href="#DejaVuSans-Oblique-56" transform="translate(0 0.125)"/>
      <use xlink:href="#DejaVuSans-Oblique-6d" transform="translate(68.408203 -16.28125) scale(0.7)"/>
      <use xlink:href="#DejaVuSans-20" transform="translate(139.331055 0.125)"/>
      <use xlink:href="#DejaVuSans-28" transform="translate(171.118164 0.125)"/>
      <use xlink:href="#DejaVuSans-6d" transform="translate(210.131836 0.125)"/>
      <use xlink:href="#DejaVuSans-56" transform="translate(307.543945 0.125)"/>
      <use xlink:href="#DejaVuSans-29" transform="translate(375.952148 0.125)"/>
     </g>
    </g>
   </g>
   <g id="line2d_23">
    <path d="M 108 215.964466 
L 109.3392 216.924267 
L 110.6784 217.47694 
L 113.3568 218.136193 
L 114.696 218.276439 
L 116.0352 218.467908 
L 121.392 220.180376 
L 122.7312 220.569172 
L 124.0704 220.665271 
L 126.0792 220.592066 
L 129.4272 220.201721 
L 133.4448 219.48875 
L 134.1144 219.351947 
L 136.1232 219.398125 
L 137.4624 219.905815 
L 140.8104 220.223876 
L 146.8368 220.022585 
L 148.176 219.85979 
L 150.1848 219.889807 
L 152.8632 219.562916 
L 156.8808 218.836808 
L 162.2376 217.625317 
L 168.9336 215.859801 
L 178.308 213.126221 
L 198.396 207.075741 
L 200.4048 206.92561 
L 203.7528 206.249102 
L 205.7616 205.779491 
L 207.7704 205.756357 
L 208.44 205.682029 
L 210.4488 205.841934 
L 213.1272 205.631239 
L 217.1448 205.034257 
L 221.832 204.092265 
L 225.8496 203.150014 
L 227.1888 203.185793 
L 228.528 203.84793 
L 229.8672 204.198018 
L 231.2064 204.286804 
L 232.5456 204.238933 
L 234.5544 204.719178 
L 235.8936 205.579136 
L 237.2328 206.54218 
L 239.9112 208.329594 
L 241.2504 209.62426 
L 242.5896 210.302809 
L 243.9288 210.702105 
L 244.5984 210.843265 
L 245.9376 211.34721 
L 246.6072 211.503958 
L 247.9464 212.160769 
L 251.964 213.867163 
L 253.9728 214.194404 
L 255.9816 215.21118 
L 257.3208 215.645241 
L 259.3296 215.938891 
L 261.3384 216.202225 
L 262.6776 216.419714 
L 266.0256 216.755054 
L 267.3648 217.101628 
L 269.3736 217.239391 
L 271.3824 217.350292 
L 272.7216 217.475429 
L 275.4 217.392583 
L 278.748 217.062234 
L 282.7656 216.611301 
L 284.1048 216.583018 
L 286.7832 216.237484 
L 292.14 215.383054 
L 293.4792 215.308627 
L 296.8272 214.748576 
L 302.184 213.572775 
L 309.5496 211.70113 
L 319.5936 208.888874 
L 328.968 206.042673 
L 334.3248 204.194897 
L 337.6728 202.794221 
L 339.6816 201.707682 
L 341.0208 200.761311 
L 341.6904 200.194072 
L 342.36 199.463106 
L 343.0296 198.47783 
L 343.6992 197.0626 
L 344.3688 194.387977 
L 345.0384 186.050786 
L 345.708 141.717512 
L 346.3776 58.258844 
L 347.0472 66.207143 
L 347.7168 85.71631 
L 349.056 112.429803 
L 351.0648 145.255365 
L 353.0736 174.072705 
L 354.4128 190.834868 
L 355.0824 197.564394 
L 355.752 202.329966 
L 356.4216 205.466006 
L 357.0912 207.771373 
L 358.4304 210.859179 
L 359.1 212.07617 
L 359.7696 212.999541 
L 360.4392 213.6846 
L 363.1176 215.63484 
L 363.7872 216.042991 
L 364.4568 216.311472 
L 366.4656 216.67051 
L 369.144 216.931278 
L 370.4832 216.842423 
L 372.492 216.498963 
L 373.8312 216.740268 
L 375.1704 217.469373 
L 376.5096 217.644643 
L 378.5184 217.557009 
L 379.188 217.485663 
L 379.8576 217.545994 
L 382.536 218.148026 
L 383.8752 218.396738 
L 385.2144 218.567995 
L 388.5624 219.011934 
L 391.2408 219.011948 
L 392.58 219.331668 
L 394.5888 219.363863 
L 397.2672 219.152301 
L 398.6064 218.990153 
L 401.9544 219.173057 
L 403.9632 219.209429 
L 405.3024 219.395165 
L 406.6416 219.498371 
L 408.6504 219.533964 
L 409.9896 219.589988 
L 412.668 219.37428 
L 416.6856 218.773129 
L 421.3728 217.833657 
L 427.3992 216.526983 
L 428.7384 216.387556 
L 432.0864 215.68809 
L 438.1128 214.156323 
L 448.1568 211.321853 
L 472.2624 204.220195 
L 472.932 204.004495 
L 474.9408 203.855405 
L 477.6192 203.535727 
L 478.9584 203.55939 
L 481.6368 203.285209 
L 483.6456 202.955727 
L 484.9848 203.068284 
L 486.9936 203.53247 
L 489.0024 203.643786 
L 490.3416 204.342732 
L 491.6808 204.932092 
L 493.02 205.802729 
L 494.3592 206.453204 
L 495.6984 207.32783 
L 498.3768 208.361919 
L 499.716 208.596492 
L 501.7248 208.883516 
L 503.064 209.13638 
L 505.0728 209.410204 
L 506.412 209.645291 
L 508.4208 209.888146 
L 511.0992 211.763822 
L 512.4384 212.188518 
L 514.4472 212.658203 
L 515.1168 212.850635 
L 516.456 213.63627 
L 517.1256 213.858036 
L 519.804 215.746124 
L 521.1432 216.209161 
L 523.8216 216.823433 
L 525.8304 217.710879 
L 528.5088 218.651868 
L 530.5176 219.067722 
L 531.8568 219.344801 
L 533.8656 219.499157 
L 536.544 219.499765 
L 539.892 219.288263 
L 543.9096 218.805969 
L 548.5968 218.0052 
L 553.9536 216.85293 
L 560.6496 215.156135 
L 568.6848 212.87971 
L 580.7376 209.220557 
L 591.4512 205.750801 
L 595.4688 204.286804 
L 598.8168 202.83634 
L 600.8256 201.721305 
L 603.504 199.863689 
L 604.1736 199.190825 
L 604.8432 198.251442 
L 605.5128 196.798293 
L 606.1824 193.701346 
L 606.852 181.458102 
L 608.1912 53.281255 
L 608.8608 69.268466 
L 609.5304 88.553017 
L 610.8696 114.975969 
L 612.8784 147.677445 
L 614.8872 176.544536 
L 616.2264 192.917227 
L 616.896 198.816183 
L 617.5656 202.860196 
L 618.2352 205.581154 
L 618.9048 207.502116 
L 619.5744 208.924528 
L 620.244 210.007741 
L 620.9136 210.84298 
L 622.2528 211.976855 
L 624.2616 213.056673 
L 625.6008 213.482248 
L 626.2704 213.792688 
L 627.6096 214.051095 
L 628.9488 214.010579 
L 629.6184 213.930402 
L 630.288 213.974178 
L 630.9576 214.278028 
L 631.6272 214.444978 
L 632.9664 214.369672 
L 633.636 214.247368 
L 634.9752 214.221255 
L 635.6448 214.126467 
L 636.984 214.142585 
L 637.6536 214.066389 
L 639.6624 215.071939 
L 643.0104 215.683321 
L 644.3496 216.102421 
L 645.6888 216.354947 
L 647.028 216.538877 
L 647.6976 216.557032 
L 649.0368 216.947303 
L 650.376 217.191768 
L 651.0456 217.228523 
L 652.3848 217.499386 
L 653.724 217.711673 
L 655.7328 218.387001 
L 658.4112 219.140191 
L 660.42 220.114633 
L 661.7592 220.38955 
L 663.768 220.555026 
L 666.4464 220.547625 
L 668.4552 220.567397 
L 669.7944 220.637126 
L 672.4728 220.469849 
L 676.4904 219.947583 
L 681.1776 219.084187 
L 686.5344 217.860915 
L 693.2304 216.08517 
L 693.9 215.896488 
L 695.9088 215.690005 
L 699.2568 214.924331 
L 705.9528 213.113508 
L 719.3448 209.208585 
L 737.424 203.759603 
L 741.4416 202.34928 
L 742.7808 201.785526 
L 745.4592 201.238474 
L 748.1376 200.517272 
L 749.4768 200.329829 
L 750.816 199.987406 
L 753.4944 199.163527 
L 754.8336 198.670628 
L 756.1728 197.85596 
L 756.8424 197.343377 
L 757.512 196.547375 
L 758.1816 195.055476 
L 758.8512 190.700319 
L 759.5208 172.463915 
L 760.1904 94.243031 
L 760.86 65.379648 
L 763.5384 118.406964 
L 765.5472 150.841115 
L 767.556 179.81916 
L 768.8952 196.301885 
L 769.5648 202.274219 
L 770.2344 206.224047 
L 770.904 208.81891 
L 771.5736 210.652498 
L 772.2432 212.156052 
L 773.5824 214.318507 
L 774.252 215.097226 
L 775.5912 216.106265 
L 777.6 216.962293 
L 777.6 216.962293 
" clip-path="url(#p6fc7cc8237)" style="fill: none; stroke: #000000; stroke-width: 1.5; stroke-linecap: square"/>
   </g>
   <g id="line2d_24">
    <path d="M 108 130.395831 
L 109.3392 131.056295 
L 110.6784 131.444767 
L 112.6872 131.717939 
L 115.3656 131.798895 
L 120.7224 131.89806 
L 131.436 132.325777 
L 136.7928 132.542443 
L 142.1496 133.199205 
L 185.004 138.458568 
L 195.7176 140.026312 
L 201.0744 140.981783 
L 207.7704 142.530338 
L 211.1184 143.564163 
L 227.8584 149.434998 
L 229.1976 150.118123 
L 229.8672 136.911439 
L 230.5368 134.442547 
L 231.2064 133.165246 
L 231.876 132.524082 
L 232.5456 132.183881 
L 233.8848 131.876648 
L 237.9024 131.479601 
L 247.2768 130.58825 
L 250.6248 130.486807 
L 256.6512 130.659855 
L 270.0432 131.758506 
L 288.1224 133.705287 
L 298.1664 134.94162 
L 328.2984 138.863934 
L 339.012 140.281384 
L 341.6904 140.47071 
L 343.0296 140.450411 
L 344.3688 140.183106 
L 345.0384 139.664309 
L 345.708 137.439643 
L 347.7168 119.117331 
L 348.3864 115.785602 
L 349.056 114.167826 
L 349.7256 113.795763 
L 350.3952 114.291339 
L 351.0648 115.389761 
L 351.7344 116.912436 
L 353.0736 120.79038 
L 355.0824 127.809948 
L 357.0912 134.84754 
L 358.4304 138.873345 
L 360.4392 144.009998 
L 362.448 148.420792 
L 363.1176 149.803994 
L 363.7872 137.4312 
L 364.4568 135.36945 
L 365.1264 134.458728 
L 365.796 134.134393 
L 366.4656 134.074279 
L 370.4832 134.380794 
L 372.492 134.092815 
L 379.8576 132.537266 
L 382.536 132.142118 
L 385.884 131.871111 
L 390.5712 131.752818 
L 393.9192 131.801428 
L 402.624 132.181691 
L 407.3112 132.639744 
L 425.3904 134.536522 
L 431.4168 135.231077 
L 459.54 138.808611 
L 470.2536 140.482544 
L 475.6104 141.457449 
L 479.628 142.476809 
L 485.6544 144.341193 
L 488.3328 145.4545 
L 490.3416 146.416434 
L 492.3504 147.60701 
L 494.3592 149.060722 
L 496.368 150.757428 
L 497.0376 151.364325 
L 497.7072 137.728823 
L 498.3768 135.264436 
L 499.0464 134.010082 
L 499.716 133.406882 
L 500.3856 133.111253 
L 501.7248 132.882923 
L 505.0728 132.5066 
L 508.4208 131.779517 
L 510.4296 131.398235 
L 515.1168 130.875282 
L 517.7952 130.75448 
L 520.4736 130.859503 
L 528.5088 131.426859 
L 539.892 132.507229 
L 568.6848 135.006046 
L 583.416 136.527514 
L 601.4952 138.445885 
L 604.8432 138.477977 
L 605.5128 138.401527 
L 606.1824 138.209461 
L 606.852 137.56217 
L 607.5216 134.433471 
L 608.8608 121.597354 
L 609.5304 116.906327 
L 610.2 114.199232 
L 610.8696 113.062577 
L 611.5392 113.03634 
L 612.2088 113.77124 
L 612.8784 115.029314 
L 614.2176 118.539941 
L 615.5568 122.862432 
L 618.9048 134.162878 
L 620.244 137.769489 
L 621.5832 140.807289 
L 622.9224 143.41728 
L 624.9312 146.811585 
L 627.6096 150.83233 
L 630.9576 155.442458 
L 631.6272 139.955187 
L 632.2968 137.235098 
L 632.9664 135.820133 
L 633.636 135.12275 
L 634.3056 134.769592 
L 635.6448 134.476484 
L 638.9928 133.992183 
L 642.3408 133.300592 
L 646.3584 132.443219 
L 649.7064 131.926478 
L 653.724 131.599748 
L 657.072 131.575125 
L 660.42 131.758984 
L 667.116 132.276939 
L 674.4816 132.846351 
L 695.9088 134.58506 
L 724.7016 137.958719 
L 737.424 139.793672 
L 748.8072 141.592696 
L 756.8424 143.141272 
L 758.1816 143.193494 
L 758.8512 142.999972 
L 759.5208 142.027804 
L 760.1904 137.711639 
L 761.5296 124.283721 
L 762.1992 119.644717 
L 762.8688 116.914869 
L 763.5384 115.714436 
L 764.208 115.632834 
L 764.8776 116.348185 
L 765.5472 114.75609 
L 766.2168 115.277504 
L 766.8864 116.475681 
L 768.2256 119.682979 
L 770.2344 124.824727 
L 771.5736 127.520219 
L 772.9128 129.398394 
L 774.252 130.625412 
L 775.5912 131.381564 
L 776.9304 131.802493 
L 777.6 131.925082 
L 777.6 131.925082 
" clip-path="url(#p6fc7cc8237)" style="fill: none; stroke: #4169e1; stroke-width: 1.5; stroke-linecap: square"/>
   </g>
   <g id="patch_3">
    <path d="M 108 256.32 
L 108 34.56 
" style="fill: none; stroke: #000000; stroke-width: 0.8; stroke-linejoin: miter; stroke-linecap: square"/>
   </g>
   <g id="patch_4">
    <path d="M 777.6 256.32 
L 777.6 34.56 
" style="fill: none; stroke: #000000; stroke-width: 0.8; stroke-linejoin: miter; stroke-linecap: square"/>
   </g>
   <g id="patch_5">
    <path d="M 108 256.32 
L 777.6 256.32 
" style="fill: none; stroke: #000000; stroke-width: 0.8; stroke-linejoin: miter; stroke-linecap: square"/>
   </g>
   <g id="patch_6">
    <path d="M 108 34.56 
L 777.6 34.56 
" style="fill: none; stroke: #000000; stroke-width: 0.8; stroke-linejoin: miter; stroke-linecap: square"/>
   </g>
   <g id="legend_1">
    <g id="patch_7">
     <path d="M 115 71.91625 
L 190.501563 71.91625 
Q 192.501563 71.91625 192.501563 69.91625 
L 192.501563 41.56 
Q 192.501563 39.56 190.501563 39.56 
L 115 39.56 
Q 113 39.56 113 41.56 
L 113 69.91625 
Q 113 71.91625 115 71.91625 
z
" style="fill: #ffffff; opacity: 0.8; stroke: #cccccc; stroke-linejoin: miter"/>
    </g>
    <g id="line2d_25">
     <path d="M 117 47.658437 
L 127 47.658437 
L 137 47.658437 
" style="fill: none; stroke: #000000; stroke-width: 1.5; stroke-linecap: square"/>
    </g>
    <g id="text_14">
     <!-- Soma -->
     <g transform="translate(145 51.158437) scale(0.1 -0.1)">
      <defs>
       <path id="DejaVuSans-53" d="M 3425 4513 
L 3425 3897 
Q 3066 4069 2747 4153 
Q 2428 4238 2131 4238 
Q 1616 4238 1336 4038 
Q 1056 3838 1056 3469 
Q 1056 3159 1242 3001 
Q 1428 2844 1947 2747 
L 2328 2669 
Q 3034 2534 3370 2195 
Q 3706 1856 3706 1288 
Q 3706 609 3251 259 
Q 2797 -91 1919 -91 
Q 1588 -91 1214 -16 
Q 841 59 441 206 
L 441 856 
Q 825 641 1194 531 
Q 1563 422 1919 422 
Q 2459 422 2753 634 
Q 3047 847 3047 1241 
Q 3047 1584 2836 1778 
Q 2625 1972 2144 2069 
L 1759 2144 
Q 1053 2284 737 2584 
Q 422 2884 422 3419 
Q 422 4038 858 4394 
Q 1294 4750 2059 4750 
Q 2388 4750 2728 4690 
Q 3069 4631 3425 4513 
z
" transform="scale(0.015625)"/>
       <path id="DejaVuSans-6f" d="M 1959 3097 
Q 1497 3097 1228 2736 
Q 959 2375 959 1747 
Q 959 1119 1226 758 
Q 1494 397 1959 397 
Q 2419 397 2687 759 
Q 2956 1122 2956 1747 
Q 2956 2369 2687 2733 
Q 2419 3097 1959 3097 
z
M 1959 3584 
Q 2709 3584 3137 3096 
Q 3566 2609 3566 1747 
Q 3566 888 3137 398 
Q 2709 -91 1959 -91 
Q 1206 -91 779 398 
Q 353 888 353 1747 
Q 353 2609 779 3096 
Q 1206 3584 1959 3584 
z
" transform="scale(0.015625)"/>
       <path id="DejaVuSans-61" d="M 2194 1759 
Q 1497 1759 1228 1600 
Q 959 1441 959 1056 
Q 959 750 1161 570 
Q 1363 391 1709 391 
Q 2188 391 2477 730 
Q 2766 1069 2766 1631 
L 2766 1759 
L 2194 1759 
z
M 3341 1997 
L 3341 0 
L 2766 0 
L 2766 531 
Q 2569 213 2275 61 
Q 1981 -91 1556 -91 
Q 1019 -91 701 211 
Q 384 513 384 1019 
Q 384 1609 779 1909 
Q 1175 2209 1959 2209 
L 2766 2209 
L 2766 2266 
Q 2766 2663 2505 2880 
Q 2244 3097 1772 3097 
Q 1472 3097 1187 3025 
Q 903 2953 641 2809 
L 641 3341 
Q 956 3463 1253 3523 
Q 1550 3584 1831 3584 
Q 2591 3584 2966 3190 
Q 3341 2797 3341 1997 
z
" transform="scale(0.015625)"/>
      </defs>
      <use xlink:href="#DejaVuSans-53"/>
      <use xlink:href="#DejaVuSans-6f" x="63.476562"/>
      <use xlink:href="#DejaVuSans-6d" x="124.658203"/>
      <use xlink:href="#DejaVuSans-61" x="222.070312"/>
     </g>
    </g>
    <g id="line2d_26">
     <path d="M 117 62.336562 
L 127 62.336562 
L 137 62.336562 
" style="fill: none; stroke: #4169e1; stroke-width: 1.5; stroke-linecap: square"/>
    </g>
    <g id="text_15">
     <!-- Dendrite -->
     <g transform="translate(145 65.836562) scale(0.1 -0.1)">
      <defs>
       <path id="DejaVuSans-44" d="M 1259 4147 
L 1259 519 
L 2022 519 
Q 2988 519 3436 956 
Q 3884 1394 3884 2338 
Q 3884 3275 3436 3711 
Q 2988 4147 2022 4147 
L 1259 4147 
z
M 628 4666 
L 1925 4666 
Q 3281 4666 3915 4102 
Q 4550 3538 4550 2338 
Q 4550 1131 3912 565 
Q 3275 0 1925 0 
L 628 0 
L 628 4666 
z
" transform="scale(0.015625)"/>
       <path id="DejaVuSans-6e" d="M 3513 2113 
L 3513 0 
L 2938 0 
L 2938 2094 
Q 2938 2591 2744 2837 
Q 2550 3084 2163 3084 
Q 1697 3084 1428 2787 
Q 1159 2491 1159 1978 
L 1159 0 
L 581 0 
L 581 3500 
L 1159 3500 
L 1159 2956 
Q 1366 3272 1645 3428 
Q 1925 3584 2291 3584 
Q 2894 3584 3203 3211 
Q 3513 2838 3513 2113 
z
" transform="scale(0.015625)"/>
       <path id="DejaVuSans-64" d="M 2906 2969 
L 2906 4863 
L 3481 4863 
L 3481 0 
L 2906 0 
L 2906 525 
Q 2725 213 2448 61 
Q 2172 -91 1784 -91 
Q 1150 -91 751 415 
Q 353 922 353 1747 
Q 353 2572 751 3078 
Q 1150 3584 1784 3584 
Q 2172 3584 2448 3432 
Q 2725 3281 2906 2969 
z
M 947 1747 
Q 947 1113 1208 752 
Q 1469 391 1925 391 
Q 2381 391 2643 752 
Q 2906 1113 2906 1747 
Q 2906 2381 2643 2742 
Q 2381 3103 1925 3103 
Q 1469 3103 1208 2742 
Q 947 2381 947 1747 
z
" transform="scale(0.015625)"/>
       <path id="DejaVuSans-72" d="M 2631 2963 
Q 2534 3019 2420 3045 
Q 2306 3072 2169 3072 
Q 1681 3072 1420 2755 
Q 1159 2438 1159 1844 
L 1159 0 
L 581 0 
L 581 3500 
L 1159 3500 
L 1159 2956 
Q 1341 3275 1631 3429 
Q 1922 3584 2338 3584 
Q 2397 3584 2469 3576 
Q 2541 3569 2628 3553 
L 2631 2963 
z
" transform="scale(0.015625)"/>
       <path id="DejaVuSans-74" d="M 1172 4494 
L 1172 3500 
L 2356 3500 
L 2356 3053 
L 1172 3053 
L 1172 1153 
Q 1172 725 1289 603 
Q 1406 481 1766 481 
L 2356 481 
L 2356 0 
L 1766 0 
Q 1100 0 847 248 
Q 594 497 594 1153 
L 594 3053 
L 172 3053 
L 172 3500 
L 594 3500 
L 594 4494 
L 1172 4494 
z
" transform="scale(0.015625)"/>
      </defs>
      <use xlink:href="#DejaVuSans-44"/>
      <use xlink:href="#DejaVuSans-65" x="77.001953"/>
      <use xlink:href="#DejaVuSans-6e" x="138.525391"/>
      <use xlink:href="#DejaVuSans-64" x="201.904297"/>
      <use xlink:href="#DejaVuSans-72" x="265.380859"/>
      <use xlink:href="#DejaVuSans-69" x="306.494141"/>
      <use xlink:href="#DejaVuSans-74" x="334.277344"/>
      <use xlink:href="#DejaVuSans-65" x="373.486328"/>
     </g>
    </g>
   </g>
  </g>
 </g>
 <defs>
  <clipPath id="p6fc7cc8237">
   <rect x="108" y="34.56" width="669.6" height="221.76"/>
  </clipPath>
 </defs>
</svg>
