<?xml version="1.0" encoding="utf-8" standalone="no"?>
<!DOCTYPE svg PUBLIC "-//W3C//DTD SVG 1.1//EN"
  "http://www.w3.org/Graphics/SVG/1.1/DTD/svg11.dtd">
<svg xmlns:xlink="http://www.w3.org/1999/xlink" width="864pt" height="288pt" viewBox="0 0 864 288" xmlns="http://www.w3.org/2000/svg" version="1.1">
 <metadata>
  <rdf:RDF xmlns:dc="http://purl.org/dc/elements/1.1/" xmlns:cc="http://creativecommons.org/ns#" xmlns:rdf="http://www.w3.org/1999/02/22-rdf-syntax-ns#">
   <cc:Work>
    <dc:type rdf:resource="http://purl.org/dc/dcmitype/StillImage"/>
    <dc:date>2024-04-12T18:07:24.909212</dc:date>
    <dc:format>image/svg+xml</dc:format>
    <dc:creator>
     <cc:Agent>
      <dc:title>Matplotlib v3.8.2, https://matplotlib.org/</dc:title>
     </cc:Agent>
    </dc:creator>
   </cc:Work>
  </rdf:RDF>
 </metadata>
 <defs>
  <style type="text/css">*{stroke-linejoin: round; stroke-linecap: butt}</style>
 </defs>
 <g id="figure_1">
  <g id="patch_1">
   <path d="M 0 288 
L 864 288 
L 864 0 
L 0 0 
z
" style="fill: #ffffff"/>
  </g>
  <g id="axes_1">
   <g id="patch_2">
    <path d="M 108 256.32 
L 777.6 256.32 
L 777.6 34.56 
L 108 34.56 
z
" style="fill: #ffffff"/>
   </g>
   <g id="matplotlib.axis_1">
    <g id="xtick_1">
     <g id="line2d_1">
      <path d="M 108 256.32 
L 108 34.56 
" clip-path="url(#p2079125239)" style="fill: none; stroke: #b0b0b0; stroke-width: 0.8; stroke-linecap: square"/>
     </g>
     <g id="line2d_2">
      <defs>
       <path id="ma5ce4175e7" d="M 0 0 
L 0 3.5 
" style="stroke: #000000; stroke-width: 0.8"/>
      </defs>
      <g>
       <use xlink:href="#ma5ce4175e7" x="108" y="256.32" style="stroke: #000000; stroke-width: 0.8"/>
      </g>
     </g>
     <g id="text_1">
      <!-- 100 -->
      <g transform="translate(94.63875 273.957812) scale(0.14 -0.14)">
       <defs>
        <path id="DejaVuSans-31" d="M 794 531 
L 1825 531 
L 1825 4091 
L 703 3866 
L 703 4441 
L 1819 4666 
L 2450 4666 
L 2450 531 
L 3481 531 
L 3481 0 
L 794 0 
L 794 531 
z
" transform="scale(0.015625)"/>
        <path id="DejaVuSans-30" d="M 2034 4250 
Q 1547 4250 1301 3770 
Q 1056 3291 1056 2328 
Q 1056 1369 1301 889 
Q 1547 409 2034 409 
Q 2525 409 2770 889 
Q 3016 1369 3016 2328 
Q 3016 3291 2770 3770 
Q 2525 4250 2034 4250 
z
M 2034 4750 
Q 2819 4750 3233 4129 
Q 3647 3509 3647 2328 
Q 3647 1150 3233 529 
Q 2819 -91 2034 -91 
Q 1250 -91 836 529 
Q 422 1150 422 2328 
Q 422 3509 836 4129 
Q 1250 4750 2034 4750 
z
" transform="scale(0.015625)"/>
       </defs>
       <use xlink:href="#DejaVuSans-31"/>
       <use xlink:href="#DejaVuSans-30" x="63.623047"/>
       <use xlink:href="#DejaVuSans-30" x="127.246094"/>
      </g>
     </g>
    </g>
    <g id="xtick_2">
     <g id="line2d_3">
      <path d="M 241.92 256.32 
L 241.92 34.56 
" clip-path="url(#p2079125239)" style="fill: none; stroke: #b0b0b0; stroke-width: 0.8; stroke-linecap: square"/>
     </g>
     <g id="line2d_4">
      <g>
       <use xlink:href="#ma5ce4175e7" x="241.92" y="256.32" style="stroke: #000000; stroke-width: 0.8"/>
      </g>
     </g>
     <g id="text_2">
      <!-- 120 -->
      <g transform="translate(228.55875 273.957812) scale(0.14 -0.14)">
       <defs>
        <path id="DejaVuSans-32" d="M 1228 531 
L 3431 531 
L 3431 0 
L 469 0 
L 469 531 
Q 828 903 1448 1529 
Q 2069 2156 2228 2338 
Q 2531 2678 2651 2914 
Q 2772 3150 2772 3378 
Q 2772 3750 2511 3984 
Q 2250 4219 1831 4219 
Q 1534 4219 1204 4116 
Q 875 4013 500 3803 
L 500 4441 
Q 881 4594 1212 4672 
Q 1544 4750 1819 4750 
Q 2544 4750 2975 4387 
Q 3406 4025 3406 3419 
Q 3406 3131 3298 2873 
Q 3191 2616 2906 2266 
Q 2828 2175 2409 1742 
Q 1991 1309 1228 531 
z
" transform="scale(0.015625)"/>
       </defs>
       <use xlink:href="#DejaVuSans-31"/>
       <use xlink:href="#DejaVuSans-32" x="63.623047"/>
       <use xlink:href="#DejaVuSans-30" x="127.246094"/>
      </g>
     </g>
    </g>
    <g id="xtick_3">
     <g id="line2d_5">
      <path d="M 375.84 256.32 
L 375.84 34.56 
" clip-path="url(#p2079125239)" style="fill: none; stroke: #b0b0b0; stroke-width: 0.8; stroke-linecap: square"/>
     </g>
     <g id="line2d_6">
      <g>
       <use xlink:href="#ma5ce4175e7" x="375.84" y="256.32" style="stroke: #000000; stroke-width: 0.8"/>
      </g>
     </g>
     <g id="text_3">
      <!-- 140 -->
      <g transform="translate(362.47875 273.957812) scale(0.14 -0.14)">
       <defs>
        <path id="DejaVuSans-34" d="M 2419 4116 
L 825 1625 
L 2419 1625 
L 2419 4116 
z
M 2253 4666 
L 3047 4666 
L 3047 1625 
L 3713 1625 
L 3713 1100 
L 3047 1100 
L 3047 0 
L 2419 0 
L 2419 1100 
L 313 1100 
L 313 1709 
L 2253 4666 
z
" transform="scale(0.015625)"/>
       </defs>
       <use xlink:href="#DejaVuSans-31"/>
       <use xlink:href="#DejaVuSans-34" x="63.623047"/>
       <use xlink:href="#DejaVuSans-30" x="127.246094"/>
      </g>
     </g>
    </g>
    <g id="xtick_4">
     <g id="line2d_7">
      <path d="M 509.76 256.32 
L 509.76 34.56 
" clip-path="url(#p2079125239)" style="fill: none; stroke: #b0b0b0; stroke-width: 0.8; stroke-linecap: square"/>
     </g>
     <g id="line2d_8">
      <g>
       <use xlink:href="#ma5ce4175e7" x="509.76" y="256.32" style="stroke: #000000; stroke-width: 0.8"/>
      </g>
     </g>
     <g id="text_4">
      <!-- 160 -->
      <g transform="translate(496.39875 273.957812) scale(0.14 -0.14)">
       <defs>
        <path id="DejaVuSans-36" d="M 2113 2584 
Q 1688 2584 1439 2293 
Q 1191 2003 1191 1497 
Q 1191 994 1439 701 
Q 1688 409 2113 409 
Q 2538 409 2786 701 
Q 3034 994 3034 1497 
Q 3034 2003 2786 2293 
Q 2538 2584 2113 2584 
z
M 3366 4563 
L 3366 3988 
Q 3128 4100 2886 4159 
Q 2644 4219 2406 4219 
Q 1781 4219 1451 3797 
Q 1122 3375 1075 2522 
Q 1259 2794 1537 2939 
Q 1816 3084 2150 3084 
Q 2853 3084 3261 2657 
Q 3669 2231 3669 1497 
Q 3669 778 3244 343 
Q 2819 -91 2113 -91 
Q 1303 -91 875 529 
Q 447 1150 447 2328 
Q 447 3434 972 4092 
Q 1497 4750 2381 4750 
Q 2619 4750 2861 4703 
Q 3103 4656 3366 4563 
z
" transform="scale(0.015625)"/>
       </defs>
       <use xlink:href="#DejaVuSans-31"/>
       <use xlink:href="#DejaVuSans-36" x="63.623047"/>
       <use xlink:href="#DejaVuSans-30" x="127.246094"/>
      </g>
     </g>
    </g>
    <g id="xtick_5">
     <g id="line2d_9">
      <path d="M 643.68 256.32 
L 643.68 34.56 
" clip-path="url(#p2079125239)" style="fill: none; stroke: #b0b0b0; stroke-width: 0.8; stroke-linecap: square"/>
     </g>
     <g id="line2d_10">
      <g>
       <use xlink:href="#ma5ce4175e7" x="643.68" y="256.32" style="stroke: #000000; stroke-width: 0.8"/>
      </g>
     </g>
     <g id="text_5">
      <!-- 180 -->
      <g transform="translate(630.31875 273.957812) scale(0.14 -0.14)">
       <defs>
        <path id="DejaVuSans-38" d="M 2034 2216 
Q 1584 2216 1326 1975 
Q 1069 1734 1069 1313 
Q 1069 891 1326 650 
Q 1584 409 2034 409 
Q 2484 409 2743 651 
Q 3003 894 3003 1313 
Q 3003 1734 2745 1975 
Q 2488 2216 2034 2216 
z
M 1403 2484 
Q 997 2584 770 2862 
Q 544 3141 544 3541 
Q 544 4100 942 4425 
Q 1341 4750 2034 4750 
Q 2731 4750 3128 4425 
Q 3525 4100 3525 3541 
Q 3525 3141 3298 2862 
Q 3072 2584 2669 2484 
Q 3125 2378 3379 2068 
Q 3634 1759 3634 1313 
Q 3634 634 3220 271 
Q 2806 -91 2034 -91 
Q 1263 -91 848 271 
Q 434 634 434 1313 
Q 434 1759 690 2068 
Q 947 2378 1403 2484 
z
M 1172 3481 
Q 1172 3119 1398 2916 
Q 1625 2713 2034 2713 
Q 2441 2713 2670 2916 
Q 2900 3119 2900 3481 
Q 2900 3844 2670 4047 
Q 2441 4250 2034 4250 
Q 1625 4250 1398 4047 
Q 1172 3844 1172 3481 
z
" transform="scale(0.015625)"/>
       </defs>
       <use xlink:href="#DejaVuSans-31"/>
       <use xlink:href="#DejaVuSans-38" x="63.623047"/>
       <use xlink:href="#DejaVuSans-30" x="127.246094"/>
      </g>
     </g>
    </g>
    <g id="xtick_6">
     <g id="line2d_11">
      <path d="M 777.6 256.32 
L 777.6 34.56 
" clip-path="url(#p2079125239)" style="fill: none; stroke: #b0b0b0; stroke-width: 0.8; stroke-linecap: square"/>
     </g>
     <g id="line2d_12">
      <g>
       <use xlink:href="#ma5ce4175e7" x="777.6" y="256.32" style="stroke: #000000; stroke-width: 0.8"/>
      </g>
     </g>
     <g id="text_6">
      <!-- 200 -->
      <g transform="translate(764.23875 273.957812) scale(0.14 -0.14)">
       <use xlink:href="#DejaVuSans-32"/>
       <use xlink:href="#DejaVuSans-30" x="63.623047"/>
       <use xlink:href="#DejaVuSans-30" x="127.246094"/>
      </g>
     </g>
    </g>
    <g id="text_7">
     <!-- Time (ms) -->
     <g transform="translate(407.521094 291.507187) scale(0.14 -0.14)">
      <defs>
       <path id="DejaVuSans-54" d="M -19 4666 
L 3928 4666 
L 3928 4134 
L 2272 4134 
L 2272 0 
L 1638 0 
L 1638 4134 
L -19 4134 
L -19 4666 
z
" transform="scale(0.015625)"/>
       <path id="DejaVuSans-69" d="M 603 3500 
L 1178 3500 
L 1178 0 
L 603 0 
L 603 3500 
z
M 603 4863 
L 1178 4863 
L 1178 4134 
L 603 4134 
L 603 4863 
z
" transform="scale(0.015625)"/>
       <path id="DejaVuSans-6d" d="M 3328 2828 
Q 3544 3216 3844 3400 
Q 4144 3584 4550 3584 
Q 5097 3584 5394 3201 
Q 5691 2819 5691 2113 
L 5691 0 
L 5113 0 
L 5113 2094 
Q 5113 2597 4934 2840 
Q 4756 3084 4391 3084 
Q 3944 3084 3684 2787 
Q 3425 2491 3425 1978 
L 3425 0 
L 2847 0 
L 2847 2094 
Q 2847 2600 2669 2842 
Q 2491 3084 2119 3084 
Q 1678 3084 1418 2786 
Q 1159 2488 1159 1978 
L 1159 0 
L 581 0 
L 581 3500 
L 1159 3500 
L 1159 2956 
Q 1356 3278 1631 3431 
Q 1906 3584 2284 3584 
Q 2666 3584 2933 3390 
Q 3200 3197 3328 2828 
z
" transform="scale(0.015625)"/>
       <path id="DejaVuSans-65" d="M 3597 1894 
L 3597 1613 
L 953 1613 
Q 991 1019 1311 708 
Q 1631 397 2203 397 
Q 2534 397 2845 478 
Q 3156 559 3463 722 
L 3463 178 
Q 3153 47 2828 -22 
Q 2503 -91 2169 -91 
Q 1331 -91 842 396 
Q 353 884 353 1716 
Q 353 2575 817 3079 
Q 1281 3584 2069 3584 
Q 2775 3584 3186 3129 
Q 3597 2675 3597 1894 
z
M 3022 2063 
Q 3016 2534 2758 2815 
Q 2500 3097 2075 3097 
Q 1594 3097 1305 2825 
Q 1016 2553 972 2059 
L 3022 2063 
z
" transform="scale(0.015625)"/>
       <path id="DejaVuSans-20" transform="scale(0.015625)"/>
       <path id="DejaVuSans-28" d="M 1984 4856 
Q 1566 4138 1362 3434 
Q 1159 2731 1159 2009 
Q 1159 1288 1364 580 
Q 1569 -128 1984 -844 
L 1484 -844 
Q 1016 -109 783 600 
Q 550 1309 550 2009 
Q 550 2706 781 3412 
Q 1013 4119 1484 4856 
L 1984 4856 
z
" transform="scale(0.015625)"/>
       <path id="DejaVuSans-73" d="M 2834 3397 
L 2834 2853 
Q 2591 2978 2328 3040 
Q 2066 3103 1784 3103 
Q 1356 3103 1142 2972 
Q 928 2841 928 2578 
Q 928 2378 1081 2264 
Q 1234 2150 1697 2047 
L 1894 2003 
Q 2506 1872 2764 1633 
Q 3022 1394 3022 966 
Q 3022 478 2636 193 
Q 2250 -91 1575 -91 
Q 1294 -91 989 -36 
Q 684 19 347 128 
L 347 722 
Q 666 556 975 473 
Q 1284 391 1588 391 
Q 1994 391 2212 530 
Q 2431 669 2431 922 
Q 2431 1156 2273 1281 
Q 2116 1406 1581 1522 
L 1381 1569 
Q 847 1681 609 1914 
Q 372 2147 372 2553 
Q 372 3047 722 3315 
Q 1072 3584 1716 3584 
Q 2034 3584 2315 3537 
Q 2597 3491 2834 3397 
z
" transform="scale(0.015625)"/>
       <path id="DejaVuSans-29" d="M 513 4856 
L 1013 4856 
Q 1481 4119 1714 3412 
Q 1947 2706 1947 2009 
Q 1947 1309 1714 600 
Q 1481 -109 1013 -844 
L 513 -844 
Q 928 -128 1133 580 
Q 1338 1288 1338 2009 
Q 1338 2731 1133 3434 
Q 928 4138 513 4856 
z
" transform="scale(0.015625)"/>
      </defs>
      <use xlink:href="#DejaVuSans-54"/>
      <use xlink:href="#DejaVuSans-69" x="57.958984"/>
      <use xlink:href="#DejaVuSans-6d" x="85.742188"/>
      <use xlink:href="#DejaVuSans-65" x="183.154297"/>
      <use xlink:href="#DejaVuSans-20" x="244.677734"/>
      <use xlink:href="#DejaVuSans-28" x="276.464844"/>
      <use xlink:href="#DejaVuSans-6d" x="315.478516"/>
      <use xlink:href="#DejaVuSans-73" x="412.890625"/>
      <use xlink:href="#DejaVuSans-29" x="464.990234"/>
     </g>
    </g>
   </g>
   <g id="matplotlib.axis_2">
    <g id="ytick_1">
     <g id="line2d_13">
      <path d="M 108 224.919285 
L 777.6 224.919285 
" clip-path="url(#p2079125239)" style="fill: none; stroke: #b0b0b0; stroke-width: 0.8; stroke-linecap: square"/>
     </g>
     <g id="line2d_14">
      <defs>
       <path id="m85dca31b2e" d="M 0 0 
L -3.5 0 
" style="stroke: #000000; stroke-width: 0.8"/>
      </defs>
      <g>
       <use xlink:href="#m85dca31b2e" x="108" y="224.919285" style="stroke: #000000; stroke-width: 0.8"/>
      </g>
     </g>
     <g id="text_8">
      <!-- −60 -->
      <g transform="translate(71.453437 230.238191) scale(0.14 -0.14)">
       <defs>
        <path id="DejaVuSans-2212" d="M 678 2272 
L 4684 2272 
L 4684 1741 
L 678 1741 
L 678 2272 
z
" transform="scale(0.015625)"/>
       </defs>
       <use xlink:href="#DejaVuSans-2212"/>
       <use xlink:href="#DejaVuSans-36" x="83.789062"/>
       <use xlink:href="#DejaVuSans-30" x="147.412109"/>
      </g>
     </g>
    </g>
    <g id="ytick_2">
     <g id="line2d_15">
      <path d="M 108 182.3458 
L 777.6 182.3458 
" clip-path="url(#p2079125239)" style="fill: none; stroke: #b0b0b0; stroke-width: 0.8; stroke-linecap: square"/>
     </g>
     <g id="line2d_16">
      <g>
       <use xlink:href="#m85dca31b2e" x="108" y="182.3458" style="stroke: #000000; stroke-width: 0.8"/>
      </g>
     </g>
     <g id="text_9">
      <!-- −40 -->
      <g transform="translate(71.453437 187.664706) scale(0.14 -0.14)">
       <use xlink:href="#DejaVuSans-2212"/>
       <use xlink:href="#DejaVuSans-34" x="83.789062"/>
       <use xlink:href="#DejaVuSans-30" x="147.412109"/>
      </g>
     </g>
    </g>
    <g id="ytick_3">
     <g id="line2d_17">
      <path d="M 108 139.772314 
L 777.6 139.772314 
" clip-path="url(#p2079125239)" style="fill: none; stroke: #b0b0b0; stroke-width: 0.8; stroke-linecap: square"/>
     </g>
     <g id="line2d_18">
      <g>
       <use xlink:href="#m85dca31b2e" x="108" y="139.772314" style="stroke: #000000; stroke-width: 0.8"/>
      </g>
     </g>
     <g id="text_10">
      <!-- −20 -->
      <g transform="translate(71.453437 145.091221) scale(0.14 -0.14)">
       <use xlink:href="#DejaVuSans-2212"/>
       <use xlink:href="#DejaVuSans-32" x="83.789062"/>
       <use xlink:href="#DejaVuSans-30" x="147.412109"/>
      </g>
     </g>
    </g>
    <g id="ytick_4">
     <g id="line2d_19">
      <path d="M 108 97.198829 
L 777.6 97.198829 
" clip-path="url(#p2079125239)" style="fill: none; stroke: #b0b0b0; stroke-width: 0.8; stroke-linecap: square"/>
     </g>
     <g id="line2d_20">
      <g>
       <use xlink:href="#m85dca31b2e" x="108" y="97.198829" style="stroke: #000000; stroke-width: 0.8"/>
      </g>
     </g>
     <g id="text_11">
      <!-- 0 -->
      <g transform="translate(92.0925 102.517736) scale(0.14 -0.14)">
       <use xlink:href="#DejaVuSans-30"/>
      </g>
     </g>
    </g>
    <g id="ytick_5">
     <g id="line2d_21">
      <path d="M 108 54.625344 
L 777.6 54.625344 
" clip-path="url(#p2079125239)" style="fill: none; stroke: #b0b0b0; stroke-width: 0.8; stroke-linecap: square"/>
     </g>
     <g id="line2d_22">
      <g>
       <use xlink:href="#m85dca31b2e" x="108" y="54.625344" style="stroke: #000000; stroke-width: 0.8"/>
      </g>
     </g>
     <g id="text_12">
      <!-- 20 -->
      <g transform="translate(83.185 59.94425) scale(0.14 -0.14)">
       <use xlink:href="#DejaVuSans-32"/>
       <use xlink:href="#DejaVuSans-30" x="63.623047"/>
      </g>
     </g>
    </g>
    <g id="text_13">
     <!-- $V_{m}$ (mV) -->
     <g transform="translate(64.541875 174.49) rotate(-90) scale(0.14 -0.14)">
      <defs>
       <path id="DejaVuSans-Oblique-56" d="M 1319 0 
L 500 4666 
L 1119 4666 
L 1797 653 
L 4063 4666 
L 4750 4666 
L 2053 0 
L 1319 0 
z
" transform="scale(0.015625)"/>
       <path id="DejaVuSans-Oblique-6d" d="M 5747 2113 
L 5338 0 
L 4763 0 
L 5166 2094 
Q 5191 2228 5203 2325 
Q 5216 2422 5216 2491 
Q 5216 2772 5059 2928 
Q 4903 3084 4622 3084 
Q 4203 3084 3875 2770 
Q 3547 2456 3450 1953 
L 3066 0 
L 2491 0 
L 2900 2094 
Q 2925 2209 2937 2307 
Q 2950 2406 2950 2484 
Q 2950 2769 2794 2926 
Q 2638 3084 2363 3084 
Q 1938 3084 1609 2770 
Q 1281 2456 1184 1953 
L 800 0 
L 225 0 
L 909 3500 
L 1484 3500 
L 1375 2956 
Q 1609 3263 1923 3423 
Q 2238 3584 2597 3584 
Q 2978 3584 3223 3384 
Q 3469 3184 3519 2828 
Q 3781 3197 4126 3390 
Q 4472 3584 4856 3584 
Q 5306 3584 5551 3325 
Q 5797 3066 5797 2591 
Q 5797 2488 5784 2364 
Q 5772 2241 5747 2113 
z
" transform="scale(0.015625)"/>
       <path id="DejaVuSans-56" d="M 1831 0 
L 50 4666 
L 709 4666 
L 2188 738 
L 3669 4666 
L 4325 4666 
L 2547 0 
L 1831 0 
z
" transform="scale(0.015625)"/>
      </defs>
      <use xlink:href="#DejaVuSans-Oblique-56" transform="translate(0 0.125)"/>
      <use xlink:href="#DejaVuSans-Oblique-6d" transform="translate(68.408203 -16.28125) scale(0.7)"/>
      <use xlink:href="#DejaVuSans-20" transform="translate(139.331055 0.125)"/>
      <use xlink:href="#DejaVuSans-28" transform="translate(171.118164 0.125)"/>
      <use xlink:href="#DejaVuSans-6d" transform="translate(210.131836 0.125)"/>
      <use xlink:href="#DejaVuSans-56" transform="translate(307.543945 0.125)"/>
      <use xlink:href="#DejaVuSans-29" transform="translate(375.952148 0.125)"/>
     </g>
    </g>
   </g>
   <g id="line2d_23">
    <path d="M 108 214.642461 
L 110.0088 214.538173 
L 111.348 214.381542 
L 112.6872 214.474588 
L 114.696 214.474092 
L 116.0352 214.66598 
L 118.044 215.412111 
L 119.3832 216.122392 
L 120.0528 216.299192 
L 121.392 217.027566 
L 122.7312 217.623431 
L 124.0704 217.907466 
L 126.0792 218.098457 
L 128.7576 218.13441 
L 132.1056 217.964784 
L 134.784 217.854634 
L 136.1232 218.043703 
L 137.4624 218.702267 
L 140.8104 219.351986 
L 142.8192 219.430568 
L 143.4888 219.425844 
L 144.828 219.648768 
L 146.8368 219.699234 
L 148.176 219.656866 
L 149.5152 219.808885 
L 150.8544 219.676063 
L 155.5416 218.795327 
L 160.8984 217.604371 
L 166.9248 216.022189 
L 174.96 213.657355 
L 191.7 208.40799 
L 198.396 206.298754 
L 200.4048 206.120287 
L 203.7528 205.394972 
L 205.7616 204.88925 
L 207.7704 204.825798 
L 208.44 204.738822 
L 210.4488 204.875327 
L 212.4576 204.715283 
L 215.8056 204.184668 
L 219.8232 203.315159 
L 223.8408 202.236515 
L 226.5192 201.452995 
L 227.1888 201.385831 
L 229.8672 202.351303 
L 231.876 202.686049 
L 232.5456 202.74306 
L 234.5544 203.47753 
L 235.8936 204.495398 
L 237.2328 205.642182 
L 238.572 206.620789 
L 239.9112 207.686426 
L 241.2504 209.082308 
L 242.5896 209.83472 
L 243.9288 210.295623 
L 244.5984 210.462891 
L 245.9376 211.016044 
L 246.6072 211.195217 
L 247.9464 211.896824 
L 251.964 213.724322 
L 253.9728 214.106278 
L 255.9816 215.179286 
L 257.3208 215.649827 
L 259.3296 215.99808 
L 261.3384 216.317067 
L 262.6776 216.572225 
L 266.0256 217.004108 
L 267.3648 217.389926 
L 269.3736 217.589947 
L 271.3824 217.766663 
L 272.7216 217.937334 
L 275.4 217.952516 
L 279.4176 217.701484 
L 282.7656 217.493312 
L 284.1048 217.432553 
L 287.4528 216.744288 
L 291.4704 215.827342 
L 293.4792 215.706133 
L 296.8272 215.056055 
L 302.184 213.743944 
L 309.5496 211.694591 
L 320.2632 208.445626 
L 328.968 205.584156 
L 332.9856 204.09597 
L 336.3336 202.610113 
L 338.3424 201.464389 
L 339.6816 200.455759 
L 340.3512 199.845105 
L 341.0208 199.043202 
L 341.6904 197.947337 
L 342.36 196.288089 
L 343.0296 192.877492 
L 343.6992 179.710189 
L 344.3688 105.436316 
L 345.0384 50.406417 
L 347.0472 102.966474 
L 348.3864 126.697025 
L 350.3952 158.071876 
L 352.404 185.2977 
L 353.0736 192.829903 
L 353.7432 198.588221 
L 354.4128 202.527535 
L 355.0824 205.480698 
L 355.752 207.590609 
L 357.0912 210.379765 
L 358.4304 212.241874 
L 359.1 213.057473 
L 359.7696 213.659868 
L 361.1088 214.382104 
L 361.7784 214.591759 
L 363.1176 215.337179 
L 364.4568 215.855108 
L 367.1352 216.190691 
L 368.4744 216.285187 
L 369.8136 216.305159 
L 371.8224 216.033606 
L 372.492 215.906613 
L 373.8312 216.1758 
L 375.1704 216.948136 
L 376.5096 217.163712 
L 378.5184 217.137049 
L 379.188 217.086599 
L 379.8576 217.169605 
L 382.536 217.868073 
L 383.8752 218.164552 
L 385.2144 218.382717 
L 388.5624 218.942608 
L 391.2408 219.032256 
L 392.58 219.397298 
L 394.5888 219.496531 
L 397.2672 219.37537 
L 398.6064 219.259075 
L 401.9544 219.557197 
L 403.9632 219.665318 
L 405.3024 219.899646 
L 406.6416 220.053501 
L 408.6504 220.169631 
L 409.9896 220.282084 
L 412.668 220.19092 
L 416.6856 219.804992 
L 418.6944 219.346711 
L 426.7296 217.078012 
L 428.7384 216.854194 
L 432.0864 216.056986 
L 438.1128 214.360152 
L 448.8264 211.064166 
L 472.2624 203.599075 
L 472.932 203.362149 
L 475.6104 203.033599 
L 476.9496 202.74141 
L 478.9584 202.754171 
L 480.9672 202.509499 
L 484.3152 201.945892 
L 484.9848 201.962368 
L 486.9936 202.38117 
L 489.0024 202.502646 
L 494.3592 205.47666 
L 495.6984 206.393099 
L 499.0464 207.724403 
L 503.7336 208.696604 
L 504.4032 208.754822 
L 505.7424 209.133756 
L 508.4208 209.539725 
L 511.0992 211.50013 
L 512.4384 211.961019 
L 514.4472 212.482772 
L 515.1168 212.69247 
L 516.456 213.514051 
L 517.1256 213.75279 
L 519.804 215.711417 
L 521.1432 216.208015 
L 523.8216 216.890065 
L 525.8304 217.829778 
L 528.5088 218.842338 
L 530.5176 219.313921 
L 531.8568 219.629319 
L 533.8656 219.844461 
L 537.2136 219.929422 
L 541.2312 219.755693 
L 545.9184 219.294102 
L 550.6056 218.637366 
L 552.6144 218.116258 
L 580.068 209.435092 
L 590.7816 205.731634 
L 595.4688 203.903861 
L 598.8168 202.316811 
L 600.156 201.502081 
L 601.4952 200.482687 
L 602.8344 199.258676 
L 603.504 198.459675 
L 604.1736 197.291931 
L 604.8432 195.171292 
L 605.5128 189.177792 
L 606.1824 160.390715 
L 606.852 63.233613 
L 607.5216 61.060584 
L 608.1912 81.452358 
L 608.8608 96.646812 
L 610.2 120.74418 
L 612.2088 152.613892 
L 614.2176 180.695112 
L 614.8872 189.089878 
L 615.5568 195.987559 
L 616.2264 200.930261 
L 616.896 204.228161 
L 617.5656 206.491677 
L 618.2352 208.130199 
L 618.9048 209.360862 
L 619.5744 210.301753 
L 620.244 211.023718 
L 621.5832 211.984193 
L 623.592 212.754633 
L 624.9312 213.009774 
L 627.6096 213.515414 
L 628.9488 213.358165 
L 629.6184 213.226097 
L 630.288 213.224569 
L 631.6272 213.648378 
L 632.9664 213.609627 
L 633.636 213.516122 
L 634.9752 213.549134 
L 635.6448 213.479168 
L 636.984 213.541524 
L 637.6536 213.485147 
L 639.6624 214.562697 
L 643.0104 215.277129 
L 644.3496 215.739439 
L 645.6888 216.033836 
L 647.028 216.259206 
L 647.6976 216.297512 
L 649.0368 216.730465 
L 650.376 217.016322 
L 651.0456 217.073108 
L 652.3848 217.384871 
L 653.724 217.63743 
L 655.7328 218.37399 
L 658.4112 219.207344 
L 660.42 220.24249 
L 661.7592 220.558003 
L 663.768 220.785905 
L 666.4464 220.865499 
L 668.4552 220.953291 
L 669.7944 221.069649 
L 672.4728 221.001673 
L 676.4904 220.645811 
L 681.1776 220.009555 
L 685.1952 219.299954 
L 688.5432 218.209992 
L 693.9 216.498591 
L 695.9088 216.22332 
L 699.2568 215.353002 
L 705.9528 213.3485 
L 726.0408 206.977271 
L 736.7544 203.432047 
L 740.772 201.872192 
L 743.4504 200.708584 
L 744.7896 200.324687 
L 746.1288 199.757862 
L 748.8072 198.155142 
L 749.4768 197.606055 
L 750.1464 196.776006 
L 750.816 195.430525 
L 751.4856 192.727742 
L 752.1552 183.069932 
L 752.8248 136.057555 
L 753.4944 69.977639 
L 754.164 70.610309 
L 755.5032 99.257378 
L 757.512 134.141755 
L 759.5208 164.799483 
L 761.5296 191.734763 
L 762.1992 198.557125 
L 762.8688 203.434688 
L 763.5384 206.641602 
L 764.208 208.820714 
L 764.8776 210.398512 
L 766.2168 212.638655 
L 766.8864 213.454686 
L 767.556 214.056591 
L 770.2344 215.75124 
L 771.5736 216.11355 
L 773.5824 216.637848 
L 774.9216 216.760363 
L 777.6 216.576178 
L 777.6 216.576178 
" clip-path="url(#p2079125239)" style="fill: none; stroke: #000000; stroke-width: 1.5; stroke-linecap: square"/>
   </g>
   <g id="line2d_24">
    <path d="M 108 139.594593 
L 113.3568 141.349762 
L 116.7048 142.511031 
L 118.7136 143.39333 
L 121.392 144.835851 
L 125.4096 147.384994 
L 134.1144 153.108165 
L 136.1232 154.601737 
L 138.132 156.409244 
L 140.1408 158.539383 
L 142.8192 161.792071 
L 144.828 164.502144 
L 147.5064 168.535947 
L 148.8456 170.684132 
L 149.5152 147.470525 
L 150.1848 142.495763 
L 150.8544 139.850436 
L 151.524 138.382345 
L 152.1936 137.494052 
L 152.8632 136.915052 
L 154.2024 136.181945 
L 162.2376 132.930759 
L 165.5856 131.827706 
L 168.9336 131.005091 
L 172.2816 130.414137 
L 176.2992 129.931714 
L 180.9864 129.590003 
L 187.0128 129.387299 
L 194.3784 129.379037 
L 201.0744 129.578863 
L 209.1096 130.162192 
L 224.5104 131.825755 
L 228.528 132.230408 
L 231.876 132.951184 
L 235.224 133.799902 
L 237.2328 134.512825 
L 240.5808 136.000009 
L 246.6072 138.938082 
L 249.9552 140.548244 
L 255.9816 143.773865 
L 262.008 147.450214 
L 266.0256 150.10949 
L 268.704 152.15173 
L 272.052 155.000653 
L 274.7304 157.593623 
L 277.4088 160.446539 
L 280.0872 163.56704 
L 282.7656 166.957304 
L 283.4352 145.316929 
L 284.1048 140.978219 
L 284.7744 138.615029 
L 285.444 137.305225 
L 286.1136 136.516104 
L 286.7832 136.002388 
L 288.1224 135.344658 
L 296.8272 132.081789 
L 300.1752 131.102451 
L 303.5232 130.37182 
L 307.5408 129.763517 
L 312.228 129.319755 
L 317.5848 129.048474 
L 324.2808 128.934108 
L 341.6904 128.806498 
L 343.0296 128.479274 
L 343.6992 127.886427 
L 344.3688 125.136437 
L 345.708 114.776396 
L 346.3776 111.212622 
L 347.0472 109.341603 
L 347.7168 108.767616 
L 348.3864 109.078822 
L 349.056 109.973418 
L 349.7256 111.251152 
L 351.0648 114.477709 
L 355.0824 125.339898 
L 356.4216 128.066025 
L 357.7608 130.164864 
L 359.1 131.801258 
L 360.4392 133.117838 
L 361.7784 134.183232 
L 363.7872 135.485672 
L 365.796 136.565714 
L 368.4744 137.732823 
L 371.8224 138.930082 
L 375.1704 140.03532 
L 384.5448 143.862137 
L 388.5624 145.868025 
L 393.2496 148.425307 
L 398.6064 151.803247 
L 401.2848 153.687899 
L 403.9632 155.87995 
L 405.972 157.777776 
L 408.6504 160.705152 
L 410.6592 163.21001 
L 413.3376 166.921819 
L 416.6856 171.981031 
L 417.3552 148.157912 
L 418.0248 142.911764 
L 418.6944 140.120333 
L 419.364 138.550844 
L 420.0336 137.583395 
L 420.7032 136.939097 
L 422.0424 136.102725 
L 425.3904 134.596573 
L 429.408 132.904593 
L 432.756 131.779017 
L 436.104 130.922122 
L 439.452 130.299575 
L 443.4696 129.787353 
L 448.1568 129.420004 
L 454.1832 129.194446 
L 461.5488 129.167182 
L 471.5928 129.394367 
L 476.28 129.629229 
L 480.9672 130.078275 
L 487.6632 130.887055 
L 491.0112 131.543355 
L 493.6896 132.299038 
L 498.3768 133.894396 
L 503.064 135.391014 
L 509.76 137.500672 
L 513.108 138.967143 
L 517.7952 141.123302 
L 520.4736 142.677049 
L 527.1696 146.884363 
L 531.1872 149.887136 
L 535.2048 153.223262 
L 538.5528 156.261644 
L 541.2312 158.934641 
L 543.9096 161.879293 
L 546.588 165.125273 
L 549.936 169.568008 
L 550.6056 170.493393 
L 551.2752 147.252479 
L 551.9448 142.27244 
L 552.6144 139.588759 
L 553.284 138.07602 
L 553.9536 137.141561 
L 554.6232 136.517012 
L 555.9624 135.700106 
L 559.98 133.910755 
L 563.9976 132.219448 
L 566.676 131.293413 
L 570.024 130.399965 
L 573.372 129.752703 
L 577.3896 129.216703 
L 582.0768 128.823824 
L 588.1032 128.558162 
L 598.1472 128.394377 
L 602.8344 128.202594 
L 604.8432 127.911725 
L 605.5128 127.603618 
L 606.1824 126.474422 
L 606.852 122.39608 
L 607.5216 117.085441 
L 608.1912 112.771896 
L 608.8608 110.122887 
L 609.5304 108.927507 
L 610.2 108.782862 
L 610.8696 109.349738 
L 611.5392 110.390454 
L 612.8784 113.310756 
L 614.8872 118.66818 
L 616.896 124.004611 
L 618.2352 126.807126 
L 619.5744 128.91957 
L 620.9136 130.500729 
L 622.2528 131.703962 
L 623.592 132.641883 
L 625.6008 133.735397 
L 628.2792 134.866202 
L 631.6272 135.912972 
L 635.6448 137.048162 
L 639.6624 138.197554 
L 645.0192 140.195173 
L 651.0456 142.714914 
L 655.0632 144.627495 
L 658.4112 146.527737 
L 660.42 147.874736 
L 665.1072 151.421643 
L 669.1248 154.700147 
L 671.8032 157.207403 
L 674.4816 159.98686 
L 677.16 163.066852 
L 679.8384 166.468132 
L 683.1864 171.102899 
L 684.5256 173.022993 
L 685.1952 148.709033 
L 685.8648 143.221442 
L 686.5344 140.306352 
L 687.204 138.653507 
L 687.8736 137.622917 
L 688.5432 136.928161 
L 689.8824 136.015801 
L 692.5608 134.715323 
L 696.5784 132.944295 
L 699.9264 131.744371 
L 703.2744 130.822773 
L 706.6224 130.149886 
L 710.64 129.593162 
L 715.3272 129.188577 
L 720.684 128.946907 
L 727.38 128.8661 
L 736.7544 128.993889 
L 749.4768 129.183218 
L 750.816 129.091178 
L 751.4856 128.948089 
L 752.1552 128.516897 
L 752.8248 126.673898 
L 754.8336 113.385328 
L 755.5032 110.943226 
L 756.1728 109.841624 
L 756.8424 109.744874 
L 757.512 110.355008 
L 758.1816 111.448853 
L 759.5208 114.511467 
L 761.5296 120.174547 
L 763.5384 125.887336 
L 764.8776 128.935287 
L 766.2168 131.28098 
L 767.556 133.099012 
L 768.8952 134.532932 
L 770.904 136.234534 
L 772.9128 137.579537 
L 775.5912 139.032915 
L 777.6 139.914026 
L 777.6 139.914026 
" clip-path="url(#p2079125239)" style="fill: none; stroke: #4169e1; stroke-width: 1.5; stroke-linecap: square"/>
   </g>
   <g id="patch_3">
    <path d="M 108 256.32 
L 108 34.56 
" style="fill: none; stroke: #000000; stroke-width: 0.8; stroke-linejoin: miter; stroke-linecap: square"/>
   </g>
   <g id="patch_4">
    <path d="M 777.6 256.32 
L 777.6 34.56 
" style="fill: none; stroke: #000000; stroke-width: 0.8; stroke-linejoin: miter; stroke-linecap: square"/>
   </g>
   <g id="patch_5">
    <path d="M 108 256.32 
L 777.6 256.32 
" style="fill: none; stroke: #000000; stroke-width: 0.8; stroke-linejoin: miter; stroke-linecap: square"/>
   </g>
   <g id="patch_6">
    <path d="M 108 34.56 
L 777.6 34.56 
" style="fill: none; stroke: #000000; stroke-width: 0.8; stroke-linejoin: miter; stroke-linecap: square"/>
   </g>
   <g id="legend_1">
    <g id="patch_7">
     <path d="M 115 71.91625 
L 190.501563 71.91625 
Q 192.501563 71.91625 192.501563 69.91625 
L 192.501563 41.56 
Q 192.501563 39.56 190.501563 39.56 
L 115 39.56 
Q 113 39.56 113 41.56 
L 113 69.91625 
Q 113 71.91625 115 71.91625 
z
" style="fill: #ffffff; opacity: 0.8; stroke: #cccccc; stroke-linejoin: miter"/>
    </g>
    <g id="line2d_25">
     <path d="M 117 47.658437 
L 127 47.658437 
L 137 47.658437 
" style="fill: none; stroke: #000000; stroke-width: 1.5; stroke-linecap: square"/>
    </g>
    <g id="text_14">
     <!-- Soma -->
     <g transform="translate(145 51.158437) scale(0.1 -0.1)">
      <defs>
       <path id="DejaVuSans-53" d="M 3425 4513 
L 3425 3897 
Q 3066 4069 2747 4153 
Q 2428 4238 2131 4238 
Q 1616 4238 1336 4038 
Q 1056 3838 1056 3469 
Q 1056 3159 1242 3001 
Q 1428 2844 1947 2747 
L 2328 2669 
Q 3034 2534 3370 2195 
Q 3706 1856 3706 1288 
Q 3706 609 3251 259 
Q 2797 -91 1919 -91 
Q 1588 -91 1214 -16 
Q 841 59 441 206 
L 441 856 
Q 825 641 1194 531 
Q 1563 422 1919 422 
Q 2459 422 2753 634 
Q 3047 847 3047 1241 
Q 3047 1584 2836 1778 
Q 2625 1972 2144 2069 
L 1759 2144 
Q 1053 2284 737 2584 
Q 422 2884 422 3419 
Q 422 4038 858 4394 
Q 1294 4750 2059 4750 
Q 2388 4750 2728 4690 
Q 3069 4631 3425 4513 
z
" transform="scale(0.015625)"/>
       <path id="DejaVuSans-6f" d="M 1959 3097 
Q 1497 3097 1228 2736 
Q 959 2375 959 1747 
Q 959 1119 1226 758 
Q 1494 397 1959 397 
Q 2419 397 2687 759 
Q 2956 1122 2956 1747 
Q 2956 2369 2687 2733 
Q 2419 3097 1959 3097 
z
M 1959 3584 
Q 2709 3584 3137 3096 
Q 3566 2609 3566 1747 
Q 3566 888 3137 398 
Q 2709 -91 1959 -91 
Q 1206 -91 779 398 
Q 353 888 353 1747 
Q 353 2609 779 3096 
Q 1206 3584 1959 3584 
z
" transform="scale(0.015625)"/>
       <path id="DejaVuSans-61" d="M 2194 1759 
Q 1497 1759 1228 1600 
Q 959 1441 959 1056 
Q 959 750 1161 570 
Q 1363 391 1709 391 
Q 2188 391 2477 730 
Q 2766 1069 2766 1631 
L 2766 1759 
L 2194 1759 
z
M 3341 1997 
L 3341 0 
L 2766 0 
L 2766 531 
Q 2569 213 2275 61 
Q 1981 -91 1556 -91 
Q 1019 -91 701 211 
Q 384 513 384 1019 
Q 384 1609 779 1909 
Q 1175 2209 1959 2209 
L 2766 2209 
L 2766 2266 
Q 2766 2663 2505 2880 
Q 2244 3097 1772 3097 
Q 1472 3097 1187 3025 
Q 903 2953 641 2809 
L 641 3341 
Q 956 3463 1253 3523 
Q 1550 3584 1831 3584 
Q 2591 3584 2966 3190 
Q 3341 2797 3341 1997 
z
" transform="scale(0.015625)"/>
      </defs>
      <use xlink:href="#DejaVuSans-53"/>
      <use xlink:href="#DejaVuSans-6f" x="63.476562"/>
      <use xlink:href="#DejaVuSans-6d" x="124.658203"/>
      <use xlink:href="#DejaVuSans-61" x="222.070312"/>
     </g>
    </g>
    <g id="line2d_26">
     <path d="M 117 62.336562 
L 127 62.336562 
L 137 62.336562 
" style="fill: none; stroke: #4169e1; stroke-width: 1.5; stroke-linecap: square"/>
    </g>
    <g id="text_15">
     <!-- Dendrite -->
     <g transform="translate(145 65.836562) scale(0.1 -0.1)">
      <defs>
       <path id="DejaVuSans-44" d="M 1259 4147 
L 1259 519 
L 2022 519 
Q 2988 519 3436 956 
Q 3884 1394 3884 2338 
Q 3884 3275 3436 3711 
Q 2988 4147 2022 4147 
L 1259 4147 
z
M 628 4666 
L 1925 4666 
Q 3281 4666 3915 4102 
Q 4550 3538 4550 2338 
Q 4550 1131 3912 565 
Q 3275 0 1925 0 
L 628 0 
L 628 4666 
z
" transform="scale(0.015625)"/>
       <path id="DejaVuSans-6e" d="M 3513 2113 
L 3513 0 
L 2938 0 
L 2938 2094 
Q 2938 2591 2744 2837 
Q 2550 3084 2163 3084 
Q 1697 3084 1428 2787 
Q 1159 2491 1159 1978 
L 1159 0 
L 581 0 
L 581 3500 
L 1159 3500 
L 1159 2956 
Q 1366 3272 1645 3428 
Q 1925 3584 2291 3584 
Q 2894 3584 3203 3211 
Q 3513 2838 3513 2113 
z
" transform="scale(0.015625)"/>
       <path id="DejaVuSans-64" d="M 2906 2969 
L 2906 4863 
L 3481 4863 
L 3481 0 
L 2906 0 
L 2906 525 
Q 2725 213 2448 61 
Q 2172 -91 1784 -91 
Q 1150 -91 751 415 
Q 353 922 353 1747 
Q 353 2572 751 3078 
Q 1150 3584 1784 3584 
Q 2172 3584 2448 3432 
Q 2725 3281 2906 2969 
z
M 947 1747 
Q 947 1113 1208 752 
Q 1469 391 1925 391 
Q 2381 391 2643 752 
Q 2906 1113 2906 1747 
Q 2906 2381 2643 2742 
Q 2381 3103 1925 3103 
Q 1469 3103 1208 2742 
Q 947 2381 947 1747 
z
" transform="scale(0.015625)"/>
       <path id="DejaVuSans-72" d="M 2631 2963 
Q 2534 3019 2420 3045 
Q 2306 3072 2169 3072 
Q 1681 3072 1420 2755 
Q 1159 2438 1159 1844 
L 1159 0 
L 581 0 
L 581 3500 
L 1159 3500 
L 1159 2956 
Q 1341 3275 1631 3429 
Q 1922 3584 2338 3584 
Q 2397 3584 2469 3576 
Q 2541 3569 2628 3553 
L 2631 2963 
z
" transform="scale(0.015625)"/>
       <path id="DejaVuSans-74" d="M 1172 4494 
L 1172 3500 
L 2356 3500 
L 2356 3053 
L 1172 3053 
L 1172 1153 
Q 1172 725 1289 603 
Q 1406 481 1766 481 
L 2356 481 
L 2356 0 
L 1766 0 
Q 1100 0 847 248 
Q 594 497 594 1153 
L 594 3053 
L 172 3053 
L 172 3500 
L 594 3500 
L 594 4494 
L 1172 4494 
z
" transform="scale(0.015625)"/>
      </defs>
      <use xlink:href="#DejaVuSans-44"/>
      <use xlink:href="#DejaVuSans-65" x="77.001953"/>
      <use xlink:href="#DejaVuSans-6e" x="138.525391"/>
      <use xlink:href="#DejaVuSans-64" x="201.904297"/>
      <use xlink:href="#DejaVuSans-72" x="265.380859"/>
      <use xlink:href="#DejaVuSans-69" x="306.494141"/>
      <use xlink:href="#DejaVuSans-74" x="334.277344"/>
      <use xlink:href="#DejaVuSans-65" x="373.486328"/>
     </g>
    </g>
   </g>
  </g>
 </g>
 <defs>
  <clipPath id="p2079125239">
   <rect x="108" y="34.56" width="669.6" height="221.76"/>
  </clipPath>
 </defs>
</svg>
