<?xml version="1.0" encoding="utf-8" standalone="no"?>
<!DOCTYPE svg PUBLIC "-//W3C//DTD SVG 1.1//EN"
  "http://www.w3.org/Graphics/SVG/1.1/DTD/svg11.dtd">
<svg xmlns:xlink="http://www.w3.org/1999/xlink" width="864pt" height="288pt" viewBox="0 0 864 288" xmlns="http://www.w3.org/2000/svg" version="1.1">
 <metadata>
  <rdf:RDF xmlns:dc="http://purl.org/dc/elements/1.1/" xmlns:cc="http://creativecommons.org/ns#" xmlns:rdf="http://www.w3.org/1999/02/22-rdf-syntax-ns#">
   <cc:Work>
    <dc:type rdf:resource="http://purl.org/dc/dcmitype/StillImage"/>
    <dc:date>2024-04-12T18:07:32.585838</dc:date>
    <dc:format>image/svg+xml</dc:format>
    <dc:creator>
     <cc:Agent>
      <dc:title>Matplotlib v3.8.2, https://matplotlib.org/</dc:title>
     </cc:Agent>
    </dc:creator>
   </cc:Work>
  </rdf:RDF>
 </metadata>
 <defs>
  <style type="text/css">*{stroke-linejoin: round; stroke-linecap: butt}</style>
 </defs>
 <g id="figure_1">
  <g id="patch_1">
   <path d="M 0 288 
L 864 288 
L 864 0 
L 0 0 
z
" style="fill: #ffffff"/>
  </g>
  <g id="axes_1">
   <g id="patch_2">
    <path d="M 108 256.32 
L 777.6 256.32 
L 777.6 34.56 
L 108 34.56 
z
" style="fill: #ffffff"/>
   </g>
   <g id="matplotlib.axis_1">
    <g id="xtick_1">
     <g id="line2d_1">
      <path d="M 108 256.32 
L 108 34.56 
" clip-path="url(#pf3d1539fb9)" style="fill: none; stroke: #b0b0b0; stroke-width: 0.8; stroke-linecap: square"/>
     </g>
     <g id="line2d_2">
      <defs>
       <path id="m3ee4da43e0" d="M 0 0 
L 0 3.5 
" style="stroke: #000000; stroke-width: 0.8"/>
      </defs>
      <g>
       <use xlink:href="#m3ee4da43e0" x="108" y="256.32" style="stroke: #000000; stroke-width: 0.8"/>
      </g>
     </g>
     <g id="text_1">
      <!-- 100 -->
      <g transform="translate(94.63875 273.957812) scale(0.14 -0.14)">
       <defs>
        <path id="DejaVuSans-31" d="M 794 531 
L 1825 531 
L 1825 4091 
L 703 3866 
L 703 4441 
L 1819 4666 
L 2450 4666 
L 2450 531 
L 3481 531 
L 3481 0 
L 794 0 
L 794 531 
z
" transform="scale(0.015625)"/>
        <path id="DejaVuSans-30" d="M 2034 4250 
Q 1547 4250 1301 3770 
Q 1056 3291 1056 2328 
Q 1056 1369 1301 889 
Q 1547 409 2034 409 
Q 2525 409 2770 889 
Q 3016 1369 3016 2328 
Q 3016 3291 2770 3770 
Q 2525 4250 2034 4250 
z
M 2034 4750 
Q 2819 4750 3233 4129 
Q 3647 3509 3647 2328 
Q 3647 1150 3233 529 
Q 2819 -91 2034 -91 
Q 1250 -91 836 529 
Q 422 1150 422 2328 
Q 422 3509 836 4129 
Q 1250 4750 2034 4750 
z
" transform="scale(0.015625)"/>
       </defs>
       <use xlink:href="#DejaVuSans-31"/>
       <use xlink:href="#DejaVuSans-30" x="63.623047"/>
       <use xlink:href="#DejaVuSans-30" x="127.246094"/>
      </g>
     </g>
    </g>
    <g id="xtick_2">
     <g id="line2d_3">
      <path d="M 241.92 256.32 
L 241.92 34.56 
" clip-path="url(#pf3d1539fb9)" style="fill: none; stroke: #b0b0b0; stroke-width: 0.8; stroke-linecap: square"/>
     </g>
     <g id="line2d_4">
      <g>
       <use xlink:href="#m3ee4da43e0" x="241.92" y="256.32" style="stroke: #000000; stroke-width: 0.8"/>
      </g>
     </g>
     <g id="text_2">
      <!-- 120 -->
      <g transform="translate(228.55875 273.957812) scale(0.14 -0.14)">
       <defs>
        <path id="DejaVuSans-32" d="M 1228 531 
L 3431 531 
L 3431 0 
L 469 0 
L 469 531 
Q 828 903 1448 1529 
Q 2069 2156 2228 2338 
Q 2531 2678 2651 2914 
Q 2772 3150 2772 3378 
Q 2772 3750 2511 3984 
Q 2250 4219 1831 4219 
Q 1534 4219 1204 4116 
Q 875 4013 500 3803 
L 500 4441 
Q 881 4594 1212 4672 
Q 1544 4750 1819 4750 
Q 2544 4750 2975 4387 
Q 3406 4025 3406 3419 
Q 3406 3131 3298 2873 
Q 3191 2616 2906 2266 
Q 2828 2175 2409 1742 
Q 1991 1309 1228 531 
z
" transform="scale(0.015625)"/>
       </defs>
       <use xlink:href="#DejaVuSans-31"/>
       <use xlink:href="#DejaVuSans-32" x="63.623047"/>
       <use xlink:href="#DejaVuSans-30" x="127.246094"/>
      </g>
     </g>
    </g>
    <g id="xtick_3">
     <g id="line2d_5">
      <path d="M 375.84 256.32 
L 375.84 34.56 
" clip-path="url(#pf3d1539fb9)" style="fill: none; stroke: #b0b0b0; stroke-width: 0.8; stroke-linecap: square"/>
     </g>
     <g id="line2d_6">
      <g>
       <use xlink:href="#m3ee4da43e0" x="375.84" y="256.32" style="stroke: #000000; stroke-width: 0.8"/>
      </g>
     </g>
     <g id="text_3">
      <!-- 140 -->
      <g transform="translate(362.47875 273.957812) scale(0.14 -0.14)">
       <defs>
        <path id="DejaVuSans-34" d="M 2419 4116 
L 825 1625 
L 2419 1625 
L 2419 4116 
z
M 2253 4666 
L 3047 4666 
L 3047 1625 
L 3713 1625 
L 3713 1100 
L 3047 1100 
L 3047 0 
L 2419 0 
L 2419 1100 
L 313 1100 
L 313 1709 
L 2253 4666 
z
" transform="scale(0.015625)"/>
       </defs>
       <use xlink:href="#DejaVuSans-31"/>
       <use xlink:href="#DejaVuSans-34" x="63.623047"/>
       <use xlink:href="#DejaVuSans-30" x="127.246094"/>
      </g>
     </g>
    </g>
    <g id="xtick_4">
     <g id="line2d_7">
      <path d="M 509.76 256.32 
L 509.76 34.56 
" clip-path="url(#pf3d1539fb9)" style="fill: none; stroke: #b0b0b0; stroke-width: 0.8; stroke-linecap: square"/>
     </g>
     <g id="line2d_8">
      <g>
       <use xlink:href="#m3ee4da43e0" x="509.76" y="256.32" style="stroke: #000000; stroke-width: 0.8"/>
      </g>
     </g>
     <g id="text_4">
      <!-- 160 -->
      <g transform="translate(496.39875 273.957812) scale(0.14 -0.14)">
       <defs>
        <path id="DejaVuSans-36" d="M 2113 2584 
Q 1688 2584 1439 2293 
Q 1191 2003 1191 1497 
Q 1191 994 1439 701 
Q 1688 409 2113 409 
Q 2538 409 2786 701 
Q 3034 994 3034 1497 
Q 3034 2003 2786 2293 
Q 2538 2584 2113 2584 
z
M 3366 4563 
L 3366 3988 
Q 3128 4100 2886 4159 
Q 2644 4219 2406 4219 
Q 1781 4219 1451 3797 
Q 1122 3375 1075 2522 
Q 1259 2794 1537 2939 
Q 1816 3084 2150 3084 
Q 2853 3084 3261 2657 
Q 3669 2231 3669 1497 
Q 3669 778 3244 343 
Q 2819 -91 2113 -91 
Q 1303 -91 875 529 
Q 447 1150 447 2328 
Q 447 3434 972 4092 
Q 1497 4750 2381 4750 
Q 2619 4750 2861 4703 
Q 3103 4656 3366 4563 
z
" transform="scale(0.015625)"/>
       </defs>
       <use xlink:href="#DejaVuSans-31"/>
       <use xlink:href="#DejaVuSans-36" x="63.623047"/>
       <use xlink:href="#DejaVuSans-30" x="127.246094"/>
      </g>
     </g>
    </g>
    <g id="xtick_5">
     <g id="line2d_9">
      <path d="M 643.68 256.32 
L 643.68 34.56 
" clip-path="url(#pf3d1539fb9)" style="fill: none; stroke: #b0b0b0; stroke-width: 0.8; stroke-linecap: square"/>
     </g>
     <g id="line2d_10">
      <g>
       <use xlink:href="#m3ee4da43e0" x="643.68" y="256.32" style="stroke: #000000; stroke-width: 0.8"/>
      </g>
     </g>
     <g id="text_5">
      <!-- 180 -->
      <g transform="translate(630.31875 273.957812) scale(0.14 -0.14)">
       <defs>
        <path id="DejaVuSans-38" d="M 2034 2216 
Q 1584 2216 1326 1975 
Q 1069 1734 1069 1313 
Q 1069 891 1326 650 
Q 1584 409 2034 409 
Q 2484 409 2743 651 
Q 3003 894 3003 1313 
Q 3003 1734 2745 1975 
Q 2488 2216 2034 2216 
z
M 1403 2484 
Q 997 2584 770 2862 
Q 544 3141 544 3541 
Q 544 4100 942 4425 
Q 1341 4750 2034 4750 
Q 2731 4750 3128 4425 
Q 3525 4100 3525 3541 
Q 3525 3141 3298 2862 
Q 3072 2584 2669 2484 
Q 3125 2378 3379 2068 
Q 3634 1759 3634 1313 
Q 3634 634 3220 271 
Q 2806 -91 2034 -91 
Q 1263 -91 848 271 
Q 434 634 434 1313 
Q 434 1759 690 2068 
Q 947 2378 1403 2484 
z
M 1172 3481 
Q 1172 3119 1398 2916 
Q 1625 2713 2034 2713 
Q 2441 2713 2670 2916 
Q 2900 3119 2900 3481 
Q 2900 3844 2670 4047 
Q 2441 4250 2034 4250 
Q 1625 4250 1398 4047 
Q 1172 3844 1172 3481 
z
" transform="scale(0.015625)"/>
       </defs>
       <use xlink:href="#DejaVuSans-31"/>
       <use xlink:href="#DejaVuSans-38" x="63.623047"/>
       <use xlink:href="#DejaVuSans-30" x="127.246094"/>
      </g>
     </g>
    </g>
    <g id="xtick_6">
     <g id="line2d_11">
      <path d="M 777.6 256.32 
L 777.6 34.56 
" clip-path="url(#pf3d1539fb9)" style="fill: none; stroke: #b0b0b0; stroke-width: 0.8; stroke-linecap: square"/>
     </g>
     <g id="line2d_12">
      <g>
       <use xlink:href="#m3ee4da43e0" x="777.6" y="256.32" style="stroke: #000000; stroke-width: 0.8"/>
      </g>
     </g>
     <g id="text_6">
      <!-- 200 -->
      <g transform="translate(764.23875 273.957812) scale(0.14 -0.14)">
       <use xlink:href="#DejaVuSans-32"/>
       <use xlink:href="#DejaVuSans-30" x="63.623047"/>
       <use xlink:href="#DejaVuSans-30" x="127.246094"/>
      </g>
     </g>
    </g>
    <g id="text_7">
     <!-- Time (ms) -->
     <g transform="translate(407.521094 291.507187) scale(0.14 -0.14)">
      <defs>
       <path id="DejaVuSans-54" d="M -19 4666 
L 3928 4666 
L 3928 4134 
L 2272 4134 
L 2272 0 
L 1638 0 
L 1638 4134 
L -19 4134 
L -19 4666 
z
" transform="scale(0.015625)"/>
       <path id="DejaVuSans-69" d="M 603 3500 
L 1178 3500 
L 1178 0 
L 603 0 
L 603 3500 
z
M 603 4863 
L 1178 4863 
L 1178 4134 
L 603 4134 
L 603 4863 
z
" transform="scale(0.015625)"/>
       <path id="DejaVuSans-6d" d="M 3328 2828 
Q 3544 3216 3844 3400 
Q 4144 3584 4550 3584 
Q 5097 3584 5394 3201 
Q 5691 2819 5691 2113 
L 5691 0 
L 5113 0 
L 5113 2094 
Q 5113 2597 4934 2840 
Q 4756 3084 4391 3084 
Q 3944 3084 3684 2787 
Q 3425 2491 3425 1978 
L 3425 0 
L 2847 0 
L 2847 2094 
Q 2847 2600 2669 2842 
Q 2491 3084 2119 3084 
Q 1678 3084 1418 2786 
Q 1159 2488 1159 1978 
L 1159 0 
L 581 0 
L 581 3500 
L 1159 3500 
L 1159 2956 
Q 1356 3278 1631 3431 
Q 1906 3584 2284 3584 
Q 2666 3584 2933 3390 
Q 3200 3197 3328 2828 
z
" transform="scale(0.015625)"/>
       <path id="DejaVuSans-65" d="M 3597 1894 
L 3597 1613 
L 953 1613 
Q 991 1019 1311 708 
Q 1631 397 2203 397 
Q 2534 397 2845 478 
Q 3156 559 3463 722 
L 3463 178 
Q 3153 47 2828 -22 
Q 2503 -91 2169 -91 
Q 1331 -91 842 396 
Q 353 884 353 1716 
Q 353 2575 817 3079 
Q 1281 3584 2069 3584 
Q 2775 3584 3186 3129 
Q 3597 2675 3597 1894 
z
M 3022 2063 
Q 3016 2534 2758 2815 
Q 2500 3097 2075 3097 
Q 1594 3097 1305 2825 
Q 1016 2553 972 2059 
L 3022 2063 
z
" transform="scale(0.015625)"/>
       <path id="DejaVuSans-20" transform="scale(0.015625)"/>
       <path id="DejaVuSans-28" d="M 1984 4856 
Q 1566 4138 1362 3434 
Q 1159 2731 1159 2009 
Q 1159 1288 1364 580 
Q 1569 -128 1984 -844 
L 1484 -844 
Q 1016 -109 783 600 
Q 550 1309 550 2009 
Q 550 2706 781 3412 
Q 1013 4119 1484 4856 
L 1984 4856 
z
" transform="scale(0.015625)"/>
       <path id="DejaVuSans-73" d="M 2834 3397 
L 2834 2853 
Q 2591 2978 2328 3040 
Q 2066 3103 1784 3103 
Q 1356 3103 1142 2972 
Q 928 2841 928 2578 
Q 928 2378 1081 2264 
Q 1234 2150 1697 2047 
L 1894 2003 
Q 2506 1872 2764 1633 
Q 3022 1394 3022 966 
Q 3022 478 2636 193 
Q 2250 -91 1575 -91 
Q 1294 -91 989 -36 
Q 684 19 347 128 
L 347 722 
Q 666 556 975 473 
Q 1284 391 1588 391 
Q 1994 391 2212 530 
Q 2431 669 2431 922 
Q 2431 1156 2273 1281 
Q 2116 1406 1581 1522 
L 1381 1569 
Q 847 1681 609 1914 
Q 372 2147 372 2553 
Q 372 3047 722 3315 
Q 1072 3584 1716 3584 
Q 2034 3584 2315 3537 
Q 2597 3491 2834 3397 
z
" transform="scale(0.015625)"/>
       <path id="DejaVuSans-29" d="M 513 4856 
L 1013 4856 
Q 1481 4119 1714 3412 
Q 1947 2706 1947 2009 
Q 1947 1309 1714 600 
Q 1481 -109 1013 -844 
L 513 -844 
Q 928 -128 1133 580 
Q 1338 1288 1338 2009 
Q 1338 2731 1133 3434 
Q 928 4138 513 4856 
z
" transform="scale(0.015625)"/>
      </defs>
      <use xlink:href="#DejaVuSans-54"/>
      <use xlink:href="#DejaVuSans-69" x="57.958984"/>
      <use xlink:href="#DejaVuSans-6d" x="85.742188"/>
      <use xlink:href="#DejaVuSans-65" x="183.154297"/>
      <use xlink:href="#DejaVuSans-20" x="244.677734"/>
      <use xlink:href="#DejaVuSans-28" x="276.464844"/>
      <use xlink:href="#DejaVuSans-6d" x="315.478516"/>
      <use xlink:href="#DejaVuSans-73" x="412.890625"/>
      <use xlink:href="#DejaVuSans-29" x="464.990234"/>
     </g>
    </g>
   </g>
   <g id="matplotlib.axis_2">
    <g id="ytick_1">
     <g id="line2d_13">
      <path d="M 108 224.458052 
L 777.6 224.458052 
" clip-path="url(#pf3d1539fb9)" style="fill: none; stroke: #b0b0b0; stroke-width: 0.8; stroke-linecap: square"/>
     </g>
     <g id="line2d_14">
      <defs>
       <path id="m038de87b03" d="M 0 0 
L -3.5 0 
" style="stroke: #000000; stroke-width: 0.8"/>
      </defs>
      <g>
       <use xlink:href="#m038de87b03" x="108" y="224.458052" style="stroke: #000000; stroke-width: 0.8"/>
      </g>
     </g>
     <g id="text_8">
      <!-- −60 -->
      <g transform="translate(71.453437 229.776958) scale(0.14 -0.14)">
       <defs>
        <path id="DejaVuSans-2212" d="M 678 2272 
L 4684 2272 
L 4684 1741 
L 678 1741 
L 678 2272 
z
" transform="scale(0.015625)"/>
       </defs>
       <use xlink:href="#DejaVuSans-2212"/>
       <use xlink:href="#DejaVuSans-36" x="83.789062"/>
       <use xlink:href="#DejaVuSans-30" x="147.412109"/>
      </g>
     </g>
    </g>
    <g id="ytick_2">
     <g id="line2d_15">
      <path d="M 108 180.96357 
L 777.6 180.96357 
" clip-path="url(#pf3d1539fb9)" style="fill: none; stroke: #b0b0b0; stroke-width: 0.8; stroke-linecap: square"/>
     </g>
     <g id="line2d_16">
      <g>
       <use xlink:href="#m038de87b03" x="108" y="180.96357" style="stroke: #000000; stroke-width: 0.8"/>
      </g>
     </g>
     <g id="text_9">
      <!-- −40 -->
      <g transform="translate(71.453437 186.282476) scale(0.14 -0.14)">
       <use xlink:href="#DejaVuSans-2212"/>
       <use xlink:href="#DejaVuSans-34" x="83.789062"/>
       <use xlink:href="#DejaVuSans-30" x="147.412109"/>
      </g>
     </g>
    </g>
    <g id="ytick_3">
     <g id="line2d_17">
      <path d="M 108 137.469088 
L 777.6 137.469088 
" clip-path="url(#pf3d1539fb9)" style="fill: none; stroke: #b0b0b0; stroke-width: 0.8; stroke-linecap: square"/>
     </g>
     <g id="line2d_18">
      <g>
       <use xlink:href="#m038de87b03" x="108" y="137.469088" style="stroke: #000000; stroke-width: 0.8"/>
      </g>
     </g>
     <g id="text_10">
      <!-- −20 -->
      <g transform="translate(71.453437 142.787994) scale(0.14 -0.14)">
       <use xlink:href="#DejaVuSans-2212"/>
       <use xlink:href="#DejaVuSans-32" x="83.789062"/>
       <use xlink:href="#DejaVuSans-30" x="147.412109"/>
      </g>
     </g>
    </g>
    <g id="ytick_4">
     <g id="line2d_19">
      <path d="M 108 93.974606 
L 777.6 93.974606 
" clip-path="url(#pf3d1539fb9)" style="fill: none; stroke: #b0b0b0; stroke-width: 0.8; stroke-linecap: square"/>
     </g>
     <g id="line2d_20">
      <g>
       <use xlink:href="#m038de87b03" x="108" y="93.974606" style="stroke: #000000; stroke-width: 0.8"/>
      </g>
     </g>
     <g id="text_11">
      <!-- 0 -->
      <g transform="translate(92.0925 99.293513) scale(0.14 -0.14)">
       <use xlink:href="#DejaVuSans-30"/>
      </g>
     </g>
    </g>
    <g id="ytick_5">
     <g id="line2d_21">
      <path d="M 108 50.480125 
L 777.6 50.480125 
" clip-path="url(#pf3d1539fb9)" style="fill: none; stroke: #b0b0b0; stroke-width: 0.8; stroke-linecap: square"/>
     </g>
     <g id="line2d_22">
      <g>
       <use xlink:href="#m038de87b03" x="108" y="50.480125" style="stroke: #000000; stroke-width: 0.8"/>
      </g>
     </g>
     <g id="text_12">
      <!-- 20 -->
      <g transform="translate(83.185 55.799031) scale(0.14 -0.14)">
       <use xlink:href="#DejaVuSans-32"/>
       <use xlink:href="#DejaVuSans-30" x="63.623047"/>
      </g>
     </g>
    </g>
    <g id="text_13">
     <!-- $V_{m}$ (mV) -->
     <g transform="translate(64.541875 174.49) rotate(-90) scale(0.14 -0.14)">
      <defs>
       <path id="DejaVuSans-Oblique-56" d="M 1319 0 
L 500 4666 
L 1119 4666 
L 1797 653 
L 4063 4666 
L 4750 4666 
L 2053 0 
L 1319 0 
z
" transform="scale(0.015625)"/>
       <path id="DejaVuSans-Oblique-6d" d="M 5747 2113 
L 5338 0 
L 4763 0 
L 5166 2094 
Q 5191 2228 5203 2325 
Q 5216 2422 5216 2491 
Q 5216 2772 5059 2928 
Q 4903 3084 4622 3084 
Q 4203 3084 3875 2770 
Q 3547 2456 3450 1953 
L 3066 0 
L 2491 0 
L 2900 2094 
Q 2925 2209 2937 2307 
Q 2950 2406 2950 2484 
Q 2950 2769 2794 2926 
Q 2638 3084 2363 3084 
Q 1938 3084 1609 2770 
Q 1281 2456 1184 1953 
L 800 0 
L 225 0 
L 909 3500 
L 1484 3500 
L 1375 2956 
Q 1609 3263 1923 3423 
Q 2238 3584 2597 3584 
Q 2978 3584 3223 3384 
Q 3469 3184 3519 2828 
Q 3781 3197 4126 3390 
Q 4472 3584 4856 3584 
Q 5306 3584 5551 3325 
Q 5797 3066 5797 2591 
Q 5797 2488 5784 2364 
Q 5772 2241 5747 2113 
z
" transform="scale(0.015625)"/>
       <path id="DejaVuSans-56" d="M 1831 0 
L 50 4666 
L 709 4666 
L 2188 738 
L 3669 4666 
L 4325 4666 
L 2547 0 
L 1831 0 
z
" transform="scale(0.015625)"/>
      </defs>
      <use xlink:href="#DejaVuSans-Oblique-56" transform="translate(0 0.125)"/>
      <use xlink:href="#DejaVuSans-Oblique-6d" transform="translate(68.408203 -16.28125) scale(0.7)"/>
      <use xlink:href="#DejaVuSans-20" transform="translate(139.331055 0.125)"/>
      <use xlink:href="#DejaVuSans-28" transform="translate(171.118164 0.125)"/>
      <use xlink:href="#DejaVuSans-6d" transform="translate(210.131836 0.125)"/>
      <use xlink:href="#DejaVuSans-56" transform="translate(307.543945 0.125)"/>
      <use xlink:href="#DejaVuSans-29" transform="translate(375.952148 0.125)"/>
     </g>
    </g>
   </g>
   <g id="line2d_23">
    <path d="M 108 213.929299 
L 110.0088 213.817497 
L 111.348 213.653625 
L 112.6872 213.74486 
L 114.696 213.738405 
L 116.0352 213.930548 
L 118.044 214.68709 
L 119.3832 215.408968 
L 120.0528 215.587503 
L 121.392 216.327771 
L 122.7312 216.932346 
L 124.0704 217.217658 
L 126.0792 217.404594 
L 128.7576 217.429012 
L 132.1056 217.237932 
L 134.1144 217.038043 
L 136.1232 217.294205 
L 137.4624 217.959386 
L 140.8104 218.598631 
L 142.8192 218.660013 
L 143.4888 218.648124 
L 144.828 218.861557 
L 146.8368 218.888164 
L 148.176 218.826308 
L 150.1848 219.016102 
L 152.8632 218.892833 
L 156.2112 218.522208 
L 158.8896 217.809948 
L 172.9512 213.738079 
L 185.6736 209.633741 
L 198.396 205.493049 
L 200.4048 205.304017 
L 203.7528 204.552095 
L 205.7616 204.030448 
L 207.7704 203.960966 
L 208.44 203.870251 
L 210.4488 204.003464 
L 212.4576 203.833548 
L 215.8056 203.281482 
L 219.8232 202.382034 
L 223.8408 201.267606 
L 226.5192 200.455718 
L 227.1888 200.383995 
L 229.8672 201.359624 
L 231.876 201.695829 
L 232.5456 201.752518 
L 234.5544 202.503721 
L 235.8936 203.544418 
L 237.2328 204.717452 
L 238.572 205.71975 
L 239.9112 206.809092 
L 241.2504 208.236252 
L 242.5896 209.004289 
L 243.9288 209.474069 
L 244.5984 209.64403 
L 245.9376 210.207003 
L 246.6072 210.388796 
L 247.9464 211.103194 
L 251.964 212.962403 
L 253.9728 213.347466 
L 255.9816 214.438993 
L 257.3208 214.916019 
L 259.3296 215.265281 
L 261.3384 215.584025 
L 262.6776 215.839662 
L 266.0256 216.26662 
L 267.3648 216.65483 
L 269.3736 216.848509 
L 271.3824 217.016956 
L 272.7216 217.182544 
L 275.4 217.177389 
L 279.4176 216.881891 
L 282.7656 216.629133 
L 284.1048 216.649529 
L 286.7832 216.403919 
L 290.1312 215.910565 
L 292.14 215.50533 
L 293.4792 215.32593 
L 297.4968 214.422643 
L 303.5232 212.839799 
L 311.5584 210.47098 
L 322.9416 206.84655 
L 329.6376 204.53285 
L 333.6552 202.965562 
L 337.0032 201.387122 
L 338.3424 200.576224 
L 339.6816 199.561218 
L 340.3512 198.94988 
L 341.0208 198.164223 
L 341.6904 197.097646 
L 342.36 195.541973 
L 343.0296 192.486773 
L 343.6992 181.973963 
L 344.3688 123.172323 
L 345.0384 49.295129 
L 345.708 62.853165 
L 346.3776 83.129159 
L 347.7168 110.478836 
L 349.7256 144.11129 
L 351.7344 173.521661 
L 353.0736 190.425835 
L 353.7432 196.677392 
L 354.4128 201.012072 
L 355.0824 204.222171 
L 355.752 206.49394 
L 357.0912 209.46651 
L 358.4304 211.43342 
L 359.1 212.288067 
L 359.7696 212.920213 
L 361.1088 213.681909 
L 361.7784 213.904564 
L 363.1176 214.677381 
L 364.4568 215.212822 
L 367.1352 215.559458 
L 368.4744 215.654775 
L 369.8136 215.672599 
L 371.8224 215.389767 
L 372.492 215.257915 
L 373.8312 215.528163 
L 375.1704 216.312014 
L 376.5096 216.526986 
L 378.5184 216.491694 
L 379.188 216.437423 
L 379.8576 216.519512 
L 382.536 217.222322 
L 383.8752 217.519813 
L 385.2144 217.737226 
L 388.5624 218.295303 
L 391.2408 218.374957 
L 392.58 218.74206 
L 394.5888 218.833619 
L 397.2672 218.695221 
L 398.6064 218.56844 
L 401.9544 218.852375 
L 403.9632 218.948751 
L 405.3024 219.178306 
L 406.6416 219.324635 
L 408.6504 219.424873 
L 409.9896 219.526205 
L 412.668 219.401021 
L 416.6856 218.947618 
L 422.0424 218.085547 
L 424.0512 217.676203 
L 427.3992 216.710894 
L 428.7384 216.478722 
L 432.756 215.423837 
L 439.452 213.426988 
L 452.1744 209.332288 
L 472.2624 202.710014 
L 472.932 202.465728 
L 474.9408 202.24867 
L 477.6192 201.836099 
L 478.9584 201.822397 
L 480.9672 201.564692 
L 484.3152 200.972877 
L 484.9848 200.986117 
L 486.9936 201.403904 
L 489.0024 201.519105 
L 494.3592 204.554521 
L 495.6984 205.492667 
L 499.0464 206.85274 
L 503.7336 207.841124 
L 504.4032 207.899581 
L 505.7424 208.284813 
L 508.4208 208.695516 
L 511.0992 210.696272 
L 512.4384 211.165339 
L 514.4472 211.695363 
L 515.1168 211.908513 
L 516.456 212.74578 
L 517.1256 212.988416 
L 519.804 214.985181 
L 521.1432 215.489506 
L 523.8216 216.179087 
L 525.8304 217.133643 
L 528.5088 218.159281 
L 530.5176 218.633122 
L 531.8568 218.949496 
L 533.8656 219.158926 
L 536.544 219.232221 
L 539.892 219.11312 
L 543.9096 218.747086 
L 548.5968 218.093326 
L 554.6232 217.003073 
L 557.9712 216.278687 
L 561.3192 215.114596 
L 570.024 212.195055 
L 584.7552 207.12928 
L 592.1208 204.440756 
L 595.4688 203.077821 
L 598.8168 201.462877 
L 600.156 200.645717 
L 601.4952 199.625136 
L 603.504 197.682308 
L 604.1736 196.604715 
L 604.8432 194.800913 
L 605.5128 190.527706 
L 606.1824 171.524791 
L 606.852 77.171717 
L 607.5216 47.93911 
L 608.1912 70.314269 
L 608.8608 88.605362 
L 610.2 114.806902 
L 612.2088 147.997977 
L 614.2176 177.064033 
L 615.5568 193.302226 
L 616.2264 198.810352 
L 616.896 202.521454 
L 617.5656 205.041926 
L 618.2352 206.844967 
L 618.9048 208.190048 
L 619.5744 209.2155 
L 620.244 210.003207 
L 621.5832 211.057516 
L 622.9224 211.617346 
L 624.2616 212.117299 
L 625.6008 212.376129 
L 626.2704 212.622463 
L 627.6096 212.762244 
L 628.9488 212.613639 
L 629.6184 212.483363 
L 630.288 212.485592 
L 631.6272 212.923661 
L 632.9664 212.88688 
L 633.636 212.792126 
L 634.9752 212.826276 
L 635.6448 212.754555 
L 636.984 212.817047 
L 637.6536 212.758543 
L 639.6624 213.855772 
L 643.0104 214.577582 
L 644.3496 215.046327 
L 645.6888 215.343315 
L 647.028 215.569629 
L 647.6976 215.606718 
L 649.0368 216.045123 
L 650.376 216.333098 
L 651.0456 216.388964 
L 652.3848 216.703238 
L 653.0544 216.773474 
L 654.3936 217.244259 
L 658.4112 218.545023 
L 660.42 219.595641 
L 661.7592 219.912407 
L 663.768 220.135708 
L 666.4464 220.202236 
L 667.7856 220.168956 
L 669.7944 220.389251 
L 672.4728 220.298636 
L 676.4904 219.894979 
L 681.1776 219.182913 
L 687.204 218.017087 
L 691.8912 216.949605 
L 694.5696 216.122812 
L 696.5784 215.664794 
L 702.6048 213.863632 
L 712.6488 210.608135 
L 737.424 202.310471 
L 740.772 200.96788 
L 743.4504 199.787198 
L 744.7896 199.400272 
L 746.1288 198.8438 
L 748.8072 197.300194 
L 749.4768 196.792689 
L 750.1464 196.073159 
L 750.816 194.944615 
L 751.4856 192.960986 
L 752.1552 187.527677 
L 752.8248 164.126872 
L 753.4944 79.067051 
L 754.164 60.93696 
L 755.5032 91.486716 
L 757.512 127.842894 
L 759.5208 159.589209 
L 761.5296 187.68707 
L 762.1992 195.306312 
L 762.8688 201.003016 
L 763.5384 204.76288 
L 764.208 207.270001 
L 764.8776 209.054825 
L 766.2168 211.547362 
L 766.8864 212.447417 
L 767.556 213.114805 
L 769.5648 214.549499 
L 770.2344 214.97548 
L 771.5736 215.381781 
L 773.5824 215.95234 
L 774.9216 216.091651 
L 777.6 215.918006 
L 777.6 215.918006 
" clip-path="url(#pf3d1539fb9)" style="fill: none; stroke: #000000; stroke-width: 1.5; stroke-linecap: square"/>
   </g>
   <g id="line2d_24">
    <path d="M 108 135.485888 
L 112.6872 136.847793 
L 116.7048 138.056326 
L 119.3832 139.132749 
L 122.0616 140.458921 
L 132.1056 145.817323 
L 136.1232 148.020163 
L 138.132 149.40786 
L 140.8104 151.606616 
L 144.1584 154.727223 
L 146.8368 157.585966 
L 149.5152 160.806515 
L 152.1936 164.487036 
L 155.5416 169.545784 
L 156.2112 145.560983 
L 156.8808 140.346081 
L 157.5504 137.560714 
L 158.22 135.996636 
L 158.8896 135.034855 
L 159.5592 134.396007 
L 160.8984 133.56875 
L 164.916 131.768633 
L 168.9336 130.049772 
L 171.612 129.105204 
L 174.96 128.194448 
L 178.308 127.536368 
L 182.3256 126.995487 
L 187.0128 126.60639 
L 193.0392 126.363163 
L 199.7352 126.332682 
L 207.1008 126.664603 
L 211.788 127.112573 
L 219.1536 127.834087 
L 229.1976 128.73597 
L 233.8848 129.73853 
L 235.8936 130.283525 
L 238.572 131.285324 
L 241.2504 132.470835 
L 245.268 134.308051 
L 250.6248 136.636398 
L 257.9904 140.249243 
L 266.6952 144.930051 
L 270.7128 147.49916 
L 274.0608 149.875291 
L 278.0784 153.025173 
L 281.4264 155.913235 
L 284.1048 158.500131 
L 286.7832 161.441125 
L 289.4616 164.643381 
L 290.1312 142.766265 
L 290.8008 138.401104 
L 291.4704 136.00248 
L 292.14 134.665396 
L 292.8096 133.858165 
L 293.4792 133.333343 
L 294.8184 132.664227 
L 305.532 128.590926 
L 308.88 127.716806 
L 312.228 127.083098 
L 316.2456 126.561362 
L 320.9328 126.183066 
L 326.9592 125.934766 
L 341.6904 125.524586 
L 343.0296 125.211774 
L 343.6992 124.716455 
L 344.3688 122.553436 
L 346.3776 108.581169 
L 347.0472 106.446953 
L 347.7168 105.6718 
L 348.3864 105.841924 
L 349.056 106.640677 
L 349.7256 107.85387 
L 351.0648 111.006217 
L 355.752 123.286792 
L 357.0912 125.681634 
L 358.4304 127.50589 
L 359.7696 128.935161 
L 361.1088 130.075992 
L 363.1176 131.404459 
L 365.1264 132.481652 
L 367.8048 133.613273 
L 371.1528 134.741515 
L 375.84 136.156165 
L 386.5536 140.122984 
L 393.2496 143.147733 
L 400.6152 146.927958 
L 403.2936 148.539145 
L 405.972 150.38891 
L 408.6504 152.527226 
L 411.3288 154.959203 
L 414.0072 157.658172 
L 416.6856 160.625208 
L 419.364 163.878431 
L 422.712 168.293903 
L 423.3816 169.207725 
L 424.0512 145.288376 
L 424.7208 140.118474 
L 425.3904 137.332323 
L 426.06 135.755943 
L 426.7296 134.777084 
L 427.3992 134.123243 
L 428.7384 133.283136 
L 432.0864 131.794972 
L 436.7736 129.802049 
L 439.452 128.869026 
L 442.8 127.96867 
L 446.148 127.31782 
L 450.1656 126.782415 
L 454.8528 126.397752 
L 460.8792 126.157549 
L 468.2448 126.111869 
L 475.6104 126.269257 
L 480.2976 126.624066 
L 487.6632 127.401585 
L 491.0112 128.007339 
L 493.6896 128.718078 
L 510.4296 133.790025 
L 517.7952 136.837514 
L 520.4736 138.235258 
L 528.5088 142.71564 
L 533.8656 146.168414 
L 539.2224 149.848262 
L 543.24 152.868014 
L 546.588 155.659912 
L 549.936 158.775461 
L 553.284 162.258482 
L 556.632 166.089158 
L 557.3016 166.887373 
L 557.9712 143.94242 
L 558.6408 139.18098 
L 559.3104 136.575169 
L 559.98 135.100539 
L 560.6496 134.186277 
L 561.3192 133.571811 
L 562.6584 132.758658 
L 567.3456 130.642622 
L 571.3632 128.972206 
L 574.0416 128.08013 
L 577.3896 127.225314 
L 580.7376 126.606932 
L 584.7552 126.091701 
L 590.112 125.666557 
L 597.4776 125.3381 
L 602.8344 125.03551 
L 604.8432 124.74562 
L 605.5128 124.499015 
L 606.1824 123.724387 
L 606.852 120.269023 
L 608.1912 110.103641 
L 608.8608 107.011608 
L 609.5304 105.527199 
L 610.2 105.224032 
L 610.8696 105.71319 
L 611.5392 106.720113 
L 612.8784 109.628154 
L 614.8872 114.99426 
L 616.896 120.38091 
L 618.2352 123.231193 
L 619.5744 125.367966 
L 620.9136 126.949583 
L 622.2528 128.138121 
L 623.592 129.053288 
L 625.6008 130.105508 
L 628.2792 131.175712 
L 631.6272 132.145449 
L 635.6448 133.182524 
L 639.6624 134.225334 
L 645.6888 136.275214 
L 652.3848 138.806981 
L 655.7328 140.249235 
L 659.0808 141.934778 
L 662.4288 143.96633 
L 670.464 149.07187 
L 674.4816 152.012577 
L 677.8296 154.712044 
L 681.1776 157.716829 
L 683.856 160.385666 
L 687.204 164.074768 
L 691.2216 168.921908 
L 691.8912 145.075453 
L 692.5608 139.936523 
L 693.2304 137.151135 
L 693.9 135.567201 
L 694.5696 134.581736 
L 695.2392 133.922385 
L 696.5784 133.06703 
L 699.9264 131.539706 
L 704.6136 129.527815 
L 707.292 128.592085 
L 710.64 127.690336 
L 713.988 127.038227 
L 718.0056 126.50174 
L 722.6928 126.114116 
L 728.7192 125.869402 
L 736.0848 125.803383 
L 750.816 125.756262 
L 751.4856 125.64856 
L 752.1552 125.382438 
L 752.8248 124.429693 
L 753.4944 120.880766 
L 754.8336 111.282196 
L 755.5032 108.294185 
L 756.1728 106.774459 
L 756.8424 106.389908 
L 757.512 106.808772 
L 758.1816 107.77599 
L 759.5208 110.696424 
L 760.86 114.311519 
L 763.5384 122.010697 
L 764.8776 125.125333 
L 766.2168 127.507078 
L 767.556 129.32692 
L 768.8952 130.739439 
L 770.904 132.384664 
L 772.9128 133.657928 
L 775.5912 135.004574 
L 777.6 135.802256 
L 777.6 135.802256 
" clip-path="url(#pf3d1539fb9)" style="fill: none; stroke: #4169e1; stroke-width: 1.5; stroke-linecap: square"/>
   </g>
   <g id="patch_3">
    <path d="M 108 256.32 
L 108 34.56 
" style="fill: none; stroke: #000000; stroke-width: 0.8; stroke-linejoin: miter; stroke-linecap: square"/>
   </g>
   <g id="patch_4">
    <path d="M 777.6 256.32 
L 777.6 34.56 
" style="fill: none; stroke: #000000; stroke-width: 0.8; stroke-linejoin: miter; stroke-linecap: square"/>
   </g>
   <g id="patch_5">
    <path d="M 108 256.32 
L 777.6 256.32 
" style="fill: none; stroke: #000000; stroke-width: 0.8; stroke-linejoin: miter; stroke-linecap: square"/>
   </g>
   <g id="patch_6">
    <path d="M 108 34.56 
L 777.6 34.56 
" style="fill: none; stroke: #000000; stroke-width: 0.8; stroke-linejoin: miter; stroke-linecap: square"/>
   </g>
   <g id="legend_1">
    <g id="patch_7">
     <path d="M 115 71.91625 
L 190.501563 71.91625 
Q 192.501563 71.91625 192.501563 69.91625 
L 192.501563 41.56 
Q 192.501563 39.56 190.501563 39.56 
L 115 39.56 
Q 113 39.56 113 41.56 
L 113 69.91625 
Q 113 71.91625 115 71.91625 
z
" style="fill: #ffffff; opacity: 0.8; stroke: #cccccc; stroke-linejoin: miter"/>
    </g>
    <g id="line2d_25">
     <path d="M 117 47.658437 
L 127 47.658437 
L 137 47.658437 
" style="fill: none; stroke: #000000; stroke-width: 1.5; stroke-linecap: square"/>
    </g>
    <g id="text_14">
     <!-- Soma -->
     <g transform="translate(145 51.158437) scale(0.1 -0.1)">
      <defs>
       <path id="DejaVuSans-53" d="M 3425 4513 
L 3425 3897 
Q 3066 4069 2747 4153 
Q 2428 4238 2131 4238 
Q 1616 4238 1336 4038 
Q 1056 3838 1056 3469 
Q 1056 3159 1242 3001 
Q 1428 2844 1947 2747 
L 2328 2669 
Q 3034 2534 3370 2195 
Q 3706 1856 3706 1288 
Q 3706 609 3251 259 
Q 2797 -91 1919 -91 
Q 1588 -91 1214 -16 
Q 841 59 441 206 
L 441 856 
Q 825 641 1194 531 
Q 1563 422 1919 422 
Q 2459 422 2753 634 
Q 3047 847 3047 1241 
Q 3047 1584 2836 1778 
Q 2625 1972 2144 2069 
L 1759 2144 
Q 1053 2284 737 2584 
Q 422 2884 422 3419 
Q 422 4038 858 4394 
Q 1294 4750 2059 4750 
Q 2388 4750 2728 4690 
Q 3069 4631 3425 4513 
z
" transform="scale(0.015625)"/>
       <path id="DejaVuSans-6f" d="M 1959 3097 
Q 1497 3097 1228 2736 
Q 959 2375 959 1747 
Q 959 1119 1226 758 
Q 1494 397 1959 397 
Q 2419 397 2687 759 
Q 2956 1122 2956 1747 
Q 2956 2369 2687 2733 
Q 2419 3097 1959 3097 
z
M 1959 3584 
Q 2709 3584 3137 3096 
Q 3566 2609 3566 1747 
Q 3566 888 3137 398 
Q 2709 -91 1959 -91 
Q 1206 -91 779 398 
Q 353 888 353 1747 
Q 353 2609 779 3096 
Q 1206 3584 1959 3584 
z
" transform="scale(0.015625)"/>
       <path id="DejaVuSans-61" d="M 2194 1759 
Q 1497 1759 1228 1600 
Q 959 1441 959 1056 
Q 959 750 1161 570 
Q 1363 391 1709 391 
Q 2188 391 2477 730 
Q 2766 1069 2766 1631 
L 2766 1759 
L 2194 1759 
z
M 3341 1997 
L 3341 0 
L 2766 0 
L 2766 531 
Q 2569 213 2275 61 
Q 1981 -91 1556 -91 
Q 1019 -91 701 211 
Q 384 513 384 1019 
Q 384 1609 779 1909 
Q 1175 2209 1959 2209 
L 2766 2209 
L 2766 2266 
Q 2766 2663 2505 2880 
Q 2244 3097 1772 3097 
Q 1472 3097 1187 3025 
Q 903 2953 641 2809 
L 641 3341 
Q 956 3463 1253 3523 
Q 1550 3584 1831 3584 
Q 2591 3584 2966 3190 
Q 3341 2797 3341 1997 
z
" transform="scale(0.015625)"/>
      </defs>
      <use xlink:href="#DejaVuSans-53"/>
      <use xlink:href="#DejaVuSans-6f" x="63.476562"/>
      <use xlink:href="#DejaVuSans-6d" x="124.658203"/>
      <use xlink:href="#DejaVuSans-61" x="222.070312"/>
     </g>
    </g>
    <g id="line2d_26">
     <path d="M 117 62.336562 
L 127 62.336562 
L 137 62.336562 
" style="fill: none; stroke: #4169e1; stroke-width: 1.5; stroke-linecap: square"/>
    </g>
    <g id="text_15">
     <!-- Dendrite -->
     <g transform="translate(145 65.836562) scale(0.1 -0.1)">
      <defs>
       <path id="DejaVuSans-44" d="M 1259 4147 
L 1259 519 
L 2022 519 
Q 2988 519 3436 956 
Q 3884 1394 3884 2338 
Q 3884 3275 3436 3711 
Q 2988 4147 2022 4147 
L 1259 4147 
z
M 628 4666 
L 1925 4666 
Q 3281 4666 3915 4102 
Q 4550 3538 4550 2338 
Q 4550 1131 3912 565 
Q 3275 0 1925 0 
L 628 0 
L 628 4666 
z
" transform="scale(0.015625)"/>
       <path id="DejaVuSans-6e" d="M 3513 2113 
L 3513 0 
L 2938 0 
L 2938 2094 
Q 2938 2591 2744 2837 
Q 2550 3084 2163 3084 
Q 1697 3084 1428 2787 
Q 1159 2491 1159 1978 
L 1159 0 
L 581 0 
L 581 3500 
L 1159 3500 
L 1159 2956 
Q 1366 3272 1645 3428 
Q 1925 3584 2291 3584 
Q 2894 3584 3203 3211 
Q 3513 2838 3513 2113 
z
" transform="scale(0.015625)"/>
       <path id="DejaVuSans-64" d="M 2906 2969 
L 2906 4863 
L 3481 4863 
L 3481 0 
L 2906 0 
L 2906 525 
Q 2725 213 2448 61 
Q 2172 -91 1784 -91 
Q 1150 -91 751 415 
Q 353 922 353 1747 
Q 353 2572 751 3078 
Q 1150 3584 1784 3584 
Q 2172 3584 2448 3432 
Q 2725 3281 2906 2969 
z
M 947 1747 
Q 947 1113 1208 752 
Q 1469 391 1925 391 
Q 2381 391 2643 752 
Q 2906 1113 2906 1747 
Q 2906 2381 2643 2742 
Q 2381 3103 1925 3103 
Q 1469 3103 1208 2742 
Q 947 2381 947 1747 
z
" transform="scale(0.015625)"/>
       <path id="DejaVuSans-72" d="M 2631 2963 
Q 2534 3019 2420 3045 
Q 2306 3072 2169 3072 
Q 1681 3072 1420 2755 
Q 1159 2438 1159 1844 
L 1159 0 
L 581 0 
L 581 3500 
L 1159 3500 
L 1159 2956 
Q 1341 3275 1631 3429 
Q 1922 3584 2338 3584 
Q 2397 3584 2469 3576 
Q 2541 3569 2628 3553 
L 2631 2963 
z
" transform="scale(0.015625)"/>
       <path id="DejaVuSans-74" d="M 1172 4494 
L 1172 3500 
L 2356 3500 
L 2356 3053 
L 1172 3053 
L 1172 1153 
Q 1172 725 1289 603 
Q 1406 481 1766 481 
L 2356 481 
L 2356 0 
L 1766 0 
Q 1100 0 847 248 
Q 594 497 594 1153 
L 594 3053 
L 172 3053 
L 172 3500 
L 594 3500 
L 594 4494 
L 1172 4494 
z
" transform="scale(0.015625)"/>
      </defs>
      <use xlink:href="#DejaVuSans-44"/>
      <use xlink:href="#DejaVuSans-65" x="77.001953"/>
      <use xlink:href="#DejaVuSans-6e" x="138.525391"/>
      <use xlink:href="#DejaVuSans-64" x="201.904297"/>
      <use xlink:href="#DejaVuSans-72" x="265.380859"/>
      <use xlink:href="#DejaVuSans-69" x="306.494141"/>
      <use xlink:href="#DejaVuSans-74" x="334.277344"/>
      <use xlink:href="#DejaVuSans-65" x="373.486328"/>
     </g>
    </g>
   </g>
  </g>
 </g>
 <defs>
  <clipPath id="pf3d1539fb9">
   <rect x="108" y="34.56" width="669.6" height="221.76"/>
  </clipPath>
 </defs>
</svg>
