<?xml version="1.0" encoding="utf-8" standalone="no"?>
<!DOCTYPE svg PUBLIC "-//W3C//DTD SVG 1.1//EN"
  "http://www.w3.org/Graphics/SVG/1.1/DTD/svg11.dtd">
<svg xmlns:xlink="http://www.w3.org/1999/xlink" width="864pt" height="288pt" viewBox="0 0 864 288" xmlns="http://www.w3.org/2000/svg" version="1.1">
 <metadata>
  <rdf:RDF xmlns:dc="http://purl.org/dc/elements/1.1/" xmlns:cc="http://creativecommons.org/ns#" xmlns:rdf="http://www.w3.org/1999/02/22-rdf-syntax-ns#">
   <cc:Work>
    <dc:type rdf:resource="http://purl.org/dc/dcmitype/StillImage"/>
    <dc:date>2024-04-12T18:08:59.871233</dc:date>
    <dc:format>image/svg+xml</dc:format>
    <dc:creator>
     <cc:Agent>
      <dc:title>Matplotlib v3.8.2, https://matplotlib.org/</dc:title>
     </cc:Agent>
    </dc:creator>
   </cc:Work>
  </rdf:RDF>
 </metadata>
 <defs>
  <style type="text/css">*{stroke-linejoin: round; stroke-linecap: butt}</style>
 </defs>
 <g id="figure_1">
  <g id="patch_1">
   <path d="M 0 288 
L 864 288 
L 864 0 
L 0 0 
z
" style="fill: #ffffff"/>
  </g>
  <g id="axes_1">
   <g id="patch_2">
    <path d="M 108 256.32 
L 777.6 256.32 
L 777.6 34.56 
L 108 34.56 
z
" style="fill: #ffffff"/>
   </g>
   <g id="matplotlib.axis_1">
    <g id="xtick_1">
     <g id="line2d_1">
      <path d="M 108 256.32 
L 108 34.56 
" clip-path="url(#p55347ef58a)" style="fill: none; stroke: #b0b0b0; stroke-width: 0.8; stroke-linecap: square"/>
     </g>
     <g id="line2d_2">
      <defs>
       <path id="m277abf6e9b" d="M 0 0 
L 0 3.5 
" style="stroke: #000000; stroke-width: 0.8"/>
      </defs>
      <g>
       <use xlink:href="#m277abf6e9b" x="108" y="256.32" style="stroke: #000000; stroke-width: 0.8"/>
      </g>
     </g>
     <g id="text_1">
      <!-- 100 -->
      <g transform="translate(94.63875 273.957812) scale(0.14 -0.14)">
       <defs>
        <path id="DejaVuSans-31" d="M 794 531 
L 1825 531 
L 1825 4091 
L 703 3866 
L 703 4441 
L 1819 4666 
L 2450 4666 
L 2450 531 
L 3481 531 
L 3481 0 
L 794 0 
L 794 531 
z
" transform="scale(0.015625)"/>
        <path id="DejaVuSans-30" d="M 2034 4250 
Q 1547 4250 1301 3770 
Q 1056 3291 1056 2328 
Q 1056 1369 1301 889 
Q 1547 409 2034 409 
Q 2525 409 2770 889 
Q 3016 1369 3016 2328 
Q 3016 3291 2770 3770 
Q 2525 4250 2034 4250 
z
M 2034 4750 
Q 2819 4750 3233 4129 
Q 3647 3509 3647 2328 
Q 3647 1150 3233 529 
Q 2819 -91 2034 -91 
Q 1250 -91 836 529 
Q 422 1150 422 2328 
Q 422 3509 836 4129 
Q 1250 4750 2034 4750 
z
" transform="scale(0.015625)"/>
       </defs>
       <use xlink:href="#DejaVuSans-31"/>
       <use xlink:href="#DejaVuSans-30" x="63.623047"/>
       <use xlink:href="#DejaVuSans-30" x="127.246094"/>
      </g>
     </g>
    </g>
    <g id="xtick_2">
     <g id="line2d_3">
      <path d="M 241.92 256.32 
L 241.92 34.56 
" clip-path="url(#p55347ef58a)" style="fill: none; stroke: #b0b0b0; stroke-width: 0.8; stroke-linecap: square"/>
     </g>
     <g id="line2d_4">
      <g>
       <use xlink:href="#m277abf6e9b" x="241.92" y="256.32" style="stroke: #000000; stroke-width: 0.8"/>
      </g>
     </g>
     <g id="text_2">
      <!-- 120 -->
      <g transform="translate(228.55875 273.957812) scale(0.14 -0.14)">
       <defs>
        <path id="DejaVuSans-32" d="M 1228 531 
L 3431 531 
L 3431 0 
L 469 0 
L 469 531 
Q 828 903 1448 1529 
Q 2069 2156 2228 2338 
Q 2531 2678 2651 2914 
Q 2772 3150 2772 3378 
Q 2772 3750 2511 3984 
Q 2250 4219 1831 4219 
Q 1534 4219 1204 4116 
Q 875 4013 500 3803 
L 500 4441 
Q 881 4594 1212 4672 
Q 1544 4750 1819 4750 
Q 2544 4750 2975 4387 
Q 3406 4025 3406 3419 
Q 3406 3131 3298 2873 
Q 3191 2616 2906 2266 
Q 2828 2175 2409 1742 
Q 1991 1309 1228 531 
z
" transform="scale(0.015625)"/>
       </defs>
       <use xlink:href="#DejaVuSans-31"/>
       <use xlink:href="#DejaVuSans-32" x="63.623047"/>
       <use xlink:href="#DejaVuSans-30" x="127.246094"/>
      </g>
     </g>
    </g>
    <g id="xtick_3">
     <g id="line2d_5">
      <path d="M 375.84 256.32 
L 375.84 34.56 
" clip-path="url(#p55347ef58a)" style="fill: none; stroke: #b0b0b0; stroke-width: 0.8; stroke-linecap: square"/>
     </g>
     <g id="line2d_6">
      <g>
       <use xlink:href="#m277abf6e9b" x="375.84" y="256.32" style="stroke: #000000; stroke-width: 0.8"/>
      </g>
     </g>
     <g id="text_3">
      <!-- 140 -->
      <g transform="translate(362.47875 273.957812) scale(0.14 -0.14)">
       <defs>
        <path id="DejaVuSans-34" d="M 2419 4116 
L 825 1625 
L 2419 1625 
L 2419 4116 
z
M 2253 4666 
L 3047 4666 
L 3047 1625 
L 3713 1625 
L 3713 1100 
L 3047 1100 
L 3047 0 
L 2419 0 
L 2419 1100 
L 313 1100 
L 313 1709 
L 2253 4666 
z
" transform="scale(0.015625)"/>
       </defs>
       <use xlink:href="#DejaVuSans-31"/>
       <use xlink:href="#DejaVuSans-34" x="63.623047"/>
       <use xlink:href="#DejaVuSans-30" x="127.246094"/>
      </g>
     </g>
    </g>
    <g id="xtick_4">
     <g id="line2d_7">
      <path d="M 509.76 256.32 
L 509.76 34.56 
" clip-path="url(#p55347ef58a)" style="fill: none; stroke: #b0b0b0; stroke-width: 0.8; stroke-linecap: square"/>
     </g>
     <g id="line2d_8">
      <g>
       <use xlink:href="#m277abf6e9b" x="509.76" y="256.32" style="stroke: #000000; stroke-width: 0.8"/>
      </g>
     </g>
     <g id="text_4">
      <!-- 160 -->
      <g transform="translate(496.39875 273.957812) scale(0.14 -0.14)">
       <defs>
        <path id="DejaVuSans-36" d="M 2113 2584 
Q 1688 2584 1439 2293 
Q 1191 2003 1191 1497 
Q 1191 994 1439 701 
Q 1688 409 2113 409 
Q 2538 409 2786 701 
Q 3034 994 3034 1497 
Q 3034 2003 2786 2293 
Q 2538 2584 2113 2584 
z
M 3366 4563 
L 3366 3988 
Q 3128 4100 2886 4159 
Q 2644 4219 2406 4219 
Q 1781 4219 1451 3797 
Q 1122 3375 1075 2522 
Q 1259 2794 1537 2939 
Q 1816 3084 2150 3084 
Q 2853 3084 3261 2657 
Q 3669 2231 3669 1497 
Q 3669 778 3244 343 
Q 2819 -91 2113 -91 
Q 1303 -91 875 529 
Q 447 1150 447 2328 
Q 447 3434 972 4092 
Q 1497 4750 2381 4750 
Q 2619 4750 2861 4703 
Q 3103 4656 3366 4563 
z
" transform="scale(0.015625)"/>
       </defs>
       <use xlink:href="#DejaVuSans-31"/>
       <use xlink:href="#DejaVuSans-36" x="63.623047"/>
       <use xlink:href="#DejaVuSans-30" x="127.246094"/>
      </g>
     </g>
    </g>
    <g id="xtick_5">
     <g id="line2d_9">
      <path d="M 643.68 256.32 
L 643.68 34.56 
" clip-path="url(#p55347ef58a)" style="fill: none; stroke: #b0b0b0; stroke-width: 0.8; stroke-linecap: square"/>
     </g>
     <g id="line2d_10">
      <g>
       <use xlink:href="#m277abf6e9b" x="643.68" y="256.32" style="stroke: #000000; stroke-width: 0.8"/>
      </g>
     </g>
     <g id="text_5">
      <!-- 180 -->
      <g transform="translate(630.31875 273.957812) scale(0.14 -0.14)">
       <defs>
        <path id="DejaVuSans-38" d="M 2034 2216 
Q 1584 2216 1326 1975 
Q 1069 1734 1069 1313 
Q 1069 891 1326 650 
Q 1584 409 2034 409 
Q 2484 409 2743 651 
Q 3003 894 3003 1313 
Q 3003 1734 2745 1975 
Q 2488 2216 2034 2216 
z
M 1403 2484 
Q 997 2584 770 2862 
Q 544 3141 544 3541 
Q 544 4100 942 4425 
Q 1341 4750 2034 4750 
Q 2731 4750 3128 4425 
Q 3525 4100 3525 3541 
Q 3525 3141 3298 2862 
Q 3072 2584 2669 2484 
Q 3125 2378 3379 2068 
Q 3634 1759 3634 1313 
Q 3634 634 3220 271 
Q 2806 -91 2034 -91 
Q 1263 -91 848 271 
Q 434 634 434 1313 
Q 434 1759 690 2068 
Q 947 2378 1403 2484 
z
M 1172 3481 
Q 1172 3119 1398 2916 
Q 1625 2713 2034 2713 
Q 2441 2713 2670 2916 
Q 2900 3119 2900 3481 
Q 2900 3844 2670 4047 
Q 2441 4250 2034 4250 
Q 1625 4250 1398 4047 
Q 1172 3844 1172 3481 
z
" transform="scale(0.015625)"/>
       </defs>
       <use xlink:href="#DejaVuSans-31"/>
       <use xlink:href="#DejaVuSans-38" x="63.623047"/>
       <use xlink:href="#DejaVuSans-30" x="127.246094"/>
      </g>
     </g>
    </g>
    <g id="xtick_6">
     <g id="line2d_11">
      <path d="M 777.6 256.32 
L 777.6 34.56 
" clip-path="url(#p55347ef58a)" style="fill: none; stroke: #b0b0b0; stroke-width: 0.8; stroke-linecap: square"/>
     </g>
     <g id="line2d_12">
      <g>
       <use xlink:href="#m277abf6e9b" x="777.6" y="256.32" style="stroke: #000000; stroke-width: 0.8"/>
      </g>
     </g>
     <g id="text_6">
      <!-- 200 -->
      <g transform="translate(764.23875 273.957812) scale(0.14 -0.14)">
       <use xlink:href="#DejaVuSans-32"/>
       <use xlink:href="#DejaVuSans-30" x="63.623047"/>
       <use xlink:href="#DejaVuSans-30" x="127.246094"/>
      </g>
     </g>
    </g>
    <g id="text_7">
     <!-- Time (ms) -->
     <g transform="translate(407.521094 291.507187) scale(0.14 -0.14)">
      <defs>
       <path id="DejaVuSans-54" d="M -19 4666 
L 3928 4666 
L 3928 4134 
L 2272 4134 
L 2272 0 
L 1638 0 
L 1638 4134 
L -19 4134 
L -19 4666 
z
" transform="scale(0.015625)"/>
       <path id="DejaVuSans-69" d="M 603 3500 
L 1178 3500 
L 1178 0 
L 603 0 
L 603 3500 
z
M 603 4863 
L 1178 4863 
L 1178 4134 
L 603 4134 
L 603 4863 
z
" transform="scale(0.015625)"/>
       <path id="DejaVuSans-6d" d="M 3328 2828 
Q 3544 3216 3844 3400 
Q 4144 3584 4550 3584 
Q 5097 3584 5394 3201 
Q 5691 2819 5691 2113 
L 5691 0 
L 5113 0 
L 5113 2094 
Q 5113 2597 4934 2840 
Q 4756 3084 4391 3084 
Q 3944 3084 3684 2787 
Q 3425 2491 3425 1978 
L 3425 0 
L 2847 0 
L 2847 2094 
Q 2847 2600 2669 2842 
Q 2491 3084 2119 3084 
Q 1678 3084 1418 2786 
Q 1159 2488 1159 1978 
L 1159 0 
L 581 0 
L 581 3500 
L 1159 3500 
L 1159 2956 
Q 1356 3278 1631 3431 
Q 1906 3584 2284 3584 
Q 2666 3584 2933 3390 
Q 3200 3197 3328 2828 
z
" transform="scale(0.015625)"/>
       <path id="DejaVuSans-65" d="M 3597 1894 
L 3597 1613 
L 953 1613 
Q 991 1019 1311 708 
Q 1631 397 2203 397 
Q 2534 397 2845 478 
Q 3156 559 3463 722 
L 3463 178 
Q 3153 47 2828 -22 
Q 2503 -91 2169 -91 
Q 1331 -91 842 396 
Q 353 884 353 1716 
Q 353 2575 817 3079 
Q 1281 3584 2069 3584 
Q 2775 3584 3186 3129 
Q 3597 2675 3597 1894 
z
M 3022 2063 
Q 3016 2534 2758 2815 
Q 2500 3097 2075 3097 
Q 1594 3097 1305 2825 
Q 1016 2553 972 2059 
L 3022 2063 
z
" transform="scale(0.015625)"/>
       <path id="DejaVuSans-20" transform="scale(0.015625)"/>
       <path id="DejaVuSans-28" d="M 1984 4856 
Q 1566 4138 1362 3434 
Q 1159 2731 1159 2009 
Q 1159 1288 1364 580 
Q 1569 -128 1984 -844 
L 1484 -844 
Q 1016 -109 783 600 
Q 550 1309 550 2009 
Q 550 2706 781 3412 
Q 1013 4119 1484 4856 
L 1984 4856 
z
" transform="scale(0.015625)"/>
       <path id="DejaVuSans-73" d="M 2834 3397 
L 2834 2853 
Q 2591 2978 2328 3040 
Q 2066 3103 1784 3103 
Q 1356 3103 1142 2972 
Q 928 2841 928 2578 
Q 928 2378 1081 2264 
Q 1234 2150 1697 2047 
L 1894 2003 
Q 2506 1872 2764 1633 
Q 3022 1394 3022 966 
Q 3022 478 2636 193 
Q 2250 -91 1575 -91 
Q 1294 -91 989 -36 
Q 684 19 347 128 
L 347 722 
Q 666 556 975 473 
Q 1284 391 1588 391 
Q 1994 391 2212 530 
Q 2431 669 2431 922 
Q 2431 1156 2273 1281 
Q 2116 1406 1581 1522 
L 1381 1569 
Q 847 1681 609 1914 
Q 372 2147 372 2553 
Q 372 3047 722 3315 
Q 1072 3584 1716 3584 
Q 2034 3584 2315 3537 
Q 2597 3491 2834 3397 
z
" transform="scale(0.015625)"/>
       <path id="DejaVuSans-29" d="M 513 4856 
L 1013 4856 
Q 1481 4119 1714 3412 
Q 1947 2706 1947 2009 
Q 1947 1309 1714 600 
Q 1481 -109 1013 -844 
L 513 -844 
Q 928 -128 1133 580 
Q 1338 1288 1338 2009 
Q 1338 2731 1133 3434 
Q 928 4138 513 4856 
z
" transform="scale(0.015625)"/>
      </defs>
      <use xlink:href="#DejaVuSans-54"/>
      <use xlink:href="#DejaVuSans-69" x="57.958984"/>
      <use xlink:href="#DejaVuSans-6d" x="85.742188"/>
      <use xlink:href="#DejaVuSans-65" x="183.154297"/>
      <use xlink:href="#DejaVuSans-20" x="244.677734"/>
      <use xlink:href="#DejaVuSans-28" x="276.464844"/>
      <use xlink:href="#DejaVuSans-6d" x="315.478516"/>
      <use xlink:href="#DejaVuSans-73" x="412.890625"/>
      <use xlink:href="#DejaVuSans-29" x="464.990234"/>
     </g>
    </g>
   </g>
   <g id="matplotlib.axis_2">
    <g id="ytick_1">
     <g id="line2d_13">
      <path d="M 108 225.037735 
L 777.6 225.037735 
" clip-path="url(#p55347ef58a)" style="fill: none; stroke: #b0b0b0; stroke-width: 0.8; stroke-linecap: square"/>
     </g>
     <g id="line2d_14">
      <defs>
       <path id="m03efd9b1c2" d="M 0 0 
L -3.5 0 
" style="stroke: #000000; stroke-width: 0.8"/>
      </defs>
      <g>
       <use xlink:href="#m03efd9b1c2" x="108" y="225.037735" style="stroke: #000000; stroke-width: 0.8"/>
      </g>
     </g>
     <g id="text_8">
      <!-- −60 -->
      <g transform="translate(71.453437 230.356641) scale(0.14 -0.14)">
       <defs>
        <path id="DejaVuSans-2212" d="M 678 2272 
L 4684 2272 
L 4684 1741 
L 678 1741 
L 678 2272 
z
" transform="scale(0.015625)"/>
       </defs>
       <use xlink:href="#DejaVuSans-2212"/>
       <use xlink:href="#DejaVuSans-36" x="83.789062"/>
       <use xlink:href="#DejaVuSans-30" x="147.412109"/>
      </g>
     </g>
    </g>
    <g id="ytick_2">
     <g id="line2d_15">
      <path d="M 108 182.700772 
L 777.6 182.700772 
" clip-path="url(#p55347ef58a)" style="fill: none; stroke: #b0b0b0; stroke-width: 0.8; stroke-linecap: square"/>
     </g>
     <g id="line2d_16">
      <g>
       <use xlink:href="#m03efd9b1c2" x="108" y="182.700772" style="stroke: #000000; stroke-width: 0.8"/>
      </g>
     </g>
     <g id="text_9">
      <!-- −40 -->
      <g transform="translate(71.453437 188.019678) scale(0.14 -0.14)">
       <use xlink:href="#DejaVuSans-2212"/>
       <use xlink:href="#DejaVuSans-34" x="83.789062"/>
       <use xlink:href="#DejaVuSans-30" x="147.412109"/>
      </g>
     </g>
    </g>
    <g id="ytick_3">
     <g id="line2d_17">
      <path d="M 108 140.36381 
L 777.6 140.36381 
" clip-path="url(#p55347ef58a)" style="fill: none; stroke: #b0b0b0; stroke-width: 0.8; stroke-linecap: square"/>
     </g>
     <g id="line2d_18">
      <g>
       <use xlink:href="#m03efd9b1c2" x="108" y="140.36381" style="stroke: #000000; stroke-width: 0.8"/>
      </g>
     </g>
     <g id="text_10">
      <!-- −20 -->
      <g transform="translate(71.453437 145.682716) scale(0.14 -0.14)">
       <use xlink:href="#DejaVuSans-2212"/>
       <use xlink:href="#DejaVuSans-32" x="83.789062"/>
       <use xlink:href="#DejaVuSans-30" x="147.412109"/>
      </g>
     </g>
    </g>
    <g id="ytick_4">
     <g id="line2d_19">
      <path d="M 108 98.026847 
L 777.6 98.026847 
" clip-path="url(#p55347ef58a)" style="fill: none; stroke: #b0b0b0; stroke-width: 0.8; stroke-linecap: square"/>
     </g>
     <g id="line2d_20">
      <g>
       <use xlink:href="#m03efd9b1c2" x="108" y="98.026847" style="stroke: #000000; stroke-width: 0.8"/>
      </g>
     </g>
     <g id="text_11">
      <!-- 0 -->
      <g transform="translate(92.0925 103.345753) scale(0.14 -0.14)">
       <use xlink:href="#DejaVuSans-30"/>
      </g>
     </g>
    </g>
    <g id="ytick_5">
     <g id="line2d_21">
      <path d="M 108 55.689884 
L 777.6 55.689884 
" clip-path="url(#p55347ef58a)" style="fill: none; stroke: #b0b0b0; stroke-width: 0.8; stroke-linecap: square"/>
     </g>
     <g id="line2d_22">
      <g>
       <use xlink:href="#m03efd9b1c2" x="108" y="55.689884" style="stroke: #000000; stroke-width: 0.8"/>
      </g>
     </g>
     <g id="text_12">
      <!-- 20 -->
      <g transform="translate(83.185 61.008791) scale(0.14 -0.14)">
       <use xlink:href="#DejaVuSans-32"/>
       <use xlink:href="#DejaVuSans-30" x="63.623047"/>
      </g>
     </g>
    </g>
    <g id="text_13">
     <!-- $V_{m}$ (mV) -->
     <g transform="translate(64.541875 174.49) rotate(-90) scale(0.14 -0.14)">
      <defs>
       <path id="DejaVuSans-Oblique-56" d="M 1319 0 
L 500 4666 
L 1119 4666 
L 1797 653 
L 4063 4666 
L 4750 4666 
L 2053 0 
L 1319 0 
z
" transform="scale(0.015625)"/>
       <path id="DejaVuSans-Oblique-6d" d="M 5747 2113 
L 5338 0 
L 4763 0 
L 5166 2094 
Q 5191 2228 5203 2325 
Q 5216 2422 5216 2491 
Q 5216 2772 5059 2928 
Q 4903 3084 4622 3084 
Q 4203 3084 3875 2770 
Q 3547 2456 3450 1953 
L 3066 0 
L 2491 0 
L 2900 2094 
Q 2925 2209 2937 2307 
Q 2950 2406 2950 2484 
Q 2950 2769 2794 2926 
Q 2638 3084 2363 3084 
Q 1938 3084 1609 2770 
Q 1281 2456 1184 1953 
L 800 0 
L 225 0 
L 909 3500 
L 1484 3500 
L 1375 2956 
Q 1609 3263 1923 3423 
Q 2238 3584 2597 3584 
Q 2978 3584 3223 3384 
Q 3469 3184 3519 2828 
Q 3781 3197 4126 3390 
Q 4472 3584 4856 3584 
Q 5306 3584 5551 3325 
Q 5797 3066 5797 2591 
Q 5797 2488 5784 2364 
Q 5772 2241 5747 2113 
z
" transform="scale(0.015625)"/>
       <path id="DejaVuSans-56" d="M 1831 0 
L 50 4666 
L 709 4666 
L 2188 738 
L 3669 4666 
L 4325 4666 
L 2547 0 
L 1831 0 
z
" transform="scale(0.015625)"/>
      </defs>
      <use xlink:href="#DejaVuSans-Oblique-56" transform="translate(0 0.125)"/>
      <use xlink:href="#DejaVuSans-Oblique-6d" transform="translate(68.408203 -16.28125) scale(0.7)"/>
      <use xlink:href="#DejaVuSans-20" transform="translate(139.331055 0.125)"/>
      <use xlink:href="#DejaVuSans-28" transform="translate(171.118164 0.125)"/>
      <use xlink:href="#DejaVuSans-6d" transform="translate(210.131836 0.125)"/>
      <use xlink:href="#DejaVuSans-56" transform="translate(307.543945 0.125)"/>
      <use xlink:href="#DejaVuSans-29" transform="translate(375.952148 0.125)"/>
     </g>
    </g>
   </g>
   <g id="line2d_23">
    <path d="M 108 215.308822 
L 110.0088 215.125525 
L 111.348 214.921644 
L 112.6872 214.965389 
L 114.696 214.892875 
L 116.0352 215.03496 
L 118.044 215.703472 
L 119.3832 216.361464 
L 120.0528 216.513639 
L 121.392 217.190979 
L 122.7312 217.737315 
L 124.0704 217.973654 
L 126.0792 218.093805 
L 128.7576 218.034931 
L 132.1056 217.744779 
L 134.784 217.535874 
L 136.1232 217.675283 
L 137.4624 218.285349 
L 140.8104 218.804858 
L 142.8192 218.796485 
L 143.4888 218.761019 
L 144.828 218.92217 
L 146.8368 218.871104 
L 148.176 218.755588 
L 150.1848 218.856499 
L 152.8632 218.608743 
L 156.8808 217.98334 
L 161.568 217.031655 
L 167.5944 215.573973 
L 175.6296 213.377282 
L 190.3608 209.057346 
L 198.396 206.680477 
L 200.4048 206.536771 
L 203.7528 205.870813 
L 205.7616 205.403844 
L 207.7704 205.385053 
L 208.44 205.312323 
L 210.4488 205.479388 
L 213.1272 205.276637 
L 216.4752 204.77295 
L 221.1624 203.823944 
L 226.5192 202.653217 
L 227.1888 202.648369 
L 229.1976 203.534558 
L 230.5368 203.82004 
L 233.2152 204.200106 
L 233.8848 204.383431 
L 234.5544 204.685329 
L 235.8936 205.662411 
L 236.5632 206.238958 
L 239.9112 208.383905 
L 241.2504 209.65565 
L 242.5896 210.32368 
L 243.9288 210.71929 
L 244.5984 210.859928 
L 245.9376 211.363857 
L 246.6072 211.520858 
L 247.9464 212.177956 
L 251.964 213.882925 
L 253.9728 214.208337 
L 255.9816 215.222621 
L 257.3208 215.654989 
L 259.3296 215.946027 
L 261.3384 216.206631 
L 262.6776 216.422285 
L 266.0256 216.753018 
L 267.3648 217.097788 
L 269.3736 217.232851 
L 271.3824 217.341041 
L 272.7216 217.464395 
L 275.4 217.377925 
L 278.748 217.042969 
L 282.7656 216.586491 
L 284.1048 216.556459 
L 286.7832 216.207304 
L 292.14 215.3454 
L 293.4792 215.269195 
L 296.8272 214.704419 
L 302.184 213.520581 
L 309.5496 211.636807 
L 319.5936 208.803418 
L 328.2984 206.139848 
L 333.6552 204.285865 
L 337.0032 202.877016 
L 339.012 201.800321 
L 340.3512 200.858379 
L 341.0208 200.293101 
L 341.6904 199.579037 
L 342.36 198.616249 
L 343.0296 197.240054 
L 343.6992 194.691749 
L 344.3688 187.00441 
L 345.0384 146.881431 
L 345.708 58.907162 
L 346.3776 65.354766 
L 347.0472 85.09915 
L 348.3864 111.939101 
L 350.3952 144.773059 
L 352.404 173.622433 
L 353.7432 190.449859 
L 354.4128 196.94185 
L 355.0824 201.84682 
L 355.752 205.163664 
L 356.4216 207.415357 
L 357.0912 209.18532 
L 358.4304 211.673518 
L 359.1 212.70251 
L 359.7696 213.478733 
L 361.1088 214.468917 
L 361.7784 214.784623 
L 363.1176 215.694041 
L 364.4568 216.337944 
L 367.1352 216.864032 
L 368.4744 217.031592 
L 369.8136 217.116383 
L 371.1528 216.942724 
L 372.492 216.63257 
L 373.8312 216.822755 
L 375.1704 217.521794 
L 376.5096 217.682438 
L 378.5184 217.587714 
L 379.188 217.515954 
L 379.8576 217.576348 
L 382.536 218.180471 
L 383.8752 218.430079 
L 385.2144 218.601842 
L 388.5624 219.045362 
L 391.2408 219.043735 
L 392.58 219.362172 
L 394.5888 219.392357 
L 397.2672 219.177744 
L 398.6064 219.013894 
L 401.9544 219.191981 
L 403.9632 219.225327 
L 405.3024 219.40896 
L 406.6416 219.510064 
L 408.6504 219.542493 
L 409.9896 219.596377 
L 412.668 219.376354 
L 416.6856 218.768591 
L 421.3728 217.821278 
L 427.3992 216.504482 
L 428.7384 216.362905 
L 432.0864 215.657965 
L 438.1128 214.116048 
L 448.1568 211.264862 
L 471.5928 204.315982 
L 472.932 203.879876 
L 474.9408 203.721824 
L 477.6192 203.391567 
L 478.9584 203.410968 
L 481.6368 203.128028 
L 483.6456 202.784181 
L 484.9848 202.876528 
L 486.9936 203.344764 
L 489.0024 203.459454 
L 490.3416 204.159905 
L 491.6808 204.752609 
L 493.02 205.631372 
L 494.3592 206.293656 
L 495.6984 207.174245 
L 499.0464 208.473043 
L 505.7424 209.836745 
L 508.4208 210.069922 
L 511.0992 211.898202 
L 512.4384 212.312938 
L 514.4472 212.772891 
L 515.1168 212.962788 
L 516.456 213.743085 
L 517.1256 213.962476 
L 519.804 215.839231 
L 521.1432 216.297533 
L 523.8216 216.902968 
L 525.8304 217.783331 
L 528.5088 218.715728 
L 530.5176 219.12569 
L 531.8568 219.398922 
L 533.8656 219.547893 
L 536.544 219.54176 
L 539.892 219.322218 
L 543.9096 218.830614 
L 548.5968 218.019391 
L 553.9536 216.855694 
L 560.6496 215.145236 
L 568.6848 212.85312 
L 580.7376 209.169903 
L 590.7816 205.901969 
L 595.4688 204.181337 
L 598.8168 202.701472 
L 600.8256 201.525741 
L 602.8344 200.024875 
L 603.504 199.432211 
L 604.1736 198.600401 
L 604.8432 197.380736 
L 605.5128 195.065972 
L 606.1824 187.739611 
L 606.852 150.884006 
L 607.5216 60.400911 
L 608.1912 64.738185 
L 608.8608 84.434298 
L 610.2 111.368284 
L 612.2088 144.235758 
L 614.2176 173.318237 
L 615.5568 190.439169 
L 616.2264 197.033596 
L 616.896 201.69906 
L 617.5656 204.817766 
L 618.2352 206.976818 
L 618.9048 208.550995 
L 619.5744 209.739863 
L 620.244 210.652769 
L 620.9136 211.355767 
L 622.2528 212.296937 
L 624.2616 213.190902 
L 625.6008 213.533089 
L 626.94 213.967715 
L 628.2792 213.993581 
L 630.288 213.857065 
L 631.6272 214.325689 
L 632.9664 214.332551 
L 633.636 214.261744 
L 634.9752 214.334901 
L 635.6448 214.285718 
L 636.984 214.385785 
L 637.6536 214.349593 
L 639.6624 215.32392 
L 641.0016 215.552427 
L 643.68 216.068968 
L 646.3584 216.593343 
L 648.3672 216.803947 
L 649.7064 217.214069 
L 653.0544 217.645854 
L 654.3936 218.06617 
L 658.4112 219.220338 
L 660.42 220.188321 
L 661.7592 220.459493 
L 663.768 220.619657 
L 666.4464 220.605422 
L 668.4552 220.620064 
L 669.7944 220.686351 
L 672.4728 220.512517 
L 676.4904 219.980762 
L 681.1776 219.106672 
L 686.5344 217.871493 
L 693.2304 216.081416 
L 693.9 215.891334 
L 695.9088 215.680731 
L 699.2568 214.908262 
L 705.9528 213.084117 
L 719.3448 209.152323 
L 736.7544 203.865816 
L 741.4416 202.184754 
L 742.7808 201.594336 
L 745.4592 200.987514 
L 750.816 199.284348 
L 752.8248 198.12131 
L 753.4944 197.629061 
L 754.164 196.84003 
L 754.8336 195.491294 
L 755.5032 192.371667 
L 756.1728 179.804341 
L 757.512 67.845041 
L 758.1816 74.528426 
L 759.5208 102.4046 
L 761.5296 136.864366 
L 763.5384 167.516969 
L 764.8776 185.799841 
L 765.5472 193.880866 
L 766.2168 200.381053 
L 766.8864 204.780337 
L 767.556 207.654827 
L 768.2256 209.656058 
L 769.5648 212.531805 
L 770.2344 213.624285 
L 770.904 214.423944 
L 772.2432 215.617881 
L 773.5824 216.48111 
L 774.9216 216.973017 
L 776.2608 217.130227 
L 777.6 217.239114 
L 777.6 217.239114 
" clip-path="url(#p55347ef58a)" style="fill: none; stroke: #000000; stroke-width: 1.5; stroke-linecap: square"/>
   </g>
   <g id="line2d_24">
    <path d="M 108 134.888202 
L 110.0088 134.497947 
L 112.6872 133.700495 
L 116.7048 132.508869 
L 118.7136 132.122113 
L 121.392 131.843672 
L 126.7488 131.669042 
L 134.784 131.554264 
L 137.4624 131.676809 
L 148.8456 132.858798 
L 165.5856 134.617709 
L 183.6648 136.540751 
L 195.7176 138.04829 
L 201.0744 138.868366 
L 208.44 140.359233 
L 211.788 141.292743 
L 221.832 144.176454 
L 227.8584 145.897013 
L 229.8672 146.775514 
L 233.2152 148.583314 
L 235.224 149.841375 
L 235.8936 150.331102 
L 236.5632 137.123041 
L 237.2328 134.713632 
L 237.9024 133.512444 
L 238.572 132.958457 
L 239.2416 132.715232 
L 240.5808 132.624159 
L 243.2592 132.704078 
L 245.268 132.504479 
L 253.3032 131.348091 
L 255.9816 131.141302 
L 262.008 131.052869 
L 267.3648 131.191856 
L 280.7568 132.134702 
L 287.4528 132.715715 
L 298.1664 133.804311 
L 327.6288 137.055405 
L 338.3424 138.242399 
L 341.0208 138.388774 
L 343.0296 138.280241 
L 343.6992 138.10717 
L 344.3688 137.644568 
L 345.0384 135.711023 
L 345.708 130.103636 
L 346.3776 123.443172 
L 347.0472 118.226159 
L 347.7168 114.992779 
L 348.3864 113.434358 
L 349.056 113.093869 
L 349.7256 113.598895 
L 350.3952 114.688264 
L 351.0648 116.18592 
L 352.404 119.971712 
L 354.4128 126.747251 
L 356.4216 133.425103 
L 357.7608 137.174697 
L 359.1 140.380568 
L 361.1088 144.482788 
L 363.7872 149.148689 
L 367.8048 155.590504 
L 369.8136 158.782358 
L 370.4832 141.669951 
L 371.1528 138.631448 
L 371.8224 137.016147 
L 372.492 136.190977 
L 373.1616 135.754049 
L 374.5008 135.386244 
L 377.8488 134.952131 
L 380.5272 134.241808 
L 384.5448 133.216358 
L 387.8928 132.599472 
L 391.9104 132.104342 
L 396.5976 131.871696 
L 401.2848 131.798067 
L 405.972 132.000341 
L 428.7384 133.803565 
L 460.8792 137.282834 
L 473.6016 139.014366 
L 477.6192 139.772579 
L 481.6368 140.769511 
L 486.324 142.065045 
L 489.672 143.332233 
L 491.6808 144.284459 
L 493.6896 145.464664 
L 495.6984 146.843824 
L 499.0464 149.458047 
L 503.7336 153.461003 
L 504.4032 138.772932 
L 505.0728 136.122792 
L 505.7424 134.734129 
L 506.412 134.040748 
L 507.0816 133.680855 
L 508.4208 133.366831 
L 515.1168 132.504709 
L 518.4648 131.953521 
L 522.4824 131.66437 
L 525.8304 131.519749 
L 530.5176 131.624581 
L 546.588 132.358528 
L 560.6496 133.239633 
L 575.3808 134.384269 
L 590.112 135.753973 
L 600.156 136.637059 
L 603.504 136.706764 
L 604.8432 136.617879 
L 605.5128 136.476452 
L 606.1824 136.07402 
L 606.852 134.366601 
L 607.5216 129.093138 
L 608.1912 122.667321 
L 608.8608 117.573572 
L 609.5304 114.403204 
L 610.2 112.87623 
L 610.8696 112.547671 
L 611.5392 113.050077 
L 612.2088 114.124742 
L 612.8784 115.597038 
L 614.2176 119.307411 
L 616.2264 125.940577 
L 618.2352 132.348586 
L 619.5744 135.831059 
L 620.9136 138.704159 
L 622.2528 141.111616 
L 624.2616 144.12405 
L 626.2704 146.702656 
L 628.9488 149.795663 
L 636.984 158.477351 
L 637.6536 159.247207 
L 638.3232 141.723801 
L 638.9928 138.569133 
L 639.6624 136.881332 
L 640.332 136.016538 
L 641.0016 135.555687 
L 642.3408 135.144375 
L 647.028 134.283833 
L 653.0544 132.794544 
L 655.7328 132.356484 
L 659.0808 132.078231 
L 663.0984 132.081818 
L 671.8032 132.226556 
L 685.8648 132.872383 
L 695.9088 133.523007 
L 723.3624 136.208851 
L 736.7544 137.839911 
L 754.8336 140.004478 
L 755.5032 139.858919 
L 756.1728 139.217846 
L 756.8424 136.195281 
L 758.8512 119.078344 
L 759.5208 116.083299 
L 760.1904 114.639969 
L 760.86 114.363058 
L 761.5296 114.924977 
L 762.1992 116.081562 
L 762.8688 117.666732 
L 764.208 121.696161 
L 766.2168 129.009962 
L 768.2256 136.283456 
L 769.5648 140.428894 
L 771.5736 145.778288 
L 772.2432 135.482723 
L 772.9128 133.835948 
L 773.5824 133.247639 
L 774.252 133.162461 
L 775.5912 133.488821 
L 777.6 134.018357 
L 777.6 134.018357 
" clip-path="url(#p55347ef58a)" style="fill: none; stroke: #4169e1; stroke-width: 1.5; stroke-linecap: square"/>
   </g>
   <g id="patch_3">
    <path d="M 108 256.32 
L 108 34.56 
" style="fill: none; stroke: #000000; stroke-width: 0.8; stroke-linejoin: miter; stroke-linecap: square"/>
   </g>
   <g id="patch_4">
    <path d="M 777.6 256.32 
L 777.6 34.56 
" style="fill: none; stroke: #000000; stroke-width: 0.8; stroke-linejoin: miter; stroke-linecap: square"/>
   </g>
   <g id="patch_5">
    <path d="M 108 256.32 
L 777.6 256.32 
" style="fill: none; stroke: #000000; stroke-width: 0.8; stroke-linejoin: miter; stroke-linecap: square"/>
   </g>
   <g id="patch_6">
    <path d="M 108 34.56 
L 777.6 34.56 
" style="fill: none; stroke: #000000; stroke-width: 0.8; stroke-linejoin: miter; stroke-linecap: square"/>
   </g>
   <g id="legend_1">
    <g id="patch_7">
     <path d="M 115 71.91625 
L 190.501563 71.91625 
Q 192.501563 71.91625 192.501563 69.91625 
L 192.501563 41.56 
Q 192.501563 39.56 190.501563 39.56 
L 115 39.56 
Q 113 39.56 113 41.56 
L 113 69.91625 
Q 113 71.91625 115 71.91625 
z
" style="fill: #ffffff; opacity: 0.8; stroke: #cccccc; stroke-linejoin: miter"/>
    </g>
    <g id="line2d_25">
     <path d="M 117 47.658437 
L 127 47.658437 
L 137 47.658437 
" style="fill: none; stroke: #000000; stroke-width: 1.5; stroke-linecap: square"/>
    </g>
    <g id="text_14">
     <!-- Soma -->
     <g transform="translate(145 51.158437) scale(0.1 -0.1)">
      <defs>
       <path id="DejaVuSans-53" d="M 3425 4513 
L 3425 3897 
Q 3066 4069 2747 4153 
Q 2428 4238 2131 4238 
Q 1616 4238 1336 4038 
Q 1056 3838 1056 3469 
Q 1056 3159 1242 3001 
Q 1428 2844 1947 2747 
L 2328 2669 
Q 3034 2534 3370 2195 
Q 3706 1856 3706 1288 
Q 3706 609 3251 259 
Q 2797 -91 1919 -91 
Q 1588 -91 1214 -16 
Q 841 59 441 206 
L 441 856 
Q 825 641 1194 531 
Q 1563 422 1919 422 
Q 2459 422 2753 634 
Q 3047 847 3047 1241 
Q 3047 1584 2836 1778 
Q 2625 1972 2144 2069 
L 1759 2144 
Q 1053 2284 737 2584 
Q 422 2884 422 3419 
Q 422 4038 858 4394 
Q 1294 4750 2059 4750 
Q 2388 4750 2728 4690 
Q 3069 4631 3425 4513 
z
" transform="scale(0.015625)"/>
       <path id="DejaVuSans-6f" d="M 1959 3097 
Q 1497 3097 1228 2736 
Q 959 2375 959 1747 
Q 959 1119 1226 758 
Q 1494 397 1959 397 
Q 2419 397 2687 759 
Q 2956 1122 2956 1747 
Q 2956 2369 2687 2733 
Q 2419 3097 1959 3097 
z
M 1959 3584 
Q 2709 3584 3137 3096 
Q 3566 2609 3566 1747 
Q 3566 888 3137 398 
Q 2709 -91 1959 -91 
Q 1206 -91 779 398 
Q 353 888 353 1747 
Q 353 2609 779 3096 
Q 1206 3584 1959 3584 
z
" transform="scale(0.015625)"/>
       <path id="DejaVuSans-61" d="M 2194 1759 
Q 1497 1759 1228 1600 
Q 959 1441 959 1056 
Q 959 750 1161 570 
Q 1363 391 1709 391 
Q 2188 391 2477 730 
Q 2766 1069 2766 1631 
L 2766 1759 
L 2194 1759 
z
M 3341 1997 
L 3341 0 
L 2766 0 
L 2766 531 
Q 2569 213 2275 61 
Q 1981 -91 1556 -91 
Q 1019 -91 701 211 
Q 384 513 384 1019 
Q 384 1609 779 1909 
Q 1175 2209 1959 2209 
L 2766 2209 
L 2766 2266 
Q 2766 2663 2505 2880 
Q 2244 3097 1772 3097 
Q 1472 3097 1187 3025 
Q 903 2953 641 2809 
L 641 3341 
Q 956 3463 1253 3523 
Q 1550 3584 1831 3584 
Q 2591 3584 2966 3190 
Q 3341 2797 3341 1997 
z
" transform="scale(0.015625)"/>
      </defs>
      <use xlink:href="#DejaVuSans-53"/>
      <use xlink:href="#DejaVuSans-6f" x="63.476562"/>
      <use xlink:href="#DejaVuSans-6d" x="124.658203"/>
      <use xlink:href="#DejaVuSans-61" x="222.070312"/>
     </g>
    </g>
    <g id="line2d_26">
     <path d="M 117 62.336562 
L 127 62.336562 
L 137 62.336562 
" style="fill: none; stroke: #4169e1; stroke-width: 1.5; stroke-linecap: square"/>
    </g>
    <g id="text_15">
     <!-- Dendrite -->
     <g transform="translate(145 65.836562) scale(0.1 -0.1)">
      <defs>
       <path id="DejaVuSans-44" d="M 1259 4147 
L 1259 519 
L 2022 519 
Q 2988 519 3436 956 
Q 3884 1394 3884 2338 
Q 3884 3275 3436 3711 
Q 2988 4147 2022 4147 
L 1259 4147 
z
M 628 4666 
L 1925 4666 
Q 3281 4666 3915 4102 
Q 4550 3538 4550 2338 
Q 4550 1131 3912 565 
Q 3275 0 1925 0 
L 628 0 
L 628 4666 
z
" transform="scale(0.015625)"/>
       <path id="DejaVuSans-6e" d="M 3513 2113 
L 3513 0 
L 2938 0 
L 2938 2094 
Q 2938 2591 2744 2837 
Q 2550 3084 2163 3084 
Q 1697 3084 1428 2787 
Q 1159 2491 1159 1978 
L 1159 0 
L 581 0 
L 581 3500 
L 1159 3500 
L 1159 2956 
Q 1366 3272 1645 3428 
Q 1925 3584 2291 3584 
Q 2894 3584 3203 3211 
Q 3513 2838 3513 2113 
z
" transform="scale(0.015625)"/>
       <path id="DejaVuSans-64" d="M 2906 2969 
L 2906 4863 
L 3481 4863 
L 3481 0 
L 2906 0 
L 2906 525 
Q 2725 213 2448 61 
Q 2172 -91 1784 -91 
Q 1150 -91 751 415 
Q 353 922 353 1747 
Q 353 2572 751 3078 
Q 1150 3584 1784 3584 
Q 2172 3584 2448 3432 
Q 2725 3281 2906 2969 
z
M 947 1747 
Q 947 1113 1208 752 
Q 1469 391 1925 391 
Q 2381 391 2643 752 
Q 2906 1113 2906 1747 
Q 2906 2381 2643 2742 
Q 2381 3103 1925 3103 
Q 1469 3103 1208 2742 
Q 947 2381 947 1747 
z
" transform="scale(0.015625)"/>
       <path id="DejaVuSans-72" d="M 2631 2963 
Q 2534 3019 2420 3045 
Q 2306 3072 2169 3072 
Q 1681 3072 1420 2755 
Q 1159 2438 1159 1844 
L 1159 0 
L 581 0 
L 581 3500 
L 1159 3500 
L 1159 2956 
Q 1341 3275 1631 3429 
Q 1922 3584 2338 3584 
Q 2397 3584 2469 3576 
Q 2541 3569 2628 3553 
L 2631 2963 
z
" transform="scale(0.015625)"/>
       <path id="DejaVuSans-74" d="M 1172 4494 
L 1172 3500 
L 2356 3500 
L 2356 3053 
L 1172 3053 
L 1172 1153 
Q 1172 725 1289 603 
Q 1406 481 1766 481 
L 2356 481 
L 2356 0 
L 1766 0 
Q 1100 0 847 248 
Q 594 497 594 1153 
L 594 3053 
L 172 3053 
L 172 3500 
L 594 3500 
L 594 4494 
L 1172 4494 
z
" transform="scale(0.015625)"/>
      </defs>
      <use xlink:href="#DejaVuSans-44"/>
      <use xlink:href="#DejaVuSans-65" x="77.001953"/>
      <use xlink:href="#DejaVuSans-6e" x="138.525391"/>
      <use xlink:href="#DejaVuSans-64" x="201.904297"/>
      <use xlink:href="#DejaVuSans-72" x="265.380859"/>
      <use xlink:href="#DejaVuSans-69" x="306.494141"/>
      <use xlink:href="#DejaVuSans-74" x="334.277344"/>
      <use xlink:href="#DejaVuSans-65" x="373.486328"/>
     </g>
    </g>
   </g>
  </g>
 </g>
 <defs>
  <clipPath id="p55347ef58a">
   <rect x="108" y="34.56" width="669.6" height="221.76"/>
  </clipPath>
 </defs>
</svg>
