<?xml version="1.0" encoding="utf-8" standalone="no"?>
<!DOCTYPE svg PUBLIC "-//W3C//DTD SVG 1.1//EN"
  "http://www.w3.org/Graphics/SVG/1.1/DTD/svg11.dtd">
<svg xmlns:xlink="http://www.w3.org/1999/xlink" width="864pt" height="288pt" viewBox="0 0 864 288" xmlns="http://www.w3.org/2000/svg" version="1.1">
 <metadata>
  <rdf:RDF xmlns:dc="http://purl.org/dc/elements/1.1/" xmlns:cc="http://creativecommons.org/ns#" xmlns:rdf="http://www.w3.org/1999/02/22-rdf-syntax-ns#">
   <cc:Work>
    <dc:type rdf:resource="http://purl.org/dc/dcmitype/StillImage"/>
    <dc:date>2024-04-12T18:07:54.464544</dc:date>
    <dc:format>image/svg+xml</dc:format>
    <dc:creator>
     <cc:Agent>
      <dc:title>Matplotlib v3.8.2, https://matplotlib.org/</dc:title>
     </cc:Agent>
    </dc:creator>
   </cc:Work>
  </rdf:RDF>
 </metadata>
 <defs>
  <style type="text/css">*{stroke-linejoin: round; stroke-linecap: butt}</style>
 </defs>
 <g id="figure_1">
  <g id="patch_1">
   <path d="M 0 288 
L 864 288 
L 864 0 
L 0 0 
z
" style="fill: #ffffff"/>
  </g>
  <g id="axes_1">
   <g id="patch_2">
    <path d="M 108 256.32 
L 777.6 256.32 
L 777.6 34.56 
L 108 34.56 
z
" style="fill: #ffffff"/>
   </g>
   <g id="patch_3">
    <path d="M 138.436364 256.32 
L 144.523636 256.32 
L 144.523636 192.96 
L 138.436364 192.96 
z
" clip-path="url(#p817f92f558)" style="fill: #ff4500"/>
   </g>
   <g id="patch_4">
    <path d="M 144.523636 256.32 
L 150.610909 256.32 
L 150.610909 108.48 
L 144.523636 108.48 
z
" clip-path="url(#p817f92f558)" style="fill: #ff4500"/>
   </g>
   <g id="patch_5">
    <path d="M 150.610909 256.32 
L 156.698182 256.32 
L 156.698182 256.32 
L 150.610909 256.32 
z
" clip-path="url(#p817f92f558)" style="fill: #ff4500"/>
   </g>
   <g id="patch_6">
    <path d="M 156.698182 256.32 
L 162.785455 256.32 
L 162.785455 214.08 
L 156.698182 214.08 
z
" clip-path="url(#p817f92f558)" style="fill: #ff4500"/>
   </g>
   <g id="patch_7">
    <path d="M 162.785455 256.32 
L 168.872727 256.32 
L 168.872727 192.96 
L 162.785455 192.96 
z
" clip-path="url(#p817f92f558)" style="fill: #ff4500"/>
   </g>
   <g id="patch_8">
    <path d="M 168.872727 256.32 
L 174.96 256.32 
L 174.96 214.08 
L 168.872727 214.08 
z
" clip-path="url(#p817f92f558)" style="fill: #ff4500"/>
   </g>
   <g id="patch_9">
    <path d="M 174.96 256.32 
L 181.047273 256.32 
L 181.047273 256.32 
L 174.96 256.32 
z
" clip-path="url(#p817f92f558)" style="fill: #ff4500"/>
   </g>
   <g id="patch_10">
    <path d="M 181.047273 256.32 
L 187.134545 256.32 
L 187.134545 256.32 
L 181.047273 256.32 
z
" clip-path="url(#p817f92f558)" style="fill: #ff4500"/>
   </g>
   <g id="patch_11">
    <path d="M 187.134545 256.32 
L 193.221818 256.32 
L 193.221818 256.32 
L 187.134545 256.32 
z
" clip-path="url(#p817f92f558)" style="fill: #ff4500"/>
   </g>
   <g id="patch_12">
    <path d="M 193.221818 256.32 
L 199.309091 256.32 
L 199.309091 256.32 
L 193.221818 256.32 
z
" clip-path="url(#p817f92f558)" style="fill: #ff4500"/>
   </g>
   <g id="patch_13">
    <path d="M 199.309091 256.32 
L 205.396364 256.32 
L 205.396364 256.32 
L 199.309091 256.32 
z
" clip-path="url(#p817f92f558)" style="fill: #ff4500"/>
   </g>
   <g id="patch_14">
    <path d="M 205.396364 256.32 
L 211.483636 256.32 
L 211.483636 256.32 
L 205.396364 256.32 
z
" clip-path="url(#p817f92f558)" style="fill: #ff4500"/>
   </g>
   <g id="patch_15">
    <path d="M 211.483636 256.32 
L 217.570909 256.32 
L 217.570909 256.32 
L 211.483636 256.32 
z
" clip-path="url(#p817f92f558)" style="fill: #ff4500"/>
   </g>
   <g id="patch_16">
    <path d="M 217.570909 256.32 
L 223.658182 256.32 
L 223.658182 235.2 
L 217.570909 235.2 
z
" clip-path="url(#p817f92f558)" style="fill: #ff4500"/>
   </g>
   <g id="patch_17">
    <path d="M 223.658182 256.32 
L 229.745455 256.32 
L 229.745455 214.08 
L 223.658182 214.08 
z
" clip-path="url(#p817f92f558)" style="fill: #ff4500"/>
   </g>
   <g id="patch_18">
    <path d="M 229.745455 256.32 
L 235.832727 256.32 
L 235.832727 256.32 
L 229.745455 256.32 
z
" clip-path="url(#p817f92f558)" style="fill: #ff4500"/>
   </g>
   <g id="patch_19">
    <path d="M 235.832727 256.32 
L 241.92 256.32 
L 241.92 256.32 
L 235.832727 256.32 
z
" clip-path="url(#p817f92f558)" style="fill: #ff4500"/>
   </g>
   <g id="patch_20">
    <path d="M 241.92 256.32 
L 248.007273 256.32 
L 248.007273 192.96 
L 241.92 192.96 
z
" clip-path="url(#p817f92f558)" style="fill: #ff4500"/>
   </g>
   <g id="patch_21">
    <path d="M 248.007273 256.32 
L 254.094545 256.32 
L 254.094545 171.84 
L 248.007273 171.84 
z
" clip-path="url(#p817f92f558)" style="fill: #ff4500"/>
   </g>
   <g id="patch_22">
    <path d="M 254.094545 256.32 
L 260.181818 256.32 
L 260.181818 129.6 
L 254.094545 129.6 
z
" clip-path="url(#p817f92f558)" style="fill: #ff4500"/>
   </g>
   <g id="patch_23">
    <path d="M 260.181818 256.32 
L 266.269091 256.32 
L 266.269091 171.84 
L 260.181818 171.84 
z
" clip-path="url(#p817f92f558)" style="fill: #ff4500"/>
   </g>
   <g id="patch_24">
    <path d="M 266.269091 256.32 
L 272.356364 256.32 
L 272.356364 171.84 
L 266.269091 171.84 
z
" clip-path="url(#p817f92f558)" style="fill: #ff4500"/>
   </g>
   <g id="patch_25">
    <path d="M 272.356364 256.32 
L 278.443636 256.32 
L 278.443636 235.2 
L 272.356364 235.2 
z
" clip-path="url(#p817f92f558)" style="fill: #ff4500"/>
   </g>
   <g id="patch_26">
    <path d="M 278.443636 256.32 
L 284.530909 256.32 
L 284.530909 214.08 
L 278.443636 214.08 
z
" clip-path="url(#p817f92f558)" style="fill: #ff4500"/>
   </g>
   <g id="patch_27">
    <path d="M 284.530909 256.32 
L 290.618182 256.32 
L 290.618182 235.2 
L 284.530909 235.2 
z
" clip-path="url(#p817f92f558)" style="fill: #ff4500"/>
   </g>
   <g id="patch_28">
    <path d="M 290.618182 256.32 
L 296.705455 256.32 
L 296.705455 235.2 
L 290.618182 235.2 
z
" clip-path="url(#p817f92f558)" style="fill: #ff4500"/>
   </g>
   <g id="patch_29">
    <path d="M 296.705455 256.32 
L 302.792727 256.32 
L 302.792727 256.32 
L 296.705455 256.32 
z
" clip-path="url(#p817f92f558)" style="fill: #ff4500"/>
   </g>
   <g id="patch_30">
    <path d="M 302.792727 256.32 
L 308.88 256.32 
L 308.88 235.2 
L 302.792727 235.2 
z
" clip-path="url(#p817f92f558)" style="fill: #ff4500"/>
   </g>
   <g id="patch_31">
    <path d="M 308.88 256.32 
L 314.967273 256.32 
L 314.967273 256.32 
L 308.88 256.32 
z
" clip-path="url(#p817f92f558)" style="fill: #ff4500"/>
   </g>
   <g id="patch_32">
    <path d="M 314.967273 256.32 
L 321.054545 256.32 
L 321.054545 256.32 
L 314.967273 256.32 
z
" clip-path="url(#p817f92f558)" style="fill: #ff4500"/>
   </g>
   <g id="patch_33">
    <path d="M 321.054545 256.32 
L 327.141818 256.32 
L 327.141818 256.32 
L 321.054545 256.32 
z
" clip-path="url(#p817f92f558)" style="fill: #ff4500"/>
   </g>
   <g id="patch_34">
    <path d="M 327.141818 256.32 
L 333.229091 256.32 
L 333.229091 256.32 
L 327.141818 256.32 
z
" clip-path="url(#p817f92f558)" style="fill: #ff4500"/>
   </g>
   <g id="patch_35">
    <path d="M 333.229091 256.32 
L 339.316364 256.32 
L 339.316364 256.32 
L 333.229091 256.32 
z
" clip-path="url(#p817f92f558)" style="fill: #ff4500"/>
   </g>
   <g id="patch_36">
    <path d="M 339.316364 256.32 
L 345.403636 256.32 
L 345.403636 256.32 
L 339.316364 256.32 
z
" clip-path="url(#p817f92f558)" style="fill: #ff4500"/>
   </g>
   <g id="patch_37">
    <path d="M 345.403636 256.32 
L 351.490909 256.32 
L 351.490909 256.32 
L 345.403636 256.32 
z
" clip-path="url(#p817f92f558)" style="fill: #ff4500"/>
   </g>
   <g id="patch_38">
    <path d="M 351.490909 256.32 
L 357.578182 256.32 
L 357.578182 235.2 
L 351.490909 235.2 
z
" clip-path="url(#p817f92f558)" style="fill: #ff4500"/>
   </g>
   <g id="patch_39">
    <path d="M 357.578182 256.32 
L 363.665455 256.32 
L 363.665455 192.96 
L 357.578182 192.96 
z
" clip-path="url(#p817f92f558)" style="fill: #ff4500"/>
   </g>
   <g id="patch_40">
    <path d="M 363.665455 256.32 
L 369.752727 256.32 
L 369.752727 150.72 
L 363.665455 150.72 
z
" clip-path="url(#p817f92f558)" style="fill: #ff4500"/>
   </g>
   <g id="patch_41">
    <path d="M 369.752727 256.32 
L 375.84 256.32 
L 375.84 214.08 
L 369.752727 214.08 
z
" clip-path="url(#p817f92f558)" style="fill: #ff4500"/>
   </g>
   <g id="patch_42">
    <path d="M 375.84 256.32 
L 381.927273 256.32 
L 381.927273 150.72 
L 375.84 150.72 
z
" clip-path="url(#p817f92f558)" style="fill: #ff4500"/>
   </g>
   <g id="patch_43">
    <path d="M 381.927273 256.32 
L 388.014545 256.32 
L 388.014545 171.84 
L 381.927273 171.84 
z
" clip-path="url(#p817f92f558)" style="fill: #ff4500"/>
   </g>
   <g id="patch_44">
    <path d="M 388.014545 256.32 
L 394.101818 256.32 
L 394.101818 214.08 
L 388.014545 214.08 
z
" clip-path="url(#p817f92f558)" style="fill: #ff4500"/>
   </g>
   <g id="patch_45">
    <path d="M 394.101818 256.32 
L 400.189091 256.32 
L 400.189091 214.08 
L 394.101818 214.08 
z
" clip-path="url(#p817f92f558)" style="fill: #ff4500"/>
   </g>
   <g id="patch_46">
    <path d="M 400.189091 256.32 
L 406.276364 256.32 
L 406.276364 192.96 
L 400.189091 192.96 
z
" clip-path="url(#p817f92f558)" style="fill: #ff4500"/>
   </g>
   <g id="patch_47">
    <path d="M 406.276364 256.32 
L 412.363636 256.32 
L 412.363636 214.08 
L 406.276364 214.08 
z
" clip-path="url(#p817f92f558)" style="fill: #ff4500"/>
   </g>
   <g id="patch_48">
    <path d="M 412.363636 256.32 
L 418.450909 256.32 
L 418.450909 256.32 
L 412.363636 256.32 
z
" clip-path="url(#p817f92f558)" style="fill: #ff4500"/>
   </g>
   <g id="patch_49">
    <path d="M 418.450909 256.32 
L 424.538182 256.32 
L 424.538182 256.32 
L 418.450909 256.32 
z
" clip-path="url(#p817f92f558)" style="fill: #ff4500"/>
   </g>
   <g id="patch_50">
    <path d="M 424.538182 256.32 
L 430.625455 256.32 
L 430.625455 235.2 
L 424.538182 235.2 
z
" clip-path="url(#p817f92f558)" style="fill: #ff4500"/>
   </g>
   <g id="patch_51">
    <path d="M 430.625455 256.32 
L 436.712727 256.32 
L 436.712727 256.32 
L 430.625455 256.32 
z
" clip-path="url(#p817f92f558)" style="fill: #ff4500"/>
   </g>
   <g id="patch_52">
    <path d="M 436.712727 256.32 
L 442.8 256.32 
L 442.8 256.32 
L 436.712727 256.32 
z
" clip-path="url(#p817f92f558)" style="fill: #ff4500"/>
   </g>
   <g id="patch_53">
    <path d="M 442.8 256.32 
L 448.887273 256.32 
L 448.887273 256.32 
L 442.8 256.32 
z
" clip-path="url(#p817f92f558)" style="fill: #ff4500"/>
   </g>
   <g id="patch_54">
    <path d="M 448.887273 256.32 
L 454.974545 256.32 
L 454.974545 256.32 
L 448.887273 256.32 
z
" clip-path="url(#p817f92f558)" style="fill: #ff4500"/>
   </g>
   <g id="patch_55">
    <path d="M 454.974545 256.32 
L 461.061818 256.32 
L 461.061818 256.32 
L 454.974545 256.32 
z
" clip-path="url(#p817f92f558)" style="fill: #ff4500"/>
   </g>
   <g id="patch_56">
    <path d="M 461.061818 256.32 
L 467.149091 256.32 
L 467.149091 256.32 
L 461.061818 256.32 
z
" clip-path="url(#p817f92f558)" style="fill: #ff4500"/>
   </g>
   <g id="patch_57">
    <path d="M 467.149091 256.32 
L 473.236364 256.32 
L 473.236364 235.2 
L 467.149091 235.2 
z
" clip-path="url(#p817f92f558)" style="fill: #ff4500"/>
   </g>
   <g id="patch_58">
    <path d="M 473.236364 256.32 
L 479.323636 256.32 
L 479.323636 214.08 
L 473.236364 214.08 
z
" clip-path="url(#p817f92f558)" style="fill: #ff4500"/>
   </g>
   <g id="patch_59">
    <path d="M 479.323636 256.32 
L 485.410909 256.32 
L 485.410909 192.96 
L 479.323636 192.96 
z
" clip-path="url(#p817f92f558)" style="fill: #ff4500"/>
   </g>
   <g id="patch_60">
    <path d="M 485.410909 256.32 
L 491.498182 256.32 
L 491.498182 150.72 
L 485.410909 150.72 
z
" clip-path="url(#p817f92f558)" style="fill: #ff4500"/>
   </g>
   <g id="patch_61">
    <path d="M 491.498182 256.32 
L 497.585455 256.32 
L 497.585455 235.2 
L 491.498182 235.2 
z
" clip-path="url(#p817f92f558)" style="fill: #ff4500"/>
   </g>
   <g id="patch_62">
    <path d="M 497.585455 256.32 
L 503.672727 256.32 
L 503.672727 129.6 
L 497.585455 129.6 
z
" clip-path="url(#p817f92f558)" style="fill: #ff4500"/>
   </g>
   <g id="patch_63">
    <path d="M 503.672727 256.32 
L 509.76 256.32 
L 509.76 171.84 
L 503.672727 171.84 
z
" clip-path="url(#p817f92f558)" style="fill: #ff4500"/>
   </g>
   <g id="patch_64">
    <path d="M 509.76 256.32 
L 515.847273 256.32 
L 515.847273 150.72 
L 509.76 150.72 
z
" clip-path="url(#p817f92f558)" style="fill: #ff4500"/>
   </g>
   <g id="patch_65">
    <path d="M 515.847273 256.32 
L 521.934545 256.32 
L 521.934545 192.96 
L 515.847273 192.96 
z
" clip-path="url(#p817f92f558)" style="fill: #ff4500"/>
   </g>
   <g id="patch_66">
    <path d="M 521.934545 256.32 
L 528.021818 256.32 
L 528.021818 256.32 
L 521.934545 256.32 
z
" clip-path="url(#p817f92f558)" style="fill: #ff4500"/>
   </g>
   <g id="patch_67">
    <path d="M 528.021818 256.32 
L 534.109091 256.32 
L 534.109091 256.32 
L 528.021818 256.32 
z
" clip-path="url(#p817f92f558)" style="fill: #ff4500"/>
   </g>
   <g id="patch_68">
    <path d="M 534.109091 256.32 
L 540.196364 256.32 
L 540.196364 256.32 
L 534.109091 256.32 
z
" clip-path="url(#p817f92f558)" style="fill: #ff4500"/>
   </g>
   <g id="patch_69">
    <path d="M 540.196364 256.32 
L 546.283636 256.32 
L 546.283636 256.32 
L 540.196364 256.32 
z
" clip-path="url(#p817f92f558)" style="fill: #ff4500"/>
   </g>
   <g id="patch_70">
    <path d="M 546.283636 256.32 
L 552.370909 256.32 
L 552.370909 256.32 
L 546.283636 256.32 
z
" clip-path="url(#p817f92f558)" style="fill: #ff4500"/>
   </g>
   <g id="patch_71">
    <path d="M 552.370909 256.32 
L 558.458182 256.32 
L 558.458182 256.32 
L 552.370909 256.32 
z
" clip-path="url(#p817f92f558)" style="fill: #ff4500"/>
   </g>
   <g id="patch_72">
    <path d="M 558.458182 256.32 
L 564.545455 256.32 
L 564.545455 256.32 
L 558.458182 256.32 
z
" clip-path="url(#p817f92f558)" style="fill: #ff4500"/>
   </g>
   <g id="patch_73">
    <path d="M 564.545455 256.32 
L 570.632727 256.32 
L 570.632727 256.32 
L 564.545455 256.32 
z
" clip-path="url(#p817f92f558)" style="fill: #ff4500"/>
   </g>
   <g id="patch_74">
    <path d="M 570.632727 256.32 
L 576.72 256.32 
L 576.72 256.32 
L 570.632727 256.32 
z
" clip-path="url(#p817f92f558)" style="fill: #ff4500"/>
   </g>
   <g id="patch_75">
    <path d="M 576.72 256.32 
L 582.807273 256.32 
L 582.807273 256.32 
L 576.72 256.32 
z
" clip-path="url(#p817f92f558)" style="fill: #ff4500"/>
   </g>
   <g id="patch_76">
    <path d="M 582.807273 256.32 
L 588.894545 256.32 
L 588.894545 235.2 
L 582.807273 235.2 
z
" clip-path="url(#p817f92f558)" style="fill: #ff4500"/>
   </g>
   <g id="patch_77">
    <path d="M 588.894545 256.32 
L 594.981818 256.32 
L 594.981818 256.32 
L 588.894545 256.32 
z
" clip-path="url(#p817f92f558)" style="fill: #ff4500"/>
   </g>
   <g id="patch_78">
    <path d="M 594.981818 256.32 
L 601.069091 256.32 
L 601.069091 235.2 
L 594.981818 235.2 
z
" clip-path="url(#p817f92f558)" style="fill: #ff4500"/>
   </g>
   <g id="patch_79">
    <path d="M 601.069091 256.32 
L 607.156364 256.32 
L 607.156364 235.2 
L 601.069091 235.2 
z
" clip-path="url(#p817f92f558)" style="fill: #ff4500"/>
   </g>
   <g id="patch_80">
    <path d="M 607.156364 256.32 
L 613.243636 256.32 
L 613.243636 150.72 
L 607.156364 150.72 
z
" clip-path="url(#p817f92f558)" style="fill: #ff4500"/>
   </g>
   <g id="patch_81">
    <path d="M 613.243636 256.32 
L 619.330909 256.32 
L 619.330909 192.96 
L 613.243636 192.96 
z
" clip-path="url(#p817f92f558)" style="fill: #ff4500"/>
   </g>
   <g id="patch_82">
    <path d="M 619.330909 256.32 
L 625.418182 256.32 
L 625.418182 129.6 
L 619.330909 129.6 
z
" clip-path="url(#p817f92f558)" style="fill: #ff4500"/>
   </g>
   <g id="patch_83">
    <path d="M 625.418182 256.32 
L 631.505455 256.32 
L 631.505455 192.96 
L 625.418182 192.96 
z
" clip-path="url(#p817f92f558)" style="fill: #ff4500"/>
   </g>
   <g id="patch_84">
    <path d="M 631.505455 256.32 
L 637.592727 256.32 
L 637.592727 150.72 
L 631.505455 150.72 
z
" clip-path="url(#p817f92f558)" style="fill: #ff4500"/>
   </g>
   <g id="patch_85">
    <path d="M 637.592727 256.32 
L 643.68 256.32 
L 643.68 192.96 
L 637.592727 192.96 
z
" clip-path="url(#p817f92f558)" style="fill: #ff4500"/>
   </g>
   <g id="patch_86">
    <path d="M 643.68 256.32 
L 649.767273 256.32 
L 649.767273 235.2 
L 643.68 235.2 
z
" clip-path="url(#p817f92f558)" style="fill: #ff4500"/>
   </g>
   <g id="patch_87">
    <path d="M 649.767273 256.32 
L 655.854545 256.32 
L 655.854545 256.32 
L 649.767273 256.32 
z
" clip-path="url(#p817f92f558)" style="fill: #ff4500"/>
   </g>
   <g id="patch_88">
    <path d="M 655.854545 256.32 
L 661.941818 256.32 
L 661.941818 256.32 
L 655.854545 256.32 
z
" clip-path="url(#p817f92f558)" style="fill: #ff4500"/>
   </g>
   <g id="patch_89">
    <path d="M 661.941818 256.32 
L 668.029091 256.32 
L 668.029091 256.32 
L 661.941818 256.32 
z
" clip-path="url(#p817f92f558)" style="fill: #ff4500"/>
   </g>
   <g id="patch_90">
    <path d="M 668.029091 256.32 
L 674.116364 256.32 
L 674.116364 235.2 
L 668.029091 235.2 
z
" clip-path="url(#p817f92f558)" style="fill: #ff4500"/>
   </g>
   <g id="patch_91">
    <path d="M 674.116364 256.32 
L 680.203636 256.32 
L 680.203636 256.32 
L 674.116364 256.32 
z
" clip-path="url(#p817f92f558)" style="fill: #ff4500"/>
   </g>
   <g id="patch_92">
    <path d="M 680.203636 256.32 
L 686.290909 256.32 
L 686.290909 256.32 
L 680.203636 256.32 
z
" clip-path="url(#p817f92f558)" style="fill: #ff4500"/>
   </g>
   <g id="patch_93">
    <path d="M 686.290909 256.32 
L 692.378182 256.32 
L 692.378182 256.32 
L 686.290909 256.32 
z
" clip-path="url(#p817f92f558)" style="fill: #ff4500"/>
   </g>
   <g id="patch_94">
    <path d="M 692.378182 256.32 
L 698.465455 256.32 
L 698.465455 256.32 
L 692.378182 256.32 
z
" clip-path="url(#p817f92f558)" style="fill: #ff4500"/>
   </g>
   <g id="patch_95">
    <path d="M 698.465455 256.32 
L 704.552727 256.32 
L 704.552727 256.32 
L 698.465455 256.32 
z
" clip-path="url(#p817f92f558)" style="fill: #ff4500"/>
   </g>
   <g id="patch_96">
    <path d="M 704.552727 256.32 
L 710.64 256.32 
L 710.64 256.32 
L 704.552727 256.32 
z
" clip-path="url(#p817f92f558)" style="fill: #ff4500"/>
   </g>
   <g id="patch_97">
    <path d="M 710.64 256.32 
L 716.727273 256.32 
L 716.727273 235.2 
L 710.64 235.2 
z
" clip-path="url(#p817f92f558)" style="fill: #ff4500"/>
   </g>
   <g id="patch_98">
    <path d="M 716.727273 256.32 
L 722.814545 256.32 
L 722.814545 235.2 
L 716.727273 235.2 
z
" clip-path="url(#p817f92f558)" style="fill: #ff4500"/>
   </g>
   <g id="patch_99">
    <path d="M 722.814545 256.32 
L 728.901818 256.32 
L 728.901818 214.08 
L 722.814545 214.08 
z
" clip-path="url(#p817f92f558)" style="fill: #ff4500"/>
   </g>
   <g id="patch_100">
    <path d="M 728.901818 256.32 
L 734.989091 256.32 
L 734.989091 214.08 
L 728.901818 214.08 
z
" clip-path="url(#p817f92f558)" style="fill: #ff4500"/>
   </g>
   <g id="patch_101">
    <path d="M 734.989091 256.32 
L 741.076364 256.32 
L 741.076364 192.96 
L 734.989091 192.96 
z
" clip-path="url(#p817f92f558)" style="fill: #ff4500"/>
   </g>
   <g id="patch_102">
    <path d="M 741.076364 256.32 
L 747.163636 256.32 
L 747.163636 192.96 
L 741.076364 192.96 
z
" clip-path="url(#p817f92f558)" style="fill: #ff4500"/>
   </g>
   <g id="patch_103">
    <path d="M 138.436364 256.32 
L 144.523636 256.32 
L 144.523636 256.32 
L 138.436364 256.32 
z
" clip-path="url(#p817f92f558)" style="fill: #32cd32"/>
   </g>
   <g id="patch_104">
    <path d="M 144.523636 256.32 
L 150.610909 256.32 
L 150.610909 256.32 
L 144.523636 256.32 
z
" clip-path="url(#p817f92f558)" style="fill: #32cd32"/>
   </g>
   <g id="patch_105">
    <path d="M 150.610909 256.32 
L 156.698182 256.32 
L 156.698182 256.32 
L 150.610909 256.32 
z
" clip-path="url(#p817f92f558)" style="fill: #32cd32"/>
   </g>
   <g id="patch_106">
    <path d="M 156.698182 256.32 
L 162.785455 256.32 
L 162.785455 256.32 
L 156.698182 256.32 
z
" clip-path="url(#p817f92f558)" style="fill: #32cd32"/>
   </g>
   <g id="patch_107">
    <path d="M 162.785455 256.32 
L 168.872727 256.32 
L 168.872727 256.32 
L 162.785455 256.32 
z
" clip-path="url(#p817f92f558)" style="fill: #32cd32"/>
   </g>
   <g id="patch_108">
    <path d="M 168.872727 256.32 
L 174.96 256.32 
L 174.96 256.32 
L 168.872727 256.32 
z
" clip-path="url(#p817f92f558)" style="fill: #32cd32"/>
   </g>
   <g id="patch_109">
    <path d="M 174.96 256.32 
L 181.047273 256.32 
L 181.047273 256.32 
L 174.96 256.32 
z
" clip-path="url(#p817f92f558)" style="fill: #32cd32"/>
   </g>
   <g id="patch_110">
    <path d="M 181.047273 256.32 
L 187.134545 256.32 
L 187.134545 256.32 
L 181.047273 256.32 
z
" clip-path="url(#p817f92f558)" style="fill: #32cd32"/>
   </g>
   <g id="patch_111">
    <path d="M 187.134545 256.32 
L 193.221818 256.32 
L 193.221818 256.32 
L 187.134545 256.32 
z
" clip-path="url(#p817f92f558)" style="fill: #32cd32"/>
   </g>
   <g id="patch_112">
    <path d="M 193.221818 256.32 
L 199.309091 256.32 
L 199.309091 256.32 
L 193.221818 256.32 
z
" clip-path="url(#p817f92f558)" style="fill: #32cd32"/>
   </g>
   <g id="patch_113">
    <path d="M 199.309091 256.32 
L 205.396364 256.32 
L 205.396364 45.12 
L 199.309091 45.12 
z
" clip-path="url(#p817f92f558)" style="fill: #32cd32"/>
   </g>
   <g id="patch_114">
    <path d="M 205.396364 256.32 
L 211.483636 256.32 
L 211.483636 256.32 
L 205.396364 256.32 
z
" clip-path="url(#p817f92f558)" style="fill: #32cd32"/>
   </g>
   <g id="patch_115">
    <path d="M 211.483636 256.32 
L 217.570909 256.32 
L 217.570909 256.32 
L 211.483636 256.32 
z
" clip-path="url(#p817f92f558)" style="fill: #32cd32"/>
   </g>
   <g id="patch_116">
    <path d="M 217.570909 256.32 
L 223.658182 256.32 
L 223.658182 256.32 
L 217.570909 256.32 
z
" clip-path="url(#p817f92f558)" style="fill: #32cd32"/>
   </g>
   <g id="patch_117">
    <path d="M 223.658182 256.32 
L 229.745455 256.32 
L 229.745455 256.32 
L 223.658182 256.32 
z
" clip-path="url(#p817f92f558)" style="fill: #32cd32"/>
   </g>
   <g id="patch_118">
    <path d="M 229.745455 256.32 
L 235.832727 256.32 
L 235.832727 256.32 
L 229.745455 256.32 
z
" clip-path="url(#p817f92f558)" style="fill: #32cd32"/>
   </g>
   <g id="patch_119">
    <path d="M 235.832727 256.32 
L 241.92 256.32 
L 241.92 256.32 
L 235.832727 256.32 
z
" clip-path="url(#p817f92f558)" style="fill: #32cd32"/>
   </g>
   <g id="patch_120">
    <path d="M 241.92 256.32 
L 248.007273 256.32 
L 248.007273 256.32 
L 241.92 256.32 
z
" clip-path="url(#p817f92f558)" style="fill: #32cd32"/>
   </g>
   <g id="patch_121">
    <path d="M 248.007273 256.32 
L 254.094545 256.32 
L 254.094545 256.32 
L 248.007273 256.32 
z
" clip-path="url(#p817f92f558)" style="fill: #32cd32"/>
   </g>
   <g id="patch_122">
    <path d="M 254.094545 256.32 
L 260.181818 256.32 
L 260.181818 256.32 
L 254.094545 256.32 
z
" clip-path="url(#p817f92f558)" style="fill: #32cd32"/>
   </g>
   <g id="patch_123">
    <path d="M 260.181818 256.32 
L 266.269091 256.32 
L 266.269091 256.32 
L 260.181818 256.32 
z
" clip-path="url(#p817f92f558)" style="fill: #32cd32"/>
   </g>
   <g id="patch_124">
    <path d="M 266.269091 256.32 
L 272.356364 256.32 
L 272.356364 256.32 
L 266.269091 256.32 
z
" clip-path="url(#p817f92f558)" style="fill: #32cd32"/>
   </g>
   <g id="patch_125">
    <path d="M 272.356364 256.32 
L 278.443636 256.32 
L 278.443636 256.32 
L 272.356364 256.32 
z
" clip-path="url(#p817f92f558)" style="fill: #32cd32"/>
   </g>
   <g id="patch_126">
    <path d="M 278.443636 256.32 
L 284.530909 256.32 
L 284.530909 256.32 
L 278.443636 256.32 
z
" clip-path="url(#p817f92f558)" style="fill: #32cd32"/>
   </g>
   <g id="patch_127">
    <path d="M 284.530909 256.32 
L 290.618182 256.32 
L 290.618182 256.32 
L 284.530909 256.32 
z
" clip-path="url(#p817f92f558)" style="fill: #32cd32"/>
   </g>
   <g id="patch_128">
    <path d="M 290.618182 256.32 
L 296.705455 256.32 
L 296.705455 256.32 
L 290.618182 256.32 
z
" clip-path="url(#p817f92f558)" style="fill: #32cd32"/>
   </g>
   <g id="patch_129">
    <path d="M 296.705455 256.32 
L 302.792727 256.32 
L 302.792727 256.32 
L 296.705455 256.32 
z
" clip-path="url(#p817f92f558)" style="fill: #32cd32"/>
   </g>
   <g id="patch_130">
    <path d="M 302.792727 256.32 
L 308.88 256.32 
L 308.88 256.32 
L 302.792727 256.32 
z
" clip-path="url(#p817f92f558)" style="fill: #32cd32"/>
   </g>
   <g id="patch_131">
    <path d="M 308.88 256.32 
L 314.967273 256.32 
L 314.967273 256.32 
L 308.88 256.32 
z
" clip-path="url(#p817f92f558)" style="fill: #32cd32"/>
   </g>
   <g id="patch_132">
    <path d="M 314.967273 256.32 
L 321.054545 256.32 
L 321.054545 256.32 
L 314.967273 256.32 
z
" clip-path="url(#p817f92f558)" style="fill: #32cd32"/>
   </g>
   <g id="patch_133">
    <path d="M 321.054545 256.32 
L 327.141818 256.32 
L 327.141818 45.12 
L 321.054545 45.12 
z
" clip-path="url(#p817f92f558)" style="fill: #32cd32"/>
   </g>
   <g id="patch_134">
    <path d="M 327.141818 256.32 
L 333.229091 256.32 
L 333.229091 256.32 
L 327.141818 256.32 
z
" clip-path="url(#p817f92f558)" style="fill: #32cd32"/>
   </g>
   <g id="patch_135">
    <path d="M 333.229091 256.32 
L 339.316364 256.32 
L 339.316364 256.32 
L 333.229091 256.32 
z
" clip-path="url(#p817f92f558)" style="fill: #32cd32"/>
   </g>
   <g id="patch_136">
    <path d="M 339.316364 256.32 
L 345.403636 256.32 
L 345.403636 256.32 
L 339.316364 256.32 
z
" clip-path="url(#p817f92f558)" style="fill: #32cd32"/>
   </g>
   <g id="patch_137">
    <path d="M 345.403636 256.32 
L 351.490909 256.32 
L 351.490909 256.32 
L 345.403636 256.32 
z
" clip-path="url(#p817f92f558)" style="fill: #32cd32"/>
   </g>
   <g id="patch_138">
    <path d="M 351.490909 256.32 
L 357.578182 256.32 
L 357.578182 256.32 
L 351.490909 256.32 
z
" clip-path="url(#p817f92f558)" style="fill: #32cd32"/>
   </g>
   <g id="patch_139">
    <path d="M 357.578182 256.32 
L 363.665455 256.32 
L 363.665455 256.32 
L 357.578182 256.32 
z
" clip-path="url(#p817f92f558)" style="fill: #32cd32"/>
   </g>
   <g id="patch_140">
    <path d="M 363.665455 256.32 
L 369.752727 256.32 
L 369.752727 256.32 
L 363.665455 256.32 
z
" clip-path="url(#p817f92f558)" style="fill: #32cd32"/>
   </g>
   <g id="patch_141">
    <path d="M 369.752727 256.32 
L 375.84 256.32 
L 375.84 256.32 
L 369.752727 256.32 
z
" clip-path="url(#p817f92f558)" style="fill: #32cd32"/>
   </g>
   <g id="patch_142">
    <path d="M 375.84 256.32 
L 381.927273 256.32 
L 381.927273 256.32 
L 375.84 256.32 
z
" clip-path="url(#p817f92f558)" style="fill: #32cd32"/>
   </g>
   <g id="patch_143">
    <path d="M 381.927273 256.32 
L 388.014545 256.32 
L 388.014545 256.32 
L 381.927273 256.32 
z
" clip-path="url(#p817f92f558)" style="fill: #32cd32"/>
   </g>
   <g id="patch_144">
    <path d="M 388.014545 256.32 
L 394.101818 256.32 
L 394.101818 256.32 
L 388.014545 256.32 
z
" clip-path="url(#p817f92f558)" style="fill: #32cd32"/>
   </g>
   <g id="patch_145">
    <path d="M 394.101818 256.32 
L 400.189091 256.32 
L 400.189091 256.32 
L 394.101818 256.32 
z
" clip-path="url(#p817f92f558)" style="fill: #32cd32"/>
   </g>
   <g id="patch_146">
    <path d="M 400.189091 256.32 
L 406.276364 256.32 
L 406.276364 256.32 
L 400.189091 256.32 
z
" clip-path="url(#p817f92f558)" style="fill: #32cd32"/>
   </g>
   <g id="patch_147">
    <path d="M 406.276364 256.32 
L 412.363636 256.32 
L 412.363636 256.32 
L 406.276364 256.32 
z
" clip-path="url(#p817f92f558)" style="fill: #32cd32"/>
   </g>
   <g id="patch_148">
    <path d="M 412.363636 256.32 
L 418.450909 256.32 
L 418.450909 256.32 
L 412.363636 256.32 
z
" clip-path="url(#p817f92f558)" style="fill: #32cd32"/>
   </g>
   <g id="patch_149">
    <path d="M 418.450909 256.32 
L 424.538182 256.32 
L 424.538182 256.32 
L 418.450909 256.32 
z
" clip-path="url(#p817f92f558)" style="fill: #32cd32"/>
   </g>
   <g id="patch_150">
    <path d="M 424.538182 256.32 
L 430.625455 256.32 
L 430.625455 256.32 
L 424.538182 256.32 
z
" clip-path="url(#p817f92f558)" style="fill: #32cd32"/>
   </g>
   <g id="patch_151">
    <path d="M 430.625455 256.32 
L 436.712727 256.32 
L 436.712727 256.32 
L 430.625455 256.32 
z
" clip-path="url(#p817f92f558)" style="fill: #32cd32"/>
   </g>
   <g id="patch_152">
    <path d="M 436.712727 256.32 
L 442.8 256.32 
L 442.8 256.32 
L 436.712727 256.32 
z
" clip-path="url(#p817f92f558)" style="fill: #32cd32"/>
   </g>
   <g id="patch_153">
    <path d="M 442.8 256.32 
L 448.887273 256.32 
L 448.887273 45.12 
L 442.8 45.12 
z
" clip-path="url(#p817f92f558)" style="fill: #32cd32"/>
   </g>
   <g id="patch_154">
    <path d="M 448.887273 256.32 
L 454.974545 256.32 
L 454.974545 256.32 
L 448.887273 256.32 
z
" clip-path="url(#p817f92f558)" style="fill: #32cd32"/>
   </g>
   <g id="patch_155">
    <path d="M 454.974545 256.32 
L 461.061818 256.32 
L 461.061818 256.32 
L 454.974545 256.32 
z
" clip-path="url(#p817f92f558)" style="fill: #32cd32"/>
   </g>
   <g id="patch_156">
    <path d="M 461.061818 256.32 
L 467.149091 256.32 
L 467.149091 256.32 
L 461.061818 256.32 
z
" clip-path="url(#p817f92f558)" style="fill: #32cd32"/>
   </g>
   <g id="patch_157">
    <path d="M 467.149091 256.32 
L 473.236364 256.32 
L 473.236364 256.32 
L 467.149091 256.32 
z
" clip-path="url(#p817f92f558)" style="fill: #32cd32"/>
   </g>
   <g id="patch_158">
    <path d="M 473.236364 256.32 
L 479.323636 256.32 
L 479.323636 256.32 
L 473.236364 256.32 
z
" clip-path="url(#p817f92f558)" style="fill: #32cd32"/>
   </g>
   <g id="patch_159">
    <path d="M 479.323636 256.32 
L 485.410909 256.32 
L 485.410909 256.32 
L 479.323636 256.32 
z
" clip-path="url(#p817f92f558)" style="fill: #32cd32"/>
   </g>
   <g id="patch_160">
    <path d="M 485.410909 256.32 
L 491.498182 256.32 
L 491.498182 256.32 
L 485.410909 256.32 
z
" clip-path="url(#p817f92f558)" style="fill: #32cd32"/>
   </g>
   <g id="patch_161">
    <path d="M 491.498182 256.32 
L 497.585455 256.32 
L 497.585455 256.32 
L 491.498182 256.32 
z
" clip-path="url(#p817f92f558)" style="fill: #32cd32"/>
   </g>
   <g id="patch_162">
    <path d="M 497.585455 256.32 
L 503.672727 256.32 
L 503.672727 256.32 
L 497.585455 256.32 
z
" clip-path="url(#p817f92f558)" style="fill: #32cd32"/>
   </g>
   <g id="patch_163">
    <path d="M 503.672727 256.32 
L 509.76 256.32 
L 509.76 256.32 
L 503.672727 256.32 
z
" clip-path="url(#p817f92f558)" style="fill: #32cd32"/>
   </g>
   <g id="patch_164">
    <path d="M 509.76 256.32 
L 515.847273 256.32 
L 515.847273 256.32 
L 509.76 256.32 
z
" clip-path="url(#p817f92f558)" style="fill: #32cd32"/>
   </g>
   <g id="patch_165">
    <path d="M 515.847273 256.32 
L 521.934545 256.32 
L 521.934545 256.32 
L 515.847273 256.32 
z
" clip-path="url(#p817f92f558)" style="fill: #32cd32"/>
   </g>
   <g id="patch_166">
    <path d="M 521.934545 256.32 
L 528.021818 256.32 
L 528.021818 256.32 
L 521.934545 256.32 
z
" clip-path="url(#p817f92f558)" style="fill: #32cd32"/>
   </g>
   <g id="patch_167">
    <path d="M 528.021818 256.32 
L 534.109091 256.32 
L 534.109091 256.32 
L 528.021818 256.32 
z
" clip-path="url(#p817f92f558)" style="fill: #32cd32"/>
   </g>
   <g id="patch_168">
    <path d="M 534.109091 256.32 
L 540.196364 256.32 
L 540.196364 256.32 
L 534.109091 256.32 
z
" clip-path="url(#p817f92f558)" style="fill: #32cd32"/>
   </g>
   <g id="patch_169">
    <path d="M 540.196364 256.32 
L 546.283636 256.32 
L 546.283636 256.32 
L 540.196364 256.32 
z
" clip-path="url(#p817f92f558)" style="fill: #32cd32"/>
   </g>
   <g id="patch_170">
    <path d="M 546.283636 256.32 
L 552.370909 256.32 
L 552.370909 256.32 
L 546.283636 256.32 
z
" clip-path="url(#p817f92f558)" style="fill: #32cd32"/>
   </g>
   <g id="patch_171">
    <path d="M 552.370909 256.32 
L 558.458182 256.32 
L 558.458182 256.32 
L 552.370909 256.32 
z
" clip-path="url(#p817f92f558)" style="fill: #32cd32"/>
   </g>
   <g id="patch_172">
    <path d="M 558.458182 256.32 
L 564.545455 256.32 
L 564.545455 256.32 
L 558.458182 256.32 
z
" clip-path="url(#p817f92f558)" style="fill: #32cd32"/>
   </g>
   <g id="patch_173">
    <path d="M 564.545455 256.32 
L 570.632727 256.32 
L 570.632727 45.12 
L 564.545455 45.12 
z
" clip-path="url(#p817f92f558)" style="fill: #32cd32"/>
   </g>
   <g id="patch_174">
    <path d="M 570.632727 256.32 
L 576.72 256.32 
L 576.72 256.32 
L 570.632727 256.32 
z
" clip-path="url(#p817f92f558)" style="fill: #32cd32"/>
   </g>
   <g id="patch_175">
    <path d="M 576.72 256.32 
L 582.807273 256.32 
L 582.807273 256.32 
L 576.72 256.32 
z
" clip-path="url(#p817f92f558)" style="fill: #32cd32"/>
   </g>
   <g id="patch_176">
    <path d="M 582.807273 256.32 
L 588.894545 256.32 
L 588.894545 256.32 
L 582.807273 256.32 
z
" clip-path="url(#p817f92f558)" style="fill: #32cd32"/>
   </g>
   <g id="patch_177">
    <path d="M 588.894545 256.32 
L 594.981818 256.32 
L 594.981818 256.32 
L 588.894545 256.32 
z
" clip-path="url(#p817f92f558)" style="fill: #32cd32"/>
   </g>
   <g id="patch_178">
    <path d="M 594.981818 256.32 
L 601.069091 256.32 
L 601.069091 256.32 
L 594.981818 256.32 
z
" clip-path="url(#p817f92f558)" style="fill: #32cd32"/>
   </g>
   <g id="patch_179">
    <path d="M 601.069091 256.32 
L 607.156364 256.32 
L 607.156364 256.32 
L 601.069091 256.32 
z
" clip-path="url(#p817f92f558)" style="fill: #32cd32"/>
   </g>
   <g id="patch_180">
    <path d="M 607.156364 256.32 
L 613.243636 256.32 
L 613.243636 256.32 
L 607.156364 256.32 
z
" clip-path="url(#p817f92f558)" style="fill: #32cd32"/>
   </g>
   <g id="patch_181">
    <path d="M 613.243636 256.32 
L 619.330909 256.32 
L 619.330909 256.32 
L 613.243636 256.32 
z
" clip-path="url(#p817f92f558)" style="fill: #32cd32"/>
   </g>
   <g id="patch_182">
    <path d="M 619.330909 256.32 
L 625.418182 256.32 
L 625.418182 256.32 
L 619.330909 256.32 
z
" clip-path="url(#p817f92f558)" style="fill: #32cd32"/>
   </g>
   <g id="patch_183">
    <path d="M 625.418182 256.32 
L 631.505455 256.32 
L 631.505455 256.32 
L 625.418182 256.32 
z
" clip-path="url(#p817f92f558)" style="fill: #32cd32"/>
   </g>
   <g id="patch_184">
    <path d="M 631.505455 256.32 
L 637.592727 256.32 
L 637.592727 256.32 
L 631.505455 256.32 
z
" clip-path="url(#p817f92f558)" style="fill: #32cd32"/>
   </g>
   <g id="patch_185">
    <path d="M 637.592727 256.32 
L 643.68 256.32 
L 643.68 256.32 
L 637.592727 256.32 
z
" clip-path="url(#p817f92f558)" style="fill: #32cd32"/>
   </g>
   <g id="patch_186">
    <path d="M 643.68 256.32 
L 649.767273 256.32 
L 649.767273 256.32 
L 643.68 256.32 
z
" clip-path="url(#p817f92f558)" style="fill: #32cd32"/>
   </g>
   <g id="patch_187">
    <path d="M 649.767273 256.32 
L 655.854545 256.32 
L 655.854545 256.32 
L 649.767273 256.32 
z
" clip-path="url(#p817f92f558)" style="fill: #32cd32"/>
   </g>
   <g id="patch_188">
    <path d="M 655.854545 256.32 
L 661.941818 256.32 
L 661.941818 256.32 
L 655.854545 256.32 
z
" clip-path="url(#p817f92f558)" style="fill: #32cd32"/>
   </g>
   <g id="patch_189">
    <path d="M 661.941818 256.32 
L 668.029091 256.32 
L 668.029091 256.32 
L 661.941818 256.32 
z
" clip-path="url(#p817f92f558)" style="fill: #32cd32"/>
   </g>
   <g id="patch_190">
    <path d="M 668.029091 256.32 
L 674.116364 256.32 
L 674.116364 256.32 
L 668.029091 256.32 
z
" clip-path="url(#p817f92f558)" style="fill: #32cd32"/>
   </g>
   <g id="patch_191">
    <path d="M 674.116364 256.32 
L 680.203636 256.32 
L 680.203636 256.32 
L 674.116364 256.32 
z
" clip-path="url(#p817f92f558)" style="fill: #32cd32"/>
   </g>
   <g id="patch_192">
    <path d="M 680.203636 256.32 
L 686.290909 256.32 
L 686.290909 256.32 
L 680.203636 256.32 
z
" clip-path="url(#p817f92f558)" style="fill: #32cd32"/>
   </g>
   <g id="patch_193">
    <path d="M 686.290909 256.32 
L 692.378182 256.32 
L 692.378182 45.12 
L 686.290909 45.12 
z
" clip-path="url(#p817f92f558)" style="fill: #32cd32"/>
   </g>
   <g id="patch_194">
    <path d="M 692.378182 256.32 
L 698.465455 256.32 
L 698.465455 256.32 
L 692.378182 256.32 
z
" clip-path="url(#p817f92f558)" style="fill: #32cd32"/>
   </g>
   <g id="patch_195">
    <path d="M 698.465455 256.32 
L 704.552727 256.32 
L 704.552727 256.32 
L 698.465455 256.32 
z
" clip-path="url(#p817f92f558)" style="fill: #32cd32"/>
   </g>
   <g id="patch_196">
    <path d="M 704.552727 256.32 
L 710.64 256.32 
L 710.64 256.32 
L 704.552727 256.32 
z
" clip-path="url(#p817f92f558)" style="fill: #32cd32"/>
   </g>
   <g id="patch_197">
    <path d="M 710.64 256.32 
L 716.727273 256.32 
L 716.727273 256.32 
L 710.64 256.32 
z
" clip-path="url(#p817f92f558)" style="fill: #32cd32"/>
   </g>
   <g id="patch_198">
    <path d="M 716.727273 256.32 
L 722.814545 256.32 
L 722.814545 256.32 
L 716.727273 256.32 
z
" clip-path="url(#p817f92f558)" style="fill: #32cd32"/>
   </g>
   <g id="patch_199">
    <path d="M 722.814545 256.32 
L 728.901818 256.32 
L 728.901818 256.32 
L 722.814545 256.32 
z
" clip-path="url(#p817f92f558)" style="fill: #32cd32"/>
   </g>
   <g id="patch_200">
    <path d="M 728.901818 256.32 
L 734.989091 256.32 
L 734.989091 256.32 
L 728.901818 256.32 
z
" clip-path="url(#p817f92f558)" style="fill: #32cd32"/>
   </g>
   <g id="patch_201">
    <path d="M 734.989091 256.32 
L 741.076364 256.32 
L 741.076364 256.32 
L 734.989091 256.32 
z
" clip-path="url(#p817f92f558)" style="fill: #32cd32"/>
   </g>
   <g id="patch_202">
    <path d="M 741.076364 256.32 
L 747.163636 256.32 
L 747.163636 256.32 
L 741.076364 256.32 
z
" clip-path="url(#p817f92f558)" style="fill: #32cd32"/>
   </g>
   <g id="matplotlib.axis_1">
    <g id="xtick_1">
     <g id="line2d_1">
      <path d="M 138.436364 256.32 
L 138.436364 34.56 
" clip-path="url(#p817f92f558)" style="fill: none; stroke: #b0b0b0; stroke-width: 0.8; stroke-linecap: square"/>
     </g>
     <g id="line2d_2">
      <defs>
       <path id="m7549af3c99" d="M 0 0 
L 0 3.5 
" style="stroke: #000000; stroke-width: 0.8"/>
      </defs>
      <g>
       <use xlink:href="#m7549af3c99" x="138.436364" y="256.32" style="stroke: #000000; stroke-width: 0.8"/>
      </g>
     </g>
     <g id="text_1">
      <!-- 100 -->
      <g transform="translate(125.075114 273.957812) scale(0.14 -0.14)">
       <defs>
        <path id="DejaVuSans-31" d="M 794 531 
L 1825 531 
L 1825 4091 
L 703 3866 
L 703 4441 
L 1819 4666 
L 2450 4666 
L 2450 531 
L 3481 531 
L 3481 0 
L 794 0 
L 794 531 
z
" transform="scale(0.015625)"/>
        <path id="DejaVuSans-30" d="M 2034 4250 
Q 1547 4250 1301 3770 
Q 1056 3291 1056 2328 
Q 1056 1369 1301 889 
Q 1547 409 2034 409 
Q 2525 409 2770 889 
Q 3016 1369 3016 2328 
Q 3016 3291 2770 3770 
Q 2525 4250 2034 4250 
z
M 2034 4750 
Q 2819 4750 3233 4129 
Q 3647 3509 3647 2328 
Q 3647 1150 3233 529 
Q 2819 -91 2034 -91 
Q 1250 -91 836 529 
Q 422 1150 422 2328 
Q 422 3509 836 4129 
Q 1250 4750 2034 4750 
z
" transform="scale(0.015625)"/>
       </defs>
       <use xlink:href="#DejaVuSans-31"/>
       <use xlink:href="#DejaVuSans-30" x="63.623047"/>
       <use xlink:href="#DejaVuSans-30" x="127.246094"/>
      </g>
     </g>
    </g>
    <g id="xtick_2">
     <g id="line2d_3">
      <path d="M 260.181818 256.32 
L 260.181818 34.56 
" clip-path="url(#p817f92f558)" style="fill: none; stroke: #b0b0b0; stroke-width: 0.8; stroke-linecap: square"/>
     </g>
     <g id="line2d_4">
      <g>
       <use xlink:href="#m7549af3c99" x="260.181818" y="256.32" style="stroke: #000000; stroke-width: 0.8"/>
      </g>
     </g>
     <g id="text_2">
      <!-- 120 -->
      <g transform="translate(246.820568 273.957812) scale(0.14 -0.14)">
       <defs>
        <path id="DejaVuSans-32" d="M 1228 531 
L 3431 531 
L 3431 0 
L 469 0 
L 469 531 
Q 828 903 1448 1529 
Q 2069 2156 2228 2338 
Q 2531 2678 2651 2914 
Q 2772 3150 2772 3378 
Q 2772 3750 2511 3984 
Q 2250 4219 1831 4219 
Q 1534 4219 1204 4116 
Q 875 4013 500 3803 
L 500 4441 
Q 881 4594 1212 4672 
Q 1544 4750 1819 4750 
Q 2544 4750 2975 4387 
Q 3406 4025 3406 3419 
Q 3406 3131 3298 2873 
Q 3191 2616 2906 2266 
Q 2828 2175 2409 1742 
Q 1991 1309 1228 531 
z
" transform="scale(0.015625)"/>
       </defs>
       <use xlink:href="#DejaVuSans-31"/>
       <use xlink:href="#DejaVuSans-32" x="63.623047"/>
       <use xlink:href="#DejaVuSans-30" x="127.246094"/>
      </g>
     </g>
    </g>
    <g id="xtick_3">
     <g id="line2d_5">
      <path d="M 381.927273 256.32 
L 381.927273 34.56 
" clip-path="url(#p817f92f558)" style="fill: none; stroke: #b0b0b0; stroke-width: 0.8; stroke-linecap: square"/>
     </g>
     <g id="line2d_6">
      <g>
       <use xlink:href="#m7549af3c99" x="381.927273" y="256.32" style="stroke: #000000; stroke-width: 0.8"/>
      </g>
     </g>
     <g id="text_3">
      <!-- 140 -->
      <g transform="translate(368.566023 273.957812) scale(0.14 -0.14)">
       <defs>
        <path id="DejaVuSans-34" d="M 2419 4116 
L 825 1625 
L 2419 1625 
L 2419 4116 
z
M 2253 4666 
L 3047 4666 
L 3047 1625 
L 3713 1625 
L 3713 1100 
L 3047 1100 
L 3047 0 
L 2419 0 
L 2419 1100 
L 313 1100 
L 313 1709 
L 2253 4666 
z
" transform="scale(0.015625)"/>
       </defs>
       <use xlink:href="#DejaVuSans-31"/>
       <use xlink:href="#DejaVuSans-34" x="63.623047"/>
       <use xlink:href="#DejaVuSans-30" x="127.246094"/>
      </g>
     </g>
    </g>
    <g id="xtick_4">
     <g id="line2d_7">
      <path d="M 503.672727 256.32 
L 503.672727 34.56 
" clip-path="url(#p817f92f558)" style="fill: none; stroke: #b0b0b0; stroke-width: 0.8; stroke-linecap: square"/>
     </g>
     <g id="line2d_8">
      <g>
       <use xlink:href="#m7549af3c99" x="503.672727" y="256.32" style="stroke: #000000; stroke-width: 0.8"/>
      </g>
     </g>
     <g id="text_4">
      <!-- 160 -->
      <g transform="translate(490.311477 273.957812) scale(0.14 -0.14)">
       <defs>
        <path id="DejaVuSans-36" d="M 2113 2584 
Q 1688 2584 1439 2293 
Q 1191 2003 1191 1497 
Q 1191 994 1439 701 
Q 1688 409 2113 409 
Q 2538 409 2786 701 
Q 3034 994 3034 1497 
Q 3034 2003 2786 2293 
Q 2538 2584 2113 2584 
z
M 3366 4563 
L 3366 3988 
Q 3128 4100 2886 4159 
Q 2644 4219 2406 4219 
Q 1781 4219 1451 3797 
Q 1122 3375 1075 2522 
Q 1259 2794 1537 2939 
Q 1816 3084 2150 3084 
Q 2853 3084 3261 2657 
Q 3669 2231 3669 1497 
Q 3669 778 3244 343 
Q 2819 -91 2113 -91 
Q 1303 -91 875 529 
Q 447 1150 447 2328 
Q 447 3434 972 4092 
Q 1497 4750 2381 4750 
Q 2619 4750 2861 4703 
Q 3103 4656 3366 4563 
z
" transform="scale(0.015625)"/>
       </defs>
       <use xlink:href="#DejaVuSans-31"/>
       <use xlink:href="#DejaVuSans-36" x="63.623047"/>
       <use xlink:href="#DejaVuSans-30" x="127.246094"/>
      </g>
     </g>
    </g>
    <g id="xtick_5">
     <g id="line2d_9">
      <path d="M 625.418182 256.32 
L 625.418182 34.56 
" clip-path="url(#p817f92f558)" style="fill: none; stroke: #b0b0b0; stroke-width: 0.8; stroke-linecap: square"/>
     </g>
     <g id="line2d_10">
      <g>
       <use xlink:href="#m7549af3c99" x="625.418182" y="256.32" style="stroke: #000000; stroke-width: 0.8"/>
      </g>
     </g>
     <g id="text_5">
      <!-- 180 -->
      <g transform="translate(612.056932 273.957812) scale(0.14 -0.14)">
       <defs>
        <path id="DejaVuSans-38" d="M 2034 2216 
Q 1584 2216 1326 1975 
Q 1069 1734 1069 1313 
Q 1069 891 1326 650 
Q 1584 409 2034 409 
Q 2484 409 2743 651 
Q 3003 894 3003 1313 
Q 3003 1734 2745 1975 
Q 2488 2216 2034 2216 
z
M 1403 2484 
Q 997 2584 770 2862 
Q 544 3141 544 3541 
Q 544 4100 942 4425 
Q 1341 4750 2034 4750 
Q 2731 4750 3128 4425 
Q 3525 4100 3525 3541 
Q 3525 3141 3298 2862 
Q 3072 2584 2669 2484 
Q 3125 2378 3379 2068 
Q 3634 1759 3634 1313 
Q 3634 634 3220 271 
Q 2806 -91 2034 -91 
Q 1263 -91 848 271 
Q 434 634 434 1313 
Q 434 1759 690 2068 
Q 947 2378 1403 2484 
z
M 1172 3481 
Q 1172 3119 1398 2916 
Q 1625 2713 2034 2713 
Q 2441 2713 2670 2916 
Q 2900 3119 2900 3481 
Q 2900 3844 2670 4047 
Q 2441 4250 2034 4250 
Q 1625 4250 1398 4047 
Q 1172 3844 1172 3481 
z
" transform="scale(0.015625)"/>
       </defs>
       <use xlink:href="#DejaVuSans-31"/>
       <use xlink:href="#DejaVuSans-38" x="63.623047"/>
       <use xlink:href="#DejaVuSans-30" x="127.246094"/>
      </g>
     </g>
    </g>
    <g id="xtick_6">
     <g id="line2d_11">
      <path d="M 747.163636 256.32 
L 747.163636 34.56 
" clip-path="url(#p817f92f558)" style="fill: none; stroke: #b0b0b0; stroke-width: 0.8; stroke-linecap: square"/>
     </g>
     <g id="line2d_12">
      <g>
       <use xlink:href="#m7549af3c99" x="747.163636" y="256.32" style="stroke: #000000; stroke-width: 0.8"/>
      </g>
     </g>
     <g id="text_6">
      <!-- 200 -->
      <g transform="translate(733.802386 273.957812) scale(0.14 -0.14)">
       <use xlink:href="#DejaVuSans-32"/>
       <use xlink:href="#DejaVuSans-30" x="63.623047"/>
       <use xlink:href="#DejaVuSans-30" x="127.246094"/>
      </g>
     </g>
    </g>
    <g id="text_7">
     <!-- Time (ms) -->
     <g transform="translate(407.521094 291.507187) scale(0.14 -0.14)">
      <defs>
       <path id="DejaVuSans-54" d="M -19 4666 
L 3928 4666 
L 3928 4134 
L 2272 4134 
L 2272 0 
L 1638 0 
L 1638 4134 
L -19 4134 
L -19 4666 
z
" transform="scale(0.015625)"/>
       <path id="DejaVuSans-69" d="M 603 3500 
L 1178 3500 
L 1178 0 
L 603 0 
L 603 3500 
z
M 603 4863 
L 1178 4863 
L 1178 4134 
L 603 4134 
L 603 4863 
z
" transform="scale(0.015625)"/>
       <path id="DejaVuSans-6d" d="M 3328 2828 
Q 3544 3216 3844 3400 
Q 4144 3584 4550 3584 
Q 5097 3584 5394 3201 
Q 5691 2819 5691 2113 
L 5691 0 
L 5113 0 
L 5113 2094 
Q 5113 2597 4934 2840 
Q 4756 3084 4391 3084 
Q 3944 3084 3684 2787 
Q 3425 2491 3425 1978 
L 3425 0 
L 2847 0 
L 2847 2094 
Q 2847 2600 2669 2842 
Q 2491 3084 2119 3084 
Q 1678 3084 1418 2786 
Q 1159 2488 1159 1978 
L 1159 0 
L 581 0 
L 581 3500 
L 1159 3500 
L 1159 2956 
Q 1356 3278 1631 3431 
Q 1906 3584 2284 3584 
Q 2666 3584 2933 3390 
Q 3200 3197 3328 2828 
z
" transform="scale(0.015625)"/>
       <path id="DejaVuSans-65" d="M 3597 1894 
L 3597 1613 
L 953 1613 
Q 991 1019 1311 708 
Q 1631 397 2203 397 
Q 2534 397 2845 478 
Q 3156 559 3463 722 
L 3463 178 
Q 3153 47 2828 -22 
Q 2503 -91 2169 -91 
Q 1331 -91 842 396 
Q 353 884 353 1716 
Q 353 2575 817 3079 
Q 1281 3584 2069 3584 
Q 2775 3584 3186 3129 
Q 3597 2675 3597 1894 
z
M 3022 2063 
Q 3016 2534 2758 2815 
Q 2500 3097 2075 3097 
Q 1594 3097 1305 2825 
Q 1016 2553 972 2059 
L 3022 2063 
z
" transform="scale(0.015625)"/>
       <path id="DejaVuSans-20" transform="scale(0.015625)"/>
       <path id="DejaVuSans-28" d="M 1984 4856 
Q 1566 4138 1362 3434 
Q 1159 2731 1159 2009 
Q 1159 1288 1364 580 
Q 1569 -128 1984 -844 
L 1484 -844 
Q 1016 -109 783 600 
Q 550 1309 550 2009 
Q 550 2706 781 3412 
Q 1013 4119 1484 4856 
L 1984 4856 
z
" transform="scale(0.015625)"/>
       <path id="DejaVuSans-73" d="M 2834 3397 
L 2834 2853 
Q 2591 2978 2328 3040 
Q 2066 3103 1784 3103 
Q 1356 3103 1142 2972 
Q 928 2841 928 2578 
Q 928 2378 1081 2264 
Q 1234 2150 1697 2047 
L 1894 2003 
Q 2506 1872 2764 1633 
Q 3022 1394 3022 966 
Q 3022 478 2636 193 
Q 2250 -91 1575 -91 
Q 1294 -91 989 -36 
Q 684 19 347 128 
L 347 722 
Q 666 556 975 473 
Q 1284 391 1588 391 
Q 1994 391 2212 530 
Q 2431 669 2431 922 
Q 2431 1156 2273 1281 
Q 2116 1406 1581 1522 
L 1381 1569 
Q 847 1681 609 1914 
Q 372 2147 372 2553 
Q 372 3047 722 3315 
Q 1072 3584 1716 3584 
Q 2034 3584 2315 3537 
Q 2597 3491 2834 3397 
z
" transform="scale(0.015625)"/>
       <path id="DejaVuSans-29" d="M 513 4856 
L 1013 4856 
Q 1481 4119 1714 3412 
Q 1947 2706 1947 2009 
Q 1947 1309 1714 600 
Q 1481 -109 1013 -844 
L 513 -844 
Q 928 -128 1133 580 
Q 1338 1288 1338 2009 
Q 1338 2731 1133 3434 
Q 928 4138 513 4856 
z
" transform="scale(0.015625)"/>
      </defs>
      <use xlink:href="#DejaVuSans-54"/>
      <use xlink:href="#DejaVuSans-69" x="57.958984"/>
      <use xlink:href="#DejaVuSans-6d" x="85.742188"/>
      <use xlink:href="#DejaVuSans-65" x="183.154297"/>
      <use xlink:href="#DejaVuSans-20" x="244.677734"/>
      <use xlink:href="#DejaVuSans-28" x="276.464844"/>
      <use xlink:href="#DejaVuSans-6d" x="315.478516"/>
      <use xlink:href="#DejaVuSans-73" x="412.890625"/>
      <use xlink:href="#DejaVuSans-29" x="464.990234"/>
     </g>
    </g>
   </g>
   <g id="matplotlib.axis_2">
    <g id="ytick_1">
     <g id="line2d_13">
      <path d="M 108 256.32 
L 777.6 256.32 
" clip-path="url(#p817f92f558)" style="fill: none; stroke: #b0b0b0; stroke-width: 0.8; stroke-linecap: square"/>
     </g>
     <g id="line2d_14">
      <defs>
       <path id="m45f1a689ea" d="M 0 0 
L -3.5 0 
" style="stroke: #000000; stroke-width: 0.8"/>
      </defs>
      <g>
       <use xlink:href="#m45f1a689ea" x="108" y="256.32" style="stroke: #000000; stroke-width: 0.8"/>
      </g>
     </g>
     <g id="text_8">
      <!-- 0 -->
      <g transform="translate(92.0925 261.638906) scale(0.14 -0.14)">
       <use xlink:href="#DejaVuSans-30"/>
      </g>
     </g>
    </g>
    <g id="ytick_2">
     <g id="line2d_15">
      <path d="M 108 214.08 
L 777.6 214.08 
" clip-path="url(#p817f92f558)" style="fill: none; stroke: #b0b0b0; stroke-width: 0.8; stroke-linecap: square"/>
     </g>
     <g id="line2d_16">
      <g>
       <use xlink:href="#m45f1a689ea" x="108" y="214.08" style="stroke: #000000; stroke-width: 0.8"/>
      </g>
     </g>
     <g id="text_9">
      <!-- 2 -->
      <g transform="translate(92.0925 219.398906) scale(0.14 -0.14)">
       <use xlink:href="#DejaVuSans-32"/>
      </g>
     </g>
    </g>
    <g id="ytick_3">
     <g id="line2d_17">
      <path d="M 108 171.84 
L 777.6 171.84 
" clip-path="url(#p817f92f558)" style="fill: none; stroke: #b0b0b0; stroke-width: 0.8; stroke-linecap: square"/>
     </g>
     <g id="line2d_18">
      <g>
       <use xlink:href="#m45f1a689ea" x="108" y="171.84" style="stroke: #000000; stroke-width: 0.8"/>
      </g>
     </g>
     <g id="text_10">
      <!-- 4 -->
      <g transform="translate(92.0925 177.158906) scale(0.14 -0.14)">
       <use xlink:href="#DejaVuSans-34"/>
      </g>
     </g>
    </g>
    <g id="ytick_4">
     <g id="line2d_19">
      <path d="M 108 129.6 
L 777.6 129.6 
" clip-path="url(#p817f92f558)" style="fill: none; stroke: #b0b0b0; stroke-width: 0.8; stroke-linecap: square"/>
     </g>
     <g id="line2d_20">
      <g>
       <use xlink:href="#m45f1a689ea" x="108" y="129.6" style="stroke: #000000; stroke-width: 0.8"/>
      </g>
     </g>
     <g id="text_11">
      <!-- 6 -->
      <g transform="translate(92.0925 134.918906) scale(0.14 -0.14)">
       <use xlink:href="#DejaVuSans-36"/>
      </g>
     </g>
    </g>
    <g id="ytick_5">
     <g id="line2d_21">
      <path d="M 108 87.36 
L 777.6 87.36 
" clip-path="url(#p817f92f558)" style="fill: none; stroke: #b0b0b0; stroke-width: 0.8; stroke-linecap: square"/>
     </g>
     <g id="line2d_22">
      <g>
       <use xlink:href="#m45f1a689ea" x="108" y="87.36" style="stroke: #000000; stroke-width: 0.8"/>
      </g>
     </g>
     <g id="text_12">
      <!-- 8 -->
      <g transform="translate(92.0925 92.678906) scale(0.14 -0.14)">
       <use xlink:href="#DejaVuSans-38"/>
      </g>
     </g>
    </g>
    <g id="ytick_6">
     <g id="line2d_23">
      <path d="M 108 45.12 
L 777.6 45.12 
" clip-path="url(#p817f92f558)" style="fill: none; stroke: #b0b0b0; stroke-width: 0.8; stroke-linecap: square"/>
     </g>
     <g id="line2d_24">
      <g>
       <use xlink:href="#m45f1a689ea" x="108" y="45.12" style="stroke: #000000; stroke-width: 0.8"/>
      </g>
     </g>
     <g id="text_13">
      <!-- 10 -->
      <g transform="translate(83.185 50.438906) scale(0.14 -0.14)">
       <use xlink:href="#DejaVuSans-31"/>
       <use xlink:href="#DejaVuSans-30" x="63.623047"/>
      </g>
     </g>
    </g>
    <g id="text_14">
     <!-- Synapse Count -->
     <g transform="translate(76.273438 198.163125) rotate(-90) scale(0.14 -0.14)">
      <defs>
       <path id="DejaVuSans-53" d="M 3425 4513 
L 3425 3897 
Q 3066 4069 2747 4153 
Q 2428 4238 2131 4238 
Q 1616 4238 1336 4038 
Q 1056 3838 1056 3469 
Q 1056 3159 1242 3001 
Q 1428 2844 1947 2747 
L 2328 2669 
Q 3034 2534 3370 2195 
Q 3706 1856 3706 1288 
Q 3706 609 3251 259 
Q 2797 -91 1919 -91 
Q 1588 -91 1214 -16 
Q 841 59 441 206 
L 441 856 
Q 825 641 1194 531 
Q 1563 422 1919 422 
Q 2459 422 2753 634 
Q 3047 847 3047 1241 
Q 3047 1584 2836 1778 
Q 2625 1972 2144 2069 
L 1759 2144 
Q 1053 2284 737 2584 
Q 422 2884 422 3419 
Q 422 4038 858 4394 
Q 1294 4750 2059 4750 
Q 2388 4750 2728 4690 
Q 3069 4631 3425 4513 
z
" transform="scale(0.015625)"/>
       <path id="DejaVuSans-79" d="M 2059 -325 
Q 1816 -950 1584 -1140 
Q 1353 -1331 966 -1331 
L 506 -1331 
L 506 -850 
L 844 -850 
Q 1081 -850 1212 -737 
Q 1344 -625 1503 -206 
L 1606 56 
L 191 3500 
L 800 3500 
L 1894 763 
L 2988 3500 
L 3597 3500 
L 2059 -325 
z
" transform="scale(0.015625)"/>
       <path id="DejaVuSans-6e" d="M 3513 2113 
L 3513 0 
L 2938 0 
L 2938 2094 
Q 2938 2591 2744 2837 
Q 2550 3084 2163 3084 
Q 1697 3084 1428 2787 
Q 1159 2491 1159 1978 
L 1159 0 
L 581 0 
L 581 3500 
L 1159 3500 
L 1159 2956 
Q 1366 3272 1645 3428 
Q 1925 3584 2291 3584 
Q 2894 3584 3203 3211 
Q 3513 2838 3513 2113 
z
" transform="scale(0.015625)"/>
       <path id="DejaVuSans-61" d="M 2194 1759 
Q 1497 1759 1228 1600 
Q 959 1441 959 1056 
Q 959 750 1161 570 
Q 1363 391 1709 391 
Q 2188 391 2477 730 
Q 2766 1069 2766 1631 
L 2766 1759 
L 2194 1759 
z
M 3341 1997 
L 3341 0 
L 2766 0 
L 2766 531 
Q 2569 213 2275 61 
Q 1981 -91 1556 -91 
Q 1019 -91 701 211 
Q 384 513 384 1019 
Q 384 1609 779 1909 
Q 1175 2209 1959 2209 
L 2766 2209 
L 2766 2266 
Q 2766 2663 2505 2880 
Q 2244 3097 1772 3097 
Q 1472 3097 1187 3025 
Q 903 2953 641 2809 
L 641 3341 
Q 956 3463 1253 3523 
Q 1550 3584 1831 3584 
Q 2591 3584 2966 3190 
Q 3341 2797 3341 1997 
z
" transform="scale(0.015625)"/>
       <path id="DejaVuSans-70" d="M 1159 525 
L 1159 -1331 
L 581 -1331 
L 581 3500 
L 1159 3500 
L 1159 2969 
Q 1341 3281 1617 3432 
Q 1894 3584 2278 3584 
Q 2916 3584 3314 3078 
Q 3713 2572 3713 1747 
Q 3713 922 3314 415 
Q 2916 -91 2278 -91 
Q 1894 -91 1617 61 
Q 1341 213 1159 525 
z
M 3116 1747 
Q 3116 2381 2855 2742 
Q 2594 3103 2138 3103 
Q 1681 3103 1420 2742 
Q 1159 2381 1159 1747 
Q 1159 1113 1420 752 
Q 1681 391 2138 391 
Q 2594 391 2855 752 
Q 3116 1113 3116 1747 
z
" transform="scale(0.015625)"/>
       <path id="DejaVuSans-43" d="M 4122 4306 
L 4122 3641 
Q 3803 3938 3442 4084 
Q 3081 4231 2675 4231 
Q 1875 4231 1450 3742 
Q 1025 3253 1025 2328 
Q 1025 1406 1450 917 
Q 1875 428 2675 428 
Q 3081 428 3442 575 
Q 3803 722 4122 1019 
L 4122 359 
Q 3791 134 3420 21 
Q 3050 -91 2638 -91 
Q 1578 -91 968 557 
Q 359 1206 359 2328 
Q 359 3453 968 4101 
Q 1578 4750 2638 4750 
Q 3056 4750 3426 4639 
Q 3797 4528 4122 4306 
z
" transform="scale(0.015625)"/>
       <path id="DejaVuSans-6f" d="M 1959 3097 
Q 1497 3097 1228 2736 
Q 959 2375 959 1747 
Q 959 1119 1226 758 
Q 1494 397 1959 397 
Q 2419 397 2687 759 
Q 2956 1122 2956 1747 
Q 2956 2369 2687 2733 
Q 2419 3097 1959 3097 
z
M 1959 3584 
Q 2709 3584 3137 3096 
Q 3566 2609 3566 1747 
Q 3566 888 3137 398 
Q 2709 -91 1959 -91 
Q 1206 -91 779 398 
Q 353 888 353 1747 
Q 353 2609 779 3096 
Q 1206 3584 1959 3584 
z
" transform="scale(0.015625)"/>
       <path id="DejaVuSans-75" d="M 544 1381 
L 544 3500 
L 1119 3500 
L 1119 1403 
Q 1119 906 1312 657 
Q 1506 409 1894 409 
Q 2359 409 2629 706 
Q 2900 1003 2900 1516 
L 2900 3500 
L 3475 3500 
L 3475 0 
L 2900 0 
L 2900 538 
Q 2691 219 2414 64 
Q 2138 -91 1772 -91 
Q 1169 -91 856 284 
Q 544 659 544 1381 
z
M 1991 3584 
L 1991 3584 
z
" transform="scale(0.015625)"/>
       <path id="DejaVuSans-74" d="M 1172 4494 
L 1172 3500 
L 2356 3500 
L 2356 3053 
L 1172 3053 
L 1172 1153 
Q 1172 725 1289 603 
Q 1406 481 1766 481 
L 2356 481 
L 2356 0 
L 1766 0 
Q 1100 0 847 248 
Q 594 497 594 1153 
L 594 3053 
L 172 3053 
L 172 3500 
L 594 3500 
L 594 4494 
L 1172 4494 
z
" transform="scale(0.015625)"/>
      </defs>
      <use xlink:href="#DejaVuSans-53"/>
      <use xlink:href="#DejaVuSans-79" x="63.476562"/>
      <use xlink:href="#DejaVuSans-6e" x="122.65625"/>
      <use xlink:href="#DejaVuSans-61" x="186.035156"/>
      <use xlink:href="#DejaVuSans-70" x="247.314453"/>
      <use xlink:href="#DejaVuSans-73" x="310.791016"/>
      <use xlink:href="#DejaVuSans-65" x="362.890625"/>
      <use xlink:href="#DejaVuSans-20" x="424.414062"/>
      <use xlink:href="#DejaVuSans-43" x="456.201172"/>
      <use xlink:href="#DejaVuSans-6f" x="526.025391"/>
      <use xlink:href="#DejaVuSans-75" x="587.207031"/>
      <use xlink:href="#DejaVuSans-6e" x="650.585938"/>
      <use xlink:href="#DejaVuSans-74" x="713.964844"/>
     </g>
    </g>
   </g>
   <g id="patch_203">
    <path d="M 108 256.32 
L 108 34.56 
" style="fill: none; stroke: #000000; stroke-width: 0.8; stroke-linejoin: miter; stroke-linecap: square"/>
   </g>
   <g id="patch_204">
    <path d="M 777.6 256.32 
L 777.6 34.56 
" style="fill: none; stroke: #000000; stroke-width: 0.8; stroke-linejoin: miter; stroke-linecap: square"/>
   </g>
   <g id="patch_205">
    <path d="M 108 256.32 
L 777.6 256.32 
" style="fill: none; stroke: #000000; stroke-width: 0.8; stroke-linejoin: miter; stroke-linecap: square"/>
   </g>
   <g id="patch_206">
    <path d="M 108 34.56 
L 777.6 34.56 
" style="fill: none; stroke: #000000; stroke-width: 0.8; stroke-linejoin: miter; stroke-linecap: square"/>
   </g>
   <g id="legend_1">
    <g id="patch_207">
     <path d="M 115 71.91625 
L 196.542188 71.91625 
Q 198.542188 71.91625 198.542188 69.91625 
L 198.542188 41.56 
Q 198.542188 39.56 196.542188 39.56 
L 115 39.56 
Q 113 39.56 113 41.56 
L 113 69.91625 
Q 113 71.91625 115 71.91625 
z
" style="fill: #ffffff; opacity: 0.8; stroke: #cccccc; stroke-linejoin: miter"/>
    </g>
    <g id="patch_208">
     <path d="M 117 51.158437 
L 137 51.158437 
L 137 44.158437 
L 117 44.158437 
z
" style="fill: #ff4500"/>
    </g>
    <g id="text_15">
     <!-- Inhibition -->
     <g transform="translate(145 51.158437) scale(0.1 -0.1)">
      <defs>
       <path id="DejaVuSans-49" d="M 628 4666 
L 1259 4666 
L 1259 0 
L 628 0 
L 628 4666 
z
" transform="scale(0.015625)"/>
       <path id="DejaVuSans-68" d="M 3513 2113 
L 3513 0 
L 2938 0 
L 2938 2094 
Q 2938 2591 2744 2837 
Q 2550 3084 2163 3084 
Q 1697 3084 1428 2787 
Q 1159 2491 1159 1978 
L 1159 0 
L 581 0 
L 581 4863 
L 1159 4863 
L 1159 2956 
Q 1366 3272 1645 3428 
Q 1925 3584 2291 3584 
Q 2894 3584 3203 3211 
Q 3513 2838 3513 2113 
z
" transform="scale(0.015625)"/>
       <path id="DejaVuSans-62" d="M 3116 1747 
Q 3116 2381 2855 2742 
Q 2594 3103 2138 3103 
Q 1681 3103 1420 2742 
Q 1159 2381 1159 1747 
Q 1159 1113 1420 752 
Q 1681 391 2138 391 
Q 2594 391 2855 752 
Q 3116 1113 3116 1747 
z
M 1159 2969 
Q 1341 3281 1617 3432 
Q 1894 3584 2278 3584 
Q 2916 3584 3314 3078 
Q 3713 2572 3713 1747 
Q 3713 922 3314 415 
Q 2916 -91 2278 -91 
Q 1894 -91 1617 61 
Q 1341 213 1159 525 
L 1159 0 
L 581 0 
L 581 4863 
L 1159 4863 
L 1159 2969 
z
" transform="scale(0.015625)"/>
      </defs>
      <use xlink:href="#DejaVuSans-49"/>
      <use xlink:href="#DejaVuSans-6e" x="29.492188"/>
      <use xlink:href="#DejaVuSans-68" x="92.871094"/>
      <use xlink:href="#DejaVuSans-69" x="156.25"/>
      <use xlink:href="#DejaVuSans-62" x="184.033203"/>
      <use xlink:href="#DejaVuSans-69" x="247.509766"/>
      <use xlink:href="#DejaVuSans-74" x="275.292969"/>
      <use xlink:href="#DejaVuSans-69" x="314.501953"/>
      <use xlink:href="#DejaVuSans-6f" x="342.285156"/>
      <use xlink:href="#DejaVuSans-6e" x="403.466797"/>
     </g>
    </g>
    <g id="patch_209">
     <path d="M 117 65.836562 
L 137 65.836562 
L 137 58.836562 
L 117 58.836562 
z
" style="fill: #32cd32"/>
    </g>
    <g id="text_16">
     <!-- Excitation -->
     <g transform="translate(145 65.836562) scale(0.1 -0.1)">
      <defs>
       <path id="DejaVuSans-45" d="M 628 4666 
L 3578 4666 
L 3578 4134 
L 1259 4134 
L 1259 2753 
L 3481 2753 
L 3481 2222 
L 1259 2222 
L 1259 531 
L 3634 531 
L 3634 0 
L 628 0 
L 628 4666 
z
" transform="scale(0.015625)"/>
       <path id="DejaVuSans-78" d="M 3513 3500 
L 2247 1797 
L 3578 0 
L 2900 0 
L 1881 1375 
L 863 0 
L 184 0 
L 1544 1831 
L 300 3500 
L 978 3500 
L 1906 2253 
L 2834 3500 
L 3513 3500 
z
" transform="scale(0.015625)"/>
       <path id="DejaVuSans-63" d="M 3122 3366 
L 3122 2828 
Q 2878 2963 2633 3030 
Q 2388 3097 2138 3097 
Q 1578 3097 1268 2742 
Q 959 2388 959 1747 
Q 959 1106 1268 751 
Q 1578 397 2138 397 
Q 2388 397 2633 464 
Q 2878 531 3122 666 
L 3122 134 
Q 2881 22 2623 -34 
Q 2366 -91 2075 -91 
Q 1284 -91 818 406 
Q 353 903 353 1747 
Q 353 2603 823 3093 
Q 1294 3584 2113 3584 
Q 2378 3584 2631 3529 
Q 2884 3475 3122 3366 
z
" transform="scale(0.015625)"/>
      </defs>
      <use xlink:href="#DejaVuSans-45"/>
      <use xlink:href="#DejaVuSans-78" x="63.183594"/>
      <use xlink:href="#DejaVuSans-63" x="120.613281"/>
      <use xlink:href="#DejaVuSans-69" x="175.59375"/>
      <use xlink:href="#DejaVuSans-74" x="203.376953"/>
      <use xlink:href="#DejaVuSans-61" x="242.585938"/>
      <use xlink:href="#DejaVuSans-74" x="303.865234"/>
      <use xlink:href="#DejaVuSans-69" x="343.074219"/>
      <use xlink:href="#DejaVuSans-6f" x="370.857422"/>
      <use xlink:href="#DejaVuSans-6e" x="432.039062"/>
     </g>
    </g>
   </g>
  </g>
 </g>
 <defs>
  <clipPath id="p817f92f558">
   <rect x="108" y="34.56" width="669.6" height="221.76"/>
  </clipPath>
 </defs>
</svg>
