<?xml version="1.0" encoding="utf-8" standalone="no"?>
<!DOCTYPE svg PUBLIC "-//W3C//DTD SVG 1.1//EN"
  "http://www.w3.org/Graphics/SVG/1.1/DTD/svg11.dtd">
<svg xmlns:xlink="http://www.w3.org/1999/xlink" width="864pt" height="288pt" viewBox="0 0 864 288" xmlns="http://www.w3.org/2000/svg" version="1.1">
 <metadata>
  <rdf:RDF xmlns:dc="http://purl.org/dc/elements/1.1/" xmlns:cc="http://creativecommons.org/ns#" xmlns:rdf="http://www.w3.org/1999/02/22-rdf-syntax-ns#">
   <cc:Work>
    <dc:type rdf:resource="http://purl.org/dc/dcmitype/StillImage"/>
    <dc:date>2024-04-12T18:06:47.707497</dc:date>
    <dc:format>image/svg+xml</dc:format>
    <dc:creator>
     <cc:Agent>
      <dc:title>Matplotlib v3.8.2, https://matplotlib.org/</dc:title>
     </cc:Agent>
    </dc:creator>
   </cc:Work>
  </rdf:RDF>
 </metadata>
 <defs>
  <style type="text/css">*{stroke-linejoin: round; stroke-linecap: butt}</style>
 </defs>
 <g id="figure_1">
  <g id="patch_1">
   <path d="M 0 288 
L 864 288 
L 864 0 
L 0 0 
z
" style="fill: #ffffff"/>
  </g>
  <g id="axes_1">
   <g id="patch_2">
    <path d="M 108 256.32 
L 777.6 256.32 
L 777.6 34.56 
L 108 34.56 
z
" style="fill: #ffffff"/>
   </g>
   <g id="matplotlib.axis_1">
    <g id="xtick_1">
     <g id="line2d_1">
      <path d="M 108 256.32 
L 108 34.56 
" clip-path="url(#pbef470ce05)" style="fill: none; stroke: #b0b0b0; stroke-width: 0.8; stroke-linecap: square"/>
     </g>
     <g id="line2d_2">
      <defs>
       <path id="mf17e4791b1" d="M 0 0 
L 0 3.5 
" style="stroke: #000000; stroke-width: 0.8"/>
      </defs>
      <g>
       <use xlink:href="#mf17e4791b1" x="108" y="256.32" style="stroke: #000000; stroke-width: 0.8"/>
      </g>
     </g>
     <g id="text_1">
      <!-- 100 -->
      <g transform="translate(94.63875 273.957812) scale(0.14 -0.14)">
       <defs>
        <path id="DejaVuSans-31" d="M 794 531 
L 1825 531 
L 1825 4091 
L 703 3866 
L 703 4441 
L 1819 4666 
L 2450 4666 
L 2450 531 
L 3481 531 
L 3481 0 
L 794 0 
L 794 531 
z
" transform="scale(0.015625)"/>
        <path id="DejaVuSans-30" d="M 2034 4250 
Q 1547 4250 1301 3770 
Q 1056 3291 1056 2328 
Q 1056 1369 1301 889 
Q 1547 409 2034 409 
Q 2525 409 2770 889 
Q 3016 1369 3016 2328 
Q 3016 3291 2770 3770 
Q 2525 4250 2034 4250 
z
M 2034 4750 
Q 2819 4750 3233 4129 
Q 3647 3509 3647 2328 
Q 3647 1150 3233 529 
Q 2819 -91 2034 -91 
Q 1250 -91 836 529 
Q 422 1150 422 2328 
Q 422 3509 836 4129 
Q 1250 4750 2034 4750 
z
" transform="scale(0.015625)"/>
       </defs>
       <use xlink:href="#DejaVuSans-31"/>
       <use xlink:href="#DejaVuSans-30" x="63.623047"/>
       <use xlink:href="#DejaVuSans-30" x="127.246094"/>
      </g>
     </g>
    </g>
    <g id="xtick_2">
     <g id="line2d_3">
      <path d="M 241.92 256.32 
L 241.92 34.56 
" clip-path="url(#pbef470ce05)" style="fill: none; stroke: #b0b0b0; stroke-width: 0.8; stroke-linecap: square"/>
     </g>
     <g id="line2d_4">
      <g>
       <use xlink:href="#mf17e4791b1" x="241.92" y="256.32" style="stroke: #000000; stroke-width: 0.8"/>
      </g>
     </g>
     <g id="text_2">
      <!-- 120 -->
      <g transform="translate(228.55875 273.957812) scale(0.14 -0.14)">
       <defs>
        <path id="DejaVuSans-32" d="M 1228 531 
L 3431 531 
L 3431 0 
L 469 0 
L 469 531 
Q 828 903 1448 1529 
Q 2069 2156 2228 2338 
Q 2531 2678 2651 2914 
Q 2772 3150 2772 3378 
Q 2772 3750 2511 3984 
Q 2250 4219 1831 4219 
Q 1534 4219 1204 4116 
Q 875 4013 500 3803 
L 500 4441 
Q 881 4594 1212 4672 
Q 1544 4750 1819 4750 
Q 2544 4750 2975 4387 
Q 3406 4025 3406 3419 
Q 3406 3131 3298 2873 
Q 3191 2616 2906 2266 
Q 2828 2175 2409 1742 
Q 1991 1309 1228 531 
z
" transform="scale(0.015625)"/>
       </defs>
       <use xlink:href="#DejaVuSans-31"/>
       <use xlink:href="#DejaVuSans-32" x="63.623047"/>
       <use xlink:href="#DejaVuSans-30" x="127.246094"/>
      </g>
     </g>
    </g>
    <g id="xtick_3">
     <g id="line2d_5">
      <path d="M 375.84 256.32 
L 375.84 34.56 
" clip-path="url(#pbef470ce05)" style="fill: none; stroke: #b0b0b0; stroke-width: 0.8; stroke-linecap: square"/>
     </g>
     <g id="line2d_6">
      <g>
       <use xlink:href="#mf17e4791b1" x="375.84" y="256.32" style="stroke: #000000; stroke-width: 0.8"/>
      </g>
     </g>
     <g id="text_3">
      <!-- 140 -->
      <g transform="translate(362.47875 273.957812) scale(0.14 -0.14)">
       <defs>
        <path id="DejaVuSans-34" d="M 2419 4116 
L 825 1625 
L 2419 1625 
L 2419 4116 
z
M 2253 4666 
L 3047 4666 
L 3047 1625 
L 3713 1625 
L 3713 1100 
L 3047 1100 
L 3047 0 
L 2419 0 
L 2419 1100 
L 313 1100 
L 313 1709 
L 2253 4666 
z
" transform="scale(0.015625)"/>
       </defs>
       <use xlink:href="#DejaVuSans-31"/>
       <use xlink:href="#DejaVuSans-34" x="63.623047"/>
       <use xlink:href="#DejaVuSans-30" x="127.246094"/>
      </g>
     </g>
    </g>
    <g id="xtick_4">
     <g id="line2d_7">
      <path d="M 509.76 256.32 
L 509.76 34.56 
" clip-path="url(#pbef470ce05)" style="fill: none; stroke: #b0b0b0; stroke-width: 0.8; stroke-linecap: square"/>
     </g>
     <g id="line2d_8">
      <g>
       <use xlink:href="#mf17e4791b1" x="509.76" y="256.32" style="stroke: #000000; stroke-width: 0.8"/>
      </g>
     </g>
     <g id="text_4">
      <!-- 160 -->
      <g transform="translate(496.39875 273.957812) scale(0.14 -0.14)">
       <defs>
        <path id="DejaVuSans-36" d="M 2113 2584 
Q 1688 2584 1439 2293 
Q 1191 2003 1191 1497 
Q 1191 994 1439 701 
Q 1688 409 2113 409 
Q 2538 409 2786 701 
Q 3034 994 3034 1497 
Q 3034 2003 2786 2293 
Q 2538 2584 2113 2584 
z
M 3366 4563 
L 3366 3988 
Q 3128 4100 2886 4159 
Q 2644 4219 2406 4219 
Q 1781 4219 1451 3797 
Q 1122 3375 1075 2522 
Q 1259 2794 1537 2939 
Q 1816 3084 2150 3084 
Q 2853 3084 3261 2657 
Q 3669 2231 3669 1497 
Q 3669 778 3244 343 
Q 2819 -91 2113 -91 
Q 1303 -91 875 529 
Q 447 1150 447 2328 
Q 447 3434 972 4092 
Q 1497 4750 2381 4750 
Q 2619 4750 2861 4703 
Q 3103 4656 3366 4563 
z
" transform="scale(0.015625)"/>
       </defs>
       <use xlink:href="#DejaVuSans-31"/>
       <use xlink:href="#DejaVuSans-36" x="63.623047"/>
       <use xlink:href="#DejaVuSans-30" x="127.246094"/>
      </g>
     </g>
    </g>
    <g id="xtick_5">
     <g id="line2d_9">
      <path d="M 643.68 256.32 
L 643.68 34.56 
" clip-path="url(#pbef470ce05)" style="fill: none; stroke: #b0b0b0; stroke-width: 0.8; stroke-linecap: square"/>
     </g>
     <g id="line2d_10">
      <g>
       <use xlink:href="#mf17e4791b1" x="643.68" y="256.32" style="stroke: #000000; stroke-width: 0.8"/>
      </g>
     </g>
     <g id="text_5">
      <!-- 180 -->
      <g transform="translate(630.31875 273.957812) scale(0.14 -0.14)">
       <defs>
        <path id="DejaVuSans-38" d="M 2034 2216 
Q 1584 2216 1326 1975 
Q 1069 1734 1069 1313 
Q 1069 891 1326 650 
Q 1584 409 2034 409 
Q 2484 409 2743 651 
Q 3003 894 3003 1313 
Q 3003 1734 2745 1975 
Q 2488 2216 2034 2216 
z
M 1403 2484 
Q 997 2584 770 2862 
Q 544 3141 544 3541 
Q 544 4100 942 4425 
Q 1341 4750 2034 4750 
Q 2731 4750 3128 4425 
Q 3525 4100 3525 3541 
Q 3525 3141 3298 2862 
Q 3072 2584 2669 2484 
Q 3125 2378 3379 2068 
Q 3634 1759 3634 1313 
Q 3634 634 3220 271 
Q 2806 -91 2034 -91 
Q 1263 -91 848 271 
Q 434 634 434 1313 
Q 434 1759 690 2068 
Q 947 2378 1403 2484 
z
M 1172 3481 
Q 1172 3119 1398 2916 
Q 1625 2713 2034 2713 
Q 2441 2713 2670 2916 
Q 2900 3119 2900 3481 
Q 2900 3844 2670 4047 
Q 2441 4250 2034 4250 
Q 1625 4250 1398 4047 
Q 1172 3844 1172 3481 
z
" transform="scale(0.015625)"/>
       </defs>
       <use xlink:href="#DejaVuSans-31"/>
       <use xlink:href="#DejaVuSans-38" x="63.623047"/>
       <use xlink:href="#DejaVuSans-30" x="127.246094"/>
      </g>
     </g>
    </g>
    <g id="xtick_6">
     <g id="line2d_11">
      <path d="M 777.6 256.32 
L 777.6 34.56 
" clip-path="url(#pbef470ce05)" style="fill: none; stroke: #b0b0b0; stroke-width: 0.8; stroke-linecap: square"/>
     </g>
     <g id="line2d_12">
      <g>
       <use xlink:href="#mf17e4791b1" x="777.6" y="256.32" style="stroke: #000000; stroke-width: 0.8"/>
      </g>
     </g>
     <g id="text_6">
      <!-- 200 -->
      <g transform="translate(764.23875 273.957812) scale(0.14 -0.14)">
       <use xlink:href="#DejaVuSans-32"/>
       <use xlink:href="#DejaVuSans-30" x="63.623047"/>
       <use xlink:href="#DejaVuSans-30" x="127.246094"/>
      </g>
     </g>
    </g>
    <g id="text_7">
     <!-- Time (ms) -->
     <g transform="translate(407.521094 291.507187) scale(0.14 -0.14)">
      <defs>
       <path id="DejaVuSans-54" d="M -19 4666 
L 3928 4666 
L 3928 4134 
L 2272 4134 
L 2272 0 
L 1638 0 
L 1638 4134 
L -19 4134 
L -19 4666 
z
" transform="scale(0.015625)"/>
       <path id="DejaVuSans-69" d="M 603 3500 
L 1178 3500 
L 1178 0 
L 603 0 
L 603 3500 
z
M 603 4863 
L 1178 4863 
L 1178 4134 
L 603 4134 
L 603 4863 
z
" transform="scale(0.015625)"/>
       <path id="DejaVuSans-6d" d="M 3328 2828 
Q 3544 3216 3844 3400 
Q 4144 3584 4550 3584 
Q 5097 3584 5394 3201 
Q 5691 2819 5691 2113 
L 5691 0 
L 5113 0 
L 5113 2094 
Q 5113 2597 4934 2840 
Q 4756 3084 4391 3084 
Q 3944 3084 3684 2787 
Q 3425 2491 3425 1978 
L 3425 0 
L 2847 0 
L 2847 2094 
Q 2847 2600 2669 2842 
Q 2491 3084 2119 3084 
Q 1678 3084 1418 2786 
Q 1159 2488 1159 1978 
L 1159 0 
L 581 0 
L 581 3500 
L 1159 3500 
L 1159 2956 
Q 1356 3278 1631 3431 
Q 1906 3584 2284 3584 
Q 2666 3584 2933 3390 
Q 3200 3197 3328 2828 
z
" transform="scale(0.015625)"/>
       <path id="DejaVuSans-65" d="M 3597 1894 
L 3597 1613 
L 953 1613 
Q 991 1019 1311 708 
Q 1631 397 2203 397 
Q 2534 397 2845 478 
Q 3156 559 3463 722 
L 3463 178 
Q 3153 47 2828 -22 
Q 2503 -91 2169 -91 
Q 1331 -91 842 396 
Q 353 884 353 1716 
Q 353 2575 817 3079 
Q 1281 3584 2069 3584 
Q 2775 3584 3186 3129 
Q 3597 2675 3597 1894 
z
M 3022 2063 
Q 3016 2534 2758 2815 
Q 2500 3097 2075 3097 
Q 1594 3097 1305 2825 
Q 1016 2553 972 2059 
L 3022 2063 
z
" transform="scale(0.015625)"/>
       <path id="DejaVuSans-20" transform="scale(0.015625)"/>
       <path id="DejaVuSans-28" d="M 1984 4856 
Q 1566 4138 1362 3434 
Q 1159 2731 1159 2009 
Q 1159 1288 1364 580 
Q 1569 -128 1984 -844 
L 1484 -844 
Q 1016 -109 783 600 
Q 550 1309 550 2009 
Q 550 2706 781 3412 
Q 1013 4119 1484 4856 
L 1984 4856 
z
" transform="scale(0.015625)"/>
       <path id="DejaVuSans-73" d="M 2834 3397 
L 2834 2853 
Q 2591 2978 2328 3040 
Q 2066 3103 1784 3103 
Q 1356 3103 1142 2972 
Q 928 2841 928 2578 
Q 928 2378 1081 2264 
Q 1234 2150 1697 2047 
L 1894 2003 
Q 2506 1872 2764 1633 
Q 3022 1394 3022 966 
Q 3022 478 2636 193 
Q 2250 -91 1575 -91 
Q 1294 -91 989 -36 
Q 684 19 347 128 
L 347 722 
Q 666 556 975 473 
Q 1284 391 1588 391 
Q 1994 391 2212 530 
Q 2431 669 2431 922 
Q 2431 1156 2273 1281 
Q 2116 1406 1581 1522 
L 1381 1569 
Q 847 1681 609 1914 
Q 372 2147 372 2553 
Q 372 3047 722 3315 
Q 1072 3584 1716 3584 
Q 2034 3584 2315 3537 
Q 2597 3491 2834 3397 
z
" transform="scale(0.015625)"/>
       <path id="DejaVuSans-29" d="M 513 4856 
L 1013 4856 
Q 1481 4119 1714 3412 
Q 1947 2706 1947 2009 
Q 1947 1309 1714 600 
Q 1481 -109 1013 -844 
L 513 -844 
Q 928 -128 1133 580 
Q 1338 1288 1338 2009 
Q 1338 2731 1133 3434 
Q 928 4138 513 4856 
z
" transform="scale(0.015625)"/>
      </defs>
      <use xlink:href="#DejaVuSans-54"/>
      <use xlink:href="#DejaVuSans-69" x="57.958984"/>
      <use xlink:href="#DejaVuSans-6d" x="85.742188"/>
      <use xlink:href="#DejaVuSans-65" x="183.154297"/>
      <use xlink:href="#DejaVuSans-20" x="244.677734"/>
      <use xlink:href="#DejaVuSans-28" x="276.464844"/>
      <use xlink:href="#DejaVuSans-6d" x="315.478516"/>
      <use xlink:href="#DejaVuSans-73" x="412.890625"/>
      <use xlink:href="#DejaVuSans-29" x="464.990234"/>
     </g>
    </g>
   </g>
   <g id="matplotlib.axis_2">
    <g id="ytick_1">
     <g id="line2d_13">
      <path d="M 108 224.634136 
L 777.6 224.634136 
" clip-path="url(#pbef470ce05)" style="fill: none; stroke: #b0b0b0; stroke-width: 0.8; stroke-linecap: square"/>
     </g>
     <g id="line2d_14">
      <defs>
       <path id="m6b7aa451a7" d="M 0 0 
L -3.5 0 
" style="stroke: #000000; stroke-width: 0.8"/>
      </defs>
      <g>
       <use xlink:href="#m6b7aa451a7" x="108" y="224.634136" style="stroke: #000000; stroke-width: 0.8"/>
      </g>
     </g>
     <g id="text_8">
      <!-- −60 -->
      <g transform="translate(71.453437 229.953042) scale(0.14 -0.14)">
       <defs>
        <path id="DejaVuSans-2212" d="M 678 2272 
L 4684 2272 
L 4684 1741 
L 678 1741 
L 678 2272 
z
" transform="scale(0.015625)"/>
       </defs>
       <use xlink:href="#DejaVuSans-2212"/>
       <use xlink:href="#DejaVuSans-36" x="83.789062"/>
       <use xlink:href="#DejaVuSans-30" x="147.412109"/>
      </g>
     </g>
    </g>
    <g id="ytick_2">
     <g id="line2d_15">
      <path d="M 108 181.491262 
L 777.6 181.491262 
" clip-path="url(#pbef470ce05)" style="fill: none; stroke: #b0b0b0; stroke-width: 0.8; stroke-linecap: square"/>
     </g>
     <g id="line2d_16">
      <g>
       <use xlink:href="#m6b7aa451a7" x="108" y="181.491262" style="stroke: #000000; stroke-width: 0.8"/>
      </g>
     </g>
     <g id="text_9">
      <!-- −40 -->
      <g transform="translate(71.453437 186.810168) scale(0.14 -0.14)">
       <use xlink:href="#DejaVuSans-2212"/>
       <use xlink:href="#DejaVuSans-34" x="83.789062"/>
       <use xlink:href="#DejaVuSans-30" x="147.412109"/>
      </g>
     </g>
    </g>
    <g id="ytick_3">
     <g id="line2d_17">
      <path d="M 108 138.348388 
L 777.6 138.348388 
" clip-path="url(#pbef470ce05)" style="fill: none; stroke: #b0b0b0; stroke-width: 0.8; stroke-linecap: square"/>
     </g>
     <g id="line2d_18">
      <g>
       <use xlink:href="#m6b7aa451a7" x="108" y="138.348388" style="stroke: #000000; stroke-width: 0.8"/>
      </g>
     </g>
     <g id="text_10">
      <!-- −20 -->
      <g transform="translate(71.453437 143.667294) scale(0.14 -0.14)">
       <use xlink:href="#DejaVuSans-2212"/>
       <use xlink:href="#DejaVuSans-32" x="83.789062"/>
       <use xlink:href="#DejaVuSans-30" x="147.412109"/>
      </g>
     </g>
    </g>
    <g id="ytick_4">
     <g id="line2d_19">
      <path d="M 108 95.205513 
L 777.6 95.205513 
" clip-path="url(#pbef470ce05)" style="fill: none; stroke: #b0b0b0; stroke-width: 0.8; stroke-linecap: square"/>
     </g>
     <g id="line2d_20">
      <g>
       <use xlink:href="#m6b7aa451a7" x="108" y="95.205513" style="stroke: #000000; stroke-width: 0.8"/>
      </g>
     </g>
     <g id="text_11">
      <!-- 0 -->
      <g transform="translate(92.0925 100.52442) scale(0.14 -0.14)">
       <use xlink:href="#DejaVuSans-30"/>
      </g>
     </g>
    </g>
    <g id="ytick_5">
     <g id="line2d_21">
      <path d="M 108 52.062639 
L 777.6 52.062639 
" clip-path="url(#pbef470ce05)" style="fill: none; stroke: #b0b0b0; stroke-width: 0.8; stroke-linecap: square"/>
     </g>
     <g id="line2d_22">
      <g>
       <use xlink:href="#m6b7aa451a7" x="108" y="52.062639" style="stroke: #000000; stroke-width: 0.8"/>
      </g>
     </g>
     <g id="text_12">
      <!-- 20 -->
      <g transform="translate(83.185 57.381545) scale(0.14 -0.14)">
       <use xlink:href="#DejaVuSans-32"/>
       <use xlink:href="#DejaVuSans-30" x="63.623047"/>
      </g>
     </g>
    </g>
    <g id="text_13">
     <!-- $V_{m}$ (mV) -->
     <g transform="translate(64.541875 174.49) rotate(-90) scale(0.14 -0.14)">
      <defs>
       <path id="DejaVuSans-Oblique-56" d="M 1319 0 
L 500 4666 
L 1119 4666 
L 1797 653 
L 4063 4666 
L 4750 4666 
L 2053 0 
L 1319 0 
z
" transform="scale(0.015625)"/>
       <path id="DejaVuSans-Oblique-6d" d="M 5747 2113 
L 5338 0 
L 4763 0 
L 5166 2094 
Q 5191 2228 5203 2325 
Q 5216 2422 5216 2491 
Q 5216 2772 5059 2928 
Q 4903 3084 4622 3084 
Q 4203 3084 3875 2770 
Q 3547 2456 3450 1953 
L 3066 0 
L 2491 0 
L 2900 2094 
Q 2925 2209 2937 2307 
Q 2950 2406 2950 2484 
Q 2950 2769 2794 2926 
Q 2638 3084 2363 3084 
Q 1938 3084 1609 2770 
Q 1281 2456 1184 1953 
L 800 0 
L 225 0 
L 909 3500 
L 1484 3500 
L 1375 2956 
Q 1609 3263 1923 3423 
Q 2238 3584 2597 3584 
Q 2978 3584 3223 3384 
Q 3469 3184 3519 2828 
Q 3781 3197 4126 3390 
Q 4472 3584 4856 3584 
Q 5306 3584 5551 3325 
Q 5797 3066 5797 2591 
Q 5797 2488 5784 2364 
Q 5772 2241 5747 2113 
z
" transform="scale(0.015625)"/>
       <path id="DejaVuSans-56" d="M 1831 0 
L 50 4666 
L 709 4666 
L 2188 738 
L 3669 4666 
L 4325 4666 
L 2547 0 
L 1831 0 
z
" transform="scale(0.015625)"/>
      </defs>
      <use xlink:href="#DejaVuSans-Oblique-56" transform="translate(0 0.125)"/>
      <use xlink:href="#DejaVuSans-Oblique-6d" transform="translate(68.408203 -16.28125) scale(0.7)"/>
      <use xlink:href="#DejaVuSans-20" transform="translate(139.331055 0.125)"/>
      <use xlink:href="#DejaVuSans-28" transform="translate(171.118164 0.125)"/>
      <use xlink:href="#DejaVuSans-6d" transform="translate(210.131836 0.125)"/>
      <use xlink:href="#DejaVuSans-56" transform="translate(307.543945 0.125)"/>
      <use xlink:href="#DejaVuSans-29" transform="translate(375.952148 0.125)"/>
     </g>
    </g>
   </g>
   <g id="line2d_23">
    <path d="M 108 214.702881 
L 110.0088 214.639034 
L 111.348 214.511081 
L 112.6872 214.635552 
L 114.696 214.684898 
L 116.0352 214.883425 
L 118.044 215.481815 
L 119.3832 216.092245 
L 120.0528 216.225803 
L 121.392 216.884619 
L 122.7312 217.422656 
L 124.0704 217.652384 
L 126.0792 217.763495 
L 128.7576 217.690184 
L 132.1056 217.376612 
L 134.784 217.148225 
L 136.1232 217.281801 
L 137.4624 217.893959 
L 140.8104 218.402538 
L 142.8192 218.382541 
L 143.4888 218.342692 
L 144.828 218.499193 
L 146.8368 218.436281 
L 148.176 218.311568 
L 149.5152 218.419943 
L 151.524 218.296991 
L 154.872 217.837448 
L 159.5592 216.938982 
L 164.916 215.676526 
L 171.612 213.870043 
L 181.656 210.901035 
L 198.396 205.785859 
L 200.4048 205.631213 
L 203.7528 204.939094 
L 205.7616 204.454005 
L 207.7704 204.421067 
L 208.44 204.342403 
L 210.4488 204.505771 
L 212.4576 204.366905 
L 215.8056 203.872856 
L 219.8232 203.054529 
L 224.5104 201.87994 
L 225.8496 201.463126 
L 227.1888 201.394191 
L 229.1976 202.273876 
L 230.5368 202.59487 
L 233.2152 203.003018 
L 233.8848 203.192248 
L 234.5544 203.502661 
L 235.8936 204.509173 
L 237.2328 205.621146 
L 239.9112 207.627257 
L 241.2504 209.01747 
L 242.5896 209.772539 
L 243.9288 210.240454 
L 244.5984 210.414804 
L 245.9376 210.988241 
L 246.6072 211.178276 
L 247.9464 211.906357 
L 251.2944 213.470075 
L 252.6336 213.740305 
L 253.9728 213.888313 
L 255.9816 214.881268 
L 257.3208 215.306997 
L 259.3296 215.589139 
L 261.3384 215.84229 
L 262.6776 216.053436 
L 266.0256 216.368466 
L 267.3648 216.710014 
L 269.3736 216.834394 
L 271.3824 216.931932 
L 272.7216 217.049208 
L 275.4 216.945347 
L 278.748 216.585425 
L 282.7656 216.098911 
L 284.1048 216.061134 
L 286.7832 215.691671 
L 292.14 214.787559 
L 293.4792 214.703658 
L 296.8272 214.113101 
L 302.184 212.883679 
L 309.5496 210.933399 
L 319.5936 208.004356 
L 328.2984 205.243368 
L 332.9856 203.568435 
L 336.3336 202.126429 
L 338.3424 201.042714 
L 339.6816 200.095385 
L 341.0208 198.830586 
L 341.6904 197.89568 
L 342.36 196.580684 
L 343.0296 194.272034 
L 343.6992 188.1135 
L 344.3688 158.134772 
L 345.0384 59.530656 
L 345.708 59.0195 
L 346.3776 79.776202 
L 347.0472 95.098917 
L 348.3864 119.464725 
L 350.3952 151.715194 
L 352.404 179.988744 
L 353.0736 188.331435 
L 353.7432 195.20602 
L 354.4128 200.151905 
L 355.0824 203.766106 
L 355.752 206.278315 
L 357.0912 209.513181 
L 358.4304 211.62437 
L 359.1 212.529669 
L 359.7696 213.205082 
L 361.1088 214.039109 
L 361.7784 214.292811 
L 363.1176 215.113574 
L 364.4568 215.690204 
L 367.1352 216.112136 
L 368.4744 216.241099 
L 369.8136 216.291781 
L 371.8224 216.06139 
L 372.492 215.947536 
L 373.8312 216.245484 
L 375.1704 217.048799 
L 376.5096 217.293723 
L 378.5184 217.313728 
L 379.188 217.279921 
L 379.8576 217.380692 
L 383.2056 218.351346 
L 385.2144 218.587496 
L 389.232 218.863956 
L 391.2408 218.845842 
L 392.58 219.155416 
L 394.5888 219.169776 
L 397.2672 218.931534 
L 398.6064 218.754686 
L 401.9544 218.908038 
L 403.9632 218.925691 
L 405.3024 219.10162 
L 406.6416 219.194075 
L 408.6504 219.212166 
L 409.9896 219.257283 
L 412.668 219.014967 
L 416.6856 218.370052 
L 421.3728 217.376442 
L 427.3992 216.000709 
L 428.7384 215.84901 
L 432.0864 215.112895 
L 438.1128 213.511486 
L 448.1568 210.559324 
L 470.9232 203.57642 
L 472.932 202.89581 
L 474.9408 202.718979 
L 477.6192 202.362811 
L 478.9584 202.374125 
L 481.6368 202.067099 
L 484.3152 201.699879 
L 484.9848 201.73612 
L 486.9936 202.205032 
L 489.0024 202.343168 
L 490.3416 203.064084 
L 491.6808 203.675625 
L 493.02 204.582035 
L 494.3592 205.280108 
L 495.6984 206.188906 
L 499.0464 207.52467 
L 506.412 209.116652 
L 508.4208 209.445331 
L 511.0992 211.450699 
L 512.4384 211.933852 
L 514.4472 212.491372 
L 515.1168 212.715194 
L 516.456 213.56951 
L 517.1256 213.824281 
L 519.804 215.652769 
L 521.1432 216.063953 
L 523.8216 216.621524 
L 525.8304 217.49556 
L 528.5088 218.424948 
L 530.5176 218.828965 
L 531.8568 219.097896 
L 533.8656 219.236284 
L 536.544 219.212577 
L 539.892 218.967573 
L 543.9096 218.441972 
L 548.5968 217.587788 
L 553.9536 216.372648 
L 560.6496 214.595407 
L 568.6848 212.221613 
L 580.7376 208.414605 
L 590.7816 205.032383 
L 594.7992 203.515423 
L 598.1472 202.009659 
L 600.156 200.850252 
L 601.4952 199.833858 
L 602.8344 198.610094 
L 603.504 197.810419 
L 604.1736 196.6403 
L 604.8432 194.510925 
L 605.5128 188.482068 
L 606.1824 159.581365 
L 606.852 61.042433 
L 607.5216 58.457165 
L 608.1912 79.142181 
L 608.8608 94.568429 
L 610.2 119.005419 
L 612.2088 151.315552 
L 614.2176 179.787808 
L 614.8872 188.303968 
L 615.5568 195.308331 
L 616.2264 200.331412 
L 616.896 203.684618 
L 617.5656 205.987505 
L 618.2352 207.656147 
L 618.9048 208.911199 
L 619.5744 209.872624 
L 620.244 210.612283 
L 621.5832 211.60238 
L 623.592 212.409743 
L 624.9312 212.687043 
L 627.6096 213.237892 
L 628.9488 213.099234 
L 629.6184 212.976057 
L 630.288 212.98488 
L 631.6272 213.433838 
L 632.9664 213.415755 
L 633.636 213.33203 
L 634.9752 213.387025 
L 635.6448 213.327407 
L 636.984 213.412613 
L 637.6536 213.367065 
L 639.6624 214.48793 
L 642.3408 215.081524 
L 647.028 216.350694 
L 647.6976 216.406168 
L 649.0368 216.876987 
L 650.376 217.202791 
L 653.724 217.691682 
L 655.7328 218.288124 
L 658.4112 218.993287 
L 660.42 219.95707 
L 661.7592 220.223074 
L 663.768 220.372698 
L 666.4464 220.34039 
L 667.7856 220.25691 
L 669.7944 220.399123 
L 672.4728 220.20366 
L 676.4904 219.63564 
L 681.1776 218.716285 
L 686.5344 217.426524 
L 693.2304 215.566269 
L 693.9 215.369065 
L 695.9088 215.14383 
L 699.2568 214.339865 
L 705.9528 212.449312 
L 719.3448 208.383976 
L 736.0848 203.128297 
L 740.772 201.398194 
L 743.4504 200.30462 
L 745.4592 199.751677 
L 746.7984 199.199862 
L 748.1376 198.596637 
L 749.4768 197.992871 
L 750.816 197.013918 
L 751.4856 196.206642 
L 752.1552 194.920706 
L 752.8248 192.682909 
L 753.4944 185.359296 
L 754.164 151.296335 
L 754.8336 72.20843 
L 755.5032 65.70538 
L 756.8424 95.572597 
L 758.1816 119.72011 
L 760.1904 152.178356 
L 762.1992 181.22404 
L 762.8688 190.00634 
L 763.5384 197.310071 
L 764.208 202.439547 
L 764.8776 205.780923 
L 765.5472 208.055699 
L 766.2168 209.846782 
L 766.8864 211.202796 
L 767.556 212.220007 
L 768.2256 213.000272 
L 770.904 215.31132 
L 774.252 216.586031 
L 775.5912 216.690706 
L 777.6 216.681458 
L 777.6 216.681458 
" clip-path="url(#pbef470ce05)" style="fill: none; stroke: #000000; stroke-width: 1.5; stroke-linecap: square"/>
   </g>
   <g id="line2d_24">
    <path d="M 108 153.263384 
L 112.0176 157.290939 
L 114.696 160.245177 
L 115.3656 161.037711 
L 116.0352 141.423892 
L 116.7048 137.749081 
L 117.3744 135.754056 
L 118.044 134.695502 
L 118.7136 134.107409 
L 119.3832 133.769291 
L 120.7224 133.41752 
L 124.74 132.648123 
L 129.4272 131.279642 
L 132.7752 130.416173 
L 135.4536 129.892778 
L 137.4624 129.670424 
L 141.48 129.554256 
L 147.5064 129.591427 
L 152.8632 129.805515 
L 169.6032 130.706006 
L 182.9952 131.672172 
L 195.048 132.753416 
L 201.0744 133.437853 
L 209.1096 134.719157 
L 228.528 138.865623 
L 231.2064 139.854945 
L 235.224 141.607771 
L 237.2328 142.809795 
L 239.2416 144.284146 
L 241.2504 146.013181 
L 245.268 150.000021 
L 247.9464 152.864812 
L 249.2856 154.4609 
L 249.9552 138.231092 
L 250.6248 135.359166 
L 251.2944 133.85754 
L 251.964 133.118584 
L 252.6336 132.747529 
L 253.9728 132.451531 
L 258.66 131.868109 
L 268.0344 129.841132 
L 272.052 129.429917 
L 277.4088 129.187018 
L 283.4352 129.118394 
L 292.14 129.410511 
L 302.184 130.067926 
L 317.5848 131.199485 
L 339.6816 132.928012 
L 341.6904 132.888951 
L 343.0296 132.662585 
L 343.6992 132.299182 
L 344.3688 130.922799 
L 345.0384 126.004785 
L 345.708 119.662984 
L 346.3776 114.513518 
L 347.0472 111.274562 
L 347.7168 109.701841 
L 348.3864 109.348004 
L 349.056 109.83608 
L 349.7256 110.899831 
L 350.3952 112.360005 
L 351.7344 116.027608 
L 353.7432 122.505928 
L 355.752 128.744831 
L 357.0912 132.137628 
L 358.4304 134.928706 
L 359.7696 137.282133 
L 361.1088 139.309158 
L 363.1176 141.907462 
L 365.796 144.948951 
L 369.144 148.31397 
L 375.84 154.837747 
L 379.188 158.909446 
L 381.1968 161.599503 
L 383.2056 164.662769 
L 383.8752 143.435134 
L 384.5448 139.310812 
L 385.2144 137.090105 
L 385.884 135.897195 
L 386.5536 135.215176 
L 387.2232 134.802901 
L 388.5624 134.326652 
L 392.58 133.150187 
L 399.9456 130.887412 
L 402.624 130.360233 
L 405.3024 130.016833 
L 409.32 129.778157 
L 416.6856 129.684463 
L 424.7208 129.791202 
L 430.0776 130.022174 
L 450.8352 131.413531 
L 462.888 132.474993 
L 474.9408 133.744635 
L 479.628 134.534168 
L 486.9936 136.118156 
L 490.3416 137.163842 
L 492.3504 137.979143 
L 495.0288 139.327848 
L 499.716 142.080939 
L 506.412 146.17958 
L 509.0904 148.001489 
L 511.0992 149.70325 
L 513.7776 152.384137 
L 515.7864 154.581263 
L 517.1256 156.227266 
L 517.7952 139.118471 
L 518.4648 136.086707 
L 519.1344 134.496966 
L 519.804 133.7179 
L 520.4736 133.33361 
L 521.8128 133.048523 
L 525.1608 132.657482 
L 528.5088 131.99236 
L 534.5352 130.742662 
L 538.5528 130.147783 
L 543.24 129.710423 
L 548.5968 129.466371 
L 555.2928 129.410626 
L 563.9976 129.589755 
L 574.7112 130.052577 
L 587.4336 130.838313 
L 600.156 131.617439 
L 602.8344 131.605867 
L 604.1736 131.499963 
L 604.8432 131.368172 
L 605.5128 131.039601 
L 606.1824 129.763769 
L 606.852 125.07055 
L 607.5216 118.923831 
L 608.1912 113.892783 
L 608.8608 110.723357 
L 609.5304 109.191226 
L 610.2 108.858315 
L 610.8696 109.352002 
L 611.5392 110.408662 
L 612.2088 111.850791 
L 613.548 115.452852 
L 615.5568 121.798695 
L 616.896 125.973665 
L 618.2352 129.522113 
L 619.5744 132.365902 
L 620.9136 134.639981 
L 622.2528 136.491936 
L 623.592 138.036067 
L 625.6008 139.975096 
L 628.2792 142.159371 
L 630.9576 143.985039 
L 639.6624 149.849895 
L 642.3408 152.208799 
L 644.3496 154.196167 
L 646.3584 156.424711 
L 649.0368 159.766155 
L 651.0456 162.641298 
L 651.7152 142.358284 
L 652.3848 138.530144 
L 653.0544 136.459089 
L 653.724 135.355838 
L 654.3936 134.736299 
L 655.0632 134.372149 
L 656.4024 133.981921 
L 661.7592 132.80003 
L 669.1248 130.955075 
L 672.4728 130.439371 
L 677.16 129.965307 
L 682.5168 129.683353 
L 689.2128 129.589555 
L 695.9088 129.7082 
L 711.9792 130.601598 
L 724.032 131.49617 
L 745.4592 133.396856 
L 750.816 133.830343 
L 752.1552 133.80733 
L 752.8248 133.691675 
L 753.4944 133.314617 
L 754.164 131.730036 
L 754.8336 127.019228 
L 756.1728 115.902618 
L 756.8424 112.580145 
L 757.512 110.869693 
L 758.1816 110.389951 
L 758.8512 110.788388 
L 759.5208 111.802325 
L 760.1904 113.248308 
L 761.5296 116.990696 
L 763.5384 123.812887 
L 765.5472 130.563233 
L 766.8864 134.273497 
L 768.2256 137.36648 
L 769.5648 139.992115 
L 771.5736 143.399466 
L 774.252 147.343223 
L 777.6 151.786425 
L 777.6 151.786425 
" clip-path="url(#pbef470ce05)" style="fill: none; stroke: #4169e1; stroke-width: 1.5; stroke-linecap: square"/>
   </g>
   <g id="patch_3">
    <path d="M 108 256.32 
L 108 34.56 
" style="fill: none; stroke: #000000; stroke-width: 0.8; stroke-linejoin: miter; stroke-linecap: square"/>
   </g>
   <g id="patch_4">
    <path d="M 777.6 256.32 
L 777.6 34.56 
" style="fill: none; stroke: #000000; stroke-width: 0.8; stroke-linejoin: miter; stroke-linecap: square"/>
   </g>
   <g id="patch_5">
    <path d="M 108 256.32 
L 777.6 256.32 
" style="fill: none; stroke: #000000; stroke-width: 0.8; stroke-linejoin: miter; stroke-linecap: square"/>
   </g>
   <g id="patch_6">
    <path d="M 108 34.56 
L 777.6 34.56 
" style="fill: none; stroke: #000000; stroke-width: 0.8; stroke-linejoin: miter; stroke-linecap: square"/>
   </g>
   <g id="legend_1">
    <g id="patch_7">
     <path d="M 115 71.91625 
L 190.501563 71.91625 
Q 192.501563 71.91625 192.501563 69.91625 
L 192.501563 41.56 
Q 192.501563 39.56 190.501563 39.56 
L 115 39.56 
Q 113 39.56 113 41.56 
L 113 69.91625 
Q 113 71.91625 115 71.91625 
z
" style="fill: #ffffff; opacity: 0.8; stroke: #cccccc; stroke-linejoin: miter"/>
    </g>
    <g id="line2d_25">
     <path d="M 117 47.658437 
L 127 47.658437 
L 137 47.658437 
" style="fill: none; stroke: #000000; stroke-width: 1.5; stroke-linecap: square"/>
    </g>
    <g id="text_14">
     <!-- Soma -->
     <g transform="translate(145 51.158437) scale(0.1 -0.1)">
      <defs>
       <path id="DejaVuSans-53" d="M 3425 4513 
L 3425 3897 
Q 3066 4069 2747 4153 
Q 2428 4238 2131 4238 
Q 1616 4238 1336 4038 
Q 1056 3838 1056 3469 
Q 1056 3159 1242 3001 
Q 1428 2844 1947 2747 
L 2328 2669 
Q 3034 2534 3370 2195 
Q 3706 1856 3706 1288 
Q 3706 609 3251 259 
Q 2797 -91 1919 -91 
Q 1588 -91 1214 -16 
Q 841 59 441 206 
L 441 856 
Q 825 641 1194 531 
Q 1563 422 1919 422 
Q 2459 422 2753 634 
Q 3047 847 3047 1241 
Q 3047 1584 2836 1778 
Q 2625 1972 2144 2069 
L 1759 2144 
Q 1053 2284 737 2584 
Q 422 2884 422 3419 
Q 422 4038 858 4394 
Q 1294 4750 2059 4750 
Q 2388 4750 2728 4690 
Q 3069 4631 3425 4513 
z
" transform="scale(0.015625)"/>
       <path id="DejaVuSans-6f" d="M 1959 3097 
Q 1497 3097 1228 2736 
Q 959 2375 959 1747 
Q 959 1119 1226 758 
Q 1494 397 1959 397 
Q 2419 397 2687 759 
Q 2956 1122 2956 1747 
Q 2956 2369 2687 2733 
Q 2419 3097 1959 3097 
z
M 1959 3584 
Q 2709 3584 3137 3096 
Q 3566 2609 3566 1747 
Q 3566 888 3137 398 
Q 2709 -91 1959 -91 
Q 1206 -91 779 398 
Q 353 888 353 1747 
Q 353 2609 779 3096 
Q 1206 3584 1959 3584 
z
" transform="scale(0.015625)"/>
       <path id="DejaVuSans-61" d="M 2194 1759 
Q 1497 1759 1228 1600 
Q 959 1441 959 1056 
Q 959 750 1161 570 
Q 1363 391 1709 391 
Q 2188 391 2477 730 
Q 2766 1069 2766 1631 
L 2766 1759 
L 2194 1759 
z
M 3341 1997 
L 3341 0 
L 2766 0 
L 2766 531 
Q 2569 213 2275 61 
Q 1981 -91 1556 -91 
Q 1019 -91 701 211 
Q 384 513 384 1019 
Q 384 1609 779 1909 
Q 1175 2209 1959 2209 
L 2766 2209 
L 2766 2266 
Q 2766 2663 2505 2880 
Q 2244 3097 1772 3097 
Q 1472 3097 1187 3025 
Q 903 2953 641 2809 
L 641 3341 
Q 956 3463 1253 3523 
Q 1550 3584 1831 3584 
Q 2591 3584 2966 3190 
Q 3341 2797 3341 1997 
z
" transform="scale(0.015625)"/>
      </defs>
      <use xlink:href="#DejaVuSans-53"/>
      <use xlink:href="#DejaVuSans-6f" x="63.476562"/>
      <use xlink:href="#DejaVuSans-6d" x="124.658203"/>
      <use xlink:href="#DejaVuSans-61" x="222.070312"/>
     </g>
    </g>
    <g id="line2d_26">
     <path d="M 117 62.336562 
L 127 62.336562 
L 137 62.336562 
" style="fill: none; stroke: #4169e1; stroke-width: 1.5; stroke-linecap: square"/>
    </g>
    <g id="text_15">
     <!-- Dendrite -->
     <g transform="translate(145 65.836562) scale(0.1 -0.1)">
      <defs>
       <path id="DejaVuSans-44" d="M 1259 4147 
L 1259 519 
L 2022 519 
Q 2988 519 3436 956 
Q 3884 1394 3884 2338 
Q 3884 3275 3436 3711 
Q 2988 4147 2022 4147 
L 1259 4147 
z
M 628 4666 
L 1925 4666 
Q 3281 4666 3915 4102 
Q 4550 3538 4550 2338 
Q 4550 1131 3912 565 
Q 3275 0 1925 0 
L 628 0 
L 628 4666 
z
" transform="scale(0.015625)"/>
       <path id="DejaVuSans-6e" d="M 3513 2113 
L 3513 0 
L 2938 0 
L 2938 2094 
Q 2938 2591 2744 2837 
Q 2550 3084 2163 3084 
Q 1697 3084 1428 2787 
Q 1159 2491 1159 1978 
L 1159 0 
L 581 0 
L 581 3500 
L 1159 3500 
L 1159 2956 
Q 1366 3272 1645 3428 
Q 1925 3584 2291 3584 
Q 2894 3584 3203 3211 
Q 3513 2838 3513 2113 
z
" transform="scale(0.015625)"/>
       <path id="DejaVuSans-64" d="M 2906 2969 
L 2906 4863 
L 3481 4863 
L 3481 0 
L 2906 0 
L 2906 525 
Q 2725 213 2448 61 
Q 2172 -91 1784 -91 
Q 1150 -91 751 415 
Q 353 922 353 1747 
Q 353 2572 751 3078 
Q 1150 3584 1784 3584 
Q 2172 3584 2448 3432 
Q 2725 3281 2906 2969 
z
M 947 1747 
Q 947 1113 1208 752 
Q 1469 391 1925 391 
Q 2381 391 2643 752 
Q 2906 1113 2906 1747 
Q 2906 2381 2643 2742 
Q 2381 3103 1925 3103 
Q 1469 3103 1208 2742 
Q 947 2381 947 1747 
z
" transform="scale(0.015625)"/>
       <path id="DejaVuSans-72" d="M 2631 2963 
Q 2534 3019 2420 3045 
Q 2306 3072 2169 3072 
Q 1681 3072 1420 2755 
Q 1159 2438 1159 1844 
L 1159 0 
L 581 0 
L 581 3500 
L 1159 3500 
L 1159 2956 
Q 1341 3275 1631 3429 
Q 1922 3584 2338 3584 
Q 2397 3584 2469 3576 
Q 2541 3569 2628 3553 
L 2631 2963 
z
" transform="scale(0.015625)"/>
       <path id="DejaVuSans-74" d="M 1172 4494 
L 1172 3500 
L 2356 3500 
L 2356 3053 
L 1172 3053 
L 1172 1153 
Q 1172 725 1289 603 
Q 1406 481 1766 481 
L 2356 481 
L 2356 0 
L 1766 0 
Q 1100 0 847 248 
Q 594 497 594 1153 
L 594 3053 
L 172 3053 
L 172 3500 
L 594 3500 
L 594 4494 
L 1172 4494 
z
" transform="scale(0.015625)"/>
      </defs>
      <use xlink:href="#DejaVuSans-44"/>
      <use xlink:href="#DejaVuSans-65" x="77.001953"/>
      <use xlink:href="#DejaVuSans-6e" x="138.525391"/>
      <use xlink:href="#DejaVuSans-64" x="201.904297"/>
      <use xlink:href="#DejaVuSans-72" x="265.380859"/>
      <use xlink:href="#DejaVuSans-69" x="306.494141"/>
      <use xlink:href="#DejaVuSans-74" x="334.277344"/>
      <use xlink:href="#DejaVuSans-65" x="373.486328"/>
     </g>
    </g>
   </g>
  </g>
 </g>
 <defs>
  <clipPath id="pbef470ce05">
   <rect x="108" y="34.56" width="669.6" height="221.76"/>
  </clipPath>
 </defs>
</svg>
