<?xml version="1.0" encoding="utf-8" standalone="no"?>
<!DOCTYPE svg PUBLIC "-//W3C//DTD SVG 1.1//EN"
  "http://www.w3.org/Graphics/SVG/1.1/DTD/svg11.dtd">
<svg xmlns:xlink="http://www.w3.org/1999/xlink" width="864pt" height="288pt" viewBox="0 0 864 288" xmlns="http://www.w3.org/2000/svg" version="1.1">
 <metadata>
  <rdf:RDF xmlns:dc="http://purl.org/dc/elements/1.1/" xmlns:cc="http://creativecommons.org/ns#" xmlns:rdf="http://www.w3.org/1999/02/22-rdf-syntax-ns#">
   <cc:Work>
    <dc:type rdf:resource="http://purl.org/dc/dcmitype/StillImage"/>
    <dc:date>2024-04-12T18:07:54.247325</dc:date>
    <dc:format>image/svg+xml</dc:format>
    <dc:creator>
     <cc:Agent>
      <dc:title>Matplotlib v3.8.2, https://matplotlib.org/</dc:title>
     </cc:Agent>
    </dc:creator>
   </cc:Work>
  </rdf:RDF>
 </metadata>
 <defs>
  <style type="text/css">*{stroke-linejoin: round; stroke-linecap: butt}</style>
 </defs>
 <g id="figure_1">
  <g id="patch_1">
   <path d="M 0 288 
L 864 288 
L 864 0 
L 0 0 
z
" style="fill: #ffffff"/>
  </g>
  <g id="axes_1">
   <g id="patch_2">
    <path d="M 108 256.32 
L 777.6 256.32 
L 777.6 34.56 
L 108 34.56 
z
" style="fill: #ffffff"/>
   </g>
   <g id="matplotlib.axis_1">
    <g id="xtick_1">
     <g id="line2d_1">
      <path d="M 108 256.32 
L 108 34.56 
" clip-path="url(#p015af66dd6)" style="fill: none; stroke: #b0b0b0; stroke-width: 0.8; stroke-linecap: square"/>
     </g>
     <g id="line2d_2">
      <defs>
       <path id="m9c4a4d5cdd" d="M 0 0 
L 0 3.5 
" style="stroke: #000000; stroke-width: 0.8"/>
      </defs>
      <g>
       <use xlink:href="#m9c4a4d5cdd" x="108" y="256.32" style="stroke: #000000; stroke-width: 0.8"/>
      </g>
     </g>
     <g id="text_1">
      <!-- 100 -->
      <g transform="translate(94.63875 273.957812) scale(0.14 -0.14)">
       <defs>
        <path id="DejaVuSans-31" d="M 794 531 
L 1825 531 
L 1825 4091 
L 703 3866 
L 703 4441 
L 1819 4666 
L 2450 4666 
L 2450 531 
L 3481 531 
L 3481 0 
L 794 0 
L 794 531 
z
" transform="scale(0.015625)"/>
        <path id="DejaVuSans-30" d="M 2034 4250 
Q 1547 4250 1301 3770 
Q 1056 3291 1056 2328 
Q 1056 1369 1301 889 
Q 1547 409 2034 409 
Q 2525 409 2770 889 
Q 3016 1369 3016 2328 
Q 3016 3291 2770 3770 
Q 2525 4250 2034 4250 
z
M 2034 4750 
Q 2819 4750 3233 4129 
Q 3647 3509 3647 2328 
Q 3647 1150 3233 529 
Q 2819 -91 2034 -91 
Q 1250 -91 836 529 
Q 422 1150 422 2328 
Q 422 3509 836 4129 
Q 1250 4750 2034 4750 
z
" transform="scale(0.015625)"/>
       </defs>
       <use xlink:href="#DejaVuSans-31"/>
       <use xlink:href="#DejaVuSans-30" x="63.623047"/>
       <use xlink:href="#DejaVuSans-30" x="127.246094"/>
      </g>
     </g>
    </g>
    <g id="xtick_2">
     <g id="line2d_3">
      <path d="M 241.92 256.32 
L 241.92 34.56 
" clip-path="url(#p015af66dd6)" style="fill: none; stroke: #b0b0b0; stroke-width: 0.8; stroke-linecap: square"/>
     </g>
     <g id="line2d_4">
      <g>
       <use xlink:href="#m9c4a4d5cdd" x="241.92" y="256.32" style="stroke: #000000; stroke-width: 0.8"/>
      </g>
     </g>
     <g id="text_2">
      <!-- 120 -->
      <g transform="translate(228.55875 273.957812) scale(0.14 -0.14)">
       <defs>
        <path id="DejaVuSans-32" d="M 1228 531 
L 3431 531 
L 3431 0 
L 469 0 
L 469 531 
Q 828 903 1448 1529 
Q 2069 2156 2228 2338 
Q 2531 2678 2651 2914 
Q 2772 3150 2772 3378 
Q 2772 3750 2511 3984 
Q 2250 4219 1831 4219 
Q 1534 4219 1204 4116 
Q 875 4013 500 3803 
L 500 4441 
Q 881 4594 1212 4672 
Q 1544 4750 1819 4750 
Q 2544 4750 2975 4387 
Q 3406 4025 3406 3419 
Q 3406 3131 3298 2873 
Q 3191 2616 2906 2266 
Q 2828 2175 2409 1742 
Q 1991 1309 1228 531 
z
" transform="scale(0.015625)"/>
       </defs>
       <use xlink:href="#DejaVuSans-31"/>
       <use xlink:href="#DejaVuSans-32" x="63.623047"/>
       <use xlink:href="#DejaVuSans-30" x="127.246094"/>
      </g>
     </g>
    </g>
    <g id="xtick_3">
     <g id="line2d_5">
      <path d="M 375.84 256.32 
L 375.84 34.56 
" clip-path="url(#p015af66dd6)" style="fill: none; stroke: #b0b0b0; stroke-width: 0.8; stroke-linecap: square"/>
     </g>
     <g id="line2d_6">
      <g>
       <use xlink:href="#m9c4a4d5cdd" x="375.84" y="256.32" style="stroke: #000000; stroke-width: 0.8"/>
      </g>
     </g>
     <g id="text_3">
      <!-- 140 -->
      <g transform="translate(362.47875 273.957812) scale(0.14 -0.14)">
       <defs>
        <path id="DejaVuSans-34" d="M 2419 4116 
L 825 1625 
L 2419 1625 
L 2419 4116 
z
M 2253 4666 
L 3047 4666 
L 3047 1625 
L 3713 1625 
L 3713 1100 
L 3047 1100 
L 3047 0 
L 2419 0 
L 2419 1100 
L 313 1100 
L 313 1709 
L 2253 4666 
z
" transform="scale(0.015625)"/>
       </defs>
       <use xlink:href="#DejaVuSans-31"/>
       <use xlink:href="#DejaVuSans-34" x="63.623047"/>
       <use xlink:href="#DejaVuSans-30" x="127.246094"/>
      </g>
     </g>
    </g>
    <g id="xtick_4">
     <g id="line2d_7">
      <path d="M 509.76 256.32 
L 509.76 34.56 
" clip-path="url(#p015af66dd6)" style="fill: none; stroke: #b0b0b0; stroke-width: 0.8; stroke-linecap: square"/>
     </g>
     <g id="line2d_8">
      <g>
       <use xlink:href="#m9c4a4d5cdd" x="509.76" y="256.32" style="stroke: #000000; stroke-width: 0.8"/>
      </g>
     </g>
     <g id="text_4">
      <!-- 160 -->
      <g transform="translate(496.39875 273.957812) scale(0.14 -0.14)">
       <defs>
        <path id="DejaVuSans-36" d="M 2113 2584 
Q 1688 2584 1439 2293 
Q 1191 2003 1191 1497 
Q 1191 994 1439 701 
Q 1688 409 2113 409 
Q 2538 409 2786 701 
Q 3034 994 3034 1497 
Q 3034 2003 2786 2293 
Q 2538 2584 2113 2584 
z
M 3366 4563 
L 3366 3988 
Q 3128 4100 2886 4159 
Q 2644 4219 2406 4219 
Q 1781 4219 1451 3797 
Q 1122 3375 1075 2522 
Q 1259 2794 1537 2939 
Q 1816 3084 2150 3084 
Q 2853 3084 3261 2657 
Q 3669 2231 3669 1497 
Q 3669 778 3244 343 
Q 2819 -91 2113 -91 
Q 1303 -91 875 529 
Q 447 1150 447 2328 
Q 447 3434 972 4092 
Q 1497 4750 2381 4750 
Q 2619 4750 2861 4703 
Q 3103 4656 3366 4563 
z
" transform="scale(0.015625)"/>
       </defs>
       <use xlink:href="#DejaVuSans-31"/>
       <use xlink:href="#DejaVuSans-36" x="63.623047"/>
       <use xlink:href="#DejaVuSans-30" x="127.246094"/>
      </g>
     </g>
    </g>
    <g id="xtick_5">
     <g id="line2d_9">
      <path d="M 643.68 256.32 
L 643.68 34.56 
" clip-path="url(#p015af66dd6)" style="fill: none; stroke: #b0b0b0; stroke-width: 0.8; stroke-linecap: square"/>
     </g>
     <g id="line2d_10">
      <g>
       <use xlink:href="#m9c4a4d5cdd" x="643.68" y="256.32" style="stroke: #000000; stroke-width: 0.8"/>
      </g>
     </g>
     <g id="text_5">
      <!-- 180 -->
      <g transform="translate(630.31875 273.957812) scale(0.14 -0.14)">
       <defs>
        <path id="DejaVuSans-38" d="M 2034 2216 
Q 1584 2216 1326 1975 
Q 1069 1734 1069 1313 
Q 1069 891 1326 650 
Q 1584 409 2034 409 
Q 2484 409 2743 651 
Q 3003 894 3003 1313 
Q 3003 1734 2745 1975 
Q 2488 2216 2034 2216 
z
M 1403 2484 
Q 997 2584 770 2862 
Q 544 3141 544 3541 
Q 544 4100 942 4425 
Q 1341 4750 2034 4750 
Q 2731 4750 3128 4425 
Q 3525 4100 3525 3541 
Q 3525 3141 3298 2862 
Q 3072 2584 2669 2484 
Q 3125 2378 3379 2068 
Q 3634 1759 3634 1313 
Q 3634 634 3220 271 
Q 2806 -91 2034 -91 
Q 1263 -91 848 271 
Q 434 634 434 1313 
Q 434 1759 690 2068 
Q 947 2378 1403 2484 
z
M 1172 3481 
Q 1172 3119 1398 2916 
Q 1625 2713 2034 2713 
Q 2441 2713 2670 2916 
Q 2900 3119 2900 3481 
Q 2900 3844 2670 4047 
Q 2441 4250 2034 4250 
Q 1625 4250 1398 4047 
Q 1172 3844 1172 3481 
z
" transform="scale(0.015625)"/>
       </defs>
       <use xlink:href="#DejaVuSans-31"/>
       <use xlink:href="#DejaVuSans-38" x="63.623047"/>
       <use xlink:href="#DejaVuSans-30" x="127.246094"/>
      </g>
     </g>
    </g>
    <g id="xtick_6">
     <g id="line2d_11">
      <path d="M 777.6 256.32 
L 777.6 34.56 
" clip-path="url(#p015af66dd6)" style="fill: none; stroke: #b0b0b0; stroke-width: 0.8; stroke-linecap: square"/>
     </g>
     <g id="line2d_12">
      <g>
       <use xlink:href="#m9c4a4d5cdd" x="777.6" y="256.32" style="stroke: #000000; stroke-width: 0.8"/>
      </g>
     </g>
     <g id="text_6">
      <!-- 200 -->
      <g transform="translate(764.23875 273.957812) scale(0.14 -0.14)">
       <use xlink:href="#DejaVuSans-32"/>
       <use xlink:href="#DejaVuSans-30" x="63.623047"/>
       <use xlink:href="#DejaVuSans-30" x="127.246094"/>
      </g>
     </g>
    </g>
    <g id="text_7">
     <!-- Time (ms) -->
     <g transform="translate(407.521094 291.507187) scale(0.14 -0.14)">
      <defs>
       <path id="DejaVuSans-54" d="M -19 4666 
L 3928 4666 
L 3928 4134 
L 2272 4134 
L 2272 0 
L 1638 0 
L 1638 4134 
L -19 4134 
L -19 4666 
z
" transform="scale(0.015625)"/>
       <path id="DejaVuSans-69" d="M 603 3500 
L 1178 3500 
L 1178 0 
L 603 0 
L 603 3500 
z
M 603 4863 
L 1178 4863 
L 1178 4134 
L 603 4134 
L 603 4863 
z
" transform="scale(0.015625)"/>
       <path id="DejaVuSans-6d" d="M 3328 2828 
Q 3544 3216 3844 3400 
Q 4144 3584 4550 3584 
Q 5097 3584 5394 3201 
Q 5691 2819 5691 2113 
L 5691 0 
L 5113 0 
L 5113 2094 
Q 5113 2597 4934 2840 
Q 4756 3084 4391 3084 
Q 3944 3084 3684 2787 
Q 3425 2491 3425 1978 
L 3425 0 
L 2847 0 
L 2847 2094 
Q 2847 2600 2669 2842 
Q 2491 3084 2119 3084 
Q 1678 3084 1418 2786 
Q 1159 2488 1159 1978 
L 1159 0 
L 581 0 
L 581 3500 
L 1159 3500 
L 1159 2956 
Q 1356 3278 1631 3431 
Q 1906 3584 2284 3584 
Q 2666 3584 2933 3390 
Q 3200 3197 3328 2828 
z
" transform="scale(0.015625)"/>
       <path id="DejaVuSans-65" d="M 3597 1894 
L 3597 1613 
L 953 1613 
Q 991 1019 1311 708 
Q 1631 397 2203 397 
Q 2534 397 2845 478 
Q 3156 559 3463 722 
L 3463 178 
Q 3153 47 2828 -22 
Q 2503 -91 2169 -91 
Q 1331 -91 842 396 
Q 353 884 353 1716 
Q 353 2575 817 3079 
Q 1281 3584 2069 3584 
Q 2775 3584 3186 3129 
Q 3597 2675 3597 1894 
z
M 3022 2063 
Q 3016 2534 2758 2815 
Q 2500 3097 2075 3097 
Q 1594 3097 1305 2825 
Q 1016 2553 972 2059 
L 3022 2063 
z
" transform="scale(0.015625)"/>
       <path id="DejaVuSans-20" transform="scale(0.015625)"/>
       <path id="DejaVuSans-28" d="M 1984 4856 
Q 1566 4138 1362 3434 
Q 1159 2731 1159 2009 
Q 1159 1288 1364 580 
Q 1569 -128 1984 -844 
L 1484 -844 
Q 1016 -109 783 600 
Q 550 1309 550 2009 
Q 550 2706 781 3412 
Q 1013 4119 1484 4856 
L 1984 4856 
z
" transform="scale(0.015625)"/>
       <path id="DejaVuSans-73" d="M 2834 3397 
L 2834 2853 
Q 2591 2978 2328 3040 
Q 2066 3103 1784 3103 
Q 1356 3103 1142 2972 
Q 928 2841 928 2578 
Q 928 2378 1081 2264 
Q 1234 2150 1697 2047 
L 1894 2003 
Q 2506 1872 2764 1633 
Q 3022 1394 3022 966 
Q 3022 478 2636 193 
Q 2250 -91 1575 -91 
Q 1294 -91 989 -36 
Q 684 19 347 128 
L 347 722 
Q 666 556 975 473 
Q 1284 391 1588 391 
Q 1994 391 2212 530 
Q 2431 669 2431 922 
Q 2431 1156 2273 1281 
Q 2116 1406 1581 1522 
L 1381 1569 
Q 847 1681 609 1914 
Q 372 2147 372 2553 
Q 372 3047 722 3315 
Q 1072 3584 1716 3584 
Q 2034 3584 2315 3537 
Q 2597 3491 2834 3397 
z
" transform="scale(0.015625)"/>
       <path id="DejaVuSans-29" d="M 513 4856 
L 1013 4856 
Q 1481 4119 1714 3412 
Q 1947 2706 1947 2009 
Q 1947 1309 1714 600 
Q 1481 -109 1013 -844 
L 513 -844 
Q 928 -128 1133 580 
Q 1338 1288 1338 2009 
Q 1338 2731 1133 3434 
Q 928 4138 513 4856 
z
" transform="scale(0.015625)"/>
      </defs>
      <use xlink:href="#DejaVuSans-54"/>
      <use xlink:href="#DejaVuSans-69" x="57.958984"/>
      <use xlink:href="#DejaVuSans-6d" x="85.742188"/>
      <use xlink:href="#DejaVuSans-65" x="183.154297"/>
      <use xlink:href="#DejaVuSans-20" x="244.677734"/>
      <use xlink:href="#DejaVuSans-28" x="276.464844"/>
      <use xlink:href="#DejaVuSans-6d" x="315.478516"/>
      <use xlink:href="#DejaVuSans-73" x="412.890625"/>
      <use xlink:href="#DejaVuSans-29" x="464.990234"/>
     </g>
    </g>
   </g>
   <g id="matplotlib.axis_2">
    <g id="ytick_1">
     <g id="line2d_13">
      <path d="M 108 224.295135 
L 777.6 224.295135 
" clip-path="url(#p015af66dd6)" style="fill: none; stroke: #b0b0b0; stroke-width: 0.8; stroke-linecap: square"/>
     </g>
     <g id="line2d_14">
      <defs>
       <path id="m5af6c0ac1c" d="M 0 0 
L -3.5 0 
" style="stroke: #000000; stroke-width: 0.8"/>
      </defs>
      <g>
       <use xlink:href="#m5af6c0ac1c" x="108" y="224.295135" style="stroke: #000000; stroke-width: 0.8"/>
      </g>
     </g>
     <g id="text_8">
      <!-- −60 -->
      <g transform="translate(71.453437 229.614041) scale(0.14 -0.14)">
       <defs>
        <path id="DejaVuSans-2212" d="M 678 2272 
L 4684 2272 
L 4684 1741 
L 678 1741 
L 678 2272 
z
" transform="scale(0.015625)"/>
       </defs>
       <use xlink:href="#DejaVuSans-2212"/>
       <use xlink:href="#DejaVuSans-36" x="83.789062"/>
       <use xlink:href="#DejaVuSans-30" x="147.412109"/>
      </g>
     </g>
    </g>
    <g id="ytick_2">
     <g id="line2d_15">
      <path d="M 108 180.47534 
L 777.6 180.47534 
" clip-path="url(#p015af66dd6)" style="fill: none; stroke: #b0b0b0; stroke-width: 0.8; stroke-linecap: square"/>
     </g>
     <g id="line2d_16">
      <g>
       <use xlink:href="#m5af6c0ac1c" x="108" y="180.47534" style="stroke: #000000; stroke-width: 0.8"/>
      </g>
     </g>
     <g id="text_9">
      <!-- −40 -->
      <g transform="translate(71.453437 185.794246) scale(0.14 -0.14)">
       <use xlink:href="#DejaVuSans-2212"/>
       <use xlink:href="#DejaVuSans-34" x="83.789062"/>
       <use xlink:href="#DejaVuSans-30" x="147.412109"/>
      </g>
     </g>
    </g>
    <g id="ytick_3">
     <g id="line2d_17">
      <path d="M 108 136.655545 
L 777.6 136.655545 
" clip-path="url(#p015af66dd6)" style="fill: none; stroke: #b0b0b0; stroke-width: 0.8; stroke-linecap: square"/>
     </g>
     <g id="line2d_18">
      <g>
       <use xlink:href="#m5af6c0ac1c" x="108" y="136.655545" style="stroke: #000000; stroke-width: 0.8"/>
      </g>
     </g>
     <g id="text_10">
      <!-- −20 -->
      <g transform="translate(71.453437 141.974451) scale(0.14 -0.14)">
       <use xlink:href="#DejaVuSans-2212"/>
       <use xlink:href="#DejaVuSans-32" x="83.789062"/>
       <use xlink:href="#DejaVuSans-30" x="147.412109"/>
      </g>
     </g>
    </g>
    <g id="ytick_4">
     <g id="line2d_19">
      <path d="M 108 92.83575 
L 777.6 92.83575 
" clip-path="url(#p015af66dd6)" style="fill: none; stroke: #b0b0b0; stroke-width: 0.8; stroke-linecap: square"/>
     </g>
     <g id="line2d_20">
      <g>
       <use xlink:href="#m5af6c0ac1c" x="108" y="92.83575" style="stroke: #000000; stroke-width: 0.8"/>
      </g>
     </g>
     <g id="text_11">
      <!-- 0 -->
      <g transform="translate(92.0925 98.154656) scale(0.14 -0.14)">
       <use xlink:href="#DejaVuSans-30"/>
      </g>
     </g>
    </g>
    <g id="ytick_5">
     <g id="line2d_21">
      <path d="M 108 49.015954 
L 777.6 49.015954 
" clip-path="url(#p015af66dd6)" style="fill: none; stroke: #b0b0b0; stroke-width: 0.8; stroke-linecap: square"/>
     </g>
     <g id="line2d_22">
      <g>
       <use xlink:href="#m5af6c0ac1c" x="108" y="49.015954" style="stroke: #000000; stroke-width: 0.8"/>
      </g>
     </g>
     <g id="text_12">
      <!-- 20 -->
      <g transform="translate(83.185 54.334861) scale(0.14 -0.14)">
       <use xlink:href="#DejaVuSans-32"/>
       <use xlink:href="#DejaVuSans-30" x="63.623047"/>
      </g>
     </g>
    </g>
    <g id="text_13">
     <!-- $V_{m}$ (mV) -->
     <g transform="translate(64.541875 174.49) rotate(-90) scale(0.14 -0.14)">
      <defs>
       <path id="DejaVuSans-Oblique-56" d="M 1319 0 
L 500 4666 
L 1119 4666 
L 1797 653 
L 4063 4666 
L 4750 4666 
L 2053 0 
L 1319 0 
z
" transform="scale(0.015625)"/>
       <path id="DejaVuSans-Oblique-6d" d="M 5747 2113 
L 5338 0 
L 4763 0 
L 5166 2094 
Q 5191 2228 5203 2325 
Q 5216 2422 5216 2491 
Q 5216 2772 5059 2928 
Q 4903 3084 4622 3084 
Q 4203 3084 3875 2770 
Q 3547 2456 3450 1953 
L 3066 0 
L 2491 0 
L 2900 2094 
Q 2925 2209 2937 2307 
Q 2950 2406 2950 2484 
Q 2950 2769 2794 2926 
Q 2638 3084 2363 3084 
Q 1938 3084 1609 2770 
Q 1281 2456 1184 1953 
L 800 0 
L 225 0 
L 909 3500 
L 1484 3500 
L 1375 2956 
Q 1609 3263 1923 3423 
Q 2238 3584 2597 3584 
Q 2978 3584 3223 3384 
Q 3469 3184 3519 2828 
Q 3781 3197 4126 3390 
Q 4472 3584 4856 3584 
Q 5306 3584 5551 3325 
Q 5797 3066 5797 2591 
Q 5797 2488 5784 2364 
Q 5772 2241 5747 2113 
z
" transform="scale(0.015625)"/>
       <path id="DejaVuSans-56" d="M 1831 0 
L 50 4666 
L 709 4666 
L 2188 738 
L 3669 4666 
L 4325 4666 
L 2547 0 
L 1831 0 
z
" transform="scale(0.015625)"/>
      </defs>
      <use xlink:href="#DejaVuSans-Oblique-56" transform="translate(0 0.125)"/>
      <use xlink:href="#DejaVuSans-Oblique-6d" transform="translate(68.408203 -16.28125) scale(0.7)"/>
      <use xlink:href="#DejaVuSans-20" transform="translate(139.331055 0.125)"/>
      <use xlink:href="#DejaVuSans-28" transform="translate(171.118164 0.125)"/>
      <use xlink:href="#DejaVuSans-6d" transform="translate(210.131836 0.125)"/>
      <use xlink:href="#DejaVuSans-56" transform="translate(307.543945 0.125)"/>
      <use xlink:href="#DejaVuSans-29" transform="translate(375.952148 0.125)"/>
     </g>
    </g>
   </g>
   <g id="line2d_23">
    <path d="M 108 213.761129 
L 110.0088 213.627067 
L 111.348 213.447234 
L 112.6872 213.523826 
L 114.696 213.494374 
L 116.0352 213.672781 
L 118.044 214.412779 
L 119.3832 215.125759 
L 120.0528 215.298455 
L 121.392 216.030413 
L 122.7312 216.625699 
L 124.0704 216.898893 
L 126.0792 217.065213 
L 128.7576 217.059335 
L 132.1056 216.826889 
L 134.1144 216.600394 
L 136.1232 216.834262 
L 137.4624 217.489858 
L 140.8104 218.090403 
L 142.8192 218.121281 
L 143.4888 218.098064 
L 144.828 218.290817 
L 146.8368 218.278962 
L 148.176 218.187726 
L 149.5152 218.332252 
L 151.524 218.261252 
L 154.872 217.88878 
L 159.5592 217.117694 
L 165.5856 215.862573 
L 173.6208 213.920646 
L 176.9688 212.967423 
L 184.3344 210.262047 
L 198.396 205.473394 
L 200.4048 205.258486 
L 203.7528 204.460148 
L 205.7616 203.912824 
L 207.7704 203.830678 
L 208.44 203.732993 
L 210.4488 203.844496 
L 212.4576 203.649381 
L 215.8056 203.057432 
L 219.8232 202.113001 
L 223.8408 200.958222 
L 226.5192 200.11835 
L 227.1888 200.039526 
L 229.8672 200.993008 
L 231.876 201.309273 
L 232.5456 201.359187 
L 234.5544 202.103138 
L 235.8936 203.145276 
L 237.2328 204.32302 
L 238.572 205.333082 
L 239.9112 206.428268 
L 241.2504 207.865646 
L 242.5896 208.635955 
L 243.9288 209.105071 
L 244.5984 209.273761 
L 245.9376 209.835238 
L 246.6072 210.015165 
L 247.9464 210.728731 
L 251.964 212.583012 
L 253.9728 212.959003 
L 255.9816 214.048083 
L 257.3208 214.520673 
L 259.3296 214.858546 
L 261.3384 215.164621 
L 262.6776 215.41188 
L 266.0256 215.814081 
L 267.3648 216.194286 
L 269.3736 216.369931 
L 271.3824 216.518239 
L 272.7216 216.670087 
L 275.4 216.63063 
L 278.748 216.348852 
L 282.7656 215.956617 
L 284.1048 215.951338 
L 286.7832 215.644378 
L 292.14 214.868364 
L 293.4792 214.81843 
L 296.8272 214.31336 
L 302.184 213.233087 
L 309.5496 211.513634 
L 311.5584 210.858584 
L 317.5848 208.742876 
L 327.6288 205.289314 
L 333.6552 202.972919 
L 337.0032 201.404045 
L 338.3424 200.653385 
L 339.6816 199.71724 
L 341.0208 198.524646 
L 341.6904 197.69682 
L 342.36 196.566818 
L 343.0296 194.868732 
L 343.6992 191.406241 
L 344.3688 178.273842 
L 345.0384 103.907971 
L 345.708 45.135042 
L 347.7168 98.372591 
L 349.056 122.810091 
L 351.0648 155.138979 
L 353.0736 183.204881 
L 353.7432 191.003914 
L 354.4128 196.996684 
L 355.0824 201.420278 
L 355.752 204.428945 
L 356.4216 206.501458 
L 357.0912 208.165818 
L 358.4304 210.527271 
L 359.1 211.517158 
L 359.7696 212.257193 
L 360.4392 212.788297 
L 363.7872 214.682846 
L 365.1264 215.047864 
L 366.4656 215.251852 
L 369.144 215.504509 
L 370.4832 215.410543 
L 372.492 215.061626 
L 373.8312 215.327384 
L 375.1704 216.107077 
L 376.5096 216.312626 
L 378.5184 216.259164 
L 379.188 216.198208 
L 379.8576 216.274493 
L 382.536 216.956146 
L 383.8752 217.242567 
L 385.2144 217.448259 
L 388.5624 217.977141 
L 391.2408 218.030033 
L 392.58 218.386859 
L 394.5888 218.458117 
L 397.2672 218.288898 
L 398.6064 218.14565 
L 401.9544 218.393965 
L 403.9632 218.466542 
L 405.3024 218.681385 
L 406.6416 218.811197 
L 408.6504 218.883302 
L 409.9896 218.964844 
L 412.668 218.791185 
L 416.6856 218.2473 
L 421.3728 217.37082 
L 427.3992 216.151277 
L 428.7384 216.035928 
L 432.0864 215.390873 
L 438.1128 213.968422 
L 444.1392 212.390128 
L 465.5664 204.934507 
L 473.6016 202.284674 
L 474.9408 202.113077 
L 477.6192 201.673283 
L 478.9584 201.645215 
L 480.9672 201.375159 
L 484.3152 200.76544 
L 484.9848 200.774104 
L 486.9936 201.174258 
L 489.0024 201.26368 
L 494.3592 204.239446 
L 495.6984 205.171575 
L 499.0464 206.517615 
L 503.7336 207.487534 
L 504.4032 207.542799 
L 505.7424 207.924073 
L 508.4208 208.32438 
L 511.0992 210.33128 
L 512.4384 210.798177 
L 514.4472 211.322891 
L 515.1168 211.534786 
L 516.456 212.372693 
L 517.1256 212.61387 
L 519.804 214.6142 
L 521.1432 215.114988 
L 523.8216 215.79292 
L 525.8304 216.742411 
L 528.5088 217.757095 
L 530.5176 218.218307 
L 531.8568 218.525648 
L 533.8656 218.71709 
L 536.544 218.761302 
L 539.892 218.598632 
L 543.9096 218.169264 
L 548.5968 217.424851 
L 553.9536 216.334912 
L 560.6496 214.7169 
L 569.3544 212.359095 
L 578.0592 209.851115 
L 590.7816 205.022299 
L 596.1384 202.840065 
L 599.4864 201.184683 
L 600.8256 200.355555 
L 603.504 198.393982 
L 604.1736 197.705984 
L 604.8432 196.751915 
L 605.5128 195.33354 
L 606.1824 192.490336 
L 606.852 182.315781 
L 607.5216 127.320286 
L 608.1912 49.393198 
L 608.8608 61.053324 
L 609.5304 81.177272 
L 610.8696 108.702988 
L 612.8784 142.613502 
L 614.8872 172.655443 
L 616.2264 189.906621 
L 616.896 196.315959 
L 617.5656 200.758961 
L 618.2352 203.732258 
L 618.9048 205.810529 
L 619.5744 207.334667 
L 620.244 208.487206 
L 620.9136 209.370016 
L 621.5832 210.045493 
L 622.9224 210.93347 
L 624.2616 211.656794 
L 625.6008 212.070312 
L 626.2704 212.375319 
L 626.94 212.550076 
L 628.2792 212.585546 
L 630.288 212.428445 
L 631.6272 212.88876 
L 632.9664 212.860836 
L 633.636 212.767069 
L 634.9752 212.798111 
L 635.6448 212.7224 
L 636.984 212.774108 
L 637.6536 212.708635 
L 639.6624 213.785156 
L 643.0104 214.464398 
L 644.3496 214.917084 
L 645.6888 215.197382 
L 647.028 215.40691 
L 647.6976 215.435289 
L 649.0368 215.85893 
L 650.376 216.131565 
L 651.0456 216.179341 
L 652.3848 216.479215 
L 653.0544 216.541755 
L 654.3936 216.999958 
L 658.4112 218.263966 
L 660.42 219.300283 
L 661.7592 219.604003 
L 663.768 219.804882 
L 666.4464 219.837915 
L 667.7856 219.786543 
L 669.1248 219.963329 
L 671.1336 219.943559 
L 674.4816 219.645386 
L 678.4992 219.058475 
L 683.1864 218.154381 
L 689.2128 216.744984 
L 694.5696 215.487731 
L 695.9088 215.338819 
L 699.2568 214.617545 
L 705.9528 212.907389 
L 712.6488 211.00773 
L 720.0144 208.293917 
L 738.7632 201.699512 
L 741.4416 200.560453 
L 742.7808 199.882648 
L 745.4592 199.088586 
L 746.7984 198.492904 
L 748.1376 197.827016 
L 749.4768 197.131738 
L 750.1464 196.635845 
L 750.816 195.986175 
L 751.4856 194.991115 
L 752.1552 193.342278 
L 752.8248 189.832834 
L 753.4944 175.816795 
L 754.164 107.301391 
L 754.8336 59.974421 
L 755.5032 69.39185 
L 756.8424 98.527031 
L 758.8512 133.869807 
L 760.86 165.181593 
L 762.1992 184.051768 
L 762.8688 192.43539 
L 763.5384 198.947525 
L 764.208 203.29496 
L 764.8776 206.151921 
L 765.5472 208.149034 
L 766.2168 209.765208 
L 766.8864 210.997882 
L 767.556 211.920344 
L 768.2256 212.623253 
L 768.8952 213.159069 
L 770.2344 214.385889 
L 771.5736 214.955259 
L 772.9128 215.442378 
L 774.252 215.834824 
L 775.5912 215.878539 
L 777.6 215.781224 
L 777.6 215.781224 
" clip-path="url(#p015af66dd6)" style="fill: none; stroke: #000000; stroke-width: 1.5; stroke-linecap: square"/>
   </g>
   <g id="line2d_24">
    <path d="M 108 130.448085 
L 112.6872 131.381943 
L 117.3744 132.368912 
L 120.0528 133.174916 
L 124.74 134.883362 
L 129.4272 136.422628 
L 137.4624 138.933185 
L 141.48 140.706295 
L 148.8456 144.184967 
L 153.5328 146.698748 
L 158.8896 149.796053 
L 162.9072 152.348249 
L 166.9248 155.174679 
L 170.2728 157.7807 
L 174.2904 161.226572 
L 175.6296 162.445653 
L 176.2992 141.034479 
L 176.9688 136.810655 
L 177.6384 134.456186 
L 178.308 133.124431 
L 178.9776 132.300581 
L 179.6472 131.746381 
L 180.9864 131.004794 
L 188.352 127.852234 
L 191.7 126.667922 
L 195.048 125.773088 
L 198.396 125.12528 
L 201.0744 124.794677 
L 206.4312 124.425056 
L 209.7792 124.396517 
L 227.8584 124.954518 
L 230.5368 125.292124 
L 235.8936 126.251872 
L 238.572 127.050516 
L 241.92 128.252527 
L 245.268 129.413215 
L 251.964 131.602933 
L 268.704 137.42701 
L 282.7656 142.853938 
L 286.7832 144.609906 
L 292.8096 147.454453 
L 296.8272 149.702576 
L 301.5144 152.589683 
L 305.532 155.319524 
L 309.5496 158.32098 
L 310.2192 138.908352 
L 310.8888 135.253175 
L 311.5584 133.204314 
L 312.228 132.060715 
L 312.8976 131.364966 
L 314.2368 130.563936 
L 319.5936 128.448177 
L 323.6112 126.875418 
L 326.9592 125.832282 
L 330.3072 125.042969 
L 334.3248 124.352732 
L 343.0296 123.056373 
L 343.6992 122.800597 
L 344.3688 122.192683 
L 345.0384 119.565912 
L 346.3776 109.563341 
L 347.0472 106.110157 
L 347.7168 104.314684 
L 348.3864 103.788175 
L 349.056 104.121759 
L 349.7256 105.015652 
L 351.0648 107.759855 
L 353.0736 112.907105 
L 355.0824 118.094673 
L 356.4216 120.885952 
L 357.7608 122.984589 
L 359.1 124.544047 
L 360.4392 125.732904 
L 361.7784 126.644858 
L 363.7872 127.69679 
L 365.796 128.515136 
L 368.4744 129.337299 
L 371.8224 130.114783 
L 375.1704 130.804038 
L 380.5272 132.087041 
L 385.2144 133.324609 
L 393.9192 135.855931 
L 405.3024 139.461207 
L 410.6592 141.657355 
L 423.3816 147.276386 
L 428.0688 149.607192 
L 431.4168 151.583478 
L 435.4344 154.206866 
L 439.452 157.109418 
L 443.4696 160.31262 
L 444.1392 139.920667 
L 444.8088 136.011963 
L 445.4784 133.820224 
L 446.148 132.586805 
L 446.8176 131.828879 
L 448.1568 130.94734 
L 450.8352 129.828625 
L 458.8704 126.648789 
L 462.2184 125.712446 
L 465.5664 125.027767 
L 469.584 124.454041 
L 474.2712 124.031061 
L 478.2888 123.932159 
L 485.6544 124.120086 
L 489.672 124.498521 
L 492.3504 124.933762 
L 496.368 125.877734 
L 502.3944 127.269486 
L 510.4296 129.02756 
L 519.1344 131.793498 
L 524.4912 133.814392 
L 529.1784 135.656283 
L 538.5528 139.260248 
L 553.284 144.700264 
L 559.3104 147.174297 
L 564.6672 149.603973 
L 569.3544 151.963159 
L 574.0416 154.583624 
L 577.3896 156.630163 
L 578.0592 138.018964 
L 578.7288 134.542822 
L 579.3984 132.587348 
L 580.068 131.494627 
L 580.7376 130.828276 
L 582.0768 130.053927 
L 590.112 126.873671 
L 593.46 125.712721 
L 596.808 124.803583 
L 601.4952 123.818104 
L 605.5128 122.981824 
L 606.1824 122.74297 
L 606.852 122.235046 
L 607.5216 120.239702 
L 609.5304 106.783138 
L 610.2 104.681666 
L 610.8696 103.906595 
L 611.5392 104.053877 
L 612.2088 104.810929 
L 612.8784 105.965556 
L 614.2176 108.959151 
L 618.2352 119.050348 
L 619.5744 121.44866 
L 620.9136 123.182228 
L 622.2528 124.430164 
L 623.592 125.346938 
L 625.6008 126.342177 
L 627.6096 127.078796 
L 629.6184 127.619504 
L 635.6448 128.823383 
L 639.6624 129.571534 
L 649.7064 132.086355 
L 656.4024 134.012718 
L 659.7504 135.177673 
L 666.4464 137.720351 
L 676.4904 141.312252 
L 686.5344 145.027958 
L 692.5608 147.485575 
L 695.9088 149.019056 
L 699.9264 151.182116 
L 704.6136 153.977655 
L 708.6312 156.632247 
L 711.3096 158.544173 
L 711.9792 139.001772 
L 712.6488 135.312805 
L 713.3184 133.238384 
L 713.988 132.074761 
L 714.6576 131.362245 
L 715.9968 130.534386 
L 719.3448 129.198554 
L 726.0408 126.561385 
L 729.3888 125.579913 
L 732.7368 124.85155 
L 736.7544 124.233639 
L 742.1112 123.671988 
L 746.1288 123.399682 
L 751.4856 123.058918 
L 752.8248 122.736781 
L 753.4944 122.143149 
L 754.164 119.641118 
L 755.5032 110.46244 
L 756.1728 107.091791 
L 756.8424 105.202735 
L 757.512 104.529794 
L 758.1816 104.729676 
L 758.8512 105.524499 
L 759.5208 106.717493 
L 760.86 109.807956 
L 765.5472 121.800033 
L 766.8864 124.018698 
L 768.2256 125.656745 
L 769.5648 126.885724 
L 770.904 127.859093 
L 772.9128 128.979121 
L 774.9216 129.842985 
L 777.6 130.69759 
L 777.6 130.69759 
" clip-path="url(#p015af66dd6)" style="fill: none; stroke: #4169e1; stroke-width: 1.5; stroke-linecap: square"/>
   </g>
   <g id="patch_3">
    <path d="M 108 256.32 
L 108 34.56 
" style="fill: none; stroke: #000000; stroke-width: 0.8; stroke-linejoin: miter; stroke-linecap: square"/>
   </g>
   <g id="patch_4">
    <path d="M 777.6 256.32 
L 777.6 34.56 
" style="fill: none; stroke: #000000; stroke-width: 0.8; stroke-linejoin: miter; stroke-linecap: square"/>
   </g>
   <g id="patch_5">
    <path d="M 108 256.32 
L 777.6 256.32 
" style="fill: none; stroke: #000000; stroke-width: 0.8; stroke-linejoin: miter; stroke-linecap: square"/>
   </g>
   <g id="patch_6">
    <path d="M 108 34.56 
L 777.6 34.56 
" style="fill: none; stroke: #000000; stroke-width: 0.8; stroke-linejoin: miter; stroke-linecap: square"/>
   </g>
   <g id="legend_1">
    <g id="patch_7">
     <path d="M 115 71.91625 
L 190.501563 71.91625 
Q 192.501563 71.91625 192.501563 69.91625 
L 192.501563 41.56 
Q 192.501563 39.56 190.501563 39.56 
L 115 39.56 
Q 113 39.56 113 41.56 
L 113 69.91625 
Q 113 71.91625 115 71.91625 
z
" style="fill: #ffffff; opacity: 0.8; stroke: #cccccc; stroke-linejoin: miter"/>
    </g>
    <g id="line2d_25">
     <path d="M 117 47.658437 
L 127 47.658437 
L 137 47.658437 
" style="fill: none; stroke: #000000; stroke-width: 1.5; stroke-linecap: square"/>
    </g>
    <g id="text_14">
     <!-- Soma -->
     <g transform="translate(145 51.158437) scale(0.1 -0.1)">
      <defs>
       <path id="DejaVuSans-53" d="M 3425 4513 
L 3425 3897 
Q 3066 4069 2747 4153 
Q 2428 4238 2131 4238 
Q 1616 4238 1336 4038 
Q 1056 3838 1056 3469 
Q 1056 3159 1242 3001 
Q 1428 2844 1947 2747 
L 2328 2669 
Q 3034 2534 3370 2195 
Q 3706 1856 3706 1288 
Q 3706 609 3251 259 
Q 2797 -91 1919 -91 
Q 1588 -91 1214 -16 
Q 841 59 441 206 
L 441 856 
Q 825 641 1194 531 
Q 1563 422 1919 422 
Q 2459 422 2753 634 
Q 3047 847 3047 1241 
Q 3047 1584 2836 1778 
Q 2625 1972 2144 2069 
L 1759 2144 
Q 1053 2284 737 2584 
Q 422 2884 422 3419 
Q 422 4038 858 4394 
Q 1294 4750 2059 4750 
Q 2388 4750 2728 4690 
Q 3069 4631 3425 4513 
z
" transform="scale(0.015625)"/>
       <path id="DejaVuSans-6f" d="M 1959 3097 
Q 1497 3097 1228 2736 
Q 959 2375 959 1747 
Q 959 1119 1226 758 
Q 1494 397 1959 397 
Q 2419 397 2687 759 
Q 2956 1122 2956 1747 
Q 2956 2369 2687 2733 
Q 2419 3097 1959 3097 
z
M 1959 3584 
Q 2709 3584 3137 3096 
Q 3566 2609 3566 1747 
Q 3566 888 3137 398 
Q 2709 -91 1959 -91 
Q 1206 -91 779 398 
Q 353 888 353 1747 
Q 353 2609 779 3096 
Q 1206 3584 1959 3584 
z
" transform="scale(0.015625)"/>
       <path id="DejaVuSans-61" d="M 2194 1759 
Q 1497 1759 1228 1600 
Q 959 1441 959 1056 
Q 959 750 1161 570 
Q 1363 391 1709 391 
Q 2188 391 2477 730 
Q 2766 1069 2766 1631 
L 2766 1759 
L 2194 1759 
z
M 3341 1997 
L 3341 0 
L 2766 0 
L 2766 531 
Q 2569 213 2275 61 
Q 1981 -91 1556 -91 
Q 1019 -91 701 211 
Q 384 513 384 1019 
Q 384 1609 779 1909 
Q 1175 2209 1959 2209 
L 2766 2209 
L 2766 2266 
Q 2766 2663 2505 2880 
Q 2244 3097 1772 3097 
Q 1472 3097 1187 3025 
Q 903 2953 641 2809 
L 641 3341 
Q 956 3463 1253 3523 
Q 1550 3584 1831 3584 
Q 2591 3584 2966 3190 
Q 3341 2797 3341 1997 
z
" transform="scale(0.015625)"/>
      </defs>
      <use xlink:href="#DejaVuSans-53"/>
      <use xlink:href="#DejaVuSans-6f" x="63.476562"/>
      <use xlink:href="#DejaVuSans-6d" x="124.658203"/>
      <use xlink:href="#DejaVuSans-61" x="222.070312"/>
     </g>
    </g>
    <g id="line2d_26">
     <path d="M 117 62.336562 
L 127 62.336562 
L 137 62.336562 
" style="fill: none; stroke: #4169e1; stroke-width: 1.5; stroke-linecap: square"/>
    </g>
    <g id="text_15">
     <!-- Dendrite -->
     <g transform="translate(145 65.836562) scale(0.1 -0.1)">
      <defs>
       <path id="DejaVuSans-44" d="M 1259 4147 
L 1259 519 
L 2022 519 
Q 2988 519 3436 956 
Q 3884 1394 3884 2338 
Q 3884 3275 3436 3711 
Q 2988 4147 2022 4147 
L 1259 4147 
z
M 628 4666 
L 1925 4666 
Q 3281 4666 3915 4102 
Q 4550 3538 4550 2338 
Q 4550 1131 3912 565 
Q 3275 0 1925 0 
L 628 0 
L 628 4666 
z
" transform="scale(0.015625)"/>
       <path id="DejaVuSans-6e" d="M 3513 2113 
L 3513 0 
L 2938 0 
L 2938 2094 
Q 2938 2591 2744 2837 
Q 2550 3084 2163 3084 
Q 1697 3084 1428 2787 
Q 1159 2491 1159 1978 
L 1159 0 
L 581 0 
L 581 3500 
L 1159 3500 
L 1159 2956 
Q 1366 3272 1645 3428 
Q 1925 3584 2291 3584 
Q 2894 3584 3203 3211 
Q 3513 2838 3513 2113 
z
" transform="scale(0.015625)"/>
       <path id="DejaVuSans-64" d="M 2906 2969 
L 2906 4863 
L 3481 4863 
L 3481 0 
L 2906 0 
L 2906 525 
Q 2725 213 2448 61 
Q 2172 -91 1784 -91 
Q 1150 -91 751 415 
Q 353 922 353 1747 
Q 353 2572 751 3078 
Q 1150 3584 1784 3584 
Q 2172 3584 2448 3432 
Q 2725 3281 2906 2969 
z
M 947 1747 
Q 947 1113 1208 752 
Q 1469 391 1925 391 
Q 2381 391 2643 752 
Q 2906 1113 2906 1747 
Q 2906 2381 2643 2742 
Q 2381 3103 1925 3103 
Q 1469 3103 1208 2742 
Q 947 2381 947 1747 
z
" transform="scale(0.015625)"/>
       <path id="DejaVuSans-72" d="M 2631 2963 
Q 2534 3019 2420 3045 
Q 2306 3072 2169 3072 
Q 1681 3072 1420 2755 
Q 1159 2438 1159 1844 
L 1159 0 
L 581 0 
L 581 3500 
L 1159 3500 
L 1159 2956 
Q 1341 3275 1631 3429 
Q 1922 3584 2338 3584 
Q 2397 3584 2469 3576 
Q 2541 3569 2628 3553 
L 2631 2963 
z
" transform="scale(0.015625)"/>
       <path id="DejaVuSans-74" d="M 1172 4494 
L 1172 3500 
L 2356 3500 
L 2356 3053 
L 1172 3053 
L 1172 1153 
Q 1172 725 1289 603 
Q 1406 481 1766 481 
L 2356 481 
L 2356 0 
L 1766 0 
Q 1100 0 847 248 
Q 594 497 594 1153 
L 594 3053 
L 172 3053 
L 172 3500 
L 594 3500 
L 594 4494 
L 1172 4494 
z
" transform="scale(0.015625)"/>
      </defs>
      <use xlink:href="#DejaVuSans-44"/>
      <use xlink:href="#DejaVuSans-65" x="77.001953"/>
      <use xlink:href="#DejaVuSans-6e" x="138.525391"/>
      <use xlink:href="#DejaVuSans-64" x="201.904297"/>
      <use xlink:href="#DejaVuSans-72" x="265.380859"/>
      <use xlink:href="#DejaVuSans-69" x="306.494141"/>
      <use xlink:href="#DejaVuSans-74" x="334.277344"/>
      <use xlink:href="#DejaVuSans-65" x="373.486328"/>
     </g>
    </g>
   </g>
  </g>
 </g>
 <defs>
  <clipPath id="p015af66dd6">
   <rect x="108" y="34.56" width="669.6" height="221.76"/>
  </clipPath>
 </defs>
</svg>
