<?xml version="1.0" encoding="utf-8" standalone="no"?>
<!DOCTYPE svg PUBLIC "-//W3C//DTD SVG 1.1//EN"
  "http://www.w3.org/Graphics/SVG/1.1/DTD/svg11.dtd">
<svg xmlns:xlink="http://www.w3.org/1999/xlink" width="864pt" height="288pt" viewBox="0 0 864 288" xmlns="http://www.w3.org/2000/svg" version="1.1">
 <metadata>
  <rdf:RDF xmlns:dc="http://purl.org/dc/elements/1.1/" xmlns:cc="http://creativecommons.org/ns#" xmlns:rdf="http://www.w3.org/1999/02/22-rdf-syntax-ns#">
   <cc:Work>
    <dc:type rdf:resource="http://purl.org/dc/dcmitype/StillImage"/>
    <dc:date>2024-04-12T18:08:15.875179</dc:date>
    <dc:format>image/svg+xml</dc:format>
    <dc:creator>
     <cc:Agent>
      <dc:title>Matplotlib v3.8.2, https://matplotlib.org/</dc:title>
     </cc:Agent>
    </dc:creator>
   </cc:Work>
  </rdf:RDF>
 </metadata>
 <defs>
  <style type="text/css">*{stroke-linejoin: round; stroke-linecap: butt}</style>
 </defs>
 <g id="figure_1">
  <g id="patch_1">
   <path d="M 0 288 
L 864 288 
L 864 0 
L 0 0 
z
" style="fill: #ffffff"/>
  </g>
  <g id="axes_1">
   <g id="patch_2">
    <path d="M 108 256.32 
L 777.6 256.32 
L 777.6 34.56 
L 108 34.56 
z
" style="fill: #ffffff"/>
   </g>
   <g id="matplotlib.axis_1">
    <g id="xtick_1">
     <g id="line2d_1">
      <path d="M 108 256.32 
L 108 34.56 
" clip-path="url(#p17ccc61f08)" style="fill: none; stroke: #b0b0b0; stroke-width: 0.8; stroke-linecap: square"/>
     </g>
     <g id="line2d_2">
      <defs>
       <path id="m3db2e78c1f" d="M 0 0 
L 0 3.5 
" style="stroke: #000000; stroke-width: 0.8"/>
      </defs>
      <g>
       <use xlink:href="#m3db2e78c1f" x="108" y="256.32" style="stroke: #000000; stroke-width: 0.8"/>
      </g>
     </g>
     <g id="text_1">
      <!-- 100 -->
      <g transform="translate(94.63875 273.957812) scale(0.14 -0.14)">
       <defs>
        <path id="DejaVuSans-31" d="M 794 531 
L 1825 531 
L 1825 4091 
L 703 3866 
L 703 4441 
L 1819 4666 
L 2450 4666 
L 2450 531 
L 3481 531 
L 3481 0 
L 794 0 
L 794 531 
z
" transform="scale(0.015625)"/>
        <path id="DejaVuSans-30" d="M 2034 4250 
Q 1547 4250 1301 3770 
Q 1056 3291 1056 2328 
Q 1056 1369 1301 889 
Q 1547 409 2034 409 
Q 2525 409 2770 889 
Q 3016 1369 3016 2328 
Q 3016 3291 2770 3770 
Q 2525 4250 2034 4250 
z
M 2034 4750 
Q 2819 4750 3233 4129 
Q 3647 3509 3647 2328 
Q 3647 1150 3233 529 
Q 2819 -91 2034 -91 
Q 1250 -91 836 529 
Q 422 1150 422 2328 
Q 422 3509 836 4129 
Q 1250 4750 2034 4750 
z
" transform="scale(0.015625)"/>
       </defs>
       <use xlink:href="#DejaVuSans-31"/>
       <use xlink:href="#DejaVuSans-30" x="63.623047"/>
       <use xlink:href="#DejaVuSans-30" x="127.246094"/>
      </g>
     </g>
    </g>
    <g id="xtick_2">
     <g id="line2d_3">
      <path d="M 241.92 256.32 
L 241.92 34.56 
" clip-path="url(#p17ccc61f08)" style="fill: none; stroke: #b0b0b0; stroke-width: 0.8; stroke-linecap: square"/>
     </g>
     <g id="line2d_4">
      <g>
       <use xlink:href="#m3db2e78c1f" x="241.92" y="256.32" style="stroke: #000000; stroke-width: 0.8"/>
      </g>
     </g>
     <g id="text_2">
      <!-- 120 -->
      <g transform="translate(228.55875 273.957812) scale(0.14 -0.14)">
       <defs>
        <path id="DejaVuSans-32" d="M 1228 531 
L 3431 531 
L 3431 0 
L 469 0 
L 469 531 
Q 828 903 1448 1529 
Q 2069 2156 2228 2338 
Q 2531 2678 2651 2914 
Q 2772 3150 2772 3378 
Q 2772 3750 2511 3984 
Q 2250 4219 1831 4219 
Q 1534 4219 1204 4116 
Q 875 4013 500 3803 
L 500 4441 
Q 881 4594 1212 4672 
Q 1544 4750 1819 4750 
Q 2544 4750 2975 4387 
Q 3406 4025 3406 3419 
Q 3406 3131 3298 2873 
Q 3191 2616 2906 2266 
Q 2828 2175 2409 1742 
Q 1991 1309 1228 531 
z
" transform="scale(0.015625)"/>
       </defs>
       <use xlink:href="#DejaVuSans-31"/>
       <use xlink:href="#DejaVuSans-32" x="63.623047"/>
       <use xlink:href="#DejaVuSans-30" x="127.246094"/>
      </g>
     </g>
    </g>
    <g id="xtick_3">
     <g id="line2d_5">
      <path d="M 375.84 256.32 
L 375.84 34.56 
" clip-path="url(#p17ccc61f08)" style="fill: none; stroke: #b0b0b0; stroke-width: 0.8; stroke-linecap: square"/>
     </g>
     <g id="line2d_6">
      <g>
       <use xlink:href="#m3db2e78c1f" x="375.84" y="256.32" style="stroke: #000000; stroke-width: 0.8"/>
      </g>
     </g>
     <g id="text_3">
      <!-- 140 -->
      <g transform="translate(362.47875 273.957812) scale(0.14 -0.14)">
       <defs>
        <path id="DejaVuSans-34" d="M 2419 4116 
L 825 1625 
L 2419 1625 
L 2419 4116 
z
M 2253 4666 
L 3047 4666 
L 3047 1625 
L 3713 1625 
L 3713 1100 
L 3047 1100 
L 3047 0 
L 2419 0 
L 2419 1100 
L 313 1100 
L 313 1709 
L 2253 4666 
z
" transform="scale(0.015625)"/>
       </defs>
       <use xlink:href="#DejaVuSans-31"/>
       <use xlink:href="#DejaVuSans-34" x="63.623047"/>
       <use xlink:href="#DejaVuSans-30" x="127.246094"/>
      </g>
     </g>
    </g>
    <g id="xtick_4">
     <g id="line2d_7">
      <path d="M 509.76 256.32 
L 509.76 34.56 
" clip-path="url(#p17ccc61f08)" style="fill: none; stroke: #b0b0b0; stroke-width: 0.8; stroke-linecap: square"/>
     </g>
     <g id="line2d_8">
      <g>
       <use xlink:href="#m3db2e78c1f" x="509.76" y="256.32" style="stroke: #000000; stroke-width: 0.8"/>
      </g>
     </g>
     <g id="text_4">
      <!-- 160 -->
      <g transform="translate(496.39875 273.957812) scale(0.14 -0.14)">
       <defs>
        <path id="DejaVuSans-36" d="M 2113 2584 
Q 1688 2584 1439 2293 
Q 1191 2003 1191 1497 
Q 1191 994 1439 701 
Q 1688 409 2113 409 
Q 2538 409 2786 701 
Q 3034 994 3034 1497 
Q 3034 2003 2786 2293 
Q 2538 2584 2113 2584 
z
M 3366 4563 
L 3366 3988 
Q 3128 4100 2886 4159 
Q 2644 4219 2406 4219 
Q 1781 4219 1451 3797 
Q 1122 3375 1075 2522 
Q 1259 2794 1537 2939 
Q 1816 3084 2150 3084 
Q 2853 3084 3261 2657 
Q 3669 2231 3669 1497 
Q 3669 778 3244 343 
Q 2819 -91 2113 -91 
Q 1303 -91 875 529 
Q 447 1150 447 2328 
Q 447 3434 972 4092 
Q 1497 4750 2381 4750 
Q 2619 4750 2861 4703 
Q 3103 4656 3366 4563 
z
" transform="scale(0.015625)"/>
       </defs>
       <use xlink:href="#DejaVuSans-31"/>
       <use xlink:href="#DejaVuSans-36" x="63.623047"/>
       <use xlink:href="#DejaVuSans-30" x="127.246094"/>
      </g>
     </g>
    </g>
    <g id="xtick_5">
     <g id="line2d_9">
      <path d="M 643.68 256.32 
L 643.68 34.56 
" clip-path="url(#p17ccc61f08)" style="fill: none; stroke: #b0b0b0; stroke-width: 0.8; stroke-linecap: square"/>
     </g>
     <g id="line2d_10">
      <g>
       <use xlink:href="#m3db2e78c1f" x="643.68" y="256.32" style="stroke: #000000; stroke-width: 0.8"/>
      </g>
     </g>
     <g id="text_5">
      <!-- 180 -->
      <g transform="translate(630.31875 273.957812) scale(0.14 -0.14)">
       <defs>
        <path id="DejaVuSans-38" d="M 2034 2216 
Q 1584 2216 1326 1975 
Q 1069 1734 1069 1313 
Q 1069 891 1326 650 
Q 1584 409 2034 409 
Q 2484 409 2743 651 
Q 3003 894 3003 1313 
Q 3003 1734 2745 1975 
Q 2488 2216 2034 2216 
z
M 1403 2484 
Q 997 2584 770 2862 
Q 544 3141 544 3541 
Q 544 4100 942 4425 
Q 1341 4750 2034 4750 
Q 2731 4750 3128 4425 
Q 3525 4100 3525 3541 
Q 3525 3141 3298 2862 
Q 3072 2584 2669 2484 
Q 3125 2378 3379 2068 
Q 3634 1759 3634 1313 
Q 3634 634 3220 271 
Q 2806 -91 2034 -91 
Q 1263 -91 848 271 
Q 434 634 434 1313 
Q 434 1759 690 2068 
Q 947 2378 1403 2484 
z
M 1172 3481 
Q 1172 3119 1398 2916 
Q 1625 2713 2034 2713 
Q 2441 2713 2670 2916 
Q 2900 3119 2900 3481 
Q 2900 3844 2670 4047 
Q 2441 4250 2034 4250 
Q 1625 4250 1398 4047 
Q 1172 3844 1172 3481 
z
" transform="scale(0.015625)"/>
       </defs>
       <use xlink:href="#DejaVuSans-31"/>
       <use xlink:href="#DejaVuSans-38" x="63.623047"/>
       <use xlink:href="#DejaVuSans-30" x="127.246094"/>
      </g>
     </g>
    </g>
    <g id="xtick_6">
     <g id="line2d_11">
      <path d="M 777.6 256.32 
L 777.6 34.56 
" clip-path="url(#p17ccc61f08)" style="fill: none; stroke: #b0b0b0; stroke-width: 0.8; stroke-linecap: square"/>
     </g>
     <g id="line2d_12">
      <g>
       <use xlink:href="#m3db2e78c1f" x="777.6" y="256.32" style="stroke: #000000; stroke-width: 0.8"/>
      </g>
     </g>
     <g id="text_6">
      <!-- 200 -->
      <g transform="translate(764.23875 273.957812) scale(0.14 -0.14)">
       <use xlink:href="#DejaVuSans-32"/>
       <use xlink:href="#DejaVuSans-30" x="63.623047"/>
       <use xlink:href="#DejaVuSans-30" x="127.246094"/>
      </g>
     </g>
    </g>
    <g id="text_7">
     <!-- Time (ms) -->
     <g transform="translate(407.521094 291.507187) scale(0.14 -0.14)">
      <defs>
       <path id="DejaVuSans-54" d="M -19 4666 
L 3928 4666 
L 3928 4134 
L 2272 4134 
L 2272 0 
L 1638 0 
L 1638 4134 
L -19 4134 
L -19 4666 
z
" transform="scale(0.015625)"/>
       <path id="DejaVuSans-69" d="M 603 3500 
L 1178 3500 
L 1178 0 
L 603 0 
L 603 3500 
z
M 603 4863 
L 1178 4863 
L 1178 4134 
L 603 4134 
L 603 4863 
z
" transform="scale(0.015625)"/>
       <path id="DejaVuSans-6d" d="M 3328 2828 
Q 3544 3216 3844 3400 
Q 4144 3584 4550 3584 
Q 5097 3584 5394 3201 
Q 5691 2819 5691 2113 
L 5691 0 
L 5113 0 
L 5113 2094 
Q 5113 2597 4934 2840 
Q 4756 3084 4391 3084 
Q 3944 3084 3684 2787 
Q 3425 2491 3425 1978 
L 3425 0 
L 2847 0 
L 2847 2094 
Q 2847 2600 2669 2842 
Q 2491 3084 2119 3084 
Q 1678 3084 1418 2786 
Q 1159 2488 1159 1978 
L 1159 0 
L 581 0 
L 581 3500 
L 1159 3500 
L 1159 2956 
Q 1356 3278 1631 3431 
Q 1906 3584 2284 3584 
Q 2666 3584 2933 3390 
Q 3200 3197 3328 2828 
z
" transform="scale(0.015625)"/>
       <path id="DejaVuSans-65" d="M 3597 1894 
L 3597 1613 
L 953 1613 
Q 991 1019 1311 708 
Q 1631 397 2203 397 
Q 2534 397 2845 478 
Q 3156 559 3463 722 
L 3463 178 
Q 3153 47 2828 -22 
Q 2503 -91 2169 -91 
Q 1331 -91 842 396 
Q 353 884 353 1716 
Q 353 2575 817 3079 
Q 1281 3584 2069 3584 
Q 2775 3584 3186 3129 
Q 3597 2675 3597 1894 
z
M 3022 2063 
Q 3016 2534 2758 2815 
Q 2500 3097 2075 3097 
Q 1594 3097 1305 2825 
Q 1016 2553 972 2059 
L 3022 2063 
z
" transform="scale(0.015625)"/>
       <path id="DejaVuSans-20" transform="scale(0.015625)"/>
       <path id="DejaVuSans-28" d="M 1984 4856 
Q 1566 4138 1362 3434 
Q 1159 2731 1159 2009 
Q 1159 1288 1364 580 
Q 1569 -128 1984 -844 
L 1484 -844 
Q 1016 -109 783 600 
Q 550 1309 550 2009 
Q 550 2706 781 3412 
Q 1013 4119 1484 4856 
L 1984 4856 
z
" transform="scale(0.015625)"/>
       <path id="DejaVuSans-73" d="M 2834 3397 
L 2834 2853 
Q 2591 2978 2328 3040 
Q 2066 3103 1784 3103 
Q 1356 3103 1142 2972 
Q 928 2841 928 2578 
Q 928 2378 1081 2264 
Q 1234 2150 1697 2047 
L 1894 2003 
Q 2506 1872 2764 1633 
Q 3022 1394 3022 966 
Q 3022 478 2636 193 
Q 2250 -91 1575 -91 
Q 1294 -91 989 -36 
Q 684 19 347 128 
L 347 722 
Q 666 556 975 473 
Q 1284 391 1588 391 
Q 1994 391 2212 530 
Q 2431 669 2431 922 
Q 2431 1156 2273 1281 
Q 2116 1406 1581 1522 
L 1381 1569 
Q 847 1681 609 1914 
Q 372 2147 372 2553 
Q 372 3047 722 3315 
Q 1072 3584 1716 3584 
Q 2034 3584 2315 3537 
Q 2597 3491 2834 3397 
z
" transform="scale(0.015625)"/>
       <path id="DejaVuSans-29" d="M 513 4856 
L 1013 4856 
Q 1481 4119 1714 3412 
Q 1947 2706 1947 2009 
Q 1947 1309 1714 600 
Q 1481 -109 1013 -844 
L 513 -844 
Q 928 -128 1133 580 
Q 1338 1288 1338 2009 
Q 1338 2731 1133 3434 
Q 928 4138 513 4856 
z
" transform="scale(0.015625)"/>
      </defs>
      <use xlink:href="#DejaVuSans-54"/>
      <use xlink:href="#DejaVuSans-69" x="57.958984"/>
      <use xlink:href="#DejaVuSans-6d" x="85.742188"/>
      <use xlink:href="#DejaVuSans-65" x="183.154297"/>
      <use xlink:href="#DejaVuSans-20" x="244.677734"/>
      <use xlink:href="#DejaVuSans-28" x="276.464844"/>
      <use xlink:href="#DejaVuSans-6d" x="315.478516"/>
      <use xlink:href="#DejaVuSans-73" x="412.890625"/>
      <use xlink:href="#DejaVuSans-29" x="464.990234"/>
     </g>
    </g>
   </g>
   <g id="matplotlib.axis_2">
    <g id="ytick_1">
     <g id="line2d_13">
      <path d="M 108 225.258333 
L 777.6 225.258333 
" clip-path="url(#p17ccc61f08)" style="fill: none; stroke: #b0b0b0; stroke-width: 0.8; stroke-linecap: square"/>
     </g>
     <g id="line2d_14">
      <defs>
       <path id="m50e50b35c3" d="M 0 0 
L -3.5 0 
" style="stroke: #000000; stroke-width: 0.8"/>
      </defs>
      <g>
       <use xlink:href="#m50e50b35c3" x="108" y="225.258333" style="stroke: #000000; stroke-width: 0.8"/>
      </g>
     </g>
     <g id="text_8">
      <!-- −60 -->
      <g transform="translate(71.453437 230.577239) scale(0.14 -0.14)">
       <defs>
        <path id="DejaVuSans-2212" d="M 678 2272 
L 4684 2272 
L 4684 1741 
L 678 1741 
L 678 2272 
z
" transform="scale(0.015625)"/>
       </defs>
       <use xlink:href="#DejaVuSans-2212"/>
       <use xlink:href="#DejaVuSans-36" x="83.789062"/>
       <use xlink:href="#DejaVuSans-30" x="147.412109"/>
      </g>
     </g>
    </g>
    <g id="ytick_2">
     <g id="line2d_15">
      <path d="M 108 183.361864 
L 777.6 183.361864 
" clip-path="url(#p17ccc61f08)" style="fill: none; stroke: #b0b0b0; stroke-width: 0.8; stroke-linecap: square"/>
     </g>
     <g id="line2d_16">
      <g>
       <use xlink:href="#m50e50b35c3" x="108" y="183.361864" style="stroke: #000000; stroke-width: 0.8"/>
      </g>
     </g>
     <g id="text_9">
      <!-- −40 -->
      <g transform="translate(71.453437 188.68077) scale(0.14 -0.14)">
       <use xlink:href="#DejaVuSans-2212"/>
       <use xlink:href="#DejaVuSans-34" x="83.789062"/>
       <use xlink:href="#DejaVuSans-30" x="147.412109"/>
      </g>
     </g>
    </g>
    <g id="ytick_3">
     <g id="line2d_17">
      <path d="M 108 141.465395 
L 777.6 141.465395 
" clip-path="url(#p17ccc61f08)" style="fill: none; stroke: #b0b0b0; stroke-width: 0.8; stroke-linecap: square"/>
     </g>
     <g id="line2d_18">
      <g>
       <use xlink:href="#m50e50b35c3" x="108" y="141.465395" style="stroke: #000000; stroke-width: 0.8"/>
      </g>
     </g>
     <g id="text_10">
      <!-- −20 -->
      <g transform="translate(71.453437 146.784301) scale(0.14 -0.14)">
       <use xlink:href="#DejaVuSans-2212"/>
       <use xlink:href="#DejaVuSans-32" x="83.789062"/>
       <use xlink:href="#DejaVuSans-30" x="147.412109"/>
      </g>
     </g>
    </g>
    <g id="ytick_4">
     <g id="line2d_19">
      <path d="M 108 99.568926 
L 777.6 99.568926 
" clip-path="url(#p17ccc61f08)" style="fill: none; stroke: #b0b0b0; stroke-width: 0.8; stroke-linecap: square"/>
     </g>
     <g id="line2d_20">
      <g>
       <use xlink:href="#m50e50b35c3" x="108" y="99.568926" style="stroke: #000000; stroke-width: 0.8"/>
      </g>
     </g>
     <g id="text_11">
      <!-- 0 -->
      <g transform="translate(92.0925 104.887832) scale(0.14 -0.14)">
       <use xlink:href="#DejaVuSans-30"/>
      </g>
     </g>
    </g>
    <g id="ytick_5">
     <g id="line2d_21">
      <path d="M 108 57.672457 
L 777.6 57.672457 
" clip-path="url(#p17ccc61f08)" style="fill: none; stroke: #b0b0b0; stroke-width: 0.8; stroke-linecap: square"/>
     </g>
     <g id="line2d_22">
      <g>
       <use xlink:href="#m50e50b35c3" x="108" y="57.672457" style="stroke: #000000; stroke-width: 0.8"/>
      </g>
     </g>
     <g id="text_12">
      <!-- 20 -->
      <g transform="translate(83.185 62.991363) scale(0.14 -0.14)">
       <use xlink:href="#DejaVuSans-32"/>
       <use xlink:href="#DejaVuSans-30" x="63.623047"/>
      </g>
     </g>
    </g>
    <g id="text_13">
     <!-- $V_{m}$ (mV) -->
     <g transform="translate(64.541875 174.49) rotate(-90) scale(0.14 -0.14)">
      <defs>
       <path id="DejaVuSans-Oblique-56" d="M 1319 0 
L 500 4666 
L 1119 4666 
L 1797 653 
L 4063 4666 
L 4750 4666 
L 2053 0 
L 1319 0 
z
" transform="scale(0.015625)"/>
       <path id="DejaVuSans-Oblique-6d" d="M 5747 2113 
L 5338 0 
L 4763 0 
L 5166 2094 
Q 5191 2228 5203 2325 
Q 5216 2422 5216 2491 
Q 5216 2772 5059 2928 
Q 4903 3084 4622 3084 
Q 4203 3084 3875 2770 
Q 3547 2456 3450 1953 
L 3066 0 
L 2491 0 
L 2900 2094 
Q 2925 2209 2937 2307 
Q 2950 2406 2950 2484 
Q 2950 2769 2794 2926 
Q 2638 3084 2363 3084 
Q 1938 3084 1609 2770 
Q 1281 2456 1184 1953 
L 800 0 
L 225 0 
L 909 3500 
L 1484 3500 
L 1375 2956 
Q 1609 3263 1923 3423 
Q 2238 3584 2597 3584 
Q 2978 3584 3223 3384 
Q 3469 3184 3519 2828 
Q 3781 3197 4126 3390 
Q 4472 3584 4856 3584 
Q 5306 3584 5551 3325 
Q 5797 3066 5797 2591 
Q 5797 2488 5784 2364 
Q 5772 2241 5747 2113 
z
" transform="scale(0.015625)"/>
       <path id="DejaVuSans-56" d="M 1831 0 
L 50 4666 
L 709 4666 
L 2188 738 
L 3669 4666 
L 4325 4666 
L 2547 0 
L 1831 0 
z
" transform="scale(0.015625)"/>
      </defs>
      <use xlink:href="#DejaVuSans-Oblique-56" transform="translate(0 0.125)"/>
      <use xlink:href="#DejaVuSans-Oblique-6d" transform="translate(68.408203 -16.28125) scale(0.7)"/>
      <use xlink:href="#DejaVuSans-20" transform="translate(139.331055 0.125)"/>
      <use xlink:href="#DejaVuSans-28" transform="translate(171.118164 0.125)"/>
      <use xlink:href="#DejaVuSans-6d" transform="translate(210.131836 0.125)"/>
      <use xlink:href="#DejaVuSans-56" transform="translate(307.543945 0.125)"/>
      <use xlink:href="#DejaVuSans-29" transform="translate(375.952148 0.125)"/>
     </g>
    </g>
   </g>
   <g id="line2d_23">
    <path d="M 108 215.594276 
L 110.0088 215.433475 
L 111.348 215.239009 
L 112.6872 215.287402 
L 114.696 215.222649 
L 116.0352 215.368097 
L 118.044 216.03731 
L 119.3832 216.693951 
L 120.0528 216.847578 
L 121.392 217.524045 
L 122.7312 218.071395 
L 124.0704 218.31276 
L 126.0792 218.444044 
L 128.7576 218.403959 
L 132.1056 218.141538 
L 134.784 217.955496 
L 136.1232 218.103492 
L 137.4624 218.716213 
L 140.8104 219.255581 
L 142.8192 219.263942 
L 143.4888 219.234606 
L 144.828 219.40498 
L 146.8368 219.372043 
L 148.8456 219.345495 
L 150.1848 219.38747 
L 152.8632 219.167957 
L 156.8808 218.590327 
L 162.2376 217.558789 
L 168.264 216.164144 
L 176.9688 213.89389 
L 196.3872 208.534799 
L 198.396 207.818089 
L 200.4048 207.525621 
L 204.4224 206.496457 
L 205.7616 206.126389 
L 207.7704 206.021885 
L 208.44 205.921921 
L 210.4488 206.004289 
L 213.1272 205.695932 
L 216.4752 205.059316 
L 221.1624 203.909071 
L 224.5104 202.92235 
L 225.8496 202.436415 
L 227.1888 202.280714 
L 229.1976 203.019468 
L 231.2064 203.38678 
L 233.2152 203.675257 
L 233.8848 203.851131 
L 234.5544 204.144438 
L 235.8936 205.112223 
L 237.2328 206.213749 
L 238.572 207.157621 
L 239.9112 208.189028 
L 241.2504 209.550923 
L 242.5896 210.277608 
L 243.9288 210.71765 
L 244.5984 210.875004 
L 245.9376 211.404523 
L 246.6072 211.573025 
L 248.616 212.545072 
L 250.6248 213.531608 
L 251.964 214.003361 
L 253.9728 214.353295 
L 255.9816 215.38588 
L 257.3208 215.831581 
L 259.3296 216.144621 
L 261.3384 216.426944 
L 262.6776 216.656459 
L 266.0256 217.023045 
L 267.3648 217.379754 
L 269.3736 217.536277 
L 271.3824 217.665956 
L 272.7216 217.802973 
L 275.4 217.747406 
L 278.748 217.453663 
L 282.7656 217.047117 
L 284.1048 217.031882 
L 286.7832 216.716072 
L 292.8096 215.919983 
L 294.8184 215.683707 
L 298.836 214.954946 
L 304.8624 213.619473 
L 313.5672 211.434753 
L 326.2896 207.985193 
L 330.3072 206.804461 
L 333.6552 205.479858 
L 337.6728 203.6575 
L 339.6816 202.567755 
L 341.0208 201.625166 
L 342.36 200.399566 
L 343.0296 199.5182 
L 343.6992 198.293466 
L 344.3688 196.266042 
L 345.0384 191.470469 
L 345.708 169.812747 
L 346.3776 73.534009 
L 347.0472 58.909729 
L 347.7168 80.282466 
L 348.3864 96.576579 
L 349.7256 121.067083 
L 351.7344 152.742399 
L 353.7432 180.403598 
L 355.0824 195.883004 
L 355.752 201.227139 
L 356.4216 204.767312 
L 357.0912 207.303318 
L 357.7608 209.132096 
L 359.1 211.892799 
L 359.7696 212.85577 
L 360.4392 213.568109 
L 362.448 215.096285 
L 363.7872 215.963725 
L 365.1264 216.431415 
L 369.8136 217.03381 
L 371.8224 216.784475 
L 372.492 216.658783 
L 373.8312 216.909425 
L 375.1704 217.642492 
L 376.5096 217.826085 
L 378.5184 217.754249 
L 379.188 217.688655 
L 379.8576 217.753577 
L 382.536 218.370657 
L 383.8752 218.627403 
L 385.2144 218.807449 
L 388.5624 219.273216 
L 391.2408 219.294363 
L 392.58 219.621272 
L 394.5888 219.668954 
L 397.2672 219.480935 
L 398.6064 219.33121 
L 401.9544 219.538276 
L 403.9632 219.589919 
L 405.3024 219.783866 
L 406.6416 219.896359 
L 408.6504 219.947554 
L 409.9896 220.013661 
L 412.668 219.822626 
L 416.6856 219.262656 
L 421.3728 218.37484 
L 427.3992 217.137674 
L 428.7384 217.011228 
L 432.0864 216.350022 
L 438.1128 214.895491 
L 448.1568 212.202545 
L 465.5664 207.318405 
L 472.932 204.678007 
L 474.9408 204.438447 
L 477.6192 203.993106 
L 478.9584 203.95051 
L 481.6368 203.545478 
L 484.3152 203.106499 
L 484.9848 203.116027 
L 486.9936 203.483357 
L 489.0024 203.527392 
L 494.3592 206.213532 
L 495.6984 207.073639 
L 499.0464 208.313235 
L 503.7336 209.202249 
L 504.4032 209.250879 
L 505.7424 209.607456 
L 508.4208 209.975467 
L 511.0992 211.881828 
L 512.4384 212.322178 
L 514.4472 212.814699 
L 515.1168 213.014412 
L 516.456 213.809922 
L 517.1256 214.037586 
L 519.804 215.939467 
L 521.1432 216.412308 
L 523.8216 217.04778 
L 525.8304 217.946511 
L 528.5088 218.903687 
L 533.8656 219.792135 
L 536.544 219.817517 
L 539.892 219.639295 
L 543.9096 219.199433 
L 548.5968 218.450927 
L 553.9536 217.361844 
L 560.6496 215.747748 
L 569.3544 213.387815 
L 583.416 209.3024 
L 594.7992 205.801665 
L 598.1472 204.613337 
L 600.156 203.637661 
L 604.8432 201.027518 
L 605.5128 200.493691 
L 606.1824 199.78416 
L 606.852 198.81229 
L 607.5216 197.361701 
L 608.1912 194.428171 
L 608.8608 183.75578 
L 610.2 56.609794 
L 610.8696 70.003029 
L 611.5392 89.23811 
L 612.8784 115.490026 
L 614.8872 148.293916 
L 616.896 176.700492 
L 618.2352 192.932278 
L 618.9048 198.868952 
L 619.5744 202.966415 
L 620.244 205.712571 
L 620.9136 207.640495 
L 621.5832 209.05823 
L 622.2528 210.131214 
L 623.592 211.724224 
L 624.2616 212.315971 
L 626.94 213.939851 
L 628.2792 214.200327 
L 630.288 214.277393 
L 631.6272 214.799492 
L 632.9664 214.82716 
L 633.636 214.756634 
L 634.9752 214.806352 
L 635.6448 214.738803 
L 636.984 214.785754 
L 637.6536 214.719048 
L 639.6624 215.709522 
L 643.0104 216.290698 
L 644.3496 216.693068 
L 645.6888 216.931956 
L 647.028 217.104037 
L 647.6976 217.11778 
L 649.0368 217.494594 
L 650.376 217.728779 
L 651.0456 217.762212 
L 652.3848 218.024423 
L 653.724 218.229939 
L 655.7328 218.891665 
L 658.4112 219.631786 
L 660.42 220.592768 
L 661.7592 220.865082 
L 663.768 221.031474 
L 666.4464 221.03052 
L 668.4552 221.055971 
L 669.7944 221.129147 
L 672.4728 220.974231 
L 676.4904 220.476846 
L 681.1776 219.64921 
L 686.5344 218.472417 
L 693.2304 216.762337 
L 693.9 216.58043 
L 695.9088 216.38847 
L 699.2568 215.65494 
L 705.9528 213.917637 
L 722.6928 209.249123 
L 733.4064 206.171886 
L 741.4416 203.09684 
L 742.7808 202.500394 
L 745.4592 201.846721 
L 748.1376 200.976478 
L 749.4768 200.681277 
L 750.816 200.187141 
L 753.4944 198.783889 
L 754.164 198.285494 
L 754.8336 197.51436 
L 755.5032 196.249451 
L 756.1728 193.648895 
L 756.8424 184.289718 
L 757.512 139.202901 
L 758.1816 73.710662 
L 758.8512 73.53663 
L 760.1904 101.53007 
L 762.1992 135.955044 
L 764.208 166.539862 
L 766.2168 193.080284 
L 766.8864 199.864523 
L 767.556 204.510853 
L 768.2256 207.536331 
L 769.5648 211.406302 
L 770.2344 212.769213 
L 770.904 213.767363 
L 772.2432 215.240389 
L 773.5824 216.325162 
L 774.252 216.721741 
L 775.5912 217.158987 
L 777.6 217.458697 
L 777.6 217.458697 
" clip-path="url(#p17ccc61f08)" style="fill: none; stroke: #000000; stroke-width: 1.5; stroke-linecap: square"/>
   </g>
   <g id="line2d_24">
    <path d="M 108 132.941203 
L 112.6872 133.501743 
L 117.3744 134.112615 
L 120.7224 134.819614 
L 128.7576 136.702625 
L 138.8016 138.754856 
L 172.9512 148.446374 
L 179.6472 150.636427 
L 185.6736 152.840041 
L 191.0304 155.037116 
L 195.7176 157.175226 
L 196.3872 141.045632 
L 197.0568 138.043909 
L 197.7264 136.372677 
L 198.396 135.451396 
L 199.0656 134.901722 
L 200.4048 134.292723 
L 211.788 130.864966 
L 215.8056 130.124611 
L 220.4928 129.520343 
L 225.8496 129.074569 
L 228.528 128.987633 
L 231.876 129.196681 
L 235.8936 129.613128 
L 238.572 130.167435 
L 241.92 131.040589 
L 245.268 131.871861 
L 253.3032 133.736766 
L 258.66 135.046156 
L 278.748 139.763607 
L 288.1224 141.957143 
L 295.488 143.840895 
L 310.8888 148.253405 
L 318.2544 150.640195 
L 324.9504 153.066826 
L 329.6376 154.929367 
L 330.3072 139.918694 
L 330.9768 137.116332 
L 331.6464 135.571335 
L 332.316 134.727189 
L 332.9856 134.222666 
L 334.3248 133.639002 
L 339.012 132.036762 
L 343.0296 130.349944 
L 344.3688 129.675037 
L 345.0384 129.19474 
L 345.708 128.126213 
L 346.3776 124.33584 
L 347.7168 114.617597 
L 348.3864 111.822278 
L 349.056 110.510482 
L 349.7256 110.268225 
L 350.3952 110.737715 
L 351.0648 111.66907 
L 352.404 114.315061 
L 355.0824 120.729617 
L 356.4216 123.749972 
L 357.7608 126.130193 
L 359.1 127.860904 
L 360.4392 129.110143 
L 361.7784 130.011241 
L 363.7872 130.972543 
L 365.796 131.655012 
L 368.4744 132.273335 
L 371.8224 132.788958 
L 375.84 133.33113 
L 380.5272 134.033738 
L 385.884 134.962389 
L 404.6328 138.580394 
L 411.3288 140.246019 
L 419.364 142.148946 
L 430.0776 144.699745 
L 442.8 148.307864 
L 449.496 150.430115 
L 455.5224 152.566926 
L 460.8792 154.695706 
L 463.5576 155.85258 
L 464.2272 140.395109 
L 464.8968 137.522693 
L 465.5664 135.932464 
L 466.236 135.061892 
L 466.9056 134.541668 
L 468.2448 133.945118 
L 479.628 130.362052 
L 483.6456 129.609415 
L 486.324 129.294757 
L 489.672 129.164933 
L 492.3504 129.269182 
L 495.6984 129.655086 
L 503.7336 130.7136 
L 509.76 131.506796 
L 517.7952 133.236236 
L 527.8392 135.919938 
L 534.5352 137.685361 
L 541.2312 139.189971 
L 575.3808 146.527991 
L 583.416 148.622573 
L 590.7816 150.768297 
L 597.4776 152.870723 
L 598.1472 138.849323 
L 598.8168 136.195018 
L 599.4864 134.743447 
L 600.156 133.950443 
L 600.8256 133.472373 
L 602.1648 132.897352 
L 606.1824 131.485152 
L 607.5216 130.836868 
L 608.1912 130.409407 
L 608.8608 129.681267 
L 609.5304 127.281651 
L 610.8696 117.214582 
L 611.5392 113.483099 
L 612.2088 111.399877 
L 612.8784 110.616038 
L 613.548 110.726684 
L 614.2176 111.430148 
L 614.8872 112.519981 
L 616.2264 115.343628 
L 620.244 124.584267 
L 621.5832 126.678024 
L 622.9224 128.13792 
L 624.2616 129.154711 
L 625.6008 129.879103 
L 627.6096 130.64278 
L 629.6184 131.130866 
L 633.636 131.760622 
L 643.68 133.04595 
L 654.3936 134.881838 
L 659.0808 135.915674 
L 667.116 137.899606 
L 689.8824 142.577134 
L 696.5784 144.013595 
L 709.3008 147.286404 
L 716.6664 149.403599 
L 722.6928 151.346942 
L 728.7192 153.52949 
L 731.3976 154.585038 
L 732.0672 139.75104 
L 732.7368 136.981924 
L 733.4064 135.459317 
L 734.076 134.630536 
L 734.7456 134.137924 
L 736.0848 133.573814 
L 740.772 132.058 
L 745.4592 130.399861 
L 748.8072 129.485946 
L 753.4944 128.547403 
L 755.5032 128.124548 
L 756.1728 127.89954 
L 756.8424 127.425368 
L 757.512 125.721637 
L 759.5208 113.74516 
L 760.1904 111.576349 
L 760.86 110.637801 
L 761.5296 110.609021 
L 762.1992 111.205843 
L 762.8688 112.225532 
L 764.208 115.005887 
L 766.8864 121.653342 
L 768.2256 124.713023 
L 769.5648 127.077537 
L 770.904 128.807368 
L 772.2432 130.064895 
L 773.5824 131.005186 
L 774.9216 131.733007 
L 776.9304 132.530507 
L 777.6 132.739185 
L 777.6 132.739185 
" clip-path="url(#p17ccc61f08)" style="fill: none; stroke: #4169e1; stroke-width: 1.5; stroke-linecap: square"/>
   </g>
   <g id="patch_3">
    <path d="M 108 256.32 
L 108 34.56 
" style="fill: none; stroke: #000000; stroke-width: 0.8; stroke-linejoin: miter; stroke-linecap: square"/>
   </g>
   <g id="patch_4">
    <path d="M 777.6 256.32 
L 777.6 34.56 
" style="fill: none; stroke: #000000; stroke-width: 0.8; stroke-linejoin: miter; stroke-linecap: square"/>
   </g>
   <g id="patch_5">
    <path d="M 108 256.32 
L 777.6 256.32 
" style="fill: none; stroke: #000000; stroke-width: 0.8; stroke-linejoin: miter; stroke-linecap: square"/>
   </g>
   <g id="patch_6">
    <path d="M 108 34.56 
L 777.6 34.56 
" style="fill: none; stroke: #000000; stroke-width: 0.8; stroke-linejoin: miter; stroke-linecap: square"/>
   </g>
   <g id="legend_1">
    <g id="patch_7">
     <path d="M 695.098438 71.91625 
L 770.6 71.91625 
Q 772.6 71.91625 772.6 69.91625 
L 772.6 41.56 
Q 772.6 39.56 770.6 39.56 
L 695.098438 39.56 
Q 693.098438 39.56 693.098438 41.56 
L 693.098438 69.91625 
Q 693.098438 71.91625 695.098438 71.91625 
z
" style="fill: #ffffff; opacity: 0.8; stroke: #cccccc; stroke-linejoin: miter"/>
    </g>
    <g id="line2d_25">
     <path d="M 697.098438 47.658437 
L 707.098438 47.658437 
L 717.098438 47.658437 
" style="fill: none; stroke: #000000; stroke-width: 1.5; stroke-linecap: square"/>
    </g>
    <g id="text_14">
     <!-- Soma -->
     <g transform="translate(725.098438 51.158437) scale(0.1 -0.1)">
      <defs>
       <path id="DejaVuSans-53" d="M 3425 4513 
L 3425 3897 
Q 3066 4069 2747 4153 
Q 2428 4238 2131 4238 
Q 1616 4238 1336 4038 
Q 1056 3838 1056 3469 
Q 1056 3159 1242 3001 
Q 1428 2844 1947 2747 
L 2328 2669 
Q 3034 2534 3370 2195 
Q 3706 1856 3706 1288 
Q 3706 609 3251 259 
Q 2797 -91 1919 -91 
Q 1588 -91 1214 -16 
Q 841 59 441 206 
L 441 856 
Q 825 641 1194 531 
Q 1563 422 1919 422 
Q 2459 422 2753 634 
Q 3047 847 3047 1241 
Q 3047 1584 2836 1778 
Q 2625 1972 2144 2069 
L 1759 2144 
Q 1053 2284 737 2584 
Q 422 2884 422 3419 
Q 422 4038 858 4394 
Q 1294 4750 2059 4750 
Q 2388 4750 2728 4690 
Q 3069 4631 3425 4513 
z
" transform="scale(0.015625)"/>
       <path id="DejaVuSans-6f" d="M 1959 3097 
Q 1497 3097 1228 2736 
Q 959 2375 959 1747 
Q 959 1119 1226 758 
Q 1494 397 1959 397 
Q 2419 397 2687 759 
Q 2956 1122 2956 1747 
Q 2956 2369 2687 2733 
Q 2419 3097 1959 3097 
z
M 1959 3584 
Q 2709 3584 3137 3096 
Q 3566 2609 3566 1747 
Q 3566 888 3137 398 
Q 2709 -91 1959 -91 
Q 1206 -91 779 398 
Q 353 888 353 1747 
Q 353 2609 779 3096 
Q 1206 3584 1959 3584 
z
" transform="scale(0.015625)"/>
       <path id="DejaVuSans-61" d="M 2194 1759 
Q 1497 1759 1228 1600 
Q 959 1441 959 1056 
Q 959 750 1161 570 
Q 1363 391 1709 391 
Q 2188 391 2477 730 
Q 2766 1069 2766 1631 
L 2766 1759 
L 2194 1759 
z
M 3341 1997 
L 3341 0 
L 2766 0 
L 2766 531 
Q 2569 213 2275 61 
Q 1981 -91 1556 -91 
Q 1019 -91 701 211 
Q 384 513 384 1019 
Q 384 1609 779 1909 
Q 1175 2209 1959 2209 
L 2766 2209 
L 2766 2266 
Q 2766 2663 2505 2880 
Q 2244 3097 1772 3097 
Q 1472 3097 1187 3025 
Q 903 2953 641 2809 
L 641 3341 
Q 956 3463 1253 3523 
Q 1550 3584 1831 3584 
Q 2591 3584 2966 3190 
Q 3341 2797 3341 1997 
z
" transform="scale(0.015625)"/>
      </defs>
      <use xlink:href="#DejaVuSans-53"/>
      <use xlink:href="#DejaVuSans-6f" x="63.476562"/>
      <use xlink:href="#DejaVuSans-6d" x="124.658203"/>
      <use xlink:href="#DejaVuSans-61" x="222.070312"/>
     </g>
    </g>
    <g id="line2d_26">
     <path d="M 697.098438 62.336562 
L 707.098438 62.336562 
L 717.098438 62.336562 
" style="fill: none; stroke: #4169e1; stroke-width: 1.5; stroke-linecap: square"/>
    </g>
    <g id="text_15">
     <!-- Dendrite -->
     <g transform="translate(725.098438 65.836562) scale(0.1 -0.1)">
      <defs>
       <path id="DejaVuSans-44" d="M 1259 4147 
L 1259 519 
L 2022 519 
Q 2988 519 3436 956 
Q 3884 1394 3884 2338 
Q 3884 3275 3436 3711 
Q 2988 4147 2022 4147 
L 1259 4147 
z
M 628 4666 
L 1925 4666 
Q 3281 4666 3915 4102 
Q 4550 3538 4550 2338 
Q 4550 1131 3912 565 
Q 3275 0 1925 0 
L 628 0 
L 628 4666 
z
" transform="scale(0.015625)"/>
       <path id="DejaVuSans-6e" d="M 3513 2113 
L 3513 0 
L 2938 0 
L 2938 2094 
Q 2938 2591 2744 2837 
Q 2550 3084 2163 3084 
Q 1697 3084 1428 2787 
Q 1159 2491 1159 1978 
L 1159 0 
L 581 0 
L 581 3500 
L 1159 3500 
L 1159 2956 
Q 1366 3272 1645 3428 
Q 1925 3584 2291 3584 
Q 2894 3584 3203 3211 
Q 3513 2838 3513 2113 
z
" transform="scale(0.015625)"/>
       <path id="DejaVuSans-64" d="M 2906 2969 
L 2906 4863 
L 3481 4863 
L 3481 0 
L 2906 0 
L 2906 525 
Q 2725 213 2448 61 
Q 2172 -91 1784 -91 
Q 1150 -91 751 415 
Q 353 922 353 1747 
Q 353 2572 751 3078 
Q 1150 3584 1784 3584 
Q 2172 3584 2448 3432 
Q 2725 3281 2906 2969 
z
M 947 1747 
Q 947 1113 1208 752 
Q 1469 391 1925 391 
Q 2381 391 2643 752 
Q 2906 1113 2906 1747 
Q 2906 2381 2643 2742 
Q 2381 3103 1925 3103 
Q 1469 3103 1208 2742 
Q 947 2381 947 1747 
z
" transform="scale(0.015625)"/>
       <path id="DejaVuSans-72" d="M 2631 2963 
Q 2534 3019 2420 3045 
Q 2306 3072 2169 3072 
Q 1681 3072 1420 2755 
Q 1159 2438 1159 1844 
L 1159 0 
L 581 0 
L 581 3500 
L 1159 3500 
L 1159 2956 
Q 1341 3275 1631 3429 
Q 1922 3584 2338 3584 
Q 2397 3584 2469 3576 
Q 2541 3569 2628 3553 
L 2631 2963 
z
" transform="scale(0.015625)"/>
       <path id="DejaVuSans-74" d="M 1172 4494 
L 1172 3500 
L 2356 3500 
L 2356 3053 
L 1172 3053 
L 1172 1153 
Q 1172 725 1289 603 
Q 1406 481 1766 481 
L 2356 481 
L 2356 0 
L 1766 0 
Q 1100 0 847 248 
Q 594 497 594 1153 
L 594 3053 
L 172 3053 
L 172 3500 
L 594 3500 
L 594 4494 
L 1172 4494 
z
" transform="scale(0.015625)"/>
      </defs>
      <use xlink:href="#DejaVuSans-44"/>
      <use xlink:href="#DejaVuSans-65" x="77.001953"/>
      <use xlink:href="#DejaVuSans-6e" x="138.525391"/>
      <use xlink:href="#DejaVuSans-64" x="201.904297"/>
      <use xlink:href="#DejaVuSans-72" x="265.380859"/>
      <use xlink:href="#DejaVuSans-69" x="306.494141"/>
      <use xlink:href="#DejaVuSans-74" x="334.277344"/>
      <use xlink:href="#DejaVuSans-65" x="373.486328"/>
     </g>
    </g>
   </g>
  </g>
 </g>
 <defs>
  <clipPath id="p17ccc61f08">
   <rect x="108" y="34.56" width="669.6" height="221.76"/>
  </clipPath>
 </defs>
</svg>
