<?xml version="1.0" encoding="utf-8" standalone="no"?>
<!DOCTYPE svg PUBLIC "-//W3C//DTD SVG 1.1//EN"
  "http://www.w3.org/Graphics/SVG/1.1/DTD/svg11.dtd">
<svg xmlns:xlink="http://www.w3.org/1999/xlink" width="864pt" height="288pt" viewBox="0 0 864 288" xmlns="http://www.w3.org/2000/svg" version="1.1">
 <metadata>
  <rdf:RDF xmlns:dc="http://purl.org/dc/elements/1.1/" xmlns:cc="http://creativecommons.org/ns#" xmlns:rdf="http://www.w3.org/1999/02/22-rdf-syntax-ns#">
   <cc:Work>
    <dc:type rdf:resource="http://purl.org/dc/dcmitype/StillImage"/>
    <dc:date>2024-04-12T18:08:08.730230</dc:date>
    <dc:format>image/svg+xml</dc:format>
    <dc:creator>
     <cc:Agent>
      <dc:title>Matplotlib v3.8.2, https://matplotlib.org/</dc:title>
     </cc:Agent>
    </dc:creator>
   </cc:Work>
  </rdf:RDF>
 </metadata>
 <defs>
  <style type="text/css">*{stroke-linejoin: round; stroke-linecap: butt}</style>
 </defs>
 <g id="figure_1">
  <g id="patch_1">
   <path d="M 0 288 
L 864 288 
L 864 0 
L 0 0 
z
" style="fill: #ffffff"/>
  </g>
  <g id="axes_1">
   <g id="patch_2">
    <path d="M 108 256.32 
L 777.6 256.32 
L 777.6 34.56 
L 108 34.56 
z
" style="fill: #ffffff"/>
   </g>
   <g id="matplotlib.axis_1">
    <g id="xtick_1">
     <g id="line2d_1">
      <path d="M 108 256.32 
L 108 34.56 
" clip-path="url(#p207d77d62b)" style="fill: none; stroke: #b0b0b0; stroke-width: 0.8; stroke-linecap: square"/>
     </g>
     <g id="line2d_2">
      <defs>
       <path id="m65f5db13bd" d="M 0 0 
L 0 3.5 
" style="stroke: #000000; stroke-width: 0.8"/>
      </defs>
      <g>
       <use xlink:href="#m65f5db13bd" x="108" y="256.32" style="stroke: #000000; stroke-width: 0.8"/>
      </g>
     </g>
     <g id="text_1">
      <!-- 100 -->
      <g transform="translate(94.63875 273.957812) scale(0.14 -0.14)">
       <defs>
        <path id="DejaVuSans-31" d="M 794 531 
L 1825 531 
L 1825 4091 
L 703 3866 
L 703 4441 
L 1819 4666 
L 2450 4666 
L 2450 531 
L 3481 531 
L 3481 0 
L 794 0 
L 794 531 
z
" transform="scale(0.015625)"/>
        <path id="DejaVuSans-30" d="M 2034 4250 
Q 1547 4250 1301 3770 
Q 1056 3291 1056 2328 
Q 1056 1369 1301 889 
Q 1547 409 2034 409 
Q 2525 409 2770 889 
Q 3016 1369 3016 2328 
Q 3016 3291 2770 3770 
Q 2525 4250 2034 4250 
z
M 2034 4750 
Q 2819 4750 3233 4129 
Q 3647 3509 3647 2328 
Q 3647 1150 3233 529 
Q 2819 -91 2034 -91 
Q 1250 -91 836 529 
Q 422 1150 422 2328 
Q 422 3509 836 4129 
Q 1250 4750 2034 4750 
z
" transform="scale(0.015625)"/>
       </defs>
       <use xlink:href="#DejaVuSans-31"/>
       <use xlink:href="#DejaVuSans-30" x="63.623047"/>
       <use xlink:href="#DejaVuSans-30" x="127.246094"/>
      </g>
     </g>
    </g>
    <g id="xtick_2">
     <g id="line2d_3">
      <path d="M 241.92 256.32 
L 241.92 34.56 
" clip-path="url(#p207d77d62b)" style="fill: none; stroke: #b0b0b0; stroke-width: 0.8; stroke-linecap: square"/>
     </g>
     <g id="line2d_4">
      <g>
       <use xlink:href="#m65f5db13bd" x="241.92" y="256.32" style="stroke: #000000; stroke-width: 0.8"/>
      </g>
     </g>
     <g id="text_2">
      <!-- 120 -->
      <g transform="translate(228.55875 273.957812) scale(0.14 -0.14)">
       <defs>
        <path id="DejaVuSans-32" d="M 1228 531 
L 3431 531 
L 3431 0 
L 469 0 
L 469 531 
Q 828 903 1448 1529 
Q 2069 2156 2228 2338 
Q 2531 2678 2651 2914 
Q 2772 3150 2772 3378 
Q 2772 3750 2511 3984 
Q 2250 4219 1831 4219 
Q 1534 4219 1204 4116 
Q 875 4013 500 3803 
L 500 4441 
Q 881 4594 1212 4672 
Q 1544 4750 1819 4750 
Q 2544 4750 2975 4387 
Q 3406 4025 3406 3419 
Q 3406 3131 3298 2873 
Q 3191 2616 2906 2266 
Q 2828 2175 2409 1742 
Q 1991 1309 1228 531 
z
" transform="scale(0.015625)"/>
       </defs>
       <use xlink:href="#DejaVuSans-31"/>
       <use xlink:href="#DejaVuSans-32" x="63.623047"/>
       <use xlink:href="#DejaVuSans-30" x="127.246094"/>
      </g>
     </g>
    </g>
    <g id="xtick_3">
     <g id="line2d_5">
      <path d="M 375.84 256.32 
L 375.84 34.56 
" clip-path="url(#p207d77d62b)" style="fill: none; stroke: #b0b0b0; stroke-width: 0.8; stroke-linecap: square"/>
     </g>
     <g id="line2d_6">
      <g>
       <use xlink:href="#m65f5db13bd" x="375.84" y="256.32" style="stroke: #000000; stroke-width: 0.8"/>
      </g>
     </g>
     <g id="text_3">
      <!-- 140 -->
      <g transform="translate(362.47875 273.957812) scale(0.14 -0.14)">
       <defs>
        <path id="DejaVuSans-34" d="M 2419 4116 
L 825 1625 
L 2419 1625 
L 2419 4116 
z
M 2253 4666 
L 3047 4666 
L 3047 1625 
L 3713 1625 
L 3713 1100 
L 3047 1100 
L 3047 0 
L 2419 0 
L 2419 1100 
L 313 1100 
L 313 1709 
L 2253 4666 
z
" transform="scale(0.015625)"/>
       </defs>
       <use xlink:href="#DejaVuSans-31"/>
       <use xlink:href="#DejaVuSans-34" x="63.623047"/>
       <use xlink:href="#DejaVuSans-30" x="127.246094"/>
      </g>
     </g>
    </g>
    <g id="xtick_4">
     <g id="line2d_7">
      <path d="M 509.76 256.32 
L 509.76 34.56 
" clip-path="url(#p207d77d62b)" style="fill: none; stroke: #b0b0b0; stroke-width: 0.8; stroke-linecap: square"/>
     </g>
     <g id="line2d_8">
      <g>
       <use xlink:href="#m65f5db13bd" x="509.76" y="256.32" style="stroke: #000000; stroke-width: 0.8"/>
      </g>
     </g>
     <g id="text_4">
      <!-- 160 -->
      <g transform="translate(496.39875 273.957812) scale(0.14 -0.14)">
       <defs>
        <path id="DejaVuSans-36" d="M 2113 2584 
Q 1688 2584 1439 2293 
Q 1191 2003 1191 1497 
Q 1191 994 1439 701 
Q 1688 409 2113 409 
Q 2538 409 2786 701 
Q 3034 994 3034 1497 
Q 3034 2003 2786 2293 
Q 2538 2584 2113 2584 
z
M 3366 4563 
L 3366 3988 
Q 3128 4100 2886 4159 
Q 2644 4219 2406 4219 
Q 1781 4219 1451 3797 
Q 1122 3375 1075 2522 
Q 1259 2794 1537 2939 
Q 1816 3084 2150 3084 
Q 2853 3084 3261 2657 
Q 3669 2231 3669 1497 
Q 3669 778 3244 343 
Q 2819 -91 2113 -91 
Q 1303 -91 875 529 
Q 447 1150 447 2328 
Q 447 3434 972 4092 
Q 1497 4750 2381 4750 
Q 2619 4750 2861 4703 
Q 3103 4656 3366 4563 
z
" transform="scale(0.015625)"/>
       </defs>
       <use xlink:href="#DejaVuSans-31"/>
       <use xlink:href="#DejaVuSans-36" x="63.623047"/>
       <use xlink:href="#DejaVuSans-30" x="127.246094"/>
      </g>
     </g>
    </g>
    <g id="xtick_5">
     <g id="line2d_9">
      <path d="M 643.68 256.32 
L 643.68 34.56 
" clip-path="url(#p207d77d62b)" style="fill: none; stroke: #b0b0b0; stroke-width: 0.8; stroke-linecap: square"/>
     </g>
     <g id="line2d_10">
      <g>
       <use xlink:href="#m65f5db13bd" x="643.68" y="256.32" style="stroke: #000000; stroke-width: 0.8"/>
      </g>
     </g>
     <g id="text_5">
      <!-- 180 -->
      <g transform="translate(630.31875 273.957812) scale(0.14 -0.14)">
       <defs>
        <path id="DejaVuSans-38" d="M 2034 2216 
Q 1584 2216 1326 1975 
Q 1069 1734 1069 1313 
Q 1069 891 1326 650 
Q 1584 409 2034 409 
Q 2484 409 2743 651 
Q 3003 894 3003 1313 
Q 3003 1734 2745 1975 
Q 2488 2216 2034 2216 
z
M 1403 2484 
Q 997 2584 770 2862 
Q 544 3141 544 3541 
Q 544 4100 942 4425 
Q 1341 4750 2034 4750 
Q 2731 4750 3128 4425 
Q 3525 4100 3525 3541 
Q 3525 3141 3298 2862 
Q 3072 2584 2669 2484 
Q 3125 2378 3379 2068 
Q 3634 1759 3634 1313 
Q 3634 634 3220 271 
Q 2806 -91 2034 -91 
Q 1263 -91 848 271 
Q 434 634 434 1313 
Q 434 1759 690 2068 
Q 947 2378 1403 2484 
z
M 1172 3481 
Q 1172 3119 1398 2916 
Q 1625 2713 2034 2713 
Q 2441 2713 2670 2916 
Q 2900 3119 2900 3481 
Q 2900 3844 2670 4047 
Q 2441 4250 2034 4250 
Q 1625 4250 1398 4047 
Q 1172 3844 1172 3481 
z
" transform="scale(0.015625)"/>
       </defs>
       <use xlink:href="#DejaVuSans-31"/>
       <use xlink:href="#DejaVuSans-38" x="63.623047"/>
       <use xlink:href="#DejaVuSans-30" x="127.246094"/>
      </g>
     </g>
    </g>
    <g id="xtick_6">
     <g id="line2d_11">
      <path d="M 777.6 256.32 
L 777.6 34.56 
" clip-path="url(#p207d77d62b)" style="fill: none; stroke: #b0b0b0; stroke-width: 0.8; stroke-linecap: square"/>
     </g>
     <g id="line2d_12">
      <g>
       <use xlink:href="#m65f5db13bd" x="777.6" y="256.32" style="stroke: #000000; stroke-width: 0.8"/>
      </g>
     </g>
     <g id="text_6">
      <!-- 200 -->
      <g transform="translate(764.23875 273.957812) scale(0.14 -0.14)">
       <use xlink:href="#DejaVuSans-32"/>
       <use xlink:href="#DejaVuSans-30" x="63.623047"/>
       <use xlink:href="#DejaVuSans-30" x="127.246094"/>
      </g>
     </g>
    </g>
    <g id="text_7">
     <!-- Time (ms) -->
     <g transform="translate(407.521094 291.507187) scale(0.14 -0.14)">
      <defs>
       <path id="DejaVuSans-54" d="M -19 4666 
L 3928 4666 
L 3928 4134 
L 2272 4134 
L 2272 0 
L 1638 0 
L 1638 4134 
L -19 4134 
L -19 4666 
z
" transform="scale(0.015625)"/>
       <path id="DejaVuSans-69" d="M 603 3500 
L 1178 3500 
L 1178 0 
L 603 0 
L 603 3500 
z
M 603 4863 
L 1178 4863 
L 1178 4134 
L 603 4134 
L 603 4863 
z
" transform="scale(0.015625)"/>
       <path id="DejaVuSans-6d" d="M 3328 2828 
Q 3544 3216 3844 3400 
Q 4144 3584 4550 3584 
Q 5097 3584 5394 3201 
Q 5691 2819 5691 2113 
L 5691 0 
L 5113 0 
L 5113 2094 
Q 5113 2597 4934 2840 
Q 4756 3084 4391 3084 
Q 3944 3084 3684 2787 
Q 3425 2491 3425 1978 
L 3425 0 
L 2847 0 
L 2847 2094 
Q 2847 2600 2669 2842 
Q 2491 3084 2119 3084 
Q 1678 3084 1418 2786 
Q 1159 2488 1159 1978 
L 1159 0 
L 581 0 
L 581 3500 
L 1159 3500 
L 1159 2956 
Q 1356 3278 1631 3431 
Q 1906 3584 2284 3584 
Q 2666 3584 2933 3390 
Q 3200 3197 3328 2828 
z
" transform="scale(0.015625)"/>
       <path id="DejaVuSans-65" d="M 3597 1894 
L 3597 1613 
L 953 1613 
Q 991 1019 1311 708 
Q 1631 397 2203 397 
Q 2534 397 2845 478 
Q 3156 559 3463 722 
L 3463 178 
Q 3153 47 2828 -22 
Q 2503 -91 2169 -91 
Q 1331 -91 842 396 
Q 353 884 353 1716 
Q 353 2575 817 3079 
Q 1281 3584 2069 3584 
Q 2775 3584 3186 3129 
Q 3597 2675 3597 1894 
z
M 3022 2063 
Q 3016 2534 2758 2815 
Q 2500 3097 2075 3097 
Q 1594 3097 1305 2825 
Q 1016 2553 972 2059 
L 3022 2063 
z
" transform="scale(0.015625)"/>
       <path id="DejaVuSans-20" transform="scale(0.015625)"/>
       <path id="DejaVuSans-28" d="M 1984 4856 
Q 1566 4138 1362 3434 
Q 1159 2731 1159 2009 
Q 1159 1288 1364 580 
Q 1569 -128 1984 -844 
L 1484 -844 
Q 1016 -109 783 600 
Q 550 1309 550 2009 
Q 550 2706 781 3412 
Q 1013 4119 1484 4856 
L 1984 4856 
z
" transform="scale(0.015625)"/>
       <path id="DejaVuSans-73" d="M 2834 3397 
L 2834 2853 
Q 2591 2978 2328 3040 
Q 2066 3103 1784 3103 
Q 1356 3103 1142 2972 
Q 928 2841 928 2578 
Q 928 2378 1081 2264 
Q 1234 2150 1697 2047 
L 1894 2003 
Q 2506 1872 2764 1633 
Q 3022 1394 3022 966 
Q 3022 478 2636 193 
Q 2250 -91 1575 -91 
Q 1294 -91 989 -36 
Q 684 19 347 128 
L 347 722 
Q 666 556 975 473 
Q 1284 391 1588 391 
Q 1994 391 2212 530 
Q 2431 669 2431 922 
Q 2431 1156 2273 1281 
Q 2116 1406 1581 1522 
L 1381 1569 
Q 847 1681 609 1914 
Q 372 2147 372 2553 
Q 372 3047 722 3315 
Q 1072 3584 1716 3584 
Q 2034 3584 2315 3537 
Q 2597 3491 2834 3397 
z
" transform="scale(0.015625)"/>
       <path id="DejaVuSans-29" d="M 513 4856 
L 1013 4856 
Q 1481 4119 1714 3412 
Q 1947 2706 1947 2009 
Q 1947 1309 1714 600 
Q 1481 -109 1013 -844 
L 513 -844 
Q 928 -128 1133 580 
Q 1338 1288 1338 2009 
Q 1338 2731 1133 3434 
Q 928 4138 513 4856 
z
" transform="scale(0.015625)"/>
      </defs>
      <use xlink:href="#DejaVuSans-54"/>
      <use xlink:href="#DejaVuSans-69" x="57.958984"/>
      <use xlink:href="#DejaVuSans-6d" x="85.742188"/>
      <use xlink:href="#DejaVuSans-65" x="183.154297"/>
      <use xlink:href="#DejaVuSans-20" x="244.677734"/>
      <use xlink:href="#DejaVuSans-28" x="276.464844"/>
      <use xlink:href="#DejaVuSans-6d" x="315.478516"/>
      <use xlink:href="#DejaVuSans-73" x="412.890625"/>
      <use xlink:href="#DejaVuSans-29" x="464.990234"/>
     </g>
    </g>
   </g>
   <g id="matplotlib.axis_2">
    <g id="ytick_1">
     <g id="line2d_13">
      <path d="M 108 224.823919 
L 777.6 224.823919 
" clip-path="url(#p207d77d62b)" style="fill: none; stroke: #b0b0b0; stroke-width: 0.8; stroke-linecap: square"/>
     </g>
     <g id="line2d_14">
      <defs>
       <path id="mab2bebf54f" d="M 0 0 
L -3.5 0 
" style="stroke: #000000; stroke-width: 0.8"/>
      </defs>
      <g>
       <use xlink:href="#mab2bebf54f" x="108" y="224.823919" style="stroke: #000000; stroke-width: 0.8"/>
      </g>
     </g>
     <g id="text_8">
      <!-- −60 -->
      <g transform="translate(71.453437 230.142826) scale(0.14 -0.14)">
       <defs>
        <path id="DejaVuSans-2212" d="M 678 2272 
L 4684 2272 
L 4684 1741 
L 678 1741 
L 678 2272 
z
" transform="scale(0.015625)"/>
       </defs>
       <use xlink:href="#DejaVuSans-2212"/>
       <use xlink:href="#DejaVuSans-36" x="83.789062"/>
       <use xlink:href="#DejaVuSans-30" x="147.412109"/>
      </g>
     </g>
    </g>
    <g id="ytick_2">
     <g id="line2d_15">
      <path d="M 108 182.060007 
L 777.6 182.060007 
" clip-path="url(#p207d77d62b)" style="fill: none; stroke: #b0b0b0; stroke-width: 0.8; stroke-linecap: square"/>
     </g>
     <g id="line2d_16">
      <g>
       <use xlink:href="#mab2bebf54f" x="108" y="182.060007" style="stroke: #000000; stroke-width: 0.8"/>
      </g>
     </g>
     <g id="text_9">
      <!-- −40 -->
      <g transform="translate(71.453437 187.378913) scale(0.14 -0.14)">
       <use xlink:href="#DejaVuSans-2212"/>
       <use xlink:href="#DejaVuSans-34" x="83.789062"/>
       <use xlink:href="#DejaVuSans-30" x="147.412109"/>
      </g>
     </g>
    </g>
    <g id="ytick_3">
     <g id="line2d_17">
      <path d="M 108 139.296095 
L 777.6 139.296095 
" clip-path="url(#p207d77d62b)" style="fill: none; stroke: #b0b0b0; stroke-width: 0.8; stroke-linecap: square"/>
     </g>
     <g id="line2d_18">
      <g>
       <use xlink:href="#mab2bebf54f" x="108" y="139.296095" style="stroke: #000000; stroke-width: 0.8"/>
      </g>
     </g>
     <g id="text_10">
      <!-- −20 -->
      <g transform="translate(71.453437 144.615001) scale(0.14 -0.14)">
       <use xlink:href="#DejaVuSans-2212"/>
       <use xlink:href="#DejaVuSans-32" x="83.789062"/>
       <use xlink:href="#DejaVuSans-30" x="147.412109"/>
      </g>
     </g>
    </g>
    <g id="ytick_4">
     <g id="line2d_19">
      <path d="M 108 96.532183 
L 777.6 96.532183 
" clip-path="url(#p207d77d62b)" style="fill: none; stroke: #b0b0b0; stroke-width: 0.8; stroke-linecap: square"/>
     </g>
     <g id="line2d_20">
      <g>
       <use xlink:href="#mab2bebf54f" x="108" y="96.532183" style="stroke: #000000; stroke-width: 0.8"/>
      </g>
     </g>
     <g id="text_11">
      <!-- 0 -->
      <g transform="translate(92.0925 101.851089) scale(0.14 -0.14)">
       <use xlink:href="#DejaVuSans-30"/>
      </g>
     </g>
    </g>
    <g id="ytick_5">
     <g id="line2d_21">
      <path d="M 108 53.768271 
L 777.6 53.768271 
" clip-path="url(#p207d77d62b)" style="fill: none; stroke: #b0b0b0; stroke-width: 0.8; stroke-linecap: square"/>
     </g>
     <g id="line2d_22">
      <g>
       <use xlink:href="#mab2bebf54f" x="108" y="53.768271" style="stroke: #000000; stroke-width: 0.8"/>
      </g>
     </g>
     <g id="text_12">
      <!-- 20 -->
      <g transform="translate(83.185 59.087177) scale(0.14 -0.14)">
       <use xlink:href="#DejaVuSans-32"/>
       <use xlink:href="#DejaVuSans-30" x="63.623047"/>
      </g>
     </g>
    </g>
    <g id="text_13">
     <!-- $V_{m}$ (mV) -->
     <g transform="translate(64.541875 174.49) rotate(-90) scale(0.14 -0.14)">
      <defs>
       <path id="DejaVuSans-Oblique-56" d="M 1319 0 
L 500 4666 
L 1119 4666 
L 1797 653 
L 4063 4666 
L 4750 4666 
L 2053 0 
L 1319 0 
z
" transform="scale(0.015625)"/>
       <path id="DejaVuSans-Oblique-6d" d="M 5747 2113 
L 5338 0 
L 4763 0 
L 5166 2094 
Q 5191 2228 5203 2325 
Q 5216 2422 5216 2491 
Q 5216 2772 5059 2928 
Q 4903 3084 4622 3084 
Q 4203 3084 3875 2770 
Q 3547 2456 3450 1953 
L 3066 0 
L 2491 0 
L 2900 2094 
Q 2925 2209 2937 2307 
Q 2950 2406 2950 2484 
Q 2950 2769 2794 2926 
Q 2638 3084 2363 3084 
Q 1938 3084 1609 2770 
Q 1281 2456 1184 1953 
L 800 0 
L 225 0 
L 909 3500 
L 1484 3500 
L 1375 2956 
Q 1609 3263 1923 3423 
Q 2238 3584 2597 3584 
Q 2978 3584 3223 3384 
Q 3469 3184 3519 2828 
Q 3781 3197 4126 3390 
Q 4472 3584 4856 3584 
Q 5306 3584 5551 3325 
Q 5797 3066 5797 2591 
Q 5797 2488 5784 2364 
Q 5772 2241 5747 2113 
z
" transform="scale(0.015625)"/>
       <path id="DejaVuSans-56" d="M 1831 0 
L 50 4666 
L 709 4666 
L 2188 738 
L 3669 4666 
L 4325 4666 
L 2547 0 
L 1831 0 
z
" transform="scale(0.015625)"/>
      </defs>
      <use xlink:href="#DejaVuSans-Oblique-56" transform="translate(0 0.125)"/>
      <use xlink:href="#DejaVuSans-Oblique-6d" transform="translate(68.408203 -16.28125) scale(0.7)"/>
      <use xlink:href="#DejaVuSans-20" transform="translate(139.331055 0.125)"/>
      <use xlink:href="#DejaVuSans-28" transform="translate(171.118164 0.125)"/>
      <use xlink:href="#DejaVuSans-6d" transform="translate(210.131836 0.125)"/>
      <use xlink:href="#DejaVuSans-56" transform="translate(307.543945 0.125)"/>
      <use xlink:href="#DejaVuSans-29" transform="translate(375.952148 0.125)"/>
     </g>
    </g>
   </g>
   <g id="line2d_23">
    <path d="M 108 214.773415 
L 110.0088 214.621319 
L 111.348 214.431434 
L 112.6872 214.490622 
L 114.696 214.439058 
L 116.0352 214.597609 
L 118.044 215.296436 
L 119.3832 215.977121 
L 120.0528 216.138664 
L 121.392 216.83888 
L 122.7312 217.406572 
L 124.0704 217.660941 
L 126.0792 217.805933 
L 128.7576 217.778386 
L 132.1056 217.52572 
L 134.784 217.347105 
L 136.1232 217.503635 
L 137.4624 218.134449 
L 140.8104 218.697659 
L 142.8192 218.713543 
L 143.4888 218.686029 
L 144.828 218.864705 
L 146.8368 218.838245 
L 148.176 218.738861 
L 150.1848 218.865796 
L 152.8632 218.651374 
L 156.8808 218.076786 
L 161.568 217.186811 
L 167.5944 215.812168 
L 175.6296 213.736255 
L 189.6912 209.848735 
L 198.396 206.731642 
L 200.4048 206.504865 
L 203.7528 205.697612 
L 205.7616 205.147074 
L 207.7704 205.049863 
L 208.44 204.950669 
L 210.4488 205.043973 
L 213.1272 204.73824 
L 216.4752 204.09451 
L 221.1624 202.933142 
L 224.5104 201.921338 
L 225.8496 201.418426 
L 227.1888 201.25272 
L 229.8672 202.168738 
L 231.876 202.457737 
L 232.5456 202.49939 
L 234.5544 203.199374 
L 235.8936 204.201737 
L 237.2328 205.339121 
L 238.572 206.315139 
L 239.9112 207.376557 
L 241.2504 208.773817 
L 242.5896 209.520671 
L 243.9288 209.973998 
L 244.5984 210.13643 
L 245.9376 210.680133 
L 246.6072 210.853588 
L 247.9464 211.545944 
L 251.964 213.344149 
L 253.9728 213.704751 
L 255.9816 214.761902 
L 257.3208 215.218996 
L 259.3296 215.541912 
L 261.3384 215.833517 
L 262.6776 216.07006 
L 266.0256 216.450077 
L 267.3648 216.8164 
L 269.3736 216.979765 
L 271.3824 217.115913 
L 272.7216 217.258299 
L 275.4 217.206995 
L 278.748 216.914392 
L 282.7656 216.50856 
L 284.1048 216.495907 
L 286.7832 216.179792 
L 292.14 215.384756 
L 293.4792 215.326183 
L 296.8272 214.804956 
L 302.184 213.694753 
L 309.5496 211.920479 
L 320.2632 209.096911 
L 324.2808 207.920692 
L 334.3248 204.068934 
L 337.6728 202.516456 
L 339.012 201.777776 
L 340.3512 200.85507 
L 341.6904 199.678238 
L 342.36 198.861993 
L 343.0296 197.746429 
L 343.6992 196.062698 
L 344.3688 192.609256 
L 345.0384 179.309996 
L 345.708 104.388891 
L 346.3776 49.66667 
L 348.3864 102.173893 
L 349.7256 126.013698 
L 351.7344 157.538868 
L 353.7432 184.883309 
L 354.4128 192.455024 
L 355.0824 198.568917 
L 355.752 202.785961 
L 356.4216 205.578467 
L 357.0912 207.679909 
L 358.4304 210.543309 
L 359.1 211.689068 
L 359.7696 212.552783 
L 360.4392 213.185224 
L 363.1176 214.971602 
L 364.4568 215.636283 
L 367.1352 216.141704 
L 368.4744 216.277843 
L 369.8136 216.319441 
L 371.8224 216.055163 
L 372.492 215.925532 
L 373.8312 216.182781 
L 375.1704 216.936532 
L 376.5096 217.129423 
L 378.5184 217.064736 
L 379.188 217.00081 
L 379.8576 217.07045 
L 382.536 217.715001 
L 383.8752 217.984249 
L 385.2144 218.174941 
L 388.5624 218.666816 
L 391.2408 218.700193 
L 392.58 219.03965 
L 394.5888 219.096303 
L 397.2672 218.914315 
L 398.6064 218.766243 
L 401.9544 218.98897 
L 403.9632 219.048148 
L 405.3024 219.250272 
L 406.6416 219.36921 
L 408.6504 219.427586 
L 409.9896 219.49909 
L 412.668 219.312274 
L 416.6856 218.753186 
L 421.3728 217.861826 
L 427.3992 216.618974 
L 428.7384 216.494207 
L 432.0864 215.830779 
L 438.1128 214.36928 
L 448.1568 211.667212 
L 458.2008 208.829645 
L 465.5664 206.199099 
L 472.932 203.649612 
L 474.9408 203.410925 
L 477.6192 202.964756 
L 478.9584 202.926865 
L 481.6368 202.525182 
L 484.3152 202.066073 
L 484.9848 202.074462 
L 486.9936 202.454354 
L 489.0024 202.520001 
L 494.3592 205.323744 
L 495.6984 206.213742 
L 499.0464 207.497883 
L 503.7336 208.420174 
L 504.4032 208.471387 
L 505.7424 208.838345 
L 508.4208 209.219436 
L 511.0992 211.170234 
L 512.4384 211.621952 
L 514.4472 212.127973 
L 515.1168 212.332882 
L 516.456 213.146925 
L 517.1256 213.380336 
L 519.804 215.325439 
L 521.1432 215.810103 
L 523.8216 216.462952 
L 525.8304 217.383317 
L 528.5088 218.364526 
L 530.5176 218.807221 
L 531.8568 219.102088 
L 533.8656 219.280591 
L 536.544 219.31163 
L 539.892 219.136498 
L 543.9096 218.696088 
L 548.5968 217.94256 
L 553.9536 216.8439 
L 560.6496 215.214154 
L 569.3544 212.831762 
L 584.0856 208.520489 
L 592.1208 206.017354 
L 596.808 204.001469 
L 600.156 202.349247 
L 601.4952 201.544564 
L 602.8344 200.729632 
L 604.1736 199.922502 
L 604.8432 199.348927 
L 605.5128 198.575619 
L 606.1824 197.497687 
L 606.852 195.744262 
L 607.5216 191.765523 
L 608.1912 174.475733 
L 608.8608 84.954264 
L 609.5304 50.199025 
L 610.8696 90.317423 
L 612.2088 116.378851 
L 614.2176 149.356629 
L 616.2264 178.071953 
L 617.5656 193.926008 
L 618.2352 199.365098 
L 618.9048 203.041914 
L 619.5744 205.539018 
L 620.244 207.321609 
L 620.9136 208.648901 
L 621.5832 209.658897 
L 622.2528 210.433485 
L 624.2616 212.060592 
L 625.6008 212.693177 
L 626.2704 213.077075 
L 626.94 213.320549 
L 628.2792 213.471454 
L 630.288 213.434971 
L 631.6272 213.92581 
L 632.9664 213.925769 
L 633.636 213.843671 
L 634.9752 213.88327 
L 635.6448 213.811326 
L 636.984 213.859324 
L 637.6536 213.792697 
L 639.6624 214.82127 
L 643.0104 215.445497 
L 644.3496 215.870243 
L 645.6888 216.127437 
L 647.028 216.316007 
L 647.6976 216.336119 
L 649.0368 216.733708 
L 650.376 216.984757 
L 651.0456 217.024366 
L 652.3848 217.303047 
L 653.724 217.523178 
L 655.7328 218.213982 
L 658.4112 218.987914 
L 660.42 219.982056 
L 661.7592 220.267731 
L 663.768 220.448236 
L 666.4464 220.460398 
L 667.7856 220.400409 
L 669.7944 220.576419 
L 672.4728 220.429716 
L 676.4904 219.938244 
L 681.1776 219.111561 
L 686.5344 217.930504 
L 693.2304 216.210025 
L 693.9 216.026847 
L 695.9088 215.838023 
L 699.2568 215.101788 
L 705.9528 213.355565 
L 724.7016 208.117058 
L 727.38 207.178768 
L 734.076 204.783991 
L 739.4328 202.804865 
L 742.1112 201.683196 
L 742.7808 201.359509 
L 745.4592 200.653235 
L 750.1464 198.95843 
L 751.4856 198.138401 
L 752.8248 196.982823 
L 753.4944 196.09308 
L 754.164 194.546521 
L 754.8336 190.764999 
L 755.5032 175.301131 
L 756.1728 102.624982 
L 756.8424 63.755535 
L 757.512 75.319187 
L 758.8512 103.174383 
L 760.86 137.533019 
L 762.8688 168.217135 
L 764.208 186.62735 
L 764.8776 194.549254 
L 765.5472 200.573466 
L 766.2168 204.730376 
L 766.8864 207.500097 
L 767.556 209.427788 
L 768.2256 210.847655 
L 770.2344 213.905958 
L 770.904 214.522754 
L 772.9128 215.806391 
L 774.252 216.438389 
L 775.5912 216.660935 
L 777.6 216.742969 
L 777.6 216.742969 
" clip-path="url(#p207d77d62b)" style="fill: none; stroke: #000000; stroke-width: 1.5; stroke-linecap: square"/>
   </g>
   <g id="line2d_24">
    <path d="M 108 131.315147 
L 112.6872 132.002891 
L 117.3744 132.738926 
L 120.7224 133.550882 
L 128.7576 135.716136 
L 138.132 137.902475 
L 150.1848 141.847684 
L 168.264 148.255053 
L 174.2904 150.687767 
L 179.6472 153.099622 
L 184.3344 155.454254 
L 189.0216 158.069239 
L 189.6912 140.249736 
L 190.3608 136.918782 
L 191.0304 135.049599 
L 191.7 134.008017 
L 192.3696 133.374549 
L 193.7088 132.640639 
L 200.4048 130.143832 
L 203.7528 129.044755 
L 207.1008 128.18146 
L 209.7792 127.735634 
L 213.7968 127.356968 
L 219.8232 127.002495 
L 227.1888 126.782745 
L 229.1976 126.868255 
L 234.5544 127.467341 
L 237.2328 127.993471 
L 241.2504 129.11727 
L 244.5984 130.105736 
L 255.9816 133.107503 
L 262.008 134.759661 
L 272.7216 137.674161 
L 280.7568 139.867284 
L 286.1136 141.36778 
L 294.8184 144.029676 
L 305.532 147.820467 
L 311.5584 150.174712 
L 316.9152 152.484325 
L 322.272 155.045091 
L 322.9416 155.383588 
L 323.6112 138.912473 
L 324.2808 135.857271 
L 324.9504 134.156193 
L 325.62 133.219563 
L 326.2896 132.657076 
L 327.6288 132.009915 
L 334.3248 129.583624 
L 338.3424 128.129024 
L 343.6992 126.37902 
L 344.3688 126.036687 
L 345.0384 125.342628 
L 345.708 122.618949 
L 347.0472 112.735187 
L 347.7168 109.379209 
L 348.3864 107.645022 
L 349.056 107.141431 
L 349.7256 107.466749 
L 350.3952 108.328746 
L 351.7344 110.959464 
L 353.7432 115.855241 
L 355.752 120.746881 
L 357.0912 123.337747 
L 358.4304 125.250324 
L 359.7696 126.648939 
L 361.1088 127.682173 
L 362.448 128.45505 
L 364.4568 129.34126 
L 366.4656 129.993304 
L 369.144 130.627394 
L 372.492 131.185092 
L 375.84 131.748005 
L 380.5272 132.588556 
L 385.884 133.678899 
L 404.6328 137.908371 
L 410.6592 139.656996 
L 418.6944 141.961552 
L 428.7384 144.855375 
L 436.104 147.426643 
L 442.8 149.968396 
L 448.1568 152.228228 
L 452.844 154.421336 
L 456.8616 156.488316 
L 457.5312 139.468569 
L 458.2008 136.311822 
L 458.8704 134.546021 
L 459.54 133.56878 
L 460.2096 132.978866 
L 461.5488 132.299345 
L 472.932 128.276188 
L 475.6104 127.635447 
L 478.9584 127.105111 
L 483.6456 126.701394 
L 486.324 126.602303 
L 490.3416 126.735952 
L 493.02 127.039885 
L 497.7072 127.868179 
L 503.7336 128.861606 
L 509.76 129.834867 
L 517.1256 131.630852 
L 520.4736 132.648455 
L 524.4912 133.8269 
L 531.1872 135.881146 
L 537.2136 137.600146 
L 546.588 139.960422 
L 562.6584 144.018075 
L 570.6936 146.271195 
L 577.3896 148.356737 
L 583.416 150.446165 
L 589.4424 152.764661 
L 590.7816 153.311931 
L 591.4512 137.855715 
L 592.1208 134.973404 
L 592.7904 133.379417 
L 593.46 132.505601 
L 594.1296 131.981257 
L 595.4688 131.37225 
L 600.156 129.722891 
L 606.852 126.952795 
L 607.5216 126.540253 
L 608.1912 125.663071 
L 608.8608 122.307761 
L 610.2 112.24121 
L 610.8696 109.121685 
L 611.5392 107.593839 
L 612.2088 107.234616 
L 612.8784 107.652785 
L 613.548 108.571916 
L 614.8872 111.269439 
L 616.896 116.197823 
L 618.9048 120.986063 
L 620.244 123.422791 
L 621.5832 125.16979 
L 622.9224 126.394794 
L 624.2616 127.273286 
L 626.2704 128.192025 
L 628.2792 128.834545 
L 630.9576 129.385666 
L 634.9752 130.022125 
L 640.332 130.785933 
L 653.0544 133.287263 
L 657.072 134.237252 
L 660.42 135.17858 
L 665.1072 136.548032 
L 677.8296 139.762627 
L 695.2392 144.063764 
L 701.2656 145.939256 
L 708.6312 148.402916 
L 714.6576 150.64089 
L 720.0144 152.862592 
L 724.7016 155.022682 
L 725.3712 138.73049 
L 726.0408 135.709511 
L 726.7104 134.028439 
L 727.38 133.103641 
L 728.0496 132.548756 
L 729.3888 131.911094 
L 736.7544 129.288855 
L 740.1024 128.150859 
L 743.4504 127.234026 
L 746.7984 126.587428 
L 750.816 126.03098 
L 753.4944 125.637367 
L 754.8336 125.241973 
L 755.5032 124.579286 
L 756.1728 121.916388 
L 757.512 113.033544 
L 758.1816 109.932774 
L 758.8512 108.244881 
L 759.5208 107.688169 
L 760.1904 107.936062 
L 760.86 108.736644 
L 761.5296 109.909186 
L 762.8688 112.901127 
L 766.8864 122.874936 
L 768.2256 125.211871 
L 769.5648 126.906782 
L 770.904 128.166901 
L 772.2432 129.120902 
L 774.252 130.185737 
L 776.2608 130.957421 
L 777.6 131.348196 
L 777.6 131.348196 
" clip-path="url(#p207d77d62b)" style="fill: none; stroke: #4169e1; stroke-width: 1.5; stroke-linecap: square"/>
   </g>
   <g id="patch_3">
    <path d="M 108 256.32 
L 108 34.56 
" style="fill: none; stroke: #000000; stroke-width: 0.8; stroke-linejoin: miter; stroke-linecap: square"/>
   </g>
   <g id="patch_4">
    <path d="M 777.6 256.32 
L 777.6 34.56 
" style="fill: none; stroke: #000000; stroke-width: 0.8; stroke-linejoin: miter; stroke-linecap: square"/>
   </g>
   <g id="patch_5">
    <path d="M 108 256.32 
L 777.6 256.32 
" style="fill: none; stroke: #000000; stroke-width: 0.8; stroke-linejoin: miter; stroke-linecap: square"/>
   </g>
   <g id="patch_6">
    <path d="M 108 34.56 
L 777.6 34.56 
" style="fill: none; stroke: #000000; stroke-width: 0.8; stroke-linejoin: miter; stroke-linecap: square"/>
   </g>
   <g id="legend_1">
    <g id="patch_7">
     <path d="M 115 71.91625 
L 190.501563 71.91625 
Q 192.501563 71.91625 192.501563 69.91625 
L 192.501563 41.56 
Q 192.501563 39.56 190.501563 39.56 
L 115 39.56 
Q 113 39.56 113 41.56 
L 113 69.91625 
Q 113 71.91625 115 71.91625 
z
" style="fill: #ffffff; opacity: 0.8; stroke: #cccccc; stroke-linejoin: miter"/>
    </g>
    <g id="line2d_25">
     <path d="M 117 47.658437 
L 127 47.658437 
L 137 47.658437 
" style="fill: none; stroke: #000000; stroke-width: 1.5; stroke-linecap: square"/>
    </g>
    <g id="text_14">
     <!-- Soma -->
     <g transform="translate(145 51.158437) scale(0.1 -0.1)">
      <defs>
       <path id="DejaVuSans-53" d="M 3425 4513 
L 3425 3897 
Q 3066 4069 2747 4153 
Q 2428 4238 2131 4238 
Q 1616 4238 1336 4038 
Q 1056 3838 1056 3469 
Q 1056 3159 1242 3001 
Q 1428 2844 1947 2747 
L 2328 2669 
Q 3034 2534 3370 2195 
Q 3706 1856 3706 1288 
Q 3706 609 3251 259 
Q 2797 -91 1919 -91 
Q 1588 -91 1214 -16 
Q 841 59 441 206 
L 441 856 
Q 825 641 1194 531 
Q 1563 422 1919 422 
Q 2459 422 2753 634 
Q 3047 847 3047 1241 
Q 3047 1584 2836 1778 
Q 2625 1972 2144 2069 
L 1759 2144 
Q 1053 2284 737 2584 
Q 422 2884 422 3419 
Q 422 4038 858 4394 
Q 1294 4750 2059 4750 
Q 2388 4750 2728 4690 
Q 3069 4631 3425 4513 
z
" transform="scale(0.015625)"/>
       <path id="DejaVuSans-6f" d="M 1959 3097 
Q 1497 3097 1228 2736 
Q 959 2375 959 1747 
Q 959 1119 1226 758 
Q 1494 397 1959 397 
Q 2419 397 2687 759 
Q 2956 1122 2956 1747 
Q 2956 2369 2687 2733 
Q 2419 3097 1959 3097 
z
M 1959 3584 
Q 2709 3584 3137 3096 
Q 3566 2609 3566 1747 
Q 3566 888 3137 398 
Q 2709 -91 1959 -91 
Q 1206 -91 779 398 
Q 353 888 353 1747 
Q 353 2609 779 3096 
Q 1206 3584 1959 3584 
z
" transform="scale(0.015625)"/>
       <path id="DejaVuSans-61" d="M 2194 1759 
Q 1497 1759 1228 1600 
Q 959 1441 959 1056 
Q 959 750 1161 570 
Q 1363 391 1709 391 
Q 2188 391 2477 730 
Q 2766 1069 2766 1631 
L 2766 1759 
L 2194 1759 
z
M 3341 1997 
L 3341 0 
L 2766 0 
L 2766 531 
Q 2569 213 2275 61 
Q 1981 -91 1556 -91 
Q 1019 -91 701 211 
Q 384 513 384 1019 
Q 384 1609 779 1909 
Q 1175 2209 1959 2209 
L 2766 2209 
L 2766 2266 
Q 2766 2663 2505 2880 
Q 2244 3097 1772 3097 
Q 1472 3097 1187 3025 
Q 903 2953 641 2809 
L 641 3341 
Q 956 3463 1253 3523 
Q 1550 3584 1831 3584 
Q 2591 3584 2966 3190 
Q 3341 2797 3341 1997 
z
" transform="scale(0.015625)"/>
      </defs>
      <use xlink:href="#DejaVuSans-53"/>
      <use xlink:href="#DejaVuSans-6f" x="63.476562"/>
      <use xlink:href="#DejaVuSans-6d" x="124.658203"/>
      <use xlink:href="#DejaVuSans-61" x="222.070312"/>
     </g>
    </g>
    <g id="line2d_26">
     <path d="M 117 62.336562 
L 127 62.336562 
L 137 62.336562 
" style="fill: none; stroke: #4169e1; stroke-width: 1.5; stroke-linecap: square"/>
    </g>
    <g id="text_15">
     <!-- Dendrite -->
     <g transform="translate(145 65.836562) scale(0.1 -0.1)">
      <defs>
       <path id="DejaVuSans-44" d="M 1259 4147 
L 1259 519 
L 2022 519 
Q 2988 519 3436 956 
Q 3884 1394 3884 2338 
Q 3884 3275 3436 3711 
Q 2988 4147 2022 4147 
L 1259 4147 
z
M 628 4666 
L 1925 4666 
Q 3281 4666 3915 4102 
Q 4550 3538 4550 2338 
Q 4550 1131 3912 565 
Q 3275 0 1925 0 
L 628 0 
L 628 4666 
z
" transform="scale(0.015625)"/>
       <path id="DejaVuSans-6e" d="M 3513 2113 
L 3513 0 
L 2938 0 
L 2938 2094 
Q 2938 2591 2744 2837 
Q 2550 3084 2163 3084 
Q 1697 3084 1428 2787 
Q 1159 2491 1159 1978 
L 1159 0 
L 581 0 
L 581 3500 
L 1159 3500 
L 1159 2956 
Q 1366 3272 1645 3428 
Q 1925 3584 2291 3584 
Q 2894 3584 3203 3211 
Q 3513 2838 3513 2113 
z
" transform="scale(0.015625)"/>
       <path id="DejaVuSans-64" d="M 2906 2969 
L 2906 4863 
L 3481 4863 
L 3481 0 
L 2906 0 
L 2906 525 
Q 2725 213 2448 61 
Q 2172 -91 1784 -91 
Q 1150 -91 751 415 
Q 353 922 353 1747 
Q 353 2572 751 3078 
Q 1150 3584 1784 3584 
Q 2172 3584 2448 3432 
Q 2725 3281 2906 2969 
z
M 947 1747 
Q 947 1113 1208 752 
Q 1469 391 1925 391 
Q 2381 391 2643 752 
Q 2906 1113 2906 1747 
Q 2906 2381 2643 2742 
Q 2381 3103 1925 3103 
Q 1469 3103 1208 2742 
Q 947 2381 947 1747 
z
" transform="scale(0.015625)"/>
       <path id="DejaVuSans-72" d="M 2631 2963 
Q 2534 3019 2420 3045 
Q 2306 3072 2169 3072 
Q 1681 3072 1420 2755 
Q 1159 2438 1159 1844 
L 1159 0 
L 581 0 
L 581 3500 
L 1159 3500 
L 1159 2956 
Q 1341 3275 1631 3429 
Q 1922 3584 2338 3584 
Q 2397 3584 2469 3576 
Q 2541 3569 2628 3553 
L 2631 2963 
z
" transform="scale(0.015625)"/>
       <path id="DejaVuSans-74" d="M 1172 4494 
L 1172 3500 
L 2356 3500 
L 2356 3053 
L 1172 3053 
L 1172 1153 
Q 1172 725 1289 603 
Q 1406 481 1766 481 
L 2356 481 
L 2356 0 
L 1766 0 
Q 1100 0 847 248 
Q 594 497 594 1153 
L 594 3053 
L 172 3053 
L 172 3500 
L 594 3500 
L 594 4494 
L 1172 4494 
z
" transform="scale(0.015625)"/>
      </defs>
      <use xlink:href="#DejaVuSans-44"/>
      <use xlink:href="#DejaVuSans-65" x="77.001953"/>
      <use xlink:href="#DejaVuSans-6e" x="138.525391"/>
      <use xlink:href="#DejaVuSans-64" x="201.904297"/>
      <use xlink:href="#DejaVuSans-72" x="265.380859"/>
      <use xlink:href="#DejaVuSans-69" x="306.494141"/>
      <use xlink:href="#DejaVuSans-74" x="334.277344"/>
      <use xlink:href="#DejaVuSans-65" x="373.486328"/>
     </g>
    </g>
   </g>
  </g>
 </g>
 <defs>
  <clipPath id="p207d77d62b">
   <rect x="108" y="34.56" width="669.6" height="221.76"/>
  </clipPath>
 </defs>
</svg>
