<?xml version="1.0" encoding="utf-8" standalone="no"?>
<!DOCTYPE svg PUBLIC "-//W3C//DTD SVG 1.1//EN"
  "http://www.w3.org/Graphics/SVG/1.1/DTD/svg11.dtd">
<svg xmlns:xlink="http://www.w3.org/1999/xlink" width="864pt" height="288pt" viewBox="0 0 864 288" xmlns="http://www.w3.org/2000/svg" version="1.1">
 <metadata>
  <rdf:RDF xmlns:dc="http://purl.org/dc/elements/1.1/" xmlns:cc="http://creativecommons.org/ns#" xmlns:rdf="http://www.w3.org/1999/02/22-rdf-syntax-ns#">
   <cc:Work>
    <dc:type rdf:resource="http://purl.org/dc/dcmitype/StillImage"/>
    <dc:date>2024-04-12T18:07:39.790946</dc:date>
    <dc:format>image/svg+xml</dc:format>
    <dc:creator>
     <cc:Agent>
      <dc:title>Matplotlib v3.8.2, https://matplotlib.org/</dc:title>
     </cc:Agent>
    </dc:creator>
   </cc:Work>
  </rdf:RDF>
 </metadata>
 <defs>
  <style type="text/css">*{stroke-linejoin: round; stroke-linecap: butt}</style>
 </defs>
 <g id="figure_1">
  <g id="patch_1">
   <path d="M 0 288 
L 864 288 
L 864 0 
L 0 0 
z
" style="fill: #ffffff"/>
  </g>
  <g id="axes_1">
   <g id="patch_2">
    <path d="M 108 256.32 
L 777.6 256.32 
L 777.6 34.56 
L 108 34.56 
z
" style="fill: #ffffff"/>
   </g>
   <g id="matplotlib.axis_1">
    <g id="xtick_1">
     <g id="line2d_1">
      <path d="M 108 256.32 
L 108 34.56 
" clip-path="url(#p67b4777a2d)" style="fill: none; stroke: #b0b0b0; stroke-width: 0.8; stroke-linecap: square"/>
     </g>
     <g id="line2d_2">
      <defs>
       <path id="m8eb25970a7" d="M 0 0 
L 0 3.5 
" style="stroke: #000000; stroke-width: 0.8"/>
      </defs>
      <g>
       <use xlink:href="#m8eb25970a7" x="108" y="256.32" style="stroke: #000000; stroke-width: 0.8"/>
      </g>
     </g>
     <g id="text_1">
      <!-- 100 -->
      <g transform="translate(94.63875 273.957812) scale(0.14 -0.14)">
       <defs>
        <path id="DejaVuSans-31" d="M 794 531 
L 1825 531 
L 1825 4091 
L 703 3866 
L 703 4441 
L 1819 4666 
L 2450 4666 
L 2450 531 
L 3481 531 
L 3481 0 
L 794 0 
L 794 531 
z
" transform="scale(0.015625)"/>
        <path id="DejaVuSans-30" d="M 2034 4250 
Q 1547 4250 1301 3770 
Q 1056 3291 1056 2328 
Q 1056 1369 1301 889 
Q 1547 409 2034 409 
Q 2525 409 2770 889 
Q 3016 1369 3016 2328 
Q 3016 3291 2770 3770 
Q 2525 4250 2034 4250 
z
M 2034 4750 
Q 2819 4750 3233 4129 
Q 3647 3509 3647 2328 
Q 3647 1150 3233 529 
Q 2819 -91 2034 -91 
Q 1250 -91 836 529 
Q 422 1150 422 2328 
Q 422 3509 836 4129 
Q 1250 4750 2034 4750 
z
" transform="scale(0.015625)"/>
       </defs>
       <use xlink:href="#DejaVuSans-31"/>
       <use xlink:href="#DejaVuSans-30" x="63.623047"/>
       <use xlink:href="#DejaVuSans-30" x="127.246094"/>
      </g>
     </g>
    </g>
    <g id="xtick_2">
     <g id="line2d_3">
      <path d="M 241.92 256.32 
L 241.92 34.56 
" clip-path="url(#p67b4777a2d)" style="fill: none; stroke: #b0b0b0; stroke-width: 0.8; stroke-linecap: square"/>
     </g>
     <g id="line2d_4">
      <g>
       <use xlink:href="#m8eb25970a7" x="241.92" y="256.32" style="stroke: #000000; stroke-width: 0.8"/>
      </g>
     </g>
     <g id="text_2">
      <!-- 120 -->
      <g transform="translate(228.55875 273.957812) scale(0.14 -0.14)">
       <defs>
        <path id="DejaVuSans-32" d="M 1228 531 
L 3431 531 
L 3431 0 
L 469 0 
L 469 531 
Q 828 903 1448 1529 
Q 2069 2156 2228 2338 
Q 2531 2678 2651 2914 
Q 2772 3150 2772 3378 
Q 2772 3750 2511 3984 
Q 2250 4219 1831 4219 
Q 1534 4219 1204 4116 
Q 875 4013 500 3803 
L 500 4441 
Q 881 4594 1212 4672 
Q 1544 4750 1819 4750 
Q 2544 4750 2975 4387 
Q 3406 4025 3406 3419 
Q 3406 3131 3298 2873 
Q 3191 2616 2906 2266 
Q 2828 2175 2409 1742 
Q 1991 1309 1228 531 
z
" transform="scale(0.015625)"/>
       </defs>
       <use xlink:href="#DejaVuSans-31"/>
       <use xlink:href="#DejaVuSans-32" x="63.623047"/>
       <use xlink:href="#DejaVuSans-30" x="127.246094"/>
      </g>
     </g>
    </g>
    <g id="xtick_3">
     <g id="line2d_5">
      <path d="M 375.84 256.32 
L 375.84 34.56 
" clip-path="url(#p67b4777a2d)" style="fill: none; stroke: #b0b0b0; stroke-width: 0.8; stroke-linecap: square"/>
     </g>
     <g id="line2d_6">
      <g>
       <use xlink:href="#m8eb25970a7" x="375.84" y="256.32" style="stroke: #000000; stroke-width: 0.8"/>
      </g>
     </g>
     <g id="text_3">
      <!-- 140 -->
      <g transform="translate(362.47875 273.957812) scale(0.14 -0.14)">
       <defs>
        <path id="DejaVuSans-34" d="M 2419 4116 
L 825 1625 
L 2419 1625 
L 2419 4116 
z
M 2253 4666 
L 3047 4666 
L 3047 1625 
L 3713 1625 
L 3713 1100 
L 3047 1100 
L 3047 0 
L 2419 0 
L 2419 1100 
L 313 1100 
L 313 1709 
L 2253 4666 
z
" transform="scale(0.015625)"/>
       </defs>
       <use xlink:href="#DejaVuSans-31"/>
       <use xlink:href="#DejaVuSans-34" x="63.623047"/>
       <use xlink:href="#DejaVuSans-30" x="127.246094"/>
      </g>
     </g>
    </g>
    <g id="xtick_4">
     <g id="line2d_7">
      <path d="M 509.76 256.32 
L 509.76 34.56 
" clip-path="url(#p67b4777a2d)" style="fill: none; stroke: #b0b0b0; stroke-width: 0.8; stroke-linecap: square"/>
     </g>
     <g id="line2d_8">
      <g>
       <use xlink:href="#m8eb25970a7" x="509.76" y="256.32" style="stroke: #000000; stroke-width: 0.8"/>
      </g>
     </g>
     <g id="text_4">
      <!-- 160 -->
      <g transform="translate(496.39875 273.957812) scale(0.14 -0.14)">
       <defs>
        <path id="DejaVuSans-36" d="M 2113 2584 
Q 1688 2584 1439 2293 
Q 1191 2003 1191 1497 
Q 1191 994 1439 701 
Q 1688 409 2113 409 
Q 2538 409 2786 701 
Q 3034 994 3034 1497 
Q 3034 2003 2786 2293 
Q 2538 2584 2113 2584 
z
M 3366 4563 
L 3366 3988 
Q 3128 4100 2886 4159 
Q 2644 4219 2406 4219 
Q 1781 4219 1451 3797 
Q 1122 3375 1075 2522 
Q 1259 2794 1537 2939 
Q 1816 3084 2150 3084 
Q 2853 3084 3261 2657 
Q 3669 2231 3669 1497 
Q 3669 778 3244 343 
Q 2819 -91 2113 -91 
Q 1303 -91 875 529 
Q 447 1150 447 2328 
Q 447 3434 972 4092 
Q 1497 4750 2381 4750 
Q 2619 4750 2861 4703 
Q 3103 4656 3366 4563 
z
" transform="scale(0.015625)"/>
       </defs>
       <use xlink:href="#DejaVuSans-31"/>
       <use xlink:href="#DejaVuSans-36" x="63.623047"/>
       <use xlink:href="#DejaVuSans-30" x="127.246094"/>
      </g>
     </g>
    </g>
    <g id="xtick_5">
     <g id="line2d_9">
      <path d="M 643.68 256.32 
L 643.68 34.56 
" clip-path="url(#p67b4777a2d)" style="fill: none; stroke: #b0b0b0; stroke-width: 0.8; stroke-linecap: square"/>
     </g>
     <g id="line2d_10">
      <g>
       <use xlink:href="#m8eb25970a7" x="643.68" y="256.32" style="stroke: #000000; stroke-width: 0.8"/>
      </g>
     </g>
     <g id="text_5">
      <!-- 180 -->
      <g transform="translate(630.31875 273.957812) scale(0.14 -0.14)">
       <defs>
        <path id="DejaVuSans-38" d="M 2034 2216 
Q 1584 2216 1326 1975 
Q 1069 1734 1069 1313 
Q 1069 891 1326 650 
Q 1584 409 2034 409 
Q 2484 409 2743 651 
Q 3003 894 3003 1313 
Q 3003 1734 2745 1975 
Q 2488 2216 2034 2216 
z
M 1403 2484 
Q 997 2584 770 2862 
Q 544 3141 544 3541 
Q 544 4100 942 4425 
Q 1341 4750 2034 4750 
Q 2731 4750 3128 4425 
Q 3525 4100 3525 3541 
Q 3525 3141 3298 2862 
Q 3072 2584 2669 2484 
Q 3125 2378 3379 2068 
Q 3634 1759 3634 1313 
Q 3634 634 3220 271 
Q 2806 -91 2034 -91 
Q 1263 -91 848 271 
Q 434 634 434 1313 
Q 434 1759 690 2068 
Q 947 2378 1403 2484 
z
M 1172 3481 
Q 1172 3119 1398 2916 
Q 1625 2713 2034 2713 
Q 2441 2713 2670 2916 
Q 2900 3119 2900 3481 
Q 2900 3844 2670 4047 
Q 2441 4250 2034 4250 
Q 1625 4250 1398 4047 
Q 1172 3844 1172 3481 
z
" transform="scale(0.015625)"/>
       </defs>
       <use xlink:href="#DejaVuSans-31"/>
       <use xlink:href="#DejaVuSans-38" x="63.623047"/>
       <use xlink:href="#DejaVuSans-30" x="127.246094"/>
      </g>
     </g>
    </g>
    <g id="xtick_6">
     <g id="line2d_11">
      <path d="M 777.6 256.32 
L 777.6 34.56 
" clip-path="url(#p67b4777a2d)" style="fill: none; stroke: #b0b0b0; stroke-width: 0.8; stroke-linecap: square"/>
     </g>
     <g id="line2d_12">
      <g>
       <use xlink:href="#m8eb25970a7" x="777.6" y="256.32" style="stroke: #000000; stroke-width: 0.8"/>
      </g>
     </g>
     <g id="text_6">
      <!-- 200 -->
      <g transform="translate(764.23875 273.957812) scale(0.14 -0.14)">
       <use xlink:href="#DejaVuSans-32"/>
       <use xlink:href="#DejaVuSans-30" x="63.623047"/>
       <use xlink:href="#DejaVuSans-30" x="127.246094"/>
      </g>
     </g>
    </g>
    <g id="text_7">
     <!-- Time (ms) -->
     <g transform="translate(407.521094 291.507187) scale(0.14 -0.14)">
      <defs>
       <path id="DejaVuSans-54" d="M -19 4666 
L 3928 4666 
L 3928 4134 
L 2272 4134 
L 2272 0 
L 1638 0 
L 1638 4134 
L -19 4134 
L -19 4666 
z
" transform="scale(0.015625)"/>
       <path id="DejaVuSans-69" d="M 603 3500 
L 1178 3500 
L 1178 0 
L 603 0 
L 603 3500 
z
M 603 4863 
L 1178 4863 
L 1178 4134 
L 603 4134 
L 603 4863 
z
" transform="scale(0.015625)"/>
       <path id="DejaVuSans-6d" d="M 3328 2828 
Q 3544 3216 3844 3400 
Q 4144 3584 4550 3584 
Q 5097 3584 5394 3201 
Q 5691 2819 5691 2113 
L 5691 0 
L 5113 0 
L 5113 2094 
Q 5113 2597 4934 2840 
Q 4756 3084 4391 3084 
Q 3944 3084 3684 2787 
Q 3425 2491 3425 1978 
L 3425 0 
L 2847 0 
L 2847 2094 
Q 2847 2600 2669 2842 
Q 2491 3084 2119 3084 
Q 1678 3084 1418 2786 
Q 1159 2488 1159 1978 
L 1159 0 
L 581 0 
L 581 3500 
L 1159 3500 
L 1159 2956 
Q 1356 3278 1631 3431 
Q 1906 3584 2284 3584 
Q 2666 3584 2933 3390 
Q 3200 3197 3328 2828 
z
" transform="scale(0.015625)"/>
       <path id="DejaVuSans-65" d="M 3597 1894 
L 3597 1613 
L 953 1613 
Q 991 1019 1311 708 
Q 1631 397 2203 397 
Q 2534 397 2845 478 
Q 3156 559 3463 722 
L 3463 178 
Q 3153 47 2828 -22 
Q 2503 -91 2169 -91 
Q 1331 -91 842 396 
Q 353 884 353 1716 
Q 353 2575 817 3079 
Q 1281 3584 2069 3584 
Q 2775 3584 3186 3129 
Q 3597 2675 3597 1894 
z
M 3022 2063 
Q 3016 2534 2758 2815 
Q 2500 3097 2075 3097 
Q 1594 3097 1305 2825 
Q 1016 2553 972 2059 
L 3022 2063 
z
" transform="scale(0.015625)"/>
       <path id="DejaVuSans-20" transform="scale(0.015625)"/>
       <path id="DejaVuSans-28" d="M 1984 4856 
Q 1566 4138 1362 3434 
Q 1159 2731 1159 2009 
Q 1159 1288 1364 580 
Q 1569 -128 1984 -844 
L 1484 -844 
Q 1016 -109 783 600 
Q 550 1309 550 2009 
Q 550 2706 781 3412 
Q 1013 4119 1484 4856 
L 1984 4856 
z
" transform="scale(0.015625)"/>
       <path id="DejaVuSans-73" d="M 2834 3397 
L 2834 2853 
Q 2591 2978 2328 3040 
Q 2066 3103 1784 3103 
Q 1356 3103 1142 2972 
Q 928 2841 928 2578 
Q 928 2378 1081 2264 
Q 1234 2150 1697 2047 
L 1894 2003 
Q 2506 1872 2764 1633 
Q 3022 1394 3022 966 
Q 3022 478 2636 193 
Q 2250 -91 1575 -91 
Q 1294 -91 989 -36 
Q 684 19 347 128 
L 347 722 
Q 666 556 975 473 
Q 1284 391 1588 391 
Q 1994 391 2212 530 
Q 2431 669 2431 922 
Q 2431 1156 2273 1281 
Q 2116 1406 1581 1522 
L 1381 1569 
Q 847 1681 609 1914 
Q 372 2147 372 2553 
Q 372 3047 722 3315 
Q 1072 3584 1716 3584 
Q 2034 3584 2315 3537 
Q 2597 3491 2834 3397 
z
" transform="scale(0.015625)"/>
       <path id="DejaVuSans-29" d="M 513 4856 
L 1013 4856 
Q 1481 4119 1714 3412 
Q 1947 2706 1947 2009 
Q 1947 1309 1714 600 
Q 1481 -109 1013 -844 
L 513 -844 
Q 928 -128 1133 580 
Q 1338 1288 1338 2009 
Q 1338 2731 1133 3434 
Q 928 4138 513 4856 
z
" transform="scale(0.015625)"/>
      </defs>
      <use xlink:href="#DejaVuSans-54"/>
      <use xlink:href="#DejaVuSans-69" x="57.958984"/>
      <use xlink:href="#DejaVuSans-6d" x="85.742188"/>
      <use xlink:href="#DejaVuSans-65" x="183.154297"/>
      <use xlink:href="#DejaVuSans-20" x="244.677734"/>
      <use xlink:href="#DejaVuSans-28" x="276.464844"/>
      <use xlink:href="#DejaVuSans-6d" x="315.478516"/>
      <use xlink:href="#DejaVuSans-73" x="412.890625"/>
      <use xlink:href="#DejaVuSans-29" x="464.990234"/>
     </g>
    </g>
   </g>
   <g id="matplotlib.axis_2">
    <g id="ytick_1">
     <g id="line2d_13">
      <path d="M 108 224.745058 
L 777.6 224.745058 
" clip-path="url(#p67b4777a2d)" style="fill: none; stroke: #b0b0b0; stroke-width: 0.8; stroke-linecap: square"/>
     </g>
     <g id="line2d_14">
      <defs>
       <path id="m08b14c075e" d="M 0 0 
L -3.5 0 
" style="stroke: #000000; stroke-width: 0.8"/>
      </defs>
      <g>
       <use xlink:href="#m08b14c075e" x="108" y="224.745058" style="stroke: #000000; stroke-width: 0.8"/>
      </g>
     </g>
     <g id="text_8">
      <!-- −60 -->
      <g transform="translate(71.453437 230.063964) scale(0.14 -0.14)">
       <defs>
        <path id="DejaVuSans-2212" d="M 678 2272 
L 4684 2272 
L 4684 1741 
L 678 1741 
L 678 2272 
z
" transform="scale(0.015625)"/>
       </defs>
       <use xlink:href="#DejaVuSans-2212"/>
       <use xlink:href="#DejaVuSans-36" x="83.789062"/>
       <use xlink:href="#DejaVuSans-30" x="147.412109"/>
      </g>
     </g>
    </g>
    <g id="ytick_2">
     <g id="line2d_15">
      <path d="M 108 181.823675 
L 777.6 181.823675 
" clip-path="url(#p67b4777a2d)" style="fill: none; stroke: #b0b0b0; stroke-width: 0.8; stroke-linecap: square"/>
     </g>
     <g id="line2d_16">
      <g>
       <use xlink:href="#m08b14c075e" x="108" y="181.823675" style="stroke: #000000; stroke-width: 0.8"/>
      </g>
     </g>
     <g id="text_9">
      <!-- −40 -->
      <g transform="translate(71.453437 187.142581) scale(0.14 -0.14)">
       <use xlink:href="#DejaVuSans-2212"/>
       <use xlink:href="#DejaVuSans-34" x="83.789062"/>
       <use xlink:href="#DejaVuSans-30" x="147.412109"/>
      </g>
     </g>
    </g>
    <g id="ytick_3">
     <g id="line2d_17">
      <path d="M 108 138.902292 
L 777.6 138.902292 
" clip-path="url(#p67b4777a2d)" style="fill: none; stroke: #b0b0b0; stroke-width: 0.8; stroke-linecap: square"/>
     </g>
     <g id="line2d_18">
      <g>
       <use xlink:href="#m08b14c075e" x="108" y="138.902292" style="stroke: #000000; stroke-width: 0.8"/>
      </g>
     </g>
     <g id="text_10">
      <!-- −20 -->
      <g transform="translate(71.453437 144.221198) scale(0.14 -0.14)">
       <use xlink:href="#DejaVuSans-2212"/>
       <use xlink:href="#DejaVuSans-32" x="83.789062"/>
       <use xlink:href="#DejaVuSans-30" x="147.412109"/>
      </g>
     </g>
    </g>
    <g id="ytick_4">
     <g id="line2d_19">
      <path d="M 108 95.980909 
L 777.6 95.980909 
" clip-path="url(#p67b4777a2d)" style="fill: none; stroke: #b0b0b0; stroke-width: 0.8; stroke-linecap: square"/>
     </g>
     <g id="line2d_20">
      <g>
       <use xlink:href="#m08b14c075e" x="108" y="95.980909" style="stroke: #000000; stroke-width: 0.8"/>
      </g>
     </g>
     <g id="text_11">
      <!-- 0 -->
      <g transform="translate(92.0925 101.299815) scale(0.14 -0.14)">
       <use xlink:href="#DejaVuSans-30"/>
      </g>
     </g>
    </g>
    <g id="ytick_5">
     <g id="line2d_21">
      <path d="M 108 53.059526 
L 777.6 53.059526 
" clip-path="url(#p67b4777a2d)" style="fill: none; stroke: #b0b0b0; stroke-width: 0.8; stroke-linecap: square"/>
     </g>
     <g id="line2d_22">
      <g>
       <use xlink:href="#m08b14c075e" x="108" y="53.059526" style="stroke: #000000; stroke-width: 0.8"/>
      </g>
     </g>
     <g id="text_12">
      <!-- 20 -->
      <g transform="translate(83.185 58.378432) scale(0.14 -0.14)">
       <use xlink:href="#DejaVuSans-32"/>
       <use xlink:href="#DejaVuSans-30" x="63.623047"/>
      </g>
     </g>
    </g>
    <g id="text_13">
     <!-- $V_{m}$ (mV) -->
     <g transform="translate(64.541875 174.49) rotate(-90) scale(0.14 -0.14)">
      <defs>
       <path id="DejaVuSans-Oblique-56" d="M 1319 0 
L 500 4666 
L 1119 4666 
L 1797 653 
L 4063 4666 
L 4750 4666 
L 2053 0 
L 1319 0 
z
" transform="scale(0.015625)"/>
       <path id="DejaVuSans-Oblique-6d" d="M 5747 2113 
L 5338 0 
L 4763 0 
L 5166 2094 
Q 5191 2228 5203 2325 
Q 5216 2422 5216 2491 
Q 5216 2772 5059 2928 
Q 4903 3084 4622 3084 
Q 4203 3084 3875 2770 
Q 3547 2456 3450 1953 
L 3066 0 
L 2491 0 
L 2900 2094 
Q 2925 2209 2937 2307 
Q 2950 2406 2950 2484 
Q 2950 2769 2794 2926 
Q 2638 3084 2363 3084 
Q 1938 3084 1609 2770 
Q 1281 2456 1184 1953 
L 800 0 
L 225 0 
L 909 3500 
L 1484 3500 
L 1375 2956 
Q 1609 3263 1923 3423 
Q 2238 3584 2597 3584 
Q 2978 3584 3223 3384 
Q 3469 3184 3519 2828 
Q 3781 3197 4126 3390 
Q 4472 3584 4856 3584 
Q 5306 3584 5551 3325 
Q 5797 3066 5797 2591 
Q 5797 2488 5784 2364 
Q 5772 2241 5747 2113 
z
" transform="scale(0.015625)"/>
       <path id="DejaVuSans-56" d="M 1831 0 
L 50 4666 
L 709 4666 
L 2188 738 
L 3669 4666 
L 4325 4666 
L 2547 0 
L 1831 0 
z
" transform="scale(0.015625)"/>
      </defs>
      <use xlink:href="#DejaVuSans-Oblique-56" transform="translate(0 0.125)"/>
      <use xlink:href="#DejaVuSans-Oblique-6d" transform="translate(68.408203 -16.28125) scale(0.7)"/>
      <use xlink:href="#DejaVuSans-20" transform="translate(139.331055 0.125)"/>
      <use xlink:href="#DejaVuSans-28" transform="translate(171.118164 0.125)"/>
      <use xlink:href="#DejaVuSans-6d" transform="translate(210.131836 0.125)"/>
      <use xlink:href="#DejaVuSans-56" transform="translate(307.543945 0.125)"/>
      <use xlink:href="#DejaVuSans-29" transform="translate(375.952148 0.125)"/>
     </g>
    </g>
   </g>
   <g id="line2d_23">
    <path d="M 108 214.351975 
L 110.0088 214.235343 
L 111.348 214.06925 
L 112.6872 214.154873 
L 114.696 214.141861 
L 116.0352 214.327136 
L 118.044 215.067445 
L 119.3832 215.775754 
L 120.0528 215.949805 
L 121.392 216.676295 
L 122.7312 217.268771 
L 124.0704 217.545812 
L 126.0792 217.723009 
L 128.7576 217.736597 
L 132.1056 217.533671 
L 134.784 217.394379 
L 136.1232 217.570753 
L 137.4624 218.221666 
L 140.8104 218.835217 
L 142.8192 218.882984 
L 143.4888 218.86651 
L 144.828 219.067598 
L 146.8368 219.076962 
L 148.176 219.003084 
L 150.1848 219.169836 
L 152.8632 219.015174 
L 156.8808 218.545483 
L 162.2376 217.688259 
L 164.2464 217.125101 
L 172.2816 214.565045 
L 184.3344 210.679233 
L 198.396 206.105332 
L 200.4048 205.911091 
L 203.7528 205.156391 
L 205.7616 204.635127 
L 207.7704 204.56194 
L 208.44 204.470322 
L 210.4488 204.594656 
L 212.4576 204.419613 
L 215.8056 203.863379 
L 219.8232 202.962811 
L 223.8408 201.849059 
L 226.5192 201.03491 
L 227.1888 200.96037 
L 229.8672 201.90997 
L 231.876 202.234977 
L 232.5456 202.289051 
L 234.5544 203.031025 
L 235.8936 204.059058 
L 237.2328 205.218349 
L 238.572 206.21078 
L 239.9112 207.287055 
L 241.2504 208.697048 
L 242.5896 209.454837 
L 243.9288 209.917762 
L 244.5984 210.084874 
L 245.9376 210.638834 
L 246.6072 210.817243 
L 247.9464 211.520307 
L 251.964 213.348839 
L 253.9728 213.724595 
L 255.9816 214.798014 
L 257.3208 215.265844 
L 259.3296 215.605296 
L 261.3384 215.914176 
L 262.6776 216.162551 
L 266.0256 216.573086 
L 267.3648 216.951847 
L 269.3736 217.135124 
L 271.3824 217.292659 
L 272.7216 217.449913 
L 275.4 217.430522 
L 278.748 217.18214 
L 282.7656 216.836235 
L 284.1048 216.844591 
L 286.7832 216.574995 
L 292.14 215.889112 
L 293.4792 215.8608 
L 296.1576 215.528202 
L 298.1664 215.034628 
L 319.5936 208.559267 
L 328.968 205.407371 
L 333.6552 203.619573 
L 337.0032 202.068466 
L 338.3424 201.282871 
L 339.6816 200.301338 
L 341.0208 198.978007 
L 341.6904 197.989181 
L 342.36 196.580065 
L 343.0296 193.991671 
L 343.6992 186.299443 
L 344.3688 146.195886 
L 345.0384 56.195169 
L 345.708 62.744756 
L 346.3776 82.903236 
L 347.7168 110.137395 
L 349.7256 143.407515 
L 351.7344 172.634257 
L 353.0736 189.675269 
L 353.7432 196.240163 
L 354.4128 200.889818 
L 355.0824 204.302709 
L 355.752 206.689822 
L 357.0912 209.778419 
L 358.4304 211.799955 
L 359.1 212.670054 
L 359.7696 213.314864 
L 361.1088 214.096768 
L 361.7784 214.327422 
L 363.1176 215.105066 
L 364.4568 215.64247 
L 367.1352 215.992008 
L 368.4744 216.086031 
L 369.8136 216.101947 
L 371.8224 215.818505 
L 372.492 215.686573 
L 373.8312 215.948862 
L 375.1704 216.717326 
L 376.5096 216.924428 
L 378.5184 216.881993 
L 379.188 216.825877 
L 379.8576 216.904313 
L 382.536 217.587628 
L 383.8752 217.876153 
L 385.2144 218.085667 
L 388.5624 218.623833 
L 391.2408 218.692059 
L 392.58 219.049345 
L 394.5888 219.13162 
L 397.2672 218.983412 
L 398.6064 218.852129 
L 401.9544 219.116914 
L 403.9632 219.201824 
L 405.3024 219.42142 
L 406.6416 219.558331 
L 408.6504 219.644817 
L 409.9896 219.735825 
L 412.668 219.591144 
L 416.6856 219.103854 
L 422.0424 218.18312 
L 427.3992 217.223699 
L 428.7384 217.13776 
L 430.7472 216.79212 
L 433.4256 215.951892 
L 444.1392 212.548001 
L 470.9232 203.810407 
L 472.932 203.090184 
L 475.6104 202.740007 
L 476.9496 202.435492 
L 478.9584 202.434355 
L 480.9672 202.174638 
L 484.3152 201.578802 
L 484.9848 201.589057 
L 486.9936 201.992367 
L 489.0024 202.096953 
L 494.3592 205.079453 
L 495.6984 206.00473 
L 499.0464 207.343844 
L 503.7336 208.313345 
L 504.4032 208.369998 
L 505.7424 208.748201 
L 508.4208 209.149511 
L 511.0992 211.121729 
L 512.4384 211.582905 
L 514.4472 212.103096 
L 515.1168 212.312509 
L 516.456 213.13692 
L 517.1256 213.375258 
L 519.804 215.341987 
L 521.1432 215.837121 
L 523.8216 216.511564 
L 525.8304 217.44912 
L 528.5088 218.454271 
L 530.5176 218.915672 
L 531.8568 219.223451 
L 533.8656 219.422396 
L 536.544 219.48276 
L 539.892 219.347511 
L 543.9096 218.960297 
L 548.5968 218.276606 
L 553.9536 217.272791 
L 560.6496 215.791843 
L 564.6672 214.795965 
L 569.3544 213.084193 
L 583.416 208.236512 
L 592.7904 204.839445 
L 596.1384 203.453827 
L 598.8168 202.16254 
L 600.156 201.376723 
L 601.4952 200.396328 
L 603.504 198.62449 
L 604.1736 197.683064 
L 604.8432 196.257622 
L 605.5128 193.310578 
L 606.1824 182.228078 
L 607.5216 51.858788 
L 608.1912 65.718463 
L 608.8608 85.432407 
L 610.2 112.326445 
L 612.2088 145.512236 
L 614.2176 174.695085 
L 615.5568 191.558853 
L 616.2264 197.709987 
L 616.896 201.950596 
L 617.5656 204.789376 
L 618.2352 206.781575 
L 618.9048 208.247414 
L 619.5744 209.358209 
L 620.244 210.210265 
L 620.9136 210.862677 
L 622.2528 211.720968 
L 624.2616 212.519761 
L 625.6008 212.808092 
L 626.2704 213.063296 
L 627.6096 213.219682 
L 628.9488 213.085676 
L 629.6184 212.96167 
L 630.288 212.967162 
L 631.6272 213.402444 
L 632.9664 213.366915 
L 633.636 213.273152 
L 634.9752 213.304881 
L 635.6448 213.232723 
L 636.984 213.290718 
L 637.6536 213.230941 
L 639.6624 214.305828 
L 643.0104 215.004885 
L 644.3496 215.462115 
L 645.6888 215.749947 
L 647.028 215.968101 
L 647.6976 216.002136 
L 649.0368 216.429726 
L 650.376 216.708923 
L 651.0456 216.761563 
L 652.3848 217.066814 
L 653.0544 217.133668 
L 654.3936 217.593517 
L 658.4112 218.862988 
L 660.42 219.892888 
L 661.7592 220.2004 
L 663.768 220.412492 
L 666.4464 220.465966 
L 667.7856 220.426528 
L 669.7944 220.633863 
L 672.4728 220.529094 
L 676.4904 220.103266 
L 681.1776 219.359859 
L 686.5344 218.286182 
L 694.5696 216.547568 
L 695.9088 216.426723 
L 698.5872 215.896312 
L 701.9352 214.75884 
L 710.64 211.882522 
L 736.7544 203.192245 
L 740.772 201.616533 
L 743.4504 200.451346 
L 744.7896 200.068464 
L 746.1288 199.527893 
L 748.8072 198.037903 
L 749.4768 197.552678 
L 750.1464 196.887976 
L 750.816 195.85489 
L 751.4856 194.087202 
L 752.1552 189.676463 
L 752.8248 171.366322 
L 753.4944 91.36341 
L 754.164 62.038745 
L 756.1728 104.127723 
L 758.1816 138.673182 
L 760.1904 168.838055 
L 761.5296 187.207322 
L 762.1992 194.952159 
L 762.8688 200.89016 
L 763.5384 204.83415 
L 764.208 207.444391 
L 764.8776 209.28676 
L 766.2168 211.838904 
L 766.8864 212.756462 
L 767.556 213.437943 
L 769.5648 214.898873 
L 770.2344 215.328978 
L 771.5736 215.744528 
L 773.5824 216.320962 
L 774.9216 216.463307 
L 777.6 216.295464 
L 777.6 216.295464 
" clip-path="url(#p67b4777a2d)" style="fill: none; stroke: #000000; stroke-width: 1.5; stroke-linecap: square"/>
   </g>
   <g id="line2d_24">
    <path d="M 108 135.389496 
L 112.6872 136.566694 
L 117.3744 137.814211 
L 120.0528 138.805546 
L 123.4008 140.313334 
L 128.088 142.416086 
L 137.4624 146.510334 
L 140.1408 148.148483 
L 144.1584 150.899931 
L 147.5064 153.48153 
L 150.1848 155.789339 
L 152.8632 158.400992 
L 155.5416 161.278263 
L 158.22 164.428075 
L 161.568 168.704416 
L 162.2376 169.591067 
L 162.9072 146.262356 
L 163.5768 141.262449 
L 164.2464 138.561381 
L 164.916 137.034561 
L 165.5856 136.088151 
L 166.2552 135.453258 
L 167.5944 134.619311 
L 171.612 132.79842 
L 175.6296 131.089542 
L 178.308 130.155745 
L 181.656 129.256281 
L 185.004 128.606176 
L 189.0216 128.071737 
L 193.7088 127.685507 
L 199.0656 127.462094 
L 204.4224 127.525856 
L 209.1096 127.714754 
L 229.8672 129.377807 
L 235.224 130.470586 
L 237.2328 131.083341 
L 240.5808 132.359021 
L 245.268 134.302767 
L 251.2944 136.643582 
L 262.008 141.260147 
L 268.0344 144.054118 
L 273.3912 146.90371 
L 279.4176 150.442409 
L 283.4352 153.025659 
L 286.7832 155.541482 
L 290.1312 158.334568 
L 292.8096 160.800011 
L 295.488 163.600743 
L 296.1576 164.341168 
L 296.8272 143.373131 
L 297.4968 139.267492 
L 298.1664 136.997562 
L 298.836 135.729551 
L 299.5056 134.957938 
L 300.1752 134.448612 
L 301.5144 133.78155 
L 311.5584 129.893613 
L 314.9064 128.969462 
L 318.2544 128.294396 
L 322.272 127.730966 
L 326.9592 127.312433 
L 333.6552 126.972243 
L 341.0208 126.597918 
L 342.36 126.404031 
L 343.0296 126.223441 
L 343.6992 125.829907 
L 344.3688 124.319868 
L 345.0384 119.959847 
L 345.708 114.773347 
L 346.3776 110.764523 
L 347.0472 108.410125 
L 347.7168 107.438048 
L 348.3864 107.446534 
L 349.056 108.112871 
L 349.7256 109.214524 
L 351.0648 112.181016 
L 353.0736 117.482653 
L 355.0824 122.612236 
L 356.4216 125.28433 
L 357.7608 127.307665 
L 359.1 128.847045 
L 360.4392 130.054079 
L 361.7784 131.005998 
L 363.7872 132.138396 
L 365.796 133.050137 
L 368.4744 134.002118 
L 371.8224 134.942951 
L 375.1704 135.796339 
L 387.2232 139.667012 
L 395.928 143.045175 
L 401.9544 145.576859 
L 405.3024 147.261687 
L 408.6504 149.237926 
L 411.9984 151.467469 
L 416.016 154.389711 
L 419.364 157.072172 
L 422.712 160.047382 
L 426.06 163.352693 
L 428.7384 166.283255 
L 430.0776 167.870029 
L 430.7472 145.266845 
L 431.4168 140.584663 
L 432.0864 138.025154 
L 432.756 136.579657 
L 433.4256 135.68584 
L 434.0952 135.086969 
L 435.4344 134.297472 
L 440.1216 132.23845 
L 444.1392 130.602448 
L 446.8176 129.728304 
L 450.1656 128.892434 
L 453.5136 128.291081 
L 457.5312 127.797812 
L 462.2184 127.445809 
L 468.2448 127.223381 
L 474.9408 127.187743 
L 479.628 127.419486 
L 487.6632 128.109499 
L 491.0112 128.644281 
L 493.6896 129.287354 
L 511.7688 134.330093 
L 519.1344 137.133569 
L 530.5176 142.643483 
L 542.5704 149.108886 
L 547.2576 151.864075 
L 551.2752 154.472829 
L 554.6232 156.877847 
L 557.9712 159.534074 
L 561.3192 162.460279 
L 563.9976 164.982246 
L 564.6672 143.64249 
L 565.3368 139.406904 
L 566.0064 137.05141 
L 566.676 135.719024 
L 567.3456 134.894467 
L 568.0152 134.339946 
L 569.3544 133.599309 
L 576.0504 130.744797 
L 579.3984 129.515931 
L 582.7464 128.573259 
L 586.0944 127.879693 
L 590.112 127.293902 
L 594.7992 126.831788 
L 604.1736 126.019907 
L 605.5128 125.701695 
L 606.1824 125.204577 
L 606.852 123.029643 
L 608.1912 113.308076 
L 608.8608 109.690109 
L 609.5304 107.706042 
L 610.2 107.017032 
L 610.8696 107.223847 
L 611.5392 108.022777 
L 612.2088 109.208996 
L 613.548 112.249214 
L 617.5656 122.522427 
L 618.9048 125.005444 
L 620.244 126.831636 
L 621.5832 128.173922 
L 622.9224 129.17842 
L 624.9312 130.287289 
L 627.6096 131.357948 
L 630.288 132.118143 
L 636.3144 133.511299 
L 639.6624 134.289973 
L 647.028 136.519326 
L 652.3848 138.287662 
L 656.4024 139.794585 
L 659.7504 141.273922 
L 673.812 148.49503 
L 679.1688 151.581579 
L 683.1864 154.13976 
L 686.5344 156.49604 
L 689.8824 159.102834 
L 693.2304 161.988556 
L 695.9088 164.55567 
L 697.9176 166.681233 
L 698.5872 144.581644 
L 699.2568 140.08733 
L 699.9264 137.609573 
L 700.596 136.207622 
L 701.2656 135.339284 
L 701.9352 134.755823 
L 703.2744 133.981911 
L 708.6312 131.64773 
L 711.9792 130.310809 
L 714.6576 129.440811 
L 718.0056 128.609182 
L 721.3536 128.009686 
L 725.3712 127.517514 
L 730.728 127.125371 
L 737.424 126.893944 
L 751.4856 126.525231 
L 752.1552 126.299625 
L 752.8248 125.549752 
L 753.4944 122.463484 
L 754.8336 113.088966 
L 755.5032 109.990126 
L 756.1728 108.35357 
L 756.8424 107.869757 
L 757.512 108.205247 
L 758.1816 109.098662 
L 758.8512 110.366016 
L 760.1904 113.562086 
L 764.208 124.383139 
L 765.5472 127.018637 
L 766.8864 129.000923 
L 768.2256 130.508213 
L 769.5648 131.680378 
L 771.5736 133.061361 
L 773.5824 134.128222 
L 776.2608 135.247484 
L 777.6 135.695448 
L 777.6 135.695448 
" clip-path="url(#p67b4777a2d)" style="fill: none; stroke: #4169e1; stroke-width: 1.5; stroke-linecap: square"/>
   </g>
   <g id="patch_3">
    <path d="M 108 256.32 
L 108 34.56 
" style="fill: none; stroke: #000000; stroke-width: 0.8; stroke-linejoin: miter; stroke-linecap: square"/>
   </g>
   <g id="patch_4">
    <path d="M 777.6 256.32 
L 777.6 34.56 
" style="fill: none; stroke: #000000; stroke-width: 0.8; stroke-linejoin: miter; stroke-linecap: square"/>
   </g>
   <g id="patch_5">
    <path d="M 108 256.32 
L 777.6 256.32 
" style="fill: none; stroke: #000000; stroke-width: 0.8; stroke-linejoin: miter; stroke-linecap: square"/>
   </g>
   <g id="patch_6">
    <path d="M 108 34.56 
L 777.6 34.56 
" style="fill: none; stroke: #000000; stroke-width: 0.8; stroke-linejoin: miter; stroke-linecap: square"/>
   </g>
   <g id="legend_1">
    <g id="patch_7">
     <path d="M 115 71.91625 
L 190.501563 71.91625 
Q 192.501563 71.91625 192.501563 69.91625 
L 192.501563 41.56 
Q 192.501563 39.56 190.501563 39.56 
L 115 39.56 
Q 113 39.56 113 41.56 
L 113 69.91625 
Q 113 71.91625 115 71.91625 
z
" style="fill: #ffffff; opacity: 0.8; stroke: #cccccc; stroke-linejoin: miter"/>
    </g>
    <g id="line2d_25">
     <path d="M 117 47.658437 
L 127 47.658437 
L 137 47.658437 
" style="fill: none; stroke: #000000; stroke-width: 1.5; stroke-linecap: square"/>
    </g>
    <g id="text_14">
     <!-- Soma -->
     <g transform="translate(145 51.158437) scale(0.1 -0.1)">
      <defs>
       <path id="DejaVuSans-53" d="M 3425 4513 
L 3425 3897 
Q 3066 4069 2747 4153 
Q 2428 4238 2131 4238 
Q 1616 4238 1336 4038 
Q 1056 3838 1056 3469 
Q 1056 3159 1242 3001 
Q 1428 2844 1947 2747 
L 2328 2669 
Q 3034 2534 3370 2195 
Q 3706 1856 3706 1288 
Q 3706 609 3251 259 
Q 2797 -91 1919 -91 
Q 1588 -91 1214 -16 
Q 841 59 441 206 
L 441 856 
Q 825 641 1194 531 
Q 1563 422 1919 422 
Q 2459 422 2753 634 
Q 3047 847 3047 1241 
Q 3047 1584 2836 1778 
Q 2625 1972 2144 2069 
L 1759 2144 
Q 1053 2284 737 2584 
Q 422 2884 422 3419 
Q 422 4038 858 4394 
Q 1294 4750 2059 4750 
Q 2388 4750 2728 4690 
Q 3069 4631 3425 4513 
z
" transform="scale(0.015625)"/>
       <path id="DejaVuSans-6f" d="M 1959 3097 
Q 1497 3097 1228 2736 
Q 959 2375 959 1747 
Q 959 1119 1226 758 
Q 1494 397 1959 397 
Q 2419 397 2687 759 
Q 2956 1122 2956 1747 
Q 2956 2369 2687 2733 
Q 2419 3097 1959 3097 
z
M 1959 3584 
Q 2709 3584 3137 3096 
Q 3566 2609 3566 1747 
Q 3566 888 3137 398 
Q 2709 -91 1959 -91 
Q 1206 -91 779 398 
Q 353 888 353 1747 
Q 353 2609 779 3096 
Q 1206 3584 1959 3584 
z
" transform="scale(0.015625)"/>
       <path id="DejaVuSans-61" d="M 2194 1759 
Q 1497 1759 1228 1600 
Q 959 1441 959 1056 
Q 959 750 1161 570 
Q 1363 391 1709 391 
Q 2188 391 2477 730 
Q 2766 1069 2766 1631 
L 2766 1759 
L 2194 1759 
z
M 3341 1997 
L 3341 0 
L 2766 0 
L 2766 531 
Q 2569 213 2275 61 
Q 1981 -91 1556 -91 
Q 1019 -91 701 211 
Q 384 513 384 1019 
Q 384 1609 779 1909 
Q 1175 2209 1959 2209 
L 2766 2209 
L 2766 2266 
Q 2766 2663 2505 2880 
Q 2244 3097 1772 3097 
Q 1472 3097 1187 3025 
Q 903 2953 641 2809 
L 641 3341 
Q 956 3463 1253 3523 
Q 1550 3584 1831 3584 
Q 2591 3584 2966 3190 
Q 3341 2797 3341 1997 
z
" transform="scale(0.015625)"/>
      </defs>
      <use xlink:href="#DejaVuSans-53"/>
      <use xlink:href="#DejaVuSans-6f" x="63.476562"/>
      <use xlink:href="#DejaVuSans-6d" x="124.658203"/>
      <use xlink:href="#DejaVuSans-61" x="222.070312"/>
     </g>
    </g>
    <g id="line2d_26">
     <path d="M 117 62.336562 
L 127 62.336562 
L 137 62.336562 
" style="fill: none; stroke: #4169e1; stroke-width: 1.5; stroke-linecap: square"/>
    </g>
    <g id="text_15">
     <!-- Dendrite -->
     <g transform="translate(145 65.836562) scale(0.1 -0.1)">
      <defs>
       <path id="DejaVuSans-44" d="M 1259 4147 
L 1259 519 
L 2022 519 
Q 2988 519 3436 956 
Q 3884 1394 3884 2338 
Q 3884 3275 3436 3711 
Q 2988 4147 2022 4147 
L 1259 4147 
z
M 628 4666 
L 1925 4666 
Q 3281 4666 3915 4102 
Q 4550 3538 4550 2338 
Q 4550 1131 3912 565 
Q 3275 0 1925 0 
L 628 0 
L 628 4666 
z
" transform="scale(0.015625)"/>
       <path id="DejaVuSans-6e" d="M 3513 2113 
L 3513 0 
L 2938 0 
L 2938 2094 
Q 2938 2591 2744 2837 
Q 2550 3084 2163 3084 
Q 1697 3084 1428 2787 
Q 1159 2491 1159 1978 
L 1159 0 
L 581 0 
L 581 3500 
L 1159 3500 
L 1159 2956 
Q 1366 3272 1645 3428 
Q 1925 3584 2291 3584 
Q 2894 3584 3203 3211 
Q 3513 2838 3513 2113 
z
" transform="scale(0.015625)"/>
       <path id="DejaVuSans-64" d="M 2906 2969 
L 2906 4863 
L 3481 4863 
L 3481 0 
L 2906 0 
L 2906 525 
Q 2725 213 2448 61 
Q 2172 -91 1784 -91 
Q 1150 -91 751 415 
Q 353 922 353 1747 
Q 353 2572 751 3078 
Q 1150 3584 1784 3584 
Q 2172 3584 2448 3432 
Q 2725 3281 2906 2969 
z
M 947 1747 
Q 947 1113 1208 752 
Q 1469 391 1925 391 
Q 2381 391 2643 752 
Q 2906 1113 2906 1747 
Q 2906 2381 2643 2742 
Q 2381 3103 1925 3103 
Q 1469 3103 1208 2742 
Q 947 2381 947 1747 
z
" transform="scale(0.015625)"/>
       <path id="DejaVuSans-72" d="M 2631 2963 
Q 2534 3019 2420 3045 
Q 2306 3072 2169 3072 
Q 1681 3072 1420 2755 
Q 1159 2438 1159 1844 
L 1159 0 
L 581 0 
L 581 3500 
L 1159 3500 
L 1159 2956 
Q 1341 3275 1631 3429 
Q 1922 3584 2338 3584 
Q 2397 3584 2469 3576 
Q 2541 3569 2628 3553 
L 2631 2963 
z
" transform="scale(0.015625)"/>
       <path id="DejaVuSans-74" d="M 1172 4494 
L 1172 3500 
L 2356 3500 
L 2356 3053 
L 1172 3053 
L 1172 1153 
Q 1172 725 1289 603 
Q 1406 481 1766 481 
L 2356 481 
L 2356 0 
L 1766 0 
Q 1100 0 847 248 
Q 594 497 594 1153 
L 594 3053 
L 172 3053 
L 172 3500 
L 594 3500 
L 594 4494 
L 1172 4494 
z
" transform="scale(0.015625)"/>
      </defs>
      <use xlink:href="#DejaVuSans-44"/>
      <use xlink:href="#DejaVuSans-65" x="77.001953"/>
      <use xlink:href="#DejaVuSans-6e" x="138.525391"/>
      <use xlink:href="#DejaVuSans-64" x="201.904297"/>
      <use xlink:href="#DejaVuSans-72" x="265.380859"/>
      <use xlink:href="#DejaVuSans-69" x="306.494141"/>
      <use xlink:href="#DejaVuSans-74" x="334.277344"/>
      <use xlink:href="#DejaVuSans-65" x="373.486328"/>
     </g>
    </g>
   </g>
  </g>
 </g>
 <defs>
  <clipPath id="p67b4777a2d">
   <rect x="108" y="34.56" width="669.6" height="221.76"/>
  </clipPath>
 </defs>
</svg>
