<?xml version="1.0" encoding="utf-8" standalone="no"?>
<!DOCTYPE svg PUBLIC "-//W3C//DTD SVG 1.1//EN"
  "http://www.w3.org/Graphics/SVG/1.1/DTD/svg11.dtd">
<svg xmlns:xlink="http://www.w3.org/1999/xlink" width="864pt" height="288pt" viewBox="0 0 864 288" xmlns="http://www.w3.org/2000/svg" version="1.1">
 <metadata>
  <rdf:RDF xmlns:dc="http://purl.org/dc/elements/1.1/" xmlns:cc="http://creativecommons.org/ns#" xmlns:rdf="http://www.w3.org/1999/02/22-rdf-syntax-ns#">
   <cc:Work>
    <dc:type rdf:resource="http://purl.org/dc/dcmitype/StillImage"/>
    <dc:date>2024-04-12T18:07:17.841541</dc:date>
    <dc:format>image/svg+xml</dc:format>
    <dc:creator>
     <cc:Agent>
      <dc:title>Matplotlib v3.8.2, https://matplotlib.org/</dc:title>
     </cc:Agent>
    </dc:creator>
   </cc:Work>
  </rdf:RDF>
 </metadata>
 <defs>
  <style type="text/css">*{stroke-linejoin: round; stroke-linecap: butt}</style>
 </defs>
 <g id="figure_1">
  <g id="patch_1">
   <path d="M 0 288 
L 864 288 
L 864 0 
L 0 0 
z
" style="fill: #ffffff"/>
  </g>
  <g id="axes_1">
   <g id="patch_2">
    <path d="M 108 256.32 
L 777.6 256.32 
L 777.6 34.56 
L 108 34.56 
z
" style="fill: #ffffff"/>
   </g>
   <g id="matplotlib.axis_1">
    <g id="xtick_1">
     <g id="line2d_1">
      <path d="M 108 256.32 
L 108 34.56 
" clip-path="url(#p0c9d4abb97)" style="fill: none; stroke: #b0b0b0; stroke-width: 0.8; stroke-linecap: square"/>
     </g>
     <g id="line2d_2">
      <defs>
       <path id="m86e6e7d493" d="M 0 0 
L 0 3.5 
" style="stroke: #000000; stroke-width: 0.8"/>
      </defs>
      <g>
       <use xlink:href="#m86e6e7d493" x="108" y="256.32" style="stroke: #000000; stroke-width: 0.8"/>
      </g>
     </g>
     <g id="text_1">
      <!-- 100 -->
      <g transform="translate(94.63875 273.957812) scale(0.14 -0.14)">
       <defs>
        <path id="DejaVuSans-31" d="M 794 531 
L 1825 531 
L 1825 4091 
L 703 3866 
L 703 4441 
L 1819 4666 
L 2450 4666 
L 2450 531 
L 3481 531 
L 3481 0 
L 794 0 
L 794 531 
z
" transform="scale(0.015625)"/>
        <path id="DejaVuSans-30" d="M 2034 4250 
Q 1547 4250 1301 3770 
Q 1056 3291 1056 2328 
Q 1056 1369 1301 889 
Q 1547 409 2034 409 
Q 2525 409 2770 889 
Q 3016 1369 3016 2328 
Q 3016 3291 2770 3770 
Q 2525 4250 2034 4250 
z
M 2034 4750 
Q 2819 4750 3233 4129 
Q 3647 3509 3647 2328 
Q 3647 1150 3233 529 
Q 2819 -91 2034 -91 
Q 1250 -91 836 529 
Q 422 1150 422 2328 
Q 422 3509 836 4129 
Q 1250 4750 2034 4750 
z
" transform="scale(0.015625)"/>
       </defs>
       <use xlink:href="#DejaVuSans-31"/>
       <use xlink:href="#DejaVuSans-30" x="63.623047"/>
       <use xlink:href="#DejaVuSans-30" x="127.246094"/>
      </g>
     </g>
    </g>
    <g id="xtick_2">
     <g id="line2d_3">
      <path d="M 241.92 256.32 
L 241.92 34.56 
" clip-path="url(#p0c9d4abb97)" style="fill: none; stroke: #b0b0b0; stroke-width: 0.8; stroke-linecap: square"/>
     </g>
     <g id="line2d_4">
      <g>
       <use xlink:href="#m86e6e7d493" x="241.92" y="256.32" style="stroke: #000000; stroke-width: 0.8"/>
      </g>
     </g>
     <g id="text_2">
      <!-- 120 -->
      <g transform="translate(228.55875 273.957812) scale(0.14 -0.14)">
       <defs>
        <path id="DejaVuSans-32" d="M 1228 531 
L 3431 531 
L 3431 0 
L 469 0 
L 469 531 
Q 828 903 1448 1529 
Q 2069 2156 2228 2338 
Q 2531 2678 2651 2914 
Q 2772 3150 2772 3378 
Q 2772 3750 2511 3984 
Q 2250 4219 1831 4219 
Q 1534 4219 1204 4116 
Q 875 4013 500 3803 
L 500 4441 
Q 881 4594 1212 4672 
Q 1544 4750 1819 4750 
Q 2544 4750 2975 4387 
Q 3406 4025 3406 3419 
Q 3406 3131 3298 2873 
Q 3191 2616 2906 2266 
Q 2828 2175 2409 1742 
Q 1991 1309 1228 531 
z
" transform="scale(0.015625)"/>
       </defs>
       <use xlink:href="#DejaVuSans-31"/>
       <use xlink:href="#DejaVuSans-32" x="63.623047"/>
       <use xlink:href="#DejaVuSans-30" x="127.246094"/>
      </g>
     </g>
    </g>
    <g id="xtick_3">
     <g id="line2d_5">
      <path d="M 375.84 256.32 
L 375.84 34.56 
" clip-path="url(#p0c9d4abb97)" style="fill: none; stroke: #b0b0b0; stroke-width: 0.8; stroke-linecap: square"/>
     </g>
     <g id="line2d_6">
      <g>
       <use xlink:href="#m86e6e7d493" x="375.84" y="256.32" style="stroke: #000000; stroke-width: 0.8"/>
      </g>
     </g>
     <g id="text_3">
      <!-- 140 -->
      <g transform="translate(362.47875 273.957812) scale(0.14 -0.14)">
       <defs>
        <path id="DejaVuSans-34" d="M 2419 4116 
L 825 1625 
L 2419 1625 
L 2419 4116 
z
M 2253 4666 
L 3047 4666 
L 3047 1625 
L 3713 1625 
L 3713 1100 
L 3047 1100 
L 3047 0 
L 2419 0 
L 2419 1100 
L 313 1100 
L 313 1709 
L 2253 4666 
z
" transform="scale(0.015625)"/>
       </defs>
       <use xlink:href="#DejaVuSans-31"/>
       <use xlink:href="#DejaVuSans-34" x="63.623047"/>
       <use xlink:href="#DejaVuSans-30" x="127.246094"/>
      </g>
     </g>
    </g>
    <g id="xtick_4">
     <g id="line2d_7">
      <path d="M 509.76 256.32 
L 509.76 34.56 
" clip-path="url(#p0c9d4abb97)" style="fill: none; stroke: #b0b0b0; stroke-width: 0.8; stroke-linecap: square"/>
     </g>
     <g id="line2d_8">
      <g>
       <use xlink:href="#m86e6e7d493" x="509.76" y="256.32" style="stroke: #000000; stroke-width: 0.8"/>
      </g>
     </g>
     <g id="text_4">
      <!-- 160 -->
      <g transform="translate(496.39875 273.957812) scale(0.14 -0.14)">
       <defs>
        <path id="DejaVuSans-36" d="M 2113 2584 
Q 1688 2584 1439 2293 
Q 1191 2003 1191 1497 
Q 1191 994 1439 701 
Q 1688 409 2113 409 
Q 2538 409 2786 701 
Q 3034 994 3034 1497 
Q 3034 2003 2786 2293 
Q 2538 2584 2113 2584 
z
M 3366 4563 
L 3366 3988 
Q 3128 4100 2886 4159 
Q 2644 4219 2406 4219 
Q 1781 4219 1451 3797 
Q 1122 3375 1075 2522 
Q 1259 2794 1537 2939 
Q 1816 3084 2150 3084 
Q 2853 3084 3261 2657 
Q 3669 2231 3669 1497 
Q 3669 778 3244 343 
Q 2819 -91 2113 -91 
Q 1303 -91 875 529 
Q 447 1150 447 2328 
Q 447 3434 972 4092 
Q 1497 4750 2381 4750 
Q 2619 4750 2861 4703 
Q 3103 4656 3366 4563 
z
" transform="scale(0.015625)"/>
       </defs>
       <use xlink:href="#DejaVuSans-31"/>
       <use xlink:href="#DejaVuSans-36" x="63.623047"/>
       <use xlink:href="#DejaVuSans-30" x="127.246094"/>
      </g>
     </g>
    </g>
    <g id="xtick_5">
     <g id="line2d_9">
      <path d="M 643.68 256.32 
L 643.68 34.56 
" clip-path="url(#p0c9d4abb97)" style="fill: none; stroke: #b0b0b0; stroke-width: 0.8; stroke-linecap: square"/>
     </g>
     <g id="line2d_10">
      <g>
       <use xlink:href="#m86e6e7d493" x="643.68" y="256.32" style="stroke: #000000; stroke-width: 0.8"/>
      </g>
     </g>
     <g id="text_5">
      <!-- 180 -->
      <g transform="translate(630.31875 273.957812) scale(0.14 -0.14)">
       <defs>
        <path id="DejaVuSans-38" d="M 2034 2216 
Q 1584 2216 1326 1975 
Q 1069 1734 1069 1313 
Q 1069 891 1326 650 
Q 1584 409 2034 409 
Q 2484 409 2743 651 
Q 3003 894 3003 1313 
Q 3003 1734 2745 1975 
Q 2488 2216 2034 2216 
z
M 1403 2484 
Q 997 2584 770 2862 
Q 544 3141 544 3541 
Q 544 4100 942 4425 
Q 1341 4750 2034 4750 
Q 2731 4750 3128 4425 
Q 3525 4100 3525 3541 
Q 3525 3141 3298 2862 
Q 3072 2584 2669 2484 
Q 3125 2378 3379 2068 
Q 3634 1759 3634 1313 
Q 3634 634 3220 271 
Q 2806 -91 2034 -91 
Q 1263 -91 848 271 
Q 434 634 434 1313 
Q 434 1759 690 2068 
Q 947 2378 1403 2484 
z
M 1172 3481 
Q 1172 3119 1398 2916 
Q 1625 2713 2034 2713 
Q 2441 2713 2670 2916 
Q 2900 3119 2900 3481 
Q 2900 3844 2670 4047 
Q 2441 4250 2034 4250 
Q 1625 4250 1398 4047 
Q 1172 3844 1172 3481 
z
" transform="scale(0.015625)"/>
       </defs>
       <use xlink:href="#DejaVuSans-31"/>
       <use xlink:href="#DejaVuSans-38" x="63.623047"/>
       <use xlink:href="#DejaVuSans-30" x="127.246094"/>
      </g>
     </g>
    </g>
    <g id="xtick_6">
     <g id="line2d_11">
      <path d="M 777.6 256.32 
L 777.6 34.56 
" clip-path="url(#p0c9d4abb97)" style="fill: none; stroke: #b0b0b0; stroke-width: 0.8; stroke-linecap: square"/>
     </g>
     <g id="line2d_12">
      <g>
       <use xlink:href="#m86e6e7d493" x="777.6" y="256.32" style="stroke: #000000; stroke-width: 0.8"/>
      </g>
     </g>
     <g id="text_6">
      <!-- 200 -->
      <g transform="translate(764.23875 273.957812) scale(0.14 -0.14)">
       <use xlink:href="#DejaVuSans-32"/>
       <use xlink:href="#DejaVuSans-30" x="63.623047"/>
       <use xlink:href="#DejaVuSans-30" x="127.246094"/>
      </g>
     </g>
    </g>
    <g id="text_7">
     <!-- Time (ms) -->
     <g transform="translate(407.521094 291.507187) scale(0.14 -0.14)">
      <defs>
       <path id="DejaVuSans-54" d="M -19 4666 
L 3928 4666 
L 3928 4134 
L 2272 4134 
L 2272 0 
L 1638 0 
L 1638 4134 
L -19 4134 
L -19 4666 
z
" transform="scale(0.015625)"/>
       <path id="DejaVuSans-69" d="M 603 3500 
L 1178 3500 
L 1178 0 
L 603 0 
L 603 3500 
z
M 603 4863 
L 1178 4863 
L 1178 4134 
L 603 4134 
L 603 4863 
z
" transform="scale(0.015625)"/>
       <path id="DejaVuSans-6d" d="M 3328 2828 
Q 3544 3216 3844 3400 
Q 4144 3584 4550 3584 
Q 5097 3584 5394 3201 
Q 5691 2819 5691 2113 
L 5691 0 
L 5113 0 
L 5113 2094 
Q 5113 2597 4934 2840 
Q 4756 3084 4391 3084 
Q 3944 3084 3684 2787 
Q 3425 2491 3425 1978 
L 3425 0 
L 2847 0 
L 2847 2094 
Q 2847 2600 2669 2842 
Q 2491 3084 2119 3084 
Q 1678 3084 1418 2786 
Q 1159 2488 1159 1978 
L 1159 0 
L 581 0 
L 581 3500 
L 1159 3500 
L 1159 2956 
Q 1356 3278 1631 3431 
Q 1906 3584 2284 3584 
Q 2666 3584 2933 3390 
Q 3200 3197 3328 2828 
z
" transform="scale(0.015625)"/>
       <path id="DejaVuSans-65" d="M 3597 1894 
L 3597 1613 
L 953 1613 
Q 991 1019 1311 708 
Q 1631 397 2203 397 
Q 2534 397 2845 478 
Q 3156 559 3463 722 
L 3463 178 
Q 3153 47 2828 -22 
Q 2503 -91 2169 -91 
Q 1331 -91 842 396 
Q 353 884 353 1716 
Q 353 2575 817 3079 
Q 1281 3584 2069 3584 
Q 2775 3584 3186 3129 
Q 3597 2675 3597 1894 
z
M 3022 2063 
Q 3016 2534 2758 2815 
Q 2500 3097 2075 3097 
Q 1594 3097 1305 2825 
Q 1016 2553 972 2059 
L 3022 2063 
z
" transform="scale(0.015625)"/>
       <path id="DejaVuSans-20" transform="scale(0.015625)"/>
       <path id="DejaVuSans-28" d="M 1984 4856 
Q 1566 4138 1362 3434 
Q 1159 2731 1159 2009 
Q 1159 1288 1364 580 
Q 1569 -128 1984 -844 
L 1484 -844 
Q 1016 -109 783 600 
Q 550 1309 550 2009 
Q 550 2706 781 3412 
Q 1013 4119 1484 4856 
L 1984 4856 
z
" transform="scale(0.015625)"/>
       <path id="DejaVuSans-73" d="M 2834 3397 
L 2834 2853 
Q 2591 2978 2328 3040 
Q 2066 3103 1784 3103 
Q 1356 3103 1142 2972 
Q 928 2841 928 2578 
Q 928 2378 1081 2264 
Q 1234 2150 1697 2047 
L 1894 2003 
Q 2506 1872 2764 1633 
Q 3022 1394 3022 966 
Q 3022 478 2636 193 
Q 2250 -91 1575 -91 
Q 1294 -91 989 -36 
Q 684 19 347 128 
L 347 722 
Q 666 556 975 473 
Q 1284 391 1588 391 
Q 1994 391 2212 530 
Q 2431 669 2431 922 
Q 2431 1156 2273 1281 
Q 2116 1406 1581 1522 
L 1381 1569 
Q 847 1681 609 1914 
Q 372 2147 372 2553 
Q 372 3047 722 3315 
Q 1072 3584 1716 3584 
Q 2034 3584 2315 3537 
Q 2597 3491 2834 3397 
z
" transform="scale(0.015625)"/>
       <path id="DejaVuSans-29" d="M 513 4856 
L 1013 4856 
Q 1481 4119 1714 3412 
Q 1947 2706 1947 2009 
Q 1947 1309 1714 600 
Q 1481 -109 1013 -844 
L 513 -844 
Q 928 -128 1133 580 
Q 1338 1288 1338 2009 
Q 1338 2731 1133 3434 
Q 928 4138 513 4856 
z
" transform="scale(0.015625)"/>
      </defs>
      <use xlink:href="#DejaVuSans-54"/>
      <use xlink:href="#DejaVuSans-69" x="57.958984"/>
      <use xlink:href="#DejaVuSans-6d" x="85.742188"/>
      <use xlink:href="#DejaVuSans-65" x="183.154297"/>
      <use xlink:href="#DejaVuSans-20" x="244.677734"/>
      <use xlink:href="#DejaVuSans-28" x="276.464844"/>
      <use xlink:href="#DejaVuSans-6d" x="315.478516"/>
      <use xlink:href="#DejaVuSans-73" x="412.890625"/>
      <use xlink:href="#DejaVuSans-29" x="464.990234"/>
     </g>
    </g>
   </g>
   <g id="matplotlib.axis_2">
    <g id="ytick_1">
     <g id="line2d_13">
      <path d="M 108 225.075285 
L 777.6 225.075285 
" clip-path="url(#p0c9d4abb97)" style="fill: none; stroke: #b0b0b0; stroke-width: 0.8; stroke-linecap: square"/>
     </g>
     <g id="line2d_14">
      <defs>
       <path id="mfe2f36e231" d="M 0 0 
L -3.5 0 
" style="stroke: #000000; stroke-width: 0.8"/>
      </defs>
      <g>
       <use xlink:href="#mfe2f36e231" x="108" y="225.075285" style="stroke: #000000; stroke-width: 0.8"/>
      </g>
     </g>
     <g id="text_8">
      <!-- −60 -->
      <g transform="translate(71.453437 230.394191) scale(0.14 -0.14)">
       <defs>
        <path id="DejaVuSans-2212" d="M 678 2272 
L 4684 2272 
L 4684 1741 
L 678 1741 
L 678 2272 
z
" transform="scale(0.015625)"/>
       </defs>
       <use xlink:href="#DejaVuSans-2212"/>
       <use xlink:href="#DejaVuSans-36" x="83.789062"/>
       <use xlink:href="#DejaVuSans-30" x="147.412109"/>
      </g>
     </g>
    </g>
    <g id="ytick_2">
     <g id="line2d_15">
      <path d="M 108 182.813302 
L 777.6 182.813302 
" clip-path="url(#p0c9d4abb97)" style="fill: none; stroke: #b0b0b0; stroke-width: 0.8; stroke-linecap: square"/>
     </g>
     <g id="line2d_16">
      <g>
       <use xlink:href="#mfe2f36e231" x="108" y="182.813302" style="stroke: #000000; stroke-width: 0.8"/>
      </g>
     </g>
     <g id="text_9">
      <!-- −40 -->
      <g transform="translate(71.453437 188.132208) scale(0.14 -0.14)">
       <use xlink:href="#DejaVuSans-2212"/>
       <use xlink:href="#DejaVuSans-34" x="83.789062"/>
       <use xlink:href="#DejaVuSans-30" x="147.412109"/>
      </g>
     </g>
    </g>
    <g id="ytick_3">
     <g id="line2d_17">
      <path d="M 108 140.551319 
L 777.6 140.551319 
" clip-path="url(#p0c9d4abb97)" style="fill: none; stroke: #b0b0b0; stroke-width: 0.8; stroke-linecap: square"/>
     </g>
     <g id="line2d_18">
      <g>
       <use xlink:href="#mfe2f36e231" x="108" y="140.551319" style="stroke: #000000; stroke-width: 0.8"/>
      </g>
     </g>
     <g id="text_10">
      <!-- −20 -->
      <g transform="translate(71.453437 145.870225) scale(0.14 -0.14)">
       <use xlink:href="#DejaVuSans-2212"/>
       <use xlink:href="#DejaVuSans-32" x="83.789062"/>
       <use xlink:href="#DejaVuSans-30" x="147.412109"/>
      </g>
     </g>
    </g>
    <g id="ytick_4">
     <g id="line2d_19">
      <path d="M 108 98.289336 
L 777.6 98.289336 
" clip-path="url(#p0c9d4abb97)" style="fill: none; stroke: #b0b0b0; stroke-width: 0.8; stroke-linecap: square"/>
     </g>
     <g id="line2d_20">
      <g>
       <use xlink:href="#mfe2f36e231" x="108" y="98.289336" style="stroke: #000000; stroke-width: 0.8"/>
      </g>
     </g>
     <g id="text_11">
      <!-- 0 -->
      <g transform="translate(92.0925 103.608242) scale(0.14 -0.14)">
       <use xlink:href="#DejaVuSans-30"/>
      </g>
     </g>
    </g>
    <g id="ytick_5">
     <g id="line2d_21">
      <path d="M 108 56.027353 
L 777.6 56.027353 
" clip-path="url(#p0c9d4abb97)" style="fill: none; stroke: #b0b0b0; stroke-width: 0.8; stroke-linecap: square"/>
     </g>
     <g id="line2d_22">
      <g>
       <use xlink:href="#mfe2f36e231" x="108" y="56.027353" style="stroke: #000000; stroke-width: 0.8"/>
      </g>
     </g>
     <g id="text_12">
      <!-- 20 -->
      <g transform="translate(83.185 61.346259) scale(0.14 -0.14)">
       <use xlink:href="#DejaVuSans-32"/>
       <use xlink:href="#DejaVuSans-30" x="63.623047"/>
      </g>
     </g>
    </g>
    <g id="text_13">
     <!-- $V_{m}$ (mV) -->
     <g transform="translate(64.541875 174.49) rotate(-90) scale(0.14 -0.14)">
      <defs>
       <path id="DejaVuSans-Oblique-56" d="M 1319 0 
L 500 4666 
L 1119 4666 
L 1797 653 
L 4063 4666 
L 4750 4666 
L 2053 0 
L 1319 0 
z
" transform="scale(0.015625)"/>
       <path id="DejaVuSans-Oblique-6d" d="M 5747 2113 
L 5338 0 
L 4763 0 
L 5166 2094 
Q 5191 2228 5203 2325 
Q 5216 2422 5216 2491 
Q 5216 2772 5059 2928 
Q 4903 3084 4622 3084 
Q 4203 3084 3875 2770 
Q 3547 2456 3450 1953 
L 3066 0 
L 2491 0 
L 2900 2094 
Q 2925 2209 2937 2307 
Q 2950 2406 2950 2484 
Q 2950 2769 2794 2926 
Q 2638 3084 2363 3084 
Q 1938 3084 1609 2770 
Q 1281 2456 1184 1953 
L 800 0 
L 225 0 
L 909 3500 
L 1484 3500 
L 1375 2956 
Q 1609 3263 1923 3423 
Q 2238 3584 2597 3584 
Q 2978 3584 3223 3384 
Q 3469 3184 3519 2828 
Q 3781 3197 4126 3390 
Q 4472 3584 4856 3584 
Q 5306 3584 5551 3325 
Q 5797 3066 5797 2591 
Q 5797 2488 5784 2364 
Q 5772 2241 5747 2113 
z
" transform="scale(0.015625)"/>
       <path id="DejaVuSans-56" d="M 1831 0 
L 50 4666 
L 709 4666 
L 2188 738 
L 3669 4666 
L 4325 4666 
L 2547 0 
L 1831 0 
z
" transform="scale(0.015625)"/>
      </defs>
      <use xlink:href="#DejaVuSans-Oblique-56" transform="translate(0 0.125)"/>
      <use xlink:href="#DejaVuSans-Oblique-6d" transform="translate(68.408203 -16.28125) scale(0.7)"/>
      <use xlink:href="#DejaVuSans-20" transform="translate(139.331055 0.125)"/>
      <use xlink:href="#DejaVuSans-28" transform="translate(171.118164 0.125)"/>
      <use xlink:href="#DejaVuSans-6d" transform="translate(210.131836 0.125)"/>
      <use xlink:href="#DejaVuSans-56" transform="translate(307.543945 0.125)"/>
      <use xlink:href="#DejaVuSans-29" transform="translate(375.952148 0.125)"/>
     </g>
    </g>
   </g>
   <g id="line2d_23">
    <path d="M 108 214.917975 
L 110.0088 214.820358 
L 111.348 214.669107 
L 112.6872 214.765577 
L 114.696 214.771487 
L 116.0352 214.966129 
L 118.044 215.712869 
L 119.3832 216.421876 
L 120.0528 216.599615 
L 121.392 217.326818 
L 122.7312 217.923001 
L 124.0704 218.210568 
L 126.0792 218.409847 
L 128.7576 218.460827 
L 132.1056 218.315629 
L 134.784 218.228173 
L 136.1232 218.427402 
L 137.4624 219.092132 
L 140.8104 219.77217 
L 142.8192 219.842166 
L 144.1584 219.827534 
L 145.4976 219.803482 
L 148.8456 219.540565 
L 150.1848 219.530819 
L 152.8632 219.220685 
L 156.8808 218.513371 
L 162.2376 217.308847 
L 168.9336 215.533453 
L 177.6384 212.970586 
L 199.0656 206.52233 
L 200.4048 206.384841 
L 203.7528 205.674699 
L 205.7616 205.177816 
L 207.7704 205.119922 
L 208.44 205.035418 
L 210.4488 205.176602 
L 212.4576 205.023399 
L 215.8056 204.505927 
L 219.8232 203.654215 
L 223.8408 202.600048 
L 226.5192 201.840524 
L 227.1888 201.778847 
L 229.8672 202.751881 
L 231.876 203.088764 
L 232.5456 203.146039 
L 234.5544 203.867361 
L 235.8936 204.874013 
L 237.2328 206.006062 
L 238.572 206.972575 
L 239.9112 208.027851 
L 241.2504 209.410562 
L 242.5896 210.156972 
L 243.9288 210.614775 
L 244.5984 210.781565 
L 245.9376 211.332559 
L 246.6072 211.511593 
L 248.616 212.517986 
L 250.6248 213.537752 
L 251.964 214.032572 
L 253.9728 214.417464 
L 255.9816 215.487992 
L 257.3208 215.959452 
L 259.3296 216.312914 
L 261.3384 216.638351 
L 262.6776 216.897963 
L 266.0256 217.344897 
L 267.3648 217.735911 
L 269.3736 217.948914 
L 271.3824 218.140916 
L 272.7216 218.322509 
L 275.4 218.366286 
L 276.7392 218.294062 
L 279.4176 217.822895 
L 282.096 217.291743 
L 284.1048 217.234989 
L 287.4528 216.700269 
L 292.14 215.851594 
L 293.4792 215.747459 
L 296.8272 215.118275 
L 302.184 213.839997 
L 309.5496 211.837421 
L 319.5936 208.857438 
L 328.2984 206.062824 
L 332.9856 204.362137 
L 336.3336 202.892304 
L 338.3424 201.749193 
L 339.6816 200.742423 
L 340.3512 200.127589 
L 341.0208 199.315562 
L 341.6904 198.201519 
L 342.36 196.475963 
L 343.0296 192.832497 
L 343.6992 177.974899 
L 344.3688 96.153622 
L 345.0384 51.217565 
L 346.3776 90.925351 
L 347.7168 117.166112 
L 349.7256 149.67657 
L 351.7344 177.942715 
L 353.0736 193.784236 
L 353.7432 199.336663 
L 354.4128 203.107616 
L 355.0824 205.956078 
L 355.752 208.000365 
L 357.0912 210.715756 
L 358.4304 212.536565 
L 359.1 213.337135 
L 359.7696 213.928182 
L 361.1088 214.63567 
L 361.7784 214.840644 
L 363.1176 215.576823 
L 364.4568 216.089549 
L 367.1352 216.424253 
L 368.4744 216.520395 
L 369.8136 216.543269 
L 371.8224 216.279223 
L 372.492 216.155188 
L 373.8312 216.426491 
L 375.1704 217.19721 
L 376.5096 217.415623 
L 378.5184 217.396294 
L 379.188 217.348703 
L 379.8576 217.433526 
L 382.536 218.13654 
L 383.8752 218.435897 
L 385.2144 218.657743 
L 388.5624 219.227584 
L 391.2408 219.329655 
L 392.58 219.698602 
L 394.5888 219.808745 
L 397.9368 219.657653 
L 398.6064 219.601476 
L 401.9544 219.925273 
L 403.9632 220.052393 
L 405.3024 220.299061 
L 406.6416 220.467308 
L 408.6504 220.608622 
L 409.9896 220.738872 
L 411.3288 220.633259 
L 414.6768 219.991519 
L 421.3728 218.502783 
L 427.3992 217.055257 
L 428.7384 216.883928 
L 432.0864 216.10977 
L 438.1128 214.454938 
L 448.8264 211.229722 
L 471.5928 204.124649 
L 472.932 203.660857 
L 475.6104 203.343299 
L 476.9496 203.0577 
L 478.9584 203.077066 
L 480.9672 202.841898 
L 484.3152 202.297557 
L 484.9848 202.317209 
L 486.9936 202.741786 
L 489.0024 202.869846 
L 494.3592 205.820365 
L 495.6984 206.727646 
L 499.0464 208.048748 
L 503.7336 209.018938 
L 504.4032 209.077806 
L 505.7424 209.456002 
L 508.4208 209.863481 
L 511.0992 211.811952 
L 512.4384 212.271496 
L 514.4472 212.792915 
L 515.1168 213.002385 
L 516.456 213.820449 
L 517.1256 214.058917 
L 519.804 216.008312 
L 521.1432 216.504909 
L 523.8216 217.190706 
L 525.8304 218.130475 
L 528.5088 219.146857 
L 530.5176 219.625381 
L 531.8568 219.946281 
L 533.8656 220.173792 
L 537.2136 220.287269 
L 541.2312 220.160869 
L 544.5792 219.869273 
L 547.2576 219.241516 
L 559.3104 216.099401 
L 567.3456 213.680455 
L 580.7376 209.373761 
L 591.4512 205.709646 
L 595.4688 204.142014 
L 598.8168 202.562699 
L 600.156 201.742607 
L 601.4952 200.71497 
L 602.8344 199.443304 
L 603.504 198.594456 
L 604.1736 197.326974 
L 604.8432 194.86011 
L 605.5128 186.677051 
L 606.1824 144.289631 
L 606.852 59.054062 
L 607.5216 66.139566 
L 608.1912 85.662342 
L 609.5304 112.360358 
L 611.5392 145.118341 
L 613.548 173.879279 
L 614.8872 190.941726 
L 615.5568 197.444652 
L 616.2264 202.003087 
L 616.896 205.044431 
L 617.5656 207.152423 
L 618.2352 208.689861 
L 618.9048 209.849794 
L 619.5744 210.738348 
L 620.244 211.4198 
L 621.5832 212.322878 
L 623.592 213.041821 
L 624.9312 213.276542 
L 627.6096 213.758124 
L 628.9488 213.597107 
L 629.6184 213.464479 
L 630.288 213.462073 
L 631.6272 213.882798 
L 632.9664 213.845635 
L 633.636 213.753828 
L 634.9752 213.789341 
L 635.6448 213.721501 
L 636.984 213.787056 
L 637.6536 213.733066 
L 639.6624 214.809103 
L 643.0104 215.529675 
L 644.3496 215.993269 
L 645.6888 216.290304 
L 647.028 216.518913 
L 647.6976 216.559443 
L 649.0368 216.994031 
L 650.376 217.28277 
L 651.0456 217.341766 
L 652.3848 217.656458 
L 653.724 217.912603 
L 655.7328 218.651849 
L 658.4112 219.490765 
L 660.42 220.527441 
L 661.7592 220.847946 
L 663.768 221.086806 
L 666.4464 221.186039 
L 668.4552 221.29085 
L 669.7944 221.419369 
L 672.4728 221.382684 
L 676.4904 221.087041 
L 678.4992 220.83554 
L 681.1776 220.127044 
L 694.5696 216.445687 
L 695.9088 216.242829 
L 699.2568 215.398167 
L 705.9528 213.443171 
L 722.6928 208.240057 
L 735.4152 204.180641 
L 740.1024 202.457074 
L 743.4504 201.015531 
L 744.7896 200.636341 
L 746.1288 200.070362 
L 748.8072 198.465213 
L 749.4768 197.910289 
L 750.1464 197.06048 
L 750.816 195.670368 
L 751.4856 192.777329 
L 752.1552 181.992462 
L 753.4944 69.544378 
L 754.164 73.086592 
L 755.5032 101.316005 
L 757.512 135.836093 
L 759.5208 166.172346 
L 761.5296 192.773108 
L 762.1992 199.379454 
L 762.8688 204.05899 
L 763.5384 207.142751 
L 764.208 209.249277 
L 764.8776 210.780328 
L 766.2168 212.962902 
L 766.8864 213.759987 
L 767.556 214.347582 
L 770.2344 216.008151 
L 771.5736 216.363388 
L 773.5824 216.88155 
L 774.9216 217.003761 
L 777.6 216.825415 
L 777.6 216.825415 
" clip-path="url(#p0c9d4abb97)" style="fill: none; stroke: #000000; stroke-width: 1.5; stroke-linecap: square"/>
   </g>
   <g id="line2d_24">
    <path d="M 108 142.388028 
L 118.044 146.476461 
L 120.0528 147.655058 
L 122.0616 149.032283 
L 126.0792 152.188012 
L 130.7664 156.137309 
L 134.1144 159.249324 
L 136.1232 161.33897 
L 138.132 163.833112 
L 140.1408 166.743931 
L 142.1496 169.97696 
L 142.8192 147.50867 
L 143.4888 142.81694 
L 144.1584 140.312693 
L 144.828 138.936774 
L 145.4976 138.118469 
L 146.1672 137.596275 
L 147.5064 136.951321 
L 156.8808 133.609397 
L 160.2288 132.676544 
L 163.5768 131.991947 
L 167.5944 131.428575 
L 172.2816 131.023991 
L 177.6384 130.786661 
L 184.3344 130.713678 
L 192.3696 130.846278 
L 200.4048 131.178897 
L 209.1096 131.940957 
L 224.5104 133.842616 
L 228.528 134.30815 
L 231.876 135.096599 
L 235.224 136.023038 
L 237.2328 136.792982 
L 240.5808 138.405168 
L 253.3032 145.53142 
L 255.9816 147.242344 
L 259.9992 150.177141 
L 263.3472 152.800518 
L 266.0256 155.11434 
L 268.0344 157.086698 
L 270.7128 160.03468 
L 272.7216 162.495824 
L 275.4 166.150688 
L 276.0696 167.117511 
L 276.7392 145.889487 
L 277.4088 141.677421 
L 278.0784 139.38849 
L 278.748 138.128277 
L 279.4176 137.376043 
L 280.0872 136.891497 
L 281.4264 136.277967 
L 292.14 132.547224 
L 294.8184 131.921367 
L 298.836 131.247937 
L 302.8536 130.799334 
L 308.2104 130.453514 
L 314.2368 130.295797 
L 322.272 130.324785 
L 341.0208 130.579193 
L 342.36 130.395005 
L 343.0296 130.172312 
L 343.6992 129.508896 
L 344.3688 126.403486 
L 345.708 115.806872 
L 346.3776 112.326844 
L 347.0472 110.545373 
L 347.7168 110.04321 
L 348.3864 110.409166 
L 349.056 111.347127 
L 349.7256 112.661822 
L 351.0648 115.955848 
L 355.0824 127.031795 
L 356.4216 129.830205 
L 357.7608 132.007994 
L 359.1 133.726986 
L 360.4392 135.126965 
L 361.7784 136.274183 
L 363.7872 137.695213 
L 365.796 138.890426 
L 368.4744 140.20451 
L 371.8224 141.57881 
L 375.1704 142.859889 
L 383.2056 146.626935 
L 386.5536 148.527021 
L 390.5712 151.11209 
L 393.2496 153.031139 
L 396.5976 155.76784 
L 399.9456 158.798697 
L 401.9544 160.892999 
L 403.9632 163.260538 
L 405.972 165.946669 
L 408.6504 170.026822 
L 409.9896 172.239691 
L 410.6592 148.775672 
L 411.3288 143.662399 
L 411.9984 140.954972 
L 412.668 139.448211 
L 413.3376 138.532263 
L 414.0072 137.932101 
L 415.3464 137.16854 
L 421.3728 134.653375 
L 424.7208 133.383614 
L 427.3992 132.573665 
L 430.0776 131.990614 
L 434.0952 131.371993 
L 438.7824 130.90938 
L 444.1392 130.622219 
L 450.8352 130.505274 
L 458.8704 130.601183 
L 468.9144 130.957187 
L 476.28 131.379385 
L 480.9672 131.896948 
L 487.6632 132.80875 
L 491.0112 133.526645 
L 493.6896 134.341253 
L 498.3768 136.066373 
L 503.7336 137.940736 
L 509.76 140.065736 
L 512.4384 141.364384 
L 517.7952 144.153642 
L 519.804 145.463796 
L 525.8304 149.85847 
L 528.5088 152.177646 
L 531.1872 154.758155 
L 533.8656 157.639483 
L 536.544 160.819234 
L 539.2224 164.342018 
L 541.9008 168.226839 
L 543.9096 171.337518 
L 544.5792 148.220542 
L 545.2488 143.263055 
L 545.9184 140.613864 
L 546.588 139.133956 
L 547.2576 138.23033 
L 547.9272 137.634544 
L 549.2664 136.867916 
L 555.2928 134.319199 
L 558.6408 133.0418 
L 561.3192 132.223977 
L 564.6672 131.447915 
L 568.0152 130.891279 
L 572.0328 130.436009 
L 577.3896 130.078368 
L 584.0856 129.891082 
L 592.7904 129.893008 
L 601.4952 129.872348 
L 604.1736 129.643199 
L 604.8432 129.488746 
L 605.5128 129.098905 
L 606.1824 127.472038 
L 606.852 122.961349 
L 607.5216 117.667725 
L 608.1912 113.58745 
L 608.8608 111.179495 
L 609.5304 110.168456 
L 610.2 110.153212 
L 610.8696 110.811046 
L 611.5392 111.918527 
L 612.8784 114.934826 
L 614.8872 120.407634 
L 616.896 125.8068 
L 618.2352 128.633038 
L 619.5744 130.779882 
L 620.9136 132.406079 
L 622.2528 133.659769 
L 623.592 134.649479 
L 625.6008 135.81987 
L 628.2792 137.050074 
L 630.9576 137.986921 
L 636.3144 139.690425 
L 639.6624 140.791479 
L 644.3496 142.756622 
L 649.7064 145.291755 
L 653.724 147.466401 
L 656.4024 149.155632 
L 659.0808 151.111129 
L 661.0896 152.864543 
L 664.4376 156.144095 
L 667.7856 159.777211 
L 669.7944 162.23252 
L 672.4728 165.92414 
L 675.1512 170.012512 
L 677.8296 174.358891 
L 678.4992 149.977228 
L 679.1688 144.404027 
L 679.8384 141.477612 
L 680.508 139.830503 
L 681.1776 138.812442 
L 681.8472 138.133085 
L 683.1864 137.253048 
L 685.8648 136.003769 
L 691.2216 133.685979 
L 693.9 132.752613 
L 696.5784 132.055971 
L 699.9264 131.430105 
L 703.944 130.904514 
L 708.6312 130.520797 
L 714.6576 130.27744 
L 722.0232 130.233431 
L 730.728 130.414061 
L 750.1464 130.938053 
L 751.4856 130.724193 
L 752.1552 130.24237 
L 752.8248 128.122533 
L 754.8336 114.595333 
L 755.5032 112.219304 
L 756.1728 111.173742 
L 756.8424 111.120455 
L 757.512 111.765741 
L 758.1816 112.890731 
L 759.5208 116.014846 
L 761.5296 121.792046 
L 763.5384 127.631471 
L 764.8776 130.768042 
L 766.2168 133.210464 
L 767.556 135.129906 
L 768.8952 136.665949 
L 770.904 138.518584 
L 772.9128 140.01101 
L 775.5912 141.65618 
L 777.6 142.676404 
L 777.6 142.676404 
" clip-path="url(#p0c9d4abb97)" style="fill: none; stroke: #4169e1; stroke-width: 1.5; stroke-linecap: square"/>
   </g>
   <g id="patch_3">
    <path d="M 108 256.32 
L 108 34.56 
" style="fill: none; stroke: #000000; stroke-width: 0.8; stroke-linejoin: miter; stroke-linecap: square"/>
   </g>
   <g id="patch_4">
    <path d="M 777.6 256.32 
L 777.6 34.56 
" style="fill: none; stroke: #000000; stroke-width: 0.8; stroke-linejoin: miter; stroke-linecap: square"/>
   </g>
   <g id="patch_5">
    <path d="M 108 256.32 
L 777.6 256.32 
" style="fill: none; stroke: #000000; stroke-width: 0.8; stroke-linejoin: miter; stroke-linecap: square"/>
   </g>
   <g id="patch_6">
    <path d="M 108 34.56 
L 777.6 34.56 
" style="fill: none; stroke: #000000; stroke-width: 0.8; stroke-linejoin: miter; stroke-linecap: square"/>
   </g>
   <g id="legend_1">
    <g id="patch_7">
     <path d="M 115 71.91625 
L 190.501563 71.91625 
Q 192.501563 71.91625 192.501563 69.91625 
L 192.501563 41.56 
Q 192.501563 39.56 190.501563 39.56 
L 115 39.56 
Q 113 39.56 113 41.56 
L 113 69.91625 
Q 113 71.91625 115 71.91625 
z
" style="fill: #ffffff; opacity: 0.8; stroke: #cccccc; stroke-linejoin: miter"/>
    </g>
    <g id="line2d_25">
     <path d="M 117 47.658437 
L 127 47.658437 
L 137 47.658437 
" style="fill: none; stroke: #000000; stroke-width: 1.5; stroke-linecap: square"/>
    </g>
    <g id="text_14">
     <!-- Soma -->
     <g transform="translate(145 51.158437) scale(0.1 -0.1)">
      <defs>
       <path id="DejaVuSans-53" d="M 3425 4513 
L 3425 3897 
Q 3066 4069 2747 4153 
Q 2428 4238 2131 4238 
Q 1616 4238 1336 4038 
Q 1056 3838 1056 3469 
Q 1056 3159 1242 3001 
Q 1428 2844 1947 2747 
L 2328 2669 
Q 3034 2534 3370 2195 
Q 3706 1856 3706 1288 
Q 3706 609 3251 259 
Q 2797 -91 1919 -91 
Q 1588 -91 1214 -16 
Q 841 59 441 206 
L 441 856 
Q 825 641 1194 531 
Q 1563 422 1919 422 
Q 2459 422 2753 634 
Q 3047 847 3047 1241 
Q 3047 1584 2836 1778 
Q 2625 1972 2144 2069 
L 1759 2144 
Q 1053 2284 737 2584 
Q 422 2884 422 3419 
Q 422 4038 858 4394 
Q 1294 4750 2059 4750 
Q 2388 4750 2728 4690 
Q 3069 4631 3425 4513 
z
" transform="scale(0.015625)"/>
       <path id="DejaVuSans-6f" d="M 1959 3097 
Q 1497 3097 1228 2736 
Q 959 2375 959 1747 
Q 959 1119 1226 758 
Q 1494 397 1959 397 
Q 2419 397 2687 759 
Q 2956 1122 2956 1747 
Q 2956 2369 2687 2733 
Q 2419 3097 1959 3097 
z
M 1959 3584 
Q 2709 3584 3137 3096 
Q 3566 2609 3566 1747 
Q 3566 888 3137 398 
Q 2709 -91 1959 -91 
Q 1206 -91 779 398 
Q 353 888 353 1747 
Q 353 2609 779 3096 
Q 1206 3584 1959 3584 
z
" transform="scale(0.015625)"/>
       <path id="DejaVuSans-61" d="M 2194 1759 
Q 1497 1759 1228 1600 
Q 959 1441 959 1056 
Q 959 750 1161 570 
Q 1363 391 1709 391 
Q 2188 391 2477 730 
Q 2766 1069 2766 1631 
L 2766 1759 
L 2194 1759 
z
M 3341 1997 
L 3341 0 
L 2766 0 
L 2766 531 
Q 2569 213 2275 61 
Q 1981 -91 1556 -91 
Q 1019 -91 701 211 
Q 384 513 384 1019 
Q 384 1609 779 1909 
Q 1175 2209 1959 2209 
L 2766 2209 
L 2766 2266 
Q 2766 2663 2505 2880 
Q 2244 3097 1772 3097 
Q 1472 3097 1187 3025 
Q 903 2953 641 2809 
L 641 3341 
Q 956 3463 1253 3523 
Q 1550 3584 1831 3584 
Q 2591 3584 2966 3190 
Q 3341 2797 3341 1997 
z
" transform="scale(0.015625)"/>
      </defs>
      <use xlink:href="#DejaVuSans-53"/>
      <use xlink:href="#DejaVuSans-6f" x="63.476562"/>
      <use xlink:href="#DejaVuSans-6d" x="124.658203"/>
      <use xlink:href="#DejaVuSans-61" x="222.070312"/>
     </g>
    </g>
    <g id="line2d_26">
     <path d="M 117 62.336562 
L 127 62.336562 
L 137 62.336562 
" style="fill: none; stroke: #4169e1; stroke-width: 1.5; stroke-linecap: square"/>
    </g>
    <g id="text_15">
     <!-- Dendrite -->
     <g transform="translate(145 65.836562) scale(0.1 -0.1)">
      <defs>
       <path id="DejaVuSans-44" d="M 1259 4147 
L 1259 519 
L 2022 519 
Q 2988 519 3436 956 
Q 3884 1394 3884 2338 
Q 3884 3275 3436 3711 
Q 2988 4147 2022 4147 
L 1259 4147 
z
M 628 4666 
L 1925 4666 
Q 3281 4666 3915 4102 
Q 4550 3538 4550 2338 
Q 4550 1131 3912 565 
Q 3275 0 1925 0 
L 628 0 
L 628 4666 
z
" transform="scale(0.015625)"/>
       <path id="DejaVuSans-6e" d="M 3513 2113 
L 3513 0 
L 2938 0 
L 2938 2094 
Q 2938 2591 2744 2837 
Q 2550 3084 2163 3084 
Q 1697 3084 1428 2787 
Q 1159 2491 1159 1978 
L 1159 0 
L 581 0 
L 581 3500 
L 1159 3500 
L 1159 2956 
Q 1366 3272 1645 3428 
Q 1925 3584 2291 3584 
Q 2894 3584 3203 3211 
Q 3513 2838 3513 2113 
z
" transform="scale(0.015625)"/>
       <path id="DejaVuSans-64" d="M 2906 2969 
L 2906 4863 
L 3481 4863 
L 3481 0 
L 2906 0 
L 2906 525 
Q 2725 213 2448 61 
Q 2172 -91 1784 -91 
Q 1150 -91 751 415 
Q 353 922 353 1747 
Q 353 2572 751 3078 
Q 1150 3584 1784 3584 
Q 2172 3584 2448 3432 
Q 2725 3281 2906 2969 
z
M 947 1747 
Q 947 1113 1208 752 
Q 1469 391 1925 391 
Q 2381 391 2643 752 
Q 2906 1113 2906 1747 
Q 2906 2381 2643 2742 
Q 2381 3103 1925 3103 
Q 1469 3103 1208 2742 
Q 947 2381 947 1747 
z
" transform="scale(0.015625)"/>
       <path id="DejaVuSans-72" d="M 2631 2963 
Q 2534 3019 2420 3045 
Q 2306 3072 2169 3072 
Q 1681 3072 1420 2755 
Q 1159 2438 1159 1844 
L 1159 0 
L 581 0 
L 581 3500 
L 1159 3500 
L 1159 2956 
Q 1341 3275 1631 3429 
Q 1922 3584 2338 3584 
Q 2397 3584 2469 3576 
Q 2541 3569 2628 3553 
L 2631 2963 
z
" transform="scale(0.015625)"/>
       <path id="DejaVuSans-74" d="M 1172 4494 
L 1172 3500 
L 2356 3500 
L 2356 3053 
L 1172 3053 
L 1172 1153 
Q 1172 725 1289 603 
Q 1406 481 1766 481 
L 2356 481 
L 2356 0 
L 1766 0 
Q 1100 0 847 248 
Q 594 497 594 1153 
L 594 3053 
L 172 3053 
L 172 3500 
L 594 3500 
L 594 4494 
L 1172 4494 
z
" transform="scale(0.015625)"/>
      </defs>
      <use xlink:href="#DejaVuSans-44"/>
      <use xlink:href="#DejaVuSans-65" x="77.001953"/>
      <use xlink:href="#DejaVuSans-6e" x="138.525391"/>
      <use xlink:href="#DejaVuSans-64" x="201.904297"/>
      <use xlink:href="#DejaVuSans-72" x="265.380859"/>
      <use xlink:href="#DejaVuSans-69" x="306.494141"/>
      <use xlink:href="#DejaVuSans-74" x="334.277344"/>
      <use xlink:href="#DejaVuSans-65" x="373.486328"/>
     </g>
    </g>
   </g>
  </g>
 </g>
 <defs>
  <clipPath id="p0c9d4abb97">
   <rect x="108" y="34.56" width="669.6" height="221.76"/>
  </clipPath>
 </defs>
</svg>
