<?xml version="1.0" encoding="utf-8" standalone="no"?>
<!DOCTYPE svg PUBLIC "-//W3C//DTD SVG 1.1//EN"
  "http://www.w3.org/Graphics/SVG/1.1/DTD/svg11.dtd">
<svg xmlns:xlink="http://www.w3.org/1999/xlink" width="864pt" height="288pt" viewBox="0 0 864 288" xmlns="http://www.w3.org/2000/svg" version="1.1">
 <metadata>
  <rdf:RDF xmlns:dc="http://purl.org/dc/elements/1.1/" xmlns:cc="http://creativecommons.org/ns#" xmlns:rdf="http://www.w3.org/1999/02/22-rdf-syntax-ns#">
   <cc:Work>
    <dc:type rdf:resource="http://purl.org/dc/dcmitype/StillImage"/>
    <dc:date>2024-04-12T18:06:40.332829</dc:date>
    <dc:format>image/svg+xml</dc:format>
    <dc:creator>
     <cc:Agent>
      <dc:title>Matplotlib v3.8.2, https://matplotlib.org/</dc:title>
     </cc:Agent>
    </dc:creator>
   </cc:Work>
  </rdf:RDF>
 </metadata>
 <defs>
  <style type="text/css">*{stroke-linejoin: round; stroke-linecap: butt}</style>
 </defs>
 <g id="figure_1">
  <g id="patch_1">
   <path d="M 0 288 
L 864 288 
L 864 0 
L 0 0 
z
" style="fill: #ffffff"/>
  </g>
  <g id="axes_1">
   <g id="patch_2">
    <path d="M 108 256.32 
L 777.6 256.32 
L 777.6 34.56 
L 108 34.56 
z
" style="fill: #ffffff"/>
   </g>
   <g id="matplotlib.axis_1">
    <g id="xtick_1">
     <g id="line2d_1">
      <path d="M 108 256.32 
L 108 34.56 
" clip-path="url(#pafe69e403b)" style="fill: none; stroke: #b0b0b0; stroke-width: 0.8; stroke-linecap: square"/>
     </g>
     <g id="line2d_2">
      <defs>
       <path id="m58e99c8f3f" d="M 0 0 
L 0 3.5 
" style="stroke: #000000; stroke-width: 0.8"/>
      </defs>
      <g>
       <use xlink:href="#m58e99c8f3f" x="108" y="256.32" style="stroke: #000000; stroke-width: 0.8"/>
      </g>
     </g>
     <g id="text_1">
      <!-- 100 -->
      <g transform="translate(94.63875 273.957812) scale(0.14 -0.14)">
       <defs>
        <path id="DejaVuSans-31" d="M 794 531 
L 1825 531 
L 1825 4091 
L 703 3866 
L 703 4441 
L 1819 4666 
L 2450 4666 
L 2450 531 
L 3481 531 
L 3481 0 
L 794 0 
L 794 531 
z
" transform="scale(0.015625)"/>
        <path id="DejaVuSans-30" d="M 2034 4250 
Q 1547 4250 1301 3770 
Q 1056 3291 1056 2328 
Q 1056 1369 1301 889 
Q 1547 409 2034 409 
Q 2525 409 2770 889 
Q 3016 1369 3016 2328 
Q 3016 3291 2770 3770 
Q 2525 4250 2034 4250 
z
M 2034 4750 
Q 2819 4750 3233 4129 
Q 3647 3509 3647 2328 
Q 3647 1150 3233 529 
Q 2819 -91 2034 -91 
Q 1250 -91 836 529 
Q 422 1150 422 2328 
Q 422 3509 836 4129 
Q 1250 4750 2034 4750 
z
" transform="scale(0.015625)"/>
       </defs>
       <use xlink:href="#DejaVuSans-31"/>
       <use xlink:href="#DejaVuSans-30" x="63.623047"/>
       <use xlink:href="#DejaVuSans-30" x="127.246094"/>
      </g>
     </g>
    </g>
    <g id="xtick_2">
     <g id="line2d_3">
      <path d="M 241.92 256.32 
L 241.92 34.56 
" clip-path="url(#pafe69e403b)" style="fill: none; stroke: #b0b0b0; stroke-width: 0.8; stroke-linecap: square"/>
     </g>
     <g id="line2d_4">
      <g>
       <use xlink:href="#m58e99c8f3f" x="241.92" y="256.32" style="stroke: #000000; stroke-width: 0.8"/>
      </g>
     </g>
     <g id="text_2">
      <!-- 120 -->
      <g transform="translate(228.55875 273.957812) scale(0.14 -0.14)">
       <defs>
        <path id="DejaVuSans-32" d="M 1228 531 
L 3431 531 
L 3431 0 
L 469 0 
L 469 531 
Q 828 903 1448 1529 
Q 2069 2156 2228 2338 
Q 2531 2678 2651 2914 
Q 2772 3150 2772 3378 
Q 2772 3750 2511 3984 
Q 2250 4219 1831 4219 
Q 1534 4219 1204 4116 
Q 875 4013 500 3803 
L 500 4441 
Q 881 4594 1212 4672 
Q 1544 4750 1819 4750 
Q 2544 4750 2975 4387 
Q 3406 4025 3406 3419 
Q 3406 3131 3298 2873 
Q 3191 2616 2906 2266 
Q 2828 2175 2409 1742 
Q 1991 1309 1228 531 
z
" transform="scale(0.015625)"/>
       </defs>
       <use xlink:href="#DejaVuSans-31"/>
       <use xlink:href="#DejaVuSans-32" x="63.623047"/>
       <use xlink:href="#DejaVuSans-30" x="127.246094"/>
      </g>
     </g>
    </g>
    <g id="xtick_3">
     <g id="line2d_5">
      <path d="M 375.84 256.32 
L 375.84 34.56 
" clip-path="url(#pafe69e403b)" style="fill: none; stroke: #b0b0b0; stroke-width: 0.8; stroke-linecap: square"/>
     </g>
     <g id="line2d_6">
      <g>
       <use xlink:href="#m58e99c8f3f" x="375.84" y="256.32" style="stroke: #000000; stroke-width: 0.8"/>
      </g>
     </g>
     <g id="text_3">
      <!-- 140 -->
      <g transform="translate(362.47875 273.957812) scale(0.14 -0.14)">
       <defs>
        <path id="DejaVuSans-34" d="M 2419 4116 
L 825 1625 
L 2419 1625 
L 2419 4116 
z
M 2253 4666 
L 3047 4666 
L 3047 1625 
L 3713 1625 
L 3713 1100 
L 3047 1100 
L 3047 0 
L 2419 0 
L 2419 1100 
L 313 1100 
L 313 1709 
L 2253 4666 
z
" transform="scale(0.015625)"/>
       </defs>
       <use xlink:href="#DejaVuSans-31"/>
       <use xlink:href="#DejaVuSans-34" x="63.623047"/>
       <use xlink:href="#DejaVuSans-30" x="127.246094"/>
      </g>
     </g>
    </g>
    <g id="xtick_4">
     <g id="line2d_7">
      <path d="M 509.76 256.32 
L 509.76 34.56 
" clip-path="url(#pafe69e403b)" style="fill: none; stroke: #b0b0b0; stroke-width: 0.8; stroke-linecap: square"/>
     </g>
     <g id="line2d_8">
      <g>
       <use xlink:href="#m58e99c8f3f" x="509.76" y="256.32" style="stroke: #000000; stroke-width: 0.8"/>
      </g>
     </g>
     <g id="text_4">
      <!-- 160 -->
      <g transform="translate(496.39875 273.957812) scale(0.14 -0.14)">
       <defs>
        <path id="DejaVuSans-36" d="M 2113 2584 
Q 1688 2584 1439 2293 
Q 1191 2003 1191 1497 
Q 1191 994 1439 701 
Q 1688 409 2113 409 
Q 2538 409 2786 701 
Q 3034 994 3034 1497 
Q 3034 2003 2786 2293 
Q 2538 2584 2113 2584 
z
M 3366 4563 
L 3366 3988 
Q 3128 4100 2886 4159 
Q 2644 4219 2406 4219 
Q 1781 4219 1451 3797 
Q 1122 3375 1075 2522 
Q 1259 2794 1537 2939 
Q 1816 3084 2150 3084 
Q 2853 3084 3261 2657 
Q 3669 2231 3669 1497 
Q 3669 778 3244 343 
Q 2819 -91 2113 -91 
Q 1303 -91 875 529 
Q 447 1150 447 2328 
Q 447 3434 972 4092 
Q 1497 4750 2381 4750 
Q 2619 4750 2861 4703 
Q 3103 4656 3366 4563 
z
" transform="scale(0.015625)"/>
       </defs>
       <use xlink:href="#DejaVuSans-31"/>
       <use xlink:href="#DejaVuSans-36" x="63.623047"/>
       <use xlink:href="#DejaVuSans-30" x="127.246094"/>
      </g>
     </g>
    </g>
    <g id="xtick_5">
     <g id="line2d_9">
      <path d="M 643.68 256.32 
L 643.68 34.56 
" clip-path="url(#pafe69e403b)" style="fill: none; stroke: #b0b0b0; stroke-width: 0.8; stroke-linecap: square"/>
     </g>
     <g id="line2d_10">
      <g>
       <use xlink:href="#m58e99c8f3f" x="643.68" y="256.32" style="stroke: #000000; stroke-width: 0.8"/>
      </g>
     </g>
     <g id="text_5">
      <!-- 180 -->
      <g transform="translate(630.31875 273.957812) scale(0.14 -0.14)">
       <defs>
        <path id="DejaVuSans-38" d="M 2034 2216 
Q 1584 2216 1326 1975 
Q 1069 1734 1069 1313 
Q 1069 891 1326 650 
Q 1584 409 2034 409 
Q 2484 409 2743 651 
Q 3003 894 3003 1313 
Q 3003 1734 2745 1975 
Q 2488 2216 2034 2216 
z
M 1403 2484 
Q 997 2584 770 2862 
Q 544 3141 544 3541 
Q 544 4100 942 4425 
Q 1341 4750 2034 4750 
Q 2731 4750 3128 4425 
Q 3525 4100 3525 3541 
Q 3525 3141 3298 2862 
Q 3072 2584 2669 2484 
Q 3125 2378 3379 2068 
Q 3634 1759 3634 1313 
Q 3634 634 3220 271 
Q 2806 -91 2034 -91 
Q 1263 -91 848 271 
Q 434 634 434 1313 
Q 434 1759 690 2068 
Q 947 2378 1403 2484 
z
M 1172 3481 
Q 1172 3119 1398 2916 
Q 1625 2713 2034 2713 
Q 2441 2713 2670 2916 
Q 2900 3119 2900 3481 
Q 2900 3844 2670 4047 
Q 2441 4250 2034 4250 
Q 1625 4250 1398 4047 
Q 1172 3844 1172 3481 
z
" transform="scale(0.015625)"/>
       </defs>
       <use xlink:href="#DejaVuSans-31"/>
       <use xlink:href="#DejaVuSans-38" x="63.623047"/>
       <use xlink:href="#DejaVuSans-30" x="127.246094"/>
      </g>
     </g>
    </g>
    <g id="xtick_6">
     <g id="line2d_11">
      <path d="M 777.6 256.32 
L 777.6 34.56 
" clip-path="url(#pafe69e403b)" style="fill: none; stroke: #b0b0b0; stroke-width: 0.8; stroke-linecap: square"/>
     </g>
     <g id="line2d_12">
      <g>
       <use xlink:href="#m58e99c8f3f" x="777.6" y="256.32" style="stroke: #000000; stroke-width: 0.8"/>
      </g>
     </g>
     <g id="text_6">
      <!-- 200 -->
      <g transform="translate(764.23875 273.957812) scale(0.14 -0.14)">
       <use xlink:href="#DejaVuSans-32"/>
       <use xlink:href="#DejaVuSans-30" x="63.623047"/>
       <use xlink:href="#DejaVuSans-30" x="127.246094"/>
      </g>
     </g>
    </g>
    <g id="text_7">
     <!-- Time (ms) -->
     <g transform="translate(407.521094 291.507187) scale(0.14 -0.14)">
      <defs>
       <path id="DejaVuSans-54" d="M -19 4666 
L 3928 4666 
L 3928 4134 
L 2272 4134 
L 2272 0 
L 1638 0 
L 1638 4134 
L -19 4134 
L -19 4666 
z
" transform="scale(0.015625)"/>
       <path id="DejaVuSans-69" d="M 603 3500 
L 1178 3500 
L 1178 0 
L 603 0 
L 603 3500 
z
M 603 4863 
L 1178 4863 
L 1178 4134 
L 603 4134 
L 603 4863 
z
" transform="scale(0.015625)"/>
       <path id="DejaVuSans-6d" d="M 3328 2828 
Q 3544 3216 3844 3400 
Q 4144 3584 4550 3584 
Q 5097 3584 5394 3201 
Q 5691 2819 5691 2113 
L 5691 0 
L 5113 0 
L 5113 2094 
Q 5113 2597 4934 2840 
Q 4756 3084 4391 3084 
Q 3944 3084 3684 2787 
Q 3425 2491 3425 1978 
L 3425 0 
L 2847 0 
L 2847 2094 
Q 2847 2600 2669 2842 
Q 2491 3084 2119 3084 
Q 1678 3084 1418 2786 
Q 1159 2488 1159 1978 
L 1159 0 
L 581 0 
L 581 3500 
L 1159 3500 
L 1159 2956 
Q 1356 3278 1631 3431 
Q 1906 3584 2284 3584 
Q 2666 3584 2933 3390 
Q 3200 3197 3328 2828 
z
" transform="scale(0.015625)"/>
       <path id="DejaVuSans-65" d="M 3597 1894 
L 3597 1613 
L 953 1613 
Q 991 1019 1311 708 
Q 1631 397 2203 397 
Q 2534 397 2845 478 
Q 3156 559 3463 722 
L 3463 178 
Q 3153 47 2828 -22 
Q 2503 -91 2169 -91 
Q 1331 -91 842 396 
Q 353 884 353 1716 
Q 353 2575 817 3079 
Q 1281 3584 2069 3584 
Q 2775 3584 3186 3129 
Q 3597 2675 3597 1894 
z
M 3022 2063 
Q 3016 2534 2758 2815 
Q 2500 3097 2075 3097 
Q 1594 3097 1305 2825 
Q 1016 2553 972 2059 
L 3022 2063 
z
" transform="scale(0.015625)"/>
       <path id="DejaVuSans-20" transform="scale(0.015625)"/>
       <path id="DejaVuSans-28" d="M 1984 4856 
Q 1566 4138 1362 3434 
Q 1159 2731 1159 2009 
Q 1159 1288 1364 580 
Q 1569 -128 1984 -844 
L 1484 -844 
Q 1016 -109 783 600 
Q 550 1309 550 2009 
Q 550 2706 781 3412 
Q 1013 4119 1484 4856 
L 1984 4856 
z
" transform="scale(0.015625)"/>
       <path id="DejaVuSans-73" d="M 2834 3397 
L 2834 2853 
Q 2591 2978 2328 3040 
Q 2066 3103 1784 3103 
Q 1356 3103 1142 2972 
Q 928 2841 928 2578 
Q 928 2378 1081 2264 
Q 1234 2150 1697 2047 
L 1894 2003 
Q 2506 1872 2764 1633 
Q 3022 1394 3022 966 
Q 3022 478 2636 193 
Q 2250 -91 1575 -91 
Q 1294 -91 989 -36 
Q 684 19 347 128 
L 347 722 
Q 666 556 975 473 
Q 1284 391 1588 391 
Q 1994 391 2212 530 
Q 2431 669 2431 922 
Q 2431 1156 2273 1281 
Q 2116 1406 1581 1522 
L 1381 1569 
Q 847 1681 609 1914 
Q 372 2147 372 2553 
Q 372 3047 722 3315 
Q 1072 3584 1716 3584 
Q 2034 3584 2315 3537 
Q 2597 3491 2834 3397 
z
" transform="scale(0.015625)"/>
       <path id="DejaVuSans-29" d="M 513 4856 
L 1013 4856 
Q 1481 4119 1714 3412 
Q 1947 2706 1947 2009 
Q 1947 1309 1714 600 
Q 1481 -109 1013 -844 
L 513 -844 
Q 928 -128 1133 580 
Q 1338 1288 1338 2009 
Q 1338 2731 1133 3434 
Q 928 4138 513 4856 
z
" transform="scale(0.015625)"/>
      </defs>
      <use xlink:href="#DejaVuSans-54"/>
      <use xlink:href="#DejaVuSans-69" x="57.958984"/>
      <use xlink:href="#DejaVuSans-6d" x="85.742188"/>
      <use xlink:href="#DejaVuSans-65" x="183.154297"/>
      <use xlink:href="#DejaVuSans-20" x="244.677734"/>
      <use xlink:href="#DejaVuSans-28" x="276.464844"/>
      <use xlink:href="#DejaVuSans-6d" x="315.478516"/>
      <use xlink:href="#DejaVuSans-73" x="412.890625"/>
      <use xlink:href="#DejaVuSans-29" x="464.990234"/>
     </g>
    </g>
   </g>
   <g id="matplotlib.axis_2">
    <g id="ytick_1">
     <g id="line2d_13">
      <path d="M 108 225.037735 
L 777.6 225.037735 
" clip-path="url(#pafe69e403b)" style="fill: none; stroke: #b0b0b0; stroke-width: 0.8; stroke-linecap: square"/>
     </g>
     <g id="line2d_14">
      <defs>
       <path id="mbdd6a3ba36" d="M 0 0 
L -3.5 0 
" style="stroke: #000000; stroke-width: 0.8"/>
      </defs>
      <g>
       <use xlink:href="#mbdd6a3ba36" x="108" y="225.037735" style="stroke: #000000; stroke-width: 0.8"/>
      </g>
     </g>
     <g id="text_8">
      <!-- −60 -->
      <g transform="translate(71.453437 230.356641) scale(0.14 -0.14)">
       <defs>
        <path id="DejaVuSans-2212" d="M 678 2272 
L 4684 2272 
L 4684 1741 
L 678 1741 
L 678 2272 
z
" transform="scale(0.015625)"/>
       </defs>
       <use xlink:href="#DejaVuSans-2212"/>
       <use xlink:href="#DejaVuSans-36" x="83.789062"/>
       <use xlink:href="#DejaVuSans-30" x="147.412109"/>
      </g>
     </g>
    </g>
    <g id="ytick_2">
     <g id="line2d_15">
      <path d="M 108 182.700772 
L 777.6 182.700772 
" clip-path="url(#pafe69e403b)" style="fill: none; stroke: #b0b0b0; stroke-width: 0.8; stroke-linecap: square"/>
     </g>
     <g id="line2d_16">
      <g>
       <use xlink:href="#mbdd6a3ba36" x="108" y="182.700772" style="stroke: #000000; stroke-width: 0.8"/>
      </g>
     </g>
     <g id="text_9">
      <!-- −40 -->
      <g transform="translate(71.453437 188.019678) scale(0.14 -0.14)">
       <use xlink:href="#DejaVuSans-2212"/>
       <use xlink:href="#DejaVuSans-34" x="83.789062"/>
       <use xlink:href="#DejaVuSans-30" x="147.412109"/>
      </g>
     </g>
    </g>
    <g id="ytick_3">
     <g id="line2d_17">
      <path d="M 108 140.36381 
L 777.6 140.36381 
" clip-path="url(#pafe69e403b)" style="fill: none; stroke: #b0b0b0; stroke-width: 0.8; stroke-linecap: square"/>
     </g>
     <g id="line2d_18">
      <g>
       <use xlink:href="#mbdd6a3ba36" x="108" y="140.36381" style="stroke: #000000; stroke-width: 0.8"/>
      </g>
     </g>
     <g id="text_10">
      <!-- −20 -->
      <g transform="translate(71.453437 145.682716) scale(0.14 -0.14)">
       <use xlink:href="#DejaVuSans-2212"/>
       <use xlink:href="#DejaVuSans-32" x="83.789062"/>
       <use xlink:href="#DejaVuSans-30" x="147.412109"/>
      </g>
     </g>
    </g>
    <g id="ytick_4">
     <g id="line2d_19">
      <path d="M 108 98.026847 
L 777.6 98.026847 
" clip-path="url(#pafe69e403b)" style="fill: none; stroke: #b0b0b0; stroke-width: 0.8; stroke-linecap: square"/>
     </g>
     <g id="line2d_20">
      <g>
       <use xlink:href="#mbdd6a3ba36" x="108" y="98.026847" style="stroke: #000000; stroke-width: 0.8"/>
      </g>
     </g>
     <g id="text_11">
      <!-- 0 -->
      <g transform="translate(92.0925 103.345753) scale(0.14 -0.14)">
       <use xlink:href="#DejaVuSans-30"/>
      </g>
     </g>
    </g>
    <g id="ytick_5">
     <g id="line2d_21">
      <path d="M 108 55.689884 
L 777.6 55.689884 
" clip-path="url(#pafe69e403b)" style="fill: none; stroke: #b0b0b0; stroke-width: 0.8; stroke-linecap: square"/>
     </g>
     <g id="line2d_22">
      <g>
       <use xlink:href="#mbdd6a3ba36" x="108" y="55.689884" style="stroke: #000000; stroke-width: 0.8"/>
      </g>
     </g>
     <g id="text_12">
      <!-- 20 -->
      <g transform="translate(83.185 61.008791) scale(0.14 -0.14)">
       <use xlink:href="#DejaVuSans-32"/>
       <use xlink:href="#DejaVuSans-30" x="63.623047"/>
      </g>
     </g>
    </g>
    <g id="text_13">
     <!-- $V_{m}$ (mV) -->
     <g transform="translate(64.541875 174.49) rotate(-90) scale(0.14 -0.14)">
      <defs>
       <path id="DejaVuSans-Oblique-56" d="M 1319 0 
L 500 4666 
L 1119 4666 
L 1797 653 
L 4063 4666 
L 4750 4666 
L 2053 0 
L 1319 0 
z
" transform="scale(0.015625)"/>
       <path id="DejaVuSans-Oblique-6d" d="M 5747 2113 
L 5338 0 
L 4763 0 
L 5166 2094 
Q 5191 2228 5203 2325 
Q 5216 2422 5216 2491 
Q 5216 2772 5059 2928 
Q 4903 3084 4622 3084 
Q 4203 3084 3875 2770 
Q 3547 2456 3450 1953 
L 3066 0 
L 2491 0 
L 2900 2094 
Q 2925 2209 2937 2307 
Q 2950 2406 2950 2484 
Q 2950 2769 2794 2926 
Q 2638 3084 2363 3084 
Q 1938 3084 1609 2770 
Q 1281 2456 1184 1953 
L 800 0 
L 225 0 
L 909 3500 
L 1484 3500 
L 1375 2956 
Q 1609 3263 1923 3423 
Q 2238 3584 2597 3584 
Q 2978 3584 3223 3384 
Q 3469 3184 3519 2828 
Q 3781 3197 4126 3390 
Q 4472 3584 4856 3584 
Q 5306 3584 5551 3325 
Q 5797 3066 5797 2591 
Q 5797 2488 5784 2364 
Q 5772 2241 5747 2113 
z
" transform="scale(0.015625)"/>
       <path id="DejaVuSans-56" d="M 1831 0 
L 50 4666 
L 709 4666 
L 2188 738 
L 3669 4666 
L 4325 4666 
L 2547 0 
L 1831 0 
z
" transform="scale(0.015625)"/>
      </defs>
      <use xlink:href="#DejaVuSans-Oblique-56" transform="translate(0 0.125)"/>
      <use xlink:href="#DejaVuSans-Oblique-6d" transform="translate(68.408203 -16.28125) scale(0.7)"/>
      <use xlink:href="#DejaVuSans-20" transform="translate(139.331055 0.125)"/>
      <use xlink:href="#DejaVuSans-28" transform="translate(171.118164 0.125)"/>
      <use xlink:href="#DejaVuSans-6d" transform="translate(210.131836 0.125)"/>
      <use xlink:href="#DejaVuSans-56" transform="translate(307.543945 0.125)"/>
      <use xlink:href="#DejaVuSans-29" transform="translate(375.952148 0.125)"/>
     </g>
    </g>
   </g>
   <g id="line2d_23">
    <path d="M 108 215.544542 
L 109.3392 215.507698 
L 112.6872 215.145904 
L 114.696 215.029549 
L 116.0352 215.157897 
L 118.044 215.815934 
L 119.3832 216.469491 
L 120.0528 216.620004 
L 121.392 217.293506 
L 122.7312 217.836145 
L 124.0704 218.069161 
L 126.0792 218.184277 
L 128.7576 218.118371 
L 132.1056 217.819165 
L 134.784 217.602874 
L 136.1232 217.738359 
L 137.4624 218.344101 
L 140.8104 218.85412 
L 142.8192 218.840501 
L 143.4888 218.803334 
L 144.828 218.960963 
L 146.8368 218.9049 
L 148.176 218.786155 
L 150.1848 218.882178 
L 152.8632 218.628228 
L 156.8808 217.993866 
L 161.568 217.03211 
L 167.5944 215.561972 
L 175.6296 213.349413 
L 190.3608 209.001767 
L 198.396 206.607766 
L 200.4048 206.460363 
L 203.7528 205.788346 
L 205.7616 205.317217 
L 207.7704 205.294026 
L 208.44 205.218938 
L 210.4488 205.382823 
L 212.4576 205.249916 
L 215.8056 204.774956 
L 220.4928 203.8401 
L 225.18 202.684795 
L 225.8496 202.486589 
L 227.1888 202.443926 
L 229.1976 203.323921 
L 230.5368 203.62082 
L 233.2152 204.007778 
L 233.8848 204.191729 
L 234.5544 204.494502 
L 235.8936 205.475944 
L 237.2328 206.549696 
L 239.9112 208.499181 
L 241.2504 209.857704 
L 242.5896 210.596666 
L 243.9288 210.992811 
L 244.5984 211.111188 
L 245.9376 211.564923 
L 246.6072 211.701415 
L 247.9464 212.328411 
L 251.964 213.998336 
L 253.9728 214.317751 
L 255.9816 215.325024 
L 257.3208 215.753027 
L 259.3296 216.037962 
L 261.3384 216.292261 
L 262.6776 216.503547 
L 266.0256 216.823644 
L 267.3648 217.163961 
L 269.3736 217.292983 
L 271.3824 217.395474 
L 272.7216 217.515086 
L 275.4 217.421611 
L 278.748 217.078366 
L 282.7656 216.612328 
L 284.1048 216.579107 
L 286.7832 216.223834 
L 292.14 215.350291 
L 293.4792 215.271273 
L 296.8272 214.699649 
L 302.184 213.505207 
L 309.5496 211.607148 
L 319.5936 208.754012 
L 328.2984 206.067634 
L 332.9856 204.446519 
L 336.3336 203.056258 
L 338.3424 202.036196 
L 339.6816 201.150286 
L 341.0208 200.010098 
L 341.6904 199.200247 
L 342.36 198.088135 
L 343.0296 196.354066 
L 343.6992 192.666203 
L 344.3688 177.473252 
L 345.0384 94.301283 
L 345.708 51.166913 
L 347.0472 90.774898 
L 348.3864 116.962965 
L 350.3952 149.523434 
L 352.404 177.844107 
L 353.7432 193.722117 
L 354.4128 199.291044 
L 355.0824 203.372988 
L 355.752 206.167787 
L 356.4216 208.108373 
L 357.0912 209.680783 
L 358.4304 211.929594 
L 359.1 212.88014 
L 359.7696 213.594009 
L 361.1088 214.491621 
L 361.7784 214.772209 
L 363.1176 215.628902 
L 364.4568 216.234683 
L 367.1352 216.708273 
L 368.4744 216.857465 
L 369.8136 216.926731 
L 371.8224 216.726927 
L 372.492 216.623453 
L 373.8312 216.930451 
L 375.1704 217.731412 
L 376.5096 217.985937 
L 377.8488 217.951016 
L 379.8576 217.798663 
L 383.2056 218.474485 
L 388.5624 219.166897 
L 391.2408 219.158364 
L 392.58 219.472342 
L 394.5888 219.496416 
L 397.2672 219.273751 
L 398.6064 219.10579 
L 401.9544 219.272611 
L 403.9632 219.299441 
L 405.3024 219.478628 
L 406.6416 219.575516 
L 408.6504 219.601969 
L 409.9896 219.651934 
L 412.668 219.424563 
L 416.6856 218.806265 
L 421.3728 217.8472 
L 427.3992 216.516149 
L 428.7384 216.371485 
L 432.0864 215.659057 
L 438.1128 214.104222 
L 448.1568 211.233036 
L 471.5928 204.230622 
L 472.932 203.789586 
L 475.6104 203.515743 
L 476.9496 203.251737 
L 478.9584 203.304009 
L 481.6368 203.01445 
L 484.3152 202.688599 
L 484.9848 202.731348 
L 486.9936 203.199747 
L 489.0024 203.321328 
L 490.3416 204.023982 
L 491.6808 204.619115 
L 493.02 205.501928 
L 494.3592 206.173627 
L 495.6984 207.058368 
L 499.0464 208.360173 
L 507.0816 210.014724 
L 507.7512 210.067796 
L 508.4208 210.267342 
L 511.0992 212.219806 
L 512.4384 212.595824 
L 514.4472 212.977844 
L 515.1168 213.149776 
L 516.456 213.904415 
L 517.1256 214.115609 
L 519.804 215.971507 
L 521.1432 216.424447 
L 523.8216 217.021074 
L 525.8304 217.893633 
L 528.5088 218.815996 
L 530.5176 219.218809 
L 531.8568 219.487254 
L 533.8656 219.629606 
L 536.544 219.615182 
L 539.892 219.385811 
L 543.9096 218.882954 
L 548.5968 218.059224 
L 553.9536 216.88215 
L 560.6496 215.155995 
L 568.6848 212.846336 
L 580.7376 209.138085 
L 590.7816 205.845425 
L 595.4688 204.102305 
L 598.8168 202.592773 
L 600.156 201.822662 
L 601.4952 200.864204 
L 603.504 199.071823 
L 604.1736 198.093687 
L 604.8432 196.514469 
L 605.5128 192.981496 
L 606.1824 178.028166 
L 606.852 97.427912 
L 607.5216 51.67246 
L 608.8608 90.401559 
L 610.2 116.573752 
L 612.2088 149.150673 
L 614.2176 177.662906 
L 615.5568 193.836022 
L 616.2264 199.48285 
L 616.896 203.304007 
L 617.5656 205.888098 
L 618.2352 207.725479 
L 618.9048 209.092661 
L 619.5744 210.135431 
L 620.244 210.939147 
L 621.5832 212.025697 
L 622.9224 212.62042 
L 624.2616 213.150193 
L 625.6008 213.441609 
L 626.94 213.84031 
L 628.2792 213.838375 
L 630.288 213.671564 
L 631.6272 214.128589 
L 632.9664 214.125105 
L 633.636 214.049472 
L 634.9752 214.114803 
L 635.6448 214.061687 
L 636.984 214.154971 
L 637.6536 214.115075 
L 639.6624 215.225637 
L 643.0104 216.016536 
L 644.3496 216.510686 
L 649.0368 217.215491 
L 650.376 217.43264 
L 651.0456 217.460679 
L 652.3848 217.718855 
L 653.724 217.922547 
L 655.7328 218.586172 
L 658.4112 219.324235 
L 660.42 220.285517 
L 661.7592 220.552697 
L 663.768 220.70703 
L 666.4464 220.685077 
L 668.4552 220.693816 
L 669.7944 220.756108 
L 672.4728 220.574733 
L 676.4904 220.032207 
L 681.1776 219.146203 
L 686.5344 217.897974 
L 693.2304 216.092566 
L 693.9 215.900995 
L 695.9088 215.685948 
L 699.2568 214.906329 
L 705.9528 213.068607 
L 719.3448 209.111593 
L 736.7544 203.781934 
L 740.772 202.346258 
L 743.4504 201.317029 
L 745.4592 200.814985 
L 749.4768 199.426065 
L 750.816 198.740405 
L 751.4856 198.268809 
L 752.8248 196.891673 
L 753.4944 195.676684 
L 754.164 193.091376 
L 754.8336 183.379648 
L 755.5032 136.501563 
L 756.1728 71.25616 
L 756.8424 72.031601 
L 758.1816 100.400549 
L 760.1904 134.635155 
L 762.1992 165.5003 
L 764.208 192.542343 
L 764.8776 199.291224 
L 765.5472 203.938385 
L 766.2168 207.122113 
L 766.8864 209.328917 
L 767.556 210.918045 
L 768.2256 212.114981 
L 770.2344 214.806395 
L 770.904 215.356657 
L 773.5824 216.877144 
L 774.9216 217.27158 
L 776.2608 217.374479 
L 777.6 217.460884 
L 777.6 217.460884 
" clip-path="url(#pafe69e403b)" style="fill: none; stroke: #000000; stroke-width: 1.5; stroke-linecap: square"/>
   </g>
   <g id="line2d_24">
    <path d="M 108 161.390668 
L 108.6696 162.293968 
L 109.3392 143.269789 
L 110.0088 139.698611 
L 110.6784 137.757484 
L 111.348 136.713539 
L 112.0176 136.113279 
L 113.3568 135.495529 
L 118.044 134.241057 
L 122.0616 133.289667 
L 127.4184 132.380666 
L 132.1056 131.808104 
L 136.1232 131.536969 
L 138.8016 131.601302 
L 148.8456 132.235106 
L 180.3168 134.838564 
L 193.0392 136.136583 
L 201.0744 137.14803 
L 209.1096 138.593821 
L 215.8056 140.288197 
L 225.8496 142.640425 
L 228.528 143.367075 
L 231.2064 144.492203 
L 234.5544 146.120504 
L 236.5632 147.373094 
L 238.572 148.970415 
L 240.5808 150.857909 
L 242.5896 153.102688 
L 243.2592 138.699655 
L 243.9288 136.138094 
L 244.5984 134.826401 
L 245.268 134.19822 
L 245.9376 133.898976 
L 247.2768 133.697605 
L 251.2944 133.419922 
L 253.9728 132.935527 
L 257.3208 132.324249 
L 262.6776 131.616488 
L 266.6952 131.344496 
L 272.052 131.329734 
L 282.7656 131.676018 
L 292.14 132.288395 
L 308.88 133.749402 
L 325.62 135.3454 
L 338.3424 136.538733 
L 341.0208 136.628686 
L 342.36 136.559592 
L 343.0296 136.44892 
L 343.6992 136.205431 
L 344.3688 135.425559 
L 345.0384 131.727642 
L 346.3776 119.276659 
L 347.0472 115.13797 
L 347.7168 112.905164 
L 348.3864 112.121812 
L 349.056 112.34061 
L 349.7256 113.236349 
L 350.3952 114.592142 
L 351.7344 118.16191 
L 353.7432 124.658556 
L 355.752 131.196444 
L 357.0912 134.870359 
L 358.4304 137.94184 
L 359.7696 140.566194 
L 361.7784 143.903234 
L 364.4568 147.709906 
L 367.8048 151.996478 
L 375.1704 161.250216 
L 376.5096 163.273862 
L 377.1792 143.862695 
L 377.8488 140.245671 
L 378.5184 138.289919 
L 379.188 137.248075 
L 379.8576 136.657607 
L 380.5272 136.306097 
L 381.8664 135.925336 
L 385.2144 135.174784 
L 393.9192 132.890293 
L 397.9368 132.263166 
L 401.2848 131.935748 
L 405.3024 131.820552 
L 410.6592 131.975448 
L 428.7384 132.875535 
L 456.192 135.273087 
L 468.9144 136.682508 
L 476.28 137.670713 
L 479.628 138.328981 
L 486.324 139.904243 
L 489.672 141.012635 
L 491.6808 141.84794 
L 494.3592 143.262363 
L 497.0376 144.952323 
L 502.3944 148.630726 
L 506.412 151.630675 
L 509.0904 153.859177 
L 510.4296 155.187876 
L 511.0992 139.711191 
L 511.7688 136.964612 
L 512.4384 135.528116 
L 513.108 134.816958 
L 513.7776 134.454269 
L 515.1168 134.164661 
L 521.1432 133.525338 
L 527.8392 132.42862 
L 532.5264 132.080253 
L 539.2224 131.866431 
L 545.9184 131.871593 
L 554.6232 132.108981 
L 566.0064 132.657493 
L 578.7288 133.491189 
L 602.1648 135.157606 
L 604.1736 135.078821 
L 604.8432 134.984626 
L 605.5128 134.771653 
L 606.1824 134.052049 
L 606.852 130.593922 
L 608.1912 118.613415 
L 608.8608 114.58021 
L 609.5304 112.403128 
L 610.2 111.645688 
L 610.8696 111.870773 
L 611.5392 112.758394 
L 612.2088 114.094524 
L 613.548 117.595395 
L 615.5568 123.954235 
L 617.5656 130.280868 
L 618.9048 133.730223 
L 620.244 136.524918 
L 621.5832 138.809936 
L 622.9224 140.71799 
L 624.9312 143.110008 
L 627.6096 145.801296 
L 630.288 148.110894 
L 637.6536 154.204812 
L 639.6624 156.111913 
L 641.6712 158.347705 
L 643.68 160.835228 
L 644.3496 161.734148 
L 645.0192 143.022877 
L 645.6888 139.590969 
L 646.3584 137.737449 
L 647.028 136.763722 
L 647.6976 136.221313 
L 649.0368 135.703255 
L 655.0632 134.317062 
L 659.0808 133.363794 
L 662.4288 132.896469 
L 667.7856 132.355359 
L 671.8032 132.172923 
L 679.1688 132.097846 
L 687.204 132.247722 
L 695.9088 132.618317 
L 718.6752 134.384344 
L 731.3976 135.636304 
L 752.8248 137.831193 
L 754.164 137.673999 
L 754.8336 137.186159 
L 755.5032 134.956915 
L 757.512 118.693582 
L 758.1816 115.572245 
L 758.8512 114.008883 
L 759.5208 113.624173 
L 760.1904 114.084169 
L 760.86 115.148063 
L 761.5296 116.644049 
L 762.8688 120.48396 
L 764.8776 127.48982 
L 766.8864 134.423575 
L 768.2256 138.304787 
L 769.5648 141.611961 
L 771.5736 145.88544 
L 774.252 150.85844 
L 777.6 156.600558 
L 777.6 156.600558 
" clip-path="url(#pafe69e403b)" style="fill: none; stroke: #4169e1; stroke-width: 1.5; stroke-linecap: square"/>
   </g>
   <g id="patch_3">
    <path d="M 108 256.32 
L 108 34.56 
" style="fill: none; stroke: #000000; stroke-width: 0.8; stroke-linejoin: miter; stroke-linecap: square"/>
   </g>
   <g id="patch_4">
    <path d="M 777.6 256.32 
L 777.6 34.56 
" style="fill: none; stroke: #000000; stroke-width: 0.8; stroke-linejoin: miter; stroke-linecap: square"/>
   </g>
   <g id="patch_5">
    <path d="M 108 256.32 
L 777.6 256.32 
" style="fill: none; stroke: #000000; stroke-width: 0.8; stroke-linejoin: miter; stroke-linecap: square"/>
   </g>
   <g id="patch_6">
    <path d="M 108 34.56 
L 777.6 34.56 
" style="fill: none; stroke: #000000; stroke-width: 0.8; stroke-linejoin: miter; stroke-linecap: square"/>
   </g>
   <g id="legend_1">
    <g id="patch_7">
     <path d="M 115 71.91625 
L 190.501563 71.91625 
Q 192.501563 71.91625 192.501563 69.91625 
L 192.501563 41.56 
Q 192.501563 39.56 190.501563 39.56 
L 115 39.56 
Q 113 39.56 113 41.56 
L 113 69.91625 
Q 113 71.91625 115 71.91625 
z
" style="fill: #ffffff; opacity: 0.8; stroke: #cccccc; stroke-linejoin: miter"/>
    </g>
    <g id="line2d_25">
     <path d="M 117 47.658437 
L 127 47.658437 
L 137 47.658437 
" style="fill: none; stroke: #000000; stroke-width: 1.5; stroke-linecap: square"/>
    </g>
    <g id="text_14">
     <!-- Soma -->
     <g transform="translate(145 51.158437) scale(0.1 -0.1)">
      <defs>
       <path id="DejaVuSans-53" d="M 3425 4513 
L 3425 3897 
Q 3066 4069 2747 4153 
Q 2428 4238 2131 4238 
Q 1616 4238 1336 4038 
Q 1056 3838 1056 3469 
Q 1056 3159 1242 3001 
Q 1428 2844 1947 2747 
L 2328 2669 
Q 3034 2534 3370 2195 
Q 3706 1856 3706 1288 
Q 3706 609 3251 259 
Q 2797 -91 1919 -91 
Q 1588 -91 1214 -16 
Q 841 59 441 206 
L 441 856 
Q 825 641 1194 531 
Q 1563 422 1919 422 
Q 2459 422 2753 634 
Q 3047 847 3047 1241 
Q 3047 1584 2836 1778 
Q 2625 1972 2144 2069 
L 1759 2144 
Q 1053 2284 737 2584 
Q 422 2884 422 3419 
Q 422 4038 858 4394 
Q 1294 4750 2059 4750 
Q 2388 4750 2728 4690 
Q 3069 4631 3425 4513 
z
" transform="scale(0.015625)"/>
       <path id="DejaVuSans-6f" d="M 1959 3097 
Q 1497 3097 1228 2736 
Q 959 2375 959 1747 
Q 959 1119 1226 758 
Q 1494 397 1959 397 
Q 2419 397 2687 759 
Q 2956 1122 2956 1747 
Q 2956 2369 2687 2733 
Q 2419 3097 1959 3097 
z
M 1959 3584 
Q 2709 3584 3137 3096 
Q 3566 2609 3566 1747 
Q 3566 888 3137 398 
Q 2709 -91 1959 -91 
Q 1206 -91 779 398 
Q 353 888 353 1747 
Q 353 2609 779 3096 
Q 1206 3584 1959 3584 
z
" transform="scale(0.015625)"/>
       <path id="DejaVuSans-61" d="M 2194 1759 
Q 1497 1759 1228 1600 
Q 959 1441 959 1056 
Q 959 750 1161 570 
Q 1363 391 1709 391 
Q 2188 391 2477 730 
Q 2766 1069 2766 1631 
L 2766 1759 
L 2194 1759 
z
M 3341 1997 
L 3341 0 
L 2766 0 
L 2766 531 
Q 2569 213 2275 61 
Q 1981 -91 1556 -91 
Q 1019 -91 701 211 
Q 384 513 384 1019 
Q 384 1609 779 1909 
Q 1175 2209 1959 2209 
L 2766 2209 
L 2766 2266 
Q 2766 2663 2505 2880 
Q 2244 3097 1772 3097 
Q 1472 3097 1187 3025 
Q 903 2953 641 2809 
L 641 3341 
Q 956 3463 1253 3523 
Q 1550 3584 1831 3584 
Q 2591 3584 2966 3190 
Q 3341 2797 3341 1997 
z
" transform="scale(0.015625)"/>
      </defs>
      <use xlink:href="#DejaVuSans-53"/>
      <use xlink:href="#DejaVuSans-6f" x="63.476562"/>
      <use xlink:href="#DejaVuSans-6d" x="124.658203"/>
      <use xlink:href="#DejaVuSans-61" x="222.070312"/>
     </g>
    </g>
    <g id="line2d_26">
     <path d="M 117 62.336562 
L 127 62.336562 
L 137 62.336562 
" style="fill: none; stroke: #4169e1; stroke-width: 1.5; stroke-linecap: square"/>
    </g>
    <g id="text_15">
     <!-- Dendrite -->
     <g transform="translate(145 65.836562) scale(0.1 -0.1)">
      <defs>
       <path id="DejaVuSans-44" d="M 1259 4147 
L 1259 519 
L 2022 519 
Q 2988 519 3436 956 
Q 3884 1394 3884 2338 
Q 3884 3275 3436 3711 
Q 2988 4147 2022 4147 
L 1259 4147 
z
M 628 4666 
L 1925 4666 
Q 3281 4666 3915 4102 
Q 4550 3538 4550 2338 
Q 4550 1131 3912 565 
Q 3275 0 1925 0 
L 628 0 
L 628 4666 
z
" transform="scale(0.015625)"/>
       <path id="DejaVuSans-6e" d="M 3513 2113 
L 3513 0 
L 2938 0 
L 2938 2094 
Q 2938 2591 2744 2837 
Q 2550 3084 2163 3084 
Q 1697 3084 1428 2787 
Q 1159 2491 1159 1978 
L 1159 0 
L 581 0 
L 581 3500 
L 1159 3500 
L 1159 2956 
Q 1366 3272 1645 3428 
Q 1925 3584 2291 3584 
Q 2894 3584 3203 3211 
Q 3513 2838 3513 2113 
z
" transform="scale(0.015625)"/>
       <path id="DejaVuSans-64" d="M 2906 2969 
L 2906 4863 
L 3481 4863 
L 3481 0 
L 2906 0 
L 2906 525 
Q 2725 213 2448 61 
Q 2172 -91 1784 -91 
Q 1150 -91 751 415 
Q 353 922 353 1747 
Q 353 2572 751 3078 
Q 1150 3584 1784 3584 
Q 2172 3584 2448 3432 
Q 2725 3281 2906 2969 
z
M 947 1747 
Q 947 1113 1208 752 
Q 1469 391 1925 391 
Q 2381 391 2643 752 
Q 2906 1113 2906 1747 
Q 2906 2381 2643 2742 
Q 2381 3103 1925 3103 
Q 1469 3103 1208 2742 
Q 947 2381 947 1747 
z
" transform="scale(0.015625)"/>
       <path id="DejaVuSans-72" d="M 2631 2963 
Q 2534 3019 2420 3045 
Q 2306 3072 2169 3072 
Q 1681 3072 1420 2755 
Q 1159 2438 1159 1844 
L 1159 0 
L 581 0 
L 581 3500 
L 1159 3500 
L 1159 2956 
Q 1341 3275 1631 3429 
Q 1922 3584 2338 3584 
Q 2397 3584 2469 3576 
Q 2541 3569 2628 3553 
L 2631 2963 
z
" transform="scale(0.015625)"/>
       <path id="DejaVuSans-74" d="M 1172 4494 
L 1172 3500 
L 2356 3500 
L 2356 3053 
L 1172 3053 
L 1172 1153 
Q 1172 725 1289 603 
Q 1406 481 1766 481 
L 2356 481 
L 2356 0 
L 1766 0 
Q 1100 0 847 248 
Q 594 497 594 1153 
L 594 3053 
L 172 3053 
L 172 3500 
L 594 3500 
L 594 4494 
L 1172 4494 
z
" transform="scale(0.015625)"/>
      </defs>
      <use xlink:href="#DejaVuSans-44"/>
      <use xlink:href="#DejaVuSans-65" x="77.001953"/>
      <use xlink:href="#DejaVuSans-6e" x="138.525391"/>
      <use xlink:href="#DejaVuSans-64" x="201.904297"/>
      <use xlink:href="#DejaVuSans-72" x="265.380859"/>
      <use xlink:href="#DejaVuSans-69" x="306.494141"/>
      <use xlink:href="#DejaVuSans-74" x="334.277344"/>
      <use xlink:href="#DejaVuSans-65" x="373.486328"/>
     </g>
    </g>
   </g>
  </g>
 </g>
 <defs>
  <clipPath id="pafe69e403b">
   <rect x="108" y="34.56" width="669.6" height="221.76"/>
  </clipPath>
 </defs>
</svg>
