<?xml version="1.0" encoding="utf-8" standalone="no"?>
<!DOCTYPE svg PUBLIC "-//W3C//DTD SVG 1.1//EN"
  "http://www.w3.org/Graphics/SVG/1.1/DTD/svg11.dtd">
<svg xmlns:xlink="http://www.w3.org/1999/xlink" width="864pt" height="288pt" viewBox="0 0 864 288" xmlns="http://www.w3.org/2000/svg" version="1.1">
 <metadata>
  <rdf:RDF xmlns:dc="http://purl.org/dc/elements/1.1/" xmlns:cc="http://creativecommons.org/ns#" xmlns:rdf="http://www.w3.org/1999/02/22-rdf-syntax-ns#">
   <cc:Work>
    <dc:type rdf:resource="http://purl.org/dc/dcmitype/StillImage"/>
    <dc:date>2024-04-12T18:07:47.105634</dc:date>
    <dc:format>image/svg+xml</dc:format>
    <dc:creator>
     <cc:Agent>
      <dc:title>Matplotlib v3.8.2, https://matplotlib.org/</dc:title>
     </cc:Agent>
    </dc:creator>
   </cc:Work>
  </rdf:RDF>
 </metadata>
 <defs>
  <style type="text/css">*{stroke-linejoin: round; stroke-linecap: butt}</style>
 </defs>
 <g id="figure_1">
  <g id="patch_1">
   <path d="M 0 288 
L 864 288 
L 864 0 
L 0 0 
z
" style="fill: #ffffff"/>
  </g>
  <g id="axes_1">
   <g id="patch_2">
    <path d="M 108 256.32 
L 777.6 256.32 
L 777.6 34.56 
L 108 34.56 
z
" style="fill: #ffffff"/>
   </g>
   <g id="matplotlib.axis_1">
    <g id="xtick_1">
     <g id="line2d_1">
      <path d="M 108 256.32 
L 108 34.56 
" clip-path="url(#p6f1b1c27d4)" style="fill: none; stroke: #b0b0b0; stroke-width: 0.8; stroke-linecap: square"/>
     </g>
     <g id="line2d_2">
      <defs>
       <path id="ma6c16fe161" d="M 0 0 
L 0 3.5 
" style="stroke: #000000; stroke-width: 0.8"/>
      </defs>
      <g>
       <use xlink:href="#ma6c16fe161" x="108" y="256.32" style="stroke: #000000; stroke-width: 0.8"/>
      </g>
     </g>
     <g id="text_1">
      <!-- 100 -->
      <g transform="translate(94.63875 273.957812) scale(0.14 -0.14)">
       <defs>
        <path id="DejaVuSans-31" d="M 794 531 
L 1825 531 
L 1825 4091 
L 703 3866 
L 703 4441 
L 1819 4666 
L 2450 4666 
L 2450 531 
L 3481 531 
L 3481 0 
L 794 0 
L 794 531 
z
" transform="scale(0.015625)"/>
        <path id="DejaVuSans-30" d="M 2034 4250 
Q 1547 4250 1301 3770 
Q 1056 3291 1056 2328 
Q 1056 1369 1301 889 
Q 1547 409 2034 409 
Q 2525 409 2770 889 
Q 3016 1369 3016 2328 
Q 3016 3291 2770 3770 
Q 2525 4250 2034 4250 
z
M 2034 4750 
Q 2819 4750 3233 4129 
Q 3647 3509 3647 2328 
Q 3647 1150 3233 529 
Q 2819 -91 2034 -91 
Q 1250 -91 836 529 
Q 422 1150 422 2328 
Q 422 3509 836 4129 
Q 1250 4750 2034 4750 
z
" transform="scale(0.015625)"/>
       </defs>
       <use xlink:href="#DejaVuSans-31"/>
       <use xlink:href="#DejaVuSans-30" x="63.623047"/>
       <use xlink:href="#DejaVuSans-30" x="127.246094"/>
      </g>
     </g>
    </g>
    <g id="xtick_2">
     <g id="line2d_3">
      <path d="M 241.92 256.32 
L 241.92 34.56 
" clip-path="url(#p6f1b1c27d4)" style="fill: none; stroke: #b0b0b0; stroke-width: 0.8; stroke-linecap: square"/>
     </g>
     <g id="line2d_4">
      <g>
       <use xlink:href="#ma6c16fe161" x="241.92" y="256.32" style="stroke: #000000; stroke-width: 0.8"/>
      </g>
     </g>
     <g id="text_2">
      <!-- 120 -->
      <g transform="translate(228.55875 273.957812) scale(0.14 -0.14)">
       <defs>
        <path id="DejaVuSans-32" d="M 1228 531 
L 3431 531 
L 3431 0 
L 469 0 
L 469 531 
Q 828 903 1448 1529 
Q 2069 2156 2228 2338 
Q 2531 2678 2651 2914 
Q 2772 3150 2772 3378 
Q 2772 3750 2511 3984 
Q 2250 4219 1831 4219 
Q 1534 4219 1204 4116 
Q 875 4013 500 3803 
L 500 4441 
Q 881 4594 1212 4672 
Q 1544 4750 1819 4750 
Q 2544 4750 2975 4387 
Q 3406 4025 3406 3419 
Q 3406 3131 3298 2873 
Q 3191 2616 2906 2266 
Q 2828 2175 2409 1742 
Q 1991 1309 1228 531 
z
" transform="scale(0.015625)"/>
       </defs>
       <use xlink:href="#DejaVuSans-31"/>
       <use xlink:href="#DejaVuSans-32" x="63.623047"/>
       <use xlink:href="#DejaVuSans-30" x="127.246094"/>
      </g>
     </g>
    </g>
    <g id="xtick_3">
     <g id="line2d_5">
      <path d="M 375.84 256.32 
L 375.84 34.56 
" clip-path="url(#p6f1b1c27d4)" style="fill: none; stroke: #b0b0b0; stroke-width: 0.8; stroke-linecap: square"/>
     </g>
     <g id="line2d_6">
      <g>
       <use xlink:href="#ma6c16fe161" x="375.84" y="256.32" style="stroke: #000000; stroke-width: 0.8"/>
      </g>
     </g>
     <g id="text_3">
      <!-- 140 -->
      <g transform="translate(362.47875 273.957812) scale(0.14 -0.14)">
       <defs>
        <path id="DejaVuSans-34" d="M 2419 4116 
L 825 1625 
L 2419 1625 
L 2419 4116 
z
M 2253 4666 
L 3047 4666 
L 3047 1625 
L 3713 1625 
L 3713 1100 
L 3047 1100 
L 3047 0 
L 2419 0 
L 2419 1100 
L 313 1100 
L 313 1709 
L 2253 4666 
z
" transform="scale(0.015625)"/>
       </defs>
       <use xlink:href="#DejaVuSans-31"/>
       <use xlink:href="#DejaVuSans-34" x="63.623047"/>
       <use xlink:href="#DejaVuSans-30" x="127.246094"/>
      </g>
     </g>
    </g>
    <g id="xtick_4">
     <g id="line2d_7">
      <path d="M 509.76 256.32 
L 509.76 34.56 
" clip-path="url(#p6f1b1c27d4)" style="fill: none; stroke: #b0b0b0; stroke-width: 0.8; stroke-linecap: square"/>
     </g>
     <g id="line2d_8">
      <g>
       <use xlink:href="#ma6c16fe161" x="509.76" y="256.32" style="stroke: #000000; stroke-width: 0.8"/>
      </g>
     </g>
     <g id="text_4">
      <!-- 160 -->
      <g transform="translate(496.39875 273.957812) scale(0.14 -0.14)">
       <defs>
        <path id="DejaVuSans-36" d="M 2113 2584 
Q 1688 2584 1439 2293 
Q 1191 2003 1191 1497 
Q 1191 994 1439 701 
Q 1688 409 2113 409 
Q 2538 409 2786 701 
Q 3034 994 3034 1497 
Q 3034 2003 2786 2293 
Q 2538 2584 2113 2584 
z
M 3366 4563 
L 3366 3988 
Q 3128 4100 2886 4159 
Q 2644 4219 2406 4219 
Q 1781 4219 1451 3797 
Q 1122 3375 1075 2522 
Q 1259 2794 1537 2939 
Q 1816 3084 2150 3084 
Q 2853 3084 3261 2657 
Q 3669 2231 3669 1497 
Q 3669 778 3244 343 
Q 2819 -91 2113 -91 
Q 1303 -91 875 529 
Q 447 1150 447 2328 
Q 447 3434 972 4092 
Q 1497 4750 2381 4750 
Q 2619 4750 2861 4703 
Q 3103 4656 3366 4563 
z
" transform="scale(0.015625)"/>
       </defs>
       <use xlink:href="#DejaVuSans-31"/>
       <use xlink:href="#DejaVuSans-36" x="63.623047"/>
       <use xlink:href="#DejaVuSans-30" x="127.246094"/>
      </g>
     </g>
    </g>
    <g id="xtick_5">
     <g id="line2d_9">
      <path d="M 643.68 256.32 
L 643.68 34.56 
" clip-path="url(#p6f1b1c27d4)" style="fill: none; stroke: #b0b0b0; stroke-width: 0.8; stroke-linecap: square"/>
     </g>
     <g id="line2d_10">
      <g>
       <use xlink:href="#ma6c16fe161" x="643.68" y="256.32" style="stroke: #000000; stroke-width: 0.8"/>
      </g>
     </g>
     <g id="text_5">
      <!-- 180 -->
      <g transform="translate(630.31875 273.957812) scale(0.14 -0.14)">
       <defs>
        <path id="DejaVuSans-38" d="M 2034 2216 
Q 1584 2216 1326 1975 
Q 1069 1734 1069 1313 
Q 1069 891 1326 650 
Q 1584 409 2034 409 
Q 2484 409 2743 651 
Q 3003 894 3003 1313 
Q 3003 1734 2745 1975 
Q 2488 2216 2034 2216 
z
M 1403 2484 
Q 997 2584 770 2862 
Q 544 3141 544 3541 
Q 544 4100 942 4425 
Q 1341 4750 2034 4750 
Q 2731 4750 3128 4425 
Q 3525 4100 3525 3541 
Q 3525 3141 3298 2862 
Q 3072 2584 2669 2484 
Q 3125 2378 3379 2068 
Q 3634 1759 3634 1313 
Q 3634 634 3220 271 
Q 2806 -91 2034 -91 
Q 1263 -91 848 271 
Q 434 634 434 1313 
Q 434 1759 690 2068 
Q 947 2378 1403 2484 
z
M 1172 3481 
Q 1172 3119 1398 2916 
Q 1625 2713 2034 2713 
Q 2441 2713 2670 2916 
Q 2900 3119 2900 3481 
Q 2900 3844 2670 4047 
Q 2441 4250 2034 4250 
Q 1625 4250 1398 4047 
Q 1172 3844 1172 3481 
z
" transform="scale(0.015625)"/>
       </defs>
       <use xlink:href="#DejaVuSans-31"/>
       <use xlink:href="#DejaVuSans-38" x="63.623047"/>
       <use xlink:href="#DejaVuSans-30" x="127.246094"/>
      </g>
     </g>
    </g>
    <g id="xtick_6">
     <g id="line2d_11">
      <path d="M 777.6 256.32 
L 777.6 34.56 
" clip-path="url(#p6f1b1c27d4)" style="fill: none; stroke: #b0b0b0; stroke-width: 0.8; stroke-linecap: square"/>
     </g>
     <g id="line2d_12">
      <g>
       <use xlink:href="#ma6c16fe161" x="777.6" y="256.32" style="stroke: #000000; stroke-width: 0.8"/>
      </g>
     </g>
     <g id="text_6">
      <!-- 200 -->
      <g transform="translate(764.23875 273.957812) scale(0.14 -0.14)">
       <use xlink:href="#DejaVuSans-32"/>
       <use xlink:href="#DejaVuSans-30" x="63.623047"/>
       <use xlink:href="#DejaVuSans-30" x="127.246094"/>
      </g>
     </g>
    </g>
    <g id="text_7">
     <!-- Time (ms) -->
     <g transform="translate(407.521094 291.507187) scale(0.14 -0.14)">
      <defs>
       <path id="DejaVuSans-54" d="M -19 4666 
L 3928 4666 
L 3928 4134 
L 2272 4134 
L 2272 0 
L 1638 0 
L 1638 4134 
L -19 4134 
L -19 4666 
z
" transform="scale(0.015625)"/>
       <path id="DejaVuSans-69" d="M 603 3500 
L 1178 3500 
L 1178 0 
L 603 0 
L 603 3500 
z
M 603 4863 
L 1178 4863 
L 1178 4134 
L 603 4134 
L 603 4863 
z
" transform="scale(0.015625)"/>
       <path id="DejaVuSans-6d" d="M 3328 2828 
Q 3544 3216 3844 3400 
Q 4144 3584 4550 3584 
Q 5097 3584 5394 3201 
Q 5691 2819 5691 2113 
L 5691 0 
L 5113 0 
L 5113 2094 
Q 5113 2597 4934 2840 
Q 4756 3084 4391 3084 
Q 3944 3084 3684 2787 
Q 3425 2491 3425 1978 
L 3425 0 
L 2847 0 
L 2847 2094 
Q 2847 2600 2669 2842 
Q 2491 3084 2119 3084 
Q 1678 3084 1418 2786 
Q 1159 2488 1159 1978 
L 1159 0 
L 581 0 
L 581 3500 
L 1159 3500 
L 1159 2956 
Q 1356 3278 1631 3431 
Q 1906 3584 2284 3584 
Q 2666 3584 2933 3390 
Q 3200 3197 3328 2828 
z
" transform="scale(0.015625)"/>
       <path id="DejaVuSans-65" d="M 3597 1894 
L 3597 1613 
L 953 1613 
Q 991 1019 1311 708 
Q 1631 397 2203 397 
Q 2534 397 2845 478 
Q 3156 559 3463 722 
L 3463 178 
Q 3153 47 2828 -22 
Q 2503 -91 2169 -91 
Q 1331 -91 842 396 
Q 353 884 353 1716 
Q 353 2575 817 3079 
Q 1281 3584 2069 3584 
Q 2775 3584 3186 3129 
Q 3597 2675 3597 1894 
z
M 3022 2063 
Q 3016 2534 2758 2815 
Q 2500 3097 2075 3097 
Q 1594 3097 1305 2825 
Q 1016 2553 972 2059 
L 3022 2063 
z
" transform="scale(0.015625)"/>
       <path id="DejaVuSans-20" transform="scale(0.015625)"/>
       <path id="DejaVuSans-28" d="M 1984 4856 
Q 1566 4138 1362 3434 
Q 1159 2731 1159 2009 
Q 1159 1288 1364 580 
Q 1569 -128 1984 -844 
L 1484 -844 
Q 1016 -109 783 600 
Q 550 1309 550 2009 
Q 550 2706 781 3412 
Q 1013 4119 1484 4856 
L 1984 4856 
z
" transform="scale(0.015625)"/>
       <path id="DejaVuSans-73" d="M 2834 3397 
L 2834 2853 
Q 2591 2978 2328 3040 
Q 2066 3103 1784 3103 
Q 1356 3103 1142 2972 
Q 928 2841 928 2578 
Q 928 2378 1081 2264 
Q 1234 2150 1697 2047 
L 1894 2003 
Q 2506 1872 2764 1633 
Q 3022 1394 3022 966 
Q 3022 478 2636 193 
Q 2250 -91 1575 -91 
Q 1294 -91 989 -36 
Q 684 19 347 128 
L 347 722 
Q 666 556 975 473 
Q 1284 391 1588 391 
Q 1994 391 2212 530 
Q 2431 669 2431 922 
Q 2431 1156 2273 1281 
Q 2116 1406 1581 1522 
L 1381 1569 
Q 847 1681 609 1914 
Q 372 2147 372 2553 
Q 372 3047 722 3315 
Q 1072 3584 1716 3584 
Q 2034 3584 2315 3537 
Q 2597 3491 2834 3397 
z
" transform="scale(0.015625)"/>
       <path id="DejaVuSans-29" d="M 513 4856 
L 1013 4856 
Q 1481 4119 1714 3412 
Q 1947 2706 1947 2009 
Q 1947 1309 1714 600 
Q 1481 -109 1013 -844 
L 513 -844 
Q 928 -128 1133 580 
Q 1338 1288 1338 2009 
Q 1338 2731 1133 3434 
Q 928 4138 513 4856 
z
" transform="scale(0.015625)"/>
      </defs>
      <use xlink:href="#DejaVuSans-54"/>
      <use xlink:href="#DejaVuSans-69" x="57.958984"/>
      <use xlink:href="#DejaVuSans-6d" x="85.742188"/>
      <use xlink:href="#DejaVuSans-65" x="183.154297"/>
      <use xlink:href="#DejaVuSans-20" x="244.677734"/>
      <use xlink:href="#DejaVuSans-28" x="276.464844"/>
      <use xlink:href="#DejaVuSans-6d" x="315.478516"/>
      <use xlink:href="#DejaVuSans-73" x="412.890625"/>
      <use xlink:href="#DejaVuSans-29" x="464.990234"/>
     </g>
    </g>
   </g>
   <g id="matplotlib.axis_2">
    <g id="ytick_1">
     <g id="line2d_13">
      <path d="M 108 224.56284 
L 777.6 224.56284 
" clip-path="url(#p6f1b1c27d4)" style="fill: none; stroke: #b0b0b0; stroke-width: 0.8; stroke-linecap: square"/>
     </g>
     <g id="line2d_14">
      <defs>
       <path id="maf32880671" d="M 0 0 
L -3.5 0 
" style="stroke: #000000; stroke-width: 0.8"/>
      </defs>
      <g>
       <use xlink:href="#maf32880671" x="108" y="224.56284" style="stroke: #000000; stroke-width: 0.8"/>
      </g>
     </g>
     <g id="text_8">
      <!-- −60 -->
      <g transform="translate(71.453437 229.881746) scale(0.14 -0.14)">
       <defs>
        <path id="DejaVuSans-2212" d="M 678 2272 
L 4684 2272 
L 4684 1741 
L 678 1741 
L 678 2272 
z
" transform="scale(0.015625)"/>
       </defs>
       <use xlink:href="#DejaVuSans-2212"/>
       <use xlink:href="#DejaVuSans-36" x="83.789062"/>
       <use xlink:href="#DejaVuSans-30" x="147.412109"/>
      </g>
     </g>
    </g>
    <g id="ytick_2">
     <g id="line2d_15">
      <path d="M 108 181.277601 
L 777.6 181.277601 
" clip-path="url(#p6f1b1c27d4)" style="fill: none; stroke: #b0b0b0; stroke-width: 0.8; stroke-linecap: square"/>
     </g>
     <g id="line2d_16">
      <g>
       <use xlink:href="#maf32880671" x="108" y="181.277601" style="stroke: #000000; stroke-width: 0.8"/>
      </g>
     </g>
     <g id="text_9">
      <!-- −40 -->
      <g transform="translate(71.453437 186.596507) scale(0.14 -0.14)">
       <use xlink:href="#DejaVuSans-2212"/>
       <use xlink:href="#DejaVuSans-34" x="83.789062"/>
       <use xlink:href="#DejaVuSans-30" x="147.412109"/>
      </g>
     </g>
    </g>
    <g id="ytick_3">
     <g id="line2d_17">
      <path d="M 108 137.992362 
L 777.6 137.992362 
" clip-path="url(#p6f1b1c27d4)" style="fill: none; stroke: #b0b0b0; stroke-width: 0.8; stroke-linecap: square"/>
     </g>
     <g id="line2d_18">
      <g>
       <use xlink:href="#maf32880671" x="108" y="137.992362" style="stroke: #000000; stroke-width: 0.8"/>
      </g>
     </g>
     <g id="text_10">
      <!-- −20 -->
      <g transform="translate(71.453437 143.311268) scale(0.14 -0.14)">
       <use xlink:href="#DejaVuSans-2212"/>
       <use xlink:href="#DejaVuSans-32" x="83.789062"/>
       <use xlink:href="#DejaVuSans-30" x="147.412109"/>
      </g>
     </g>
    </g>
    <g id="ytick_4">
     <g id="line2d_19">
      <path d="M 108 94.707123 
L 777.6 94.707123 
" clip-path="url(#p6f1b1c27d4)" style="fill: none; stroke: #b0b0b0; stroke-width: 0.8; stroke-linecap: square"/>
     </g>
     <g id="line2d_20">
      <g>
       <use xlink:href="#maf32880671" x="108" y="94.707123" style="stroke: #000000; stroke-width: 0.8"/>
      </g>
     </g>
     <g id="text_11">
      <!-- 0 -->
      <g transform="translate(92.0925 100.026029) scale(0.14 -0.14)">
       <use xlink:href="#DejaVuSans-30"/>
      </g>
     </g>
    </g>
    <g id="ytick_5">
     <g id="line2d_21">
      <path d="M 108 51.421884 
L 777.6 51.421884 
" clip-path="url(#p6f1b1c27d4)" style="fill: none; stroke: #b0b0b0; stroke-width: 0.8; stroke-linecap: square"/>
     </g>
     <g id="line2d_22">
      <g>
       <use xlink:href="#maf32880671" x="108" y="51.421884" style="stroke: #000000; stroke-width: 0.8"/>
      </g>
     </g>
     <g id="text_12">
      <!-- 20 -->
      <g transform="translate(83.185 56.74079) scale(0.14 -0.14)">
       <use xlink:href="#DejaVuSans-32"/>
       <use xlink:href="#DejaVuSans-30" x="63.623047"/>
      </g>
     </g>
    </g>
    <g id="text_13">
     <!-- $V_{m}$ (mV) -->
     <g transform="translate(64.541875 174.49) rotate(-90) scale(0.14 -0.14)">
      <defs>
       <path id="DejaVuSans-Oblique-56" d="M 1319 0 
L 500 4666 
L 1119 4666 
L 1797 653 
L 4063 4666 
L 4750 4666 
L 2053 0 
L 1319 0 
z
" transform="scale(0.015625)"/>
       <path id="DejaVuSans-Oblique-6d" d="M 5747 2113 
L 5338 0 
L 4763 0 
L 5166 2094 
Q 5191 2228 5203 2325 
Q 5216 2422 5216 2491 
Q 5216 2772 5059 2928 
Q 4903 3084 4622 3084 
Q 4203 3084 3875 2770 
Q 3547 2456 3450 1953 
L 3066 0 
L 2491 0 
L 2900 2094 
Q 2925 2209 2937 2307 
Q 2950 2406 2950 2484 
Q 2950 2769 2794 2926 
Q 2638 3084 2363 3084 
Q 1938 3084 1609 2770 
Q 1281 2456 1184 1953 
L 800 0 
L 225 0 
L 909 3500 
L 1484 3500 
L 1375 2956 
Q 1609 3263 1923 3423 
Q 2238 3584 2597 3584 
Q 2978 3584 3223 3384 
Q 3469 3184 3519 2828 
Q 3781 3197 4126 3390 
Q 4472 3584 4856 3584 
Q 5306 3584 5551 3325 
Q 5797 3066 5797 2591 
Q 5797 2488 5784 2364 
Q 5772 2241 5747 2113 
z
" transform="scale(0.015625)"/>
       <path id="DejaVuSans-56" d="M 1831 0 
L 50 4666 
L 709 4666 
L 2188 738 
L 3669 4666 
L 4325 4666 
L 2547 0 
L 1831 0 
z
" transform="scale(0.015625)"/>
      </defs>
      <use xlink:href="#DejaVuSans-Oblique-56" transform="translate(0 0.125)"/>
      <use xlink:href="#DejaVuSans-Oblique-6d" transform="translate(68.408203 -16.28125) scale(0.7)"/>
      <use xlink:href="#DejaVuSans-20" transform="translate(139.331055 0.125)"/>
      <use xlink:href="#DejaVuSans-28" transform="translate(171.118164 0.125)"/>
      <use xlink:href="#DejaVuSans-6d" transform="translate(210.131836 0.125)"/>
      <use xlink:href="#DejaVuSans-56" transform="translate(307.543945 0.125)"/>
      <use xlink:href="#DejaVuSans-29" transform="translate(375.952148 0.125)"/>
     </g>
    </g>
   </g>
   <g id="line2d_23">
    <path d="M 108 214.137661 
L 110.0088 214.0101 
L 111.348 213.83612 
L 112.6872 213.915802 
L 114.696 213.892977 
L 116.0352 214.073482 
L 118.044 214.810858 
L 119.3832 215.519323 
L 120.0528 215.692012 
L 121.392 216.419105 
L 122.7312 217.011186 
L 124.0704 217.285194 
L 126.0792 217.455794 
L 128.7576 217.458539 
L 132.1056 217.239842 
L 134.1144 217.022815 
L 136.1232 217.260151 
L 137.4624 217.911462 
L 140.8104 218.515566 
L 142.8192 218.553549 
L 143.4888 218.533276 
L 144.828 218.728822 
L 146.8368 218.725845 
L 148.176 218.642118 
L 150.1848 218.795865 
L 152.8632 218.616871 
L 156.8808 218.100817 
L 162.2376 217.163599 
L 168.9336 215.752967 
L 170.9424 215.108117 
L 176.9688 212.99325 
L 198.396 205.859102 
L 200.4048 205.65449 
L 203.7528 204.878854 
L 205.7616 204.345075 
L 207.7704 204.266582 
L 208.44 204.171912 
L 210.4488 204.289258 
L 212.4576 204.104358 
L 215.8056 203.530478 
L 219.8232 202.607627 
L 223.8408 201.469591 
L 226.5192 200.635447 
L 227.1888 200.556377 
L 229.8672 201.49981 
L 231.876 201.81961 
L 232.5456 201.871843 
L 234.5544 202.619201 
L 235.8936 203.656432 
L 237.2328 204.826964 
L 238.572 205.831064 
L 239.9112 206.917821 
L 241.2504 208.341535 
L 242.5896 209.105854 
L 243.9288 209.57226 
L 244.5984 209.740313 
L 245.9376 210.297668 
L 246.6072 210.476758 
L 247.9464 211.184168 
L 251.964 213.023004 
L 253.9728 213.398348 
L 255.9816 214.47771 
L 257.3208 214.947087 
L 259.3296 215.285088 
L 261.3384 215.591888 
L 262.6776 215.839148 
L 266.0256 216.244448 
L 267.3648 216.623056 
L 269.3736 216.801817 
L 271.3824 216.953981 
L 272.7216 217.107878 
L 275.4 217.077619 
L 278.748 216.811572 
L 282.7656 216.440759 
L 284.1048 216.441248 
L 286.7832 216.151022 
L 292.14 215.414647 
L 293.4792 215.373581 
L 296.8272 214.898892 
L 302.184 213.881218 
L 304.1928 213.366439 
L 331.6464 204.180164 
L 334.9944 202.770464 
L 337.6728 201.438412 
L 339.012 200.57729 
L 340.3512 199.49156 
L 341.0208 198.802299 
L 341.6904 197.8825 
L 342.36 196.599582 
L 343.0296 194.430915 
L 343.6992 189.075794 
L 344.3688 163.972694 
L 345.0384 63.258831 
L 345.708 55.361711 
L 346.3776 76.927997 
L 347.0472 93.017545 
L 348.3864 117.882809 
L 350.3952 150.424039 
L 352.404 178.906993 
L 353.7432 194.397952 
L 354.4128 199.525345 
L 355.0824 203.276367 
L 355.752 205.869221 
L 356.4216 207.688673 
L 357.0912 209.182039 
L 358.4304 211.324916 
L 359.1 212.238026 
L 359.7696 212.916971 
L 361.1088 213.748149 
L 361.7784 213.996904 
L 363.1176 214.805378 
L 364.4568 215.363927 
L 367.1352 215.735524 
L 368.4744 215.834793 
L 369.8136 215.852914 
L 371.8224 215.567242 
L 372.492 215.433648 
L 373.8312 215.696088 
L 375.1704 216.468019 
L 376.5096 216.673482 
L 378.5184 216.625149 
L 379.188 216.566612 
L 379.8576 216.643738 
L 382.536 217.324753 
L 383.8752 217.611635 
L 385.2144 217.818799 
L 388.5624 218.351191 
L 391.2408 218.411456 
L 392.58 218.767717 
L 394.5888 218.844106 
L 397.2672 218.685271 
L 398.6064 218.547997 
L 401.9544 218.803284 
L 403.9632 218.881273 
L 405.3024 219.097623 
L 406.6416 219.230215 
L 408.6504 219.308454 
L 409.9896 219.393871 
L 412.668 219.23332 
L 416.6856 218.715265 
L 421.3728 217.875963 
L 427.3992 216.713765 
L 428.7384 216.610387 
L 432.0864 216.003858 
L 437.4432 214.789567 
L 441.4608 213.358215 
L 450.1656 210.433223 
L 473.6016 202.73303 
L 474.9408 202.566886 
L 477.6192 202.139876 
L 478.9584 202.116424 
L 480.9672 201.852574 
L 484.3152 201.248535 
L 484.9848 201.257699 
L 486.9936 201.658287 
L 489.0024 201.7552 
L 494.3592 204.733229 
L 495.6984 205.661327 
L 499.0464 207.002768 
L 503.7336 207.971515 
L 504.4032 208.027416 
L 505.7424 208.406505 
L 508.4208 208.806654 
L 511.0992 210.792557 
L 512.4384 211.255725 
L 514.4472 211.777181 
L 515.1168 211.987442 
L 516.456 212.816986 
L 517.1256 213.056262 
L 519.804 215.035879 
L 521.1432 215.532804 
L 523.8216 216.207458 
L 525.8304 217.148962 
L 528.5088 218.156586 
L 530.5176 218.61666 
L 531.8568 218.923367 
L 533.8656 219.117724 
L 536.544 219.169144 
L 539.892 219.019216 
L 543.9096 218.609682 
L 548.5968 217.893675 
L 553.9536 216.843373 
L 560.6496 215.286446 
L 570.024 212.850477 
L 572.0328 212.219477 
L 580.068 209.241704 
L 590.7816 205.380993 
L 596.1384 203.218827 
L 599.4864 201.561314 
L 600.8256 200.707188 
L 603.504 198.591656 
L 604.1736 197.780548 
L 604.8432 196.621586 
L 605.5128 194.59659 
L 606.1824 189.316769 
L 606.852 164.689261 
L 607.5216 64.883747 
L 608.1912 54.851012 
L 608.8608 76.364621 
L 609.5304 92.562387 
L 610.8696 117.499287 
L 612.8784 150.092124 
L 614.8872 178.936621 
L 615.5568 187.478689 
L 616.2264 194.590973 
L 616.896 199.747977 
L 617.5656 203.20428 
L 618.2352 205.567254 
L 618.9048 207.271914 
L 619.5744 208.549219 
L 620.244 209.524334 
L 620.9136 210.272262 
L 622.2528 211.267295 
L 624.2616 212.191808 
L 625.6008 212.53195 
L 626.2704 212.807496 
L 626.94 212.958421 
L 628.2792 212.95917 
L 630.288 212.770669 
L 631.6272 213.214727 
L 632.9664 213.180916 
L 633.636 213.086462 
L 634.9752 213.11641 
L 635.6448 213.042072 
L 636.984 213.095972 
L 637.6536 213.033138 
L 639.6624 214.106171 
L 643.0104 214.793536 
L 644.3496 215.247546 
L 645.6888 215.531011 
L 647.028 215.744406 
L 647.6976 215.775537 
L 649.0368 216.200308 
L 650.376 216.475663 
L 651.0456 216.525753 
L 652.3848 216.827686 
L 653.0544 216.89223 
L 654.3936 217.350309 
L 658.4112 218.614313 
L 660.42 219.64522 
L 661.7592 219.950064 
L 663.768 220.155804 
L 666.4464 220.198377 
L 667.7856 220.152694 
L 669.7944 220.352936 
L 672.4728 220.234463 
L 676.4904 219.783574 
L 681.1776 219.004528 
L 686.5344 217.880759 
L 693.2304 216.241711 
L 693.9 216.067507 
L 695.9088 215.908178 
L 699.2568 215.223334 
L 705.2832 213.740518 
L 739.4328 201.884565 
L 742.1112 200.680816 
L 742.7808 200.332227 
L 745.4592 199.531702 
L 746.7984 198.903186 
L 748.1376 198.185915 
L 749.4768 197.40297 
L 750.1464 196.834951 
L 750.816 195.995141 
L 751.4856 194.650385 
L 752.1552 192.036388 
L 752.8248 183.397511 
L 753.4944 141.776629 
L 754.164 68.943433 
L 754.8336 66.610817 
L 756.1728 95.927937 
L 758.1816 131.553834 
L 760.1904 162.733284 
L 762.1992 190.32655 
L 762.8688 197.513982 
L 763.5384 202.551428 
L 764.208 205.820151 
L 764.8776 208.047759 
L 766.2168 211.020278 
L 766.8864 212.066391 
L 767.556 212.847072 
L 769.5648 214.502042 
L 770.2344 214.974675 
L 771.5736 215.452951 
L 772.9128 215.874581 
L 774.252 216.220434 
L 775.5912 216.233909 
L 777.6 216.109938 
L 777.6 216.109938 
" clip-path="url(#p6f1b1c27d4)" style="fill: none; stroke: #000000; stroke-width: 1.5; stroke-linecap: square"/>
   </g>
   <g id="line2d_24">
    <path d="M 108 133.082762 
L 112.6872 134.126536 
L 117.3744 135.23067 
L 120.0528 136.119108 
L 123.4008 137.463228 
L 128.088 139.288782 
L 138.132 143.025453 
L 142.1496 145.149636 
L 146.8368 147.830058 
L 150.1848 149.951416 
L 154.2024 152.829643 
L 157.5504 155.463774 
L 160.8984 158.371675 
L 164.2464 161.59761 
L 167.5944 165.136936 
L 168.9336 166.622791 
L 169.6032 144.0595 
L 170.2728 139.403286 
L 170.9424 136.846406 
L 171.612 135.397468 
L 172.2816 134.497809 
L 172.9512 133.892015 
L 174.2904 133.08809 
L 178.9776 130.988981 
L 182.9952 129.333498 
L 185.6736 128.450248 
L 189.0216 127.606952 
L 192.3696 126.999112 
L 196.3872 126.50052 
L 200.4048 126.212499 
L 206.4312 126.114367 
L 210.4488 126.258504 
L 221.832 126.907322 
L 229.1976 127.355063 
L 233.8848 128.171324 
L 236.5632 128.818458 
L 239.9112 129.962579 
L 247.2768 132.694075 
L 251.964 134.407304 
L 265.356 139.543538 
L 269.3736 141.23792 
L 275.4 143.963746 
L 283.4352 147.813497 
L 287.4528 150.077264 
L 292.14 152.97905 
L 294.8184 154.906258 
L 298.1664 157.590041 
L 301.5144 160.530141 
L 302.8536 161.776369 
L 303.5232 141.475709 
L 304.1928 137.578066 
L 304.8624 135.404567 
L 305.532 134.188484 
L 306.2016 133.447075 
L 307.5408 132.595974 
L 310.2192 131.52627 
L 318.924 128.201997 
L 322.272 127.325397 
L 325.62 126.684548 
L 329.6376 126.140127 
L 334.9944 125.655354 
L 341.6904 125.063301 
L 343.0296 124.773965 
L 343.6992 124.458314 
L 344.3688 123.456393 
L 345.0384 119.576116 
L 345.708 114.309134 
L 346.3776 109.951079 
L 347.0472 107.258616 
L 347.7168 106.041992 
L 348.3864 105.890058 
L 349.056 106.452586 
L 349.7256 107.48493 
L 351.0648 110.365365 
L 353.0736 115.583277 
L 355.0824 120.701591 
L 356.4216 123.390301 
L 357.7608 125.414461 
L 359.1 126.937173 
L 360.4392 128.116086 
L 361.7784 129.034112 
L 363.7872 130.111244 
L 365.796 130.965333 
L 368.4744 131.841648 
L 371.8224 132.69069 
L 375.1704 133.453808 
L 389.232 137.556476 
L 395.2584 139.583914 
L 403.2936 142.462004 
L 406.6416 143.937145 
L 411.3288 146.298833 
L 418.0248 149.977515 
L 422.712 152.811166 
L 426.7296 155.512325 
L 429.408 157.582171 
L 432.756 160.530648 
L 436.104 163.771737 
L 436.7736 164.449627 
L 437.4432 142.871404 
L 438.1128 138.582436 
L 438.7824 136.202266 
L 439.452 134.858213 
L 440.1216 134.028171 
L 440.7912 133.471362 
L 442.1304 132.730224 
L 448.8264 129.870492 
L 452.1744 128.637162 
L 455.5224 127.694934 
L 458.8704 127.007734 
L 462.888 126.440256 
L 467.5752 126.021493 
L 473.6016 125.731437 
L 477.6192 125.751237 
L 484.3152 126.071243 
L 487.6632 126.372005 
L 491.0112 126.845251 
L 493.6896 127.433929 
L 511.7688 132.053636 
L 519.804 134.895898 
L 524.4912 136.830276 
L 528.5088 138.582986 
L 539.892 143.637056 
L 547.9272 147.22786 
L 553.284 149.850253 
L 557.9712 152.389706 
L 561.9888 154.804205 
L 566.0064 157.480899 
L 570.024 160.439387 
L 570.6936 160.958835 
L 571.3632 140.999807 
L 572.0328 137.187045 
L 572.7024 135.045136 
L 573.372 133.838888 
L 574.0416 133.096839 
L 575.3808 132.231472 
L 578.0592 131.126062 
L 586.0944 127.969863 
L 589.4424 127.030642 
L 592.7904 126.327263 
L 596.808 125.708029 
L 605.5128 124.454982 
L 606.1824 124.145582 
L 606.852 123.168411 
L 607.5216 119.36774 
L 608.8608 109.804026 
L 609.5304 107.107009 
L 610.2 105.881653 
L 610.8696 105.719503 
L 611.5392 106.270065 
L 612.2088 107.288144 
L 613.548 110.131963 
L 615.5568 115.30104 
L 617.5656 120.354163 
L 618.9048 122.948835 
L 620.244 124.853972 
L 621.5832 126.237449 
L 622.9224 127.257288 
L 624.2616 128.036908 
L 626.2704 128.922806 
L 628.2792 129.609452 
L 630.9576 130.271249 
L 635.6448 131.266593 
L 639.6624 132.09475 
L 648.3672 134.480089 
L 654.3936 136.315634 
L 658.4112 137.766376 
L 661.7592 139.222295 
L 666.4464 141.219367 
L 673.1424 144.050115 
L 681.8472 147.959147 
L 687.204 150.618936 
L 691.8912 153.211118 
L 695.2392 155.282616 
L 697.9176 157.217223 
L 701.2656 159.894267 
L 704.6136 162.810471 
L 705.2832 141.982383 
L 705.9528 137.928171 
L 706.6224 135.662474 
L 707.292 134.384045 
L 707.9616 133.595802 
L 709.3008 132.677357 
L 711.9792 131.528506 
L 719.3448 128.559911 
L 722.6928 127.568728 
L 726.0408 126.84117 
L 730.0584 126.233597 
L 734.7456 125.778613 
L 741.4416 125.391482 
L 748.1376 125.174649 
L 751.4856 124.961167 
L 752.1552 124.807718 
L 752.8248 124.412484 
L 753.4944 122.845443 
L 754.164 118.85637 
L 754.8336 114.040267 
L 755.5032 110.155139 
L 756.1728 107.74837 
L 756.8424 106.667876 
L 757.512 106.578301 
L 758.1816 107.176395 
L 758.8512 108.238737 
L 760.1904 111.188122 
L 762.1992 116.5868 
L 764.208 121.932848 
L 765.5472 124.699269 
L 766.8864 126.7687 
L 768.2256 128.317348 
L 769.5648 129.50035 
L 770.904 130.455377 
L 772.9128 131.577654 
L 774.9216 132.463464 
L 777.6 133.362162 
L 777.6 133.362162 
" clip-path="url(#p6f1b1c27d4)" style="fill: none; stroke: #4169e1; stroke-width: 1.5; stroke-linecap: square"/>
   </g>
   <g id="patch_3">
    <path d="M 108 256.32 
L 108 34.56 
" style="fill: none; stroke: #000000; stroke-width: 0.8; stroke-linejoin: miter; stroke-linecap: square"/>
   </g>
   <g id="patch_4">
    <path d="M 777.6 256.32 
L 777.6 34.56 
" style="fill: none; stroke: #000000; stroke-width: 0.8; stroke-linejoin: miter; stroke-linecap: square"/>
   </g>
   <g id="patch_5">
    <path d="M 108 256.32 
L 777.6 256.32 
" style="fill: none; stroke: #000000; stroke-width: 0.8; stroke-linejoin: miter; stroke-linecap: square"/>
   </g>
   <g id="patch_6">
    <path d="M 108 34.56 
L 777.6 34.56 
" style="fill: none; stroke: #000000; stroke-width: 0.8; stroke-linejoin: miter; stroke-linecap: square"/>
   </g>
   <g id="legend_1">
    <g id="patch_7">
     <path d="M 115 71.91625 
L 190.501563 71.91625 
Q 192.501563 71.91625 192.501563 69.91625 
L 192.501563 41.56 
Q 192.501563 39.56 190.501563 39.56 
L 115 39.56 
Q 113 39.56 113 41.56 
L 113 69.91625 
Q 113 71.91625 115 71.91625 
z
" style="fill: #ffffff; opacity: 0.8; stroke: #cccccc; stroke-linejoin: miter"/>
    </g>
    <g id="line2d_25">
     <path d="M 117 47.658437 
L 127 47.658437 
L 137 47.658437 
" style="fill: none; stroke: #000000; stroke-width: 1.5; stroke-linecap: square"/>
    </g>
    <g id="text_14">
     <!-- Soma -->
     <g transform="translate(145 51.158437) scale(0.1 -0.1)">
      <defs>
       <path id="DejaVuSans-53" d="M 3425 4513 
L 3425 3897 
Q 3066 4069 2747 4153 
Q 2428 4238 2131 4238 
Q 1616 4238 1336 4038 
Q 1056 3838 1056 3469 
Q 1056 3159 1242 3001 
Q 1428 2844 1947 2747 
L 2328 2669 
Q 3034 2534 3370 2195 
Q 3706 1856 3706 1288 
Q 3706 609 3251 259 
Q 2797 -91 1919 -91 
Q 1588 -91 1214 -16 
Q 841 59 441 206 
L 441 856 
Q 825 641 1194 531 
Q 1563 422 1919 422 
Q 2459 422 2753 634 
Q 3047 847 3047 1241 
Q 3047 1584 2836 1778 
Q 2625 1972 2144 2069 
L 1759 2144 
Q 1053 2284 737 2584 
Q 422 2884 422 3419 
Q 422 4038 858 4394 
Q 1294 4750 2059 4750 
Q 2388 4750 2728 4690 
Q 3069 4631 3425 4513 
z
" transform="scale(0.015625)"/>
       <path id="DejaVuSans-6f" d="M 1959 3097 
Q 1497 3097 1228 2736 
Q 959 2375 959 1747 
Q 959 1119 1226 758 
Q 1494 397 1959 397 
Q 2419 397 2687 759 
Q 2956 1122 2956 1747 
Q 2956 2369 2687 2733 
Q 2419 3097 1959 3097 
z
M 1959 3584 
Q 2709 3584 3137 3096 
Q 3566 2609 3566 1747 
Q 3566 888 3137 398 
Q 2709 -91 1959 -91 
Q 1206 -91 779 398 
Q 353 888 353 1747 
Q 353 2609 779 3096 
Q 1206 3584 1959 3584 
z
" transform="scale(0.015625)"/>
       <path id="DejaVuSans-61" d="M 2194 1759 
Q 1497 1759 1228 1600 
Q 959 1441 959 1056 
Q 959 750 1161 570 
Q 1363 391 1709 391 
Q 2188 391 2477 730 
Q 2766 1069 2766 1631 
L 2766 1759 
L 2194 1759 
z
M 3341 1997 
L 3341 0 
L 2766 0 
L 2766 531 
Q 2569 213 2275 61 
Q 1981 -91 1556 -91 
Q 1019 -91 701 211 
Q 384 513 384 1019 
Q 384 1609 779 1909 
Q 1175 2209 1959 2209 
L 2766 2209 
L 2766 2266 
Q 2766 2663 2505 2880 
Q 2244 3097 1772 3097 
Q 1472 3097 1187 3025 
Q 903 2953 641 2809 
L 641 3341 
Q 956 3463 1253 3523 
Q 1550 3584 1831 3584 
Q 2591 3584 2966 3190 
Q 3341 2797 3341 1997 
z
" transform="scale(0.015625)"/>
      </defs>
      <use xlink:href="#DejaVuSans-53"/>
      <use xlink:href="#DejaVuSans-6f" x="63.476562"/>
      <use xlink:href="#DejaVuSans-6d" x="124.658203"/>
      <use xlink:href="#DejaVuSans-61" x="222.070312"/>
     </g>
    </g>
    <g id="line2d_26">
     <path d="M 117 62.336562 
L 127 62.336562 
L 137 62.336562 
" style="fill: none; stroke: #4169e1; stroke-width: 1.5; stroke-linecap: square"/>
    </g>
    <g id="text_15">
     <!-- Dendrite -->
     <g transform="translate(145 65.836562) scale(0.1 -0.1)">
      <defs>
       <path id="DejaVuSans-44" d="M 1259 4147 
L 1259 519 
L 2022 519 
Q 2988 519 3436 956 
Q 3884 1394 3884 2338 
Q 3884 3275 3436 3711 
Q 2988 4147 2022 4147 
L 1259 4147 
z
M 628 4666 
L 1925 4666 
Q 3281 4666 3915 4102 
Q 4550 3538 4550 2338 
Q 4550 1131 3912 565 
Q 3275 0 1925 0 
L 628 0 
L 628 4666 
z
" transform="scale(0.015625)"/>
       <path id="DejaVuSans-6e" d="M 3513 2113 
L 3513 0 
L 2938 0 
L 2938 2094 
Q 2938 2591 2744 2837 
Q 2550 3084 2163 3084 
Q 1697 3084 1428 2787 
Q 1159 2491 1159 1978 
L 1159 0 
L 581 0 
L 581 3500 
L 1159 3500 
L 1159 2956 
Q 1366 3272 1645 3428 
Q 1925 3584 2291 3584 
Q 2894 3584 3203 3211 
Q 3513 2838 3513 2113 
z
" transform="scale(0.015625)"/>
       <path id="DejaVuSans-64" d="M 2906 2969 
L 2906 4863 
L 3481 4863 
L 3481 0 
L 2906 0 
L 2906 525 
Q 2725 213 2448 61 
Q 2172 -91 1784 -91 
Q 1150 -91 751 415 
Q 353 922 353 1747 
Q 353 2572 751 3078 
Q 1150 3584 1784 3584 
Q 2172 3584 2448 3432 
Q 2725 3281 2906 2969 
z
M 947 1747 
Q 947 1113 1208 752 
Q 1469 391 1925 391 
Q 2381 391 2643 752 
Q 2906 1113 2906 1747 
Q 2906 2381 2643 2742 
Q 2381 3103 1925 3103 
Q 1469 3103 1208 2742 
Q 947 2381 947 1747 
z
" transform="scale(0.015625)"/>
       <path id="DejaVuSans-72" d="M 2631 2963 
Q 2534 3019 2420 3045 
Q 2306 3072 2169 3072 
Q 1681 3072 1420 2755 
Q 1159 2438 1159 1844 
L 1159 0 
L 581 0 
L 581 3500 
L 1159 3500 
L 1159 2956 
Q 1341 3275 1631 3429 
Q 1922 3584 2338 3584 
Q 2397 3584 2469 3576 
Q 2541 3569 2628 3553 
L 2631 2963 
z
" transform="scale(0.015625)"/>
       <path id="DejaVuSans-74" d="M 1172 4494 
L 1172 3500 
L 2356 3500 
L 2356 3053 
L 1172 3053 
L 1172 1153 
Q 1172 725 1289 603 
Q 1406 481 1766 481 
L 2356 481 
L 2356 0 
L 1766 0 
Q 1100 0 847 248 
Q 594 497 594 1153 
L 594 3053 
L 172 3053 
L 172 3500 
L 594 3500 
L 594 4494 
L 1172 4494 
z
" transform="scale(0.015625)"/>
      </defs>
      <use xlink:href="#DejaVuSans-44"/>
      <use xlink:href="#DejaVuSans-65" x="77.001953"/>
      <use xlink:href="#DejaVuSans-6e" x="138.525391"/>
      <use xlink:href="#DejaVuSans-64" x="201.904297"/>
      <use xlink:href="#DejaVuSans-72" x="265.380859"/>
      <use xlink:href="#DejaVuSans-69" x="306.494141"/>
      <use xlink:href="#DejaVuSans-74" x="334.277344"/>
      <use xlink:href="#DejaVuSans-65" x="373.486328"/>
     </g>
    </g>
   </g>
  </g>
 </g>
 <defs>
  <clipPath id="p6f1b1c27d4">
   <rect x="108" y="34.56" width="669.6" height="221.76"/>
  </clipPath>
 </defs>
</svg>
