<?xml version="1.0" encoding="utf-8" standalone="no"?>
<!DOCTYPE svg PUBLIC "-//W3C//DTD SVG 1.1//EN"
  "http://www.w3.org/Graphics/SVG/1.1/DTD/svg11.dtd">
<svg xmlns:xlink="http://www.w3.org/1999/xlink" width="864pt" height="288pt" viewBox="0 0 864 288" xmlns="http://www.w3.org/2000/svg" version="1.1">
 <metadata>
  <rdf:RDF xmlns:dc="http://purl.org/dc/elements/1.1/" xmlns:cc="http://creativecommons.org/ns#" xmlns:rdf="http://www.w3.org/1999/02/22-rdf-syntax-ns#">
   <cc:Work>
    <dc:type rdf:resource="http://purl.org/dc/dcmitype/StillImage"/>
    <dc:date>2024-04-12T18:08:01.363904</dc:date>
    <dc:format>image/svg+xml</dc:format>
    <dc:creator>
     <cc:Agent>
      <dc:title>Matplotlib v3.8.2, https://matplotlib.org/</dc:title>
     </cc:Agent>
    </dc:creator>
   </cc:Work>
  </rdf:RDF>
 </metadata>
 <defs>
  <style type="text/css">*{stroke-linejoin: round; stroke-linecap: butt}</style>
 </defs>
 <g id="figure_1">
  <g id="patch_1">
   <path d="M 0 288 
L 864 288 
L 864 0 
L 0 0 
z
" style="fill: #ffffff"/>
  </g>
  <g id="axes_1">
   <g id="patch_2">
    <path d="M 108 256.32 
L 777.6 256.32 
L 777.6 34.56 
L 108 34.56 
z
" style="fill: #ffffff"/>
   </g>
   <g id="matplotlib.axis_1">
    <g id="xtick_1">
     <g id="line2d_1">
      <path d="M 108 256.32 
L 108 34.56 
" clip-path="url(#p043f57676d)" style="fill: none; stroke: #b0b0b0; stroke-width: 0.8; stroke-linecap: square"/>
     </g>
     <g id="line2d_2">
      <defs>
       <path id="m4b3be64ce3" d="M 0 0 
L 0 3.5 
" style="stroke: #000000; stroke-width: 0.8"/>
      </defs>
      <g>
       <use xlink:href="#m4b3be64ce3" x="108" y="256.32" style="stroke: #000000; stroke-width: 0.8"/>
      </g>
     </g>
     <g id="text_1">
      <!-- 100 -->
      <g transform="translate(94.63875 273.957812) scale(0.14 -0.14)">
       <defs>
        <path id="DejaVuSans-31" d="M 794 531 
L 1825 531 
L 1825 4091 
L 703 3866 
L 703 4441 
L 1819 4666 
L 2450 4666 
L 2450 531 
L 3481 531 
L 3481 0 
L 794 0 
L 794 531 
z
" transform="scale(0.015625)"/>
        <path id="DejaVuSans-30" d="M 2034 4250 
Q 1547 4250 1301 3770 
Q 1056 3291 1056 2328 
Q 1056 1369 1301 889 
Q 1547 409 2034 409 
Q 2525 409 2770 889 
Q 3016 1369 3016 2328 
Q 3016 3291 2770 3770 
Q 2525 4250 2034 4250 
z
M 2034 4750 
Q 2819 4750 3233 4129 
Q 3647 3509 3647 2328 
Q 3647 1150 3233 529 
Q 2819 -91 2034 -91 
Q 1250 -91 836 529 
Q 422 1150 422 2328 
Q 422 3509 836 4129 
Q 1250 4750 2034 4750 
z
" transform="scale(0.015625)"/>
       </defs>
       <use xlink:href="#DejaVuSans-31"/>
       <use xlink:href="#DejaVuSans-30" x="63.623047"/>
       <use xlink:href="#DejaVuSans-30" x="127.246094"/>
      </g>
     </g>
    </g>
    <g id="xtick_2">
     <g id="line2d_3">
      <path d="M 241.92 256.32 
L 241.92 34.56 
" clip-path="url(#p043f57676d)" style="fill: none; stroke: #b0b0b0; stroke-width: 0.8; stroke-linecap: square"/>
     </g>
     <g id="line2d_4">
      <g>
       <use xlink:href="#m4b3be64ce3" x="241.92" y="256.32" style="stroke: #000000; stroke-width: 0.8"/>
      </g>
     </g>
     <g id="text_2">
      <!-- 120 -->
      <g transform="translate(228.55875 273.957812) scale(0.14 -0.14)">
       <defs>
        <path id="DejaVuSans-32" d="M 1228 531 
L 3431 531 
L 3431 0 
L 469 0 
L 469 531 
Q 828 903 1448 1529 
Q 2069 2156 2228 2338 
Q 2531 2678 2651 2914 
Q 2772 3150 2772 3378 
Q 2772 3750 2511 3984 
Q 2250 4219 1831 4219 
Q 1534 4219 1204 4116 
Q 875 4013 500 3803 
L 500 4441 
Q 881 4594 1212 4672 
Q 1544 4750 1819 4750 
Q 2544 4750 2975 4387 
Q 3406 4025 3406 3419 
Q 3406 3131 3298 2873 
Q 3191 2616 2906 2266 
Q 2828 2175 2409 1742 
Q 1991 1309 1228 531 
z
" transform="scale(0.015625)"/>
       </defs>
       <use xlink:href="#DejaVuSans-31"/>
       <use xlink:href="#DejaVuSans-32" x="63.623047"/>
       <use xlink:href="#DejaVuSans-30" x="127.246094"/>
      </g>
     </g>
    </g>
    <g id="xtick_3">
     <g id="line2d_5">
      <path d="M 375.84 256.32 
L 375.84 34.56 
" clip-path="url(#p043f57676d)" style="fill: none; stroke: #b0b0b0; stroke-width: 0.8; stroke-linecap: square"/>
     </g>
     <g id="line2d_6">
      <g>
       <use xlink:href="#m4b3be64ce3" x="375.84" y="256.32" style="stroke: #000000; stroke-width: 0.8"/>
      </g>
     </g>
     <g id="text_3">
      <!-- 140 -->
      <g transform="translate(362.47875 273.957812) scale(0.14 -0.14)">
       <defs>
        <path id="DejaVuSans-34" d="M 2419 4116 
L 825 1625 
L 2419 1625 
L 2419 4116 
z
M 2253 4666 
L 3047 4666 
L 3047 1625 
L 3713 1625 
L 3713 1100 
L 3047 1100 
L 3047 0 
L 2419 0 
L 2419 1100 
L 313 1100 
L 313 1709 
L 2253 4666 
z
" transform="scale(0.015625)"/>
       </defs>
       <use xlink:href="#DejaVuSans-31"/>
       <use xlink:href="#DejaVuSans-34" x="63.623047"/>
       <use xlink:href="#DejaVuSans-30" x="127.246094"/>
      </g>
     </g>
    </g>
    <g id="xtick_4">
     <g id="line2d_7">
      <path d="M 509.76 256.32 
L 509.76 34.56 
" clip-path="url(#p043f57676d)" style="fill: none; stroke: #b0b0b0; stroke-width: 0.8; stroke-linecap: square"/>
     </g>
     <g id="line2d_8">
      <g>
       <use xlink:href="#m4b3be64ce3" x="509.76" y="256.32" style="stroke: #000000; stroke-width: 0.8"/>
      </g>
     </g>
     <g id="text_4">
      <!-- 160 -->
      <g transform="translate(496.39875 273.957812) scale(0.14 -0.14)">
       <defs>
        <path id="DejaVuSans-36" d="M 2113 2584 
Q 1688 2584 1439 2293 
Q 1191 2003 1191 1497 
Q 1191 994 1439 701 
Q 1688 409 2113 409 
Q 2538 409 2786 701 
Q 3034 994 3034 1497 
Q 3034 2003 2786 2293 
Q 2538 2584 2113 2584 
z
M 3366 4563 
L 3366 3988 
Q 3128 4100 2886 4159 
Q 2644 4219 2406 4219 
Q 1781 4219 1451 3797 
Q 1122 3375 1075 2522 
Q 1259 2794 1537 2939 
Q 1816 3084 2150 3084 
Q 2853 3084 3261 2657 
Q 3669 2231 3669 1497 
Q 3669 778 3244 343 
Q 2819 -91 2113 -91 
Q 1303 -91 875 529 
Q 447 1150 447 2328 
Q 447 3434 972 4092 
Q 1497 4750 2381 4750 
Q 2619 4750 2861 4703 
Q 3103 4656 3366 4563 
z
" transform="scale(0.015625)"/>
       </defs>
       <use xlink:href="#DejaVuSans-31"/>
       <use xlink:href="#DejaVuSans-36" x="63.623047"/>
       <use xlink:href="#DejaVuSans-30" x="127.246094"/>
      </g>
     </g>
    </g>
    <g id="xtick_5">
     <g id="line2d_9">
      <path d="M 643.68 256.32 
L 643.68 34.56 
" clip-path="url(#p043f57676d)" style="fill: none; stroke: #b0b0b0; stroke-width: 0.8; stroke-linecap: square"/>
     </g>
     <g id="line2d_10">
      <g>
       <use xlink:href="#m4b3be64ce3" x="643.68" y="256.32" style="stroke: #000000; stroke-width: 0.8"/>
      </g>
     </g>
     <g id="text_5">
      <!-- 180 -->
      <g transform="translate(630.31875 273.957812) scale(0.14 -0.14)">
       <defs>
        <path id="DejaVuSans-38" d="M 2034 2216 
Q 1584 2216 1326 1975 
Q 1069 1734 1069 1313 
Q 1069 891 1326 650 
Q 1584 409 2034 409 
Q 2484 409 2743 651 
Q 3003 894 3003 1313 
Q 3003 1734 2745 1975 
Q 2488 2216 2034 2216 
z
M 1403 2484 
Q 997 2584 770 2862 
Q 544 3141 544 3541 
Q 544 4100 942 4425 
Q 1341 4750 2034 4750 
Q 2731 4750 3128 4425 
Q 3525 4100 3525 3541 
Q 3525 3141 3298 2862 
Q 3072 2584 2669 2484 
Q 3125 2378 3379 2068 
Q 3634 1759 3634 1313 
Q 3634 634 3220 271 
Q 2806 -91 2034 -91 
Q 1263 -91 848 271 
Q 434 634 434 1313 
Q 434 1759 690 2068 
Q 947 2378 1403 2484 
z
M 1172 3481 
Q 1172 3119 1398 2916 
Q 1625 2713 2034 2713 
Q 2441 2713 2670 2916 
Q 2900 3119 2900 3481 
Q 2900 3844 2670 4047 
Q 2441 4250 2034 4250 
Q 1625 4250 1398 4047 
Q 1172 3844 1172 3481 
z
" transform="scale(0.015625)"/>
       </defs>
       <use xlink:href="#DejaVuSans-31"/>
       <use xlink:href="#DejaVuSans-38" x="63.623047"/>
       <use xlink:href="#DejaVuSans-30" x="127.246094"/>
      </g>
     </g>
    </g>
    <g id="xtick_6">
     <g id="line2d_11">
      <path d="M 777.6 256.32 
L 777.6 34.56 
" clip-path="url(#p043f57676d)" style="fill: none; stroke: #b0b0b0; stroke-width: 0.8; stroke-linecap: square"/>
     </g>
     <g id="line2d_12">
      <g>
       <use xlink:href="#m4b3be64ce3" x="777.6" y="256.32" style="stroke: #000000; stroke-width: 0.8"/>
      </g>
     </g>
     <g id="text_6">
      <!-- 200 -->
      <g transform="translate(764.23875 273.957812) scale(0.14 -0.14)">
       <use xlink:href="#DejaVuSans-32"/>
       <use xlink:href="#DejaVuSans-30" x="63.623047"/>
       <use xlink:href="#DejaVuSans-30" x="127.246094"/>
      </g>
     </g>
    </g>
    <g id="text_7">
     <!-- Time (ms) -->
     <g transform="translate(407.521094 291.507187) scale(0.14 -0.14)">
      <defs>
       <path id="DejaVuSans-54" d="M -19 4666 
L 3928 4666 
L 3928 4134 
L 2272 4134 
L 2272 0 
L 1638 0 
L 1638 4134 
L -19 4134 
L -19 4666 
z
" transform="scale(0.015625)"/>
       <path id="DejaVuSans-69" d="M 603 3500 
L 1178 3500 
L 1178 0 
L 603 0 
L 603 3500 
z
M 603 4863 
L 1178 4863 
L 1178 4134 
L 603 4134 
L 603 4863 
z
" transform="scale(0.015625)"/>
       <path id="DejaVuSans-6d" d="M 3328 2828 
Q 3544 3216 3844 3400 
Q 4144 3584 4550 3584 
Q 5097 3584 5394 3201 
Q 5691 2819 5691 2113 
L 5691 0 
L 5113 0 
L 5113 2094 
Q 5113 2597 4934 2840 
Q 4756 3084 4391 3084 
Q 3944 3084 3684 2787 
Q 3425 2491 3425 1978 
L 3425 0 
L 2847 0 
L 2847 2094 
Q 2847 2600 2669 2842 
Q 2491 3084 2119 3084 
Q 1678 3084 1418 2786 
Q 1159 2488 1159 1978 
L 1159 0 
L 581 0 
L 581 3500 
L 1159 3500 
L 1159 2956 
Q 1356 3278 1631 3431 
Q 1906 3584 2284 3584 
Q 2666 3584 2933 3390 
Q 3200 3197 3328 2828 
z
" transform="scale(0.015625)"/>
       <path id="DejaVuSans-65" d="M 3597 1894 
L 3597 1613 
L 953 1613 
Q 991 1019 1311 708 
Q 1631 397 2203 397 
Q 2534 397 2845 478 
Q 3156 559 3463 722 
L 3463 178 
Q 3153 47 2828 -22 
Q 2503 -91 2169 -91 
Q 1331 -91 842 396 
Q 353 884 353 1716 
Q 353 2575 817 3079 
Q 1281 3584 2069 3584 
Q 2775 3584 3186 3129 
Q 3597 2675 3597 1894 
z
M 3022 2063 
Q 3016 2534 2758 2815 
Q 2500 3097 2075 3097 
Q 1594 3097 1305 2825 
Q 1016 2553 972 2059 
L 3022 2063 
z
" transform="scale(0.015625)"/>
       <path id="DejaVuSans-20" transform="scale(0.015625)"/>
       <path id="DejaVuSans-28" d="M 1984 4856 
Q 1566 4138 1362 3434 
Q 1159 2731 1159 2009 
Q 1159 1288 1364 580 
Q 1569 -128 1984 -844 
L 1484 -844 
Q 1016 -109 783 600 
Q 550 1309 550 2009 
Q 550 2706 781 3412 
Q 1013 4119 1484 4856 
L 1984 4856 
z
" transform="scale(0.015625)"/>
       <path id="DejaVuSans-73" d="M 2834 3397 
L 2834 2853 
Q 2591 2978 2328 3040 
Q 2066 3103 1784 3103 
Q 1356 3103 1142 2972 
Q 928 2841 928 2578 
Q 928 2378 1081 2264 
Q 1234 2150 1697 2047 
L 1894 2003 
Q 2506 1872 2764 1633 
Q 3022 1394 3022 966 
Q 3022 478 2636 193 
Q 2250 -91 1575 -91 
Q 1294 -91 989 -36 
Q 684 19 347 128 
L 347 722 
Q 666 556 975 473 
Q 1284 391 1588 391 
Q 1994 391 2212 530 
Q 2431 669 2431 922 
Q 2431 1156 2273 1281 
Q 2116 1406 1581 1522 
L 1381 1569 
Q 847 1681 609 1914 
Q 372 2147 372 2553 
Q 372 3047 722 3315 
Q 1072 3584 1716 3584 
Q 2034 3584 2315 3537 
Q 2597 3491 2834 3397 
z
" transform="scale(0.015625)"/>
       <path id="DejaVuSans-29" d="M 513 4856 
L 1013 4856 
Q 1481 4119 1714 3412 
Q 1947 2706 1947 2009 
Q 1947 1309 1714 600 
Q 1481 -109 1013 -844 
L 513 -844 
Q 928 -128 1133 580 
Q 1338 1288 1338 2009 
Q 1338 2731 1133 3434 
Q 928 4138 513 4856 
z
" transform="scale(0.015625)"/>
      </defs>
      <use xlink:href="#DejaVuSans-54"/>
      <use xlink:href="#DejaVuSans-69" x="57.958984"/>
      <use xlink:href="#DejaVuSans-6d" x="85.742188"/>
      <use xlink:href="#DejaVuSans-65" x="183.154297"/>
      <use xlink:href="#DejaVuSans-20" x="244.677734"/>
      <use xlink:href="#DejaVuSans-28" x="276.464844"/>
      <use xlink:href="#DejaVuSans-6d" x="315.478516"/>
      <use xlink:href="#DejaVuSans-73" x="412.890625"/>
      <use xlink:href="#DejaVuSans-29" x="464.990234"/>
     </g>
    </g>
   </g>
   <g id="matplotlib.axis_2">
    <g id="ytick_1">
     <g id="line2d_13">
      <path d="M 108 225.28942 
L 777.6 225.28942 
" clip-path="url(#p043f57676d)" style="fill: none; stroke: #b0b0b0; stroke-width: 0.8; stroke-linecap: square"/>
     </g>
     <g id="line2d_14">
      <defs>
       <path id="m2ad85c72dd" d="M 0 0 
L -3.5 0 
" style="stroke: #000000; stroke-width: 0.8"/>
      </defs>
      <g>
       <use xlink:href="#m2ad85c72dd" x="108" y="225.28942" style="stroke: #000000; stroke-width: 0.8"/>
      </g>
     </g>
     <g id="text_8">
      <!-- −60 -->
      <g transform="translate(71.453437 230.608326) scale(0.14 -0.14)">
       <defs>
        <path id="DejaVuSans-2212" d="M 678 2272 
L 4684 2272 
L 4684 1741 
L 678 1741 
L 678 2272 
z
" transform="scale(0.015625)"/>
       </defs>
       <use xlink:href="#DejaVuSans-2212"/>
       <use xlink:href="#DejaVuSans-36" x="83.789062"/>
       <use xlink:href="#DejaVuSans-30" x="147.412109"/>
      </g>
     </g>
    </g>
    <g id="ytick_2">
     <g id="line2d_15">
      <path d="M 108 183.455025 
L 777.6 183.455025 
" clip-path="url(#p043f57676d)" style="fill: none; stroke: #b0b0b0; stroke-width: 0.8; stroke-linecap: square"/>
     </g>
     <g id="line2d_16">
      <g>
       <use xlink:href="#m2ad85c72dd" x="108" y="183.455025" style="stroke: #000000; stroke-width: 0.8"/>
      </g>
     </g>
     <g id="text_9">
      <!-- −40 -->
      <g transform="translate(71.453437 188.773931) scale(0.14 -0.14)">
       <use xlink:href="#DejaVuSans-2212"/>
       <use xlink:href="#DejaVuSans-34" x="83.789062"/>
       <use xlink:href="#DejaVuSans-30" x="147.412109"/>
      </g>
     </g>
    </g>
    <g id="ytick_3">
     <g id="line2d_17">
      <path d="M 108 141.62063 
L 777.6 141.62063 
" clip-path="url(#p043f57676d)" style="fill: none; stroke: #b0b0b0; stroke-width: 0.8; stroke-linecap: square"/>
     </g>
     <g id="line2d_18">
      <g>
       <use xlink:href="#m2ad85c72dd" x="108" y="141.62063" style="stroke: #000000; stroke-width: 0.8"/>
      </g>
     </g>
     <g id="text_10">
      <!-- −20 -->
      <g transform="translate(71.453437 146.939536) scale(0.14 -0.14)">
       <use xlink:href="#DejaVuSans-2212"/>
       <use xlink:href="#DejaVuSans-32" x="83.789062"/>
       <use xlink:href="#DejaVuSans-30" x="147.412109"/>
      </g>
     </g>
    </g>
    <g id="ytick_4">
     <g id="line2d_19">
      <path d="M 108 99.786235 
L 777.6 99.786235 
" clip-path="url(#p043f57676d)" style="fill: none; stroke: #b0b0b0; stroke-width: 0.8; stroke-linecap: square"/>
     </g>
     <g id="line2d_20">
      <g>
       <use xlink:href="#m2ad85c72dd" x="108" y="99.786235" style="stroke: #000000; stroke-width: 0.8"/>
      </g>
     </g>
     <g id="text_11">
      <!-- 0 -->
      <g transform="translate(92.0925 105.105141) scale(0.14 -0.14)">
       <use xlink:href="#DejaVuSans-30"/>
      </g>
     </g>
    </g>
    <g id="ytick_5">
     <g id="line2d_21">
      <path d="M 108 57.95184 
L 777.6 57.95184 
" clip-path="url(#p043f57676d)" style="fill: none; stroke: #b0b0b0; stroke-width: 0.8; stroke-linecap: square"/>
     </g>
     <g id="line2d_22">
      <g>
       <use xlink:href="#m2ad85c72dd" x="108" y="57.95184" style="stroke: #000000; stroke-width: 0.8"/>
      </g>
     </g>
     <g id="text_12">
      <!-- 20 -->
      <g transform="translate(83.185 63.270746) scale(0.14 -0.14)">
       <use xlink:href="#DejaVuSans-32"/>
       <use xlink:href="#DejaVuSans-30" x="63.623047"/>
      </g>
     </g>
    </g>
    <g id="text_13">
     <!-- $V_{m}$ (mV) -->
     <g transform="translate(64.541875 174.49) rotate(-90) scale(0.14 -0.14)">
      <defs>
       <path id="DejaVuSans-Oblique-56" d="M 1319 0 
L 500 4666 
L 1119 4666 
L 1797 653 
L 4063 4666 
L 4750 4666 
L 2053 0 
L 1319 0 
z
" transform="scale(0.015625)"/>
       <path id="DejaVuSans-Oblique-6d" d="M 5747 2113 
L 5338 0 
L 4763 0 
L 5166 2094 
Q 5191 2228 5203 2325 
Q 5216 2422 5216 2491 
Q 5216 2772 5059 2928 
Q 4903 3084 4622 3084 
Q 4203 3084 3875 2770 
Q 3547 2456 3450 1953 
L 3066 0 
L 2491 0 
L 2900 2094 
Q 2925 2209 2937 2307 
Q 2950 2406 2950 2484 
Q 2950 2769 2794 2926 
Q 2638 3084 2363 3084 
Q 1938 3084 1609 2770 
Q 1281 2456 1184 1953 
L 800 0 
L 225 0 
L 909 3500 
L 1484 3500 
L 1375 2956 
Q 1609 3263 1923 3423 
Q 2238 3584 2597 3584 
Q 2978 3584 3223 3384 
Q 3469 3184 3519 2828 
Q 3781 3197 4126 3390 
Q 4472 3584 4856 3584 
Q 5306 3584 5551 3325 
Q 5797 3066 5797 2591 
Q 5797 2488 5784 2364 
Q 5772 2241 5747 2113 
z
" transform="scale(0.015625)"/>
       <path id="DejaVuSans-56" d="M 1831 0 
L 50 4666 
L 709 4666 
L 2188 738 
L 3669 4666 
L 4325 4666 
L 2547 0 
L 1831 0 
z
" transform="scale(0.015625)"/>
      </defs>
      <use xlink:href="#DejaVuSans-Oblique-56" transform="translate(0 0.125)"/>
      <use xlink:href="#DejaVuSans-Oblique-6d" transform="translate(68.408203 -16.28125) scale(0.7)"/>
      <use xlink:href="#DejaVuSans-20" transform="translate(139.331055 0.125)"/>
      <use xlink:href="#DejaVuSans-28" transform="translate(171.118164 0.125)"/>
      <use xlink:href="#DejaVuSans-6d" transform="translate(210.131836 0.125)"/>
      <use xlink:href="#DejaVuSans-56" transform="translate(307.543945 0.125)"/>
      <use xlink:href="#DejaVuSans-29" transform="translate(375.952148 0.125)"/>
     </g>
    </g>
   </g>
   <g id="line2d_23">
    <path d="M 108 215.348632 
L 110.0088 215.208722 
L 111.348 215.02925 
L 112.6872 215.094146 
L 114.696 215.054096 
L 116.0352 215.216411 
L 118.044 215.911076 
L 119.3832 216.584208 
L 120.0528 216.745594 
L 121.392 217.437382 
L 122.7312 217.999118 
L 124.0704 218.253837 
L 126.0792 218.403966 
L 128.7576 218.387391 
L 132.1056 218.152396 
L 134.784 217.986931 
L 136.1232 218.144505 
L 137.4624 218.765815 
L 140.8104 219.327359 
L 142.8192 219.349406 
L 143.4888 219.324695 
L 144.828 219.503758 
L 146.8368 219.484568 
L 148.8456 219.471829 
L 150.1848 219.522905 
L 152.8632 219.322884 
L 156.8808 218.776761 
L 162.2376 217.79179 
L 168.9336 216.297917 
L 178.308 213.943708 
L 183.6648 212.463155 
L 191.0304 209.857557 
L 198.396 207.445118 
L 200.4048 207.231406 
L 203.7528 206.454063 
L 205.7616 205.922758 
L 207.7704 205.835828 
L 208.44 205.741565 
L 210.4488 205.840614 
L 212.4576 205.645955 
L 215.8056 205.067802 
L 219.8232 204.151437 
L 223.8408 203.037905 
L 226.5192 202.229671 
L 227.1888 202.152204 
L 229.8672 203.051201 
L 231.876 203.34394 
L 232.5456 203.388577 
L 234.5544 204.091227 
L 235.8936 205.082464 
L 237.2328 206.204473 
L 238.572 207.16791 
L 239.9112 208.21239 
L 241.2504 209.584218 
L 242.5896 210.318633 
L 243.9288 210.765316 
L 244.5984 210.925678 
L 245.9376 211.460227 
L 246.6072 211.631176 
L 248.616 212.609186 
L 250.6248 213.600954 
L 251.964 214.076381 
L 253.9728 214.43243 
L 255.9816 215.469596 
L 257.3208 215.918856 
L 259.3296 216.238139 
L 261.3384 216.526879 
L 262.6776 216.760604 
L 266.0256 217.138371 
L 267.3648 217.499019 
L 269.3736 217.662621 
L 271.3824 217.799835 
L 272.7216 217.941833 
L 275.4 217.897541 
L 278.748 217.619289 
L 282.7656 217.232565 
L 284.1048 217.223495 
L 286.7832 216.921477 
L 292.14 216.159901 
L 293.4792 216.106745 
L 296.8272 215.608659 
L 302.184 214.545413 
L 310.2192 212.685623 
L 316.9152 210.989675 
L 322.9416 208.879187 
L 332.316 205.607595 
L 335.664 204.219905 
L 338.3424 202.903801 
L 339.6816 202.048247 
L 341.0208 200.965999 
L 341.6904 200.262511 
L 342.36 199.317636 
L 343.0296 197.982716 
L 343.6992 195.600953 
L 344.3688 188.971713 
L 345.0384 155.55621 
L 345.708 63.001908 
L 346.3776 66.071463 
L 347.0472 85.849259 
L 348.3864 112.656032 
L 350.3952 145.15991 
L 352.404 173.73362 
L 353.7432 190.46959 
L 354.4128 197.017168 
L 355.0824 201.999552 
L 355.752 205.364846 
L 356.4216 207.637441 
L 357.0912 209.412228 
L 358.4304 211.889186 
L 359.1 212.905676 
L 359.7696 213.668162 
L 361.1088 214.627763 
L 361.7784 214.926615 
L 363.1176 215.79481 
L 364.4568 216.394065 
L 367.1352 216.822963 
L 368.4744 216.936328 
L 369.8136 216.963354 
L 371.8224 216.69214 
L 372.492 216.562718 
L 373.8312 216.811856 
L 375.1704 217.549569 
L 376.5096 217.739575 
L 378.5184 217.679494 
L 379.188 217.618297 
L 379.8576 217.687958 
L 382.536 218.325754 
L 383.8752 218.592994 
L 385.2144 218.78341 
L 388.5624 219.274223 
L 391.2408 219.314309 
L 392.58 219.649943 
L 394.5888 219.710714 
L 397.2672 219.539755 
L 398.6064 219.398384 
L 401.9544 219.624416 
L 403.9632 219.68716 
L 405.3024 219.888008 
L 406.6416 220.00759 
L 408.6504 220.069721 
L 409.9896 220.143044 
L 412.668 219.967581 
L 416.6856 219.4325 
L 421.3728 218.575381 
L 427.3992 217.380941 
L 428.7384 217.263694 
L 432.0864 216.627911 
L 438.1128 215.226463 
L 448.8264 212.46945 
L 451.5048 211.683811 
L 458.8704 209.106107 
L 473.6016 204.376322 
L 474.9408 204.207626 
L 477.6192 203.776938 
L 478.9584 203.744141 
L 481.6368 203.357018 
L 484.3152 202.894722 
L 484.9848 202.901409 
L 486.9936 203.275478 
L 489.0024 203.350069 
L 494.3592 206.154708 
L 495.6984 207.038706 
L 499.0464 208.314374 
L 503.7336 209.231718 
L 504.4032 209.283384 
L 505.7424 209.645316 
L 508.4208 210.023508 
L 511.0992 211.936706 
L 512.4384 212.380882 
L 514.4472 212.879255 
L 515.1168 213.080773 
L 516.456 213.879189 
L 517.1256 214.108586 
L 519.804 216.015314 
L 521.1432 216.491564 
L 523.8216 217.134656 
L 525.8304 218.038191 
L 528.5088 219.002554 
L 533.8656 219.908686 
L 536.544 219.944715 
L 539.892 219.780952 
L 543.9096 219.359818 
L 548.5968 218.63476 
L 553.9536 217.575283 
L 560.6496 216.002496 
L 569.3544 213.705251 
L 584.0856 209.571231 
L 586.764 208.598667 
L 598.1472 204.064106 
L 600.8256 202.654702 
L 604.1736 200.396398 
L 604.8432 199.662736 
L 605.5128 198.639025 
L 606.1824 196.996829 
L 606.852 193.332572 
L 607.5216 177.714013 
L 608.1912 94.447829 
L 608.8608 53.825175 
L 610.2 92.801052 
L 611.5392 118.567477 
L 613.548 150.699087 
L 615.5568 179.043948 
L 616.896 194.714404 
L 617.5656 200.143477 
L 618.2352 203.819632 
L 618.9048 206.312317 
L 619.5744 208.08743 
L 620.244 209.407489 
L 620.9136 210.411852 
L 621.5832 211.182648 
L 622.9224 212.21333 
L 624.2616 213.028514 
L 625.6008 213.511053 
L 626.2704 213.835855 
L 626.94 214.031331 
L 628.2792 214.111242 
L 630.288 214.008213 
L 631.6272 214.465132 
L 632.9664 214.45008 
L 633.636 214.364677 
L 634.9752 214.398857 
L 635.6448 214.327728 
L 636.984 214.376932 
L 637.6536 214.313698 
L 639.6624 215.334143 
L 643.0104 215.968688 
L 644.3496 216.394596 
L 645.6888 216.656078 
L 647.028 216.850091 
L 647.6976 216.874274 
L 649.0368 217.272703 
L 650.376 217.527192 
L 651.0456 217.570048 
L 652.3848 217.850867 
L 653.724 218.073947 
L 655.7328 218.76115 
L 658.4112 219.532149 
L 660.42 220.514632 
L 661.7592 220.800109 
L 663.768 220.985224 
L 666.4464 221.007924 
L 668.4552 221.050256 
L 669.7944 221.134291 
L 672.4728 221.000713 
L 676.4904 220.534627 
L 681.1776 219.743081 
L 686.5344 218.607659 
L 693.2304 216.950846 
L 693.9 216.774353 
L 695.9088 216.597268 
L 699.2568 215.891004 
L 705.9528 214.214811 
L 718.6752 210.784996 
L 740.1024 203.337306 
L 743.4504 201.986728 
L 745.4592 201.421963 
L 749.4768 199.829535 
L 750.816 198.995387 
L 751.4856 198.40843 
L 752.1552 197.535019 
L 752.8248 196.327366 
L 753.4944 193.944138 
L 754.164 185.625421 
L 754.8336 145.867132 
L 755.5032 75.211978 
L 756.1728 72.608775 
L 757.512 101.316372 
L 759.5208 135.270542 
L 761.5296 165.739734 
L 763.5384 192.477332 
L 764.208 199.320687 
L 764.8776 204.072958 
L 765.5472 207.172459 
L 766.2168 209.432853 
L 766.8864 211.082248 
L 767.556 212.300952 
L 768.2256 213.228373 
L 770.2344 215.402359 
L 771.5736 216.140656 
L 772.9128 216.741273 
L 774.252 217.210964 
L 775.5912 217.320827 
L 777.6 217.293351 
L 777.6 217.293351 
" clip-path="url(#p043f57676d)" style="fill: none; stroke: #000000; stroke-width: 1.5; stroke-linecap: square"/>
   </g>
   <g id="line2d_24">
    <path d="M 108 134.685886 
L 112.6872 135.465456 
L 117.3744 136.292692 
L 120.7224 137.178087 
L 129.4272 139.729245 
L 138.132 142.019416 
L 145.4976 144.725588 
L 152.8632 147.64265 
L 161.568 151.354786 
L 166.9248 153.869015 
L 171.612 156.307083 
L 175.6296 158.622925 
L 179.6472 161.178243 
L 182.3256 163.018794 
L 182.9952 144.102781 
L 183.6648 140.499672 
L 184.3344 138.475567 
L 185.004 137.337368 
L 185.6736 136.638259 
L 187.0128 135.823734 
L 189.6912 134.778351 
L 197.7264 131.773111 
L 200.4048 131.073447 
L 203.7528 130.469293 
L 207.1008 130.045575 
L 210.4488 129.86088 
L 219.8232 129.785678 
L 228.528 129.879683 
L 232.5456 130.366556 
L 235.8936 130.909464 
L 238.572 131.609828 
L 241.92 132.670286 
L 245.268 133.685887 
L 253.3032 135.975747 
L 257.9904 137.381221 
L 264.0168 139.126254 
L 269.3736 140.738507 
L 286.1136 146.035503 
L 294.1488 148.944198 
L 300.8448 151.810647 
L 306.2016 154.313827 
L 310.8888 156.729207 
L 315.576 159.398804 
L 316.2456 159.802056 
L 316.9152 142.485793 
L 317.5848 139.265595 
L 318.2544 137.461583 
L 318.924 136.460411 
L 319.5936 135.854781 
L 320.9328 135.157576 
L 331.6464 131.315934 
L 334.9944 130.409748 
L 339.012 129.558971 
L 343.0296 128.700956 
L 343.6992 128.468058 
L 344.3688 128.06131 
L 345.0384 126.756112 
L 345.708 122.715716 
L 346.3776 117.745332 
L 347.0472 113.832847 
L 347.7168 111.502885 
L 348.3864 110.513786 
L 349.056 110.477389 
L 349.7256 111.077252 
L 350.3952 112.094486 
L 351.7344 114.848101 
L 356.4216 125.72932 
L 357.7608 127.800711 
L 359.1 129.323348 
L 360.4392 130.464858 
L 361.7784 131.325484 
L 363.7872 132.298011 
L 365.796 133.037213 
L 368.4744 133.760921 
L 371.8224 134.425399 
L 375.84 135.154318 
L 380.5272 136.090103 
L 385.2144 137.137766 
L 395.928 139.775598 
L 403.9632 141.827613 
L 408.6504 143.318005 
L 428.0688 149.971559 
L 432.756 151.966582 
L 438.1128 154.458794 
L 442.8 156.869395 
L 447.4872 159.550352 
L 450.1656 161.216417 
L 450.8352 143.1943 
L 451.5048 139.820205 
L 452.1744 137.923204 
L 452.844 136.862966 
L 453.5136 136.216614 
L 454.8528 135.467444 
L 462.2184 132.688017 
L 465.5664 131.553995 
L 468.9144 130.674656 
L 472.2624 130.024242 
L 474.9408 129.659178 
L 478.9584 129.378557 
L 485.6544 129.296265 
L 489.672 129.542394 
L 492.3504 129.886114 
L 496.368 130.681203 
L 502.3944 131.862065 
L 510.4296 133.360474 
L 519.804 135.994553 
L 523.8216 137.299595 
L 528.5088 138.847547 
L 535.8744 141.261861 
L 544.5792 143.80266 
L 557.9712 147.746347 
L 565.3368 150.149018 
L 571.3632 152.330717 
L 576.72 154.486631 
L 582.0768 156.88567 
L 584.0856 157.85381 
L 584.7552 141.489526 
L 585.4248 138.453632 
L 586.0944 136.756451 
L 586.764 135.817249 
L 587.4336 135.249757 
L 588.7728 134.592481 
L 602.8344 129.739387 
L 606.1824 128.772993 
L 606.852 128.455534 
L 607.5216 127.722868 
L 608.1912 124.719951 
L 609.5304 115.065812 
L 610.2 111.987997 
L 610.8696 110.466172 
L 611.5392 110.098503 
L 612.2088 110.501123 
L 612.8784 111.400658 
L 614.2176 114.041974 
L 616.2264 118.905231 
L 618.2352 123.678617 
L 619.5744 126.137335 
L 620.9136 127.919991 
L 622.2528 129.186757 
L 623.592 130.100328 
L 624.9312 130.786059 
L 626.94 131.55251 
L 628.9488 132.11089 
L 632.9664 132.888428 
L 643.68 134.763775 
L 654.3936 137.174026 
L 659.0808 138.483686 
L 667.7856 141.208113 
L 689.2128 147.38187 
L 695.2392 149.275225 
L 699.9264 151.064207 
L 705.9528 153.577451 
L 711.3096 156.063095 
L 715.9968 158.487894 
L 718.0056 159.60581 
L 718.6752 142.378184 
L 719.3448 139.176143 
L 720.0144 137.379212 
L 720.684 136.380128 
L 721.3536 135.774158 
L 722.6928 135.073755 
L 732.7368 131.463089 
L 736.0848 130.539933 
L 739.4328 129.838592 
L 743.4504 129.205445 
L 747.468 128.80165 
L 752.8248 128.279398 
L 753.4944 128.109167 
L 754.164 127.716355 
L 754.8336 126.233316 
L 755.5032 122.471676 
L 756.1728 117.925276 
L 756.8424 114.264196 
L 757.512 112.010497 
L 758.1816 111.008626 
L 758.8512 110.934427 
L 759.5208 111.501687 
L 760.1904 112.50148 
L 761.5296 115.282143 
L 763.5384 120.34091 
L 765.5472 125.272313 
L 766.8864 127.778288 
L 768.2256 129.6216 
L 769.5648 130.972589 
L 770.904 132.009836 
L 772.2432 132.821048 
L 774.252 133.761313 
L 776.2608 134.470528 
L 777.6 134.839939 
L 777.6 134.839939 
" clip-path="url(#p043f57676d)" style="fill: none; stroke: #4169e1; stroke-width: 1.5; stroke-linecap: square"/>
   </g>
   <g id="patch_3">
    <path d="M 108 256.32 
L 108 34.56 
" style="fill: none; stroke: #000000; stroke-width: 0.8; stroke-linejoin: miter; stroke-linecap: square"/>
   </g>
   <g id="patch_4">
    <path d="M 777.6 256.32 
L 777.6 34.56 
" style="fill: none; stroke: #000000; stroke-width: 0.8; stroke-linejoin: miter; stroke-linecap: square"/>
   </g>
   <g id="patch_5">
    <path d="M 108 256.32 
L 777.6 256.32 
" style="fill: none; stroke: #000000; stroke-width: 0.8; stroke-linejoin: miter; stroke-linecap: square"/>
   </g>
   <g id="patch_6">
    <path d="M 108 34.56 
L 777.6 34.56 
" style="fill: none; stroke: #000000; stroke-width: 0.8; stroke-linejoin: miter; stroke-linecap: square"/>
   </g>
   <g id="legend_1">
    <g id="patch_7">
     <path d="M 695.098438 71.91625 
L 770.6 71.91625 
Q 772.6 71.91625 772.6 69.91625 
L 772.6 41.56 
Q 772.6 39.56 770.6 39.56 
L 695.098438 39.56 
Q 693.098438 39.56 693.098438 41.56 
L 693.098438 69.91625 
Q 693.098438 71.91625 695.098438 71.91625 
z
" style="fill: #ffffff; opacity: 0.8; stroke: #cccccc; stroke-linejoin: miter"/>
    </g>
    <g id="line2d_25">
     <path d="M 697.098438 47.658437 
L 707.098438 47.658437 
L 717.098438 47.658437 
" style="fill: none; stroke: #000000; stroke-width: 1.5; stroke-linecap: square"/>
    </g>
    <g id="text_14">
     <!-- Soma -->
     <g transform="translate(725.098438 51.158437) scale(0.1 -0.1)">
      <defs>
       <path id="DejaVuSans-53" d="M 3425 4513 
L 3425 3897 
Q 3066 4069 2747 4153 
Q 2428 4238 2131 4238 
Q 1616 4238 1336 4038 
Q 1056 3838 1056 3469 
Q 1056 3159 1242 3001 
Q 1428 2844 1947 2747 
L 2328 2669 
Q 3034 2534 3370 2195 
Q 3706 1856 3706 1288 
Q 3706 609 3251 259 
Q 2797 -91 1919 -91 
Q 1588 -91 1214 -16 
Q 841 59 441 206 
L 441 856 
Q 825 641 1194 531 
Q 1563 422 1919 422 
Q 2459 422 2753 634 
Q 3047 847 3047 1241 
Q 3047 1584 2836 1778 
Q 2625 1972 2144 2069 
L 1759 2144 
Q 1053 2284 737 2584 
Q 422 2884 422 3419 
Q 422 4038 858 4394 
Q 1294 4750 2059 4750 
Q 2388 4750 2728 4690 
Q 3069 4631 3425 4513 
z
" transform="scale(0.015625)"/>
       <path id="DejaVuSans-6f" d="M 1959 3097 
Q 1497 3097 1228 2736 
Q 959 2375 959 1747 
Q 959 1119 1226 758 
Q 1494 397 1959 397 
Q 2419 397 2687 759 
Q 2956 1122 2956 1747 
Q 2956 2369 2687 2733 
Q 2419 3097 1959 3097 
z
M 1959 3584 
Q 2709 3584 3137 3096 
Q 3566 2609 3566 1747 
Q 3566 888 3137 398 
Q 2709 -91 1959 -91 
Q 1206 -91 779 398 
Q 353 888 353 1747 
Q 353 2609 779 3096 
Q 1206 3584 1959 3584 
z
" transform="scale(0.015625)"/>
       <path id="DejaVuSans-61" d="M 2194 1759 
Q 1497 1759 1228 1600 
Q 959 1441 959 1056 
Q 959 750 1161 570 
Q 1363 391 1709 391 
Q 2188 391 2477 730 
Q 2766 1069 2766 1631 
L 2766 1759 
L 2194 1759 
z
M 3341 1997 
L 3341 0 
L 2766 0 
L 2766 531 
Q 2569 213 2275 61 
Q 1981 -91 1556 -91 
Q 1019 -91 701 211 
Q 384 513 384 1019 
Q 384 1609 779 1909 
Q 1175 2209 1959 2209 
L 2766 2209 
L 2766 2266 
Q 2766 2663 2505 2880 
Q 2244 3097 1772 3097 
Q 1472 3097 1187 3025 
Q 903 2953 641 2809 
L 641 3341 
Q 956 3463 1253 3523 
Q 1550 3584 1831 3584 
Q 2591 3584 2966 3190 
Q 3341 2797 3341 1997 
z
" transform="scale(0.015625)"/>
      </defs>
      <use xlink:href="#DejaVuSans-53"/>
      <use xlink:href="#DejaVuSans-6f" x="63.476562"/>
      <use xlink:href="#DejaVuSans-6d" x="124.658203"/>
      <use xlink:href="#DejaVuSans-61" x="222.070312"/>
     </g>
    </g>
    <g id="line2d_26">
     <path d="M 697.098438 62.336562 
L 707.098438 62.336562 
L 717.098438 62.336562 
" style="fill: none; stroke: #4169e1; stroke-width: 1.5; stroke-linecap: square"/>
    </g>
    <g id="text_15">
     <!-- Dendrite -->
     <g transform="translate(725.098438 65.836562) scale(0.1 -0.1)">
      <defs>
       <path id="DejaVuSans-44" d="M 1259 4147 
L 1259 519 
L 2022 519 
Q 2988 519 3436 956 
Q 3884 1394 3884 2338 
Q 3884 3275 3436 3711 
Q 2988 4147 2022 4147 
L 1259 4147 
z
M 628 4666 
L 1925 4666 
Q 3281 4666 3915 4102 
Q 4550 3538 4550 2338 
Q 4550 1131 3912 565 
Q 3275 0 1925 0 
L 628 0 
L 628 4666 
z
" transform="scale(0.015625)"/>
       <path id="DejaVuSans-6e" d="M 3513 2113 
L 3513 0 
L 2938 0 
L 2938 2094 
Q 2938 2591 2744 2837 
Q 2550 3084 2163 3084 
Q 1697 3084 1428 2787 
Q 1159 2491 1159 1978 
L 1159 0 
L 581 0 
L 581 3500 
L 1159 3500 
L 1159 2956 
Q 1366 3272 1645 3428 
Q 1925 3584 2291 3584 
Q 2894 3584 3203 3211 
Q 3513 2838 3513 2113 
z
" transform="scale(0.015625)"/>
       <path id="DejaVuSans-64" d="M 2906 2969 
L 2906 4863 
L 3481 4863 
L 3481 0 
L 2906 0 
L 2906 525 
Q 2725 213 2448 61 
Q 2172 -91 1784 -91 
Q 1150 -91 751 415 
Q 353 922 353 1747 
Q 353 2572 751 3078 
Q 1150 3584 1784 3584 
Q 2172 3584 2448 3432 
Q 2725 3281 2906 2969 
z
M 947 1747 
Q 947 1113 1208 752 
Q 1469 391 1925 391 
Q 2381 391 2643 752 
Q 2906 1113 2906 1747 
Q 2906 2381 2643 2742 
Q 2381 3103 1925 3103 
Q 1469 3103 1208 2742 
Q 947 2381 947 1747 
z
" transform="scale(0.015625)"/>
       <path id="DejaVuSans-72" d="M 2631 2963 
Q 2534 3019 2420 3045 
Q 2306 3072 2169 3072 
Q 1681 3072 1420 2755 
Q 1159 2438 1159 1844 
L 1159 0 
L 581 0 
L 581 3500 
L 1159 3500 
L 1159 2956 
Q 1341 3275 1631 3429 
Q 1922 3584 2338 3584 
Q 2397 3584 2469 3576 
Q 2541 3569 2628 3553 
L 2631 2963 
z
" transform="scale(0.015625)"/>
       <path id="DejaVuSans-74" d="M 1172 4494 
L 1172 3500 
L 2356 3500 
L 2356 3053 
L 1172 3053 
L 1172 1153 
Q 1172 725 1289 603 
Q 1406 481 1766 481 
L 2356 481 
L 2356 0 
L 1766 0 
Q 1100 0 847 248 
Q 594 497 594 1153 
L 594 3053 
L 172 3053 
L 172 3500 
L 594 3500 
L 594 4494 
L 1172 4494 
z
" transform="scale(0.015625)"/>
      </defs>
      <use xlink:href="#DejaVuSans-44"/>
      <use xlink:href="#DejaVuSans-65" x="77.001953"/>
      <use xlink:href="#DejaVuSans-6e" x="138.525391"/>
      <use xlink:href="#DejaVuSans-64" x="201.904297"/>
      <use xlink:href="#DejaVuSans-72" x="265.380859"/>
      <use xlink:href="#DejaVuSans-69" x="306.494141"/>
      <use xlink:href="#DejaVuSans-74" x="334.277344"/>
      <use xlink:href="#DejaVuSans-65" x="373.486328"/>
     </g>
    </g>
   </g>
  </g>
 </g>
 <defs>
  <clipPath id="p043f57676d">
   <rect x="108" y="34.56" width="669.6" height="221.76"/>
  </clipPath>
 </defs>
</svg>
