<?xml version="1.0" encoding="utf-8" standalone="no"?>
<!DOCTYPE svg PUBLIC "-//W3C//DTD SVG 1.1//EN"
  "http://www.w3.org/Graphics/SVG/1.1/DTD/svg11.dtd">
<svg xmlns:xlink="http://www.w3.org/1999/xlink" width="864pt" height="288pt" viewBox="0 0 864 288" xmlns="http://www.w3.org/2000/svg" version="1.1">
 <metadata>
  <rdf:RDF xmlns:dc="http://purl.org/dc/elements/1.1/" xmlns:cc="http://creativecommons.org/ns#" xmlns:rdf="http://www.w3.org/1999/02/22-rdf-syntax-ns#">
   <cc:Work>
    <dc:type rdf:resource="http://purl.org/dc/dcmitype/StillImage"/>
    <dc:date>2024-04-26T13:23:27.500579</dc:date>
    <dc:format>image/svg+xml</dc:format>
    <dc:creator>
     <cc:Agent>
      <dc:title>Matplotlib v3.8.2, https://matplotlib.org/</dc:title>
     </cc:Agent>
    </dc:creator>
   </cc:Work>
  </rdf:RDF>
 </metadata>
 <defs>
  <style type="text/css">*{stroke-linejoin: round; stroke-linecap: butt}</style>
 </defs>
 <g id="figure_1">
  <g id="patch_1">
   <path d="M 0 288 
L 864 288 
L 864 0 
L 0 0 
z
" style="fill: #ffffff"/>
  </g>
  <g id="axes_1">
   <g id="patch_2">
    <path d="M 108 256.32 
L 777.6 256.32 
L 777.6 34.56 
L 108 34.56 
z
" style="fill: #ffffff"/>
   </g>
   <g id="matplotlib.axis_1">
    <g id="xtick_1">
     <g id="line2d_1">
      <path d="M 108 256.32 
L 108 34.56 
" clip-path="url(#p64565bdb6f)" style="fill: none; stroke: #b0b0b0; stroke-width: 0.8; stroke-linecap: square"/>
     </g>
     <g id="line2d_2">
      <defs>
       <path id="me0c53e8a54" d="M 0 0 
L 0 3.5 
" style="stroke: #000000; stroke-width: 0.8"/>
      </defs>
      <g>
       <use xlink:href="#me0c53e8a54" x="108" y="256.32" style="stroke: #000000; stroke-width: 0.8"/>
      </g>
     </g>
     <g id="text_1">
      <!-- 100 -->
      <g transform="translate(94.63875 273.957812) scale(0.14 -0.14)">
       <defs>
        <path id="DejaVuSans-31" d="M 794 531 
L 1825 531 
L 1825 4091 
L 703 3866 
L 703 4441 
L 1819 4666 
L 2450 4666 
L 2450 531 
L 3481 531 
L 3481 0 
L 794 0 
L 794 531 
z
" transform="scale(0.015625)"/>
        <path id="DejaVuSans-30" d="M 2034 4250 
Q 1547 4250 1301 3770 
Q 1056 3291 1056 2328 
Q 1056 1369 1301 889 
Q 1547 409 2034 409 
Q 2525 409 2770 889 
Q 3016 1369 3016 2328 
Q 3016 3291 2770 3770 
Q 2525 4250 2034 4250 
z
M 2034 4750 
Q 2819 4750 3233 4129 
Q 3647 3509 3647 2328 
Q 3647 1150 3233 529 
Q 2819 -91 2034 -91 
Q 1250 -91 836 529 
Q 422 1150 422 2328 
Q 422 3509 836 4129 
Q 1250 4750 2034 4750 
z
" transform="scale(0.015625)"/>
       </defs>
       <use xlink:href="#DejaVuSans-31"/>
       <use xlink:href="#DejaVuSans-30" x="63.623047"/>
       <use xlink:href="#DejaVuSans-30" x="127.246094"/>
      </g>
     </g>
    </g>
    <g id="xtick_2">
     <g id="line2d_3">
      <path d="M 241.92 256.32 
L 241.92 34.56 
" clip-path="url(#p64565bdb6f)" style="fill: none; stroke: #b0b0b0; stroke-width: 0.8; stroke-linecap: square"/>
     </g>
     <g id="line2d_4">
      <g>
       <use xlink:href="#me0c53e8a54" x="241.92" y="256.32" style="stroke: #000000; stroke-width: 0.8"/>
      </g>
     </g>
     <g id="text_2">
      <!-- 120 -->
      <g transform="translate(228.55875 273.957812) scale(0.14 -0.14)">
       <defs>
        <path id="DejaVuSans-32" d="M 1228 531 
L 3431 531 
L 3431 0 
L 469 0 
L 469 531 
Q 828 903 1448 1529 
Q 2069 2156 2228 2338 
Q 2531 2678 2651 2914 
Q 2772 3150 2772 3378 
Q 2772 3750 2511 3984 
Q 2250 4219 1831 4219 
Q 1534 4219 1204 4116 
Q 875 4013 500 3803 
L 500 4441 
Q 881 4594 1212 4672 
Q 1544 4750 1819 4750 
Q 2544 4750 2975 4387 
Q 3406 4025 3406 3419 
Q 3406 3131 3298 2873 
Q 3191 2616 2906 2266 
Q 2828 2175 2409 1742 
Q 1991 1309 1228 531 
z
" transform="scale(0.015625)"/>
       </defs>
       <use xlink:href="#DejaVuSans-31"/>
       <use xlink:href="#DejaVuSans-32" x="63.623047"/>
       <use xlink:href="#DejaVuSans-30" x="127.246094"/>
      </g>
     </g>
    </g>
    <g id="xtick_3">
     <g id="line2d_5">
      <path d="M 375.84 256.32 
L 375.84 34.56 
" clip-path="url(#p64565bdb6f)" style="fill: none; stroke: #b0b0b0; stroke-width: 0.8; stroke-linecap: square"/>
     </g>
     <g id="line2d_6">
      <g>
       <use xlink:href="#me0c53e8a54" x="375.84" y="256.32" style="stroke: #000000; stroke-width: 0.8"/>
      </g>
     </g>
     <g id="text_3">
      <!-- 140 -->
      <g transform="translate(362.47875 273.957812) scale(0.14 -0.14)">
       <defs>
        <path id="DejaVuSans-34" d="M 2419 4116 
L 825 1625 
L 2419 1625 
L 2419 4116 
z
M 2253 4666 
L 3047 4666 
L 3047 1625 
L 3713 1625 
L 3713 1100 
L 3047 1100 
L 3047 0 
L 2419 0 
L 2419 1100 
L 313 1100 
L 313 1709 
L 2253 4666 
z
" transform="scale(0.015625)"/>
       </defs>
       <use xlink:href="#DejaVuSans-31"/>
       <use xlink:href="#DejaVuSans-34" x="63.623047"/>
       <use xlink:href="#DejaVuSans-30" x="127.246094"/>
      </g>
     </g>
    </g>
    <g id="xtick_4">
     <g id="line2d_7">
      <path d="M 509.76 256.32 
L 509.76 34.56 
" clip-path="url(#p64565bdb6f)" style="fill: none; stroke: #b0b0b0; stroke-width: 0.8; stroke-linecap: square"/>
     </g>
     <g id="line2d_8">
      <g>
       <use xlink:href="#me0c53e8a54" x="509.76" y="256.32" style="stroke: #000000; stroke-width: 0.8"/>
      </g>
     </g>
     <g id="text_4">
      <!-- 160 -->
      <g transform="translate(496.39875 273.957812) scale(0.14 -0.14)">
       <defs>
        <path id="DejaVuSans-36" d="M 2113 2584 
Q 1688 2584 1439 2293 
Q 1191 2003 1191 1497 
Q 1191 994 1439 701 
Q 1688 409 2113 409 
Q 2538 409 2786 701 
Q 3034 994 3034 1497 
Q 3034 2003 2786 2293 
Q 2538 2584 2113 2584 
z
M 3366 4563 
L 3366 3988 
Q 3128 4100 2886 4159 
Q 2644 4219 2406 4219 
Q 1781 4219 1451 3797 
Q 1122 3375 1075 2522 
Q 1259 2794 1537 2939 
Q 1816 3084 2150 3084 
Q 2853 3084 3261 2657 
Q 3669 2231 3669 1497 
Q 3669 778 3244 343 
Q 2819 -91 2113 -91 
Q 1303 -91 875 529 
Q 447 1150 447 2328 
Q 447 3434 972 4092 
Q 1497 4750 2381 4750 
Q 2619 4750 2861 4703 
Q 3103 4656 3366 4563 
z
" transform="scale(0.015625)"/>
       </defs>
       <use xlink:href="#DejaVuSans-31"/>
       <use xlink:href="#DejaVuSans-36" x="63.623047"/>
       <use xlink:href="#DejaVuSans-30" x="127.246094"/>
      </g>
     </g>
    </g>
    <g id="xtick_5">
     <g id="line2d_9">
      <path d="M 643.68 256.32 
L 643.68 34.56 
" clip-path="url(#p64565bdb6f)" style="fill: none; stroke: #b0b0b0; stroke-width: 0.8; stroke-linecap: square"/>
     </g>
     <g id="line2d_10">
      <g>
       <use xlink:href="#me0c53e8a54" x="643.68" y="256.32" style="stroke: #000000; stroke-width: 0.8"/>
      </g>
     </g>
     <g id="text_5">
      <!-- 180 -->
      <g transform="translate(630.31875 273.957812) scale(0.14 -0.14)">
       <defs>
        <path id="DejaVuSans-38" d="M 2034 2216 
Q 1584 2216 1326 1975 
Q 1069 1734 1069 1313 
Q 1069 891 1326 650 
Q 1584 409 2034 409 
Q 2484 409 2743 651 
Q 3003 894 3003 1313 
Q 3003 1734 2745 1975 
Q 2488 2216 2034 2216 
z
M 1403 2484 
Q 997 2584 770 2862 
Q 544 3141 544 3541 
Q 544 4100 942 4425 
Q 1341 4750 2034 4750 
Q 2731 4750 3128 4425 
Q 3525 4100 3525 3541 
Q 3525 3141 3298 2862 
Q 3072 2584 2669 2484 
Q 3125 2378 3379 2068 
Q 3634 1759 3634 1313 
Q 3634 634 3220 271 
Q 2806 -91 2034 -91 
Q 1263 -91 848 271 
Q 434 634 434 1313 
Q 434 1759 690 2068 
Q 947 2378 1403 2484 
z
M 1172 3481 
Q 1172 3119 1398 2916 
Q 1625 2713 2034 2713 
Q 2441 2713 2670 2916 
Q 2900 3119 2900 3481 
Q 2900 3844 2670 4047 
Q 2441 4250 2034 4250 
Q 1625 4250 1398 4047 
Q 1172 3844 1172 3481 
z
" transform="scale(0.015625)"/>
       </defs>
       <use xlink:href="#DejaVuSans-31"/>
       <use xlink:href="#DejaVuSans-38" x="63.623047"/>
       <use xlink:href="#DejaVuSans-30" x="127.246094"/>
      </g>
     </g>
    </g>
    <g id="xtick_6">
     <g id="line2d_11">
      <path d="M 777.6 256.32 
L 777.6 34.56 
" clip-path="url(#p64565bdb6f)" style="fill: none; stroke: #b0b0b0; stroke-width: 0.8; stroke-linecap: square"/>
     </g>
     <g id="line2d_12">
      <g>
       <use xlink:href="#me0c53e8a54" x="777.6" y="256.32" style="stroke: #000000; stroke-width: 0.8"/>
      </g>
     </g>
     <g id="text_6">
      <!-- 200 -->
      <g transform="translate(764.23875 273.957812) scale(0.14 -0.14)">
       <use xlink:href="#DejaVuSans-32"/>
       <use xlink:href="#DejaVuSans-30" x="63.623047"/>
       <use xlink:href="#DejaVuSans-30" x="127.246094"/>
      </g>
     </g>
    </g>
    <g id="text_7">
     <!-- Time (ms) -->
     <g transform="translate(407.521094 291.507187) scale(0.14 -0.14)">
      <defs>
       <path id="DejaVuSans-54" d="M -19 4666 
L 3928 4666 
L 3928 4134 
L 2272 4134 
L 2272 0 
L 1638 0 
L 1638 4134 
L -19 4134 
L -19 4666 
z
" transform="scale(0.015625)"/>
       <path id="DejaVuSans-69" d="M 603 3500 
L 1178 3500 
L 1178 0 
L 603 0 
L 603 3500 
z
M 603 4863 
L 1178 4863 
L 1178 4134 
L 603 4134 
L 603 4863 
z
" transform="scale(0.015625)"/>
       <path id="DejaVuSans-6d" d="M 3328 2828 
Q 3544 3216 3844 3400 
Q 4144 3584 4550 3584 
Q 5097 3584 5394 3201 
Q 5691 2819 5691 2113 
L 5691 0 
L 5113 0 
L 5113 2094 
Q 5113 2597 4934 2840 
Q 4756 3084 4391 3084 
Q 3944 3084 3684 2787 
Q 3425 2491 3425 1978 
L 3425 0 
L 2847 0 
L 2847 2094 
Q 2847 2600 2669 2842 
Q 2491 3084 2119 3084 
Q 1678 3084 1418 2786 
Q 1159 2488 1159 1978 
L 1159 0 
L 581 0 
L 581 3500 
L 1159 3500 
L 1159 2956 
Q 1356 3278 1631 3431 
Q 1906 3584 2284 3584 
Q 2666 3584 2933 3390 
Q 3200 3197 3328 2828 
z
" transform="scale(0.015625)"/>
       <path id="DejaVuSans-65" d="M 3597 1894 
L 3597 1613 
L 953 1613 
Q 991 1019 1311 708 
Q 1631 397 2203 397 
Q 2534 397 2845 478 
Q 3156 559 3463 722 
L 3463 178 
Q 3153 47 2828 -22 
Q 2503 -91 2169 -91 
Q 1331 -91 842 396 
Q 353 884 353 1716 
Q 353 2575 817 3079 
Q 1281 3584 2069 3584 
Q 2775 3584 3186 3129 
Q 3597 2675 3597 1894 
z
M 3022 2063 
Q 3016 2534 2758 2815 
Q 2500 3097 2075 3097 
Q 1594 3097 1305 2825 
Q 1016 2553 972 2059 
L 3022 2063 
z
" transform="scale(0.015625)"/>
       <path id="DejaVuSans-20" transform="scale(0.015625)"/>
       <path id="DejaVuSans-28" d="M 1984 4856 
Q 1566 4138 1362 3434 
Q 1159 2731 1159 2009 
Q 1159 1288 1364 580 
Q 1569 -128 1984 -844 
L 1484 -844 
Q 1016 -109 783 600 
Q 550 1309 550 2009 
Q 550 2706 781 3412 
Q 1013 4119 1484 4856 
L 1984 4856 
z
" transform="scale(0.015625)"/>
       <path id="DejaVuSans-73" d="M 2834 3397 
L 2834 2853 
Q 2591 2978 2328 3040 
Q 2066 3103 1784 3103 
Q 1356 3103 1142 2972 
Q 928 2841 928 2578 
Q 928 2378 1081 2264 
Q 1234 2150 1697 2047 
L 1894 2003 
Q 2506 1872 2764 1633 
Q 3022 1394 3022 966 
Q 3022 478 2636 193 
Q 2250 -91 1575 -91 
Q 1294 -91 989 -36 
Q 684 19 347 128 
L 347 722 
Q 666 556 975 473 
Q 1284 391 1588 391 
Q 1994 391 2212 530 
Q 2431 669 2431 922 
Q 2431 1156 2273 1281 
Q 2116 1406 1581 1522 
L 1381 1569 
Q 847 1681 609 1914 
Q 372 2147 372 2553 
Q 372 3047 722 3315 
Q 1072 3584 1716 3584 
Q 2034 3584 2315 3537 
Q 2597 3491 2834 3397 
z
" transform="scale(0.015625)"/>
       <path id="DejaVuSans-29" d="M 513 4856 
L 1013 4856 
Q 1481 4119 1714 3412 
Q 1947 2706 1947 2009 
Q 1947 1309 1714 600 
Q 1481 -109 1013 -844 
L 513 -844 
Q 928 -128 1133 580 
Q 1338 1288 1338 2009 
Q 1338 2731 1133 3434 
Q 928 4138 513 4856 
z
" transform="scale(0.015625)"/>
      </defs>
      <use xlink:href="#DejaVuSans-54"/>
      <use xlink:href="#DejaVuSans-69" x="57.958984"/>
      <use xlink:href="#DejaVuSans-6d" x="85.742188"/>
      <use xlink:href="#DejaVuSans-65" x="183.154297"/>
      <use xlink:href="#DejaVuSans-20" x="244.677734"/>
      <use xlink:href="#DejaVuSans-28" x="276.464844"/>
      <use xlink:href="#DejaVuSans-6d" x="315.478516"/>
      <use xlink:href="#DejaVuSans-73" x="412.890625"/>
      <use xlink:href="#DejaVuSans-29" x="464.990234"/>
     </g>
    </g>
   </g>
   <g id="matplotlib.axis_2">
    <g id="ytick_1">
     <g id="line2d_13">
      <path d="M 108 224.287135 
L 777.6 224.287135 
" clip-path="url(#p64565bdb6f)" style="fill: none; stroke: #b0b0b0; stroke-width: 0.8; stroke-linecap: square"/>
     </g>
     <g id="line2d_14">
      <defs>
       <path id="m8a13556a75" d="M 0 0 
L -3.5 0 
" style="stroke: #000000; stroke-width: 0.8"/>
      </defs>
      <g>
       <use xlink:href="#m8a13556a75" x="108" y="224.287135" style="stroke: #000000; stroke-width: 0.8"/>
      </g>
     </g>
     <g id="text_8">
      <!-- −60 -->
      <g transform="translate(71.453437 229.606041) scale(0.14 -0.14)">
       <defs>
        <path id="DejaVuSans-2212" d="M 678 2272 
L 4684 2272 
L 4684 1741 
L 678 1741 
L 678 2272 
z
" transform="scale(0.015625)"/>
       </defs>
       <use xlink:href="#DejaVuSans-2212"/>
       <use xlink:href="#DejaVuSans-36" x="83.789062"/>
       <use xlink:href="#DejaVuSans-30" x="147.412109"/>
      </g>
     </g>
    </g>
    <g id="ytick_2">
     <g id="line2d_15">
      <path d="M 108 180.451365 
L 777.6 180.451365 
" clip-path="url(#p64565bdb6f)" style="fill: none; stroke: #b0b0b0; stroke-width: 0.8; stroke-linecap: square"/>
     </g>
     <g id="line2d_16">
      <g>
       <use xlink:href="#m8a13556a75" x="108" y="180.451365" style="stroke: #000000; stroke-width: 0.8"/>
      </g>
     </g>
     <g id="text_9">
      <!-- −40 -->
      <g transform="translate(71.453437 185.770272) scale(0.14 -0.14)">
       <use xlink:href="#DejaVuSans-2212"/>
       <use xlink:href="#DejaVuSans-34" x="83.789062"/>
       <use xlink:href="#DejaVuSans-30" x="147.412109"/>
      </g>
     </g>
    </g>
    <g id="ytick_3">
     <g id="line2d_17">
      <path d="M 108 136.615596 
L 777.6 136.615596 
" clip-path="url(#p64565bdb6f)" style="fill: none; stroke: #b0b0b0; stroke-width: 0.8; stroke-linecap: square"/>
     </g>
     <g id="line2d_18">
      <g>
       <use xlink:href="#m8a13556a75" x="108" y="136.615596" style="stroke: #000000; stroke-width: 0.8"/>
      </g>
     </g>
     <g id="text_10">
      <!-- −20 -->
      <g transform="translate(71.453437 141.934502) scale(0.14 -0.14)">
       <use xlink:href="#DejaVuSans-2212"/>
       <use xlink:href="#DejaVuSans-32" x="83.789062"/>
       <use xlink:href="#DejaVuSans-30" x="147.412109"/>
      </g>
     </g>
    </g>
    <g id="ytick_4">
     <g id="line2d_19">
      <path d="M 108 92.779826 
L 777.6 92.779826 
" clip-path="url(#p64565bdb6f)" style="fill: none; stroke: #b0b0b0; stroke-width: 0.8; stroke-linecap: square"/>
     </g>
     <g id="line2d_20">
      <g>
       <use xlink:href="#m8a13556a75" x="108" y="92.779826" style="stroke: #000000; stroke-width: 0.8"/>
      </g>
     </g>
     <g id="text_11">
      <!-- 0 -->
      <g transform="translate(92.0925 98.098732) scale(0.14 -0.14)">
       <use xlink:href="#DejaVuSans-30"/>
      </g>
     </g>
    </g>
    <g id="ytick_5">
     <g id="line2d_21">
      <path d="M 108 48.944056 
L 777.6 48.944056 
" clip-path="url(#p64565bdb6f)" style="fill: none; stroke: #b0b0b0; stroke-width: 0.8; stroke-linecap: square"/>
     </g>
     <g id="line2d_22">
      <g>
       <use xlink:href="#m8a13556a75" x="108" y="48.944056" style="stroke: #000000; stroke-width: 0.8"/>
      </g>
     </g>
     <g id="text_12">
      <!-- 20 -->
      <g transform="translate(83.185 54.262963) scale(0.14 -0.14)">
       <use xlink:href="#DejaVuSans-32"/>
       <use xlink:href="#DejaVuSans-30" x="63.623047"/>
      </g>
     </g>
    </g>
    <g id="text_13">
     <!-- $V_{m}$ (mV) -->
     <g transform="translate(64.541875 174.49) rotate(-90) scale(0.14 -0.14)">
      <defs>
       <path id="DejaVuSans-Oblique-56" d="M 1319 0 
L 500 4666 
L 1119 4666 
L 1797 653 
L 4063 4666 
L 4750 4666 
L 2053 0 
L 1319 0 
z
" transform="scale(0.015625)"/>
       <path id="DejaVuSans-Oblique-6d" d="M 5747 2113 
L 5338 0 
L 4763 0 
L 5166 2094 
Q 5191 2228 5203 2325 
Q 5216 2422 5216 2491 
Q 5216 2772 5059 2928 
Q 4903 3084 4622 3084 
Q 4203 3084 3875 2770 
Q 3547 2456 3450 1953 
L 3066 0 
L 2491 0 
L 2900 2094 
Q 2925 2209 2937 2307 
Q 2950 2406 2950 2484 
Q 2950 2769 2794 2926 
Q 2638 3084 2363 3084 
Q 1938 3084 1609 2770 
Q 1281 2456 1184 1953 
L 800 0 
L 225 0 
L 909 3500 
L 1484 3500 
L 1375 2956 
Q 1609 3263 1923 3423 
Q 2238 3584 2597 3584 
Q 2978 3584 3223 3384 
Q 3469 3184 3519 2828 
Q 3781 3197 4126 3390 
Q 4472 3584 4856 3584 
Q 5306 3584 5551 3325 
Q 5797 3066 5797 2591 
Q 5797 2488 5784 2364 
Q 5772 2241 5747 2113 
z
" transform="scale(0.015625)"/>
       <path id="DejaVuSans-56" d="M 1831 0 
L 50 4666 
L 709 4666 
L 2188 738 
L 3669 4666 
L 4325 4666 
L 2547 0 
L 1831 0 
z
" transform="scale(0.015625)"/>
      </defs>
      <use xlink:href="#DejaVuSans-Oblique-56" transform="translate(0 0.125)"/>
      <use xlink:href="#DejaVuSans-Oblique-6d" transform="translate(68.408203 -16.28125) scale(0.7)"/>
      <use xlink:href="#DejaVuSans-20" transform="translate(139.331055 0.125)"/>
      <use xlink:href="#DejaVuSans-28" transform="translate(171.118164 0.125)"/>
      <use xlink:href="#DejaVuSans-6d" transform="translate(210.131836 0.125)"/>
      <use xlink:href="#DejaVuSans-56" transform="translate(307.543945 0.125)"/>
      <use xlink:href="#DejaVuSans-29" transform="translate(375.952148 0.125)"/>
     </g>
    </g>
   </g>
   <g id="line2d_23">
    <path d="M 108 220.680902 
L 109.3392 221.351454 
L 110.6784 221.787531 
L 111.348 221.948451 
L 112.6872 222.891936 
L 114.0264 223.34506 
L 116.0352 224.903458 
L 118.044 227.351858 
L 118.7136 228.456342 
L 119.3832 229.310956 
L 120.0528 229.854828 
L 120.7224 230.883108 
L 122.7312 233.154943 
L 124.0704 233.932014 
L 125.4096 234.433 
L 127.4184 234.910701 
L 129.4272 235.166223 
L 132.1056 235.254129 
L 134.1144 235.168603 
L 136.1232 235.934203 
L 136.7928 236.738867 
L 137.4624 237.301197 
L 140.1408 238.445756 
L 141.48 238.698546 
L 142.8192 238.734263 
L 143.4888 238.646102 
L 144.828 238.841008 
L 146.8368 238.61825 
L 148.176 238.390219 
L 149.5152 238.630505 
L 150.8544 238.573382 
L 153.5328 238.188908 
L 156.8808 237.48447 
L 160.8984 236.394802 
L 164.916 235.078191 
L 169.6032 233.296191 
L 174.2904 231.287154 
L 179.6472 228.755511 
L 185.6736 225.657421 
L 192.3696 221.968212 
L 198.396 218.483466 
L 199.7352 218.515094 
L 201.0744 218.126583 
L 203.7528 216.984682 
L 205.7616 216.026133 
L 207.1008 216.21347 
L 208.44 215.953296 
L 209.7792 216.36777 
L 211.1184 216.279547 
L 213.1272 215.818791 
L 216.4752 214.739797 
L 220.4928 213.19315 
L 225.8496 210.871669 
L 227.1888 211.186957 
L 227.8584 212.115115 
L 228.528 212.831355 
L 229.1976 213.183789 
L 230.5368 213.452757 
L 231.876 213.46973 
L 232.5456 213.426206 
L 234.5544 214.722975 
L 235.8936 216.644885 
L 236.5632 217.779442 
L 239.2416 221.002025 
L 239.9112 222.044689 
L 240.5808 223.54598 
L 241.2504 224.649145 
L 241.92 225.357951 
L 243.2592 226.286337 
L 244.5984 226.901412 
L 245.9376 227.961093 
L 246.6072 228.285805 
L 247.2768 228.865754 
L 247.9464 229.660676 
L 249.9552 231.467665 
L 251.2944 232.657034 
L 252.6336 233.274656 
L 253.9728 233.655673 
L 255.312 234.966929 
L 255.9816 235.599151 
L 256.6512 236.066433 
L 257.9904 236.592372 
L 259.9992 236.996379 
L 260.6688 237.073535 
L 262.008 237.6601 
L 263.3472 237.887546 
L 264.6864 237.964177 
L 267.3648 239.061116 
L 268.704 239.256553 
L 270.7128 239.269868 
L 272.052 239.656687 
L 273.3912 239.714746 
L 275.4 239.573164 
L 276.7392 239.355053 
L 278.748 238.671422 
L 282.096 237.445631 
L 283.4352 237.496704 
L 285.444 237.110224 
L 288.792 236.178929 
L 291.4704 235.316477 
L 292.8096 235.404403 
L 294.1488 235.171592 
L 296.8272 234.412314 
L 300.8448 232.996192 
L 305.532 231.080385 
L 310.8888 228.624807 
L 316.9152 225.590716 
L 323.6112 221.955247 
L 331.6464 217.331129 
L 343.6992 210.10076 
L 345.0384 209.27774 
L 346.3776 209.422955 
L 347.7168 209.113558 
L 349.7256 208.344561 
L 353.0736 206.776704 
L 354.4128 206.095356 
L 355.752 207.415841 
L 356.4216 207.706094 
L 358.4304 209.590667 
L 359.1 210.647043 
L 359.7696 211.396311 
L 360.4392 211.852171 
L 361.7784 212.362312 
L 363.1176 214.309731 
L 363.7872 215.272666 
L 364.4568 215.990393 
L 366.4656 217.475487 
L 367.1352 218.028669 
L 367.8048 218.389937 
L 369.144 219.606757 
L 370.4832 220.217326 
L 371.8224 220.569654 
L 372.492 220.690706 
L 373.8312 222.298292 
L 374.5008 223.846724 
L 375.1704 225.037838 
L 375.84 225.756397 
L 377.1792 226.643834 
L 378.5184 227.206775 
L 379.188 227.417169 
L 379.8576 227.935057 
L 381.8664 230.189439 
L 382.536 230.59392 
L 383.8752 231.696201 
L 384.5448 232.025829 
L 386.5536 233.612037 
L 387.2232 234.068888 
L 388.5624 234.592936 
L 391.2408 235.37829 
L 391.9104 235.955131 
L 392.58 236.354664 
L 393.9192 236.751278 
L 395.928 236.994975 
L 399.276 237.253624 
L 402.624 238.086813 
L 403.2936 238.11749 
L 405.972 239.154399 
L 407.3112 239.308952 
L 407.9808 239.317132 
L 409.32 239.733351 
L 410.6592 239.762867 
L 411.9984 239.486973 
L 420.7032 236.963819 
L 425.3904 235.43109 
L 426.7296 234.951975 
L 428.0688 235.013764 
L 429.408 234.754753 
L 432.0864 233.945844 
L 436.104 232.46416 
L 440.7912 230.483443 
L 446.148 227.966039 
L 452.1744 224.875673 
L 458.8704 221.19277 
L 467.5752 216.135203 
L 472.932 212.9329 
L 474.2712 213.033218 
L 475.6104 212.68514 
L 476.9496 212.168357 
L 478.2888 212.497088 
L 479.628 212.337989 
L 481.6368 211.776535 
L 483.6456 211.070077 
L 484.9848 211.475132 
L 485.6544 211.957817 
L 486.324 212.296438 
L 487.6632 212.464081 
L 489.0024 212.377557 
L 490.3416 213.923327 
L 491.0112 214.279672 
L 491.6808 214.930112 
L 492.3504 215.867191 
L 493.02 216.522462 
L 493.6896 216.916779 
L 494.3592 217.607157 
L 495.0288 218.566178 
L 495.6984 219.250807 
L 497.7072 220.62447 
L 498.3768 221.134765 
L 499.716 221.698696 
L 501.0552 222.012822 
L 502.3944 222.904561 
L 503.7336 223.304725 
L 504.4032 223.417934 
L 505.7424 224.243787 
L 507.0816 224.592316 
L 507.7512 224.683201 
L 508.4208 225.112156 
L 510.4296 228.363711 
L 511.0992 229.091376 
L 512.4384 229.909182 
L 513.7776 230.387095 
L 515.1168 231.275316 
L 515.7864 232.152092 
L 516.456 232.833743 
L 517.1256 233.248094 
L 519.804 236.672382 
L 521.1432 237.42418 
L 522.4824 237.882465 
L 523.152 238.049275 
L 523.8216 238.447566 
L 524.4912 239.02449 
L 526.5 240.309621 
L 527.8392 241.155672 
L 529.1784 241.547013 
L 529.848 241.665507 
L 531.1872 242.241436 
L 532.5264 242.474405 
L 534.5352 242.57086 
L 537.2136 242.451477 
L 540.5616 242.02589 
L 543.9096 241.362698 
L 545.2488 240.902685 
L 552.6144 237.778399 
L 559.98 234.773628 
L 565.3368 232.358208 
L 571.3632 229.38621 
L 578.0592 225.80739 
L 585.4248 221.602253 
L 594.7992 215.97629 
L 602.1648 211.441813 
L 603.504 211.545044 
L 604.8432 211.195302 
L 607.5216 210.079443 
L 611.5392 208.112467 
L 613.548 207.045834 
L 614.8872 207.321485 
L 616.2264 207.145804 
L 618.2352 206.541185 
L 620.9136 205.477026 
L 622.9224 204.531731 
L 624.2616 204.914745 
L 624.9312 204.940637 
L 625.6008 205.413678 
L 626.2704 206.332998 
L 626.94 207.027686 
L 627.6096 207.437268 
L 628.9488 207.850933 
L 629.6184 207.945076 
L 630.288 208.494186 
L 630.9576 209.929205 
L 631.6272 211.028042 
L 632.2968 211.689165 
L 634.3056 213.146031 
L 634.9752 213.714316 
L 635.6448 214.078515 
L 636.984 215.348177 
L 637.6536 215.712088 
L 638.9928 218.90606 
L 639.6624 219.984161 
L 640.332 220.690273 
L 641.6712 222.326123 
L 642.3408 222.841127 
L 643.0104 223.61346 
L 643.68 224.605722 
L 644.3496 225.341931 
L 645.0192 225.8502 
L 646.3584 227.19115 
L 648.3672 228.553599 
L 649.0368 229.380416 
L 649.7064 229.987756 
L 653.0544 232.045767 
L 653.724 232.587905 
L 654.3936 233.321963 
L 658.4112 236.524874 
L 659.7504 238.087778 
L 660.42 238.646739 
L 661.7592 239.293422 
L 663.0984 239.683959 
L 665.1072 240.024655 
L 668.4552 240.431366 
L 669.7944 240.70375 
L 671.8032 240.726325 
L 674.4816 240.505348 
L 677.8296 239.971767 
L 679.1688 239.556762 
L 689.2128 235.60579 
L 693.9 233.736766 
L 695.2392 233.753221 
L 696.5784 233.444432 
L 699.2568 232.536934 
L 703.2744 230.921722 
L 707.9616 228.806532 
L 713.3184 226.159868 
L 720.0144 222.582913 
L 728.0496 218.004298 
L 738.7632 211.619059 
L 742.7808 209.166732 
L 744.12 209.313207 
L 745.4592 209.00476 
L 747.468 208.235227 
L 748.8072 208.619667 
L 750.1464 208.520691 
L 752.1552 208.012518 
L 753.4944 208.549164 
L 754.8336 208.588503 
L 756.1728 208.402883 
L 757.512 209.073477 
L 758.8512 209.218519 
L 760.1904 209.132115 
L 761.5296 209.874907 
L 762.1992 210.0251 
L 763.5384 211.003922 
L 764.8776 211.365221 
L 765.5472 211.433175 
L 766.8864 212.34 
L 768.2256 212.682751 
L 768.8952 212.752537 
L 770.2344 214.492748 
L 770.904 214.93566 
L 771.5736 215.218605 
L 774.252 217.678151 
L 775.5912 218.295248 
L 776.9304 218.629185 
L 777.6 219.152766 
L 777.6 219.152766 
" clip-path="url(#p64565bdb6f)" style="fill: none; stroke: #000000; stroke-width: 1.5; stroke-linecap: square"/>
   </g>
   <g id="line2d_24">
    <path d="M 108 208.239396 
L 110.6784 210.837451 
L 114.0264 213.591472 
L 117.3744 216.298864 
L 119.3832 218.252265 
L 122.7312 221.896001 
L 124.74 224.028026 
L 126.7488 225.851482 
L 128.7576 227.362446 
L 130.7664 228.600255 
L 132.7752 229.600197 
L 139.4712 232.5561 
L 142.1496 233.855377 
L 142.8192 201.907433 
L 143.4888 189.111195 
L 144.1584 183.405438 
L 144.828 180.601661 
L 145.4976 179.32923 
L 146.1672 179.045736 
L 146.8368 179.466791 
L 147.5064 180.409442 
L 148.176 181.735755 
L 149.5152 185.149294 
L 154.2024 198.499428 
L 156.2112 203.207511 
L 157.5504 205.884904 
L 158.8896 208.212213 
L 160.2288 210.217102 
L 161.568 211.930286 
L 162.9072 213.382246 
L 164.2464 214.601615 
L 165.5856 215.614425 
L 167.5944 216.7965 
L 169.6032 217.632908 
L 171.612 218.179125 
L 173.6208 218.480695 
L 175.6296 218.575089 
L 178.308 218.431384 
L 180.9864 218.033025 
L 183.6648 217.426589 
L 187.0128 216.431529 
L 191.0304 214.96254 
L 195.7176 212.961057 
L 200.4048 210.877731 
L 207.1008 208.59405 
L 209.1096 208.136151 
L 211.1184 207.915229 
L 215.8056 207.498869 
L 219.8232 206.897605 
L 223.8408 206.074038 
L 227.1888 205.308983 
L 228.528 205.274241 
L 230.5368 205.633404 
L 234.5544 206.551538 
L 235.8936 207.11776 
L 237.2328 207.978864 
L 239.2416 209.631062 
L 240.5808 210.933868 
L 245.9376 216.720732 
L 254.6424 224.941744 
L 259.3296 228.823166 
L 261.3384 230.153308 
L 264.0168 231.699619 
L 268.704 233.932224 
L 271.3824 234.965282 
L 274.7304 236.010474 
L 276.0696 236.318282 
L 276.7392 203.725731 
L 277.4088 190.643184 
L 278.0784 184.783767 
L 278.748 181.897791 
L 279.4176 180.564196 
L 280.0872 180.216111 
L 280.7568 180.562742 
L 281.4264 181.416446 
L 282.096 182.638583 
L 283.4352 185.80932 
L 288.1224 198.165996 
L 290.1312 202.454097 
L 291.4704 204.863549 
L 293.4792 207.952892 
L 294.8184 209.709359 
L 296.1576 211.215863 
L 297.4968 212.486948 
L 298.836 213.545202 
L 300.8448 214.783645 
L 302.8536 215.664458 
L 304.8624 216.24556 
L 306.8712 216.574374 
L 308.88 216.689781 
L 311.5584 216.56627 
L 314.2368 216.181008 
L 316.9152 215.582213 
L 320.2632 214.591098 
L 324.2808 213.121636 
L 328.968 211.116544 
L 334.3248 208.552209 
L 341.0208 205.083385 
L 347.0472 201.97861 
L 351.0648 200.551302 
L 355.752 198.997383 
L 357.0912 198.932471 
L 358.4304 199.136366 
L 359.7696 199.651278 
L 362.448 201.168706 
L 363.7872 202.153117 
L 367.1352 205.105668 
L 372.492 209.818937 
L 374.5008 211.52194 
L 377.1792 214.42874 
L 379.188 216.462313 
L 383.2056 220.328544 
L 387.2232 224.102975 
L 389.232 225.832227 
L 391.9104 227.783562 
L 395.2584 230.028316 
L 397.2672 231.100775 
L 399.9456 232.22897 
L 407.3112 234.989949 
L 409.9896 235.860558 
L 410.6592 203.421643 
L 411.3288 190.426784 
L 411.9984 184.631714 
L 412.668 181.800007 
L 413.3376 180.519496 
L 414.0072 180.228093 
L 414.6768 180.636022 
L 415.3464 181.555195 
L 416.016 182.846239 
L 417.3552 186.117025 
L 421.3728 196.883314 
L 423.3816 201.418178 
L 424.7208 203.990346 
L 426.06 206.212359 
L 428.0688 208.993352 
L 430.0776 211.292549 
L 431.4168 212.551334 
L 432.756 213.601995 
L 434.7648 214.831389 
L 436.7736 215.704152 
L 438.7824 216.278007 
L 440.7912 216.600427 
L 442.8 216.710282 
L 445.4784 216.580548 
L 448.1568 216.190211 
L 450.8352 215.58727 
L 454.1832 214.592006 
L 458.2008 213.118721 
L 462.888 211.11034 
L 468.2448 208.543349 
L 474.9408 205.233827 
L 477.6192 204.297601 
L 479.628 203.839754 
L 484.9848 202.922317 
L 486.324 202.903488 
L 489.0024 203.196811 
L 490.3416 203.489883 
L 491.6808 203.983277 
L 493.02 204.695474 
L 495.0288 206.048828 
L 499.0464 209.360641 
L 501.7248 211.447783 
L 505.7424 214.293017 
L 510.4296 217.54668 
L 515.1168 221.702672 
L 517.7952 224.023241 
L 520.4736 226.66997 
L 522.4824 228.558237 
L 525.8304 231.24862 
L 529.1784 233.803259 
L 531.8568 235.532181 
L 533.8656 236.626608 
L 535.8744 237.502856 
L 537.8832 238.177228 
L 540.5616 238.803764 
L 543.24 239.161999 
L 543.9096 239.214238 
L 544.5792 205.931273 
L 545.2488 192.576196 
L 545.9184 186.604762 
L 546.588 183.710207 
L 547.2576 182.423066 
L 547.9272 182.145292 
L 548.5968 182.568361 
L 549.2664 183.493796 
L 549.936 184.776331 
L 551.2752 187.983666 
L 555.2928 198.316996 
L 557.3016 202.584162 
L 558.6408 204.974885 
L 559.98 207.016648 
L 561.3192 208.736308 
L 562.6584 210.165026 
L 563.9976 211.334256 
L 565.3368 212.273708 
L 566.676 213.01041 
L 568.0152 213.568481 
L 570.024 214.116374 
L 572.0328 214.370316 
L 574.0416 214.379964 
L 576.0504 214.185863 
L 578.7288 213.666716 
L 581.4072 212.906992 
L 584.7552 211.693284 
L 588.7728 209.945252 
L 593.46 207.62213 
L 599.4864 204.351103 
L 603.504 202.143432 
L 606.1824 201.05925 
L 615.5568 197.583199 
L 619.5744 196.74705 
L 624.9312 195.646141 
L 626.2704 195.649096 
L 627.6096 195.961819 
L 630.288 196.987717 
L 631.6272 197.772364 
L 633.636 199.373044 
L 636.984 202.300812 
L 638.3232 203.561975 
L 639.6624 205.10146 
L 649.0368 216.768043 
L 652.3848 220.425748 
L 657.7416 225.726369 
L 663.768 231.379567 
L 665.7768 232.803692 
L 667.7856 233.956536 
L 671.1336 235.541165 
L 673.1424 236.275895 
L 675.8208 236.973858 
L 677.8296 237.310233 
L 678.4992 204.468275 
L 679.1688 191.280374 
L 679.8384 185.372488 
L 680.508 182.47516 
L 681.1776 181.149758 
L 681.8472 180.816804 
L 682.5168 181.177919 
L 683.1864 182.04248 
L 683.856 183.269927 
L 685.1952 186.389076 
L 689.2128 196.608225 
L 691.2216 200.864071 
L 692.5608 203.255553 
L 693.9 205.302612 
L 695.9088 207.892148 
L 697.248 209.348203 
L 698.5872 210.578211 
L 699.9264 211.594528 
L 701.2656 212.417752 
L 703.2744 213.336654 
L 705.2832 213.932605 
L 707.292 214.258629 
L 709.3008 214.35809 
L 711.3096 214.266481 
L 713.988 213.896901 
L 716.6664 213.295006 
L 720.0144 212.282307 
L 723.3624 211.04224 
L 727.38 209.326205 
L 732.7368 206.76135 
L 739.4328 203.273183 
L 744.12 200.796134 
L 746.7984 199.789111 
L 748.8072 199.179821 
L 751.4856 198.727626 
L 753.4944 198.516737 
L 756.1728 198.559471 
L 758.1816 198.778775 
L 761.5296 199.44845 
L 763.5384 200.111166 
L 766.8864 201.596605 
L 770.2344 203.361017 
L 772.9128 205.214292 
L 777.6 208.851269 
L 777.6 208.851269 
" clip-path="url(#p64565bdb6f)" style="fill: none; stroke: #4169e1; stroke-width: 1.5; stroke-linecap: square"/>
   </g>
   <g id="patch_3">
    <path d="M 108 256.32 
L 108 34.56 
" style="fill: none; stroke: #000000; stroke-width: 0.8; stroke-linejoin: miter; stroke-linecap: square"/>
   </g>
   <g id="patch_4">
    <path d="M 777.6 256.32 
L 777.6 34.56 
" style="fill: none; stroke: #000000; stroke-width: 0.8; stroke-linejoin: miter; stroke-linecap: square"/>
   </g>
   <g id="patch_5">
    <path d="M 108 256.32 
L 777.6 256.32 
" style="fill: none; stroke: #000000; stroke-width: 0.8; stroke-linejoin: miter; stroke-linecap: square"/>
   </g>
   <g id="patch_6">
    <path d="M 108 34.56 
L 777.6 34.56 
" style="fill: none; stroke: #000000; stroke-width: 0.8; stroke-linejoin: miter; stroke-linecap: square"/>
   </g>
   <g id="legend_1">
    <g id="patch_7">
     <path d="M 695.098438 71.91625 
L 770.6 71.91625 
Q 772.6 71.91625 772.6 69.91625 
L 772.6 41.56 
Q 772.6 39.56 770.6 39.56 
L 695.098438 39.56 
Q 693.098438 39.56 693.098438 41.56 
L 693.098438 69.91625 
Q 693.098438 71.91625 695.098438 71.91625 
z
" style="fill: #ffffff; opacity: 0.8; stroke: #cccccc; stroke-linejoin: miter"/>
    </g>
    <g id="line2d_25">
     <path d="M 697.098438 47.658437 
L 707.098438 47.658437 
L 717.098438 47.658437 
" style="fill: none; stroke: #000000; stroke-width: 1.5; stroke-linecap: square"/>
    </g>
    <g id="text_14">
     <!-- Soma -->
     <g transform="translate(725.098438 51.158437) scale(0.1 -0.1)">
      <defs>
       <path id="DejaVuSans-53" d="M 3425 4513 
L 3425 3897 
Q 3066 4069 2747 4153 
Q 2428 4238 2131 4238 
Q 1616 4238 1336 4038 
Q 1056 3838 1056 3469 
Q 1056 3159 1242 3001 
Q 1428 2844 1947 2747 
L 2328 2669 
Q 3034 2534 3370 2195 
Q 3706 1856 3706 1288 
Q 3706 609 3251 259 
Q 2797 -91 1919 -91 
Q 1588 -91 1214 -16 
Q 841 59 441 206 
L 441 856 
Q 825 641 1194 531 
Q 1563 422 1919 422 
Q 2459 422 2753 634 
Q 3047 847 3047 1241 
Q 3047 1584 2836 1778 
Q 2625 1972 2144 2069 
L 1759 2144 
Q 1053 2284 737 2584 
Q 422 2884 422 3419 
Q 422 4038 858 4394 
Q 1294 4750 2059 4750 
Q 2388 4750 2728 4690 
Q 3069 4631 3425 4513 
z
" transform="scale(0.015625)"/>
       <path id="DejaVuSans-6f" d="M 1959 3097 
Q 1497 3097 1228 2736 
Q 959 2375 959 1747 
Q 959 1119 1226 758 
Q 1494 397 1959 397 
Q 2419 397 2687 759 
Q 2956 1122 2956 1747 
Q 2956 2369 2687 2733 
Q 2419 3097 1959 3097 
z
M 1959 3584 
Q 2709 3584 3137 3096 
Q 3566 2609 3566 1747 
Q 3566 888 3137 398 
Q 2709 -91 1959 -91 
Q 1206 -91 779 398 
Q 353 888 353 1747 
Q 353 2609 779 3096 
Q 1206 3584 1959 3584 
z
" transform="scale(0.015625)"/>
       <path id="DejaVuSans-61" d="M 2194 1759 
Q 1497 1759 1228 1600 
Q 959 1441 959 1056 
Q 959 750 1161 570 
Q 1363 391 1709 391 
Q 2188 391 2477 730 
Q 2766 1069 2766 1631 
L 2766 1759 
L 2194 1759 
z
M 3341 1997 
L 3341 0 
L 2766 0 
L 2766 531 
Q 2569 213 2275 61 
Q 1981 -91 1556 -91 
Q 1019 -91 701 211 
Q 384 513 384 1019 
Q 384 1609 779 1909 
Q 1175 2209 1959 2209 
L 2766 2209 
L 2766 2266 
Q 2766 2663 2505 2880 
Q 2244 3097 1772 3097 
Q 1472 3097 1187 3025 
Q 903 2953 641 2809 
L 641 3341 
Q 956 3463 1253 3523 
Q 1550 3584 1831 3584 
Q 2591 3584 2966 3190 
Q 3341 2797 3341 1997 
z
" transform="scale(0.015625)"/>
      </defs>
      <use xlink:href="#DejaVuSans-53"/>
      <use xlink:href="#DejaVuSans-6f" x="63.476562"/>
      <use xlink:href="#DejaVuSans-6d" x="124.658203"/>
      <use xlink:href="#DejaVuSans-61" x="222.070312"/>
     </g>
    </g>
    <g id="line2d_26">
     <path d="M 697.098438 62.336562 
L 707.098438 62.336562 
L 717.098438 62.336562 
" style="fill: none; stroke: #4169e1; stroke-width: 1.5; stroke-linecap: square"/>
    </g>
    <g id="text_15">
     <!-- Dendrite -->
     <g transform="translate(725.098438 65.836562) scale(0.1 -0.1)">
      <defs>
       <path id="DejaVuSans-44" d="M 1259 4147 
L 1259 519 
L 2022 519 
Q 2988 519 3436 956 
Q 3884 1394 3884 2338 
Q 3884 3275 3436 3711 
Q 2988 4147 2022 4147 
L 1259 4147 
z
M 628 4666 
L 1925 4666 
Q 3281 4666 3915 4102 
Q 4550 3538 4550 2338 
Q 4550 1131 3912 565 
Q 3275 0 1925 0 
L 628 0 
L 628 4666 
z
" transform="scale(0.015625)"/>
       <path id="DejaVuSans-6e" d="M 3513 2113 
L 3513 0 
L 2938 0 
L 2938 2094 
Q 2938 2591 2744 2837 
Q 2550 3084 2163 3084 
Q 1697 3084 1428 2787 
Q 1159 2491 1159 1978 
L 1159 0 
L 581 0 
L 581 3500 
L 1159 3500 
L 1159 2956 
Q 1366 3272 1645 3428 
Q 1925 3584 2291 3584 
Q 2894 3584 3203 3211 
Q 3513 2838 3513 2113 
z
" transform="scale(0.015625)"/>
       <path id="DejaVuSans-64" d="M 2906 2969 
L 2906 4863 
L 3481 4863 
L 3481 0 
L 2906 0 
L 2906 525 
Q 2725 213 2448 61 
Q 2172 -91 1784 -91 
Q 1150 -91 751 415 
Q 353 922 353 1747 
Q 353 2572 751 3078 
Q 1150 3584 1784 3584 
Q 2172 3584 2448 3432 
Q 2725 3281 2906 2969 
z
M 947 1747 
Q 947 1113 1208 752 
Q 1469 391 1925 391 
Q 2381 391 2643 752 
Q 2906 1113 2906 1747 
Q 2906 2381 2643 2742 
Q 2381 3103 1925 3103 
Q 1469 3103 1208 2742 
Q 947 2381 947 1747 
z
" transform="scale(0.015625)"/>
       <path id="DejaVuSans-72" d="M 2631 2963 
Q 2534 3019 2420 3045 
Q 2306 3072 2169 3072 
Q 1681 3072 1420 2755 
Q 1159 2438 1159 1844 
L 1159 0 
L 581 0 
L 581 3500 
L 1159 3500 
L 1159 2956 
Q 1341 3275 1631 3429 
Q 1922 3584 2338 3584 
Q 2397 3584 2469 3576 
Q 2541 3569 2628 3553 
L 2631 2963 
z
" transform="scale(0.015625)"/>
       <path id="DejaVuSans-74" d="M 1172 4494 
L 1172 3500 
L 2356 3500 
L 2356 3053 
L 1172 3053 
L 1172 1153 
Q 1172 725 1289 603 
Q 1406 481 1766 481 
L 2356 481 
L 2356 0 
L 1766 0 
Q 1100 0 847 248 
Q 594 497 594 1153 
L 594 3053 
L 172 3053 
L 172 3500 
L 594 3500 
L 594 4494 
L 1172 4494 
z
" transform="scale(0.015625)"/>
      </defs>
      <use xlink:href="#DejaVuSans-44"/>
      <use xlink:href="#DejaVuSans-65" x="77.001953"/>
      <use xlink:href="#DejaVuSans-6e" x="138.525391"/>
      <use xlink:href="#DejaVuSans-64" x="201.904297"/>
      <use xlink:href="#DejaVuSans-72" x="265.380859"/>
      <use xlink:href="#DejaVuSans-69" x="306.494141"/>
      <use xlink:href="#DejaVuSans-74" x="334.277344"/>
      <use xlink:href="#DejaVuSans-65" x="373.486328"/>
     </g>
    </g>
   </g>
  </g>
 </g>
 <defs>
  <clipPath id="p64565bdb6f">
   <rect x="108" y="34.56" width="669.6" height="221.76"/>
  </clipPath>
 </defs>
</svg>
