<?xml version="1.0" encoding="utf-8" standalone="no"?>
<!DOCTYPE svg PUBLIC "-//W3C//DTD SVG 1.1//EN"
  "http://www.w3.org/Graphics/SVG/1.1/DTD/svg11.dtd">
<svg xmlns:xlink="http://www.w3.org/1999/xlink" width="864pt" height="288pt" viewBox="0 0 864 288" xmlns="http://www.w3.org/2000/svg" version="1.1">
 <metadata>
  <rdf:RDF xmlns:dc="http://purl.org/dc/elements/1.1/" xmlns:cc="http://creativecommons.org/ns#" xmlns:rdf="http://www.w3.org/1999/02/22-rdf-syntax-ns#">
   <cc:Work>
    <dc:type rdf:resource="http://purl.org/dc/dcmitype/StillImage"/>
    <dc:date>2024-04-26T13:22:59.739045</dc:date>
    <dc:format>image/svg+xml</dc:format>
    <dc:creator>
     <cc:Agent>
      <dc:title>Matplotlib v3.8.2, https://matplotlib.org/</dc:title>
     </cc:Agent>
    </dc:creator>
   </cc:Work>
  </rdf:RDF>
 </metadata>
 <defs>
  <style type="text/css">*{stroke-linejoin: round; stroke-linecap: butt}</style>
 </defs>
 <g id="figure_1">
  <g id="patch_1">
   <path d="M 0 288 
L 864 288 
L 864 0 
L 0 0 
z
" style="fill: #ffffff"/>
  </g>
  <g id="axes_1">
   <g id="patch_2">
    <path d="M 108 256.32 
L 777.6 256.32 
L 777.6 34.56 
L 108 34.56 
z
" style="fill: #ffffff"/>
   </g>
   <g id="matplotlib.axis_1">
    <g id="xtick_1">
     <g id="line2d_1">
      <path d="M 108 256.32 
L 108 34.56 
" clip-path="url(#p4a57718443)" style="fill: none; stroke: #b0b0b0; stroke-width: 0.8; stroke-linecap: square"/>
     </g>
     <g id="line2d_2">
      <defs>
       <path id="md03ea6df43" d="M 0 0 
L 0 3.5 
" style="stroke: #000000; stroke-width: 0.8"/>
      </defs>
      <g>
       <use xlink:href="#md03ea6df43" x="108" y="256.32" style="stroke: #000000; stroke-width: 0.8"/>
      </g>
     </g>
     <g id="text_1">
      <!-- 100 -->
      <g transform="translate(94.63875 273.957812) scale(0.14 -0.14)">
       <defs>
        <path id="DejaVuSans-31" d="M 794 531 
L 1825 531 
L 1825 4091 
L 703 3866 
L 703 4441 
L 1819 4666 
L 2450 4666 
L 2450 531 
L 3481 531 
L 3481 0 
L 794 0 
L 794 531 
z
" transform="scale(0.015625)"/>
        <path id="DejaVuSans-30" d="M 2034 4250 
Q 1547 4250 1301 3770 
Q 1056 3291 1056 2328 
Q 1056 1369 1301 889 
Q 1547 409 2034 409 
Q 2525 409 2770 889 
Q 3016 1369 3016 2328 
Q 3016 3291 2770 3770 
Q 2525 4250 2034 4250 
z
M 2034 4750 
Q 2819 4750 3233 4129 
Q 3647 3509 3647 2328 
Q 3647 1150 3233 529 
Q 2819 -91 2034 -91 
Q 1250 -91 836 529 
Q 422 1150 422 2328 
Q 422 3509 836 4129 
Q 1250 4750 2034 4750 
z
" transform="scale(0.015625)"/>
       </defs>
       <use xlink:href="#DejaVuSans-31"/>
       <use xlink:href="#DejaVuSans-30" x="63.623047"/>
       <use xlink:href="#DejaVuSans-30" x="127.246094"/>
      </g>
     </g>
    </g>
    <g id="xtick_2">
     <g id="line2d_3">
      <path d="M 241.92 256.32 
L 241.92 34.56 
" clip-path="url(#p4a57718443)" style="fill: none; stroke: #b0b0b0; stroke-width: 0.8; stroke-linecap: square"/>
     </g>
     <g id="line2d_4">
      <g>
       <use xlink:href="#md03ea6df43" x="241.92" y="256.32" style="stroke: #000000; stroke-width: 0.8"/>
      </g>
     </g>
     <g id="text_2">
      <!-- 120 -->
      <g transform="translate(228.55875 273.957812) scale(0.14 -0.14)">
       <defs>
        <path id="DejaVuSans-32" d="M 1228 531 
L 3431 531 
L 3431 0 
L 469 0 
L 469 531 
Q 828 903 1448 1529 
Q 2069 2156 2228 2338 
Q 2531 2678 2651 2914 
Q 2772 3150 2772 3378 
Q 2772 3750 2511 3984 
Q 2250 4219 1831 4219 
Q 1534 4219 1204 4116 
Q 875 4013 500 3803 
L 500 4441 
Q 881 4594 1212 4672 
Q 1544 4750 1819 4750 
Q 2544 4750 2975 4387 
Q 3406 4025 3406 3419 
Q 3406 3131 3298 2873 
Q 3191 2616 2906 2266 
Q 2828 2175 2409 1742 
Q 1991 1309 1228 531 
z
" transform="scale(0.015625)"/>
       </defs>
       <use xlink:href="#DejaVuSans-31"/>
       <use xlink:href="#DejaVuSans-32" x="63.623047"/>
       <use xlink:href="#DejaVuSans-30" x="127.246094"/>
      </g>
     </g>
    </g>
    <g id="xtick_3">
     <g id="line2d_5">
      <path d="M 375.84 256.32 
L 375.84 34.56 
" clip-path="url(#p4a57718443)" style="fill: none; stroke: #b0b0b0; stroke-width: 0.8; stroke-linecap: square"/>
     </g>
     <g id="line2d_6">
      <g>
       <use xlink:href="#md03ea6df43" x="375.84" y="256.32" style="stroke: #000000; stroke-width: 0.8"/>
      </g>
     </g>
     <g id="text_3">
      <!-- 140 -->
      <g transform="translate(362.47875 273.957812) scale(0.14 -0.14)">
       <defs>
        <path id="DejaVuSans-34" d="M 2419 4116 
L 825 1625 
L 2419 1625 
L 2419 4116 
z
M 2253 4666 
L 3047 4666 
L 3047 1625 
L 3713 1625 
L 3713 1100 
L 3047 1100 
L 3047 0 
L 2419 0 
L 2419 1100 
L 313 1100 
L 313 1709 
L 2253 4666 
z
" transform="scale(0.015625)"/>
       </defs>
       <use xlink:href="#DejaVuSans-31"/>
       <use xlink:href="#DejaVuSans-34" x="63.623047"/>
       <use xlink:href="#DejaVuSans-30" x="127.246094"/>
      </g>
     </g>
    </g>
    <g id="xtick_4">
     <g id="line2d_7">
      <path d="M 509.76 256.32 
L 509.76 34.56 
" clip-path="url(#p4a57718443)" style="fill: none; stroke: #b0b0b0; stroke-width: 0.8; stroke-linecap: square"/>
     </g>
     <g id="line2d_8">
      <g>
       <use xlink:href="#md03ea6df43" x="509.76" y="256.32" style="stroke: #000000; stroke-width: 0.8"/>
      </g>
     </g>
     <g id="text_4">
      <!-- 160 -->
      <g transform="translate(496.39875 273.957812) scale(0.14 -0.14)">
       <defs>
        <path id="DejaVuSans-36" d="M 2113 2584 
Q 1688 2584 1439 2293 
Q 1191 2003 1191 1497 
Q 1191 994 1439 701 
Q 1688 409 2113 409 
Q 2538 409 2786 701 
Q 3034 994 3034 1497 
Q 3034 2003 2786 2293 
Q 2538 2584 2113 2584 
z
M 3366 4563 
L 3366 3988 
Q 3128 4100 2886 4159 
Q 2644 4219 2406 4219 
Q 1781 4219 1451 3797 
Q 1122 3375 1075 2522 
Q 1259 2794 1537 2939 
Q 1816 3084 2150 3084 
Q 2853 3084 3261 2657 
Q 3669 2231 3669 1497 
Q 3669 778 3244 343 
Q 2819 -91 2113 -91 
Q 1303 -91 875 529 
Q 447 1150 447 2328 
Q 447 3434 972 4092 
Q 1497 4750 2381 4750 
Q 2619 4750 2861 4703 
Q 3103 4656 3366 4563 
z
" transform="scale(0.015625)"/>
       </defs>
       <use xlink:href="#DejaVuSans-31"/>
       <use xlink:href="#DejaVuSans-36" x="63.623047"/>
       <use xlink:href="#DejaVuSans-30" x="127.246094"/>
      </g>
     </g>
    </g>
    <g id="xtick_5">
     <g id="line2d_9">
      <path d="M 643.68 256.32 
L 643.68 34.56 
" clip-path="url(#p4a57718443)" style="fill: none; stroke: #b0b0b0; stroke-width: 0.8; stroke-linecap: square"/>
     </g>
     <g id="line2d_10">
      <g>
       <use xlink:href="#md03ea6df43" x="643.68" y="256.32" style="stroke: #000000; stroke-width: 0.8"/>
      </g>
     </g>
     <g id="text_5">
      <!-- 180 -->
      <g transform="translate(630.31875 273.957812) scale(0.14 -0.14)">
       <defs>
        <path id="DejaVuSans-38" d="M 2034 2216 
Q 1584 2216 1326 1975 
Q 1069 1734 1069 1313 
Q 1069 891 1326 650 
Q 1584 409 2034 409 
Q 2484 409 2743 651 
Q 3003 894 3003 1313 
Q 3003 1734 2745 1975 
Q 2488 2216 2034 2216 
z
M 1403 2484 
Q 997 2584 770 2862 
Q 544 3141 544 3541 
Q 544 4100 942 4425 
Q 1341 4750 2034 4750 
Q 2731 4750 3128 4425 
Q 3525 4100 3525 3541 
Q 3525 3141 3298 2862 
Q 3072 2584 2669 2484 
Q 3125 2378 3379 2068 
Q 3634 1759 3634 1313 
Q 3634 634 3220 271 
Q 2806 -91 2034 -91 
Q 1263 -91 848 271 
Q 434 634 434 1313 
Q 434 1759 690 2068 
Q 947 2378 1403 2484 
z
M 1172 3481 
Q 1172 3119 1398 2916 
Q 1625 2713 2034 2713 
Q 2441 2713 2670 2916 
Q 2900 3119 2900 3481 
Q 2900 3844 2670 4047 
Q 2441 4250 2034 4250 
Q 1625 4250 1398 4047 
Q 1172 3844 1172 3481 
z
" transform="scale(0.015625)"/>
       </defs>
       <use xlink:href="#DejaVuSans-31"/>
       <use xlink:href="#DejaVuSans-38" x="63.623047"/>
       <use xlink:href="#DejaVuSans-30" x="127.246094"/>
      </g>
     </g>
    </g>
    <g id="xtick_6">
     <g id="line2d_11">
      <path d="M 777.6 256.32 
L 777.6 34.56 
" clip-path="url(#p4a57718443)" style="fill: none; stroke: #b0b0b0; stroke-width: 0.8; stroke-linecap: square"/>
     </g>
     <g id="line2d_12">
      <g>
       <use xlink:href="#md03ea6df43" x="777.6" y="256.32" style="stroke: #000000; stroke-width: 0.8"/>
      </g>
     </g>
     <g id="text_6">
      <!-- 200 -->
      <g transform="translate(764.23875 273.957812) scale(0.14 -0.14)">
       <use xlink:href="#DejaVuSans-32"/>
       <use xlink:href="#DejaVuSans-30" x="63.623047"/>
       <use xlink:href="#DejaVuSans-30" x="127.246094"/>
      </g>
     </g>
    </g>
    <g id="text_7">
     <!-- Time (ms) -->
     <g transform="translate(407.521094 291.507187) scale(0.14 -0.14)">
      <defs>
       <path id="DejaVuSans-54" d="M -19 4666 
L 3928 4666 
L 3928 4134 
L 2272 4134 
L 2272 0 
L 1638 0 
L 1638 4134 
L -19 4134 
L -19 4666 
z
" transform="scale(0.015625)"/>
       <path id="DejaVuSans-69" d="M 603 3500 
L 1178 3500 
L 1178 0 
L 603 0 
L 603 3500 
z
M 603 4863 
L 1178 4863 
L 1178 4134 
L 603 4134 
L 603 4863 
z
" transform="scale(0.015625)"/>
       <path id="DejaVuSans-6d" d="M 3328 2828 
Q 3544 3216 3844 3400 
Q 4144 3584 4550 3584 
Q 5097 3584 5394 3201 
Q 5691 2819 5691 2113 
L 5691 0 
L 5113 0 
L 5113 2094 
Q 5113 2597 4934 2840 
Q 4756 3084 4391 3084 
Q 3944 3084 3684 2787 
Q 3425 2491 3425 1978 
L 3425 0 
L 2847 0 
L 2847 2094 
Q 2847 2600 2669 2842 
Q 2491 3084 2119 3084 
Q 1678 3084 1418 2786 
Q 1159 2488 1159 1978 
L 1159 0 
L 581 0 
L 581 3500 
L 1159 3500 
L 1159 2956 
Q 1356 3278 1631 3431 
Q 1906 3584 2284 3584 
Q 2666 3584 2933 3390 
Q 3200 3197 3328 2828 
z
" transform="scale(0.015625)"/>
       <path id="DejaVuSans-65" d="M 3597 1894 
L 3597 1613 
L 953 1613 
Q 991 1019 1311 708 
Q 1631 397 2203 397 
Q 2534 397 2845 478 
Q 3156 559 3463 722 
L 3463 178 
Q 3153 47 2828 -22 
Q 2503 -91 2169 -91 
Q 1331 -91 842 396 
Q 353 884 353 1716 
Q 353 2575 817 3079 
Q 1281 3584 2069 3584 
Q 2775 3584 3186 3129 
Q 3597 2675 3597 1894 
z
M 3022 2063 
Q 3016 2534 2758 2815 
Q 2500 3097 2075 3097 
Q 1594 3097 1305 2825 
Q 1016 2553 972 2059 
L 3022 2063 
z
" transform="scale(0.015625)"/>
       <path id="DejaVuSans-20" transform="scale(0.015625)"/>
       <path id="DejaVuSans-28" d="M 1984 4856 
Q 1566 4138 1362 3434 
Q 1159 2731 1159 2009 
Q 1159 1288 1364 580 
Q 1569 -128 1984 -844 
L 1484 -844 
Q 1016 -109 783 600 
Q 550 1309 550 2009 
Q 550 2706 781 3412 
Q 1013 4119 1484 4856 
L 1984 4856 
z
" transform="scale(0.015625)"/>
       <path id="DejaVuSans-73" d="M 2834 3397 
L 2834 2853 
Q 2591 2978 2328 3040 
Q 2066 3103 1784 3103 
Q 1356 3103 1142 2972 
Q 928 2841 928 2578 
Q 928 2378 1081 2264 
Q 1234 2150 1697 2047 
L 1894 2003 
Q 2506 1872 2764 1633 
Q 3022 1394 3022 966 
Q 3022 478 2636 193 
Q 2250 -91 1575 -91 
Q 1294 -91 989 -36 
Q 684 19 347 128 
L 347 722 
Q 666 556 975 473 
Q 1284 391 1588 391 
Q 1994 391 2212 530 
Q 2431 669 2431 922 
Q 2431 1156 2273 1281 
Q 2116 1406 1581 1522 
L 1381 1569 
Q 847 1681 609 1914 
Q 372 2147 372 2553 
Q 372 3047 722 3315 
Q 1072 3584 1716 3584 
Q 2034 3584 2315 3537 
Q 2597 3491 2834 3397 
z
" transform="scale(0.015625)"/>
       <path id="DejaVuSans-29" d="M 513 4856 
L 1013 4856 
Q 1481 4119 1714 3412 
Q 1947 2706 1947 2009 
Q 1947 1309 1714 600 
Q 1481 -109 1013 -844 
L 513 -844 
Q 928 -128 1133 580 
Q 1338 1288 1338 2009 
Q 1338 2731 1133 3434 
Q 928 4138 513 4856 
z
" transform="scale(0.015625)"/>
      </defs>
      <use xlink:href="#DejaVuSans-54"/>
      <use xlink:href="#DejaVuSans-69" x="57.958984"/>
      <use xlink:href="#DejaVuSans-6d" x="85.742188"/>
      <use xlink:href="#DejaVuSans-65" x="183.154297"/>
      <use xlink:href="#DejaVuSans-20" x="244.677734"/>
      <use xlink:href="#DejaVuSans-28" x="276.464844"/>
      <use xlink:href="#DejaVuSans-6d" x="315.478516"/>
      <use xlink:href="#DejaVuSans-73" x="412.890625"/>
      <use xlink:href="#DejaVuSans-29" x="464.990234"/>
     </g>
    </g>
   </g>
   <g id="matplotlib.axis_2">
    <g id="ytick_1">
     <g id="line2d_13">
      <path d="M 108 223.863382 
L 777.6 223.863382 
" clip-path="url(#p4a57718443)" style="fill: none; stroke: #b0b0b0; stroke-width: 0.8; stroke-linecap: square"/>
     </g>
     <g id="line2d_14">
      <defs>
       <path id="m5ecb9853e0" d="M 0 0 
L -3.5 0 
" style="stroke: #000000; stroke-width: 0.8"/>
      </defs>
      <g>
       <use xlink:href="#m5ecb9853e0" x="108" y="223.863382" style="stroke: #000000; stroke-width: 0.8"/>
      </g>
     </g>
     <g id="text_8">
      <!-- −60 -->
      <g transform="translate(71.453437 229.182289) scale(0.14 -0.14)">
       <defs>
        <path id="DejaVuSans-2212" d="M 678 2272 
L 4684 2272 
L 4684 1741 
L 678 1741 
L 678 2272 
z
" transform="scale(0.015625)"/>
       </defs>
       <use xlink:href="#DejaVuSans-2212"/>
       <use xlink:href="#DejaVuSans-36" x="83.789062"/>
       <use xlink:href="#DejaVuSans-30" x="147.412109"/>
      </g>
     </g>
    </g>
    <g id="ytick_2">
     <g id="line2d_15">
      <path d="M 108 179.181457 
L 777.6 179.181457 
" clip-path="url(#p4a57718443)" style="fill: none; stroke: #b0b0b0; stroke-width: 0.8; stroke-linecap: square"/>
     </g>
     <g id="line2d_16">
      <g>
       <use xlink:href="#m5ecb9853e0" x="108" y="179.181457" style="stroke: #000000; stroke-width: 0.8"/>
      </g>
     </g>
     <g id="text_9">
      <!-- −40 -->
      <g transform="translate(71.453437 184.500363) scale(0.14 -0.14)">
       <use xlink:href="#DejaVuSans-2212"/>
       <use xlink:href="#DejaVuSans-34" x="83.789062"/>
       <use xlink:href="#DejaVuSans-30" x="147.412109"/>
      </g>
     </g>
    </g>
    <g id="ytick_3">
     <g id="line2d_17">
      <path d="M 108 134.499532 
L 777.6 134.499532 
" clip-path="url(#p4a57718443)" style="fill: none; stroke: #b0b0b0; stroke-width: 0.8; stroke-linecap: square"/>
     </g>
     <g id="line2d_18">
      <g>
       <use xlink:href="#m5ecb9853e0" x="108" y="134.499532" style="stroke: #000000; stroke-width: 0.8"/>
      </g>
     </g>
     <g id="text_10">
      <!-- −20 -->
      <g transform="translate(71.453437 139.818438) scale(0.14 -0.14)">
       <use xlink:href="#DejaVuSans-2212"/>
       <use xlink:href="#DejaVuSans-32" x="83.789062"/>
       <use xlink:href="#DejaVuSans-30" x="147.412109"/>
      </g>
     </g>
    </g>
    <g id="ytick_4">
     <g id="line2d_19">
      <path d="M 108 89.817607 
L 777.6 89.817607 
" clip-path="url(#p4a57718443)" style="fill: none; stroke: #b0b0b0; stroke-width: 0.8; stroke-linecap: square"/>
     </g>
     <g id="line2d_20">
      <g>
       <use xlink:href="#m5ecb9853e0" x="108" y="89.817607" style="stroke: #000000; stroke-width: 0.8"/>
      </g>
     </g>
     <g id="text_11">
      <!-- 0 -->
      <g transform="translate(92.0925 95.136513) scale(0.14 -0.14)">
       <use xlink:href="#DejaVuSans-30"/>
      </g>
     </g>
    </g>
    <g id="ytick_5">
     <g id="line2d_21">
      <path d="M 108 45.135681 
L 777.6 45.135681 
" clip-path="url(#p4a57718443)" style="fill: none; stroke: #b0b0b0; stroke-width: 0.8; stroke-linecap: square"/>
     </g>
     <g id="line2d_22">
      <g>
       <use xlink:href="#m5ecb9853e0" x="108" y="45.135681" style="stroke: #000000; stroke-width: 0.8"/>
      </g>
     </g>
     <g id="text_12">
      <!-- 20 -->
      <g transform="translate(83.185 50.454588) scale(0.14 -0.14)">
       <use xlink:href="#DejaVuSans-32"/>
       <use xlink:href="#DejaVuSans-30" x="63.623047"/>
      </g>
     </g>
    </g>
    <g id="text_13">
     <!-- $V_{m}$ (mV) -->
     <g transform="translate(64.541875 174.49) rotate(-90) scale(0.14 -0.14)">
      <defs>
       <path id="DejaVuSans-Oblique-56" d="M 1319 0 
L 500 4666 
L 1119 4666 
L 1797 653 
L 4063 4666 
L 4750 4666 
L 2053 0 
L 1319 0 
z
" transform="scale(0.015625)"/>
       <path id="DejaVuSans-Oblique-6d" d="M 5747 2113 
L 5338 0 
L 4763 0 
L 5166 2094 
Q 5191 2228 5203 2325 
Q 5216 2422 5216 2491 
Q 5216 2772 5059 2928 
Q 4903 3084 4622 3084 
Q 4203 3084 3875 2770 
Q 3547 2456 3450 1953 
L 3066 0 
L 2491 0 
L 2900 2094 
Q 2925 2209 2937 2307 
Q 2950 2406 2950 2484 
Q 2950 2769 2794 2926 
Q 2638 3084 2363 3084 
Q 1938 3084 1609 2770 
Q 1281 2456 1184 1953 
L 800 0 
L 225 0 
L 909 3500 
L 1484 3500 
L 1375 2956 
Q 1609 3263 1923 3423 
Q 2238 3584 2597 3584 
Q 2978 3584 3223 3384 
Q 3469 3184 3519 2828 
Q 3781 3197 4126 3390 
Q 4472 3584 4856 3584 
Q 5306 3584 5551 3325 
Q 5797 3066 5797 2591 
Q 5797 2488 5784 2364 
Q 5772 2241 5747 2113 
z
" transform="scale(0.015625)"/>
       <path id="DejaVuSans-56" d="M 1831 0 
L 50 4666 
L 709 4666 
L 2188 738 
L 3669 4666 
L 4325 4666 
L 2547 0 
L 1831 0 
z
" transform="scale(0.015625)"/>
      </defs>
      <use xlink:href="#DejaVuSans-Oblique-56" transform="translate(0 0.125)"/>
      <use xlink:href="#DejaVuSans-Oblique-6d" transform="translate(68.408203 -16.28125) scale(0.7)"/>
      <use xlink:href="#DejaVuSans-20" transform="translate(139.331055 0.125)"/>
      <use xlink:href="#DejaVuSans-28" transform="translate(171.118164 0.125)"/>
      <use xlink:href="#DejaVuSans-6d" transform="translate(210.131836 0.125)"/>
      <use xlink:href="#DejaVuSans-56" transform="translate(307.543945 0.125)"/>
      <use xlink:href="#DejaVuSans-29" transform="translate(375.952148 0.125)"/>
     </g>
    </g>
   </g>
   <g id="line2d_23">
    <path d="M 108 220.467369 
L 109.3392 221.1431 
L 110.6784 221.581151 
L 111.348 221.74223 
L 112.6872 222.695257 
L 114.0264 223.150639 
L 116.0352 224.686057 
L 119.3832 228.640921 
L 120.0528 229.100852 
L 120.7224 230.071438 
L 122.7312 232.21624 
L 124.0704 232.93127 
L 125.4096 233.387431 
L 127.4184 233.82366 
L 129.4272 234.05836 
L 132.1056 234.136543 
L 134.1144 234.05037 
L 136.1232 234.855496 
L 136.7928 235.695986 
L 137.4624 236.284831 
L 138.132 236.599651 
L 138.8016 236.78973 
L 140.1408 237.494467 
L 141.48 237.768618 
L 143.4888 237.869878 
L 144.828 238.325794 
L 146.1672 238.431459 
L 148.176 238.343809 
L 149.5152 238.696313 
L 150.8544 238.714044 
L 152.8632 238.511453 
L 155.5416 238.038099 
L 158.8896 237.224842 
L 162.9072 235.997963 
L 166.9248 234.547455 
L 171.612 232.619364 
L 176.9688 230.15476 
L 182.9952 227.106525 
L 189.6912 223.444824 
L 197.7264 218.767764 
L 198.396 218.367682 
L 199.7352 218.39559 
L 201.0744 217.998201 
L 203.7528 216.834216 
L 205.7616 215.857434 
L 207.1008 216.043186 
L 208.44 215.775593 
L 209.7792 216.191422 
L 211.1184 216.097946 
L 213.1272 215.625051 
L 216.4752 214.521807 
L 220.4928 212.940782 
L 225.8496 210.570491 
L 227.1888 210.88621 
L 227.8584 211.823951 
L 228.528 212.546522 
L 229.1976 212.900099 
L 230.5368 213.165261 
L 231.876 213.175611 
L 232.5456 213.128533 
L 234.5544 214.435427 
L 235.8936 216.379462 
L 236.5632 217.52737 
L 239.2416 220.786941 
L 239.9112 221.842745 
L 240.5808 223.364113 
L 241.2504 224.481581 
L 241.92 225.198948 
L 243.2592 226.137265 
L 244.5984 226.757625 
L 245.9376 227.829219 
L 246.6072 228.156806 
L 247.2768 228.743487 
L 247.9464 229.548411 
L 251.2944 232.349185 
L 252.6336 232.748837 
L 253.9728 232.941932 
L 255.312 234.140875 
L 255.9816 234.733499 
L 256.6512 235.165441 
L 257.9904 235.630703 
L 259.9992 235.975529 
L 260.6688 236.039808 
L 262.008 236.627946 
L 263.3472 236.852957 
L 264.6864 236.928541 
L 267.3648 238.076376 
L 268.704 238.287708 
L 270.7128 238.317375 
L 272.052 238.7318 
L 273.3912 238.805308 
L 275.4 238.679161 
L 278.0784 238.296867 
L 281.4264 237.583539 
L 282.096 237.414934 
L 283.4352 237.57795 
L 284.7744 237.422344 
L 287.4528 236.809542 
L 290.8008 235.805937 
L 291.4704 235.582565 
L 292.8096 235.673349 
L 294.1488 235.437528 
L 296.8272 234.663547 
L 300.8448 233.214731 
L 305.532 231.253806 
L 310.8888 228.743433 
L 316.9152 225.646764 
L 323.6112 221.941807 
L 331.6464 217.234171 
L 343.6992 209.8842 
L 345.0384 209.05026 
L 346.3776 209.194835 
L 347.7168 208.876905 
L 349.7256 208.093256 
L 353.0736 206.513677 
L 354.4128 205.825009 
L 355.752 207.163423 
L 356.4216 207.450991 
L 358.4304 209.332956 
L 359.1 210.393942 
L 359.7696 211.144626 
L 360.4392 211.597023 
L 361.7784 212.101356 
L 363.1176 214.065474 
L 363.7872 215.036982 
L 364.4568 215.760595 
L 366.4656 217.256138 
L 367.1352 217.814296 
L 367.8048 218.177927 
L 369.144 219.406663 
L 370.4832 220.021044 
L 371.8224 220.373574 
L 372.492 220.493917 
L 373.8312 222.119787 
L 374.5008 223.688218 
L 375.1704 224.894258 
L 375.84 225.620992 
L 377.1792 226.516895 
L 378.5184 227.083573 
L 379.188 227.29477 
L 379.8576 227.817974 
L 381.8664 230.098839 
L 382.536 230.507056 
L 383.2056 231.12769 
L 383.8752 231.581089 
L 384.5448 231.828761 
L 386.5536 233.103359 
L 387.2232 233.467812 
L 388.5624 233.831881 
L 390.5712 234.07561 
L 391.2408 234.414915 
L 391.9104 234.976197 
L 392.58 235.360283 
L 393.9192 235.726838 
L 395.928 235.941299 
L 398.6064 235.94048 
L 399.9456 236.380118 
L 400.6152 236.4529 
L 401.9544 236.975913 
L 403.2936 237.108634 
L 405.972 238.208459 
L 407.3112 238.381533 
L 407.9808 238.396551 
L 409.32 238.842436 
L 410.6592 238.931846 
L 412.668 238.816043 
L 415.3464 238.435885 
L 418.6944 237.717638 
L 422.712 236.584697 
L 426.7296 235.212949 
L 428.0688 235.274198 
L 429.408 235.009708 
L 432.0864 234.182987 
L 436.104 232.666532 
L 440.7912 230.639943 
L 446.148 228.067757 
L 452.1744 224.915177 
L 458.8704 221.163076 
L 467.5752 216.015216 
L 472.932 212.757844 
L 474.2712 212.856465 
L 475.6104 212.499199 
L 476.9496 211.971189 
L 478.2888 212.299199 
L 479.628 212.132533 
L 481.6368 211.556258 
L 483.6456 210.833693 
L 484.9848 211.239426 
L 485.6544 211.725633 
L 486.324 212.065586 
L 487.6632 212.229122 
L 489.0024 212.135489 
L 490.3416 213.695333 
L 491.0112 214.052071 
L 491.6808 214.707673 
L 492.3504 215.654159 
L 493.02 216.314774 
L 493.6896 216.711287 
L 494.3592 217.408274 
L 495.0288 218.377756 
L 495.6984 219.069023 
L 497.7072 220.454351 
L 498.3768 220.969336 
L 499.716 221.536441 
L 501.0552 221.850315 
L 502.3944 222.749869 
L 503.7336 223.150852 
L 504.4032 223.263248 
L 505.7424 224.096051 
L 507.0816 224.4447 
L 507.7512 224.534428 
L 508.4208 224.967108 
L 510.4296 228.258643 
L 511.0992 228.994588 
L 512.4384 229.819711 
L 513.7776 230.29996 
L 515.1168 231.19667 
L 515.7864 232.084213 
L 516.456 232.773763 
L 517.1256 233.192038 
L 519.1344 235.777615 
L 519.804 236.318992 
L 521.1432 236.877974 
L 523.8216 237.644555 
L 524.4912 238.19489 
L 526.5 239.431408 
L 527.8392 240.274112 
L 529.1784 240.659883 
L 529.848 240.776914 
L 531.1872 241.370457 
L 532.5264 241.613816 
L 534.5352 241.724089 
L 537.2136 241.622804 
L 540.5616 241.216731 
L 543.9096 240.567442 
L 547.9272 239.526057 
L 551.9448 238.244513 
L 556.632 236.492943 
L 561.3192 234.505806 
L 566.676 231.989463 
L 572.7024 228.89483 
L 579.3984 225.188029 
L 587.4336 220.455221 
L 598.1472 213.849126 
L 602.1648 211.329123 
L 603.504 211.429258 
L 604.8432 211.070338 
L 607.5216 209.937587 
L 611.5392 207.943663 
L 613.548 206.874996 
L 614.8872 207.155226 
L 616.2264 206.973002 
L 618.2352 206.355563 
L 620.9136 205.293675 
L 622.9224 204.363684 
L 624.2616 204.761836 
L 624.9312 204.787543 
L 625.6008 205.264571 
L 626.2704 206.187788 
L 626.94 206.86258 
L 627.6096 207.255595 
L 628.9488 207.644632 
L 629.6184 207.728807 
L 630.288 208.275397 
L 630.9576 209.715451 
L 631.6272 210.813705 
L 632.2968 211.469188 
L 633.636 212.218991 
L 634.9752 213.488546 
L 635.6448 213.851004 
L 636.984 215.127767 
L 637.6536 215.49224 
L 638.9928 218.722 
L 639.6624 219.811261 
L 640.332 220.523883 
L 641.6712 222.176611 
L 642.3408 222.696079 
L 643.0104 223.476562 
L 643.68 224.480147 
L 644.3496 225.224175 
L 645.0192 225.73708 
L 646.3584 227.092002 
L 648.3672 228.466297 
L 649.0368 229.302457 
L 649.7064 229.91602 
L 652.3848 231.553033 
L 653.0544 231.759433 
L 653.724 232.194329 
L 654.3936 232.831732 
L 657.7416 235.004095 
L 659.0808 236.417604 
L 659.7504 237.20885 
L 660.42 237.759115 
L 661.7592 238.387138 
L 663.768 238.902963 
L 665.7768 239.167819 
L 667.7856 239.263 
L 669.1248 239.724569 
L 670.464 239.856891 
L 672.4728 239.825595 
L 675.1512 239.567743 
L 678.4992 238.999061 
L 681.8472 238.211755 
L 685.8648 237.027541 
L 689.8824 235.621693 
L 693.9 234.025831 
L 695.2392 234.041885 
L 696.5784 233.727592 
L 699.2568 232.801765 
L 703.2744 231.150278 
L 707.9616 228.98742 
L 713.3184 226.284289 
L 720.0144 222.636861 
L 728.0496 217.974419 
L 739.4328 211.069303 
L 742.7808 208.996267 
L 744.12 209.141781 
L 745.4592 208.824659 
L 747.468 208.041899 
L 748.8072 208.431088 
L 750.1464 208.320983 
L 752.1552 207.803805 
L 753.4944 208.342651 
L 754.8336 208.368151 
L 756.1728 208.17188 
L 757.512 208.842011 
L 758.8512 208.977603 
L 760.1904 208.881365 
L 761.5296 209.62571 
L 762.1992 209.773254 
L 763.5384 210.75534 
L 764.8776 211.108125 
L 765.5472 211.171908 
L 766.8864 212.082373 
L 768.2256 212.421569 
L 768.8952 212.488416 
L 770.2344 214.243952 
L 770.904 214.688706 
L 771.5736 214.971758 
L 774.252 217.451957 
L 775.5912 218.071783 
L 776.9304 218.404627 
L 777.6 218.932982 
L 777.6 218.932982 
" clip-path="url(#p4a57718443)" style="fill: none; stroke: #000000; stroke-width: 1.5; stroke-linecap: square"/>
   </g>
   <g id="line2d_24">
    <path d="M 108 211.441562 
L 110.6784 213.721175 
L 114.0264 216.116126 
L 115.3656 217.025485 
L 116.0352 188.136864 
L 116.7048 176.47032 
L 117.3744 170.776543 
L 118.044 167.414896 
L 118.7136 165.441945 
L 119.3832 164.484352 
L 120.0528 164.318267 
L 120.7224 164.794649 
L 121.392 165.79744 
L 122.0616 167.224391 
L 123.4008 170.971989 
L 126.0792 179.920702 
L 128.7576 188.550208 
L 130.7664 194.177103 
L 132.7752 198.95248 
L 134.784 202.923496 
L 137.4624 207.516639 
L 140.1408 211.774868 
L 142.1496 214.568432 
L 144.1584 216.937219 
L 146.1672 219.015287 
L 148.176 220.78716 
L 150.8544 222.802261 
L 152.8632 224.065133 
L 154.872 225.079255 
L 156.8808 225.865402 
L 158.8896 226.449357 
L 161.568 226.952502 
L 164.2464 227.182006 
L 166.9248 227.175437 
L 169.6032 226.964231 
L 172.9512 226.452485 
L 176.2992 225.705302 
L 180.3168 224.547207 
L 184.3344 223.150265 
L 189.0216 221.271771 
L 194.3784 218.860042 
L 201.0744 215.77475 
L 207.7704 213.376681 
L 209.7792 212.922335 
L 218.484 211.547877 
L 222.5016 210.568453 
L 227.8584 209.159161 
L 229.1976 209.191867 
L 233.8848 209.854446 
L 235.224 210.192779 
L 236.5632 210.800632 
L 237.9024 211.66351 
L 239.9112 213.235608 
L 241.92 215.234768 
L 244.5984 217.921094 
L 249.2856 222.042271 
L 249.9552 192.195095 
L 250.6248 180.260122 
L 251.2944 174.744789 
L 251.964 171.731882 
L 252.6336 170.108577 
L 253.3032 169.445972 
L 253.9728 169.509904 
L 254.6424 170.162763 
L 255.312 171.298246 
L 255.9816 172.823225 
L 257.3208 176.683506 
L 262.6776 193.870851 
L 264.6864 199.292556 
L 266.6952 203.967568 
L 268.704 208.069945 
L 270.7128 211.537002 
L 272.7216 214.476726 
L 274.7304 216.975584 
L 276.7392 219.024941 
L 278.748 220.674297 
L 280.7568 221.9799 
L 282.7656 223.002377 
L 285.444 224.162121 
L 287.4528 224.827417 
L 289.4616 225.2975 
L 292.14 225.666645 
L 296.1576 226.069791 
L 298.836 226.102001 
L 301.5144 225.928492 
L 304.8624 225.462298 
L 308.2104 224.759021 
L 312.228 223.650138 
L 316.2456 222.297438 
L 320.9328 220.463794 
L 326.2896 218.095051 
L 332.316 215.160921 
L 339.6816 211.302349 
L 347.0472 207.419545 
L 354.4128 204.606173 
L 355.752 204.21945 
L 357.0912 204.095903 
L 358.4304 204.217551 
L 359.7696 204.622687 
L 362.448 205.850392 
L 363.7872 206.667129 
L 367.1352 209.160887 
L 372.492 213.148957 
L 374.5008 214.605782 
L 376.5096 216.54095 
L 378.5184 218.44208 
L 383.2056 222.489037 
L 383.8752 192.538413 
L 384.5448 180.54904 
L 385.2144 175.007706 
L 385.884 171.98279 
L 386.5536 170.364964 
L 387.2232 169.728427 
L 387.8928 169.838678 
L 388.5624 170.529907 
L 389.232 171.671939 
L 390.5712 174.893886 
L 391.9104 178.875695 
L 396.5976 193.596629 
L 398.6064 198.804649 
L 400.6152 203.255351 
L 402.624 207.127624 
L 404.6328 210.47732 
L 406.6416 213.463781 
L 408.6504 216.066271 
L 410.6592 218.341433 
L 412.668 220.264651 
L 414.6768 221.830982 
L 416.6856 223.080849 
L 418.6944 224.055953 
L 420.7032 224.791884 
L 422.712 225.318492 
L 424.7208 225.661015 
L 427.3992 225.880977 
L 432.0864 226.101225 
L 434.7648 225.979351 
L 438.1128 225.566611 
L 441.4608 224.907558 
L 444.8088 224.039151 
L 448.8264 222.762257 
L 453.5136 221.001546 
L 458.2008 219.001557 
L 463.5576 216.48272 
L 470.2536 213.073006 
L 474.9408 210.721064 
L 477.6192 209.730105 
L 479.628 209.210115 
L 485.6544 207.972586 
L 487.6632 207.983406 
L 489.672 208.111732 
L 491.0112 208.393576 
L 492.3504 208.863164 
L 494.3592 209.892725 
L 496.368 211.221533 
L 501.7248 214.877993 
L 505.7424 217.266916 
L 510.4296 220.056912 
L 515.1168 223.8042 
L 517.1256 225.368347 
L 517.7952 194.770513 
L 518.4648 182.570699 
L 519.1344 177.084329 
L 519.804 174.261766 
L 520.4736 172.89956 
L 521.1432 172.530115 
L 521.8128 172.900024 
L 522.4824 173.8391 
L 523.152 175.215056 
L 524.4912 178.904824 
L 526.5 185.697823 
L 529.1784 194.984235 
L 531.1872 201.187584 
L 533.196 206.57106 
L 535.2048 211.085969 
L 536.544 213.646733 
L 537.8832 215.886118 
L 539.892 218.713987 
L 541.9008 220.99283 
L 543.9096 222.808232 
L 545.9184 224.23147 
L 547.9272 225.321551 
L 549.936 226.127345 
L 551.9448 226.689451 
L 553.9536 227.041725 
L 556.632 227.233339 
L 559.3104 227.156838 
L 561.9888 226.856148 
L 565.3368 226.218076 
L 568.6848 225.338717 
L 572.7024 224.023637 
L 576.72 222.477367 
L 581.4072 220.438115 
L 586.764 217.861941 
L 593.46 214.366529 
L 601.4952 209.90663 
L 603.504 208.838387 
L 606.1824 207.735879 
L 612.8784 205.036544 
L 614.8872 204.251482 
L 617.5656 203.532827 
L 622.2528 202.290227 
L 624.2616 201.753372 
L 625.6008 201.552025 
L 626.94 201.610984 
L 628.9488 202.068594 
L 630.9576 202.689197 
L 632.2968 203.428837 
L 635.6448 205.687947 
L 638.3232 207.699232 
L 639.6624 209.018609 
L 645.0192 215.047128 
L 648.3672 218.653051 
L 651.0456 221.357567 
L 651.7152 191.684823 
L 652.3848 179.812878 
L 653.0544 174.288802 
L 653.724 171.239459 
L 654.3936 169.591152 
L 655.0632 168.934814 
L 655.7328 169.045426 
L 656.4024 169.766875 
L 657.072 170.968999 
L 657.7416 172.547272 
L 659.0808 176.536717 
L 661.0896 183.675332 
L 663.768 193.112581 
L 665.7768 199.253133 
L 667.7856 204.445192 
L 669.7944 208.839399 
L 671.8032 212.550087 
L 673.812 215.603599 
L 675.8208 218.084065 
L 677.8296 220.078885 
L 679.8384 221.662999 
L 681.8472 222.898414 
L 683.856 223.836227 
L 685.8648 224.518694 
L 687.8736 224.980957 
L 689.8824 225.252407 
L 692.5608 225.359636 
L 698.5872 225.142675 
L 701.2656 224.865073 
L 704.6136 224.281588 
L 707.9616 223.474325 
L 711.9792 222.257775 
L 715.9968 220.813894 
L 720.684 218.891624 
L 726.0408 216.441801 
L 732.0672 213.439542 
L 740.1024 209.162298 
L 744.12 207.023124 
L 746.7984 205.976178 
L 748.8072 205.315528 
L 752.1552 204.620419 
L 754.164 204.372166 
L 757.512 204.27291 
L 760.86 204.540058 
L 762.8688 204.886894 
L 765.5472 205.674099 
L 768.8952 206.870792 
L 770.2344 207.458044 
L 772.9128 208.964986 
L 777.6 212.018553 
L 777.6 212.018553 
" clip-path="url(#p4a57718443)" style="fill: none; stroke: #4169e1; stroke-width: 1.5; stroke-linecap: square"/>
   </g>
   <g id="patch_3">
    <path d="M 108 256.32 
L 108 34.56 
" style="fill: none; stroke: #000000; stroke-width: 0.8; stroke-linejoin: miter; stroke-linecap: square"/>
   </g>
   <g id="patch_4">
    <path d="M 777.6 256.32 
L 777.6 34.56 
" style="fill: none; stroke: #000000; stroke-width: 0.8; stroke-linejoin: miter; stroke-linecap: square"/>
   </g>
   <g id="patch_5">
    <path d="M 108 256.32 
L 777.6 256.32 
" style="fill: none; stroke: #000000; stroke-width: 0.8; stroke-linejoin: miter; stroke-linecap: square"/>
   </g>
   <g id="patch_6">
    <path d="M 108 34.56 
L 777.6 34.56 
" style="fill: none; stroke: #000000; stroke-width: 0.8; stroke-linejoin: miter; stroke-linecap: square"/>
   </g>
   <g id="legend_1">
    <g id="patch_7">
     <path d="M 695.098438 71.91625 
L 770.6 71.91625 
Q 772.6 71.91625 772.6 69.91625 
L 772.6 41.56 
Q 772.6 39.56 770.6 39.56 
L 695.098438 39.56 
Q 693.098438 39.56 693.098438 41.56 
L 693.098438 69.91625 
Q 693.098438 71.91625 695.098438 71.91625 
z
" style="fill: #ffffff; opacity: 0.8; stroke: #cccccc; stroke-linejoin: miter"/>
    </g>
    <g id="line2d_25">
     <path d="M 697.098438 47.658437 
L 707.098438 47.658437 
L 717.098438 47.658437 
" style="fill: none; stroke: #000000; stroke-width: 1.5; stroke-linecap: square"/>
    </g>
    <g id="text_14">
     <!-- Soma -->
     <g transform="translate(725.098438 51.158437) scale(0.1 -0.1)">
      <defs>
       <path id="DejaVuSans-53" d="M 3425 4513 
L 3425 3897 
Q 3066 4069 2747 4153 
Q 2428 4238 2131 4238 
Q 1616 4238 1336 4038 
Q 1056 3838 1056 3469 
Q 1056 3159 1242 3001 
Q 1428 2844 1947 2747 
L 2328 2669 
Q 3034 2534 3370 2195 
Q 3706 1856 3706 1288 
Q 3706 609 3251 259 
Q 2797 -91 1919 -91 
Q 1588 -91 1214 -16 
Q 841 59 441 206 
L 441 856 
Q 825 641 1194 531 
Q 1563 422 1919 422 
Q 2459 422 2753 634 
Q 3047 847 3047 1241 
Q 3047 1584 2836 1778 
Q 2625 1972 2144 2069 
L 1759 2144 
Q 1053 2284 737 2584 
Q 422 2884 422 3419 
Q 422 4038 858 4394 
Q 1294 4750 2059 4750 
Q 2388 4750 2728 4690 
Q 3069 4631 3425 4513 
z
" transform="scale(0.015625)"/>
       <path id="DejaVuSans-6f" d="M 1959 3097 
Q 1497 3097 1228 2736 
Q 959 2375 959 1747 
Q 959 1119 1226 758 
Q 1494 397 1959 397 
Q 2419 397 2687 759 
Q 2956 1122 2956 1747 
Q 2956 2369 2687 2733 
Q 2419 3097 1959 3097 
z
M 1959 3584 
Q 2709 3584 3137 3096 
Q 3566 2609 3566 1747 
Q 3566 888 3137 398 
Q 2709 -91 1959 -91 
Q 1206 -91 779 398 
Q 353 888 353 1747 
Q 353 2609 779 3096 
Q 1206 3584 1959 3584 
z
" transform="scale(0.015625)"/>
       <path id="DejaVuSans-61" d="M 2194 1759 
Q 1497 1759 1228 1600 
Q 959 1441 959 1056 
Q 959 750 1161 570 
Q 1363 391 1709 391 
Q 2188 391 2477 730 
Q 2766 1069 2766 1631 
L 2766 1759 
L 2194 1759 
z
M 3341 1997 
L 3341 0 
L 2766 0 
L 2766 531 
Q 2569 213 2275 61 
Q 1981 -91 1556 -91 
Q 1019 -91 701 211 
Q 384 513 384 1019 
Q 384 1609 779 1909 
Q 1175 2209 1959 2209 
L 2766 2209 
L 2766 2266 
Q 2766 2663 2505 2880 
Q 2244 3097 1772 3097 
Q 1472 3097 1187 3025 
Q 903 2953 641 2809 
L 641 3341 
Q 956 3463 1253 3523 
Q 1550 3584 1831 3584 
Q 2591 3584 2966 3190 
Q 3341 2797 3341 1997 
z
" transform="scale(0.015625)"/>
      </defs>
      <use xlink:href="#DejaVuSans-53"/>
      <use xlink:href="#DejaVuSans-6f" x="63.476562"/>
      <use xlink:href="#DejaVuSans-6d" x="124.658203"/>
      <use xlink:href="#DejaVuSans-61" x="222.070312"/>
     </g>
    </g>
    <g id="line2d_26">
     <path d="M 697.098438 62.336562 
L 707.098438 62.336562 
L 717.098438 62.336562 
" style="fill: none; stroke: #4169e1; stroke-width: 1.5; stroke-linecap: square"/>
    </g>
    <g id="text_15">
     <!-- Dendrite -->
     <g transform="translate(725.098438 65.836562) scale(0.1 -0.1)">
      <defs>
       <path id="DejaVuSans-44" d="M 1259 4147 
L 1259 519 
L 2022 519 
Q 2988 519 3436 956 
Q 3884 1394 3884 2338 
Q 3884 3275 3436 3711 
Q 2988 4147 2022 4147 
L 1259 4147 
z
M 628 4666 
L 1925 4666 
Q 3281 4666 3915 4102 
Q 4550 3538 4550 2338 
Q 4550 1131 3912 565 
Q 3275 0 1925 0 
L 628 0 
L 628 4666 
z
" transform="scale(0.015625)"/>
       <path id="DejaVuSans-6e" d="M 3513 2113 
L 3513 0 
L 2938 0 
L 2938 2094 
Q 2938 2591 2744 2837 
Q 2550 3084 2163 3084 
Q 1697 3084 1428 2787 
Q 1159 2491 1159 1978 
L 1159 0 
L 581 0 
L 581 3500 
L 1159 3500 
L 1159 2956 
Q 1366 3272 1645 3428 
Q 1925 3584 2291 3584 
Q 2894 3584 3203 3211 
Q 3513 2838 3513 2113 
z
" transform="scale(0.015625)"/>
       <path id="DejaVuSans-64" d="M 2906 2969 
L 2906 4863 
L 3481 4863 
L 3481 0 
L 2906 0 
L 2906 525 
Q 2725 213 2448 61 
Q 2172 -91 1784 -91 
Q 1150 -91 751 415 
Q 353 922 353 1747 
Q 353 2572 751 3078 
Q 1150 3584 1784 3584 
Q 2172 3584 2448 3432 
Q 2725 3281 2906 2969 
z
M 947 1747 
Q 947 1113 1208 752 
Q 1469 391 1925 391 
Q 2381 391 2643 752 
Q 2906 1113 2906 1747 
Q 2906 2381 2643 2742 
Q 2381 3103 1925 3103 
Q 1469 3103 1208 2742 
Q 947 2381 947 1747 
z
" transform="scale(0.015625)"/>
       <path id="DejaVuSans-72" d="M 2631 2963 
Q 2534 3019 2420 3045 
Q 2306 3072 2169 3072 
Q 1681 3072 1420 2755 
Q 1159 2438 1159 1844 
L 1159 0 
L 581 0 
L 581 3500 
L 1159 3500 
L 1159 2956 
Q 1341 3275 1631 3429 
Q 1922 3584 2338 3584 
Q 2397 3584 2469 3576 
Q 2541 3569 2628 3553 
L 2631 2963 
z
" transform="scale(0.015625)"/>
       <path id="DejaVuSans-74" d="M 1172 4494 
L 1172 3500 
L 2356 3500 
L 2356 3053 
L 1172 3053 
L 1172 1153 
Q 1172 725 1289 603 
Q 1406 481 1766 481 
L 2356 481 
L 2356 0 
L 1766 0 
Q 1100 0 847 248 
Q 594 497 594 1153 
L 594 3053 
L 172 3053 
L 172 3500 
L 594 3500 
L 594 4494 
L 1172 4494 
z
" transform="scale(0.015625)"/>
      </defs>
      <use xlink:href="#DejaVuSans-44"/>
      <use xlink:href="#DejaVuSans-65" x="77.001953"/>
      <use xlink:href="#DejaVuSans-6e" x="138.525391"/>
      <use xlink:href="#DejaVuSans-64" x="201.904297"/>
      <use xlink:href="#DejaVuSans-72" x="265.380859"/>
      <use xlink:href="#DejaVuSans-69" x="306.494141"/>
      <use xlink:href="#DejaVuSans-74" x="334.277344"/>
      <use xlink:href="#DejaVuSans-65" x="373.486328"/>
     </g>
    </g>
   </g>
  </g>
 </g>
 <defs>
  <clipPath id="p4a57718443">
   <rect x="108" y="34.56" width="669.6" height="221.76"/>
  </clipPath>
 </defs>
</svg>
