<?xml version="1.0" encoding="utf-8" standalone="no"?>
<!DOCTYPE svg PUBLIC "-//W3C//DTD SVG 1.1//EN"
  "http://www.w3.org/Graphics/SVG/1.1/DTD/svg11.dtd">
<svg xmlns:xlink="http://www.w3.org/1999/xlink" width="864pt" height="288pt" viewBox="0 0 864 288" xmlns="http://www.w3.org/2000/svg" version="1.1">
 <metadata>
  <rdf:RDF xmlns:dc="http://purl.org/dc/elements/1.1/" xmlns:cc="http://creativecommons.org/ns#" xmlns:rdf="http://www.w3.org/1999/02/22-rdf-syntax-ns#">
   <cc:Work>
    <dc:type rdf:resource="http://purl.org/dc/dcmitype/StillImage"/>
    <dc:date>2024-04-26T13:24:08.940207</dc:date>
    <dc:format>image/svg+xml</dc:format>
    <dc:creator>
     <cc:Agent>
      <dc:title>Matplotlib v3.8.2, https://matplotlib.org/</dc:title>
     </cc:Agent>
    </dc:creator>
   </cc:Work>
  </rdf:RDF>
 </metadata>
 <defs>
  <style type="text/css">*{stroke-linejoin: round; stroke-linecap: butt}</style>
 </defs>
 <g id="figure_1">
  <g id="patch_1">
   <path d="M 0 288 
L 864 288 
L 864 0 
L 0 0 
z
" style="fill: #ffffff"/>
  </g>
  <g id="axes_1">
   <g id="patch_2">
    <path d="M 108 256.32 
L 777.6 256.32 
L 777.6 34.56 
L 108 34.56 
z
" style="fill: #ffffff"/>
   </g>
   <g id="matplotlib.axis_1">
    <g id="xtick_1">
     <g id="line2d_1">
      <path d="M 108 256.32 
L 108 34.56 
" clip-path="url(#p40f32b8bd2)" style="fill: none; stroke: #b0b0b0; stroke-width: 0.8; stroke-linecap: square"/>
     </g>
     <g id="line2d_2">
      <defs>
       <path id="mee2ec48163" d="M 0 0 
L 0 3.5 
" style="stroke: #000000; stroke-width: 0.8"/>
      </defs>
      <g>
       <use xlink:href="#mee2ec48163" x="108" y="256.32" style="stroke: #000000; stroke-width: 0.8"/>
      </g>
     </g>
     <g id="text_1">
      <!-- 100 -->
      <g transform="translate(94.63875 273.957812) scale(0.14 -0.14)">
       <defs>
        <path id="DejaVuSans-31" d="M 794 531 
L 1825 531 
L 1825 4091 
L 703 3866 
L 703 4441 
L 1819 4666 
L 2450 4666 
L 2450 531 
L 3481 531 
L 3481 0 
L 794 0 
L 794 531 
z
" transform="scale(0.015625)"/>
        <path id="DejaVuSans-30" d="M 2034 4250 
Q 1547 4250 1301 3770 
Q 1056 3291 1056 2328 
Q 1056 1369 1301 889 
Q 1547 409 2034 409 
Q 2525 409 2770 889 
Q 3016 1369 3016 2328 
Q 3016 3291 2770 3770 
Q 2525 4250 2034 4250 
z
M 2034 4750 
Q 2819 4750 3233 4129 
Q 3647 3509 3647 2328 
Q 3647 1150 3233 529 
Q 2819 -91 2034 -91 
Q 1250 -91 836 529 
Q 422 1150 422 2328 
Q 422 3509 836 4129 
Q 1250 4750 2034 4750 
z
" transform="scale(0.015625)"/>
       </defs>
       <use xlink:href="#DejaVuSans-31"/>
       <use xlink:href="#DejaVuSans-30" x="63.623047"/>
       <use xlink:href="#DejaVuSans-30" x="127.246094"/>
      </g>
     </g>
    </g>
    <g id="xtick_2">
     <g id="line2d_3">
      <path d="M 241.92 256.32 
L 241.92 34.56 
" clip-path="url(#p40f32b8bd2)" style="fill: none; stroke: #b0b0b0; stroke-width: 0.8; stroke-linecap: square"/>
     </g>
     <g id="line2d_4">
      <g>
       <use xlink:href="#mee2ec48163" x="241.92" y="256.32" style="stroke: #000000; stroke-width: 0.8"/>
      </g>
     </g>
     <g id="text_2">
      <!-- 120 -->
      <g transform="translate(228.55875 273.957812) scale(0.14 -0.14)">
       <defs>
        <path id="DejaVuSans-32" d="M 1228 531 
L 3431 531 
L 3431 0 
L 469 0 
L 469 531 
Q 828 903 1448 1529 
Q 2069 2156 2228 2338 
Q 2531 2678 2651 2914 
Q 2772 3150 2772 3378 
Q 2772 3750 2511 3984 
Q 2250 4219 1831 4219 
Q 1534 4219 1204 4116 
Q 875 4013 500 3803 
L 500 4441 
Q 881 4594 1212 4672 
Q 1544 4750 1819 4750 
Q 2544 4750 2975 4387 
Q 3406 4025 3406 3419 
Q 3406 3131 3298 2873 
Q 3191 2616 2906 2266 
Q 2828 2175 2409 1742 
Q 1991 1309 1228 531 
z
" transform="scale(0.015625)"/>
       </defs>
       <use xlink:href="#DejaVuSans-31"/>
       <use xlink:href="#DejaVuSans-32" x="63.623047"/>
       <use xlink:href="#DejaVuSans-30" x="127.246094"/>
      </g>
     </g>
    </g>
    <g id="xtick_3">
     <g id="line2d_5">
      <path d="M 375.84 256.32 
L 375.84 34.56 
" clip-path="url(#p40f32b8bd2)" style="fill: none; stroke: #b0b0b0; stroke-width: 0.8; stroke-linecap: square"/>
     </g>
     <g id="line2d_6">
      <g>
       <use xlink:href="#mee2ec48163" x="375.84" y="256.32" style="stroke: #000000; stroke-width: 0.8"/>
      </g>
     </g>
     <g id="text_3">
      <!-- 140 -->
      <g transform="translate(362.47875 273.957812) scale(0.14 -0.14)">
       <defs>
        <path id="DejaVuSans-34" d="M 2419 4116 
L 825 1625 
L 2419 1625 
L 2419 4116 
z
M 2253 4666 
L 3047 4666 
L 3047 1625 
L 3713 1625 
L 3713 1100 
L 3047 1100 
L 3047 0 
L 2419 0 
L 2419 1100 
L 313 1100 
L 313 1709 
L 2253 4666 
z
" transform="scale(0.015625)"/>
       </defs>
       <use xlink:href="#DejaVuSans-31"/>
       <use xlink:href="#DejaVuSans-34" x="63.623047"/>
       <use xlink:href="#DejaVuSans-30" x="127.246094"/>
      </g>
     </g>
    </g>
    <g id="xtick_4">
     <g id="line2d_7">
      <path d="M 509.76 256.32 
L 509.76 34.56 
" clip-path="url(#p40f32b8bd2)" style="fill: none; stroke: #b0b0b0; stroke-width: 0.8; stroke-linecap: square"/>
     </g>
     <g id="line2d_8">
      <g>
       <use xlink:href="#mee2ec48163" x="509.76" y="256.32" style="stroke: #000000; stroke-width: 0.8"/>
      </g>
     </g>
     <g id="text_4">
      <!-- 160 -->
      <g transform="translate(496.39875 273.957812) scale(0.14 -0.14)">
       <defs>
        <path id="DejaVuSans-36" d="M 2113 2584 
Q 1688 2584 1439 2293 
Q 1191 2003 1191 1497 
Q 1191 994 1439 701 
Q 1688 409 2113 409 
Q 2538 409 2786 701 
Q 3034 994 3034 1497 
Q 3034 2003 2786 2293 
Q 2538 2584 2113 2584 
z
M 3366 4563 
L 3366 3988 
Q 3128 4100 2886 4159 
Q 2644 4219 2406 4219 
Q 1781 4219 1451 3797 
Q 1122 3375 1075 2522 
Q 1259 2794 1537 2939 
Q 1816 3084 2150 3084 
Q 2853 3084 3261 2657 
Q 3669 2231 3669 1497 
Q 3669 778 3244 343 
Q 2819 -91 2113 -91 
Q 1303 -91 875 529 
Q 447 1150 447 2328 
Q 447 3434 972 4092 
Q 1497 4750 2381 4750 
Q 2619 4750 2861 4703 
Q 3103 4656 3366 4563 
z
" transform="scale(0.015625)"/>
       </defs>
       <use xlink:href="#DejaVuSans-31"/>
       <use xlink:href="#DejaVuSans-36" x="63.623047"/>
       <use xlink:href="#DejaVuSans-30" x="127.246094"/>
      </g>
     </g>
    </g>
    <g id="xtick_5">
     <g id="line2d_9">
      <path d="M 643.68 256.32 
L 643.68 34.56 
" clip-path="url(#p40f32b8bd2)" style="fill: none; stroke: #b0b0b0; stroke-width: 0.8; stroke-linecap: square"/>
     </g>
     <g id="line2d_10">
      <g>
       <use xlink:href="#mee2ec48163" x="643.68" y="256.32" style="stroke: #000000; stroke-width: 0.8"/>
      </g>
     </g>
     <g id="text_5">
      <!-- 180 -->
      <g transform="translate(630.31875 273.957812) scale(0.14 -0.14)">
       <defs>
        <path id="DejaVuSans-38" d="M 2034 2216 
Q 1584 2216 1326 1975 
Q 1069 1734 1069 1313 
Q 1069 891 1326 650 
Q 1584 409 2034 409 
Q 2484 409 2743 651 
Q 3003 894 3003 1313 
Q 3003 1734 2745 1975 
Q 2488 2216 2034 2216 
z
M 1403 2484 
Q 997 2584 770 2862 
Q 544 3141 544 3541 
Q 544 4100 942 4425 
Q 1341 4750 2034 4750 
Q 2731 4750 3128 4425 
Q 3525 4100 3525 3541 
Q 3525 3141 3298 2862 
Q 3072 2584 2669 2484 
Q 3125 2378 3379 2068 
Q 3634 1759 3634 1313 
Q 3634 634 3220 271 
Q 2806 -91 2034 -91 
Q 1263 -91 848 271 
Q 434 634 434 1313 
Q 434 1759 690 2068 
Q 947 2378 1403 2484 
z
M 1172 3481 
Q 1172 3119 1398 2916 
Q 1625 2713 2034 2713 
Q 2441 2713 2670 2916 
Q 2900 3119 2900 3481 
Q 2900 3844 2670 4047 
Q 2441 4250 2034 4250 
Q 1625 4250 1398 4047 
Q 1172 3844 1172 3481 
z
" transform="scale(0.015625)"/>
       </defs>
       <use xlink:href="#DejaVuSans-31"/>
       <use xlink:href="#DejaVuSans-38" x="63.623047"/>
       <use xlink:href="#DejaVuSans-30" x="127.246094"/>
      </g>
     </g>
    </g>
    <g id="xtick_6">
     <g id="line2d_11">
      <path d="M 777.6 256.32 
L 777.6 34.56 
" clip-path="url(#p40f32b8bd2)" style="fill: none; stroke: #b0b0b0; stroke-width: 0.8; stroke-linecap: square"/>
     </g>
     <g id="line2d_12">
      <g>
       <use xlink:href="#mee2ec48163" x="777.6" y="256.32" style="stroke: #000000; stroke-width: 0.8"/>
      </g>
     </g>
     <g id="text_6">
      <!-- 200 -->
      <g transform="translate(764.23875 273.957812) scale(0.14 -0.14)">
       <use xlink:href="#DejaVuSans-32"/>
       <use xlink:href="#DejaVuSans-30" x="63.623047"/>
       <use xlink:href="#DejaVuSans-30" x="127.246094"/>
      </g>
     </g>
    </g>
    <g id="text_7">
     <!-- Time (ms) -->
     <g transform="translate(407.521094 291.507187) scale(0.14 -0.14)">
      <defs>
       <path id="DejaVuSans-54" d="M -19 4666 
L 3928 4666 
L 3928 4134 
L 2272 4134 
L 2272 0 
L 1638 0 
L 1638 4134 
L -19 4134 
L -19 4666 
z
" transform="scale(0.015625)"/>
       <path id="DejaVuSans-69" d="M 603 3500 
L 1178 3500 
L 1178 0 
L 603 0 
L 603 3500 
z
M 603 4863 
L 1178 4863 
L 1178 4134 
L 603 4134 
L 603 4863 
z
" transform="scale(0.015625)"/>
       <path id="DejaVuSans-6d" d="M 3328 2828 
Q 3544 3216 3844 3400 
Q 4144 3584 4550 3584 
Q 5097 3584 5394 3201 
Q 5691 2819 5691 2113 
L 5691 0 
L 5113 0 
L 5113 2094 
Q 5113 2597 4934 2840 
Q 4756 3084 4391 3084 
Q 3944 3084 3684 2787 
Q 3425 2491 3425 1978 
L 3425 0 
L 2847 0 
L 2847 2094 
Q 2847 2600 2669 2842 
Q 2491 3084 2119 3084 
Q 1678 3084 1418 2786 
Q 1159 2488 1159 1978 
L 1159 0 
L 581 0 
L 581 3500 
L 1159 3500 
L 1159 2956 
Q 1356 3278 1631 3431 
Q 1906 3584 2284 3584 
Q 2666 3584 2933 3390 
Q 3200 3197 3328 2828 
z
" transform="scale(0.015625)"/>
       <path id="DejaVuSans-65" d="M 3597 1894 
L 3597 1613 
L 953 1613 
Q 991 1019 1311 708 
Q 1631 397 2203 397 
Q 2534 397 2845 478 
Q 3156 559 3463 722 
L 3463 178 
Q 3153 47 2828 -22 
Q 2503 -91 2169 -91 
Q 1331 -91 842 396 
Q 353 884 353 1716 
Q 353 2575 817 3079 
Q 1281 3584 2069 3584 
Q 2775 3584 3186 3129 
Q 3597 2675 3597 1894 
z
M 3022 2063 
Q 3016 2534 2758 2815 
Q 2500 3097 2075 3097 
Q 1594 3097 1305 2825 
Q 1016 2553 972 2059 
L 3022 2063 
z
" transform="scale(0.015625)"/>
       <path id="DejaVuSans-20" transform="scale(0.015625)"/>
       <path id="DejaVuSans-28" d="M 1984 4856 
Q 1566 4138 1362 3434 
Q 1159 2731 1159 2009 
Q 1159 1288 1364 580 
Q 1569 -128 1984 -844 
L 1484 -844 
Q 1016 -109 783 600 
Q 550 1309 550 2009 
Q 550 2706 781 3412 
Q 1013 4119 1484 4856 
L 1984 4856 
z
" transform="scale(0.015625)"/>
       <path id="DejaVuSans-73" d="M 2834 3397 
L 2834 2853 
Q 2591 2978 2328 3040 
Q 2066 3103 1784 3103 
Q 1356 3103 1142 2972 
Q 928 2841 928 2578 
Q 928 2378 1081 2264 
Q 1234 2150 1697 2047 
L 1894 2003 
Q 2506 1872 2764 1633 
Q 3022 1394 3022 966 
Q 3022 478 2636 193 
Q 2250 -91 1575 -91 
Q 1294 -91 989 -36 
Q 684 19 347 128 
L 347 722 
Q 666 556 975 473 
Q 1284 391 1588 391 
Q 1994 391 2212 530 
Q 2431 669 2431 922 
Q 2431 1156 2273 1281 
Q 2116 1406 1581 1522 
L 1381 1569 
Q 847 1681 609 1914 
Q 372 2147 372 2553 
Q 372 3047 722 3315 
Q 1072 3584 1716 3584 
Q 2034 3584 2315 3537 
Q 2597 3491 2834 3397 
z
" transform="scale(0.015625)"/>
       <path id="DejaVuSans-29" d="M 513 4856 
L 1013 4856 
Q 1481 4119 1714 3412 
Q 1947 2706 1947 2009 
Q 1947 1309 1714 600 
Q 1481 -109 1013 -844 
L 513 -844 
Q 928 -128 1133 580 
Q 1338 1288 1338 2009 
Q 1338 2731 1133 3434 
Q 928 4138 513 4856 
z
" transform="scale(0.015625)"/>
      </defs>
      <use xlink:href="#DejaVuSans-54"/>
      <use xlink:href="#DejaVuSans-69" x="57.958984"/>
      <use xlink:href="#DejaVuSans-6d" x="85.742188"/>
      <use xlink:href="#DejaVuSans-65" x="183.154297"/>
      <use xlink:href="#DejaVuSans-20" x="244.677734"/>
      <use xlink:href="#DejaVuSans-28" x="276.464844"/>
      <use xlink:href="#DejaVuSans-6d" x="315.478516"/>
      <use xlink:href="#DejaVuSans-73" x="412.890625"/>
      <use xlink:href="#DejaVuSans-29" x="464.990234"/>
     </g>
    </g>
   </g>
   <g id="matplotlib.axis_2">
    <g id="ytick_1">
     <g id="line2d_13">
      <path d="M 108 225.281346 
L 777.6 225.281346 
" clip-path="url(#p40f32b8bd2)" style="fill: none; stroke: #b0b0b0; stroke-width: 0.8; stroke-linecap: square"/>
     </g>
     <g id="line2d_14">
      <defs>
       <path id="m7b261501c9" d="M 0 0 
L -3.5 0 
" style="stroke: #000000; stroke-width: 0.8"/>
      </defs>
      <g>
       <use xlink:href="#m7b261501c9" x="108" y="225.281346" style="stroke: #000000; stroke-width: 0.8"/>
      </g>
     </g>
     <g id="text_8">
      <!-- −60 -->
      <g transform="translate(71.453437 230.600252) scale(0.14 -0.14)">
       <defs>
        <path id="DejaVuSans-2212" d="M 678 2272 
L 4684 2272 
L 4684 1741 
L 678 1741 
L 678 2272 
z
" transform="scale(0.015625)"/>
       </defs>
       <use xlink:href="#DejaVuSans-2212"/>
       <use xlink:href="#DejaVuSans-36" x="83.789062"/>
       <use xlink:href="#DejaVuSans-30" x="147.412109"/>
      </g>
     </g>
    </g>
    <g id="ytick_2">
     <g id="line2d_15">
      <path d="M 108 183.430829 
L 777.6 183.430829 
" clip-path="url(#p40f32b8bd2)" style="fill: none; stroke: #b0b0b0; stroke-width: 0.8; stroke-linecap: square"/>
     </g>
     <g id="line2d_16">
      <g>
       <use xlink:href="#m7b261501c9" x="108" y="183.430829" style="stroke: #000000; stroke-width: 0.8"/>
      </g>
     </g>
     <g id="text_9">
      <!-- −40 -->
      <g transform="translate(71.453437 188.749735) scale(0.14 -0.14)">
       <use xlink:href="#DejaVuSans-2212"/>
       <use xlink:href="#DejaVuSans-34" x="83.789062"/>
       <use xlink:href="#DejaVuSans-30" x="147.412109"/>
      </g>
     </g>
    </g>
    <g id="ytick_3">
     <g id="line2d_17">
      <path d="M 108 141.580312 
L 777.6 141.580312 
" clip-path="url(#p40f32b8bd2)" style="fill: none; stroke: #b0b0b0; stroke-width: 0.8; stroke-linecap: square"/>
     </g>
     <g id="line2d_18">
      <g>
       <use xlink:href="#m7b261501c9" x="108" y="141.580312" style="stroke: #000000; stroke-width: 0.8"/>
      </g>
     </g>
     <g id="text_10">
      <!-- −20 -->
      <g transform="translate(71.453437 146.899218) scale(0.14 -0.14)">
       <use xlink:href="#DejaVuSans-2212"/>
       <use xlink:href="#DejaVuSans-32" x="83.789062"/>
       <use xlink:href="#DejaVuSans-30" x="147.412109"/>
      </g>
     </g>
    </g>
    <g id="ytick_4">
     <g id="line2d_19">
      <path d="M 108 99.729795 
L 777.6 99.729795 
" clip-path="url(#p40f32b8bd2)" style="fill: none; stroke: #b0b0b0; stroke-width: 0.8; stroke-linecap: square"/>
     </g>
     <g id="line2d_20">
      <g>
       <use xlink:href="#m7b261501c9" x="108" y="99.729795" style="stroke: #000000; stroke-width: 0.8"/>
      </g>
     </g>
     <g id="text_11">
      <!-- 0 -->
      <g transform="translate(92.0925 105.048701) scale(0.14 -0.14)">
       <use xlink:href="#DejaVuSans-30"/>
      </g>
     </g>
    </g>
    <g id="ytick_5">
     <g id="line2d_21">
      <path d="M 108 57.879278 
L 777.6 57.879278 
" clip-path="url(#p40f32b8bd2)" style="fill: none; stroke: #b0b0b0; stroke-width: 0.8; stroke-linecap: square"/>
     </g>
     <g id="line2d_22">
      <g>
       <use xlink:href="#m7b261501c9" x="108" y="57.879278" style="stroke: #000000; stroke-width: 0.8"/>
      </g>
     </g>
     <g id="text_12">
      <!-- 20 -->
      <g transform="translate(83.185 63.198184) scale(0.14 -0.14)">
       <use xlink:href="#DejaVuSans-32"/>
       <use xlink:href="#DejaVuSans-30" x="63.623047"/>
      </g>
     </g>
    </g>
    <g id="text_13">
     <!-- $V_{m}$ (mV) -->
     <g transform="translate(64.541875 174.49) rotate(-90) scale(0.14 -0.14)">
      <defs>
       <path id="DejaVuSans-Oblique-56" d="M 1319 0 
L 500 4666 
L 1119 4666 
L 1797 653 
L 4063 4666 
L 4750 4666 
L 2053 0 
L 1319 0 
z
" transform="scale(0.015625)"/>
       <path id="DejaVuSans-Oblique-6d" d="M 5747 2113 
L 5338 0 
L 4763 0 
L 5166 2094 
Q 5191 2228 5203 2325 
Q 5216 2422 5216 2491 
Q 5216 2772 5059 2928 
Q 4903 3084 4622 3084 
Q 4203 3084 3875 2770 
Q 3547 2456 3450 1953 
L 3066 0 
L 2491 0 
L 2900 2094 
Q 2925 2209 2937 2307 
Q 2950 2406 2950 2484 
Q 2950 2769 2794 2926 
Q 2638 3084 2363 3084 
Q 1938 3084 1609 2770 
Q 1281 2456 1184 1953 
L 800 0 
L 225 0 
L 909 3500 
L 1484 3500 
L 1375 2956 
Q 1609 3263 1923 3423 
Q 2238 3584 2597 3584 
Q 2978 3584 3223 3384 
Q 3469 3184 3519 2828 
Q 3781 3197 4126 3390 
Q 4472 3584 4856 3584 
Q 5306 3584 5551 3325 
Q 5797 3066 5797 2591 
Q 5797 2488 5784 2364 
Q 5772 2241 5747 2113 
z
" transform="scale(0.015625)"/>
       <path id="DejaVuSans-56" d="M 1831 0 
L 50 4666 
L 709 4666 
L 2188 738 
L 3669 4666 
L 4325 4666 
L 2547 0 
L 1831 0 
z
" transform="scale(0.015625)"/>
      </defs>
      <use xlink:href="#DejaVuSans-Oblique-56" transform="translate(0 0.125)"/>
      <use xlink:href="#DejaVuSans-Oblique-6d" transform="translate(68.408203 -16.28125) scale(0.7)"/>
      <use xlink:href="#DejaVuSans-20" transform="translate(139.331055 0.125)"/>
      <use xlink:href="#DejaVuSans-28" transform="translate(171.118164 0.125)"/>
      <use xlink:href="#DejaVuSans-6d" transform="translate(210.131836 0.125)"/>
      <use xlink:href="#DejaVuSans-56" transform="translate(307.543945 0.125)"/>
      <use xlink:href="#DejaVuSans-29" transform="translate(375.952148 0.125)"/>
     </g>
    </g>
   </g>
   <g id="line2d_23">
    <path d="M 108 220.965764 
L 109.3392 221.633219 
L 110.6784 222.073004 
L 111.348 222.237373 
L 112.6872 223.167844 
L 114.0264 223.623164 
L 116.0352 225.155903 
L 118.044 227.547887 
L 118.7136 228.623609 
L 119.3832 229.457398 
L 120.0528 229.990502 
L 120.7224 230.991791 
L 122.7312 233.208506 
L 124.0704 233.972977 
L 125.4096 234.470459 
L 127.4184 234.951898 
L 129.4272 235.218385 
L 132.1056 235.329004 
L 134.1144 235.265293 
L 136.1232 236.021095 
L 136.7928 236.802099 
L 137.4624 237.349433 
L 140.1408 238.473223 
L 141.48 238.726861 
L 144.1584 239.060045 
L 145.4976 239.311265 
L 147.5064 239.294109 
L 148.176 239.246191 
L 149.5152 239.56871 
L 150.8544 239.580596 
L 153.5328 239.289758 
L 156.8808 238.652868 
L 160.8984 237.618762 
L 164.916 236.354694 
L 169.6032 234.642122 
L 174.96 232.424233 
L 180.9864 229.654939 
L 182.9952 228.634111 
L 185.6736 226.830493 
L 189.6912 224.223871 
L 196.3872 220.246653 
L 198.396 219.07186 
L 199.7352 219.08065 
L 201.0744 218.686652 
L 203.7528 217.550555 
L 205.7616 216.600848 
L 207.1008 216.767247 
L 208.44 216.502111 
L 209.7792 216.890115 
L 211.1184 216.792648 
L 213.1272 216.327586 
L 216.4752 215.253893 
L 220.4928 213.721935 
L 225.8496 211.431105 
L 227.1888 211.72831 
L 227.8584 212.627664 
L 228.528 213.329989 
L 229.1976 213.677875 
L 230.5368 213.946435 
L 232.5456 213.929713 
L 234.5544 215.199875 
L 235.8936 217.074173 
L 236.5632 218.179887 
L 239.2416 221.323722 
L 239.9112 222.338663 
L 240.5808 223.797729 
L 241.2504 224.871095 
L 241.92 225.56255 
L 243.2592 226.472035 
L 244.5984 227.078784 
L 245.9376 228.116342 
L 246.6072 228.436752 
L 247.2768 229.004188 
L 247.9464 229.779572 
L 249.9552 231.546568 
L 251.2944 232.709533 
L 252.6336 233.31965 
L 253.9728 233.701062 
L 255.312 234.980973 
L 255.9816 235.598111 
L 256.6512 236.055829 
L 257.9904 236.576449 
L 259.9992 236.985425 
L 260.6688 237.066157 
L 262.008 237.644365 
L 263.3472 237.875863 
L 264.6864 237.961671 
L 267.3648 239.041592 
L 268.704 239.240808 
L 270.7128 239.26957 
L 272.052 239.65213 
L 273.3912 239.717928 
L 276.0696 239.523154 
L 279.4176 238.989465 
L 282.096 238.400377 
L 283.4352 238.545822 
L 284.7744 238.395925 
L 287.4528 237.816293 
L 290.8008 236.871042 
L 291.4704 236.66096 
L 292.8096 236.739407 
L 294.1488 236.514946 
L 296.8272 235.785545 
L 300.8448 234.42425 
L 305.532 232.584991 
L 310.8888 230.233243 
L 316.2456 227.668308 
L 317.5848 226.865558 
L 324.2808 222.415662 
L 331.6464 218.01535 
L 343.6992 210.784043 
L 345.0384 209.951674 
L 346.3776 210.049595 
L 347.7168 209.714669 
L 349.7256 208.899694 
L 353.0736 207.240398 
L 354.4128 206.484632 
L 355.752 207.705238 
L 356.4216 207.999979 
L 358.4304 209.877023 
L 359.1 210.928151 
L 359.7696 211.682475 
L 360.4392 212.146173 
L 361.7784 212.673574 
L 363.1176 214.588725 
L 363.7872 215.53662 
L 364.4568 216.245233 
L 366.4656 217.715431 
L 367.1352 218.261265 
L 367.8048 218.620396 
L 369.144 219.818912 
L 370.4832 220.42892 
L 372.492 220.914809 
L 373.8312 222.492771 
L 374.5008 224.003707 
L 375.1704 225.167698 
L 375.84 225.873085 
L 377.1792 226.750474 
L 378.5184 227.313043 
L 379.188 227.525419 
L 379.8576 228.035675 
L 381.8664 230.244187 
L 382.536 230.643991 
L 383.8752 231.727159 
L 384.5448 232.054139 
L 386.5536 233.61226 
L 387.2232 234.061785 
L 388.5624 234.583687 
L 391.2408 235.372395 
L 391.9104 235.936859 
L 392.58 236.329874 
L 393.9192 236.726862 
L 395.928 236.982573 
L 399.276 237.264696 
L 402.624 238.098138 
L 403.2936 238.133485 
L 405.972 239.154203 
L 407.3112 239.313492 
L 407.9808 239.326498 
L 409.32 239.736992 
L 410.6592 239.816574 
L 412.668 239.703314 
L 415.3464 239.341577 
L 418.6944 238.662566 
L 422.712 237.595216 
L 426.7296 236.305817 
L 428.0688 236.35711 
L 429.408 236.106219 
L 432.0864 235.32814 
L 436.104 233.904473 
L 440.7912 232.00469 
L 446.148 229.59601 
L 450.8352 227.278282 
L 453.5136 225.457912 
L 457.5312 222.819091 
L 463.5576 219.19115 
L 472.932 213.628709 
L 474.2712 213.701875 
L 475.6104 213.342866 
L 476.9496 212.81937 
L 478.2888 213.113612 
L 479.628 212.936597 
L 481.6368 212.356209 
L 483.6456 211.628562 
L 484.9848 211.995905 
L 485.6544 212.455731 
L 486.324 212.779879 
L 487.6632 212.933314 
L 489.0024 212.837493 
L 490.3416 214.328206 
L 491.0112 214.673115 
L 491.6808 215.304086 
L 492.3504 216.213946 
L 493.02 216.85037 
L 493.6896 217.234342 
L 494.3592 217.905775 
L 495.0288 218.837994 
L 495.6984 219.504408 
L 497.7072 220.845883 
L 498.3768 221.344654 
L 499.716 221.900611 
L 501.0552 222.215646 
L 502.3944 223.092256 
L 503.7336 223.493155 
L 504.4032 223.609716 
L 505.7424 224.42448 
L 507.0816 224.776713 
L 507.7512 224.872114 
L 508.4208 225.295153 
L 510.4296 228.467042 
L 511.0992 229.178966 
L 512.4384 229.985202 
L 513.7776 230.462334 
L 515.1168 231.336462 
L 515.7864 232.191959 
L 516.456 232.858523 
L 517.1256 233.266432 
L 519.804 236.604931 
L 521.1432 237.345005 
L 522.4824 237.801203 
L 523.152 237.969005 
L 523.8216 238.360244 
L 524.4912 238.923799 
L 526.5 240.183335 
L 527.8392 241.011929 
L 529.1784 241.40142 
L 529.848 241.521606 
L 531.1872 242.088391 
L 532.5264 242.324199 
L 534.5352 242.43353 
L 537.2136 242.33947 
L 540.5616 241.954424 
L 543.9096 241.339325 
L 547.9272 240.355478 
L 551.9448 239.14798 
L 556.632 237.50151 
L 561.9888 235.355086 
L 567.3456 232.970513 
L 573.372 230.049764 
L 580.068 226.562593 
L 584.7552 223.958363 
L 587.4336 221.995944 
L 591.4512 219.147557 
L 596.808 215.67892 
L 602.1648 212.320144 
L 603.504 212.380117 
L 604.8432 212.006663 
L 607.5216 210.851784 
L 610.8696 209.163378 
L 613.548 207.682441 
L 614.8872 207.882027 
L 616.2264 207.666743 
L 618.2352 206.986905 
L 620.9136 205.78692 
L 622.9224 204.685531 
L 624.9312 204.885728 
L 625.6008 205.313891 
L 626.94 206.955389 
L 627.6096 207.425651 
L 628.9488 207.949321 
L 629.6184 208.085964 
L 630.288 208.656974 
L 630.9576 210.087961 
L 631.6272 211.210203 
L 632.2968 211.898552 
L 634.3056 213.409253 
L 634.9752 213.983144 
L 635.6448 214.356538 
L 636.984 215.625735 
L 637.6536 215.994615 
L 638.9928 219.123949 
L 639.6624 220.183516 
L 640.332 220.880754 
L 641.6712 222.489765 
L 642.3408 222.999596 
L 643.0104 223.758742 
L 643.68 224.730923 
L 644.3496 225.454432 
L 645.0192 225.956671 
L 646.3584 227.275177 
L 648.3672 228.622633 
L 649.0368 229.432542 
L 649.7064 230.029576 
L 653.0544 232.064629 
L 653.724 232.597521 
L 654.3936 233.315909 
L 658.4112 236.459657 
L 659.7504 237.984571 
L 660.42 238.5317 
L 661.7592 239.170284 
L 663.768 239.703277 
L 665.7768 239.980675 
L 667.7856 240.086664 
L 669.1248 240.521288 
L 670.464 240.64779 
L 673.1424 240.578914 
L 675.8208 240.291283 
L 679.1688 239.712195 
L 683.1864 238.759708 
L 687.204 237.575249 
L 691.8912 235.948231 
L 693.9 235.180377 
L 695.2392 235.190909 
L 696.5784 234.89482 
L 699.2568 234.026716 
L 703.2744 232.480564 
L 708.6312 230.153049 
L 714.6576 227.269041 
L 718.6752 225.180846 
L 721.3536 223.311189 
L 725.3712 220.596754 
L 731.3976 216.875586 
L 742.7808 209.941359 
L 744.12 210.036708 
L 745.4592 209.699303 
L 747.468 208.880368 
L 748.8072 209.20754 
L 750.1464 209.077111 
L 752.1552 208.530424 
L 753.4944 209.018928 
L 754.8336 209.036864 
L 756.1728 208.836889 
L 757.512 209.474473 
L 758.8512 209.620182 
L 760.1904 209.53705 
L 761.5296 210.264545 
L 762.1992 210.421132 
L 763.5384 211.390275 
L 764.8776 211.759557 
L 765.5472 211.834797 
L 766.8864 212.736447 
L 768.2256 213.093066 
L 768.8952 213.170447 
L 770.2344 214.879002 
L 770.904 215.32162 
L 771.5736 215.607501 
L 774.252 218.033283 
L 775.5912 218.650215 
L 776.9304 218.991864 
L 777.6 219.508115 
L 777.6 219.508115 
" clip-path="url(#p40f32b8bd2)" style="fill: none; stroke: #000000; stroke-width: 1.5; stroke-linecap: square"/>
   </g>
   <g id="line2d_24">
    <path d="M 108 195.862012 
L 110.0088 199.237677 
L 112.0176 202.170265 
L 114.696 205.633915 
L 118.7136 210.64319 
L 125.4096 219.675861 
L 127.4184 221.845323 
L 129.4272 223.662718 
L 131.436 225.172905 
L 133.4448 226.414378 
L 138.8016 229.407228 
L 142.1496 231.37824 
L 144.828 232.628087 
L 147.5064 233.679962 
L 151.524 234.882676 
L 154.2024 235.433642 
L 156.8808 235.734982 
L 159.5592 235.819407 
L 162.9072 235.664205 
L 166.2552 235.261222 
L 169.6032 234.646791 
L 173.6208 233.67198 
L 177.6384 232.477478 
L 182.3256 230.851399 
L 182.9952 200.71352 
L 183.6648 188.395049 
L 184.3344 182.616091 
L 185.004 179.426334 
L 185.6736 177.572734 
L 186.3432 176.56423 
L 187.0128 176.149237 
L 187.6824 176.168059 
L 188.352 176.507476 
L 189.0216 177.079886 
L 190.3608 178.650366 
L 194.3784 183.839704 
L 195.7176 185.191617 
L 197.0568 186.267661 
L 198.396 187.066365 
L 200.4048 187.937193 
L 202.4136 188.508889 
L 203.7528 188.68477 
L 205.092 188.697115 
L 211.1184 188.323413 
L 215.8056 188.340698 
L 219.8232 188.112828 
L 224.5104 187.625789 
L 227.1888 187.351127 
L 228.528 187.548818 
L 229.8672 188.10309 
L 232.5456 189.630393 
L 234.5544 190.985769 
L 235.8936 192.188164 
L 237.2328 193.746169 
L 239.2416 196.532438 
L 241.2504 199.748663 
L 244.5984 205.356711 
L 247.2768 209.274858 
L 252.6336 216.610292 
L 255.312 219.751423 
L 258.66 223.444417 
L 260.6688 225.302927 
L 263.3472 227.43031 
L 266.0256 229.203571 
L 269.3736 231.204406 
L 272.052 232.488848 
L 274.7304 233.567702 
L 277.4088 234.344102 
L 280.0872 234.832888 
L 283.4352 235.139934 
L 286.7832 235.34508 
L 289.4616 235.312117 
L 295.488 234.885982 
L 298.836 234.489778 
L 302.184 233.880808 
L 306.2016 232.912916 
L 310.2192 231.726372 
L 314.9064 230.109488 
L 316.2456 229.607289 
L 316.9152 199.729687 
L 317.5848 187.498047 
L 318.2544 181.715697 
L 318.924 178.455368 
L 319.5936 176.494148 
L 320.2632 175.361801 
L 320.9328 174.816297 
L 321.6024 174.705854 
L 322.272 174.918959 
L 322.9416 175.36995 
L 324.2808 176.721307 
L 328.2984 181.425921 
L 329.6376 182.647354 
L 330.9768 183.597786 
L 332.316 184.272082 
L 333.6552 184.679471 
L 334.9944 184.83417 
L 336.3336 184.752633 
L 337.6728 184.451802 
L 339.012 183.948464 
L 340.3512 183.259283 
L 342.36 181.911411 
L 344.3688 180.23994 
L 347.0472 177.844776 
L 349.7256 175.834759 
L 352.404 174.128375 
L 354.4128 173.043966 
L 355.752 172.602089 
L 356.4216 172.557995 
L 357.0912 172.645446 
L 357.7608 172.863967 
L 358.4304 173.219057 
L 359.1 173.726911 
L 360.4392 175.156696 
L 362.448 177.907988 
L 363.7872 180.132308 
L 366.4656 185.240753 
L 370.4832 192.980864 
L 372.492 196.412269 
L 375.1704 200.794613 
L 377.8488 205.396625 
L 379.8576 208.395752 
L 385.2144 215.721128 
L 388.5624 219.755393 
L 390.5712 221.825369 
L 394.5888 225.442293 
L 396.5976 226.943884 
L 398.6064 228.177502 
L 402.624 230.275947 
L 407.9808 232.757609 
L 411.3288 234.053778 
L 414.0072 234.809597 
L 416.6856 235.284818 
L 419.364 235.51883 
L 422.0424 235.545423 
L 425.3904 235.327545 
L 434.0952 234.26777 
L 438.1128 233.42199 
L 442.1304 232.337295 
L 446.8176 230.820516 
L 450.1656 229.596136 
L 450.8352 199.72076 
L 451.5048 187.489953 
L 452.1744 181.711022 
L 452.844 178.460151 
L 453.5136 176.513175 
L 454.1832 175.397521 
L 454.8528 174.869147 
L 455.5224 174.774951 
L 456.192 175.002532 
L 456.8616 175.46562 
L 458.2008 176.833678 
L 462.2184 181.546952 
L 463.5576 182.765317 
L 464.8968 183.712106 
L 466.236 184.382685 
L 467.5752 184.78668 
L 468.9144 184.938412 
L 470.2536 184.854682 
L 471.5928 184.552734 
L 472.932 184.049215 
L 480.2976 180.816777 
L 484.3152 179.598802 
L 485.6544 179.425428 
L 486.9936 179.565417 
L 488.3328 179.944555 
L 489.672 180.501923 
L 491.0112 181.40408 
L 492.3504 182.670253 
L 493.6896 184.30025 
L 495.0288 186.199894 
L 497.7072 190.569963 
L 501.0552 196.039034 
L 503.7336 199.954169 
L 506.412 203.441749 
L 511.7688 210.098363 
L 513.7776 212.721507 
L 523.8216 224.798883 
L 527.8392 228.773857 
L 529.848 230.562768 
L 532.5264 232.624589 
L 534.5352 233.910115 
L 536.544 234.951793 
L 538.5528 235.774657 
L 540.5616 236.405007 
L 543.24 236.984134 
L 545.9184 237.304145 
L 548.5968 237.400961 
L 551.2752 237.304561 
L 554.6232 236.950385 
L 557.9712 236.374168 
L 561.9888 235.435671 
L 566.0064 234.270333 
L 570.6936 232.67178 
L 576.0504 230.584274 
L 582.0768 227.966599 
L 584.0856 227.041106 
L 584.7552 197.667343 
L 585.4248 185.58568 
L 586.0944 179.761172 
L 586.764 176.337509 
L 587.4336 174.156972 
L 588.1032 172.777754 
L 588.7728 171.973248 
L 589.4424 171.597099 
L 590.112 171.543855 
L 590.7816 171.731944 
L 592.1208 172.571067 
L 596.808 176.299207 
L 598.1472 176.956008 
L 599.4864 177.337783 
L 600.8256 177.442962 
L 602.1648 177.281093 
L 604.8432 176.568428 
L 606.852 175.809204 
L 608.8608 174.803096 
L 611.5392 173.149541 
L 615.5568 170.568028 
L 617.5656 169.780296 
L 619.5744 169.259693 
L 622.2528 168.817461 
L 624.2616 168.681867 
L 625.6008 168.872489 
L 626.2704 169.121315 
L 627.6096 170.01025 
L 628.9488 171.291124 
L 630.288 172.794161 
L 631.6272 174.681888 
L 633.636 178.202371 
L 637.6536 185.886 
L 639.6624 190.075439 
L 643.68 198.781987 
L 646.3584 204.031566 
L 648.3672 207.531309 
L 651.0456 211.769617 
L 653.724 215.507346 
L 657.7416 220.613887 
L 663.0984 226.85398 
L 665.1072 228.716618 
L 667.116 230.256362 
L 669.7944 231.95301 
L 671.8032 233.037204 
L 673.812 233.912136 
L 675.8208 234.588936 
L 678.4992 235.220787 
L 681.1776 235.585374 
L 683.856 235.720403 
L 686.5344 235.656919 
L 689.8824 235.337513 
L 693.2304 234.79001 
L 697.248 234.086654 
L 701.2656 233.305428 
L 705.2832 232.274554 
L 709.9704 230.809503 
L 714.6576 229.110204 
L 718.0056 227.775133 
L 718.6752 198.272557 
L 719.3448 186.162549 
L 720.0144 180.376775 
L 720.684 177.044795 
L 721.3536 174.988452 
L 722.0232 173.749288 
L 722.6928 173.089761 
L 723.3624 172.86128 
L 724.032 172.953559 
L 724.7016 173.280486 
L 726.0408 174.377427 
L 730.0584 178.330399 
L 731.3976 179.312571 
L 732.7368 180.025682 
L 734.076 180.462882 
L 735.4152 180.631036 
L 736.7544 180.542839 
L 738.0936 180.214386 
L 739.4328 179.664495 
L 740.772 178.912266 
L 742.7808 177.450262 
L 745.4592 175.385694 
L 748.1376 173.550141 
L 749.4768 172.856649 
L 750.816 172.368913 
L 752.8248 171.927377 
L 754.164 171.929106 
L 755.5032 172.167665 
L 756.8424 172.58391 
L 758.1816 173.250703 
L 760.1904 174.602223 
L 761.5296 175.695158 
L 762.8688 176.988671 
L 764.8776 179.312488 
L 767.556 182.732906 
L 770.904 187.351348 
L 777.6 197.318939 
L 777.6 197.318939 
" clip-path="url(#p40f32b8bd2)" style="fill: none; stroke: #4169e1; stroke-width: 1.5; stroke-linecap: square"/>
   </g>
   <g id="patch_3">
    <path d="M 108 256.32 
L 108 34.56 
" style="fill: none; stroke: #000000; stroke-width: 0.8; stroke-linejoin: miter; stroke-linecap: square"/>
   </g>
   <g id="patch_4">
    <path d="M 777.6 256.32 
L 777.6 34.56 
" style="fill: none; stroke: #000000; stroke-width: 0.8; stroke-linejoin: miter; stroke-linecap: square"/>
   </g>
   <g id="patch_5">
    <path d="M 108 256.32 
L 777.6 256.32 
" style="fill: none; stroke: #000000; stroke-width: 0.8; stroke-linejoin: miter; stroke-linecap: square"/>
   </g>
   <g id="patch_6">
    <path d="M 108 34.56 
L 777.6 34.56 
" style="fill: none; stroke: #000000; stroke-width: 0.8; stroke-linejoin: miter; stroke-linecap: square"/>
   </g>
   <g id="legend_1">
    <g id="patch_7">
     <path d="M 695.098438 71.91625 
L 770.6 71.91625 
Q 772.6 71.91625 772.6 69.91625 
L 772.6 41.56 
Q 772.6 39.56 770.6 39.56 
L 695.098438 39.56 
Q 693.098438 39.56 693.098438 41.56 
L 693.098438 69.91625 
Q 693.098438 71.91625 695.098438 71.91625 
z
" style="fill: #ffffff; opacity: 0.8; stroke: #cccccc; stroke-linejoin: miter"/>
    </g>
    <g id="line2d_25">
     <path d="M 697.098438 47.658437 
L 707.098438 47.658437 
L 717.098438 47.658437 
" style="fill: none; stroke: #000000; stroke-width: 1.5; stroke-linecap: square"/>
    </g>
    <g id="text_14">
     <!-- Soma -->
     <g transform="translate(725.098438 51.158437) scale(0.1 -0.1)">
      <defs>
       <path id="DejaVuSans-53" d="M 3425 4513 
L 3425 3897 
Q 3066 4069 2747 4153 
Q 2428 4238 2131 4238 
Q 1616 4238 1336 4038 
Q 1056 3838 1056 3469 
Q 1056 3159 1242 3001 
Q 1428 2844 1947 2747 
L 2328 2669 
Q 3034 2534 3370 2195 
Q 3706 1856 3706 1288 
Q 3706 609 3251 259 
Q 2797 -91 1919 -91 
Q 1588 -91 1214 -16 
Q 841 59 441 206 
L 441 856 
Q 825 641 1194 531 
Q 1563 422 1919 422 
Q 2459 422 2753 634 
Q 3047 847 3047 1241 
Q 3047 1584 2836 1778 
Q 2625 1972 2144 2069 
L 1759 2144 
Q 1053 2284 737 2584 
Q 422 2884 422 3419 
Q 422 4038 858 4394 
Q 1294 4750 2059 4750 
Q 2388 4750 2728 4690 
Q 3069 4631 3425 4513 
z
" transform="scale(0.015625)"/>
       <path id="DejaVuSans-6f" d="M 1959 3097 
Q 1497 3097 1228 2736 
Q 959 2375 959 1747 
Q 959 1119 1226 758 
Q 1494 397 1959 397 
Q 2419 397 2687 759 
Q 2956 1122 2956 1747 
Q 2956 2369 2687 2733 
Q 2419 3097 1959 3097 
z
M 1959 3584 
Q 2709 3584 3137 3096 
Q 3566 2609 3566 1747 
Q 3566 888 3137 398 
Q 2709 -91 1959 -91 
Q 1206 -91 779 398 
Q 353 888 353 1747 
Q 353 2609 779 3096 
Q 1206 3584 1959 3584 
z
" transform="scale(0.015625)"/>
       <path id="DejaVuSans-61" d="M 2194 1759 
Q 1497 1759 1228 1600 
Q 959 1441 959 1056 
Q 959 750 1161 570 
Q 1363 391 1709 391 
Q 2188 391 2477 730 
Q 2766 1069 2766 1631 
L 2766 1759 
L 2194 1759 
z
M 3341 1997 
L 3341 0 
L 2766 0 
L 2766 531 
Q 2569 213 2275 61 
Q 1981 -91 1556 -91 
Q 1019 -91 701 211 
Q 384 513 384 1019 
Q 384 1609 779 1909 
Q 1175 2209 1959 2209 
L 2766 2209 
L 2766 2266 
Q 2766 2663 2505 2880 
Q 2244 3097 1772 3097 
Q 1472 3097 1187 3025 
Q 903 2953 641 2809 
L 641 3341 
Q 956 3463 1253 3523 
Q 1550 3584 1831 3584 
Q 2591 3584 2966 3190 
Q 3341 2797 3341 1997 
z
" transform="scale(0.015625)"/>
      </defs>
      <use xlink:href="#DejaVuSans-53"/>
      <use xlink:href="#DejaVuSans-6f" x="63.476562"/>
      <use xlink:href="#DejaVuSans-6d" x="124.658203"/>
      <use xlink:href="#DejaVuSans-61" x="222.070312"/>
     </g>
    </g>
    <g id="line2d_26">
     <path d="M 697.098438 62.336562 
L 707.098438 62.336562 
L 717.098438 62.336562 
" style="fill: none; stroke: #4169e1; stroke-width: 1.5; stroke-linecap: square"/>
    </g>
    <g id="text_15">
     <!-- Dendrite -->
     <g transform="translate(725.098438 65.836562) scale(0.1 -0.1)">
      <defs>
       <path id="DejaVuSans-44" d="M 1259 4147 
L 1259 519 
L 2022 519 
Q 2988 519 3436 956 
Q 3884 1394 3884 2338 
Q 3884 3275 3436 3711 
Q 2988 4147 2022 4147 
L 1259 4147 
z
M 628 4666 
L 1925 4666 
Q 3281 4666 3915 4102 
Q 4550 3538 4550 2338 
Q 4550 1131 3912 565 
Q 3275 0 1925 0 
L 628 0 
L 628 4666 
z
" transform="scale(0.015625)"/>
       <path id="DejaVuSans-6e" d="M 3513 2113 
L 3513 0 
L 2938 0 
L 2938 2094 
Q 2938 2591 2744 2837 
Q 2550 3084 2163 3084 
Q 1697 3084 1428 2787 
Q 1159 2491 1159 1978 
L 1159 0 
L 581 0 
L 581 3500 
L 1159 3500 
L 1159 2956 
Q 1366 3272 1645 3428 
Q 1925 3584 2291 3584 
Q 2894 3584 3203 3211 
Q 3513 2838 3513 2113 
z
" transform="scale(0.015625)"/>
       <path id="DejaVuSans-64" d="M 2906 2969 
L 2906 4863 
L 3481 4863 
L 3481 0 
L 2906 0 
L 2906 525 
Q 2725 213 2448 61 
Q 2172 -91 1784 -91 
Q 1150 -91 751 415 
Q 353 922 353 1747 
Q 353 2572 751 3078 
Q 1150 3584 1784 3584 
Q 2172 3584 2448 3432 
Q 2725 3281 2906 2969 
z
M 947 1747 
Q 947 1113 1208 752 
Q 1469 391 1925 391 
Q 2381 391 2643 752 
Q 2906 1113 2906 1747 
Q 2906 2381 2643 2742 
Q 2381 3103 1925 3103 
Q 1469 3103 1208 2742 
Q 947 2381 947 1747 
z
" transform="scale(0.015625)"/>
       <path id="DejaVuSans-72" d="M 2631 2963 
Q 2534 3019 2420 3045 
Q 2306 3072 2169 3072 
Q 1681 3072 1420 2755 
Q 1159 2438 1159 1844 
L 1159 0 
L 581 0 
L 581 3500 
L 1159 3500 
L 1159 2956 
Q 1341 3275 1631 3429 
Q 1922 3584 2338 3584 
Q 2397 3584 2469 3576 
Q 2541 3569 2628 3553 
L 2631 2963 
z
" transform="scale(0.015625)"/>
       <path id="DejaVuSans-74" d="M 1172 4494 
L 1172 3500 
L 2356 3500 
L 2356 3053 
L 1172 3053 
L 1172 1153 
Q 1172 725 1289 603 
Q 1406 481 1766 481 
L 2356 481 
L 2356 0 
L 1766 0 
Q 1100 0 847 248 
Q 594 497 594 1153 
L 594 3053 
L 172 3053 
L 172 3500 
L 594 3500 
L 594 4494 
L 1172 4494 
z
" transform="scale(0.015625)"/>
      </defs>
      <use xlink:href="#DejaVuSans-44"/>
      <use xlink:href="#DejaVuSans-65" x="77.001953"/>
      <use xlink:href="#DejaVuSans-6e" x="138.525391"/>
      <use xlink:href="#DejaVuSans-64" x="201.904297"/>
      <use xlink:href="#DejaVuSans-72" x="265.380859"/>
      <use xlink:href="#DejaVuSans-69" x="306.494141"/>
      <use xlink:href="#DejaVuSans-74" x="334.277344"/>
      <use xlink:href="#DejaVuSans-65" x="373.486328"/>
     </g>
    </g>
   </g>
  </g>
 </g>
 <defs>
  <clipPath id="p40f32b8bd2">
   <rect x="108" y="34.56" width="669.6" height="221.76"/>
  </clipPath>
 </defs>
</svg>
