<?xml version="1.0" encoding="utf-8" standalone="no"?>
<!DOCTYPE svg PUBLIC "-//W3C//DTD SVG 1.1//EN"
  "http://www.w3.org/Graphics/SVG/1.1/DTD/svg11.dtd">
<svg xmlns:xlink="http://www.w3.org/1999/xlink" width="864pt" height="288pt" viewBox="0 0 864 288" xmlns="http://www.w3.org/2000/svg" version="1.1">
 <metadata>
  <rdf:RDF xmlns:dc="http://purl.org/dc/elements/1.1/" xmlns:cc="http://creativecommons.org/ns#" xmlns:rdf="http://www.w3.org/1999/02/22-rdf-syntax-ns#">
   <cc:Work>
    <dc:type rdf:resource="http://purl.org/dc/dcmitype/StillImage"/>
    <dc:date>2024-04-26T13:24:02.080981</dc:date>
    <dc:format>image/svg+xml</dc:format>
    <dc:creator>
     <cc:Agent>
      <dc:title>Matplotlib v3.8.2, https://matplotlib.org/</dc:title>
     </cc:Agent>
    </dc:creator>
   </cc:Work>
  </rdf:RDF>
 </metadata>
 <defs>
  <style type="text/css">*{stroke-linejoin: round; stroke-linecap: butt}</style>
 </defs>
 <g id="figure_1">
  <g id="patch_1">
   <path d="M 0 288 
L 864 288 
L 864 0 
L 0 0 
z
" style="fill: #ffffff"/>
  </g>
  <g id="axes_1">
   <g id="patch_2">
    <path d="M 108 256.32 
L 777.6 256.32 
L 777.6 34.56 
L 108 34.56 
z
" style="fill: #ffffff"/>
   </g>
   <g id="matplotlib.axis_1">
    <g id="xtick_1">
     <g id="line2d_1">
      <path d="M 108 256.32 
L 108 34.56 
" clip-path="url(#p37344b34e8)" style="fill: none; stroke: #b0b0b0; stroke-width: 0.8; stroke-linecap: square"/>
     </g>
     <g id="line2d_2">
      <defs>
       <path id="m656303819f" d="M 0 0 
L 0 3.5 
" style="stroke: #000000; stroke-width: 0.8"/>
      </defs>
      <g>
       <use xlink:href="#m656303819f" x="108" y="256.32" style="stroke: #000000; stroke-width: 0.8"/>
      </g>
     </g>
     <g id="text_1">
      <!-- 100 -->
      <g transform="translate(94.63875 273.957812) scale(0.14 -0.14)">
       <defs>
        <path id="DejaVuSans-31" d="M 794 531 
L 1825 531 
L 1825 4091 
L 703 3866 
L 703 4441 
L 1819 4666 
L 2450 4666 
L 2450 531 
L 3481 531 
L 3481 0 
L 794 0 
L 794 531 
z
" transform="scale(0.015625)"/>
        <path id="DejaVuSans-30" d="M 2034 4250 
Q 1547 4250 1301 3770 
Q 1056 3291 1056 2328 
Q 1056 1369 1301 889 
Q 1547 409 2034 409 
Q 2525 409 2770 889 
Q 3016 1369 3016 2328 
Q 3016 3291 2770 3770 
Q 2525 4250 2034 4250 
z
M 2034 4750 
Q 2819 4750 3233 4129 
Q 3647 3509 3647 2328 
Q 3647 1150 3233 529 
Q 2819 -91 2034 -91 
Q 1250 -91 836 529 
Q 422 1150 422 2328 
Q 422 3509 836 4129 
Q 1250 4750 2034 4750 
z
" transform="scale(0.015625)"/>
       </defs>
       <use xlink:href="#DejaVuSans-31"/>
       <use xlink:href="#DejaVuSans-30" x="63.623047"/>
       <use xlink:href="#DejaVuSans-30" x="127.246094"/>
      </g>
     </g>
    </g>
    <g id="xtick_2">
     <g id="line2d_3">
      <path d="M 241.92 256.32 
L 241.92 34.56 
" clip-path="url(#p37344b34e8)" style="fill: none; stroke: #b0b0b0; stroke-width: 0.8; stroke-linecap: square"/>
     </g>
     <g id="line2d_4">
      <g>
       <use xlink:href="#m656303819f" x="241.92" y="256.32" style="stroke: #000000; stroke-width: 0.8"/>
      </g>
     </g>
     <g id="text_2">
      <!-- 120 -->
      <g transform="translate(228.55875 273.957812) scale(0.14 -0.14)">
       <defs>
        <path id="DejaVuSans-32" d="M 1228 531 
L 3431 531 
L 3431 0 
L 469 0 
L 469 531 
Q 828 903 1448 1529 
Q 2069 2156 2228 2338 
Q 2531 2678 2651 2914 
Q 2772 3150 2772 3378 
Q 2772 3750 2511 3984 
Q 2250 4219 1831 4219 
Q 1534 4219 1204 4116 
Q 875 4013 500 3803 
L 500 4441 
Q 881 4594 1212 4672 
Q 1544 4750 1819 4750 
Q 2544 4750 2975 4387 
Q 3406 4025 3406 3419 
Q 3406 3131 3298 2873 
Q 3191 2616 2906 2266 
Q 2828 2175 2409 1742 
Q 1991 1309 1228 531 
z
" transform="scale(0.015625)"/>
       </defs>
       <use xlink:href="#DejaVuSans-31"/>
       <use xlink:href="#DejaVuSans-32" x="63.623047"/>
       <use xlink:href="#DejaVuSans-30" x="127.246094"/>
      </g>
     </g>
    </g>
    <g id="xtick_3">
     <g id="line2d_5">
      <path d="M 375.84 256.32 
L 375.84 34.56 
" clip-path="url(#p37344b34e8)" style="fill: none; stroke: #b0b0b0; stroke-width: 0.8; stroke-linecap: square"/>
     </g>
     <g id="line2d_6">
      <g>
       <use xlink:href="#m656303819f" x="375.84" y="256.32" style="stroke: #000000; stroke-width: 0.8"/>
      </g>
     </g>
     <g id="text_3">
      <!-- 140 -->
      <g transform="translate(362.47875 273.957812) scale(0.14 -0.14)">
       <defs>
        <path id="DejaVuSans-34" d="M 2419 4116 
L 825 1625 
L 2419 1625 
L 2419 4116 
z
M 2253 4666 
L 3047 4666 
L 3047 1625 
L 3713 1625 
L 3713 1100 
L 3047 1100 
L 3047 0 
L 2419 0 
L 2419 1100 
L 313 1100 
L 313 1709 
L 2253 4666 
z
" transform="scale(0.015625)"/>
       </defs>
       <use xlink:href="#DejaVuSans-31"/>
       <use xlink:href="#DejaVuSans-34" x="63.623047"/>
       <use xlink:href="#DejaVuSans-30" x="127.246094"/>
      </g>
     </g>
    </g>
    <g id="xtick_4">
     <g id="line2d_7">
      <path d="M 509.76 256.32 
L 509.76 34.56 
" clip-path="url(#p37344b34e8)" style="fill: none; stroke: #b0b0b0; stroke-width: 0.8; stroke-linecap: square"/>
     </g>
     <g id="line2d_8">
      <g>
       <use xlink:href="#m656303819f" x="509.76" y="256.32" style="stroke: #000000; stroke-width: 0.8"/>
      </g>
     </g>
     <g id="text_4">
      <!-- 160 -->
      <g transform="translate(496.39875 273.957812) scale(0.14 -0.14)">
       <defs>
        <path id="DejaVuSans-36" d="M 2113 2584 
Q 1688 2584 1439 2293 
Q 1191 2003 1191 1497 
Q 1191 994 1439 701 
Q 1688 409 2113 409 
Q 2538 409 2786 701 
Q 3034 994 3034 1497 
Q 3034 2003 2786 2293 
Q 2538 2584 2113 2584 
z
M 3366 4563 
L 3366 3988 
Q 3128 4100 2886 4159 
Q 2644 4219 2406 4219 
Q 1781 4219 1451 3797 
Q 1122 3375 1075 2522 
Q 1259 2794 1537 2939 
Q 1816 3084 2150 3084 
Q 2853 3084 3261 2657 
Q 3669 2231 3669 1497 
Q 3669 778 3244 343 
Q 2819 -91 2113 -91 
Q 1303 -91 875 529 
Q 447 1150 447 2328 
Q 447 3434 972 4092 
Q 1497 4750 2381 4750 
Q 2619 4750 2861 4703 
Q 3103 4656 3366 4563 
z
" transform="scale(0.015625)"/>
       </defs>
       <use xlink:href="#DejaVuSans-31"/>
       <use xlink:href="#DejaVuSans-36" x="63.623047"/>
       <use xlink:href="#DejaVuSans-30" x="127.246094"/>
      </g>
     </g>
    </g>
    <g id="xtick_5">
     <g id="line2d_9">
      <path d="M 643.68 256.32 
L 643.68 34.56 
" clip-path="url(#p37344b34e8)" style="fill: none; stroke: #b0b0b0; stroke-width: 0.8; stroke-linecap: square"/>
     </g>
     <g id="line2d_10">
      <g>
       <use xlink:href="#m656303819f" x="643.68" y="256.32" style="stroke: #000000; stroke-width: 0.8"/>
      </g>
     </g>
     <g id="text_5">
      <!-- 180 -->
      <g transform="translate(630.31875 273.957812) scale(0.14 -0.14)">
       <defs>
        <path id="DejaVuSans-38" d="M 2034 2216 
Q 1584 2216 1326 1975 
Q 1069 1734 1069 1313 
Q 1069 891 1326 650 
Q 1584 409 2034 409 
Q 2484 409 2743 651 
Q 3003 894 3003 1313 
Q 3003 1734 2745 1975 
Q 2488 2216 2034 2216 
z
M 1403 2484 
Q 997 2584 770 2862 
Q 544 3141 544 3541 
Q 544 4100 942 4425 
Q 1341 4750 2034 4750 
Q 2731 4750 3128 4425 
Q 3525 4100 3525 3541 
Q 3525 3141 3298 2862 
Q 3072 2584 2669 2484 
Q 3125 2378 3379 2068 
Q 3634 1759 3634 1313 
Q 3634 634 3220 271 
Q 2806 -91 2034 -91 
Q 1263 -91 848 271 
Q 434 634 434 1313 
Q 434 1759 690 2068 
Q 947 2378 1403 2484 
z
M 1172 3481 
Q 1172 3119 1398 2916 
Q 1625 2713 2034 2713 
Q 2441 2713 2670 2916 
Q 2900 3119 2900 3481 
Q 2900 3844 2670 4047 
Q 2441 4250 2034 4250 
Q 1625 4250 1398 4047 
Q 1172 3844 1172 3481 
z
" transform="scale(0.015625)"/>
       </defs>
       <use xlink:href="#DejaVuSans-31"/>
       <use xlink:href="#DejaVuSans-38" x="63.623047"/>
       <use xlink:href="#DejaVuSans-30" x="127.246094"/>
      </g>
     </g>
    </g>
    <g id="xtick_6">
     <g id="line2d_11">
      <path d="M 777.6 256.32 
L 777.6 34.56 
" clip-path="url(#p37344b34e8)" style="fill: none; stroke: #b0b0b0; stroke-width: 0.8; stroke-linecap: square"/>
     </g>
     <g id="line2d_12">
      <g>
       <use xlink:href="#m656303819f" x="777.6" y="256.32" style="stroke: #000000; stroke-width: 0.8"/>
      </g>
     </g>
     <g id="text_6">
      <!-- 200 -->
      <g transform="translate(764.23875 273.957812) scale(0.14 -0.14)">
       <use xlink:href="#DejaVuSans-32"/>
       <use xlink:href="#DejaVuSans-30" x="63.623047"/>
       <use xlink:href="#DejaVuSans-30" x="127.246094"/>
      </g>
     </g>
    </g>
    <g id="text_7">
     <!-- Time (ms) -->
     <g transform="translate(407.521094 291.507187) scale(0.14 -0.14)">
      <defs>
       <path id="DejaVuSans-54" d="M -19 4666 
L 3928 4666 
L 3928 4134 
L 2272 4134 
L 2272 0 
L 1638 0 
L 1638 4134 
L -19 4134 
L -19 4666 
z
" transform="scale(0.015625)"/>
       <path id="DejaVuSans-69" d="M 603 3500 
L 1178 3500 
L 1178 0 
L 603 0 
L 603 3500 
z
M 603 4863 
L 1178 4863 
L 1178 4134 
L 603 4134 
L 603 4863 
z
" transform="scale(0.015625)"/>
       <path id="DejaVuSans-6d" d="M 3328 2828 
Q 3544 3216 3844 3400 
Q 4144 3584 4550 3584 
Q 5097 3584 5394 3201 
Q 5691 2819 5691 2113 
L 5691 0 
L 5113 0 
L 5113 2094 
Q 5113 2597 4934 2840 
Q 4756 3084 4391 3084 
Q 3944 3084 3684 2787 
Q 3425 2491 3425 1978 
L 3425 0 
L 2847 0 
L 2847 2094 
Q 2847 2600 2669 2842 
Q 2491 3084 2119 3084 
Q 1678 3084 1418 2786 
Q 1159 2488 1159 1978 
L 1159 0 
L 581 0 
L 581 3500 
L 1159 3500 
L 1159 2956 
Q 1356 3278 1631 3431 
Q 1906 3584 2284 3584 
Q 2666 3584 2933 3390 
Q 3200 3197 3328 2828 
z
" transform="scale(0.015625)"/>
       <path id="DejaVuSans-65" d="M 3597 1894 
L 3597 1613 
L 953 1613 
Q 991 1019 1311 708 
Q 1631 397 2203 397 
Q 2534 397 2845 478 
Q 3156 559 3463 722 
L 3463 178 
Q 3153 47 2828 -22 
Q 2503 -91 2169 -91 
Q 1331 -91 842 396 
Q 353 884 353 1716 
Q 353 2575 817 3079 
Q 1281 3584 2069 3584 
Q 2775 3584 3186 3129 
Q 3597 2675 3597 1894 
z
M 3022 2063 
Q 3016 2534 2758 2815 
Q 2500 3097 2075 3097 
Q 1594 3097 1305 2825 
Q 1016 2553 972 2059 
L 3022 2063 
z
" transform="scale(0.015625)"/>
       <path id="DejaVuSans-20" transform="scale(0.015625)"/>
       <path id="DejaVuSans-28" d="M 1984 4856 
Q 1566 4138 1362 3434 
Q 1159 2731 1159 2009 
Q 1159 1288 1364 580 
Q 1569 -128 1984 -844 
L 1484 -844 
Q 1016 -109 783 600 
Q 550 1309 550 2009 
Q 550 2706 781 3412 
Q 1013 4119 1484 4856 
L 1984 4856 
z
" transform="scale(0.015625)"/>
       <path id="DejaVuSans-73" d="M 2834 3397 
L 2834 2853 
Q 2591 2978 2328 3040 
Q 2066 3103 1784 3103 
Q 1356 3103 1142 2972 
Q 928 2841 928 2578 
Q 928 2378 1081 2264 
Q 1234 2150 1697 2047 
L 1894 2003 
Q 2506 1872 2764 1633 
Q 3022 1394 3022 966 
Q 3022 478 2636 193 
Q 2250 -91 1575 -91 
Q 1294 -91 989 -36 
Q 684 19 347 128 
L 347 722 
Q 666 556 975 473 
Q 1284 391 1588 391 
Q 1994 391 2212 530 
Q 2431 669 2431 922 
Q 2431 1156 2273 1281 
Q 2116 1406 1581 1522 
L 1381 1569 
Q 847 1681 609 1914 
Q 372 2147 372 2553 
Q 372 3047 722 3315 
Q 1072 3584 1716 3584 
Q 2034 3584 2315 3537 
Q 2597 3491 2834 3397 
z
" transform="scale(0.015625)"/>
       <path id="DejaVuSans-29" d="M 513 4856 
L 1013 4856 
Q 1481 4119 1714 3412 
Q 1947 2706 1947 2009 
Q 1947 1309 1714 600 
Q 1481 -109 1013 -844 
L 513 -844 
Q 928 -128 1133 580 
Q 1338 1288 1338 2009 
Q 1338 2731 1133 3434 
Q 928 4138 513 4856 
z
" transform="scale(0.015625)"/>
      </defs>
      <use xlink:href="#DejaVuSans-54"/>
      <use xlink:href="#DejaVuSans-69" x="57.958984"/>
      <use xlink:href="#DejaVuSans-6d" x="85.742188"/>
      <use xlink:href="#DejaVuSans-65" x="183.154297"/>
      <use xlink:href="#DejaVuSans-20" x="244.677734"/>
      <use xlink:href="#DejaVuSans-28" x="276.464844"/>
      <use xlink:href="#DejaVuSans-6d" x="315.478516"/>
      <use xlink:href="#DejaVuSans-73" x="412.890625"/>
      <use xlink:href="#DejaVuSans-29" x="464.990234"/>
     </g>
    </g>
   </g>
   <g id="matplotlib.axis_2">
    <g id="ytick_1">
     <g id="line2d_13">
      <path d="M 108 225.080552 
L 777.6 225.080552 
" clip-path="url(#p37344b34e8)" style="fill: none; stroke: #b0b0b0; stroke-width: 0.8; stroke-linecap: square"/>
     </g>
     <g id="line2d_14">
      <defs>
       <path id="m13d231aa59" d="M 0 0 
L -3.5 0 
" style="stroke: #000000; stroke-width: 0.8"/>
      </defs>
      <g>
       <use xlink:href="#m13d231aa59" x="108" y="225.080552" style="stroke: #000000; stroke-width: 0.8"/>
      </g>
     </g>
     <g id="text_8">
      <!-- −60 -->
      <g transform="translate(71.453437 230.399458) scale(0.14 -0.14)">
       <defs>
        <path id="DejaVuSans-2212" d="M 678 2272 
L 4684 2272 
L 4684 1741 
L 678 1741 
L 678 2272 
z
" transform="scale(0.015625)"/>
       </defs>
       <use xlink:href="#DejaVuSans-2212"/>
       <use xlink:href="#DejaVuSans-36" x="83.789062"/>
       <use xlink:href="#DejaVuSans-30" x="147.412109"/>
      </g>
     </g>
    </g>
    <g id="ytick_2">
     <g id="line2d_15">
      <path d="M 108 182.829088 
L 777.6 182.829088 
" clip-path="url(#p37344b34e8)" style="fill: none; stroke: #b0b0b0; stroke-width: 0.8; stroke-linecap: square"/>
     </g>
     <g id="line2d_16">
      <g>
       <use xlink:href="#m13d231aa59" x="108" y="182.829088" style="stroke: #000000; stroke-width: 0.8"/>
      </g>
     </g>
     <g id="text_9">
      <!-- −40 -->
      <g transform="translate(71.453437 188.147994) scale(0.14 -0.14)">
       <use xlink:href="#DejaVuSans-2212"/>
       <use xlink:href="#DejaVuSans-34" x="83.789062"/>
       <use xlink:href="#DejaVuSans-30" x="147.412109"/>
      </g>
     </g>
    </g>
    <g id="ytick_3">
     <g id="line2d_17">
      <path d="M 108 140.577623 
L 777.6 140.577623 
" clip-path="url(#p37344b34e8)" style="fill: none; stroke: #b0b0b0; stroke-width: 0.8; stroke-linecap: square"/>
     </g>
     <g id="line2d_18">
      <g>
       <use xlink:href="#m13d231aa59" x="108" y="140.577623" style="stroke: #000000; stroke-width: 0.8"/>
      </g>
     </g>
     <g id="text_10">
      <!-- −20 -->
      <g transform="translate(71.453437 145.896529) scale(0.14 -0.14)">
       <use xlink:href="#DejaVuSans-2212"/>
       <use xlink:href="#DejaVuSans-32" x="83.789062"/>
       <use xlink:href="#DejaVuSans-30" x="147.412109"/>
      </g>
     </g>
    </g>
    <g id="ytick_4">
     <g id="line2d_19">
      <path d="M 108 98.326158 
L 777.6 98.326158 
" clip-path="url(#p37344b34e8)" style="fill: none; stroke: #b0b0b0; stroke-width: 0.8; stroke-linecap: square"/>
     </g>
     <g id="line2d_20">
      <g>
       <use xlink:href="#m13d231aa59" x="108" y="98.326158" style="stroke: #000000; stroke-width: 0.8"/>
      </g>
     </g>
     <g id="text_11">
      <!-- 0 -->
      <g transform="translate(92.0925 103.645065) scale(0.14 -0.14)">
       <use xlink:href="#DejaVuSans-30"/>
      </g>
     </g>
    </g>
    <g id="ytick_5">
     <g id="line2d_21">
      <path d="M 108 56.074694 
L 777.6 56.074694 
" clip-path="url(#p37344b34e8)" style="fill: none; stroke: #b0b0b0; stroke-width: 0.8; stroke-linecap: square"/>
     </g>
     <g id="line2d_22">
      <g>
       <use xlink:href="#m13d231aa59" x="108" y="56.074694" style="stroke: #000000; stroke-width: 0.8"/>
      </g>
     </g>
     <g id="text_12">
      <!-- 20 -->
      <g transform="translate(83.185 61.3936) scale(0.14 -0.14)">
       <use xlink:href="#DejaVuSans-32"/>
       <use xlink:href="#DejaVuSans-30" x="63.623047"/>
      </g>
     </g>
    </g>
    <g id="text_13">
     <!-- $V_{m}$ (mV) -->
     <g transform="translate(64.541875 174.49) rotate(-90) scale(0.14 -0.14)">
      <defs>
       <path id="DejaVuSans-Oblique-56" d="M 1319 0 
L 500 4666 
L 1119 4666 
L 1797 653 
L 4063 4666 
L 4750 4666 
L 2053 0 
L 1319 0 
z
" transform="scale(0.015625)"/>
       <path id="DejaVuSans-Oblique-6d" d="M 5747 2113 
L 5338 0 
L 4763 0 
L 5166 2094 
Q 5191 2228 5203 2325 
Q 5216 2422 5216 2491 
Q 5216 2772 5059 2928 
Q 4903 3084 4622 3084 
Q 4203 3084 3875 2770 
Q 3547 2456 3450 1953 
L 3066 0 
L 2491 0 
L 2900 2094 
Q 2925 2209 2937 2307 
Q 2950 2406 2950 2484 
Q 2950 2769 2794 2926 
Q 2638 3084 2363 3084 
Q 1938 3084 1609 2770 
Q 1281 2456 1184 1953 
L 800 0 
L 225 0 
L 909 3500 
L 1484 3500 
L 1375 2956 
Q 1609 3263 1923 3423 
Q 2238 3584 2597 3584 
Q 2978 3584 3223 3384 
Q 3469 3184 3519 2828 
Q 3781 3197 4126 3390 
Q 4472 3584 4856 3584 
Q 5306 3584 5551 3325 
Q 5797 3066 5797 2591 
Q 5797 2488 5784 2364 
Q 5772 2241 5747 2113 
z
" transform="scale(0.015625)"/>
       <path id="DejaVuSans-56" d="M 1831 0 
L 50 4666 
L 709 4666 
L 2188 738 
L 3669 4666 
L 4325 4666 
L 2547 0 
L 1831 0 
z
" transform="scale(0.015625)"/>
      </defs>
      <use xlink:href="#DejaVuSans-Oblique-56" transform="translate(0 0.125)"/>
      <use xlink:href="#DejaVuSans-Oblique-6d" transform="translate(68.408203 -16.28125) scale(0.7)"/>
      <use xlink:href="#DejaVuSans-20" transform="translate(139.331055 0.125)"/>
      <use xlink:href="#DejaVuSans-28" transform="translate(171.118164 0.125)"/>
      <use xlink:href="#DejaVuSans-6d" transform="translate(210.131836 0.125)"/>
      <use xlink:href="#DejaVuSans-56" transform="translate(307.543945 0.125)"/>
      <use xlink:href="#DejaVuSans-29" transform="translate(375.952148 0.125)"/>
     </g>
    </g>
   </g>
   <g id="line2d_23">
    <path d="M 108 220.88192 
L 109.3392 221.551589 
L 110.6784 221.991854 
L 111.348 222.156044 
L 112.6872 223.090366 
L 114.0264 223.546214 
L 116.0352 225.085784 
L 118.044 227.491001 
L 118.7136 228.573213 
L 119.3832 229.411791 
L 120.0528 229.947543 
L 120.7224 230.954897 
L 122.7312 233.18426 
L 124.0704 233.952022 
L 125.4096 234.450857 
L 127.4184 234.932393 
L 129.4272 235.197418 
L 132.1056 235.304335 
L 134.1144 235.236809 
L 136.1232 235.995309 
L 136.7928 236.781422 
L 137.4624 237.332062 
L 140.1408 238.460895 
L 141.48 238.714702 
L 144.1584 239.046989 
L 145.4976 239.298533 
L 147.5064 239.278733 
L 148.176 239.229608 
L 149.5152 239.553214 
L 150.8544 239.563664 
L 153.5328 239.267448 
L 156.8808 238.621725 
L 160.8984 237.574971 
L 164.916 236.296514 
L 169.6032 234.565353 
L 174.96 232.32423 
L 176.2992 231.682431 
L 178.9776 229.979667 
L 182.9952 227.524104 
L 191.0304 223.010701 
L 198.396 218.817772 
L 199.7352 218.841091 
L 201.0744 218.455465 
L 203.7528 217.32849 
L 205.7616 216.38276 
L 207.1008 216.558066 
L 208.44 216.297942 
L 209.7792 216.696227 
L 211.1184 216.604942 
L 213.1272 216.14663 
L 216.4752 215.082096 
L 220.4928 213.560371 
L 225.8496 211.282773 
L 227.1888 211.58868 
L 227.8584 212.49692 
L 228.528 213.205223 
L 229.1976 213.556367 
L 230.5368 213.829492 
L 231.876 213.854933 
L 232.5456 213.816724 
L 234.5544 215.097615 
L 235.8936 216.983783 
L 236.5632 218.09651 
L 239.2416 221.25908 
L 239.9112 222.280125 
L 240.5808 223.748106 
L 241.2504 224.827816 
L 241.92 225.523035 
L 243.2592 226.436728 
L 244.5984 227.045388 
L 245.9376 228.087519 
L 246.6072 228.40883 
L 247.2768 228.978796 
L 247.9464 229.758104 
L 249.9552 231.533093 
L 251.2944 232.701305 
L 252.6336 233.31287 
L 253.9728 233.694134 
L 255.312 234.98026 
L 255.9816 235.600387 
L 256.6512 236.059986 
L 257.9904 236.581599 
L 259.9992 236.989465 
L 260.6688 237.069442 
L 262.008 237.649253 
L 263.3472 237.879864 
L 264.6864 237.963753 
L 267.3648 239.046953 
L 268.704 239.245342 
L 270.7128 239.270901 
L 272.052 239.654255 
L 273.3912 239.718434 
L 276.0696 239.518012 
L 279.4176 238.975211 
L 282.096 238.377716 
L 283.4352 238.522665 
L 284.7744 238.369887 
L 287.4528 237.782295 
L 290.8008 236.82544 
L 291.4704 236.612884 
L 292.8096 236.690666 
L 294.1488 236.463 
L 296.8272 235.724882 
L 300.8448 234.348404 
L 305.532 232.489501 
L 309.5496 230.729416 
L 310.8888 229.977914 
L 317.5848 225.767318 
L 330.3072 218.505773 
L 341.0208 212.169663 
L 345.0384 209.706592 
L 346.3776 209.818497 
L 347.7168 209.492952 
L 349.7256 208.690606 
L 353.0736 207.060404 
L 354.4128 206.319908 
L 355.752 207.565941 
L 356.4216 207.866473 
L 358.4304 209.752076 
L 359.1 210.809019 
L 359.7696 211.564463 
L 360.4392 212.029109 
L 361.7784 212.558304 
L 363.1176 214.484297 
L 363.7872 215.43792 
L 364.4568 216.150364 
L 366.4656 217.629307 
L 367.1352 218.178217 
L 367.8048 218.539252 
L 369.144 219.744534 
L 370.4832 220.356888 
L 371.8224 220.716721 
L 372.492 220.842871 
L 373.8312 222.42881 
L 374.5008 223.948492 
L 375.1704 225.118942 
L 375.84 225.827718 
L 377.1792 226.708296 
L 378.5184 227.271886 
L 379.188 227.484292 
L 379.8576 227.996623 
L 381.8664 230.216172 
L 382.536 230.617372 
L 383.8752 231.705375 
L 384.5448 232.033294 
L 386.5536 233.598444 
L 387.2232 234.049863 
L 388.5624 234.572894 
L 391.2408 235.362175 
L 391.9104 235.929534 
L 392.58 236.324208 
L 393.9192 236.721685 
L 395.928 236.975695 
L 399.276 237.254157 
L 402.624 238.088618 
L 403.2936 238.123196 
L 405.972 239.147987 
L 407.3112 239.306634 
L 407.9808 239.318806 
L 409.32 239.730785 
L 410.6592 239.809237 
L 412.668 239.69248 
L 415.3464 239.324493 
L 418.6944 238.635995 
L 422.712 237.555414 
L 426.7296 236.251159 
L 428.0688 236.301706 
L 429.408 236.047502 
L 432.0864 235.260493 
L 436.104 233.821362 
L 440.7912 231.901658 
L 444.1392 230.363965 
L 446.8176 228.640604 
L 450.8352 226.146391 
L 458.2008 221.942683 
L 468.9144 215.75469 
L 472.932 213.367063 
L 474.2712 213.449997 
L 475.6104 213.096808 
L 476.9496 212.577895 
L 478.2888 212.883697 
L 479.628 212.714338 
L 481.6368 212.143851 
L 483.6456 211.425764 
L 484.9848 211.80572 
L 485.6544 212.273544 
L 486.324 212.604256 
L 487.6632 212.765584 
L 489.0024 212.676549 
L 490.3416 214.184851 
L 491.0112 214.535123 
L 491.6808 215.173251 
L 492.3504 216.091488 
L 493.02 216.734352 
L 493.6896 217.122895 
L 494.3592 217.800619 
L 495.0288 218.740664 
L 495.6984 219.412926 
L 497.7072 220.766167 
L 498.3768 221.268826 
L 499.716 221.828958 
L 501.0552 222.1458 
L 502.3944 223.027474 
L 503.7336 223.429777 
L 504.4032 223.546333 
L 505.7424 224.364815 
L 507.0816 224.717442 
L 507.7512 224.812449 
L 508.4208 225.237318 
L 510.4296 228.427802 
L 511.0992 229.143563 
L 512.4384 229.953185 
L 513.7776 230.431366 
L 515.1168 231.309316 
L 515.7864 232.169709 
L 516.456 232.839845 
L 517.1256 233.24949 
L 519.804 236.60741 
L 521.1432 237.350565 
L 522.4824 237.807789 
L 523.152 237.975665 
L 523.8216 238.368647 
L 524.4912 238.935252 
L 526.5 240.200853 
L 527.8392 241.033524 
L 529.1784 241.423821 
L 529.848 241.543859 
L 531.1872 242.11292 
L 532.5264 242.348502 
L 534.5352 242.455679 
L 537.2136 242.35701 
L 540.5616 241.964305 
L 543.9096 241.339933 
L 547.9272 240.343244 
L 551.9448 239.121337 
L 556.632 237.456384 
L 561.9888 235.286947 
L 567.3456 232.877638 
L 573.372 229.927298 
L 578.0592 227.442381 
L 580.7376 225.529095 
L 584.7552 222.76424 
L 590.7816 218.974968 
L 602.1648 211.955752 
L 603.504 212.026572 
L 604.8432 211.658108 
L 607.5216 210.505781 
L 610.8696 208.816485 
L 613.548 207.336643 
L 614.8872 207.547688 
L 616.2264 207.340636 
L 618.2352 206.672405 
L 620.9136 205.491785 
L 622.9224 204.420299 
L 624.9312 204.666932 
L 625.6008 205.111903 
L 626.94 206.772642 
L 627.6096 207.244501 
L 628.9488 207.77164 
L 629.6184 207.909561 
L 630.288 208.48309 
L 630.9576 209.923259 
L 631.6272 211.052089 
L 632.2968 211.742482 
L 634.3056 213.261869 
L 634.9752 213.839765 
L 635.6448 214.216044 
L 636.984 215.494424 
L 637.6536 215.865953 
L 638.9928 219.017264 
L 639.6624 220.084072 
L 640.332 220.785879 
L 641.6712 222.405375 
L 642.3408 222.918189 
L 643.0104 223.681998 
L 643.68 224.660265 
L 644.3496 225.388022 
L 645.0192 225.892885 
L 646.3584 227.218725 
L 648.3672 228.572483 
L 649.0368 229.387065 
L 649.7064 229.987246 
L 653.0544 232.031252 
L 653.724 232.566895 
L 654.3936 233.289427 
L 658.4112 236.449887 
L 659.7504 237.984182 
L 660.42 238.534411 
L 661.7592 239.175774 
L 663.768 239.709765 
L 665.7768 239.986271 
L 667.7856 240.090117 
L 669.1248 240.526268 
L 670.464 240.651907 
L 672.4728 240.621881 
L 675.1512 240.375229 
L 678.4992 239.832289 
L 682.5168 238.910851 
L 686.5344 237.748378 
L 691.2216 236.13855 
L 693.9 235.112671 
L 695.2392 235.122231 
L 696.5784 234.822535 
L 699.2568 233.944888 
L 703.2744 232.38243 
L 708.6312 230.031048 
L 711.9792 228.400103 
L 714.6576 226.609662 
L 718.6752 224.016672 
L 725.3712 220.052318 
L 738.7632 212.107515 
L 742.7808 209.626473 
L 744.12 209.731396 
L 745.4592 209.399274 
L 747.468 208.586194 
L 748.8072 208.925237 
L 750.1464 208.802528 
L 752.1552 208.265565 
L 753.4944 208.76813 
L 754.8336 208.795828 
L 756.1728 208.604226 
L 757.512 209.256615 
L 758.8512 209.412105 
L 760.1904 209.336887 
L 761.5296 210.077669 
L 762.1992 210.23828 
L 763.5384 211.217374 
L 764.8776 211.593139 
L 765.5472 211.670853 
L 766.8864 212.582192 
L 768.2256 212.942142 
L 768.8952 213.020836 
L 770.2344 214.742646 
L 770.904 215.188415 
L 771.5736 215.475979 
L 774.252 217.917526 
L 775.5912 218.537654 
L 776.9304 218.880339 
L 777.6 219.399452 
L 777.6 219.399452 
" clip-path="url(#p37344b34e8)" style="fill: none; stroke: #000000; stroke-width: 1.5; stroke-linecap: square"/>
   </g>
   <g id="line2d_24">
    <path d="M 108 198.693477 
L 110.0088 201.7199 
L 112.0176 204.353895 
L 114.696 207.496807 
L 118.044 211.313808 
L 121.392 215.638138 
L 124.74 219.978049 
L 126.7488 222.170847 
L 128.7576 224.009955 
L 130.7664 225.538265 
L 132.7752 226.79535 
L 135.4536 228.145835 
L 137.4624 229.206222 
L 142.1496 231.909999 
L 144.828 233.110253 
L 147.5064 234.118501 
L 151.524 235.26509 
L 154.2024 235.783564 
L 156.8808 236.055436 
L 159.5592 236.113072 
L 162.9072 235.927582 
L 166.2552 235.497216 
L 169.6032 234.857707 
L 173.6208 233.855152 
L 175.6296 233.269952 
L 176.2992 202.330516 
L 176.9688 189.737655 
L 177.6384 183.911503 
L 178.308 180.811287 
L 178.9776 179.116787 
L 179.6472 178.306548 
L 180.3168 178.112437 
L 180.9864 178.365942 
L 181.656 178.946473 
L 182.9952 180.733248 
L 188.352 189.136277 
L 189.6912 190.709526 
L 191.0304 191.990736 
L 192.3696 192.991225 
L 193.7088 193.731095 
L 195.048 194.233929 
L 196.3872 194.521933 
L 197.7264 194.618753 
L 201.0744 194.431943 
L 203.0832 194.181089 
L 205.092 193.753652 
L 207.7704 193.101642 
L 209.7792 192.809009 
L 212.4576 192.758731 
L 218.484 192.690653 
L 223.1712 192.409813 
L 227.1888 192.070407 
L 228.528 192.266901 
L 229.8672 192.776409 
L 233.2152 194.436261 
L 234.5544 195.215771 
L 235.8936 196.23499 
L 237.2328 197.584428 
L 239.2416 200.020228 
L 241.2504 202.871158 
L 244.5984 207.905072 
L 247.2768 211.440161 
L 253.3032 218.960111 
L 257.9904 223.934309 
L 259.9992 225.783453 
L 262.6776 227.858964 
L 264.6864 229.198396 
L 268.704 231.537191 
L 270.7128 232.52129 
L 274.0608 233.886764 
L 276.7392 234.684797 
L 279.4176 235.192809 
L 282.096 235.451042 
L 287.4528 235.701075 
L 290.1312 235.593011 
L 298.1664 234.834101 
L 301.5144 234.240056 
L 305.532 233.284444 
L 309.5496 232.105697 
L 310.2192 201.408065 
L 310.8888 188.894069 
L 311.5584 183.067453 
L 312.228 179.901854 
L 312.8976 178.104878 
L 313.5672 177.173683 
L 314.2368 176.850524 
L 314.9064 176.975695 
L 315.576 177.432633 
L 316.2456 178.130038 
L 317.5848 179.969547 
L 321.6024 185.975856 
L 322.9416 187.586653 
L 324.2808 188.913988 
L 325.62 189.960138 
L 326.9592 190.737035 
L 328.2984 191.265519 
L 329.6376 191.567155 
L 330.9768 191.662256 
L 332.316 191.571688 
L 333.6552 191.314527 
L 335.664 190.652499 
L 337.6728 189.701838 
L 339.6816 188.500987 
L 341.6904 187.082932 
L 344.3688 184.899917 
L 347.0472 182.655079 
L 349.7256 180.836219 
L 352.404 179.288984 
L 354.4128 178.288392 
L 355.752 177.878415 
L 356.4216 177.840759 
L 357.0912 177.927327 
L 357.7608 178.137157 
L 358.4304 178.475242 
L 359.1 178.957535 
L 360.4392 180.3076 
L 362.448 182.865564 
L 363.7872 184.911461 
L 367.8048 191.885982 
L 371.1528 197.46325 
L 373.8312 201.293245 
L 375.84 204.388821 
L 378.5184 208.476754 
L 381.8664 212.890061 
L 385.2144 217.110394 
L 388.5624 220.928447 
L 390.5712 222.890565 
L 394.5888 226.330475 
L 396.5976 227.758321 
L 398.6064 228.92636 
L 402.624 230.915028 
L 407.9808 233.283146 
L 411.3288 234.521932 
L 414.0072 235.237301 
L 416.6856 235.67621 
L 419.364 235.877608 
L 422.0424 235.874784 
L 425.3904 235.623898 
L 434.0952 234.49495 
L 438.1128 233.621514 
L 442.1304 232.510841 
L 443.4696 232.094757 
L 444.1392 201.399241 
L 444.8088 188.885964 
L 445.4784 183.062511 
L 446.148 179.906624 
L 446.8176 178.124439 
L 447.4872 177.210386 
L 448.1568 176.9045 
L 448.8264 177.045598 
L 449.496 177.516219 
L 450.1656 178.224617 
L 451.5048 180.078009 
L 455.5224 186.083688 
L 456.8616 187.688763 
L 458.2008 189.009784 
L 459.54 190.049499 
L 460.8792 190.820111 
L 462.2184 191.342782 
L 463.5576 191.638901 
L 464.8968 191.729023 
L 466.236 191.634279 
L 467.5752 191.373754 
L 469.584 190.708367 
L 471.5928 189.756574 
L 478.2888 186.129758 
L 480.2976 185.427442 
L 483.6456 184.555033 
L 484.9848 184.345119 
L 486.324 184.398307 
L 487.6632 184.720238 
L 489.672 185.506002 
L 491.0112 186.375547 
L 492.3504 187.564671 
L 493.6896 189.068202 
L 495.6984 191.739732 
L 501.7248 200.365404 
L 504.4032 203.699254 
L 507.7512 207.399285 
L 509.76 209.520966 
L 517.1256 218.19638 
L 519.804 221.392169 
L 522.4824 224.510533 
L 525.1608 227.149698 
L 529.1784 230.823208 
L 531.8568 232.877184 
L 533.8656 234.184653 
L 535.8744 235.251323 
L 537.8832 236.095803 
L 539.892 236.744606 
L 542.5704 237.34459 
L 545.2488 237.682092 
L 547.9272 237.793593 
L 550.6056 237.709433 
L 553.9536 237.367528 
L 557.3016 236.800634 
L 561.3192 235.869953 
L 565.3368 234.709245 
L 570.024 233.112601 
L 575.3808 231.023218 
L 577.3896 230.177602 
L 578.0592 199.835608 
L 578.7288 187.41203 
L 579.3984 181.545037 
L 580.068 178.246178 
L 580.7376 176.264632 
L 581.4072 175.119742 
L 582.0768 174.564477 
L 582.7464 174.447565 
L 583.416 174.656816 
L 584.0856 175.105054 
L 585.4248 176.452392 
L 589.4424 181.129902 
L 590.7816 182.331636 
L 592.1208 183.256477 
L 593.46 183.899647 
L 594.7992 184.270499 
L 596.1384 184.383275 
L 597.4776 184.254716 
L 598.8168 183.9017 
L 600.156 183.340539 
L 601.4952 182.587626 
L 608.1912 178.03387 
L 613.548 174.341323 
L 614.8872 173.60034 
L 616.2264 173.111982 
L 617.5656 172.830605 
L 619.5744 172.666408 
L 622.2528 172.729482 
L 624.2616 172.954163 
L 625.6008 173.359338 
L 626.94 174.174524 
L 628.2792 175.422158 
L 630.288 177.702649 
L 631.6272 179.581381 
L 633.636 182.961176 
L 638.9928 192.459536 
L 644.3496 202.795967 
L 647.028 207.419718 
L 649.7064 211.512542 
L 652.3848 215.222651 
L 655.7328 219.377787 
L 659.7504 224.048955 
L 662.4288 227.04768 
L 664.4376 228.945425 
L 666.4464 230.516934 
L 668.4552 231.812942 
L 671.1336 233.305506 
L 673.1424 234.20391 
L 675.1512 234.902752 
L 677.8296 235.559474 
L 680.508 235.94461 
L 683.1864 236.096716 
L 685.8648 236.047385 
L 689.2128 235.742134 
L 692.5608 235.205394 
L 703.2744 233.027653 
L 707.292 231.861081 
L 711.3096 230.504007 
L 711.9792 200.127843 
L 712.6488 187.713301 
L 713.3184 181.888707 
L 713.988 178.671589 
L 714.6576 176.800718 
L 715.3272 175.782481 
L 715.9968 175.363368 
L 716.6664 175.382755 
L 717.336 175.726793 
L 718.0056 176.307147 
L 719.3448 177.900115 
L 723.3624 183.178001 
L 724.7016 184.559614 
L 726.0408 185.663951 
L 727.38 186.489151 
L 728.7192 187.047888 
L 730.0584 187.35567 
L 731.3976 187.432092 
L 732.7368 187.296424 
L 734.076 186.966947 
L 735.4152 186.460556 
L 737.424 185.401381 
L 739.4328 184.023882 
L 741.4416 182.375 
L 745.4592 178.855771 
L 747.468 177.423251 
L 748.8072 176.662189 
L 750.1464 176.161733 
L 751.4856 175.871074 
L 752.8248 175.755525 
L 754.164 175.911658 
L 755.5032 176.306184 
L 756.8424 176.869819 
L 758.1816 177.664662 
L 760.1904 179.153635 
L 762.1992 180.921616 
L 764.208 183.068367 
L 768.8952 188.633475 
L 770.904 191.179235 
L 777.6 200.005302 
L 777.6 200.005302 
" clip-path="url(#p37344b34e8)" style="fill: none; stroke: #4169e1; stroke-width: 1.5; stroke-linecap: square"/>
   </g>
   <g id="patch_3">
    <path d="M 108 256.32 
L 108 34.56 
" style="fill: none; stroke: #000000; stroke-width: 0.8; stroke-linejoin: miter; stroke-linecap: square"/>
   </g>
   <g id="patch_4">
    <path d="M 777.6 256.32 
L 777.6 34.56 
" style="fill: none; stroke: #000000; stroke-width: 0.8; stroke-linejoin: miter; stroke-linecap: square"/>
   </g>
   <g id="patch_5">
    <path d="M 108 256.32 
L 777.6 256.32 
" style="fill: none; stroke: #000000; stroke-width: 0.8; stroke-linejoin: miter; stroke-linecap: square"/>
   </g>
   <g id="patch_6">
    <path d="M 108 34.56 
L 777.6 34.56 
" style="fill: none; stroke: #000000; stroke-width: 0.8; stroke-linejoin: miter; stroke-linecap: square"/>
   </g>
   <g id="legend_1">
    <g id="patch_7">
     <path d="M 695.098438 71.91625 
L 770.6 71.91625 
Q 772.6 71.91625 772.6 69.91625 
L 772.6 41.56 
Q 772.6 39.56 770.6 39.56 
L 695.098438 39.56 
Q 693.098438 39.56 693.098438 41.56 
L 693.098438 69.91625 
Q 693.098438 71.91625 695.098438 71.91625 
z
" style="fill: #ffffff; opacity: 0.8; stroke: #cccccc; stroke-linejoin: miter"/>
    </g>
    <g id="line2d_25">
     <path d="M 697.098438 47.658437 
L 707.098438 47.658437 
L 717.098438 47.658437 
" style="fill: none; stroke: #000000; stroke-width: 1.5; stroke-linecap: square"/>
    </g>
    <g id="text_14">
     <!-- Soma -->
     <g transform="translate(725.098438 51.158437) scale(0.1 -0.1)">
      <defs>
       <path id="DejaVuSans-53" d="M 3425 4513 
L 3425 3897 
Q 3066 4069 2747 4153 
Q 2428 4238 2131 4238 
Q 1616 4238 1336 4038 
Q 1056 3838 1056 3469 
Q 1056 3159 1242 3001 
Q 1428 2844 1947 2747 
L 2328 2669 
Q 3034 2534 3370 2195 
Q 3706 1856 3706 1288 
Q 3706 609 3251 259 
Q 2797 -91 1919 -91 
Q 1588 -91 1214 -16 
Q 841 59 441 206 
L 441 856 
Q 825 641 1194 531 
Q 1563 422 1919 422 
Q 2459 422 2753 634 
Q 3047 847 3047 1241 
Q 3047 1584 2836 1778 
Q 2625 1972 2144 2069 
L 1759 2144 
Q 1053 2284 737 2584 
Q 422 2884 422 3419 
Q 422 4038 858 4394 
Q 1294 4750 2059 4750 
Q 2388 4750 2728 4690 
Q 3069 4631 3425 4513 
z
" transform="scale(0.015625)"/>
       <path id="DejaVuSans-6f" d="M 1959 3097 
Q 1497 3097 1228 2736 
Q 959 2375 959 1747 
Q 959 1119 1226 758 
Q 1494 397 1959 397 
Q 2419 397 2687 759 
Q 2956 1122 2956 1747 
Q 2956 2369 2687 2733 
Q 2419 3097 1959 3097 
z
M 1959 3584 
Q 2709 3584 3137 3096 
Q 3566 2609 3566 1747 
Q 3566 888 3137 398 
Q 2709 -91 1959 -91 
Q 1206 -91 779 398 
Q 353 888 353 1747 
Q 353 2609 779 3096 
Q 1206 3584 1959 3584 
z
" transform="scale(0.015625)"/>
       <path id="DejaVuSans-61" d="M 2194 1759 
Q 1497 1759 1228 1600 
Q 959 1441 959 1056 
Q 959 750 1161 570 
Q 1363 391 1709 391 
Q 2188 391 2477 730 
Q 2766 1069 2766 1631 
L 2766 1759 
L 2194 1759 
z
M 3341 1997 
L 3341 0 
L 2766 0 
L 2766 531 
Q 2569 213 2275 61 
Q 1981 -91 1556 -91 
Q 1019 -91 701 211 
Q 384 513 384 1019 
Q 384 1609 779 1909 
Q 1175 2209 1959 2209 
L 2766 2209 
L 2766 2266 
Q 2766 2663 2505 2880 
Q 2244 3097 1772 3097 
Q 1472 3097 1187 3025 
Q 903 2953 641 2809 
L 641 3341 
Q 956 3463 1253 3523 
Q 1550 3584 1831 3584 
Q 2591 3584 2966 3190 
Q 3341 2797 3341 1997 
z
" transform="scale(0.015625)"/>
      </defs>
      <use xlink:href="#DejaVuSans-53"/>
      <use xlink:href="#DejaVuSans-6f" x="63.476562"/>
      <use xlink:href="#DejaVuSans-6d" x="124.658203"/>
      <use xlink:href="#DejaVuSans-61" x="222.070312"/>
     </g>
    </g>
    <g id="line2d_26">
     <path d="M 697.098438 62.336562 
L 707.098438 62.336562 
L 717.098438 62.336562 
" style="fill: none; stroke: #4169e1; stroke-width: 1.5; stroke-linecap: square"/>
    </g>
    <g id="text_15">
     <!-- Dendrite -->
     <g transform="translate(725.098438 65.836562) scale(0.1 -0.1)">
      <defs>
       <path id="DejaVuSans-44" d="M 1259 4147 
L 1259 519 
L 2022 519 
Q 2988 519 3436 956 
Q 3884 1394 3884 2338 
Q 3884 3275 3436 3711 
Q 2988 4147 2022 4147 
L 1259 4147 
z
M 628 4666 
L 1925 4666 
Q 3281 4666 3915 4102 
Q 4550 3538 4550 2338 
Q 4550 1131 3912 565 
Q 3275 0 1925 0 
L 628 0 
L 628 4666 
z
" transform="scale(0.015625)"/>
       <path id="DejaVuSans-6e" d="M 3513 2113 
L 3513 0 
L 2938 0 
L 2938 2094 
Q 2938 2591 2744 2837 
Q 2550 3084 2163 3084 
Q 1697 3084 1428 2787 
Q 1159 2491 1159 1978 
L 1159 0 
L 581 0 
L 581 3500 
L 1159 3500 
L 1159 2956 
Q 1366 3272 1645 3428 
Q 1925 3584 2291 3584 
Q 2894 3584 3203 3211 
Q 3513 2838 3513 2113 
z
" transform="scale(0.015625)"/>
       <path id="DejaVuSans-64" d="M 2906 2969 
L 2906 4863 
L 3481 4863 
L 3481 0 
L 2906 0 
L 2906 525 
Q 2725 213 2448 61 
Q 2172 -91 1784 -91 
Q 1150 -91 751 415 
Q 353 922 353 1747 
Q 353 2572 751 3078 
Q 1150 3584 1784 3584 
Q 2172 3584 2448 3432 
Q 2725 3281 2906 2969 
z
M 947 1747 
Q 947 1113 1208 752 
Q 1469 391 1925 391 
Q 2381 391 2643 752 
Q 2906 1113 2906 1747 
Q 2906 2381 2643 2742 
Q 2381 3103 1925 3103 
Q 1469 3103 1208 2742 
Q 947 2381 947 1747 
z
" transform="scale(0.015625)"/>
       <path id="DejaVuSans-72" d="M 2631 2963 
Q 2534 3019 2420 3045 
Q 2306 3072 2169 3072 
Q 1681 3072 1420 2755 
Q 1159 2438 1159 1844 
L 1159 0 
L 581 0 
L 581 3500 
L 1159 3500 
L 1159 2956 
Q 1341 3275 1631 3429 
Q 1922 3584 2338 3584 
Q 2397 3584 2469 3576 
Q 2541 3569 2628 3553 
L 2631 2963 
z
" transform="scale(0.015625)"/>
       <path id="DejaVuSans-74" d="M 1172 4494 
L 1172 3500 
L 2356 3500 
L 2356 3053 
L 1172 3053 
L 1172 1153 
Q 1172 725 1289 603 
Q 1406 481 1766 481 
L 2356 481 
L 2356 0 
L 1766 0 
Q 1100 0 847 248 
Q 594 497 594 1153 
L 594 3053 
L 172 3053 
L 172 3500 
L 594 3500 
L 594 4494 
L 1172 4494 
z
" transform="scale(0.015625)"/>
      </defs>
      <use xlink:href="#DejaVuSans-44"/>
      <use xlink:href="#DejaVuSans-65" x="77.001953"/>
      <use xlink:href="#DejaVuSans-6e" x="138.525391"/>
      <use xlink:href="#DejaVuSans-64" x="201.904297"/>
      <use xlink:href="#DejaVuSans-72" x="265.380859"/>
      <use xlink:href="#DejaVuSans-69" x="306.494141"/>
      <use xlink:href="#DejaVuSans-74" x="334.277344"/>
      <use xlink:href="#DejaVuSans-65" x="373.486328"/>
     </g>
    </g>
   </g>
  </g>
 </g>
 <defs>
  <clipPath id="p37344b34e8">
   <rect x="108" y="34.56" width="669.6" height="221.76"/>
  </clipPath>
 </defs>
</svg>
