<?xml version="1.0" encoding="utf-8" standalone="no"?>
<!DOCTYPE svg PUBLIC "-//W3C//DTD SVG 1.1//EN"
  "http://www.w3.org/Graphics/SVG/1.1/DTD/svg11.dtd">
<svg xmlns:xlink="http://www.w3.org/1999/xlink" width="864pt" height="288pt" viewBox="0 0 864 288" xmlns="http://www.w3.org/2000/svg" version="1.1">
 <metadata>
  <rdf:RDF xmlns:dc="http://purl.org/dc/elements/1.1/" xmlns:cc="http://creativecommons.org/ns#" xmlns:rdf="http://www.w3.org/1999/02/22-rdf-syntax-ns#">
   <cc:Work>
    <dc:type rdf:resource="http://purl.org/dc/dcmitype/StillImage"/>
    <dc:date>2024-04-26T13:24:44.001724</dc:date>
    <dc:format>image/svg+xml</dc:format>
    <dc:creator>
     <cc:Agent>
      <dc:title>Matplotlib v3.8.2, https://matplotlib.org/</dc:title>
     </cc:Agent>
    </dc:creator>
   </cc:Work>
  </rdf:RDF>
 </metadata>
 <defs>
  <style type="text/css">*{stroke-linejoin: round; stroke-linecap: butt}</style>
 </defs>
 <g id="figure_1">
  <g id="patch_1">
   <path d="M 0 288 
L 864 288 
L 864 0 
L 0 0 
z
" style="fill: #ffffff"/>
  </g>
  <g id="axes_1">
   <g id="patch_2">
    <path d="M 108 256.32 
L 777.6 256.32 
L 777.6 34.56 
L 108 34.56 
z
" style="fill: #ffffff"/>
   </g>
   <g id="matplotlib.axis_1">
    <g id="xtick_1">
     <g id="line2d_1">
      <path d="M 108 256.32 
L 108 34.56 
" clip-path="url(#p910931377e)" style="fill: none; stroke: #b0b0b0; stroke-width: 0.8; stroke-linecap: square"/>
     </g>
     <g id="line2d_2">
      <defs>
       <path id="m31c4b0618e" d="M 0 0 
L 0 3.5 
" style="stroke: #000000; stroke-width: 0.8"/>
      </defs>
      <g>
       <use xlink:href="#m31c4b0618e" x="108" y="256.32" style="stroke: #000000; stroke-width: 0.8"/>
      </g>
     </g>
     <g id="text_1">
      <!-- 100 -->
      <g transform="translate(94.63875 273.957812) scale(0.14 -0.14)">
       <defs>
        <path id="DejaVuSans-31" d="M 794 531 
L 1825 531 
L 1825 4091 
L 703 3866 
L 703 4441 
L 1819 4666 
L 2450 4666 
L 2450 531 
L 3481 531 
L 3481 0 
L 794 0 
L 794 531 
z
" transform="scale(0.015625)"/>
        <path id="DejaVuSans-30" d="M 2034 4250 
Q 1547 4250 1301 3770 
Q 1056 3291 1056 2328 
Q 1056 1369 1301 889 
Q 1547 409 2034 409 
Q 2525 409 2770 889 
Q 3016 1369 3016 2328 
Q 3016 3291 2770 3770 
Q 2525 4250 2034 4250 
z
M 2034 4750 
Q 2819 4750 3233 4129 
Q 3647 3509 3647 2328 
Q 3647 1150 3233 529 
Q 2819 -91 2034 -91 
Q 1250 -91 836 529 
Q 422 1150 422 2328 
Q 422 3509 836 4129 
Q 1250 4750 2034 4750 
z
" transform="scale(0.015625)"/>
       </defs>
       <use xlink:href="#DejaVuSans-31"/>
       <use xlink:href="#DejaVuSans-30" x="63.623047"/>
       <use xlink:href="#DejaVuSans-30" x="127.246094"/>
      </g>
     </g>
    </g>
    <g id="xtick_2">
     <g id="line2d_3">
      <path d="M 241.92 256.32 
L 241.92 34.56 
" clip-path="url(#p910931377e)" style="fill: none; stroke: #b0b0b0; stroke-width: 0.8; stroke-linecap: square"/>
     </g>
     <g id="line2d_4">
      <g>
       <use xlink:href="#m31c4b0618e" x="241.92" y="256.32" style="stroke: #000000; stroke-width: 0.8"/>
      </g>
     </g>
     <g id="text_2">
      <!-- 120 -->
      <g transform="translate(228.55875 273.957812) scale(0.14 -0.14)">
       <defs>
        <path id="DejaVuSans-32" d="M 1228 531 
L 3431 531 
L 3431 0 
L 469 0 
L 469 531 
Q 828 903 1448 1529 
Q 2069 2156 2228 2338 
Q 2531 2678 2651 2914 
Q 2772 3150 2772 3378 
Q 2772 3750 2511 3984 
Q 2250 4219 1831 4219 
Q 1534 4219 1204 4116 
Q 875 4013 500 3803 
L 500 4441 
Q 881 4594 1212 4672 
Q 1544 4750 1819 4750 
Q 2544 4750 2975 4387 
Q 3406 4025 3406 3419 
Q 3406 3131 3298 2873 
Q 3191 2616 2906 2266 
Q 2828 2175 2409 1742 
Q 1991 1309 1228 531 
z
" transform="scale(0.015625)"/>
       </defs>
       <use xlink:href="#DejaVuSans-31"/>
       <use xlink:href="#DejaVuSans-32" x="63.623047"/>
       <use xlink:href="#DejaVuSans-30" x="127.246094"/>
      </g>
     </g>
    </g>
    <g id="xtick_3">
     <g id="line2d_5">
      <path d="M 375.84 256.32 
L 375.84 34.56 
" clip-path="url(#p910931377e)" style="fill: none; stroke: #b0b0b0; stroke-width: 0.8; stroke-linecap: square"/>
     </g>
     <g id="line2d_6">
      <g>
       <use xlink:href="#m31c4b0618e" x="375.84" y="256.32" style="stroke: #000000; stroke-width: 0.8"/>
      </g>
     </g>
     <g id="text_3">
      <!-- 140 -->
      <g transform="translate(362.47875 273.957812) scale(0.14 -0.14)">
       <defs>
        <path id="DejaVuSans-34" d="M 2419 4116 
L 825 1625 
L 2419 1625 
L 2419 4116 
z
M 2253 4666 
L 3047 4666 
L 3047 1625 
L 3713 1625 
L 3713 1100 
L 3047 1100 
L 3047 0 
L 2419 0 
L 2419 1100 
L 313 1100 
L 313 1709 
L 2253 4666 
z
" transform="scale(0.015625)"/>
       </defs>
       <use xlink:href="#DejaVuSans-31"/>
       <use xlink:href="#DejaVuSans-34" x="63.623047"/>
       <use xlink:href="#DejaVuSans-30" x="127.246094"/>
      </g>
     </g>
    </g>
    <g id="xtick_4">
     <g id="line2d_7">
      <path d="M 509.76 256.32 
L 509.76 34.56 
" clip-path="url(#p910931377e)" style="fill: none; stroke: #b0b0b0; stroke-width: 0.8; stroke-linecap: square"/>
     </g>
     <g id="line2d_8">
      <g>
       <use xlink:href="#m31c4b0618e" x="509.76" y="256.32" style="stroke: #000000; stroke-width: 0.8"/>
      </g>
     </g>
     <g id="text_4">
      <!-- 160 -->
      <g transform="translate(496.39875 273.957812) scale(0.14 -0.14)">
       <defs>
        <path id="DejaVuSans-36" d="M 2113 2584 
Q 1688 2584 1439 2293 
Q 1191 2003 1191 1497 
Q 1191 994 1439 701 
Q 1688 409 2113 409 
Q 2538 409 2786 701 
Q 3034 994 3034 1497 
Q 3034 2003 2786 2293 
Q 2538 2584 2113 2584 
z
M 3366 4563 
L 3366 3988 
Q 3128 4100 2886 4159 
Q 2644 4219 2406 4219 
Q 1781 4219 1451 3797 
Q 1122 3375 1075 2522 
Q 1259 2794 1537 2939 
Q 1816 3084 2150 3084 
Q 2853 3084 3261 2657 
Q 3669 2231 3669 1497 
Q 3669 778 3244 343 
Q 2819 -91 2113 -91 
Q 1303 -91 875 529 
Q 447 1150 447 2328 
Q 447 3434 972 4092 
Q 1497 4750 2381 4750 
Q 2619 4750 2861 4703 
Q 3103 4656 3366 4563 
z
" transform="scale(0.015625)"/>
       </defs>
       <use xlink:href="#DejaVuSans-31"/>
       <use xlink:href="#DejaVuSans-36" x="63.623047"/>
       <use xlink:href="#DejaVuSans-30" x="127.246094"/>
      </g>
     </g>
    </g>
    <g id="xtick_5">
     <g id="line2d_9">
      <path d="M 643.68 256.32 
L 643.68 34.56 
" clip-path="url(#p910931377e)" style="fill: none; stroke: #b0b0b0; stroke-width: 0.8; stroke-linecap: square"/>
     </g>
     <g id="line2d_10">
      <g>
       <use xlink:href="#m31c4b0618e" x="643.68" y="256.32" style="stroke: #000000; stroke-width: 0.8"/>
      </g>
     </g>
     <g id="text_5">
      <!-- 180 -->
      <g transform="translate(630.31875 273.957812) scale(0.14 -0.14)">
       <defs>
        <path id="DejaVuSans-38" d="M 2034 2216 
Q 1584 2216 1326 1975 
Q 1069 1734 1069 1313 
Q 1069 891 1326 650 
Q 1584 409 2034 409 
Q 2484 409 2743 651 
Q 3003 894 3003 1313 
Q 3003 1734 2745 1975 
Q 2488 2216 2034 2216 
z
M 1403 2484 
Q 997 2584 770 2862 
Q 544 3141 544 3541 
Q 544 4100 942 4425 
Q 1341 4750 2034 4750 
Q 2731 4750 3128 4425 
Q 3525 4100 3525 3541 
Q 3525 3141 3298 2862 
Q 3072 2584 2669 2484 
Q 3125 2378 3379 2068 
Q 3634 1759 3634 1313 
Q 3634 634 3220 271 
Q 2806 -91 2034 -91 
Q 1263 -91 848 271 
Q 434 634 434 1313 
Q 434 1759 690 2068 
Q 947 2378 1403 2484 
z
M 1172 3481 
Q 1172 3119 1398 2916 
Q 1625 2713 2034 2713 
Q 2441 2713 2670 2916 
Q 2900 3119 2900 3481 
Q 2900 3844 2670 4047 
Q 2441 4250 2034 4250 
Q 1625 4250 1398 4047 
Q 1172 3844 1172 3481 
z
" transform="scale(0.015625)"/>
       </defs>
       <use xlink:href="#DejaVuSans-31"/>
       <use xlink:href="#DejaVuSans-38" x="63.623047"/>
       <use xlink:href="#DejaVuSans-30" x="127.246094"/>
      </g>
     </g>
    </g>
    <g id="xtick_6">
     <g id="line2d_11">
      <path d="M 777.6 256.32 
L 777.6 34.56 
" clip-path="url(#p910931377e)" style="fill: none; stroke: #b0b0b0; stroke-width: 0.8; stroke-linecap: square"/>
     </g>
     <g id="line2d_12">
      <g>
       <use xlink:href="#m31c4b0618e" x="777.6" y="256.32" style="stroke: #000000; stroke-width: 0.8"/>
      </g>
     </g>
     <g id="text_6">
      <!-- 200 -->
      <g transform="translate(764.23875 273.957812) scale(0.14 -0.14)">
       <use xlink:href="#DejaVuSans-32"/>
       <use xlink:href="#DejaVuSans-30" x="63.623047"/>
       <use xlink:href="#DejaVuSans-30" x="127.246094"/>
      </g>
     </g>
    </g>
    <g id="text_7">
     <!-- Time (ms) -->
     <g transform="translate(407.521094 291.507187) scale(0.14 -0.14)">
      <defs>
       <path id="DejaVuSans-54" d="M -19 4666 
L 3928 4666 
L 3928 4134 
L 2272 4134 
L 2272 0 
L 1638 0 
L 1638 4134 
L -19 4134 
L -19 4666 
z
" transform="scale(0.015625)"/>
       <path id="DejaVuSans-69" d="M 603 3500 
L 1178 3500 
L 1178 0 
L 603 0 
L 603 3500 
z
M 603 4863 
L 1178 4863 
L 1178 4134 
L 603 4134 
L 603 4863 
z
" transform="scale(0.015625)"/>
       <path id="DejaVuSans-6d" d="M 3328 2828 
Q 3544 3216 3844 3400 
Q 4144 3584 4550 3584 
Q 5097 3584 5394 3201 
Q 5691 2819 5691 2113 
L 5691 0 
L 5113 0 
L 5113 2094 
Q 5113 2597 4934 2840 
Q 4756 3084 4391 3084 
Q 3944 3084 3684 2787 
Q 3425 2491 3425 1978 
L 3425 0 
L 2847 0 
L 2847 2094 
Q 2847 2600 2669 2842 
Q 2491 3084 2119 3084 
Q 1678 3084 1418 2786 
Q 1159 2488 1159 1978 
L 1159 0 
L 581 0 
L 581 3500 
L 1159 3500 
L 1159 2956 
Q 1356 3278 1631 3431 
Q 1906 3584 2284 3584 
Q 2666 3584 2933 3390 
Q 3200 3197 3328 2828 
z
" transform="scale(0.015625)"/>
       <path id="DejaVuSans-65" d="M 3597 1894 
L 3597 1613 
L 953 1613 
Q 991 1019 1311 708 
Q 1631 397 2203 397 
Q 2534 397 2845 478 
Q 3156 559 3463 722 
L 3463 178 
Q 3153 47 2828 -22 
Q 2503 -91 2169 -91 
Q 1331 -91 842 396 
Q 353 884 353 1716 
Q 353 2575 817 3079 
Q 1281 3584 2069 3584 
Q 2775 3584 3186 3129 
Q 3597 2675 3597 1894 
z
M 3022 2063 
Q 3016 2534 2758 2815 
Q 2500 3097 2075 3097 
Q 1594 3097 1305 2825 
Q 1016 2553 972 2059 
L 3022 2063 
z
" transform="scale(0.015625)"/>
       <path id="DejaVuSans-20" transform="scale(0.015625)"/>
       <path id="DejaVuSans-28" d="M 1984 4856 
Q 1566 4138 1362 3434 
Q 1159 2731 1159 2009 
Q 1159 1288 1364 580 
Q 1569 -128 1984 -844 
L 1484 -844 
Q 1016 -109 783 600 
Q 550 1309 550 2009 
Q 550 2706 781 3412 
Q 1013 4119 1484 4856 
L 1984 4856 
z
" transform="scale(0.015625)"/>
       <path id="DejaVuSans-73" d="M 2834 3397 
L 2834 2853 
Q 2591 2978 2328 3040 
Q 2066 3103 1784 3103 
Q 1356 3103 1142 2972 
Q 928 2841 928 2578 
Q 928 2378 1081 2264 
Q 1234 2150 1697 2047 
L 1894 2003 
Q 2506 1872 2764 1633 
Q 3022 1394 3022 966 
Q 3022 478 2636 193 
Q 2250 -91 1575 -91 
Q 1294 -91 989 -36 
Q 684 19 347 128 
L 347 722 
Q 666 556 975 473 
Q 1284 391 1588 391 
Q 1994 391 2212 530 
Q 2431 669 2431 922 
Q 2431 1156 2273 1281 
Q 2116 1406 1581 1522 
L 1381 1569 
Q 847 1681 609 1914 
Q 372 2147 372 2553 
Q 372 3047 722 3315 
Q 1072 3584 1716 3584 
Q 2034 3584 2315 3537 
Q 2597 3491 2834 3397 
z
" transform="scale(0.015625)"/>
       <path id="DejaVuSans-29" d="M 513 4856 
L 1013 4856 
Q 1481 4119 1714 3412 
Q 1947 2706 1947 2009 
Q 1947 1309 1714 600 
Q 1481 -109 1013 -844 
L 513 -844 
Q 928 -128 1133 580 
Q 1338 1288 1338 2009 
Q 1338 2731 1133 3434 
Q 928 4138 513 4856 
z
" transform="scale(0.015625)"/>
      </defs>
      <use xlink:href="#DejaVuSans-54"/>
      <use xlink:href="#DejaVuSans-69" x="57.958984"/>
      <use xlink:href="#DejaVuSans-6d" x="85.742188"/>
      <use xlink:href="#DejaVuSans-65" x="183.154297"/>
      <use xlink:href="#DejaVuSans-20" x="244.677734"/>
      <use xlink:href="#DejaVuSans-28" x="276.464844"/>
      <use xlink:href="#DejaVuSans-6d" x="315.478516"/>
      <use xlink:href="#DejaVuSans-73" x="412.890625"/>
      <use xlink:href="#DejaVuSans-29" x="464.990234"/>
     </g>
    </g>
   </g>
   <g id="matplotlib.axis_2">
    <g id="ytick_1">
     <g id="line2d_13">
      <path d="M 108 224.199266 
L 777.6 224.199266 
" clip-path="url(#p910931377e)" style="fill: none; stroke: #b0b0b0; stroke-width: 0.8; stroke-linecap: square"/>
     </g>
     <g id="line2d_14">
      <defs>
       <path id="m245d93a861" d="M 0 0 
L -3.5 0 
" style="stroke: #000000; stroke-width: 0.8"/>
      </defs>
      <g>
       <use xlink:href="#m245d93a861" x="108" y="224.199266" style="stroke: #000000; stroke-width: 0.8"/>
      </g>
     </g>
     <g id="text_8">
      <!-- −60 -->
      <g transform="translate(71.453437 229.518173) scale(0.14 -0.14)">
       <defs>
        <path id="DejaVuSans-2212" d="M 678 2272 
L 4684 2272 
L 4684 1741 
L 678 1741 
L 678 2272 
z
" transform="scale(0.015625)"/>
       </defs>
       <use xlink:href="#DejaVuSans-2212"/>
       <use xlink:href="#DejaVuSans-36" x="83.789062"/>
       <use xlink:href="#DejaVuSans-30" x="147.412109"/>
      </g>
     </g>
    </g>
    <g id="ytick_2">
     <g id="line2d_15">
      <path d="M 108 180.188039 
L 777.6 180.188039 
" clip-path="url(#p910931377e)" style="fill: none; stroke: #b0b0b0; stroke-width: 0.8; stroke-linecap: square"/>
     </g>
     <g id="line2d_16">
      <g>
       <use xlink:href="#m245d93a861" x="108" y="180.188039" style="stroke: #000000; stroke-width: 0.8"/>
      </g>
     </g>
     <g id="text_9">
      <!-- −40 -->
      <g transform="translate(71.453437 185.506945) scale(0.14 -0.14)">
       <use xlink:href="#DejaVuSans-2212"/>
       <use xlink:href="#DejaVuSans-34" x="83.789062"/>
       <use xlink:href="#DejaVuSans-30" x="147.412109"/>
      </g>
     </g>
    </g>
    <g id="ytick_3">
     <g id="line2d_17">
      <path d="M 108 136.176811 
L 777.6 136.176811 
" clip-path="url(#p910931377e)" style="fill: none; stroke: #b0b0b0; stroke-width: 0.8; stroke-linecap: square"/>
     </g>
     <g id="line2d_18">
      <g>
       <use xlink:href="#m245d93a861" x="108" y="136.176811" style="stroke: #000000; stroke-width: 0.8"/>
      </g>
     </g>
     <g id="text_10">
      <!-- −20 -->
      <g transform="translate(71.453437 141.495717) scale(0.14 -0.14)">
       <use xlink:href="#DejaVuSans-2212"/>
       <use xlink:href="#DejaVuSans-32" x="83.789062"/>
       <use xlink:href="#DejaVuSans-30" x="147.412109"/>
      </g>
     </g>
    </g>
    <g id="ytick_4">
     <g id="line2d_19">
      <path d="M 108 92.165584 
L 777.6 92.165584 
" clip-path="url(#p910931377e)" style="fill: none; stroke: #b0b0b0; stroke-width: 0.8; stroke-linecap: square"/>
     </g>
     <g id="line2d_20">
      <g>
       <use xlink:href="#m245d93a861" x="108" y="92.165584" style="stroke: #000000; stroke-width: 0.8"/>
      </g>
     </g>
     <g id="text_11">
      <!-- 0 -->
      <g transform="translate(92.0925 97.48449) scale(0.14 -0.14)">
       <use xlink:href="#DejaVuSans-30"/>
      </g>
     </g>
    </g>
    <g id="ytick_5">
     <g id="line2d_21">
      <path d="M 108 48.154356 
L 777.6 48.154356 
" clip-path="url(#p910931377e)" style="fill: none; stroke: #b0b0b0; stroke-width: 0.8; stroke-linecap: square"/>
     </g>
     <g id="line2d_22">
      <g>
       <use xlink:href="#m245d93a861" x="108" y="48.154356" style="stroke: #000000; stroke-width: 0.8"/>
      </g>
     </g>
     <g id="text_12">
      <!-- 20 -->
      <g transform="translate(83.185 53.473262) scale(0.14 -0.14)">
       <use xlink:href="#DejaVuSans-32"/>
       <use xlink:href="#DejaVuSans-30" x="63.623047"/>
      </g>
     </g>
    </g>
    <g id="text_13">
     <!-- $V_{m}$ (mV) -->
     <g transform="translate(64.541875 174.49) rotate(-90) scale(0.14 -0.14)">
      <defs>
       <path id="DejaVuSans-Oblique-56" d="M 1319 0 
L 500 4666 
L 1119 4666 
L 1797 653 
L 4063 4666 
L 4750 4666 
L 2053 0 
L 1319 0 
z
" transform="scale(0.015625)"/>
       <path id="DejaVuSans-Oblique-6d" d="M 5747 2113 
L 5338 0 
L 4763 0 
L 5166 2094 
Q 5191 2228 5203 2325 
Q 5216 2422 5216 2491 
Q 5216 2772 5059 2928 
Q 4903 3084 4622 3084 
Q 4203 3084 3875 2770 
Q 3547 2456 3450 1953 
L 3066 0 
L 2491 0 
L 2900 2094 
Q 2925 2209 2937 2307 
Q 2950 2406 2950 2484 
Q 2950 2769 2794 2926 
Q 2638 3084 2363 3084 
Q 1938 3084 1609 2770 
Q 1281 2456 1184 1953 
L 800 0 
L 225 0 
L 909 3500 
L 1484 3500 
L 1375 2956 
Q 1609 3263 1923 3423 
Q 2238 3584 2597 3584 
Q 2978 3584 3223 3384 
Q 3469 3184 3519 2828 
Q 3781 3197 4126 3390 
Q 4472 3584 4856 3584 
Q 5306 3584 5551 3325 
Q 5797 3066 5797 2591 
Q 5797 2488 5784 2364 
Q 5772 2241 5747 2113 
z
" transform="scale(0.015625)"/>
       <path id="DejaVuSans-56" d="M 1831 0 
L 50 4666 
L 709 4666 
L 2188 738 
L 3669 4666 
L 4325 4666 
L 2547 0 
L 1831 0 
z
" transform="scale(0.015625)"/>
      </defs>
      <use xlink:href="#DejaVuSans-Oblique-56" transform="translate(0 0.125)"/>
      <use xlink:href="#DejaVuSans-Oblique-6d" transform="translate(68.408203 -16.28125) scale(0.7)"/>
      <use xlink:href="#DejaVuSans-20" transform="translate(139.331055 0.125)"/>
      <use xlink:href="#DejaVuSans-28" transform="translate(171.118164 0.125)"/>
      <use xlink:href="#DejaVuSans-6d" transform="translate(210.131836 0.125)"/>
      <use xlink:href="#DejaVuSans-56" transform="translate(307.543945 0.125)"/>
      <use xlink:href="#DejaVuSans-29" transform="translate(375.952148 0.125)"/>
     </g>
    </g>
   </g>
   <g id="line2d_23">
    <path d="M 108 219.435563 
L 109.3392 220.100764 
L 110.6784 220.530177 
L 111.348 220.687984 
L 112.6872 221.643454 
L 114.0264 222.10099 
L 116.0352 223.694956 
L 118.044 226.207891 
L 118.7136 227.342255 
L 119.3832 228.221214 
L 120.0528 228.782404 
L 120.7224 229.840288 
L 122.7312 232.183676 
L 124.0704 232.992578 
L 125.4096 233.520071 
L 127.4184 234.032855 
L 129.4272 234.319687 
L 132.1056 234.444726 
L 134.1144 234.384057 
L 136.1232 235.1917 
L 136.7928 236.021141 
L 137.4624 236.603144 
L 138.132 236.915858 
L 138.8016 237.105817 
L 140.1408 237.803069 
L 141.48 238.076821 
L 143.4888 238.181731 
L 144.828 238.631559 
L 146.1672 238.737331 
L 148.176 238.653677 
L 149.5152 239.000214 
L 150.8544 239.018172 
L 153.5328 238.721298 
L 156.8808 238.061002 
L 160.2288 237.18104 
L 164.2464 235.896722 
L 168.9336 234.139038 
L 173.6208 232.148251 
L 178.9776 229.634401 
L 185.004 226.554416 
L 191.7 222.882962 
L 198.396 219.016979 
L 199.7352 219.042838 
L 201.0744 218.651342 
L 203.7528 217.506142 
L 205.7616 216.545062 
L 207.1008 216.725641 
L 208.44 216.461204 
L 209.7792 216.867509 
L 211.1184 216.773862 
L 213.1272 216.306855 
L 215.8056 215.456525 
L 217.1448 214.845126 
L 221.1624 212.509198 
L 225.8496 209.886914 
L 227.1888 210.111173 
L 227.8584 211.017347 
L 228.528 211.71983 
L 229.1976 212.053069 
L 230.5368 212.278514 
L 231.876 212.251155 
L 232.5456 212.185647 
L 234.5544 213.454854 
L 235.8936 215.388951 
L 236.5632 216.53521 
L 239.2416 219.780712 
L 239.9112 220.836309 
L 240.5808 222.362472 
L 241.2504 223.482314 
L 241.92 224.199664 
L 243.2592 225.137126 
L 244.5984 225.758757 
L 245.9376 226.840448 
L 246.6072 227.172792 
L 247.2768 227.767557 
L 247.9464 228.583365 
L 249.9552 230.443193 
L 251.2944 231.670249 
L 252.6336 232.313657 
L 253.9728 232.716337 
L 255.312 234.071998 
L 255.9816 234.726029 
L 256.6512 235.211403 
L 257.9904 235.764506 
L 259.9992 236.201425 
L 260.6688 236.28846 
L 262.008 236.904222 
L 263.3472 237.153147 
L 264.6864 237.2481 
L 267.3648 238.400284 
L 268.704 238.615832 
L 270.7128 238.653544 
L 272.052 239.063348 
L 273.3912 239.137987 
L 275.4 239.0167 
L 278.0784 238.643065 
L 281.4264 237.943101 
L 282.096 237.777489 
L 283.4352 237.936116 
L 284.7744 237.782454 
L 287.4528 237.179205 
L 290.8008 236.191682 
L 291.4704 235.97192 
L 292.8096 236.059036 
L 294.1488 235.826092 
L 296.8272 235.063779 
L 300.8448 233.637815 
L 305.532 231.708585 
L 310.8888 229.23952 
L 316.9152 226.194501 
L 323.6112 222.551859 
L 331.6464 217.923288 
L 343.6992 210.698168 
L 345.0384 209.880505 
L 346.3776 210.021492 
L 347.7168 209.707192 
L 349.7256 208.93508 
L 351.0648 208.218506 
L 353.7432 206.360323 
L 354.4128 205.865779 
L 355.752 206.914685 
L 356.4216 207.086547 
L 358.4304 208.72407 
L 359.1 209.742235 
L 359.7696 210.457938 
L 360.4392 210.88426 
L 361.7784 211.342904 
L 363.1176 213.271871 
L 363.7872 214.23146 
L 364.4568 214.942012 
L 366.4656 216.396923 
L 367.1352 216.942409 
L 367.8048 217.292825 
L 369.144 218.500877 
L 370.4832 219.093774 
L 371.8224 219.426345 
L 372.492 219.537788 
L 373.8312 221.159551 
L 374.5008 222.733431 
L 375.1704 223.943242 
L 375.84 224.670941 
L 377.1792 225.567524 
L 378.5184 226.136582 
L 379.188 226.349972 
L 379.8576 226.878934 
L 381.8664 229.187685 
L 382.536 229.603654 
L 383.8752 230.737404 
L 384.5448 231.078424 
L 386.5536 232.714804 
L 387.2232 233.187351 
L 388.5624 233.734807 
L 391.2408 234.563584 
L 391.9104 235.159796 
L 392.58 235.574902 
L 393.9192 235.994243 
L 395.928 236.265141 
L 399.276 236.566761 
L 402.624 237.453441 
L 403.2936 237.49209 
L 405.972 238.576789 
L 407.3112 238.748225 
L 407.9808 238.763558 
L 409.32 239.200701 
L 410.6592 239.288183 
L 412.668 239.173723 
L 415.3464 238.798687 
L 418.6944 238.090448 
L 422.712 236.973881 
L 426.7296 235.622722 
L 428.0688 235.680159 
L 429.408 235.418519 
L 432.0864 234.603476 
L 436.104 233.109938 
L 440.7912 231.115114 
L 446.148 228.584316 
L 452.1744 225.483431 
L 458.8704 221.793494 
L 467.5752 216.730947 
L 472.932 213.527446 
L 474.2712 213.622264 
L 475.6104 213.26948 
L 476.9496 212.749577 
L 478.2888 213.068976 
L 479.628 212.902436 
L 481.6368 212.332769 
L 483.6456 211.61981 
L 486.324 212.454752 
L 487.6632 212.354117 
L 489.0024 212.023886 
L 490.3416 213.382544 
L 491.0112 213.661311 
L 491.6808 214.248787 
L 492.3504 215.137225 
L 493.02 215.749481 
L 493.6896 216.105066 
L 494.3592 216.766806 
L 495.0288 217.706428 
L 495.6984 218.371567 
L 497.7072 219.69255 
L 498.3768 220.190593 
L 499.716 220.726943 
L 501.0552 221.014298 
L 502.3944 221.895938 
L 503.7336 222.281069 
L 504.4032 222.386637 
L 505.7424 223.212847 
L 507.0816 223.555332 
L 507.7512 223.64266 
L 508.4208 224.07614 
L 510.4296 227.3886 
L 511.0992 228.130298 
L 512.4384 228.964294 
L 513.7776 229.453591 
L 515.1168 230.364404 
L 515.7864 231.262548 
L 516.456 231.961699 
L 517.1256 232.38813 
L 519.804 235.901565 
L 521.1432 236.67892 
L 522.4824 237.157562 
L 523.152 237.333571 
L 523.8216 237.745979 
L 524.4912 238.340745 
L 526.5 239.670597 
L 527.8392 240.546318 
L 529.1784 240.958508 
L 529.848 241.085992 
L 531.1872 241.686295 
L 532.5264 241.937166 
L 534.5352 242.055793 
L 537.2136 241.961359 
L 539.892 241.662744 
L 543.24 241.064845 
L 547.2576 240.078711 
L 551.2752 238.849363 
L 555.9624 237.15746 
L 560.6496 235.229989 
L 566.0064 232.782519 
L 572.0328 229.766296 
L 578.7288 226.147015 
L 586.0944 221.912699 
L 596.1384 215.861052 
L 602.1648 212.153543 
L 603.504 212.24992 
L 604.8432 211.895438 
L 607.5216 210.781107 
L 611.5392 208.823401 
L 613.548 207.780282 
L 614.8872 208.056633 
L 616.2264 207.875454 
L 617.5656 207.493705 
L 618.9048 206.89799 
L 620.9136 205.679459 
L 622.9224 204.259487 
L 624.2616 204.340293 
L 624.9312 204.230625 
L 625.6008 204.587017 
L 626.2704 205.414968 
L 626.94 206.04171 
L 627.6096 206.4129 
L 628.9488 206.757841 
L 629.6184 206.8189 
L 630.288 207.344721 
L 630.9576 208.778155 
L 631.6272 209.890921 
L 632.2968 210.554561 
L 634.3056 212.001437 
L 634.9752 212.564019 
L 635.6448 212.918801 
L 636.984 214.18141 
L 637.6536 214.535959 
L 638.9928 217.763776 
L 639.6624 218.849766 
L 640.332 219.556197 
L 641.6712 221.199456 
L 642.3408 221.713055 
L 643.0104 222.490863 
L 643.68 223.494957 
L 644.3496 224.238638 
L 645.0192 224.750553 
L 646.3584 226.110462 
L 648.3672 227.496185 
L 649.0368 228.341853 
L 649.7064 228.963912 
L 653.0544 231.084901 
L 653.724 231.644444 
L 654.3936 232.400699 
L 658.4112 235.714144 
L 659.7504 237.325645 
L 660.42 237.904045 
L 661.7592 238.579572 
L 663.0984 238.993743 
L 665.1072 239.365117 
L 667.116 239.535282 
L 667.7856 239.556776 
L 669.1248 240.019093 
L 670.464 240.155841 
L 672.4728 240.132047 
L 675.1512 239.883971 
L 678.4992 239.328161 
L 681.8472 238.555482 
L 685.8648 237.391807 
L 689.8824 236.009931 
L 693.9 234.441426 
L 695.2392 234.455558 
L 696.5784 234.145971 
L 699.2568 233.235448 
L 703.2744 231.611951 
L 707.9616 229.486231 
L 713.988 226.483546 
L 720.684 222.874358 
L 728.7192 218.272597 
L 740.1024 211.473772 
L 742.7808 209.845157 
L 744.12 209.987173 
L 745.4592 209.673824 
L 747.468 208.902938 
L 748.8072 209.282824 
L 750.1464 209.171765 
L 751.4856 208.855245 
L 752.1552 208.621183 
L 753.4944 208.946624 
L 754.8336 208.695696 
L 756.1728 208.223779 
L 757.512 208.642096 
L 758.8512 208.58437 
L 760.1904 208.338944 
L 761.5296 208.973385 
L 762.1992 209.079677 
L 763.5384 209.997359 
L 764.8776 210.30514 
L 765.5472 210.348087 
L 766.8864 211.225536 
L 768.2256 211.533501 
L 768.8952 211.583482 
L 770.2344 213.318552 
L 770.904 213.754907 
L 771.5736 214.027184 
L 774.252 216.475393 
L 775.5912 217.077693 
L 776.9304 217.393332 
L 777.6 217.917092 
L 777.6 217.917092 
" clip-path="url(#p910931377e)" style="fill: none; stroke: #000000; stroke-width: 1.5; stroke-linecap: square"/>
   </g>
   <g id="line2d_24">
    <path d="M 108 171.48614 
L 118.7136 192.995495 
L 124.74 205.898022 
L 126.7488 209.467601 
L 128.7576 212.496079 
L 130.7664 215.047362 
L 132.7752 217.184396 
L 134.784 218.973175 
L 138.132 221.85328 
L 141.48 224.772552 
L 143.4888 226.253924 
L 146.1672 227.953236 
L 148.176 229.02062 
L 151.524 230.517168 
L 153.5328 231.215944 
L 156.2112 231.872188 
L 158.8896 232.249716 
L 161.568 232.386991 
L 164.2464 232.315629 
L 167.5944 231.972725 
L 170.9424 231.387463 
L 174.2904 230.595133 
L 178.308 229.411865 
L 182.9952 227.762513 
L 187.6824 225.873868 
L 193.0392 223.477703 
L 201.744 219.493065 
L 208.44 217.100147 
L 210.4488 216.687934 
L 215.8056 215.797785 
L 216.4752 187.235113 
L 217.1448 175.393209 
L 217.8144 169.195663 
L 218.484 165.135567 
L 219.1536 162.302819 
L 219.8232 160.340382 
L 220.4928 159.034137 
L 221.1624 158.235345 
L 221.832 157.826767 
L 222.5016 157.716402 
L 223.1712 157.827904 
L 224.5104 158.470089 
L 226.5192 159.844323 
L 227.8584 160.887656 
L 229.8672 162.835733 
L 231.876 164.781371 
L 235.8936 168.367488 
L 237.2328 170.088009 
L 238.572 172.172681 
L 239.9112 174.565318 
L 241.2504 177.379863 
L 249.9552 197.258348 
L 252.6336 202.800195 
L 254.6424 206.45287 
L 257.9904 212.05947 
L 259.9992 214.970784 
L 262.008 217.482785 
L 264.0168 219.715732 
L 266.6952 222.274871 
L 269.3736 224.596442 
L 271.3824 226.059907 
L 274.0608 227.76291 
L 276.0696 228.799589 
L 278.0784 229.616655 
L 280.0872 230.235629 
L 282.7656 230.80181 
L 286.7832 231.449764 
L 289.4616 231.622856 
L 294.1488 231.574146 
L 297.4968 231.424817 
L 300.8448 231.01679 
L 304.1928 230.379915 
L 308.2104 229.360218 
L 312.228 228.103772 
L 316.9152 226.386657 
L 322.272 224.150769 
L 328.2984 221.357804 
L 334.9944 217.995852 
L 343.6992 213.358027 
L 346.3776 211.964708 
L 349.7256 210.655854 
L 350.3952 183.098787 
L 351.0648 171.477411 
L 351.7344 164.978903 
L 352.404 160.504778 
L 353.0736 157.266382 
L 353.7432 154.917157 
L 354.4128 153.239111 
L 355.0824 152.115789 
L 355.752 151.468797 
L 356.4216 151.213169 
L 357.0912 151.282402 
L 357.7608 151.612036 
L 358.4304 152.152725 
L 359.7696 153.741069 
L 362.448 157.687645 
L 364.4568 160.922929 
L 369.8136 170.189282 
L 375.1704 180.012601 
L 382.536 196.211475 
L 385.2144 201.605145 
L 387.8928 206.515903 
L 389.9016 209.784267 
L 392.58 213.558621 
L 394.5888 216.152389 
L 396.5976 218.397916 
L 398.6064 220.283722 
L 401.9544 222.977559 
L 405.3024 225.370046 
L 407.9808 227.146392 
L 411.3288 229.047513 
L 413.3376 229.954196 
L 415.3464 230.658999 
L 418.0248 231.318581 
L 420.7032 231.699731 
L 423.3816 231.840032 
L 426.06 231.770519 
L 434.0952 231.139254 
L 437.4432 230.54136 
L 441.4608 229.560178 
L 445.4784 228.336317 
L 450.1656 226.65139 
L 454.8528 224.735765 
L 460.2096 222.316556 
L 466.9056 219.02523 
L 475.6104 214.689506 
L 478.2888 213.744393 
L 483.6456 212.418106 
L 484.3152 184.557395 
L 484.9848 172.933078 
L 485.6544 166.652126 
L 486.324 162.486032 
L 486.9936 159.608474 
L 487.6632 157.663311 
L 488.3328 156.424941 
L 489.0024 155.731428 
L 489.672 155.491434 
L 490.3416 155.635987 
L 491.0112 156.086609 
L 491.6808 156.780342 
L 493.02 158.736499 
L 495.0288 162.447136 
L 503.064 178.645949 
L 506.412 184.649627 
L 511.0992 192.838312 
L 513.7776 197.930011 
L 521.8128 211.973658 
L 523.8216 215.05762 
L 527.1696 219.726755 
L 529.848 223.100818 
L 532.5264 225.984485 
L 534.5352 227.808229 
L 536.544 229.3221 
L 538.5528 230.556669 
L 540.5616 231.544521 
L 542.5704 232.314015 
L 544.5792 232.889525 
L 547.2576 233.391294 
L 549.936 233.628535 
L 552.6144 233.63748 
L 555.2928 233.448696 
L 558.6408 232.973559 
L 561.9888 232.271218 
L 566.0064 231.175758 
L 570.024 229.84859 
L 574.7112 228.056782 
L 580.068 225.745139 
L 586.0944 222.87547 
L 592.7904 219.432224 
L 601.4952 214.687318 
L 603.504 213.636559 
L 606.852 212.273116 
L 612.8784 209.797594 
L 614.8872 208.996945 
L 617.5656 208.235091 
L 618.2352 181.248923 
L 618.9048 169.792919 
L 619.5744 163.238302 
L 620.244 158.701873 
L 620.9136 155.42902 
L 621.5832 153.06875 
L 622.2528 151.396228 
L 622.9224 150.25107 
L 623.592 149.533636 
L 624.2616 149.166343 
L 624.9312 149.079746 
L 625.6008 149.224122 
L 626.2704 149.575018 
L 627.6096 150.748385 
L 631.6272 155.206271 
L 636.3144 161.329693 
L 638.3232 164.181213 
L 639.6624 166.565579 
L 641.6712 170.868884 
L 644.3496 177.352156 
L 651.7152 196.045381 
L 653.724 200.4747 
L 656.4024 205.908753 
L 659.0808 210.846862 
L 661.7592 215.525752 
L 663.768 218.584552 
L 665.7768 221.169559 
L 667.7856 223.331126 
L 670.464 225.780656 
L 672.4728 227.320497 
L 674.4816 228.580919 
L 676.4904 229.58791 
L 678.4992 230.370953 
L 680.508 230.956015 
L 683.1864 231.466233 
L 685.8648 231.708501 
L 688.5432 231.720003 
L 691.2216 231.531887 
L 695.2392 230.977104 
L 699.9264 230.326097 
L 703.2744 229.627727 
L 707.292 228.542924 
L 711.3096 227.231824 
L 715.9968 225.462347 
L 721.3536 223.178599 
L 727.38 220.344336 
L 734.7456 216.600295 
L 745.4592 211.080192 
L 748.8072 209.896269 
L 751.4856 209.27993 
L 752.1552 182.096879 
L 752.8248 170.640206 
L 753.4944 164.229114 
L 754.164 159.88731 
L 754.8336 156.839251 
L 755.5032 154.724738 
L 756.1728 153.314069 
L 756.8424 152.461462 
L 757.512 152.058558 
L 758.1816 152.008359 
L 758.8512 152.223406 
L 760.1904 153.157539 
L 761.5296 154.472307 
L 764.8776 158.293547 
L 768.2256 161.804225 
L 770.2344 163.807842 
L 772.2432 166.126985 
L 774.252 168.79168 
L 777.6 173.802827 
L 777.6 173.802827 
" clip-path="url(#p910931377e)" style="fill: none; stroke: #4169e1; stroke-width: 1.5; stroke-linecap: square"/>
   </g>
   <g id="patch_3">
    <path d="M 108 256.32 
L 108 34.56 
" style="fill: none; stroke: #000000; stroke-width: 0.8; stroke-linejoin: miter; stroke-linecap: square"/>
   </g>
   <g id="patch_4">
    <path d="M 777.6 256.32 
L 777.6 34.56 
" style="fill: none; stroke: #000000; stroke-width: 0.8; stroke-linejoin: miter; stroke-linecap: square"/>
   </g>
   <g id="patch_5">
    <path d="M 108 256.32 
L 777.6 256.32 
" style="fill: none; stroke: #000000; stroke-width: 0.8; stroke-linejoin: miter; stroke-linecap: square"/>
   </g>
   <g id="patch_6">
    <path d="M 108 34.56 
L 777.6 34.56 
" style="fill: none; stroke: #000000; stroke-width: 0.8; stroke-linejoin: miter; stroke-linecap: square"/>
   </g>
   <g id="legend_1">
    <g id="patch_7">
     <path d="M 695.098438 71.91625 
L 770.6 71.91625 
Q 772.6 71.91625 772.6 69.91625 
L 772.6 41.56 
Q 772.6 39.56 770.6 39.56 
L 695.098438 39.56 
Q 693.098438 39.56 693.098438 41.56 
L 693.098438 69.91625 
Q 693.098438 71.91625 695.098438 71.91625 
z
" style="fill: #ffffff; opacity: 0.8; stroke: #cccccc; stroke-linejoin: miter"/>
    </g>
    <g id="line2d_25">
     <path d="M 697.098438 47.658437 
L 707.098438 47.658437 
L 717.098438 47.658437 
" style="fill: none; stroke: #000000; stroke-width: 1.5; stroke-linecap: square"/>
    </g>
    <g id="text_14">
     <!-- Soma -->
     <g transform="translate(725.098438 51.158437) scale(0.1 -0.1)">
      <defs>
       <path id="DejaVuSans-53" d="M 3425 4513 
L 3425 3897 
Q 3066 4069 2747 4153 
Q 2428 4238 2131 4238 
Q 1616 4238 1336 4038 
Q 1056 3838 1056 3469 
Q 1056 3159 1242 3001 
Q 1428 2844 1947 2747 
L 2328 2669 
Q 3034 2534 3370 2195 
Q 3706 1856 3706 1288 
Q 3706 609 3251 259 
Q 2797 -91 1919 -91 
Q 1588 -91 1214 -16 
Q 841 59 441 206 
L 441 856 
Q 825 641 1194 531 
Q 1563 422 1919 422 
Q 2459 422 2753 634 
Q 3047 847 3047 1241 
Q 3047 1584 2836 1778 
Q 2625 1972 2144 2069 
L 1759 2144 
Q 1053 2284 737 2584 
Q 422 2884 422 3419 
Q 422 4038 858 4394 
Q 1294 4750 2059 4750 
Q 2388 4750 2728 4690 
Q 3069 4631 3425 4513 
z
" transform="scale(0.015625)"/>
       <path id="DejaVuSans-6f" d="M 1959 3097 
Q 1497 3097 1228 2736 
Q 959 2375 959 1747 
Q 959 1119 1226 758 
Q 1494 397 1959 397 
Q 2419 397 2687 759 
Q 2956 1122 2956 1747 
Q 2956 2369 2687 2733 
Q 2419 3097 1959 3097 
z
M 1959 3584 
Q 2709 3584 3137 3096 
Q 3566 2609 3566 1747 
Q 3566 888 3137 398 
Q 2709 -91 1959 -91 
Q 1206 -91 779 398 
Q 353 888 353 1747 
Q 353 2609 779 3096 
Q 1206 3584 1959 3584 
z
" transform="scale(0.015625)"/>
       <path id="DejaVuSans-61" d="M 2194 1759 
Q 1497 1759 1228 1600 
Q 959 1441 959 1056 
Q 959 750 1161 570 
Q 1363 391 1709 391 
Q 2188 391 2477 730 
Q 2766 1069 2766 1631 
L 2766 1759 
L 2194 1759 
z
M 3341 1997 
L 3341 0 
L 2766 0 
L 2766 531 
Q 2569 213 2275 61 
Q 1981 -91 1556 -91 
Q 1019 -91 701 211 
Q 384 513 384 1019 
Q 384 1609 779 1909 
Q 1175 2209 1959 2209 
L 2766 2209 
L 2766 2266 
Q 2766 2663 2505 2880 
Q 2244 3097 1772 3097 
Q 1472 3097 1187 3025 
Q 903 2953 641 2809 
L 641 3341 
Q 956 3463 1253 3523 
Q 1550 3584 1831 3584 
Q 2591 3584 2966 3190 
Q 3341 2797 3341 1997 
z
" transform="scale(0.015625)"/>
      </defs>
      <use xlink:href="#DejaVuSans-53"/>
      <use xlink:href="#DejaVuSans-6f" x="63.476562"/>
      <use xlink:href="#DejaVuSans-6d" x="124.658203"/>
      <use xlink:href="#DejaVuSans-61" x="222.070312"/>
     </g>
    </g>
    <g id="line2d_26">
     <path d="M 697.098438 62.336562 
L 707.098438 62.336562 
L 717.098438 62.336562 
" style="fill: none; stroke: #4169e1; stroke-width: 1.5; stroke-linecap: square"/>
    </g>
    <g id="text_15">
     <!-- Dendrite -->
     <g transform="translate(725.098438 65.836562) scale(0.1 -0.1)">
      <defs>
       <path id="DejaVuSans-44" d="M 1259 4147 
L 1259 519 
L 2022 519 
Q 2988 519 3436 956 
Q 3884 1394 3884 2338 
Q 3884 3275 3436 3711 
Q 2988 4147 2022 4147 
L 1259 4147 
z
M 628 4666 
L 1925 4666 
Q 3281 4666 3915 4102 
Q 4550 3538 4550 2338 
Q 4550 1131 3912 565 
Q 3275 0 1925 0 
L 628 0 
L 628 4666 
z
" transform="scale(0.015625)"/>
       <path id="DejaVuSans-6e" d="M 3513 2113 
L 3513 0 
L 2938 0 
L 2938 2094 
Q 2938 2591 2744 2837 
Q 2550 3084 2163 3084 
Q 1697 3084 1428 2787 
Q 1159 2491 1159 1978 
L 1159 0 
L 581 0 
L 581 3500 
L 1159 3500 
L 1159 2956 
Q 1366 3272 1645 3428 
Q 1925 3584 2291 3584 
Q 2894 3584 3203 3211 
Q 3513 2838 3513 2113 
z
" transform="scale(0.015625)"/>
       <path id="DejaVuSans-64" d="M 2906 2969 
L 2906 4863 
L 3481 4863 
L 3481 0 
L 2906 0 
L 2906 525 
Q 2725 213 2448 61 
Q 2172 -91 1784 -91 
Q 1150 -91 751 415 
Q 353 922 353 1747 
Q 353 2572 751 3078 
Q 1150 3584 1784 3584 
Q 2172 3584 2448 3432 
Q 2725 3281 2906 2969 
z
M 947 1747 
Q 947 1113 1208 752 
Q 1469 391 1925 391 
Q 2381 391 2643 752 
Q 2906 1113 2906 1747 
Q 2906 2381 2643 2742 
Q 2381 3103 1925 3103 
Q 1469 3103 1208 2742 
Q 947 2381 947 1747 
z
" transform="scale(0.015625)"/>
       <path id="DejaVuSans-72" d="M 2631 2963 
Q 2534 3019 2420 3045 
Q 2306 3072 2169 3072 
Q 1681 3072 1420 2755 
Q 1159 2438 1159 1844 
L 1159 0 
L 581 0 
L 581 3500 
L 1159 3500 
L 1159 2956 
Q 1341 3275 1631 3429 
Q 1922 3584 2338 3584 
Q 2397 3584 2469 3576 
Q 2541 3569 2628 3553 
L 2631 2963 
z
" transform="scale(0.015625)"/>
       <path id="DejaVuSans-74" d="M 1172 4494 
L 1172 3500 
L 2356 3500 
L 2356 3053 
L 1172 3053 
L 1172 1153 
Q 1172 725 1289 603 
Q 1406 481 1766 481 
L 2356 481 
L 2356 0 
L 1766 0 
Q 1100 0 847 248 
Q 594 497 594 1153 
L 594 3053 
L 172 3053 
L 172 3500 
L 594 3500 
L 594 4494 
L 1172 4494 
z
" transform="scale(0.015625)"/>
      </defs>
      <use xlink:href="#DejaVuSans-44"/>
      <use xlink:href="#DejaVuSans-65" x="77.001953"/>
      <use xlink:href="#DejaVuSans-6e" x="138.525391"/>
      <use xlink:href="#DejaVuSans-64" x="201.904297"/>
      <use xlink:href="#DejaVuSans-72" x="265.380859"/>
      <use xlink:href="#DejaVuSans-69" x="306.494141"/>
      <use xlink:href="#DejaVuSans-74" x="334.277344"/>
      <use xlink:href="#DejaVuSans-65" x="373.486328"/>
     </g>
    </g>
   </g>
  </g>
 </g>
 <defs>
  <clipPath id="p910931377e">
   <rect x="108" y="34.56" width="669.6" height="221.76"/>
  </clipPath>
 </defs>
</svg>
