<?xml version="1.0" encoding="utf-8" standalone="no"?>
<!DOCTYPE svg PUBLIC "-//W3C//DTD SVG 1.1//EN"
  "http://www.w3.org/Graphics/SVG/1.1/DTD/svg11.dtd">
<svg xmlns:xlink="http://www.w3.org/1999/xlink" width="864pt" height="288pt" viewBox="0 0 864 288" xmlns="http://www.w3.org/2000/svg" version="1.1">
 <metadata>
  <rdf:RDF xmlns:dc="http://purl.org/dc/elements/1.1/" xmlns:cc="http://creativecommons.org/ns#" xmlns:rdf="http://www.w3.org/1999/02/22-rdf-syntax-ns#">
   <cc:Work>
    <dc:type rdf:resource="http://purl.org/dc/dcmitype/StillImage"/>
    <dc:date>2024-04-26T13:24:57.831273</dc:date>
    <dc:format>image/svg+xml</dc:format>
    <dc:creator>
     <cc:Agent>
      <dc:title>Matplotlib v3.8.2, https://matplotlib.org/</dc:title>
     </cc:Agent>
    </dc:creator>
   </cc:Work>
  </rdf:RDF>
 </metadata>
 <defs>
  <style type="text/css">*{stroke-linejoin: round; stroke-linecap: butt}</style>
 </defs>
 <g id="figure_1">
  <g id="patch_1">
   <path d="M 0 288 
L 864 288 
L 864 0 
L 0 0 
z
" style="fill: #ffffff"/>
  </g>
  <g id="axes_1">
   <g id="patch_2">
    <path d="M 108 256.32 
L 777.6 256.32 
L 777.6 34.56 
L 108 34.56 
z
" style="fill: #ffffff"/>
   </g>
   <g id="matplotlib.axis_1">
    <g id="xtick_1">
     <g id="line2d_1">
      <path d="M 108 256.32 
L 108 34.56 
" clip-path="url(#pc93db392c0)" style="fill: none; stroke: #b0b0b0; stroke-width: 0.8; stroke-linecap: square"/>
     </g>
     <g id="line2d_2">
      <defs>
       <path id="m61b9d969bb" d="M 0 0 
L 0 3.5 
" style="stroke: #000000; stroke-width: 0.8"/>
      </defs>
      <g>
       <use xlink:href="#m61b9d969bb" x="108" y="256.32" style="stroke: #000000; stroke-width: 0.8"/>
      </g>
     </g>
     <g id="text_1">
      <!-- 100 -->
      <g transform="translate(94.63875 273.957812) scale(0.14 -0.14)">
       <defs>
        <path id="DejaVuSans-31" d="M 794 531 
L 1825 531 
L 1825 4091 
L 703 3866 
L 703 4441 
L 1819 4666 
L 2450 4666 
L 2450 531 
L 3481 531 
L 3481 0 
L 794 0 
L 794 531 
z
" transform="scale(0.015625)"/>
        <path id="DejaVuSans-30" d="M 2034 4250 
Q 1547 4250 1301 3770 
Q 1056 3291 1056 2328 
Q 1056 1369 1301 889 
Q 1547 409 2034 409 
Q 2525 409 2770 889 
Q 3016 1369 3016 2328 
Q 3016 3291 2770 3770 
Q 2525 4250 2034 4250 
z
M 2034 4750 
Q 2819 4750 3233 4129 
Q 3647 3509 3647 2328 
Q 3647 1150 3233 529 
Q 2819 -91 2034 -91 
Q 1250 -91 836 529 
Q 422 1150 422 2328 
Q 422 3509 836 4129 
Q 1250 4750 2034 4750 
z
" transform="scale(0.015625)"/>
       </defs>
       <use xlink:href="#DejaVuSans-31"/>
       <use xlink:href="#DejaVuSans-30" x="63.623047"/>
       <use xlink:href="#DejaVuSans-30" x="127.246094"/>
      </g>
     </g>
    </g>
    <g id="xtick_2">
     <g id="line2d_3">
      <path d="M 241.92 256.32 
L 241.92 34.56 
" clip-path="url(#pc93db392c0)" style="fill: none; stroke: #b0b0b0; stroke-width: 0.8; stroke-linecap: square"/>
     </g>
     <g id="line2d_4">
      <g>
       <use xlink:href="#m61b9d969bb" x="241.92" y="256.32" style="stroke: #000000; stroke-width: 0.8"/>
      </g>
     </g>
     <g id="text_2">
      <!-- 120 -->
      <g transform="translate(228.55875 273.957812) scale(0.14 -0.14)">
       <defs>
        <path id="DejaVuSans-32" d="M 1228 531 
L 3431 531 
L 3431 0 
L 469 0 
L 469 531 
Q 828 903 1448 1529 
Q 2069 2156 2228 2338 
Q 2531 2678 2651 2914 
Q 2772 3150 2772 3378 
Q 2772 3750 2511 3984 
Q 2250 4219 1831 4219 
Q 1534 4219 1204 4116 
Q 875 4013 500 3803 
L 500 4441 
Q 881 4594 1212 4672 
Q 1544 4750 1819 4750 
Q 2544 4750 2975 4387 
Q 3406 4025 3406 3419 
Q 3406 3131 3298 2873 
Q 3191 2616 2906 2266 
Q 2828 2175 2409 1742 
Q 1991 1309 1228 531 
z
" transform="scale(0.015625)"/>
       </defs>
       <use xlink:href="#DejaVuSans-31"/>
       <use xlink:href="#DejaVuSans-32" x="63.623047"/>
       <use xlink:href="#DejaVuSans-30" x="127.246094"/>
      </g>
     </g>
    </g>
    <g id="xtick_3">
     <g id="line2d_5">
      <path d="M 375.84 256.32 
L 375.84 34.56 
" clip-path="url(#pc93db392c0)" style="fill: none; stroke: #b0b0b0; stroke-width: 0.8; stroke-linecap: square"/>
     </g>
     <g id="line2d_6">
      <g>
       <use xlink:href="#m61b9d969bb" x="375.84" y="256.32" style="stroke: #000000; stroke-width: 0.8"/>
      </g>
     </g>
     <g id="text_3">
      <!-- 140 -->
      <g transform="translate(362.47875 273.957812) scale(0.14 -0.14)">
       <defs>
        <path id="DejaVuSans-34" d="M 2419 4116 
L 825 1625 
L 2419 1625 
L 2419 4116 
z
M 2253 4666 
L 3047 4666 
L 3047 1625 
L 3713 1625 
L 3713 1100 
L 3047 1100 
L 3047 0 
L 2419 0 
L 2419 1100 
L 313 1100 
L 313 1709 
L 2253 4666 
z
" transform="scale(0.015625)"/>
       </defs>
       <use xlink:href="#DejaVuSans-31"/>
       <use xlink:href="#DejaVuSans-34" x="63.623047"/>
       <use xlink:href="#DejaVuSans-30" x="127.246094"/>
      </g>
     </g>
    </g>
    <g id="xtick_4">
     <g id="line2d_7">
      <path d="M 509.76 256.32 
L 509.76 34.56 
" clip-path="url(#pc93db392c0)" style="fill: none; stroke: #b0b0b0; stroke-width: 0.8; stroke-linecap: square"/>
     </g>
     <g id="line2d_8">
      <g>
       <use xlink:href="#m61b9d969bb" x="509.76" y="256.32" style="stroke: #000000; stroke-width: 0.8"/>
      </g>
     </g>
     <g id="text_4">
      <!-- 160 -->
      <g transform="translate(496.39875 273.957812) scale(0.14 -0.14)">
       <defs>
        <path id="DejaVuSans-36" d="M 2113 2584 
Q 1688 2584 1439 2293 
Q 1191 2003 1191 1497 
Q 1191 994 1439 701 
Q 1688 409 2113 409 
Q 2538 409 2786 701 
Q 3034 994 3034 1497 
Q 3034 2003 2786 2293 
Q 2538 2584 2113 2584 
z
M 3366 4563 
L 3366 3988 
Q 3128 4100 2886 4159 
Q 2644 4219 2406 4219 
Q 1781 4219 1451 3797 
Q 1122 3375 1075 2522 
Q 1259 2794 1537 2939 
Q 1816 3084 2150 3084 
Q 2853 3084 3261 2657 
Q 3669 2231 3669 1497 
Q 3669 778 3244 343 
Q 2819 -91 2113 -91 
Q 1303 -91 875 529 
Q 447 1150 447 2328 
Q 447 3434 972 4092 
Q 1497 4750 2381 4750 
Q 2619 4750 2861 4703 
Q 3103 4656 3366 4563 
z
" transform="scale(0.015625)"/>
       </defs>
       <use xlink:href="#DejaVuSans-31"/>
       <use xlink:href="#DejaVuSans-36" x="63.623047"/>
       <use xlink:href="#DejaVuSans-30" x="127.246094"/>
      </g>
     </g>
    </g>
    <g id="xtick_5">
     <g id="line2d_9">
      <path d="M 643.68 256.32 
L 643.68 34.56 
" clip-path="url(#pc93db392c0)" style="fill: none; stroke: #b0b0b0; stroke-width: 0.8; stroke-linecap: square"/>
     </g>
     <g id="line2d_10">
      <g>
       <use xlink:href="#m61b9d969bb" x="643.68" y="256.32" style="stroke: #000000; stroke-width: 0.8"/>
      </g>
     </g>
     <g id="text_5">
      <!-- 180 -->
      <g transform="translate(630.31875 273.957812) scale(0.14 -0.14)">
       <defs>
        <path id="DejaVuSans-38" d="M 2034 2216 
Q 1584 2216 1326 1975 
Q 1069 1734 1069 1313 
Q 1069 891 1326 650 
Q 1584 409 2034 409 
Q 2484 409 2743 651 
Q 3003 894 3003 1313 
Q 3003 1734 2745 1975 
Q 2488 2216 2034 2216 
z
M 1403 2484 
Q 997 2584 770 2862 
Q 544 3141 544 3541 
Q 544 4100 942 4425 
Q 1341 4750 2034 4750 
Q 2731 4750 3128 4425 
Q 3525 4100 3525 3541 
Q 3525 3141 3298 2862 
Q 3072 2584 2669 2484 
Q 3125 2378 3379 2068 
Q 3634 1759 3634 1313 
Q 3634 634 3220 271 
Q 2806 -91 2034 -91 
Q 1263 -91 848 271 
Q 434 634 434 1313 
Q 434 1759 690 2068 
Q 947 2378 1403 2484 
z
M 1172 3481 
Q 1172 3119 1398 2916 
Q 1625 2713 2034 2713 
Q 2441 2713 2670 2916 
Q 2900 3119 2900 3481 
Q 2900 3844 2670 4047 
Q 2441 4250 2034 4250 
Q 1625 4250 1398 4047 
Q 1172 3844 1172 3481 
z
" transform="scale(0.015625)"/>
       </defs>
       <use xlink:href="#DejaVuSans-31"/>
       <use xlink:href="#DejaVuSans-38" x="63.623047"/>
       <use xlink:href="#DejaVuSans-30" x="127.246094"/>
      </g>
     </g>
    </g>
    <g id="xtick_6">
     <g id="line2d_11">
      <path d="M 777.6 256.32 
L 777.6 34.56 
" clip-path="url(#pc93db392c0)" style="fill: none; stroke: #b0b0b0; stroke-width: 0.8; stroke-linecap: square"/>
     </g>
     <g id="line2d_12">
      <g>
       <use xlink:href="#m61b9d969bb" x="777.6" y="256.32" style="stroke: #000000; stroke-width: 0.8"/>
      </g>
     </g>
     <g id="text_6">
      <!-- 200 -->
      <g transform="translate(764.23875 273.957812) scale(0.14 -0.14)">
       <use xlink:href="#DejaVuSans-32"/>
       <use xlink:href="#DejaVuSans-30" x="63.623047"/>
       <use xlink:href="#DejaVuSans-30" x="127.246094"/>
      </g>
     </g>
    </g>
    <g id="text_7">
     <!-- Time (ms) -->
     <g transform="translate(407.521094 291.507187) scale(0.14 -0.14)">
      <defs>
       <path id="DejaVuSans-54" d="M -19 4666 
L 3928 4666 
L 3928 4134 
L 2272 4134 
L 2272 0 
L 1638 0 
L 1638 4134 
L -19 4134 
L -19 4666 
z
" transform="scale(0.015625)"/>
       <path id="DejaVuSans-69" d="M 603 3500 
L 1178 3500 
L 1178 0 
L 603 0 
L 603 3500 
z
M 603 4863 
L 1178 4863 
L 1178 4134 
L 603 4134 
L 603 4863 
z
" transform="scale(0.015625)"/>
       <path id="DejaVuSans-6d" d="M 3328 2828 
Q 3544 3216 3844 3400 
Q 4144 3584 4550 3584 
Q 5097 3584 5394 3201 
Q 5691 2819 5691 2113 
L 5691 0 
L 5113 0 
L 5113 2094 
Q 5113 2597 4934 2840 
Q 4756 3084 4391 3084 
Q 3944 3084 3684 2787 
Q 3425 2491 3425 1978 
L 3425 0 
L 2847 0 
L 2847 2094 
Q 2847 2600 2669 2842 
Q 2491 3084 2119 3084 
Q 1678 3084 1418 2786 
Q 1159 2488 1159 1978 
L 1159 0 
L 581 0 
L 581 3500 
L 1159 3500 
L 1159 2956 
Q 1356 3278 1631 3431 
Q 1906 3584 2284 3584 
Q 2666 3584 2933 3390 
Q 3200 3197 3328 2828 
z
" transform="scale(0.015625)"/>
       <path id="DejaVuSans-65" d="M 3597 1894 
L 3597 1613 
L 953 1613 
Q 991 1019 1311 708 
Q 1631 397 2203 397 
Q 2534 397 2845 478 
Q 3156 559 3463 722 
L 3463 178 
Q 3153 47 2828 -22 
Q 2503 -91 2169 -91 
Q 1331 -91 842 396 
Q 353 884 353 1716 
Q 353 2575 817 3079 
Q 1281 3584 2069 3584 
Q 2775 3584 3186 3129 
Q 3597 2675 3597 1894 
z
M 3022 2063 
Q 3016 2534 2758 2815 
Q 2500 3097 2075 3097 
Q 1594 3097 1305 2825 
Q 1016 2553 972 2059 
L 3022 2063 
z
" transform="scale(0.015625)"/>
       <path id="DejaVuSans-20" transform="scale(0.015625)"/>
       <path id="DejaVuSans-28" d="M 1984 4856 
Q 1566 4138 1362 3434 
Q 1159 2731 1159 2009 
Q 1159 1288 1364 580 
Q 1569 -128 1984 -844 
L 1484 -844 
Q 1016 -109 783 600 
Q 550 1309 550 2009 
Q 550 2706 781 3412 
Q 1013 4119 1484 4856 
L 1984 4856 
z
" transform="scale(0.015625)"/>
       <path id="DejaVuSans-73" d="M 2834 3397 
L 2834 2853 
Q 2591 2978 2328 3040 
Q 2066 3103 1784 3103 
Q 1356 3103 1142 2972 
Q 928 2841 928 2578 
Q 928 2378 1081 2264 
Q 1234 2150 1697 2047 
L 1894 2003 
Q 2506 1872 2764 1633 
Q 3022 1394 3022 966 
Q 3022 478 2636 193 
Q 2250 -91 1575 -91 
Q 1294 -91 989 -36 
Q 684 19 347 128 
L 347 722 
Q 666 556 975 473 
Q 1284 391 1588 391 
Q 1994 391 2212 530 
Q 2431 669 2431 922 
Q 2431 1156 2273 1281 
Q 2116 1406 1581 1522 
L 1381 1569 
Q 847 1681 609 1914 
Q 372 2147 372 2553 
Q 372 3047 722 3315 
Q 1072 3584 1716 3584 
Q 2034 3584 2315 3537 
Q 2597 3491 2834 3397 
z
" transform="scale(0.015625)"/>
       <path id="DejaVuSans-29" d="M 513 4856 
L 1013 4856 
Q 1481 4119 1714 3412 
Q 1947 2706 1947 2009 
Q 1947 1309 1714 600 
Q 1481 -109 1013 -844 
L 513 -844 
Q 928 -128 1133 580 
Q 1338 1288 1338 2009 
Q 1338 2731 1133 3434 
Q 928 4138 513 4856 
z
" transform="scale(0.015625)"/>
      </defs>
      <use xlink:href="#DejaVuSans-54"/>
      <use xlink:href="#DejaVuSans-69" x="57.958984"/>
      <use xlink:href="#DejaVuSans-6d" x="85.742188"/>
      <use xlink:href="#DejaVuSans-65" x="183.154297"/>
      <use xlink:href="#DejaVuSans-20" x="244.677734"/>
      <use xlink:href="#DejaVuSans-28" x="276.464844"/>
      <use xlink:href="#DejaVuSans-6d" x="315.478516"/>
      <use xlink:href="#DejaVuSans-73" x="412.890625"/>
      <use xlink:href="#DejaVuSans-29" x="464.990234"/>
     </g>
    </g>
   </g>
   <g id="matplotlib.axis_2">
    <g id="ytick_1">
     <g id="line2d_13">
      <path d="M 108 224.199266 
L 777.6 224.199266 
" clip-path="url(#pc93db392c0)" style="fill: none; stroke: #b0b0b0; stroke-width: 0.8; stroke-linecap: square"/>
     </g>
     <g id="line2d_14">
      <defs>
       <path id="mf8ff769eef" d="M 0 0 
L -3.5 0 
" style="stroke: #000000; stroke-width: 0.8"/>
      </defs>
      <g>
       <use xlink:href="#mf8ff769eef" x="108" y="224.199266" style="stroke: #000000; stroke-width: 0.8"/>
      </g>
     </g>
     <g id="text_8">
      <!-- −60 -->
      <g transform="translate(71.453437 229.518173) scale(0.14 -0.14)">
       <defs>
        <path id="DejaVuSans-2212" d="M 678 2272 
L 4684 2272 
L 4684 1741 
L 678 1741 
L 678 2272 
z
" transform="scale(0.015625)"/>
       </defs>
       <use xlink:href="#DejaVuSans-2212"/>
       <use xlink:href="#DejaVuSans-36" x="83.789062"/>
       <use xlink:href="#DejaVuSans-30" x="147.412109"/>
      </g>
     </g>
    </g>
    <g id="ytick_2">
     <g id="line2d_15">
      <path d="M 108 180.188039 
L 777.6 180.188039 
" clip-path="url(#pc93db392c0)" style="fill: none; stroke: #b0b0b0; stroke-width: 0.8; stroke-linecap: square"/>
     </g>
     <g id="line2d_16">
      <g>
       <use xlink:href="#mf8ff769eef" x="108" y="180.188039" style="stroke: #000000; stroke-width: 0.8"/>
      </g>
     </g>
     <g id="text_9">
      <!-- −40 -->
      <g transform="translate(71.453437 185.506945) scale(0.14 -0.14)">
       <use xlink:href="#DejaVuSans-2212"/>
       <use xlink:href="#DejaVuSans-34" x="83.789062"/>
       <use xlink:href="#DejaVuSans-30" x="147.412109"/>
      </g>
     </g>
    </g>
    <g id="ytick_3">
     <g id="line2d_17">
      <path d="M 108 136.176811 
L 777.6 136.176811 
" clip-path="url(#pc93db392c0)" style="fill: none; stroke: #b0b0b0; stroke-width: 0.8; stroke-linecap: square"/>
     </g>
     <g id="line2d_18">
      <g>
       <use xlink:href="#mf8ff769eef" x="108" y="136.176811" style="stroke: #000000; stroke-width: 0.8"/>
      </g>
     </g>
     <g id="text_10">
      <!-- −20 -->
      <g transform="translate(71.453437 141.495717) scale(0.14 -0.14)">
       <use xlink:href="#DejaVuSans-2212"/>
       <use xlink:href="#DejaVuSans-32" x="83.789062"/>
       <use xlink:href="#DejaVuSans-30" x="147.412109"/>
      </g>
     </g>
    </g>
    <g id="ytick_4">
     <g id="line2d_19">
      <path d="M 108 92.165584 
L 777.6 92.165584 
" clip-path="url(#pc93db392c0)" style="fill: none; stroke: #b0b0b0; stroke-width: 0.8; stroke-linecap: square"/>
     </g>
     <g id="line2d_20">
      <g>
       <use xlink:href="#mf8ff769eef" x="108" y="92.165584" style="stroke: #000000; stroke-width: 0.8"/>
      </g>
     </g>
     <g id="text_11">
      <!-- 0 -->
      <g transform="translate(92.0925 97.48449) scale(0.14 -0.14)">
       <use xlink:href="#DejaVuSans-30"/>
      </g>
     </g>
    </g>
    <g id="ytick_5">
     <g id="line2d_21">
      <path d="M 108 48.154356 
L 777.6 48.154356 
" clip-path="url(#pc93db392c0)" style="fill: none; stroke: #b0b0b0; stroke-width: 0.8; stroke-linecap: square"/>
     </g>
     <g id="line2d_22">
      <g>
       <use xlink:href="#mf8ff769eef" x="108" y="48.154356" style="stroke: #000000; stroke-width: 0.8"/>
      </g>
     </g>
     <g id="text_12">
      <!-- 20 -->
      <g transform="translate(83.185 53.473262) scale(0.14 -0.14)">
       <use xlink:href="#DejaVuSans-32"/>
       <use xlink:href="#DejaVuSans-30" x="63.623047"/>
      </g>
     </g>
    </g>
    <g id="text_13">
     <!-- $V_{m}$ (mV) -->
     <g transform="translate(64.541875 174.49) rotate(-90) scale(0.14 -0.14)">
      <defs>
       <path id="DejaVuSans-Oblique-56" d="M 1319 0 
L 500 4666 
L 1119 4666 
L 1797 653 
L 4063 4666 
L 4750 4666 
L 2053 0 
L 1319 0 
z
" transform="scale(0.015625)"/>
       <path id="DejaVuSans-Oblique-6d" d="M 5747 2113 
L 5338 0 
L 4763 0 
L 5166 2094 
Q 5191 2228 5203 2325 
Q 5216 2422 5216 2491 
Q 5216 2772 5059 2928 
Q 4903 3084 4622 3084 
Q 4203 3084 3875 2770 
Q 3547 2456 3450 1953 
L 3066 0 
L 2491 0 
L 2900 2094 
Q 2925 2209 2937 2307 
Q 2950 2406 2950 2484 
Q 2950 2769 2794 2926 
Q 2638 3084 2363 3084 
Q 1938 3084 1609 2770 
Q 1281 2456 1184 1953 
L 800 0 
L 225 0 
L 909 3500 
L 1484 3500 
L 1375 2956 
Q 1609 3263 1923 3423 
Q 2238 3584 2597 3584 
Q 2978 3584 3223 3384 
Q 3469 3184 3519 2828 
Q 3781 3197 4126 3390 
Q 4472 3584 4856 3584 
Q 5306 3584 5551 3325 
Q 5797 3066 5797 2591 
Q 5797 2488 5784 2364 
Q 5772 2241 5747 2113 
z
" transform="scale(0.015625)"/>
       <path id="DejaVuSans-56" d="M 1831 0 
L 50 4666 
L 709 4666 
L 2188 738 
L 3669 4666 
L 4325 4666 
L 2547 0 
L 1831 0 
z
" transform="scale(0.015625)"/>
      </defs>
      <use xlink:href="#DejaVuSans-Oblique-56" transform="translate(0 0.125)"/>
      <use xlink:href="#DejaVuSans-Oblique-6d" transform="translate(68.408203 -16.28125) scale(0.7)"/>
      <use xlink:href="#DejaVuSans-20" transform="translate(139.331055 0.125)"/>
      <use xlink:href="#DejaVuSans-28" transform="translate(171.118164 0.125)"/>
      <use xlink:href="#DejaVuSans-6d" transform="translate(210.131836 0.125)"/>
      <use xlink:href="#DejaVuSans-56" transform="translate(307.543945 0.125)"/>
      <use xlink:href="#DejaVuSans-29" transform="translate(375.952148 0.125)"/>
     </g>
    </g>
   </g>
   <g id="line2d_23">
    <path d="M 108 219.693051 
L 109.3392 220.329341 
L 110.6784 220.733742 
L 111.348 220.879883 
L 112.6872 221.81125 
L 114.0264 222.247342 
L 116.0352 223.809197 
L 118.044 226.291868 
L 118.7136 227.416718 
L 119.3832 228.28706 
L 120.0528 228.840514 
L 120.7224 229.890654 
L 122.7312 232.214716 
L 124.0704 233.013402 
L 125.4096 233.532128 
L 127.4184 234.033746 
L 129.4272 234.311145 
L 132.1056 234.425503 
L 134.1144 234.357882 
L 136.1232 235.159989 
L 136.7928 235.98822 
L 137.4624 236.56895 
L 138.132 236.880284 
L 138.8016 237.068859 
L 140.1408 237.763922 
L 141.48 238.03545 
L 143.4888 238.137295 
L 144.828 238.585842 
L 146.1672 238.6902 
L 148.176 238.60454 
L 149.5152 238.950471 
L 150.8544 238.967592 
L 153.5328 238.669065 
L 156.8808 238.006994 
L 160.2288 237.125518 
L 164.2464 235.839599 
L 168.9336 234.080191 
L 173.6208 232.087715 
L 178.9776 229.571889 
L 185.004 226.489574 
L 191.7 222.815418 
L 198.396 218.94673 
L 199.7352 218.973016 
L 201.0744 218.581476 
L 203.7528 217.43574 
L 205.7616 216.474244 
L 207.1008 216.655492 
L 208.44 216.391261 
L 209.7792 216.798517 
L 211.1184 216.705301 
L 213.1272 216.238586 
L 216.4752 215.151198 
L 220.4928 213.592785 
L 225.8496 211.257564 
L 227.1888 211.566151 
L 227.8584 212.486873 
L 228.528 213.195855 
L 229.1976 213.542042 
L 229.8672 213.677756 
L 231.2064 213.586484 
L 232.5456 213.266803 
L 233.8848 213.725845 
L 234.5544 214.208449 
L 235.224 214.997683 
L 237.2328 217.762761 
L 237.9024 218.624561 
L 238.572 219.273114 
L 239.2416 220.095992 
L 239.9112 221.121136 
L 240.5808 222.618855 
L 241.2504 223.715341 
L 241.92 224.413304 
L 243.2592 225.318622 
L 244.5984 225.913364 
L 245.9376 226.970165 
L 246.6072 227.29163 
L 247.2768 227.875617 
L 247.9464 228.680925 
L 249.9552 230.514389 
L 251.2944 231.726964 
L 252.6336 232.358578 
L 253.9728 232.75124 
L 255.312 234.097588 
L 255.9816 234.747462 
L 256.6512 235.229027 
L 257.9904 235.775314 
L 259.9992 236.203359 
L 260.6688 236.287712 
L 262.008 236.898512 
L 263.3472 237.142885 
L 264.6864 237.233626 
L 267.3648 238.378873 
L 268.704 238.591297 
L 270.7128 238.624692 
L 272.052 239.032239 
L 273.3912 239.104619 
L 275.4 238.980159 
L 278.0784 238.602747 
L 281.4264 237.898668 
L 282.096 237.7323 
L 283.4352 237.890041 
L 284.7744 237.735261 
L 287.4528 237.129749 
L 290.8008 236.139605 
L 291.4704 235.919346 
L 292.8096 236.006157 
L 294.1488 235.772583 
L 296.8272 235.008821 
L 300.8448 233.580718 
L 305.532 231.649083 
L 310.8888 229.177333 
L 316.9152 226.129312 
L 323.6112 222.483342 
L 331.6464 217.850953 
L 343.6992 210.619944 
L 345.0384 209.800828 
L 346.3776 209.94199 
L 347.7168 209.627835 
L 349.7256 208.855531 
L 353.0736 207.306504 
L 354.4128 206.630551 
L 355.752 207.944714 
L 356.4216 208.225087 
L 358.4304 210.06336 
L 359.1 211.102905 
L 359.7696 211.836938 
L 360.4392 212.278388 
L 361.7784 212.769681 
L 363.1176 214.696295 
L 363.7872 215.612041 
L 364.4568 216.241766 
L 365.1264 216.595255 
L 365.796 216.807069 
L 367.1352 217.799999 
L 367.8048 218.050542 
L 369.144 219.083546 
L 370.4832 219.549208 
L 372.492 219.867119 
L 373.8312 221.425564 
L 374.5008 222.970538 
L 375.1704 224.156194 
L 375.84 224.863969 
L 377.1792 225.727741 
L 378.5184 226.269717 
L 379.188 226.471092 
L 379.8576 226.988182 
L 381.8664 229.264975 
L 382.536 229.672362 
L 383.8752 230.790534 
L 384.5448 231.124906 
L 386.5536 232.743889 
L 387.2232 233.211572 
L 388.5624 233.750497 
L 391.2408 234.565259 
L 391.9104 235.158454 
L 392.58 235.570722 
L 393.9192 235.984789 
L 395.928 236.248601 
L 399.276 236.540268 
L 402.624 237.419399 
L 403.2936 237.456654 
L 405.972 238.537319 
L 407.3112 238.706799 
L 407.9808 238.721173 
L 409.32 239.157008 
L 410.6592 239.243025 
L 412.668 239.12645 
L 415.3464 238.748891 
L 418.6944 238.037915 
L 422.712 236.918506 
L 426.7296 235.56482 
L 428.0688 235.622196 
L 429.408 235.360119 
L 432.0864 234.543954 
L 436.104 233.04868 
L 440.7912 231.051829 
L 446.148 228.518686 
L 452.1744 225.415109 
L 459.54 221.341486 
L 468.2448 216.25774 
L 472.932 213.450019 
L 474.2712 213.545394 
L 475.6104 213.1927 
L 476.9496 212.672408 
L 478.2888 212.992667 
L 479.628 212.826644 
L 481.6368 212.257338 
L 483.6456 211.544517 
L 484.9848 211.941158 
L 485.6544 212.41773 
L 486.324 212.750482 
L 487.6632 212.908564 
L 489.0024 212.814126 
L 490.3416 214.343909 
L 491.0112 214.692951 
L 491.6808 215.335888 
L 492.3504 216.264744 
L 493.02 216.912542 
L 493.6896 217.301016 
L 494.3592 217.984902 
L 495.0288 218.936635 
L 495.6984 219.614931 
L 498.3768 221.358227 
L 499.716 221.687568 
L 501.0552 221.765582 
L 502.3944 222.460333 
L 503.7336 222.700755 
L 504.4032 222.747726 
L 505.7424 223.475994 
L 507.0816 223.747025 
L 507.7512 223.805629 
L 508.4208 224.213031 
L 510.4296 227.461362 
L 511.0992 228.187153 
L 512.4384 228.995118 
L 513.7776 229.463906 
L 515.1168 230.358469 
L 515.7864 231.250017 
L 516.456 231.94339 
L 517.1256 232.364666 
L 519.804 235.864636 
L 521.1432 236.637161 
L 522.4824 237.111815 
L 523.152 237.286088 
L 523.8216 237.697219 
L 524.4912 238.291102 
L 526.5 239.618628 
L 527.8392 240.493388 
L 529.1784 240.904361 
L 529.848 241.031245 
L 531.1872 241.631061 
L 532.5264 241.881184 
L 534.5352 241.998686 
L 537.2136 241.902929 
L 539.892 241.603162 
L 543.24 241.003972 
L 547.2576 240.016398 
L 551.2752 238.785631 
L 555.9624 237.092002 
L 560.6496 235.162669 
L 566.0064 232.71286 
L 572.0328 229.693723 
L 578.7288 226.0709 
L 586.0944 221.832481 
L 596.1384 215.775334 
L 602.1648 212.064235 
L 603.504 212.161151 
L 604.8432 211.806827 
L 607.5216 210.692148 
L 611.5392 208.731877 
L 613.548 207.685852 
L 614.8872 207.962003 
L 616.2264 207.781237 
L 618.2352 207.172639 
L 621.5832 205.841924 
L 622.9224 205.227338 
L 624.2616 205.622827 
L 624.9312 205.647629 
L 625.6008 206.115316 
L 626.2704 207.019145 
L 626.94 207.672381 
L 627.6096 208.05114 
L 628.9488 208.422961 
L 629.6184 208.501697 
L 630.288 209.035266 
L 630.9576 210.444867 
L 631.6272 211.482589 
L 632.2968 212.042069 
L 632.9664 212.358731 
L 633.636 212.541366 
L 634.9752 213.540843 
L 635.6448 213.781862 
L 636.984 214.84613 
L 637.6536 215.124687 
L 638.9928 218.218744 
L 639.6624 219.25801 
L 640.332 219.928004 
L 641.6712 221.514034 
L 642.3408 222.006082 
L 643.0104 222.763523 
L 643.68 223.748158 
L 644.3496 224.47495 
L 645.0192 224.971993 
L 646.3584 226.303376 
L 648.3672 227.65326 
L 649.0368 228.486992 
L 649.7064 229.098318 
L 653.0544 231.175904 
L 653.724 231.728019 
L 654.3936 232.477016 
L 658.4112 235.757132 
L 659.7504 237.359597 
L 660.42 237.934067 
L 661.7592 238.602691 
L 663.0984 239.010793 
L 665.1072 239.374199 
L 668.4552 239.817683 
L 669.7944 240.107211 
L 671.8032 240.148311 
L 674.4816 239.947618 
L 677.8296 239.434828 
L 681.1776 238.696627 
L 685.1952 237.567331 
L 689.2128 236.21435 
L 693.9 234.396553 
L 695.2392 234.409857 
L 696.5784 234.099177 
L 699.2568 233.18634 
L 703.2744 231.559481 
L 707.9616 229.430034 
L 713.988 226.422794 
L 720.684 222.808784 
L 728.7192 218.201622 
L 740.1024 211.395353 
L 742.7808 209.764208 
L 744.12 209.906207 
L 745.4592 209.592818 
L 747.468 208.821462 
L 748.8072 209.202051 
L 750.1464 209.091488 
L 752.1552 208.580383 
L 753.4944 209.108679 
L 754.8336 209.130129 
L 756.1728 208.934567 
L 757.512 209.590305 
L 758.8512 209.720389 
L 760.1904 209.622974 
L 761.5296 210.351475 
L 762.1992 210.494717 
L 763.5384 211.455839 
L 764.8776 211.797825 
L 765.5472 211.820499 
L 766.8864 212.51922 
L 768.2256 212.596483 
L 768.8952 212.534348 
L 770.2344 214.047537 
L 770.904 214.392017 
L 771.5736 214.587382 
L 774.252 216.827889 
L 775.5912 217.373554 
L 776.9304 217.648425 
L 777.6 218.153775 
L 777.6 218.153775 
" clip-path="url(#pc93db392c0)" style="fill: none; stroke: #000000; stroke-width: 1.5; stroke-linecap: square"/>
   </g>
   <g id="line2d_24">
    <path d="M 108 163.978584 
L 111.348 171.530063 
L 115.3656 179.778934 
L 118.044 185.386746 
L 121.392 193.191127 
L 124.74 200.921413 
L 126.7488 204.88264 
L 128.7576 208.25519 
L 130.7664 211.103687 
L 132.7752 213.49719 
L 134.784 215.508647 
L 138.132 218.716819 
L 141.48 221.943256 
L 143.4888 223.594913 
L 146.1672 225.502296 
L 148.176 226.711997 
L 151.524 228.421293 
L 153.5328 229.233899 
L 155.5416 229.856963 
L 158.22 230.421821 
L 160.8984 230.720835 
L 163.5768 230.789078 
L 166.2552 230.655842 
L 169.6032 230.24352 
L 172.9512 229.595975 
L 176.9688 228.555876 
L 180.9864 227.273904 
L 185.6736 225.524391 
L 191.0304 223.251374 
L 197.0568 220.418982 
L 200.4048 218.882332 
L 207.7704 216.204422 
L 209.7792 215.729369 
L 217.8144 214.357382 
L 221.832 213.348243 
L 227.8584 211.676421 
L 229.1976 211.679096 
L 229.8672 184.14962 
L 230.5368 172.718718 
L 231.2064 166.529675 
L 231.876 162.414806 
L 232.5456 159.565576 
L 233.2152 157.653677 
L 233.8848 156.473946 
L 234.5544 155.886735 
L 235.224 155.795714 
L 235.8936 156.126916 
L 236.5632 156.819687 
L 237.2328 157.801634 
L 238.572 160.37852 
L 239.9112 163.467224 
L 241.92 168.85901 
L 245.9376 179.977901 
L 250.6248 192.033561 
L 252.6336 196.868443 
L 254.6424 201.153437 
L 257.3208 206.382537 
L 259.3296 209.859702 
L 261.3384 212.833463 
L 263.3472 215.456882 
L 265.356 217.731916 
L 268.704 221.100069 
L 270.7128 222.824554 
L 273.3912 224.808423 
L 275.4 226.061851 
L 277.4088 227.077197 
L 279.4176 227.873344 
L 281.4264 228.474157 
L 286.1136 229.495997 
L 288.792 229.824064 
L 291.4704 229.91759 
L 298.1664 229.846442 
L 301.5144 229.459736 
L 304.8624 228.840403 
L 308.88 227.836358 
L 312.8976 226.590098 
L 317.5848 224.879136 
L 322.272 222.938103 
L 327.6288 220.491754 
L 334.3248 217.17162 
L 342.36 212.926674 
L 346.3776 210.808941 
L 349.7256 209.508805 
L 355.752 207.297769 
L 357.0912 207.15372 
L 358.4304 207.241574 
L 359.7696 207.597609 
L 362.448 208.695173 
L 363.1176 209.03956 
L 363.7872 182.324533 
L 364.4568 171.300374 
L 365.1264 165.359653 
L 365.796 161.542493 
L 366.4656 159.076251 
L 367.1352 157.604978 
L 367.8048 156.893072 
L 368.4744 156.780396 
L 369.144 157.140706 
L 369.8136 157.864 
L 371.1528 160.03864 
L 373.1616 164.189909 
L 374.5008 167.350883 
L 376.5096 172.764643 
L 379.188 180.004392 
L 384.5448 193.475541 
L 387.2232 199.505603 
L 389.232 203.541569 
L 391.2408 207.019677 
L 393.9192 211.170552 
L 395.928 213.870383 
L 397.9368 216.15055 
L 400.6152 218.700375 
L 403.9632 221.52347 
L 407.9808 224.551715 
L 411.3288 226.68693 
L 413.3376 227.719148 
L 415.3464 228.53777 
L 417.3552 229.162783 
L 420.0336 229.730345 
L 422.712 230.031781 
L 425.3904 230.101523 
L 432.0864 229.860727 
L 435.4344 229.472338 
L 438.7824 228.850022 
L 442.8 227.842223 
L 446.8176 226.59286 
L 451.5048 224.879127 
L 456.192 222.936013 
L 461.5488 220.487881 
L 468.2448 217.16614 
L 474.9408 213.792476 
L 478.2888 212.595287 
L 483.6456 211.304532 
L 485.6544 210.935545 
L 487.6632 210.896149 
L 490.3416 211.059014 
L 491.6808 211.376246 
L 493.02 211.889862 
L 495.0288 212.909758 
L 497.0376 214.174711 
L 497.7072 186.396911 
L 498.3768 175.08651 
L 499.0464 169.317663 
L 499.716 165.726428 
L 500.3856 163.436896 
L 501.0552 162.084758 
L 501.7248 161.463254 
L 502.3944 161.425813 
L 503.064 161.847454 
L 503.7336 162.621402 
L 504.4032 163.657913 
L 505.7424 166.297339 
L 508.4208 172.569088 
L 510.4296 177.709523 
L 514.4472 188.488657 
L 518.4648 198.164715 
L 521.1432 204.341294 
L 523.152 208.39812 
L 525.8304 213.097311 
L 528.5088 217.350178 
L 530.5176 220.144154 
L 532.5264 222.612911 
L 534.5352 224.729743 
L 536.544 226.492052 
L 538.5528 227.937873 
L 540.5616 229.10606 
L 542.5704 230.030088 
L 544.5792 230.738475 
L 546.588 231.25575 
L 549.2664 231.684532 
L 551.9448 231.854134 
L 554.6232 231.800571 
L 557.3016 231.554011 
L 560.6496 231.012607 
L 563.9976 230.249749 
L 568.0152 229.088109 
L 572.0328 227.700713 
L 576.72 225.845109 
L 582.0768 223.46831 
L 588.1032 220.535278 
L 595.4688 216.674891 
L 604.1736 212.020738 
L 614.8872 207.713709 
L 618.2352 206.793697 
L 622.9224 205.450454 
L 624.9312 204.961561 
L 626.2704 204.844559 
L 627.6096 204.992315 
L 630.288 205.569356 
L 630.9576 205.788626 
L 631.6272 179.691052 
L 632.2968 168.743129 
L 632.9664 162.609611 
L 633.636 158.588071 
L 634.3056 155.943275 
L 634.9752 154.307023 
L 635.6448 153.43414 
L 636.3144 153.157979 
L 636.984 153.352158 
L 637.6536 153.906918 
L 638.3232 154.777507 
L 638.9928 155.939988 
L 640.332 158.91199 
L 642.3408 164.155806 
L 645.6888 173.521814 
L 649.7064 184.689563 
L 652.3848 191.713027 
L 655.0632 198.068947 
L 657.7416 203.862501 
L 661.0896 210.471245 
L 663.0984 214.009895 
L 665.1072 217.02885 
L 667.116 219.566721 
L 669.1248 221.725696 
L 671.1336 223.633129 
L 673.1424 225.242005 
L 675.1512 226.559302 
L 677.16 227.616334 
L 679.1688 228.443631 
L 681.1776 229.067669 
L 683.856 229.622448 
L 686.5344 229.90178 
L 689.2128 229.943811 
L 691.8912 229.780533 
L 699.2568 228.914778 
L 702.6048 228.312985 
L 706.6224 227.324789 
L 710.64 226.092645 
L 715.3272 224.396968 
L 720.0144 222.46943 
L 725.3712 220.035898 
L 732.0672 216.72808 
L 740.1024 212.493673 
L 744.12 210.380105 
L 746.7984 209.332815 
L 748.8072 208.661979 
L 752.1552 207.922305 
L 754.164 207.634099 
L 757.512 207.443062 
L 760.86 207.590913 
L 762.8688 207.854833 
L 764.8776 208.341704 
L 765.5472 181.603808 
L 766.2168 170.417559 
L 766.8864 164.209574 
L 767.556 160.091526 
L 768.2256 157.2987 
L 768.8952 155.470503 
L 769.5648 154.402015 
L 770.2344 153.949813 
L 770.904 153.987703 
L 771.5736 154.399849 
L 772.2432 155.104313 
L 773.5824 157.136863 
L 775.5912 161.048682 
L 777.6 165.091956 
L 777.6 165.091956 
" clip-path="url(#pc93db392c0)" style="fill: none; stroke: #4169e1; stroke-width: 1.5; stroke-linecap: square"/>
   </g>
   <g id="patch_3">
    <path d="M 108 256.32 
L 108 34.56 
" style="fill: none; stroke: #000000; stroke-width: 0.8; stroke-linejoin: miter; stroke-linecap: square"/>
   </g>
   <g id="patch_4">
    <path d="M 777.6 256.32 
L 777.6 34.56 
" style="fill: none; stroke: #000000; stroke-width: 0.8; stroke-linejoin: miter; stroke-linecap: square"/>
   </g>
   <g id="patch_5">
    <path d="M 108 256.32 
L 777.6 256.32 
" style="fill: none; stroke: #000000; stroke-width: 0.8; stroke-linejoin: miter; stroke-linecap: square"/>
   </g>
   <g id="patch_6">
    <path d="M 108 34.56 
L 777.6 34.56 
" style="fill: none; stroke: #000000; stroke-width: 0.8; stroke-linejoin: miter; stroke-linecap: square"/>
   </g>
   <g id="legend_1">
    <g id="patch_7">
     <path d="M 695.098438 71.91625 
L 770.6 71.91625 
Q 772.6 71.91625 772.6 69.91625 
L 772.6 41.56 
Q 772.6 39.56 770.6 39.56 
L 695.098438 39.56 
Q 693.098438 39.56 693.098438 41.56 
L 693.098438 69.91625 
Q 693.098438 71.91625 695.098438 71.91625 
z
" style="fill: #ffffff; opacity: 0.8; stroke: #cccccc; stroke-linejoin: miter"/>
    </g>
    <g id="line2d_25">
     <path d="M 697.098438 47.658437 
L 707.098438 47.658437 
L 717.098438 47.658437 
" style="fill: none; stroke: #000000; stroke-width: 1.5; stroke-linecap: square"/>
    </g>
    <g id="text_14">
     <!-- Soma -->
     <g transform="translate(725.098438 51.158437) scale(0.1 -0.1)">
      <defs>
       <path id="DejaVuSans-53" d="M 3425 4513 
L 3425 3897 
Q 3066 4069 2747 4153 
Q 2428 4238 2131 4238 
Q 1616 4238 1336 4038 
Q 1056 3838 1056 3469 
Q 1056 3159 1242 3001 
Q 1428 2844 1947 2747 
L 2328 2669 
Q 3034 2534 3370 2195 
Q 3706 1856 3706 1288 
Q 3706 609 3251 259 
Q 2797 -91 1919 -91 
Q 1588 -91 1214 -16 
Q 841 59 441 206 
L 441 856 
Q 825 641 1194 531 
Q 1563 422 1919 422 
Q 2459 422 2753 634 
Q 3047 847 3047 1241 
Q 3047 1584 2836 1778 
Q 2625 1972 2144 2069 
L 1759 2144 
Q 1053 2284 737 2584 
Q 422 2884 422 3419 
Q 422 4038 858 4394 
Q 1294 4750 2059 4750 
Q 2388 4750 2728 4690 
Q 3069 4631 3425 4513 
z
" transform="scale(0.015625)"/>
       <path id="DejaVuSans-6f" d="M 1959 3097 
Q 1497 3097 1228 2736 
Q 959 2375 959 1747 
Q 959 1119 1226 758 
Q 1494 397 1959 397 
Q 2419 397 2687 759 
Q 2956 1122 2956 1747 
Q 2956 2369 2687 2733 
Q 2419 3097 1959 3097 
z
M 1959 3584 
Q 2709 3584 3137 3096 
Q 3566 2609 3566 1747 
Q 3566 888 3137 398 
Q 2709 -91 1959 -91 
Q 1206 -91 779 398 
Q 353 888 353 1747 
Q 353 2609 779 3096 
Q 1206 3584 1959 3584 
z
" transform="scale(0.015625)"/>
       <path id="DejaVuSans-61" d="M 2194 1759 
Q 1497 1759 1228 1600 
Q 959 1441 959 1056 
Q 959 750 1161 570 
Q 1363 391 1709 391 
Q 2188 391 2477 730 
Q 2766 1069 2766 1631 
L 2766 1759 
L 2194 1759 
z
M 3341 1997 
L 3341 0 
L 2766 0 
L 2766 531 
Q 2569 213 2275 61 
Q 1981 -91 1556 -91 
Q 1019 -91 701 211 
Q 384 513 384 1019 
Q 384 1609 779 1909 
Q 1175 2209 1959 2209 
L 2766 2209 
L 2766 2266 
Q 2766 2663 2505 2880 
Q 2244 3097 1772 3097 
Q 1472 3097 1187 3025 
Q 903 2953 641 2809 
L 641 3341 
Q 956 3463 1253 3523 
Q 1550 3584 1831 3584 
Q 2591 3584 2966 3190 
Q 3341 2797 3341 1997 
z
" transform="scale(0.015625)"/>
      </defs>
      <use xlink:href="#DejaVuSans-53"/>
      <use xlink:href="#DejaVuSans-6f" x="63.476562"/>
      <use xlink:href="#DejaVuSans-6d" x="124.658203"/>
      <use xlink:href="#DejaVuSans-61" x="222.070312"/>
     </g>
    </g>
    <g id="line2d_26">
     <path d="M 697.098438 62.336562 
L 707.098438 62.336562 
L 717.098438 62.336562 
" style="fill: none; stroke: #4169e1; stroke-width: 1.5; stroke-linecap: square"/>
    </g>
    <g id="text_15">
     <!-- Dendrite -->
     <g transform="translate(725.098438 65.836562) scale(0.1 -0.1)">
      <defs>
       <path id="DejaVuSans-44" d="M 1259 4147 
L 1259 519 
L 2022 519 
Q 2988 519 3436 956 
Q 3884 1394 3884 2338 
Q 3884 3275 3436 3711 
Q 2988 4147 2022 4147 
L 1259 4147 
z
M 628 4666 
L 1925 4666 
Q 3281 4666 3915 4102 
Q 4550 3538 4550 2338 
Q 4550 1131 3912 565 
Q 3275 0 1925 0 
L 628 0 
L 628 4666 
z
" transform="scale(0.015625)"/>
       <path id="DejaVuSans-6e" d="M 3513 2113 
L 3513 0 
L 2938 0 
L 2938 2094 
Q 2938 2591 2744 2837 
Q 2550 3084 2163 3084 
Q 1697 3084 1428 2787 
Q 1159 2491 1159 1978 
L 1159 0 
L 581 0 
L 581 3500 
L 1159 3500 
L 1159 2956 
Q 1366 3272 1645 3428 
Q 1925 3584 2291 3584 
Q 2894 3584 3203 3211 
Q 3513 2838 3513 2113 
z
" transform="scale(0.015625)"/>
       <path id="DejaVuSans-64" d="M 2906 2969 
L 2906 4863 
L 3481 4863 
L 3481 0 
L 2906 0 
L 2906 525 
Q 2725 213 2448 61 
Q 2172 -91 1784 -91 
Q 1150 -91 751 415 
Q 353 922 353 1747 
Q 353 2572 751 3078 
Q 1150 3584 1784 3584 
Q 2172 3584 2448 3432 
Q 2725 3281 2906 2969 
z
M 947 1747 
Q 947 1113 1208 752 
Q 1469 391 1925 391 
Q 2381 391 2643 752 
Q 2906 1113 2906 1747 
Q 2906 2381 2643 2742 
Q 2381 3103 1925 3103 
Q 1469 3103 1208 2742 
Q 947 2381 947 1747 
z
" transform="scale(0.015625)"/>
       <path id="DejaVuSans-72" d="M 2631 2963 
Q 2534 3019 2420 3045 
Q 2306 3072 2169 3072 
Q 1681 3072 1420 2755 
Q 1159 2438 1159 1844 
L 1159 0 
L 581 0 
L 581 3500 
L 1159 3500 
L 1159 2956 
Q 1341 3275 1631 3429 
Q 1922 3584 2338 3584 
Q 2397 3584 2469 3576 
Q 2541 3569 2628 3553 
L 2631 2963 
z
" transform="scale(0.015625)"/>
       <path id="DejaVuSans-74" d="M 1172 4494 
L 1172 3500 
L 2356 3500 
L 2356 3053 
L 1172 3053 
L 1172 1153 
Q 1172 725 1289 603 
Q 1406 481 1766 481 
L 2356 481 
L 2356 0 
L 1766 0 
Q 1100 0 847 248 
Q 594 497 594 1153 
L 594 3053 
L 172 3053 
L 172 3500 
L 594 3500 
L 594 4494 
L 1172 4494 
z
" transform="scale(0.015625)"/>
      </defs>
      <use xlink:href="#DejaVuSans-44"/>
      <use xlink:href="#DejaVuSans-65" x="77.001953"/>
      <use xlink:href="#DejaVuSans-6e" x="138.525391"/>
      <use xlink:href="#DejaVuSans-64" x="201.904297"/>
      <use xlink:href="#DejaVuSans-72" x="265.380859"/>
      <use xlink:href="#DejaVuSans-69" x="306.494141"/>
      <use xlink:href="#DejaVuSans-74" x="334.277344"/>
      <use xlink:href="#DejaVuSans-65" x="373.486328"/>
     </g>
    </g>
   </g>
  </g>
 </g>
 <defs>
  <clipPath id="pc93db392c0">
   <rect x="108" y="34.56" width="669.6" height="221.76"/>
  </clipPath>
 </defs>
</svg>
