<?xml version="1.0" encoding="utf-8" standalone="no"?>
<!DOCTYPE svg PUBLIC "-//W3C//DTD SVG 1.1//EN"
  "http://www.w3.org/Graphics/SVG/1.1/DTD/svg11.dtd">
<svg xmlns:xlink="http://www.w3.org/1999/xlink" width="864pt" height="288pt" viewBox="0 0 864 288" xmlns="http://www.w3.org/2000/svg" version="1.1">
 <metadata>
  <rdf:RDF xmlns:dc="http://purl.org/dc/elements/1.1/" xmlns:cc="http://creativecommons.org/ns#" xmlns:rdf="http://www.w3.org/1999/02/22-rdf-syntax-ns#">
   <cc:Work>
    <dc:type rdf:resource="http://purl.org/dc/dcmitype/StillImage"/>
    <dc:date>2024-04-26T13:23:20.522616</dc:date>
    <dc:format>image/svg+xml</dc:format>
    <dc:creator>
     <cc:Agent>
      <dc:title>Matplotlib v3.8.2, https://matplotlib.org/</dc:title>
     </cc:Agent>
    </dc:creator>
   </cc:Work>
  </rdf:RDF>
 </metadata>
 <defs>
  <style type="text/css">*{stroke-linejoin: round; stroke-linecap: butt}</style>
 </defs>
 <g id="figure_1">
  <g id="patch_1">
   <path d="M 0 288 
L 864 288 
L 864 0 
L 0 0 
z
" style="fill: #ffffff"/>
  </g>
  <g id="axes_1">
   <g id="patch_2">
    <path d="M 108 256.32 
L 777.6 256.32 
L 777.6 34.56 
L 108 34.56 
z
" style="fill: #ffffff"/>
   </g>
   <g id="matplotlib.axis_1">
    <g id="xtick_1">
     <g id="line2d_1">
      <path d="M 108 256.32 
L 108 34.56 
" clip-path="url(#ped58446c34)" style="fill: none; stroke: #b0b0b0; stroke-width: 0.8; stroke-linecap: square"/>
     </g>
     <g id="line2d_2">
      <defs>
       <path id="m70f29434a7" d="M 0 0 
L 0 3.5 
" style="stroke: #000000; stroke-width: 0.8"/>
      </defs>
      <g>
       <use xlink:href="#m70f29434a7" x="108" y="256.32" style="stroke: #000000; stroke-width: 0.8"/>
      </g>
     </g>
     <g id="text_1">
      <!-- 100 -->
      <g transform="translate(94.63875 273.957812) scale(0.14 -0.14)">
       <defs>
        <path id="DejaVuSans-31" d="M 794 531 
L 1825 531 
L 1825 4091 
L 703 3866 
L 703 4441 
L 1819 4666 
L 2450 4666 
L 2450 531 
L 3481 531 
L 3481 0 
L 794 0 
L 794 531 
z
" transform="scale(0.015625)"/>
        <path id="DejaVuSans-30" d="M 2034 4250 
Q 1547 4250 1301 3770 
Q 1056 3291 1056 2328 
Q 1056 1369 1301 889 
Q 1547 409 2034 409 
Q 2525 409 2770 889 
Q 3016 1369 3016 2328 
Q 3016 3291 2770 3770 
Q 2525 4250 2034 4250 
z
M 2034 4750 
Q 2819 4750 3233 4129 
Q 3647 3509 3647 2328 
Q 3647 1150 3233 529 
Q 2819 -91 2034 -91 
Q 1250 -91 836 529 
Q 422 1150 422 2328 
Q 422 3509 836 4129 
Q 1250 4750 2034 4750 
z
" transform="scale(0.015625)"/>
       </defs>
       <use xlink:href="#DejaVuSans-31"/>
       <use xlink:href="#DejaVuSans-30" x="63.623047"/>
       <use xlink:href="#DejaVuSans-30" x="127.246094"/>
      </g>
     </g>
    </g>
    <g id="xtick_2">
     <g id="line2d_3">
      <path d="M 241.92 256.32 
L 241.92 34.56 
" clip-path="url(#ped58446c34)" style="fill: none; stroke: #b0b0b0; stroke-width: 0.8; stroke-linecap: square"/>
     </g>
     <g id="line2d_4">
      <g>
       <use xlink:href="#m70f29434a7" x="241.92" y="256.32" style="stroke: #000000; stroke-width: 0.8"/>
      </g>
     </g>
     <g id="text_2">
      <!-- 120 -->
      <g transform="translate(228.55875 273.957812) scale(0.14 -0.14)">
       <defs>
        <path id="DejaVuSans-32" d="M 1228 531 
L 3431 531 
L 3431 0 
L 469 0 
L 469 531 
Q 828 903 1448 1529 
Q 2069 2156 2228 2338 
Q 2531 2678 2651 2914 
Q 2772 3150 2772 3378 
Q 2772 3750 2511 3984 
Q 2250 4219 1831 4219 
Q 1534 4219 1204 4116 
Q 875 4013 500 3803 
L 500 4441 
Q 881 4594 1212 4672 
Q 1544 4750 1819 4750 
Q 2544 4750 2975 4387 
Q 3406 4025 3406 3419 
Q 3406 3131 3298 2873 
Q 3191 2616 2906 2266 
Q 2828 2175 2409 1742 
Q 1991 1309 1228 531 
z
" transform="scale(0.015625)"/>
       </defs>
       <use xlink:href="#DejaVuSans-31"/>
       <use xlink:href="#DejaVuSans-32" x="63.623047"/>
       <use xlink:href="#DejaVuSans-30" x="127.246094"/>
      </g>
     </g>
    </g>
    <g id="xtick_3">
     <g id="line2d_5">
      <path d="M 375.84 256.32 
L 375.84 34.56 
" clip-path="url(#ped58446c34)" style="fill: none; stroke: #b0b0b0; stroke-width: 0.8; stroke-linecap: square"/>
     </g>
     <g id="line2d_6">
      <g>
       <use xlink:href="#m70f29434a7" x="375.84" y="256.32" style="stroke: #000000; stroke-width: 0.8"/>
      </g>
     </g>
     <g id="text_3">
      <!-- 140 -->
      <g transform="translate(362.47875 273.957812) scale(0.14 -0.14)">
       <defs>
        <path id="DejaVuSans-34" d="M 2419 4116 
L 825 1625 
L 2419 1625 
L 2419 4116 
z
M 2253 4666 
L 3047 4666 
L 3047 1625 
L 3713 1625 
L 3713 1100 
L 3047 1100 
L 3047 0 
L 2419 0 
L 2419 1100 
L 313 1100 
L 313 1709 
L 2253 4666 
z
" transform="scale(0.015625)"/>
       </defs>
       <use xlink:href="#DejaVuSans-31"/>
       <use xlink:href="#DejaVuSans-34" x="63.623047"/>
       <use xlink:href="#DejaVuSans-30" x="127.246094"/>
      </g>
     </g>
    </g>
    <g id="xtick_4">
     <g id="line2d_7">
      <path d="M 509.76 256.32 
L 509.76 34.56 
" clip-path="url(#ped58446c34)" style="fill: none; stroke: #b0b0b0; stroke-width: 0.8; stroke-linecap: square"/>
     </g>
     <g id="line2d_8">
      <g>
       <use xlink:href="#m70f29434a7" x="509.76" y="256.32" style="stroke: #000000; stroke-width: 0.8"/>
      </g>
     </g>
     <g id="text_4">
      <!-- 160 -->
      <g transform="translate(496.39875 273.957812) scale(0.14 -0.14)">
       <defs>
        <path id="DejaVuSans-36" d="M 2113 2584 
Q 1688 2584 1439 2293 
Q 1191 2003 1191 1497 
Q 1191 994 1439 701 
Q 1688 409 2113 409 
Q 2538 409 2786 701 
Q 3034 994 3034 1497 
Q 3034 2003 2786 2293 
Q 2538 2584 2113 2584 
z
M 3366 4563 
L 3366 3988 
Q 3128 4100 2886 4159 
Q 2644 4219 2406 4219 
Q 1781 4219 1451 3797 
Q 1122 3375 1075 2522 
Q 1259 2794 1537 2939 
Q 1816 3084 2150 3084 
Q 2853 3084 3261 2657 
Q 3669 2231 3669 1497 
Q 3669 778 3244 343 
Q 2819 -91 2113 -91 
Q 1303 -91 875 529 
Q 447 1150 447 2328 
Q 447 3434 972 4092 
Q 1497 4750 2381 4750 
Q 2619 4750 2861 4703 
Q 3103 4656 3366 4563 
z
" transform="scale(0.015625)"/>
       </defs>
       <use xlink:href="#DejaVuSans-31"/>
       <use xlink:href="#DejaVuSans-36" x="63.623047"/>
       <use xlink:href="#DejaVuSans-30" x="127.246094"/>
      </g>
     </g>
    </g>
    <g id="xtick_5">
     <g id="line2d_9">
      <path d="M 643.68 256.32 
L 643.68 34.56 
" clip-path="url(#ped58446c34)" style="fill: none; stroke: #b0b0b0; stroke-width: 0.8; stroke-linecap: square"/>
     </g>
     <g id="line2d_10">
      <g>
       <use xlink:href="#m70f29434a7" x="643.68" y="256.32" style="stroke: #000000; stroke-width: 0.8"/>
      </g>
     </g>
     <g id="text_5">
      <!-- 180 -->
      <g transform="translate(630.31875 273.957812) scale(0.14 -0.14)">
       <defs>
        <path id="DejaVuSans-38" d="M 2034 2216 
Q 1584 2216 1326 1975 
Q 1069 1734 1069 1313 
Q 1069 891 1326 650 
Q 1584 409 2034 409 
Q 2484 409 2743 651 
Q 3003 894 3003 1313 
Q 3003 1734 2745 1975 
Q 2488 2216 2034 2216 
z
M 1403 2484 
Q 997 2584 770 2862 
Q 544 3141 544 3541 
Q 544 4100 942 4425 
Q 1341 4750 2034 4750 
Q 2731 4750 3128 4425 
Q 3525 4100 3525 3541 
Q 3525 3141 3298 2862 
Q 3072 2584 2669 2484 
Q 3125 2378 3379 2068 
Q 3634 1759 3634 1313 
Q 3634 634 3220 271 
Q 2806 -91 2034 -91 
Q 1263 -91 848 271 
Q 434 634 434 1313 
Q 434 1759 690 2068 
Q 947 2378 1403 2484 
z
M 1172 3481 
Q 1172 3119 1398 2916 
Q 1625 2713 2034 2713 
Q 2441 2713 2670 2916 
Q 2900 3119 2900 3481 
Q 2900 3844 2670 4047 
Q 2441 4250 2034 4250 
Q 1625 4250 1398 4047 
Q 1172 3844 1172 3481 
z
" transform="scale(0.015625)"/>
       </defs>
       <use xlink:href="#DejaVuSans-31"/>
       <use xlink:href="#DejaVuSans-38" x="63.623047"/>
       <use xlink:href="#DejaVuSans-30" x="127.246094"/>
      </g>
     </g>
    </g>
    <g id="xtick_6">
     <g id="line2d_11">
      <path d="M 777.6 256.32 
L 777.6 34.56 
" clip-path="url(#ped58446c34)" style="fill: none; stroke: #b0b0b0; stroke-width: 0.8; stroke-linecap: square"/>
     </g>
     <g id="line2d_12">
      <g>
       <use xlink:href="#m70f29434a7" x="777.6" y="256.32" style="stroke: #000000; stroke-width: 0.8"/>
      </g>
     </g>
     <g id="text_6">
      <!-- 200 -->
      <g transform="translate(764.23875 273.957812) scale(0.14 -0.14)">
       <use xlink:href="#DejaVuSans-32"/>
       <use xlink:href="#DejaVuSans-30" x="63.623047"/>
       <use xlink:href="#DejaVuSans-30" x="127.246094"/>
      </g>
     </g>
    </g>
    <g id="text_7">
     <!-- Time (ms) -->
     <g transform="translate(407.521094 291.507187) scale(0.14 -0.14)">
      <defs>
       <path id="DejaVuSans-54" d="M -19 4666 
L 3928 4666 
L 3928 4134 
L 2272 4134 
L 2272 0 
L 1638 0 
L 1638 4134 
L -19 4134 
L -19 4666 
z
" transform="scale(0.015625)"/>
       <path id="DejaVuSans-69" d="M 603 3500 
L 1178 3500 
L 1178 0 
L 603 0 
L 603 3500 
z
M 603 4863 
L 1178 4863 
L 1178 4134 
L 603 4134 
L 603 4863 
z
" transform="scale(0.015625)"/>
       <path id="DejaVuSans-6d" d="M 3328 2828 
Q 3544 3216 3844 3400 
Q 4144 3584 4550 3584 
Q 5097 3584 5394 3201 
Q 5691 2819 5691 2113 
L 5691 0 
L 5113 0 
L 5113 2094 
Q 5113 2597 4934 2840 
Q 4756 3084 4391 3084 
Q 3944 3084 3684 2787 
Q 3425 2491 3425 1978 
L 3425 0 
L 2847 0 
L 2847 2094 
Q 2847 2600 2669 2842 
Q 2491 3084 2119 3084 
Q 1678 3084 1418 2786 
Q 1159 2488 1159 1978 
L 1159 0 
L 581 0 
L 581 3500 
L 1159 3500 
L 1159 2956 
Q 1356 3278 1631 3431 
Q 1906 3584 2284 3584 
Q 2666 3584 2933 3390 
Q 3200 3197 3328 2828 
z
" transform="scale(0.015625)"/>
       <path id="DejaVuSans-65" d="M 3597 1894 
L 3597 1613 
L 953 1613 
Q 991 1019 1311 708 
Q 1631 397 2203 397 
Q 2534 397 2845 478 
Q 3156 559 3463 722 
L 3463 178 
Q 3153 47 2828 -22 
Q 2503 -91 2169 -91 
Q 1331 -91 842 396 
Q 353 884 353 1716 
Q 353 2575 817 3079 
Q 1281 3584 2069 3584 
Q 2775 3584 3186 3129 
Q 3597 2675 3597 1894 
z
M 3022 2063 
Q 3016 2534 2758 2815 
Q 2500 3097 2075 3097 
Q 1594 3097 1305 2825 
Q 1016 2553 972 2059 
L 3022 2063 
z
" transform="scale(0.015625)"/>
       <path id="DejaVuSans-20" transform="scale(0.015625)"/>
       <path id="DejaVuSans-28" d="M 1984 4856 
Q 1566 4138 1362 3434 
Q 1159 2731 1159 2009 
Q 1159 1288 1364 580 
Q 1569 -128 1984 -844 
L 1484 -844 
Q 1016 -109 783 600 
Q 550 1309 550 2009 
Q 550 2706 781 3412 
Q 1013 4119 1484 4856 
L 1984 4856 
z
" transform="scale(0.015625)"/>
       <path id="DejaVuSans-73" d="M 2834 3397 
L 2834 2853 
Q 2591 2978 2328 3040 
Q 2066 3103 1784 3103 
Q 1356 3103 1142 2972 
Q 928 2841 928 2578 
Q 928 2378 1081 2264 
Q 1234 2150 1697 2047 
L 1894 2003 
Q 2506 1872 2764 1633 
Q 3022 1394 3022 966 
Q 3022 478 2636 193 
Q 2250 -91 1575 -91 
Q 1294 -91 989 -36 
Q 684 19 347 128 
L 347 722 
Q 666 556 975 473 
Q 1284 391 1588 391 
Q 1994 391 2212 530 
Q 2431 669 2431 922 
Q 2431 1156 2273 1281 
Q 2116 1406 1581 1522 
L 1381 1569 
Q 847 1681 609 1914 
Q 372 2147 372 2553 
Q 372 3047 722 3315 
Q 1072 3584 1716 3584 
Q 2034 3584 2315 3537 
Q 2597 3491 2834 3397 
z
" transform="scale(0.015625)"/>
       <path id="DejaVuSans-29" d="M 513 4856 
L 1013 4856 
Q 1481 4119 1714 3412 
Q 1947 2706 1947 2009 
Q 1947 1309 1714 600 
Q 1481 -109 1013 -844 
L 513 -844 
Q 928 -128 1133 580 
Q 1338 1288 1338 2009 
Q 1338 2731 1133 3434 
Q 928 4138 513 4856 
z
" transform="scale(0.015625)"/>
      </defs>
      <use xlink:href="#DejaVuSans-54"/>
      <use xlink:href="#DejaVuSans-69" x="57.958984"/>
      <use xlink:href="#DejaVuSans-6d" x="85.742188"/>
      <use xlink:href="#DejaVuSans-65" x="183.154297"/>
      <use xlink:href="#DejaVuSans-20" x="244.677734"/>
      <use xlink:href="#DejaVuSans-28" x="276.464844"/>
      <use xlink:href="#DejaVuSans-6d" x="315.478516"/>
      <use xlink:href="#DejaVuSans-73" x="412.890625"/>
      <use xlink:href="#DejaVuSans-29" x="464.990234"/>
     </g>
    </g>
   </g>
   <g id="matplotlib.axis_2">
    <g id="ytick_1">
     <g id="line2d_13">
      <path d="M 108 224.478287 
L 777.6 224.478287 
" clip-path="url(#ped58446c34)" style="fill: none; stroke: #b0b0b0; stroke-width: 0.8; stroke-linecap: square"/>
     </g>
     <g id="line2d_14">
      <defs>
       <path id="mebacf1ab89" d="M 0 0 
L -3.5 0 
" style="stroke: #000000; stroke-width: 0.8"/>
      </defs>
      <g>
       <use xlink:href="#mebacf1ab89" x="108" y="224.478287" style="stroke: #000000; stroke-width: 0.8"/>
      </g>
     </g>
     <g id="text_8">
      <!-- −60 -->
      <g transform="translate(71.453437 229.797193) scale(0.14 -0.14)">
       <defs>
        <path id="DejaVuSans-2212" d="M 678 2272 
L 4684 2272 
L 4684 1741 
L 678 1741 
L 678 2272 
z
" transform="scale(0.015625)"/>
       </defs>
       <use xlink:href="#DejaVuSans-2212"/>
       <use xlink:href="#DejaVuSans-36" x="83.789062"/>
       <use xlink:href="#DejaVuSans-30" x="147.412109"/>
      </g>
     </g>
    </g>
    <g id="ytick_2">
     <g id="line2d_15">
      <path d="M 108 181.024211 
L 777.6 181.024211 
" clip-path="url(#ped58446c34)" style="fill: none; stroke: #b0b0b0; stroke-width: 0.8; stroke-linecap: square"/>
     </g>
     <g id="line2d_16">
      <g>
       <use xlink:href="#mebacf1ab89" x="108" y="181.024211" style="stroke: #000000; stroke-width: 0.8"/>
      </g>
     </g>
     <g id="text_9">
      <!-- −40 -->
      <g transform="translate(71.453437 186.343117) scale(0.14 -0.14)">
       <use xlink:href="#DejaVuSans-2212"/>
       <use xlink:href="#DejaVuSans-34" x="83.789062"/>
       <use xlink:href="#DejaVuSans-30" x="147.412109"/>
      </g>
     </g>
    </g>
    <g id="ytick_3">
     <g id="line2d_17">
      <path d="M 108 137.570136 
L 777.6 137.570136 
" clip-path="url(#ped58446c34)" style="fill: none; stroke: #b0b0b0; stroke-width: 0.8; stroke-linecap: square"/>
     </g>
     <g id="line2d_18">
      <g>
       <use xlink:href="#mebacf1ab89" x="108" y="137.570136" style="stroke: #000000; stroke-width: 0.8"/>
      </g>
     </g>
     <g id="text_10">
      <!-- −20 -->
      <g transform="translate(71.453437 142.889042) scale(0.14 -0.14)">
       <use xlink:href="#DejaVuSans-2212"/>
       <use xlink:href="#DejaVuSans-32" x="83.789062"/>
       <use xlink:href="#DejaVuSans-30" x="147.412109"/>
      </g>
     </g>
    </g>
    <g id="ytick_4">
     <g id="line2d_19">
      <path d="M 108 94.11606 
L 777.6 94.11606 
" clip-path="url(#ped58446c34)" style="fill: none; stroke: #b0b0b0; stroke-width: 0.8; stroke-linecap: square"/>
     </g>
     <g id="line2d_20">
      <g>
       <use xlink:href="#mebacf1ab89" x="108" y="94.11606" style="stroke: #000000; stroke-width: 0.8"/>
      </g>
     </g>
     <g id="text_11">
      <!-- 0 -->
      <g transform="translate(92.0925 99.434966) scale(0.14 -0.14)">
       <use xlink:href="#DejaVuSans-30"/>
      </g>
     </g>
    </g>
    <g id="ytick_5">
     <g id="line2d_21">
      <path d="M 108 50.661984 
L 777.6 50.661984 
" clip-path="url(#ped58446c34)" style="fill: none; stroke: #b0b0b0; stroke-width: 0.8; stroke-linecap: square"/>
     </g>
     <g id="line2d_22">
      <g>
       <use xlink:href="#mebacf1ab89" x="108" y="50.661984" style="stroke: #000000; stroke-width: 0.8"/>
      </g>
     </g>
     <g id="text_12">
      <!-- 20 -->
      <g transform="translate(83.185 55.98089) scale(0.14 -0.14)">
       <use xlink:href="#DejaVuSans-32"/>
       <use xlink:href="#DejaVuSans-30" x="63.623047"/>
      </g>
     </g>
    </g>
    <g id="text_13">
     <!-- $V_{m}$ (mV) -->
     <g transform="translate(64.541875 174.49) rotate(-90) scale(0.14 -0.14)">
      <defs>
       <path id="DejaVuSans-Oblique-56" d="M 1319 0 
L 500 4666 
L 1119 4666 
L 1797 653 
L 4063 4666 
L 4750 4666 
L 2053 0 
L 1319 0 
z
" transform="scale(0.015625)"/>
       <path id="DejaVuSans-Oblique-6d" d="M 5747 2113 
L 5338 0 
L 4763 0 
L 5166 2094 
Q 5191 2228 5203 2325 
Q 5216 2422 5216 2491 
Q 5216 2772 5059 2928 
Q 4903 3084 4622 3084 
Q 4203 3084 3875 2770 
Q 3547 2456 3450 1953 
L 3066 0 
L 2491 0 
L 2900 2094 
Q 2925 2209 2937 2307 
Q 2950 2406 2950 2484 
Q 2950 2769 2794 2926 
Q 2638 3084 2363 3084 
Q 1938 3084 1609 2770 
Q 1281 2456 1184 1953 
L 800 0 
L 225 0 
L 909 3500 
L 1484 3500 
L 1375 2956 
Q 1609 3263 1923 3423 
Q 2238 3584 2597 3584 
Q 2978 3584 3223 3384 
Q 3469 3184 3519 2828 
Q 3781 3197 4126 3390 
Q 4472 3584 4856 3584 
Q 5306 3584 5551 3325 
Q 5797 3066 5797 2591 
Q 5797 2488 5784 2364 
Q 5772 2241 5747 2113 
z
" transform="scale(0.015625)"/>
       <path id="DejaVuSans-56" d="M 1831 0 
L 50 4666 
L 709 4666 
L 2188 738 
L 3669 4666 
L 4325 4666 
L 2547 0 
L 1831 0 
z
" transform="scale(0.015625)"/>
      </defs>
      <use xlink:href="#DejaVuSans-Oblique-56" transform="translate(0 0.125)"/>
      <use xlink:href="#DejaVuSans-Oblique-6d" transform="translate(68.408203 -16.28125) scale(0.7)"/>
      <use xlink:href="#DejaVuSans-20" transform="translate(139.331055 0.125)"/>
      <use xlink:href="#DejaVuSans-28" transform="translate(171.118164 0.125)"/>
      <use xlink:href="#DejaVuSans-6d" transform="translate(210.131836 0.125)"/>
      <use xlink:href="#DejaVuSans-56" transform="translate(307.543945 0.125)"/>
      <use xlink:href="#DejaVuSans-29" transform="translate(375.952148 0.125)"/>
     </g>
    </g>
   </g>
   <g id="line2d_23">
    <path d="M 108 220.990825 
L 109.3392 221.653029 
L 110.6784 222.083216 
L 111.348 222.241777 
L 112.6872 223.174274 
L 114.0264 223.621363 
L 116.0352 225.161938 
L 118.044 227.583711 
L 118.7136 228.676476 
L 119.3832 229.521886 
L 120.0528 230.059666 
L 120.7224 231.077044 
L 122.7312 233.324349 
L 124.0704 234.092425 
L 125.4096 234.58716 
L 127.4184 235.058203 
L 129.4272 235.309278 
L 132.1056 235.393787 
L 134.1144 235.307237 
L 136.1232 236.021973 
L 136.7928 236.732505 
L 137.4624 237.179182 
L 140.8104 237.997255 
L 142.8192 238.012126 
L 143.4888 237.977742 
L 144.828 238.358518 
L 146.1672 238.417497 
L 148.176 238.290856 
L 149.5152 238.620409 
L 150.8544 238.628367 
L 153.5328 238.324697 
L 156.8808 237.669986 
L 160.8984 236.608585 
L 164.916 235.308355 
L 169.6032 233.541689 
L 174.2904 231.548227 
L 179.6472 229.036551 
L 185.6736 225.964258 
L 192.3696 222.307473 
L 198.396 218.854449 
L 199.7352 218.884472 
L 201.0744 218.498938 
L 203.7528 217.366997 
L 205.7616 216.416931 
L 207.1008 216.601079 
L 208.44 216.342483 
L 209.7792 216.751352 
L 211.1184 216.662854 
L 213.1272 216.205185 
L 216.4752 215.134588 
L 220.4928 213.600204 
L 225.8496 211.297646 
L 227.1888 211.608799 
L 227.8584 212.526089 
L 228.528 213.233663 
L 229.1976 213.581225 
L 230.5368 213.845145 
L 231.876 213.859763 
L 232.5456 213.815728 
L 234.5544 215.096279 
L 235.8936 216.996746 
L 236.5632 218.118759 
L 239.2416 221.305447 
L 239.9112 222.336869 
L 240.5808 223.822337 
L 241.2504 224.913733 
L 241.92 225.614779 
L 243.2592 226.532596 
L 244.5984 227.140259 
L 245.9376 228.188058 
L 246.6072 228.508882 
L 247.2768 229.082394 
L 247.9464 229.868737 
L 249.9552 231.655805 
L 251.2944 232.832083 
L 252.6336 233.442308 
L 253.9728 233.818277 
L 255.312 235.115337 
L 255.9816 235.740711 
L 256.6512 236.202779 
L 257.9904 236.722324 
L 259.9992 237.120544 
L 260.6688 237.196341 
L 262.008 237.776008 
L 263.3472 238.000075 
L 264.6864 238.074811 
L 267.3648 239.158979 
L 268.704 239.351477 
L 270.0432 239.339604 
L 270.7128 239.231701 
L 272.052 239.38326 
L 274.0608 239.116584 
L 278.748 238.161338 
L 282.096 237.337712 
L 283.4352 237.483346 
L 284.7744 237.322774 
L 287.4528 236.717676 
L 290.8008 235.740533 
L 291.4704 235.523807 
L 292.8096 235.617911 
L 294.1488 235.392327 
L 296.8272 234.645848 
L 300.8448 233.245298 
L 305.532 231.346294 
L 310.8888 228.911162 
L 316.9152 225.903019 
L 323.6112 222.300088 
L 331.6464 217.719002 
L 343.6992 210.559882 
L 345.0384 209.745634 
L 346.3776 209.888781 
L 347.7168 209.581583 
L 349.7256 208.820487 
L 353.0736 207.272198 
L 354.4128 206.598825 
L 355.752 207.907003 
L 356.4216 208.191795 
L 358.4304 210.047966 
L 359.1 211.090167 
L 359.7696 211.828896 
L 360.4392 212.27698 
L 361.7784 212.777872 
L 363.1176 214.70212 
L 363.7872 215.653484 
L 364.4568 216.362464 
L 366.4656 217.828992 
L 367.1352 218.375604 
L 367.8048 218.732308 
L 369.144 219.934963 
L 370.4832 220.537746 
L 371.8224 220.884954 
L 372.492 221.004004 
L 373.8312 222.593629 
L 374.5008 224.125522 
L 375.1704 225.303772 
L 375.84 226.01431 
L 377.1792 226.891326 
L 378.5184 227.447143 
L 379.188 227.654688 
L 379.8576 228.166614 
L 381.8664 230.396098 
L 382.536 230.795793 
L 383.8752 231.88558 
L 384.5448 232.211192 
L 386.5536 233.779425 
L 387.2232 234.231023 
L 388.5624 234.748461 
L 391.2408 235.523267 
L 391.9104 236.093744 
L 392.58 236.488673 
L 393.9192 236.880064 
L 395.928 237.119421 
L 399.276 237.372413 
L 402.624 238.19462 
L 403.2936 238.224437 
L 403.9632 238.445211 
L 404.6328 238.546667 
L 405.972 238.889625 
L 407.3112 238.832922 
L 407.9808 238.754735 
L 409.32 239.039588 
L 410.6592 239.020115 
L 413.3376 238.706725 
L 416.6856 238.088469 
L 420.7032 237.096298 
L 424.7208 235.868995 
L 426.7296 235.177084 
L 428.0688 235.242397 
L 429.408 234.988805 
L 432.0864 234.190557 
L 436.104 232.723102 
L 440.7912 230.758776 
L 446.148 228.261902 
L 452.1744 225.19778 
L 458.8704 221.547669 
L 467.5752 216.536938 
L 472.932 213.365308 
L 474.2712 213.463662 
L 475.6104 213.117989 
L 476.9496 212.605489 
L 478.2888 212.929369 
L 479.628 212.770463 
L 481.6368 212.212932 
L 483.6456 211.512119 
L 484.9848 211.911682 
L 485.6544 212.388393 
L 486.324 212.722498 
L 487.6632 212.88652 
L 489.0024 212.799179 
L 490.3416 214.326807 
L 491.0112 214.678016 
L 491.6808 215.320508 
L 492.3504 216.24676 
L 493.02 216.894139 
L 493.6896 217.283309 
L 494.3592 217.965587 
L 495.0288 218.913771 
L 495.6984 219.590407 
L 497.7072 220.947522 
L 498.3768 221.451782 
L 499.716 222.008387 
L 501.0552 222.317804 
L 502.3944 223.198852 
L 503.7336 223.593371 
L 504.4032 223.704647 
L 505.7424 224.5205 
L 507.0816 224.86392 
L 507.7512 224.953097 
L 508.4208 225.376894 
L 510.4296 228.593072 
L 511.0992 229.312608 
L 512.4384 230.120651 
L 513.7776 230.592246 
L 515.1168 231.470033 
L 515.7864 232.337268 
L 516.456 233.011351 
L 517.1256 233.420825 
L 519.804 236.80813 
L 521.1432 237.551088 
L 522.4824 238.003473 
L 523.152 238.167958 
L 523.8216 238.561653 
L 524.4912 239.132238 
L 526.5 240.402826 
L 527.8392 241.239363 
L 529.1784 241.625672 
L 529.848 241.742415 
L 531.1872 242.311589 
L 532.5264 242.541162 
L 534.5352 242.635023 
L 537.2136 242.514661 
L 538.5528 242.243627 
L 550.6056 238.518782 
L 555.2928 236.865765 
L 559.98 234.999005 
L 565.3368 232.623523 
L 571.3632 229.682285 
L 578.0592 226.135855 
L 585.4248 221.969245 
L 594.7992 216.397424 
L 602.1648 211.909443 
L 603.504 212.010783 
L 604.8432 211.663881 
L 607.5216 210.560405 
L 611.5392 208.616253 
L 613.548 207.564681 
L 614.8872 207.838125 
L 616.2264 207.663526 
L 618.2352 207.064608 
L 620.9136 206.020087 
L 622.9224 205.093271 
L 624.2616 205.47572 
L 624.9312 205.501428 
L 625.6008 205.969024 
L 626.2704 206.876406 
L 626.94 207.55451 
L 627.6096 207.952804 
L 628.9488 208.352751 
L 629.6184 208.442416 
L 630.288 208.982666 
L 630.9576 210.399028 
L 631.6272 211.480911 
L 632.2968 212.130522 
L 633.636 212.874982 
L 634.9752 214.123166 
L 635.6448 214.481352 
L 636.984 215.734388 
L 637.6536 216.093055 
L 638.9928 219.251055 
L 639.6624 220.316694 
L 640.332 221.014383 
L 641.6712 222.631304 
L 642.3408 223.140066 
L 643.0104 223.903526 
L 643.68 224.884671 
L 644.3496 225.612443 
L 645.0192 226.114639 
L 646.3584 227.440139 
L 648.3672 228.786134 
L 649.0368 229.603668 
L 649.7064 230.203984 
L 653.0544 232.236961 
L 653.724 232.772794 
L 654.3936 233.498622 
L 658.4112 236.664617 
L 659.7504 238.210411 
L 660.42 238.763067 
L 661.7592 239.401869 
L 663.0984 239.787103 
L 665.1072 240.122327 
L 668.4552 240.521682 
L 669.7944 240.790126 
L 671.1336 240.827765 
L 672.4728 240.644554 
L 676.4904 239.560441 
L 684.5256 237.323344 
L 689.2128 235.761217 
L 693.9 233.967985 
L 695.2392 233.990282 
L 696.5784 233.688857 
L 699.2568 232.79514 
L 703.2744 231.197622 
L 707.9616 229.10194 
L 713.3184 226.478707 
L 720.0144 222.93417 
L 728.0496 218.398709 
L 739.4328 211.675363 
L 742.7808 209.651517 
L 744.12 209.796014 
L 745.4592 209.489907 
L 747.468 208.729408 
L 748.8072 209.110566 
L 750.1464 209.010027 
L 752.1552 208.506498 
L 753.4944 209.036037 
L 754.8336 209.071459 
L 756.1728 208.885706 
L 757.512 209.545402 
L 758.8512 209.684851 
L 760.1904 209.596612 
L 761.5296 210.329121 
L 762.1992 210.476377 
L 763.5384 211.442085 
L 764.8776 211.795751 
L 765.5472 211.861334 
L 766.8864 212.756002 
L 768.2256 213.092698 
L 768.8952 213.160587 
L 770.2344 214.880096 
L 770.904 215.317111 
L 771.5736 215.595964 
L 774.252 218.02588 
L 775.5912 218.634769 
L 776.9304 218.963457 
L 777.6 219.480827 
L 777.6 219.480827 
" clip-path="url(#ped58446c34)" style="fill: none; stroke: #000000; stroke-width: 1.5; stroke-linecap: square"/>
   </g>
   <g id="line2d_24">
    <path d="M 108 209.78975 
L 110.6784 212.244272 
L 114.0264 214.840499 
L 117.3744 217.407081 
L 119.3832 219.277711 
L 122.7312 222.786401 
L 124.74 224.842978 
L 126.7488 226.599076 
L 128.7576 228.05101 
L 130.7664 229.237436 
L 132.7752 230.192849 
L 135.4536 231.195295 
L 136.1232 200.094108 
L 136.7928 187.631975 
L 137.4624 182.060161 
L 138.132 179.267789 
L 138.8016 177.951229 
L 139.4712 177.60944 
L 140.1408 177.986247 
L 140.8104 178.906462 
L 141.48 180.234391 
L 142.8192 183.677415 
L 148.8456 200.924347 
L 150.8544 205.523132 
L 152.8632 209.382029 
L 154.2024 211.553443 
L 155.5416 213.434231 
L 156.8808 215.053614 
L 158.8896 217.052826 
L 160.8984 218.609282 
L 162.9072 219.792855 
L 164.916 220.661317 
L 166.9248 221.262308 
L 168.9336 221.635203 
L 170.9424 221.812675 
L 173.6208 221.791713 
L 176.2992 221.523878 
L 178.9776 221.051025 
L 182.3256 220.222116 
L 185.6736 219.176601 
L 189.6912 217.692244 
L 194.3784 215.711035 
L 201.0744 212.77291 
L 207.7704 210.531732 
L 209.7792 210.13311 
L 219.1536 208.964823 
L 223.1712 208.114947 
L 227.8584 207.072142 
L 229.1976 207.156126 
L 233.8848 208.027299 
L 235.224 208.42839 
L 236.5632 209.098692 
L 237.9024 210.025199 
L 239.9112 211.696225 
L 241.92 213.794019 
L 244.5984 216.614697 
L 251.2944 222.865057 
L 253.9728 225.222829 
L 259.9992 229.949079 
L 262.6776 231.551759 
L 265.356 232.892464 
L 269.3736 234.681261 
L 270.0432 202.841806 
L 270.7128 190.090471 
L 271.3824 184.409953 
L 272.052 181.63098 
L 272.7216 180.381497 
L 273.3912 180.115762 
L 274.0608 180.551688 
L 274.7304 181.504643 
L 275.4 182.835463 
L 276.7392 186.204003 
L 281.4264 199.006916 
L 283.4352 203.511581 
L 285.444 207.343937 
L 286.7832 209.505236 
L 288.1224 211.366378 
L 289.4616 212.954077 
L 290.8008 214.29685 
L 292.8096 215.956736 
L 294.8184 217.346289 
L 296.8272 218.426768 
L 298.836 219.211446 
L 300.8448 219.739939 
L 302.8536 220.049668 
L 304.8624 220.172032 
L 307.5408 220.08805 
L 310.2192 219.766771 
L 312.8976 219.247979 
L 316.2456 218.369901 
L 320.2632 217.043593 
L 324.2808 215.481854 
L 328.968 213.43028 
L 334.9944 210.526779 
L 342.36 206.713838 
L 346.3776 204.631985 
L 349.056 203.62883 
L 355.752 201.361441 
L 357.0912 201.279595 
L 358.4304 201.454031 
L 359.7696 201.924994 
L 362.448 203.321709 
L 363.7872 204.234249 
L 367.1352 206.986858 
L 372.492 211.386846 
L 374.5008 212.98321 
L 377.1792 215.74511 
L 379.188 217.677256 
L 383.2056 221.361095 
L 387.2232 224.975201 
L 389.9016 227.132523 
L 393.9192 229.846923 
L 395.928 231.024838 
L 397.9368 231.976976 
L 402.624 233.753838 
L 403.2936 233.990331 
L 403.9632 202.280486 
L 404.6328 189.578062 
L 405.3024 183.916731 
L 405.972 181.136285 
L 406.6416 179.875793 
L 407.3112 179.597803 
L 407.9808 180.020381 
L 408.6504 180.972611 
L 409.32 182.32504 
L 410.6592 185.793592 
L 415.3464 199.133911 
L 417.3552 203.821508 
L 418.6944 206.487485 
L 420.0336 208.805338 
L 421.3728 210.802613 
L 422.712 212.509852 
L 424.0512 213.957363 
L 425.3904 215.173606 
L 427.3992 216.63317 
L 429.408 217.844185 
L 431.4168 218.80059 
L 433.4256 219.484846 
L 435.4344 219.927537 
L 437.4432 220.163108 
L 440.1216 220.205478 
L 442.8 219.988431 
L 445.4784 219.556481 
L 448.8264 218.767712 
L 452.1744 217.752816 
L 456.192 216.295919 
L 460.8792 214.338101 
L 466.236 211.84605 
L 475.6104 207.32457 
L 478.2888 206.45658 
L 481.6368 205.794423 
L 485.6544 205.141979 
L 487.6632 205.239991 
L 489.672 205.468295 
L 491.0112 205.822075 
L 492.3504 206.368981 
L 494.3592 207.524908 
L 496.368 208.989592 
L 501.7248 213.025226 
L 505.7424 215.678306 
L 510.4296 218.733155 
L 515.1168 222.697038 
L 517.7952 224.918258 
L 520.4736 227.467833 
L 522.4824 229.288317 
L 525.8304 231.880002 
L 529.848 234.788939 
L 532.5264 236.391731 
L 534.5352 237.376538 
L 536.544 238.150731 
L 537.2136 238.365599 
L 537.8832 205.688991 
L 538.5528 192.62613 
L 539.2224 186.834544 
L 539.892 184.070289 
L 540.5616 182.895384 
L 541.2312 182.726323 
L 541.9008 183.260383 
L 542.5704 184.300537 
L 543.9096 187.350132 
L 546.588 194.849794 
L 548.5968 200.216228 
L 550.6056 204.832499 
L 551.9448 207.446998 
L 553.284 209.704577 
L 554.6232 211.63174 
L 555.9624 213.259644 
L 557.3016 214.619959 
L 558.6408 215.742713 
L 559.98 216.655338 
L 561.9888 217.683101 
L 563.9976 218.363362 
L 566.0064 218.754172 
L 568.0152 218.90294 
L 570.024 218.84847 
L 572.7024 218.513946 
L 575.3808 217.934765 
L 578.7288 216.937888 
L 582.0768 215.703173 
L 586.0944 213.982404 
L 590.7816 211.731967 
L 596.808 208.578989 
L 604.1736 204.659772 
L 608.8608 202.887008 
L 615.5568 200.414177 
L 623.592 198.576561 
L 625.6008 198.305545 
L 626.94 198.430246 
L 628.9488 199.01913 
L 630.9576 199.798892 
L 632.2968 200.654636 
L 635.6448 203.234183 
L 638.3232 205.501048 
L 639.6624 206.941333 
L 649.7064 218.711378 
L 652.3848 221.47142 
L 658.4112 227.161282 
L 663.0984 231.475454 
L 665.1072 232.942864 
L 667.116 234.133565 
L 670.464 235.721101 
L 671.1336 235.99586 
L 671.8032 203.87393 
L 672.4728 191.026021 
L 673.1424 185.317277 
L 673.812 182.552222 
L 674.4816 181.331983 
L 675.1512 181.097994 
L 675.8208 181.560826 
L 676.4904 182.533188 
L 677.16 183.875332 
L 678.4992 187.23998 
L 682.5168 198.2313 
L 684.5256 202.861979 
L 685.8648 205.494471 
L 687.204 207.774322 
L 688.5432 209.72668 
L 689.8824 211.381688 
L 691.2216 212.770264 
L 692.5608 213.92189 
L 694.5696 215.276923 
L 696.5784 216.383332 
L 698.5872 217.236879 
L 700.596 217.819233 
L 702.6048 218.161646 
L 704.6136 218.299398 
L 707.292 218.216249 
L 709.9704 217.880197 
L 712.6488 217.336352 
L 715.9968 216.418173 
L 720.0144 215.037514 
L 724.032 213.420418 
L 728.7192 211.308678 
L 734.7456 208.34149 
L 745.4592 202.938901 
L 748.8072 201.855046 
L 751.4856 201.377508 
L 753.4944 201.134367 
L 756.1728 201.111533 
L 758.1816 201.266857 
L 761.5296 201.80533 
L 763.5384 202.377198 
L 766.8864 203.693573 
L 770.2344 205.282488 
L 772.9128 206.990062 
L 777.6 210.377637 
L 777.6 210.377637 
" clip-path="url(#ped58446c34)" style="fill: none; stroke: #4169e1; stroke-width: 1.5; stroke-linecap: square"/>
   </g>
   <g id="patch_3">
    <path d="M 108 256.32 
L 108 34.56 
" style="fill: none; stroke: #000000; stroke-width: 0.8; stroke-linejoin: miter; stroke-linecap: square"/>
   </g>
   <g id="patch_4">
    <path d="M 777.6 256.32 
L 777.6 34.56 
" style="fill: none; stroke: #000000; stroke-width: 0.8; stroke-linejoin: miter; stroke-linecap: square"/>
   </g>
   <g id="patch_5">
    <path d="M 108 256.32 
L 777.6 256.32 
" style="fill: none; stroke: #000000; stroke-width: 0.8; stroke-linejoin: miter; stroke-linecap: square"/>
   </g>
   <g id="patch_6">
    <path d="M 108 34.56 
L 777.6 34.56 
" style="fill: none; stroke: #000000; stroke-width: 0.8; stroke-linejoin: miter; stroke-linecap: square"/>
   </g>
   <g id="legend_1">
    <g id="patch_7">
     <path d="M 695.098438 71.91625 
L 770.6 71.91625 
Q 772.6 71.91625 772.6 69.91625 
L 772.6 41.56 
Q 772.6 39.56 770.6 39.56 
L 695.098438 39.56 
Q 693.098438 39.56 693.098438 41.56 
L 693.098438 69.91625 
Q 693.098438 71.91625 695.098438 71.91625 
z
" style="fill: #ffffff; opacity: 0.8; stroke: #cccccc; stroke-linejoin: miter"/>
    </g>
    <g id="line2d_25">
     <path d="M 697.098438 47.658437 
L 707.098438 47.658437 
L 717.098438 47.658437 
" style="fill: none; stroke: #000000; stroke-width: 1.5; stroke-linecap: square"/>
    </g>
    <g id="text_14">
     <!-- Soma -->
     <g transform="translate(725.098438 51.158437) scale(0.1 -0.1)">
      <defs>
       <path id="DejaVuSans-53" d="M 3425 4513 
L 3425 3897 
Q 3066 4069 2747 4153 
Q 2428 4238 2131 4238 
Q 1616 4238 1336 4038 
Q 1056 3838 1056 3469 
Q 1056 3159 1242 3001 
Q 1428 2844 1947 2747 
L 2328 2669 
Q 3034 2534 3370 2195 
Q 3706 1856 3706 1288 
Q 3706 609 3251 259 
Q 2797 -91 1919 -91 
Q 1588 -91 1214 -16 
Q 841 59 441 206 
L 441 856 
Q 825 641 1194 531 
Q 1563 422 1919 422 
Q 2459 422 2753 634 
Q 3047 847 3047 1241 
Q 3047 1584 2836 1778 
Q 2625 1972 2144 2069 
L 1759 2144 
Q 1053 2284 737 2584 
Q 422 2884 422 3419 
Q 422 4038 858 4394 
Q 1294 4750 2059 4750 
Q 2388 4750 2728 4690 
Q 3069 4631 3425 4513 
z
" transform="scale(0.015625)"/>
       <path id="DejaVuSans-6f" d="M 1959 3097 
Q 1497 3097 1228 2736 
Q 959 2375 959 1747 
Q 959 1119 1226 758 
Q 1494 397 1959 397 
Q 2419 397 2687 759 
Q 2956 1122 2956 1747 
Q 2956 2369 2687 2733 
Q 2419 3097 1959 3097 
z
M 1959 3584 
Q 2709 3584 3137 3096 
Q 3566 2609 3566 1747 
Q 3566 888 3137 398 
Q 2709 -91 1959 -91 
Q 1206 -91 779 398 
Q 353 888 353 1747 
Q 353 2609 779 3096 
Q 1206 3584 1959 3584 
z
" transform="scale(0.015625)"/>
       <path id="DejaVuSans-61" d="M 2194 1759 
Q 1497 1759 1228 1600 
Q 959 1441 959 1056 
Q 959 750 1161 570 
Q 1363 391 1709 391 
Q 2188 391 2477 730 
Q 2766 1069 2766 1631 
L 2766 1759 
L 2194 1759 
z
M 3341 1997 
L 3341 0 
L 2766 0 
L 2766 531 
Q 2569 213 2275 61 
Q 1981 -91 1556 -91 
Q 1019 -91 701 211 
Q 384 513 384 1019 
Q 384 1609 779 1909 
Q 1175 2209 1959 2209 
L 2766 2209 
L 2766 2266 
Q 2766 2663 2505 2880 
Q 2244 3097 1772 3097 
Q 1472 3097 1187 3025 
Q 903 2953 641 2809 
L 641 3341 
Q 956 3463 1253 3523 
Q 1550 3584 1831 3584 
Q 2591 3584 2966 3190 
Q 3341 2797 3341 1997 
z
" transform="scale(0.015625)"/>
      </defs>
      <use xlink:href="#DejaVuSans-53"/>
      <use xlink:href="#DejaVuSans-6f" x="63.476562"/>
      <use xlink:href="#DejaVuSans-6d" x="124.658203"/>
      <use xlink:href="#DejaVuSans-61" x="222.070312"/>
     </g>
    </g>
    <g id="line2d_26">
     <path d="M 697.098438 62.336562 
L 707.098438 62.336562 
L 717.098438 62.336562 
" style="fill: none; stroke: #4169e1; stroke-width: 1.5; stroke-linecap: square"/>
    </g>
    <g id="text_15">
     <!-- Dendrite -->
     <g transform="translate(725.098438 65.836562) scale(0.1 -0.1)">
      <defs>
       <path id="DejaVuSans-44" d="M 1259 4147 
L 1259 519 
L 2022 519 
Q 2988 519 3436 956 
Q 3884 1394 3884 2338 
Q 3884 3275 3436 3711 
Q 2988 4147 2022 4147 
L 1259 4147 
z
M 628 4666 
L 1925 4666 
Q 3281 4666 3915 4102 
Q 4550 3538 4550 2338 
Q 4550 1131 3912 565 
Q 3275 0 1925 0 
L 628 0 
L 628 4666 
z
" transform="scale(0.015625)"/>
       <path id="DejaVuSans-6e" d="M 3513 2113 
L 3513 0 
L 2938 0 
L 2938 2094 
Q 2938 2591 2744 2837 
Q 2550 3084 2163 3084 
Q 1697 3084 1428 2787 
Q 1159 2491 1159 1978 
L 1159 0 
L 581 0 
L 581 3500 
L 1159 3500 
L 1159 2956 
Q 1366 3272 1645 3428 
Q 1925 3584 2291 3584 
Q 2894 3584 3203 3211 
Q 3513 2838 3513 2113 
z
" transform="scale(0.015625)"/>
       <path id="DejaVuSans-64" d="M 2906 2969 
L 2906 4863 
L 3481 4863 
L 3481 0 
L 2906 0 
L 2906 525 
Q 2725 213 2448 61 
Q 2172 -91 1784 -91 
Q 1150 -91 751 415 
Q 353 922 353 1747 
Q 353 2572 751 3078 
Q 1150 3584 1784 3584 
Q 2172 3584 2448 3432 
Q 2725 3281 2906 2969 
z
M 947 1747 
Q 947 1113 1208 752 
Q 1469 391 1925 391 
Q 2381 391 2643 752 
Q 2906 1113 2906 1747 
Q 2906 2381 2643 2742 
Q 2381 3103 1925 3103 
Q 1469 3103 1208 2742 
Q 947 2381 947 1747 
z
" transform="scale(0.015625)"/>
       <path id="DejaVuSans-72" d="M 2631 2963 
Q 2534 3019 2420 3045 
Q 2306 3072 2169 3072 
Q 1681 3072 1420 2755 
Q 1159 2438 1159 1844 
L 1159 0 
L 581 0 
L 581 3500 
L 1159 3500 
L 1159 2956 
Q 1341 3275 1631 3429 
Q 1922 3584 2338 3584 
Q 2397 3584 2469 3576 
Q 2541 3569 2628 3553 
L 2631 2963 
z
" transform="scale(0.015625)"/>
       <path id="DejaVuSans-74" d="M 1172 4494 
L 1172 3500 
L 2356 3500 
L 2356 3053 
L 1172 3053 
L 1172 1153 
Q 1172 725 1289 603 
Q 1406 481 1766 481 
L 2356 481 
L 2356 0 
L 1766 0 
Q 1100 0 847 248 
Q 594 497 594 1153 
L 594 3053 
L 172 3053 
L 172 3500 
L 594 3500 
L 594 4494 
L 1172 4494 
z
" transform="scale(0.015625)"/>
      </defs>
      <use xlink:href="#DejaVuSans-44"/>
      <use xlink:href="#DejaVuSans-65" x="77.001953"/>
      <use xlink:href="#DejaVuSans-6e" x="138.525391"/>
      <use xlink:href="#DejaVuSans-64" x="201.904297"/>
      <use xlink:href="#DejaVuSans-72" x="265.380859"/>
      <use xlink:href="#DejaVuSans-69" x="306.494141"/>
      <use xlink:href="#DejaVuSans-74" x="334.277344"/>
      <use xlink:href="#DejaVuSans-65" x="373.486328"/>
     </g>
    </g>
   </g>
  </g>
 </g>
 <defs>
  <clipPath id="ped58446c34">
   <rect x="108" y="34.56" width="669.6" height="221.76"/>
  </clipPath>
 </defs>
</svg>
