<?xml version="1.0" encoding="utf-8" standalone="no"?>
<!DOCTYPE svg PUBLIC "-//W3C//DTD SVG 1.1//EN"
  "http://www.w3.org/Graphics/SVG/1.1/DTD/svg11.dtd">
<svg xmlns:xlink="http://www.w3.org/1999/xlink" width="864pt" height="288pt" viewBox="0 0 864 288" xmlns="http://www.w3.org/2000/svg" version="1.1">
 <metadata>
  <rdf:RDF xmlns:dc="http://purl.org/dc/elements/1.1/" xmlns:cc="http://creativecommons.org/ns#" xmlns:rdf="http://www.w3.org/1999/02/22-rdf-syntax-ns#">
   <cc:Work>
    <dc:type rdf:resource="http://purl.org/dc/dcmitype/StillImage"/>
    <dc:date>2024-04-26T13:24:16.037260</dc:date>
    <dc:format>image/svg+xml</dc:format>
    <dc:creator>
     <cc:Agent>
      <dc:title>Matplotlib v3.8.2, https://matplotlib.org/</dc:title>
     </cc:Agent>
    </dc:creator>
   </cc:Work>
  </rdf:RDF>
 </metadata>
 <defs>
  <style type="text/css">*{stroke-linejoin: round; stroke-linecap: butt}</style>
 </defs>
 <g id="figure_1">
  <g id="patch_1">
   <path d="M 0 288 
L 864 288 
L 864 0 
L 0 0 
z
" style="fill: #ffffff"/>
  </g>
  <g id="axes_1">
   <g id="patch_2">
    <path d="M 108 256.32 
L 777.6 256.32 
L 777.6 34.56 
L 108 34.56 
z
" style="fill: #ffffff"/>
   </g>
   <g id="matplotlib.axis_1">
    <g id="xtick_1">
     <g id="line2d_1">
      <path d="M 108 256.32 
L 108 34.56 
" clip-path="url(#p5797634206)" style="fill: none; stroke: #b0b0b0; stroke-width: 0.8; stroke-linecap: square"/>
     </g>
     <g id="line2d_2">
      <defs>
       <path id="m842392a2e3" d="M 0 0 
L 0 3.5 
" style="stroke: #000000; stroke-width: 0.8"/>
      </defs>
      <g>
       <use xlink:href="#m842392a2e3" x="108" y="256.32" style="stroke: #000000; stroke-width: 0.8"/>
      </g>
     </g>
     <g id="text_1">
      <!-- 100 -->
      <g transform="translate(94.63875 273.957812) scale(0.14 -0.14)">
       <defs>
        <path id="DejaVuSans-31" d="M 794 531 
L 1825 531 
L 1825 4091 
L 703 3866 
L 703 4441 
L 1819 4666 
L 2450 4666 
L 2450 531 
L 3481 531 
L 3481 0 
L 794 0 
L 794 531 
z
" transform="scale(0.015625)"/>
        <path id="DejaVuSans-30" d="M 2034 4250 
Q 1547 4250 1301 3770 
Q 1056 3291 1056 2328 
Q 1056 1369 1301 889 
Q 1547 409 2034 409 
Q 2525 409 2770 889 
Q 3016 1369 3016 2328 
Q 3016 3291 2770 3770 
Q 2525 4250 2034 4250 
z
M 2034 4750 
Q 2819 4750 3233 4129 
Q 3647 3509 3647 2328 
Q 3647 1150 3233 529 
Q 2819 -91 2034 -91 
Q 1250 -91 836 529 
Q 422 1150 422 2328 
Q 422 3509 836 4129 
Q 1250 4750 2034 4750 
z
" transform="scale(0.015625)"/>
       </defs>
       <use xlink:href="#DejaVuSans-31"/>
       <use xlink:href="#DejaVuSans-30" x="63.623047"/>
       <use xlink:href="#DejaVuSans-30" x="127.246094"/>
      </g>
     </g>
    </g>
    <g id="xtick_2">
     <g id="line2d_3">
      <path d="M 241.92 256.32 
L 241.92 34.56 
" clip-path="url(#p5797634206)" style="fill: none; stroke: #b0b0b0; stroke-width: 0.8; stroke-linecap: square"/>
     </g>
     <g id="line2d_4">
      <g>
       <use xlink:href="#m842392a2e3" x="241.92" y="256.32" style="stroke: #000000; stroke-width: 0.8"/>
      </g>
     </g>
     <g id="text_2">
      <!-- 120 -->
      <g transform="translate(228.55875 273.957812) scale(0.14 -0.14)">
       <defs>
        <path id="DejaVuSans-32" d="M 1228 531 
L 3431 531 
L 3431 0 
L 469 0 
L 469 531 
Q 828 903 1448 1529 
Q 2069 2156 2228 2338 
Q 2531 2678 2651 2914 
Q 2772 3150 2772 3378 
Q 2772 3750 2511 3984 
Q 2250 4219 1831 4219 
Q 1534 4219 1204 4116 
Q 875 4013 500 3803 
L 500 4441 
Q 881 4594 1212 4672 
Q 1544 4750 1819 4750 
Q 2544 4750 2975 4387 
Q 3406 4025 3406 3419 
Q 3406 3131 3298 2873 
Q 3191 2616 2906 2266 
Q 2828 2175 2409 1742 
Q 1991 1309 1228 531 
z
" transform="scale(0.015625)"/>
       </defs>
       <use xlink:href="#DejaVuSans-31"/>
       <use xlink:href="#DejaVuSans-32" x="63.623047"/>
       <use xlink:href="#DejaVuSans-30" x="127.246094"/>
      </g>
     </g>
    </g>
    <g id="xtick_3">
     <g id="line2d_5">
      <path d="M 375.84 256.32 
L 375.84 34.56 
" clip-path="url(#p5797634206)" style="fill: none; stroke: #b0b0b0; stroke-width: 0.8; stroke-linecap: square"/>
     </g>
     <g id="line2d_6">
      <g>
       <use xlink:href="#m842392a2e3" x="375.84" y="256.32" style="stroke: #000000; stroke-width: 0.8"/>
      </g>
     </g>
     <g id="text_3">
      <!-- 140 -->
      <g transform="translate(362.47875 273.957812) scale(0.14 -0.14)">
       <defs>
        <path id="DejaVuSans-34" d="M 2419 4116 
L 825 1625 
L 2419 1625 
L 2419 4116 
z
M 2253 4666 
L 3047 4666 
L 3047 1625 
L 3713 1625 
L 3713 1100 
L 3047 1100 
L 3047 0 
L 2419 0 
L 2419 1100 
L 313 1100 
L 313 1709 
L 2253 4666 
z
" transform="scale(0.015625)"/>
       </defs>
       <use xlink:href="#DejaVuSans-31"/>
       <use xlink:href="#DejaVuSans-34" x="63.623047"/>
       <use xlink:href="#DejaVuSans-30" x="127.246094"/>
      </g>
     </g>
    </g>
    <g id="xtick_4">
     <g id="line2d_7">
      <path d="M 509.76 256.32 
L 509.76 34.56 
" clip-path="url(#p5797634206)" style="fill: none; stroke: #b0b0b0; stroke-width: 0.8; stroke-linecap: square"/>
     </g>
     <g id="line2d_8">
      <g>
       <use xlink:href="#m842392a2e3" x="509.76" y="256.32" style="stroke: #000000; stroke-width: 0.8"/>
      </g>
     </g>
     <g id="text_4">
      <!-- 160 -->
      <g transform="translate(496.39875 273.957812) scale(0.14 -0.14)">
       <defs>
        <path id="DejaVuSans-36" d="M 2113 2584 
Q 1688 2584 1439 2293 
Q 1191 2003 1191 1497 
Q 1191 994 1439 701 
Q 1688 409 2113 409 
Q 2538 409 2786 701 
Q 3034 994 3034 1497 
Q 3034 2003 2786 2293 
Q 2538 2584 2113 2584 
z
M 3366 4563 
L 3366 3988 
Q 3128 4100 2886 4159 
Q 2644 4219 2406 4219 
Q 1781 4219 1451 3797 
Q 1122 3375 1075 2522 
Q 1259 2794 1537 2939 
Q 1816 3084 2150 3084 
Q 2853 3084 3261 2657 
Q 3669 2231 3669 1497 
Q 3669 778 3244 343 
Q 2819 -91 2113 -91 
Q 1303 -91 875 529 
Q 447 1150 447 2328 
Q 447 3434 972 4092 
Q 1497 4750 2381 4750 
Q 2619 4750 2861 4703 
Q 3103 4656 3366 4563 
z
" transform="scale(0.015625)"/>
       </defs>
       <use xlink:href="#DejaVuSans-31"/>
       <use xlink:href="#DejaVuSans-36" x="63.623047"/>
       <use xlink:href="#DejaVuSans-30" x="127.246094"/>
      </g>
     </g>
    </g>
    <g id="xtick_5">
     <g id="line2d_9">
      <path d="M 643.68 256.32 
L 643.68 34.56 
" clip-path="url(#p5797634206)" style="fill: none; stroke: #b0b0b0; stroke-width: 0.8; stroke-linecap: square"/>
     </g>
     <g id="line2d_10">
      <g>
       <use xlink:href="#m842392a2e3" x="643.68" y="256.32" style="stroke: #000000; stroke-width: 0.8"/>
      </g>
     </g>
     <g id="text_5">
      <!-- 180 -->
      <g transform="translate(630.31875 273.957812) scale(0.14 -0.14)">
       <defs>
        <path id="DejaVuSans-38" d="M 2034 2216 
Q 1584 2216 1326 1975 
Q 1069 1734 1069 1313 
Q 1069 891 1326 650 
Q 1584 409 2034 409 
Q 2484 409 2743 651 
Q 3003 894 3003 1313 
Q 3003 1734 2745 1975 
Q 2488 2216 2034 2216 
z
M 1403 2484 
Q 997 2584 770 2862 
Q 544 3141 544 3541 
Q 544 4100 942 4425 
Q 1341 4750 2034 4750 
Q 2731 4750 3128 4425 
Q 3525 4100 3525 3541 
Q 3525 3141 3298 2862 
Q 3072 2584 2669 2484 
Q 3125 2378 3379 2068 
Q 3634 1759 3634 1313 
Q 3634 634 3220 271 
Q 2806 -91 2034 -91 
Q 1263 -91 848 271 
Q 434 634 434 1313 
Q 434 1759 690 2068 
Q 947 2378 1403 2484 
z
M 1172 3481 
Q 1172 3119 1398 2916 
Q 1625 2713 2034 2713 
Q 2441 2713 2670 2916 
Q 2900 3119 2900 3481 
Q 2900 3844 2670 4047 
Q 2441 4250 2034 4250 
Q 1625 4250 1398 4047 
Q 1172 3844 1172 3481 
z
" transform="scale(0.015625)"/>
       </defs>
       <use xlink:href="#DejaVuSans-31"/>
       <use xlink:href="#DejaVuSans-38" x="63.623047"/>
       <use xlink:href="#DejaVuSans-30" x="127.246094"/>
      </g>
     </g>
    </g>
    <g id="xtick_6">
     <g id="line2d_11">
      <path d="M 777.6 256.32 
L 777.6 34.56 
" clip-path="url(#p5797634206)" style="fill: none; stroke: #b0b0b0; stroke-width: 0.8; stroke-linecap: square"/>
     </g>
     <g id="line2d_12">
      <g>
       <use xlink:href="#m842392a2e3" x="777.6" y="256.32" style="stroke: #000000; stroke-width: 0.8"/>
      </g>
     </g>
     <g id="text_6">
      <!-- 200 -->
      <g transform="translate(764.23875 273.957812) scale(0.14 -0.14)">
       <use xlink:href="#DejaVuSans-32"/>
       <use xlink:href="#DejaVuSans-30" x="63.623047"/>
       <use xlink:href="#DejaVuSans-30" x="127.246094"/>
      </g>
     </g>
    </g>
    <g id="text_7">
     <!-- Time (ms) -->
     <g transform="translate(407.521094 291.507187) scale(0.14 -0.14)">
      <defs>
       <path id="DejaVuSans-54" d="M -19 4666 
L 3928 4666 
L 3928 4134 
L 2272 4134 
L 2272 0 
L 1638 0 
L 1638 4134 
L -19 4134 
L -19 4666 
z
" transform="scale(0.015625)"/>
       <path id="DejaVuSans-69" d="M 603 3500 
L 1178 3500 
L 1178 0 
L 603 0 
L 603 3500 
z
M 603 4863 
L 1178 4863 
L 1178 4134 
L 603 4134 
L 603 4863 
z
" transform="scale(0.015625)"/>
       <path id="DejaVuSans-6d" d="M 3328 2828 
Q 3544 3216 3844 3400 
Q 4144 3584 4550 3584 
Q 5097 3584 5394 3201 
Q 5691 2819 5691 2113 
L 5691 0 
L 5113 0 
L 5113 2094 
Q 5113 2597 4934 2840 
Q 4756 3084 4391 3084 
Q 3944 3084 3684 2787 
Q 3425 2491 3425 1978 
L 3425 0 
L 2847 0 
L 2847 2094 
Q 2847 2600 2669 2842 
Q 2491 3084 2119 3084 
Q 1678 3084 1418 2786 
Q 1159 2488 1159 1978 
L 1159 0 
L 581 0 
L 581 3500 
L 1159 3500 
L 1159 2956 
Q 1356 3278 1631 3431 
Q 1906 3584 2284 3584 
Q 2666 3584 2933 3390 
Q 3200 3197 3328 2828 
z
" transform="scale(0.015625)"/>
       <path id="DejaVuSans-65" d="M 3597 1894 
L 3597 1613 
L 953 1613 
Q 991 1019 1311 708 
Q 1631 397 2203 397 
Q 2534 397 2845 478 
Q 3156 559 3463 722 
L 3463 178 
Q 3153 47 2828 -22 
Q 2503 -91 2169 -91 
Q 1331 -91 842 396 
Q 353 884 353 1716 
Q 353 2575 817 3079 
Q 1281 3584 2069 3584 
Q 2775 3584 3186 3129 
Q 3597 2675 3597 1894 
z
M 3022 2063 
Q 3016 2534 2758 2815 
Q 2500 3097 2075 3097 
Q 1594 3097 1305 2825 
Q 1016 2553 972 2059 
L 3022 2063 
z
" transform="scale(0.015625)"/>
       <path id="DejaVuSans-20" transform="scale(0.015625)"/>
       <path id="DejaVuSans-28" d="M 1984 4856 
Q 1566 4138 1362 3434 
Q 1159 2731 1159 2009 
Q 1159 1288 1364 580 
Q 1569 -128 1984 -844 
L 1484 -844 
Q 1016 -109 783 600 
Q 550 1309 550 2009 
Q 550 2706 781 3412 
Q 1013 4119 1484 4856 
L 1984 4856 
z
" transform="scale(0.015625)"/>
       <path id="DejaVuSans-73" d="M 2834 3397 
L 2834 2853 
Q 2591 2978 2328 3040 
Q 2066 3103 1784 3103 
Q 1356 3103 1142 2972 
Q 928 2841 928 2578 
Q 928 2378 1081 2264 
Q 1234 2150 1697 2047 
L 1894 2003 
Q 2506 1872 2764 1633 
Q 3022 1394 3022 966 
Q 3022 478 2636 193 
Q 2250 -91 1575 -91 
Q 1294 -91 989 -36 
Q 684 19 347 128 
L 347 722 
Q 666 556 975 473 
Q 1284 391 1588 391 
Q 1994 391 2212 530 
Q 2431 669 2431 922 
Q 2431 1156 2273 1281 
Q 2116 1406 1581 1522 
L 1381 1569 
Q 847 1681 609 1914 
Q 372 2147 372 2553 
Q 372 3047 722 3315 
Q 1072 3584 1716 3584 
Q 2034 3584 2315 3537 
Q 2597 3491 2834 3397 
z
" transform="scale(0.015625)"/>
       <path id="DejaVuSans-29" d="M 513 4856 
L 1013 4856 
Q 1481 4119 1714 3412 
Q 1947 2706 1947 2009 
Q 1947 1309 1714 600 
Q 1481 -109 1013 -844 
L 513 -844 
Q 928 -128 1133 580 
Q 1338 1288 1338 2009 
Q 1338 2731 1133 3434 
Q 928 4138 513 4856 
z
" transform="scale(0.015625)"/>
      </defs>
      <use xlink:href="#DejaVuSans-54"/>
      <use xlink:href="#DejaVuSans-69" x="57.958984"/>
      <use xlink:href="#DejaVuSans-6d" x="85.742188"/>
      <use xlink:href="#DejaVuSans-65" x="183.154297"/>
      <use xlink:href="#DejaVuSans-20" x="244.677734"/>
      <use xlink:href="#DejaVuSans-28" x="276.464844"/>
      <use xlink:href="#DejaVuSans-6d" x="315.478516"/>
      <use xlink:href="#DejaVuSans-73" x="412.890625"/>
      <use xlink:href="#DejaVuSans-29" x="464.990234"/>
     </g>
    </g>
   </g>
   <g id="matplotlib.axis_2">
    <g id="ytick_1">
     <g id="line2d_13">
      <path d="M 108 225.15105 
L 777.6 225.15105 
" clip-path="url(#p5797634206)" style="fill: none; stroke: #b0b0b0; stroke-width: 0.8; stroke-linecap: square"/>
     </g>
     <g id="line2d_14">
      <defs>
       <path id="m029c227e21" d="M 0 0 
L -3.5 0 
" style="stroke: #000000; stroke-width: 0.8"/>
      </defs>
      <g>
       <use xlink:href="#m029c227e21" x="108" y="225.15105" style="stroke: #000000; stroke-width: 0.8"/>
      </g>
     </g>
     <g id="text_8">
      <!-- −60 -->
      <g transform="translate(71.453437 230.469956) scale(0.14 -0.14)">
       <defs>
        <path id="DejaVuSans-2212" d="M 678 2272 
L 4684 2272 
L 4684 1741 
L 678 1741 
L 678 2272 
z
" transform="scale(0.015625)"/>
       </defs>
       <use xlink:href="#DejaVuSans-2212"/>
       <use xlink:href="#DejaVuSans-36" x="83.789062"/>
       <use xlink:href="#DejaVuSans-30" x="147.412109"/>
      </g>
     </g>
    </g>
    <g id="ytick_2">
     <g id="line2d_15">
      <path d="M 108 183.040357 
L 777.6 183.040357 
" clip-path="url(#p5797634206)" style="fill: none; stroke: #b0b0b0; stroke-width: 0.8; stroke-linecap: square"/>
     </g>
     <g id="line2d_16">
      <g>
       <use xlink:href="#m029c227e21" x="108" y="183.040357" style="stroke: #000000; stroke-width: 0.8"/>
      </g>
     </g>
     <g id="text_9">
      <!-- −40 -->
      <g transform="translate(71.453437 188.359263) scale(0.14 -0.14)">
       <use xlink:href="#DejaVuSans-2212"/>
       <use xlink:href="#DejaVuSans-34" x="83.789062"/>
       <use xlink:href="#DejaVuSans-30" x="147.412109"/>
      </g>
     </g>
    </g>
    <g id="ytick_3">
     <g id="line2d_17">
      <path d="M 108 140.929664 
L 777.6 140.929664 
" clip-path="url(#p5797634206)" style="fill: none; stroke: #b0b0b0; stroke-width: 0.8; stroke-linecap: square"/>
     </g>
     <g id="line2d_18">
      <g>
       <use xlink:href="#m029c227e21" x="108" y="140.929664" style="stroke: #000000; stroke-width: 0.8"/>
      </g>
     </g>
     <g id="text_10">
      <!-- −20 -->
      <g transform="translate(71.453437 146.24857) scale(0.14 -0.14)">
       <use xlink:href="#DejaVuSans-2212"/>
       <use xlink:href="#DejaVuSans-32" x="83.789062"/>
       <use xlink:href="#DejaVuSans-30" x="147.412109"/>
      </g>
     </g>
    </g>
    <g id="ytick_4">
     <g id="line2d_19">
      <path d="M 108 98.81897 
L 777.6 98.81897 
" clip-path="url(#p5797634206)" style="fill: none; stroke: #b0b0b0; stroke-width: 0.8; stroke-linecap: square"/>
     </g>
     <g id="line2d_20">
      <g>
       <use xlink:href="#m029c227e21" x="108" y="98.81897" style="stroke: #000000; stroke-width: 0.8"/>
      </g>
     </g>
     <g id="text_11">
      <!-- 0 -->
      <g transform="translate(92.0925 104.137877) scale(0.14 -0.14)">
       <use xlink:href="#DejaVuSans-30"/>
      </g>
     </g>
    </g>
    <g id="ytick_5">
     <g id="line2d_21">
      <path d="M 108 56.708277 
L 777.6 56.708277 
" clip-path="url(#p5797634206)" style="fill: none; stroke: #b0b0b0; stroke-width: 0.8; stroke-linecap: square"/>
     </g>
     <g id="line2d_22">
      <g>
       <use xlink:href="#m029c227e21" x="108" y="56.708277" style="stroke: #000000; stroke-width: 0.8"/>
      </g>
     </g>
     <g id="text_12">
      <!-- 20 -->
      <g transform="translate(83.185 62.027184) scale(0.14 -0.14)">
       <use xlink:href="#DejaVuSans-32"/>
       <use xlink:href="#DejaVuSans-30" x="63.623047"/>
      </g>
     </g>
    </g>
    <g id="text_13">
     <!-- $V_{m}$ (mV) -->
     <g transform="translate(64.541875 174.49) rotate(-90) scale(0.14 -0.14)">
      <defs>
       <path id="DejaVuSans-Oblique-56" d="M 1319 0 
L 500 4666 
L 1119 4666 
L 1797 653 
L 4063 4666 
L 4750 4666 
L 2053 0 
L 1319 0 
z
" transform="scale(0.015625)"/>
       <path id="DejaVuSans-Oblique-6d" d="M 5747 2113 
L 5338 0 
L 4763 0 
L 5166 2094 
Q 5191 2228 5203 2325 
Q 5216 2422 5216 2491 
Q 5216 2772 5059 2928 
Q 4903 3084 4622 3084 
Q 4203 3084 3875 2770 
Q 3547 2456 3450 1953 
L 3066 0 
L 2491 0 
L 2900 2094 
Q 2925 2209 2937 2307 
Q 2950 2406 2950 2484 
Q 2950 2769 2794 2926 
Q 2638 3084 2363 3084 
Q 1938 3084 1609 2770 
Q 1281 2456 1184 1953 
L 800 0 
L 225 0 
L 909 3500 
L 1484 3500 
L 1375 2956 
Q 1609 3263 1923 3423 
Q 2238 3584 2597 3584 
Q 2978 3584 3223 3384 
Q 3469 3184 3519 2828 
Q 3781 3197 4126 3390 
Q 4472 3584 4856 3584 
Q 5306 3584 5551 3325 
Q 5797 3066 5797 2591 
Q 5797 2488 5784 2364 
Q 5772 2241 5747 2113 
z
" transform="scale(0.015625)"/>
       <path id="DejaVuSans-56" d="M 1831 0 
L 50 4666 
L 709 4666 
L 2188 738 
L 3669 4666 
L 4325 4666 
L 2547 0 
L 1831 0 
z
" transform="scale(0.015625)"/>
      </defs>
      <use xlink:href="#DejaVuSans-Oblique-56" transform="translate(0 0.125)"/>
      <use xlink:href="#DejaVuSans-Oblique-6d" transform="translate(68.408203 -16.28125) scale(0.7)"/>
      <use xlink:href="#DejaVuSans-20" transform="translate(139.331055 0.125)"/>
      <use xlink:href="#DejaVuSans-28" transform="translate(171.118164 0.125)"/>
      <use xlink:href="#DejaVuSans-6d" transform="translate(210.131836 0.125)"/>
      <use xlink:href="#DejaVuSans-56" transform="translate(307.543945 0.125)"/>
      <use xlink:href="#DejaVuSans-29" transform="translate(375.952148 0.125)"/>
     </g>
    </g>
   </g>
   <g id="line2d_23">
    <path d="M 108 220.677092 
L 109.3392 221.34949 
L 110.6784 221.793016 
L 111.348 221.959029 
L 112.6872 222.89819 
L 114.0264 223.3585 
L 116.0352 224.906359 
L 118.044 227.320889 
L 118.7136 228.406466 
L 119.3832 229.248078 
L 120.0528 229.786489 
L 120.7224 230.796998 
L 122.7312 233.03479 
L 124.0704 233.807402 
L 125.4096 234.310846 
L 127.4184 234.799093 
L 129.4272 235.070655 
L 132.1056 235.186042 
L 134.1144 235.124695 
L 136.1232 235.889256 
L 136.7928 236.677291 
L 137.4624 237.229796 
L 140.1408 238.365761 
L 141.48 238.62302 
L 144.1584 238.961985 
L 145.4976 239.216675 
L 147.5064 239.201671 
L 148.176 239.154137 
L 149.5152 239.480515 
L 150.8544 239.493902 
L 153.5328 239.203634 
L 156.8808 238.56529 
L 160.8984 237.52727 
L 164.916 236.257428 
L 169.6032 234.536196 
L 174.96 232.30631 
L 180.9864 229.521329 
L 187.6824 226.14999 
L 189.6912 225.049153 
L 192.3696 223.145356 
L 196.3872 220.383572 
L 198.396 219.094116 
L 199.7352 219.051097 
L 201.0744 218.616506 
L 203.7528 217.422494 
L 205.7616 216.441975 
L 207.1008 216.596254 
L 208.44 216.318515 
L 209.7792 216.699563 
L 211.1184 216.593188 
L 213.1272 216.1139 
L 216.4752 215.015338 
L 220.4928 213.449754 
L 225.8496 211.105201 
L 227.1888 211.395012 
L 227.8584 212.296926 
L 228.528 213.000901 
L 229.1976 213.348432 
L 230.5368 213.612097 
L 231.876 213.627665 
L 232.5456 213.584775 
L 234.5544 214.857031 
L 235.8936 216.743682 
L 236.5632 217.857262 
L 239.2416 221.023888 
L 239.9112 222.046967 
L 240.5808 223.518307 
L 241.2504 224.600739 
L 241.92 225.298091 
L 243.2592 226.215692 
L 244.5984 226.828493 
L 245.9376 227.876317 
L 246.6072 228.200245 
L 247.2768 228.773429 
L 247.9464 229.55642 
L 249.9552 231.34154 
L 251.2944 232.516555 
L 252.6336 233.134011 
L 253.9728 233.520857 
L 255.312 234.813863 
L 255.9816 235.437334 
L 256.6512 235.900024 
L 257.9904 236.427239 
L 259.9992 236.84297 
L 260.6688 236.925487 
L 262.008 237.510679 
L 263.3472 237.746264 
L 264.6864 237.834936 
L 267.3648 238.92776 
L 268.704 239.130594 
L 270.7128 239.162552 
L 272.052 239.550036 
L 273.3912 239.618218 
L 275.4 239.498162 
L 278.0784 239.135976 
L 281.4264 238.461114 
L 282.096 238.301716 
L 283.4352 238.449769 
L 284.7744 238.300228 
L 287.4528 237.719126 
L 290.8008 236.770248 
L 291.4704 236.559266 
L 292.8096 236.639494 
L 294.1488 236.414587 
L 296.8272 235.682189 
L 300.8448 234.314324 
L 305.532 232.465404 
L 310.8888 230.100625 
L 316.9152 227.185587 
L 322.9416 224.057937 
L 324.2808 223.206791 
L 330.9768 218.515795 
L 337.0032 214.728039 
L 345.0384 209.736246 
L 346.3776 209.827971 
L 347.7168 209.484468 
L 349.7256 208.654746 
L 353.0736 206.964645 
L 354.4128 206.192998 
L 355.752 207.410405 
L 356.4216 207.702002 
L 358.4304 209.579661 
L 359.1 210.63416 
L 359.7696 211.390701 
L 360.4392 211.853964 
L 361.7784 212.376639 
L 363.1176 214.297955 
L 363.7872 215.249122 
L 364.4568 215.959483 
L 366.4656 217.430071 
L 367.1352 217.977016 
L 367.8048 218.335932 
L 369.144 219.538718 
L 370.4832 220.149433 
L 372.492 220.634787 
L 373.8312 222.224172 
L 374.5008 223.74725 
L 375.1704 224.920653 
L 375.84 225.631765 
L 377.1792 226.516533 
L 378.5184 227.084315 
L 379.188 227.298859 
L 379.8576 227.813863 
L 381.8664 230.04261 
L 382.536 230.446415 
L 383.8752 231.540029 
L 384.5448 231.870476 
L 386.5536 233.443871 
L 387.2232 233.897925 
L 388.5624 234.425803 
L 391.2408 235.224444 
L 391.9104 235.794371 
L 392.58 236.191448 
L 393.9192 236.593406 
L 395.928 236.853827 
L 399.276 237.142587 
L 402.624 237.986792 
L 403.2936 238.023239 
L 405.972 239.055017 
L 407.3112 239.21707 
L 407.9808 239.230937 
L 409.32 239.646036 
L 410.6592 239.727679 
L 412.668 239.615703 
L 415.3464 239.254013 
L 418.6944 238.573243 
L 422.712 237.501737 
L 426.7296 236.20638 
L 428.0688 236.259062 
L 429.408 236.007379 
L 432.0864 235.225694 
L 436.104 233.794678 
L 440.7912 231.884478 
L 446.148 229.462054 
L 452.1744 226.4949 
L 457.5312 223.64509 
L 460.2096 221.729996 
L 464.2272 218.943977 
L 469.584 215.545508 
L 472.932 213.481722 
L 474.2712 213.541027 
L 475.6104 213.16843 
L 476.9496 212.632437 
L 478.2888 212.920508 
L 479.628 212.735469 
L 481.6368 212.14197 
L 483.6456 211.400054 
L 484.9848 211.76292 
L 485.6544 212.222213 
L 486.324 212.544895 
L 487.6632 212.692059 
L 489.0024 212.587601 
L 490.3416 214.080284 
L 491.0112 214.423447 
L 491.6808 215.054717 
L 492.3504 215.967102 
L 493.02 216.604105 
L 493.6896 216.986887 
L 494.3592 217.659343 
L 495.0288 218.594747 
L 495.6984 219.262517 
L 497.7072 220.604289 
L 498.3768 221.103975 
L 499.716 221.659069 
L 501.0552 221.972319 
L 502.3944 222.852461 
L 503.7336 223.253927 
L 504.4032 223.370372 
L 505.7424 224.190058 
L 507.0816 224.544017 
L 507.7512 224.639781 
L 508.4208 225.06593 
L 510.4296 228.263081 
L 511.0992 228.980767 
L 512.4384 229.793702 
L 513.7776 230.275101 
L 515.1168 231.156914 
L 515.7864 232.019693 
L 516.456 232.692041 
L 517.1256 233.103677 
L 519.804 236.471048 
L 521.1432 237.218206 
L 522.4824 237.6793 
L 523.152 237.849095 
L 523.8216 238.244113 
L 524.4912 238.812813 
L 526.5 240.084375 
L 527.8392 240.920885 
L 529.1784 241.314851 
L 529.848 241.436694 
L 531.1872 242.009313 
L 532.5264 242.248381 
L 534.5352 242.360703 
L 537.2136 242.268755 
L 540.5616 241.88423 
L 543.9096 241.267808 
L 547.9272 240.280381 
L 551.9448 239.067481 
L 556.632 237.412769 
L 561.9888 235.254768 
L 567.3456 232.856691 
L 573.372 229.918843 
L 580.068 226.410763 
L 588.1032 221.943558 
L 591.4512 219.980995 
L 594.1296 217.963402 
L 598.1472 215.013977 
L 602.1648 212.300378 
L 603.504 212.328732 
L 604.8432 211.929161 
L 607.5216 210.737435 
L 611.5392 208.655458 
L 613.548 207.522734 
L 614.8872 207.720078 
L 616.2264 207.497121 
L 618.2352 206.801344 
L 620.9136 205.572913 
L 622.9224 204.447134 
L 624.9312 204.621953 
L 625.6008 205.04224 
L 626.94 206.67453 
L 627.6096 207.139164 
L 628.9488 207.64947 
L 629.6184 207.778864 
L 630.288 208.345992 
L 630.9576 209.781465 
L 631.6272 210.906456 
L 632.2968 211.595488 
L 634.3056 213.102577 
L 634.9752 213.676557 
L 635.6448 214.048453 
L 636.984 215.319618 
L 637.6536 215.688013 
L 638.9928 218.836867 
L 639.6624 219.902678 
L 640.332 220.603543 
L 641.6712 222.222503 
L 642.3408 222.735369 
L 643.0104 223.499934 
L 643.68 224.479622 
L 644.3496 225.208819 
L 645.0192 225.715106 
L 646.3584 227.044938 
L 648.3672 228.405094 
L 649.0368 229.222453 
L 649.7064 229.825205 
L 653.0544 231.881397 
L 653.724 232.419609 
L 654.3936 233.144849 
L 658.4112 236.319932 
L 659.7504 237.859058 
L 660.42 238.411522 
L 661.7592 239.05707 
L 663.768 239.597056 
L 665.7768 239.879364 
L 667.7856 239.988854 
L 669.1248 240.428598 
L 670.464 240.557777 
L 672.4728 240.532966 
L 675.1512 240.293097 
L 678.4992 239.758394 
L 682.5168 238.846521 
L 686.5344 237.693315 
L 691.2216 236.094005 
L 693.9 235.074018 
L 695.2392 235.085618 
L 696.5784 234.788392 
L 699.2568 233.916 
L 703.2744 232.361567 
L 708.6312 230.020955 
L 714.6576 227.120153 
L 721.3536 223.64447 
L 725.3712 221.419983 
L 728.0496 219.471686 
L 732.0672 216.630031 
L 737.424 213.168192 
L 742.7808 209.787335 
L 744.12 209.875415 
L 745.4592 209.529052 
L 747.468 208.696863 
L 748.8072 209.0203 
L 750.1464 208.882921 
L 752.1552 208.32239 
L 753.4944 208.805316 
L 754.8336 208.813571 
L 756.1728 208.601387 
L 757.512 209.231008 
L 758.8512 209.364932 
L 760.1904 209.267914 
L 761.5296 209.986867 
L 762.1992 210.138001 
L 763.5384 211.102079 
L 764.8776 211.462569 
L 765.5472 211.532682 
L 766.8864 212.430462 
L 768.2256 212.780946 
L 768.8952 212.85473 
L 770.2344 214.569123 
L 770.904 215.012029 
L 771.5736 215.297497 
L 774.252 217.734161 
L 775.5912 218.35324 
L 776.9304 218.69563 
L 777.6 219.215464 
L 777.6 219.215464 
" clip-path="url(#p5797634206)" style="fill: none; stroke: #000000; stroke-width: 1.5; stroke-linecap: square"/>
   </g>
   <g id="line2d_24">
    <path d="M 108 191.393467 
L 110.0088 195.249708 
L 112.0176 198.623362 
L 114.0264 201.645049 
L 120.7224 211.172356 
L 124.74 217.069349 
L 126.7488 219.537828 
L 128.7576 221.616338 
L 130.7664 223.352313 
L 132.7752 224.789834 
L 135.4536 226.345684 
L 137.4624 227.54096 
L 142.1496 230.51806 
L 144.828 231.848344 
L 147.5064 232.96978 
L 151.524 234.258879 
L 154.2024 234.857092 
L 156.8808 235.197719 
L 159.5592 235.314482 
L 162.2376 235.237812 
L 165.5856 234.907082 
L 168.9336 234.351619 
L 172.9512 233.433267 
L 176.9688 232.282572 
L 181.656 230.694839 
L 187.0128 228.613451 
L 189.0216 227.770732 
L 189.6912 198.054961 
L 190.3608 185.855537 
L 191.0304 180.023225 
L 191.7 176.657136 
L 192.3696 174.571871 
L 193.0392 173.307298 
L 193.7088 172.625669 
L 194.3784 172.378389 
L 195.048 172.454924 
L 195.7176 172.768851 
L 197.0568 173.846467 
L 199.7352 176.631859 
L 201.744 178.696189 
L 203.0832 179.846072 
L 204.4224 180.753304 
L 205.7616 181.408892 
L 207.7704 182.114343 
L 212.4576 183.33441 
L 214.4664 183.628732 
L 216.4752 183.718665 
L 219.1536 183.567737 
L 221.832 183.179585 
L 225.18 182.474102 
L 227.1888 182.071195 
L 227.8584 182.054229 
L 229.1976 182.3513 
L 230.5368 182.970853 
L 232.5456 184.159872 
L 233.8848 185.086207 
L 235.224 186.240268 
L 236.5632 187.778079 
L 237.9024 189.692301 
L 239.9112 192.995698 
L 241.92 196.810583 
L 244.5984 201.844678 
L 247.2768 206.26717 
L 251.964 213.434734 
L 253.9728 216.144931 
L 257.9904 221.067541 
L 259.9992 223.194478 
L 262.6776 225.585389 
L 264.6864 227.127076 
L 268.704 229.800731 
L 270.7128 230.924203 
L 274.0608 232.487322 
L 276.0696 233.21524 
L 278.748 233.908146 
L 281.4264 234.323162 
L 286.7832 234.769758 
L 289.4616 234.769023 
L 295.488 234.397602 
L 298.836 234.024127 
L 302.184 233.432287 
L 306.2016 232.478705 
L 310.2192 231.300848 
L 314.9064 229.688358 
L 320.2632 227.584725 
L 322.9416 226.44515 
L 323.6112 197.007866 
L 324.2808 184.902622 
L 324.9504 179.059205 
L 325.62 175.615865 
L 326.2896 173.420114 
L 326.9592 172.033314 
L 327.6288 171.228116 
L 328.2984 170.856163 
L 328.968 170.811086 
L 329.6376 171.010945 
L 330.9768 171.880046 
L 335.664 175.746279 
L 337.0032 176.446394 
L 338.3424 176.872634 
L 339.6816 177.023331 
L 341.0208 176.908085 
L 342.36 176.542487 
L 343.6992 175.94529 
L 345.708 174.688833 
L 352.404 170.3393 
L 355.0824 168.678223 
L 356.4216 168.256141 
L 357.0912 168.227909 
L 357.7608 168.326966 
L 358.4304 168.560786 
L 359.1 168.948218 
L 360.4392 170.15027 
L 361.7784 171.725003 
L 363.1176 173.633221 
L 364.4568 175.951787 
L 367.1352 181.235368 
L 372.492 191.984141 
L 375.1704 196.936178 
L 377.8488 202.092345 
L 379.8576 205.450832 
L 384.5448 212.582318 
L 387.2232 216.216141 
L 389.232 218.689237 
L 391.2408 220.822463 
L 394.5888 224.04635 
L 396.5976 225.665686 
L 398.6064 227.001666 
L 402.624 229.270596 
L 407.9808 231.931627 
L 411.3288 233.318153 
L 414.0072 234.134543 
L 416.6856 234.660369 
L 419.364 234.936298 
L 422.0424 234.997351 
L 425.3904 234.81369 
L 433.4256 233.925327 
L 436.7736 233.291411 
L 440.7912 232.294124 
L 444.8088 231.079436 
L 449.496 229.431334 
L 454.8528 227.294908 
L 456.8616 226.434723 
L 457.5312 196.999552 
L 458.2008 184.89513 
L 458.8704 179.054401 
L 459.54 175.617937 
L 460.2096 173.432592 
L 460.8792 172.058287 
L 461.5488 171.266215 
L 462.2184 170.907055 
L 462.888 170.873603 
L 463.5576 171.083504 
L 464.8968 171.96746 
L 469.584 175.845234 
L 470.9232 176.54391 
L 472.2624 176.968278 
L 473.6016 177.139779 
L 475.6104 177.179999 
L 477.6192 176.954756 
L 482.3064 176.205723 
L 485.6544 175.523843 
L 486.9936 175.588633 
L 489.0024 176.031687 
L 490.3416 176.606998 
L 491.6808 177.546669 
L 493.02 178.895883 
L 494.3592 180.587815 
L 495.6984 182.604317 
L 498.3768 187.183917 
L 501.7248 192.950073 
L 504.4032 197.163778 
L 507.0816 200.952378 
L 510.4296 205.396791 
L 513.7776 210.252376 
L 523.152 222.510993 
L 527.1696 226.816378 
L 529.848 229.403418 
L 532.5264 231.599697 
L 534.5352 232.972424 
L 536.544 234.090198 
L 538.5528 234.979153 
L 540.5616 235.666739 
L 543.24 236.310227 
L 545.9184 236.682947 
L 548.5968 236.822695 
L 551.2752 236.761036 
L 554.6232 236.440762 
L 557.9712 235.889813 
L 561.9888 234.972577 
L 566.0064 233.820715 
L 570.6936 232.230281 
L 576.0504 230.144432 
L 582.0768 227.521428 
L 588.7728 224.338275 
L 590.7816 223.33923 
L 591.4512 194.529567 
L 592.1208 182.621789 
L 592.7904 176.713271 
L 593.46 173.063257 
L 594.1296 170.607122 
L 594.7992 168.944408 
L 595.4688 167.858846 
L 596.1384 167.211086 
L 596.808 166.895199 
L 597.4776 166.828931 
L 598.1472 166.945486 
L 599.4864 167.510015 
L 602.8344 169.244927 
L 604.8432 170.054677 
L 606.1824 170.412162 
L 607.5216 170.562577 
L 608.8608 170.4963 
L 610.2 170.222993 
L 611.5392 169.759964 
L 613.548 168.760036 
L 615.5568 167.693082 
L 618.2352 166.543568 
L 622.9224 164.781906 
L 624.2616 164.399415 
L 625.6008 164.254198 
L 626.2704 164.335637 
L 626.94 164.553032 
L 628.2792 165.344119 
L 629.6184 166.450041 
L 630.9576 167.853577 
L 632.2968 169.782873 
L 634.3056 173.304315 
L 636.984 178.582873 
L 638.9928 182.91273 
L 646.3584 200.335286 
L 648.3672 204.314839 
L 651.0456 209.075077 
L 653.0544 212.237956 
L 656.4024 217.016267 
L 660.42 222.27502 
L 662.4288 224.745291 
L 664.4376 226.862283 
L 666.4464 228.623521 
L 668.4552 230.083738 
L 671.1336 231.763422 
L 673.1424 232.78201 
L 675.1512 233.585975 
L 677.16 234.197644 
L 679.8384 234.751894 
L 682.5168 235.047413 
L 685.1952 235.120251 
L 687.8736 235.000305 
L 691.2216 234.61707 
L 699.2568 233.252779 
L 703.2744 232.358771 
L 707.292 231.228589 
L 711.9792 229.663667 
L 717.336 227.606092 
L 723.3624 225.014071 
L 724.7016 224.404817 
L 725.3712 195.39009 
L 726.0408 183.42492 
L 726.7104 177.563244 
L 727.38 174.022827 
L 728.0496 171.708007 
L 728.7192 170.194535 
L 729.3888 169.26151 
L 730.0584 168.763158 
L 730.728 168.592635 
L 731.3976 168.666614 
L 732.0672 168.916085 
L 733.4064 169.72552 
L 736.0848 171.581334 
L 737.424 172.29269 
L 738.7632 172.756676 
L 740.1024 172.95062 
L 741.4416 172.873015 
L 742.7808 172.534724 
L 746.1288 171.238077 
L 750.1464 169.48755 
L 752.8248 168.686588 
L 754.164 168.503507 
L 756.1728 168.548269 
L 757.512 168.794349 
L 758.8512 169.274203 
L 760.86 170.289459 
L 762.1992 171.21761 
L 763.5384 172.405932 
L 765.5472 174.59211 
L 767.556 177.105952 
L 770.2344 180.840954 
L 772.9128 185.176889 
L 777.6 193.055733 
L 777.6 193.055733 
" clip-path="url(#p5797634206)" style="fill: none; stroke: #4169e1; stroke-width: 1.5; stroke-linecap: square"/>
   </g>
   <g id="patch_3">
    <path d="M 108 256.32 
L 108 34.56 
" style="fill: none; stroke: #000000; stroke-width: 0.8; stroke-linejoin: miter; stroke-linecap: square"/>
   </g>
   <g id="patch_4">
    <path d="M 777.6 256.32 
L 777.6 34.56 
" style="fill: none; stroke: #000000; stroke-width: 0.8; stroke-linejoin: miter; stroke-linecap: square"/>
   </g>
   <g id="patch_5">
    <path d="M 108 256.32 
L 777.6 256.32 
" style="fill: none; stroke: #000000; stroke-width: 0.8; stroke-linejoin: miter; stroke-linecap: square"/>
   </g>
   <g id="patch_6">
    <path d="M 108 34.56 
L 777.6 34.56 
" style="fill: none; stroke: #000000; stroke-width: 0.8; stroke-linejoin: miter; stroke-linecap: square"/>
   </g>
   <g id="legend_1">
    <g id="patch_7">
     <path d="M 695.098438 71.91625 
L 770.6 71.91625 
Q 772.6 71.91625 772.6 69.91625 
L 772.6 41.56 
Q 772.6 39.56 770.6 39.56 
L 695.098438 39.56 
Q 693.098438 39.56 693.098438 41.56 
L 693.098438 69.91625 
Q 693.098438 71.91625 695.098438 71.91625 
z
" style="fill: #ffffff; opacity: 0.8; stroke: #cccccc; stroke-linejoin: miter"/>
    </g>
    <g id="line2d_25">
     <path d="M 697.098438 47.658437 
L 707.098438 47.658437 
L 717.098438 47.658437 
" style="fill: none; stroke: #000000; stroke-width: 1.5; stroke-linecap: square"/>
    </g>
    <g id="text_14">
     <!-- Soma -->
     <g transform="translate(725.098438 51.158437) scale(0.1 -0.1)">
      <defs>
       <path id="DejaVuSans-53" d="M 3425 4513 
L 3425 3897 
Q 3066 4069 2747 4153 
Q 2428 4238 2131 4238 
Q 1616 4238 1336 4038 
Q 1056 3838 1056 3469 
Q 1056 3159 1242 3001 
Q 1428 2844 1947 2747 
L 2328 2669 
Q 3034 2534 3370 2195 
Q 3706 1856 3706 1288 
Q 3706 609 3251 259 
Q 2797 -91 1919 -91 
Q 1588 -91 1214 -16 
Q 841 59 441 206 
L 441 856 
Q 825 641 1194 531 
Q 1563 422 1919 422 
Q 2459 422 2753 634 
Q 3047 847 3047 1241 
Q 3047 1584 2836 1778 
Q 2625 1972 2144 2069 
L 1759 2144 
Q 1053 2284 737 2584 
Q 422 2884 422 3419 
Q 422 4038 858 4394 
Q 1294 4750 2059 4750 
Q 2388 4750 2728 4690 
Q 3069 4631 3425 4513 
z
" transform="scale(0.015625)"/>
       <path id="DejaVuSans-6f" d="M 1959 3097 
Q 1497 3097 1228 2736 
Q 959 2375 959 1747 
Q 959 1119 1226 758 
Q 1494 397 1959 397 
Q 2419 397 2687 759 
Q 2956 1122 2956 1747 
Q 2956 2369 2687 2733 
Q 2419 3097 1959 3097 
z
M 1959 3584 
Q 2709 3584 3137 3096 
Q 3566 2609 3566 1747 
Q 3566 888 3137 398 
Q 2709 -91 1959 -91 
Q 1206 -91 779 398 
Q 353 888 353 1747 
Q 353 2609 779 3096 
Q 1206 3584 1959 3584 
z
" transform="scale(0.015625)"/>
       <path id="DejaVuSans-61" d="M 2194 1759 
Q 1497 1759 1228 1600 
Q 959 1441 959 1056 
Q 959 750 1161 570 
Q 1363 391 1709 391 
Q 2188 391 2477 730 
Q 2766 1069 2766 1631 
L 2766 1759 
L 2194 1759 
z
M 3341 1997 
L 3341 0 
L 2766 0 
L 2766 531 
Q 2569 213 2275 61 
Q 1981 -91 1556 -91 
Q 1019 -91 701 211 
Q 384 513 384 1019 
Q 384 1609 779 1909 
Q 1175 2209 1959 2209 
L 2766 2209 
L 2766 2266 
Q 2766 2663 2505 2880 
Q 2244 3097 1772 3097 
Q 1472 3097 1187 3025 
Q 903 2953 641 2809 
L 641 3341 
Q 956 3463 1253 3523 
Q 1550 3584 1831 3584 
Q 2591 3584 2966 3190 
Q 3341 2797 3341 1997 
z
" transform="scale(0.015625)"/>
      </defs>
      <use xlink:href="#DejaVuSans-53"/>
      <use xlink:href="#DejaVuSans-6f" x="63.476562"/>
      <use xlink:href="#DejaVuSans-6d" x="124.658203"/>
      <use xlink:href="#DejaVuSans-61" x="222.070312"/>
     </g>
    </g>
    <g id="line2d_26">
     <path d="M 697.098438 62.336562 
L 707.098438 62.336562 
L 717.098438 62.336562 
" style="fill: none; stroke: #4169e1; stroke-width: 1.5; stroke-linecap: square"/>
    </g>
    <g id="text_15">
     <!-- Dendrite -->
     <g transform="translate(725.098438 65.836562) scale(0.1 -0.1)">
      <defs>
       <path id="DejaVuSans-44" d="M 1259 4147 
L 1259 519 
L 2022 519 
Q 2988 519 3436 956 
Q 3884 1394 3884 2338 
Q 3884 3275 3436 3711 
Q 2988 4147 2022 4147 
L 1259 4147 
z
M 628 4666 
L 1925 4666 
Q 3281 4666 3915 4102 
Q 4550 3538 4550 2338 
Q 4550 1131 3912 565 
Q 3275 0 1925 0 
L 628 0 
L 628 4666 
z
" transform="scale(0.015625)"/>
       <path id="DejaVuSans-6e" d="M 3513 2113 
L 3513 0 
L 2938 0 
L 2938 2094 
Q 2938 2591 2744 2837 
Q 2550 3084 2163 3084 
Q 1697 3084 1428 2787 
Q 1159 2491 1159 1978 
L 1159 0 
L 581 0 
L 581 3500 
L 1159 3500 
L 1159 2956 
Q 1366 3272 1645 3428 
Q 1925 3584 2291 3584 
Q 2894 3584 3203 3211 
Q 3513 2838 3513 2113 
z
" transform="scale(0.015625)"/>
       <path id="DejaVuSans-64" d="M 2906 2969 
L 2906 4863 
L 3481 4863 
L 3481 0 
L 2906 0 
L 2906 525 
Q 2725 213 2448 61 
Q 2172 -91 1784 -91 
Q 1150 -91 751 415 
Q 353 922 353 1747 
Q 353 2572 751 3078 
Q 1150 3584 1784 3584 
Q 2172 3584 2448 3432 
Q 2725 3281 2906 2969 
z
M 947 1747 
Q 947 1113 1208 752 
Q 1469 391 1925 391 
Q 2381 391 2643 752 
Q 2906 1113 2906 1747 
Q 2906 2381 2643 2742 
Q 2381 3103 1925 3103 
Q 1469 3103 1208 2742 
Q 947 2381 947 1747 
z
" transform="scale(0.015625)"/>
       <path id="DejaVuSans-72" d="M 2631 2963 
Q 2534 3019 2420 3045 
Q 2306 3072 2169 3072 
Q 1681 3072 1420 2755 
Q 1159 2438 1159 1844 
L 1159 0 
L 581 0 
L 581 3500 
L 1159 3500 
L 1159 2956 
Q 1341 3275 1631 3429 
Q 1922 3584 2338 3584 
Q 2397 3584 2469 3576 
Q 2541 3569 2628 3553 
L 2631 2963 
z
" transform="scale(0.015625)"/>
       <path id="DejaVuSans-74" d="M 1172 4494 
L 1172 3500 
L 2356 3500 
L 2356 3053 
L 1172 3053 
L 1172 1153 
Q 1172 725 1289 603 
Q 1406 481 1766 481 
L 2356 481 
L 2356 0 
L 1766 0 
Q 1100 0 847 248 
Q 594 497 594 1153 
L 594 3053 
L 172 3053 
L 172 3500 
L 594 3500 
L 594 4494 
L 1172 4494 
z
" transform="scale(0.015625)"/>
      </defs>
      <use xlink:href="#DejaVuSans-44"/>
      <use xlink:href="#DejaVuSans-65" x="77.001953"/>
      <use xlink:href="#DejaVuSans-6e" x="138.525391"/>
      <use xlink:href="#DejaVuSans-64" x="201.904297"/>
      <use xlink:href="#DejaVuSans-72" x="265.380859"/>
      <use xlink:href="#DejaVuSans-69" x="306.494141"/>
      <use xlink:href="#DejaVuSans-74" x="334.277344"/>
      <use xlink:href="#DejaVuSans-65" x="373.486328"/>
     </g>
    </g>
   </g>
  </g>
 </g>
 <defs>
  <clipPath id="p5797634206">
   <rect x="108" y="34.56" width="669.6" height="221.76"/>
  </clipPath>
 </defs>
</svg>
