<?xml version="1.0" encoding="utf-8" standalone="no"?>
<!DOCTYPE svg PUBLIC "-//W3C//DTD SVG 1.1//EN"
  "http://www.w3.org/Graphics/SVG/1.1/DTD/svg11.dtd">
<svg xmlns:xlink="http://www.w3.org/1999/xlink" width="864pt" height="288pt" viewBox="0 0 864 288" xmlns="http://www.w3.org/2000/svg" version="1.1">
 <metadata>
  <rdf:RDF xmlns:dc="http://purl.org/dc/elements/1.1/" xmlns:cc="http://creativecommons.org/ns#" xmlns:rdf="http://www.w3.org/1999/02/22-rdf-syntax-ns#">
   <cc:Work>
    <dc:type rdf:resource="http://purl.org/dc/dcmitype/StillImage"/>
    <dc:date>2024-04-26T13:24:23.114585</dc:date>
    <dc:format>image/svg+xml</dc:format>
    <dc:creator>
     <cc:Agent>
      <dc:title>Matplotlib v3.8.2, https://matplotlib.org/</dc:title>
     </cc:Agent>
    </dc:creator>
   </cc:Work>
  </rdf:RDF>
 </metadata>
 <defs>
  <style type="text/css">*{stroke-linejoin: round; stroke-linecap: butt}</style>
 </defs>
 <g id="figure_1">
  <g id="patch_1">
   <path d="M 0 288 
L 864 288 
L 864 0 
L 0 0 
z
" style="fill: #ffffff"/>
  </g>
  <g id="axes_1">
   <g id="patch_2">
    <path d="M 108 256.32 
L 777.6 256.32 
L 777.6 34.56 
L 108 34.56 
z
" style="fill: #ffffff"/>
   </g>
   <g id="matplotlib.axis_1">
    <g id="xtick_1">
     <g id="line2d_1">
      <path d="M 108 256.32 
L 108 34.56 
" clip-path="url(#pbd177ca6d3)" style="fill: none; stroke: #b0b0b0; stroke-width: 0.8; stroke-linecap: square"/>
     </g>
     <g id="line2d_2">
      <defs>
       <path id="ma3a84a5a40" d="M 0 0 
L 0 3.5 
" style="stroke: #000000; stroke-width: 0.8"/>
      </defs>
      <g>
       <use xlink:href="#ma3a84a5a40" x="108" y="256.32" style="stroke: #000000; stroke-width: 0.8"/>
      </g>
     </g>
     <g id="text_1">
      <!-- 100 -->
      <g transform="translate(94.63875 273.957812) scale(0.14 -0.14)">
       <defs>
        <path id="DejaVuSans-31" d="M 794 531 
L 1825 531 
L 1825 4091 
L 703 3866 
L 703 4441 
L 1819 4666 
L 2450 4666 
L 2450 531 
L 3481 531 
L 3481 0 
L 794 0 
L 794 531 
z
" transform="scale(0.015625)"/>
        <path id="DejaVuSans-30" d="M 2034 4250 
Q 1547 4250 1301 3770 
Q 1056 3291 1056 2328 
Q 1056 1369 1301 889 
Q 1547 409 2034 409 
Q 2525 409 2770 889 
Q 3016 1369 3016 2328 
Q 3016 3291 2770 3770 
Q 2525 4250 2034 4250 
z
M 2034 4750 
Q 2819 4750 3233 4129 
Q 3647 3509 3647 2328 
Q 3647 1150 3233 529 
Q 2819 -91 2034 -91 
Q 1250 -91 836 529 
Q 422 1150 422 2328 
Q 422 3509 836 4129 
Q 1250 4750 2034 4750 
z
" transform="scale(0.015625)"/>
       </defs>
       <use xlink:href="#DejaVuSans-31"/>
       <use xlink:href="#DejaVuSans-30" x="63.623047"/>
       <use xlink:href="#DejaVuSans-30" x="127.246094"/>
      </g>
     </g>
    </g>
    <g id="xtick_2">
     <g id="line2d_3">
      <path d="M 241.92 256.32 
L 241.92 34.56 
" clip-path="url(#pbd177ca6d3)" style="fill: none; stroke: #b0b0b0; stroke-width: 0.8; stroke-linecap: square"/>
     </g>
     <g id="line2d_4">
      <g>
       <use xlink:href="#ma3a84a5a40" x="241.92" y="256.32" style="stroke: #000000; stroke-width: 0.8"/>
      </g>
     </g>
     <g id="text_2">
      <!-- 120 -->
      <g transform="translate(228.55875 273.957812) scale(0.14 -0.14)">
       <defs>
        <path id="DejaVuSans-32" d="M 1228 531 
L 3431 531 
L 3431 0 
L 469 0 
L 469 531 
Q 828 903 1448 1529 
Q 2069 2156 2228 2338 
Q 2531 2678 2651 2914 
Q 2772 3150 2772 3378 
Q 2772 3750 2511 3984 
Q 2250 4219 1831 4219 
Q 1534 4219 1204 4116 
Q 875 4013 500 3803 
L 500 4441 
Q 881 4594 1212 4672 
Q 1544 4750 1819 4750 
Q 2544 4750 2975 4387 
Q 3406 4025 3406 3419 
Q 3406 3131 3298 2873 
Q 3191 2616 2906 2266 
Q 2828 2175 2409 1742 
Q 1991 1309 1228 531 
z
" transform="scale(0.015625)"/>
       </defs>
       <use xlink:href="#DejaVuSans-31"/>
       <use xlink:href="#DejaVuSans-32" x="63.623047"/>
       <use xlink:href="#DejaVuSans-30" x="127.246094"/>
      </g>
     </g>
    </g>
    <g id="xtick_3">
     <g id="line2d_5">
      <path d="M 375.84 256.32 
L 375.84 34.56 
" clip-path="url(#pbd177ca6d3)" style="fill: none; stroke: #b0b0b0; stroke-width: 0.8; stroke-linecap: square"/>
     </g>
     <g id="line2d_6">
      <g>
       <use xlink:href="#ma3a84a5a40" x="375.84" y="256.32" style="stroke: #000000; stroke-width: 0.8"/>
      </g>
     </g>
     <g id="text_3">
      <!-- 140 -->
      <g transform="translate(362.47875 273.957812) scale(0.14 -0.14)">
       <defs>
        <path id="DejaVuSans-34" d="M 2419 4116 
L 825 1625 
L 2419 1625 
L 2419 4116 
z
M 2253 4666 
L 3047 4666 
L 3047 1625 
L 3713 1625 
L 3713 1100 
L 3047 1100 
L 3047 0 
L 2419 0 
L 2419 1100 
L 313 1100 
L 313 1709 
L 2253 4666 
z
" transform="scale(0.015625)"/>
       </defs>
       <use xlink:href="#DejaVuSans-31"/>
       <use xlink:href="#DejaVuSans-34" x="63.623047"/>
       <use xlink:href="#DejaVuSans-30" x="127.246094"/>
      </g>
     </g>
    </g>
    <g id="xtick_4">
     <g id="line2d_7">
      <path d="M 509.76 256.32 
L 509.76 34.56 
" clip-path="url(#pbd177ca6d3)" style="fill: none; stroke: #b0b0b0; stroke-width: 0.8; stroke-linecap: square"/>
     </g>
     <g id="line2d_8">
      <g>
       <use xlink:href="#ma3a84a5a40" x="509.76" y="256.32" style="stroke: #000000; stroke-width: 0.8"/>
      </g>
     </g>
     <g id="text_4">
      <!-- 160 -->
      <g transform="translate(496.39875 273.957812) scale(0.14 -0.14)">
       <defs>
        <path id="DejaVuSans-36" d="M 2113 2584 
Q 1688 2584 1439 2293 
Q 1191 2003 1191 1497 
Q 1191 994 1439 701 
Q 1688 409 2113 409 
Q 2538 409 2786 701 
Q 3034 994 3034 1497 
Q 3034 2003 2786 2293 
Q 2538 2584 2113 2584 
z
M 3366 4563 
L 3366 3988 
Q 3128 4100 2886 4159 
Q 2644 4219 2406 4219 
Q 1781 4219 1451 3797 
Q 1122 3375 1075 2522 
Q 1259 2794 1537 2939 
Q 1816 3084 2150 3084 
Q 2853 3084 3261 2657 
Q 3669 2231 3669 1497 
Q 3669 778 3244 343 
Q 2819 -91 2113 -91 
Q 1303 -91 875 529 
Q 447 1150 447 2328 
Q 447 3434 972 4092 
Q 1497 4750 2381 4750 
Q 2619 4750 2861 4703 
Q 3103 4656 3366 4563 
z
" transform="scale(0.015625)"/>
       </defs>
       <use xlink:href="#DejaVuSans-31"/>
       <use xlink:href="#DejaVuSans-36" x="63.623047"/>
       <use xlink:href="#DejaVuSans-30" x="127.246094"/>
      </g>
     </g>
    </g>
    <g id="xtick_5">
     <g id="line2d_9">
      <path d="M 643.68 256.32 
L 643.68 34.56 
" clip-path="url(#pbd177ca6d3)" style="fill: none; stroke: #b0b0b0; stroke-width: 0.8; stroke-linecap: square"/>
     </g>
     <g id="line2d_10">
      <g>
       <use xlink:href="#ma3a84a5a40" x="643.68" y="256.32" style="stroke: #000000; stroke-width: 0.8"/>
      </g>
     </g>
     <g id="text_5">
      <!-- 180 -->
      <g transform="translate(630.31875 273.957812) scale(0.14 -0.14)">
       <defs>
        <path id="DejaVuSans-38" d="M 2034 2216 
Q 1584 2216 1326 1975 
Q 1069 1734 1069 1313 
Q 1069 891 1326 650 
Q 1584 409 2034 409 
Q 2484 409 2743 651 
Q 3003 894 3003 1313 
Q 3003 1734 2745 1975 
Q 2488 2216 2034 2216 
z
M 1403 2484 
Q 997 2584 770 2862 
Q 544 3141 544 3541 
Q 544 4100 942 4425 
Q 1341 4750 2034 4750 
Q 2731 4750 3128 4425 
Q 3525 4100 3525 3541 
Q 3525 3141 3298 2862 
Q 3072 2584 2669 2484 
Q 3125 2378 3379 2068 
Q 3634 1759 3634 1313 
Q 3634 634 3220 271 
Q 2806 -91 2034 -91 
Q 1263 -91 848 271 
Q 434 634 434 1313 
Q 434 1759 690 2068 
Q 947 2378 1403 2484 
z
M 1172 3481 
Q 1172 3119 1398 2916 
Q 1625 2713 2034 2713 
Q 2441 2713 2670 2916 
Q 2900 3119 2900 3481 
Q 2900 3844 2670 4047 
Q 2441 4250 2034 4250 
Q 1625 4250 1398 4047 
Q 1172 3844 1172 3481 
z
" transform="scale(0.015625)"/>
       </defs>
       <use xlink:href="#DejaVuSans-31"/>
       <use xlink:href="#DejaVuSans-38" x="63.623047"/>
       <use xlink:href="#DejaVuSans-30" x="127.246094"/>
      </g>
     </g>
    </g>
    <g id="xtick_6">
     <g id="line2d_11">
      <path d="M 777.6 256.32 
L 777.6 34.56 
" clip-path="url(#pbd177ca6d3)" style="fill: none; stroke: #b0b0b0; stroke-width: 0.8; stroke-linecap: square"/>
     </g>
     <g id="line2d_12">
      <g>
       <use xlink:href="#ma3a84a5a40" x="777.6" y="256.32" style="stroke: #000000; stroke-width: 0.8"/>
      </g>
     </g>
     <g id="text_6">
      <!-- 200 -->
      <g transform="translate(764.23875 273.957812) scale(0.14 -0.14)">
       <use xlink:href="#DejaVuSans-32"/>
       <use xlink:href="#DejaVuSans-30" x="63.623047"/>
       <use xlink:href="#DejaVuSans-30" x="127.246094"/>
      </g>
     </g>
    </g>
    <g id="text_7">
     <!-- Time (ms) -->
     <g transform="translate(407.521094 291.507187) scale(0.14 -0.14)">
      <defs>
       <path id="DejaVuSans-54" d="M -19 4666 
L 3928 4666 
L 3928 4134 
L 2272 4134 
L 2272 0 
L 1638 0 
L 1638 4134 
L -19 4134 
L -19 4666 
z
" transform="scale(0.015625)"/>
       <path id="DejaVuSans-69" d="M 603 3500 
L 1178 3500 
L 1178 0 
L 603 0 
L 603 3500 
z
M 603 4863 
L 1178 4863 
L 1178 4134 
L 603 4134 
L 603 4863 
z
" transform="scale(0.015625)"/>
       <path id="DejaVuSans-6d" d="M 3328 2828 
Q 3544 3216 3844 3400 
Q 4144 3584 4550 3584 
Q 5097 3584 5394 3201 
Q 5691 2819 5691 2113 
L 5691 0 
L 5113 0 
L 5113 2094 
Q 5113 2597 4934 2840 
Q 4756 3084 4391 3084 
Q 3944 3084 3684 2787 
Q 3425 2491 3425 1978 
L 3425 0 
L 2847 0 
L 2847 2094 
Q 2847 2600 2669 2842 
Q 2491 3084 2119 3084 
Q 1678 3084 1418 2786 
Q 1159 2488 1159 1978 
L 1159 0 
L 581 0 
L 581 3500 
L 1159 3500 
L 1159 2956 
Q 1356 3278 1631 3431 
Q 1906 3584 2284 3584 
Q 2666 3584 2933 3390 
Q 3200 3197 3328 2828 
z
" transform="scale(0.015625)"/>
       <path id="DejaVuSans-65" d="M 3597 1894 
L 3597 1613 
L 953 1613 
Q 991 1019 1311 708 
Q 1631 397 2203 397 
Q 2534 397 2845 478 
Q 3156 559 3463 722 
L 3463 178 
Q 3153 47 2828 -22 
Q 2503 -91 2169 -91 
Q 1331 -91 842 396 
Q 353 884 353 1716 
Q 353 2575 817 3079 
Q 1281 3584 2069 3584 
Q 2775 3584 3186 3129 
Q 3597 2675 3597 1894 
z
M 3022 2063 
Q 3016 2534 2758 2815 
Q 2500 3097 2075 3097 
Q 1594 3097 1305 2825 
Q 1016 2553 972 2059 
L 3022 2063 
z
" transform="scale(0.015625)"/>
       <path id="DejaVuSans-20" transform="scale(0.015625)"/>
       <path id="DejaVuSans-28" d="M 1984 4856 
Q 1566 4138 1362 3434 
Q 1159 2731 1159 2009 
Q 1159 1288 1364 580 
Q 1569 -128 1984 -844 
L 1484 -844 
Q 1016 -109 783 600 
Q 550 1309 550 2009 
Q 550 2706 781 3412 
Q 1013 4119 1484 4856 
L 1984 4856 
z
" transform="scale(0.015625)"/>
       <path id="DejaVuSans-73" d="M 2834 3397 
L 2834 2853 
Q 2591 2978 2328 3040 
Q 2066 3103 1784 3103 
Q 1356 3103 1142 2972 
Q 928 2841 928 2578 
Q 928 2378 1081 2264 
Q 1234 2150 1697 2047 
L 1894 2003 
Q 2506 1872 2764 1633 
Q 3022 1394 3022 966 
Q 3022 478 2636 193 
Q 2250 -91 1575 -91 
Q 1294 -91 989 -36 
Q 684 19 347 128 
L 347 722 
Q 666 556 975 473 
Q 1284 391 1588 391 
Q 1994 391 2212 530 
Q 2431 669 2431 922 
Q 2431 1156 2273 1281 
Q 2116 1406 1581 1522 
L 1381 1569 
Q 847 1681 609 1914 
Q 372 2147 372 2553 
Q 372 3047 722 3315 
Q 1072 3584 1716 3584 
Q 2034 3584 2315 3537 
Q 2597 3491 2834 3397 
z
" transform="scale(0.015625)"/>
       <path id="DejaVuSans-29" d="M 513 4856 
L 1013 4856 
Q 1481 4119 1714 3412 
Q 1947 2706 1947 2009 
Q 1947 1309 1714 600 
Q 1481 -109 1013 -844 
L 513 -844 
Q 928 -128 1133 580 
Q 1338 1288 1338 2009 
Q 1338 2731 1133 3434 
Q 928 4138 513 4856 
z
" transform="scale(0.015625)"/>
      </defs>
      <use xlink:href="#DejaVuSans-54"/>
      <use xlink:href="#DejaVuSans-69" x="57.958984"/>
      <use xlink:href="#DejaVuSans-6d" x="85.742188"/>
      <use xlink:href="#DejaVuSans-65" x="183.154297"/>
      <use xlink:href="#DejaVuSans-20" x="244.677734"/>
      <use xlink:href="#DejaVuSans-28" x="276.464844"/>
      <use xlink:href="#DejaVuSans-6d" x="315.478516"/>
      <use xlink:href="#DejaVuSans-73" x="412.890625"/>
      <use xlink:href="#DejaVuSans-29" x="464.990234"/>
     </g>
    </g>
   </g>
   <g id="matplotlib.axis_2">
    <g id="ytick_1">
     <g id="line2d_13">
      <path d="M 108 224.800913 
L 777.6 224.800913 
" clip-path="url(#pbd177ca6d3)" style="fill: none; stroke: #b0b0b0; stroke-width: 0.8; stroke-linecap: square"/>
     </g>
     <g id="line2d_14">
      <defs>
       <path id="m26e5e99e7e" d="M 0 0 
L -3.5 0 
" style="stroke: #000000; stroke-width: 0.8"/>
      </defs>
      <g>
       <use xlink:href="#m26e5e99e7e" x="108" y="224.800913" style="stroke: #000000; stroke-width: 0.8"/>
      </g>
     </g>
     <g id="text_8">
      <!-- −60 -->
      <g transform="translate(71.453437 230.119819) scale(0.14 -0.14)">
       <defs>
        <path id="DejaVuSans-2212" d="M 678 2272 
L 4684 2272 
L 4684 1741 
L 678 1741 
L 678 2272 
z
" transform="scale(0.015625)"/>
       </defs>
       <use xlink:href="#DejaVuSans-2212"/>
       <use xlink:href="#DejaVuSans-36" x="83.789062"/>
       <use xlink:href="#DejaVuSans-30" x="147.412109"/>
      </g>
     </g>
    </g>
    <g id="ytick_2">
     <g id="line2d_15">
      <path d="M 108 181.991061 
L 777.6 181.991061 
" clip-path="url(#pbd177ca6d3)" style="fill: none; stroke: #b0b0b0; stroke-width: 0.8; stroke-linecap: square"/>
     </g>
     <g id="line2d_16">
      <g>
       <use xlink:href="#m26e5e99e7e" x="108" y="181.991061" style="stroke: #000000; stroke-width: 0.8"/>
      </g>
     </g>
     <g id="text_9">
      <!-- −40 -->
      <g transform="translate(71.453437 187.309968) scale(0.14 -0.14)">
       <use xlink:href="#DejaVuSans-2212"/>
       <use xlink:href="#DejaVuSans-34" x="83.789062"/>
       <use xlink:href="#DejaVuSans-30" x="147.412109"/>
      </g>
     </g>
    </g>
    <g id="ytick_3">
     <g id="line2d_17">
      <path d="M 108 139.18121 
L 777.6 139.18121 
" clip-path="url(#pbd177ca6d3)" style="fill: none; stroke: #b0b0b0; stroke-width: 0.8; stroke-linecap: square"/>
     </g>
     <g id="line2d_18">
      <g>
       <use xlink:href="#m26e5e99e7e" x="108" y="139.18121" style="stroke: #000000; stroke-width: 0.8"/>
      </g>
     </g>
     <g id="text_10">
      <!-- −20 -->
      <g transform="translate(71.453437 144.500116) scale(0.14 -0.14)">
       <use xlink:href="#DejaVuSans-2212"/>
       <use xlink:href="#DejaVuSans-32" x="83.789062"/>
       <use xlink:href="#DejaVuSans-30" x="147.412109"/>
      </g>
     </g>
    </g>
    <g id="ytick_4">
     <g id="line2d_19">
      <path d="M 108 96.371359 
L 777.6 96.371359 
" clip-path="url(#pbd177ca6d3)" style="fill: none; stroke: #b0b0b0; stroke-width: 0.8; stroke-linecap: square"/>
     </g>
     <g id="line2d_20">
      <g>
       <use xlink:href="#m26e5e99e7e" x="108" y="96.371359" style="stroke: #000000; stroke-width: 0.8"/>
      </g>
     </g>
     <g id="text_11">
      <!-- 0 -->
      <g transform="translate(92.0925 101.690265) scale(0.14 -0.14)">
       <use xlink:href="#DejaVuSans-30"/>
      </g>
     </g>
    </g>
    <g id="ytick_5">
     <g id="line2d_21">
      <path d="M 108 53.561507 
L 777.6 53.561507 
" clip-path="url(#pbd177ca6d3)" style="fill: none; stroke: #b0b0b0; stroke-width: 0.8; stroke-linecap: square"/>
     </g>
     <g id="line2d_22">
      <g>
       <use xlink:href="#m26e5e99e7e" x="108" y="53.561507" style="stroke: #000000; stroke-width: 0.8"/>
      </g>
     </g>
     <g id="text_12">
      <!-- 20 -->
      <g transform="translate(83.185 58.880413) scale(0.14 -0.14)">
       <use xlink:href="#DejaVuSans-32"/>
       <use xlink:href="#DejaVuSans-30" x="63.623047"/>
      </g>
     </g>
    </g>
    <g id="text_13">
     <!-- $V_{m}$ (mV) -->
     <g transform="translate(64.541875 174.49) rotate(-90) scale(0.14 -0.14)">
      <defs>
       <path id="DejaVuSans-Oblique-56" d="M 1319 0 
L 500 4666 
L 1119 4666 
L 1797 653 
L 4063 4666 
L 4750 4666 
L 2053 0 
L 1319 0 
z
" transform="scale(0.015625)"/>
       <path id="DejaVuSans-Oblique-6d" d="M 5747 2113 
L 5338 0 
L 4763 0 
L 5166 2094 
Q 5191 2228 5203 2325 
Q 5216 2422 5216 2491 
Q 5216 2772 5059 2928 
Q 4903 3084 4622 3084 
Q 4203 3084 3875 2770 
Q 3547 2456 3450 1953 
L 3066 0 
L 2491 0 
L 2900 2094 
Q 2925 2209 2937 2307 
Q 2950 2406 2950 2484 
Q 2950 2769 2794 2926 
Q 2638 3084 2363 3084 
Q 1938 3084 1609 2770 
Q 1281 2456 1184 1953 
L 800 0 
L 225 0 
L 909 3500 
L 1484 3500 
L 1375 2956 
Q 1609 3263 1923 3423 
Q 2238 3584 2597 3584 
Q 2978 3584 3223 3384 
Q 3469 3184 3519 2828 
Q 3781 3197 4126 3390 
Q 4472 3584 4856 3584 
Q 5306 3584 5551 3325 
Q 5797 3066 5797 2591 
Q 5797 2488 5784 2364 
Q 5772 2241 5747 2113 
z
" transform="scale(0.015625)"/>
       <path id="DejaVuSans-56" d="M 1831 0 
L 50 4666 
L 709 4666 
L 2188 738 
L 3669 4666 
L 4325 4666 
L 2547 0 
L 1831 0 
z
" transform="scale(0.015625)"/>
      </defs>
      <use xlink:href="#DejaVuSans-Oblique-56" transform="translate(0 0.125)"/>
      <use xlink:href="#DejaVuSans-Oblique-6d" transform="translate(68.408203 -16.28125) scale(0.7)"/>
      <use xlink:href="#DejaVuSans-20" transform="translate(139.331055 0.125)"/>
      <use xlink:href="#DejaVuSans-28" transform="translate(171.118164 0.125)"/>
      <use xlink:href="#DejaVuSans-6d" transform="translate(210.131836 0.125)"/>
      <use xlink:href="#DejaVuSans-56" transform="translate(307.543945 0.125)"/>
      <use xlink:href="#DejaVuSans-29" transform="translate(375.952148 0.125)"/>
     </g>
    </g>
   </g>
   <g id="line2d_23">
    <path d="M 108 220.14734 
L 109.3392 220.827267 
L 110.6784 221.275423 
L 111.348 221.443183 
L 112.6872 222.397929 
L 114.0264 222.865749 
L 116.0352 224.442108 
L 118.044 226.902254 
L 118.7136 228.008411 
L 119.3832 228.866107 
L 120.0528 229.414997 
L 120.7224 230.444827 
L 122.7312 232.725993 
L 124.0704 233.514289 
L 125.4096 234.028519 
L 127.4184 234.528141 
L 129.4272 234.807178 
L 132.1056 234.928068 
L 134.1144 234.86815 
L 136.1232 235.649188 
L 136.7928 236.452401 
L 137.4624 237.01577 
L 140.1408 238.175522 
L 141.48 238.438987 
L 144.1584 238.787108 
L 145.4976 239.047862 
L 147.5064 239.034766 
L 148.176 238.987094 
L 149.5152 239.3207 
L 150.8544 239.33569 
L 153.5328 239.042898 
L 156.8808 238.396375 
L 160.8984 237.343547 
L 164.916 236.054632 
L 169.6032 234.30673 
L 174.96 232.041526 
L 180.3168 229.539098 
L 186.3432 226.491302 
L 193.7088 222.503979 
L 196.3872 220.956449 
L 198.396 219.470562 
L 199.7352 219.252759 
L 201.0744 218.663823 
L 205.7616 216.149803 
L 207.1008 216.261223 
L 208.44 215.945859 
L 209.7792 216.307369 
L 211.1184 216.180076 
L 213.1272 215.67181 
L 216.4752 214.530671 
L 220.4928 212.915929 
L 225.8496 210.497667 
L 227.1888 210.782274 
L 227.8584 211.694469 
L 228.528 212.40549 
L 229.1976 212.754228 
L 230.5368 213.012561 
L 231.876 213.018358 
L 232.5456 212.969709 
L 234.5544 214.2503 
L 235.8936 216.162672 
L 236.5632 217.292599 
L 239.2416 220.504129 
L 239.9112 221.543391 
L 240.5808 223.039531 
L 241.2504 224.139911 
L 241.92 224.848403 
L 243.2592 225.780287 
L 244.5984 226.402732 
L 245.9376 227.469118 
L 246.6072 227.798851 
L 247.2768 228.382627 
L 247.9464 229.180242 
L 249.9552 230.999258 
L 251.2944 232.196925 
L 252.6336 232.826854 
L 253.9728 233.222048 
L 255.312 234.540333 
L 255.9816 235.176034 
L 256.6512 235.647986 
L 257.9904 236.186389 
L 259.9992 236.612064 
L 260.6688 236.696881 
L 262.008 237.294417 
L 263.3472 237.535925 
L 264.6864 237.62783 
L 267.3648 238.743798 
L 268.704 238.951899 
L 270.7128 238.986781 
L 272.052 239.382812 
L 273.3912 239.453737 
L 275.4 239.333746 
L 278.0784 238.967942 
L 281.4264 238.284463 
L 282.096 238.12289 
L 283.4352 238.274868 
L 284.7744 238.12393 
L 287.4528 237.534954 
L 290.8008 236.572184 
L 291.4704 236.358034 
L 292.8096 236.440731 
L 294.1488 236.212902 
L 296.8272 235.469638 
L 300.8448 234.080637 
L 305.532 232.202472 
L 310.8888 229.7997 
L 316.9152 226.837306 
L 323.6112 223.294238 
L 330.3072 219.51488 
L 332.9856 217.511885 
L 337.0032 214.577703 
L 342.36 211.000892 
L 345.0384 209.249844 
L 346.3776 209.331383 
L 347.7168 208.972409 
L 349.7256 208.118668 
L 353.0736 206.391364 
L 354.4128 205.603814 
L 355.752 206.833937 
L 356.4216 207.125092 
L 358.4304 209.013055 
L 359.1 210.077878 
L 359.7696 210.839587 
L 360.4392 211.303651 
L 361.7784 211.821704 
L 363.1176 213.761817 
L 363.7872 214.722463 
L 364.4568 215.438447 
L 366.4656 216.915581 
L 367.1352 217.466113 
L 367.8048 217.825574 
L 369.144 219.038754 
L 370.4832 219.650771 
L 371.8224 220.007966 
L 372.492 220.132789 
L 373.8312 221.744461 
L 374.5008 223.292459 
L 375.1704 224.484833 
L 375.84 225.206867 
L 377.1792 226.104581 
L 378.5184 226.680533 
L 379.188 226.898203 
L 379.8576 227.422012 
L 381.8664 229.690577 
L 382.536 230.10166 
L 383.8752 231.215338 
L 384.5448 231.551957 
L 386.5536 233.154874 
L 387.2232 233.617568 
L 388.5624 234.155866 
L 391.2408 234.970986 
L 391.9104 235.551841 
L 392.58 235.956702 
L 393.9192 236.367108 
L 395.928 236.634052 
L 399.276 236.931188 
L 402.624 237.793835 
L 403.2936 237.831579 
L 405.972 238.884414 
L 407.3112 239.050615 
L 407.9808 239.065349 
L 409.32 239.489089 
L 410.6592 239.573398 
L 412.668 239.461216 
L 415.3464 239.095431 
L 418.6944 238.405411 
L 422.712 237.318185 
L 426.7296 236.003033 
L 428.0688 236.057545 
L 429.408 235.80235 
L 432.0864 235.00873 
L 436.104 233.555209 
L 440.7912 231.614434 
L 446.148 229.152764 
L 452.1744 226.137114 
L 459.54 222.179156 
L 464.2272 219.503675 
L 466.9056 217.500696 
L 470.9232 214.567559 
L 472.932 213.197883 
L 474.2712 213.203954 
L 475.6104 212.786517 
L 476.9496 212.214026 
L 478.2888 212.485201 
L 479.628 212.281466 
L 481.6368 211.662079 
L 483.6456 210.89623 
L 484.9848 211.257213 
L 485.6544 211.71995 
L 486.324 212.043883 
L 487.6632 212.185219 
L 489.0024 212.071192 
L 490.3416 213.579569 
L 491.0112 213.923903 
L 491.6808 214.560933 
L 492.3504 215.483545 
L 493.02 216.126307 
L 493.6896 216.510667 
L 494.3592 217.189483 
L 495.0288 218.135655 
L 495.6984 218.809831 
L 497.7072 220.160338 
L 498.3768 220.664084 
L 499.716 221.220235 
L 501.0552 221.531136 
L 502.3944 222.419604 
L 503.7336 222.821987 
L 504.4032 222.937741 
L 505.7424 223.76703 
L 507.0816 224.123165 
L 507.7512 224.218829 
L 508.4208 224.650914 
L 510.4296 227.901092 
L 511.0992 228.630545 
L 512.4384 229.456245 
L 513.7776 229.944904 
L 515.1168 230.841559 
L 515.7864 231.71948 
L 516.456 232.40362 
L 517.1256 232.822423 
L 519.804 236.250096 
L 521.1432 237.01085 
L 522.4824 237.480563 
L 523.152 237.653632 
L 523.8216 238.056011 
L 524.4912 238.635225 
L 526.5 239.930636 
L 527.8392 240.782928 
L 529.1784 241.184788 
L 529.848 241.309251 
L 531.1872 241.893026 
L 532.5264 242.137312 
L 534.5352 242.253106 
L 537.2136 242.161533 
L 540.5616 241.772717 
L 543.9096 241.14788 
L 547.9272 240.145917 
L 551.9448 238.914421 
L 556.632 237.233677 
L 561.9888 235.041085 
L 567.3456 232.604063 
L 573.372 229.618055 
L 580.068 226.052067 
L 588.1032 221.510779 
L 597.4776 215.987773 
L 599.4864 214.537941 
L 602.1648 212.417546 
L 603.504 212.302106 
L 604.8432 211.780874 
L 608.1912 210.06592 
L 612.8784 207.444143 
L 613.548 207.049685 
L 614.8872 207.247039 
L 616.2264 207.013454 
L 618.2352 206.298012 
L 620.9136 205.039281 
L 622.9224 203.898942 
L 624.2616 204.101544 
L 624.9312 204.07333 
L 625.6008 204.495178 
L 626.94 206.127386 
L 627.6096 206.583788 
L 628.9488 207.075232 
L 629.6184 207.194429 
L 630.288 207.758967 
L 630.9576 209.205657 
L 631.6272 210.33797 
L 632.2968 211.027912 
L 634.3056 212.532809 
L 634.9752 213.108273 
L 635.6448 213.478533 
L 636.984 214.756643 
L 637.6536 215.124554 
L 638.9928 218.316409 
L 639.6624 219.395609 
L 640.332 220.10387 
L 641.6712 221.742956 
L 642.3408 222.261284 
L 643.0104 223.036351 
L 643.68 224.030956 
L 644.3496 224.770978 
L 645.0192 225.28443 
L 646.3584 226.635576 
L 648.3672 228.018345 
L 649.0368 228.850421 
L 649.7064 229.464105 
L 653.0544 231.559043 
L 653.724 232.107568 
L 654.3936 232.846612 
L 658.4112 236.083404 
L 659.7504 237.652007 
L 660.42 238.215237 
L 661.7592 238.873931 
L 663.0984 239.278262 
L 665.1072 239.641201 
L 668.4552 240.084496 
L 669.7944 240.36947 
L 671.8032 240.414419 
L 674.4816 240.224947 
L 677.8296 239.732114 
L 681.1776 239.019067 
L 685.1952 237.925795 
L 689.2128 236.61442 
L 693.9 234.851402 
L 695.2392 234.864106 
L 696.5784 234.562564 
L 699.2568 233.676635 
L 703.2744 232.097508 
L 708.6312 229.719147 
L 714.6576 226.771054 
L 721.3536 223.23829 
L 730.0584 218.362477 
L 732.0672 217.165021 
L 734.7456 215.143353 
L 738.7632 212.16254 
L 742.7808 209.399864 
L 744.12 209.460661 
L 745.4592 209.086184 
L 747.468 208.218628 
L 748.8072 208.535982 
L 750.1464 208.387069 
L 752.1552 207.806336 
L 753.4944 208.288915 
L 754.8336 208.288456 
L 756.1728 208.063462 
L 757.512 208.692216 
L 758.8512 208.815983 
L 760.1904 208.704175 
L 761.5296 209.420478 
L 762.1992 209.566533 
L 763.5384 210.530845 
L 764.8776 210.881895 
L 765.5472 210.945543 
L 766.8864 211.843448 
L 768.2256 212.185587 
L 768.8952 212.253682 
L 770.2344 213.984686 
L 770.904 214.429234 
L 771.5736 214.71404 
L 774.252 217.174185 
L 775.5912 217.796554 
L 776.9304 218.138486 
L 777.6 218.66498 
L 777.6 218.66498 
" clip-path="url(#pbd177ca6d3)" style="fill: none; stroke: #000000; stroke-width: 1.5; stroke-linecap: square"/>
   </g>
   <g id="line2d_24">
    <path d="M 108 185.458855 
L 110.6784 191.16421 
L 112.6872 194.924983 
L 114.696 198.328609 
L 120.7224 208.093002 
L 124.0704 213.592668 
L 126.0792 216.456801 
L 128.088 218.882109 
L 130.0968 220.915805 
L 132.1056 222.609362 
L 134.1144 224.005822 
L 138.132 226.62251 
L 141.48 228.941245 
L 143.4888 230.109098 
L 146.8368 231.737426 
L 149.5152 232.752331 
L 152.1936 233.610281 
L 154.872 234.200802 
L 157.5504 234.529735 
L 160.2288 234.632919 
L 162.9072 234.540626 
L 166.2552 234.187594 
L 169.6032 233.607116 
L 173.6208 232.65577 
L 177.6384 231.469447 
L 182.3256 229.837544 
L 187.6824 227.703173 
L 193.7088 225.026638 
L 195.7176 224.08115 
L 196.3872 194.571373 
L 197.0568 182.399479 
L 197.7264 176.42697 
L 198.396 172.803983 
L 199.0656 170.435507 
L 199.7352 168.906774 
L 200.4048 167.998464 
L 201.0744 167.56025 
L 201.744 167.478595 
L 202.4136 167.664711 
L 203.0832 168.044907 
L 204.4224 169.153918 
L 211.1184 175.4378 
L 213.1272 176.877033 
L 214.4664 177.598482 
L 215.8056 178.12831 
L 217.1448 178.477233 
L 218.484 178.660187 
L 220.4928 178.65798 
L 222.5016 178.373626 
L 224.5104 177.864663 
L 227.8584 176.919862 
L 229.1976 177.045586 
L 230.5368 177.511352 
L 232.5456 178.511851 
L 233.8848 179.347158 
L 235.224 180.453108 
L 236.5632 182.004299 
L 237.9024 184.007219 
L 239.9112 187.578301 
L 241.92 191.801299 
L 244.5984 197.472209 
L 247.2768 202.485702 
L 251.2944 209.413508 
L 253.3032 212.55226 
L 256.6512 217.172202 
L 258.66 219.732492 
L 260.6688 221.935615 
L 263.3472 224.454923 
L 265.356 226.059931 
L 269.3736 228.902591 
L 272.052 230.416305 
L 274.7304 231.690459 
L 276.7392 232.426039 
L 279.4176 233.122446 
L 282.096 233.536675 
L 287.4528 234.032248 
L 290.1312 234.018378 
L 297.4968 233.545969 
L 300.8448 233.054821 
L 304.1928 232.357143 
L 308.2104 231.289399 
L 312.8976 229.77543 
L 317.5848 228.020218 
L 322.9416 225.771925 
L 328.968 222.996114 
L 329.6376 222.674342 
L 330.3072 193.461078 
L 330.9768 181.389467 
L 331.6464 175.392184 
L 332.316 171.681743 
L 332.9856 169.185591 
L 333.6552 167.497655 
L 334.3248 166.399098 
L 334.9944 165.749081 
L 335.664 165.439183 
L 336.3336 165.385055 
L 337.0032 165.518625 
L 338.3424 166.125885 
L 341.6904 167.962791 
L 343.0296 168.410743 
L 344.3688 168.596535 
L 346.3776 168.455456 
L 348.3864 168.100069 
L 350.3952 167.465738 
L 352.404 166.532496 
L 355.752 164.666466 
L 357.0912 164.34629 
L 357.7608 164.348033 
L 358.4304 164.468221 
L 359.1 164.728216 
L 360.4392 165.64409 
L 361.7784 166.908678 
L 363.1176 168.509332 
L 364.4568 170.554477 
L 366.4656 174.182765 
L 369.144 179.601434 
L 372.492 186.503317 
L 375.1704 191.949931 
L 378.5184 199.057209 
L 381.1968 203.896072 
L 383.8752 208.459271 
L 386.5536 212.586052 
L 388.5624 215.421724 
L 390.5712 217.89778 
L 393.9192 221.523468 
L 395.928 223.405608 
L 397.9368 224.977025 
L 400.6152 226.720679 
L 404.6328 229.051235 
L 408.6504 231.154558 
L 411.3288 232.341294 
L 413.3376 233.043629 
L 416.016 233.707002 
L 418.6944 234.097159 
L 421.3728 234.253059 
L 424.0512 234.20586 
L 427.3992 233.911668 
L 433.4256 233.284687 
L 436.7736 232.662794 
L 440.7912 231.670811 
L 444.8088 230.453164 
L 449.496 228.793091 
L 454.8528 226.633976 
L 460.8792 223.936897 
L 463.5576 222.664337 
L 464.2272 193.453125 
L 464.8968 181.382297 
L 465.5664 175.386591 
L 466.236 171.680141 
L 466.9056 169.190387 
L 467.5752 167.510551 
L 468.2448 166.421016 
L 468.9144 165.780115 
L 469.584 165.478844 
L 470.2536 165.432423 
L 470.9232 165.572534 
L 472.2624 166.189363 
L 474.2712 167.44897 
L 476.28 168.76201 
L 478.2888 169.794781 
L 480.2976 170.624619 
L 481.6368 170.989526 
L 482.976 171.177584 
L 486.324 171.367512 
L 489.0024 171.997164 
L 490.3416 172.515606 
L 491.6808 173.345972 
L 493.02 174.55681 
L 494.3592 176.104622 
L 495.6984 177.994189 
L 497.7072 181.272164 
L 504.4032 192.790318 
L 507.0816 196.918087 
L 510.4296 201.804406 
L 513.7776 207.118443 
L 522.4824 219.615457 
L 525.1608 222.839143 
L 528.5088 226.572017 
L 530.5176 228.538075 
L 532.5264 230.283003 
L 534.5352 231.769224 
L 536.544 232.985393 
L 538.5528 233.9591 
L 540.5616 234.719343 
L 542.5704 235.290965 
L 545.2488 235.795779 
L 547.9272 236.044704 
L 550.6056 236.072943 
L 553.284 235.910064 
L 556.632 235.475259 
L 559.98 234.820692 
L 563.9976 233.790613 
L 568.0152 232.535874 
L 572.7024 230.835368 
L 578.0592 228.634296 
L 584.0856 225.893141 
L 590.7816 222.592283 
L 597.4776 219.097506 
L 598.1472 190.619339 
L 598.8168 178.779377 
L 599.4864 172.674129 
L 600.156 168.71167 
L 600.8256 165.92773 
L 601.4952 163.949069 
L 602.1648 162.570946 
L 602.8344 161.669583 
L 603.504 161.155273 
L 604.1736 160.945453 
L 604.8432 160.965033 
L 606.1824 161.440531 
L 610.2 163.507573 
L 611.5392 163.87248 
L 612.8784 163.98315 
L 614.8872 163.771833 
L 617.5656 163.284956 
L 619.5744 162.691743 
L 621.5832 161.891114 
L 624.9312 160.441282 
L 626.2704 160.207393 
L 626.94 160.269409 
L 628.2792 160.722673 
L 629.6184 161.463056 
L 630.9576 162.488042 
L 632.2968 164.045424 
L 633.636 165.99735 
L 635.6448 169.399761 
L 637.6536 173.276306 
L 638.9928 176.23067 
L 641.0016 181.385633 
L 645.6888 193.702348 
L 647.6976 198.469233 
L 650.376 204.09983 
L 652.3848 207.835185 
L 655.0632 212.262536 
L 657.7416 216.32742 
L 662.4288 222.845519 
L 664.4376 225.155806 
L 666.4464 227.081734 
L 668.4552 228.682275 
L 671.1336 230.520803 
L 673.1424 231.639505 
L 675.1512 232.528906 
L 677.16 233.213203 
L 679.8384 233.847266 
L 682.5168 234.206213 
L 685.1952 234.328849 
L 687.8736 234.247322 
L 691.2216 233.898887 
L 698.5872 232.702369 
L 701.9352 232.022967 
L 705.9528 230.970772 
L 709.9704 229.702025 
L 714.6576 227.992696 
L 720.0144 225.7883 
L 726.0408 223.05181 
L 731.3976 220.443334 
L 732.0672 191.695945 
L 732.7368 179.777671 
L 733.4064 173.738042 
L 734.076 169.905979 
L 734.7456 167.272816 
L 735.4152 165.449778 
L 736.0848 164.223963 
L 736.7544 163.451528 
L 737.424 163.023173 
L 738.0936 162.853189 
L 738.7632 162.872197 
L 740.1024 163.253529 
L 743.4504 164.5558 
L 745.4592 165.123445 
L 746.7984 165.332246 
L 749.4768 165.347629 
L 751.4856 165.232404 
L 754.164 164.968146 
L 756.8424 164.957083 
L 758.1816 165.127403 
L 760.1904 165.623551 
L 761.5296 166.119624 
L 762.8688 166.834529 
L 764.208 167.822097 
L 766.2168 169.656835 
L 768.2256 171.909858 
L 769.5648 173.586495 
L 771.5736 176.603857 
L 773.5824 180.03731 
L 777.6 187.383654 
L 777.6 187.383654 
" clip-path="url(#pbd177ca6d3)" style="fill: none; stroke: #4169e1; stroke-width: 1.5; stroke-linecap: square"/>
   </g>
   <g id="patch_3">
    <path d="M 108 256.32 
L 108 34.56 
" style="fill: none; stroke: #000000; stroke-width: 0.8; stroke-linejoin: miter; stroke-linecap: square"/>
   </g>
   <g id="patch_4">
    <path d="M 777.6 256.32 
L 777.6 34.56 
" style="fill: none; stroke: #000000; stroke-width: 0.8; stroke-linejoin: miter; stroke-linecap: square"/>
   </g>
   <g id="patch_5">
    <path d="M 108 256.32 
L 777.6 256.32 
" style="fill: none; stroke: #000000; stroke-width: 0.8; stroke-linejoin: miter; stroke-linecap: square"/>
   </g>
   <g id="patch_6">
    <path d="M 108 34.56 
L 777.6 34.56 
" style="fill: none; stroke: #000000; stroke-width: 0.8; stroke-linejoin: miter; stroke-linecap: square"/>
   </g>
   <g id="legend_1">
    <g id="patch_7">
     <path d="M 695.098438 71.91625 
L 770.6 71.91625 
Q 772.6 71.91625 772.6 69.91625 
L 772.6 41.56 
Q 772.6 39.56 770.6 39.56 
L 695.098438 39.56 
Q 693.098438 39.56 693.098438 41.56 
L 693.098438 69.91625 
Q 693.098438 71.91625 695.098438 71.91625 
z
" style="fill: #ffffff; opacity: 0.8; stroke: #cccccc; stroke-linejoin: miter"/>
    </g>
    <g id="line2d_25">
     <path d="M 697.098438 47.658437 
L 707.098438 47.658437 
L 717.098438 47.658437 
" style="fill: none; stroke: #000000; stroke-width: 1.5; stroke-linecap: square"/>
    </g>
    <g id="text_14">
     <!-- Soma -->
     <g transform="translate(725.098438 51.158437) scale(0.1 -0.1)">
      <defs>
       <path id="DejaVuSans-53" d="M 3425 4513 
L 3425 3897 
Q 3066 4069 2747 4153 
Q 2428 4238 2131 4238 
Q 1616 4238 1336 4038 
Q 1056 3838 1056 3469 
Q 1056 3159 1242 3001 
Q 1428 2844 1947 2747 
L 2328 2669 
Q 3034 2534 3370 2195 
Q 3706 1856 3706 1288 
Q 3706 609 3251 259 
Q 2797 -91 1919 -91 
Q 1588 -91 1214 -16 
Q 841 59 441 206 
L 441 856 
Q 825 641 1194 531 
Q 1563 422 1919 422 
Q 2459 422 2753 634 
Q 3047 847 3047 1241 
Q 3047 1584 2836 1778 
Q 2625 1972 2144 2069 
L 1759 2144 
Q 1053 2284 737 2584 
Q 422 2884 422 3419 
Q 422 4038 858 4394 
Q 1294 4750 2059 4750 
Q 2388 4750 2728 4690 
Q 3069 4631 3425 4513 
z
" transform="scale(0.015625)"/>
       <path id="DejaVuSans-6f" d="M 1959 3097 
Q 1497 3097 1228 2736 
Q 959 2375 959 1747 
Q 959 1119 1226 758 
Q 1494 397 1959 397 
Q 2419 397 2687 759 
Q 2956 1122 2956 1747 
Q 2956 2369 2687 2733 
Q 2419 3097 1959 3097 
z
M 1959 3584 
Q 2709 3584 3137 3096 
Q 3566 2609 3566 1747 
Q 3566 888 3137 398 
Q 2709 -91 1959 -91 
Q 1206 -91 779 398 
Q 353 888 353 1747 
Q 353 2609 779 3096 
Q 1206 3584 1959 3584 
z
" transform="scale(0.015625)"/>
       <path id="DejaVuSans-61" d="M 2194 1759 
Q 1497 1759 1228 1600 
Q 959 1441 959 1056 
Q 959 750 1161 570 
Q 1363 391 1709 391 
Q 2188 391 2477 730 
Q 2766 1069 2766 1631 
L 2766 1759 
L 2194 1759 
z
M 3341 1997 
L 3341 0 
L 2766 0 
L 2766 531 
Q 2569 213 2275 61 
Q 1981 -91 1556 -91 
Q 1019 -91 701 211 
Q 384 513 384 1019 
Q 384 1609 779 1909 
Q 1175 2209 1959 2209 
L 2766 2209 
L 2766 2266 
Q 2766 2663 2505 2880 
Q 2244 3097 1772 3097 
Q 1472 3097 1187 3025 
Q 903 2953 641 2809 
L 641 3341 
Q 956 3463 1253 3523 
Q 1550 3584 1831 3584 
Q 2591 3584 2966 3190 
Q 3341 2797 3341 1997 
z
" transform="scale(0.015625)"/>
      </defs>
      <use xlink:href="#DejaVuSans-53"/>
      <use xlink:href="#DejaVuSans-6f" x="63.476562"/>
      <use xlink:href="#DejaVuSans-6d" x="124.658203"/>
      <use xlink:href="#DejaVuSans-61" x="222.070312"/>
     </g>
    </g>
    <g id="line2d_26">
     <path d="M 697.098438 62.336562 
L 707.098438 62.336562 
L 717.098438 62.336562 
" style="fill: none; stroke: #4169e1; stroke-width: 1.5; stroke-linecap: square"/>
    </g>
    <g id="text_15">
     <!-- Dendrite -->
     <g transform="translate(725.098438 65.836562) scale(0.1 -0.1)">
      <defs>
       <path id="DejaVuSans-44" d="M 1259 4147 
L 1259 519 
L 2022 519 
Q 2988 519 3436 956 
Q 3884 1394 3884 2338 
Q 3884 3275 3436 3711 
Q 2988 4147 2022 4147 
L 1259 4147 
z
M 628 4666 
L 1925 4666 
Q 3281 4666 3915 4102 
Q 4550 3538 4550 2338 
Q 4550 1131 3912 565 
Q 3275 0 1925 0 
L 628 0 
L 628 4666 
z
" transform="scale(0.015625)"/>
       <path id="DejaVuSans-6e" d="M 3513 2113 
L 3513 0 
L 2938 0 
L 2938 2094 
Q 2938 2591 2744 2837 
Q 2550 3084 2163 3084 
Q 1697 3084 1428 2787 
Q 1159 2491 1159 1978 
L 1159 0 
L 581 0 
L 581 3500 
L 1159 3500 
L 1159 2956 
Q 1366 3272 1645 3428 
Q 1925 3584 2291 3584 
Q 2894 3584 3203 3211 
Q 3513 2838 3513 2113 
z
" transform="scale(0.015625)"/>
       <path id="DejaVuSans-64" d="M 2906 2969 
L 2906 4863 
L 3481 4863 
L 3481 0 
L 2906 0 
L 2906 525 
Q 2725 213 2448 61 
Q 2172 -91 1784 -91 
Q 1150 -91 751 415 
Q 353 922 353 1747 
Q 353 2572 751 3078 
Q 1150 3584 1784 3584 
Q 2172 3584 2448 3432 
Q 2725 3281 2906 2969 
z
M 947 1747 
Q 947 1113 1208 752 
Q 1469 391 1925 391 
Q 2381 391 2643 752 
Q 2906 1113 2906 1747 
Q 2906 2381 2643 2742 
Q 2381 3103 1925 3103 
Q 1469 3103 1208 2742 
Q 947 2381 947 1747 
z
" transform="scale(0.015625)"/>
       <path id="DejaVuSans-72" d="M 2631 2963 
Q 2534 3019 2420 3045 
Q 2306 3072 2169 3072 
Q 1681 3072 1420 2755 
Q 1159 2438 1159 1844 
L 1159 0 
L 581 0 
L 581 3500 
L 1159 3500 
L 1159 2956 
Q 1341 3275 1631 3429 
Q 1922 3584 2338 3584 
Q 2397 3584 2469 3576 
Q 2541 3569 2628 3553 
L 2631 2963 
z
" transform="scale(0.015625)"/>
       <path id="DejaVuSans-74" d="M 1172 4494 
L 1172 3500 
L 2356 3500 
L 2356 3053 
L 1172 3053 
L 1172 1153 
Q 1172 725 1289 603 
Q 1406 481 1766 481 
L 2356 481 
L 2356 0 
L 1766 0 
Q 1100 0 847 248 
Q 594 497 594 1153 
L 594 3053 
L 172 3053 
L 172 3500 
L 594 3500 
L 594 4494 
L 1172 4494 
z
" transform="scale(0.015625)"/>
      </defs>
      <use xlink:href="#DejaVuSans-44"/>
      <use xlink:href="#DejaVuSans-65" x="77.001953"/>
      <use xlink:href="#DejaVuSans-6e" x="138.525391"/>
      <use xlink:href="#DejaVuSans-64" x="201.904297"/>
      <use xlink:href="#DejaVuSans-72" x="265.380859"/>
      <use xlink:href="#DejaVuSans-69" x="306.494141"/>
      <use xlink:href="#DejaVuSans-74" x="334.277344"/>
      <use xlink:href="#DejaVuSans-65" x="373.486328"/>
     </g>
    </g>
   </g>
  </g>
 </g>
 <defs>
  <clipPath id="pbd177ca6d3">
   <rect x="108" y="34.56" width="669.6" height="221.76"/>
  </clipPath>
 </defs>
</svg>
