<?xml version="1.0" encoding="utf-8" standalone="no"?>
<!DOCTYPE svg PUBLIC "-//W3C//DTD SVG 1.1//EN"
  "http://www.w3.org/Graphics/SVG/1.1/DTD/svg11.dtd">
<svg xmlns:xlink="http://www.w3.org/1999/xlink" width="864pt" height="288pt" viewBox="0 0 864 288" xmlns="http://www.w3.org/2000/svg" version="1.1">
 <metadata>
  <rdf:RDF xmlns:dc="http://purl.org/dc/elements/1.1/" xmlns:cc="http://creativecommons.org/ns#" xmlns:rdf="http://www.w3.org/1999/02/22-rdf-syntax-ns#">
   <cc:Work>
    <dc:type rdf:resource="http://purl.org/dc/dcmitype/StillImage"/>
    <dc:date>2024-04-26T13:24:50.915782</dc:date>
    <dc:format>image/svg+xml</dc:format>
    <dc:creator>
     <cc:Agent>
      <dc:title>Matplotlib v3.8.2, https://matplotlib.org/</dc:title>
     </cc:Agent>
    </dc:creator>
   </cc:Work>
  </rdf:RDF>
 </metadata>
 <defs>
  <style type="text/css">*{stroke-linejoin: round; stroke-linecap: butt}</style>
 </defs>
 <g id="figure_1">
  <g id="patch_1">
   <path d="M 0 288 
L 864 288 
L 864 0 
L 0 0 
z
" style="fill: #ffffff"/>
  </g>
  <g id="axes_1">
   <g id="patch_2">
    <path d="M 108 256.32 
L 777.6 256.32 
L 777.6 34.56 
L 108 34.56 
z
" style="fill: #ffffff"/>
   </g>
   <g id="matplotlib.axis_1">
    <g id="xtick_1">
     <g id="line2d_1">
      <path d="M 108 256.32 
L 108 34.56 
" clip-path="url(#pfd99f733e4)" style="fill: none; stroke: #b0b0b0; stroke-width: 0.8; stroke-linecap: square"/>
     </g>
     <g id="line2d_2">
      <defs>
       <path id="m3e97de2448" d="M 0 0 
L 0 3.5 
" style="stroke: #000000; stroke-width: 0.8"/>
      </defs>
      <g>
       <use xlink:href="#m3e97de2448" x="108" y="256.32" style="stroke: #000000; stroke-width: 0.8"/>
      </g>
     </g>
     <g id="text_1">
      <!-- 100 -->
      <g transform="translate(94.63875 273.957812) scale(0.14 -0.14)">
       <defs>
        <path id="DejaVuSans-31" d="M 794 531 
L 1825 531 
L 1825 4091 
L 703 3866 
L 703 4441 
L 1819 4666 
L 2450 4666 
L 2450 531 
L 3481 531 
L 3481 0 
L 794 0 
L 794 531 
z
" transform="scale(0.015625)"/>
        <path id="DejaVuSans-30" d="M 2034 4250 
Q 1547 4250 1301 3770 
Q 1056 3291 1056 2328 
Q 1056 1369 1301 889 
Q 1547 409 2034 409 
Q 2525 409 2770 889 
Q 3016 1369 3016 2328 
Q 3016 3291 2770 3770 
Q 2525 4250 2034 4250 
z
M 2034 4750 
Q 2819 4750 3233 4129 
Q 3647 3509 3647 2328 
Q 3647 1150 3233 529 
Q 2819 -91 2034 -91 
Q 1250 -91 836 529 
Q 422 1150 422 2328 
Q 422 3509 836 4129 
Q 1250 4750 2034 4750 
z
" transform="scale(0.015625)"/>
       </defs>
       <use xlink:href="#DejaVuSans-31"/>
       <use xlink:href="#DejaVuSans-30" x="63.623047"/>
       <use xlink:href="#DejaVuSans-30" x="127.246094"/>
      </g>
     </g>
    </g>
    <g id="xtick_2">
     <g id="line2d_3">
      <path d="M 241.92 256.32 
L 241.92 34.56 
" clip-path="url(#pfd99f733e4)" style="fill: none; stroke: #b0b0b0; stroke-width: 0.8; stroke-linecap: square"/>
     </g>
     <g id="line2d_4">
      <g>
       <use xlink:href="#m3e97de2448" x="241.92" y="256.32" style="stroke: #000000; stroke-width: 0.8"/>
      </g>
     </g>
     <g id="text_2">
      <!-- 120 -->
      <g transform="translate(228.55875 273.957812) scale(0.14 -0.14)">
       <defs>
        <path id="DejaVuSans-32" d="M 1228 531 
L 3431 531 
L 3431 0 
L 469 0 
L 469 531 
Q 828 903 1448 1529 
Q 2069 2156 2228 2338 
Q 2531 2678 2651 2914 
Q 2772 3150 2772 3378 
Q 2772 3750 2511 3984 
Q 2250 4219 1831 4219 
Q 1534 4219 1204 4116 
Q 875 4013 500 3803 
L 500 4441 
Q 881 4594 1212 4672 
Q 1544 4750 1819 4750 
Q 2544 4750 2975 4387 
Q 3406 4025 3406 3419 
Q 3406 3131 3298 2873 
Q 3191 2616 2906 2266 
Q 2828 2175 2409 1742 
Q 1991 1309 1228 531 
z
" transform="scale(0.015625)"/>
       </defs>
       <use xlink:href="#DejaVuSans-31"/>
       <use xlink:href="#DejaVuSans-32" x="63.623047"/>
       <use xlink:href="#DejaVuSans-30" x="127.246094"/>
      </g>
     </g>
    </g>
    <g id="xtick_3">
     <g id="line2d_5">
      <path d="M 375.84 256.32 
L 375.84 34.56 
" clip-path="url(#pfd99f733e4)" style="fill: none; stroke: #b0b0b0; stroke-width: 0.8; stroke-linecap: square"/>
     </g>
     <g id="line2d_6">
      <g>
       <use xlink:href="#m3e97de2448" x="375.84" y="256.32" style="stroke: #000000; stroke-width: 0.8"/>
      </g>
     </g>
     <g id="text_3">
      <!-- 140 -->
      <g transform="translate(362.47875 273.957812) scale(0.14 -0.14)">
       <defs>
        <path id="DejaVuSans-34" d="M 2419 4116 
L 825 1625 
L 2419 1625 
L 2419 4116 
z
M 2253 4666 
L 3047 4666 
L 3047 1625 
L 3713 1625 
L 3713 1100 
L 3047 1100 
L 3047 0 
L 2419 0 
L 2419 1100 
L 313 1100 
L 313 1709 
L 2253 4666 
z
" transform="scale(0.015625)"/>
       </defs>
       <use xlink:href="#DejaVuSans-31"/>
       <use xlink:href="#DejaVuSans-34" x="63.623047"/>
       <use xlink:href="#DejaVuSans-30" x="127.246094"/>
      </g>
     </g>
    </g>
    <g id="xtick_4">
     <g id="line2d_7">
      <path d="M 509.76 256.32 
L 509.76 34.56 
" clip-path="url(#pfd99f733e4)" style="fill: none; stroke: #b0b0b0; stroke-width: 0.8; stroke-linecap: square"/>
     </g>
     <g id="line2d_8">
      <g>
       <use xlink:href="#m3e97de2448" x="509.76" y="256.32" style="stroke: #000000; stroke-width: 0.8"/>
      </g>
     </g>
     <g id="text_4">
      <!-- 160 -->
      <g transform="translate(496.39875 273.957812) scale(0.14 -0.14)">
       <defs>
        <path id="DejaVuSans-36" d="M 2113 2584 
Q 1688 2584 1439 2293 
Q 1191 2003 1191 1497 
Q 1191 994 1439 701 
Q 1688 409 2113 409 
Q 2538 409 2786 701 
Q 3034 994 3034 1497 
Q 3034 2003 2786 2293 
Q 2538 2584 2113 2584 
z
M 3366 4563 
L 3366 3988 
Q 3128 4100 2886 4159 
Q 2644 4219 2406 4219 
Q 1781 4219 1451 3797 
Q 1122 3375 1075 2522 
Q 1259 2794 1537 2939 
Q 1816 3084 2150 3084 
Q 2853 3084 3261 2657 
Q 3669 2231 3669 1497 
Q 3669 778 3244 343 
Q 2819 -91 2113 -91 
Q 1303 -91 875 529 
Q 447 1150 447 2328 
Q 447 3434 972 4092 
Q 1497 4750 2381 4750 
Q 2619 4750 2861 4703 
Q 3103 4656 3366 4563 
z
" transform="scale(0.015625)"/>
       </defs>
       <use xlink:href="#DejaVuSans-31"/>
       <use xlink:href="#DejaVuSans-36" x="63.623047"/>
       <use xlink:href="#DejaVuSans-30" x="127.246094"/>
      </g>
     </g>
    </g>
    <g id="xtick_5">
     <g id="line2d_9">
      <path d="M 643.68 256.32 
L 643.68 34.56 
" clip-path="url(#pfd99f733e4)" style="fill: none; stroke: #b0b0b0; stroke-width: 0.8; stroke-linecap: square"/>
     </g>
     <g id="line2d_10">
      <g>
       <use xlink:href="#m3e97de2448" x="643.68" y="256.32" style="stroke: #000000; stroke-width: 0.8"/>
      </g>
     </g>
     <g id="text_5">
      <!-- 180 -->
      <g transform="translate(630.31875 273.957812) scale(0.14 -0.14)">
       <defs>
        <path id="DejaVuSans-38" d="M 2034 2216 
Q 1584 2216 1326 1975 
Q 1069 1734 1069 1313 
Q 1069 891 1326 650 
Q 1584 409 2034 409 
Q 2484 409 2743 651 
Q 3003 894 3003 1313 
Q 3003 1734 2745 1975 
Q 2488 2216 2034 2216 
z
M 1403 2484 
Q 997 2584 770 2862 
Q 544 3141 544 3541 
Q 544 4100 942 4425 
Q 1341 4750 2034 4750 
Q 2731 4750 3128 4425 
Q 3525 4100 3525 3541 
Q 3525 3141 3298 2862 
Q 3072 2584 2669 2484 
Q 3125 2378 3379 2068 
Q 3634 1759 3634 1313 
Q 3634 634 3220 271 
Q 2806 -91 2034 -91 
Q 1263 -91 848 271 
Q 434 634 434 1313 
Q 434 1759 690 2068 
Q 947 2378 1403 2484 
z
M 1172 3481 
Q 1172 3119 1398 2916 
Q 1625 2713 2034 2713 
Q 2441 2713 2670 2916 
Q 2900 3119 2900 3481 
Q 2900 3844 2670 4047 
Q 2441 4250 2034 4250 
Q 1625 4250 1398 4047 
Q 1172 3844 1172 3481 
z
" transform="scale(0.015625)"/>
       </defs>
       <use xlink:href="#DejaVuSans-31"/>
       <use xlink:href="#DejaVuSans-38" x="63.623047"/>
       <use xlink:href="#DejaVuSans-30" x="127.246094"/>
      </g>
     </g>
    </g>
    <g id="xtick_6">
     <g id="line2d_11">
      <path d="M 777.6 256.32 
L 777.6 34.56 
" clip-path="url(#pfd99f733e4)" style="fill: none; stroke: #b0b0b0; stroke-width: 0.8; stroke-linecap: square"/>
     </g>
     <g id="line2d_12">
      <g>
       <use xlink:href="#m3e97de2448" x="777.6" y="256.32" style="stroke: #000000; stroke-width: 0.8"/>
      </g>
     </g>
     <g id="text_6">
      <!-- 200 -->
      <g transform="translate(764.23875 273.957812) scale(0.14 -0.14)">
       <use xlink:href="#DejaVuSans-32"/>
       <use xlink:href="#DejaVuSans-30" x="63.623047"/>
       <use xlink:href="#DejaVuSans-30" x="127.246094"/>
      </g>
     </g>
    </g>
    <g id="text_7">
     <!-- Time (ms) -->
     <g transform="translate(407.521094 291.507187) scale(0.14 -0.14)">
      <defs>
       <path id="DejaVuSans-54" d="M -19 4666 
L 3928 4666 
L 3928 4134 
L 2272 4134 
L 2272 0 
L 1638 0 
L 1638 4134 
L -19 4134 
L -19 4666 
z
" transform="scale(0.015625)"/>
       <path id="DejaVuSans-69" d="M 603 3500 
L 1178 3500 
L 1178 0 
L 603 0 
L 603 3500 
z
M 603 4863 
L 1178 4863 
L 1178 4134 
L 603 4134 
L 603 4863 
z
" transform="scale(0.015625)"/>
       <path id="DejaVuSans-6d" d="M 3328 2828 
Q 3544 3216 3844 3400 
Q 4144 3584 4550 3584 
Q 5097 3584 5394 3201 
Q 5691 2819 5691 2113 
L 5691 0 
L 5113 0 
L 5113 2094 
Q 5113 2597 4934 2840 
Q 4756 3084 4391 3084 
Q 3944 3084 3684 2787 
Q 3425 2491 3425 1978 
L 3425 0 
L 2847 0 
L 2847 2094 
Q 2847 2600 2669 2842 
Q 2491 3084 2119 3084 
Q 1678 3084 1418 2786 
Q 1159 2488 1159 1978 
L 1159 0 
L 581 0 
L 581 3500 
L 1159 3500 
L 1159 2956 
Q 1356 3278 1631 3431 
Q 1906 3584 2284 3584 
Q 2666 3584 2933 3390 
Q 3200 3197 3328 2828 
z
" transform="scale(0.015625)"/>
       <path id="DejaVuSans-65" d="M 3597 1894 
L 3597 1613 
L 953 1613 
Q 991 1019 1311 708 
Q 1631 397 2203 397 
Q 2534 397 2845 478 
Q 3156 559 3463 722 
L 3463 178 
Q 3153 47 2828 -22 
Q 2503 -91 2169 -91 
Q 1331 -91 842 396 
Q 353 884 353 1716 
Q 353 2575 817 3079 
Q 1281 3584 2069 3584 
Q 2775 3584 3186 3129 
Q 3597 2675 3597 1894 
z
M 3022 2063 
Q 3016 2534 2758 2815 
Q 2500 3097 2075 3097 
Q 1594 3097 1305 2825 
Q 1016 2553 972 2059 
L 3022 2063 
z
" transform="scale(0.015625)"/>
       <path id="DejaVuSans-20" transform="scale(0.015625)"/>
       <path id="DejaVuSans-28" d="M 1984 4856 
Q 1566 4138 1362 3434 
Q 1159 2731 1159 2009 
Q 1159 1288 1364 580 
Q 1569 -128 1984 -844 
L 1484 -844 
Q 1016 -109 783 600 
Q 550 1309 550 2009 
Q 550 2706 781 3412 
Q 1013 4119 1484 4856 
L 1984 4856 
z
" transform="scale(0.015625)"/>
       <path id="DejaVuSans-73" d="M 2834 3397 
L 2834 2853 
Q 2591 2978 2328 3040 
Q 2066 3103 1784 3103 
Q 1356 3103 1142 2972 
Q 928 2841 928 2578 
Q 928 2378 1081 2264 
Q 1234 2150 1697 2047 
L 1894 2003 
Q 2506 1872 2764 1633 
Q 3022 1394 3022 966 
Q 3022 478 2636 193 
Q 2250 -91 1575 -91 
Q 1294 -91 989 -36 
Q 684 19 347 128 
L 347 722 
Q 666 556 975 473 
Q 1284 391 1588 391 
Q 1994 391 2212 530 
Q 2431 669 2431 922 
Q 2431 1156 2273 1281 
Q 2116 1406 1581 1522 
L 1381 1569 
Q 847 1681 609 1914 
Q 372 2147 372 2553 
Q 372 3047 722 3315 
Q 1072 3584 1716 3584 
Q 2034 3584 2315 3537 
Q 2597 3491 2834 3397 
z
" transform="scale(0.015625)"/>
       <path id="DejaVuSans-29" d="M 513 4856 
L 1013 4856 
Q 1481 4119 1714 3412 
Q 1947 2706 1947 2009 
Q 1947 1309 1714 600 
Q 1481 -109 1013 -844 
L 513 -844 
Q 928 -128 1133 580 
Q 1338 1288 1338 2009 
Q 1338 2731 1133 3434 
Q 928 4138 513 4856 
z
" transform="scale(0.015625)"/>
      </defs>
      <use xlink:href="#DejaVuSans-54"/>
      <use xlink:href="#DejaVuSans-69" x="57.958984"/>
      <use xlink:href="#DejaVuSans-6d" x="85.742188"/>
      <use xlink:href="#DejaVuSans-65" x="183.154297"/>
      <use xlink:href="#DejaVuSans-20" x="244.677734"/>
      <use xlink:href="#DejaVuSans-28" x="276.464844"/>
      <use xlink:href="#DejaVuSans-6d" x="315.478516"/>
      <use xlink:href="#DejaVuSans-73" x="412.890625"/>
      <use xlink:href="#DejaVuSans-29" x="464.990234"/>
     </g>
    </g>
   </g>
   <g id="matplotlib.axis_2">
    <g id="ytick_1">
     <g id="line2d_13">
      <path d="M 108 224.199266 
L 777.6 224.199266 
" clip-path="url(#pfd99f733e4)" style="fill: none; stroke: #b0b0b0; stroke-width: 0.8; stroke-linecap: square"/>
     </g>
     <g id="line2d_14">
      <defs>
       <path id="m1838092b49" d="M 0 0 
L -3.5 0 
" style="stroke: #000000; stroke-width: 0.8"/>
      </defs>
      <g>
       <use xlink:href="#m1838092b49" x="108" y="224.199266" style="stroke: #000000; stroke-width: 0.8"/>
      </g>
     </g>
     <g id="text_8">
      <!-- −60 -->
      <g transform="translate(71.453437 229.518173) scale(0.14 -0.14)">
       <defs>
        <path id="DejaVuSans-2212" d="M 678 2272 
L 4684 2272 
L 4684 1741 
L 678 1741 
L 678 2272 
z
" transform="scale(0.015625)"/>
       </defs>
       <use xlink:href="#DejaVuSans-2212"/>
       <use xlink:href="#DejaVuSans-36" x="83.789062"/>
       <use xlink:href="#DejaVuSans-30" x="147.412109"/>
      </g>
     </g>
    </g>
    <g id="ytick_2">
     <g id="line2d_15">
      <path d="M 108 180.188039 
L 777.6 180.188039 
" clip-path="url(#pfd99f733e4)" style="fill: none; stroke: #b0b0b0; stroke-width: 0.8; stroke-linecap: square"/>
     </g>
     <g id="line2d_16">
      <g>
       <use xlink:href="#m1838092b49" x="108" y="180.188039" style="stroke: #000000; stroke-width: 0.8"/>
      </g>
     </g>
     <g id="text_9">
      <!-- −40 -->
      <g transform="translate(71.453437 185.506945) scale(0.14 -0.14)">
       <use xlink:href="#DejaVuSans-2212"/>
       <use xlink:href="#DejaVuSans-34" x="83.789062"/>
       <use xlink:href="#DejaVuSans-30" x="147.412109"/>
      </g>
     </g>
    </g>
    <g id="ytick_3">
     <g id="line2d_17">
      <path d="M 108 136.176811 
L 777.6 136.176811 
" clip-path="url(#pfd99f733e4)" style="fill: none; stroke: #b0b0b0; stroke-width: 0.8; stroke-linecap: square"/>
     </g>
     <g id="line2d_18">
      <g>
       <use xlink:href="#m1838092b49" x="108" y="136.176811" style="stroke: #000000; stroke-width: 0.8"/>
      </g>
     </g>
     <g id="text_10">
      <!-- −20 -->
      <g transform="translate(71.453437 141.495717) scale(0.14 -0.14)">
       <use xlink:href="#DejaVuSans-2212"/>
       <use xlink:href="#DejaVuSans-32" x="83.789062"/>
       <use xlink:href="#DejaVuSans-30" x="147.412109"/>
      </g>
     </g>
    </g>
    <g id="ytick_4">
     <g id="line2d_19">
      <path d="M 108 92.165584 
L 777.6 92.165584 
" clip-path="url(#pfd99f733e4)" style="fill: none; stroke: #b0b0b0; stroke-width: 0.8; stroke-linecap: square"/>
     </g>
     <g id="line2d_20">
      <g>
       <use xlink:href="#m1838092b49" x="108" y="92.165584" style="stroke: #000000; stroke-width: 0.8"/>
      </g>
     </g>
     <g id="text_11">
      <!-- 0 -->
      <g transform="translate(92.0925 97.48449) scale(0.14 -0.14)">
       <use xlink:href="#DejaVuSans-30"/>
      </g>
     </g>
    </g>
    <g id="ytick_5">
     <g id="line2d_21">
      <path d="M 108 48.154356 
L 777.6 48.154356 
" clip-path="url(#pfd99f733e4)" style="fill: none; stroke: #b0b0b0; stroke-width: 0.8; stroke-linecap: square"/>
     </g>
     <g id="line2d_22">
      <g>
       <use xlink:href="#m1838092b49" x="108" y="48.154356" style="stroke: #000000; stroke-width: 0.8"/>
      </g>
     </g>
     <g id="text_12">
      <!-- 20 -->
      <g transform="translate(83.185 53.473262) scale(0.14 -0.14)">
       <use xlink:href="#DejaVuSans-32"/>
       <use xlink:href="#DejaVuSans-30" x="63.623047"/>
      </g>
     </g>
    </g>
    <g id="text_13">
     <!-- $V_{m}$ (mV) -->
     <g transform="translate(64.541875 174.49) rotate(-90) scale(0.14 -0.14)">
      <defs>
       <path id="DejaVuSans-Oblique-56" d="M 1319 0 
L 500 4666 
L 1119 4666 
L 1797 653 
L 4063 4666 
L 4750 4666 
L 2053 0 
L 1319 0 
z
" transform="scale(0.015625)"/>
       <path id="DejaVuSans-Oblique-6d" d="M 5747 2113 
L 5338 0 
L 4763 0 
L 5166 2094 
Q 5191 2228 5203 2325 
Q 5216 2422 5216 2491 
Q 5216 2772 5059 2928 
Q 4903 3084 4622 3084 
Q 4203 3084 3875 2770 
Q 3547 2456 3450 1953 
L 3066 0 
L 2491 0 
L 2900 2094 
Q 2925 2209 2937 2307 
Q 2950 2406 2950 2484 
Q 2950 2769 2794 2926 
Q 2638 3084 2363 3084 
Q 1938 3084 1609 2770 
Q 1281 2456 1184 1953 
L 800 0 
L 225 0 
L 909 3500 
L 1484 3500 
L 1375 2956 
Q 1609 3263 1923 3423 
Q 2238 3584 2597 3584 
Q 2978 3584 3223 3384 
Q 3469 3184 3519 2828 
Q 3781 3197 4126 3390 
Q 4472 3584 4856 3584 
Q 5306 3584 5551 3325 
Q 5797 3066 5797 2591 
Q 5797 2488 5784 2364 
Q 5772 2241 5747 2113 
z
" transform="scale(0.015625)"/>
       <path id="DejaVuSans-56" d="M 1831 0 
L 50 4666 
L 709 4666 
L 2188 738 
L 3669 4666 
L 4325 4666 
L 2547 0 
L 1831 0 
z
" transform="scale(0.015625)"/>
      </defs>
      <use xlink:href="#DejaVuSans-Oblique-56" transform="translate(0 0.125)"/>
      <use xlink:href="#DejaVuSans-Oblique-6d" transform="translate(68.408203 -16.28125) scale(0.7)"/>
      <use xlink:href="#DejaVuSans-20" transform="translate(139.331055 0.125)"/>
      <use xlink:href="#DejaVuSans-28" transform="translate(171.118164 0.125)"/>
      <use xlink:href="#DejaVuSans-6d" transform="translate(210.131836 0.125)"/>
      <use xlink:href="#DejaVuSans-56" transform="translate(307.543945 0.125)"/>
      <use xlink:href="#DejaVuSans-29" transform="translate(375.952148 0.125)"/>
     </g>
    </g>
   </g>
   <g id="line2d_23">
    <path d="M 108 219.543801 
L 109.3392 220.198879 
L 110.6784 220.618404 
L 111.348 220.771276 
L 112.6872 221.716036 
L 114.0264 222.16358 
L 116.0352 223.742199 
L 118.044 226.240593 
L 118.7136 227.370436 
L 119.3832 228.245281 
L 120.0528 228.802748 
L 120.7224 229.856994 
L 122.7312 232.191293 
L 124.0704 232.995357 
L 125.4096 233.5187 
L 127.4184 234.026237 
L 129.4272 234.308695 
L 132.1056 234.42888 
L 134.1144 234.365122 
L 136.1232 235.170514 
L 136.7928 235.999589 
L 137.4624 236.581163 
L 138.132 236.893362 
L 138.8016 237.082788 
L 140.1408 237.779294 
L 141.48 238.05223 
L 143.4888 238.15601 
L 144.828 238.605486 
L 146.1672 238.710801 
L 148.176 238.626485 
L 149.5152 238.97296 
L 150.8544 238.990709 
L 153.5328 238.693382 
L 156.8808 238.032607 
L 160.2288 237.152246 
L 164.2464 235.867502 
L 168.9336 234.109333 
L 173.6208 232.118028 
L 178.9776 229.603515 
L 185.004 226.522683 
L 191.7 222.85019 
L 198.396 218.98313 
L 199.7352 219.009235 
L 201.0744 218.617758 
L 203.7528 217.472375 
L 205.7616 216.511147 
L 207.1008 216.692078 
L 208.44 216.427771 
L 209.7792 216.834559 
L 211.1184 216.741145 
L 213.1272 216.274316 
L 216.4752 215.18693 
L 220.4928 213.628452 
L 223.1712 212.450428 
L 225.18 211.216974 
L 225.8496 210.776202 
L 227.1888 210.828287 
L 227.8584 211.642964 
L 228.528 212.257523 
L 229.1976 212.516967 
L 230.5368 212.629885 
L 232.5456 212.433144 
L 233.8848 213.071846 
L 234.5544 213.640596 
L 235.8936 215.544738 
L 236.5632 216.678834 
L 239.2416 219.889624 
L 239.9112 220.937855 
L 240.5808 222.456323 
L 241.2504 223.569501 
L 241.92 224.281044 
L 243.2592 225.208124 
L 244.5984 225.820302 
L 245.9376 226.892652 
L 246.6072 227.220788 
L 247.2768 227.811307 
L 247.9464 228.622919 
L 249.9552 230.471972 
L 251.2944 231.692935 
L 252.6336 232.331238 
L 253.9728 232.729459 
L 255.312 234.080935 
L 255.9816 234.733075 
L 256.6512 235.216697 
L 257.9904 235.766618 
L 259.9992 236.199348 
L 260.6688 236.285113 
L 262.008 236.89856 
L 263.3472 237.14535 
L 264.6864 237.23833 
L 267.3648 238.387376 
L 268.704 238.60151 
L 270.7128 238.637274 
L 272.052 239.046108 
L 273.3912 239.11976 
L 275.4 238.99709 
L 278.0784 238.621824 
L 281.4264 237.920108 
L 282.096 237.754177 
L 283.4352 237.912484 
L 284.7744 237.758377 
L 287.4528 237.154211 
L 290.8008 236.165624 
L 291.4704 235.945661 
L 292.8096 236.032715 
L 294.1488 235.799543 
L 296.8272 235.03667 
L 300.8448 233.609863 
L 305.532 231.679668 
L 310.8888 229.209504 
L 316.9152 226.163231 
L 323.6112 222.519173 
L 331.6464 217.88896 
L 343.6992 210.661242 
L 345.0384 209.842913 
L 346.3776 209.983999 
L 347.7168 209.669784 
L 349.7256 208.897605 
L 353.0736 207.350368 
L 354.4128 206.675142 
L 355.752 207.988512 
L 356.4216 208.268291 
L 357.0912 208.852002 
L 357.7608 209.241543 
L 358.4304 209.868677 
L 359.1 210.782025 
L 359.7696 211.387268 
L 360.4392 211.702902 
L 361.7784 211.962239 
L 363.1176 213.726264 
L 363.7872 214.621301 
L 364.4568 215.280671 
L 366.4656 216.638126 
L 367.1352 217.162393 
L 367.8048 217.495927 
L 369.144 218.676246 
L 370.4832 219.249216 
L 371.8224 219.566074 
L 372.492 219.670589 
L 373.8312 221.276914 
L 374.5008 222.842263 
L 375.1704 224.04465 
L 375.84 224.766075 
L 377.1792 225.651682 
L 378.5184 226.21093 
L 379.188 226.419745 
L 379.8576 226.943914 
L 381.8664 229.238814 
L 382.536 229.65097 
L 383.8752 230.777429 
L 384.5448 231.115269 
L 386.5536 232.742691 
L 387.2232 233.212608 
L 388.5624 233.755385 
L 391.2408 234.576108 
L 391.9104 235.170425 
L 392.58 235.583773 
L 393.9192 235.999909 
L 395.928 236.26653 
L 399.276 236.562112 
L 402.624 237.444021 
L 403.2936 237.481819 
L 405.972 238.563787 
L 407.3112 238.733983 
L 407.9808 238.748723 
L 409.32 239.184934 
L 410.6592 239.271474 
L 412.668 239.155698 
L 415.3464 238.77912 
L 418.6944 238.069232 
L 422.712 236.950983 
L 426.7296 235.598362 
L 428.0688 235.655656 
L 429.408 235.393723 
L 432.0864 234.578005 
L 436.104 233.08347 
L 440.7912 231.087522 
L 446.148 228.555463 
L 452.1744 225.453167 
L 459.54 221.381156 
L 468.2448 216.299258 
L 472.932 213.492526 
L 474.2712 213.587564 
L 475.6104 213.234797 
L 476.9496 212.714682 
L 478.2888 213.034439 
L 479.628 212.868105 
L 481.6368 212.298561 
L 483.6456 211.585625 
L 484.9848 211.98166 
L 485.6544 212.457736 
L 486.324 212.790043 
L 487.6632 212.947505 
L 489.0024 212.85263 
L 490.3416 214.38095 
L 491.0112 214.690519 
L 491.6808 215.249895 
L 492.3504 216.069116 
L 493.02 216.596868 
L 493.6896 216.863892 
L 494.3592 217.434293 
L 495.0288 218.284848 
L 495.6984 218.870856 
L 497.7072 220.0127 
L 498.3768 220.46762 
L 499.716 220.939064 
L 501.0552 221.180885 
L 502.3944 222.027594 
L 503.7336 222.386852 
L 504.4032 222.481696 
L 505.7424 223.288623 
L 507.0816 223.615672 
L 507.7512 223.696286 
L 508.4208 224.123272 
L 510.4296 227.418027 
L 511.0992 228.155042 
L 512.4384 228.981134 
L 513.7776 229.463929 
L 515.1168 230.369249 
L 515.7864 231.264983 
L 516.456 231.961959 
L 517.1256 232.3864 
L 519.804 235.893651 
L 521.1432 236.668536 
L 522.4824 237.144994 
L 523.152 237.320002 
L 523.8216 237.731557 
L 524.4912 238.325607 
L 526.5 239.653523 
L 527.8392 240.528237 
L 529.1784 240.939395 
L 529.848 241.066386 
L 531.1872 241.666001 
L 532.5264 241.916139 
L 534.5352 242.033741 
L 537.2136 241.938128 
L 539.892 241.638507 
L 543.24 241.039528 
L 547.2576 240.052272 
L 551.2752 238.821914 
L 555.9624 237.128896 
L 560.6496 235.200321 
L 566.0064 232.751558 
L 572.0328 229.733807 
L 578.7288 226.112735 
L 586.0944 221.876391 
L 596.1384 215.822042 
L 602.1648 212.112783 
L 603.504 212.209385 
L 604.8432 211.854956 
L 607.5216 210.74043 
L 611.5392 208.781491 
L 613.548 207.737025 
L 614.8872 208.013266 
L 616.2264 207.832259 
L 618.2352 207.223662 
L 621.5832 205.894054 
L 622.9224 205.282076 
L 624.2616 205.678467 
L 624.9312 205.665131 
L 625.6008 206.046898 
L 626.2704 206.830391 
L 626.94 207.347505 
L 627.6096 207.581718 
L 628.9488 207.665999 
L 629.6184 207.611247 
L 630.288 208.029434 
L 630.9576 209.360724 
L 631.6272 210.379087 
L 632.2968 210.971543 
L 633.636 211.626921 
L 634.9752 212.826054 
L 635.6448 213.161416 
L 636.984 214.39338 
L 637.6536 214.736941 
L 638.9928 217.940716 
L 639.6624 219.017736 
L 640.332 219.716768 
L 641.6712 221.346026 
L 642.3408 221.853662 
L 643.0104 222.625059 
L 643.68 223.622383 
L 644.3496 224.359947 
L 645.0192 224.866284 
L 646.3584 226.214558 
L 648.3672 227.584651 
L 649.0368 228.424734 
L 649.7064 229.04174 
L 653.0544 231.141532 
L 653.724 231.697235 
L 654.3936 232.449643 
L 658.4112 235.744805 
L 659.7504 237.351069 
L 660.42 237.927196 
L 661.7592 238.598763 
L 663.0984 239.009464 
L 665.1072 239.376295 
L 668.4552 239.824531 
L 669.7944 240.115662 
L 671.8032 240.158996 
L 674.4816 239.960959 
L 677.8296 239.451063 
L 681.1776 238.715391 
L 685.1952 237.588772 
L 689.2128 236.238182 
L 693.9 234.422928 
L 695.2392 234.436578 
L 696.5784 234.126408 
L 699.2568 233.214687 
L 703.2744 231.589475 
L 707.9616 229.461878 
L 713.988 226.456925 
L 720.684 222.845358 
L 728.7192 218.240942 
L 740.1024 211.438449 
L 742.7808 209.808617 
L 744.12 209.950583 
L 745.4592 209.637181 
L 747.468 208.866025 
L 748.8072 209.246195 
L 750.1464 209.135328 
L 752.1552 208.62409 
L 753.4944 209.151771 
L 754.8336 209.17274 
L 756.1728 208.976878 
L 757.512 209.631817 
L 758.1816 209.741275 
L 759.5208 209.606976 
L 760.1904 209.425123 
L 761.5296 209.88933 
L 762.1992 209.89852 
L 763.5384 210.621433 
L 764.8776 210.771234 
L 765.5472 210.752323 
L 766.8864 211.531597 
L 768.2256 211.776338 
L 768.8952 211.804651 
L 770.2344 213.503828 
L 770.904 213.927179 
L 771.5736 214.188801 
L 774.252 216.60378 
L 775.5912 217.194183 
L 776.9304 217.499285 
L 777.6 218.017347 
L 777.6 218.017347 
" clip-path="url(#pfd99f733e4)" style="fill: none; stroke: #000000; stroke-width: 1.5; stroke-linecap: square"/>
   </g>
   <g id="line2d_24">
    <path d="M 108 169.078137 
L 112.6872 178.218844 
L 118.044 188.658146 
L 121.392 196.104059 
L 124.0704 202.053139 
L 126.0792 205.991565 
L 128.088 209.362788 
L 130.0968 212.217939 
L 132.1056 214.622371 
L 134.1144 216.634161 
L 142.8192 224.454263 
L 145.4976 226.327661 
L 147.5064 227.541642 
L 150.8544 229.210128 
L 152.8632 230.029481 
L 154.872 230.662111 
L 157.5504 231.237736 
L 160.2288 231.545757 
L 162.9072 231.622155 
L 165.5856 231.496707 
L 168.9336 231.093946 
L 172.2816 230.455948 
L 176.2992 229.427385 
L 180.3168 228.157031 
L 185.004 226.421034 
L 190.3608 224.163038 
L 196.3872 221.346221 
L 200.4048 219.476388 
L 207.7704 216.781436 
L 209.7792 216.299697 
L 217.8144 214.890203 
L 221.832 213.862494 
L 222.5016 213.67198 
L 223.1712 185.517912 
L 223.8408 173.765464 
L 224.5104 167.42026 
L 225.18 163.139046 
L 225.8496 160.080219 
L 226.5192 157.915589 
L 227.1888 156.451565 
L 227.8584 155.578122 
L 228.528 155.204879 
L 229.1976 155.236657 
L 229.8672 155.576376 
L 230.5368 156.136436 
L 231.876 157.641353 
L 234.5544 161.162361 
L 235.8936 163.143903 
L 237.9024 166.648754 
L 239.9112 170.644571 
L 241.92 175.326427 
L 246.6072 186.747258 
L 251.964 198.914236 
L 253.9728 202.928095 
L 257.3208 208.937436 
L 259.3296 212.144866 
L 261.3384 214.901319 
L 263.3472 217.347672 
L 265.356 219.476447 
L 268.704 222.647598 
L 270.7128 224.273795 
L 273.3912 226.144412 
L 275.4 227.323533 
L 277.4088 228.272855 
L 279.4176 229.010441 
L 281.4264 229.559321 
L 286.1136 230.478977 
L 288.792 230.757797 
L 291.4704 230.808474 
L 298.1664 230.64827 
L 301.5144 230.225735 
L 304.8624 229.576191 
L 308.88 228.542426 
L 312.8976 227.272552 
L 317.5848 225.540453 
L 322.9416 223.288525 
L 328.968 220.47946 
L 335.664 217.10312 
L 344.3688 212.452735 
L 346.3776 211.425589 
L 349.7256 210.120843 
L 355.752 207.896898 
L 356.4216 207.791725 
L 357.0912 181.003762 
L 357.7608 169.713793 
L 358.4304 163.363808 
L 359.1 159.134672 
L 359.7696 156.283336 
L 360.4392 154.445434 
L 361.1088 153.375703 
L 361.7784 152.891573 
L 362.448 152.88575 
L 363.1176 153.277135 
L 363.7872 153.995746 
L 365.1264 156.119052 
L 367.1352 160.093763 
L 373.1616 172.510037 
L 375.1704 176.709879 
L 381.8664 192.059391 
L 385.2144 199.183216 
L 387.8928 204.324503 
L 389.9016 207.743644 
L 392.58 211.689849 
L 394.5888 214.397938 
L 396.5976 216.746627 
L 398.6064 218.724829 
L 401.9544 221.554762 
L 405.3024 224.0697 
L 407.9808 225.937423 
L 411.3288 227.943825 
L 413.3376 228.908099 
L 415.3464 229.665652 
L 417.3552 230.235996 
L 420.0336 230.739644 
L 422.712 230.986226 
L 425.3904 231.008989 
L 432.0864 230.674492 
L 435.4344 230.248503 
L 438.7824 229.594571 
L 442.8 228.555758 
L 446.8176 227.281803 
L 451.5048 225.546067 
L 456.8616 223.29106 
L 462.888 220.479463 
L 469.584 217.101084 
L 474.9408 214.413963 
L 478.2888 213.210287 
L 483.6456 211.900267 
L 485.6544 211.522192 
L 487.6632 211.471217 
L 490.3416 211.615542 
L 491.0112 184.150918 
L 491.6808 172.798076 
L 492.3504 166.750621 
L 493.02 162.852994 
L 493.6896 160.288556 
L 494.3592 158.709253 
L 495.0288 157.910923 
L 495.6984 157.736264 
L 496.368 158.048601 
L 497.0376 158.730222 
L 497.7072 159.698435 
L 499.0464 162.230839 
L 501.7248 168.225419 
L 505.0728 175.747241 
L 507.7512 181.309511 
L 510.4296 186.748211 
L 514.4472 195.405946 
L 521.1432 208.365796 
L 523.152 211.840457 
L 525.8304 215.939529 
L 528.5088 219.738876 
L 530.5176 222.264073 
L 532.5264 224.511257 
L 534.5352 226.444353 
L 536.544 228.053836 
L 538.5528 229.371961 
L 540.5616 230.432903 
L 542.5704 231.266404 
L 544.5792 231.898027 
L 547.2576 232.464067 
L 549.936 232.755343 
L 552.6144 232.809739 
L 555.2928 232.659187 
L 558.6408 232.223394 
L 561.9888 231.552682 
L 566.0064 230.486995 
L 570.024 229.182489 
L 574.7112 227.410112 
L 580.068 225.113589 
L 586.0944 222.254255 
L 592.7904 218.816681 
L 601.4952 214.073547 
L 603.504 213.022983 
L 606.852 211.662993 
L 612.8784 209.197947 
L 614.8872 208.401149 
L 618.2352 207.469796 
L 622.9224 206.106838 
L 624.2616 205.745915 
L 624.9312 179.322433 
L 625.6008 168.023356 
L 626.2704 161.48445 
L 626.94 157.050451 
L 627.6096 153.993291 
L 628.2792 151.940057 
L 628.9488 150.643647 
L 629.6184 149.922905 
L 630.288 149.661108 
L 630.9576 149.80393 
L 631.6272 150.297297 
L 632.2968 151.062804 
L 633.636 153.078283 
L 636.3144 157.777957 
L 638.9928 162.714921 
L 641.0016 167.127018 
L 644.3496 175.217712 
L 651.7152 193.794838 
L 654.3936 199.741912 
L 657.072 205.202169 
L 661.0896 212.646738 
L 663.0984 215.975784 
L 665.1072 218.820332 
L 667.116 221.213085 
L 669.1248 223.250241 
L 671.1336 225.05321 
L 673.1424 226.571865 
L 675.1512 227.811047 
L 677.16 228.800217 
L 679.1688 229.568348 
L 681.1776 230.140642 
L 683.856 230.636198 
L 686.5344 230.865682 
L 689.2128 230.865678 
L 691.8912 230.666929 
L 699.2568 229.725373 
L 702.6048 229.095688 
L 706.6224 228.079633 
L 710.64 226.825101 
L 715.3272 225.109199 
L 720.684 222.873157 
L 726.7104 220.078374 
L 733.4064 216.713963 
L 742.1112 212.074463 
L 744.12 211.049439 
L 747.468 209.749958 
L 749.4768 209.153411 
L 753.4944 208.345935 
L 756.8424 208.071281 
L 758.1816 208.073039 
L 758.8512 181.277661 
L 759.5208 169.988025 
L 760.1904 163.623043 
L 760.86 159.328021 
L 761.5296 156.356308 
L 762.1992 154.352315 
L 762.8688 153.100466 
L 763.5384 152.443976 
L 764.208 152.252678 
L 764.8776 152.416002 
L 765.5472 152.839676 
L 766.2168 153.465149 
L 767.556 155.129373 
L 770.2344 159.040853 
L 774.9216 166.598899 
L 777.6 170.939415 
L 777.6 170.939415 
" clip-path="url(#pfd99f733e4)" style="fill: none; stroke: #4169e1; stroke-width: 1.5; stroke-linecap: square"/>
   </g>
   <g id="patch_3">
    <path d="M 108 256.32 
L 108 34.56 
" style="fill: none; stroke: #000000; stroke-width: 0.8; stroke-linejoin: miter; stroke-linecap: square"/>
   </g>
   <g id="patch_4">
    <path d="M 777.6 256.32 
L 777.6 34.56 
" style="fill: none; stroke: #000000; stroke-width: 0.8; stroke-linejoin: miter; stroke-linecap: square"/>
   </g>
   <g id="patch_5">
    <path d="M 108 256.32 
L 777.6 256.32 
" style="fill: none; stroke: #000000; stroke-width: 0.8; stroke-linejoin: miter; stroke-linecap: square"/>
   </g>
   <g id="patch_6">
    <path d="M 108 34.56 
L 777.6 34.56 
" style="fill: none; stroke: #000000; stroke-width: 0.8; stroke-linejoin: miter; stroke-linecap: square"/>
   </g>
   <g id="legend_1">
    <g id="patch_7">
     <path d="M 695.098438 71.91625 
L 770.6 71.91625 
Q 772.6 71.91625 772.6 69.91625 
L 772.6 41.56 
Q 772.6 39.56 770.6 39.56 
L 695.098438 39.56 
Q 693.098438 39.56 693.098438 41.56 
L 693.098438 69.91625 
Q 693.098438 71.91625 695.098438 71.91625 
z
" style="fill: #ffffff; opacity: 0.8; stroke: #cccccc; stroke-linejoin: miter"/>
    </g>
    <g id="line2d_25">
     <path d="M 697.098438 47.658437 
L 707.098438 47.658437 
L 717.098438 47.658437 
" style="fill: none; stroke: #000000; stroke-width: 1.5; stroke-linecap: square"/>
    </g>
    <g id="text_14">
     <!-- Soma -->
     <g transform="translate(725.098438 51.158437) scale(0.1 -0.1)">
      <defs>
       <path id="DejaVuSans-53" d="M 3425 4513 
L 3425 3897 
Q 3066 4069 2747 4153 
Q 2428 4238 2131 4238 
Q 1616 4238 1336 4038 
Q 1056 3838 1056 3469 
Q 1056 3159 1242 3001 
Q 1428 2844 1947 2747 
L 2328 2669 
Q 3034 2534 3370 2195 
Q 3706 1856 3706 1288 
Q 3706 609 3251 259 
Q 2797 -91 1919 -91 
Q 1588 -91 1214 -16 
Q 841 59 441 206 
L 441 856 
Q 825 641 1194 531 
Q 1563 422 1919 422 
Q 2459 422 2753 634 
Q 3047 847 3047 1241 
Q 3047 1584 2836 1778 
Q 2625 1972 2144 2069 
L 1759 2144 
Q 1053 2284 737 2584 
Q 422 2884 422 3419 
Q 422 4038 858 4394 
Q 1294 4750 2059 4750 
Q 2388 4750 2728 4690 
Q 3069 4631 3425 4513 
z
" transform="scale(0.015625)"/>
       <path id="DejaVuSans-6f" d="M 1959 3097 
Q 1497 3097 1228 2736 
Q 959 2375 959 1747 
Q 959 1119 1226 758 
Q 1494 397 1959 397 
Q 2419 397 2687 759 
Q 2956 1122 2956 1747 
Q 2956 2369 2687 2733 
Q 2419 3097 1959 3097 
z
M 1959 3584 
Q 2709 3584 3137 3096 
Q 3566 2609 3566 1747 
Q 3566 888 3137 398 
Q 2709 -91 1959 -91 
Q 1206 -91 779 398 
Q 353 888 353 1747 
Q 353 2609 779 3096 
Q 1206 3584 1959 3584 
z
" transform="scale(0.015625)"/>
       <path id="DejaVuSans-61" d="M 2194 1759 
Q 1497 1759 1228 1600 
Q 959 1441 959 1056 
Q 959 750 1161 570 
Q 1363 391 1709 391 
Q 2188 391 2477 730 
Q 2766 1069 2766 1631 
L 2766 1759 
L 2194 1759 
z
M 3341 1997 
L 3341 0 
L 2766 0 
L 2766 531 
Q 2569 213 2275 61 
Q 1981 -91 1556 -91 
Q 1019 -91 701 211 
Q 384 513 384 1019 
Q 384 1609 779 1909 
Q 1175 2209 1959 2209 
L 2766 2209 
L 2766 2266 
Q 2766 2663 2505 2880 
Q 2244 3097 1772 3097 
Q 1472 3097 1187 3025 
Q 903 2953 641 2809 
L 641 3341 
Q 956 3463 1253 3523 
Q 1550 3584 1831 3584 
Q 2591 3584 2966 3190 
Q 3341 2797 3341 1997 
z
" transform="scale(0.015625)"/>
      </defs>
      <use xlink:href="#DejaVuSans-53"/>
      <use xlink:href="#DejaVuSans-6f" x="63.476562"/>
      <use xlink:href="#DejaVuSans-6d" x="124.658203"/>
      <use xlink:href="#DejaVuSans-61" x="222.070312"/>
     </g>
    </g>
    <g id="line2d_26">
     <path d="M 697.098438 62.336562 
L 707.098438 62.336562 
L 717.098438 62.336562 
" style="fill: none; stroke: #4169e1; stroke-width: 1.5; stroke-linecap: square"/>
    </g>
    <g id="text_15">
     <!-- Dendrite -->
     <g transform="translate(725.098438 65.836562) scale(0.1 -0.1)">
      <defs>
       <path id="DejaVuSans-44" d="M 1259 4147 
L 1259 519 
L 2022 519 
Q 2988 519 3436 956 
Q 3884 1394 3884 2338 
Q 3884 3275 3436 3711 
Q 2988 4147 2022 4147 
L 1259 4147 
z
M 628 4666 
L 1925 4666 
Q 3281 4666 3915 4102 
Q 4550 3538 4550 2338 
Q 4550 1131 3912 565 
Q 3275 0 1925 0 
L 628 0 
L 628 4666 
z
" transform="scale(0.015625)"/>
       <path id="DejaVuSans-6e" d="M 3513 2113 
L 3513 0 
L 2938 0 
L 2938 2094 
Q 2938 2591 2744 2837 
Q 2550 3084 2163 3084 
Q 1697 3084 1428 2787 
Q 1159 2491 1159 1978 
L 1159 0 
L 581 0 
L 581 3500 
L 1159 3500 
L 1159 2956 
Q 1366 3272 1645 3428 
Q 1925 3584 2291 3584 
Q 2894 3584 3203 3211 
Q 3513 2838 3513 2113 
z
" transform="scale(0.015625)"/>
       <path id="DejaVuSans-64" d="M 2906 2969 
L 2906 4863 
L 3481 4863 
L 3481 0 
L 2906 0 
L 2906 525 
Q 2725 213 2448 61 
Q 2172 -91 1784 -91 
Q 1150 -91 751 415 
Q 353 922 353 1747 
Q 353 2572 751 3078 
Q 1150 3584 1784 3584 
Q 2172 3584 2448 3432 
Q 2725 3281 2906 2969 
z
M 947 1747 
Q 947 1113 1208 752 
Q 1469 391 1925 391 
Q 2381 391 2643 752 
Q 2906 1113 2906 1747 
Q 2906 2381 2643 2742 
Q 2381 3103 1925 3103 
Q 1469 3103 1208 2742 
Q 947 2381 947 1747 
z
" transform="scale(0.015625)"/>
       <path id="DejaVuSans-72" d="M 2631 2963 
Q 2534 3019 2420 3045 
Q 2306 3072 2169 3072 
Q 1681 3072 1420 2755 
Q 1159 2438 1159 1844 
L 1159 0 
L 581 0 
L 581 3500 
L 1159 3500 
L 1159 2956 
Q 1341 3275 1631 3429 
Q 1922 3584 2338 3584 
Q 2397 3584 2469 3576 
Q 2541 3569 2628 3553 
L 2631 2963 
z
" transform="scale(0.015625)"/>
       <path id="DejaVuSans-74" d="M 1172 4494 
L 1172 3500 
L 2356 3500 
L 2356 3053 
L 1172 3053 
L 1172 1153 
Q 1172 725 1289 603 
Q 1406 481 1766 481 
L 2356 481 
L 2356 0 
L 1766 0 
Q 1100 0 847 248 
Q 594 497 594 1153 
L 594 3053 
L 172 3053 
L 172 3500 
L 594 3500 
L 594 4494 
L 1172 4494 
z
" transform="scale(0.015625)"/>
      </defs>
      <use xlink:href="#DejaVuSans-44"/>
      <use xlink:href="#DejaVuSans-65" x="77.001953"/>
      <use xlink:href="#DejaVuSans-6e" x="138.525391"/>
      <use xlink:href="#DejaVuSans-64" x="201.904297"/>
      <use xlink:href="#DejaVuSans-72" x="265.380859"/>
      <use xlink:href="#DejaVuSans-69" x="306.494141"/>
      <use xlink:href="#DejaVuSans-74" x="334.277344"/>
      <use xlink:href="#DejaVuSans-65" x="373.486328"/>
     </g>
    </g>
   </g>
  </g>
 </g>
 <defs>
  <clipPath id="pfd99f733e4">
   <rect x="108" y="34.56" width="669.6" height="221.76"/>
  </clipPath>
 </defs>
</svg>
