<?xml version="1.0" encoding="utf-8" standalone="no"?>
<!DOCTYPE svg PUBLIC "-//W3C//DTD SVG 1.1//EN"
  "http://www.w3.org/Graphics/SVG/1.1/DTD/svg11.dtd">
<svg xmlns:xlink="http://www.w3.org/1999/xlink" width="864pt" height="288pt" viewBox="0 0 864 288" xmlns="http://www.w3.org/2000/svg" version="1.1">
 <metadata>
  <rdf:RDF xmlns:dc="http://purl.org/dc/elements/1.1/" xmlns:cc="http://creativecommons.org/ns#" xmlns:rdf="http://www.w3.org/1999/02/22-rdf-syntax-ns#">
   <cc:Work>
    <dc:type rdf:resource="http://purl.org/dc/dcmitype/StillImage"/>
    <dc:date>2024-04-26T13:25:04.746189</dc:date>
    <dc:format>image/svg+xml</dc:format>
    <dc:creator>
     <cc:Agent>
      <dc:title>Matplotlib v3.8.2, https://matplotlib.org/</dc:title>
     </cc:Agent>
    </dc:creator>
   </cc:Work>
  </rdf:RDF>
 </metadata>
 <defs>
  <style type="text/css">*{stroke-linejoin: round; stroke-linecap: butt}</style>
 </defs>
 <g id="figure_1">
  <g id="patch_1">
   <path d="M 0 288 
L 864 288 
L 864 0 
L 0 0 
z
" style="fill: #ffffff"/>
  </g>
  <g id="axes_1">
   <g id="patch_2">
    <path d="M 108 256.32 
L 777.6 256.32 
L 777.6 34.56 
L 108 34.56 
z
" style="fill: #ffffff"/>
   </g>
   <g id="matplotlib.axis_1">
    <g id="xtick_1">
     <g id="line2d_1">
      <path d="M 108 256.32 
L 108 34.56 
" clip-path="url(#p9b16d686b3)" style="fill: none; stroke: #b0b0b0; stroke-width: 0.8; stroke-linecap: square"/>
     </g>
     <g id="line2d_2">
      <defs>
       <path id="m89fb397d55" d="M 0 0 
L 0 3.5 
" style="stroke: #000000; stroke-width: 0.8"/>
      </defs>
      <g>
       <use xlink:href="#m89fb397d55" x="108" y="256.32" style="stroke: #000000; stroke-width: 0.8"/>
      </g>
     </g>
     <g id="text_1">
      <!-- 100 -->
      <g transform="translate(94.63875 273.957812) scale(0.14 -0.14)">
       <defs>
        <path id="DejaVuSans-31" d="M 794 531 
L 1825 531 
L 1825 4091 
L 703 3866 
L 703 4441 
L 1819 4666 
L 2450 4666 
L 2450 531 
L 3481 531 
L 3481 0 
L 794 0 
L 794 531 
z
" transform="scale(0.015625)"/>
        <path id="DejaVuSans-30" d="M 2034 4250 
Q 1547 4250 1301 3770 
Q 1056 3291 1056 2328 
Q 1056 1369 1301 889 
Q 1547 409 2034 409 
Q 2525 409 2770 889 
Q 3016 1369 3016 2328 
Q 3016 3291 2770 3770 
Q 2525 4250 2034 4250 
z
M 2034 4750 
Q 2819 4750 3233 4129 
Q 3647 3509 3647 2328 
Q 3647 1150 3233 529 
Q 2819 -91 2034 -91 
Q 1250 -91 836 529 
Q 422 1150 422 2328 
Q 422 3509 836 4129 
Q 1250 4750 2034 4750 
z
" transform="scale(0.015625)"/>
       </defs>
       <use xlink:href="#DejaVuSans-31"/>
       <use xlink:href="#DejaVuSans-30" x="63.623047"/>
       <use xlink:href="#DejaVuSans-30" x="127.246094"/>
      </g>
     </g>
    </g>
    <g id="xtick_2">
     <g id="line2d_3">
      <path d="M 241.92 256.32 
L 241.92 34.56 
" clip-path="url(#p9b16d686b3)" style="fill: none; stroke: #b0b0b0; stroke-width: 0.8; stroke-linecap: square"/>
     </g>
     <g id="line2d_4">
      <g>
       <use xlink:href="#m89fb397d55" x="241.92" y="256.32" style="stroke: #000000; stroke-width: 0.8"/>
      </g>
     </g>
     <g id="text_2">
      <!-- 120 -->
      <g transform="translate(228.55875 273.957812) scale(0.14 -0.14)">
       <defs>
        <path id="DejaVuSans-32" d="M 1228 531 
L 3431 531 
L 3431 0 
L 469 0 
L 469 531 
Q 828 903 1448 1529 
Q 2069 2156 2228 2338 
Q 2531 2678 2651 2914 
Q 2772 3150 2772 3378 
Q 2772 3750 2511 3984 
Q 2250 4219 1831 4219 
Q 1534 4219 1204 4116 
Q 875 4013 500 3803 
L 500 4441 
Q 881 4594 1212 4672 
Q 1544 4750 1819 4750 
Q 2544 4750 2975 4387 
Q 3406 4025 3406 3419 
Q 3406 3131 3298 2873 
Q 3191 2616 2906 2266 
Q 2828 2175 2409 1742 
Q 1991 1309 1228 531 
z
" transform="scale(0.015625)"/>
       </defs>
       <use xlink:href="#DejaVuSans-31"/>
       <use xlink:href="#DejaVuSans-32" x="63.623047"/>
       <use xlink:href="#DejaVuSans-30" x="127.246094"/>
      </g>
     </g>
    </g>
    <g id="xtick_3">
     <g id="line2d_5">
      <path d="M 375.84 256.32 
L 375.84 34.56 
" clip-path="url(#p9b16d686b3)" style="fill: none; stroke: #b0b0b0; stroke-width: 0.8; stroke-linecap: square"/>
     </g>
     <g id="line2d_6">
      <g>
       <use xlink:href="#m89fb397d55" x="375.84" y="256.32" style="stroke: #000000; stroke-width: 0.8"/>
      </g>
     </g>
     <g id="text_3">
      <!-- 140 -->
      <g transform="translate(362.47875 273.957812) scale(0.14 -0.14)">
       <defs>
        <path id="DejaVuSans-34" d="M 2419 4116 
L 825 1625 
L 2419 1625 
L 2419 4116 
z
M 2253 4666 
L 3047 4666 
L 3047 1625 
L 3713 1625 
L 3713 1100 
L 3047 1100 
L 3047 0 
L 2419 0 
L 2419 1100 
L 313 1100 
L 313 1709 
L 2253 4666 
z
" transform="scale(0.015625)"/>
       </defs>
       <use xlink:href="#DejaVuSans-31"/>
       <use xlink:href="#DejaVuSans-34" x="63.623047"/>
       <use xlink:href="#DejaVuSans-30" x="127.246094"/>
      </g>
     </g>
    </g>
    <g id="xtick_4">
     <g id="line2d_7">
      <path d="M 509.76 256.32 
L 509.76 34.56 
" clip-path="url(#p9b16d686b3)" style="fill: none; stroke: #b0b0b0; stroke-width: 0.8; stroke-linecap: square"/>
     </g>
     <g id="line2d_8">
      <g>
       <use xlink:href="#m89fb397d55" x="509.76" y="256.32" style="stroke: #000000; stroke-width: 0.8"/>
      </g>
     </g>
     <g id="text_4">
      <!-- 160 -->
      <g transform="translate(496.39875 273.957812) scale(0.14 -0.14)">
       <defs>
        <path id="DejaVuSans-36" d="M 2113 2584 
Q 1688 2584 1439 2293 
Q 1191 2003 1191 1497 
Q 1191 994 1439 701 
Q 1688 409 2113 409 
Q 2538 409 2786 701 
Q 3034 994 3034 1497 
Q 3034 2003 2786 2293 
Q 2538 2584 2113 2584 
z
M 3366 4563 
L 3366 3988 
Q 3128 4100 2886 4159 
Q 2644 4219 2406 4219 
Q 1781 4219 1451 3797 
Q 1122 3375 1075 2522 
Q 1259 2794 1537 2939 
Q 1816 3084 2150 3084 
Q 2853 3084 3261 2657 
Q 3669 2231 3669 1497 
Q 3669 778 3244 343 
Q 2819 -91 2113 -91 
Q 1303 -91 875 529 
Q 447 1150 447 2328 
Q 447 3434 972 4092 
Q 1497 4750 2381 4750 
Q 2619 4750 2861 4703 
Q 3103 4656 3366 4563 
z
" transform="scale(0.015625)"/>
       </defs>
       <use xlink:href="#DejaVuSans-31"/>
       <use xlink:href="#DejaVuSans-36" x="63.623047"/>
       <use xlink:href="#DejaVuSans-30" x="127.246094"/>
      </g>
     </g>
    </g>
    <g id="xtick_5">
     <g id="line2d_9">
      <path d="M 643.68 256.32 
L 643.68 34.56 
" clip-path="url(#p9b16d686b3)" style="fill: none; stroke: #b0b0b0; stroke-width: 0.8; stroke-linecap: square"/>
     </g>
     <g id="line2d_10">
      <g>
       <use xlink:href="#m89fb397d55" x="643.68" y="256.32" style="stroke: #000000; stroke-width: 0.8"/>
      </g>
     </g>
     <g id="text_5">
      <!-- 180 -->
      <g transform="translate(630.31875 273.957812) scale(0.14 -0.14)">
       <defs>
        <path id="DejaVuSans-38" d="M 2034 2216 
Q 1584 2216 1326 1975 
Q 1069 1734 1069 1313 
Q 1069 891 1326 650 
Q 1584 409 2034 409 
Q 2484 409 2743 651 
Q 3003 894 3003 1313 
Q 3003 1734 2745 1975 
Q 2488 2216 2034 2216 
z
M 1403 2484 
Q 997 2584 770 2862 
Q 544 3141 544 3541 
Q 544 4100 942 4425 
Q 1341 4750 2034 4750 
Q 2731 4750 3128 4425 
Q 3525 4100 3525 3541 
Q 3525 3141 3298 2862 
Q 3072 2584 2669 2484 
Q 3125 2378 3379 2068 
Q 3634 1759 3634 1313 
Q 3634 634 3220 271 
Q 2806 -91 2034 -91 
Q 1263 -91 848 271 
Q 434 634 434 1313 
Q 434 1759 690 2068 
Q 947 2378 1403 2484 
z
M 1172 3481 
Q 1172 3119 1398 2916 
Q 1625 2713 2034 2713 
Q 2441 2713 2670 2916 
Q 2900 3119 2900 3481 
Q 2900 3844 2670 4047 
Q 2441 4250 2034 4250 
Q 1625 4250 1398 4047 
Q 1172 3844 1172 3481 
z
" transform="scale(0.015625)"/>
       </defs>
       <use xlink:href="#DejaVuSans-31"/>
       <use xlink:href="#DejaVuSans-38" x="63.623047"/>
       <use xlink:href="#DejaVuSans-30" x="127.246094"/>
      </g>
     </g>
    </g>
    <g id="xtick_6">
     <g id="line2d_11">
      <path d="M 777.6 256.32 
L 777.6 34.56 
" clip-path="url(#p9b16d686b3)" style="fill: none; stroke: #b0b0b0; stroke-width: 0.8; stroke-linecap: square"/>
     </g>
     <g id="line2d_12">
      <g>
       <use xlink:href="#m89fb397d55" x="777.6" y="256.32" style="stroke: #000000; stroke-width: 0.8"/>
      </g>
     </g>
     <g id="text_6">
      <!-- 200 -->
      <g transform="translate(764.23875 273.957812) scale(0.14 -0.14)">
       <use xlink:href="#DejaVuSans-32"/>
       <use xlink:href="#DejaVuSans-30" x="63.623047"/>
       <use xlink:href="#DejaVuSans-30" x="127.246094"/>
      </g>
     </g>
    </g>
    <g id="text_7">
     <!-- Time (ms) -->
     <g transform="translate(407.521094 291.507187) scale(0.14 -0.14)">
      <defs>
       <path id="DejaVuSans-54" d="M -19 4666 
L 3928 4666 
L 3928 4134 
L 2272 4134 
L 2272 0 
L 1638 0 
L 1638 4134 
L -19 4134 
L -19 4666 
z
" transform="scale(0.015625)"/>
       <path id="DejaVuSans-69" d="M 603 3500 
L 1178 3500 
L 1178 0 
L 603 0 
L 603 3500 
z
M 603 4863 
L 1178 4863 
L 1178 4134 
L 603 4134 
L 603 4863 
z
" transform="scale(0.015625)"/>
       <path id="DejaVuSans-6d" d="M 3328 2828 
Q 3544 3216 3844 3400 
Q 4144 3584 4550 3584 
Q 5097 3584 5394 3201 
Q 5691 2819 5691 2113 
L 5691 0 
L 5113 0 
L 5113 2094 
Q 5113 2597 4934 2840 
Q 4756 3084 4391 3084 
Q 3944 3084 3684 2787 
Q 3425 2491 3425 1978 
L 3425 0 
L 2847 0 
L 2847 2094 
Q 2847 2600 2669 2842 
Q 2491 3084 2119 3084 
Q 1678 3084 1418 2786 
Q 1159 2488 1159 1978 
L 1159 0 
L 581 0 
L 581 3500 
L 1159 3500 
L 1159 2956 
Q 1356 3278 1631 3431 
Q 1906 3584 2284 3584 
Q 2666 3584 2933 3390 
Q 3200 3197 3328 2828 
z
" transform="scale(0.015625)"/>
       <path id="DejaVuSans-65" d="M 3597 1894 
L 3597 1613 
L 953 1613 
Q 991 1019 1311 708 
Q 1631 397 2203 397 
Q 2534 397 2845 478 
Q 3156 559 3463 722 
L 3463 178 
Q 3153 47 2828 -22 
Q 2503 -91 2169 -91 
Q 1331 -91 842 396 
Q 353 884 353 1716 
Q 353 2575 817 3079 
Q 1281 3584 2069 3584 
Q 2775 3584 3186 3129 
Q 3597 2675 3597 1894 
z
M 3022 2063 
Q 3016 2534 2758 2815 
Q 2500 3097 2075 3097 
Q 1594 3097 1305 2825 
Q 1016 2553 972 2059 
L 3022 2063 
z
" transform="scale(0.015625)"/>
       <path id="DejaVuSans-20" transform="scale(0.015625)"/>
       <path id="DejaVuSans-28" d="M 1984 4856 
Q 1566 4138 1362 3434 
Q 1159 2731 1159 2009 
Q 1159 1288 1364 580 
Q 1569 -128 1984 -844 
L 1484 -844 
Q 1016 -109 783 600 
Q 550 1309 550 2009 
Q 550 2706 781 3412 
Q 1013 4119 1484 4856 
L 1984 4856 
z
" transform="scale(0.015625)"/>
       <path id="DejaVuSans-73" d="M 2834 3397 
L 2834 2853 
Q 2591 2978 2328 3040 
Q 2066 3103 1784 3103 
Q 1356 3103 1142 2972 
Q 928 2841 928 2578 
Q 928 2378 1081 2264 
Q 1234 2150 1697 2047 
L 1894 2003 
Q 2506 1872 2764 1633 
Q 3022 1394 3022 966 
Q 3022 478 2636 193 
Q 2250 -91 1575 -91 
Q 1294 -91 989 -36 
Q 684 19 347 128 
L 347 722 
Q 666 556 975 473 
Q 1284 391 1588 391 
Q 1994 391 2212 530 
Q 2431 669 2431 922 
Q 2431 1156 2273 1281 
Q 2116 1406 1581 1522 
L 1381 1569 
Q 847 1681 609 1914 
Q 372 2147 372 2553 
Q 372 3047 722 3315 
Q 1072 3584 1716 3584 
Q 2034 3584 2315 3537 
Q 2597 3491 2834 3397 
z
" transform="scale(0.015625)"/>
       <path id="DejaVuSans-29" d="M 513 4856 
L 1013 4856 
Q 1481 4119 1714 3412 
Q 1947 2706 1947 2009 
Q 1947 1309 1714 600 
Q 1481 -109 1013 -844 
L 513 -844 
Q 928 -128 1133 580 
Q 1338 1288 1338 2009 
Q 1338 2731 1133 3434 
Q 928 4138 513 4856 
z
" transform="scale(0.015625)"/>
      </defs>
      <use xlink:href="#DejaVuSans-54"/>
      <use xlink:href="#DejaVuSans-69" x="57.958984"/>
      <use xlink:href="#DejaVuSans-6d" x="85.742188"/>
      <use xlink:href="#DejaVuSans-65" x="183.154297"/>
      <use xlink:href="#DejaVuSans-20" x="244.677734"/>
      <use xlink:href="#DejaVuSans-28" x="276.464844"/>
      <use xlink:href="#DejaVuSans-6d" x="315.478516"/>
      <use xlink:href="#DejaVuSans-73" x="412.890625"/>
      <use xlink:href="#DejaVuSans-29" x="464.990234"/>
     </g>
    </g>
   </g>
   <g id="matplotlib.axis_2">
    <g id="ytick_1">
     <g id="line2d_13">
      <path d="M 108 224.199266 
L 777.6 224.199266 
" clip-path="url(#p9b16d686b3)" style="fill: none; stroke: #b0b0b0; stroke-width: 0.8; stroke-linecap: square"/>
     </g>
     <g id="line2d_14">
      <defs>
       <path id="m6df859d6b5" d="M 0 0 
L -3.5 0 
" style="stroke: #000000; stroke-width: 0.8"/>
      </defs>
      <g>
       <use xlink:href="#m6df859d6b5" x="108" y="224.199266" style="stroke: #000000; stroke-width: 0.8"/>
      </g>
     </g>
     <g id="text_8">
      <!-- −60 -->
      <g transform="translate(71.453437 229.518173) scale(0.14 -0.14)">
       <defs>
        <path id="DejaVuSans-2212" d="M 678 2272 
L 4684 2272 
L 4684 1741 
L 678 1741 
L 678 2272 
z
" transform="scale(0.015625)"/>
       </defs>
       <use xlink:href="#DejaVuSans-2212"/>
       <use xlink:href="#DejaVuSans-36" x="83.789062"/>
       <use xlink:href="#DejaVuSans-30" x="147.412109"/>
      </g>
     </g>
    </g>
    <g id="ytick_2">
     <g id="line2d_15">
      <path d="M 108 180.188039 
L 777.6 180.188039 
" clip-path="url(#p9b16d686b3)" style="fill: none; stroke: #b0b0b0; stroke-width: 0.8; stroke-linecap: square"/>
     </g>
     <g id="line2d_16">
      <g>
       <use xlink:href="#m6df859d6b5" x="108" y="180.188039" style="stroke: #000000; stroke-width: 0.8"/>
      </g>
     </g>
     <g id="text_9">
      <!-- −40 -->
      <g transform="translate(71.453437 185.506945) scale(0.14 -0.14)">
       <use xlink:href="#DejaVuSans-2212"/>
       <use xlink:href="#DejaVuSans-34" x="83.789062"/>
       <use xlink:href="#DejaVuSans-30" x="147.412109"/>
      </g>
     </g>
    </g>
    <g id="ytick_3">
     <g id="line2d_17">
      <path d="M 108 136.176811 
L 777.6 136.176811 
" clip-path="url(#p9b16d686b3)" style="fill: none; stroke: #b0b0b0; stroke-width: 0.8; stroke-linecap: square"/>
     </g>
     <g id="line2d_18">
      <g>
       <use xlink:href="#m6df859d6b5" x="108" y="136.176811" style="stroke: #000000; stroke-width: 0.8"/>
      </g>
     </g>
     <g id="text_10">
      <!-- −20 -->
      <g transform="translate(71.453437 141.495717) scale(0.14 -0.14)">
       <use xlink:href="#DejaVuSans-2212"/>
       <use xlink:href="#DejaVuSans-32" x="83.789062"/>
       <use xlink:href="#DejaVuSans-30" x="147.412109"/>
      </g>
     </g>
    </g>
    <g id="ytick_4">
     <g id="line2d_19">
      <path d="M 108 92.165584 
L 777.6 92.165584 
" clip-path="url(#p9b16d686b3)" style="fill: none; stroke: #b0b0b0; stroke-width: 0.8; stroke-linecap: square"/>
     </g>
     <g id="line2d_20">
      <g>
       <use xlink:href="#m6df859d6b5" x="108" y="92.165584" style="stroke: #000000; stroke-width: 0.8"/>
      </g>
     </g>
     <g id="text_11">
      <!-- 0 -->
      <g transform="translate(92.0925 97.48449) scale(0.14 -0.14)">
       <use xlink:href="#DejaVuSans-30"/>
      </g>
     </g>
    </g>
    <g id="ytick_5">
     <g id="line2d_21">
      <path d="M 108 48.154356 
L 777.6 48.154356 
" clip-path="url(#p9b16d686b3)" style="fill: none; stroke: #b0b0b0; stroke-width: 0.8; stroke-linecap: square"/>
     </g>
     <g id="line2d_22">
      <g>
       <use xlink:href="#m6df859d6b5" x="108" y="48.154356" style="stroke: #000000; stroke-width: 0.8"/>
      </g>
     </g>
     <g id="text_12">
      <!-- 20 -->
      <g transform="translate(83.185 53.473262) scale(0.14 -0.14)">
       <use xlink:href="#DejaVuSans-32"/>
       <use xlink:href="#DejaVuSans-30" x="63.623047"/>
      </g>
     </g>
    </g>
    <g id="text_13">
     <!-- $V_{m}$ (mV) -->
     <g transform="translate(64.541875 174.49) rotate(-90) scale(0.14 -0.14)">
      <defs>
       <path id="DejaVuSans-Oblique-56" d="M 1319 0 
L 500 4666 
L 1119 4666 
L 1797 653 
L 4063 4666 
L 4750 4666 
L 2053 0 
L 1319 0 
z
" transform="scale(0.015625)"/>
       <path id="DejaVuSans-Oblique-6d" d="M 5747 2113 
L 5338 0 
L 4763 0 
L 5166 2094 
Q 5191 2228 5203 2325 
Q 5216 2422 5216 2491 
Q 5216 2772 5059 2928 
Q 4903 3084 4622 3084 
Q 4203 3084 3875 2770 
Q 3547 2456 3450 1953 
L 3066 0 
L 2491 0 
L 2900 2094 
Q 2925 2209 2937 2307 
Q 2950 2406 2950 2484 
Q 2950 2769 2794 2926 
Q 2638 3084 2363 3084 
Q 1938 3084 1609 2770 
Q 1281 2456 1184 1953 
L 800 0 
L 225 0 
L 909 3500 
L 1484 3500 
L 1375 2956 
Q 1609 3263 1923 3423 
Q 2238 3584 2597 3584 
Q 2978 3584 3223 3384 
Q 3469 3184 3519 2828 
Q 3781 3197 4126 3390 
Q 4472 3584 4856 3584 
Q 5306 3584 5551 3325 
Q 5797 3066 5797 2591 
Q 5797 2488 5784 2364 
Q 5772 2241 5747 2113 
z
" transform="scale(0.015625)"/>
       <path id="DejaVuSans-56" d="M 1831 0 
L 50 4666 
L 709 4666 
L 2188 738 
L 3669 4666 
L 4325 4666 
L 2547 0 
L 1831 0 
z
" transform="scale(0.015625)"/>
      </defs>
      <use xlink:href="#DejaVuSans-Oblique-56" transform="translate(0 0.125)"/>
      <use xlink:href="#DejaVuSans-Oblique-6d" transform="translate(68.408203 -16.28125) scale(0.7)"/>
      <use xlink:href="#DejaVuSans-20" transform="translate(139.331055 0.125)"/>
      <use xlink:href="#DejaVuSans-28" transform="translate(171.118164 0.125)"/>
      <use xlink:href="#DejaVuSans-6d" transform="translate(210.131836 0.125)"/>
      <use xlink:href="#DejaVuSans-56" transform="translate(307.543945 0.125)"/>
      <use xlink:href="#DejaVuSans-29" transform="translate(375.952148 0.125)"/>
     </g>
    </g>
   </g>
   <g id="line2d_23">
    <path d="M 108 220.096764 
L 109.3392 220.626283 
L 111.348 221.074047 
L 112.6872 221.95982 
L 114.0264 222.363434 
L 116.0352 223.888522 
L 118.044 226.34387 
L 118.7136 227.461088 
L 119.3832 228.324724 
L 120.0528 228.8723 
L 120.7224 229.916851 
L 122.7312 232.227698 
L 124.0704 233.019934 
L 125.4096 233.533538 
L 127.4184 234.029234 
L 129.4272 234.302068 
L 132.1056 234.411514 
L 134.1144 234.34071 
L 136.1232 235.140335 
L 136.7928 235.96808 
L 137.4624 236.548261 
L 138.132 236.85896 
L 138.8016 237.046876 
L 140.1408 237.740913 
L 141.48 238.011336 
L 143.4888 238.11159 
L 144.828 238.559471 
L 146.1672 238.663053 
L 148.176 238.576254 
L 149.5152 238.921821 
L 150.8544 238.93843 
L 153.5328 238.638861 
L 156.8808 237.975614 
L 160.2288 237.093086 
L 164.2464 235.806017 
L 168.9336 234.045348 
L 173.6208 232.05164 
L 178.9776 229.534394 
L 185.004 226.450445 
L 191.7 222.774435 
L 198.396 218.903926 
L 199.7352 218.930441 
L 201.0744 218.538845 
L 203.7528 217.392728 
L 205.7616 216.430943 
L 207.1008 216.612579 
L 208.44 216.348455 
L 209.7792 216.756275 
L 211.1184 216.663305 
L 213.1272 216.196747 
L 216.4752 215.109411 
L 220.4928 213.551144 
L 225.8496 211.215873 
L 227.1888 211.525072 
L 227.8584 212.446582 
L 228.528 213.156298 
L 229.1976 213.503038 
L 230.5368 213.761618 
L 231.876 213.770166 
L 232.5456 213.723132 
L 234.5544 215.006437 
L 235.8936 216.917034 
L 236.5632 218.007141 
L 239.2416 220.793931 
L 239.9112 221.728035 
L 240.5808 223.136258 
L 241.2504 224.155419 
L 241.92 224.788039 
L 243.2592 225.590953 
L 244.5984 226.112502 
L 245.9376 227.114739 
L 246.6072 227.415057 
L 247.2768 227.980166 
L 247.9464 228.768664 
L 249.9552 230.564013 
L 251.2944 231.758186 
L 252.6336 232.375822 
L 253.9728 232.757722 
L 255.312 234.095828 
L 255.9816 234.742425 
L 256.6512 235.221151 
L 257.9904 235.762752 
L 259.9992 236.185574 
L 260.6688 236.268527 
L 262.008 236.877144 
L 263.3472 237.119582 
L 264.6864 237.208615 
L 267.3648 238.351757 
L 268.704 238.563177 
L 270.7128 238.595134 
L 272.052 239.002157 
L 273.3912 239.073871 
L 275.4 238.948402 
L 278.0784 238.569735 
L 281.4264 237.864217 
L 282.096 237.697575 
L 283.4352 237.855209 
L 284.7744 237.700101 
L 287.4528 237.093796 
L 290.8008 236.102643 
L 291.4704 235.882184 
L 292.8096 235.969064 
L 294.1488 235.735306 
L 296.8272 234.970992 
L 300.8448 233.541981 
L 305.532 231.609236 
L 310.8888 229.136155 
L 316.9152 226.086565 
L 323.6112 222.43879 
L 331.6464 217.804283 
L 343.6992 210.569965 
L 345.0384 209.750017 
L 346.3776 209.891359 
L 347.7168 209.577349 
L 349.7256 208.805003 
L 353.0736 207.253953 
L 354.4128 206.577266 
L 355.752 207.892468 
L 356.4216 208.173577 
L 358.4304 210.015856 
L 359.1 211.056845 
L 359.7696 211.792368 
L 360.4392 212.234852 
L 361.7784 212.727512 
L 363.1176 214.656222 
L 363.7872 215.610382 
L 364.4568 216.32092 
L 366.4656 217.788951 
L 367.1352 218.337135 
L 367.8048 218.694004 
L 369.144 219.901113 
L 369.8136 220.250884 
L 371.1528 220.577636 
L 372.492 220.619188 
L 373.8312 221.998563 
L 374.5008 223.45442 
L 375.1704 224.562675 
L 375.84 225.205389 
L 377.1792 225.966918 
L 378.5184 226.435402 
L 379.188 226.608109 
L 379.8576 227.09995 
L 381.8664 229.319381 
L 382.536 229.712952 
L 383.8752 230.808418 
L 384.5448 231.133637 
L 386.5536 232.73181 
L 387.2232 233.194418 
L 388.5624 233.725192 
L 391.2408 234.529754 
L 391.9104 235.121634 
L 392.58 235.532709 
L 393.9192 235.944664 
L 395.928 236.206096 
L 399.276 236.495404 
L 402.624 237.373986 
L 403.2936 237.411075 
L 405.972 238.492343 
L 407.3112 238.661847 
L 407.9808 238.676185 
L 409.32 239.112454 
L 410.6592 239.198582 
L 412.668 239.082013 
L 415.3464 238.704387 
L 418.6944 237.993268 
L 422.712 236.873606 
L 426.7296 235.519564 
L 428.0688 235.577365 
L 429.408 235.31539 
L 432.0864 234.499164 
L 436.104 233.003598 
L 440.7912 231.006238 
L 446.148 228.472332 
L 452.1744 225.367713 
L 459.54 221.292663 
L 468.2448 216.207226 
L 472.932 213.398585 
L 474.2712 213.494433 
L 475.6104 213.141822 
L 476.9496 212.621476 
L 478.2888 212.942431 
L 479.628 212.77685 
L 481.6368 212.207919 
L 483.6456 211.495321 
L 484.9848 211.892738 
L 485.6544 212.369929 
L 486.324 212.703234 
L 487.6632 212.862099 
L 489.0024 212.768225 
L 490.3416 214.299795 
L 491.0112 214.649461 
L 491.6808 215.293156 
L 492.3504 216.222937 
L 493.02 216.871516 
L 493.6896 217.260547 
L 494.3592 217.945144 
L 495.0288 218.897743 
L 495.6984 219.576739 
L 497.7072 220.937018 
L 498.3768 221.442791 
L 499.716 221.999221 
L 501.0552 222.306621 
L 502.3944 223.189996 
L 503.7336 223.583039 
L 504.4032 223.65309 
L 505.7424 224.277074 
L 507.0816 224.383297 
L 507.7512 224.360948 
L 508.4208 224.689494 
L 511.0992 228.411104 
L 512.4384 229.143346 
L 513.7776 229.557458 
L 515.1168 230.411063 
L 515.7864 231.286016 
L 516.456 231.965349 
L 517.1256 232.374699 
L 519.804 235.84272 
L 521.1432 236.605836 
L 522.4824 237.073835 
L 523.152 237.245569 
L 523.8216 237.654854 
L 524.4912 238.247483 
L 526.5 239.572604 
L 527.8392 240.446845 
L 529.1784 240.857324 
L 529.848 240.984027 
L 531.1872 241.584163 
L 532.5264 241.83443 
L 534.5352 241.952166 
L 537.2136 241.856821 
L 539.892 241.55749 
L 543.24 240.958778 
L 547.2576 239.971594 
L 551.2752 238.740981 
L 555.9624 237.047221 
L 560.6496 235.117443 
L 566.0064 232.666782 
L 572.0328 229.646315 
L 578.7288 226.021665 
L 586.0944 221.780973 
L 596.1384 215.720706 
L 602.1648 212.007501 
L 603.504 212.104795 
L 604.8432 211.750603 
L 607.5216 210.635526 
L 611.5392 208.674023 
L 613.548 207.626187 
L 614.8872 207.90223 
L 616.2264 207.721738 
L 618.2352 207.11316 
L 621.5832 205.780387 
L 622.9224 205.163234 
L 624.2616 205.557831 
L 624.9312 205.582759 
L 625.6008 206.051016 
L 626.2704 206.95642 
L 626.94 207.612677 
L 627.6096 207.993647 
L 628.9488 208.368491 
L 629.6184 208.448356 
L 630.288 208.983225 
L 630.9576 210.395191 
L 631.6272 211.47165 
L 632.2968 212.112626 
L 633.636 212.845315 
L 634.9752 214.090299 
L 635.6448 214.445296 
L 636.984 215.698589 
L 637.6536 216.055987 
L 638.9928 219.116052 
L 639.6624 220.08392 
L 640.332 220.671206 
L 641.0016 221.463217 
L 641.6712 222.080023 
L 642.3408 222.492654 
L 643.0104 223.176186 
L 643.68 224.094372 
L 644.3496 224.76537 
L 645.0192 225.216054 
L 646.3584 226.474084 
L 648.3672 227.752372 
L 649.0368 228.567969 
L 649.7064 229.163888 
L 653.0544 231.189214 
L 653.724 231.73428 
L 654.3936 232.477139 
L 658.4112 235.735131 
L 659.7504 237.334388 
L 660.42 237.90759 
L 661.7592 238.574047 
L 663.0984 238.980475 
L 665.1072 239.342035 
L 668.4552 239.783676 
L 669.7944 240.072859 
L 671.8032 240.113306 
L 674.4816 239.911804 
L 677.8296 239.398091 
L 681.1776 238.659003 
L 685.1952 237.528631 
L 689.2128 236.17453 
L 693.9 234.355342 
L 695.2392 234.368757 
L 696.5784 234.057899 
L 699.2568 233.144474 
L 703.2744 231.516585 
L 707.9616 229.385837 
L 713.988 226.37682 
L 720.684 222.760755 
L 728.7192 218.151174 
L 740.1024 211.341485 
L 742.7808 209.708951 
L 744.12 209.851187 
L 745.4592 209.537963 
L 747.468 208.766552 
L 748.8072 209.147774 
L 750.1464 209.03769 
L 752.1552 208.526897 
L 753.4944 209.055833 
L 754.8336 209.07814 
L 756.1728 208.883088 
L 757.512 209.539904 
L 758.8512 209.670847 
L 760.1904 209.574067 
L 761.5296 210.303764 
L 762.1992 210.447539 
L 763.5384 211.410425 
L 764.8776 211.753709 
L 765.5472 211.815123 
L 766.8864 212.708177 
L 768.2256 213.039535 
L 768.8952 213.104235 
L 770.2344 214.828371 
L 770.904 215.264622 
L 771.5736 215.541974 
L 772.2432 216.13427 
L 772.9128 216.555418 
L 773.5824 217.185113 
L 774.252 217.633584 
L 775.5912 218.007106 
L 776.9304 218.1263 
L 777.6 218.562368 
L 777.6 218.562368 
" clip-path="url(#p9b16d686b3)" style="fill: none; stroke: #000000; stroke-width: 1.5; stroke-linecap: square"/>
   </g>
   <g id="line2d_24">
    <path d="M 108 156.956516 
L 108.6696 157.785227 
L 110.0088 160.180893 
L 112.0176 164.657988 
L 118.044 179.284247 
L 121.392 188.201987 
L 124.0704 195.349459 
L 126.0792 200.086786 
L 128.088 204.12048 
L 130.0968 207.507957 
L 132.1056 210.336702 
L 134.1144 212.687905 
L 141.48 220.301085 
L 143.4888 222.059107 
L 146.1672 224.08984 
L 148.176 225.380804 
L 151.524 227.208393 
L 153.5328 228.083273 
L 155.5416 228.762318 
L 158.22 229.392804 
L 160.8984 229.748267 
L 163.5768 229.864942 
L 166.2552 229.773167 
L 169.6032 229.404261 
L 172.9512 228.792226 
L 176.2992 227.972357 
L 180.3168 226.755265 
L 185.004 225.065959 
L 189.6912 223.137778 
L 195.048 220.698603 
L 200.4048 218.199291 
L 207.7704 215.540605 
L 209.7792 215.073264 
L 217.8144 213.745127 
L 221.832 212.757857 
L 227.8584 211.115794 
L 229.1976 211.126613 
L 233.8848 211.68564 
L 235.224 211.989018 
L 235.8936 212.233939 
L 236.5632 184.782949 
L 237.2328 173.547395 
L 237.9024 167.684457 
L 238.572 163.988068 
L 239.2416 161.644268 
L 239.9112 160.313672 
L 240.5808 159.80616 
L 241.2504 159.972171 
L 241.92 160.668564 
L 242.5896 161.76657 
L 243.9288 164.760272 
L 245.9376 170.257279 
L 250.6248 184.273838 
L 253.3032 191.954731 
L 255.9816 198.664425 
L 257.9904 203.223418 
L 259.9992 207.167553 
L 262.008 210.517647 
L 264.0168 213.435009 
L 266.0256 215.940202 
L 268.704 218.947959 
L 270.7128 220.875527 
L 273.3912 223.077604 
L 275.4 224.46449 
L 277.4088 225.592307 
L 279.4176 226.483542 
L 281.4264 227.16506 
L 285.444 228.196203 
L 288.1224 228.655544 
L 290.8008 228.863545 
L 297.4968 228.955398 
L 300.8448 228.664217 
L 304.1928 228.125296 
L 307.5408 227.37448 
L 311.5584 226.233827 
L 315.576 224.869957 
L 320.2632 223.042116 
L 325.62 220.697236 
L 331.6464 217.803685 
L 339.012 214.004293 
L 347.0472 209.812228 
L 355.0824 206.767469 
L 356.4216 206.505201 
L 357.7608 206.486051 
L 359.1 206.714606 
L 361.1088 207.471194 
L 363.1176 208.412989 
L 365.1264 209.728622 
L 369.8136 213.077983 
L 370.4832 185.56858 
L 371.1528 174.338451 
L 371.8224 168.525527 
L 372.492 164.856902 
L 373.1616 162.50897 
L 373.8312 161.147603 
L 374.5008 160.59982 
L 375.1704 160.725681 
L 375.84 161.390185 
L 376.5096 162.466171 
L 377.8488 165.434124 
L 379.8576 170.871244 
L 382.536 178.879718 
L 385.884 188.804998 
L 388.5624 196.000109 
L 390.5712 200.63287 
L 392.58 204.670989 
L 394.5888 208.28573 
L 396.5976 211.361037 
L 398.6064 213.920181 
L 401.2848 216.812095 
L 403.9632 219.364209 
L 407.3112 222.230657 
L 409.9896 224.22025 
L 411.9984 225.516149 
L 414.0072 226.579738 
L 416.016 227.421072 
L 418.0248 228.063604 
L 420.7032 228.648084 
L 423.3816 228.960498 
L 426.06 229.036632 
L 433.4256 228.810288 
L 436.7736 228.366129 
L 440.1216 227.695153 
L 444.1392 226.635884 
L 448.1568 225.340862 
L 452.844 223.580148 
L 458.2008 221.297146 
L 464.2272 218.45668 
L 471.5928 214.70119 
L 474.2712 213.351819 
L 476.9496 212.31165 
L 478.9584 211.710621 
L 484.9848 210.339337 
L 486.324 210.221553 
L 489.0024 210.267815 
L 490.3416 210.41695 
L 491.6808 210.747307 
L 493.02 211.275788 
L 495.0288 212.320766 
L 503.7336 217.726726 
L 504.4032 189.138319 
L 505.0728 177.532021 
L 505.7424 171.79608 
L 506.412 168.318022 
L 507.0816 166.139582 
L 507.7512 164.882663 
L 508.4208 164.343005 
L 509.0904 164.410912 
L 509.76 165.000577 
L 510.4296 166.032256 
L 511.0992 167.417652 
L 512.4384 170.885056 
L 515.1168 178.834925 
L 521.8128 198.890006 
L 523.8216 203.866143 
L 525.8304 208.2593 
L 527.8392 212.239872 
L 529.848 215.763312 
L 531.8568 218.820854 
L 533.8656 221.451862 
L 535.8744 223.646291 
L 537.8832 225.450883 
L 539.892 226.917777 
L 541.9008 228.091829 
L 543.9096 229.010596 
L 545.9184 229.705745 
L 547.9272 230.204236 
L 550.6056 230.602458 
L 553.284 230.737967 
L 555.9624 230.64881 
L 558.6408 230.366461 
L 561.9888 229.781241 
L 565.3368 228.976391 
L 569.3544 227.767344 
L 573.372 226.336046 
L 578.0592 224.43374 
L 583.416 222.009617 
L 589.4424 219.031517 
L 596.808 215.129279 
L 604.1736 211.200711 
L 614.8872 206.916995 
L 617.5656 206.181675 
L 622.2528 204.895715 
L 624.2616 204.341223 
L 625.6008 204.123043 
L 626.94 204.155082 
L 628.9488 204.551405 
L 630.9576 205.09691 
L 632.2968 205.774199 
L 636.3144 208.297892 
L 637.6536 209.213288 
L 638.3232 182.544875 
L 638.9928 171.622853 
L 639.6624 165.850933 
L 640.332 162.259338 
L 641.0016 160.059115 
L 641.6712 158.886559 
L 642.3408 158.497882 
L 643.0104 158.721898 
L 643.68 159.442197 
L 644.3496 160.557322 
L 645.6888 163.612397 
L 647.6976 169.33912 
L 655.0632 191.520467 
L 657.7416 198.594944 
L 660.42 204.971178 
L 662.4288 209.294069 
L 664.4376 212.989287 
L 666.4464 216.082578 
L 668.4552 218.667309 
L 670.464 220.921738 
L 672.4728 222.843312 
L 674.4816 224.427141 
L 676.4904 225.709185 
L 678.4992 226.727161 
L 680.508 227.51371 
L 682.5168 228.096522 
L 685.1952 228.597027 
L 687.8736 228.824065 
L 690.552 228.816534 
L 693.2304 228.60675 
L 702.6048 227.402671 
L 705.9528 226.625654 
L 709.9704 225.458598 
L 713.988 224.073701 
L 718.6752 222.226512 
L 724.032 219.864538 
L 730.0584 216.956912 
L 737.424 213.147102 
L 744.7896 209.318931 
L 748.1376 208.086853 
L 750.1464 207.580711 
L 753.4944 206.957241 
L 756.8424 206.726499 
L 759.5208 206.822302 
L 762.1992 207.069645 
L 764.208 207.517615 
L 768.2256 208.729279 
L 770.2344 209.479704 
L 771.5736 210.141439 
L 772.2432 183.161525 
L 772.9128 172.029613 
L 773.5824 166.057789 
L 774.252 162.221068 
L 774.9216 159.724092 
L 775.5912 158.208029 
L 776.2608 157.435833 
L 776.9304 157.235737 
L 777.6 157.490231 
L 777.6 157.490231 
" clip-path="url(#p9b16d686b3)" style="fill: none; stroke: #4169e1; stroke-width: 1.5; stroke-linecap: square"/>
   </g>
   <g id="patch_3">
    <path d="M 108 256.32 
L 108 34.56 
" style="fill: none; stroke: #000000; stroke-width: 0.8; stroke-linejoin: miter; stroke-linecap: square"/>
   </g>
   <g id="patch_4">
    <path d="M 777.6 256.32 
L 777.6 34.56 
" style="fill: none; stroke: #000000; stroke-width: 0.8; stroke-linejoin: miter; stroke-linecap: square"/>
   </g>
   <g id="patch_5">
    <path d="M 108 256.32 
L 777.6 256.32 
" style="fill: none; stroke: #000000; stroke-width: 0.8; stroke-linejoin: miter; stroke-linecap: square"/>
   </g>
   <g id="patch_6">
    <path d="M 108 34.56 
L 777.6 34.56 
" style="fill: none; stroke: #000000; stroke-width: 0.8; stroke-linejoin: miter; stroke-linecap: square"/>
   </g>
   <g id="legend_1">
    <g id="patch_7">
     <path d="M 695.098438 71.91625 
L 770.6 71.91625 
Q 772.6 71.91625 772.6 69.91625 
L 772.6 41.56 
Q 772.6 39.56 770.6 39.56 
L 695.098438 39.56 
Q 693.098438 39.56 693.098438 41.56 
L 693.098438 69.91625 
Q 693.098438 71.91625 695.098438 71.91625 
z
" style="fill: #ffffff; opacity: 0.8; stroke: #cccccc; stroke-linejoin: miter"/>
    </g>
    <g id="line2d_25">
     <path d="M 697.098438 47.658437 
L 707.098438 47.658437 
L 717.098438 47.658437 
" style="fill: none; stroke: #000000; stroke-width: 1.5; stroke-linecap: square"/>
    </g>
    <g id="text_14">
     <!-- Soma -->
     <g transform="translate(725.098438 51.158437) scale(0.1 -0.1)">
      <defs>
       <path id="DejaVuSans-53" d="M 3425 4513 
L 3425 3897 
Q 3066 4069 2747 4153 
Q 2428 4238 2131 4238 
Q 1616 4238 1336 4038 
Q 1056 3838 1056 3469 
Q 1056 3159 1242 3001 
Q 1428 2844 1947 2747 
L 2328 2669 
Q 3034 2534 3370 2195 
Q 3706 1856 3706 1288 
Q 3706 609 3251 259 
Q 2797 -91 1919 -91 
Q 1588 -91 1214 -16 
Q 841 59 441 206 
L 441 856 
Q 825 641 1194 531 
Q 1563 422 1919 422 
Q 2459 422 2753 634 
Q 3047 847 3047 1241 
Q 3047 1584 2836 1778 
Q 2625 1972 2144 2069 
L 1759 2144 
Q 1053 2284 737 2584 
Q 422 2884 422 3419 
Q 422 4038 858 4394 
Q 1294 4750 2059 4750 
Q 2388 4750 2728 4690 
Q 3069 4631 3425 4513 
z
" transform="scale(0.015625)"/>
       <path id="DejaVuSans-6f" d="M 1959 3097 
Q 1497 3097 1228 2736 
Q 959 2375 959 1747 
Q 959 1119 1226 758 
Q 1494 397 1959 397 
Q 2419 397 2687 759 
Q 2956 1122 2956 1747 
Q 2956 2369 2687 2733 
Q 2419 3097 1959 3097 
z
M 1959 3584 
Q 2709 3584 3137 3096 
Q 3566 2609 3566 1747 
Q 3566 888 3137 398 
Q 2709 -91 1959 -91 
Q 1206 -91 779 398 
Q 353 888 353 1747 
Q 353 2609 779 3096 
Q 1206 3584 1959 3584 
z
" transform="scale(0.015625)"/>
       <path id="DejaVuSans-61" d="M 2194 1759 
Q 1497 1759 1228 1600 
Q 959 1441 959 1056 
Q 959 750 1161 570 
Q 1363 391 1709 391 
Q 2188 391 2477 730 
Q 2766 1069 2766 1631 
L 2766 1759 
L 2194 1759 
z
M 3341 1997 
L 3341 0 
L 2766 0 
L 2766 531 
Q 2569 213 2275 61 
Q 1981 -91 1556 -91 
Q 1019 -91 701 211 
Q 384 513 384 1019 
Q 384 1609 779 1909 
Q 1175 2209 1959 2209 
L 2766 2209 
L 2766 2266 
Q 2766 2663 2505 2880 
Q 2244 3097 1772 3097 
Q 1472 3097 1187 3025 
Q 903 2953 641 2809 
L 641 3341 
Q 956 3463 1253 3523 
Q 1550 3584 1831 3584 
Q 2591 3584 2966 3190 
Q 3341 2797 3341 1997 
z
" transform="scale(0.015625)"/>
      </defs>
      <use xlink:href="#DejaVuSans-53"/>
      <use xlink:href="#DejaVuSans-6f" x="63.476562"/>
      <use xlink:href="#DejaVuSans-6d" x="124.658203"/>
      <use xlink:href="#DejaVuSans-61" x="222.070312"/>
     </g>
    </g>
    <g id="line2d_26">
     <path d="M 697.098438 62.336562 
L 707.098438 62.336562 
L 717.098438 62.336562 
" style="fill: none; stroke: #4169e1; stroke-width: 1.5; stroke-linecap: square"/>
    </g>
    <g id="text_15">
     <!-- Dendrite -->
     <g transform="translate(725.098438 65.836562) scale(0.1 -0.1)">
      <defs>
       <path id="DejaVuSans-44" d="M 1259 4147 
L 1259 519 
L 2022 519 
Q 2988 519 3436 956 
Q 3884 1394 3884 2338 
Q 3884 3275 3436 3711 
Q 2988 4147 2022 4147 
L 1259 4147 
z
M 628 4666 
L 1925 4666 
Q 3281 4666 3915 4102 
Q 4550 3538 4550 2338 
Q 4550 1131 3912 565 
Q 3275 0 1925 0 
L 628 0 
L 628 4666 
z
" transform="scale(0.015625)"/>
       <path id="DejaVuSans-6e" d="M 3513 2113 
L 3513 0 
L 2938 0 
L 2938 2094 
Q 2938 2591 2744 2837 
Q 2550 3084 2163 3084 
Q 1697 3084 1428 2787 
Q 1159 2491 1159 1978 
L 1159 0 
L 581 0 
L 581 3500 
L 1159 3500 
L 1159 2956 
Q 1366 3272 1645 3428 
Q 1925 3584 2291 3584 
Q 2894 3584 3203 3211 
Q 3513 2838 3513 2113 
z
" transform="scale(0.015625)"/>
       <path id="DejaVuSans-64" d="M 2906 2969 
L 2906 4863 
L 3481 4863 
L 3481 0 
L 2906 0 
L 2906 525 
Q 2725 213 2448 61 
Q 2172 -91 1784 -91 
Q 1150 -91 751 415 
Q 353 922 353 1747 
Q 353 2572 751 3078 
Q 1150 3584 1784 3584 
Q 2172 3584 2448 3432 
Q 2725 3281 2906 2969 
z
M 947 1747 
Q 947 1113 1208 752 
Q 1469 391 1925 391 
Q 2381 391 2643 752 
Q 2906 1113 2906 1747 
Q 2906 2381 2643 2742 
Q 2381 3103 1925 3103 
Q 1469 3103 1208 2742 
Q 947 2381 947 1747 
z
" transform="scale(0.015625)"/>
       <path id="DejaVuSans-72" d="M 2631 2963 
Q 2534 3019 2420 3045 
Q 2306 3072 2169 3072 
Q 1681 3072 1420 2755 
Q 1159 2438 1159 1844 
L 1159 0 
L 581 0 
L 581 3500 
L 1159 3500 
L 1159 2956 
Q 1341 3275 1631 3429 
Q 1922 3584 2338 3584 
Q 2397 3584 2469 3576 
Q 2541 3569 2628 3553 
L 2631 2963 
z
" transform="scale(0.015625)"/>
       <path id="DejaVuSans-74" d="M 1172 4494 
L 1172 3500 
L 2356 3500 
L 2356 3053 
L 1172 3053 
L 1172 1153 
Q 1172 725 1289 603 
Q 1406 481 1766 481 
L 2356 481 
L 2356 0 
L 1766 0 
Q 1100 0 847 248 
Q 594 497 594 1153 
L 594 3053 
L 172 3053 
L 172 3500 
L 594 3500 
L 594 4494 
L 1172 4494 
z
" transform="scale(0.015625)"/>
      </defs>
      <use xlink:href="#DejaVuSans-44"/>
      <use xlink:href="#DejaVuSans-65" x="77.001953"/>
      <use xlink:href="#DejaVuSans-6e" x="138.525391"/>
      <use xlink:href="#DejaVuSans-64" x="201.904297"/>
      <use xlink:href="#DejaVuSans-72" x="265.380859"/>
      <use xlink:href="#DejaVuSans-69" x="306.494141"/>
      <use xlink:href="#DejaVuSans-74" x="334.277344"/>
      <use xlink:href="#DejaVuSans-65" x="373.486328"/>
     </g>
    </g>
   </g>
  </g>
 </g>
 <defs>
  <clipPath id="p9b16d686b3">
   <rect x="108" y="34.56" width="669.6" height="221.76"/>
  </clipPath>
 </defs>
</svg>
