<?xml version="1.0" encoding="utf-8" standalone="no"?>
<!DOCTYPE svg PUBLIC "-//W3C//DTD SVG 1.1//EN"
  "http://www.w3.org/Graphics/SVG/1.1/DTD/svg11.dtd">
<svg xmlns:xlink="http://www.w3.org/1999/xlink" width="864pt" height="288pt" viewBox="0 0 864 288" xmlns="http://www.w3.org/2000/svg" version="1.1">
 <metadata>
  <rdf:RDF xmlns:dc="http://purl.org/dc/elements/1.1/" xmlns:cc="http://creativecommons.org/ns#" xmlns:rdf="http://www.w3.org/1999/02/22-rdf-syntax-ns#">
   <cc:Work>
    <dc:type rdf:resource="http://purl.org/dc/dcmitype/StillImage"/>
    <dc:date>2024-04-26T13:22:52.693435</dc:date>
    <dc:format>image/svg+xml</dc:format>
    <dc:creator>
     <cc:Agent>
      <dc:title>Matplotlib v3.8.2, https://matplotlib.org/</dc:title>
     </cc:Agent>
    </dc:creator>
   </cc:Work>
  </rdf:RDF>
 </metadata>
 <defs>
  <style type="text/css">*{stroke-linejoin: round; stroke-linecap: butt}</style>
 </defs>
 <g id="figure_1">
  <g id="patch_1">
   <path d="M 0 288 
L 864 288 
L 864 0 
L 0 0 
z
" style="fill: #ffffff"/>
  </g>
  <g id="axes_1">
   <g id="patch_2">
    <path d="M 108 256.32 
L 777.6 256.32 
L 777.6 34.56 
L 108 34.56 
z
" style="fill: #ffffff"/>
   </g>
   <g id="matplotlib.axis_1">
    <g id="xtick_1">
     <g id="line2d_1">
      <path d="M 108 256.32 
L 108 34.56 
" clip-path="url(#pbb3eb5e8c0)" style="fill: none; stroke: #b0b0b0; stroke-width: 0.8; stroke-linecap: square"/>
     </g>
     <g id="line2d_2">
      <defs>
       <path id="m1a9e457ef3" d="M 0 0 
L 0 3.5 
" style="stroke: #000000; stroke-width: 0.8"/>
      </defs>
      <g>
       <use xlink:href="#m1a9e457ef3" x="108" y="256.32" style="stroke: #000000; stroke-width: 0.8"/>
      </g>
     </g>
     <g id="text_1">
      <!-- 100 -->
      <g transform="translate(94.63875 273.957812) scale(0.14 -0.14)">
       <defs>
        <path id="DejaVuSans-31" d="M 794 531 
L 1825 531 
L 1825 4091 
L 703 3866 
L 703 4441 
L 1819 4666 
L 2450 4666 
L 2450 531 
L 3481 531 
L 3481 0 
L 794 0 
L 794 531 
z
" transform="scale(0.015625)"/>
        <path id="DejaVuSans-30" d="M 2034 4250 
Q 1547 4250 1301 3770 
Q 1056 3291 1056 2328 
Q 1056 1369 1301 889 
Q 1547 409 2034 409 
Q 2525 409 2770 889 
Q 3016 1369 3016 2328 
Q 3016 3291 2770 3770 
Q 2525 4250 2034 4250 
z
M 2034 4750 
Q 2819 4750 3233 4129 
Q 3647 3509 3647 2328 
Q 3647 1150 3233 529 
Q 2819 -91 2034 -91 
Q 1250 -91 836 529 
Q 422 1150 422 2328 
Q 422 3509 836 4129 
Q 1250 4750 2034 4750 
z
" transform="scale(0.015625)"/>
       </defs>
       <use xlink:href="#DejaVuSans-31"/>
       <use xlink:href="#DejaVuSans-30" x="63.623047"/>
       <use xlink:href="#DejaVuSans-30" x="127.246094"/>
      </g>
     </g>
    </g>
    <g id="xtick_2">
     <g id="line2d_3">
      <path d="M 241.92 256.32 
L 241.92 34.56 
" clip-path="url(#pbb3eb5e8c0)" style="fill: none; stroke: #b0b0b0; stroke-width: 0.8; stroke-linecap: square"/>
     </g>
     <g id="line2d_4">
      <g>
       <use xlink:href="#m1a9e457ef3" x="241.92" y="256.32" style="stroke: #000000; stroke-width: 0.8"/>
      </g>
     </g>
     <g id="text_2">
      <!-- 120 -->
      <g transform="translate(228.55875 273.957812) scale(0.14 -0.14)">
       <defs>
        <path id="DejaVuSans-32" d="M 1228 531 
L 3431 531 
L 3431 0 
L 469 0 
L 469 531 
Q 828 903 1448 1529 
Q 2069 2156 2228 2338 
Q 2531 2678 2651 2914 
Q 2772 3150 2772 3378 
Q 2772 3750 2511 3984 
Q 2250 4219 1831 4219 
Q 1534 4219 1204 4116 
Q 875 4013 500 3803 
L 500 4441 
Q 881 4594 1212 4672 
Q 1544 4750 1819 4750 
Q 2544 4750 2975 4387 
Q 3406 4025 3406 3419 
Q 3406 3131 3298 2873 
Q 3191 2616 2906 2266 
Q 2828 2175 2409 1742 
Q 1991 1309 1228 531 
z
" transform="scale(0.015625)"/>
       </defs>
       <use xlink:href="#DejaVuSans-31"/>
       <use xlink:href="#DejaVuSans-32" x="63.623047"/>
       <use xlink:href="#DejaVuSans-30" x="127.246094"/>
      </g>
     </g>
    </g>
    <g id="xtick_3">
     <g id="line2d_5">
      <path d="M 375.84 256.32 
L 375.84 34.56 
" clip-path="url(#pbb3eb5e8c0)" style="fill: none; stroke: #b0b0b0; stroke-width: 0.8; stroke-linecap: square"/>
     </g>
     <g id="line2d_6">
      <g>
       <use xlink:href="#m1a9e457ef3" x="375.84" y="256.32" style="stroke: #000000; stroke-width: 0.8"/>
      </g>
     </g>
     <g id="text_3">
      <!-- 140 -->
      <g transform="translate(362.47875 273.957812) scale(0.14 -0.14)">
       <defs>
        <path id="DejaVuSans-34" d="M 2419 4116 
L 825 1625 
L 2419 1625 
L 2419 4116 
z
M 2253 4666 
L 3047 4666 
L 3047 1625 
L 3713 1625 
L 3713 1100 
L 3047 1100 
L 3047 0 
L 2419 0 
L 2419 1100 
L 313 1100 
L 313 1709 
L 2253 4666 
z
" transform="scale(0.015625)"/>
       </defs>
       <use xlink:href="#DejaVuSans-31"/>
       <use xlink:href="#DejaVuSans-34" x="63.623047"/>
       <use xlink:href="#DejaVuSans-30" x="127.246094"/>
      </g>
     </g>
    </g>
    <g id="xtick_4">
     <g id="line2d_7">
      <path d="M 509.76 256.32 
L 509.76 34.56 
" clip-path="url(#pbb3eb5e8c0)" style="fill: none; stroke: #b0b0b0; stroke-width: 0.8; stroke-linecap: square"/>
     </g>
     <g id="line2d_8">
      <g>
       <use xlink:href="#m1a9e457ef3" x="509.76" y="256.32" style="stroke: #000000; stroke-width: 0.8"/>
      </g>
     </g>
     <g id="text_4">
      <!-- 160 -->
      <g transform="translate(496.39875 273.957812) scale(0.14 -0.14)">
       <defs>
        <path id="DejaVuSans-36" d="M 2113 2584 
Q 1688 2584 1439 2293 
Q 1191 2003 1191 1497 
Q 1191 994 1439 701 
Q 1688 409 2113 409 
Q 2538 409 2786 701 
Q 3034 994 3034 1497 
Q 3034 2003 2786 2293 
Q 2538 2584 2113 2584 
z
M 3366 4563 
L 3366 3988 
Q 3128 4100 2886 4159 
Q 2644 4219 2406 4219 
Q 1781 4219 1451 3797 
Q 1122 3375 1075 2522 
Q 1259 2794 1537 2939 
Q 1816 3084 2150 3084 
Q 2853 3084 3261 2657 
Q 3669 2231 3669 1497 
Q 3669 778 3244 343 
Q 2819 -91 2113 -91 
Q 1303 -91 875 529 
Q 447 1150 447 2328 
Q 447 3434 972 4092 
Q 1497 4750 2381 4750 
Q 2619 4750 2861 4703 
Q 3103 4656 3366 4563 
z
" transform="scale(0.015625)"/>
       </defs>
       <use xlink:href="#DejaVuSans-31"/>
       <use xlink:href="#DejaVuSans-36" x="63.623047"/>
       <use xlink:href="#DejaVuSans-30" x="127.246094"/>
      </g>
     </g>
    </g>
    <g id="xtick_5">
     <g id="line2d_9">
      <path d="M 643.68 256.32 
L 643.68 34.56 
" clip-path="url(#pbb3eb5e8c0)" style="fill: none; stroke: #b0b0b0; stroke-width: 0.8; stroke-linecap: square"/>
     </g>
     <g id="line2d_10">
      <g>
       <use xlink:href="#m1a9e457ef3" x="643.68" y="256.32" style="stroke: #000000; stroke-width: 0.8"/>
      </g>
     </g>
     <g id="text_5">
      <!-- 180 -->
      <g transform="translate(630.31875 273.957812) scale(0.14 -0.14)">
       <defs>
        <path id="DejaVuSans-38" d="M 2034 2216 
Q 1584 2216 1326 1975 
Q 1069 1734 1069 1313 
Q 1069 891 1326 650 
Q 1584 409 2034 409 
Q 2484 409 2743 651 
Q 3003 894 3003 1313 
Q 3003 1734 2745 1975 
Q 2488 2216 2034 2216 
z
M 1403 2484 
Q 997 2584 770 2862 
Q 544 3141 544 3541 
Q 544 4100 942 4425 
Q 1341 4750 2034 4750 
Q 2731 4750 3128 4425 
Q 3525 4100 3525 3541 
Q 3525 3141 3298 2862 
Q 3072 2584 2669 2484 
Q 3125 2378 3379 2068 
Q 3634 1759 3634 1313 
Q 3634 634 3220 271 
Q 2806 -91 2034 -91 
Q 1263 -91 848 271 
Q 434 634 434 1313 
Q 434 1759 690 2068 
Q 947 2378 1403 2484 
z
M 1172 3481 
Q 1172 3119 1398 2916 
Q 1625 2713 2034 2713 
Q 2441 2713 2670 2916 
Q 2900 3119 2900 3481 
Q 2900 3844 2670 4047 
Q 2441 4250 2034 4250 
Q 1625 4250 1398 4047 
Q 1172 3844 1172 3481 
z
" transform="scale(0.015625)"/>
       </defs>
       <use xlink:href="#DejaVuSans-31"/>
       <use xlink:href="#DejaVuSans-38" x="63.623047"/>
       <use xlink:href="#DejaVuSans-30" x="127.246094"/>
      </g>
     </g>
    </g>
    <g id="xtick_6">
     <g id="line2d_11">
      <path d="M 777.6 256.32 
L 777.6 34.56 
" clip-path="url(#pbb3eb5e8c0)" style="fill: none; stroke: #b0b0b0; stroke-width: 0.8; stroke-linecap: square"/>
     </g>
     <g id="line2d_12">
      <g>
       <use xlink:href="#m1a9e457ef3" x="777.6" y="256.32" style="stroke: #000000; stroke-width: 0.8"/>
      </g>
     </g>
     <g id="text_6">
      <!-- 200 -->
      <g transform="translate(764.23875 273.957812) scale(0.14 -0.14)">
       <use xlink:href="#DejaVuSans-32"/>
       <use xlink:href="#DejaVuSans-30" x="63.623047"/>
       <use xlink:href="#DejaVuSans-30" x="127.246094"/>
      </g>
     </g>
    </g>
    <g id="text_7">
     <!-- Time (ms) -->
     <g transform="translate(407.521094 291.507187) scale(0.14 -0.14)">
      <defs>
       <path id="DejaVuSans-54" d="M -19 4666 
L 3928 4666 
L 3928 4134 
L 2272 4134 
L 2272 0 
L 1638 0 
L 1638 4134 
L -19 4134 
L -19 4666 
z
" transform="scale(0.015625)"/>
       <path id="DejaVuSans-69" d="M 603 3500 
L 1178 3500 
L 1178 0 
L 603 0 
L 603 3500 
z
M 603 4863 
L 1178 4863 
L 1178 4134 
L 603 4134 
L 603 4863 
z
" transform="scale(0.015625)"/>
       <path id="DejaVuSans-6d" d="M 3328 2828 
Q 3544 3216 3844 3400 
Q 4144 3584 4550 3584 
Q 5097 3584 5394 3201 
Q 5691 2819 5691 2113 
L 5691 0 
L 5113 0 
L 5113 2094 
Q 5113 2597 4934 2840 
Q 4756 3084 4391 3084 
Q 3944 3084 3684 2787 
Q 3425 2491 3425 1978 
L 3425 0 
L 2847 0 
L 2847 2094 
Q 2847 2600 2669 2842 
Q 2491 3084 2119 3084 
Q 1678 3084 1418 2786 
Q 1159 2488 1159 1978 
L 1159 0 
L 581 0 
L 581 3500 
L 1159 3500 
L 1159 2956 
Q 1356 3278 1631 3431 
Q 1906 3584 2284 3584 
Q 2666 3584 2933 3390 
Q 3200 3197 3328 2828 
z
" transform="scale(0.015625)"/>
       <path id="DejaVuSans-65" d="M 3597 1894 
L 3597 1613 
L 953 1613 
Q 991 1019 1311 708 
Q 1631 397 2203 397 
Q 2534 397 2845 478 
Q 3156 559 3463 722 
L 3463 178 
Q 3153 47 2828 -22 
Q 2503 -91 2169 -91 
Q 1331 -91 842 396 
Q 353 884 353 1716 
Q 353 2575 817 3079 
Q 1281 3584 2069 3584 
Q 2775 3584 3186 3129 
Q 3597 2675 3597 1894 
z
M 3022 2063 
Q 3016 2534 2758 2815 
Q 2500 3097 2075 3097 
Q 1594 3097 1305 2825 
Q 1016 2553 972 2059 
L 3022 2063 
z
" transform="scale(0.015625)"/>
       <path id="DejaVuSans-20" transform="scale(0.015625)"/>
       <path id="DejaVuSans-28" d="M 1984 4856 
Q 1566 4138 1362 3434 
Q 1159 2731 1159 2009 
Q 1159 1288 1364 580 
Q 1569 -128 1984 -844 
L 1484 -844 
Q 1016 -109 783 600 
Q 550 1309 550 2009 
Q 550 2706 781 3412 
Q 1013 4119 1484 4856 
L 1984 4856 
z
" transform="scale(0.015625)"/>
       <path id="DejaVuSans-73" d="M 2834 3397 
L 2834 2853 
Q 2591 2978 2328 3040 
Q 2066 3103 1784 3103 
Q 1356 3103 1142 2972 
Q 928 2841 928 2578 
Q 928 2378 1081 2264 
Q 1234 2150 1697 2047 
L 1894 2003 
Q 2506 1872 2764 1633 
Q 3022 1394 3022 966 
Q 3022 478 2636 193 
Q 2250 -91 1575 -91 
Q 1294 -91 989 -36 
Q 684 19 347 128 
L 347 722 
Q 666 556 975 473 
Q 1284 391 1588 391 
Q 1994 391 2212 530 
Q 2431 669 2431 922 
Q 2431 1156 2273 1281 
Q 2116 1406 1581 1522 
L 1381 1569 
Q 847 1681 609 1914 
Q 372 2147 372 2553 
Q 372 3047 722 3315 
Q 1072 3584 1716 3584 
Q 2034 3584 2315 3537 
Q 2597 3491 2834 3397 
z
" transform="scale(0.015625)"/>
       <path id="DejaVuSans-29" d="M 513 4856 
L 1013 4856 
Q 1481 4119 1714 3412 
Q 1947 2706 1947 2009 
Q 1947 1309 1714 600 
Q 1481 -109 1013 -844 
L 513 -844 
Q 928 -128 1133 580 
Q 1338 1288 1338 2009 
Q 1338 2731 1133 3434 
Q 928 4138 513 4856 
z
" transform="scale(0.015625)"/>
      </defs>
      <use xlink:href="#DejaVuSans-54"/>
      <use xlink:href="#DejaVuSans-69" x="57.958984"/>
      <use xlink:href="#DejaVuSans-6d" x="85.742188"/>
      <use xlink:href="#DejaVuSans-65" x="183.154297"/>
      <use xlink:href="#DejaVuSans-20" x="244.677734"/>
      <use xlink:href="#DejaVuSans-28" x="276.464844"/>
      <use xlink:href="#DejaVuSans-6d" x="315.478516"/>
      <use xlink:href="#DejaVuSans-73" x="412.890625"/>
      <use xlink:href="#DejaVuSans-29" x="464.990234"/>
     </g>
    </g>
   </g>
   <g id="matplotlib.axis_2">
    <g id="ytick_1">
     <g id="line2d_13">
      <path d="M 108 224.199266 
L 777.6 224.199266 
" clip-path="url(#pbb3eb5e8c0)" style="fill: none; stroke: #b0b0b0; stroke-width: 0.8; stroke-linecap: square"/>
     </g>
     <g id="line2d_14">
      <defs>
       <path id="mbc93929653" d="M 0 0 
L -3.5 0 
" style="stroke: #000000; stroke-width: 0.8"/>
      </defs>
      <g>
       <use xlink:href="#mbc93929653" x="108" y="224.199266" style="stroke: #000000; stroke-width: 0.8"/>
      </g>
     </g>
     <g id="text_8">
      <!-- −60 -->
      <g transform="translate(71.453437 229.518173) scale(0.14 -0.14)">
       <defs>
        <path id="DejaVuSans-2212" d="M 678 2272 
L 4684 2272 
L 4684 1741 
L 678 1741 
L 678 2272 
z
" transform="scale(0.015625)"/>
       </defs>
       <use xlink:href="#DejaVuSans-2212"/>
       <use xlink:href="#DejaVuSans-36" x="83.789062"/>
       <use xlink:href="#DejaVuSans-30" x="147.412109"/>
      </g>
     </g>
    </g>
    <g id="ytick_2">
     <g id="line2d_15">
      <path d="M 108 180.188039 
L 777.6 180.188039 
" clip-path="url(#pbb3eb5e8c0)" style="fill: none; stroke: #b0b0b0; stroke-width: 0.8; stroke-linecap: square"/>
     </g>
     <g id="line2d_16">
      <g>
       <use xlink:href="#mbc93929653" x="108" y="180.188039" style="stroke: #000000; stroke-width: 0.8"/>
      </g>
     </g>
     <g id="text_9">
      <!-- −40 -->
      <g transform="translate(71.453437 185.506945) scale(0.14 -0.14)">
       <use xlink:href="#DejaVuSans-2212"/>
       <use xlink:href="#DejaVuSans-34" x="83.789062"/>
       <use xlink:href="#DejaVuSans-30" x="147.412109"/>
      </g>
     </g>
    </g>
    <g id="ytick_3">
     <g id="line2d_17">
      <path d="M 108 136.176811 
L 777.6 136.176811 
" clip-path="url(#pbb3eb5e8c0)" style="fill: none; stroke: #b0b0b0; stroke-width: 0.8; stroke-linecap: square"/>
     </g>
     <g id="line2d_18">
      <g>
       <use xlink:href="#mbc93929653" x="108" y="136.176811" style="stroke: #000000; stroke-width: 0.8"/>
      </g>
     </g>
     <g id="text_10">
      <!-- −20 -->
      <g transform="translate(71.453437 141.495717) scale(0.14 -0.14)">
       <use xlink:href="#DejaVuSans-2212"/>
       <use xlink:href="#DejaVuSans-32" x="83.789062"/>
       <use xlink:href="#DejaVuSans-30" x="147.412109"/>
      </g>
     </g>
    </g>
    <g id="ytick_4">
     <g id="line2d_19">
      <path d="M 108 92.165584 
L 777.6 92.165584 
" clip-path="url(#pbb3eb5e8c0)" style="fill: none; stroke: #b0b0b0; stroke-width: 0.8; stroke-linecap: square"/>
     </g>
     <g id="line2d_20">
      <g>
       <use xlink:href="#mbc93929653" x="108" y="92.165584" style="stroke: #000000; stroke-width: 0.8"/>
      </g>
     </g>
     <g id="text_11">
      <!-- 0 -->
      <g transform="translate(92.0925 97.48449) scale(0.14 -0.14)">
       <use xlink:href="#DejaVuSans-30"/>
      </g>
     </g>
    </g>
    <g id="ytick_5">
     <g id="line2d_21">
      <path d="M 108 48.154356 
L 777.6 48.154356 
" clip-path="url(#pbb3eb5e8c0)" style="fill: none; stroke: #b0b0b0; stroke-width: 0.8; stroke-linecap: square"/>
     </g>
     <g id="line2d_22">
      <g>
       <use xlink:href="#mbc93929653" x="108" y="48.154356" style="stroke: #000000; stroke-width: 0.8"/>
      </g>
     </g>
     <g id="text_12">
      <!-- 20 -->
      <g transform="translate(83.185 53.473262) scale(0.14 -0.14)">
       <use xlink:href="#DejaVuSans-32"/>
       <use xlink:href="#DejaVuSans-30" x="63.623047"/>
      </g>
     </g>
    </g>
    <g id="text_13">
     <!-- $V_{m}$ (mV) -->
     <g transform="translate(64.541875 174.49) rotate(-90) scale(0.14 -0.14)">
      <defs>
       <path id="DejaVuSans-Oblique-56" d="M 1319 0 
L 500 4666 
L 1119 4666 
L 1797 653 
L 4063 4666 
L 4750 4666 
L 2053 0 
L 1319 0 
z
" transform="scale(0.015625)"/>
       <path id="DejaVuSans-Oblique-6d" d="M 5747 2113 
L 5338 0 
L 4763 0 
L 5166 2094 
Q 5191 2228 5203 2325 
Q 5216 2422 5216 2491 
Q 5216 2772 5059 2928 
Q 4903 3084 4622 3084 
Q 4203 3084 3875 2770 
Q 3547 2456 3450 1953 
L 3066 0 
L 2491 0 
L 2900 2094 
Q 2925 2209 2937 2307 
Q 2950 2406 2950 2484 
Q 2950 2769 2794 2926 
Q 2638 3084 2363 3084 
Q 1938 3084 1609 2770 
Q 1281 2456 1184 1953 
L 800 0 
L 225 0 
L 909 3500 
L 1484 3500 
L 1375 2956 
Q 1609 3263 1923 3423 
Q 2238 3584 2597 3584 
Q 2978 3584 3223 3384 
Q 3469 3184 3519 2828 
Q 3781 3197 4126 3390 
Q 4472 3584 4856 3584 
Q 5306 3584 5551 3325 
Q 5797 3066 5797 2591 
Q 5797 2488 5784 2364 
Q 5772 2241 5747 2113 
z
" transform="scale(0.015625)"/>
       <path id="DejaVuSans-56" d="M 1831 0 
L 50 4666 
L 709 4666 
L 2188 738 
L 3669 4666 
L 4325 4666 
L 2547 0 
L 1831 0 
z
" transform="scale(0.015625)"/>
      </defs>
      <use xlink:href="#DejaVuSans-Oblique-56" transform="translate(0 0.125)"/>
      <use xlink:href="#DejaVuSans-Oblique-6d" transform="translate(68.408203 -16.28125) scale(0.7)"/>
      <use xlink:href="#DejaVuSans-20" transform="translate(139.331055 0.125)"/>
      <use xlink:href="#DejaVuSans-28" transform="translate(171.118164 0.125)"/>
      <use xlink:href="#DejaVuSans-6d" transform="translate(210.131836 0.125)"/>
      <use xlink:href="#DejaVuSans-56" transform="translate(307.543945 0.125)"/>
      <use xlink:href="#DejaVuSans-29" transform="translate(375.952148 0.125)"/>
     </g>
    </g>
   </g>
   <g id="line2d_23">
    <path d="M 108 220.898547 
L 109.3392 221.524755 
L 110.6784 221.76613 
L 111.348 221.806901 
L 112.6872 222.522484 
L 114.0264 222.778304 
L 116.0352 224.132069 
L 118.044 226.476901 
L 118.7136 227.567451 
L 119.3832 228.408959 
L 120.0528 228.938087 
L 120.7224 229.966265 
L 122.7312 232.241 
L 124.0704 233.016668 
L 125.4096 233.517806 
L 127.4184 234.000567 
L 129.4272 234.265303 
L 132.1056 234.36835 
L 134.1144 234.294528 
L 136.1232 235.092973 
L 136.7928 235.921086 
L 137.4624 236.501431 
L 138.132 236.812054 
L 138.8016 236.999809 
L 140.1408 237.694018 
L 141.48 237.96429 
L 143.4888 238.064205 
L 144.828 238.512429 
L 146.1672 238.616042 
L 148.176 238.529145 
L 149.5152 238.875191 
L 150.8544 238.891952 
L 153.5328 238.592444 
L 156.8808 237.929157 
L 160.2288 237.04651 
L 164.2464 235.759194 
L 168.9336 233.998079 
L 173.6208 232.003753 
L 178.9776 229.485602 
L 185.004 226.400418 
L 191.7 222.722842 
L 198.396 218.850699 
L 199.7352 218.877617 
L 201.0744 218.486062 
L 203.7528 217.339694 
L 205.7616 216.377706 
L 207.1008 216.559914 
L 208.44 216.29601 
L 209.7792 216.704605 
L 211.1184 216.612016 
L 213.1272 216.145767 
L 216.4752 215.058672 
L 220.4928 213.500785 
L 225.8496 211.165693 
L 227.1888 211.475686 
L 227.8584 212.39817 
L 228.528 213.108794 
L 229.1976 213.456224 
L 230.5368 213.715975 
L 231.876 213.725249 
L 232.5456 213.678507 
L 234.5544 214.963602 
L 235.8936 216.876149 
L 236.5632 218.005511 
L 239.2416 221.212269 
L 239.9112 222.251141 
L 240.5808 223.74828 
L 241.2504 224.847886 
L 241.92 225.553692 
L 242.5896 226.069767 
L 243.9288 226.689553 
L 244.5984 226.860102 
L 245.9376 227.692666 
L 246.6072 227.912383 
L 247.2768 228.400515 
L 247.9464 229.118042 
L 249.9552 230.751708 
L 251.2944 231.872142 
L 252.6336 232.437116 
L 253.9728 232.780558 
L 255.312 234.090358 
L 255.9816 234.72606 
L 256.6512 235.195585 
L 257.9904 235.722757 
L 259.9992 236.131361 
L 260.6688 236.211019 
L 262.008 236.815325 
L 263.3472 237.054622 
L 264.6864 237.141477 
L 267.3648 238.284182 
L 268.704 238.495565 
L 270.7128 238.527595 
L 272.052 238.93559 
L 273.3912 239.00788 
L 275.4 238.883111 
L 278.0784 238.50531 
L 281.4264 237.800749 
L 282.096 237.634275 
L 283.4352 237.792996 
L 284.7744 237.638505 
L 287.4528 237.03301 
L 290.8008 236.042551 
L 291.4704 235.822198 
L 292.8096 235.910008 
L 294.1488 235.67673 
L 296.8272 234.912963 
L 300.8448 233.484394 
L 305.532 231.551794 
L 310.8888 229.078495 
L 316.9152 226.028286 
L 323.6112 222.379494 
L 331.6464 217.743584 
L 343.6992 210.50655 
L 345.0384 209.685905 
L 346.3776 209.8277 
L 347.7168 209.514049 
L 349.7256 208.741876 
L 353.0736 207.188608 
L 354.4128 206.51115 
L 355.752 207.827755 
L 356.4216 208.109838 
L 358.4304 209.957254 
L 359.1 211.000078 
L 359.7696 211.737491 
L 360.4392 212.181295 
L 361.7784 212.675728 
L 363.1176 214.607094 
L 363.7872 215.562499 
L 364.4568 216.274032 
L 366.4656 217.744338 
L 367.1352 218.29324 
L 367.8048 218.650697 
L 369.144 219.859237 
L 370.4832 220.463192 
L 371.8224 220.809442 
L 372.492 220.927522 
L 373.8312 222.527034 
L 374.5008 224.070379 
L 375.1704 225.25706 
L 375.84 225.972005 
L 376.5096 226.470987 
L 377.8488 227.038691 
L 379.188 227.274868 
L 379.8576 227.680007 
L 381.8664 229.664691 
L 382.536 229.997976 
L 383.8752 230.993627 
L 384.5448 231.279807 
L 387.2232 233.232033 
L 388.5624 233.729914 
L 391.2408 234.493145 
L 391.9104 235.078698 
L 392.58 235.484415 
L 393.9192 235.887913 
L 395.928 236.141088 
L 398.6064 236.171163 
L 399.9456 236.612144 
L 400.6152 236.686938 
L 401.9544 237.205781 
L 403.2936 237.339234 
L 405.972 238.422642 
L 407.3112 238.592859 
L 407.9808 238.607486 
L 409.32 239.045105 
L 410.6592 239.132085 
L 412.668 239.016517 
L 415.3464 238.640041 
L 418.6944 237.930134 
L 422.712 236.811605 
L 426.7296 235.458349 
L 428.0688 235.517102 
L 429.408 235.255619 
L 432.0864 234.439964 
L 436.104 232.944865 
L 440.7912 230.947675 
L 446.148 228.413577 
L 452.1744 225.308367 
L 458.8704 221.613152 
L 467.5752 216.543685 
L 472.932 213.335985 
L 474.2712 213.43246 
L 475.6104 213.080085 
L 476.9496 212.559774 
L 478.2888 212.881652 
L 479.628 212.716682 
L 481.6368 212.148306 
L 483.6456 211.436074 
L 484.9848 211.834485 
L 485.6544 212.312448 
L 486.324 212.646446 
L 487.6632 212.806302 
L 489.0024 212.713159 
L 490.3416 214.246924 
L 491.0112 214.597364 
L 491.6808 215.241992 
L 492.3504 216.172902 
L 493.02 216.822439 
L 493.6896 217.212159 
L 494.3592 217.897627 
L 495.0288 218.851282 
L 495.6984 219.531134 
L 497.7072 220.893333 
L 498.3768 221.399774 
L 499.716 221.957177 
L 501.0552 222.265368 
L 502.3944 223.149953 
L 503.7336 223.543861 
L 504.4032 223.654116 
L 505.7424 224.473022 
L 507.0816 224.815424 
L 507.7512 224.903361 
L 508.4208 225.328836 
L 510.4296 228.567357 
L 511.0992 229.252058 
L 511.7688 229.639246 
L 513.108 230.021226 
L 513.7776 230.11877 
L 515.1168 230.813107 
L 515.7864 231.616626 
L 516.456 232.234382 
L 517.1256 232.591443 
L 519.804 235.910048 
L 521.1432 236.629976 
L 522.4824 237.067205 
L 523.152 237.227029 
L 523.8216 237.626447 
L 524.4912 238.211065 
L 526.5 239.519739 
L 527.8392 240.387824 
L 529.1784 240.793995 
L 529.848 240.91912 
L 531.1872 241.517769 
L 532.5264 241.767023 
L 534.5352 241.884157 
L 537.2136 241.789151 
L 540.5616 241.3898 
L 543.9096 240.748353 
L 547.9272 239.719234 
L 551.9448 238.453489 
L 556.632 236.724759 
L 561.3192 234.764845 
L 566.676 232.284365 
L 572.7024 229.235247 
L 579.3984 225.584248 
L 587.4336 220.923784 
L 598.1472 214.419494 
L 602.1648 211.938736 
L 603.504 212.036563 
L 604.8432 211.682606 
L 607.5216 210.567134 
L 611.5392 208.604362 
L 613.548 207.554388 
L 614.8872 207.830334 
L 616.2264 207.650239 
L 618.2352 207.041758 
L 620.9136 205.996287 
L 622.9224 205.086359 
L 624.2616 205.479846 
L 624.9312 205.504957 
L 625.6008 205.973929 
L 626.2704 206.881154 
L 626.94 207.541128 
L 627.6096 207.924815 
L 628.9488 208.303361 
L 629.6184 208.384595 
L 630.288 208.921034 
L 630.9576 210.335877 
L 631.6272 211.414699 
L 632.2968 212.057752 
L 633.636 212.793042 
L 634.9752 214.040482 
L 635.6448 214.396374 
L 636.984 215.651584 
L 637.6536 216.009693 
L 638.9928 219.1872 
L 639.6624 220.25873 
L 640.332 220.959644 
L 641.6712 222.585453 
L 642.3408 223.096347 
L 643.0104 223.864137 
L 643.68 224.851513 
L 644.3496 225.583445 
L 645.0192 226.050006 
L 645.6888 226.70622 
L 646.3584 227.199736 
L 648.3672 228.231866 
L 649.0368 228.969264 
L 649.7064 229.496432 
L 651.7152 230.598046 
L 652.3848 231.016552 
L 653.0544 231.292512 
L 653.724 231.80896 
L 654.3936 232.527249 
L 658.4112 235.700154 
L 659.7504 237.2867 
L 660.42 237.855166 
L 661.7592 238.514324 
L 663.0984 238.91587 
L 665.1072 239.273227 
L 668.4552 239.712952 
L 669.7944 240.00261 
L 671.8032 240.04368 
L 674.4816 239.843267 
L 677.8296 239.331052 
L 681.1776 238.593355 
L 685.1952 237.464337 
L 689.2128 236.111185 
L 693.9 234.292579 
L 695.2392 234.30686 
L 696.5784 233.996394 
L 699.2568 233.083307 
L 703.2744 231.455517 
L 707.9616 229.324499 
L 713.3184 226.661879 
L 720.0144 223.069816 
L 728.0496 218.478634 
L 739.4328 211.679723 
L 742.7808 209.639596 
L 744.12 209.78229 
L 745.4592 209.469421 
L 747.468 208.698144 
L 748.8072 209.080298 
L 750.1464 208.970934 
L 752.1552 208.460716 
L 753.4944 208.990466 
L 754.8336 209.014015 
L 756.1728 208.819716 
L 757.512 209.477977 
L 758.8512 209.610079 
L 760.1904 209.514175 
L 761.5296 210.245425 
L 762.1992 210.389893 
L 763.5384 211.35479 
L 764.8776 211.699952 
L 765.5472 211.761991 
L 766.8864 212.656722 
L 768.2256 212.989306 
L 768.8952 213.054515 
L 770.2344 214.780927 
L 770.904 215.217999 
L 771.5736 215.496001 
L 774.252 217.934941 
L 775.5912 218.544095 
L 776.9304 218.870867 
L 777.6 219.3905 
L 777.6 219.3905 
" clip-path="url(#pbb3eb5e8c0)" style="fill: none; stroke: #000000; stroke-width: 1.5; stroke-linecap: square"/>
   </g>
   <g id="line2d_24">
    <path d="M 108 212.602974 
L 108.6696 213.186086 
L 109.3392 185.720367 
L 110.0088 174.540952 
L 110.6784 168.788153 
L 111.348 165.184593 
L 112.0176 162.891546 
L 112.6872 161.56345 
L 113.3568 160.984332 
L 114.0264 160.987541 
L 114.696 161.456588 
L 115.3656 162.29812 
L 116.0352 163.439588 
L 117.3744 166.433287 
L 118.7136 170.099763 
L 121.392 178.473656 
L 124.74 189.200376 
L 126.7488 194.875978 
L 128.7576 199.727722 
L 130.7664 203.782874 
L 132.7752 207.135129 
L 134.784 209.90117 
L 140.1408 216.467721 
L 142.1496 218.665201 
L 144.1584 220.546234 
L 146.8368 222.731656 
L 149.5152 224.517325 
L 152.1936 226.040693 
L 154.2024 226.943677 
L 156.2112 227.642593 
L 158.8896 228.292404 
L 161.568 228.660888 
L 164.2464 228.785645 
L 166.9248 228.698135 
L 170.2728 228.330547 
L 173.6208 227.716567 
L 176.9688 226.892422 
L 180.9864 225.668062 
L 185.6736 223.968394 
L 190.3608 222.028826 
L 195.7176 219.576543 
L 200.4048 217.406063 
L 207.7704 214.769711 
L 209.7792 214.311472 
L 218.484 212.890213 
L 222.5016 211.894377 
L 227.8584 210.468068 
L 229.1976 210.488603 
L 233.8848 211.090209 
L 235.224 211.407195 
L 236.5632 211.987944 
L 237.9024 212.817913 
L 239.9112 214.333687 
L 241.92 216.267156 
L 242.5896 216.951977 
L 243.2592 188.766216 
L 243.9288 177.42098 
L 244.5984 171.88155 
L 245.268 168.608147 
L 245.9376 166.666884 
L 246.6072 165.67944 
L 247.2768 165.440059 
L 247.9464 165.808637 
L 248.616 166.672799 
L 249.2856 167.936591 
L 250.6248 171.325629 
L 252.6336 177.579009 
L 256.6512 190.352971 
L 258.66 196.203343 
L 260.6688 201.254071 
L 262.6776 205.571815 
L 264.6864 209.251389 
L 266.6952 212.407322 
L 268.704 215.230829 
L 270.7128 217.643404 
L 272.7216 219.720861 
L 274.7304 221.515604 
L 276.7392 222.992022 
L 278.748 224.175646 
L 280.7568 225.102558 
L 283.4352 226.036314 
L 286.1136 226.820759 
L 288.792 227.336905 
L 291.4704 227.583447 
L 297.4968 227.820491 
L 300.1752 227.662042 
L 303.5232 227.223896 
L 306.8712 226.55627 
L 310.8888 225.497066 
L 314.9064 224.198593 
L 319.5936 222.43092 
L 324.9504 220.137954 
L 330.9768 217.285936 
L 338.3424 213.518767 
L 347.0472 208.979093 
L 354.4128 206.18409 
L 355.752 205.797237 
L 357.0912 205.666706 
L 358.4304 205.773842 
L 359.7696 206.155812 
L 362.448 207.320627 
L 363.7872 208.099364 
L 367.8048 210.972479 
L 372.492 214.296059 
L 374.5008 215.690451 
L 376.5096 217.555583 
L 377.1792 189.218158 
L 377.8488 177.813553 
L 378.5184 172.269741 
L 379.188 168.992526 
L 379.8576 167.040271 
L 380.5272 166.050399 
L 381.1968 165.833117 
L 381.8664 166.236298 
L 382.536 167.130221 
L 383.2056 168.413463 
L 384.5448 171.803968 
L 386.5536 177.996559 
L 389.9016 188.709249 
L 391.9104 194.4145 
L 393.9192 199.575897 
L 395.928 204.022432 
L 397.9368 207.723876 
L 399.9456 210.811634 
L 401.9544 213.515535 
L 403.9632 215.913509 
L 406.6416 218.779001 
L 408.6504 220.674 
L 411.3288 222.879716 
L 413.3376 224.233309 
L 415.3464 225.322734 
L 417.3552 226.176388 
L 419.364 226.822046 
L 421.3728 227.283491 
L 424.0512 227.646838 
L 426.7296 227.759074 
L 433.4256 227.710371 
L 436.7736 227.324315 
L 440.1216 226.699554 
L 444.1392 225.683448 
L 448.1568 224.421164 
L 452.844 222.688614 
L 457.5312 220.724738 
L 462.888 218.252942 
L 469.584 214.90556 
L 474.9408 212.23565 
L 478.2888 211.055174 
L 482.3064 210.13477 
L 484.9848 209.546435 
L 486.324 209.438368 
L 489.0024 209.508559 
L 490.3416 209.67152 
L 491.6808 210.017565 
L 493.02 210.563787 
L 495.0288 211.638655 
L 499.0464 214.331921 
L 501.7248 216.009619 
L 505.7424 218.287692 
L 510.4296 220.957145 
L 511.0992 191.816228 
L 511.7688 180.128288 
L 512.4384 174.625028 
L 513.108 171.507725 
L 513.7776 169.729273 
L 514.4472 168.889443 
L 515.1168 168.778197 
L 515.7864 169.265912 
L 516.456 170.245653 
L 517.1256 171.612824 
L 518.4648 175.231783 
L 520.4736 181.999427 
L 523.152 191.19254 
L 525.1608 197.393506 
L 527.1696 203.009462 
L 529.1784 207.986172 
L 531.1872 212.24874 
L 533.196 215.897579 
L 535.2048 218.939967 
L 537.2136 221.440004 
L 539.2224 223.47668 
L 541.2312 225.118864 
L 543.24 226.423623 
L 545.2488 227.438174 
L 547.2576 228.201864 
L 549.2664 228.747714 
L 551.2752 229.103609 
L 553.9536 229.323018 
L 556.632 229.292995 
L 559.3104 229.051369 
L 562.6584 228.498234 
L 566.0064 227.710664 
L 570.024 226.509237 
L 574.0416 225.076293 
L 578.7288 223.165069 
L 584.0856 220.725964 
L 590.112 217.729175 
L 597.4776 213.806373 
L 604.1736 210.241376 
L 614.2176 206.21703 
L 616.2264 205.600428 
L 625.6008 203.251626 
L 626.94 203.295417 
L 628.9488 203.716213 
L 630.9576 204.291161 
L 632.2968 204.991387 
L 635.6448 207.137194 
L 638.3232 209.052583 
L 639.6624 210.318326 
L 644.3496 215.391455 
L 645.0192 187.585624 
L 645.6888 176.408523 
L 646.3584 170.917045 
L 647.028 167.670659 
L 647.6976 165.755581 
L 648.3672 164.812049 
L 649.0368 164.635852 
L 649.7064 165.081372 
L 650.376 166.014132 
L 651.0456 167.321165 
L 652.3848 170.737371 
L 654.3936 176.95252 
L 659.7504 194.399187 
L 661.7592 200.328087 
L 663.768 205.469576 
L 665.7768 209.77117 
L 667.7856 213.331133 
L 669.7944 216.345979 
L 671.8032 218.916253 
L 673.812 221.039111 
L 675.8208 222.764507 
L 677.8296 224.147871 
L 679.8384 225.236894 
L 681.8472 226.071275 
L 683.856 226.684145 
L 685.8648 227.103374 
L 688.5432 227.401427 
L 691.2216 227.443429 
L 693.9 227.267337 
L 701.9352 226.435858 
L 705.2832 225.741846 
L 709.3008 224.654777 
L 713.3184 223.333454 
L 718.0056 221.54433 
L 723.3624 219.232086 
L 729.3888 216.363862 
L 736.7544 212.584171 
L 744.7896 208.406551 
L 748.1376 207.183064 
L 750.1464 206.685801 
L 753.4944 206.08341 
L 756.8424 205.881822 
L 759.5208 206.006435 
L 762.1992 206.286248 
L 764.208 206.761526 
L 767.556 207.798266 
L 770.2344 208.814973 
L 772.9128 210.246634 
L 777.6 213.161703 
L 777.6 213.161703 
" clip-path="url(#pbb3eb5e8c0)" style="fill: none; stroke: #4169e1; stroke-width: 1.5; stroke-linecap: square"/>
   </g>
   <g id="patch_3">
    <path d="M 108 256.32 
L 108 34.56 
" style="fill: none; stroke: #000000; stroke-width: 0.8; stroke-linejoin: miter; stroke-linecap: square"/>
   </g>
   <g id="patch_4">
    <path d="M 777.6 256.32 
L 777.6 34.56 
" style="fill: none; stroke: #000000; stroke-width: 0.8; stroke-linejoin: miter; stroke-linecap: square"/>
   </g>
   <g id="patch_5">
    <path d="M 108 256.32 
L 777.6 256.32 
" style="fill: none; stroke: #000000; stroke-width: 0.8; stroke-linejoin: miter; stroke-linecap: square"/>
   </g>
   <g id="patch_6">
    <path d="M 108 34.56 
L 777.6 34.56 
" style="fill: none; stroke: #000000; stroke-width: 0.8; stroke-linejoin: miter; stroke-linecap: square"/>
   </g>
   <g id="legend_1">
    <g id="patch_7">
     <path d="M 695.098438 71.91625 
L 770.6 71.91625 
Q 772.6 71.91625 772.6 69.91625 
L 772.6 41.56 
Q 772.6 39.56 770.6 39.56 
L 695.098438 39.56 
Q 693.098438 39.56 693.098438 41.56 
L 693.098438 69.91625 
Q 693.098438 71.91625 695.098438 71.91625 
z
" style="fill: #ffffff; opacity: 0.8; stroke: #cccccc; stroke-linejoin: miter"/>
    </g>
    <g id="line2d_25">
     <path d="M 697.098438 47.658437 
L 707.098438 47.658437 
L 717.098438 47.658437 
" style="fill: none; stroke: #000000; stroke-width: 1.5; stroke-linecap: square"/>
    </g>
    <g id="text_14">
     <!-- Soma -->
     <g transform="translate(725.098438 51.158437) scale(0.1 -0.1)">
      <defs>
       <path id="DejaVuSans-53" d="M 3425 4513 
L 3425 3897 
Q 3066 4069 2747 4153 
Q 2428 4238 2131 4238 
Q 1616 4238 1336 4038 
Q 1056 3838 1056 3469 
Q 1056 3159 1242 3001 
Q 1428 2844 1947 2747 
L 2328 2669 
Q 3034 2534 3370 2195 
Q 3706 1856 3706 1288 
Q 3706 609 3251 259 
Q 2797 -91 1919 -91 
Q 1588 -91 1214 -16 
Q 841 59 441 206 
L 441 856 
Q 825 641 1194 531 
Q 1563 422 1919 422 
Q 2459 422 2753 634 
Q 3047 847 3047 1241 
Q 3047 1584 2836 1778 
Q 2625 1972 2144 2069 
L 1759 2144 
Q 1053 2284 737 2584 
Q 422 2884 422 3419 
Q 422 4038 858 4394 
Q 1294 4750 2059 4750 
Q 2388 4750 2728 4690 
Q 3069 4631 3425 4513 
z
" transform="scale(0.015625)"/>
       <path id="DejaVuSans-6f" d="M 1959 3097 
Q 1497 3097 1228 2736 
Q 959 2375 959 1747 
Q 959 1119 1226 758 
Q 1494 397 1959 397 
Q 2419 397 2687 759 
Q 2956 1122 2956 1747 
Q 2956 2369 2687 2733 
Q 2419 3097 1959 3097 
z
M 1959 3584 
Q 2709 3584 3137 3096 
Q 3566 2609 3566 1747 
Q 3566 888 3137 398 
Q 2709 -91 1959 -91 
Q 1206 -91 779 398 
Q 353 888 353 1747 
Q 353 2609 779 3096 
Q 1206 3584 1959 3584 
z
" transform="scale(0.015625)"/>
       <path id="DejaVuSans-61" d="M 2194 1759 
Q 1497 1759 1228 1600 
Q 959 1441 959 1056 
Q 959 750 1161 570 
Q 1363 391 1709 391 
Q 2188 391 2477 730 
Q 2766 1069 2766 1631 
L 2766 1759 
L 2194 1759 
z
M 3341 1997 
L 3341 0 
L 2766 0 
L 2766 531 
Q 2569 213 2275 61 
Q 1981 -91 1556 -91 
Q 1019 -91 701 211 
Q 384 513 384 1019 
Q 384 1609 779 1909 
Q 1175 2209 1959 2209 
L 2766 2209 
L 2766 2266 
Q 2766 2663 2505 2880 
Q 2244 3097 1772 3097 
Q 1472 3097 1187 3025 
Q 903 2953 641 2809 
L 641 3341 
Q 956 3463 1253 3523 
Q 1550 3584 1831 3584 
Q 2591 3584 2966 3190 
Q 3341 2797 3341 1997 
z
" transform="scale(0.015625)"/>
      </defs>
      <use xlink:href="#DejaVuSans-53"/>
      <use xlink:href="#DejaVuSans-6f" x="63.476562"/>
      <use xlink:href="#DejaVuSans-6d" x="124.658203"/>
      <use xlink:href="#DejaVuSans-61" x="222.070312"/>
     </g>
    </g>
    <g id="line2d_26">
     <path d="M 697.098438 62.336562 
L 707.098438 62.336562 
L 717.098438 62.336562 
" style="fill: none; stroke: #4169e1; stroke-width: 1.5; stroke-linecap: square"/>
    </g>
    <g id="text_15">
     <!-- Dendrite -->
     <g transform="translate(725.098438 65.836562) scale(0.1 -0.1)">
      <defs>
       <path id="DejaVuSans-44" d="M 1259 4147 
L 1259 519 
L 2022 519 
Q 2988 519 3436 956 
Q 3884 1394 3884 2338 
Q 3884 3275 3436 3711 
Q 2988 4147 2022 4147 
L 1259 4147 
z
M 628 4666 
L 1925 4666 
Q 3281 4666 3915 4102 
Q 4550 3538 4550 2338 
Q 4550 1131 3912 565 
Q 3275 0 1925 0 
L 628 0 
L 628 4666 
z
" transform="scale(0.015625)"/>
       <path id="DejaVuSans-6e" d="M 3513 2113 
L 3513 0 
L 2938 0 
L 2938 2094 
Q 2938 2591 2744 2837 
Q 2550 3084 2163 3084 
Q 1697 3084 1428 2787 
Q 1159 2491 1159 1978 
L 1159 0 
L 581 0 
L 581 3500 
L 1159 3500 
L 1159 2956 
Q 1366 3272 1645 3428 
Q 1925 3584 2291 3584 
Q 2894 3584 3203 3211 
Q 3513 2838 3513 2113 
z
" transform="scale(0.015625)"/>
       <path id="DejaVuSans-64" d="M 2906 2969 
L 2906 4863 
L 3481 4863 
L 3481 0 
L 2906 0 
L 2906 525 
Q 2725 213 2448 61 
Q 2172 -91 1784 -91 
Q 1150 -91 751 415 
Q 353 922 353 1747 
Q 353 2572 751 3078 
Q 1150 3584 1784 3584 
Q 2172 3584 2448 3432 
Q 2725 3281 2906 2969 
z
M 947 1747 
Q 947 1113 1208 752 
Q 1469 391 1925 391 
Q 2381 391 2643 752 
Q 2906 1113 2906 1747 
Q 2906 2381 2643 2742 
Q 2381 3103 1925 3103 
Q 1469 3103 1208 2742 
Q 947 2381 947 1747 
z
" transform="scale(0.015625)"/>
       <path id="DejaVuSans-72" d="M 2631 2963 
Q 2534 3019 2420 3045 
Q 2306 3072 2169 3072 
Q 1681 3072 1420 2755 
Q 1159 2438 1159 1844 
L 1159 0 
L 581 0 
L 581 3500 
L 1159 3500 
L 1159 2956 
Q 1341 3275 1631 3429 
Q 1922 3584 2338 3584 
Q 2397 3584 2469 3576 
Q 2541 3569 2628 3553 
L 2631 2963 
z
" transform="scale(0.015625)"/>
       <path id="DejaVuSans-74" d="M 1172 4494 
L 1172 3500 
L 2356 3500 
L 2356 3053 
L 1172 3053 
L 1172 1153 
Q 1172 725 1289 603 
Q 1406 481 1766 481 
L 2356 481 
L 2356 0 
L 1766 0 
Q 1100 0 847 248 
Q 594 497 594 1153 
L 594 3053 
L 172 3053 
L 172 3500 
L 594 3500 
L 594 4494 
L 1172 4494 
z
" transform="scale(0.015625)"/>
      </defs>
      <use xlink:href="#DejaVuSans-44"/>
      <use xlink:href="#DejaVuSans-65" x="77.001953"/>
      <use xlink:href="#DejaVuSans-6e" x="138.525391"/>
      <use xlink:href="#DejaVuSans-64" x="201.904297"/>
      <use xlink:href="#DejaVuSans-72" x="265.380859"/>
      <use xlink:href="#DejaVuSans-69" x="306.494141"/>
      <use xlink:href="#DejaVuSans-74" x="334.277344"/>
      <use xlink:href="#DejaVuSans-65" x="373.486328"/>
     </g>
    </g>
   </g>
  </g>
 </g>
 <defs>
  <clipPath id="pbb3eb5e8c0">
   <rect x="108" y="34.56" width="669.6" height="221.76"/>
  </clipPath>
 </defs>
</svg>
