<?xml version="1.0" encoding="utf-8" standalone="no"?>
<!DOCTYPE svg PUBLIC "-//W3C//DTD SVG 1.1//EN"
  "http://www.w3.org/Graphics/SVG/1.1/DTD/svg11.dtd">
<svg xmlns:xlink="http://www.w3.org/1999/xlink" width="864pt" height="288pt" viewBox="0 0 864 288" xmlns="http://www.w3.org/2000/svg" version="1.1">
 <metadata>
  <rdf:RDF xmlns:dc="http://purl.org/dc/elements/1.1/" xmlns:cc="http://creativecommons.org/ns#" xmlns:rdf="http://www.w3.org/1999/02/22-rdf-syntax-ns#">
   <cc:Work>
    <dc:type rdf:resource="http://purl.org/dc/dcmitype/StillImage"/>
    <dc:date>2024-04-26T13:24:29.972408</dc:date>
    <dc:format>image/svg+xml</dc:format>
    <dc:creator>
     <cc:Agent>
      <dc:title>Matplotlib v3.8.2, https://matplotlib.org/</dc:title>
     </cc:Agent>
    </dc:creator>
   </cc:Work>
  </rdf:RDF>
 </metadata>
 <defs>
  <style type="text/css">*{stroke-linejoin: round; stroke-linecap: butt}</style>
 </defs>
 <g id="figure_1">
  <g id="patch_1">
   <path d="M 0 288 
L 864 288 
L 864 0 
L 0 0 
z
" style="fill: #ffffff"/>
  </g>
  <g id="axes_1">
   <g id="patch_2">
    <path d="M 108 256.32 
L 777.6 256.32 
L 777.6 34.56 
L 108 34.56 
z
" style="fill: #ffffff"/>
   </g>
   <g id="matplotlib.axis_1">
    <g id="xtick_1">
     <g id="line2d_1">
      <path d="M 108 256.32 
L 108 34.56 
" clip-path="url(#p01f86fba26)" style="fill: none; stroke: #b0b0b0; stroke-width: 0.8; stroke-linecap: square"/>
     </g>
     <g id="line2d_2">
      <defs>
       <path id="md6c3d43df0" d="M 0 0 
L 0 3.5 
" style="stroke: #000000; stroke-width: 0.8"/>
      </defs>
      <g>
       <use xlink:href="#md6c3d43df0" x="108" y="256.32" style="stroke: #000000; stroke-width: 0.8"/>
      </g>
     </g>
     <g id="text_1">
      <!-- 100 -->
      <g transform="translate(94.63875 273.957812) scale(0.14 -0.14)">
       <defs>
        <path id="DejaVuSans-31" d="M 794 531 
L 1825 531 
L 1825 4091 
L 703 3866 
L 703 4441 
L 1819 4666 
L 2450 4666 
L 2450 531 
L 3481 531 
L 3481 0 
L 794 0 
L 794 531 
z
" transform="scale(0.015625)"/>
        <path id="DejaVuSans-30" d="M 2034 4250 
Q 1547 4250 1301 3770 
Q 1056 3291 1056 2328 
Q 1056 1369 1301 889 
Q 1547 409 2034 409 
Q 2525 409 2770 889 
Q 3016 1369 3016 2328 
Q 3016 3291 2770 3770 
Q 2525 4250 2034 4250 
z
M 2034 4750 
Q 2819 4750 3233 4129 
Q 3647 3509 3647 2328 
Q 3647 1150 3233 529 
Q 2819 -91 2034 -91 
Q 1250 -91 836 529 
Q 422 1150 422 2328 
Q 422 3509 836 4129 
Q 1250 4750 2034 4750 
z
" transform="scale(0.015625)"/>
       </defs>
       <use xlink:href="#DejaVuSans-31"/>
       <use xlink:href="#DejaVuSans-30" x="63.623047"/>
       <use xlink:href="#DejaVuSans-30" x="127.246094"/>
      </g>
     </g>
    </g>
    <g id="xtick_2">
     <g id="line2d_3">
      <path d="M 241.92 256.32 
L 241.92 34.56 
" clip-path="url(#p01f86fba26)" style="fill: none; stroke: #b0b0b0; stroke-width: 0.8; stroke-linecap: square"/>
     </g>
     <g id="line2d_4">
      <g>
       <use xlink:href="#md6c3d43df0" x="241.92" y="256.32" style="stroke: #000000; stroke-width: 0.8"/>
      </g>
     </g>
     <g id="text_2">
      <!-- 120 -->
      <g transform="translate(228.55875 273.957812) scale(0.14 -0.14)">
       <defs>
        <path id="DejaVuSans-32" d="M 1228 531 
L 3431 531 
L 3431 0 
L 469 0 
L 469 531 
Q 828 903 1448 1529 
Q 2069 2156 2228 2338 
Q 2531 2678 2651 2914 
Q 2772 3150 2772 3378 
Q 2772 3750 2511 3984 
Q 2250 4219 1831 4219 
Q 1534 4219 1204 4116 
Q 875 4013 500 3803 
L 500 4441 
Q 881 4594 1212 4672 
Q 1544 4750 1819 4750 
Q 2544 4750 2975 4387 
Q 3406 4025 3406 3419 
Q 3406 3131 3298 2873 
Q 3191 2616 2906 2266 
Q 2828 2175 2409 1742 
Q 1991 1309 1228 531 
z
" transform="scale(0.015625)"/>
       </defs>
       <use xlink:href="#DejaVuSans-31"/>
       <use xlink:href="#DejaVuSans-32" x="63.623047"/>
       <use xlink:href="#DejaVuSans-30" x="127.246094"/>
      </g>
     </g>
    </g>
    <g id="xtick_3">
     <g id="line2d_5">
      <path d="M 375.84 256.32 
L 375.84 34.56 
" clip-path="url(#p01f86fba26)" style="fill: none; stroke: #b0b0b0; stroke-width: 0.8; stroke-linecap: square"/>
     </g>
     <g id="line2d_6">
      <g>
       <use xlink:href="#md6c3d43df0" x="375.84" y="256.32" style="stroke: #000000; stroke-width: 0.8"/>
      </g>
     </g>
     <g id="text_3">
      <!-- 140 -->
      <g transform="translate(362.47875 273.957812) scale(0.14 -0.14)">
       <defs>
        <path id="DejaVuSans-34" d="M 2419 4116 
L 825 1625 
L 2419 1625 
L 2419 4116 
z
M 2253 4666 
L 3047 4666 
L 3047 1625 
L 3713 1625 
L 3713 1100 
L 3047 1100 
L 3047 0 
L 2419 0 
L 2419 1100 
L 313 1100 
L 313 1709 
L 2253 4666 
z
" transform="scale(0.015625)"/>
       </defs>
       <use xlink:href="#DejaVuSans-31"/>
       <use xlink:href="#DejaVuSans-34" x="63.623047"/>
       <use xlink:href="#DejaVuSans-30" x="127.246094"/>
      </g>
     </g>
    </g>
    <g id="xtick_4">
     <g id="line2d_7">
      <path d="M 509.76 256.32 
L 509.76 34.56 
" clip-path="url(#p01f86fba26)" style="fill: none; stroke: #b0b0b0; stroke-width: 0.8; stroke-linecap: square"/>
     </g>
     <g id="line2d_8">
      <g>
       <use xlink:href="#md6c3d43df0" x="509.76" y="256.32" style="stroke: #000000; stroke-width: 0.8"/>
      </g>
     </g>
     <g id="text_4">
      <!-- 160 -->
      <g transform="translate(496.39875 273.957812) scale(0.14 -0.14)">
       <defs>
        <path id="DejaVuSans-36" d="M 2113 2584 
Q 1688 2584 1439 2293 
Q 1191 2003 1191 1497 
Q 1191 994 1439 701 
Q 1688 409 2113 409 
Q 2538 409 2786 701 
Q 3034 994 3034 1497 
Q 3034 2003 2786 2293 
Q 2538 2584 2113 2584 
z
M 3366 4563 
L 3366 3988 
Q 3128 4100 2886 4159 
Q 2644 4219 2406 4219 
Q 1781 4219 1451 3797 
Q 1122 3375 1075 2522 
Q 1259 2794 1537 2939 
Q 1816 3084 2150 3084 
Q 2853 3084 3261 2657 
Q 3669 2231 3669 1497 
Q 3669 778 3244 343 
Q 2819 -91 2113 -91 
Q 1303 -91 875 529 
Q 447 1150 447 2328 
Q 447 3434 972 4092 
Q 1497 4750 2381 4750 
Q 2619 4750 2861 4703 
Q 3103 4656 3366 4563 
z
" transform="scale(0.015625)"/>
       </defs>
       <use xlink:href="#DejaVuSans-31"/>
       <use xlink:href="#DejaVuSans-36" x="63.623047"/>
       <use xlink:href="#DejaVuSans-30" x="127.246094"/>
      </g>
     </g>
    </g>
    <g id="xtick_5">
     <g id="line2d_9">
      <path d="M 643.68 256.32 
L 643.68 34.56 
" clip-path="url(#p01f86fba26)" style="fill: none; stroke: #b0b0b0; stroke-width: 0.8; stroke-linecap: square"/>
     </g>
     <g id="line2d_10">
      <g>
       <use xlink:href="#md6c3d43df0" x="643.68" y="256.32" style="stroke: #000000; stroke-width: 0.8"/>
      </g>
     </g>
     <g id="text_5">
      <!-- 180 -->
      <g transform="translate(630.31875 273.957812) scale(0.14 -0.14)">
       <defs>
        <path id="DejaVuSans-38" d="M 2034 2216 
Q 1584 2216 1326 1975 
Q 1069 1734 1069 1313 
Q 1069 891 1326 650 
Q 1584 409 2034 409 
Q 2484 409 2743 651 
Q 3003 894 3003 1313 
Q 3003 1734 2745 1975 
Q 2488 2216 2034 2216 
z
M 1403 2484 
Q 997 2584 770 2862 
Q 544 3141 544 3541 
Q 544 4100 942 4425 
Q 1341 4750 2034 4750 
Q 2731 4750 3128 4425 
Q 3525 4100 3525 3541 
Q 3525 3141 3298 2862 
Q 3072 2584 2669 2484 
Q 3125 2378 3379 2068 
Q 3634 1759 3634 1313 
Q 3634 634 3220 271 
Q 2806 -91 2034 -91 
Q 1263 -91 848 271 
Q 434 634 434 1313 
Q 434 1759 690 2068 
Q 947 2378 1403 2484 
z
M 1172 3481 
Q 1172 3119 1398 2916 
Q 1625 2713 2034 2713 
Q 2441 2713 2670 2916 
Q 2900 3119 2900 3481 
Q 2900 3844 2670 4047 
Q 2441 4250 2034 4250 
Q 1625 4250 1398 4047 
Q 1172 3844 1172 3481 
z
" transform="scale(0.015625)"/>
       </defs>
       <use xlink:href="#DejaVuSans-31"/>
       <use xlink:href="#DejaVuSans-38" x="63.623047"/>
       <use xlink:href="#DejaVuSans-30" x="127.246094"/>
      </g>
     </g>
    </g>
    <g id="xtick_6">
     <g id="line2d_11">
      <path d="M 777.6 256.32 
L 777.6 34.56 
" clip-path="url(#p01f86fba26)" style="fill: none; stroke: #b0b0b0; stroke-width: 0.8; stroke-linecap: square"/>
     </g>
     <g id="line2d_12">
      <g>
       <use xlink:href="#md6c3d43df0" x="777.6" y="256.32" style="stroke: #000000; stroke-width: 0.8"/>
      </g>
     </g>
     <g id="text_6">
      <!-- 200 -->
      <g transform="translate(764.23875 273.957812) scale(0.14 -0.14)">
       <use xlink:href="#DejaVuSans-32"/>
       <use xlink:href="#DejaVuSans-30" x="63.623047"/>
       <use xlink:href="#DejaVuSans-30" x="127.246094"/>
      </g>
     </g>
    </g>
    <g id="text_7">
     <!-- Time (ms) -->
     <g transform="translate(407.521094 291.507187) scale(0.14 -0.14)">
      <defs>
       <path id="DejaVuSans-54" d="M -19 4666 
L 3928 4666 
L 3928 4134 
L 2272 4134 
L 2272 0 
L 1638 0 
L 1638 4134 
L -19 4134 
L -19 4666 
z
" transform="scale(0.015625)"/>
       <path id="DejaVuSans-69" d="M 603 3500 
L 1178 3500 
L 1178 0 
L 603 0 
L 603 3500 
z
M 603 4863 
L 1178 4863 
L 1178 4134 
L 603 4134 
L 603 4863 
z
" transform="scale(0.015625)"/>
       <path id="DejaVuSans-6d" d="M 3328 2828 
Q 3544 3216 3844 3400 
Q 4144 3584 4550 3584 
Q 5097 3584 5394 3201 
Q 5691 2819 5691 2113 
L 5691 0 
L 5113 0 
L 5113 2094 
Q 5113 2597 4934 2840 
Q 4756 3084 4391 3084 
Q 3944 3084 3684 2787 
Q 3425 2491 3425 1978 
L 3425 0 
L 2847 0 
L 2847 2094 
Q 2847 2600 2669 2842 
Q 2491 3084 2119 3084 
Q 1678 3084 1418 2786 
Q 1159 2488 1159 1978 
L 1159 0 
L 581 0 
L 581 3500 
L 1159 3500 
L 1159 2956 
Q 1356 3278 1631 3431 
Q 1906 3584 2284 3584 
Q 2666 3584 2933 3390 
Q 3200 3197 3328 2828 
z
" transform="scale(0.015625)"/>
       <path id="DejaVuSans-65" d="M 3597 1894 
L 3597 1613 
L 953 1613 
Q 991 1019 1311 708 
Q 1631 397 2203 397 
Q 2534 397 2845 478 
Q 3156 559 3463 722 
L 3463 178 
Q 3153 47 2828 -22 
Q 2503 -91 2169 -91 
Q 1331 -91 842 396 
Q 353 884 353 1716 
Q 353 2575 817 3079 
Q 1281 3584 2069 3584 
Q 2775 3584 3186 3129 
Q 3597 2675 3597 1894 
z
M 3022 2063 
Q 3016 2534 2758 2815 
Q 2500 3097 2075 3097 
Q 1594 3097 1305 2825 
Q 1016 2553 972 2059 
L 3022 2063 
z
" transform="scale(0.015625)"/>
       <path id="DejaVuSans-20" transform="scale(0.015625)"/>
       <path id="DejaVuSans-28" d="M 1984 4856 
Q 1566 4138 1362 3434 
Q 1159 2731 1159 2009 
Q 1159 1288 1364 580 
Q 1569 -128 1984 -844 
L 1484 -844 
Q 1016 -109 783 600 
Q 550 1309 550 2009 
Q 550 2706 781 3412 
Q 1013 4119 1484 4856 
L 1984 4856 
z
" transform="scale(0.015625)"/>
       <path id="DejaVuSans-73" d="M 2834 3397 
L 2834 2853 
Q 2591 2978 2328 3040 
Q 2066 3103 1784 3103 
Q 1356 3103 1142 2972 
Q 928 2841 928 2578 
Q 928 2378 1081 2264 
Q 1234 2150 1697 2047 
L 1894 2003 
Q 2506 1872 2764 1633 
Q 3022 1394 3022 966 
Q 3022 478 2636 193 
Q 2250 -91 1575 -91 
Q 1294 -91 989 -36 
Q 684 19 347 128 
L 347 722 
Q 666 556 975 473 
Q 1284 391 1588 391 
Q 1994 391 2212 530 
Q 2431 669 2431 922 
Q 2431 1156 2273 1281 
Q 2116 1406 1581 1522 
L 1381 1569 
Q 847 1681 609 1914 
Q 372 2147 372 2553 
Q 372 3047 722 3315 
Q 1072 3584 1716 3584 
Q 2034 3584 2315 3537 
Q 2597 3491 2834 3397 
z
" transform="scale(0.015625)"/>
       <path id="DejaVuSans-29" d="M 513 4856 
L 1013 4856 
Q 1481 4119 1714 3412 
Q 1947 2706 1947 2009 
Q 1947 1309 1714 600 
Q 1481 -109 1013 -844 
L 513 -844 
Q 928 -128 1133 580 
Q 1338 1288 1338 2009 
Q 1338 2731 1133 3434 
Q 928 4138 513 4856 
z
" transform="scale(0.015625)"/>
      </defs>
      <use xlink:href="#DejaVuSans-54"/>
      <use xlink:href="#DejaVuSans-69" x="57.958984"/>
      <use xlink:href="#DejaVuSans-6d" x="85.742188"/>
      <use xlink:href="#DejaVuSans-65" x="183.154297"/>
      <use xlink:href="#DejaVuSans-20" x="244.677734"/>
      <use xlink:href="#DejaVuSans-28" x="276.464844"/>
      <use xlink:href="#DejaVuSans-6d" x="315.478516"/>
      <use xlink:href="#DejaVuSans-73" x="412.890625"/>
      <use xlink:href="#DejaVuSans-29" x="464.990234"/>
     </g>
    </g>
   </g>
   <g id="matplotlib.axis_2">
    <g id="ytick_1">
     <g id="line2d_13">
      <path d="M 108 224.200634 
L 777.6 224.200634 
" clip-path="url(#p01f86fba26)" style="fill: none; stroke: #b0b0b0; stroke-width: 0.8; stroke-linecap: square"/>
     </g>
     <g id="line2d_14">
      <defs>
       <path id="m5708becc64" d="M 0 0 
L -3.5 0 
" style="stroke: #000000; stroke-width: 0.8"/>
      </defs>
      <g>
       <use xlink:href="#m5708becc64" x="108" y="224.200634" style="stroke: #000000; stroke-width: 0.8"/>
      </g>
     </g>
     <g id="text_8">
      <!-- −60 -->
      <g transform="translate(71.453437 229.51954) scale(0.14 -0.14)">
       <defs>
        <path id="DejaVuSans-2212" d="M 678 2272 
L 4684 2272 
L 4684 1741 
L 678 1741 
L 678 2272 
z
" transform="scale(0.015625)"/>
       </defs>
       <use xlink:href="#DejaVuSans-2212"/>
       <use xlink:href="#DejaVuSans-36" x="83.789062"/>
       <use xlink:href="#DejaVuSans-30" x="147.412109"/>
      </g>
     </g>
    </g>
    <g id="ytick_2">
     <g id="line2d_15">
      <path d="M 108 180.192138 
L 777.6 180.192138 
" clip-path="url(#p01f86fba26)" style="fill: none; stroke: #b0b0b0; stroke-width: 0.8; stroke-linecap: square"/>
     </g>
     <g id="line2d_16">
      <g>
       <use xlink:href="#m5708becc64" x="108" y="180.192138" style="stroke: #000000; stroke-width: 0.8"/>
      </g>
     </g>
     <g id="text_9">
      <!-- −40 -->
      <g transform="translate(71.453437 185.511044) scale(0.14 -0.14)">
       <use xlink:href="#DejaVuSans-2212"/>
       <use xlink:href="#DejaVuSans-34" x="83.789062"/>
       <use xlink:href="#DejaVuSans-30" x="147.412109"/>
      </g>
     </g>
    </g>
    <g id="ytick_3">
     <g id="line2d_17">
      <path d="M 108 136.183642 
L 777.6 136.183642 
" clip-path="url(#p01f86fba26)" style="fill: none; stroke: #b0b0b0; stroke-width: 0.8; stroke-linecap: square"/>
     </g>
     <g id="line2d_18">
      <g>
       <use xlink:href="#m5708becc64" x="108" y="136.183642" style="stroke: #000000; stroke-width: 0.8"/>
      </g>
     </g>
     <g id="text_10">
      <!-- −20 -->
      <g transform="translate(71.453437 141.502548) scale(0.14 -0.14)">
       <use xlink:href="#DejaVuSans-2212"/>
       <use xlink:href="#DejaVuSans-32" x="83.789062"/>
       <use xlink:href="#DejaVuSans-30" x="147.412109"/>
      </g>
     </g>
    </g>
    <g id="ytick_4">
     <g id="line2d_19">
      <path d="M 108 92.175146 
L 777.6 92.175146 
" clip-path="url(#p01f86fba26)" style="fill: none; stroke: #b0b0b0; stroke-width: 0.8; stroke-linecap: square"/>
     </g>
     <g id="line2d_20">
      <g>
       <use xlink:href="#m5708becc64" x="108" y="92.175146" style="stroke: #000000; stroke-width: 0.8"/>
      </g>
     </g>
     <g id="text_11">
      <!-- 0 -->
      <g transform="translate(92.0925 97.494052) scale(0.14 -0.14)">
       <use xlink:href="#DejaVuSans-30"/>
      </g>
     </g>
    </g>
    <g id="ytick_5">
     <g id="line2d_21">
      <path d="M 108 48.16665 
L 777.6 48.16665 
" clip-path="url(#p01f86fba26)" style="fill: none; stroke: #b0b0b0; stroke-width: 0.8; stroke-linecap: square"/>
     </g>
     <g id="line2d_22">
      <g>
       <use xlink:href="#m5708becc64" x="108" y="48.16665" style="stroke: #000000; stroke-width: 0.8"/>
      </g>
     </g>
     <g id="text_12">
      <!-- 20 -->
      <g transform="translate(83.185 53.485556) scale(0.14 -0.14)">
       <use xlink:href="#DejaVuSans-32"/>
       <use xlink:href="#DejaVuSans-30" x="63.623047"/>
      </g>
     </g>
    </g>
    <g id="text_13">
     <!-- $V_{m}$ (mV) -->
     <g transform="translate(64.541875 174.49) rotate(-90) scale(0.14 -0.14)">
      <defs>
       <path id="DejaVuSans-Oblique-56" d="M 1319 0 
L 500 4666 
L 1119 4666 
L 1797 653 
L 4063 4666 
L 4750 4666 
L 2053 0 
L 1319 0 
z
" transform="scale(0.015625)"/>
       <path id="DejaVuSans-Oblique-6d" d="M 5747 2113 
L 5338 0 
L 4763 0 
L 5166 2094 
Q 5191 2228 5203 2325 
Q 5216 2422 5216 2491 
Q 5216 2772 5059 2928 
Q 4903 3084 4622 3084 
Q 4203 3084 3875 2770 
Q 3547 2456 3450 1953 
L 3066 0 
L 2491 0 
L 2900 2094 
Q 2925 2209 2937 2307 
Q 2950 2406 2950 2484 
Q 2950 2769 2794 2926 
Q 2638 3084 2363 3084 
Q 1938 3084 1609 2770 
Q 1281 2456 1184 1953 
L 800 0 
L 225 0 
L 909 3500 
L 1484 3500 
L 1375 2956 
Q 1609 3263 1923 3423 
Q 2238 3584 2597 3584 
Q 2978 3584 3223 3384 
Q 3469 3184 3519 2828 
Q 3781 3197 4126 3390 
Q 4472 3584 4856 3584 
Q 5306 3584 5551 3325 
Q 5797 3066 5797 2591 
Q 5797 2488 5784 2364 
Q 5772 2241 5747 2113 
z
" transform="scale(0.015625)"/>
       <path id="DejaVuSans-56" d="M 1831 0 
L 50 4666 
L 709 4666 
L 2188 738 
L 3669 4666 
L 4325 4666 
L 2547 0 
L 1831 0 
z
" transform="scale(0.015625)"/>
      </defs>
      <use xlink:href="#DejaVuSans-Oblique-56" transform="translate(0 0.125)"/>
      <use xlink:href="#DejaVuSans-Oblique-6d" transform="translate(68.408203 -16.28125) scale(0.7)"/>
      <use xlink:href="#DejaVuSans-20" transform="translate(139.331055 0.125)"/>
      <use xlink:href="#DejaVuSans-28" transform="translate(171.118164 0.125)"/>
      <use xlink:href="#DejaVuSans-6d" transform="translate(210.131836 0.125)"/>
      <use xlink:href="#DejaVuSans-56" transform="translate(307.543945 0.125)"/>
      <use xlink:href="#DejaVuSans-29" transform="translate(375.952148 0.125)"/>
     </g>
    </g>
   </g>
   <g id="line2d_23">
    <path d="M 108 219.358198 
L 109.3392 220.04799 
L 110.6784 220.500811 
L 111.348 220.669837 
L 112.6872 221.646503 
L 114.0264 222.123293 
L 116.0352 223.741318 
L 118.044 226.27157 
L 118.7136 227.409989 
L 119.3832 228.292717 
L 120.0528 228.857591 
L 120.7224 229.917842 
L 122.7312 232.266838 
L 124.0704 233.078957 
L 125.4096 233.609096 
L 127.4184 234.124841 
L 129.4272 234.413725 
L 132.1056 234.540561 
L 134.1144 234.480766 
L 136.1232 235.286838 
L 136.7928 236.114417 
L 137.4624 236.69506 
L 140.1408 237.891585 
L 141.48 238.164105 
L 143.4888 238.267568 
L 144.828 238.715482 
L 146.1672 238.819982 
L 148.176 238.734784 
L 149.5152 239.0794 
L 150.8544 239.096063 
L 153.5328 238.797148 
L 156.8808 238.134712 
L 160.2288 237.252936 
L 164.2464 235.966824 
L 168.9336 234.207551 
L 173.6208 232.215667 
L 178.9776 229.701095 
L 185.004 226.620873 
L 191.7 222.949693 
L 198.396 219.084314 
L 199.7352 219.109377 
L 201.0744 218.717565 
L 203.0832 217.835791 
L 205.092 216.55027 
L 205.7616 216.092718 
L 207.1008 216.039815 
L 208.44 215.576418 
L 209.7792 215.833299 
L 211.1184 215.618412 
L 213.7968 214.779254 
L 217.8144 213.21605 
L 222.5016 211.143671 
L 225.8496 209.535966 
L 227.1888 209.819528 
L 227.8584 210.752391 
L 228.528 211.478445 
L 229.1976 211.832055 
L 230.5368 212.088078 
L 231.876 212.084325 
L 232.5456 212.029311 
L 234.5544 213.330735 
L 235.8936 215.287388 
L 236.5632 216.444659 
L 239.2416 219.730162 
L 239.9112 220.79536 
L 240.5808 222.33104 
L 241.2504 223.459811 
L 241.92 224.185618 
L 243.2592 225.13893 
L 244.5984 225.774987 
L 245.9376 226.86918 
L 246.6072 227.207203 
L 247.2768 227.806984 
L 247.9464 228.627124 
L 249.9552 230.497781 
L 251.2944 231.730097 
L 252.6336 232.378275 
L 253.9728 232.785085 
L 255.312 234.142551 
L 255.9816 234.79722 
L 256.6512 235.283336 
L 257.9904 235.83818 
L 259.9992 236.277461 
L 260.6688 236.365181 
L 262.008 236.98122 
L 263.3472 237.230782 
L 264.6864 237.326383 
L 267.3648 238.477301 
L 268.704 238.692603 
L 270.7128 238.730172 
L 272.052 239.138948 
L 273.3912 239.213081 
L 275.4 239.091274 
L 278.0784 238.717031 
L 281.4264 238.016375 
L 282.096 237.850636 
L 283.4352 238.008099 
L 284.7744 237.853809 
L 287.4528 237.249745 
L 290.8008 236.261476 
L 291.4704 236.041592 
L 292.8096 236.127592 
L 294.1488 235.894059 
L 296.8272 235.13103 
L 300.8448 233.704386 
L 305.532 231.774754 
L 310.8888 229.305645 
L 316.9152 226.261016 
L 323.6112 222.619219 
L 331.6464 217.99193 
L 337.0032 214.76649 
L 339.6816 212.674275 
L 344.3688 209.059405 
L 345.0384 208.568633 
L 346.3776 208.58976 
L 347.7168 208.174209 
L 349.7256 207.253492 
L 353.0736 205.451024 
L 354.4128 204.640048 
L 355.752 205.897307 
L 356.4216 206.190611 
L 358.4304 208.10369 
L 359.1 209.189098 
L 359.7696 209.962113 
L 360.4392 210.430805 
L 361.7784 210.9488 
L 363.1176 212.927173 
L 363.7872 213.906876 
L 364.4568 214.635322 
L 366.4656 216.13261 
L 367.1352 216.691553 
L 367.8048 217.05427 
L 369.144 218.288068 
L 370.4832 218.904633 
L 371.8224 219.260026 
L 372.492 219.382768 
L 373.8312 221.029914 
L 374.5008 222.617473 
L 375.1704 223.839702 
L 375.84 224.578521 
L 377.1792 225.49522 
L 378.5184 226.082258 
L 379.188 226.303895 
L 379.8576 226.840844 
L 381.8664 229.170653 
L 382.536 229.592511 
L 383.8752 230.73675 
L 384.5448 231.082425 
L 386.5536 232.730547 
L 387.2232 233.206406 
L 388.5624 233.759922 
L 391.2408 234.598534 
L 391.9104 235.196434 
L 392.58 235.613217 
L 393.9192 236.035866 
L 395.928 236.311179 
L 399.276 236.618381 
L 402.624 237.507978 
L 403.2936 237.5472 
L 405.972 238.632334 
L 407.3112 238.8042 
L 407.9808 238.819781 
L 409.32 239.256708 
L 410.6592 239.344327 
L 412.668 239.230185 
L 415.3464 238.855527 
L 418.6944 238.147666 
L 422.712 237.031494 
L 426.7296 235.680748 
L 428.0688 235.737584 
L 429.408 235.475768 
L 432.0864 234.660714 
L 436.104 233.16741 
L 440.7912 231.173088 
L 446.148 228.64312 
L 452.1744 225.543452 
L 459.54 221.474904 
L 468.2448 216.397174 
L 470.9232 214.756407 
L 472.932 213.202716 
L 474.2712 213.038365 
L 475.6104 212.45241 
L 476.9496 211.733333 
L 478.2888 211.905816 
L 479.628 211.62056 
L 482.3064 210.645753 
L 483.6456 210.083977 
L 484.9848 210.434193 
L 485.6544 210.900472 
L 486.324 211.225063 
L 487.6632 211.355847 
L 489.0024 211.227739 
L 490.3416 212.766223 
L 491.0112 213.114884 
L 491.6808 213.764154 
L 492.3504 214.706475 
L 493.02 215.361678 
L 493.6896 215.75164 
L 494.3592 216.444013 
L 495.0288 217.410933 
L 495.6984 218.09859 
L 497.7072 219.471452 
L 498.3768 219.984188 
L 499.716 220.546087 
L 501.0552 220.856228 
L 502.3944 221.76044 
L 503.7336 222.165642 
L 504.4032 222.280661 
L 505.7424 223.125874 
L 507.0816 223.485377 
L 507.7512 223.580665 
L 508.4208 224.022123 
L 510.4296 227.357449 
L 511.0992 228.105612 
L 512.4384 228.951129 
L 513.7776 229.450548 
L 515.1168 230.370266 
L 515.7864 231.272312 
L 516.456 231.975109 
L 517.1256 232.405014 
L 519.804 235.928851 
L 521.1432 236.71062 
L 522.4824 237.193194 
L 523.152 237.370992 
L 523.8216 237.784815 
L 524.4912 238.380661 
L 526.5 239.713395 
L 527.8392 240.590434 
L 529.1784 241.00408 
L 529.848 241.132257 
L 531.1872 241.733258 
L 532.5264 241.98499 
L 534.5352 242.104804 
L 537.2136 242.01163 
L 539.892 241.713982 
L 543.24 241.117019 
L 547.2576 240.131788 
L 551.2752 238.903247 
L 555.9624 237.212307 
L 560.6496 235.285908 
L 566.0064 232.839863 
L 572.0328 229.825525 
L 578.7288 226.208649 
L 586.0944 221.977243 
L 596.1384 215.929637 
L 602.1648 212.22488 
L 603.504 212.320813 
L 604.1736 212.179829 
L 605.5128 211.585314 
L 608.1912 209.883149 
L 613.548 206.313154 
L 614.8872 206.462131 
L 616.2264 206.180961 
L 618.2352 205.421749 
L 620.9136 204.114083 
L 622.9224 202.959155 
L 624.2616 203.180949 
L 624.9312 203.154204 
L 625.6008 203.587313 
L 626.2704 204.514179 
L 626.94 205.235161 
L 627.6096 205.68475 
L 628.9488 206.158229 
L 629.6184 206.266853 
L 630.288 206.831461 
L 630.9576 208.302262 
L 631.6272 209.451407 
L 632.2968 210.146329 
L 634.3056 211.659719 
L 634.9752 212.240965 
L 635.6448 212.611995 
L 636.984 213.907466 
L 637.6536 214.276903 
L 638.9928 217.541448 
L 639.6624 218.643313 
L 640.332 219.364239 
L 641.6712 221.036245 
L 642.3408 221.563148 
L 643.0104 222.354588 
L 643.68 223.372385 
L 644.3496 224.128819 
L 645.0192 224.652647 
L 646.3584 226.035395 
L 648.3672 227.450228 
L 649.0368 228.304596 
L 649.7064 228.934525 
L 653.0544 231.08578 
L 653.724 231.649879 
L 654.3936 232.41021 
L 658.4112 235.741351 
L 659.7504 237.356245 
L 660.42 237.936188 
L 661.7592 238.614675 
L 663.0984 239.031452 
L 665.1072 239.40609 
L 667.116 239.578892 
L 667.7856 239.601152 
L 669.1248 240.0643 
L 670.464 240.202022 
L 672.4728 240.179588 
L 675.1512 239.933014 
L 678.4992 239.378688 
L 681.8472 238.607213 
L 685.8648 237.444784 
L 689.8824 236.064063 
L 693.9 234.496719 
L 695.2392 234.510514 
L 696.5784 234.200992 
L 699.2568 233.290921 
L 703.2744 231.668312 
L 707.9616 229.5438 
L 713.988 226.542874 
L 720.684 222.935852 
L 728.7192 218.336789 
L 738.0936 212.756193 
L 740.1024 211.288449 
L 742.7808 209.113499 
L 744.12 209.023159 
L 745.4592 208.512998 
L 747.468 207.497596 
L 748.8072 207.76608 
L 750.1464 207.573063 
L 752.1552 206.94027 
L 753.4944 207.418933 
L 754.8336 207.404981 
L 756.1728 207.16316 
L 757.512 207.798011 
L 758.8512 207.913877 
L 760.1904 207.787914 
L 761.5296 208.511117 
L 762.1992 208.654203 
L 763.5384 209.628611 
L 764.8776 209.974164 
L 765.5472 210.032123 
L 766.8864 210.939282 
L 768.2256 211.274869 
L 768.8952 211.336895 
L 770.2344 213.100207 
L 770.904 213.54945 
L 771.5736 213.834615 
L 774.252 216.335753 
L 775.5912 216.963143 
L 776.9304 217.303236 
L 777.6 217.839568 
L 777.6 217.839568 
" clip-path="url(#p01f86fba26)" style="fill: none; stroke: #000000; stroke-width: 1.5; stroke-linecap: square"/>
   </g>
   <g id="line2d_24">
    <path d="M 108 178.458559 
L 111.348 186.027364 
L 114.0264 191.460967 
L 122.7312 207.762857 
L 124.74 211.294641 
L 126.7488 214.343345 
L 128.7576 216.915978 
L 130.7664 219.071896 
L 132.7752 220.866545 
L 134.784 222.3582 
L 137.4624 224.281374 
L 141.48 227.360571 
L 143.4888 228.64653 
L 146.8368 230.44277 
L 149.5152 231.568339 
L 152.1936 232.521252 
L 154.872 233.188955 
L 157.5504 233.578528 
L 160.2288 233.728087 
L 162.9072 233.669929 
L 166.2552 233.344951 
L 169.6032 232.778878 
L 172.9512 232.006569 
L 176.9688 230.847885 
L 181.656 229.227273 
L 186.3432 227.366658 
L 191.7 225.000593 
L 197.7264 222.096195 
L 200.4048 220.873392 
L 202.4136 220.112762 
L 203.0832 190.548616 
L 203.7528 178.334612 
L 204.4224 172.197284 
L 205.092 168.343387 
L 205.7616 165.733652 
L 206.4312 163.97994 
L 207.1008 162.881139 
L 207.7704 162.290968 
L 208.44 162.09403 
L 209.1096 162.213204 
L 209.7792 162.583424 
L 211.1184 163.827075 
L 215.8056 169.084845 
L 217.1448 170.208509 
L 218.484 171.084793 
L 219.8232 171.714866 
L 221.1624 172.110771 
L 222.5016 172.28942 
L 223.8408 172.270041 
L 225.18 172.073005 
L 227.8584 171.491861 
L 229.1976 171.597314 
L 230.5368 171.99456 
L 232.5456 172.821438 
L 233.8848 173.51434 
L 235.224 174.481276 
L 236.5632 175.926475 
L 237.9024 177.881261 
L 239.2416 180.219014 
L 240.5808 182.91493 
L 243.2592 189.161334 
L 245.9376 195.101085 
L 249.2856 201.804171 
L 251.964 206.829972 
L 253.9728 210.184397 
L 257.3208 215.240422 
L 259.3296 217.949706 
L 261.3384 220.265355 
L 263.3472 222.319353 
L 265.356 224.097831 
L 268.704 226.756331 
L 270.7128 228.110735 
L 273.3912 229.657478 
L 275.4 230.619545 
L 277.4088 231.373749 
L 279.4176 231.936911 
L 282.096 232.427113 
L 286.7832 232.998964 
L 289.4616 233.078369 
L 294.8184 232.867732 
L 298.1664 232.590011 
L 301.5144 232.068215 
L 304.8624 231.336029 
L 308.88 230.221841 
L 312.8976 228.888623 
L 317.5848 227.10014 
L 322.9416 224.801982 
L 328.968 221.958376 
L 336.3336 218.208343 
L 337.0032 188.971907 
L 337.6728 176.819841 
L 338.3424 170.549992 
L 339.012 166.478924 
L 339.6816 163.620493 
L 340.3512 161.592245 
L 341.0208 160.184269 
L 341.6904 159.250108 
L 342.36 158.679959 
L 343.0296 158.38528 
L 343.6992 158.294006 
L 345.0384 158.491781 
L 346.3776 158.991602 
L 349.7256 160.452941 
L 351.0648 160.744802 
L 352.404 160.792043 
L 353.7432 160.597071 
L 355.752 160.082543 
L 357.0912 159.982464 
L 358.4304 160.190935 
L 359.7696 160.818266 
L 361.1088 161.803092 
L 362.448 163.001196 
L 363.7872 164.56116 
L 365.1264 166.511407 
L 367.1352 169.883899 
L 369.144 173.693099 
L 374.5008 184.577229 
L 379.8576 196.655726 
L 383.8752 204.447927 
L 386.5536 209.075209 
L 388.5624 212.242327 
L 390.5712 215.008816 
L 393.9192 219.04642 
L 395.928 221.139163 
L 397.9368 222.892863 
L 400.6152 224.843566 
L 403.9632 227.029517 
L 408.6504 229.757862 
L 411.3288 231.067729 
L 413.3376 231.848998 
L 415.3464 232.441164 
L 418.0248 232.969148 
L 420.7032 233.237782 
L 423.3816 233.282246 
L 426.06 233.131335 
L 434.7648 232.199651 
L 438.1128 231.503487 
L 442.1304 230.425366 
L 446.148 229.122948 
L 450.8352 227.365067 
L 456.192 225.095787 
L 462.2184 222.277735 
L 468.9144 218.898783 
L 470.2536 218.199075 
L 470.9232 188.964549 
L 471.5928 176.813083 
L 472.2624 170.543339 
L 472.932 166.47322 
L 473.6016 163.634238 
L 474.2712 161.658809 
L 474.9408 160.33988 
L 475.6104 159.526215 
L 476.28 159.102032 
L 476.9496 158.971663 
L 477.6192 159.077178 
L 478.2888 159.372537 
L 479.628 160.3309 
L 482.976 163.069874 
L 484.9848 164.282644 
L 490.3416 167.410643 
L 491.6808 168.414092 
L 493.02 169.709074 
L 494.3592 171.271744 
L 495.6984 173.131395 
L 497.7072 176.330457 
L 507.7512 193.266218 
L 509.76 196.373403 
L 515.7864 206.443298 
L 523.8216 218.775527 
L 527.1696 222.986053 
L 529.848 226.030383 
L 532.5264 228.621012 
L 534.5352 230.249096 
L 536.544 231.587973 
L 538.5528 232.666971 
L 540.5616 233.516994 
L 542.5704 234.164651 
L 545.2488 234.752171 
L 547.9272 235.065428 
L 550.6056 235.142407 
L 553.284 235.015032 
L 556.632 234.608987 
L 559.98 233.96877 
L 563.9976 232.940458 
L 568.0152 231.673869 
L 572.7024 229.945852 
L 578.0592 227.69917 
L 584.0856 224.892878 
L 590.7816 221.506979 
L 598.8168 217.182435 
L 604.1736 214.351393 
L 604.8432 185.992069 
L 605.5128 174.156857 
L 606.1824 167.830147 
L 606.852 163.603689 
L 607.5216 160.597499 
L 608.1912 158.452345 
L 608.8608 156.957117 
L 609.5304 155.961156 
L 610.2 155.348974 
L 610.8696 155.03001 
L 611.5392 154.929224 
L 612.8784 155.140356 
L 614.2176 155.620867 
L 618.2352 157.334784 
L 619.5744 157.584352 
L 620.9136 157.597061 
L 622.2528 157.383651 
L 626.2704 156.357153 
L 627.6096 156.495965 
L 628.9488 156.919532 
L 630.288 157.499587 
L 630.9576 157.911453 
L 632.2968 159.120171 
L 633.636 160.690972 
L 635.6448 163.504793 
L 637.6536 166.853056 
L 638.9928 169.543732 
L 640.332 172.777891 
L 643.0104 179.998634 
L 647.6976 192.809814 
L 650.376 199.229509 
L 652.3848 203.50255 
L 655.0632 208.544776 
L 657.7416 213.127727 
L 661.7592 219.426653 
L 663.768 222.135904 
L 665.7768 224.410747 
L 667.7856 226.299554 
L 670.464 228.434518 
L 672.4728 229.76964 
L 674.4816 230.849708 
L 676.4904 231.698272 
L 678.4992 232.342344 
L 681.1776 232.923411 
L 683.856 233.229529 
L 686.5344 233.299255 
L 689.2128 233.164682 
L 692.5608 232.749734 
L 702.6048 230.962181 
L 706.6224 229.864948 
L 710.64 228.546329 
L 715.3272 226.773332 
L 720.684 224.490554 
L 726.7104 221.661097 
L 734.076 217.924373 
L 738.0936 215.794948 
L 738.7632 187.065714 
L 739.4328 175.071961 
L 740.1024 168.728348 
L 740.772 164.516657 
L 741.4416 161.515631 
L 742.1112 159.358412 
L 742.7808 157.832745 
L 743.4504 156.808374 
L 744.12 156.191065 
L 744.7896 155.894089 
L 745.4592 155.839552 
L 746.1288 155.958637 
L 747.468 156.493908 
L 749.4768 157.651489 
L 751.4856 158.794165 
L 753.4944 159.609266 
L 755.5032 160.26683 
L 761.5296 161.823537 
L 762.8688 162.347722 
L 764.208 163.082121 
L 766.2168 164.4545 
L 768.2256 166.204975 
L 769.5648 167.55544 
L 770.904 169.22379 
L 772.9128 172.2075 
L 774.9216 175.727163 
L 777.6 180.684784 
L 777.6 180.684784 
" clip-path="url(#p01f86fba26)" style="fill: none; stroke: #4169e1; stroke-width: 1.5; stroke-linecap: square"/>
   </g>
   <g id="patch_3">
    <path d="M 108 256.32 
L 108 34.56 
" style="fill: none; stroke: #000000; stroke-width: 0.8; stroke-linejoin: miter; stroke-linecap: square"/>
   </g>
   <g id="patch_4">
    <path d="M 777.6 256.32 
L 777.6 34.56 
" style="fill: none; stroke: #000000; stroke-width: 0.8; stroke-linejoin: miter; stroke-linecap: square"/>
   </g>
   <g id="patch_5">
    <path d="M 108 256.32 
L 777.6 256.32 
" style="fill: none; stroke: #000000; stroke-width: 0.8; stroke-linejoin: miter; stroke-linecap: square"/>
   </g>
   <g id="patch_6">
    <path d="M 108 34.56 
L 777.6 34.56 
" style="fill: none; stroke: #000000; stroke-width: 0.8; stroke-linejoin: miter; stroke-linecap: square"/>
   </g>
   <g id="legend_1">
    <g id="patch_7">
     <path d="M 695.098438 71.91625 
L 770.6 71.91625 
Q 772.6 71.91625 772.6 69.91625 
L 772.6 41.56 
Q 772.6 39.56 770.6 39.56 
L 695.098438 39.56 
Q 693.098438 39.56 693.098438 41.56 
L 693.098438 69.91625 
Q 693.098438 71.91625 695.098438 71.91625 
z
" style="fill: #ffffff; opacity: 0.8; stroke: #cccccc; stroke-linejoin: miter"/>
    </g>
    <g id="line2d_25">
     <path d="M 697.098438 47.658437 
L 707.098438 47.658437 
L 717.098438 47.658437 
" style="fill: none; stroke: #000000; stroke-width: 1.5; stroke-linecap: square"/>
    </g>
    <g id="text_14">
     <!-- Soma -->
     <g transform="translate(725.098438 51.158437) scale(0.1 -0.1)">
      <defs>
       <path id="DejaVuSans-53" d="M 3425 4513 
L 3425 3897 
Q 3066 4069 2747 4153 
Q 2428 4238 2131 4238 
Q 1616 4238 1336 4038 
Q 1056 3838 1056 3469 
Q 1056 3159 1242 3001 
Q 1428 2844 1947 2747 
L 2328 2669 
Q 3034 2534 3370 2195 
Q 3706 1856 3706 1288 
Q 3706 609 3251 259 
Q 2797 -91 1919 -91 
Q 1588 -91 1214 -16 
Q 841 59 441 206 
L 441 856 
Q 825 641 1194 531 
Q 1563 422 1919 422 
Q 2459 422 2753 634 
Q 3047 847 3047 1241 
Q 3047 1584 2836 1778 
Q 2625 1972 2144 2069 
L 1759 2144 
Q 1053 2284 737 2584 
Q 422 2884 422 3419 
Q 422 4038 858 4394 
Q 1294 4750 2059 4750 
Q 2388 4750 2728 4690 
Q 3069 4631 3425 4513 
z
" transform="scale(0.015625)"/>
       <path id="DejaVuSans-6f" d="M 1959 3097 
Q 1497 3097 1228 2736 
Q 959 2375 959 1747 
Q 959 1119 1226 758 
Q 1494 397 1959 397 
Q 2419 397 2687 759 
Q 2956 1122 2956 1747 
Q 2956 2369 2687 2733 
Q 2419 3097 1959 3097 
z
M 1959 3584 
Q 2709 3584 3137 3096 
Q 3566 2609 3566 1747 
Q 3566 888 3137 398 
Q 2709 -91 1959 -91 
Q 1206 -91 779 398 
Q 353 888 353 1747 
Q 353 2609 779 3096 
Q 1206 3584 1959 3584 
z
" transform="scale(0.015625)"/>
       <path id="DejaVuSans-61" d="M 2194 1759 
Q 1497 1759 1228 1600 
Q 959 1441 959 1056 
Q 959 750 1161 570 
Q 1363 391 1709 391 
Q 2188 391 2477 730 
Q 2766 1069 2766 1631 
L 2766 1759 
L 2194 1759 
z
M 3341 1997 
L 3341 0 
L 2766 0 
L 2766 531 
Q 2569 213 2275 61 
Q 1981 -91 1556 -91 
Q 1019 -91 701 211 
Q 384 513 384 1019 
Q 384 1609 779 1909 
Q 1175 2209 1959 2209 
L 2766 2209 
L 2766 2266 
Q 2766 2663 2505 2880 
Q 2244 3097 1772 3097 
Q 1472 3097 1187 3025 
Q 903 2953 641 2809 
L 641 3341 
Q 956 3463 1253 3523 
Q 1550 3584 1831 3584 
Q 2591 3584 2966 3190 
Q 3341 2797 3341 1997 
z
" transform="scale(0.015625)"/>
      </defs>
      <use xlink:href="#DejaVuSans-53"/>
      <use xlink:href="#DejaVuSans-6f" x="63.476562"/>
      <use xlink:href="#DejaVuSans-6d" x="124.658203"/>
      <use xlink:href="#DejaVuSans-61" x="222.070312"/>
     </g>
    </g>
    <g id="line2d_26">
     <path d="M 697.098438 62.336562 
L 707.098438 62.336562 
L 717.098438 62.336562 
" style="fill: none; stroke: #4169e1; stroke-width: 1.5; stroke-linecap: square"/>
    </g>
    <g id="text_15">
     <!-- Dendrite -->
     <g transform="translate(725.098438 65.836562) scale(0.1 -0.1)">
      <defs>
       <path id="DejaVuSans-44" d="M 1259 4147 
L 1259 519 
L 2022 519 
Q 2988 519 3436 956 
Q 3884 1394 3884 2338 
Q 3884 3275 3436 3711 
Q 2988 4147 2022 4147 
L 1259 4147 
z
M 628 4666 
L 1925 4666 
Q 3281 4666 3915 4102 
Q 4550 3538 4550 2338 
Q 4550 1131 3912 565 
Q 3275 0 1925 0 
L 628 0 
L 628 4666 
z
" transform="scale(0.015625)"/>
       <path id="DejaVuSans-6e" d="M 3513 2113 
L 3513 0 
L 2938 0 
L 2938 2094 
Q 2938 2591 2744 2837 
Q 2550 3084 2163 3084 
Q 1697 3084 1428 2787 
Q 1159 2491 1159 1978 
L 1159 0 
L 581 0 
L 581 3500 
L 1159 3500 
L 1159 2956 
Q 1366 3272 1645 3428 
Q 1925 3584 2291 3584 
Q 2894 3584 3203 3211 
Q 3513 2838 3513 2113 
z
" transform="scale(0.015625)"/>
       <path id="DejaVuSans-64" d="M 2906 2969 
L 2906 4863 
L 3481 4863 
L 3481 0 
L 2906 0 
L 2906 525 
Q 2725 213 2448 61 
Q 2172 -91 1784 -91 
Q 1150 -91 751 415 
Q 353 922 353 1747 
Q 353 2572 751 3078 
Q 1150 3584 1784 3584 
Q 2172 3584 2448 3432 
Q 2725 3281 2906 2969 
z
M 947 1747 
Q 947 1113 1208 752 
Q 1469 391 1925 391 
Q 2381 391 2643 752 
Q 2906 1113 2906 1747 
Q 2906 2381 2643 2742 
Q 2381 3103 1925 3103 
Q 1469 3103 1208 2742 
Q 947 2381 947 1747 
z
" transform="scale(0.015625)"/>
       <path id="DejaVuSans-72" d="M 2631 2963 
Q 2534 3019 2420 3045 
Q 2306 3072 2169 3072 
Q 1681 3072 1420 2755 
Q 1159 2438 1159 1844 
L 1159 0 
L 581 0 
L 581 3500 
L 1159 3500 
L 1159 2956 
Q 1341 3275 1631 3429 
Q 1922 3584 2338 3584 
Q 2397 3584 2469 3576 
Q 2541 3569 2628 3553 
L 2631 2963 
z
" transform="scale(0.015625)"/>
       <path id="DejaVuSans-74" d="M 1172 4494 
L 1172 3500 
L 2356 3500 
L 2356 3053 
L 1172 3053 
L 1172 1153 
Q 1172 725 1289 603 
Q 1406 481 1766 481 
L 2356 481 
L 2356 0 
L 1766 0 
Q 1100 0 847 248 
Q 594 497 594 1153 
L 594 3053 
L 172 3053 
L 172 3500 
L 594 3500 
L 594 4494 
L 1172 4494 
z
" transform="scale(0.015625)"/>
      </defs>
      <use xlink:href="#DejaVuSans-44"/>
      <use xlink:href="#DejaVuSans-65" x="77.001953"/>
      <use xlink:href="#DejaVuSans-6e" x="138.525391"/>
      <use xlink:href="#DejaVuSans-64" x="201.904297"/>
      <use xlink:href="#DejaVuSans-72" x="265.380859"/>
      <use xlink:href="#DejaVuSans-69" x="306.494141"/>
      <use xlink:href="#DejaVuSans-74" x="334.277344"/>
      <use xlink:href="#DejaVuSans-65" x="373.486328"/>
     </g>
    </g>
   </g>
  </g>
 </g>
 <defs>
  <clipPath id="p01f86fba26">
   <rect x="108" y="34.56" width="669.6" height="221.76"/>
  </clipPath>
 </defs>
</svg>
