<?xml version="1.0" encoding="utf-8" standalone="no"?>
<!DOCTYPE svg PUBLIC "-//W3C//DTD SVG 1.1//EN"
  "http://www.w3.org/Graphics/SVG/1.1/DTD/svg11.dtd">
<svg xmlns:xlink="http://www.w3.org/1999/xlink" width="864pt" height="288pt" viewBox="0 0 864 288" xmlns="http://www.w3.org/2000/svg" version="1.1">
 <metadata>
  <rdf:RDF xmlns:dc="http://purl.org/dc/elements/1.1/" xmlns:cc="http://creativecommons.org/ns#" xmlns:rdf="http://www.w3.org/1999/02/22-rdf-syntax-ns#">
   <cc:Work>
    <dc:type rdf:resource="http://purl.org/dc/dcmitype/StillImage"/>
    <dc:date>2024-04-26T13:23:55.071151</dc:date>
    <dc:format>image/svg+xml</dc:format>
    <dc:creator>
     <cc:Agent>
      <dc:title>Matplotlib v3.8.2, https://matplotlib.org/</dc:title>
     </cc:Agent>
    </dc:creator>
   </cc:Work>
  </rdf:RDF>
 </metadata>
 <defs>
  <style type="text/css">*{stroke-linejoin: round; stroke-linecap: butt}</style>
 </defs>
 <g id="figure_1">
  <g id="patch_1">
   <path d="M 0 288 
L 864 288 
L 864 0 
L 0 0 
z
" style="fill: #ffffff"/>
  </g>
  <g id="axes_1">
   <g id="patch_2">
    <path d="M 108 256.32 
L 777.6 256.32 
L 777.6 34.56 
L 108 34.56 
z
" style="fill: #ffffff"/>
   </g>
   <g id="matplotlib.axis_1">
    <g id="xtick_1">
     <g id="line2d_1">
      <path d="M 108 256.32 
L 108 34.56 
" clip-path="url(#p0eb6ce1a38)" style="fill: none; stroke: #b0b0b0; stroke-width: 0.8; stroke-linecap: square"/>
     </g>
     <g id="line2d_2">
      <defs>
       <path id="me5091dd3e5" d="M 0 0 
L 0 3.5 
" style="stroke: #000000; stroke-width: 0.8"/>
      </defs>
      <g>
       <use xlink:href="#me5091dd3e5" x="108" y="256.32" style="stroke: #000000; stroke-width: 0.8"/>
      </g>
     </g>
     <g id="text_1">
      <!-- 100 -->
      <g transform="translate(94.63875 273.957812) scale(0.14 -0.14)">
       <defs>
        <path id="DejaVuSans-31" d="M 794 531 
L 1825 531 
L 1825 4091 
L 703 3866 
L 703 4441 
L 1819 4666 
L 2450 4666 
L 2450 531 
L 3481 531 
L 3481 0 
L 794 0 
L 794 531 
z
" transform="scale(0.015625)"/>
        <path id="DejaVuSans-30" d="M 2034 4250 
Q 1547 4250 1301 3770 
Q 1056 3291 1056 2328 
Q 1056 1369 1301 889 
Q 1547 409 2034 409 
Q 2525 409 2770 889 
Q 3016 1369 3016 2328 
Q 3016 3291 2770 3770 
Q 2525 4250 2034 4250 
z
M 2034 4750 
Q 2819 4750 3233 4129 
Q 3647 3509 3647 2328 
Q 3647 1150 3233 529 
Q 2819 -91 2034 -91 
Q 1250 -91 836 529 
Q 422 1150 422 2328 
Q 422 3509 836 4129 
Q 1250 4750 2034 4750 
z
" transform="scale(0.015625)"/>
       </defs>
       <use xlink:href="#DejaVuSans-31"/>
       <use xlink:href="#DejaVuSans-30" x="63.623047"/>
       <use xlink:href="#DejaVuSans-30" x="127.246094"/>
      </g>
     </g>
    </g>
    <g id="xtick_2">
     <g id="line2d_3">
      <path d="M 241.92 256.32 
L 241.92 34.56 
" clip-path="url(#p0eb6ce1a38)" style="fill: none; stroke: #b0b0b0; stroke-width: 0.8; stroke-linecap: square"/>
     </g>
     <g id="line2d_4">
      <g>
       <use xlink:href="#me5091dd3e5" x="241.92" y="256.32" style="stroke: #000000; stroke-width: 0.8"/>
      </g>
     </g>
     <g id="text_2">
      <!-- 120 -->
      <g transform="translate(228.55875 273.957812) scale(0.14 -0.14)">
       <defs>
        <path id="DejaVuSans-32" d="M 1228 531 
L 3431 531 
L 3431 0 
L 469 0 
L 469 531 
Q 828 903 1448 1529 
Q 2069 2156 2228 2338 
Q 2531 2678 2651 2914 
Q 2772 3150 2772 3378 
Q 2772 3750 2511 3984 
Q 2250 4219 1831 4219 
Q 1534 4219 1204 4116 
Q 875 4013 500 3803 
L 500 4441 
Q 881 4594 1212 4672 
Q 1544 4750 1819 4750 
Q 2544 4750 2975 4387 
Q 3406 4025 3406 3419 
Q 3406 3131 3298 2873 
Q 3191 2616 2906 2266 
Q 2828 2175 2409 1742 
Q 1991 1309 1228 531 
z
" transform="scale(0.015625)"/>
       </defs>
       <use xlink:href="#DejaVuSans-31"/>
       <use xlink:href="#DejaVuSans-32" x="63.623047"/>
       <use xlink:href="#DejaVuSans-30" x="127.246094"/>
      </g>
     </g>
    </g>
    <g id="xtick_3">
     <g id="line2d_5">
      <path d="M 375.84 256.32 
L 375.84 34.56 
" clip-path="url(#p0eb6ce1a38)" style="fill: none; stroke: #b0b0b0; stroke-width: 0.8; stroke-linecap: square"/>
     </g>
     <g id="line2d_6">
      <g>
       <use xlink:href="#me5091dd3e5" x="375.84" y="256.32" style="stroke: #000000; stroke-width: 0.8"/>
      </g>
     </g>
     <g id="text_3">
      <!-- 140 -->
      <g transform="translate(362.47875 273.957812) scale(0.14 -0.14)">
       <defs>
        <path id="DejaVuSans-34" d="M 2419 4116 
L 825 1625 
L 2419 1625 
L 2419 4116 
z
M 2253 4666 
L 3047 4666 
L 3047 1625 
L 3713 1625 
L 3713 1100 
L 3047 1100 
L 3047 0 
L 2419 0 
L 2419 1100 
L 313 1100 
L 313 1709 
L 2253 4666 
z
" transform="scale(0.015625)"/>
       </defs>
       <use xlink:href="#DejaVuSans-31"/>
       <use xlink:href="#DejaVuSans-34" x="63.623047"/>
       <use xlink:href="#DejaVuSans-30" x="127.246094"/>
      </g>
     </g>
    </g>
    <g id="xtick_4">
     <g id="line2d_7">
      <path d="M 509.76 256.32 
L 509.76 34.56 
" clip-path="url(#p0eb6ce1a38)" style="fill: none; stroke: #b0b0b0; stroke-width: 0.8; stroke-linecap: square"/>
     </g>
     <g id="line2d_8">
      <g>
       <use xlink:href="#me5091dd3e5" x="509.76" y="256.32" style="stroke: #000000; stroke-width: 0.8"/>
      </g>
     </g>
     <g id="text_4">
      <!-- 160 -->
      <g transform="translate(496.39875 273.957812) scale(0.14 -0.14)">
       <defs>
        <path id="DejaVuSans-36" d="M 2113 2584 
Q 1688 2584 1439 2293 
Q 1191 2003 1191 1497 
Q 1191 994 1439 701 
Q 1688 409 2113 409 
Q 2538 409 2786 701 
Q 3034 994 3034 1497 
Q 3034 2003 2786 2293 
Q 2538 2584 2113 2584 
z
M 3366 4563 
L 3366 3988 
Q 3128 4100 2886 4159 
Q 2644 4219 2406 4219 
Q 1781 4219 1451 3797 
Q 1122 3375 1075 2522 
Q 1259 2794 1537 2939 
Q 1816 3084 2150 3084 
Q 2853 3084 3261 2657 
Q 3669 2231 3669 1497 
Q 3669 778 3244 343 
Q 2819 -91 2113 -91 
Q 1303 -91 875 529 
Q 447 1150 447 2328 
Q 447 3434 972 4092 
Q 1497 4750 2381 4750 
Q 2619 4750 2861 4703 
Q 3103 4656 3366 4563 
z
" transform="scale(0.015625)"/>
       </defs>
       <use xlink:href="#DejaVuSans-31"/>
       <use xlink:href="#DejaVuSans-36" x="63.623047"/>
       <use xlink:href="#DejaVuSans-30" x="127.246094"/>
      </g>
     </g>
    </g>
    <g id="xtick_5">
     <g id="line2d_9">
      <path d="M 643.68 256.32 
L 643.68 34.56 
" clip-path="url(#p0eb6ce1a38)" style="fill: none; stroke: #b0b0b0; stroke-width: 0.8; stroke-linecap: square"/>
     </g>
     <g id="line2d_10">
      <g>
       <use xlink:href="#me5091dd3e5" x="643.68" y="256.32" style="stroke: #000000; stroke-width: 0.8"/>
      </g>
     </g>
     <g id="text_5">
      <!-- 180 -->
      <g transform="translate(630.31875 273.957812) scale(0.14 -0.14)">
       <defs>
        <path id="DejaVuSans-38" d="M 2034 2216 
Q 1584 2216 1326 1975 
Q 1069 1734 1069 1313 
Q 1069 891 1326 650 
Q 1584 409 2034 409 
Q 2484 409 2743 651 
Q 3003 894 3003 1313 
Q 3003 1734 2745 1975 
Q 2488 2216 2034 2216 
z
M 1403 2484 
Q 997 2584 770 2862 
Q 544 3141 544 3541 
Q 544 4100 942 4425 
Q 1341 4750 2034 4750 
Q 2731 4750 3128 4425 
Q 3525 4100 3525 3541 
Q 3525 3141 3298 2862 
Q 3072 2584 2669 2484 
Q 3125 2378 3379 2068 
Q 3634 1759 3634 1313 
Q 3634 634 3220 271 
Q 2806 -91 2034 -91 
Q 1263 -91 848 271 
Q 434 634 434 1313 
Q 434 1759 690 2068 
Q 947 2378 1403 2484 
z
M 1172 3481 
Q 1172 3119 1398 2916 
Q 1625 2713 2034 2713 
Q 2441 2713 2670 2916 
Q 2900 3119 2900 3481 
Q 2900 3844 2670 4047 
Q 2441 4250 2034 4250 
Q 1625 4250 1398 4047 
Q 1172 3844 1172 3481 
z
" transform="scale(0.015625)"/>
       </defs>
       <use xlink:href="#DejaVuSans-31"/>
       <use xlink:href="#DejaVuSans-38" x="63.623047"/>
       <use xlink:href="#DejaVuSans-30" x="127.246094"/>
      </g>
     </g>
    </g>
    <g id="xtick_6">
     <g id="line2d_11">
      <path d="M 777.6 256.32 
L 777.6 34.56 
" clip-path="url(#p0eb6ce1a38)" style="fill: none; stroke: #b0b0b0; stroke-width: 0.8; stroke-linecap: square"/>
     </g>
     <g id="line2d_12">
      <g>
       <use xlink:href="#me5091dd3e5" x="777.6" y="256.32" style="stroke: #000000; stroke-width: 0.8"/>
      </g>
     </g>
     <g id="text_6">
      <!-- 200 -->
      <g transform="translate(764.23875 273.957812) scale(0.14 -0.14)">
       <use xlink:href="#DejaVuSans-32"/>
       <use xlink:href="#DejaVuSans-30" x="63.623047"/>
       <use xlink:href="#DejaVuSans-30" x="127.246094"/>
      </g>
     </g>
    </g>
    <g id="text_7">
     <!-- Time (ms) -->
     <g transform="translate(407.521094 291.507187) scale(0.14 -0.14)">
      <defs>
       <path id="DejaVuSans-54" d="M -19 4666 
L 3928 4666 
L 3928 4134 
L 2272 4134 
L 2272 0 
L 1638 0 
L 1638 4134 
L -19 4134 
L -19 4666 
z
" transform="scale(0.015625)"/>
       <path id="DejaVuSans-69" d="M 603 3500 
L 1178 3500 
L 1178 0 
L 603 0 
L 603 3500 
z
M 603 4863 
L 1178 4863 
L 1178 4134 
L 603 4134 
L 603 4863 
z
" transform="scale(0.015625)"/>
       <path id="DejaVuSans-6d" d="M 3328 2828 
Q 3544 3216 3844 3400 
Q 4144 3584 4550 3584 
Q 5097 3584 5394 3201 
Q 5691 2819 5691 2113 
L 5691 0 
L 5113 0 
L 5113 2094 
Q 5113 2597 4934 2840 
Q 4756 3084 4391 3084 
Q 3944 3084 3684 2787 
Q 3425 2491 3425 1978 
L 3425 0 
L 2847 0 
L 2847 2094 
Q 2847 2600 2669 2842 
Q 2491 3084 2119 3084 
Q 1678 3084 1418 2786 
Q 1159 2488 1159 1978 
L 1159 0 
L 581 0 
L 581 3500 
L 1159 3500 
L 1159 2956 
Q 1356 3278 1631 3431 
Q 1906 3584 2284 3584 
Q 2666 3584 2933 3390 
Q 3200 3197 3328 2828 
z
" transform="scale(0.015625)"/>
       <path id="DejaVuSans-65" d="M 3597 1894 
L 3597 1613 
L 953 1613 
Q 991 1019 1311 708 
Q 1631 397 2203 397 
Q 2534 397 2845 478 
Q 3156 559 3463 722 
L 3463 178 
Q 3153 47 2828 -22 
Q 2503 -91 2169 -91 
Q 1331 -91 842 396 
Q 353 884 353 1716 
Q 353 2575 817 3079 
Q 1281 3584 2069 3584 
Q 2775 3584 3186 3129 
Q 3597 2675 3597 1894 
z
M 3022 2063 
Q 3016 2534 2758 2815 
Q 2500 3097 2075 3097 
Q 1594 3097 1305 2825 
Q 1016 2553 972 2059 
L 3022 2063 
z
" transform="scale(0.015625)"/>
       <path id="DejaVuSans-20" transform="scale(0.015625)"/>
       <path id="DejaVuSans-28" d="M 1984 4856 
Q 1566 4138 1362 3434 
Q 1159 2731 1159 2009 
Q 1159 1288 1364 580 
Q 1569 -128 1984 -844 
L 1484 -844 
Q 1016 -109 783 600 
Q 550 1309 550 2009 
Q 550 2706 781 3412 
Q 1013 4119 1484 4856 
L 1984 4856 
z
" transform="scale(0.015625)"/>
       <path id="DejaVuSans-73" d="M 2834 3397 
L 2834 2853 
Q 2591 2978 2328 3040 
Q 2066 3103 1784 3103 
Q 1356 3103 1142 2972 
Q 928 2841 928 2578 
Q 928 2378 1081 2264 
Q 1234 2150 1697 2047 
L 1894 2003 
Q 2506 1872 2764 1633 
Q 3022 1394 3022 966 
Q 3022 478 2636 193 
Q 2250 -91 1575 -91 
Q 1294 -91 989 -36 
Q 684 19 347 128 
L 347 722 
Q 666 556 975 473 
Q 1284 391 1588 391 
Q 1994 391 2212 530 
Q 2431 669 2431 922 
Q 2431 1156 2273 1281 
Q 2116 1406 1581 1522 
L 1381 1569 
Q 847 1681 609 1914 
Q 372 2147 372 2553 
Q 372 3047 722 3315 
Q 1072 3584 1716 3584 
Q 2034 3584 2315 3537 
Q 2597 3491 2834 3397 
z
" transform="scale(0.015625)"/>
       <path id="DejaVuSans-29" d="M 513 4856 
L 1013 4856 
Q 1481 4119 1714 3412 
Q 1947 2706 1947 2009 
Q 1947 1309 1714 600 
Q 1481 -109 1013 -844 
L 513 -844 
Q 928 -128 1133 580 
Q 1338 1288 1338 2009 
Q 1338 2731 1133 3434 
Q 928 4138 513 4856 
z
" transform="scale(0.015625)"/>
      </defs>
      <use xlink:href="#DejaVuSans-54"/>
      <use xlink:href="#DejaVuSans-69" x="57.958984"/>
      <use xlink:href="#DejaVuSans-6d" x="85.742188"/>
      <use xlink:href="#DejaVuSans-65" x="183.154297"/>
      <use xlink:href="#DejaVuSans-20" x="244.677734"/>
      <use xlink:href="#DejaVuSans-28" x="276.464844"/>
      <use xlink:href="#DejaVuSans-6d" x="315.478516"/>
      <use xlink:href="#DejaVuSans-73" x="412.890625"/>
      <use xlink:href="#DejaVuSans-29" x="464.990234"/>
     </g>
    </g>
   </g>
   <g id="matplotlib.axis_2">
    <g id="ytick_1">
     <g id="line2d_13">
      <path d="M 108 225.143402 
L 777.6 225.143402 
" clip-path="url(#p0eb6ce1a38)" style="fill: none; stroke: #b0b0b0; stroke-width: 0.8; stroke-linecap: square"/>
     </g>
     <g id="line2d_14">
      <defs>
       <path id="m2d66d87436" d="M 0 0 
L -3.5 0 
" style="stroke: #000000; stroke-width: 0.8"/>
      </defs>
      <g>
       <use xlink:href="#m2d66d87436" x="108" y="225.143402" style="stroke: #000000; stroke-width: 0.8"/>
      </g>
     </g>
     <g id="text_8">
      <!-- −60 -->
      <g transform="translate(71.453437 230.462308) scale(0.14 -0.14)">
       <defs>
        <path id="DejaVuSans-2212" d="M 678 2272 
L 4684 2272 
L 4684 1741 
L 678 1741 
L 678 2272 
z
" transform="scale(0.015625)"/>
       </defs>
       <use xlink:href="#DejaVuSans-2212"/>
       <use xlink:href="#DejaVuSans-36" x="83.789062"/>
       <use xlink:href="#DejaVuSans-30" x="147.412109"/>
      </g>
     </g>
    </g>
    <g id="ytick_2">
     <g id="line2d_15">
      <path d="M 108 183.017436 
L 777.6 183.017436 
" clip-path="url(#p0eb6ce1a38)" style="fill: none; stroke: #b0b0b0; stroke-width: 0.8; stroke-linecap: square"/>
     </g>
     <g id="line2d_16">
      <g>
       <use xlink:href="#m2d66d87436" x="108" y="183.017436" style="stroke: #000000; stroke-width: 0.8"/>
      </g>
     </g>
     <g id="text_9">
      <!-- −40 -->
      <g transform="translate(71.453437 188.336343) scale(0.14 -0.14)">
       <use xlink:href="#DejaVuSans-2212"/>
       <use xlink:href="#DejaVuSans-34" x="83.789062"/>
       <use xlink:href="#DejaVuSans-30" x="147.412109"/>
      </g>
     </g>
    </g>
    <g id="ytick_3">
     <g id="line2d_17">
      <path d="M 108 140.891471 
L 777.6 140.891471 
" clip-path="url(#p0eb6ce1a38)" style="fill: none; stroke: #b0b0b0; stroke-width: 0.8; stroke-linecap: square"/>
     </g>
     <g id="line2d_18">
      <g>
       <use xlink:href="#m2d66d87436" x="108" y="140.891471" style="stroke: #000000; stroke-width: 0.8"/>
      </g>
     </g>
     <g id="text_10">
      <!-- −20 -->
      <g transform="translate(71.453437 146.210377) scale(0.14 -0.14)">
       <use xlink:href="#DejaVuSans-2212"/>
       <use xlink:href="#DejaVuSans-32" x="83.789062"/>
       <use xlink:href="#DejaVuSans-30" x="147.412109"/>
      </g>
     </g>
    </g>
    <g id="ytick_4">
     <g id="line2d_19">
      <path d="M 108 98.765506 
L 777.6 98.765506 
" clip-path="url(#p0eb6ce1a38)" style="fill: none; stroke: #b0b0b0; stroke-width: 0.8; stroke-linecap: square"/>
     </g>
     <g id="line2d_20">
      <g>
       <use xlink:href="#m2d66d87436" x="108" y="98.765506" style="stroke: #000000; stroke-width: 0.8"/>
      </g>
     </g>
     <g id="text_11">
      <!-- 0 -->
      <g transform="translate(92.0925 104.084412) scale(0.14 -0.14)">
       <use xlink:href="#DejaVuSans-30"/>
      </g>
     </g>
    </g>
    <g id="ytick_5">
     <g id="line2d_21">
      <path d="M 108 56.63954 
L 777.6 56.63954 
" clip-path="url(#p0eb6ce1a38)" style="fill: none; stroke: #b0b0b0; stroke-width: 0.8; stroke-linecap: square"/>
     </g>
     <g id="line2d_22">
      <g>
       <use xlink:href="#m2d66d87436" x="108" y="56.63954" style="stroke: #000000; stroke-width: 0.8"/>
      </g>
     </g>
     <g id="text_12">
      <!-- 20 -->
      <g transform="translate(83.185 61.958446) scale(0.14 -0.14)">
       <use xlink:href="#DejaVuSans-32"/>
       <use xlink:href="#DejaVuSans-30" x="63.623047"/>
      </g>
     </g>
    </g>
    <g id="text_13">
     <!-- $V_{m}$ (mV) -->
     <g transform="translate(64.541875 174.49) rotate(-90) scale(0.14 -0.14)">
      <defs>
       <path id="DejaVuSans-Oblique-56" d="M 1319 0 
L 500 4666 
L 1119 4666 
L 1797 653 
L 4063 4666 
L 4750 4666 
L 2053 0 
L 1319 0 
z
" transform="scale(0.015625)"/>
       <path id="DejaVuSans-Oblique-6d" d="M 5747 2113 
L 5338 0 
L 4763 0 
L 5166 2094 
Q 5191 2228 5203 2325 
Q 5216 2422 5216 2491 
Q 5216 2772 5059 2928 
Q 4903 3084 4622 3084 
Q 4203 3084 3875 2770 
Q 3547 2456 3450 1953 
L 3066 0 
L 2491 0 
L 2900 2094 
Q 2925 2209 2937 2307 
Q 2950 2406 2950 2484 
Q 2950 2769 2794 2926 
Q 2638 3084 2363 3084 
Q 1938 3084 1609 2770 
Q 1281 2456 1184 1953 
L 800 0 
L 225 0 
L 909 3500 
L 1484 3500 
L 1375 2956 
Q 1609 3263 1923 3423 
Q 2238 3584 2597 3584 
Q 2978 3584 3223 3384 
Q 3469 3184 3519 2828 
Q 3781 3197 4126 3390 
Q 4472 3584 4856 3584 
Q 5306 3584 5551 3325 
Q 5797 3066 5797 2591 
Q 5797 2488 5784 2364 
Q 5772 2241 5747 2113 
z
" transform="scale(0.015625)"/>
       <path id="DejaVuSans-56" d="M 1831 0 
L 50 4666 
L 709 4666 
L 2188 738 
L 3669 4666 
L 4325 4666 
L 2547 0 
L 1831 0 
z
" transform="scale(0.015625)"/>
      </defs>
      <use xlink:href="#DejaVuSans-Oblique-56" transform="translate(0 0.125)"/>
      <use xlink:href="#DejaVuSans-Oblique-6d" transform="translate(68.408203 -16.28125) scale(0.7)"/>
      <use xlink:href="#DejaVuSans-20" transform="translate(139.331055 0.125)"/>
      <use xlink:href="#DejaVuSans-28" transform="translate(171.118164 0.125)"/>
      <use xlink:href="#DejaVuSans-6d" transform="translate(210.131836 0.125)"/>
      <use xlink:href="#DejaVuSans-56" transform="translate(307.543945 0.125)"/>
      <use xlink:href="#DejaVuSans-29" transform="translate(375.952148 0.125)"/>
     </g>
    </g>
   </g>
   <g id="line2d_23">
    <path d="M 108 221.138944 
L 109.3392 221.800277 
L 110.6784 222.233733 
L 111.348 222.394935 
L 112.6872 223.319874 
L 114.0264 223.769289 
L 116.0352 225.294586 
L 118.044 227.68116 
L 118.7136 228.755721 
L 119.3832 229.588071 
L 120.0528 230.119321 
L 120.7224 231.119622 
L 122.7312 233.332462 
L 124.0704 234.093251 
L 125.4096 234.586623 
L 127.4184 235.061475 
L 129.4272 235.321059 
L 132.1056 235.422162 
L 134.1144 235.35115 
L 136.1232 236.102322 
L 136.7928 236.883506 
L 137.4624 237.430384 
L 140.1408 238.549546 
L 141.48 238.800096 
L 144.1584 239.126883 
L 145.4976 239.375397 
L 147.5064 239.352929 
L 148.176 239.303126 
L 149.5152 239.623601 
L 150.8544 239.63233 
L 153.5328 239.334159 
L 156.8808 238.687368 
L 160.8984 237.640726 
L 164.916 236.363569 
L 168.9336 234.896121 
L 170.2728 234.23432 
L 176.9688 230.463242 
L 193.0392 222.005785 
L 198.396 218.987222 
L 199.7352 219.016227 
L 201.0744 218.637753 
L 203.7528 217.5264 
L 205.7616 216.593114 
L 207.1008 216.772748 
L 208.44 216.519008 
L 209.7792 216.920307 
L 211.1184 216.834439 
L 213.1272 216.385896 
L 216.4752 215.338824 
L 220.4928 213.839 
L 225.8496 211.590612 
L 227.1888 211.897795 
L 227.8584 212.801534 
L 228.528 213.504531 
L 229.1976 213.853012 
L 230.5368 214.124218 
L 231.876 214.149414 
L 232.5456 214.111323 
L 234.5544 215.38333 
L 235.8936 217.256094 
L 236.5632 218.361105 
L 239.2416 221.501134 
L 239.9112 222.51527 
L 240.5808 223.973697 
L 241.2504 225.046142 
L 241.92 225.736324 
L 243.2592 226.642639 
L 244.5984 227.245534 
L 245.9376 228.27929 
L 246.6072 228.597518 
L 247.2768 229.162969 
L 247.9464 229.936581 
L 249.9552 231.697691 
L 251.2944 232.856777 
L 252.6336 233.462296 
L 253.9728 233.838771 
L 255.312 235.115294 
L 255.9816 235.730785 
L 256.6512 236.186622 
L 257.9904 236.702856 
L 259.9992 237.104683 
L 260.6688 237.182955 
L 262.008 237.757278 
L 263.3472 237.984228 
L 264.6864 238.065241 
L 267.3648 239.138478 
L 268.704 239.333663 
L 270.7128 239.355817 
L 272.052 239.735297 
L 273.3912 239.79714 
L 276.0696 239.593701 
L 279.4176 239.048695 
L 282.096 238.450338 
L 283.4352 238.593063 
L 284.7744 238.439364 
L 287.4528 237.851224 
L 290.8008 236.894784 
L 291.4704 236.68242 
L 292.8096 236.75863 
L 294.1488 236.530637 
L 296.8272 235.793068 
L 300.8448 234.418639 
L 303.5232 233.343368 
L 306.2016 231.77638 
L 310.2192 229.503421 
L 330.3072 218.65706 
L 341.0208 212.409098 
L 345.0384 209.99125 
L 346.3776 210.11815 
L 347.7168 209.807692 
L 349.7256 209.031295 
L 353.0736 207.457187 
L 354.4128 206.74844 
L 355.752 208.006019 
L 356.4216 208.303977 
L 358.4304 210.16784 
L 359.1 211.214314 
L 359.7696 211.957841 
L 360.4392 212.414585 
L 361.7784 212.932551 
L 363.1176 214.839259 
L 363.7872 215.783519 
L 364.4568 216.487931 
L 366.4656 217.949197 
L 367.1352 218.491939 
L 367.8048 218.848174 
L 369.144 220.040685 
L 370.4832 220.644127 
L 372.492 221.119728 
L 373.8312 222.690722 
L 374.5008 224.198476 
L 375.1704 225.359316 
L 375.84 226.061479 
L 377.1792 226.93235 
L 378.5184 227.488351 
L 379.188 227.697428 
L 379.8576 228.20465 
L 381.8664 230.405137 
L 382.536 230.802101 
L 383.8752 231.880092 
L 384.5448 232.204324 
L 386.5536 233.755319 
L 387.2232 234.202504 
L 388.5624 234.719297 
L 391.2408 235.497837 
L 391.9104 236.060594 
L 392.58 236.451633 
L 393.9192 236.84402 
L 395.928 237.092362 
L 399.276 237.362533 
L 402.624 238.186528 
L 403.2936 238.219728 
L 405.972 239.235045 
L 407.3112 239.390763 
L 407.9808 239.40181 
L 409.32 239.809828 
L 410.6592 239.885918 
L 412.668 239.766783 
L 415.3464 239.396745 
L 418.6944 238.706928 
L 422.712 237.626165 
L 426.7296 236.322956 
L 428.0688 236.371998 
L 429.408 236.11754 
L 432.0864 235.331212 
L 436.104 233.894295 
L 437.4432 233.326509 
L 440.1216 231.761208 
L 444.1392 229.489973 
L 464.2272 218.644951 
L 472.932 213.586935 
L 474.2712 213.677178 
L 475.6104 213.333663 
L 476.9496 212.825839 
L 478.2888 213.138833 
L 479.628 212.979237 
L 481.6368 212.425821 
L 483.6456 211.727503 
L 484.9848 212.114309 
L 485.6544 212.583236 
L 486.324 212.914727 
L 487.6632 213.079935 
L 489.0024 212.996911 
L 490.3416 214.500316 
L 491.0112 214.849918 
L 491.6808 215.48515 
L 492.3504 216.398057 
L 493.02 217.037334 
L 493.6896 217.423791 
L 494.3592 218.09722 
L 495.0288 219.031275 
L 495.6984 219.699105 
L 497.7072 221.042291 
L 498.3768 221.541004 
L 499.716 222.095627 
L 501.0552 222.408072 
L 502.3944 223.281481 
L 503.7336 223.678288 
L 504.4032 223.792548 
L 505.7424 224.602706 
L 507.0816 224.949869 
L 507.7512 225.042631 
L 508.4208 225.46325 
L 510.4296 228.629627 
L 511.0992 229.339522 
L 512.4384 230.141169 
L 513.7776 230.613357 
L 515.1168 231.483039 
L 515.7864 232.336931 
L 516.456 233.001692 
L 517.1256 233.407466 
L 519.804 236.74066 
L 521.1432 237.476835 
L 522.4824 237.928703 
L 523.152 238.094249 
L 523.8216 238.483728 
L 524.4912 239.045948 
L 526.5 240.300881 
L 527.8392 241.126667 
L 529.1784 241.512438 
L 529.848 241.63062 
L 531.1872 242.194414 
L 532.5264 242.426461 
L 534.5352 242.529664 
L 537.2136 242.427066 
L 540.5616 242.031018 
L 543.9096 241.404673 
L 547.9272 240.407078 
L 551.9448 239.185586 
L 556.632 237.522501 
L 561.9888 235.356706 
L 567.3456 232.952358 
L 571.3632 230.971844 
L 574.0416 229.156673 
L 578.0592 226.543468 
L 584.7552 222.559407 
L 598.1472 214.58369 
L 602.1648 212.128527 
L 603.504 212.209337 
L 604.8432 211.852328 
L 607.5216 210.725887 
L 611.5392 208.724149 
L 613.548 207.633103 
L 614.8872 207.863989 
L 616.2264 207.672329 
L 618.2352 207.029155 
L 620.9136 205.886479 
L 622.9224 204.873274 
L 624.2616 205.159124 
L 624.9312 205.172224 
L 625.6008 205.625557 
L 626.2704 206.543838 
L 626.94 207.255639 
L 627.6096 207.708246 
L 628.9488 208.204336 
L 629.6184 208.327052 
L 630.288 208.886885 
L 630.9576 210.30956 
L 631.6272 211.420714 
L 632.2968 212.096824 
L 634.3056 213.587356 
L 634.9752 214.157144 
L 635.6448 214.527278 
L 636.984 215.790915 
L 637.6536 216.157163 
L 638.9928 219.284275 
L 639.6624 220.342348 
L 640.332 221.037736 
L 641.6712 222.643664 
L 642.3408 223.151594 
L 643.0104 223.909122 
L 643.68 224.879924 
L 644.3496 225.601722 
L 645.0192 226.101962 
L 646.3584 227.41686 
L 648.3672 228.758089 
L 649.0368 229.566522 
L 649.7064 230.161803 
L 653.0544 232.187056 
L 653.724 232.71835 
L 654.3936 233.435565 
L 658.4112 236.571172 
L 659.7504 238.094986 
L 660.42 238.641149 
L 661.7592 239.276794 
L 663.768 239.804497 
L 665.7768 240.076124 
L 667.7856 240.176057 
L 669.1248 240.607947 
L 670.464 240.730865 
L 673.1424 240.654063 
L 675.8208 240.358103 
L 679.1688 239.768247 
L 683.1864 238.802449 
L 687.204 237.604327 
L 691.8912 235.960966 
L 693.9 235.185985 
L 695.2392 235.194325 
L 696.5784 234.894651 
L 699.2568 234.018208 
L 703.2744 232.458661 
L 705.2832 231.566104 
L 707.9616 229.913611 
L 711.9792 227.518275 
L 722.0232 221.984665 
L 731.3976 216.650078 
L 741.4416 210.688068 
L 742.7808 209.869728 
L 744.12 209.989059 
L 745.4592 209.671982 
L 747.468 208.884279 
L 748.8072 209.235305 
L 750.1464 209.125384 
L 752.1552 208.609086 
L 753.4944 209.118806 
L 754.8336 209.153666 
L 756.1728 208.969712 
L 757.512 209.622793 
L 758.8512 209.778888 
L 760.1904 209.705111 
L 761.5296 210.440653 
L 762.1992 210.596112 
L 763.5384 211.563971 
L 764.8776 211.933184 
L 765.5472 212.008477 
L 766.8864 212.909864 
L 768.2256 213.261267 
L 768.8952 213.337099 
L 770.2344 215.043824 
L 770.904 215.483887 
L 771.5736 215.767191 
L 774.252 218.185183 
L 775.5912 218.797523 
L 776.9304 219.134337 
L 777.6 219.648553 
L 777.6 219.648553 
" clip-path="url(#p0eb6ce1a38)" style="fill: none; stroke: #000000; stroke-width: 1.5; stroke-linecap: square"/>
   </g>
   <g id="line2d_24">
    <path d="M 108 201.687261 
L 110.0088 204.374384 
L 112.0176 206.725401 
L 114.696 209.563186 
L 118.044 213.077591 
L 120.7224 216.303868 
L 124.74 221.262637 
L 126.7488 223.341454 
L 128.7576 225.08093 
L 130.7664 226.522379 
L 132.7752 227.703742 
L 135.4536 228.96774 
L 137.4624 229.970087 
L 142.1496 232.552725 
L 144.828 233.695368 
L 147.5064 234.65342 
L 151.524 235.737055 
L 154.2024 236.22069 
L 156.8808 236.463202 
L 159.5592 236.496282 
L 162.9072 236.285857 
L 166.2552 235.835914 
L 168.9336 235.327115 
L 169.6032 204.093687 
L 170.2728 191.432708 
L 170.9424 185.637739 
L 171.612 182.641604 
L 172.2816 181.092166 
L 172.9512 180.450972 
L 173.6208 180.441814 
L 174.2904 180.890174 
L 174.96 181.671337 
L 176.2992 183.859439 
L 180.9864 192.594341 
L 182.3256 194.610992 
L 183.6648 196.319807 
L 185.004 197.728507 
L 186.3432 198.856613 
L 187.6824 199.729773 
L 189.0216 200.374135 
L 190.3608 200.815784 
L 191.7 201.078398 
L 193.7088 201.182591 
L 195.7176 200.994845 
L 197.7264 200.567625 
L 201.744 199.540554 
L 205.092 198.644133 
L 207.7704 197.929506 
L 209.7792 197.638251 
L 212.4576 197.598087 
L 217.8144 197.538424 
L 221.832 197.289592 
L 227.8584 196.755315 
L 229.1976 197.057736 
L 231.876 198.094224 
L 234.5544 199.263884 
L 235.8936 200.118076 
L 237.2328 201.284676 
L 239.2416 203.423187 
L 240.5808 205.058853 
L 245.9376 212.138764 
L 252.6336 219.899638 
L 255.312 222.602099 
L 258.66 225.839863 
L 260.6688 227.468658 
L 263.3472 229.333803 
L 266.0256 230.886963 
L 270.0432 232.966684 
L 273.3912 234.297563 
L 276.0696 235.110445 
L 278.748 235.636209 
L 281.4264 235.910931 
L 287.4528 236.131306 
L 290.8008 235.939412 
L 299.5056 234.96641 
L 302.8536 234.280447 
L 303.5232 203.26135 
L 304.1928 190.667881 
L 304.8624 184.872776 
L 305.532 181.821128 
L 306.2016 180.183831 
L 306.8712 179.436248 
L 307.5408 179.313671 
L 308.2104 179.64934 
L 308.88 180.321674 
L 310.2192 182.316632 
L 315.576 191.615343 
L 316.9152 193.398778 
L 318.2544 194.88317 
L 319.5936 196.080694 
L 320.9328 197.013538 
L 322.272 197.705315 
L 323.6112 198.181887 
L 324.9504 198.467534 
L 326.2896 198.584187 
L 328.2984 198.485391 
L 330.3072 198.110061 
L 332.316 197.506402 
L 334.9944 196.41541 
L 337.6728 195.066012 
L 341.0208 193.097512 
L 344.3688 190.881666 
L 346.3776 189.536209 
L 348.3864 188.451828 
L 352.404 186.585619 
L 355.0824 185.455337 
L 356.4216 185.229898 
L 357.7608 185.401491 
L 358.4304 185.643892 
L 359.7696 186.493096 
L 361.1088 187.704 
L 362.448 189.09136 
L 363.7872 190.739775 
L 367.1352 195.4881 
L 371.1528 201.086094 
L 375.84 207.066038 
L 378.5184 210.752775 
L 383.2056 216.388356 
L 386.5536 220.172554 
L 389.232 222.927595 
L 391.2408 224.678134 
L 394.5888 227.361621 
L 396.5976 228.706518 
L 398.6064 229.802046 
L 403.2936 231.957828 
L 409.32 234.402802 
L 411.9984 235.275547 
L 414.6768 235.87591 
L 417.3552 236.215835 
L 420.0336 236.333167 
L 422.712 236.258432 
L 426.06 235.931692 
L 436.104 234.425484 
L 436.7736 234.273557 
L 437.4432 203.255744 
L 438.1128 190.66263 
L 438.7824 184.869412 
L 439.452 181.824194 
L 440.1216 180.196892 
L 440.7912 179.460858 
L 441.4608 179.349666 
L 442.1304 179.695506 
L 442.8 180.376149 
L 444.1392 182.381389 
L 449.496 191.670685 
L 450.8352 193.44822 
L 452.1744 194.926741 
L 453.5136 196.118656 
L 454.8528 197.046228 
L 456.192 197.73314 
L 457.5312 198.205283 
L 458.8704 198.486902 
L 460.2096 198.599894 
L 462.2184 198.496316 
L 464.2272 198.116988 
L 466.236 197.510066 
L 468.9144 196.415805 
L 471.5928 195.064397 
L 474.9408 193.272403 
L 477.6192 192.138978 
L 479.628 191.573861 
L 482.976 190.960048 
L 484.9848 190.715613 
L 486.324 190.803373 
L 488.3328 191.2994 
L 489.672 191.76458 
L 491.0112 192.484369 
L 492.3504 193.467575 
L 494.3592 195.400886 
L 496.368 197.737634 
L 501.7248 204.107038 
L 504.4032 206.926975 
L 507.7512 210.110776 
L 509.76 211.97618 
L 512.4384 215.007139 
L 515.1168 217.827265 
L 518.4648 221.344483 
L 522.4824 225.814777 
L 525.8304 228.893672 
L 529.1784 231.765036 
L 531.8568 233.708189 
L 533.8656 234.943782 
L 535.8744 235.947656 
L 537.8832 236.737526 
L 539.892 237.338937 
L 542.5704 237.885424 
L 545.2488 238.178817 
L 547.9272 238.254035 
L 551.2752 238.085027 
L 554.6232 237.666914 
L 557.9712 237.037548 
L 561.9888 236.046347 
L 566.0064 234.83758 
L 570.6936 233.197124 
L 571.3632 202.337533 
L 572.0328 189.756926 
L 572.7024 183.905627 
L 573.372 180.740307 
L 574.0416 178.950137 
L 574.7112 178.02647 
L 575.3808 177.709811 
L 576.0504 177.838332 
L 576.72 178.297576 
L 577.3896 178.996908 
L 578.7288 180.832054 
L 582.0768 185.89118 
L 583.416 187.608291 
L 584.7552 189.046011 
L 586.0944 190.196567 
L 587.4336 191.067826 
L 588.7728 191.679381 
L 590.112 192.051692 
L 591.4512 192.206174 
L 592.7904 192.164847 
L 594.1296 191.947413 
L 596.1384 191.328983 
L 598.1472 190.403978 
L 600.156 189.212167 
L 602.8344 187.284833 
L 605.5128 185.460971 
L 613.548 180.415555 
L 614.8872 179.741237 
L 616.2264 179.294953 
L 618.2352 178.94369 
L 620.9136 178.807175 
L 623.592 178.854632 
L 624.9312 179.059121 
L 626.2704 179.542935 
L 627.6096 180.457875 
L 629.6184 182.336788 
L 630.9576 183.801728 
L 632.2968 185.634725 
L 637.6536 193.833202 
L 639.6624 197.158726 
L 644.3496 205.290263 
L 647.028 209.534508 
L 649.7064 213.329525 
L 652.3848 216.80117 
L 656.4024 221.48299 
L 661.7592 227.350126 
L 663.768 229.272905 
L 665.7768 230.871278 
L 667.7856 232.180123 
L 670.464 233.658691 
L 672.4728 234.574968 
L 674.4816 235.293792 
L 677.16 235.974673 
L 679.8384 236.381461 
L 682.5168 236.553451 
L 685.1952 236.522669 
L 688.5432 236.239112 
L 691.8912 235.72271 
L 701.9352 233.714968 
L 704.6136 233.001118 
L 705.2832 202.228777 
L 705.9528 189.704572 
L 706.6224 183.90707 
L 707.292 180.812125 
L 707.9616 179.110521 
L 708.6312 178.287768 
L 709.3008 178.079086 
L 709.9704 178.317901 
L 710.64 178.885594 
L 711.9792 180.654509 
L 717.336 189.070007 
L 718.6752 190.658232 
L 720.0144 191.956719 
L 721.3536 192.976674 
L 722.6928 193.73676 
L 724.032 194.260753 
L 725.3712 194.570429 
L 726.7104 194.68905 
L 728.0496 194.637879 
L 730.0584 194.283891 
L 732.0672 193.646876 
L 734.076 192.772702 
L 736.7544 191.299447 
L 739.4328 189.537751 
L 742.7808 187.00405 
L 744.7896 185.539562 
L 747.468 183.95004 
L 748.8072 183.32639 
L 750.1464 182.915768 
L 752.1552 182.577826 
L 753.4944 182.555331 
L 754.8336 182.759405 
L 756.8424 183.345717 
L 758.1816 183.966962 
L 760.86 185.574514 
L 762.8688 187.095012 
L 765.5472 189.574558 
L 769.5648 193.571174 
L 772.2432 196.555659 
L 777.6 202.71317 
L 777.6 202.71317 
" clip-path="url(#p0eb6ce1a38)" style="fill: none; stroke: #4169e1; stroke-width: 1.5; stroke-linecap: square"/>
   </g>
   <g id="patch_3">
    <path d="M 108 256.32 
L 108 34.56 
" style="fill: none; stroke: #000000; stroke-width: 0.8; stroke-linejoin: miter; stroke-linecap: square"/>
   </g>
   <g id="patch_4">
    <path d="M 777.6 256.32 
L 777.6 34.56 
" style="fill: none; stroke: #000000; stroke-width: 0.8; stroke-linejoin: miter; stroke-linecap: square"/>
   </g>
   <g id="patch_5">
    <path d="M 108 256.32 
L 777.6 256.32 
" style="fill: none; stroke: #000000; stroke-width: 0.8; stroke-linejoin: miter; stroke-linecap: square"/>
   </g>
   <g id="patch_6">
    <path d="M 108 34.56 
L 777.6 34.56 
" style="fill: none; stroke: #000000; stroke-width: 0.8; stroke-linejoin: miter; stroke-linecap: square"/>
   </g>
   <g id="legend_1">
    <g id="patch_7">
     <path d="M 695.098438 71.91625 
L 770.6 71.91625 
Q 772.6 71.91625 772.6 69.91625 
L 772.6 41.56 
Q 772.6 39.56 770.6 39.56 
L 695.098438 39.56 
Q 693.098438 39.56 693.098438 41.56 
L 693.098438 69.91625 
Q 693.098438 71.91625 695.098438 71.91625 
z
" style="fill: #ffffff; opacity: 0.8; stroke: #cccccc; stroke-linejoin: miter"/>
    </g>
    <g id="line2d_25">
     <path d="M 697.098438 47.658437 
L 707.098438 47.658437 
L 717.098438 47.658437 
" style="fill: none; stroke: #000000; stroke-width: 1.5; stroke-linecap: square"/>
    </g>
    <g id="text_14">
     <!-- Soma -->
     <g transform="translate(725.098438 51.158437) scale(0.1 -0.1)">
      <defs>
       <path id="DejaVuSans-53" d="M 3425 4513 
L 3425 3897 
Q 3066 4069 2747 4153 
Q 2428 4238 2131 4238 
Q 1616 4238 1336 4038 
Q 1056 3838 1056 3469 
Q 1056 3159 1242 3001 
Q 1428 2844 1947 2747 
L 2328 2669 
Q 3034 2534 3370 2195 
Q 3706 1856 3706 1288 
Q 3706 609 3251 259 
Q 2797 -91 1919 -91 
Q 1588 -91 1214 -16 
Q 841 59 441 206 
L 441 856 
Q 825 641 1194 531 
Q 1563 422 1919 422 
Q 2459 422 2753 634 
Q 3047 847 3047 1241 
Q 3047 1584 2836 1778 
Q 2625 1972 2144 2069 
L 1759 2144 
Q 1053 2284 737 2584 
Q 422 2884 422 3419 
Q 422 4038 858 4394 
Q 1294 4750 2059 4750 
Q 2388 4750 2728 4690 
Q 3069 4631 3425 4513 
z
" transform="scale(0.015625)"/>
       <path id="DejaVuSans-6f" d="M 1959 3097 
Q 1497 3097 1228 2736 
Q 959 2375 959 1747 
Q 959 1119 1226 758 
Q 1494 397 1959 397 
Q 2419 397 2687 759 
Q 2956 1122 2956 1747 
Q 2956 2369 2687 2733 
Q 2419 3097 1959 3097 
z
M 1959 3584 
Q 2709 3584 3137 3096 
Q 3566 2609 3566 1747 
Q 3566 888 3137 398 
Q 2709 -91 1959 -91 
Q 1206 -91 779 398 
Q 353 888 353 1747 
Q 353 2609 779 3096 
Q 1206 3584 1959 3584 
z
" transform="scale(0.015625)"/>
       <path id="DejaVuSans-61" d="M 2194 1759 
Q 1497 1759 1228 1600 
Q 959 1441 959 1056 
Q 959 750 1161 570 
Q 1363 391 1709 391 
Q 2188 391 2477 730 
Q 2766 1069 2766 1631 
L 2766 1759 
L 2194 1759 
z
M 3341 1997 
L 3341 0 
L 2766 0 
L 2766 531 
Q 2569 213 2275 61 
Q 1981 -91 1556 -91 
Q 1019 -91 701 211 
Q 384 513 384 1019 
Q 384 1609 779 1909 
Q 1175 2209 1959 2209 
L 2766 2209 
L 2766 2266 
Q 2766 2663 2505 2880 
Q 2244 3097 1772 3097 
Q 1472 3097 1187 3025 
Q 903 2953 641 2809 
L 641 3341 
Q 956 3463 1253 3523 
Q 1550 3584 1831 3584 
Q 2591 3584 2966 3190 
Q 3341 2797 3341 1997 
z
" transform="scale(0.015625)"/>
      </defs>
      <use xlink:href="#DejaVuSans-53"/>
      <use xlink:href="#DejaVuSans-6f" x="63.476562"/>
      <use xlink:href="#DejaVuSans-6d" x="124.658203"/>
      <use xlink:href="#DejaVuSans-61" x="222.070312"/>
     </g>
    </g>
    <g id="line2d_26">
     <path d="M 697.098438 62.336562 
L 707.098438 62.336562 
L 717.098438 62.336562 
" style="fill: none; stroke: #4169e1; stroke-width: 1.5; stroke-linecap: square"/>
    </g>
    <g id="text_15">
     <!-- Dendrite -->
     <g transform="translate(725.098438 65.836562) scale(0.1 -0.1)">
      <defs>
       <path id="DejaVuSans-44" d="M 1259 4147 
L 1259 519 
L 2022 519 
Q 2988 519 3436 956 
Q 3884 1394 3884 2338 
Q 3884 3275 3436 3711 
Q 2988 4147 2022 4147 
L 1259 4147 
z
M 628 4666 
L 1925 4666 
Q 3281 4666 3915 4102 
Q 4550 3538 4550 2338 
Q 4550 1131 3912 565 
Q 3275 0 1925 0 
L 628 0 
L 628 4666 
z
" transform="scale(0.015625)"/>
       <path id="DejaVuSans-6e" d="M 3513 2113 
L 3513 0 
L 2938 0 
L 2938 2094 
Q 2938 2591 2744 2837 
Q 2550 3084 2163 3084 
Q 1697 3084 1428 2787 
Q 1159 2491 1159 1978 
L 1159 0 
L 581 0 
L 581 3500 
L 1159 3500 
L 1159 2956 
Q 1366 3272 1645 3428 
Q 1925 3584 2291 3584 
Q 2894 3584 3203 3211 
Q 3513 2838 3513 2113 
z
" transform="scale(0.015625)"/>
       <path id="DejaVuSans-64" d="M 2906 2969 
L 2906 4863 
L 3481 4863 
L 3481 0 
L 2906 0 
L 2906 525 
Q 2725 213 2448 61 
Q 2172 -91 1784 -91 
Q 1150 -91 751 415 
Q 353 922 353 1747 
Q 353 2572 751 3078 
Q 1150 3584 1784 3584 
Q 2172 3584 2448 3432 
Q 2725 3281 2906 2969 
z
M 947 1747 
Q 947 1113 1208 752 
Q 1469 391 1925 391 
Q 2381 391 2643 752 
Q 2906 1113 2906 1747 
Q 2906 2381 2643 2742 
Q 2381 3103 1925 3103 
Q 1469 3103 1208 2742 
Q 947 2381 947 1747 
z
" transform="scale(0.015625)"/>
       <path id="DejaVuSans-72" d="M 2631 2963 
Q 2534 3019 2420 3045 
Q 2306 3072 2169 3072 
Q 1681 3072 1420 2755 
Q 1159 2438 1159 1844 
L 1159 0 
L 581 0 
L 581 3500 
L 1159 3500 
L 1159 2956 
Q 1341 3275 1631 3429 
Q 1922 3584 2338 3584 
Q 2397 3584 2469 3576 
Q 2541 3569 2628 3553 
L 2631 2963 
z
" transform="scale(0.015625)"/>
       <path id="DejaVuSans-74" d="M 1172 4494 
L 1172 3500 
L 2356 3500 
L 2356 3053 
L 1172 3053 
L 1172 1153 
Q 1172 725 1289 603 
Q 1406 481 1766 481 
L 2356 481 
L 2356 0 
L 1766 0 
Q 1100 0 847 248 
Q 594 497 594 1153 
L 594 3053 
L 172 3053 
L 172 3500 
L 594 3500 
L 594 4494 
L 1172 4494 
z
" transform="scale(0.015625)"/>
      </defs>
      <use xlink:href="#DejaVuSans-44"/>
      <use xlink:href="#DejaVuSans-65" x="77.001953"/>
      <use xlink:href="#DejaVuSans-6e" x="138.525391"/>
      <use xlink:href="#DejaVuSans-64" x="201.904297"/>
      <use xlink:href="#DejaVuSans-72" x="265.380859"/>
      <use xlink:href="#DejaVuSans-69" x="306.494141"/>
      <use xlink:href="#DejaVuSans-74" x="334.277344"/>
      <use xlink:href="#DejaVuSans-65" x="373.486328"/>
     </g>
    </g>
   </g>
  </g>
 </g>
 <defs>
  <clipPath id="p0eb6ce1a38">
   <rect x="108" y="34.56" width="669.6" height="221.76"/>
  </clipPath>
 </defs>
</svg>
