<?xml version="1.0" encoding="utf-8" standalone="no"?>
<!DOCTYPE svg PUBLIC "-//W3C//DTD SVG 1.1//EN"
  "http://www.w3.org/Graphics/SVG/1.1/DTD/svg11.dtd">
<svg xmlns:xlink="http://www.w3.org/1999/xlink" width="864pt" height="288pt" viewBox="0 0 864 288" xmlns="http://www.w3.org/2000/svg" version="1.1">
 <metadata>
  <rdf:RDF xmlns:dc="http://purl.org/dc/elements/1.1/" xmlns:cc="http://creativecommons.org/ns#" xmlns:rdf="http://www.w3.org/1999/02/22-rdf-syntax-ns#">
   <cc:Work>
    <dc:type rdf:resource="http://purl.org/dc/dcmitype/StillImage"/>
    <dc:date>2024-04-26T13:23:34.438028</dc:date>
    <dc:format>image/svg+xml</dc:format>
    <dc:creator>
     <cc:Agent>
      <dc:title>Matplotlib v3.8.2, https://matplotlib.org/</dc:title>
     </cc:Agent>
    </dc:creator>
   </cc:Work>
  </rdf:RDF>
 </metadata>
 <defs>
  <style type="text/css">*{stroke-linejoin: round; stroke-linecap: butt}</style>
 </defs>
 <g id="figure_1">
  <g id="patch_1">
   <path d="M 0 288 
L 864 288 
L 864 0 
L 0 0 
z
" style="fill: #ffffff"/>
  </g>
  <g id="axes_1">
   <g id="patch_2">
    <path d="M 108 256.32 
L 777.6 256.32 
L 777.6 34.56 
L 108 34.56 
z
" style="fill: #ffffff"/>
   </g>
   <g id="matplotlib.axis_1">
    <g id="xtick_1">
     <g id="line2d_1">
      <path d="M 108 256.32 
L 108 34.56 
" clip-path="url(#p44ed510444)" style="fill: none; stroke: #b0b0b0; stroke-width: 0.8; stroke-linecap: square"/>
     </g>
     <g id="line2d_2">
      <defs>
       <path id="m30d96a1098" d="M 0 0 
L 0 3.5 
" style="stroke: #000000; stroke-width: 0.8"/>
      </defs>
      <g>
       <use xlink:href="#m30d96a1098" x="108" y="256.32" style="stroke: #000000; stroke-width: 0.8"/>
      </g>
     </g>
     <g id="text_1">
      <!-- 100 -->
      <g transform="translate(94.63875 273.957812) scale(0.14 -0.14)">
       <defs>
        <path id="DejaVuSans-31" d="M 794 531 
L 1825 531 
L 1825 4091 
L 703 3866 
L 703 4441 
L 1819 4666 
L 2450 4666 
L 2450 531 
L 3481 531 
L 3481 0 
L 794 0 
L 794 531 
z
" transform="scale(0.015625)"/>
        <path id="DejaVuSans-30" d="M 2034 4250 
Q 1547 4250 1301 3770 
Q 1056 3291 1056 2328 
Q 1056 1369 1301 889 
Q 1547 409 2034 409 
Q 2525 409 2770 889 
Q 3016 1369 3016 2328 
Q 3016 3291 2770 3770 
Q 2525 4250 2034 4250 
z
M 2034 4750 
Q 2819 4750 3233 4129 
Q 3647 3509 3647 2328 
Q 3647 1150 3233 529 
Q 2819 -91 2034 -91 
Q 1250 -91 836 529 
Q 422 1150 422 2328 
Q 422 3509 836 4129 
Q 1250 4750 2034 4750 
z
" transform="scale(0.015625)"/>
       </defs>
       <use xlink:href="#DejaVuSans-31"/>
       <use xlink:href="#DejaVuSans-30" x="63.623047"/>
       <use xlink:href="#DejaVuSans-30" x="127.246094"/>
      </g>
     </g>
    </g>
    <g id="xtick_2">
     <g id="line2d_3">
      <path d="M 241.92 256.32 
L 241.92 34.56 
" clip-path="url(#p44ed510444)" style="fill: none; stroke: #b0b0b0; stroke-width: 0.8; stroke-linecap: square"/>
     </g>
     <g id="line2d_4">
      <g>
       <use xlink:href="#m30d96a1098" x="241.92" y="256.32" style="stroke: #000000; stroke-width: 0.8"/>
      </g>
     </g>
     <g id="text_2">
      <!-- 120 -->
      <g transform="translate(228.55875 273.957812) scale(0.14 -0.14)">
       <defs>
        <path id="DejaVuSans-32" d="M 1228 531 
L 3431 531 
L 3431 0 
L 469 0 
L 469 531 
Q 828 903 1448 1529 
Q 2069 2156 2228 2338 
Q 2531 2678 2651 2914 
Q 2772 3150 2772 3378 
Q 2772 3750 2511 3984 
Q 2250 4219 1831 4219 
Q 1534 4219 1204 4116 
Q 875 4013 500 3803 
L 500 4441 
Q 881 4594 1212 4672 
Q 1544 4750 1819 4750 
Q 2544 4750 2975 4387 
Q 3406 4025 3406 3419 
Q 3406 3131 3298 2873 
Q 3191 2616 2906 2266 
Q 2828 2175 2409 1742 
Q 1991 1309 1228 531 
z
" transform="scale(0.015625)"/>
       </defs>
       <use xlink:href="#DejaVuSans-31"/>
       <use xlink:href="#DejaVuSans-32" x="63.623047"/>
       <use xlink:href="#DejaVuSans-30" x="127.246094"/>
      </g>
     </g>
    </g>
    <g id="xtick_3">
     <g id="line2d_5">
      <path d="M 375.84 256.32 
L 375.84 34.56 
" clip-path="url(#p44ed510444)" style="fill: none; stroke: #b0b0b0; stroke-width: 0.8; stroke-linecap: square"/>
     </g>
     <g id="line2d_6">
      <g>
       <use xlink:href="#m30d96a1098" x="375.84" y="256.32" style="stroke: #000000; stroke-width: 0.8"/>
      </g>
     </g>
     <g id="text_3">
      <!-- 140 -->
      <g transform="translate(362.47875 273.957812) scale(0.14 -0.14)">
       <defs>
        <path id="DejaVuSans-34" d="M 2419 4116 
L 825 1625 
L 2419 1625 
L 2419 4116 
z
M 2253 4666 
L 3047 4666 
L 3047 1625 
L 3713 1625 
L 3713 1100 
L 3047 1100 
L 3047 0 
L 2419 0 
L 2419 1100 
L 313 1100 
L 313 1709 
L 2253 4666 
z
" transform="scale(0.015625)"/>
       </defs>
       <use xlink:href="#DejaVuSans-31"/>
       <use xlink:href="#DejaVuSans-34" x="63.623047"/>
       <use xlink:href="#DejaVuSans-30" x="127.246094"/>
      </g>
     </g>
    </g>
    <g id="xtick_4">
     <g id="line2d_7">
      <path d="M 509.76 256.32 
L 509.76 34.56 
" clip-path="url(#p44ed510444)" style="fill: none; stroke: #b0b0b0; stroke-width: 0.8; stroke-linecap: square"/>
     </g>
     <g id="line2d_8">
      <g>
       <use xlink:href="#m30d96a1098" x="509.76" y="256.32" style="stroke: #000000; stroke-width: 0.8"/>
      </g>
     </g>
     <g id="text_4">
      <!-- 160 -->
      <g transform="translate(496.39875 273.957812) scale(0.14 -0.14)">
       <defs>
        <path id="DejaVuSans-36" d="M 2113 2584 
Q 1688 2584 1439 2293 
Q 1191 2003 1191 1497 
Q 1191 994 1439 701 
Q 1688 409 2113 409 
Q 2538 409 2786 701 
Q 3034 994 3034 1497 
Q 3034 2003 2786 2293 
Q 2538 2584 2113 2584 
z
M 3366 4563 
L 3366 3988 
Q 3128 4100 2886 4159 
Q 2644 4219 2406 4219 
Q 1781 4219 1451 3797 
Q 1122 3375 1075 2522 
Q 1259 2794 1537 2939 
Q 1816 3084 2150 3084 
Q 2853 3084 3261 2657 
Q 3669 2231 3669 1497 
Q 3669 778 3244 343 
Q 2819 -91 2113 -91 
Q 1303 -91 875 529 
Q 447 1150 447 2328 
Q 447 3434 972 4092 
Q 1497 4750 2381 4750 
Q 2619 4750 2861 4703 
Q 3103 4656 3366 4563 
z
" transform="scale(0.015625)"/>
       </defs>
       <use xlink:href="#DejaVuSans-31"/>
       <use xlink:href="#DejaVuSans-36" x="63.623047"/>
       <use xlink:href="#DejaVuSans-30" x="127.246094"/>
      </g>
     </g>
    </g>
    <g id="xtick_5">
     <g id="line2d_9">
      <path d="M 643.68 256.32 
L 643.68 34.56 
" clip-path="url(#p44ed510444)" style="fill: none; stroke: #b0b0b0; stroke-width: 0.8; stroke-linecap: square"/>
     </g>
     <g id="line2d_10">
      <g>
       <use xlink:href="#m30d96a1098" x="643.68" y="256.32" style="stroke: #000000; stroke-width: 0.8"/>
      </g>
     </g>
     <g id="text_5">
      <!-- 180 -->
      <g transform="translate(630.31875 273.957812) scale(0.14 -0.14)">
       <defs>
        <path id="DejaVuSans-38" d="M 2034 2216 
Q 1584 2216 1326 1975 
Q 1069 1734 1069 1313 
Q 1069 891 1326 650 
Q 1584 409 2034 409 
Q 2484 409 2743 651 
Q 3003 894 3003 1313 
Q 3003 1734 2745 1975 
Q 2488 2216 2034 2216 
z
M 1403 2484 
Q 997 2584 770 2862 
Q 544 3141 544 3541 
Q 544 4100 942 4425 
Q 1341 4750 2034 4750 
Q 2731 4750 3128 4425 
Q 3525 4100 3525 3541 
Q 3525 3141 3298 2862 
Q 3072 2584 2669 2484 
Q 3125 2378 3379 2068 
Q 3634 1759 3634 1313 
Q 3634 634 3220 271 
Q 2806 -91 2034 -91 
Q 1263 -91 848 271 
Q 434 634 434 1313 
Q 434 1759 690 2068 
Q 947 2378 1403 2484 
z
M 1172 3481 
Q 1172 3119 1398 2916 
Q 1625 2713 2034 2713 
Q 2441 2713 2670 2916 
Q 2900 3119 2900 3481 
Q 2900 3844 2670 4047 
Q 2441 4250 2034 4250 
Q 1625 4250 1398 4047 
Q 1172 3844 1172 3481 
z
" transform="scale(0.015625)"/>
       </defs>
       <use xlink:href="#DejaVuSans-31"/>
       <use xlink:href="#DejaVuSans-38" x="63.623047"/>
       <use xlink:href="#DejaVuSans-30" x="127.246094"/>
      </g>
     </g>
    </g>
    <g id="xtick_6">
     <g id="line2d_11">
      <path d="M 777.6 256.32 
L 777.6 34.56 
" clip-path="url(#p44ed510444)" style="fill: none; stroke: #b0b0b0; stroke-width: 0.8; stroke-linecap: square"/>
     </g>
     <g id="line2d_12">
      <g>
       <use xlink:href="#m30d96a1098" x="777.6" y="256.32" style="stroke: #000000; stroke-width: 0.8"/>
      </g>
     </g>
     <g id="text_6">
      <!-- 200 -->
      <g transform="translate(764.23875 273.957812) scale(0.14 -0.14)">
       <use xlink:href="#DejaVuSans-32"/>
       <use xlink:href="#DejaVuSans-30" x="63.623047"/>
       <use xlink:href="#DejaVuSans-30" x="127.246094"/>
      </g>
     </g>
    </g>
    <g id="text_7">
     <!-- Time (ms) -->
     <g transform="translate(407.521094 291.507187) scale(0.14 -0.14)">
      <defs>
       <path id="DejaVuSans-54" d="M -19 4666 
L 3928 4666 
L 3928 4134 
L 2272 4134 
L 2272 0 
L 1638 0 
L 1638 4134 
L -19 4134 
L -19 4666 
z
" transform="scale(0.015625)"/>
       <path id="DejaVuSans-69" d="M 603 3500 
L 1178 3500 
L 1178 0 
L 603 0 
L 603 3500 
z
M 603 4863 
L 1178 4863 
L 1178 4134 
L 603 4134 
L 603 4863 
z
" transform="scale(0.015625)"/>
       <path id="DejaVuSans-6d" d="M 3328 2828 
Q 3544 3216 3844 3400 
Q 4144 3584 4550 3584 
Q 5097 3584 5394 3201 
Q 5691 2819 5691 2113 
L 5691 0 
L 5113 0 
L 5113 2094 
Q 5113 2597 4934 2840 
Q 4756 3084 4391 3084 
Q 3944 3084 3684 2787 
Q 3425 2491 3425 1978 
L 3425 0 
L 2847 0 
L 2847 2094 
Q 2847 2600 2669 2842 
Q 2491 3084 2119 3084 
Q 1678 3084 1418 2786 
Q 1159 2488 1159 1978 
L 1159 0 
L 581 0 
L 581 3500 
L 1159 3500 
L 1159 2956 
Q 1356 3278 1631 3431 
Q 1906 3584 2284 3584 
Q 2666 3584 2933 3390 
Q 3200 3197 3328 2828 
z
" transform="scale(0.015625)"/>
       <path id="DejaVuSans-65" d="M 3597 1894 
L 3597 1613 
L 953 1613 
Q 991 1019 1311 708 
Q 1631 397 2203 397 
Q 2534 397 2845 478 
Q 3156 559 3463 722 
L 3463 178 
Q 3153 47 2828 -22 
Q 2503 -91 2169 -91 
Q 1331 -91 842 396 
Q 353 884 353 1716 
Q 353 2575 817 3079 
Q 1281 3584 2069 3584 
Q 2775 3584 3186 3129 
Q 3597 2675 3597 1894 
z
M 3022 2063 
Q 3016 2534 2758 2815 
Q 2500 3097 2075 3097 
Q 1594 3097 1305 2825 
Q 1016 2553 972 2059 
L 3022 2063 
z
" transform="scale(0.015625)"/>
       <path id="DejaVuSans-20" transform="scale(0.015625)"/>
       <path id="DejaVuSans-28" d="M 1984 4856 
Q 1566 4138 1362 3434 
Q 1159 2731 1159 2009 
Q 1159 1288 1364 580 
Q 1569 -128 1984 -844 
L 1484 -844 
Q 1016 -109 783 600 
Q 550 1309 550 2009 
Q 550 2706 781 3412 
Q 1013 4119 1484 4856 
L 1984 4856 
z
" transform="scale(0.015625)"/>
       <path id="DejaVuSans-73" d="M 2834 3397 
L 2834 2853 
Q 2591 2978 2328 3040 
Q 2066 3103 1784 3103 
Q 1356 3103 1142 2972 
Q 928 2841 928 2578 
Q 928 2378 1081 2264 
Q 1234 2150 1697 2047 
L 1894 2003 
Q 2506 1872 2764 1633 
Q 3022 1394 3022 966 
Q 3022 478 2636 193 
Q 2250 -91 1575 -91 
Q 1294 -91 989 -36 
Q 684 19 347 128 
L 347 722 
Q 666 556 975 473 
Q 1284 391 1588 391 
Q 1994 391 2212 530 
Q 2431 669 2431 922 
Q 2431 1156 2273 1281 
Q 2116 1406 1581 1522 
L 1381 1569 
Q 847 1681 609 1914 
Q 372 2147 372 2553 
Q 372 3047 722 3315 
Q 1072 3584 1716 3584 
Q 2034 3584 2315 3537 
Q 2597 3491 2834 3397 
z
" transform="scale(0.015625)"/>
       <path id="DejaVuSans-29" d="M 513 4856 
L 1013 4856 
Q 1481 4119 1714 3412 
Q 1947 2706 1947 2009 
Q 1947 1309 1714 600 
Q 1481 -109 1013 -844 
L 513 -844 
Q 928 -128 1133 580 
Q 1338 1288 1338 2009 
Q 1338 2731 1133 3434 
Q 928 4138 513 4856 
z
" transform="scale(0.015625)"/>
      </defs>
      <use xlink:href="#DejaVuSans-54"/>
      <use xlink:href="#DejaVuSans-69" x="57.958984"/>
      <use xlink:href="#DejaVuSans-6d" x="85.742188"/>
      <use xlink:href="#DejaVuSans-65" x="183.154297"/>
      <use xlink:href="#DejaVuSans-20" x="244.677734"/>
      <use xlink:href="#DejaVuSans-28" x="276.464844"/>
      <use xlink:href="#DejaVuSans-6d" x="315.478516"/>
      <use xlink:href="#DejaVuSans-73" x="412.890625"/>
      <use xlink:href="#DejaVuSans-29" x="464.990234"/>
     </g>
    </g>
   </g>
   <g id="matplotlib.axis_2">
    <g id="ytick_1">
     <g id="line2d_13">
      <path d="M 108 225.083985 
L 777.6 225.083985 
" clip-path="url(#p44ed510444)" style="fill: none; stroke: #b0b0b0; stroke-width: 0.8; stroke-linecap: square"/>
     </g>
     <g id="line2d_14">
      <defs>
       <path id="m1d9bc1a8db" d="M 0 0 
L -3.5 0 
" style="stroke: #000000; stroke-width: 0.8"/>
      </defs>
      <g>
       <use xlink:href="#m1d9bc1a8db" x="108" y="225.083985" style="stroke: #000000; stroke-width: 0.8"/>
      </g>
     </g>
     <g id="text_8">
      <!-- −60 -->
      <g transform="translate(71.453437 230.402891) scale(0.14 -0.14)">
       <defs>
        <path id="DejaVuSans-2212" d="M 678 2272 
L 4684 2272 
L 4684 1741 
L 678 1741 
L 678 2272 
z
" transform="scale(0.015625)"/>
       </defs>
       <use xlink:href="#DejaVuSans-2212"/>
       <use xlink:href="#DejaVuSans-36" x="83.789062"/>
       <use xlink:href="#DejaVuSans-30" x="147.412109"/>
      </g>
     </g>
    </g>
    <g id="ytick_2">
     <g id="line2d_15">
      <path d="M 108 182.839375 
L 777.6 182.839375 
" clip-path="url(#p44ed510444)" style="fill: none; stroke: #b0b0b0; stroke-width: 0.8; stroke-linecap: square"/>
     </g>
     <g id="line2d_16">
      <g>
       <use xlink:href="#m1d9bc1a8db" x="108" y="182.839375" style="stroke: #000000; stroke-width: 0.8"/>
      </g>
     </g>
     <g id="text_9">
      <!-- −40 -->
      <g transform="translate(71.453437 188.158282) scale(0.14 -0.14)">
       <use xlink:href="#DejaVuSans-2212"/>
       <use xlink:href="#DejaVuSans-34" x="83.789062"/>
       <use xlink:href="#DejaVuSans-30" x="147.412109"/>
      </g>
     </g>
    </g>
    <g id="ytick_3">
     <g id="line2d_17">
      <path d="M 108 140.594766 
L 777.6 140.594766 
" clip-path="url(#p44ed510444)" style="fill: none; stroke: #b0b0b0; stroke-width: 0.8; stroke-linecap: square"/>
     </g>
     <g id="line2d_18">
      <g>
       <use xlink:href="#m1d9bc1a8db" x="108" y="140.594766" style="stroke: #000000; stroke-width: 0.8"/>
      </g>
     </g>
     <g id="text_10">
      <!-- −20 -->
      <g transform="translate(71.453437 145.913672) scale(0.14 -0.14)">
       <use xlink:href="#DejaVuSans-2212"/>
       <use xlink:href="#DejaVuSans-32" x="83.789062"/>
       <use xlink:href="#DejaVuSans-30" x="147.412109"/>
      </g>
     </g>
    </g>
    <g id="ytick_4">
     <g id="line2d_19">
      <path d="M 108 98.350156 
L 777.6 98.350156 
" clip-path="url(#p44ed510444)" style="fill: none; stroke: #b0b0b0; stroke-width: 0.8; stroke-linecap: square"/>
     </g>
     <g id="line2d_20">
      <g>
       <use xlink:href="#m1d9bc1a8db" x="108" y="98.350156" style="stroke: #000000; stroke-width: 0.8"/>
      </g>
     </g>
     <g id="text_11">
      <!-- 0 -->
      <g transform="translate(92.0925 103.669062) scale(0.14 -0.14)">
       <use xlink:href="#DejaVuSans-30"/>
      </g>
     </g>
    </g>
    <g id="ytick_5">
     <g id="line2d_21">
      <path d="M 108 56.105546 
L 777.6 56.105546 
" clip-path="url(#p44ed510444)" style="fill: none; stroke: #b0b0b0; stroke-width: 0.8; stroke-linecap: square"/>
     </g>
     <g id="line2d_22">
      <g>
       <use xlink:href="#m1d9bc1a8db" x="108" y="56.105546" style="stroke: #000000; stroke-width: 0.8"/>
      </g>
     </g>
     <g id="text_12">
      <!-- 20 -->
      <g transform="translate(83.185 61.424453) scale(0.14 -0.14)">
       <use xlink:href="#DejaVuSans-32"/>
       <use xlink:href="#DejaVuSans-30" x="63.623047"/>
      </g>
     </g>
    </g>
    <g id="text_13">
     <!-- $V_{m}$ (mV) -->
     <g transform="translate(64.541875 174.49) rotate(-90) scale(0.14 -0.14)">
      <defs>
       <path id="DejaVuSans-Oblique-56" d="M 1319 0 
L 500 4666 
L 1119 4666 
L 1797 653 
L 4063 4666 
L 4750 4666 
L 2053 0 
L 1319 0 
z
" transform="scale(0.015625)"/>
       <path id="DejaVuSans-Oblique-6d" d="M 5747 2113 
L 5338 0 
L 4763 0 
L 5166 2094 
Q 5191 2228 5203 2325 
Q 5216 2422 5216 2491 
Q 5216 2772 5059 2928 
Q 4903 3084 4622 3084 
Q 4203 3084 3875 2770 
Q 3547 2456 3450 1953 
L 3066 0 
L 2491 0 
L 2900 2094 
Q 2925 2209 2937 2307 
Q 2950 2406 2950 2484 
Q 2950 2769 2794 2926 
Q 2638 3084 2363 3084 
Q 1938 3084 1609 2770 
Q 1281 2456 1184 1953 
L 800 0 
L 225 0 
L 909 3500 
L 1484 3500 
L 1375 2956 
Q 1609 3263 1923 3423 
Q 2238 3584 2597 3584 
Q 2978 3584 3223 3384 
Q 3469 3184 3519 2828 
Q 3781 3197 4126 3390 
Q 4472 3584 4856 3584 
Q 5306 3584 5551 3325 
Q 5797 3066 5797 2591 
Q 5797 2488 5784 2364 
Q 5772 2241 5747 2113 
z
" transform="scale(0.015625)"/>
       <path id="DejaVuSans-56" d="M 1831 0 
L 50 4666 
L 709 4666 
L 2188 738 
L 3669 4666 
L 4325 4666 
L 2547 0 
L 1831 0 
z
" transform="scale(0.015625)"/>
      </defs>
      <use xlink:href="#DejaVuSans-Oblique-56" transform="translate(0 0.125)"/>
      <use xlink:href="#DejaVuSans-Oblique-6d" transform="translate(68.408203 -16.28125) scale(0.7)"/>
      <use xlink:href="#DejaVuSans-20" transform="translate(139.331055 0.125)"/>
      <use xlink:href="#DejaVuSans-28" transform="translate(171.118164 0.125)"/>
      <use xlink:href="#DejaVuSans-6d" transform="translate(210.131836 0.125)"/>
      <use xlink:href="#DejaVuSans-56" transform="translate(307.543945 0.125)"/>
      <use xlink:href="#DejaVuSans-29" transform="translate(375.952148 0.125)"/>
     </g>
    </g>
   </g>
   <g id="line2d_23">
    <path d="M 108 221.508511 
L 109.3392 222.157642 
L 110.6784 222.580329 
L 111.348 222.736521 
L 112.6872 223.648971 
L 114.0264 224.088078 
L 116.0352 225.594847 
L 118.044 227.960498 
L 118.7136 229.027311 
L 119.3832 229.852934 
L 120.0528 230.378632 
L 120.7224 231.371829 
L 122.7312 233.566668 
L 124.0704 234.318108 
L 125.4096 234.803094 
L 127.4184 235.266348 
L 129.4272 235.515168 
L 132.1056 235.602938 
L 134.1144 235.522572 
L 136.1232 236.263267 
L 136.7928 237.040219 
L 137.4624 237.583361 
L 140.1408 238.689992 
L 141.48 238.935035 
L 144.1584 239.251546 
L 145.4976 239.495105 
L 147.5064 239.465813 
L 148.176 239.413828 
L 149.5152 239.688222 
L 150.8544 239.492635 
L 155.5416 238.218399 
L 162.2376 236.257206 
L 166.9248 234.64907 
L 171.612 232.824367 
L 176.9688 230.49883 
L 182.9952 227.620467 
L 189.6912 224.157128 
L 197.7264 219.726815 
L 198.396 219.347664 
L 199.7352 219.379385 
L 201.0744 219.005151 
L 203.7528 217.904295 
L 205.7616 216.980008 
L 207.1008 217.162021 
L 208.44 216.91185 
L 209.7792 217.313264 
L 211.1184 217.229265 
L 213.1272 216.785859 
L 216.4752 215.746755 
L 220.4928 214.256888 
L 225.8496 212.020178 
L 227.1888 212.325499 
L 227.8584 213.22298 
L 228.528 213.91633 
L 229.1976 214.258173 
L 230.5368 214.520512 
L 232.5456 214.498314 
L 234.5544 215.75381 
L 235.8936 217.611337 
L 236.5632 218.707752 
L 239.2416 221.822289 
L 239.9112 222.829578 
L 240.5808 224.279519 
L 241.2504 225.345114 
L 241.92 226.030009 
L 243.2592 226.927545 
L 244.5984 227.522657 
L 245.9376 228.546929 
L 246.6072 228.861076 
L 247.2768 229.421574 
L 247.9464 230.189548 
L 249.9552 231.935773 
L 251.2944 233.085121 
L 252.6336 233.682659 
L 253.9728 234.05185 
L 255.312 235.318713 
L 255.9816 235.929533 
L 256.6512 236.381174 
L 257.9904 236.890121 
L 259.9992 237.28209 
L 260.6688 237.357243 
L 262.008 237.924583 
L 263.3472 238.145394 
L 264.6864 238.220666 
L 267.3648 239.281501 
L 268.704 239.471272 
L 270.7128 239.485912 
L 272.052 239.860199 
L 273.3912 239.917323 
L 276.0696 239.705093 
L 279.4176 239.149881 
L 282.096 238.543854 
L 283.4352 238.640265 
L 284.7744 238.277031 
L 291.4704 235.752943 
L 292.8096 235.78916 
L 294.8184 235.35573 
L 298.1664 234.316491 
L 302.8536 232.594501 
L 308.2104 230.349198 
L 313.5672 227.863002 
L 319.5936 224.831743 
L 326.9592 220.867167 
L 336.3336 215.551669 
L 345.0384 210.459227 
L 346.3776 210.599397 
L 347.7168 210.301127 
L 349.7256 209.55693 
L 353.0736 208.038336 
L 354.4128 207.377817 
L 355.752 208.650874 
L 356.4216 208.933887 
L 358.4304 210.762672 
L 359.1 211.786574 
L 359.7696 212.513261 
L 360.4392 212.956906 
L 361.7784 213.453879 
L 363.1176 215.337521 
L 363.7872 216.269112 
L 364.4568 216.963605 
L 366.4656 218.401199 
L 367.1352 218.936314 
L 367.8048 219.286089 
L 369.144 220.462849 
L 370.4832 221.054126 
L 372.492 221.513798 
L 373.8312 223.067608 
L 374.5008 224.563356 
L 375.1704 225.714111 
L 375.84 226.408628 
L 377.1792 227.266976 
L 378.5184 227.812068 
L 379.188 228.01601 
L 379.8576 228.516782 
L 381.8664 230.695429 
L 382.536 231.086695 
L 383.8752 232.152318 
L 384.5448 232.471311 
L 386.5536 234.004759 
L 387.2232 234.446503 
L 388.5624 234.953905 
L 391.2408 235.715055 
L 391.9104 236.272505 
L 392.58 236.658835 
L 393.9192 237.043102 
L 395.928 237.280528 
L 399.276 237.533735 
L 402.624 238.340984 
L 403.2936 238.371232 
L 405.972 239.374014 
L 407.3112 239.52429 
L 407.9808 239.532762 
L 409.32 239.935374 
L 410.6592 240.006579 
L 412.668 239.880592 
L 415.3464 239.501998 
L 417.3552 239.065249 
L 419.364 238.266657 
L 424.0512 236.367531 
L 426.7296 235.34666 
L 428.0688 235.37217 
L 429.408 235.098338 
L 432.0864 234.289017 
L 436.104 232.840876 
L 440.7912 230.92329 
L 446.148 228.493506 
L 452.1744 225.512779 
L 459.54 221.593683 
L 468.9144 216.311738 
L 472.932 213.988522 
L 474.2712 214.085803 
L 475.6104 213.750447 
L 476.9496 213.25208 
L 478.2888 213.57048 
L 479.628 213.4179 
L 481.6368 212.877086 
L 483.6456 212.196068 
L 484.9848 212.587914 
L 485.6544 213.05498 
L 486.324 213.382916 
L 487.6632 213.546545 
L 489.0024 213.464568 
L 490.3416 214.959155 
L 491.0112 215.30472 
L 491.6808 215.933989 
L 492.3504 216.83994 
L 493.02 217.473739 
L 493.6896 217.855612 
L 494.3592 218.523214 
L 495.0288 219.450157 
L 495.6984 220.112165 
L 497.7072 221.440987 
L 498.3768 221.934516 
L 499.716 222.480643 
L 501.0552 222.785553 
L 502.3944 223.648203 
L 503.7336 224.03627 
L 504.4032 224.146443 
L 505.7424 224.945504 
L 507.0816 225.283736 
L 507.7512 225.372364 
L 508.4208 225.787365 
L 510.4296 228.928929 
L 511.0992 229.632222 
L 512.4384 230.423359 
L 513.7776 230.886391 
L 515.1168 231.745454 
L 515.7864 232.592581 
L 516.456 233.251352 
L 517.1256 233.652113 
L 519.804 236.960277 
L 521.1432 237.687409 
L 522.4824 238.131247 
L 523.152 238.293001 
L 523.8216 238.678124 
L 524.4912 239.235606 
L 526.5 240.477918 
L 527.8392 241.295708 
L 529.1784 241.6747 
L 529.848 241.789717 
L 531.1872 242.346726 
L 532.5264 242.572803 
L 534.5352 242.667765 
L 537.2136 242.55503 
L 540.5616 242.147358 
L 543.9096 241.51033 
L 547.9272 240.500929 
L 551.2752 239.444206 
L 553.9536 238.080892 
L 557.9712 236.121734 
L 571.3632 229.870018 
L 578.0592 226.408259 
L 585.4248 222.347391 
L 594.7992 216.914043 
L 602.1648 212.531608 
L 603.504 212.63111 
L 604.8432 212.293216 
L 607.5216 211.212667 
L 611.5392 209.306749 
L 613.548 208.27127 
L 614.8872 208.535622 
L 616.2264 208.365676 
L 618.2352 207.780758 
L 620.9136 206.738845 
L 622.9224 205.815195 
L 624.2616 206.18021 
L 624.9312 206.204607 
L 625.6008 206.661512 
L 626.2704 207.551448 
L 626.94 208.228379 
L 627.6096 208.634135 
L 628.9488 209.04626 
L 629.6184 209.141438 
L 630.288 209.675488 
L 630.9576 211.065545 
L 631.6272 212.133428 
L 632.2968 212.777179 
L 634.3056 214.19557 
L 634.9752 214.746962 
L 635.6448 215.101365 
L 636.984 216.331633 
L 637.6536 216.684839 
L 638.9928 219.772589 
L 639.6624 220.815238 
L 640.332 221.498454 
L 641.6712 223.08055 
L 642.3408 223.578986 
L 643.0104 224.325863 
L 643.68 225.285066 
L 644.3496 225.996982 
L 645.0192 226.488787 
L 646.3584 227.78558 
L 648.3672 229.104082 
L 649.0368 229.903363 
L 649.7064 230.490724 
L 653.0544 232.482512 
L 653.724 233.006848 
L 654.3936 233.716429 
L 658.4112 236.813723 
L 659.7504 238.323998 
L 660.42 238.864356 
L 661.7592 239.490215 
L 663.768 240.0051 
L 665.7768 240.265158 
L 667.7856 240.354428 
L 669.1248 240.778656 
L 670.464 240.894855 
L 673.1424 240.805854 
L 676.4904 240.395958 
L 679.8384 239.750794 
L 683.856 238.729429 
L 685.1952 238.293979 
L 687.8736 236.988401 
L 691.8912 235.0976 
L 693.9 234.211184 
L 695.2392 234.184964 
L 696.5784 233.857341 
L 699.9264 232.695389 
L 704.6136 230.796267 
L 709.9704 228.376216 
L 715.9968 225.402456 
L 722.6928 221.854387 
L 731.3976 216.976178 
L 742.7808 210.338911 
L 744.12 210.479808 
L 745.4592 210.181936 
L 747.468 209.435368 
L 748.8072 209.805254 
L 750.1464 209.710497 
L 752.1552 209.220333 
L 753.4944 209.739568 
L 754.8336 209.779902 
L 756.1728 209.602487 
L 757.512 210.253123 
L 758.8512 210.398525 
L 760.1904 210.318104 
L 761.5296 211.038033 
L 762.1992 211.184505 
L 763.5384 212.132779 
L 764.8776 212.485614 
L 765.5472 212.55323 
L 766.8864 213.432026 
L 768.2256 213.765792 
L 768.8952 213.834483 
L 770.2344 215.51785 
L 770.904 215.947022 
L 771.5736 216.221561 
L 774.252 218.601271 
L 775.5912 219.199248 
L 776.9304 219.523786 
L 777.6 220.030282 
L 777.6 220.030282 
" clip-path="url(#p44ed510444)" style="fill: none; stroke: #000000; stroke-width: 1.5; stroke-linecap: square"/>
   </g>
   <g id="line2d_24">
    <path d="M 108 208.182364 
L 110.6784 210.837635 
L 114.0264 213.657061 
L 117.3744 216.408944 
L 119.3832 218.370558 
L 122.7312 222.00504 
L 124.74 224.126834 
L 126.7488 225.944612 
L 128.7576 227.454461 
L 130.7664 228.69475 
L 132.7752 229.700107 
L 139.4712 232.658323 
L 142.1496 233.946297 
L 144.828 234.961689 
L 147.5064 235.809204 
L 148.8456 236.143956 
L 149.5152 204.879424 
L 150.1848 192.349712 
L 150.8544 186.759539 
L 151.524 184.02627 
L 152.1936 182.788891 
L 152.8632 182.504467 
L 153.5328 182.892941 
L 154.2024 183.77259 
L 154.872 185.00895 
L 156.2112 188.142159 
L 160.2288 198.460415 
L 162.2376 202.807273 
L 163.5768 205.27238 
L 164.916 207.401382 
L 166.2552 209.218122 
L 167.5944 210.751337 
L 168.9336 212.030542 
L 170.2728 213.083933 
L 171.612 213.937335 
L 173.6208 214.892424 
L 175.6296 215.516188 
L 177.6384 215.863783 
L 179.6472 215.98037 
L 181.656 215.902952 
L 184.3344 215.549754 
L 187.0128 214.963218 
L 190.3608 213.970336 
L 193.7088 212.7522 
L 197.7264 211.066322 
L 200.4048 209.98174 
L 207.1008 207.834073 
L 209.1096 207.412947 
L 211.1184 207.228592 
L 216.4752 206.850643 
L 220.4928 206.31928 
L 224.5104 205.574694 
L 227.1888 205.042134 
L 228.528 205.038602 
L 230.5368 205.439992 
L 234.5544 206.453091 
L 235.8936 207.046399 
L 237.2328 207.928512 
L 239.2416 209.606173 
L 240.5808 210.921913 
L 245.9376 216.743987 
L 254.6424 224.989774 
L 259.3296 228.862064 
L 261.3384 230.19135 
L 264.0168 231.737108 
L 268.704 233.968297 
L 271.3824 235.001225 
L 274.7304 236.048135 
L 277.4088 236.601114 
L 280.0872 236.90042 
L 282.7656 236.992856 
L 283.4352 205.434342 
L 284.1048 192.741571 
L 284.7744 187.034367 
L 285.444 184.202564 
L 286.1136 182.867769 
L 286.7832 182.479118 
L 287.4528 182.755199 
L 288.1224 183.515351 
L 288.792 184.626447 
L 290.1312 187.501215 
L 295.488 200.112126 
L 296.8272 202.67655 
L 298.1664 204.904758 
L 299.5056 206.81316 
L 300.8448 208.427905 
L 302.184 209.778056 
L 303.5232 210.892317 
L 304.8624 211.797388 
L 306.8712 212.814971 
L 308.88 213.486091 
L 310.8888 213.868813 
L 312.8976 214.010716 
L 314.9064 213.950751 
L 317.5848 213.611352 
L 320.2632 213.030535 
L 323.6112 212.037117 
L 326.9592 210.813297 
L 330.9768 209.117831 
L 336.3336 206.588389 
L 343.0296 203.161144 
L 346.3776 201.454404 
L 349.056 200.475998 
L 355.752 198.330709 
L 357.0912 198.286796 
L 358.4304 198.516088 
L 359.7696 199.061575 
L 361.7784 200.225898 
L 363.1176 201.151067 
L 365.1264 202.898948 
L 375.84 212.865144 
L 378.5184 215.777782 
L 387.2232 224.128296 
L 389.9016 226.383228 
L 393.9192 229.219926 
L 395.928 230.449405 
L 397.9368 231.449819 
L 401.9544 233.063002 
L 407.3112 235.042498 
L 411.3288 236.294898 
L 414.0072 236.866256 
L 416.6856 237.182275 
L 417.3552 205.603258 
L 418.0248 192.903156 
L 418.6944 187.192617 
L 419.364 184.362799 
L 420.0336 183.033766 
L 420.7032 182.652067 
L 421.3728 182.934777 
L 422.0424 183.700532 
L 422.712 184.816018 
L 424.0512 187.694871 
L 428.7384 198.745777 
L 430.7472 202.689682 
L 432.0864 204.912333 
L 433.4256 206.817547 
L 434.7648 208.42977 
L 436.104 209.777639 
L 437.4432 210.88979 
L 438.7824 211.79293 
L 440.7912 212.807983 
L 442.8 213.477005 
L 444.8088 213.858012 
L 446.8176 213.99852 
L 448.8264 213.937419 
L 451.5048 213.596814 
L 454.1832 213.015058 
L 457.5312 212.020734 
L 460.8792 210.796231 
L 464.8968 209.100167 
L 470.2536 206.570225 
L 474.9408 204.35212 
L 477.6192 203.452948 
L 479.628 203.024632 
L 484.9848 202.217366 
L 486.324 202.228779 
L 489.0024 202.590642 
L 490.3416 202.921119 
L 491.6808 203.451972 
L 493.02 204.201321 
L 495.0288 205.612124 
L 499.0464 209.039196 
L 501.7248 211.204092 
L 505.0728 213.682189 
L 510.4296 217.500145 
L 515.1168 221.693988 
L 517.7952 224.025133 
L 520.4736 226.663857 
L 522.4824 228.544241 
L 525.8304 231.225461 
L 529.1784 233.763125 
L 531.8568 235.481086 
L 533.8656 236.569835 
L 535.8744 237.444391 
L 537.8832 238.120792 
L 540.5616 238.754982 
L 543.24 239.125747 
L 545.9184 239.270286 
L 548.5968 239.218944 
L 550.6056 239.067274 
L 551.2752 206.995846 
L 551.9448 194.078817 
L 552.6144 188.254818 
L 553.284 185.37285 
L 553.9536 184.020026 
L 554.6232 183.625179 
L 555.2928 183.893084 
L 555.9624 184.638291 
L 556.632 185.725227 
L 557.9712 188.518389 
L 561.9888 197.66504 
L 563.328 200.250153 
L 564.6672 202.496986 
L 566.0064 204.409565 
L 567.3456 206.00854 
L 568.6848 207.321791 
L 570.024 208.379123 
L 571.3632 209.209399 
L 572.7024 209.839399 
L 574.0416 210.293213 
L 576.0504 210.689384 
L 578.0592 210.797607 
L 580.068 210.667995 
L 582.0768 210.341481 
L 584.7552 209.657028 
L 587.4336 208.74555 
L 590.7816 207.362516 
L 594.7992 205.443167 
L 600.156 202.597412 
L 603.504 200.791997 
L 606.1824 199.719515 
L 615.5568 196.334069 
L 618.9048 195.692744 
L 625.6008 194.597746 
L 626.94 194.802218 
L 628.2792 195.277304 
L 630.288 196.1762 
L 631.6272 197.036439 
L 633.636 198.756127 
L 637.6536 202.529771 
L 638.9928 203.981024 
L 641.6712 207.464528 
L 647.028 214.37479 
L 650.376 218.256609 
L 653.0544 221.101794 
L 661.7592 229.647393 
L 663.768 231.367004 
L 665.7768 232.786747 
L 667.7856 233.93916 
L 671.1336 235.524613 
L 673.1424 236.262218 
L 675.8208 236.968635 
L 678.4992 237.398295 
L 681.1776 237.59147 
L 683.856 237.580762 
L 684.5256 237.549472 
L 685.1952 205.825692 
L 685.8648 193.038601 
L 686.5344 187.261593 
L 687.204 184.375137 
L 687.8736 182.990613 
L 688.5432 182.54876 
L 689.2128 182.76461 
L 689.8824 183.456602 
L 690.552 184.491861 
L 691.8912 187.197522 
L 696.5784 197.697808 
L 698.5872 201.417917 
L 699.9264 203.492357 
L 701.2656 205.254791 
L 702.6048 206.73044 
L 703.944 207.9479 
L 705.2832 208.935486 
L 706.6224 209.719566 
L 707.9616 210.324046 
L 709.9704 210.939597 
L 711.9792 211.259084 
L 713.988 211.332597 
L 715.9968 211.201094 
L 718.6752 210.764115 
L 721.3536 210.085911 
L 724.7016 208.974488 
L 728.7192 207.351879 
L 733.4064 205.181555 
L 739.4328 202.117192 
L 744.7896 199.406275 
L 748.1376 198.26791 
L 750.1464 197.866994 
L 752.8248 197.549831 
L 754.8336 197.559435 
L 757.512 197.808754 
L 760.86 198.552787 
L 762.8688 199.216477 
L 765.5472 200.457137 
L 768.8952 202.240821 
L 770.904 203.523966 
L 773.5824 205.54924 
L 777.6 208.797565 
L 777.6 208.797565 
" clip-path="url(#p44ed510444)" style="fill: none; stroke: #4169e1; stroke-width: 1.5; stroke-linecap: square"/>
   </g>
   <g id="patch_3">
    <path d="M 108 256.32 
L 108 34.56 
" style="fill: none; stroke: #000000; stroke-width: 0.8; stroke-linejoin: miter; stroke-linecap: square"/>
   </g>
   <g id="patch_4">
    <path d="M 777.6 256.32 
L 777.6 34.56 
" style="fill: none; stroke: #000000; stroke-width: 0.8; stroke-linejoin: miter; stroke-linecap: square"/>
   </g>
   <g id="patch_5">
    <path d="M 108 256.32 
L 777.6 256.32 
" style="fill: none; stroke: #000000; stroke-width: 0.8; stroke-linejoin: miter; stroke-linecap: square"/>
   </g>
   <g id="patch_6">
    <path d="M 108 34.56 
L 777.6 34.56 
" style="fill: none; stroke: #000000; stroke-width: 0.8; stroke-linejoin: miter; stroke-linecap: square"/>
   </g>
   <g id="legend_1">
    <g id="patch_7">
     <path d="M 695.098438 71.91625 
L 770.6 71.91625 
Q 772.6 71.91625 772.6 69.91625 
L 772.6 41.56 
Q 772.6 39.56 770.6 39.56 
L 695.098438 39.56 
Q 693.098438 39.56 693.098438 41.56 
L 693.098438 69.91625 
Q 693.098438 71.91625 695.098438 71.91625 
z
" style="fill: #ffffff; opacity: 0.8; stroke: #cccccc; stroke-linejoin: miter"/>
    </g>
    <g id="line2d_25">
     <path d="M 697.098438 47.658437 
L 707.098438 47.658437 
L 717.098438 47.658437 
" style="fill: none; stroke: #000000; stroke-width: 1.5; stroke-linecap: square"/>
    </g>
    <g id="text_14">
     <!-- Soma -->
     <g transform="translate(725.098438 51.158437) scale(0.1 -0.1)">
      <defs>
       <path id="DejaVuSans-53" d="M 3425 4513 
L 3425 3897 
Q 3066 4069 2747 4153 
Q 2428 4238 2131 4238 
Q 1616 4238 1336 4038 
Q 1056 3838 1056 3469 
Q 1056 3159 1242 3001 
Q 1428 2844 1947 2747 
L 2328 2669 
Q 3034 2534 3370 2195 
Q 3706 1856 3706 1288 
Q 3706 609 3251 259 
Q 2797 -91 1919 -91 
Q 1588 -91 1214 -16 
Q 841 59 441 206 
L 441 856 
Q 825 641 1194 531 
Q 1563 422 1919 422 
Q 2459 422 2753 634 
Q 3047 847 3047 1241 
Q 3047 1584 2836 1778 
Q 2625 1972 2144 2069 
L 1759 2144 
Q 1053 2284 737 2584 
Q 422 2884 422 3419 
Q 422 4038 858 4394 
Q 1294 4750 2059 4750 
Q 2388 4750 2728 4690 
Q 3069 4631 3425 4513 
z
" transform="scale(0.015625)"/>
       <path id="DejaVuSans-6f" d="M 1959 3097 
Q 1497 3097 1228 2736 
Q 959 2375 959 1747 
Q 959 1119 1226 758 
Q 1494 397 1959 397 
Q 2419 397 2687 759 
Q 2956 1122 2956 1747 
Q 2956 2369 2687 2733 
Q 2419 3097 1959 3097 
z
M 1959 3584 
Q 2709 3584 3137 3096 
Q 3566 2609 3566 1747 
Q 3566 888 3137 398 
Q 2709 -91 1959 -91 
Q 1206 -91 779 398 
Q 353 888 353 1747 
Q 353 2609 779 3096 
Q 1206 3584 1959 3584 
z
" transform="scale(0.015625)"/>
       <path id="DejaVuSans-61" d="M 2194 1759 
Q 1497 1759 1228 1600 
Q 959 1441 959 1056 
Q 959 750 1161 570 
Q 1363 391 1709 391 
Q 2188 391 2477 730 
Q 2766 1069 2766 1631 
L 2766 1759 
L 2194 1759 
z
M 3341 1997 
L 3341 0 
L 2766 0 
L 2766 531 
Q 2569 213 2275 61 
Q 1981 -91 1556 -91 
Q 1019 -91 701 211 
Q 384 513 384 1019 
Q 384 1609 779 1909 
Q 1175 2209 1959 2209 
L 2766 2209 
L 2766 2266 
Q 2766 2663 2505 2880 
Q 2244 3097 1772 3097 
Q 1472 3097 1187 3025 
Q 903 2953 641 2809 
L 641 3341 
Q 956 3463 1253 3523 
Q 1550 3584 1831 3584 
Q 2591 3584 2966 3190 
Q 3341 2797 3341 1997 
z
" transform="scale(0.015625)"/>
      </defs>
      <use xlink:href="#DejaVuSans-53"/>
      <use xlink:href="#DejaVuSans-6f" x="63.476562"/>
      <use xlink:href="#DejaVuSans-6d" x="124.658203"/>
      <use xlink:href="#DejaVuSans-61" x="222.070312"/>
     </g>
    </g>
    <g id="line2d_26">
     <path d="M 697.098438 62.336562 
L 707.098438 62.336562 
L 717.098438 62.336562 
" style="fill: none; stroke: #4169e1; stroke-width: 1.5; stroke-linecap: square"/>
    </g>
    <g id="text_15">
     <!-- Dendrite -->
     <g transform="translate(725.098438 65.836562) scale(0.1 -0.1)">
      <defs>
       <path id="DejaVuSans-44" d="M 1259 4147 
L 1259 519 
L 2022 519 
Q 2988 519 3436 956 
Q 3884 1394 3884 2338 
Q 3884 3275 3436 3711 
Q 2988 4147 2022 4147 
L 1259 4147 
z
M 628 4666 
L 1925 4666 
Q 3281 4666 3915 4102 
Q 4550 3538 4550 2338 
Q 4550 1131 3912 565 
Q 3275 0 1925 0 
L 628 0 
L 628 4666 
z
" transform="scale(0.015625)"/>
       <path id="DejaVuSans-6e" d="M 3513 2113 
L 3513 0 
L 2938 0 
L 2938 2094 
Q 2938 2591 2744 2837 
Q 2550 3084 2163 3084 
Q 1697 3084 1428 2787 
Q 1159 2491 1159 1978 
L 1159 0 
L 581 0 
L 581 3500 
L 1159 3500 
L 1159 2956 
Q 1366 3272 1645 3428 
Q 1925 3584 2291 3584 
Q 2894 3584 3203 3211 
Q 3513 2838 3513 2113 
z
" transform="scale(0.015625)"/>
       <path id="DejaVuSans-64" d="M 2906 2969 
L 2906 4863 
L 3481 4863 
L 3481 0 
L 2906 0 
L 2906 525 
Q 2725 213 2448 61 
Q 2172 -91 1784 -91 
Q 1150 -91 751 415 
Q 353 922 353 1747 
Q 353 2572 751 3078 
Q 1150 3584 1784 3584 
Q 2172 3584 2448 3432 
Q 2725 3281 2906 2969 
z
M 947 1747 
Q 947 1113 1208 752 
Q 1469 391 1925 391 
Q 2381 391 2643 752 
Q 2906 1113 2906 1747 
Q 2906 2381 2643 2742 
Q 2381 3103 1925 3103 
Q 1469 3103 1208 2742 
Q 947 2381 947 1747 
z
" transform="scale(0.015625)"/>
       <path id="DejaVuSans-72" d="M 2631 2963 
Q 2534 3019 2420 3045 
Q 2306 3072 2169 3072 
Q 1681 3072 1420 2755 
Q 1159 2438 1159 1844 
L 1159 0 
L 581 0 
L 581 3500 
L 1159 3500 
L 1159 2956 
Q 1341 3275 1631 3429 
Q 1922 3584 2338 3584 
Q 2397 3584 2469 3576 
Q 2541 3569 2628 3553 
L 2631 2963 
z
" transform="scale(0.015625)"/>
       <path id="DejaVuSans-74" d="M 1172 4494 
L 1172 3500 
L 2356 3500 
L 2356 3053 
L 1172 3053 
L 1172 1153 
Q 1172 725 1289 603 
Q 1406 481 1766 481 
L 2356 481 
L 2356 0 
L 1766 0 
Q 1100 0 847 248 
Q 594 497 594 1153 
L 594 3053 
L 172 3053 
L 172 3500 
L 594 3500 
L 594 4494 
L 1172 4494 
z
" transform="scale(0.015625)"/>
      </defs>
      <use xlink:href="#DejaVuSans-44"/>
      <use xlink:href="#DejaVuSans-65" x="77.001953"/>
      <use xlink:href="#DejaVuSans-6e" x="138.525391"/>
      <use xlink:href="#DejaVuSans-64" x="201.904297"/>
      <use xlink:href="#DejaVuSans-72" x="265.380859"/>
      <use xlink:href="#DejaVuSans-69" x="306.494141"/>
      <use xlink:href="#DejaVuSans-74" x="334.277344"/>
      <use xlink:href="#DejaVuSans-65" x="373.486328"/>
     </g>
    </g>
   </g>
  </g>
 </g>
 <defs>
  <clipPath id="p44ed510444">
   <rect x="108" y="34.56" width="669.6" height="221.76"/>
  </clipPath>
 </defs>
</svg>
