<?xml version="1.0" encoding="utf-8" standalone="no"?>
<!DOCTYPE svg PUBLIC "-//W3C//DTD SVG 1.1//EN"
  "http://www.w3.org/Graphics/SVG/1.1/DTD/svg11.dtd">
<svg xmlns:xlink="http://www.w3.org/1999/xlink" width="864pt" height="288pt" viewBox="0 0 864 288" xmlns="http://www.w3.org/2000/svg" version="1.1">
 <metadata>
  <rdf:RDF xmlns:dc="http://purl.org/dc/elements/1.1/" xmlns:cc="http://creativecommons.org/ns#" xmlns:rdf="http://www.w3.org/1999/02/22-rdf-syntax-ns#">
   <cc:Work>
    <dc:type rdf:resource="http://purl.org/dc/dcmitype/StillImage"/>
    <dc:date>2024-04-26T13:22:56.200517</dc:date>
    <dc:format>image/svg+xml</dc:format>
    <dc:creator>
     <cc:Agent>
      <dc:title>Matplotlib v3.8.2, https://matplotlib.org/</dc:title>
     </cc:Agent>
    </dc:creator>
   </cc:Work>
  </rdf:RDF>
 </metadata>
 <defs>
  <style type="text/css">*{stroke-linejoin: round; stroke-linecap: butt}</style>
 </defs>
 <g id="figure_1">
  <g id="patch_1">
   <path d="M 0 288 
L 864 288 
L 864 0 
L 0 0 
z
" style="fill: #ffffff"/>
  </g>
  <g id="axes_1">
   <g id="patch_2">
    <path d="M 108 256.32 
L 777.6 256.32 
L 777.6 34.56 
L 108 34.56 
z
" style="fill: #ffffff"/>
   </g>
   <g id="matplotlib.axis_1">
    <g id="xtick_1">
     <g id="line2d_1">
      <path d="M 108 256.32 
L 108 34.56 
" clip-path="url(#p90cde79ea9)" style="fill: none; stroke: #b0b0b0; stroke-width: 0.8; stroke-linecap: square"/>
     </g>
     <g id="line2d_2">
      <defs>
       <path id="mc90a6cfc1b" d="M 0 0 
L 0 3.5 
" style="stroke: #000000; stroke-width: 0.8"/>
      </defs>
      <g>
       <use xlink:href="#mc90a6cfc1b" x="108" y="256.32" style="stroke: #000000; stroke-width: 0.8"/>
      </g>
     </g>
     <g id="text_1">
      <!-- 100 -->
      <g transform="translate(94.63875 273.957812) scale(0.14 -0.14)">
       <defs>
        <path id="DejaVuSans-31" d="M 794 531 
L 1825 531 
L 1825 4091 
L 703 3866 
L 703 4441 
L 1819 4666 
L 2450 4666 
L 2450 531 
L 3481 531 
L 3481 0 
L 794 0 
L 794 531 
z
" transform="scale(0.015625)"/>
        <path id="DejaVuSans-30" d="M 2034 4250 
Q 1547 4250 1301 3770 
Q 1056 3291 1056 2328 
Q 1056 1369 1301 889 
Q 1547 409 2034 409 
Q 2525 409 2770 889 
Q 3016 1369 3016 2328 
Q 3016 3291 2770 3770 
Q 2525 4250 2034 4250 
z
M 2034 4750 
Q 2819 4750 3233 4129 
Q 3647 3509 3647 2328 
Q 3647 1150 3233 529 
Q 2819 -91 2034 -91 
Q 1250 -91 836 529 
Q 422 1150 422 2328 
Q 422 3509 836 4129 
Q 1250 4750 2034 4750 
z
" transform="scale(0.015625)"/>
       </defs>
       <use xlink:href="#DejaVuSans-31"/>
       <use xlink:href="#DejaVuSans-30" x="63.623047"/>
       <use xlink:href="#DejaVuSans-30" x="127.246094"/>
      </g>
     </g>
    </g>
    <g id="xtick_2">
     <g id="line2d_3">
      <path d="M 241.92 256.32 
L 241.92 34.56 
" clip-path="url(#p90cde79ea9)" style="fill: none; stroke: #b0b0b0; stroke-width: 0.8; stroke-linecap: square"/>
     </g>
     <g id="line2d_4">
      <g>
       <use xlink:href="#mc90a6cfc1b" x="241.92" y="256.32" style="stroke: #000000; stroke-width: 0.8"/>
      </g>
     </g>
     <g id="text_2">
      <!-- 120 -->
      <g transform="translate(228.55875 273.957812) scale(0.14 -0.14)">
       <defs>
        <path id="DejaVuSans-32" d="M 1228 531 
L 3431 531 
L 3431 0 
L 469 0 
L 469 531 
Q 828 903 1448 1529 
Q 2069 2156 2228 2338 
Q 2531 2678 2651 2914 
Q 2772 3150 2772 3378 
Q 2772 3750 2511 3984 
Q 2250 4219 1831 4219 
Q 1534 4219 1204 4116 
Q 875 4013 500 3803 
L 500 4441 
Q 881 4594 1212 4672 
Q 1544 4750 1819 4750 
Q 2544 4750 2975 4387 
Q 3406 4025 3406 3419 
Q 3406 3131 3298 2873 
Q 3191 2616 2906 2266 
Q 2828 2175 2409 1742 
Q 1991 1309 1228 531 
z
" transform="scale(0.015625)"/>
       </defs>
       <use xlink:href="#DejaVuSans-31"/>
       <use xlink:href="#DejaVuSans-32" x="63.623047"/>
       <use xlink:href="#DejaVuSans-30" x="127.246094"/>
      </g>
     </g>
    </g>
    <g id="xtick_3">
     <g id="line2d_5">
      <path d="M 375.84 256.32 
L 375.84 34.56 
" clip-path="url(#p90cde79ea9)" style="fill: none; stroke: #b0b0b0; stroke-width: 0.8; stroke-linecap: square"/>
     </g>
     <g id="line2d_6">
      <g>
       <use xlink:href="#mc90a6cfc1b" x="375.84" y="256.32" style="stroke: #000000; stroke-width: 0.8"/>
      </g>
     </g>
     <g id="text_3">
      <!-- 140 -->
      <g transform="translate(362.47875 273.957812) scale(0.14 -0.14)">
       <defs>
        <path id="DejaVuSans-34" d="M 2419 4116 
L 825 1625 
L 2419 1625 
L 2419 4116 
z
M 2253 4666 
L 3047 4666 
L 3047 1625 
L 3713 1625 
L 3713 1100 
L 3047 1100 
L 3047 0 
L 2419 0 
L 2419 1100 
L 313 1100 
L 313 1709 
L 2253 4666 
z
" transform="scale(0.015625)"/>
       </defs>
       <use xlink:href="#DejaVuSans-31"/>
       <use xlink:href="#DejaVuSans-34" x="63.623047"/>
       <use xlink:href="#DejaVuSans-30" x="127.246094"/>
      </g>
     </g>
    </g>
    <g id="xtick_4">
     <g id="line2d_7">
      <path d="M 509.76 256.32 
L 509.76 34.56 
" clip-path="url(#p90cde79ea9)" style="fill: none; stroke: #b0b0b0; stroke-width: 0.8; stroke-linecap: square"/>
     </g>
     <g id="line2d_8">
      <g>
       <use xlink:href="#mc90a6cfc1b" x="509.76" y="256.32" style="stroke: #000000; stroke-width: 0.8"/>
      </g>
     </g>
     <g id="text_4">
      <!-- 160 -->
      <g transform="translate(496.39875 273.957812) scale(0.14 -0.14)">
       <defs>
        <path id="DejaVuSans-36" d="M 2113 2584 
Q 1688 2584 1439 2293 
Q 1191 2003 1191 1497 
Q 1191 994 1439 701 
Q 1688 409 2113 409 
Q 2538 409 2786 701 
Q 3034 994 3034 1497 
Q 3034 2003 2786 2293 
Q 2538 2584 2113 2584 
z
M 3366 4563 
L 3366 3988 
Q 3128 4100 2886 4159 
Q 2644 4219 2406 4219 
Q 1781 4219 1451 3797 
Q 1122 3375 1075 2522 
Q 1259 2794 1537 2939 
Q 1816 3084 2150 3084 
Q 2853 3084 3261 2657 
Q 3669 2231 3669 1497 
Q 3669 778 3244 343 
Q 2819 -91 2113 -91 
Q 1303 -91 875 529 
Q 447 1150 447 2328 
Q 447 3434 972 4092 
Q 1497 4750 2381 4750 
Q 2619 4750 2861 4703 
Q 3103 4656 3366 4563 
z
" transform="scale(0.015625)"/>
       </defs>
       <use xlink:href="#DejaVuSans-31"/>
       <use xlink:href="#DejaVuSans-36" x="63.623047"/>
       <use xlink:href="#DejaVuSans-30" x="127.246094"/>
      </g>
     </g>
    </g>
    <g id="xtick_5">
     <g id="line2d_9">
      <path d="M 643.68 256.32 
L 643.68 34.56 
" clip-path="url(#p90cde79ea9)" style="fill: none; stroke: #b0b0b0; stroke-width: 0.8; stroke-linecap: square"/>
     </g>
     <g id="line2d_10">
      <g>
       <use xlink:href="#mc90a6cfc1b" x="643.68" y="256.32" style="stroke: #000000; stroke-width: 0.8"/>
      </g>
     </g>
     <g id="text_5">
      <!-- 180 -->
      <g transform="translate(630.31875 273.957812) scale(0.14 -0.14)">
       <defs>
        <path id="DejaVuSans-38" d="M 2034 2216 
Q 1584 2216 1326 1975 
Q 1069 1734 1069 1313 
Q 1069 891 1326 650 
Q 1584 409 2034 409 
Q 2484 409 2743 651 
Q 3003 894 3003 1313 
Q 3003 1734 2745 1975 
Q 2488 2216 2034 2216 
z
M 1403 2484 
Q 997 2584 770 2862 
Q 544 3141 544 3541 
Q 544 4100 942 4425 
Q 1341 4750 2034 4750 
Q 2731 4750 3128 4425 
Q 3525 4100 3525 3541 
Q 3525 3141 3298 2862 
Q 3072 2584 2669 2484 
Q 3125 2378 3379 2068 
Q 3634 1759 3634 1313 
Q 3634 634 3220 271 
Q 2806 -91 2034 -91 
Q 1263 -91 848 271 
Q 434 634 434 1313 
Q 434 1759 690 2068 
Q 947 2378 1403 2484 
z
M 1172 3481 
Q 1172 3119 1398 2916 
Q 1625 2713 2034 2713 
Q 2441 2713 2670 2916 
Q 2900 3119 2900 3481 
Q 2900 3844 2670 4047 
Q 2441 4250 2034 4250 
Q 1625 4250 1398 4047 
Q 1172 3844 1172 3481 
z
" transform="scale(0.015625)"/>
       </defs>
       <use xlink:href="#DejaVuSans-31"/>
       <use xlink:href="#DejaVuSans-38" x="63.623047"/>
       <use xlink:href="#DejaVuSans-30" x="127.246094"/>
      </g>
     </g>
    </g>
    <g id="xtick_6">
     <g id="line2d_11">
      <path d="M 777.6 256.32 
L 777.6 34.56 
" clip-path="url(#p90cde79ea9)" style="fill: none; stroke: #b0b0b0; stroke-width: 0.8; stroke-linecap: square"/>
     </g>
     <g id="line2d_12">
      <g>
       <use xlink:href="#mc90a6cfc1b" x="777.6" y="256.32" style="stroke: #000000; stroke-width: 0.8"/>
      </g>
     </g>
     <g id="text_6">
      <!-- 200 -->
      <g transform="translate(764.23875 273.957812) scale(0.14 -0.14)">
       <use xlink:href="#DejaVuSans-32"/>
       <use xlink:href="#DejaVuSans-30" x="63.623047"/>
       <use xlink:href="#DejaVuSans-30" x="127.246094"/>
      </g>
     </g>
    </g>
    <g id="text_7">
     <!-- Time (ms) -->
     <g transform="translate(407.521094 291.507187) scale(0.14 -0.14)">
      <defs>
       <path id="DejaVuSans-54" d="M -19 4666 
L 3928 4666 
L 3928 4134 
L 2272 4134 
L 2272 0 
L 1638 0 
L 1638 4134 
L -19 4134 
L -19 4666 
z
" transform="scale(0.015625)"/>
       <path id="DejaVuSans-69" d="M 603 3500 
L 1178 3500 
L 1178 0 
L 603 0 
L 603 3500 
z
M 603 4863 
L 1178 4863 
L 1178 4134 
L 603 4134 
L 603 4863 
z
" transform="scale(0.015625)"/>
       <path id="DejaVuSans-6d" d="M 3328 2828 
Q 3544 3216 3844 3400 
Q 4144 3584 4550 3584 
Q 5097 3584 5394 3201 
Q 5691 2819 5691 2113 
L 5691 0 
L 5113 0 
L 5113 2094 
Q 5113 2597 4934 2840 
Q 4756 3084 4391 3084 
Q 3944 3084 3684 2787 
Q 3425 2491 3425 1978 
L 3425 0 
L 2847 0 
L 2847 2094 
Q 2847 2600 2669 2842 
Q 2491 3084 2119 3084 
Q 1678 3084 1418 2786 
Q 1159 2488 1159 1978 
L 1159 0 
L 581 0 
L 581 3500 
L 1159 3500 
L 1159 2956 
Q 1356 3278 1631 3431 
Q 1906 3584 2284 3584 
Q 2666 3584 2933 3390 
Q 3200 3197 3328 2828 
z
" transform="scale(0.015625)"/>
       <path id="DejaVuSans-65" d="M 3597 1894 
L 3597 1613 
L 953 1613 
Q 991 1019 1311 708 
Q 1631 397 2203 397 
Q 2534 397 2845 478 
Q 3156 559 3463 722 
L 3463 178 
Q 3153 47 2828 -22 
Q 2503 -91 2169 -91 
Q 1331 -91 842 396 
Q 353 884 353 1716 
Q 353 2575 817 3079 
Q 1281 3584 2069 3584 
Q 2775 3584 3186 3129 
Q 3597 2675 3597 1894 
z
M 3022 2063 
Q 3016 2534 2758 2815 
Q 2500 3097 2075 3097 
Q 1594 3097 1305 2825 
Q 1016 2553 972 2059 
L 3022 2063 
z
" transform="scale(0.015625)"/>
       <path id="DejaVuSans-20" transform="scale(0.015625)"/>
       <path id="DejaVuSans-28" d="M 1984 4856 
Q 1566 4138 1362 3434 
Q 1159 2731 1159 2009 
Q 1159 1288 1364 580 
Q 1569 -128 1984 -844 
L 1484 -844 
Q 1016 -109 783 600 
Q 550 1309 550 2009 
Q 550 2706 781 3412 
Q 1013 4119 1484 4856 
L 1984 4856 
z
" transform="scale(0.015625)"/>
       <path id="DejaVuSans-73" d="M 2834 3397 
L 2834 2853 
Q 2591 2978 2328 3040 
Q 2066 3103 1784 3103 
Q 1356 3103 1142 2972 
Q 928 2841 928 2578 
Q 928 2378 1081 2264 
Q 1234 2150 1697 2047 
L 1894 2003 
Q 2506 1872 2764 1633 
Q 3022 1394 3022 966 
Q 3022 478 2636 193 
Q 2250 -91 1575 -91 
Q 1294 -91 989 -36 
Q 684 19 347 128 
L 347 722 
Q 666 556 975 473 
Q 1284 391 1588 391 
Q 1994 391 2212 530 
Q 2431 669 2431 922 
Q 2431 1156 2273 1281 
Q 2116 1406 1581 1522 
L 1381 1569 
Q 847 1681 609 1914 
Q 372 2147 372 2553 
Q 372 3047 722 3315 
Q 1072 3584 1716 3584 
Q 2034 3584 2315 3537 
Q 2597 3491 2834 3397 
z
" transform="scale(0.015625)"/>
       <path id="DejaVuSans-29" d="M 513 4856 
L 1013 4856 
Q 1481 4119 1714 3412 
Q 1947 2706 1947 2009 
Q 1947 1309 1714 600 
Q 1481 -109 1013 -844 
L 513 -844 
Q 928 -128 1133 580 
Q 1338 1288 1338 2009 
Q 1338 2731 1133 3434 
Q 928 4138 513 4856 
z
" transform="scale(0.015625)"/>
      </defs>
      <use xlink:href="#DejaVuSans-54"/>
      <use xlink:href="#DejaVuSans-69" x="57.958984"/>
      <use xlink:href="#DejaVuSans-6d" x="85.742188"/>
      <use xlink:href="#DejaVuSans-65" x="183.154297"/>
      <use xlink:href="#DejaVuSans-20" x="244.677734"/>
      <use xlink:href="#DejaVuSans-28" x="276.464844"/>
      <use xlink:href="#DejaVuSans-6d" x="315.478516"/>
      <use xlink:href="#DejaVuSans-73" x="412.890625"/>
      <use xlink:href="#DejaVuSans-29" x="464.990234"/>
     </g>
    </g>
   </g>
   <g id="matplotlib.axis_2">
    <g id="ytick_1">
     <g id="line2d_13">
      <path d="M 108 224.199266 
L 777.6 224.199266 
" clip-path="url(#p90cde79ea9)" style="fill: none; stroke: #b0b0b0; stroke-width: 0.8; stroke-linecap: square"/>
     </g>
     <g id="line2d_14">
      <defs>
       <path id="m1e4c8e2fb5" d="M 0 0 
L -3.5 0 
" style="stroke: #000000; stroke-width: 0.8"/>
      </defs>
      <g>
       <use xlink:href="#m1e4c8e2fb5" x="108" y="224.199266" style="stroke: #000000; stroke-width: 0.8"/>
      </g>
     </g>
     <g id="text_8">
      <!-- −60 -->
      <g transform="translate(71.453437 229.518173) scale(0.14 -0.14)">
       <defs>
        <path id="DejaVuSans-2212" d="M 678 2272 
L 4684 2272 
L 4684 1741 
L 678 1741 
L 678 2272 
z
" transform="scale(0.015625)"/>
       </defs>
       <use xlink:href="#DejaVuSans-2212"/>
       <use xlink:href="#DejaVuSans-36" x="83.789062"/>
       <use xlink:href="#DejaVuSans-30" x="147.412109"/>
      </g>
     </g>
    </g>
    <g id="ytick_2">
     <g id="line2d_15">
      <path d="M 108 180.188039 
L 777.6 180.188039 
" clip-path="url(#p90cde79ea9)" style="fill: none; stroke: #b0b0b0; stroke-width: 0.8; stroke-linecap: square"/>
     </g>
     <g id="line2d_16">
      <g>
       <use xlink:href="#m1e4c8e2fb5" x="108" y="180.188039" style="stroke: #000000; stroke-width: 0.8"/>
      </g>
     </g>
     <g id="text_9">
      <!-- −40 -->
      <g transform="translate(71.453437 185.506945) scale(0.14 -0.14)">
       <use xlink:href="#DejaVuSans-2212"/>
       <use xlink:href="#DejaVuSans-34" x="83.789062"/>
       <use xlink:href="#DejaVuSans-30" x="147.412109"/>
      </g>
     </g>
    </g>
    <g id="ytick_3">
     <g id="line2d_17">
      <path d="M 108 136.176811 
L 777.6 136.176811 
" clip-path="url(#p90cde79ea9)" style="fill: none; stroke: #b0b0b0; stroke-width: 0.8; stroke-linecap: square"/>
     </g>
     <g id="line2d_18">
      <g>
       <use xlink:href="#m1e4c8e2fb5" x="108" y="136.176811" style="stroke: #000000; stroke-width: 0.8"/>
      </g>
     </g>
     <g id="text_10">
      <!-- −20 -->
      <g transform="translate(71.453437 141.495717) scale(0.14 -0.14)">
       <use xlink:href="#DejaVuSans-2212"/>
       <use xlink:href="#DejaVuSans-32" x="83.789062"/>
       <use xlink:href="#DejaVuSans-30" x="147.412109"/>
      </g>
     </g>
    </g>
    <g id="ytick_4">
     <g id="line2d_19">
      <path d="M 108 92.165584 
L 777.6 92.165584 
" clip-path="url(#p90cde79ea9)" style="fill: none; stroke: #b0b0b0; stroke-width: 0.8; stroke-linecap: square"/>
     </g>
     <g id="line2d_20">
      <g>
       <use xlink:href="#m1e4c8e2fb5" x="108" y="92.165584" style="stroke: #000000; stroke-width: 0.8"/>
      </g>
     </g>
     <g id="text_11">
      <!-- 0 -->
      <g transform="translate(92.0925 97.48449) scale(0.14 -0.14)">
       <use xlink:href="#DejaVuSans-30"/>
      </g>
     </g>
    </g>
    <g id="ytick_5">
     <g id="line2d_21">
      <path d="M 108 48.154356 
L 777.6 48.154356 
" clip-path="url(#p90cde79ea9)" style="fill: none; stroke: #b0b0b0; stroke-width: 0.8; stroke-linecap: square"/>
     </g>
     <g id="line2d_22">
      <g>
       <use xlink:href="#m1e4c8e2fb5" x="108" y="48.154356" style="stroke: #000000; stroke-width: 0.8"/>
      </g>
     </g>
     <g id="text_12">
      <!-- 20 -->
      <g transform="translate(83.185 53.473262) scale(0.14 -0.14)">
       <use xlink:href="#DejaVuSans-32"/>
       <use xlink:href="#DejaVuSans-30" x="63.623047"/>
      </g>
     </g>
    </g>
    <g id="text_13">
     <!-- $V_{m}$ (mV) -->
     <g transform="translate(64.541875 174.49) rotate(-90) scale(0.14 -0.14)">
      <defs>
       <path id="DejaVuSans-Oblique-56" d="M 1319 0 
L 500 4666 
L 1119 4666 
L 1797 653 
L 4063 4666 
L 4750 4666 
L 2053 0 
L 1319 0 
z
" transform="scale(0.015625)"/>
       <path id="DejaVuSans-Oblique-6d" d="M 5747 2113 
L 5338 0 
L 4763 0 
L 5166 2094 
Q 5191 2228 5203 2325 
Q 5216 2422 5216 2491 
Q 5216 2772 5059 2928 
Q 4903 3084 4622 3084 
Q 4203 3084 3875 2770 
Q 3547 2456 3450 1953 
L 3066 0 
L 2491 0 
L 2900 2094 
Q 2925 2209 2937 2307 
Q 2950 2406 2950 2484 
Q 2950 2769 2794 2926 
Q 2638 3084 2363 3084 
Q 1938 3084 1609 2770 
Q 1281 2456 1184 1953 
L 800 0 
L 225 0 
L 909 3500 
L 1484 3500 
L 1375 2956 
Q 1609 3263 1923 3423 
Q 2238 3584 2597 3584 
Q 2978 3584 3223 3384 
Q 3469 3184 3519 2828 
Q 3781 3197 4126 3390 
Q 4472 3584 4856 3584 
Q 5306 3584 5551 3325 
Q 5797 3066 5797 2591 
Q 5797 2488 5784 2364 
Q 5772 2241 5747 2113 
z
" transform="scale(0.015625)"/>
       <path id="DejaVuSans-56" d="M 1831 0 
L 50 4666 
L 709 4666 
L 2188 738 
L 3669 4666 
L 4325 4666 
L 2547 0 
L 1831 0 
z
" transform="scale(0.015625)"/>
      </defs>
      <use xlink:href="#DejaVuSans-Oblique-56" transform="translate(0 0.125)"/>
      <use xlink:href="#DejaVuSans-Oblique-6d" transform="translate(68.408203 -16.28125) scale(0.7)"/>
      <use xlink:href="#DejaVuSans-20" transform="translate(139.331055 0.125)"/>
      <use xlink:href="#DejaVuSans-28" transform="translate(171.118164 0.125)"/>
      <use xlink:href="#DejaVuSans-6d" transform="translate(210.131836 0.125)"/>
      <use xlink:href="#DejaVuSans-56" transform="translate(307.543945 0.125)"/>
      <use xlink:href="#DejaVuSans-29" transform="translate(375.952148 0.125)"/>
     </g>
    </g>
   </g>
   <g id="line2d_23">
    <path d="M 108 221.266725 
L 109.3392 221.921647 
L 110.6784 222.344381 
L 111.348 222.49907 
L 112.6872 223.42572 
L 114.0264 223.86549 
L 116.0352 225.398358 
L 118.044 227.816092 
L 118.7136 228.90878 
L 119.3832 229.753293 
L 120.0528 230.289058 
L 120.7224 231.306377 
L 122.7312 233.550764 
L 124.0704 234.314033 
L 125.4096 234.802792 
L 127.4184 235.263659 
L 129.4272 235.503599 
L 132.1056 235.572243 
L 134.1144 235.473213 
L 136.1232 236.222496 
L 136.7928 237.019953 
L 137.4624 237.576076 
L 140.1408 238.700542 
L 141.48 238.944699 
L 144.1584 239.254366 
L 145.4976 239.497809 
L 147.5064 239.455217 
L 148.176 239.397433 
L 149.5152 239.716687 
L 150.8544 239.713856 
L 153.5328 239.382499 
L 156.8808 238.685991 
L 160.8984 237.57181 
L 164.916 236.220395 
L 169.6032 234.398368 
L 174.96 232.046922 
L 180.3168 229.456654 
L 186.3432 226.308137 
L 193.7088 222.19506 
L 198.396 219.464505 
L 199.7352 219.482446 
L 201.0744 219.086191 
L 203.7528 217.934707 
L 205.7616 216.969514 
L 207.1008 217.141817 
L 208.44 216.872059 
L 209.7792 217.268901 
L 211.1184 217.169064 
L 213.1272 216.695161 
L 216.4752 215.599059 
L 220.4928 214.030982 
L 225.8496 211.686567 
L 227.1888 211.986668 
L 227.8584 212.898257 
L 228.528 213.598743 
L 229.1976 213.937817 
L 230.5368 214.184894 
L 231.876 214.185683 
L 232.5456 214.135406 
L 234.5544 215.400689 
L 235.8936 217.292502 
L 236.5632 218.410677 
L 239.2416 221.58379 
L 239.9112 222.613276 
L 240.5808 224.09839 
L 241.2504 225.188586 
L 241.92 225.887544 
L 243.2592 226.800017 
L 244.5984 227.401461 
L 245.9376 228.444385 
L 246.6072 228.762125 
L 247.2768 229.333424 
L 247.9464 230.118337 
L 249.9552 231.899392 
L 251.2944 233.071835 
L 252.6336 233.676127 
L 253.9728 234.045233 
L 255.312 235.339541 
L 255.9816 235.963567 
L 256.6512 236.423622 
L 257.9904 236.937394 
L 259.9992 237.325313 
L 260.6688 237.397435 
L 262.008 237.972136 
L 263.3472 238.189526 
L 264.6864 238.256896 
L 267.3648 239.332481 
L 268.704 239.518922 
L 270.7128 239.520026 
L 272.052 239.897875 
L 273.3912 239.948132 
L 275.4 239.795781 
L 278.0784 239.386132 
L 281.4264 238.647447 
L 282.096 238.474807 
L 283.4352 238.611606 
L 284.7744 238.441814 
L 287.4528 237.812226 
L 290.8008 236.797142 
L 291.4704 236.57242 
L 292.8096 236.642699 
L 294.1488 236.39774 
L 296.8272 235.616304 
L 300.8448 234.167118 
L 305.532 232.216459 
L 310.8888 229.728585 
L 316.9152 226.667962 
L 323.6112 223.012971 
L 332.316 217.978077 
L 345.0384 210.323946 
L 346.3776 210.459758 
L 347.7168 210.140418 
L 349.7256 209.363201 
L 353.0736 207.822952 
L 354.4128 207.151973 
L 355.752 208.4531 
L 356.4216 208.724691 
L 357.0912 209.334383 
L 357.7608 209.793524 
L 358.4304 210.52069 
L 359.1 211.54559 
L 359.7696 212.264715 
L 360.4392 212.695574 
L 361.7784 213.172246 
L 363.1176 215.077552 
L 363.7872 216.020769 
L 364.4568 216.722299 
L 366.4656 218.170572 
L 367.1352 218.712462 
L 367.8048 219.064184 
L 369.144 220.258872 
L 370.4832 220.853351 
L 371.8224 221.191883 
L 372.492 221.306545 
L 373.8312 222.890707 
L 374.5008 224.421782 
L 375.1704 225.598509 
L 375.84 226.306531 
L 377.1792 227.177313 
L 378.5184 227.726011 
L 379.188 227.92974 
L 379.8576 228.438715 
L 381.8664 230.661796 
L 382.536 231.05837 
L 383.8752 232.142989 
L 384.5448 232.465301 
L 386.5536 234.025997 
L 387.2232 234.474922 
L 388.5624 234.985587 
L 391.2408 235.746072 
L 391.9104 236.314796 
L 392.58 236.707248 
L 393.9192 237.091966 
L 395.928 237.31988 
L 399.276 237.553779 
L 402.624 238.361488 
L 403.2936 238.387764 
L 405.972 239.404842 
L 407.3112 239.55104 
L 407.9808 239.55532 
L 409.32 239.962883 
L 410.6592 240.02803 
L 412.668 239.88537 
L 415.3464 239.477887 
L 418.6944 238.734962 
L 422.712 237.58357 
L 426.7296 236.203623 
L 428.0688 236.245445 
L 429.408 235.972797 
L 432.0864 235.140356 
L 436.104 233.625759 
L 440.7912 231.611583 
L 446.148 229.063903 
L 452.1744 225.949131 
L 459.54 221.8669 
L 468.9144 216.377449 
L 472.932 213.966809 
L 474.2712 214.054224 
L 475.6104 213.696734 
L 476.9496 213.174529 
L 478.2888 213.485816 
L 479.628 213.312743 
L 481.6368 212.736243 
L 483.6456 212.017749 
L 484.9848 212.404654 
L 485.6544 212.874245 
L 486.324 213.200647 
L 487.6632 213.349277 
L 489.0024 213.247628 
L 490.3416 214.759061 
L 491.0112 215.101544 
L 491.6808 215.736688 
L 492.3504 216.656221 
L 493.02 217.296139 
L 493.6896 217.67885 
L 494.3592 218.355576 
L 495.0288 219.298699 
L 495.6984 219.970094 
L 497.7072 221.313199 
L 498.3768 221.813053 
L 499.716 222.360832 
L 501.0552 222.661229 
L 502.3944 223.534076 
L 503.7336 223.919629 
L 504.4032 224.02632 
L 505.7424 224.834166 
L 507.0816 225.168623 
L 507.7512 225.253107 
L 508.4208 225.672978 
L 510.4296 228.882727 
L 511.0992 229.599505 
L 512.4384 230.400505 
L 513.7776 230.864144 
L 515.1168 231.735346 
L 515.7864 232.600795 
L 516.456 233.272547 
L 517.1256 233.678853 
L 519.804 237.06084 
L 521.1432 237.797993 
L 522.4824 238.24353 
L 523.152 238.40437 
L 523.8216 238.7955 
L 524.4912 239.364424 
L 526.5 240.628512 
L 527.8392 241.461127 
L 529.1784 241.84146 
L 529.848 241.954881 
L 531.1872 242.519478 
L 532.5264 242.742785 
L 534.5352 242.826116 
L 537.2136 242.690757 
L 540.5616 242.247015 
L 543.9096 241.567285 
L 547.9272 240.499586 
L 551.9448 239.202414 
L 556.632 237.444992 
L 561.9888 235.164432 
L 567.3456 232.638832 
L 573.372 229.552171 
L 580.068 225.87285 
L 588.1032 221.193178 
L 599.4864 214.27028 
L 602.1648 212.619091 
L 603.504 212.708934 
L 604.8432 212.349779 
L 607.5216 211.22962 
L 611.5392 209.273582 
L 613.548 208.236218 
L 614.8872 208.511542 
L 616.2264 208.325467 
L 618.2352 207.712505 
L 621.5832 206.382731 
L 622.9224 205.789254 
L 624.2616 206.192967 
L 624.9312 206.214746 
L 625.6008 206.675262 
L 626.2704 207.555572 
L 626.94 208.188375 
L 627.6096 208.550785 
L 628.9488 208.895671 
L 629.6184 208.962622 
L 630.288 209.483606 
L 630.9576 210.876269 
L 631.6272 211.935729 
L 632.2968 212.56116 
L 633.636 213.273867 
L 634.9752 214.499321 
L 635.6448 214.847162 
L 636.984 216.084963 
L 637.6536 216.436369 
L 638.9928 219.586048 
L 639.6624 220.647382 
L 640.332 221.340881 
L 641.6712 222.951123 
L 642.3408 223.456355 
L 643.0104 224.216934 
L 643.68 225.195842 
L 644.3496 225.920939 
L 645.0192 226.419982 
L 646.3584 227.740056 
L 648.3672 229.076314 
L 649.0368 229.89163 
L 649.7064 230.489168 
L 653.0544 232.505587 
L 653.724 233.038582 
L 654.3936 233.762284 
L 658.4112 236.912831 
L 659.7504 238.456151 
L 660.42 239.006803 
L 661.7592 239.63975 
L 663.0984 240.018148 
L 665.1072 240.342222 
L 668.4552 240.723033 
L 669.7944 240.985037 
L 671.8032 240.994011 
L 674.4816 240.756488 
L 677.8296 240.204043 
L 681.1776 239.431935 
L 685.1952 238.268468 
L 689.2128 236.887428 
L 693.9 235.043536 
L 695.2392 235.042394 
L 696.5784 234.722253 
L 699.2568 233.795325 
L 703.2744 232.15226 
L 708.6312 229.686538 
L 714.6576 226.638056 
L 721.3536 222.991404 
L 729.3888 218.358989 
L 741.4416 211.13187 
L 742.7808 210.317655 
L 744.12 210.45414 
L 745.4592 210.135436 
L 747.468 209.35912 
L 748.8072 209.729788 
L 750.1464 209.611251 
L 752.1552 209.092197 
L 753.4944 209.609411 
L 754.8336 209.621767 
L 756.1728 209.419371 
L 757.512 210.062786 
L 758.8512 210.182801 
L 760.1904 210.07751 
L 761.5296 210.793035 
L 762.1992 210.930482 
L 763.5384 211.873675 
L 764.8776 212.202967 
L 765.5472 212.259318 
L 766.8864 213.138275 
L 768.2256 213.459127 
L 768.8952 213.519294 
L 770.2344 215.224388 
L 770.904 215.653925 
L 771.5736 215.925915 
L 774.252 218.334196 
L 775.5912 218.933027 
L 776.9304 219.251938 
L 777.6 219.765592 
L 777.6 219.765592 
" clip-path="url(#p90cde79ea9)" style="fill: none; stroke: #000000; stroke-width: 1.5; stroke-linecap: square"/>
   </g>
   <g id="line2d_24">
    <path d="M 108 217.574133 
L 110.6784 219.389156 
L 114.696 221.607431 
L 117.3744 223.157583 
L 119.3832 224.648363 
L 122.0616 226.941971 
L 124.74 229.258588 
L 126.7488 230.696935 
L 128.7576 231.860836 
L 130.7664 232.788344 
L 132.7752 233.511982 
L 138.132 235.168834 
L 142.8192 236.992423 
L 146.8368 238.082197 
L 150.1848 238.70722 
L 152.8632 239.074244 
L 155.5416 239.220273 
L 158.22 239.163065 
L 161.568 238.848732 
L 164.916 238.304228 
L 168.9336 237.393296 
L 172.9512 236.24408 
L 177.6384 234.650501 
L 182.3256 232.8286 
L 187.6824 230.514759 
L 193.7088 227.671283 
L 201.0744 224.142935 
L 208.44 221.362768 
L 210.4488 220.897032 
L 215.8056 219.829207 
L 219.8232 218.761705 
L 224.5104 217.273396 
L 227.1888 216.39537 
L 228.528 216.206597 
L 230.5368 216.280306 
L 235.224 216.665796 
L 236.5632 217.121715 
L 237.9024 217.81152 
L 239.9112 219.095424 
L 241.92 220.773063 
L 244.5984 223.017259 
L 253.3032 229.416098 
L 259.9992 233.687201 
L 263.3472 235.252067 
L 266.6952 236.494002 
L 270.0432 237.635979 
L 274.0608 238.628101 
L 276.7392 239.045787 
L 279.4176 239.223024 
L 282.7656 239.168285 
L 288.1224 238.909529 
L 291.4704 238.455708 
L 300.1752 236.991569 
L 304.1928 235.933942 
L 308.2104 234.660018 
L 312.8976 232.943946 
L 318.2544 230.729345 
L 324.2808 227.974771 
L 330.9768 224.659047 
L 339.012 220.428507 
L 347.0472 216.181435 
L 355.0824 212.977914 
L 356.4216 212.673854 
L 357.7608 212.592447 
L 359.1 212.734911 
L 361.1088 213.318042 
L 363.1176 214.053835 
L 365.1264 215.132533 
L 375.1704 220.933337 
L 379.188 224.032746 
L 382.536 226.377773 
L 387.2232 229.738721 
L 389.9016 231.455304 
L 394.5888 233.932599 
L 396.5976 234.794942 
L 399.276 235.65003 
L 409.32 238.388264 
L 411.9984 238.95804 
L 414.6768 239.288601 
L 417.3552 239.389172 
L 420.0336 239.294121 
L 423.3816 238.940519 
L 426.7296 238.362954 
L 436.104 236.496901 
L 440.1216 235.323884 
L 444.8088 233.706427 
L 450.1656 231.585252 
L 455.5224 229.224845 
L 461.5488 226.339882 
L 468.9144 222.564155 
L 474.9408 219.476806 
L 478.2888 218.218605 
L 484.3152 216.577918 
L 485.6544 216.310238 
L 487.6632 216.170921 
L 490.3416 216.174489 
L 491.6808 216.396468 
L 493.02 216.801811 
L 495.0288 217.638318 
L 503.7336 222.023394 
L 509.76 224.582595 
L 511.7688 225.915594 
L 514.4472 227.665533 
L 517.1256 229.361731 
L 519.1344 230.840461 
L 522.4824 233.439964 
L 526.5 235.985549 
L 529.848 237.988241 
L 532.5264 239.312213 
L 534.5352 240.110547 
L 536.544 240.717024 
L 539.2224 241.262641 
L 541.9008 241.551713 
L 544.5792 241.621829 
L 547.9272 241.446185 
L 551.2752 241.020852 
L 554.6232 240.383099 
L 558.6408 239.379573 
L 562.6584 238.155358 
L 567.3456 236.49219 
L 572.7024 234.332146 
L 578.7288 231.629854 
L 585.4248 228.355531 
L 592.7904 224.501105 
L 604.8432 218.077937 
L 613.548 214.398882 
L 615.5568 213.643852 
L 625.6008 210.668322 
L 626.94 210.621617 
L 629.6184 210.945315 
L 630.9576 211.205677 
L 632.2968 211.730392 
L 636.3144 213.73041 
L 638.3232 214.874 
L 639.6624 215.919405 
L 644.3496 220.193401 
L 648.3672 223.755915 
L 653.0544 227.529763 
L 659.7504 232.598128 
L 662.4288 234.68049 
L 664.4376 235.970428 
L 666.4464 237.00073 
L 669.1248 238.066371 
L 671.8032 238.946384 
L 674.4816 239.546974 
L 677.16 239.881753 
L 679.8384 239.989399 
L 682.5168 239.90165 
L 685.8648 239.555602 
L 689.2128 238.984122 
L 693.2304 238.046137 
L 696.5784 237.233005 
L 700.596 236.261693 
L 704.6136 235.061879 
L 709.3008 233.416641 
L 714.6576 231.270395 
L 720.684 228.579051 
L 727.38 225.317851 
L 735.4152 221.132286 
L 744.7896 216.171879 
L 748.1376 214.875991 
L 750.816 214.142965 
L 754.164 213.439106 
L 757.512 213.06858 
L 761.5296 213.014664 
L 763.5384 213.204353 
L 767.556 213.969057 
L 770.2344 214.663136 
L 772.9128 215.751059 
L 777.6 218.045517 
L 777.6 218.045517 
" clip-path="url(#p90cde79ea9)" style="fill: none; stroke: #4169e1; stroke-width: 1.5; stroke-linecap: square"/>
   </g>
   <g id="patch_3">
    <path d="M 108 256.32 
L 108 34.56 
" style="fill: none; stroke: #000000; stroke-width: 0.8; stroke-linejoin: miter; stroke-linecap: square"/>
   </g>
   <g id="patch_4">
    <path d="M 777.6 256.32 
L 777.6 34.56 
" style="fill: none; stroke: #000000; stroke-width: 0.8; stroke-linejoin: miter; stroke-linecap: square"/>
   </g>
   <g id="patch_5">
    <path d="M 108 256.32 
L 777.6 256.32 
" style="fill: none; stroke: #000000; stroke-width: 0.8; stroke-linejoin: miter; stroke-linecap: square"/>
   </g>
   <g id="patch_6">
    <path d="M 108 34.56 
L 777.6 34.56 
" style="fill: none; stroke: #000000; stroke-width: 0.8; stroke-linejoin: miter; stroke-linecap: square"/>
   </g>
   <g id="legend_1">
    <g id="patch_7">
     <path d="M 695.098438 71.91625 
L 770.6 71.91625 
Q 772.6 71.91625 772.6 69.91625 
L 772.6 41.56 
Q 772.6 39.56 770.6 39.56 
L 695.098438 39.56 
Q 693.098438 39.56 693.098438 41.56 
L 693.098438 69.91625 
Q 693.098438 71.91625 695.098438 71.91625 
z
" style="fill: #ffffff; opacity: 0.8; stroke: #cccccc; stroke-linejoin: miter"/>
    </g>
    <g id="line2d_25">
     <path d="M 697.098438 47.658437 
L 707.098438 47.658437 
L 717.098438 47.658437 
" style="fill: none; stroke: #000000; stroke-width: 1.5; stroke-linecap: square"/>
    </g>
    <g id="text_14">
     <!-- Soma -->
     <g transform="translate(725.098438 51.158437) scale(0.1 -0.1)">
      <defs>
       <path id="DejaVuSans-53" d="M 3425 4513 
L 3425 3897 
Q 3066 4069 2747 4153 
Q 2428 4238 2131 4238 
Q 1616 4238 1336 4038 
Q 1056 3838 1056 3469 
Q 1056 3159 1242 3001 
Q 1428 2844 1947 2747 
L 2328 2669 
Q 3034 2534 3370 2195 
Q 3706 1856 3706 1288 
Q 3706 609 3251 259 
Q 2797 -91 1919 -91 
Q 1588 -91 1214 -16 
Q 841 59 441 206 
L 441 856 
Q 825 641 1194 531 
Q 1563 422 1919 422 
Q 2459 422 2753 634 
Q 3047 847 3047 1241 
Q 3047 1584 2836 1778 
Q 2625 1972 2144 2069 
L 1759 2144 
Q 1053 2284 737 2584 
Q 422 2884 422 3419 
Q 422 4038 858 4394 
Q 1294 4750 2059 4750 
Q 2388 4750 2728 4690 
Q 3069 4631 3425 4513 
z
" transform="scale(0.015625)"/>
       <path id="DejaVuSans-6f" d="M 1959 3097 
Q 1497 3097 1228 2736 
Q 959 2375 959 1747 
Q 959 1119 1226 758 
Q 1494 397 1959 397 
Q 2419 397 2687 759 
Q 2956 1122 2956 1747 
Q 2956 2369 2687 2733 
Q 2419 3097 1959 3097 
z
M 1959 3584 
Q 2709 3584 3137 3096 
Q 3566 2609 3566 1747 
Q 3566 888 3137 398 
Q 2709 -91 1959 -91 
Q 1206 -91 779 398 
Q 353 888 353 1747 
Q 353 2609 779 3096 
Q 1206 3584 1959 3584 
z
" transform="scale(0.015625)"/>
       <path id="DejaVuSans-61" d="M 2194 1759 
Q 1497 1759 1228 1600 
Q 959 1441 959 1056 
Q 959 750 1161 570 
Q 1363 391 1709 391 
Q 2188 391 2477 730 
Q 2766 1069 2766 1631 
L 2766 1759 
L 2194 1759 
z
M 3341 1997 
L 3341 0 
L 2766 0 
L 2766 531 
Q 2569 213 2275 61 
Q 1981 -91 1556 -91 
Q 1019 -91 701 211 
Q 384 513 384 1019 
Q 384 1609 779 1909 
Q 1175 2209 1959 2209 
L 2766 2209 
L 2766 2266 
Q 2766 2663 2505 2880 
Q 2244 3097 1772 3097 
Q 1472 3097 1187 3025 
Q 903 2953 641 2809 
L 641 3341 
Q 956 3463 1253 3523 
Q 1550 3584 1831 3584 
Q 2591 3584 2966 3190 
Q 3341 2797 3341 1997 
z
" transform="scale(0.015625)"/>
      </defs>
      <use xlink:href="#DejaVuSans-53"/>
      <use xlink:href="#DejaVuSans-6f" x="63.476562"/>
      <use xlink:href="#DejaVuSans-6d" x="124.658203"/>
      <use xlink:href="#DejaVuSans-61" x="222.070312"/>
     </g>
    </g>
    <g id="line2d_26">
     <path d="M 697.098438 62.336562 
L 707.098438 62.336562 
L 717.098438 62.336562 
" style="fill: none; stroke: #4169e1; stroke-width: 1.5; stroke-linecap: square"/>
    </g>
    <g id="text_15">
     <!-- Dendrite -->
     <g transform="translate(725.098438 65.836562) scale(0.1 -0.1)">
      <defs>
       <path id="DejaVuSans-44" d="M 1259 4147 
L 1259 519 
L 2022 519 
Q 2988 519 3436 956 
Q 3884 1394 3884 2338 
Q 3884 3275 3436 3711 
Q 2988 4147 2022 4147 
L 1259 4147 
z
M 628 4666 
L 1925 4666 
Q 3281 4666 3915 4102 
Q 4550 3538 4550 2338 
Q 4550 1131 3912 565 
Q 3275 0 1925 0 
L 628 0 
L 628 4666 
z
" transform="scale(0.015625)"/>
       <path id="DejaVuSans-6e" d="M 3513 2113 
L 3513 0 
L 2938 0 
L 2938 2094 
Q 2938 2591 2744 2837 
Q 2550 3084 2163 3084 
Q 1697 3084 1428 2787 
Q 1159 2491 1159 1978 
L 1159 0 
L 581 0 
L 581 3500 
L 1159 3500 
L 1159 2956 
Q 1366 3272 1645 3428 
Q 1925 3584 2291 3584 
Q 2894 3584 3203 3211 
Q 3513 2838 3513 2113 
z
" transform="scale(0.015625)"/>
       <path id="DejaVuSans-64" d="M 2906 2969 
L 2906 4863 
L 3481 4863 
L 3481 0 
L 2906 0 
L 2906 525 
Q 2725 213 2448 61 
Q 2172 -91 1784 -91 
Q 1150 -91 751 415 
Q 353 922 353 1747 
Q 353 2572 751 3078 
Q 1150 3584 1784 3584 
Q 2172 3584 2448 3432 
Q 2725 3281 2906 2969 
z
M 947 1747 
Q 947 1113 1208 752 
Q 1469 391 1925 391 
Q 2381 391 2643 752 
Q 2906 1113 2906 1747 
Q 2906 2381 2643 2742 
Q 2381 3103 1925 3103 
Q 1469 3103 1208 2742 
Q 947 2381 947 1747 
z
" transform="scale(0.015625)"/>
       <path id="DejaVuSans-72" d="M 2631 2963 
Q 2534 3019 2420 3045 
Q 2306 3072 2169 3072 
Q 1681 3072 1420 2755 
Q 1159 2438 1159 1844 
L 1159 0 
L 581 0 
L 581 3500 
L 1159 3500 
L 1159 2956 
Q 1341 3275 1631 3429 
Q 1922 3584 2338 3584 
Q 2397 3584 2469 3576 
Q 2541 3569 2628 3553 
L 2631 2963 
z
" transform="scale(0.015625)"/>
       <path id="DejaVuSans-74" d="M 1172 4494 
L 1172 3500 
L 2356 3500 
L 2356 3053 
L 1172 3053 
L 1172 1153 
Q 1172 725 1289 603 
Q 1406 481 1766 481 
L 2356 481 
L 2356 0 
L 1766 0 
Q 1100 0 847 248 
Q 594 497 594 1153 
L 594 3053 
L 172 3053 
L 172 3500 
L 594 3500 
L 594 4494 
L 1172 4494 
z
" transform="scale(0.015625)"/>
      </defs>
      <use xlink:href="#DejaVuSans-44"/>
      <use xlink:href="#DejaVuSans-65" x="77.001953"/>
      <use xlink:href="#DejaVuSans-6e" x="138.525391"/>
      <use xlink:href="#DejaVuSans-64" x="201.904297"/>
      <use xlink:href="#DejaVuSans-72" x="265.380859"/>
      <use xlink:href="#DejaVuSans-69" x="306.494141"/>
      <use xlink:href="#DejaVuSans-74" x="334.277344"/>
      <use xlink:href="#DejaVuSans-65" x="373.486328"/>
     </g>
    </g>
   </g>
  </g>
 </g>
 <defs>
  <clipPath id="p90cde79ea9">
   <rect x="108" y="34.56" width="669.6" height="221.76"/>
  </clipPath>
 </defs>
</svg>
