<?xml version="1.0" encoding="utf-8" standalone="no"?>
<!DOCTYPE svg PUBLIC "-//W3C//DTD SVG 1.1//EN"
  "http://www.w3.org/Graphics/SVG/1.1/DTD/svg11.dtd">
<svg xmlns:xlink="http://www.w3.org/1999/xlink" width="864pt" height="288pt" viewBox="0 0 864 288" xmlns="http://www.w3.org/2000/svg" version="1.1">
 <metadata>
  <rdf:RDF xmlns:dc="http://purl.org/dc/elements/1.1/" xmlns:cc="http://creativecommons.org/ns#" xmlns:rdf="http://www.w3.org/1999/02/22-rdf-syntax-ns#">
   <cc:Work>
    <dc:type rdf:resource="http://purl.org/dc/dcmitype/StillImage"/>
    <dc:date>2024-04-26T13:23:06.708196</dc:date>
    <dc:format>image/svg+xml</dc:format>
    <dc:creator>
     <cc:Agent>
      <dc:title>Matplotlib v3.8.2, https://matplotlib.org/</dc:title>
     </cc:Agent>
    </dc:creator>
   </cc:Work>
  </rdf:RDF>
 </metadata>
 <defs>
  <style type="text/css">*{stroke-linejoin: round; stroke-linecap: butt}</style>
 </defs>
 <g id="figure_1">
  <g id="patch_1">
   <path d="M 0 288 
L 864 288 
L 864 0 
L 0 0 
z
" style="fill: #ffffff"/>
  </g>
  <g id="axes_1">
   <g id="patch_2">
    <path d="M 108 256.32 
L 777.6 256.32 
L 777.6 34.56 
L 108 34.56 
z
" style="fill: #ffffff"/>
   </g>
   <g id="matplotlib.axis_1">
    <g id="xtick_1">
     <g id="line2d_1">
      <path d="M 108 256.32 
L 108 34.56 
" clip-path="url(#pabecbac99a)" style="fill: none; stroke: #b0b0b0; stroke-width: 0.8; stroke-linecap: square"/>
     </g>
     <g id="line2d_2">
      <defs>
       <path id="mc159812dc0" d="M 0 0 
L 0 3.5 
" style="stroke: #000000; stroke-width: 0.8"/>
      </defs>
      <g>
       <use xlink:href="#mc159812dc0" x="108" y="256.32" style="stroke: #000000; stroke-width: 0.8"/>
      </g>
     </g>
     <g id="text_1">
      <!-- 100 -->
      <g transform="translate(94.63875 273.957812) scale(0.14 -0.14)">
       <defs>
        <path id="DejaVuSans-31" d="M 794 531 
L 1825 531 
L 1825 4091 
L 703 3866 
L 703 4441 
L 1819 4666 
L 2450 4666 
L 2450 531 
L 3481 531 
L 3481 0 
L 794 0 
L 794 531 
z
" transform="scale(0.015625)"/>
        <path id="DejaVuSans-30" d="M 2034 4250 
Q 1547 4250 1301 3770 
Q 1056 3291 1056 2328 
Q 1056 1369 1301 889 
Q 1547 409 2034 409 
Q 2525 409 2770 889 
Q 3016 1369 3016 2328 
Q 3016 3291 2770 3770 
Q 2525 4250 2034 4250 
z
M 2034 4750 
Q 2819 4750 3233 4129 
Q 3647 3509 3647 2328 
Q 3647 1150 3233 529 
Q 2819 -91 2034 -91 
Q 1250 -91 836 529 
Q 422 1150 422 2328 
Q 422 3509 836 4129 
Q 1250 4750 2034 4750 
z
" transform="scale(0.015625)"/>
       </defs>
       <use xlink:href="#DejaVuSans-31"/>
       <use xlink:href="#DejaVuSans-30" x="63.623047"/>
       <use xlink:href="#DejaVuSans-30" x="127.246094"/>
      </g>
     </g>
    </g>
    <g id="xtick_2">
     <g id="line2d_3">
      <path d="M 241.92 256.32 
L 241.92 34.56 
" clip-path="url(#pabecbac99a)" style="fill: none; stroke: #b0b0b0; stroke-width: 0.8; stroke-linecap: square"/>
     </g>
     <g id="line2d_4">
      <g>
       <use xlink:href="#mc159812dc0" x="241.92" y="256.32" style="stroke: #000000; stroke-width: 0.8"/>
      </g>
     </g>
     <g id="text_2">
      <!-- 120 -->
      <g transform="translate(228.55875 273.957812) scale(0.14 -0.14)">
       <defs>
        <path id="DejaVuSans-32" d="M 1228 531 
L 3431 531 
L 3431 0 
L 469 0 
L 469 531 
Q 828 903 1448 1529 
Q 2069 2156 2228 2338 
Q 2531 2678 2651 2914 
Q 2772 3150 2772 3378 
Q 2772 3750 2511 3984 
Q 2250 4219 1831 4219 
Q 1534 4219 1204 4116 
Q 875 4013 500 3803 
L 500 4441 
Q 881 4594 1212 4672 
Q 1544 4750 1819 4750 
Q 2544 4750 2975 4387 
Q 3406 4025 3406 3419 
Q 3406 3131 3298 2873 
Q 3191 2616 2906 2266 
Q 2828 2175 2409 1742 
Q 1991 1309 1228 531 
z
" transform="scale(0.015625)"/>
       </defs>
       <use xlink:href="#DejaVuSans-31"/>
       <use xlink:href="#DejaVuSans-32" x="63.623047"/>
       <use xlink:href="#DejaVuSans-30" x="127.246094"/>
      </g>
     </g>
    </g>
    <g id="xtick_3">
     <g id="line2d_5">
      <path d="M 375.84 256.32 
L 375.84 34.56 
" clip-path="url(#pabecbac99a)" style="fill: none; stroke: #b0b0b0; stroke-width: 0.8; stroke-linecap: square"/>
     </g>
     <g id="line2d_6">
      <g>
       <use xlink:href="#mc159812dc0" x="375.84" y="256.32" style="stroke: #000000; stroke-width: 0.8"/>
      </g>
     </g>
     <g id="text_3">
      <!-- 140 -->
      <g transform="translate(362.47875 273.957812) scale(0.14 -0.14)">
       <defs>
        <path id="DejaVuSans-34" d="M 2419 4116 
L 825 1625 
L 2419 1625 
L 2419 4116 
z
M 2253 4666 
L 3047 4666 
L 3047 1625 
L 3713 1625 
L 3713 1100 
L 3047 1100 
L 3047 0 
L 2419 0 
L 2419 1100 
L 313 1100 
L 313 1709 
L 2253 4666 
z
" transform="scale(0.015625)"/>
       </defs>
       <use xlink:href="#DejaVuSans-31"/>
       <use xlink:href="#DejaVuSans-34" x="63.623047"/>
       <use xlink:href="#DejaVuSans-30" x="127.246094"/>
      </g>
     </g>
    </g>
    <g id="xtick_4">
     <g id="line2d_7">
      <path d="M 509.76 256.32 
L 509.76 34.56 
" clip-path="url(#pabecbac99a)" style="fill: none; stroke: #b0b0b0; stroke-width: 0.8; stroke-linecap: square"/>
     </g>
     <g id="line2d_8">
      <g>
       <use xlink:href="#mc159812dc0" x="509.76" y="256.32" style="stroke: #000000; stroke-width: 0.8"/>
      </g>
     </g>
     <g id="text_4">
      <!-- 160 -->
      <g transform="translate(496.39875 273.957812) scale(0.14 -0.14)">
       <defs>
        <path id="DejaVuSans-36" d="M 2113 2584 
Q 1688 2584 1439 2293 
Q 1191 2003 1191 1497 
Q 1191 994 1439 701 
Q 1688 409 2113 409 
Q 2538 409 2786 701 
Q 3034 994 3034 1497 
Q 3034 2003 2786 2293 
Q 2538 2584 2113 2584 
z
M 3366 4563 
L 3366 3988 
Q 3128 4100 2886 4159 
Q 2644 4219 2406 4219 
Q 1781 4219 1451 3797 
Q 1122 3375 1075 2522 
Q 1259 2794 1537 2939 
Q 1816 3084 2150 3084 
Q 2853 3084 3261 2657 
Q 3669 2231 3669 1497 
Q 3669 778 3244 343 
Q 2819 -91 2113 -91 
Q 1303 -91 875 529 
Q 447 1150 447 2328 
Q 447 3434 972 4092 
Q 1497 4750 2381 4750 
Q 2619 4750 2861 4703 
Q 3103 4656 3366 4563 
z
" transform="scale(0.015625)"/>
       </defs>
       <use xlink:href="#DejaVuSans-31"/>
       <use xlink:href="#DejaVuSans-36" x="63.623047"/>
       <use xlink:href="#DejaVuSans-30" x="127.246094"/>
      </g>
     </g>
    </g>
    <g id="xtick_5">
     <g id="line2d_9">
      <path d="M 643.68 256.32 
L 643.68 34.56 
" clip-path="url(#pabecbac99a)" style="fill: none; stroke: #b0b0b0; stroke-width: 0.8; stroke-linecap: square"/>
     </g>
     <g id="line2d_10">
      <g>
       <use xlink:href="#mc159812dc0" x="643.68" y="256.32" style="stroke: #000000; stroke-width: 0.8"/>
      </g>
     </g>
     <g id="text_5">
      <!-- 180 -->
      <g transform="translate(630.31875 273.957812) scale(0.14 -0.14)">
       <defs>
        <path id="DejaVuSans-38" d="M 2034 2216 
Q 1584 2216 1326 1975 
Q 1069 1734 1069 1313 
Q 1069 891 1326 650 
Q 1584 409 2034 409 
Q 2484 409 2743 651 
Q 3003 894 3003 1313 
Q 3003 1734 2745 1975 
Q 2488 2216 2034 2216 
z
M 1403 2484 
Q 997 2584 770 2862 
Q 544 3141 544 3541 
Q 544 4100 942 4425 
Q 1341 4750 2034 4750 
Q 2731 4750 3128 4425 
Q 3525 4100 3525 3541 
Q 3525 3141 3298 2862 
Q 3072 2584 2669 2484 
Q 3125 2378 3379 2068 
Q 3634 1759 3634 1313 
Q 3634 634 3220 271 
Q 2806 -91 2034 -91 
Q 1263 -91 848 271 
Q 434 634 434 1313 
Q 434 1759 690 2068 
Q 947 2378 1403 2484 
z
M 1172 3481 
Q 1172 3119 1398 2916 
Q 1625 2713 2034 2713 
Q 2441 2713 2670 2916 
Q 2900 3119 2900 3481 
Q 2900 3844 2670 4047 
Q 2441 4250 2034 4250 
Q 1625 4250 1398 4047 
Q 1172 3844 1172 3481 
z
" transform="scale(0.015625)"/>
       </defs>
       <use xlink:href="#DejaVuSans-31"/>
       <use xlink:href="#DejaVuSans-38" x="63.623047"/>
       <use xlink:href="#DejaVuSans-30" x="127.246094"/>
      </g>
     </g>
    </g>
    <g id="xtick_6">
     <g id="line2d_11">
      <path d="M 777.6 256.32 
L 777.6 34.56 
" clip-path="url(#pabecbac99a)" style="fill: none; stroke: #b0b0b0; stroke-width: 0.8; stroke-linecap: square"/>
     </g>
     <g id="line2d_12">
      <g>
       <use xlink:href="#mc159812dc0" x="777.6" y="256.32" style="stroke: #000000; stroke-width: 0.8"/>
      </g>
     </g>
     <g id="text_6">
      <!-- 200 -->
      <g transform="translate(764.23875 273.957812) scale(0.14 -0.14)">
       <use xlink:href="#DejaVuSans-32"/>
       <use xlink:href="#DejaVuSans-30" x="63.623047"/>
       <use xlink:href="#DejaVuSans-30" x="127.246094"/>
      </g>
     </g>
    </g>
    <g id="text_7">
     <!-- Time (ms) -->
     <g transform="translate(407.521094 291.507187) scale(0.14 -0.14)">
      <defs>
       <path id="DejaVuSans-54" d="M -19 4666 
L 3928 4666 
L 3928 4134 
L 2272 4134 
L 2272 0 
L 1638 0 
L 1638 4134 
L -19 4134 
L -19 4666 
z
" transform="scale(0.015625)"/>
       <path id="DejaVuSans-69" d="M 603 3500 
L 1178 3500 
L 1178 0 
L 603 0 
L 603 3500 
z
M 603 4863 
L 1178 4863 
L 1178 4134 
L 603 4134 
L 603 4863 
z
" transform="scale(0.015625)"/>
       <path id="DejaVuSans-6d" d="M 3328 2828 
Q 3544 3216 3844 3400 
Q 4144 3584 4550 3584 
Q 5097 3584 5394 3201 
Q 5691 2819 5691 2113 
L 5691 0 
L 5113 0 
L 5113 2094 
Q 5113 2597 4934 2840 
Q 4756 3084 4391 3084 
Q 3944 3084 3684 2787 
Q 3425 2491 3425 1978 
L 3425 0 
L 2847 0 
L 2847 2094 
Q 2847 2600 2669 2842 
Q 2491 3084 2119 3084 
Q 1678 3084 1418 2786 
Q 1159 2488 1159 1978 
L 1159 0 
L 581 0 
L 581 3500 
L 1159 3500 
L 1159 2956 
Q 1356 3278 1631 3431 
Q 1906 3584 2284 3584 
Q 2666 3584 2933 3390 
Q 3200 3197 3328 2828 
z
" transform="scale(0.015625)"/>
       <path id="DejaVuSans-65" d="M 3597 1894 
L 3597 1613 
L 953 1613 
Q 991 1019 1311 708 
Q 1631 397 2203 397 
Q 2534 397 2845 478 
Q 3156 559 3463 722 
L 3463 178 
Q 3153 47 2828 -22 
Q 2503 -91 2169 -91 
Q 1331 -91 842 396 
Q 353 884 353 1716 
Q 353 2575 817 3079 
Q 1281 3584 2069 3584 
Q 2775 3584 3186 3129 
Q 3597 2675 3597 1894 
z
M 3022 2063 
Q 3016 2534 2758 2815 
Q 2500 3097 2075 3097 
Q 1594 3097 1305 2825 
Q 1016 2553 972 2059 
L 3022 2063 
z
" transform="scale(0.015625)"/>
       <path id="DejaVuSans-20" transform="scale(0.015625)"/>
       <path id="DejaVuSans-28" d="M 1984 4856 
Q 1566 4138 1362 3434 
Q 1159 2731 1159 2009 
Q 1159 1288 1364 580 
Q 1569 -128 1984 -844 
L 1484 -844 
Q 1016 -109 783 600 
Q 550 1309 550 2009 
Q 550 2706 781 3412 
Q 1013 4119 1484 4856 
L 1984 4856 
z
" transform="scale(0.015625)"/>
       <path id="DejaVuSans-73" d="M 2834 3397 
L 2834 2853 
Q 2591 2978 2328 3040 
Q 2066 3103 1784 3103 
Q 1356 3103 1142 2972 
Q 928 2841 928 2578 
Q 928 2378 1081 2264 
Q 1234 2150 1697 2047 
L 1894 2003 
Q 2506 1872 2764 1633 
Q 3022 1394 3022 966 
Q 3022 478 2636 193 
Q 2250 -91 1575 -91 
Q 1294 -91 989 -36 
Q 684 19 347 128 
L 347 722 
Q 666 556 975 473 
Q 1284 391 1588 391 
Q 1994 391 2212 530 
Q 2431 669 2431 922 
Q 2431 1156 2273 1281 
Q 2116 1406 1581 1522 
L 1381 1569 
Q 847 1681 609 1914 
Q 372 2147 372 2553 
Q 372 3047 722 3315 
Q 1072 3584 1716 3584 
Q 2034 3584 2315 3537 
Q 2597 3491 2834 3397 
z
" transform="scale(0.015625)"/>
       <path id="DejaVuSans-29" d="M 513 4856 
L 1013 4856 
Q 1481 4119 1714 3412 
Q 1947 2706 1947 2009 
Q 1947 1309 1714 600 
Q 1481 -109 1013 -844 
L 513 -844 
Q 928 -128 1133 580 
Q 1338 1288 1338 2009 
Q 1338 2731 1133 3434 
Q 928 4138 513 4856 
z
" transform="scale(0.015625)"/>
      </defs>
      <use xlink:href="#DejaVuSans-54"/>
      <use xlink:href="#DejaVuSans-69" x="57.958984"/>
      <use xlink:href="#DejaVuSans-6d" x="85.742188"/>
      <use xlink:href="#DejaVuSans-65" x="183.154297"/>
      <use xlink:href="#DejaVuSans-20" x="244.677734"/>
      <use xlink:href="#DejaVuSans-28" x="276.464844"/>
      <use xlink:href="#DejaVuSans-6d" x="315.478516"/>
      <use xlink:href="#DejaVuSans-73" x="412.890625"/>
      <use xlink:href="#DejaVuSans-29" x="464.990234"/>
     </g>
    </g>
   </g>
   <g id="matplotlib.axis_2">
    <g id="ytick_1">
     <g id="line2d_13">
      <path d="M 108 224.433642 
L 777.6 224.433642 
" clip-path="url(#pabecbac99a)" style="fill: none; stroke: #b0b0b0; stroke-width: 0.8; stroke-linecap: square"/>
     </g>
     <g id="line2d_14">
      <defs>
       <path id="meb7eb1585e" d="M 0 0 
L -3.5 0 
" style="stroke: #000000; stroke-width: 0.8"/>
      </defs>
      <g>
       <use xlink:href="#meb7eb1585e" x="108" y="224.433642" style="stroke: #000000; stroke-width: 0.8"/>
      </g>
     </g>
     <g id="text_8">
      <!-- −60 -->
      <g transform="translate(71.453437 229.752549) scale(0.14 -0.14)">
       <defs>
        <path id="DejaVuSans-2212" d="M 678 2272 
L 4684 2272 
L 4684 1741 
L 678 1741 
L 678 2272 
z
" transform="scale(0.015625)"/>
       </defs>
       <use xlink:href="#DejaVuSans-2212"/>
       <use xlink:href="#DejaVuSans-36" x="83.789062"/>
       <use xlink:href="#DejaVuSans-30" x="147.412109"/>
      </g>
     </g>
    </g>
    <g id="ytick_2">
     <g id="line2d_15">
      <path d="M 108 180.89042 
L 777.6 180.89042 
" clip-path="url(#pabecbac99a)" style="fill: none; stroke: #b0b0b0; stroke-width: 0.8; stroke-linecap: square"/>
     </g>
     <g id="line2d_16">
      <g>
       <use xlink:href="#meb7eb1585e" x="108" y="180.89042" style="stroke: #000000; stroke-width: 0.8"/>
      </g>
     </g>
     <g id="text_9">
      <!-- −40 -->
      <g transform="translate(71.453437 186.209326) scale(0.14 -0.14)">
       <use xlink:href="#DejaVuSans-2212"/>
       <use xlink:href="#DejaVuSans-34" x="83.789062"/>
       <use xlink:href="#DejaVuSans-30" x="147.412109"/>
      </g>
     </g>
    </g>
    <g id="ytick_3">
     <g id="line2d_17">
      <path d="M 108 137.347198 
L 777.6 137.347198 
" clip-path="url(#pabecbac99a)" style="fill: none; stroke: #b0b0b0; stroke-width: 0.8; stroke-linecap: square"/>
     </g>
     <g id="line2d_18">
      <g>
       <use xlink:href="#meb7eb1585e" x="108" y="137.347198" style="stroke: #000000; stroke-width: 0.8"/>
      </g>
     </g>
     <g id="text_10">
      <!-- −20 -->
      <g transform="translate(71.453437 142.666104) scale(0.14 -0.14)">
       <use xlink:href="#DejaVuSans-2212"/>
       <use xlink:href="#DejaVuSans-32" x="83.789062"/>
       <use xlink:href="#DejaVuSans-30" x="147.412109"/>
      </g>
     </g>
    </g>
    <g id="ytick_4">
     <g id="line2d_19">
      <path d="M 108 93.803976 
L 777.6 93.803976 
" clip-path="url(#pabecbac99a)" style="fill: none; stroke: #b0b0b0; stroke-width: 0.8; stroke-linecap: square"/>
     </g>
     <g id="line2d_20">
      <g>
       <use xlink:href="#meb7eb1585e" x="108" y="93.803976" style="stroke: #000000; stroke-width: 0.8"/>
      </g>
     </g>
     <g id="text_11">
      <!-- 0 -->
      <g transform="translate(92.0925 99.122882) scale(0.14 -0.14)">
       <use xlink:href="#DejaVuSans-30"/>
      </g>
     </g>
    </g>
    <g id="ytick_5">
     <g id="line2d_21">
      <path d="M 108 50.260754 
L 777.6 50.260754 
" clip-path="url(#pabecbac99a)" style="fill: none; stroke: #b0b0b0; stroke-width: 0.8; stroke-linecap: square"/>
     </g>
     <g id="line2d_22">
      <g>
       <use xlink:href="#meb7eb1585e" x="108" y="50.260754" style="stroke: #000000; stroke-width: 0.8"/>
      </g>
     </g>
     <g id="text_12">
      <!-- 20 -->
      <g transform="translate(83.185 55.57966) scale(0.14 -0.14)">
       <use xlink:href="#DejaVuSans-32"/>
       <use xlink:href="#DejaVuSans-30" x="63.623047"/>
      </g>
     </g>
    </g>
    <g id="text_13">
     <!-- $V_{m}$ (mV) -->
     <g transform="translate(64.541875 174.49) rotate(-90) scale(0.14 -0.14)">
      <defs>
       <path id="DejaVuSans-Oblique-56" d="M 1319 0 
L 500 4666 
L 1119 4666 
L 1797 653 
L 4063 4666 
L 4750 4666 
L 2053 0 
L 1319 0 
z
" transform="scale(0.015625)"/>
       <path id="DejaVuSans-Oblique-6d" d="M 5747 2113 
L 5338 0 
L 4763 0 
L 5166 2094 
Q 5191 2228 5203 2325 
Q 5216 2422 5216 2491 
Q 5216 2772 5059 2928 
Q 4903 3084 4622 3084 
Q 4203 3084 3875 2770 
Q 3547 2456 3450 1953 
L 3066 0 
L 2491 0 
L 2900 2094 
Q 2925 2209 2937 2307 
Q 2950 2406 2950 2484 
Q 2950 2769 2794 2926 
Q 2638 3084 2363 3084 
Q 1938 3084 1609 2770 
Q 1281 2456 1184 1953 
L 800 0 
L 225 0 
L 909 3500 
L 1484 3500 
L 1375 2956 
Q 1609 3263 1923 3423 
Q 2238 3584 2597 3584 
Q 2978 3584 3223 3384 
Q 3469 3184 3519 2828 
Q 3781 3197 4126 3390 
Q 4472 3584 4856 3584 
Q 5306 3584 5551 3325 
Q 5797 3066 5797 2591 
Q 5797 2488 5784 2364 
Q 5772 2241 5747 2113 
z
" transform="scale(0.015625)"/>
       <path id="DejaVuSans-56" d="M 1831 0 
L 50 4666 
L 709 4666 
L 2188 738 
L 3669 4666 
L 4325 4666 
L 2547 0 
L 1831 0 
z
" transform="scale(0.015625)"/>
      </defs>
      <use xlink:href="#DejaVuSans-Oblique-56" transform="translate(0 0.125)"/>
      <use xlink:href="#DejaVuSans-Oblique-6d" transform="translate(68.408203 -16.28125) scale(0.7)"/>
      <use xlink:href="#DejaVuSans-20" transform="translate(139.331055 0.125)"/>
      <use xlink:href="#DejaVuSans-28" transform="translate(171.118164 0.125)"/>
      <use xlink:href="#DejaVuSans-6d" transform="translate(210.131836 0.125)"/>
      <use xlink:href="#DejaVuSans-56" transform="translate(307.543945 0.125)"/>
      <use xlink:href="#DejaVuSans-29" transform="translate(375.952148 0.125)"/>
     </g>
    </g>
   </g>
   <g id="line2d_23">
    <path d="M 108 221.073342 
L 109.3392 221.733192 
L 110.6784 222.161185 
L 111.348 222.318664 
L 112.6872 223.248923 
L 114.0264 223.693825 
L 116.0352 225.231169 
L 118.044 227.649857 
L 118.7136 228.741657 
L 119.3832 229.586117 
L 120.0528 230.122945 
L 120.7224 231.139432 
L 122.0616 232.762976 
L 122.7312 233.345554 
L 124.0704 233.926134 
L 126.0792 234.292293 
L 128.7576 234.479135 
L 132.1056 234.452713 
L 134.1144 234.318602 
L 136.1232 235.074157 
L 136.7928 235.887723 
L 137.4624 236.456913 
L 140.1408 237.623965 
L 141.48 237.888159 
L 143.4888 237.984373 
L 144.828 238.429182 
L 146.1672 238.532511 
L 148.176 238.447931 
L 149.5152 238.793372 
L 150.8544 238.81201 
L 153.5328 238.519114 
L 156.8808 237.866745 
L 160.2288 236.996857 
L 164.2464 235.726512 
L 168.9336 233.986848 
L 173.6208 232.01532 
L 178.9776 229.524545 
L 185.004 226.471577 
L 191.7 222.831309 
L 198.396 218.997936 
L 199.7352 219.026001 
L 201.0744 218.639053 
L 203.7528 217.504834 
L 205.7616 216.552981 
L 207.1008 216.735052 
L 208.44 216.474799 
L 209.7792 216.881357 
L 211.1184 216.790999 
L 213.1272 216.33086 
L 216.4752 215.256477 
L 220.4928 213.716735 
L 225.8496 211.40768 
L 227.1888 211.716619 
L 227.8584 212.631916 
L 228.528 213.337427 
L 229.1976 213.683034 
L 230.5368 213.943194 
L 231.876 213.954515 
L 232.5456 213.909123 
L 234.5544 215.185421 
L 235.8936 217.082713 
L 236.5632 218.202966 
L 239.2416 221.384193 
L 239.9112 222.414403 
L 240.5808 223.898673 
L 241.2504 224.988976 
L 241.92 225.68902 
L 243.2592 226.604916 
L 244.5984 227.210691 
L 245.9376 228.25657 
L 246.6072 228.576439 
L 247.2768 229.149001 
L 247.9464 229.934412 
L 249.9552 231.718719 
L 251.2944 232.893209 
L 252.6336 233.501596 
L 253.9728 233.875699 
L 255.312 235.171135 
L 255.9816 235.795722 
L 256.6512 236.217114 
L 257.9904 236.543506 
L 259.9992 236.622047 
L 260.6688 236.611784 
L 262.008 237.061922 
L 263.3472 237.190781 
L 264.6864 237.198826 
L 268.0344 238.360221 
L 270.0432 238.448168 
L 270.7128 238.429078 
L 272.052 238.825297 
L 273.3912 238.891605 
L 275.4 238.764002 
L 278.0784 238.389155 
L 281.4264 237.694353 
L 282.096 237.53034 
L 283.4352 237.691263 
L 284.7744 237.541039 
L 287.4528 236.946293 
L 290.8008 235.971074 
L 291.4704 235.753919 
L 292.8096 235.844637 
L 294.1488 235.616314 
L 296.8272 234.864308 
L 300.8448 233.455015 
L 305.532 231.546217 
L 310.8888 229.101325 
L 316.9152 226.084283 
L 323.6112 222.473654 
L 331.6464 217.885202 
L 343.6992 210.719824 
L 345.0384 209.906251 
L 346.3776 210.047903 
L 347.7168 209.738695 
L 349.7256 208.975402 
L 353.0736 207.432959 
L 354.4128 206.760839 
L 355.752 208.067198 
L 356.4216 208.34881 
L 358.4304 210.190324 
L 359.1 211.226957 
L 359.7696 211.960859 
L 360.4392 212.403914 
L 361.7784 212.898227 
L 363.1176 214.816201 
L 363.7872 215.764771 
L 364.4568 216.471403 
L 366.4656 217.932185 
L 367.1352 218.477171 
L 367.8048 218.832386 
L 369.144 220.031937 
L 370.4832 220.632119 
L 371.8224 220.976865 
L 372.492 221.094695 
L 373.8312 222.681458 
L 374.5008 224.211745 
L 375.1704 225.388539 
L 375.84 226.097799 
L 377.1792 226.972455 
L 378.5184 227.52599 
L 379.188 227.732397 
L 379.8576 228.243127 
L 381.8664 230.469008 
L 382.536 230.867569 
L 383.8752 231.955099 
L 384.5448 232.279607 
L 386.5536 233.844591 
L 387.2232 234.295134 
L 388.5624 234.810465 
L 389.9016 235.112355 
L 390.5712 235.175587 
L 391.2408 235.455609 
L 391.9104 235.917576 
L 392.58 236.199114 
L 393.9192 236.384771 
L 396.5976 236.374105 
L 398.6064 236.240608 
L 399.9456 236.621158 
L 400.6152 236.673754 
L 401.9544 237.155754 
L 403.2936 237.265701 
L 405.972 238.317407 
L 407.3112 238.48066 
L 407.9808 238.493308 
L 409.32 238.926265 
L 410.6592 239.012309 
L 412.668 238.898954 
L 415.3464 238.529302 
L 418.6944 237.831553 
L 422.712 236.730612 
L 426.7296 235.396769 
L 428.0688 235.458545 
L 429.408 235.202144 
L 432.0864 234.398491 
L 436.104 232.922914 
L 440.7912 230.949744 
L 446.148 228.444241 
L 452.1744 225.372368 
L 459.54 221.338558 
L 468.9144 215.908616 
L 472.932 213.522577 
L 474.2712 213.619431 
L 475.6104 213.271823 
L 476.9496 212.757603 
L 478.2888 213.078685 
L 479.628 212.91723 
L 481.6368 212.356536 
L 483.6456 211.653 
L 484.9848 212.049841 
L 485.6544 212.524773 
L 486.324 212.857065 
L 487.6632 213.017876 
L 489.0024 212.927716 
L 490.3416 214.45094 
L 491.0112 214.799703 
L 491.6808 215.439935 
L 492.3504 216.363907 
L 493.02 217.009059 
L 493.6896 217.396461 
L 494.3592 218.076932 
L 495.0288 219.023209 
L 495.6984 219.698084 
L 497.7072 221.050871 
L 498.3768 221.553691 
L 499.716 222.107758 
L 501.0552 222.414791 
L 502.3944 223.293154 
L 503.7336 223.685184 
L 504.4032 223.79526 
L 505.7424 224.608493 
L 507.0816 224.949464 
L 507.7512 225.037435 
L 508.4208 225.459926 
L 510.4296 228.671806 
L 511.0992 229.390063 
L 512.4384 230.195716 
L 513.7776 230.664989 
L 515.1168 231.540443 
L 515.7864 232.406512 
L 516.456 233.079464 
L 517.1256 233.487831 
L 519.804 236.871002 
L 521.1432 237.611955 
L 522.4824 238.062337 
L 523.152 238.225823 
L 523.8216 238.618584 
L 524.4912 239.147955 
L 527.8392 240.759735 
L 529.1784 240.999808 
L 529.848 241.059762 
L 531.1872 241.552139 
L 532.5264 241.728989 
L 535.2048 241.762703 
L 537.8832 241.576521 
L 541.2312 241.113093 
L 544.5792 240.434829 
L 548.5968 239.380003 
L 552.6144 238.099952 
L 557.3016 236.363184 
L 561.9888 234.401356 
L 567.3456 231.924007 
L 573.372 228.883763 
L 580.068 225.248504 
L 588.1032 220.615458 
L 599.4864 213.753904 
L 602.1648 212.113717 
L 603.504 212.212423 
L 604.8432 211.863295 
L 607.5216 210.759206 
L 611.5392 208.81498 
L 613.548 207.770223 
L 614.8872 208.043601 
L 616.2264 207.866817 
L 618.2352 207.265668 
L 620.9136 206.228962 
L 622.9224 205.316115 
L 624.2616 205.702821 
L 624.9312 205.728115 
L 625.6008 206.19408 
L 626.2704 207.096414 
L 626.94 207.759871 
L 627.6096 208.147172 
L 628.9488 208.532127 
L 629.6184 208.616252 
L 630.288 209.151262 
L 630.9576 210.559071 
L 631.6272 211.632969 
L 632.2968 212.274952 
L 633.636 213.009693 
L 634.9752 214.250529 
L 635.6448 214.605257 
L 636.984 215.852516 
L 637.6536 216.208822 
L 638.9928 219.360874 
L 639.6624 220.424064 
L 640.332 221.119768 
L 641.6712 222.732959 
L 642.3408 223.240143 
L 643.0104 224.001929 
L 643.68 224.981329 
L 644.3496 225.707526 
L 645.0192 226.20827 
L 646.3584 227.530772 
L 648.3672 228.872597 
L 649.0368 229.688632 
L 649.7064 230.28754 
L 653.0544 232.313885 
L 653.724 232.848396 
L 654.3936 233.57289 
L 659.0808 237.365696 
L 659.7504 238.050893 
L 660.42 238.495315 
L 661.7592 238.93957 
L 663.768 239.25432 
L 666.4464 239.410475 
L 667.7856 239.41166 
L 669.1248 239.830964 
L 670.464 239.938812 
L 673.1424 239.840336 
L 676.4904 239.427846 
L 679.8384 238.780578 
L 683.856 237.750659 
L 687.8736 236.487439 
L 692.5608 234.763658 
L 693.9 234.22734 
L 695.2392 234.245342 
L 696.5784 233.94058 
L 699.2568 233.040578 
L 703.2744 231.433663 
L 707.9616 229.327873 
L 713.988 226.351434 
L 720.684 222.772196 
L 728.7192 218.208088 
L 740.1024 211.463306 
L 742.7808 209.843204 
L 744.12 209.985866 
L 745.4592 209.677517 
L 747.468 208.915139 
L 748.8072 209.295649 
L 750.1464 209.189766 
L 752.1552 208.685993 
L 753.4944 209.213086 
L 754.8336 209.24017 
L 756.1728 209.050238 
L 757.512 209.705559 
L 758.8512 209.83953 
L 760.1904 209.747147 
L 761.5296 210.474887 
L 762.1992 210.61971 
L 763.5384 211.579735 
L 764.8776 211.926411 
L 765.5472 211.989544 
L 766.8864 212.879341 
L 768.2256 213.211764 
L 768.8952 213.277693 
L 770.2344 214.991852 
L 770.904 215.426501 
L 771.5736 215.703319 
L 774.252 218.125208 
L 775.5912 218.730901 
L 776.9304 219.056614 
L 777.6 219.57247 
L 777.6 219.57247 
" clip-path="url(#pabecbac99a)" style="fill: none; stroke: #000000; stroke-width: 1.5; stroke-linecap: square"/>
   </g>
   <g id="line2d_24">
    <path d="M 108 211.595725 
L 110.6784 213.881227 
L 114.0264 216.287602 
L 117.3744 218.685943 
L 119.3832 220.461826 
L 122.0616 223.126202 
L 122.7312 194.020977 
L 123.4008 182.420138 
L 124.0704 177.105226 
L 124.74 174.242741 
L 125.4096 172.739606 
L 126.0792 172.169313 
L 126.7488 172.305612 
L 127.4184 172.991733 
L 128.088 174.104653 
L 129.4272 177.222256 
L 131.436 182.988786 
L 134.1144 190.716155 
L 136.1232 195.915325 
L 138.8016 202.311436 
L 140.8104 206.563524 
L 142.8192 210.219499 
L 144.828 213.29721 
L 146.8368 215.948167 
L 148.8456 218.166032 
L 150.8544 220.092649 
L 152.8632 221.716781 
L 154.872 223.028038 
L 156.8808 224.059574 
L 158.8896 224.847117 
L 160.8984 225.421576 
L 162.9072 225.809056 
L 165.5856 226.072683 
L 168.264 226.086937 
L 170.9424 225.887965 
L 174.2904 225.384479 
L 177.6384 224.641884 
L 181.656 223.488498 
L 185.6736 222.09828 
L 190.3608 220.2326 
L 195.7176 217.844109 
L 200.4048 215.718538 
L 207.1008 213.350003 
L 209.1096 212.850031 
L 211.788 212.49541 
L 215.8056 211.964912 
L 219.8232 211.194178 
L 223.8408 210.209319 
L 227.1888 209.318336 
L 228.528 209.224739 
L 230.5368 209.472837 
L 234.5544 210.133993 
L 235.8936 210.6032 
L 237.2328 211.355531 
L 239.2416 212.826561 
L 240.5808 213.999773 
L 245.9376 219.247177 
L 255.9816 227.783022 
L 256.6512 197.562917 
L 257.3208 185.506652 
L 257.9904 180.093655 
L 258.66 177.313447 
L 259.3296 175.949308 
L 259.9992 175.53132 
L 260.6688 175.812846 
L 261.3384 176.641136 
L 262.008 177.898024 
L 263.3472 181.282008 
L 266.0256 189.398924 
L 268.704 197.354319 
L 270.7128 202.526587 
L 272.7216 206.950904 
L 274.7304 210.693147 
L 276.0696 212.810971 
L 278.0784 215.479677 
L 280.0872 217.619565 
L 282.096 219.312824 
L 284.7744 221.143133 
L 286.7832 222.239698 
L 288.792 223.073354 
L 290.8008 223.671247 
L 294.8184 224.503966 
L 297.4968 224.83033 
L 300.1752 224.904799 
L 302.8536 224.759616 
L 306.2016 224.316649 
L 309.5496 223.628158 
L 312.8976 222.732692 
L 316.9152 221.428681 
L 321.6024 219.6461 
L 326.9592 217.333658 
L 332.9856 214.465048 
L 340.3512 210.693862 
L 347.0472 207.267408 
L 354.4128 204.55329 
L 355.752 204.18349 
L 357.0912 204.073699 
L 358.4304 204.207484 
L 359.7696 204.622829 
L 362.448 205.872688 
L 363.7872 206.699782 
L 367.1352 209.216384 
L 372.492 213.241787 
L 374.5008 214.709783 
L 376.5096 216.644197 
L 378.5184 218.543986 
L 389.232 227.592331 
L 389.9016 228.065732 
L 390.5712 197.714816 
L 391.2408 185.561962 
L 391.9104 180.081352 
L 392.58 177.255968 
L 393.2496 175.861819 
L 393.9192 175.423418 
L 394.5888 175.690921 
L 395.2584 176.498448 
L 395.928 177.718377 
L 397.2672 180.984147 
L 399.9456 188.805216 
L 402.624 196.44016 
L 404.6328 201.486888 
L 406.6416 205.951684 
L 408.6504 209.79387 
L 410.6592 213.088927 
L 412.668 215.844803 
L 414.6768 218.088842 
L 416.6856 219.890078 
L 418.6944 221.314448 
L 420.7032 222.417423 
L 422.712 223.244898 
L 424.7208 223.834982 
L 426.7296 224.219535 
L 431.4168 224.828825 
L 434.0952 224.903949 
L 436.7736 224.758656 
L 440.1216 224.314214 
L 443.4696 223.623938 
L 446.8176 222.726853 
L 450.8352 221.421234 
L 455.5224 219.637193 
L 460.8792 217.323513 
L 466.9056 214.453925 
L 475.6104 210.228912 
L 478.2888 209.336738 
L 482.3064 208.476709 
L 484.9848 207.93658 
L 486.324 207.85518 
L 489.0024 207.987622 
L 490.3416 208.185313 
L 491.6808 208.569017 
L 493.02 209.156096 
L 495.0288 210.297987 
L 499.0464 213.138117 
L 501.7248 214.914867 
L 505.7424 217.331976 
L 510.4296 220.143808 
L 515.1168 223.883539 
L 517.7952 225.990034 
L 520.4736 228.432098 
L 522.4824 230.177668 
L 523.8216 231.191264 
L 524.4912 200.208302 
L 525.1608 187.871079 
L 525.8304 182.424291 
L 526.5 179.773644 
L 527.1696 178.626423 
L 527.8392 178.479265 
L 528.5088 179.062526 
L 529.1784 180.194018 
L 529.848 181.732717 
L 531.1872 185.617173 
L 535.8744 200.63482 
L 537.8832 205.983572 
L 539.2224 209.057522 
L 540.5616 211.756986 
L 541.9008 214.110359 
L 543.24 216.149524 
L 544.5792 217.906404 
L 545.9184 219.411159 
L 547.9272 221.255106 
L 549.936 222.674307 
L 551.9448 223.736335 
L 553.9536 224.49696 
L 555.9624 225.002146 
L 557.9712 225.289859 
L 559.98 225.391562 
L 562.6584 225.282411 
L 565.3368 224.939081 
L 568.6848 224.24068 
L 572.0328 223.298986 
L 576.0504 221.912251 
L 580.7376 220.015371 
L 586.0944 217.565681 
L 592.1208 214.545647 
L 599.4864 210.601163 
L 603.504 208.450729 
L 606.1824 207.379605 
L 616.2264 203.651132 
L 625.6008 201.475991 
L 626.94 201.551079 
L 628.9488 202.033987 
L 630.9576 202.683416 
L 632.2968 203.43893 
L 635.6448 205.738324 
L 638.3232 207.778626 
L 639.6624 209.105391 
L 645.6888 215.893832 
L 648.3672 218.747547 
L 652.3848 222.717818 
L 657.7416 227.534203 
L 658.4112 197.406072 
L 659.0808 185.418633 
L 659.7504 180.088399 
L 660.42 177.420632 
L 661.0896 176.201404 
L 661.7592 175.957542 
L 662.4288 176.434992 
L 663.0984 177.463776 
L 663.768 178.911105 
L 665.1072 182.633506 
L 671.1336 201.164225 
L 673.1424 206.078978 
L 674.4816 208.88439 
L 675.8208 211.34017 
L 677.16 213.477189 
L 678.4992 215.327143 
L 679.8384 216.920264 
L 681.8472 218.888367 
L 683.856 220.422361 
L 685.8648 221.5906 
L 687.8736 222.449562 
L 689.8824 223.04584 
L 691.8912 223.41794 
L 694.5696 223.632865 
L 698.5872 223.797173 
L 701.2656 223.674387 
L 703.944 223.351932 
L 707.292 222.711835 
L 710.64 221.851029 
L 714.6576 220.576508 
L 719.3448 218.816994 
L 724.032 216.822202 
L 730.0584 213.992536 
L 737.424 210.250756 
L 744.7896 206.478079 
L 748.1376 205.289049 
L 750.1464 204.820113 
L 753.4944 204.279898 
L 756.8424 204.158934 
L 759.5208 204.360233 
L 761.5296 204.602768 
L 763.5384 205.061618 
L 766.8864 206.171092 
L 770.2344 207.545484 
L 772.9128 209.077598 
L 777.6 212.164555 
L 777.6 212.164555 
" clip-path="url(#pabecbac99a)" style="fill: none; stroke: #4169e1; stroke-width: 1.5; stroke-linecap: square"/>
   </g>
   <g id="patch_3">
    <path d="M 108 256.32 
L 108 34.56 
" style="fill: none; stroke: #000000; stroke-width: 0.8; stroke-linejoin: miter; stroke-linecap: square"/>
   </g>
   <g id="patch_4">
    <path d="M 777.6 256.32 
L 777.6 34.56 
" style="fill: none; stroke: #000000; stroke-width: 0.8; stroke-linejoin: miter; stroke-linecap: square"/>
   </g>
   <g id="patch_5">
    <path d="M 108 256.32 
L 777.6 256.32 
" style="fill: none; stroke: #000000; stroke-width: 0.8; stroke-linejoin: miter; stroke-linecap: square"/>
   </g>
   <g id="patch_6">
    <path d="M 108 34.56 
L 777.6 34.56 
" style="fill: none; stroke: #000000; stroke-width: 0.8; stroke-linejoin: miter; stroke-linecap: square"/>
   </g>
   <g id="legend_1">
    <g id="patch_7">
     <path d="M 695.098438 71.91625 
L 770.6 71.91625 
Q 772.6 71.91625 772.6 69.91625 
L 772.6 41.56 
Q 772.6 39.56 770.6 39.56 
L 695.098438 39.56 
Q 693.098438 39.56 693.098438 41.56 
L 693.098438 69.91625 
Q 693.098438 71.91625 695.098438 71.91625 
z
" style="fill: #ffffff; opacity: 0.8; stroke: #cccccc; stroke-linejoin: miter"/>
    </g>
    <g id="line2d_25">
     <path d="M 697.098438 47.658437 
L 707.098438 47.658437 
L 717.098438 47.658437 
" style="fill: none; stroke: #000000; stroke-width: 1.5; stroke-linecap: square"/>
    </g>
    <g id="text_14">
     <!-- Soma -->
     <g transform="translate(725.098438 51.158437) scale(0.1 -0.1)">
      <defs>
       <path id="DejaVuSans-53" d="M 3425 4513 
L 3425 3897 
Q 3066 4069 2747 4153 
Q 2428 4238 2131 4238 
Q 1616 4238 1336 4038 
Q 1056 3838 1056 3469 
Q 1056 3159 1242 3001 
Q 1428 2844 1947 2747 
L 2328 2669 
Q 3034 2534 3370 2195 
Q 3706 1856 3706 1288 
Q 3706 609 3251 259 
Q 2797 -91 1919 -91 
Q 1588 -91 1214 -16 
Q 841 59 441 206 
L 441 856 
Q 825 641 1194 531 
Q 1563 422 1919 422 
Q 2459 422 2753 634 
Q 3047 847 3047 1241 
Q 3047 1584 2836 1778 
Q 2625 1972 2144 2069 
L 1759 2144 
Q 1053 2284 737 2584 
Q 422 2884 422 3419 
Q 422 4038 858 4394 
Q 1294 4750 2059 4750 
Q 2388 4750 2728 4690 
Q 3069 4631 3425 4513 
z
" transform="scale(0.015625)"/>
       <path id="DejaVuSans-6f" d="M 1959 3097 
Q 1497 3097 1228 2736 
Q 959 2375 959 1747 
Q 959 1119 1226 758 
Q 1494 397 1959 397 
Q 2419 397 2687 759 
Q 2956 1122 2956 1747 
Q 2956 2369 2687 2733 
Q 2419 3097 1959 3097 
z
M 1959 3584 
Q 2709 3584 3137 3096 
Q 3566 2609 3566 1747 
Q 3566 888 3137 398 
Q 2709 -91 1959 -91 
Q 1206 -91 779 398 
Q 353 888 353 1747 
Q 353 2609 779 3096 
Q 1206 3584 1959 3584 
z
" transform="scale(0.015625)"/>
       <path id="DejaVuSans-61" d="M 2194 1759 
Q 1497 1759 1228 1600 
Q 959 1441 959 1056 
Q 959 750 1161 570 
Q 1363 391 1709 391 
Q 2188 391 2477 730 
Q 2766 1069 2766 1631 
L 2766 1759 
L 2194 1759 
z
M 3341 1997 
L 3341 0 
L 2766 0 
L 2766 531 
Q 2569 213 2275 61 
Q 1981 -91 1556 -91 
Q 1019 -91 701 211 
Q 384 513 384 1019 
Q 384 1609 779 1909 
Q 1175 2209 1959 2209 
L 2766 2209 
L 2766 2266 
Q 2766 2663 2505 2880 
Q 2244 3097 1772 3097 
Q 1472 3097 1187 3025 
Q 903 2953 641 2809 
L 641 3341 
Q 956 3463 1253 3523 
Q 1550 3584 1831 3584 
Q 2591 3584 2966 3190 
Q 3341 2797 3341 1997 
z
" transform="scale(0.015625)"/>
      </defs>
      <use xlink:href="#DejaVuSans-53"/>
      <use xlink:href="#DejaVuSans-6f" x="63.476562"/>
      <use xlink:href="#DejaVuSans-6d" x="124.658203"/>
      <use xlink:href="#DejaVuSans-61" x="222.070312"/>
     </g>
    </g>
    <g id="line2d_26">
     <path d="M 697.098438 62.336562 
L 707.098438 62.336562 
L 717.098438 62.336562 
" style="fill: none; stroke: #4169e1; stroke-width: 1.5; stroke-linecap: square"/>
    </g>
    <g id="text_15">
     <!-- Dendrite -->
     <g transform="translate(725.098438 65.836562) scale(0.1 -0.1)">
      <defs>
       <path id="DejaVuSans-44" d="M 1259 4147 
L 1259 519 
L 2022 519 
Q 2988 519 3436 956 
Q 3884 1394 3884 2338 
Q 3884 3275 3436 3711 
Q 2988 4147 2022 4147 
L 1259 4147 
z
M 628 4666 
L 1925 4666 
Q 3281 4666 3915 4102 
Q 4550 3538 4550 2338 
Q 4550 1131 3912 565 
Q 3275 0 1925 0 
L 628 0 
L 628 4666 
z
" transform="scale(0.015625)"/>
       <path id="DejaVuSans-6e" d="M 3513 2113 
L 3513 0 
L 2938 0 
L 2938 2094 
Q 2938 2591 2744 2837 
Q 2550 3084 2163 3084 
Q 1697 3084 1428 2787 
Q 1159 2491 1159 1978 
L 1159 0 
L 581 0 
L 581 3500 
L 1159 3500 
L 1159 2956 
Q 1366 3272 1645 3428 
Q 1925 3584 2291 3584 
Q 2894 3584 3203 3211 
Q 3513 2838 3513 2113 
z
" transform="scale(0.015625)"/>
       <path id="DejaVuSans-64" d="M 2906 2969 
L 2906 4863 
L 3481 4863 
L 3481 0 
L 2906 0 
L 2906 525 
Q 2725 213 2448 61 
Q 2172 -91 1784 -91 
Q 1150 -91 751 415 
Q 353 922 353 1747 
Q 353 2572 751 3078 
Q 1150 3584 1784 3584 
Q 2172 3584 2448 3432 
Q 2725 3281 2906 2969 
z
M 947 1747 
Q 947 1113 1208 752 
Q 1469 391 1925 391 
Q 2381 391 2643 752 
Q 2906 1113 2906 1747 
Q 2906 2381 2643 2742 
Q 2381 3103 1925 3103 
Q 1469 3103 1208 2742 
Q 947 2381 947 1747 
z
" transform="scale(0.015625)"/>
       <path id="DejaVuSans-72" d="M 2631 2963 
Q 2534 3019 2420 3045 
Q 2306 3072 2169 3072 
Q 1681 3072 1420 2755 
Q 1159 2438 1159 1844 
L 1159 0 
L 581 0 
L 581 3500 
L 1159 3500 
L 1159 2956 
Q 1341 3275 1631 3429 
Q 1922 3584 2338 3584 
Q 2397 3584 2469 3576 
Q 2541 3569 2628 3553 
L 2631 2963 
z
" transform="scale(0.015625)"/>
       <path id="DejaVuSans-74" d="M 1172 4494 
L 1172 3500 
L 2356 3500 
L 2356 3053 
L 1172 3053 
L 1172 1153 
Q 1172 725 1289 603 
Q 1406 481 1766 481 
L 2356 481 
L 2356 0 
L 1766 0 
Q 1100 0 847 248 
Q 594 497 594 1153 
L 594 3053 
L 172 3053 
L 172 3500 
L 594 3500 
L 594 4494 
L 1172 4494 
z
" transform="scale(0.015625)"/>
      </defs>
      <use xlink:href="#DejaVuSans-44"/>
      <use xlink:href="#DejaVuSans-65" x="77.001953"/>
      <use xlink:href="#DejaVuSans-6e" x="138.525391"/>
      <use xlink:href="#DejaVuSans-64" x="201.904297"/>
      <use xlink:href="#DejaVuSans-72" x="265.380859"/>
      <use xlink:href="#DejaVuSans-69" x="306.494141"/>
      <use xlink:href="#DejaVuSans-74" x="334.277344"/>
      <use xlink:href="#DejaVuSans-65" x="373.486328"/>
     </g>
    </g>
   </g>
  </g>
 </g>
 <defs>
  <clipPath id="pabecbac99a">
   <rect x="108" y="34.56" width="669.6" height="221.76"/>
  </clipPath>
 </defs>
</svg>
