<?xml version="1.0" encoding="utf-8" standalone="no"?>
<!DOCTYPE svg PUBLIC "-//W3C//DTD SVG 1.1//EN"
  "http://www.w3.org/Graphics/SVG/1.1/DTD/svg11.dtd">
<svg xmlns:xlink="http://www.w3.org/1999/xlink" width="864pt" height="288pt" viewBox="0 0 864 288" xmlns="http://www.w3.org/2000/svg" version="1.1">
 <metadata>
  <rdf:RDF xmlns:dc="http://purl.org/dc/elements/1.1/" xmlns:cc="http://creativecommons.org/ns#" xmlns:rdf="http://www.w3.org/1999/02/22-rdf-syntax-ns#">
   <cc:Work>
    <dc:type rdf:resource="http://purl.org/dc/dcmitype/StillImage"/>
    <dc:date>2024-04-26T13:23:48.249645</dc:date>
    <dc:format>image/svg+xml</dc:format>
    <dc:creator>
     <cc:Agent>
      <dc:title>Matplotlib v3.8.2, https://matplotlib.org/</dc:title>
     </cc:Agent>
    </dc:creator>
   </cc:Work>
  </rdf:RDF>
 </metadata>
 <defs>
  <style type="text/css">*{stroke-linejoin: round; stroke-linecap: butt}</style>
 </defs>
 <g id="figure_1">
  <g id="patch_1">
   <path d="M 0 288 
L 864 288 
L 864 0 
L 0 0 
z
" style="fill: #ffffff"/>
  </g>
  <g id="axes_1">
   <g id="patch_2">
    <path d="M 108 256.32 
L 777.6 256.32 
L 777.6 34.56 
L 108 34.56 
z
" style="fill: #ffffff"/>
   </g>
   <g id="matplotlib.axis_1">
    <g id="xtick_1">
     <g id="line2d_1">
      <path d="M 108 256.32 
L 108 34.56 
" clip-path="url(#p83546847a7)" style="fill: none; stroke: #b0b0b0; stroke-width: 0.8; stroke-linecap: square"/>
     </g>
     <g id="line2d_2">
      <defs>
       <path id="m3f14083952" d="M 0 0 
L 0 3.5 
" style="stroke: #000000; stroke-width: 0.8"/>
      </defs>
      <g>
       <use xlink:href="#m3f14083952" x="108" y="256.32" style="stroke: #000000; stroke-width: 0.8"/>
      </g>
     </g>
     <g id="text_1">
      <!-- 100 -->
      <g transform="translate(94.63875 273.957812) scale(0.14 -0.14)">
       <defs>
        <path id="DejaVuSans-31" d="M 794 531 
L 1825 531 
L 1825 4091 
L 703 3866 
L 703 4441 
L 1819 4666 
L 2450 4666 
L 2450 531 
L 3481 531 
L 3481 0 
L 794 0 
L 794 531 
z
" transform="scale(0.015625)"/>
        <path id="DejaVuSans-30" d="M 2034 4250 
Q 1547 4250 1301 3770 
Q 1056 3291 1056 2328 
Q 1056 1369 1301 889 
Q 1547 409 2034 409 
Q 2525 409 2770 889 
Q 3016 1369 3016 2328 
Q 3016 3291 2770 3770 
Q 2525 4250 2034 4250 
z
M 2034 4750 
Q 2819 4750 3233 4129 
Q 3647 3509 3647 2328 
Q 3647 1150 3233 529 
Q 2819 -91 2034 -91 
Q 1250 -91 836 529 
Q 422 1150 422 2328 
Q 422 3509 836 4129 
Q 1250 4750 2034 4750 
z
" transform="scale(0.015625)"/>
       </defs>
       <use xlink:href="#DejaVuSans-31"/>
       <use xlink:href="#DejaVuSans-30" x="63.623047"/>
       <use xlink:href="#DejaVuSans-30" x="127.246094"/>
      </g>
     </g>
    </g>
    <g id="xtick_2">
     <g id="line2d_3">
      <path d="M 241.92 256.32 
L 241.92 34.56 
" clip-path="url(#p83546847a7)" style="fill: none; stroke: #b0b0b0; stroke-width: 0.8; stroke-linecap: square"/>
     </g>
     <g id="line2d_4">
      <g>
       <use xlink:href="#m3f14083952" x="241.92" y="256.32" style="stroke: #000000; stroke-width: 0.8"/>
      </g>
     </g>
     <g id="text_2">
      <!-- 120 -->
      <g transform="translate(228.55875 273.957812) scale(0.14 -0.14)">
       <defs>
        <path id="DejaVuSans-32" d="M 1228 531 
L 3431 531 
L 3431 0 
L 469 0 
L 469 531 
Q 828 903 1448 1529 
Q 2069 2156 2228 2338 
Q 2531 2678 2651 2914 
Q 2772 3150 2772 3378 
Q 2772 3750 2511 3984 
Q 2250 4219 1831 4219 
Q 1534 4219 1204 4116 
Q 875 4013 500 3803 
L 500 4441 
Q 881 4594 1212 4672 
Q 1544 4750 1819 4750 
Q 2544 4750 2975 4387 
Q 3406 4025 3406 3419 
Q 3406 3131 3298 2873 
Q 3191 2616 2906 2266 
Q 2828 2175 2409 1742 
Q 1991 1309 1228 531 
z
" transform="scale(0.015625)"/>
       </defs>
       <use xlink:href="#DejaVuSans-31"/>
       <use xlink:href="#DejaVuSans-32" x="63.623047"/>
       <use xlink:href="#DejaVuSans-30" x="127.246094"/>
      </g>
     </g>
    </g>
    <g id="xtick_3">
     <g id="line2d_5">
      <path d="M 375.84 256.32 
L 375.84 34.56 
" clip-path="url(#p83546847a7)" style="fill: none; stroke: #b0b0b0; stroke-width: 0.8; stroke-linecap: square"/>
     </g>
     <g id="line2d_6">
      <g>
       <use xlink:href="#m3f14083952" x="375.84" y="256.32" style="stroke: #000000; stroke-width: 0.8"/>
      </g>
     </g>
     <g id="text_3">
      <!-- 140 -->
      <g transform="translate(362.47875 273.957812) scale(0.14 -0.14)">
       <defs>
        <path id="DejaVuSans-34" d="M 2419 4116 
L 825 1625 
L 2419 1625 
L 2419 4116 
z
M 2253 4666 
L 3047 4666 
L 3047 1625 
L 3713 1625 
L 3713 1100 
L 3047 1100 
L 3047 0 
L 2419 0 
L 2419 1100 
L 313 1100 
L 313 1709 
L 2253 4666 
z
" transform="scale(0.015625)"/>
       </defs>
       <use xlink:href="#DejaVuSans-31"/>
       <use xlink:href="#DejaVuSans-34" x="63.623047"/>
       <use xlink:href="#DejaVuSans-30" x="127.246094"/>
      </g>
     </g>
    </g>
    <g id="xtick_4">
     <g id="line2d_7">
      <path d="M 509.76 256.32 
L 509.76 34.56 
" clip-path="url(#p83546847a7)" style="fill: none; stroke: #b0b0b0; stroke-width: 0.8; stroke-linecap: square"/>
     </g>
     <g id="line2d_8">
      <g>
       <use xlink:href="#m3f14083952" x="509.76" y="256.32" style="stroke: #000000; stroke-width: 0.8"/>
      </g>
     </g>
     <g id="text_4">
      <!-- 160 -->
      <g transform="translate(496.39875 273.957812) scale(0.14 -0.14)">
       <defs>
        <path id="DejaVuSans-36" d="M 2113 2584 
Q 1688 2584 1439 2293 
Q 1191 2003 1191 1497 
Q 1191 994 1439 701 
Q 1688 409 2113 409 
Q 2538 409 2786 701 
Q 3034 994 3034 1497 
Q 3034 2003 2786 2293 
Q 2538 2584 2113 2584 
z
M 3366 4563 
L 3366 3988 
Q 3128 4100 2886 4159 
Q 2644 4219 2406 4219 
Q 1781 4219 1451 3797 
Q 1122 3375 1075 2522 
Q 1259 2794 1537 2939 
Q 1816 3084 2150 3084 
Q 2853 3084 3261 2657 
Q 3669 2231 3669 1497 
Q 3669 778 3244 343 
Q 2819 -91 2113 -91 
Q 1303 -91 875 529 
Q 447 1150 447 2328 
Q 447 3434 972 4092 
Q 1497 4750 2381 4750 
Q 2619 4750 2861 4703 
Q 3103 4656 3366 4563 
z
" transform="scale(0.015625)"/>
       </defs>
       <use xlink:href="#DejaVuSans-31"/>
       <use xlink:href="#DejaVuSans-36" x="63.623047"/>
       <use xlink:href="#DejaVuSans-30" x="127.246094"/>
      </g>
     </g>
    </g>
    <g id="xtick_5">
     <g id="line2d_9">
      <path d="M 643.68 256.32 
L 643.68 34.56 
" clip-path="url(#p83546847a7)" style="fill: none; stroke: #b0b0b0; stroke-width: 0.8; stroke-linecap: square"/>
     </g>
     <g id="line2d_10">
      <g>
       <use xlink:href="#m3f14083952" x="643.68" y="256.32" style="stroke: #000000; stroke-width: 0.8"/>
      </g>
     </g>
     <g id="text_5">
      <!-- 180 -->
      <g transform="translate(630.31875 273.957812) scale(0.14 -0.14)">
       <defs>
        <path id="DejaVuSans-38" d="M 2034 2216 
Q 1584 2216 1326 1975 
Q 1069 1734 1069 1313 
Q 1069 891 1326 650 
Q 1584 409 2034 409 
Q 2484 409 2743 651 
Q 3003 894 3003 1313 
Q 3003 1734 2745 1975 
Q 2488 2216 2034 2216 
z
M 1403 2484 
Q 997 2584 770 2862 
Q 544 3141 544 3541 
Q 544 4100 942 4425 
Q 1341 4750 2034 4750 
Q 2731 4750 3128 4425 
Q 3525 4100 3525 3541 
Q 3525 3141 3298 2862 
Q 3072 2584 2669 2484 
Q 3125 2378 3379 2068 
Q 3634 1759 3634 1313 
Q 3634 634 3220 271 
Q 2806 -91 2034 -91 
Q 1263 -91 848 271 
Q 434 634 434 1313 
Q 434 1759 690 2068 
Q 947 2378 1403 2484 
z
M 1172 3481 
Q 1172 3119 1398 2916 
Q 1625 2713 2034 2713 
Q 2441 2713 2670 2916 
Q 2900 3119 2900 3481 
Q 2900 3844 2670 4047 
Q 2441 4250 2034 4250 
Q 1625 4250 1398 4047 
Q 1172 3844 1172 3481 
z
" transform="scale(0.015625)"/>
       </defs>
       <use xlink:href="#DejaVuSans-31"/>
       <use xlink:href="#DejaVuSans-38" x="63.623047"/>
       <use xlink:href="#DejaVuSans-30" x="127.246094"/>
      </g>
     </g>
    </g>
    <g id="xtick_6">
     <g id="line2d_11">
      <path d="M 777.6 256.32 
L 777.6 34.56 
" clip-path="url(#p83546847a7)" style="fill: none; stroke: #b0b0b0; stroke-width: 0.8; stroke-linecap: square"/>
     </g>
     <g id="line2d_12">
      <g>
       <use xlink:href="#m3f14083952" x="777.6" y="256.32" style="stroke: #000000; stroke-width: 0.8"/>
      </g>
     </g>
     <g id="text_6">
      <!-- 200 -->
      <g transform="translate(764.23875 273.957812) scale(0.14 -0.14)">
       <use xlink:href="#DejaVuSans-32"/>
       <use xlink:href="#DejaVuSans-30" x="63.623047"/>
       <use xlink:href="#DejaVuSans-30" x="127.246094"/>
      </g>
     </g>
    </g>
    <g id="text_7">
     <!-- Time (ms) -->
     <g transform="translate(407.521094 291.507187) scale(0.14 -0.14)">
      <defs>
       <path id="DejaVuSans-54" d="M -19 4666 
L 3928 4666 
L 3928 4134 
L 2272 4134 
L 2272 0 
L 1638 0 
L 1638 4134 
L -19 4134 
L -19 4666 
z
" transform="scale(0.015625)"/>
       <path id="DejaVuSans-69" d="M 603 3500 
L 1178 3500 
L 1178 0 
L 603 0 
L 603 3500 
z
M 603 4863 
L 1178 4863 
L 1178 4134 
L 603 4134 
L 603 4863 
z
" transform="scale(0.015625)"/>
       <path id="DejaVuSans-6d" d="M 3328 2828 
Q 3544 3216 3844 3400 
Q 4144 3584 4550 3584 
Q 5097 3584 5394 3201 
Q 5691 2819 5691 2113 
L 5691 0 
L 5113 0 
L 5113 2094 
Q 5113 2597 4934 2840 
Q 4756 3084 4391 3084 
Q 3944 3084 3684 2787 
Q 3425 2491 3425 1978 
L 3425 0 
L 2847 0 
L 2847 2094 
Q 2847 2600 2669 2842 
Q 2491 3084 2119 3084 
Q 1678 3084 1418 2786 
Q 1159 2488 1159 1978 
L 1159 0 
L 581 0 
L 581 3500 
L 1159 3500 
L 1159 2956 
Q 1356 3278 1631 3431 
Q 1906 3584 2284 3584 
Q 2666 3584 2933 3390 
Q 3200 3197 3328 2828 
z
" transform="scale(0.015625)"/>
       <path id="DejaVuSans-65" d="M 3597 1894 
L 3597 1613 
L 953 1613 
Q 991 1019 1311 708 
Q 1631 397 2203 397 
Q 2534 397 2845 478 
Q 3156 559 3463 722 
L 3463 178 
Q 3153 47 2828 -22 
Q 2503 -91 2169 -91 
Q 1331 -91 842 396 
Q 353 884 353 1716 
Q 353 2575 817 3079 
Q 1281 3584 2069 3584 
Q 2775 3584 3186 3129 
Q 3597 2675 3597 1894 
z
M 3022 2063 
Q 3016 2534 2758 2815 
Q 2500 3097 2075 3097 
Q 1594 3097 1305 2825 
Q 1016 2553 972 2059 
L 3022 2063 
z
" transform="scale(0.015625)"/>
       <path id="DejaVuSans-20" transform="scale(0.015625)"/>
       <path id="DejaVuSans-28" d="M 1984 4856 
Q 1566 4138 1362 3434 
Q 1159 2731 1159 2009 
Q 1159 1288 1364 580 
Q 1569 -128 1984 -844 
L 1484 -844 
Q 1016 -109 783 600 
Q 550 1309 550 2009 
Q 550 2706 781 3412 
Q 1013 4119 1484 4856 
L 1984 4856 
z
" transform="scale(0.015625)"/>
       <path id="DejaVuSans-73" d="M 2834 3397 
L 2834 2853 
Q 2591 2978 2328 3040 
Q 2066 3103 1784 3103 
Q 1356 3103 1142 2972 
Q 928 2841 928 2578 
Q 928 2378 1081 2264 
Q 1234 2150 1697 2047 
L 1894 2003 
Q 2506 1872 2764 1633 
Q 3022 1394 3022 966 
Q 3022 478 2636 193 
Q 2250 -91 1575 -91 
Q 1294 -91 989 -36 
Q 684 19 347 128 
L 347 722 
Q 666 556 975 473 
Q 1284 391 1588 391 
Q 1994 391 2212 530 
Q 2431 669 2431 922 
Q 2431 1156 2273 1281 
Q 2116 1406 1581 1522 
L 1381 1569 
Q 847 1681 609 1914 
Q 372 2147 372 2553 
Q 372 3047 722 3315 
Q 1072 3584 1716 3584 
Q 2034 3584 2315 3537 
Q 2597 3491 2834 3397 
z
" transform="scale(0.015625)"/>
       <path id="DejaVuSans-29" d="M 513 4856 
L 1013 4856 
Q 1481 4119 1714 3412 
Q 1947 2706 1947 2009 
Q 1947 1309 1714 600 
Q 1481 -109 1013 -844 
L 513 -844 
Q 928 -128 1133 580 
Q 1338 1288 1338 2009 
Q 1338 2731 1133 3434 
Q 928 4138 513 4856 
z
" transform="scale(0.015625)"/>
      </defs>
      <use xlink:href="#DejaVuSans-54"/>
      <use xlink:href="#DejaVuSans-69" x="57.958984"/>
      <use xlink:href="#DejaVuSans-6d" x="85.742188"/>
      <use xlink:href="#DejaVuSans-65" x="183.154297"/>
      <use xlink:href="#DejaVuSans-20" x="244.677734"/>
      <use xlink:href="#DejaVuSans-28" x="276.464844"/>
      <use xlink:href="#DejaVuSans-6d" x="315.478516"/>
      <use xlink:href="#DejaVuSans-73" x="412.890625"/>
      <use xlink:href="#DejaVuSans-29" x="464.990234"/>
     </g>
    </g>
   </g>
   <g id="matplotlib.axis_2">
    <g id="ytick_1">
     <g id="line2d_13">
      <path d="M 108 224.184688 
L 777.6 224.184688 
" clip-path="url(#p83546847a7)" style="fill: none; stroke: #b0b0b0; stroke-width: 0.8; stroke-linecap: square"/>
     </g>
     <g id="line2d_14">
      <defs>
       <path id="m7fb9957cfa" d="M 0 0 
L -3.5 0 
" style="stroke: #000000; stroke-width: 0.8"/>
      </defs>
      <g>
       <use xlink:href="#m7fb9957cfa" x="108" y="224.184688" style="stroke: #000000; stroke-width: 0.8"/>
      </g>
     </g>
     <g id="text_8">
      <!-- −60 -->
      <g transform="translate(71.453437 229.503594) scale(0.14 -0.14)">
       <defs>
        <path id="DejaVuSans-2212" d="M 678 2272 
L 4684 2272 
L 4684 1741 
L 678 1741 
L 678 2272 
z
" transform="scale(0.015625)"/>
       </defs>
       <use xlink:href="#DejaVuSans-2212"/>
       <use xlink:href="#DejaVuSans-36" x="83.789062"/>
       <use xlink:href="#DejaVuSans-30" x="147.412109"/>
      </g>
     </g>
    </g>
    <g id="ytick_2">
     <g id="line2d_15">
      <path d="M 108 180.144349 
L 777.6 180.144349 
" clip-path="url(#p83546847a7)" style="fill: none; stroke: #b0b0b0; stroke-width: 0.8; stroke-linecap: square"/>
     </g>
     <g id="line2d_16">
      <g>
       <use xlink:href="#m7fb9957cfa" x="108" y="180.144349" style="stroke: #000000; stroke-width: 0.8"/>
      </g>
     </g>
     <g id="text_9">
      <!-- −40 -->
      <g transform="translate(71.453437 185.463256) scale(0.14 -0.14)">
       <use xlink:href="#DejaVuSans-2212"/>
       <use xlink:href="#DejaVuSans-34" x="83.789062"/>
       <use xlink:href="#DejaVuSans-30" x="147.412109"/>
      </g>
     </g>
    </g>
    <g id="ytick_3">
     <g id="line2d_17">
      <path d="M 108 136.104011 
L 777.6 136.104011 
" clip-path="url(#p83546847a7)" style="fill: none; stroke: #b0b0b0; stroke-width: 0.8; stroke-linecap: square"/>
     </g>
     <g id="line2d_18">
      <g>
       <use xlink:href="#m7fb9957cfa" x="108" y="136.104011" style="stroke: #000000; stroke-width: 0.8"/>
      </g>
     </g>
     <g id="text_10">
      <!-- −20 -->
      <g transform="translate(71.453437 141.422917) scale(0.14 -0.14)">
       <use xlink:href="#DejaVuSans-2212"/>
       <use xlink:href="#DejaVuSans-32" x="83.789062"/>
       <use xlink:href="#DejaVuSans-30" x="147.412109"/>
      </g>
     </g>
    </g>
    <g id="ytick_4">
     <g id="line2d_19">
      <path d="M 108 92.063673 
L 777.6 92.063673 
" clip-path="url(#p83546847a7)" style="fill: none; stroke: #b0b0b0; stroke-width: 0.8; stroke-linecap: square"/>
     </g>
     <g id="line2d_20">
      <g>
       <use xlink:href="#m7fb9957cfa" x="108" y="92.063673" style="stroke: #000000; stroke-width: 0.8"/>
      </g>
     </g>
     <g id="text_11">
      <!-- 0 -->
      <g transform="translate(92.0925 97.382579) scale(0.14 -0.14)">
       <use xlink:href="#DejaVuSans-30"/>
      </g>
     </g>
    </g>
    <g id="ytick_5">
     <g id="line2d_21">
      <path d="M 108 48.023334 
L 777.6 48.023334 
" clip-path="url(#p83546847a7)" style="fill: none; stroke: #b0b0b0; stroke-width: 0.8; stroke-linecap: square"/>
     </g>
     <g id="line2d_22">
      <g>
       <use xlink:href="#m7fb9957cfa" x="108" y="48.023334" style="stroke: #000000; stroke-width: 0.8"/>
      </g>
     </g>
     <g id="text_12">
      <!-- 20 -->
      <g transform="translate(83.185 53.342241) scale(0.14 -0.14)">
       <use xlink:href="#DejaVuSans-32"/>
       <use xlink:href="#DejaVuSans-30" x="63.623047"/>
      </g>
     </g>
    </g>
    <g id="text_13">
     <!-- $V_{m}$ (mV) -->
     <g transform="translate(64.541875 174.49) rotate(-90) scale(0.14 -0.14)">
      <defs>
       <path id="DejaVuSans-Oblique-56" d="M 1319 0 
L 500 4666 
L 1119 4666 
L 1797 653 
L 4063 4666 
L 4750 4666 
L 2053 0 
L 1319 0 
z
" transform="scale(0.015625)"/>
       <path id="DejaVuSans-Oblique-6d" d="M 5747 2113 
L 5338 0 
L 4763 0 
L 5166 2094 
Q 5191 2228 5203 2325 
Q 5216 2422 5216 2491 
Q 5216 2772 5059 2928 
Q 4903 3084 4622 3084 
Q 4203 3084 3875 2770 
Q 3547 2456 3450 1953 
L 3066 0 
L 2491 0 
L 2900 2094 
Q 2925 2209 2937 2307 
Q 2950 2406 2950 2484 
Q 2950 2769 2794 2926 
Q 2638 3084 2363 3084 
Q 1938 3084 1609 2770 
Q 1281 2456 1184 1953 
L 800 0 
L 225 0 
L 909 3500 
L 1484 3500 
L 1375 2956 
Q 1609 3263 1923 3423 
Q 2238 3584 2597 3584 
Q 2978 3584 3223 3384 
Q 3469 3184 3519 2828 
Q 3781 3197 4126 3390 
Q 4472 3584 4856 3584 
Q 5306 3584 5551 3325 
Q 5797 3066 5797 2591 
Q 5797 2488 5784 2364 
Q 5772 2241 5747 2113 
z
" transform="scale(0.015625)"/>
       <path id="DejaVuSans-56" d="M 1831 0 
L 50 4666 
L 709 4666 
L 2188 738 
L 3669 4666 
L 4325 4666 
L 2547 0 
L 1831 0 
z
" transform="scale(0.015625)"/>
      </defs>
      <use xlink:href="#DejaVuSans-Oblique-56" transform="translate(0 0.125)"/>
      <use xlink:href="#DejaVuSans-Oblique-6d" transform="translate(68.408203 -16.28125) scale(0.7)"/>
      <use xlink:href="#DejaVuSans-20" transform="translate(139.331055 0.125)"/>
      <use xlink:href="#DejaVuSans-28" transform="translate(171.118164 0.125)"/>
      <use xlink:href="#DejaVuSans-6d" transform="translate(210.131836 0.125)"/>
      <use xlink:href="#DejaVuSans-56" transform="translate(307.543945 0.125)"/>
      <use xlink:href="#DejaVuSans-29" transform="translate(375.952148 0.125)"/>
     </g>
    </g>
   </g>
   <g id="line2d_23">
    <path d="M 108 220.180306 
L 109.3392 220.865504 
L 110.6784 221.313329 
L 111.348 221.479437 
L 112.6872 222.439897 
L 114.0264 222.904715 
L 116.0352 224.489629 
L 118.044 226.973082 
L 118.7136 228.092 
L 119.3832 228.958402 
L 120.0528 229.510853 
L 120.7224 230.552507 
L 122.7312 232.855879 
L 124.0704 233.646475 
L 125.4096 234.158213 
L 127.4184 234.649284 
L 129.4272 234.915909 
L 132.1056 235.015982 
L 134.1144 234.937969 
L 136.1232 235.718123 
L 136.7928 236.53219 
L 137.4624 237.101772 
L 140.1408 238.265395 
L 141.48 238.524794 
L 143.4888 238.611538 
L 144.828 239.045721 
L 146.1672 239.139413 
L 148.176 239.040215 
L 149.5152 239.373072 
L 150.8544 239.380492 
L 153.5328 239.065913 
L 156.8808 238.386716 
L 160.2288 237.490482 
L 162.9072 236.602552 
L 164.916 235.556858 
L 168.9336 233.465894 
L 184.3344 225.85294 
L 191.0304 222.17041 
L 198.396 217.886119 
L 199.7352 217.919186 
L 201.0744 217.5271 
L 203.7528 216.373442 
L 205.7616 215.404522 
L 207.1008 215.594754 
L 208.44 215.332785 
L 209.7792 215.753799 
L 211.1184 215.666599 
L 213.1272 215.202315 
L 216.4752 214.115603 
L 220.4928 212.55736 
L 225.8496 210.218975 
L 227.1888 210.540031 
L 227.8584 211.481972 
L 228.528 212.212823 
L 229.1976 212.574609 
L 230.5368 212.855247 
L 231.876 212.879811 
L 232.5456 212.839273 
L 234.5544 214.162113 
L 235.8936 216.112212 
L 236.5632 217.262963 
L 239.2416 220.53258 
L 239.9112 221.58904 
L 240.5808 223.108792 
L 241.2504 224.226101 
L 241.92 224.944809 
L 243.2592 225.887868 
L 244.5984 226.514424 
L 245.9376 227.59024 
L 246.6072 227.920953 
L 247.2768 228.509489 
L 247.9464 229.315135 
L 249.9552 231.148343 
L 251.2944 232.354897 
L 252.6336 232.984047 
L 253.9728 233.374277 
L 255.312 234.703493 
L 255.9816 235.344385 
L 256.6512 235.818737 
L 257.9904 236.354915 
L 259.9992 236.770578 
L 260.6688 236.85106 
L 262.008 237.448025 
L 263.3472 237.682557 
L 264.6864 237.764844 
L 267.3648 238.880655 
L 268.704 239.082309 
L 270.7128 239.102416 
L 272.052 239.496625 
L 273.3912 239.559308 
L 275.4 239.422655 
L 278.0784 239.030973 
L 281.4264 238.311299 
L 282.096 238.142073 
L 283.4352 238.289635 
L 284.7744 238.127688 
L 287.4528 237.510719 
L 290.8008 236.508592 
L 291.4704 236.286174 
L 292.8096 236.364612 
L 294.1488 236.125337 
L 296.1576 235.564967 
L 297.4968 234.990717 
L 306.2016 230.511944 
L 314.9064 226.16418 
L 321.6024 222.548126 
L 329.6376 217.925771 
L 339.6816 211.871349 
L 345.0384 208.54971 
L 346.3776 208.691874 
L 347.7168 208.375985 
L 349.7256 207.581509 
L 353.0736 205.968991 
L 354.4128 205.253831 
L 355.752 206.579474 
L 356.4216 206.884403 
L 358.4304 208.818787 
L 359.1 209.903025 
L 359.7696 210.673098 
L 360.4392 211.145512 
L 361.7784 211.678392 
L 363.1176 213.660237 
L 363.7872 214.641075 
L 364.4568 215.372569 
L 366.4656 216.888483 
L 367.1352 217.451874 
L 367.8048 217.820997 
L 369.144 219.059283 
L 370.4832 219.683902 
L 371.8224 220.047239 
L 372.492 220.173215 
L 373.8312 221.806119 
L 374.5008 223.375389 
L 375.1704 224.583206 
L 375.84 225.313074 
L 377.1792 226.216927 
L 378.5184 226.792688 
L 379.188 227.008742 
L 379.8576 227.535606 
L 381.8664 229.824109 
L 382.536 230.236185 
L 383.8752 231.356601 
L 384.5448 231.692938 
L 386.5536 233.305145 
L 387.2232 233.769823 
L 388.5624 234.305511 
L 391.2408 235.111171 
L 391.9104 235.696627 
L 392.58 236.103009 
L 393.9192 236.509365 
L 395.928 236.764125 
L 399.276 237.039171 
L 402.624 237.892701 
L 403.2936 237.926144 
L 405.972 238.981244 
L 407.3112 239.141607 
L 407.9808 239.152076 
L 409.32 239.575935 
L 410.6592 239.653375 
L 412.668 239.526131 
L 415.3464 239.136166 
L 418.6944 238.411674 
L 422.712 237.278444 
L 426.7296 235.913214 
L 428.0688 235.963154 
L 429.408 235.696138 
L 430.7472 235.265788 
L 432.756 234.243611 
L 437.4432 231.805452 
L 450.1656 225.449284 
L 456.8616 221.784892 
L 464.8968 217.120122 
L 472.932 212.269378 
L 474.2712 212.368504 
L 475.6104 212.015132 
L 476.9496 211.490738 
L 478.2888 211.822335 
L 479.628 211.660948 
L 481.6368 211.091716 
L 483.6456 210.373354 
L 484.9848 210.781575 
L 485.6544 211.272145 
L 486.324 211.61779 
L 487.6632 211.791644 
L 489.0024 211.707255 
L 490.3416 213.275549 
L 491.0112 213.640043 
L 491.6808 214.301552 
L 492.3504 215.252656 
L 493.02 215.918571 
L 493.6896 216.320819 
L 494.3592 217.022083 
L 495.0288 217.994974 
L 495.6984 218.690339 
L 497.7072 220.08779 
L 498.3768 220.606624 
L 499.716 221.182525 
L 501.0552 221.505821 
L 502.3944 222.413575 
L 503.7336 222.824398 
L 504.4032 222.942043 
L 505.7424 223.783527 
L 507.0816 224.142378 
L 507.7512 224.237538 
L 508.4208 224.674477 
L 510.4296 227.970956 
L 511.0992 228.709586 
L 512.4384 229.542415 
L 513.7776 230.031745 
L 515.1168 230.935591 
L 515.7864 231.824543 
L 516.456 232.516299 
L 517.1256 232.937992 
L 519.804 236.408623 
L 521.1432 237.173708 
L 522.4824 237.642302 
L 523.152 237.813626 
L 523.8216 238.218578 
L 524.4912 238.803772 
L 526.5 240.109149 
L 527.8392 240.968257 
L 529.1784 241.368349 
L 529.848 241.490474 
L 531.1872 242.076479 
L 532.5264 242.316369 
L 534.5352 242.420778 
L 537.2136 242.309493 
L 540.5616 241.891153 
L 543.9096 241.232698 
L 547.9272 240.186089 
L 551.9448 238.906026 
L 556.632 237.164435 
L 561.3192 235.195407 
L 564.6672 233.622403 
L 567.3456 231.848766 
L 570.6936 229.707888 
L 576.72 226.182134 
L 586.764 220.284075 
L 596.808 214.104886 
L 602.1648 210.729708 
L 603.504 210.824865 
L 604.8432 210.462661 
L 607.5216 209.310584 
L 611.5392 207.270242 
L 613.548 206.159036 
L 614.8872 206.421475 
L 616.2264 206.232794 
L 618.2352 205.594991 
L 620.9136 204.443839 
L 622.9224 203.434288 
L 624.2616 203.781688 
L 624.9312 203.805327 
L 625.6008 204.283381 
L 626.2704 205.221295 
L 626.94 205.943987 
L 627.6096 206.397355 
L 628.9488 206.871307 
L 629.6184 206.98446 
L 630.288 207.555927 
L 630.9576 209.02653 
L 631.6272 210.167536 
L 632.2968 210.859099 
L 634.3056 212.383561 
L 634.9752 212.970405 
L 635.6448 213.350007 
L 636.984 214.655302 
L 637.6536 215.032009 
L 638.9928 218.28138 
L 639.6624 219.379983 
L 640.332 220.101052 
L 641.6712 221.768267 
L 642.3408 222.294761 
L 643.0104 223.081502 
L 643.68 224.090633 
L 644.3496 224.840395 
L 645.0192 225.359365 
L 646.3584 226.72525 
L 648.3672 228.116817 
L 649.0368 228.957476 
L 649.7064 229.576018 
L 653.0544 231.677892 
L 653.724 232.230029 
L 654.3936 232.97608 
L 658.4112 236.235884 
L 659.7504 237.822054 
L 660.42 238.390199 
L 661.7592 239.050257 
L 663.0984 239.451386 
L 665.1072 239.805216 
L 668.4552 240.231323 
L 669.7944 240.512102 
L 671.8032 240.543431 
L 674.4816 240.331367 
L 677.8296 239.805952 
L 681.1776 239.056669 
L 685.1952 237.916019 
L 689.2128 236.553659 
L 693.9 234.727258 
L 695.2392 234.734627 
L 696.5784 234.420338 
L 698.5872 233.704638 
L 700.596 232.585499 
L 704.6136 230.309202 
L 723.3624 220.169694 
L 732.0672 215.016318 
L 742.7808 208.411473 
L 744.12 208.550002 
L 745.4592 208.230725 
L 747.468 207.428103 
L 748.8072 207.806094 
L 750.1464 207.701589 
L 752.1552 207.178833 
L 753.4944 207.718643 
L 754.8336 207.760669 
L 756.1728 207.574043 
L 757.512 208.257315 
L 758.8512 208.419389 
L 760.1904 208.341469 
L 761.5296 209.102614 
L 762.1992 209.260351 
L 763.5384 210.262238 
L 764.8776 210.640783 
L 765.5472 210.716322 
L 766.8864 211.647891 
L 768.2256 212.006906 
L 768.8952 212.08289 
L 770.2344 213.855226 
L 770.904 214.310035 
L 771.5736 214.602043 
L 774.252 217.110645 
L 775.5912 217.74379 
L 776.9304 218.090158 
L 777.6 218.623882 
L 777.6 218.623882 
" clip-path="url(#p83546847a7)" style="fill: none; stroke: #000000; stroke-width: 1.5; stroke-linecap: square"/>
   </g>
   <g id="line2d_24">
    <path d="M 108 202.422086 
L 110.0088 204.927471 
L 112.0176 207.126591 
L 115.3656 210.449757 
L 118.044 213.192238 
L 120.7224 216.366162 
L 125.4096 222.022562 
L 127.4184 223.970526 
L 129.4272 225.590383 
L 131.436 226.924275 
L 133.4448 228.007798 
L 138.132 230.289565 
L 142.1496 232.496365 
L 144.828 233.638962 
L 147.5064 234.595432 
L 151.524 235.671735 
L 154.2024 236.145877 
L 156.8808 236.372511 
L 159.5592 236.384185 
L 162.2376 236.21004 
L 162.9072 203.325699 
L 163.5768 190.047378 
L 164.2464 184.024566 
L 164.916 180.982464 
L 165.5856 179.487265 
L 166.2552 178.963937 
L 166.9248 179.117527 
L 167.5944 179.761692 
L 168.264 180.760973 
L 169.6032 183.419261 
L 174.2904 193.705087 
L 175.6296 196.096412 
L 176.9688 198.149222 
L 178.308 199.874552 
L 179.6472 201.295926 
L 180.9864 202.442011 
L 182.3256 203.342101 
L 183.6648 204.024471 
L 185.004 204.514747 
L 186.3432 204.836068 
L 188.352 205.045549 
L 190.3608 204.979605 
L 192.3696 204.686597 
L 195.048 204.01043 
L 197.7264 203.076187 
L 200.4048 202.09972 
L 208.44 199.760531 
L 210.4488 199.547092 
L 219.1536 199.219289 
L 223.1712 198.757354 
L 227.8584 198.157135 
L 229.1976 198.403794 
L 232.5456 199.52358 
L 234.5544 200.301661 
L 235.8936 201.07311 
L 237.2328 202.159802 
L 239.2416 204.180178 
L 240.5808 205.741371 
L 245.9376 212.566574 
L 253.3032 220.815063 
L 258.66 225.968035 
L 260.6688 227.574822 
L 263.3472 229.414046 
L 266.0256 230.94414 
L 270.0432 233.002544 
L 273.3912 234.316466 
L 276.0696 235.114605 
L 278.748 235.620708 
L 281.4264 235.871328 
L 287.4528 236.037855 
L 290.1312 235.877407 
L 296.1576 235.265793 
L 296.8272 202.57066 
L 297.4968 189.349018 
L 298.1664 183.325912 
L 298.836 180.235507 
L 299.5056 178.661767 
L 300.1752 178.045554 
L 300.8448 178.10008 
L 301.5144 178.644645 
L 302.184 179.547601 
L 303.5232 182.035123 
L 308.2104 191.926468 
L 309.5496 194.238874 
L 310.8888 196.220446 
L 312.228 197.879912 
L 313.5672 199.239172 
L 314.9064 200.325853 
L 316.2456 201.168527 
L 317.5848 201.794936 
L 318.924 202.230283 
L 320.2632 202.497677 
L 322.272 202.628009 
L 324.2808 202.484908 
L 326.2896 202.116869 
L 328.968 201.344354 
L 331.6464 200.318316 
L 334.9944 198.768601 
L 339.012 196.629714 
L 343.6992 193.875678 
L 346.3776 192.293678 
L 348.3864 191.395201 
L 355.0824 188.828436 
L 356.4216 188.633524 
L 357.7608 188.783863 
L 359.1 189.308217 
L 360.4392 190.217544 
L 362.448 191.916609 
L 363.7872 193.312708 
L 367.1352 197.395034 
L 371.8224 203.058041 
L 374.5008 206.000728 
L 380.5272 213.557101 
L 386.5536 220.365383 
L 389.232 223.072819 
L 391.2408 224.792213 
L 394.5888 227.441057 
L 396.5976 228.767702 
L 398.6064 229.84363 
L 403.2936 231.965065 
L 409.32 234.392637 
L 411.9984 235.259415 
L 414.6768 235.847902 
L 417.3552 236.169954 
L 420.0336 236.264335 
L 422.712 236.162214 
L 426.06 235.795698 
L 430.0776 235.264062 
L 430.7472 202.567827 
L 431.4168 189.346024 
L 432.0864 183.324125 
L 432.756 180.237844 
L 433.4256 178.670479 
L 434.0952 178.061457 
L 434.7648 178.122891 
L 435.4344 178.673361 
L 436.104 179.58081 
L 437.4432 182.072872 
L 442.1304 191.954514 
L 443.4696 194.262429 
L 444.8088 196.239699 
L 446.148 197.895173 
L 447.4872 199.250784 
L 448.8264 200.334145 
L 450.1656 201.17382 
L 451.5048 201.797516 
L 452.844 202.230413 
L 454.1832 202.495593 
L 456.192 202.622988 
L 458.2008 202.477346 
L 460.2096 202.107107 
L 462.888 201.332109 
L 465.5664 200.304029 
L 468.9144 198.752336 
L 472.932 196.611881 
L 474.9408 195.63587 
L 477.6192 194.623338 
L 479.628 194.15111 
L 484.3152 193.45356 
L 485.6544 193.419886 
L 486.9936 193.608548 
L 489.672 194.311201 
L 491.0112 194.932519 
L 492.3504 195.794002 
L 494.3592 197.504806 
L 496.368 199.592629 
L 501.7248 205.318715 
L 505.0728 208.479147 
L 508.4208 211.341352 
L 509.76 212.538286 
L 512.4384 215.44965 
L 515.1168 218.171037 
L 518.4648 221.603138 
L 522.4824 226.024893 
L 525.8304 229.072571 
L 529.1784 231.931544 
L 531.8568 233.867093 
L 533.8656 235.096551 
L 535.8744 236.091426 
L 537.8832 236.869474 
L 539.892 237.456589 
L 542.5704 237.980578 
L 545.2488 238.247872 
L 547.9272 238.293636 
L 550.6056 238.147106 
L 553.9536 237.730611 
L 557.3016 237.091594 
L 561.3192 236.076163 
L 563.9976 235.269472 
L 564.6672 202.473481 
L 565.3368 189.159653 
L 566.0064 183.042024 
L 566.676 179.844383 
L 567.3456 178.146471 
L 568.0152 177.389314 
L 568.6848 177.288728 
L 569.3544 177.665647 
L 570.024 178.393086 
L 571.3632 180.51573 
L 576.0504 189.178096 
L 577.3896 191.166115 
L 578.7288 192.834198 
L 580.068 194.18958 
L 581.4072 195.25339 
L 582.7464 196.050627 
L 584.0856 196.609512 
L 585.4248 196.955874 
L 586.764 197.114265 
L 588.1032 197.107349 
L 590.112 196.830085 
L 592.1208 196.283234 
L 594.1296 195.513603 
L 596.808 194.206112 
L 599.4864 192.643327 
L 605.5128 188.913467 
L 614.8872 184.265303 
L 616.896 183.684379 
L 619.5744 183.201087 
L 624.2616 182.604671 
L 625.6008 182.68772 
L 626.94 183.135959 
L 628.2792 183.95677 
L 630.288 185.510989 
L 631.6272 186.872766 
L 633.636 189.43328 
L 638.3232 195.800753 
L 640.332 199.011258 
L 644.3496 205.592198 
L 647.028 209.700915 
L 650.376 214.306862 
L 653.0544 217.634081 
L 658.4112 223.694431 
L 663.0984 228.705622 
L 665.1072 230.41719 
L 667.116 231.820308 
L 669.7944 233.357085 
L 671.8032 234.336397 
L 673.812 235.114753 
L 675.8208 235.701881 
L 678.4992 236.223385 
L 681.1776 236.486398 
L 683.856 236.526911 
L 686.5344 236.374504 
L 689.8824 235.949971 
L 693.2304 235.302262 
L 697.248 234.491593 
L 697.9176 234.362525 
L 698.5872 201.82313 
L 699.2568 188.633369 
L 699.9264 182.592287 
L 700.596 179.455097 
L 701.2656 177.819158 
L 701.9352 177.1274 
L 702.6048 177.095269 
L 703.2744 177.543505 
L 703.944 178.343664 
L 705.2832 180.611191 
L 709.9704 189.770088 
L 711.3096 191.900357 
L 712.6488 193.711049 
L 713.988 195.20897 
L 715.3272 196.414021 
L 716.6664 197.352697 
L 718.0056 198.051757 
L 719.3448 198.538369 
L 720.684 198.837343 
L 722.0232 198.970894 
L 724.032 198.90438 
L 726.0408 198.569111 
L 728.0496 198.013059 
L 730.728 196.996144 
L 733.4064 195.733487 
L 736.7544 193.894524 
L 740.772 191.4089 
L 744.7896 188.886721 
L 747.468 187.647465 
L 748.8072 187.164778 
L 750.816 186.744265 
L 752.8248 186.525097 
L 754.164 186.571533 
L 756.1728 186.882713 
L 757.512 187.23583 
L 759.5208 188.028508 
L 761.5296 188.986886 
L 763.5384 190.246043 
L 766.8864 192.811763 
L 770.2344 195.643334 
L 773.5824 199.017351 
L 777.6 203.215796 
L 777.6 203.215796 
" clip-path="url(#p83546847a7)" style="fill: none; stroke: #4169e1; stroke-width: 1.5; stroke-linecap: square"/>
   </g>
   <g id="patch_3">
    <path d="M 108 256.32 
L 108 34.56 
" style="fill: none; stroke: #000000; stroke-width: 0.8; stroke-linejoin: miter; stroke-linecap: square"/>
   </g>
   <g id="patch_4">
    <path d="M 777.6 256.32 
L 777.6 34.56 
" style="fill: none; stroke: #000000; stroke-width: 0.8; stroke-linejoin: miter; stroke-linecap: square"/>
   </g>
   <g id="patch_5">
    <path d="M 108 256.32 
L 777.6 256.32 
" style="fill: none; stroke: #000000; stroke-width: 0.8; stroke-linejoin: miter; stroke-linecap: square"/>
   </g>
   <g id="patch_6">
    <path d="M 108 34.56 
L 777.6 34.56 
" style="fill: none; stroke: #000000; stroke-width: 0.8; stroke-linejoin: miter; stroke-linecap: square"/>
   </g>
   <g id="legend_1">
    <g id="patch_7">
     <path d="M 695.098438 71.91625 
L 770.6 71.91625 
Q 772.6 71.91625 772.6 69.91625 
L 772.6 41.56 
Q 772.6 39.56 770.6 39.56 
L 695.098438 39.56 
Q 693.098438 39.56 693.098438 41.56 
L 693.098438 69.91625 
Q 693.098438 71.91625 695.098438 71.91625 
z
" style="fill: #ffffff; opacity: 0.8; stroke: #cccccc; stroke-linejoin: miter"/>
    </g>
    <g id="line2d_25">
     <path d="M 697.098438 47.658437 
L 707.098438 47.658437 
L 717.098438 47.658437 
" style="fill: none; stroke: #000000; stroke-width: 1.5; stroke-linecap: square"/>
    </g>
    <g id="text_14">
     <!-- Soma -->
     <g transform="translate(725.098438 51.158437) scale(0.1 -0.1)">
      <defs>
       <path id="DejaVuSans-53" d="M 3425 4513 
L 3425 3897 
Q 3066 4069 2747 4153 
Q 2428 4238 2131 4238 
Q 1616 4238 1336 4038 
Q 1056 3838 1056 3469 
Q 1056 3159 1242 3001 
Q 1428 2844 1947 2747 
L 2328 2669 
Q 3034 2534 3370 2195 
Q 3706 1856 3706 1288 
Q 3706 609 3251 259 
Q 2797 -91 1919 -91 
Q 1588 -91 1214 -16 
Q 841 59 441 206 
L 441 856 
Q 825 641 1194 531 
Q 1563 422 1919 422 
Q 2459 422 2753 634 
Q 3047 847 3047 1241 
Q 3047 1584 2836 1778 
Q 2625 1972 2144 2069 
L 1759 2144 
Q 1053 2284 737 2584 
Q 422 2884 422 3419 
Q 422 4038 858 4394 
Q 1294 4750 2059 4750 
Q 2388 4750 2728 4690 
Q 3069 4631 3425 4513 
z
" transform="scale(0.015625)"/>
       <path id="DejaVuSans-6f" d="M 1959 3097 
Q 1497 3097 1228 2736 
Q 959 2375 959 1747 
Q 959 1119 1226 758 
Q 1494 397 1959 397 
Q 2419 397 2687 759 
Q 2956 1122 2956 1747 
Q 2956 2369 2687 2733 
Q 2419 3097 1959 3097 
z
M 1959 3584 
Q 2709 3584 3137 3096 
Q 3566 2609 3566 1747 
Q 3566 888 3137 398 
Q 2709 -91 1959 -91 
Q 1206 -91 779 398 
Q 353 888 353 1747 
Q 353 2609 779 3096 
Q 1206 3584 1959 3584 
z
" transform="scale(0.015625)"/>
       <path id="DejaVuSans-61" d="M 2194 1759 
Q 1497 1759 1228 1600 
Q 959 1441 959 1056 
Q 959 750 1161 570 
Q 1363 391 1709 391 
Q 2188 391 2477 730 
Q 2766 1069 2766 1631 
L 2766 1759 
L 2194 1759 
z
M 3341 1997 
L 3341 0 
L 2766 0 
L 2766 531 
Q 2569 213 2275 61 
Q 1981 -91 1556 -91 
Q 1019 -91 701 211 
Q 384 513 384 1019 
Q 384 1609 779 1909 
Q 1175 2209 1959 2209 
L 2766 2209 
L 2766 2266 
Q 2766 2663 2505 2880 
Q 2244 3097 1772 3097 
Q 1472 3097 1187 3025 
Q 903 2953 641 2809 
L 641 3341 
Q 956 3463 1253 3523 
Q 1550 3584 1831 3584 
Q 2591 3584 2966 3190 
Q 3341 2797 3341 1997 
z
" transform="scale(0.015625)"/>
      </defs>
      <use xlink:href="#DejaVuSans-53"/>
      <use xlink:href="#DejaVuSans-6f" x="63.476562"/>
      <use xlink:href="#DejaVuSans-6d" x="124.658203"/>
      <use xlink:href="#DejaVuSans-61" x="222.070312"/>
     </g>
    </g>
    <g id="line2d_26">
     <path d="M 697.098438 62.336562 
L 707.098438 62.336562 
L 717.098438 62.336562 
" style="fill: none; stroke: #4169e1; stroke-width: 1.5; stroke-linecap: square"/>
    </g>
    <g id="text_15">
     <!-- Dendrite -->
     <g transform="translate(725.098438 65.836562) scale(0.1 -0.1)">
      <defs>
       <path id="DejaVuSans-44" d="M 1259 4147 
L 1259 519 
L 2022 519 
Q 2988 519 3436 956 
Q 3884 1394 3884 2338 
Q 3884 3275 3436 3711 
Q 2988 4147 2022 4147 
L 1259 4147 
z
M 628 4666 
L 1925 4666 
Q 3281 4666 3915 4102 
Q 4550 3538 4550 2338 
Q 4550 1131 3912 565 
Q 3275 0 1925 0 
L 628 0 
L 628 4666 
z
" transform="scale(0.015625)"/>
       <path id="DejaVuSans-6e" d="M 3513 2113 
L 3513 0 
L 2938 0 
L 2938 2094 
Q 2938 2591 2744 2837 
Q 2550 3084 2163 3084 
Q 1697 3084 1428 2787 
Q 1159 2491 1159 1978 
L 1159 0 
L 581 0 
L 581 3500 
L 1159 3500 
L 1159 2956 
Q 1366 3272 1645 3428 
Q 1925 3584 2291 3584 
Q 2894 3584 3203 3211 
Q 3513 2838 3513 2113 
z
" transform="scale(0.015625)"/>
       <path id="DejaVuSans-64" d="M 2906 2969 
L 2906 4863 
L 3481 4863 
L 3481 0 
L 2906 0 
L 2906 525 
Q 2725 213 2448 61 
Q 2172 -91 1784 -91 
Q 1150 -91 751 415 
Q 353 922 353 1747 
Q 353 2572 751 3078 
Q 1150 3584 1784 3584 
Q 2172 3584 2448 3432 
Q 2725 3281 2906 2969 
z
M 947 1747 
Q 947 1113 1208 752 
Q 1469 391 1925 391 
Q 2381 391 2643 752 
Q 2906 1113 2906 1747 
Q 2906 2381 2643 2742 
Q 2381 3103 1925 3103 
Q 1469 3103 1208 2742 
Q 947 2381 947 1747 
z
" transform="scale(0.015625)"/>
       <path id="DejaVuSans-72" d="M 2631 2963 
Q 2534 3019 2420 3045 
Q 2306 3072 2169 3072 
Q 1681 3072 1420 2755 
Q 1159 2438 1159 1844 
L 1159 0 
L 581 0 
L 581 3500 
L 1159 3500 
L 1159 2956 
Q 1341 3275 1631 3429 
Q 1922 3584 2338 3584 
Q 2397 3584 2469 3576 
Q 2541 3569 2628 3553 
L 2631 2963 
z
" transform="scale(0.015625)"/>
       <path id="DejaVuSans-74" d="M 1172 4494 
L 1172 3500 
L 2356 3500 
L 2356 3053 
L 1172 3053 
L 1172 1153 
Q 1172 725 1289 603 
Q 1406 481 1766 481 
L 2356 481 
L 2356 0 
L 1766 0 
Q 1100 0 847 248 
Q 594 497 594 1153 
L 594 3053 
L 172 3053 
L 172 3500 
L 594 3500 
L 594 4494 
L 1172 4494 
z
" transform="scale(0.015625)"/>
      </defs>
      <use xlink:href="#DejaVuSans-44"/>
      <use xlink:href="#DejaVuSans-65" x="77.001953"/>
      <use xlink:href="#DejaVuSans-6e" x="138.525391"/>
      <use xlink:href="#DejaVuSans-64" x="201.904297"/>
      <use xlink:href="#DejaVuSans-72" x="265.380859"/>
      <use xlink:href="#DejaVuSans-69" x="306.494141"/>
      <use xlink:href="#DejaVuSans-74" x="334.277344"/>
      <use xlink:href="#DejaVuSans-65" x="373.486328"/>
     </g>
    </g>
   </g>
  </g>
 </g>
 <defs>
  <clipPath id="p83546847a7">
   <rect x="108" y="34.56" width="669.6" height="221.76"/>
  </clipPath>
 </defs>
</svg>
