<?xml version="1.0" encoding="utf-8" standalone="no"?>
<!DOCTYPE svg PUBLIC "-//W3C//DTD SVG 1.1//EN"
  "http://www.w3.org/Graphics/SVG/1.1/DTD/svg11.dtd">
<svg xmlns:xlink="http://www.w3.org/1999/xlink" width="864pt" height="288pt" viewBox="0 0 864 288" xmlns="http://www.w3.org/2000/svg" version="1.1">
 <metadata>
  <rdf:RDF xmlns:dc="http://purl.org/dc/elements/1.1/" xmlns:cc="http://creativecommons.org/ns#" xmlns:rdf="http://www.w3.org/1999/02/22-rdf-syntax-ns#">
   <cc:Work>
    <dc:type rdf:resource="http://purl.org/dc/dcmitype/StillImage"/>
    <dc:date>2024-04-26T13:23:41.281168</dc:date>
    <dc:format>image/svg+xml</dc:format>
    <dc:creator>
     <cc:Agent>
      <dc:title>Matplotlib v3.8.2, https://matplotlib.org/</dc:title>
     </cc:Agent>
    </dc:creator>
   </cc:Work>
  </rdf:RDF>
 </metadata>
 <defs>
  <style type="text/css">*{stroke-linejoin: round; stroke-linecap: butt}</style>
 </defs>
 <g id="figure_1">
  <g id="patch_1">
   <path d="M 0 288 
L 864 288 
L 864 0 
L 0 0 
z
" style="fill: #ffffff"/>
  </g>
  <g id="axes_1">
   <g id="patch_2">
    <path d="M 108 256.32 
L 777.6 256.32 
L 777.6 34.56 
L 108 34.56 
z
" style="fill: #ffffff"/>
   </g>
   <g id="matplotlib.axis_1">
    <g id="xtick_1">
     <g id="line2d_1">
      <path d="M 108 256.32 
L 108 34.56 
" clip-path="url(#p6043903d46)" style="fill: none; stroke: #b0b0b0; stroke-width: 0.8; stroke-linecap: square"/>
     </g>
     <g id="line2d_2">
      <defs>
       <path id="mcc8a851032" d="M 0 0 
L 0 3.5 
" style="stroke: #000000; stroke-width: 0.8"/>
      </defs>
      <g>
       <use xlink:href="#mcc8a851032" x="108" y="256.32" style="stroke: #000000; stroke-width: 0.8"/>
      </g>
     </g>
     <g id="text_1">
      <!-- 100 -->
      <g transform="translate(94.63875 273.957812) scale(0.14 -0.14)">
       <defs>
        <path id="DejaVuSans-31" d="M 794 531 
L 1825 531 
L 1825 4091 
L 703 3866 
L 703 4441 
L 1819 4666 
L 2450 4666 
L 2450 531 
L 3481 531 
L 3481 0 
L 794 0 
L 794 531 
z
" transform="scale(0.015625)"/>
        <path id="DejaVuSans-30" d="M 2034 4250 
Q 1547 4250 1301 3770 
Q 1056 3291 1056 2328 
Q 1056 1369 1301 889 
Q 1547 409 2034 409 
Q 2525 409 2770 889 
Q 3016 1369 3016 2328 
Q 3016 3291 2770 3770 
Q 2525 4250 2034 4250 
z
M 2034 4750 
Q 2819 4750 3233 4129 
Q 3647 3509 3647 2328 
Q 3647 1150 3233 529 
Q 2819 -91 2034 -91 
Q 1250 -91 836 529 
Q 422 1150 422 2328 
Q 422 3509 836 4129 
Q 1250 4750 2034 4750 
z
" transform="scale(0.015625)"/>
       </defs>
       <use xlink:href="#DejaVuSans-31"/>
       <use xlink:href="#DejaVuSans-30" x="63.623047"/>
       <use xlink:href="#DejaVuSans-30" x="127.246094"/>
      </g>
     </g>
    </g>
    <g id="xtick_2">
     <g id="line2d_3">
      <path d="M 241.92 256.32 
L 241.92 34.56 
" clip-path="url(#p6043903d46)" style="fill: none; stroke: #b0b0b0; stroke-width: 0.8; stroke-linecap: square"/>
     </g>
     <g id="line2d_4">
      <g>
       <use xlink:href="#mcc8a851032" x="241.92" y="256.32" style="stroke: #000000; stroke-width: 0.8"/>
      </g>
     </g>
     <g id="text_2">
      <!-- 120 -->
      <g transform="translate(228.55875 273.957812) scale(0.14 -0.14)">
       <defs>
        <path id="DejaVuSans-32" d="M 1228 531 
L 3431 531 
L 3431 0 
L 469 0 
L 469 531 
Q 828 903 1448 1529 
Q 2069 2156 2228 2338 
Q 2531 2678 2651 2914 
Q 2772 3150 2772 3378 
Q 2772 3750 2511 3984 
Q 2250 4219 1831 4219 
Q 1534 4219 1204 4116 
Q 875 4013 500 3803 
L 500 4441 
Q 881 4594 1212 4672 
Q 1544 4750 1819 4750 
Q 2544 4750 2975 4387 
Q 3406 4025 3406 3419 
Q 3406 3131 3298 2873 
Q 3191 2616 2906 2266 
Q 2828 2175 2409 1742 
Q 1991 1309 1228 531 
z
" transform="scale(0.015625)"/>
       </defs>
       <use xlink:href="#DejaVuSans-31"/>
       <use xlink:href="#DejaVuSans-32" x="63.623047"/>
       <use xlink:href="#DejaVuSans-30" x="127.246094"/>
      </g>
     </g>
    </g>
    <g id="xtick_3">
     <g id="line2d_5">
      <path d="M 375.84 256.32 
L 375.84 34.56 
" clip-path="url(#p6043903d46)" style="fill: none; stroke: #b0b0b0; stroke-width: 0.8; stroke-linecap: square"/>
     </g>
     <g id="line2d_6">
      <g>
       <use xlink:href="#mcc8a851032" x="375.84" y="256.32" style="stroke: #000000; stroke-width: 0.8"/>
      </g>
     </g>
     <g id="text_3">
      <!-- 140 -->
      <g transform="translate(362.47875 273.957812) scale(0.14 -0.14)">
       <defs>
        <path id="DejaVuSans-34" d="M 2419 4116 
L 825 1625 
L 2419 1625 
L 2419 4116 
z
M 2253 4666 
L 3047 4666 
L 3047 1625 
L 3713 1625 
L 3713 1100 
L 3047 1100 
L 3047 0 
L 2419 0 
L 2419 1100 
L 313 1100 
L 313 1709 
L 2253 4666 
z
" transform="scale(0.015625)"/>
       </defs>
       <use xlink:href="#DejaVuSans-31"/>
       <use xlink:href="#DejaVuSans-34" x="63.623047"/>
       <use xlink:href="#DejaVuSans-30" x="127.246094"/>
      </g>
     </g>
    </g>
    <g id="xtick_4">
     <g id="line2d_7">
      <path d="M 509.76 256.32 
L 509.76 34.56 
" clip-path="url(#p6043903d46)" style="fill: none; stroke: #b0b0b0; stroke-width: 0.8; stroke-linecap: square"/>
     </g>
     <g id="line2d_8">
      <g>
       <use xlink:href="#mcc8a851032" x="509.76" y="256.32" style="stroke: #000000; stroke-width: 0.8"/>
      </g>
     </g>
     <g id="text_4">
      <!-- 160 -->
      <g transform="translate(496.39875 273.957812) scale(0.14 -0.14)">
       <defs>
        <path id="DejaVuSans-36" d="M 2113 2584 
Q 1688 2584 1439 2293 
Q 1191 2003 1191 1497 
Q 1191 994 1439 701 
Q 1688 409 2113 409 
Q 2538 409 2786 701 
Q 3034 994 3034 1497 
Q 3034 2003 2786 2293 
Q 2538 2584 2113 2584 
z
M 3366 4563 
L 3366 3988 
Q 3128 4100 2886 4159 
Q 2644 4219 2406 4219 
Q 1781 4219 1451 3797 
Q 1122 3375 1075 2522 
Q 1259 2794 1537 2939 
Q 1816 3084 2150 3084 
Q 2853 3084 3261 2657 
Q 3669 2231 3669 1497 
Q 3669 778 3244 343 
Q 2819 -91 2113 -91 
Q 1303 -91 875 529 
Q 447 1150 447 2328 
Q 447 3434 972 4092 
Q 1497 4750 2381 4750 
Q 2619 4750 2861 4703 
Q 3103 4656 3366 4563 
z
" transform="scale(0.015625)"/>
       </defs>
       <use xlink:href="#DejaVuSans-31"/>
       <use xlink:href="#DejaVuSans-36" x="63.623047"/>
       <use xlink:href="#DejaVuSans-30" x="127.246094"/>
      </g>
     </g>
    </g>
    <g id="xtick_5">
     <g id="line2d_9">
      <path d="M 643.68 256.32 
L 643.68 34.56 
" clip-path="url(#p6043903d46)" style="fill: none; stroke: #b0b0b0; stroke-width: 0.8; stroke-linecap: square"/>
     </g>
     <g id="line2d_10">
      <g>
       <use xlink:href="#mcc8a851032" x="643.68" y="256.32" style="stroke: #000000; stroke-width: 0.8"/>
      </g>
     </g>
     <g id="text_5">
      <!-- 180 -->
      <g transform="translate(630.31875 273.957812) scale(0.14 -0.14)">
       <defs>
        <path id="DejaVuSans-38" d="M 2034 2216 
Q 1584 2216 1326 1975 
Q 1069 1734 1069 1313 
Q 1069 891 1326 650 
Q 1584 409 2034 409 
Q 2484 409 2743 651 
Q 3003 894 3003 1313 
Q 3003 1734 2745 1975 
Q 2488 2216 2034 2216 
z
M 1403 2484 
Q 997 2584 770 2862 
Q 544 3141 544 3541 
Q 544 4100 942 4425 
Q 1341 4750 2034 4750 
Q 2731 4750 3128 4425 
Q 3525 4100 3525 3541 
Q 3525 3141 3298 2862 
Q 3072 2584 2669 2484 
Q 3125 2378 3379 2068 
Q 3634 1759 3634 1313 
Q 3634 634 3220 271 
Q 2806 -91 2034 -91 
Q 1263 -91 848 271 
Q 434 634 434 1313 
Q 434 1759 690 2068 
Q 947 2378 1403 2484 
z
M 1172 3481 
Q 1172 3119 1398 2916 
Q 1625 2713 2034 2713 
Q 2441 2713 2670 2916 
Q 2900 3119 2900 3481 
Q 2900 3844 2670 4047 
Q 2441 4250 2034 4250 
Q 1625 4250 1398 4047 
Q 1172 3844 1172 3481 
z
" transform="scale(0.015625)"/>
       </defs>
       <use xlink:href="#DejaVuSans-31"/>
       <use xlink:href="#DejaVuSans-38" x="63.623047"/>
       <use xlink:href="#DejaVuSans-30" x="127.246094"/>
      </g>
     </g>
    </g>
    <g id="xtick_6">
     <g id="line2d_11">
      <path d="M 777.6 256.32 
L 777.6 34.56 
" clip-path="url(#p6043903d46)" style="fill: none; stroke: #b0b0b0; stroke-width: 0.8; stroke-linecap: square"/>
     </g>
     <g id="line2d_12">
      <g>
       <use xlink:href="#mcc8a851032" x="777.6" y="256.32" style="stroke: #000000; stroke-width: 0.8"/>
      </g>
     </g>
     <g id="text_6">
      <!-- 200 -->
      <g transform="translate(764.23875 273.957812) scale(0.14 -0.14)">
       <use xlink:href="#DejaVuSans-32"/>
       <use xlink:href="#DejaVuSans-30" x="63.623047"/>
       <use xlink:href="#DejaVuSans-30" x="127.246094"/>
      </g>
     </g>
    </g>
    <g id="text_7">
     <!-- Time (ms) -->
     <g transform="translate(407.521094 291.507187) scale(0.14 -0.14)">
      <defs>
       <path id="DejaVuSans-54" d="M -19 4666 
L 3928 4666 
L 3928 4134 
L 2272 4134 
L 2272 0 
L 1638 0 
L 1638 4134 
L -19 4134 
L -19 4666 
z
" transform="scale(0.015625)"/>
       <path id="DejaVuSans-69" d="M 603 3500 
L 1178 3500 
L 1178 0 
L 603 0 
L 603 3500 
z
M 603 4863 
L 1178 4863 
L 1178 4134 
L 603 4134 
L 603 4863 
z
" transform="scale(0.015625)"/>
       <path id="DejaVuSans-6d" d="M 3328 2828 
Q 3544 3216 3844 3400 
Q 4144 3584 4550 3584 
Q 5097 3584 5394 3201 
Q 5691 2819 5691 2113 
L 5691 0 
L 5113 0 
L 5113 2094 
Q 5113 2597 4934 2840 
Q 4756 3084 4391 3084 
Q 3944 3084 3684 2787 
Q 3425 2491 3425 1978 
L 3425 0 
L 2847 0 
L 2847 2094 
Q 2847 2600 2669 2842 
Q 2491 3084 2119 3084 
Q 1678 3084 1418 2786 
Q 1159 2488 1159 1978 
L 1159 0 
L 581 0 
L 581 3500 
L 1159 3500 
L 1159 2956 
Q 1356 3278 1631 3431 
Q 1906 3584 2284 3584 
Q 2666 3584 2933 3390 
Q 3200 3197 3328 2828 
z
" transform="scale(0.015625)"/>
       <path id="DejaVuSans-65" d="M 3597 1894 
L 3597 1613 
L 953 1613 
Q 991 1019 1311 708 
Q 1631 397 2203 397 
Q 2534 397 2845 478 
Q 3156 559 3463 722 
L 3463 178 
Q 3153 47 2828 -22 
Q 2503 -91 2169 -91 
Q 1331 -91 842 396 
Q 353 884 353 1716 
Q 353 2575 817 3079 
Q 1281 3584 2069 3584 
Q 2775 3584 3186 3129 
Q 3597 2675 3597 1894 
z
M 3022 2063 
Q 3016 2534 2758 2815 
Q 2500 3097 2075 3097 
Q 1594 3097 1305 2825 
Q 1016 2553 972 2059 
L 3022 2063 
z
" transform="scale(0.015625)"/>
       <path id="DejaVuSans-20" transform="scale(0.015625)"/>
       <path id="DejaVuSans-28" d="M 1984 4856 
Q 1566 4138 1362 3434 
Q 1159 2731 1159 2009 
Q 1159 1288 1364 580 
Q 1569 -128 1984 -844 
L 1484 -844 
Q 1016 -109 783 600 
Q 550 1309 550 2009 
Q 550 2706 781 3412 
Q 1013 4119 1484 4856 
L 1984 4856 
z
" transform="scale(0.015625)"/>
       <path id="DejaVuSans-73" d="M 2834 3397 
L 2834 2853 
Q 2591 2978 2328 3040 
Q 2066 3103 1784 3103 
Q 1356 3103 1142 2972 
Q 928 2841 928 2578 
Q 928 2378 1081 2264 
Q 1234 2150 1697 2047 
L 1894 2003 
Q 2506 1872 2764 1633 
Q 3022 1394 3022 966 
Q 3022 478 2636 193 
Q 2250 -91 1575 -91 
Q 1294 -91 989 -36 
Q 684 19 347 128 
L 347 722 
Q 666 556 975 473 
Q 1284 391 1588 391 
Q 1994 391 2212 530 
Q 2431 669 2431 922 
Q 2431 1156 2273 1281 
Q 2116 1406 1581 1522 
L 1381 1569 
Q 847 1681 609 1914 
Q 372 2147 372 2553 
Q 372 3047 722 3315 
Q 1072 3584 1716 3584 
Q 2034 3584 2315 3537 
Q 2597 3491 2834 3397 
z
" transform="scale(0.015625)"/>
       <path id="DejaVuSans-29" d="M 513 4856 
L 1013 4856 
Q 1481 4119 1714 3412 
Q 1947 2706 1947 2009 
Q 1947 1309 1714 600 
Q 1481 -109 1013 -844 
L 513 -844 
Q 928 -128 1133 580 
Q 1338 1288 1338 2009 
Q 1338 2731 1133 3434 
Q 928 4138 513 4856 
z
" transform="scale(0.015625)"/>
      </defs>
      <use xlink:href="#DejaVuSans-54"/>
      <use xlink:href="#DejaVuSans-69" x="57.958984"/>
      <use xlink:href="#DejaVuSans-6d" x="85.742188"/>
      <use xlink:href="#DejaVuSans-65" x="183.154297"/>
      <use xlink:href="#DejaVuSans-20" x="244.677734"/>
      <use xlink:href="#DejaVuSans-28" x="276.464844"/>
      <use xlink:href="#DejaVuSans-6d" x="315.478516"/>
      <use xlink:href="#DejaVuSans-73" x="412.890625"/>
      <use xlink:href="#DejaVuSans-29" x="464.990234"/>
     </g>
    </g>
   </g>
   <g id="matplotlib.axis_2">
    <g id="ytick_1">
     <g id="line2d_13">
      <path d="M 108 225.002599 
L 777.6 225.002599 
" clip-path="url(#p6043903d46)" style="fill: none; stroke: #b0b0b0; stroke-width: 0.8; stroke-linecap: square"/>
     </g>
     <g id="line2d_14">
      <defs>
       <path id="m489136915f" d="M 0 0 
L -3.5 0 
" style="stroke: #000000; stroke-width: 0.8"/>
      </defs>
      <g>
       <use xlink:href="#m489136915f" x="108" y="225.002599" style="stroke: #000000; stroke-width: 0.8"/>
      </g>
     </g>
     <g id="text_8">
      <!-- −60 -->
      <g transform="translate(71.453437 230.321505) scale(0.14 -0.14)">
       <defs>
        <path id="DejaVuSans-2212" d="M 678 2272 
L 4684 2272 
L 4684 1741 
L 678 1741 
L 678 2272 
z
" transform="scale(0.015625)"/>
       </defs>
       <use xlink:href="#DejaVuSans-2212"/>
       <use xlink:href="#DejaVuSans-36" x="83.789062"/>
       <use xlink:href="#DejaVuSans-30" x="147.412109"/>
      </g>
     </g>
    </g>
    <g id="ytick_2">
     <g id="line2d_15">
      <path d="M 108 182.595476 
L 777.6 182.595476 
" clip-path="url(#p6043903d46)" style="fill: none; stroke: #b0b0b0; stroke-width: 0.8; stroke-linecap: square"/>
     </g>
     <g id="line2d_16">
      <g>
       <use xlink:href="#m489136915f" x="108" y="182.595476" style="stroke: #000000; stroke-width: 0.8"/>
      </g>
     </g>
     <g id="text_9">
      <!-- −40 -->
      <g transform="translate(71.453437 187.914382) scale(0.14 -0.14)">
       <use xlink:href="#DejaVuSans-2212"/>
       <use xlink:href="#DejaVuSans-34" x="83.789062"/>
       <use xlink:href="#DejaVuSans-30" x="147.412109"/>
      </g>
     </g>
    </g>
    <g id="ytick_3">
     <g id="line2d_17">
      <path d="M 108 140.188353 
L 777.6 140.188353 
" clip-path="url(#p6043903d46)" style="fill: none; stroke: #b0b0b0; stroke-width: 0.8; stroke-linecap: square"/>
     </g>
     <g id="line2d_18">
      <g>
       <use xlink:href="#m489136915f" x="108" y="140.188353" style="stroke: #000000; stroke-width: 0.8"/>
      </g>
     </g>
     <g id="text_10">
      <!-- −20 -->
      <g transform="translate(71.453437 145.507259) scale(0.14 -0.14)">
       <use xlink:href="#DejaVuSans-2212"/>
       <use xlink:href="#DejaVuSans-32" x="83.789062"/>
       <use xlink:href="#DejaVuSans-30" x="147.412109"/>
      </g>
     </g>
    </g>
    <g id="ytick_4">
     <g id="line2d_19">
      <path d="M 108 97.78123 
L 777.6 97.78123 
" clip-path="url(#p6043903d46)" style="fill: none; stroke: #b0b0b0; stroke-width: 0.8; stroke-linecap: square"/>
     </g>
     <g id="line2d_20">
      <g>
       <use xlink:href="#m489136915f" x="108" y="97.78123" style="stroke: #000000; stroke-width: 0.8"/>
      </g>
     </g>
     <g id="text_11">
      <!-- 0 -->
      <g transform="translate(92.0925 103.100137) scale(0.14 -0.14)">
       <use xlink:href="#DejaVuSans-30"/>
      </g>
     </g>
    </g>
    <g id="ytick_5">
     <g id="line2d_21">
      <path d="M 108 55.374108 
L 777.6 55.374108 
" clip-path="url(#p6043903d46)" style="fill: none; stroke: #b0b0b0; stroke-width: 0.8; stroke-linecap: square"/>
     </g>
     <g id="line2d_22">
      <g>
       <use xlink:href="#m489136915f" x="108" y="55.374108" style="stroke: #000000; stroke-width: 0.8"/>
      </g>
     </g>
     <g id="text_12">
      <!-- 20 -->
      <g transform="translate(83.185 60.693014) scale(0.14 -0.14)">
       <use xlink:href="#DejaVuSans-32"/>
       <use xlink:href="#DejaVuSans-30" x="63.623047"/>
      </g>
     </g>
    </g>
    <g id="text_13">
     <!-- $V_{m}$ (mV) -->
     <g transform="translate(64.541875 174.49) rotate(-90) scale(0.14 -0.14)">
      <defs>
       <path id="DejaVuSans-Oblique-56" d="M 1319 0 
L 500 4666 
L 1119 4666 
L 1797 653 
L 4063 4666 
L 4750 4666 
L 2053 0 
L 1319 0 
z
" transform="scale(0.015625)"/>
       <path id="DejaVuSans-Oblique-6d" d="M 5747 2113 
L 5338 0 
L 4763 0 
L 5166 2094 
Q 5191 2228 5203 2325 
Q 5216 2422 5216 2491 
Q 5216 2772 5059 2928 
Q 4903 3084 4622 3084 
Q 4203 3084 3875 2770 
Q 3547 2456 3450 1953 
L 3066 0 
L 2491 0 
L 2900 2094 
Q 2925 2209 2937 2307 
Q 2950 2406 2950 2484 
Q 2950 2769 2794 2926 
Q 2638 3084 2363 3084 
Q 1938 3084 1609 2770 
Q 1281 2456 1184 1953 
L 800 0 
L 225 0 
L 909 3500 
L 1484 3500 
L 1375 2956 
Q 1609 3263 1923 3423 
Q 2238 3584 2597 3584 
Q 2978 3584 3223 3384 
Q 3469 3184 3519 2828 
Q 3781 3197 4126 3390 
Q 4472 3584 4856 3584 
Q 5306 3584 5551 3325 
Q 5797 3066 5797 2591 
Q 5797 2488 5784 2364 
Q 5772 2241 5747 2113 
z
" transform="scale(0.015625)"/>
       <path id="DejaVuSans-56" d="M 1831 0 
L 50 4666 
L 709 4666 
L 2188 738 
L 3669 4666 
L 4325 4666 
L 2547 0 
L 1831 0 
z
" transform="scale(0.015625)"/>
      </defs>
      <use xlink:href="#DejaVuSans-Oblique-56" transform="translate(0 0.125)"/>
      <use xlink:href="#DejaVuSans-Oblique-6d" transform="translate(68.408203 -16.28125) scale(0.7)"/>
      <use xlink:href="#DejaVuSans-20" transform="translate(139.331055 0.125)"/>
      <use xlink:href="#DejaVuSans-28" transform="translate(171.118164 0.125)"/>
      <use xlink:href="#DejaVuSans-6d" transform="translate(210.131836 0.125)"/>
      <use xlink:href="#DejaVuSans-56" transform="translate(307.543945 0.125)"/>
      <use xlink:href="#DejaVuSans-29" transform="translate(375.952148 0.125)"/>
     </g>
    </g>
   </g>
   <g id="line2d_23">
    <path d="M 108 221.292639 
L 109.3392 221.947879 
L 110.6784 222.37522 
L 111.348 222.5334 
L 112.6872 223.453311 
L 114.0264 223.897115 
L 116.0352 225.415743 
L 118.044 227.79796 
L 118.7136 228.871812 
L 119.3832 229.703079 
L 120.0528 230.232709 
L 120.7224 231.232442 
L 122.7312 233.442352 
L 124.0704 234.199815 
L 125.4096 234.68933 
L 127.4184 235.157892 
L 129.4272 235.410808 
L 132.1056 235.502638 
L 134.1144 235.42447 
L 136.1232 236.171497 
L 136.7928 236.953231 
L 137.4624 237.499931 
L 140.1408 238.615174 
L 141.48 238.862882 
L 144.1584 239.183717 
L 145.4976 239.429785 
L 147.5064 239.402255 
L 148.176 239.350636 
L 149.5152 239.669359 
L 150.8544 239.675109 
L 153.5328 239.36986 
L 156.2112 238.820443 
L 158.22 238.016924 
L 162.9072 236.103484 
L 172.2816 232.379879 
L 177.6384 229.99622 
L 183.6648 227.070864 
L 190.3608 223.564337 
L 198.396 219.089719 
L 199.7352 219.122221 
L 201.0744 218.746242 
L 203.7528 217.639538 
L 205.7616 216.710134 
L 207.1008 216.893703 
L 208.44 216.642611 
L 209.7792 217.047345 
L 211.1184 216.963707 
L 213.1272 216.518384 
L 216.4752 215.474906 
L 220.4928 213.978429 
L 225.8496 211.731849 
L 227.1888 212.039804 
L 227.8584 212.943757 
L 228.528 213.643502 
L 229.1976 213.989216 
L 230.5368 214.256033 
L 231.876 214.277343 
L 232.5456 214.237322 
L 234.5544 215.504211 
L 235.8936 217.375037 
L 236.5632 218.479171 
L 239.2416 221.615979 
L 239.9112 222.630012 
L 240.5808 224.089192 
L 241.2504 225.161767 
L 241.92 225.851411 
L 243.2592 226.755717 
L 244.5984 227.35588 
L 245.9376 228.387675 
L 246.6072 228.704467 
L 247.2768 229.269003 
L 247.9464 230.042173 
L 249.9552 231.800802 
L 251.2944 232.958289 
L 252.6336 233.560889 
L 253.9728 233.933874 
L 255.312 235.209391 
L 255.9816 235.824387 
L 256.6512 236.279327 
L 257.9904 236.792717 
L 259.9992 237.189313 
L 260.6688 237.265701 
L 262.008 237.837669 
L 263.3472 238.061251 
L 264.6864 238.138503 
L 267.3648 239.207807 
L 268.704 239.400001 
L 270.7128 239.416845 
L 272.052 239.794353 
L 273.3912 239.853085 
L 276.0696 239.642367 
L 279.4176 239.087473 
L 282.096 238.480806 
L 283.4352 238.621529 
L 284.7744 238.464546 
L 287.4528 237.868725 
L 290.1312 237.066564 
L 291.4704 236.433057 
L 292.8096 236.268802 
L 294.8184 235.596533 
L 302.184 232.750236 
L 308.2104 230.179075 
L 314.2368 227.339052 
L 320.9328 223.908104 
L 328.2984 219.875588 
L 338.3424 214.104255 
L 345.0384 210.142524 
L 346.3776 210.282379 
L 347.7168 209.981708 
L 349.7256 209.228146 
L 353.0736 207.693007 
L 354.4128 207.020527 
L 355.752 208.300041 
L 356.4216 208.588051 
L 358.4304 210.436474 
L 359.1 211.471792 
L 359.7696 212.206911 
L 360.4392 212.657074 
L 361.7784 213.162408 
L 363.1176 215.061335 
L 363.7872 216.000753 
L 364.4568 216.701212 
L 366.4656 218.151859 
L 367.1352 218.691422 
L 367.8048 219.04447 
L 369.144 220.230679 
L 370.4832 220.827706 
L 371.8224 221.173829 
L 372.492 221.293382 
L 373.8312 222.858722 
L 374.5008 224.364483 
L 375.1704 225.523148 
L 375.84 226.222819 
L 377.1792 227.08829 
L 378.5184 227.638648 
L 379.188 227.844831 
L 379.8576 228.349579 
L 381.8664 230.544002 
L 382.536 230.938559 
L 383.8752 232.012353 
L 384.5448 232.334193 
L 386.5536 233.879378 
L 387.2232 234.324611 
L 388.5624 234.836851 
L 391.2408 235.606157 
L 391.9104 236.167617 
L 392.58 236.557002 
L 393.9192 236.945231 
L 395.928 237.186693 
L 399.276 237.445657 
L 402.624 238.261199 
L 403.2936 238.29239 
L 405.972 239.303244 
L 407.3112 239.455705 
L 407.9808 239.46492 
L 409.32 239.87088 
L 410.6592 239.943753 
L 412.668 239.81906 
L 415.3464 239.441058 
L 418.6944 238.740761 
L 422.712 237.646866 
L 424.0512 237.187123 
L 426.7296 235.830358 
L 428.0688 235.683607 
L 430.0776 235.043804 
L 435.4344 233.003942 
L 440.7912 230.762392 
L 446.8176 227.980953 
L 452.844 224.952814 
L 460.2096 220.985418 
L 469.584 215.651464 
L 472.932 213.700156 
L 474.2712 213.797517 
L 475.6104 213.45993 
L 476.9496 212.958225 
L 478.2888 213.278538 
L 479.628 213.125137 
L 481.6368 212.580986 
L 483.6456 211.894954 
L 484.9848 212.288848 
L 485.6544 212.76003 
L 486.324 213.090946 
L 487.6632 213.257048 
L 489.0024 213.175735 
L 490.3416 214.6811 
L 491.0112 215.030208 
L 491.6808 215.664451 
L 492.3504 216.576975 
L 493.02 217.215653 
L 493.6896 217.600964 
L 494.3592 218.273599 
L 495.0288 219.207116 
L 495.6984 219.874091 
L 497.7072 221.213573 
L 498.3768 221.71096 
L 499.716 222.262153 
L 501.0552 222.570675 
L 502.3944 223.440393 
L 503.7336 223.832729 
L 504.4032 223.944559 
L 505.7424 224.750412 
L 507.0816 225.092683 
L 507.7512 225.182865 
L 508.4208 225.601351 
L 510.4296 228.764403 
L 511.0992 229.472793 
L 512.4384 230.270512 
L 513.7776 230.738224 
L 515.1168 231.60422 
L 515.7864 232.457161 
L 516.456 233.120655 
L 517.1256 233.524667 
L 519.804 236.855161 
L 521.1432 237.588181 
L 522.4824 238.036308 
L 523.152 238.199865 
L 523.8216 238.587989 
L 524.4912 239.149381 
L 526.5 240.400979 
L 527.8392 241.224797 
L 529.1784 241.607437 
L 529.848 241.72387 
L 531.1872 242.28536 
L 532.5264 242.514152 
L 534.5352 242.611853 
L 537.2136 242.501421 
L 540.5616 242.095102 
L 543.9096 241.4581 
L 547.9272 240.447313 
L 551.9448 239.212236 
L 556.632 237.532856 
L 557.9712 236.967271 
L 560.6496 235.409428 
L 564.6672 233.176738 
L 583.416 223.259098 
L 592.1208 218.229268 
L 602.1648 212.221258 
L 603.504 212.319161 
L 604.8432 211.976798 
L 607.5216 210.882851 
L 611.5392 208.951051 
L 613.548 207.899979 
L 614.8872 208.161577 
L 616.2264 207.987944 
L 618.2352 207.394652 
L 620.9136 206.322228 
L 622.9224 205.377153 
L 624.2616 205.736081 
L 624.9312 205.758863 
L 625.6008 206.217912 
L 626.2704 207.115347 
L 626.94 207.80215 
L 627.6096 208.223475 
L 628.9488 208.654119 
L 629.6184 208.755096 
L 630.288 209.297094 
L 630.9576 210.701342 
L 631.6272 211.784687 
L 632.2968 212.439255 
L 634.3056 213.881654 
L 634.9752 214.439994 
L 635.6448 214.799854 
L 636.984 216.044009 
L 637.6536 216.401948 
L 638.9928 219.514129 
L 639.6624 220.565573 
L 640.332 221.255009 
L 641.6712 222.850528 
L 642.3408 223.353681 
L 643.0104 224.106782 
L 643.68 225.073486 
L 644.3496 225.791286 
L 645.0192 226.287568 
L 646.3584 227.59517 
L 648.3672 228.925846 
L 649.0368 229.731338 
L 649.7064 230.323587 
L 653.0544 232.333808 
L 653.724 232.862518 
L 654.3936 233.577536 
L 658.4112 236.700018 
L 659.7504 238.221168 
L 660.42 238.76569 
L 661.7592 239.39724 
L 663.768 239.918165 
L 665.7768 240.182728 
L 667.7856 240.275455 
L 669.1248 240.70385 
L 670.464 240.822513 
L 672.4728 240.782726 
L 675.1512 240.523926 
L 678.4992 239.96689 
L 682.5168 239.02982 
L 686.5344 237.85286 
L 691.2216 236.227261 
L 692.5608 235.582408 
L 693.9 234.808325 
L 695.2392 234.590598 
L 697.248 233.840891 
L 704.6136 230.684361 
L 710.64 227.883685 
L 717.336 224.50297 
L 724.7016 220.511865 
L 734.076 215.156444 
L 742.7808 210.012858 
L 744.12 210.152318 
L 745.4592 209.850851 
L 747.468 209.092247 
L 748.8072 209.461487 
L 750.1464 209.365237 
L 752.1552 208.870173 
L 753.4944 209.392116 
L 754.8336 209.433829 
L 756.1728 209.256097 
L 757.512 209.912405 
L 758.8512 210.064776 
L 760.1904 209.986992 
L 761.5296 210.714054 
L 762.1992 210.862915 
L 763.5384 211.820376 
L 764.8776 212.179203 
L 765.5472 212.249479 
L 766.8864 213.13814 
L 768.2256 213.477585 
L 768.8952 213.548323 
L 770.2344 215.245584 
L 770.904 215.679482 
L 771.5736 215.957484 
L 774.252 218.358039 
L 775.5912 218.962386 
L 776.9304 219.291524 
L 777.6 219.802396 
L 777.6 219.802396 
" clip-path="url(#p6043903d46)" style="fill: none; stroke: #000000; stroke-width: 1.5; stroke-linecap: square"/>
   </g>
   <g id="line2d_24">
    <path d="M 108 206.258525 
L 110.6784 209.127304 
L 114.0264 212.174731 
L 117.3744 215.120623 
L 119.3832 217.189754 
L 122.7312 220.991542 
L 124.74 223.204311 
L 126.7488 225.103275 
L 128.7576 226.684506 
L 130.7664 227.987206 
L 132.7752 229.046972 
L 135.4536 230.171634 
L 137.4624 231.083 
L 142.1496 233.484198 
L 144.828 234.540621 
L 147.5064 235.423651 
L 151.524 236.412509 
L 154.2024 236.842667 
L 155.5416 236.967944 
L 156.2112 205.304558 
L 156.8808 192.567405 
L 157.5504 186.838224 
L 158.22 183.998814 
L 158.8896 182.665529 
L 159.5592 182.282479 
L 160.2288 182.564723 
L 160.8984 183.329564 
L 161.568 184.442954 
L 162.9072 187.314534 
L 166.9248 196.827328 
L 168.9336 200.792045 
L 170.2728 203.013564 
L 171.612 204.908292 
L 172.9512 206.500103 
L 174.2904 207.817559 
L 175.6296 208.889873 
L 176.9688 209.744812 
L 178.308 210.407842 
L 180.3168 211.091517 
L 182.3256 211.459735 
L 184.3344 211.566543 
L 186.3432 211.456113 
L 189.0216 211.032539 
L 191.7 210.355121 
L 195.048 209.232012 
L 203.0832 206.291874 
L 207.7704 204.889835 
L 209.7792 204.56803 
L 213.1272 204.425875 
L 217.1448 204.180776 
L 221.1624 203.716984 
L 225.18 203.039711 
L 227.1888 202.70014 
L 228.528 202.735098 
L 230.5368 203.209867 
L 234.5544 204.395741 
L 235.8936 205.054025 
L 237.2328 206.008093 
L 239.2416 207.803818 
L 240.5808 209.20288 
L 245.9376 215.36221 
L 253.9728 223.455191 
L 259.3296 228.095318 
L 261.3384 229.487768 
L 264.0168 231.107208 
L 268.0344 233.126691 
L 270.7128 234.278835 
L 274.0608 235.432855 
L 276.7392 236.089762 
L 279.4176 236.478396 
L 282.096 236.63576 
L 288.1224 236.697791 
L 289.4616 236.61125 
L 290.1312 204.946573 
L 290.8008 192.164188 
L 291.4704 186.366244 
L 292.14 183.439841 
L 292.8096 182.01313 
L 293.4792 181.537343 
L 294.1488 181.7296 
L 294.8184 182.409148 
L 295.488 183.443639 
L 296.8272 186.174423 
L 301.5144 196.751027 
L 302.8536 199.237766 
L 304.1928 201.391941 
L 305.532 203.224299 
L 306.8712 204.757892 
L 308.2104 206.02058 
L 309.5496 207.041023 
L 310.8888 207.846692 
L 312.228 208.462666 
L 314.2368 209.079449 
L 316.2456 209.384809 
L 318.2544 209.432401 
L 320.2632 209.266135 
L 322.9416 208.77322 
L 325.62 208.03223 
L 328.968 206.837871 
L 332.9856 205.115423 
L 337.6728 202.834824 
L 343.6992 199.640324 
L 346.3776 198.23621 
L 349.056 197.22095 
L 355.752 195.044045 
L 357.0912 195.016686 
L 358.4304 195.286083 
L 359.7696 195.899605 
L 361.7784 197.211243 
L 363.1176 198.253366 
L 365.1264 200.199152 
L 373.1616 208.285593 
L 374.5008 209.599568 
L 381.1968 217.005424 
L 385.884 221.817249 
L 389.232 224.936484 
L 391.9104 226.997691 
L 395.2584 229.35391 
L 397.2672 230.485978 
L 399.9456 231.686341 
L 406.6416 234.336641 
L 409.9896 235.495096 
L 412.668 236.23195 
L 415.3464 236.699538 
L 418.0248 236.924969 
L 420.7032 236.943436 
L 423.3816 236.782586 
L 424.0512 205.075969 
L 424.7208 192.276505 
L 425.3904 186.471855 
L 426.06 183.537143 
L 426.7296 182.089621 
L 427.3992 181.588262 
L 428.0688 181.75977 
L 428.7384 182.426009 
L 429.408 183.453215 
L 430.7472 186.178947 
L 435.4344 196.752103 
L 436.7736 199.237172 
L 438.1128 201.389586 
L 439.452 203.220217 
L 440.7912 204.752186 
L 442.1304 206.013382 
L 443.4696 207.032472 
L 444.8088 207.836921 
L 446.148 208.4518 
L 448.1568 209.067143 
L 450.1656 209.37127 
L 452.1744 209.417798 
L 454.1832 209.250609 
L 456.8616 208.756641 
L 459.54 208.014767 
L 462.888 206.819498 
L 466.9056 205.096218 
L 471.5928 202.814981 
L 474.2712 201.499224 
L 476.9496 200.521061 
L 478.9584 200.006334 
L 483.6456 199.287986 
L 484.9848 199.150568 
L 486.324 199.195939 
L 489.0024 199.658418 
L 490.3416 200.053094 
L 491.6808 200.65996 
L 493.02 201.497628 
L 495.0288 203.058929 
L 498.3768 206.182404 
L 501.0552 208.629872 
L 505.0728 211.920362 
L 510.4296 216.069074 
L 515.1168 220.519179 
L 518.4648 223.637012 
L 522.4824 227.699326 
L 525.8304 230.499528 
L 529.1784 233.139262 
L 531.8568 234.926579 
L 533.8656 236.060601 
L 535.8744 236.974758 
L 537.8832 237.685579 
L 540.5616 238.358595 
L 543.24 238.761263 
L 545.9184 238.93188 
L 548.5968 238.901718 
L 551.9448 238.621019 
L 555.2928 238.109214 
L 557.3016 237.705704 
L 557.9712 205.736467 
L 558.6408 192.810679 
L 559.3104 186.930182 
L 559.98 183.947153 
L 560.6496 182.461655 
L 561.3192 181.911612 
L 561.9888 182.012283 
L 562.6584 182.58352 
L 563.328 183.495622 
L 564.6672 185.950895 
L 568.6848 194.246005 
L 570.024 196.589284 
L 571.3632 198.608485 
L 572.7024 200.305105 
L 574.0416 201.697652 
L 575.3808 202.812408 
L 576.72 203.678088 
L 578.0592 204.322508 
L 579.3984 204.771875 
L 580.7376 205.049822 
L 582.7464 205.190375 
L 584.7552 205.051971 
L 586.764 204.684401 
L 589.4424 203.907491 
L 592.1208 202.873019 
L 595.4688 201.308297 
L 599.4864 199.147455 
L 604.1736 196.540337 
L 608.1912 194.898396 
L 615.5568 192.069448 
L 618.2352 191.539945 
L 624.9312 190.483208 
L 626.2704 190.586006 
L 627.6096 191.038078 
L 629.6184 192.081215 
L 630.9576 192.942645 
L 632.2968 194.141715 
L 635.6448 197.657639 
L 638.3232 200.639451 
L 640.332 203.367809 
L 645.6888 210.969625 
L 648.3672 214.451114 
L 651.7152 218.451397 
L 655.0632 222.039002 
L 660.42 227.528482 
L 662.4288 229.507818 
L 664.4376 231.193652 
L 666.4464 232.578908 
L 669.1248 234.058712 
L 671.8032 235.294687 
L 673.812 236.006688 
L 676.4904 236.680239 
L 679.1688 237.08059 
L 681.8472 237.247178 
L 684.5256 237.211973 
L 687.8736 236.92399 
L 691.2216 236.404038 
L 691.8912 204.729783 
L 692.5608 191.91312 
L 693.2304 186.070501 
L 693.9 183.081529 
L 694.5696 181.578219 
L 695.2392 181.019966 
L 695.9088 181.125287 
L 696.5784 181.714436 
L 697.248 182.654654 
L 698.5872 185.192491 
L 703.2744 195.134141 
L 704.6136 197.459879 
L 705.9528 199.461757 
L 707.292 201.149435 
L 708.6312 202.54505 
L 709.9704 203.675689 
L 711.3096 204.569313 
L 712.6488 205.252919 
L 713.988 205.751222 
L 715.9968 206.198851 
L 718.0056 206.343325 
L 720.0144 206.237895 
L 722.0232 205.926187 
L 724.7016 205.250902 
L 727.38 204.340506 
L 730.728 202.952796 
L 734.7456 201.024994 
L 740.1024 198.166029 
L 744.7896 195.664675 
L 747.468 194.661561 
L 749.4768 194.137493 
L 752.1552 193.784482 
L 753.4944 193.724192 
L 755.5032 193.867592 
L 757.512 194.177247 
L 760.1904 194.934995 
L 762.1992 195.679762 
L 764.208 196.708417 
L 767.556 198.729202 
L 770.2344 200.533272 
L 772.9128 202.738857 
L 777.6 206.920904 
L 777.6 206.920904 
" clip-path="url(#p6043903d46)" style="fill: none; stroke: #4169e1; stroke-width: 1.5; stroke-linecap: square"/>
   </g>
   <g id="patch_3">
    <path d="M 108 256.32 
L 108 34.56 
" style="fill: none; stroke: #000000; stroke-width: 0.8; stroke-linejoin: miter; stroke-linecap: square"/>
   </g>
   <g id="patch_4">
    <path d="M 777.6 256.32 
L 777.6 34.56 
" style="fill: none; stroke: #000000; stroke-width: 0.8; stroke-linejoin: miter; stroke-linecap: square"/>
   </g>
   <g id="patch_5">
    <path d="M 108 256.32 
L 777.6 256.32 
" style="fill: none; stroke: #000000; stroke-width: 0.8; stroke-linejoin: miter; stroke-linecap: square"/>
   </g>
   <g id="patch_6">
    <path d="M 108 34.56 
L 777.6 34.56 
" style="fill: none; stroke: #000000; stroke-width: 0.8; stroke-linejoin: miter; stroke-linecap: square"/>
   </g>
   <g id="legend_1">
    <g id="patch_7">
     <path d="M 695.098438 71.91625 
L 770.6 71.91625 
Q 772.6 71.91625 772.6 69.91625 
L 772.6 41.56 
Q 772.6 39.56 770.6 39.56 
L 695.098438 39.56 
Q 693.098438 39.56 693.098438 41.56 
L 693.098438 69.91625 
Q 693.098438 71.91625 695.098438 71.91625 
z
" style="fill: #ffffff; opacity: 0.8; stroke: #cccccc; stroke-linejoin: miter"/>
    </g>
    <g id="line2d_25">
     <path d="M 697.098438 47.658437 
L 707.098438 47.658437 
L 717.098438 47.658437 
" style="fill: none; stroke: #000000; stroke-width: 1.5; stroke-linecap: square"/>
    </g>
    <g id="text_14">
     <!-- Soma -->
     <g transform="translate(725.098438 51.158437) scale(0.1 -0.1)">
      <defs>
       <path id="DejaVuSans-53" d="M 3425 4513 
L 3425 3897 
Q 3066 4069 2747 4153 
Q 2428 4238 2131 4238 
Q 1616 4238 1336 4038 
Q 1056 3838 1056 3469 
Q 1056 3159 1242 3001 
Q 1428 2844 1947 2747 
L 2328 2669 
Q 3034 2534 3370 2195 
Q 3706 1856 3706 1288 
Q 3706 609 3251 259 
Q 2797 -91 1919 -91 
Q 1588 -91 1214 -16 
Q 841 59 441 206 
L 441 856 
Q 825 641 1194 531 
Q 1563 422 1919 422 
Q 2459 422 2753 634 
Q 3047 847 3047 1241 
Q 3047 1584 2836 1778 
Q 2625 1972 2144 2069 
L 1759 2144 
Q 1053 2284 737 2584 
Q 422 2884 422 3419 
Q 422 4038 858 4394 
Q 1294 4750 2059 4750 
Q 2388 4750 2728 4690 
Q 3069 4631 3425 4513 
z
" transform="scale(0.015625)"/>
       <path id="DejaVuSans-6f" d="M 1959 3097 
Q 1497 3097 1228 2736 
Q 959 2375 959 1747 
Q 959 1119 1226 758 
Q 1494 397 1959 397 
Q 2419 397 2687 759 
Q 2956 1122 2956 1747 
Q 2956 2369 2687 2733 
Q 2419 3097 1959 3097 
z
M 1959 3584 
Q 2709 3584 3137 3096 
Q 3566 2609 3566 1747 
Q 3566 888 3137 398 
Q 2709 -91 1959 -91 
Q 1206 -91 779 398 
Q 353 888 353 1747 
Q 353 2609 779 3096 
Q 1206 3584 1959 3584 
z
" transform="scale(0.015625)"/>
       <path id="DejaVuSans-61" d="M 2194 1759 
Q 1497 1759 1228 1600 
Q 959 1441 959 1056 
Q 959 750 1161 570 
Q 1363 391 1709 391 
Q 2188 391 2477 730 
Q 2766 1069 2766 1631 
L 2766 1759 
L 2194 1759 
z
M 3341 1997 
L 3341 0 
L 2766 0 
L 2766 531 
Q 2569 213 2275 61 
Q 1981 -91 1556 -91 
Q 1019 -91 701 211 
Q 384 513 384 1019 
Q 384 1609 779 1909 
Q 1175 2209 1959 2209 
L 2766 2209 
L 2766 2266 
Q 2766 2663 2505 2880 
Q 2244 3097 1772 3097 
Q 1472 3097 1187 3025 
Q 903 2953 641 2809 
L 641 3341 
Q 956 3463 1253 3523 
Q 1550 3584 1831 3584 
Q 2591 3584 2966 3190 
Q 3341 2797 3341 1997 
z
" transform="scale(0.015625)"/>
      </defs>
      <use xlink:href="#DejaVuSans-53"/>
      <use xlink:href="#DejaVuSans-6f" x="63.476562"/>
      <use xlink:href="#DejaVuSans-6d" x="124.658203"/>
      <use xlink:href="#DejaVuSans-61" x="222.070312"/>
     </g>
    </g>
    <g id="line2d_26">
     <path d="M 697.098438 62.336562 
L 707.098438 62.336562 
L 717.098438 62.336562 
" style="fill: none; stroke: #4169e1; stroke-width: 1.5; stroke-linecap: square"/>
    </g>
    <g id="text_15">
     <!-- Dendrite -->
     <g transform="translate(725.098438 65.836562) scale(0.1 -0.1)">
      <defs>
       <path id="DejaVuSans-44" d="M 1259 4147 
L 1259 519 
L 2022 519 
Q 2988 519 3436 956 
Q 3884 1394 3884 2338 
Q 3884 3275 3436 3711 
Q 2988 4147 2022 4147 
L 1259 4147 
z
M 628 4666 
L 1925 4666 
Q 3281 4666 3915 4102 
Q 4550 3538 4550 2338 
Q 4550 1131 3912 565 
Q 3275 0 1925 0 
L 628 0 
L 628 4666 
z
" transform="scale(0.015625)"/>
       <path id="DejaVuSans-6e" d="M 3513 2113 
L 3513 0 
L 2938 0 
L 2938 2094 
Q 2938 2591 2744 2837 
Q 2550 3084 2163 3084 
Q 1697 3084 1428 2787 
Q 1159 2491 1159 1978 
L 1159 0 
L 581 0 
L 581 3500 
L 1159 3500 
L 1159 2956 
Q 1366 3272 1645 3428 
Q 1925 3584 2291 3584 
Q 2894 3584 3203 3211 
Q 3513 2838 3513 2113 
z
" transform="scale(0.015625)"/>
       <path id="DejaVuSans-64" d="M 2906 2969 
L 2906 4863 
L 3481 4863 
L 3481 0 
L 2906 0 
L 2906 525 
Q 2725 213 2448 61 
Q 2172 -91 1784 -91 
Q 1150 -91 751 415 
Q 353 922 353 1747 
Q 353 2572 751 3078 
Q 1150 3584 1784 3584 
Q 2172 3584 2448 3432 
Q 2725 3281 2906 2969 
z
M 947 1747 
Q 947 1113 1208 752 
Q 1469 391 1925 391 
Q 2381 391 2643 752 
Q 2906 1113 2906 1747 
Q 2906 2381 2643 2742 
Q 2381 3103 1925 3103 
Q 1469 3103 1208 2742 
Q 947 2381 947 1747 
z
" transform="scale(0.015625)"/>
       <path id="DejaVuSans-72" d="M 2631 2963 
Q 2534 3019 2420 3045 
Q 2306 3072 2169 3072 
Q 1681 3072 1420 2755 
Q 1159 2438 1159 1844 
L 1159 0 
L 581 0 
L 581 3500 
L 1159 3500 
L 1159 2956 
Q 1341 3275 1631 3429 
Q 1922 3584 2338 3584 
Q 2397 3584 2469 3576 
Q 2541 3569 2628 3553 
L 2631 2963 
z
" transform="scale(0.015625)"/>
       <path id="DejaVuSans-74" d="M 1172 4494 
L 1172 3500 
L 2356 3500 
L 2356 3053 
L 1172 3053 
L 1172 1153 
Q 1172 725 1289 603 
Q 1406 481 1766 481 
L 2356 481 
L 2356 0 
L 1766 0 
Q 1100 0 847 248 
Q 594 497 594 1153 
L 594 3053 
L 172 3053 
L 172 3500 
L 594 3500 
L 594 4494 
L 1172 4494 
z
" transform="scale(0.015625)"/>
      </defs>
      <use xlink:href="#DejaVuSans-44"/>
      <use xlink:href="#DejaVuSans-65" x="77.001953"/>
      <use xlink:href="#DejaVuSans-6e" x="138.525391"/>
      <use xlink:href="#DejaVuSans-64" x="201.904297"/>
      <use xlink:href="#DejaVuSans-72" x="265.380859"/>
      <use xlink:href="#DejaVuSans-69" x="306.494141"/>
      <use xlink:href="#DejaVuSans-74" x="334.277344"/>
      <use xlink:href="#DejaVuSans-65" x="373.486328"/>
     </g>
    </g>
   </g>
  </g>
 </g>
 <defs>
  <clipPath id="p6043903d46">
   <rect x="108" y="34.56" width="669.6" height="221.76"/>
  </clipPath>
 </defs>
</svg>
