<?xml version="1.0" encoding="utf-8" standalone="no"?>
<!DOCTYPE svg PUBLIC "-//W3C//DTD SVG 1.1//EN"
  "http://www.w3.org/Graphics/SVG/1.1/DTD/svg11.dtd">
<svg xmlns:xlink="http://www.w3.org/1999/xlink" width="864pt" height="288pt" viewBox="0 0 864 288" xmlns="http://www.w3.org/2000/svg" version="1.1">
 <metadata>
  <rdf:RDF xmlns:dc="http://purl.org/dc/elements/1.1/" xmlns:cc="http://creativecommons.org/ns#" xmlns:rdf="http://www.w3.org/1999/02/22-rdf-syntax-ns#">
   <cc:Work>
    <dc:type rdf:resource="http://purl.org/dc/dcmitype/StillImage"/>
    <dc:date>2024-04-26T13:23:13.648727</dc:date>
    <dc:format>image/svg+xml</dc:format>
    <dc:creator>
     <cc:Agent>
      <dc:title>Matplotlib v3.8.2, https://matplotlib.org/</dc:title>
     </cc:Agent>
    </dc:creator>
   </cc:Work>
  </rdf:RDF>
 </metadata>
 <defs>
  <style type="text/css">*{stroke-linejoin: round; stroke-linecap: butt}</style>
 </defs>
 <g id="figure_1">
  <g id="patch_1">
   <path d="M 0 288 
L 864 288 
L 864 0 
L 0 0 
z
" style="fill: #ffffff"/>
  </g>
  <g id="axes_1">
   <g id="patch_2">
    <path d="M 108 256.32 
L 777.6 256.32 
L 777.6 34.56 
L 108 34.56 
z
" style="fill: #ffffff"/>
   </g>
   <g id="matplotlib.axis_1">
    <g id="xtick_1">
     <g id="line2d_1">
      <path d="M 108 256.32 
L 108 34.56 
" clip-path="url(#p89ba5e8396)" style="fill: none; stroke: #b0b0b0; stroke-width: 0.8; stroke-linecap: square"/>
     </g>
     <g id="line2d_2">
      <defs>
       <path id="m54c58853a3" d="M 0 0 
L 0 3.5 
" style="stroke: #000000; stroke-width: 0.8"/>
      </defs>
      <g>
       <use xlink:href="#m54c58853a3" x="108" y="256.32" style="stroke: #000000; stroke-width: 0.8"/>
      </g>
     </g>
     <g id="text_1">
      <!-- 100 -->
      <g transform="translate(94.63875 273.957812) scale(0.14 -0.14)">
       <defs>
        <path id="DejaVuSans-31" d="M 794 531 
L 1825 531 
L 1825 4091 
L 703 3866 
L 703 4441 
L 1819 4666 
L 2450 4666 
L 2450 531 
L 3481 531 
L 3481 0 
L 794 0 
L 794 531 
z
" transform="scale(0.015625)"/>
        <path id="DejaVuSans-30" d="M 2034 4250 
Q 1547 4250 1301 3770 
Q 1056 3291 1056 2328 
Q 1056 1369 1301 889 
Q 1547 409 2034 409 
Q 2525 409 2770 889 
Q 3016 1369 3016 2328 
Q 3016 3291 2770 3770 
Q 2525 4250 2034 4250 
z
M 2034 4750 
Q 2819 4750 3233 4129 
Q 3647 3509 3647 2328 
Q 3647 1150 3233 529 
Q 2819 -91 2034 -91 
Q 1250 -91 836 529 
Q 422 1150 422 2328 
Q 422 3509 836 4129 
Q 1250 4750 2034 4750 
z
" transform="scale(0.015625)"/>
       </defs>
       <use xlink:href="#DejaVuSans-31"/>
       <use xlink:href="#DejaVuSans-30" x="63.623047"/>
       <use xlink:href="#DejaVuSans-30" x="127.246094"/>
      </g>
     </g>
    </g>
    <g id="xtick_2">
     <g id="line2d_3">
      <path d="M 241.92 256.32 
L 241.92 34.56 
" clip-path="url(#p89ba5e8396)" style="fill: none; stroke: #b0b0b0; stroke-width: 0.8; stroke-linecap: square"/>
     </g>
     <g id="line2d_4">
      <g>
       <use xlink:href="#m54c58853a3" x="241.92" y="256.32" style="stroke: #000000; stroke-width: 0.8"/>
      </g>
     </g>
     <g id="text_2">
      <!-- 120 -->
      <g transform="translate(228.55875 273.957812) scale(0.14 -0.14)">
       <defs>
        <path id="DejaVuSans-32" d="M 1228 531 
L 3431 531 
L 3431 0 
L 469 0 
L 469 531 
Q 828 903 1448 1529 
Q 2069 2156 2228 2338 
Q 2531 2678 2651 2914 
Q 2772 3150 2772 3378 
Q 2772 3750 2511 3984 
Q 2250 4219 1831 4219 
Q 1534 4219 1204 4116 
Q 875 4013 500 3803 
L 500 4441 
Q 881 4594 1212 4672 
Q 1544 4750 1819 4750 
Q 2544 4750 2975 4387 
Q 3406 4025 3406 3419 
Q 3406 3131 3298 2873 
Q 3191 2616 2906 2266 
Q 2828 2175 2409 1742 
Q 1991 1309 1228 531 
z
" transform="scale(0.015625)"/>
       </defs>
       <use xlink:href="#DejaVuSans-31"/>
       <use xlink:href="#DejaVuSans-32" x="63.623047"/>
       <use xlink:href="#DejaVuSans-30" x="127.246094"/>
      </g>
     </g>
    </g>
    <g id="xtick_3">
     <g id="line2d_5">
      <path d="M 375.84 256.32 
L 375.84 34.56 
" clip-path="url(#p89ba5e8396)" style="fill: none; stroke: #b0b0b0; stroke-width: 0.8; stroke-linecap: square"/>
     </g>
     <g id="line2d_6">
      <g>
       <use xlink:href="#m54c58853a3" x="375.84" y="256.32" style="stroke: #000000; stroke-width: 0.8"/>
      </g>
     </g>
     <g id="text_3">
      <!-- 140 -->
      <g transform="translate(362.47875 273.957812) scale(0.14 -0.14)">
       <defs>
        <path id="DejaVuSans-34" d="M 2419 4116 
L 825 1625 
L 2419 1625 
L 2419 4116 
z
M 2253 4666 
L 3047 4666 
L 3047 1625 
L 3713 1625 
L 3713 1100 
L 3047 1100 
L 3047 0 
L 2419 0 
L 2419 1100 
L 313 1100 
L 313 1709 
L 2253 4666 
z
" transform="scale(0.015625)"/>
       </defs>
       <use xlink:href="#DejaVuSans-31"/>
       <use xlink:href="#DejaVuSans-34" x="63.623047"/>
       <use xlink:href="#DejaVuSans-30" x="127.246094"/>
      </g>
     </g>
    </g>
    <g id="xtick_4">
     <g id="line2d_7">
      <path d="M 509.76 256.32 
L 509.76 34.56 
" clip-path="url(#p89ba5e8396)" style="fill: none; stroke: #b0b0b0; stroke-width: 0.8; stroke-linecap: square"/>
     </g>
     <g id="line2d_8">
      <g>
       <use xlink:href="#m54c58853a3" x="509.76" y="256.32" style="stroke: #000000; stroke-width: 0.8"/>
      </g>
     </g>
     <g id="text_4">
      <!-- 160 -->
      <g transform="translate(496.39875 273.957812) scale(0.14 -0.14)">
       <defs>
        <path id="DejaVuSans-36" d="M 2113 2584 
Q 1688 2584 1439 2293 
Q 1191 2003 1191 1497 
Q 1191 994 1439 701 
Q 1688 409 2113 409 
Q 2538 409 2786 701 
Q 3034 994 3034 1497 
Q 3034 2003 2786 2293 
Q 2538 2584 2113 2584 
z
M 3366 4563 
L 3366 3988 
Q 3128 4100 2886 4159 
Q 2644 4219 2406 4219 
Q 1781 4219 1451 3797 
Q 1122 3375 1075 2522 
Q 1259 2794 1537 2939 
Q 1816 3084 2150 3084 
Q 2853 3084 3261 2657 
Q 3669 2231 3669 1497 
Q 3669 778 3244 343 
Q 2819 -91 2113 -91 
Q 1303 -91 875 529 
Q 447 1150 447 2328 
Q 447 3434 972 4092 
Q 1497 4750 2381 4750 
Q 2619 4750 2861 4703 
Q 3103 4656 3366 4563 
z
" transform="scale(0.015625)"/>
       </defs>
       <use xlink:href="#DejaVuSans-31"/>
       <use xlink:href="#DejaVuSans-36" x="63.623047"/>
       <use xlink:href="#DejaVuSans-30" x="127.246094"/>
      </g>
     </g>
    </g>
    <g id="xtick_5">
     <g id="line2d_9">
      <path d="M 643.68 256.32 
L 643.68 34.56 
" clip-path="url(#p89ba5e8396)" style="fill: none; stroke: #b0b0b0; stroke-width: 0.8; stroke-linecap: square"/>
     </g>
     <g id="line2d_10">
      <g>
       <use xlink:href="#m54c58853a3" x="643.68" y="256.32" style="stroke: #000000; stroke-width: 0.8"/>
      </g>
     </g>
     <g id="text_5">
      <!-- 180 -->
      <g transform="translate(630.31875 273.957812) scale(0.14 -0.14)">
       <defs>
        <path id="DejaVuSans-38" d="M 2034 2216 
Q 1584 2216 1326 1975 
Q 1069 1734 1069 1313 
Q 1069 891 1326 650 
Q 1584 409 2034 409 
Q 2484 409 2743 651 
Q 3003 894 3003 1313 
Q 3003 1734 2745 1975 
Q 2488 2216 2034 2216 
z
M 1403 2484 
Q 997 2584 770 2862 
Q 544 3141 544 3541 
Q 544 4100 942 4425 
Q 1341 4750 2034 4750 
Q 2731 4750 3128 4425 
Q 3525 4100 3525 3541 
Q 3525 3141 3298 2862 
Q 3072 2584 2669 2484 
Q 3125 2378 3379 2068 
Q 3634 1759 3634 1313 
Q 3634 634 3220 271 
Q 2806 -91 2034 -91 
Q 1263 -91 848 271 
Q 434 634 434 1313 
Q 434 1759 690 2068 
Q 947 2378 1403 2484 
z
M 1172 3481 
Q 1172 3119 1398 2916 
Q 1625 2713 2034 2713 
Q 2441 2713 2670 2916 
Q 2900 3119 2900 3481 
Q 2900 3844 2670 4047 
Q 2441 4250 2034 4250 
Q 1625 4250 1398 4047 
Q 1172 3844 1172 3481 
z
" transform="scale(0.015625)"/>
       </defs>
       <use xlink:href="#DejaVuSans-31"/>
       <use xlink:href="#DejaVuSans-38" x="63.623047"/>
       <use xlink:href="#DejaVuSans-30" x="127.246094"/>
      </g>
     </g>
    </g>
    <g id="xtick_6">
     <g id="line2d_11">
      <path d="M 777.6 256.32 
L 777.6 34.56 
" clip-path="url(#p89ba5e8396)" style="fill: none; stroke: #b0b0b0; stroke-width: 0.8; stroke-linecap: square"/>
     </g>
     <g id="line2d_12">
      <g>
       <use xlink:href="#m54c58853a3" x="777.6" y="256.32" style="stroke: #000000; stroke-width: 0.8"/>
      </g>
     </g>
     <g id="text_6">
      <!-- 200 -->
      <g transform="translate(764.23875 273.957812) scale(0.14 -0.14)">
       <use xlink:href="#DejaVuSans-32"/>
       <use xlink:href="#DejaVuSans-30" x="63.623047"/>
       <use xlink:href="#DejaVuSans-30" x="127.246094"/>
      </g>
     </g>
    </g>
    <g id="text_7">
     <!-- Time (ms) -->
     <g transform="translate(407.521094 291.507187) scale(0.14 -0.14)">
      <defs>
       <path id="DejaVuSans-54" d="M -19 4666 
L 3928 4666 
L 3928 4134 
L 2272 4134 
L 2272 0 
L 1638 0 
L 1638 4134 
L -19 4134 
L -19 4666 
z
" transform="scale(0.015625)"/>
       <path id="DejaVuSans-69" d="M 603 3500 
L 1178 3500 
L 1178 0 
L 603 0 
L 603 3500 
z
M 603 4863 
L 1178 4863 
L 1178 4134 
L 603 4134 
L 603 4863 
z
" transform="scale(0.015625)"/>
       <path id="DejaVuSans-6d" d="M 3328 2828 
Q 3544 3216 3844 3400 
Q 4144 3584 4550 3584 
Q 5097 3584 5394 3201 
Q 5691 2819 5691 2113 
L 5691 0 
L 5113 0 
L 5113 2094 
Q 5113 2597 4934 2840 
Q 4756 3084 4391 3084 
Q 3944 3084 3684 2787 
Q 3425 2491 3425 1978 
L 3425 0 
L 2847 0 
L 2847 2094 
Q 2847 2600 2669 2842 
Q 2491 3084 2119 3084 
Q 1678 3084 1418 2786 
Q 1159 2488 1159 1978 
L 1159 0 
L 581 0 
L 581 3500 
L 1159 3500 
L 1159 2956 
Q 1356 3278 1631 3431 
Q 1906 3584 2284 3584 
Q 2666 3584 2933 3390 
Q 3200 3197 3328 2828 
z
" transform="scale(0.015625)"/>
       <path id="DejaVuSans-65" d="M 3597 1894 
L 3597 1613 
L 953 1613 
Q 991 1019 1311 708 
Q 1631 397 2203 397 
Q 2534 397 2845 478 
Q 3156 559 3463 722 
L 3463 178 
Q 3153 47 2828 -22 
Q 2503 -91 2169 -91 
Q 1331 -91 842 396 
Q 353 884 353 1716 
Q 353 2575 817 3079 
Q 1281 3584 2069 3584 
Q 2775 3584 3186 3129 
Q 3597 2675 3597 1894 
z
M 3022 2063 
Q 3016 2534 2758 2815 
Q 2500 3097 2075 3097 
Q 1594 3097 1305 2825 
Q 1016 2553 972 2059 
L 3022 2063 
z
" transform="scale(0.015625)"/>
       <path id="DejaVuSans-20" transform="scale(0.015625)"/>
       <path id="DejaVuSans-28" d="M 1984 4856 
Q 1566 4138 1362 3434 
Q 1159 2731 1159 2009 
Q 1159 1288 1364 580 
Q 1569 -128 1984 -844 
L 1484 -844 
Q 1016 -109 783 600 
Q 550 1309 550 2009 
Q 550 2706 781 3412 
Q 1013 4119 1484 4856 
L 1984 4856 
z
" transform="scale(0.015625)"/>
       <path id="DejaVuSans-73" d="M 2834 3397 
L 2834 2853 
Q 2591 2978 2328 3040 
Q 2066 3103 1784 3103 
Q 1356 3103 1142 2972 
Q 928 2841 928 2578 
Q 928 2378 1081 2264 
Q 1234 2150 1697 2047 
L 1894 2003 
Q 2506 1872 2764 1633 
Q 3022 1394 3022 966 
Q 3022 478 2636 193 
Q 2250 -91 1575 -91 
Q 1294 -91 989 -36 
Q 684 19 347 128 
L 347 722 
Q 666 556 975 473 
Q 1284 391 1588 391 
Q 1994 391 2212 530 
Q 2431 669 2431 922 
Q 2431 1156 2273 1281 
Q 2116 1406 1581 1522 
L 1381 1569 
Q 847 1681 609 1914 
Q 372 2147 372 2553 
Q 372 3047 722 3315 
Q 1072 3584 1716 3584 
Q 2034 3584 2315 3537 
Q 2597 3491 2834 3397 
z
" transform="scale(0.015625)"/>
       <path id="DejaVuSans-29" d="M 513 4856 
L 1013 4856 
Q 1481 4119 1714 3412 
Q 1947 2706 1947 2009 
Q 1947 1309 1714 600 
Q 1481 -109 1013 -844 
L 513 -844 
Q 928 -128 1133 580 
Q 1338 1288 1338 2009 
Q 1338 2731 1133 3434 
Q 928 4138 513 4856 
z
" transform="scale(0.015625)"/>
      </defs>
      <use xlink:href="#DejaVuSans-54"/>
      <use xlink:href="#DejaVuSans-69" x="57.958984"/>
      <use xlink:href="#DejaVuSans-6d" x="85.742188"/>
      <use xlink:href="#DejaVuSans-65" x="183.154297"/>
      <use xlink:href="#DejaVuSans-20" x="244.677734"/>
      <use xlink:href="#DejaVuSans-28" x="276.464844"/>
      <use xlink:href="#DejaVuSans-6d" x="315.478516"/>
      <use xlink:href="#DejaVuSans-73" x="412.890625"/>
      <use xlink:href="#DejaVuSans-29" x="464.990234"/>
     </g>
    </g>
   </g>
   <g id="matplotlib.axis_2">
    <g id="ytick_1">
     <g id="line2d_13">
      <path d="M 108 225.149069 
L 777.6 225.149069 
" clip-path="url(#p89ba5e8396)" style="fill: none; stroke: #b0b0b0; stroke-width: 0.8; stroke-linecap: square"/>
     </g>
     <g id="line2d_14">
      <defs>
       <path id="md14e4b46e2" d="M 0 0 
L -3.5 0 
" style="stroke: #000000; stroke-width: 0.8"/>
      </defs>
      <g>
       <use xlink:href="#md14e4b46e2" x="108" y="225.149069" style="stroke: #000000; stroke-width: 0.8"/>
      </g>
     </g>
     <g id="text_8">
      <!-- −60 -->
      <g transform="translate(71.453437 230.467975) scale(0.14 -0.14)">
       <defs>
        <path id="DejaVuSans-2212" d="M 678 2272 
L 4684 2272 
L 4684 1741 
L 678 1741 
L 678 2272 
z
" transform="scale(0.015625)"/>
       </defs>
       <use xlink:href="#DejaVuSans-2212"/>
       <use xlink:href="#DejaVuSans-36" x="83.789062"/>
       <use xlink:href="#DejaVuSans-30" x="147.412109"/>
      </g>
     </g>
    </g>
    <g id="ytick_2">
     <g id="line2d_15">
      <path d="M 108 183.03442 
L 777.6 183.03442 
" clip-path="url(#p89ba5e8396)" style="fill: none; stroke: #b0b0b0; stroke-width: 0.8; stroke-linecap: square"/>
     </g>
     <g id="line2d_16">
      <g>
       <use xlink:href="#md14e4b46e2" x="108" y="183.03442" style="stroke: #000000; stroke-width: 0.8"/>
      </g>
     </g>
     <g id="text_9">
      <!-- −40 -->
      <g transform="translate(71.453437 188.353326) scale(0.14 -0.14)">
       <use xlink:href="#DejaVuSans-2212"/>
       <use xlink:href="#DejaVuSans-34" x="83.789062"/>
       <use xlink:href="#DejaVuSans-30" x="147.412109"/>
      </g>
     </g>
    </g>
    <g id="ytick_3">
     <g id="line2d_17">
      <path d="M 108 140.919771 
L 777.6 140.919771 
" clip-path="url(#p89ba5e8396)" style="fill: none; stroke: #b0b0b0; stroke-width: 0.8; stroke-linecap: square"/>
     </g>
     <g id="line2d_18">
      <g>
       <use xlink:href="#md14e4b46e2" x="108" y="140.919771" style="stroke: #000000; stroke-width: 0.8"/>
      </g>
     </g>
     <g id="text_10">
      <!-- −20 -->
      <g transform="translate(71.453437 146.238677) scale(0.14 -0.14)">
       <use xlink:href="#DejaVuSans-2212"/>
       <use xlink:href="#DejaVuSans-32" x="83.789062"/>
       <use xlink:href="#DejaVuSans-30" x="147.412109"/>
      </g>
     </g>
    </g>
    <g id="ytick_4">
     <g id="line2d_19">
      <path d="M 108 98.805122 
L 777.6 98.805122 
" clip-path="url(#p89ba5e8396)" style="fill: none; stroke: #b0b0b0; stroke-width: 0.8; stroke-linecap: square"/>
     </g>
     <g id="line2d_20">
      <g>
       <use xlink:href="#md14e4b46e2" x="108" y="98.805122" style="stroke: #000000; stroke-width: 0.8"/>
      </g>
     </g>
     <g id="text_11">
      <!-- 0 -->
      <g transform="translate(92.0925 104.124028) scale(0.14 -0.14)">
       <use xlink:href="#DejaVuSans-30"/>
      </g>
     </g>
    </g>
    <g id="ytick_5">
     <g id="line2d_21">
      <path d="M 108 56.690473 
L 777.6 56.690473 
" clip-path="url(#p89ba5e8396)" style="fill: none; stroke: #b0b0b0; stroke-width: 0.8; stroke-linecap: square"/>
     </g>
     <g id="line2d_22">
      <g>
       <use xlink:href="#md14e4b46e2" x="108" y="56.690473" style="stroke: #000000; stroke-width: 0.8"/>
      </g>
     </g>
     <g id="text_12">
      <!-- 20 -->
      <g transform="translate(83.185 62.009379) scale(0.14 -0.14)">
       <use xlink:href="#DejaVuSans-32"/>
       <use xlink:href="#DejaVuSans-30" x="63.623047"/>
      </g>
     </g>
    </g>
    <g id="text_13">
     <!-- $V_{m}$ (mV) -->
     <g transform="translate(64.541875 174.49) rotate(-90) scale(0.14 -0.14)">
      <defs>
       <path id="DejaVuSans-Oblique-56" d="M 1319 0 
L 500 4666 
L 1119 4666 
L 1797 653 
L 4063 4666 
L 4750 4666 
L 2053 0 
L 1319 0 
z
" transform="scale(0.015625)"/>
       <path id="DejaVuSans-Oblique-6d" d="M 5747 2113 
L 5338 0 
L 4763 0 
L 5166 2094 
Q 5191 2228 5203 2325 
Q 5216 2422 5216 2491 
Q 5216 2772 5059 2928 
Q 4903 3084 4622 3084 
Q 4203 3084 3875 2770 
Q 3547 2456 3450 1953 
L 3066 0 
L 2491 0 
L 2900 2094 
Q 2925 2209 2937 2307 
Q 2950 2406 2950 2484 
Q 2950 2769 2794 2926 
Q 2638 3084 2363 3084 
Q 1938 3084 1609 2770 
Q 1281 2456 1184 1953 
L 800 0 
L 225 0 
L 909 3500 
L 1484 3500 
L 1375 2956 
Q 1609 3263 1923 3423 
Q 2238 3584 2597 3584 
Q 2978 3584 3223 3384 
Q 3469 3184 3519 2828 
Q 3781 3197 4126 3390 
Q 4472 3584 4856 3584 
Q 5306 3584 5551 3325 
Q 5797 3066 5797 2591 
Q 5797 2488 5784 2364 
Q 5772 2241 5747 2113 
z
" transform="scale(0.015625)"/>
       <path id="DejaVuSans-56" d="M 1831 0 
L 50 4666 
L 709 4666 
L 2188 738 
L 3669 4666 
L 4325 4666 
L 2547 0 
L 1831 0 
z
" transform="scale(0.015625)"/>
      </defs>
      <use xlink:href="#DejaVuSans-Oblique-56" transform="translate(0 0.125)"/>
      <use xlink:href="#DejaVuSans-Oblique-6d" transform="translate(68.408203 -16.28125) scale(0.7)"/>
      <use xlink:href="#DejaVuSans-20" transform="translate(139.331055 0.125)"/>
      <use xlink:href="#DejaVuSans-28" transform="translate(171.118164 0.125)"/>
      <use xlink:href="#DejaVuSans-6d" transform="translate(210.131836 0.125)"/>
      <use xlink:href="#DejaVuSans-56" transform="translate(307.543945 0.125)"/>
      <use xlink:href="#DejaVuSans-29" transform="translate(375.952148 0.125)"/>
     </g>
    </g>
   </g>
   <g id="line2d_23">
    <path d="M 108 221.840059 
L 109.3392 222.479864 
L 111.348 223.04806 
L 112.6872 223.949601 
L 114.0264 224.381249 
L 116.0352 225.870936 
L 118.044 228.213787 
L 118.7136 229.27117 
L 119.3832 230.089099 
L 120.0528 230.609211 
L 120.7224 231.593653 
L 122.7312 233.767851 
L 124.0704 234.510457 
L 125.4096 234.988423 
L 127.4184 235.442938 
L 129.4272 235.644952 
L 131.436 235.422829 
L 134.1144 234.967025 
L 136.1232 235.54868 
L 136.7928 236.298552 
L 137.4624 236.818463 
L 140.1408 237.868381 
L 141.48 238.101508 
L 143.4888 238.173185 
L 144.828 238.595647 
L 146.1672 238.690166 
L 148.176 238.603527 
L 149.5152 238.937163 
L 150.8544 238.954852 
L 153.5328 238.671938 
L 156.8808 238.042735 
L 160.8984 237.014775 
L 164.916 235.753117 
L 169.6032 234.038543 
L 174.96 231.81238 
L 180.3168 229.349481 
L 186.3432 226.346566 
L 193.7088 222.415039 
L 198.396 219.802358 
L 199.7352 219.83043 
L 201.0744 219.456481 
L 203.7528 218.359488 
L 205.7616 217.438831 
L 207.1008 217.616055 
L 208.44 217.364874 
L 209.7792 217.759531 
L 211.1184 217.672916 
L 213.1272 217.2286 
L 216.4752 216.190239 
L 220.4928 214.702059 
L 225.8496 212.469628 
L 227.1888 212.769766 
L 227.8584 213.656723 
L 228.528 214.340636 
L 229.1976 214.676084 
L 230.5368 214.929686 
L 232.5456 214.89868 
L 234.5544 216.136152 
L 235.8936 217.974341 
L 236.5632 219.059644 
L 239.2416 222.141831 
L 239.9112 223.139721 
L 240.5808 224.577183 
L 241.2504 225.633196 
L 241.92 226.311356 
L 243.2592 227.198891 
L 244.5984 227.78618 
L 245.9376 228.799551 
L 246.6072 229.10964 
L 247.2768 229.664361 
L 247.9464 230.425134 
L 249.9552 232.153753 
L 251.2944 233.291575 
L 252.6336 233.881371 
L 253.9728 234.244368 
L 255.312 235.499205 
L 255.9816 236.10422 
L 256.6512 236.551124 
L 257.9904 237.053197 
L 259.9992 237.437323 
L 260.6688 237.510233 
L 262.008 238.07059 
L 263.3472 238.246455 
L 264.6864 238.124641 
L 268.0344 238.840556 
L 270.0432 238.783968 
L 270.7128 238.731649 
L 272.052 239.062193 
L 273.3912 239.089598 
L 276.0696 238.849797 
L 279.4176 238.29366 
L 282.096 237.698687 
L 283.4352 237.854062 
L 284.7744 237.708511 
L 287.4528 237.133706 
L 290.8008 236.192279 
L 291.4704 235.982691 
L 292.8096 236.072785 
L 294.1488 235.853522 
L 296.8272 235.128693 
L 300.8448 233.768775 
L 305.532 231.925424 
L 310.8888 229.562873 
L 316.9152 226.645985 
L 323.6112 223.153948 
L 332.316 218.336545 
L 344.3688 211.388197 
L 345.0384 210.993595 
L 346.3776 211.131426 
L 347.7168 210.833022 
L 349.7256 210.095137 
L 353.0736 208.59952 
L 354.4128 207.948367 
L 355.752 209.214207 
L 356.4216 209.488135 
L 358.4304 211.277339 
L 359.1 212.283338 
L 359.7696 212.995966 
L 360.4392 213.427096 
L 361.7784 213.908539 
L 363.1176 215.768104 
L 363.7872 216.687649 
L 364.4568 217.372776 
L 366.4656 218.789492 
L 367.1352 219.31781 
L 367.8048 219.66235 
L 369.144 220.824998 
L 370.4832 221.407174 
L 372.492 221.856608 
L 373.8312 223.394002 
L 374.5008 224.876178 
L 375.1704 226.016071 
L 375.84 226.703265 
L 377.1792 227.551053 
L 378.5184 228.087929 
L 379.188 228.28825 
L 379.8576 228.783212 
L 381.8664 230.93967 
L 382.536 231.326014 
L 383.8752 232.379844 
L 384.5448 232.694485 
L 386.5536 234.210976 
L 387.2232 234.647611 
L 388.5624 235.14743 
L 391.2408 235.89533 
L 391.9104 236.447122 
L 392.58 236.828957 
L 393.9192 237.206838 
L 395.928 237.437008 
L 397.2672 237.434851 
L 398.6064 237.211921 
L 399.9456 237.394806 
L 400.6152 237.362927 
L 401.9544 237.688425 
L 403.2936 237.691124 
L 406.6416 238.667616 
L 407.9808 238.697064 
L 409.32 239.094946 
L 410.6592 239.163688 
L 412.668 239.04046 
L 415.3464 238.674012 
L 418.6944 237.995513 
L 422.712 236.931022 
L 426.7296 235.643034 
L 428.0688 235.704953 
L 429.408 235.458373 
L 432.0864 234.683261 
L 436.104 233.258693 
L 440.7912 231.352469 
L 446.148 228.930654 
L 452.1744 225.960124 
L 459.54 222.058199 
L 468.9144 216.804857 
L 472.932 214.496165 
L 474.2712 214.590583 
L 475.6104 214.254942 
L 476.9496 213.757918 
L 478.2888 214.070037 
L 479.628 213.914905 
L 481.6368 213.373553 
L 483.6456 212.69372 
L 484.9848 213.079142 
L 485.6544 213.539731 
L 486.324 213.862241 
L 487.6632 214.019372 
L 489.0024 213.933362 
L 490.3416 215.409982 
L 491.0112 215.748698 
L 491.6808 216.369507 
L 492.3504 217.265017 
L 493.02 217.890578 
L 493.6896 218.266405 
L 494.3592 218.925971 
L 495.0288 219.842907 
L 495.6984 220.497033 
L 497.7072 221.808579 
L 498.3768 222.295996 
L 499.716 222.833496 
L 501.0552 223.131781 
L 502.3944 223.983305 
L 503.7336 224.363921 
L 504.4032 224.471013 
L 505.7424 225.259454 
L 507.0816 225.590623 
L 507.7512 225.676316 
L 508.4208 226.085904 
L 510.4296 229.197218 
L 511.0992 229.893126 
L 512.4384 230.674129 
L 513.7776 231.129453 
L 515.1168 231.978006 
L 515.7864 232.816962 
L 516.456 233.468946 
L 517.1256 233.864773 
L 519.804 237.141848 
L 521.1432 237.860049 
L 522.4824 238.296947 
L 523.152 238.455658 
L 523.8216 238.836303 
L 524.4912 239.388231 
L 526.5 240.616931 
L 527.8392 241.425939 
L 529.1784 241.799024 
L 529.848 241.911585 
L 531.1872 242.421764 
L 532.5264 242.452514 
L 535.8744 242.057787 
L 541.2312 241.204843 
L 545.2488 240.345093 
L 549.2664 239.272413 
L 553.9536 237.770011 
L 558.6408 236.028652 
L 563.9976 233.786128 
L 570.024 230.989832 
L 576.72 227.601792 
L 584.0856 223.60568 
L 593.46 218.239337 
L 602.1648 213.110187 
L 603.504 213.20704 
L 604.8432 212.870156 
L 607.5216 211.801819 
L 611.5392 209.920388 
L 613.548 208.905781 
L 614.8872 209.170531 
L 616.2264 209.000456 
L 618.2352 208.419635 
L 620.9136 207.41346 
L 622.9224 206.523428 
L 624.2616 206.89596 
L 624.9312 206.920673 
L 625.6008 207.37254 
L 626.2704 208.248381 
L 626.94 208.897087 
L 627.6096 209.276855 
L 628.9488 209.656145 
L 629.6184 209.740029 
L 630.288 210.260285 
L 630.9576 211.627222 
L 631.6272 212.670203 
L 632.2968 213.294962 
L 634.3056 214.674413 
L 634.9752 215.214915 
L 635.6448 215.559826 
L 636.984 216.769808 
L 637.6536 217.115774 
L 638.9928 220.169867 
L 639.6624 221.200195 
L 640.332 221.874564 
L 641.6712 223.43791 
L 642.3408 223.929598 
L 643.0104 224.66781 
L 643.68 225.616725 
L 644.3496 226.320441 
L 645.0192 226.805841 
L 646.3584 228.08746 
L 648.3672 229.388295 
L 649.0368 230.178953 
L 649.7064 230.75937 
L 653.0544 232.723972 
L 653.724 233.24201 
L 654.3936 233.943978 
L 658.4112 237.005081 
L 659.7504 238.50038 
L 660.42 239.034834 
L 661.7592 239.652121 
L 663.768 240.157227 
L 665.1072 240.307021 
L 667.116 240.138906 
L 667.7856 240.045534 
L 669.1248 240.295319 
L 671.1336 240.23954 
L 674.4816 239.872185 
L 678.4992 239.18674 
L 682.5168 238.255553 
L 686.5344 237.101004 
L 691.2216 235.506177 
L 693.9 234.488894 
L 695.2392 234.50907 
L 696.5784 234.216144 
L 699.2568 233.348527 
L 703.2744 231.797812 
L 708.6312 229.457834 
L 714.6576 226.553036 
L 721.3536 223.068618 
L 730.0584 218.257198 
L 742.1112 211.31253 
L 742.7808 210.917924 
L 744.12 211.056916 
L 745.4592 210.759492 
L 747.468 210.02261 
L 748.8072 210.391738 
L 750.1464 210.291275 
L 752.1552 209.804022 
L 753.4944 210.315313 
L 754.8336 210.345127 
L 756.1728 210.16331 
L 757.512 210.799749 
L 758.8512 210.931668 
L 760.1904 210.844037 
L 761.5296 211.550697 
L 762.1992 211.691996 
L 763.5384 212.623967 
L 764.8776 212.9627 
L 765.5472 213.024915 
L 766.8864 213.888513 
L 768.2256 214.212247 
L 768.8952 214.276947 
L 770.2344 215.938811 
L 770.904 216.360648 
L 771.5736 216.629541 
L 774.252 218.977741 
L 775.5912 219.56553 
L 776.9304 219.882166 
L 777.6 220.382236 
L 777.6 220.382236 
" clip-path="url(#p89ba5e8396)" style="fill: none; stroke: #000000; stroke-width: 1.5; stroke-linecap: square"/>
   </g>
   <g id="line2d_24">
    <path d="M 108 211.900313 
L 110.6784 214.18609 
L 114.0264 216.598247 
L 117.3744 218.993571 
L 119.3832 220.754362 
L 122.7312 224.072235 
L 124.74 226.019596 
L 126.7488 227.679943 
L 128.7576 229.049926 
L 129.4272 199.588101 
L 130.0968 187.774804 
L 130.7664 182.419163 
L 131.436 179.617439 
L 132.1056 178.176366 
L 132.7752 177.636722 
L 133.4448 177.76018 
L 134.1144 178.389972 
L 134.784 179.419428 
L 136.1232 182.332489 
L 137.4624 186.008287 
L 141.48 197.802475 
L 143.4888 202.878687 
L 145.4976 207.230588 
L 147.5064 210.920431 
L 149.5152 213.998134 
L 151.524 216.620576 
L 153.5328 218.779036 
L 155.5416 220.513687 
L 157.5504 221.884095 
L 159.5592 222.943706 
L 161.568 223.737145 
L 163.5768 224.301435 
L 165.5856 224.667447 
L 168.264 224.89124 
L 170.9424 224.858814 
L 173.6208 224.610929 
L 176.9688 224.047834 
L 180.3168 223.250849 
L 184.3344 222.042171 
L 188.352 220.609393 
L 193.0392 218.711359 
L 201.744 215.033383 
L 208.44 212.895213 
L 210.4488 212.571687 
L 216.4752 211.869352 
L 220.4928 211.131977 
L 225.18 210.014848 
L 227.1888 209.531807 
L 228.528 209.45637 
L 230.5368 209.724102 
L 234.5544 210.427559 
L 235.8936 210.905201 
L 237.2328 211.659297 
L 239.2416 213.125974 
L 240.5808 214.292024 
L 245.9376 219.498108 
L 255.312 227.432846 
L 259.3296 230.450207 
L 262.008 232.027887 
L 262.6776 232.388142 
L 263.3472 202.171285 
L 264.0168 190.077829 
L 264.6864 184.668145 
L 265.356 181.964532 
L 266.0256 180.698685 
L 266.6952 180.384468 
L 267.3648 180.769412 
L 268.0344 181.681878 
L 268.704 182.987625 
L 270.0432 186.353039 
L 275.4 201.417093 
L 277.4088 205.980798 
L 278.748 208.576301 
L 280.0872 210.838112 
L 281.4264 212.794698 
L 283.4352 215.265112 
L 285.444 217.338495 
L 287.4528 219.001365 
L 289.4616 220.286887 
L 291.4704 221.249182 
L 294.8184 222.484861 
L 296.8272 223.010507 
L 298.836 223.347549 
L 301.5144 223.538592 
L 304.1928 223.479191 
L 306.8712 223.209381 
L 310.2192 222.624337 
L 313.5672 221.809703 
L 317.5848 220.583695 
L 322.272 218.877206 
L 326.9592 216.936242 
L 332.9856 214.181371 
L 340.3512 210.542632 
L 347.0472 207.231617 
L 353.0736 205.126189 
L 355.0824 204.428204 
L 356.4216 204.208237 
L 357.7608 204.235956 
L 359.1 204.518883 
L 361.1088 205.373795 
L 363.1176 206.432065 
L 365.1264 207.870468 
L 375.1704 215.55763 
L 379.188 219.340043 
L 383.2056 222.793005 
L 387.2232 226.194062 
L 389.9016 228.226233 
L 393.9192 230.782645 
L 395.928 231.892302 
L 396.5976 232.21395 
L 397.2672 201.998538 
L 397.9368 189.881246 
L 398.6064 184.433525 
L 399.276 181.677467 
L 399.9456 180.349493 
L 400.6152 179.955701 
L 401.2848 180.250198 
L 401.9544 181.07093 
L 402.624 182.289561 
L 403.9632 185.51067 
L 405.972 191.280339 
L 408.6504 198.911331 
L 410.6592 203.954907 
L 412.668 208.244759 
L 414.0072 210.67908 
L 415.3464 212.800056 
L 416.6856 214.637078 
L 418.0248 216.21938 
L 420.0336 218.174208 
L 422.0424 219.697789 
L 424.0512 220.858062 
L 426.06 221.711247 
L 429.408 222.729116 
L 432.0864 223.287476 
L 434.7648 223.543775 
L 437.4432 223.537837 
L 440.1216 223.312303 
L 443.4696 222.773107 
L 446.8176 221.99631 
L 450.8352 220.807567 
L 454.8528 219.390837 
L 459.54 217.507965 
L 464.8968 215.120899 
L 471.5928 211.884273 
L 474.2712 210.60456 
L 476.9496 209.635973 
L 478.9584 209.094526 
L 484.9848 207.95012 
L 486.324 207.887699 
L 489.0024 208.056404 
L 490.3416 208.271232 
L 491.6808 208.669149 
L 493.02 209.26726 
L 495.0288 210.422671 
L 499.0464 213.283075 
L 501.7248 215.076762 
L 505.7424 217.519099 
L 510.4296 220.34709 
L 515.1168 224.065765 
L 517.7952 226.155542 
L 520.4736 228.56716 
L 522.4824 230.290192 
L 525.8304 232.741134 
L 529.848 235.498099 
L 530.5176 235.899136 
L 531.1872 204.965073 
L 531.8568 192.651091 
L 532.5264 187.238762 
L 533.196 184.676739 
L 533.8656 183.619775 
L 534.5352 183.530465 
L 535.2048 184.127449 
L 535.8744 185.227427 
L 537.2136 188.407088 
L 539.892 196.22067 
L 541.9008 201.853579 
L 543.9096 206.750305 
L 545.2488 209.554913 
L 546.588 212.002543 
L 547.9272 214.11806 
L 549.2664 215.931439 
L 550.6056 217.47356 
L 551.9448 218.77397 
L 553.284 219.859828 
L 555.2928 221.138917 
L 557.3016 222.060284 
L 559.3104 222.68223 
L 561.3192 223.052551 
L 563.328 223.210467 
L 566.0064 223.145594 
L 568.6848 222.821407 
L 571.3632 222.286009 
L 574.7112 221.376691 
L 578.7288 220.007074 
L 582.7464 218.402503 
L 587.4336 216.306002 
L 593.46 213.354492 
L 601.4952 209.138302 
L 603.504 208.126425 
L 606.1824 207.092913 
L 616.2264 203.530867 
L 625.6008 201.524509 
L 626.94 201.61834 
L 628.9488 202.13058 
L 630.9576 202.814144 
L 632.2968 203.587917 
L 635.6448 205.9318 
L 638.3232 208.002875 
L 639.6624 209.335679 
L 650.376 220.995118 
L 653.724 224.11476 
L 663.0984 232.351843 
L 664.4376 233.308013 
L 665.1072 202.961882 
L 665.7768 190.857144 
L 666.4464 185.493845 
L 667.116 182.874876 
L 667.7856 181.70809 
L 668.4552 181.494777 
L 669.1248 181.975211 
L 669.7944 182.976331 
L 670.464 184.362747 
L 671.8032 187.859365 
L 676.4904 201.182696 
L 678.4992 205.873441 
L 679.8384 208.54776 
L 681.1776 210.878284 
L 682.5168 212.891944 
L 683.856 214.618728 
L 685.1952 216.088487 
L 686.5344 217.329285 
L 688.5432 218.816377 
L 690.552 219.920133 
L 692.5608 220.702665 
L 694.5696 221.227884 
L 697.9176 221.88645 
L 700.596 222.116242 
L 703.2744 222.075438 
L 705.9528 221.80832 
L 709.3008 221.212628 
L 712.6488 220.378184 
L 716.6664 219.122219 
L 721.3536 217.377917 
L 726.7104 215.102419 
L 732.7368 212.281506 
L 740.772 208.243938 
L 744.12 206.574754 
L 746.7984 205.601704 
L 748.8072 204.997964 
L 751.4856 204.508294 
L 753.4944 204.244719 
L 756.8424 204.179784 
L 759.5208 204.42712 
L 762.1992 204.839713 
L 764.208 205.415889 
L 767.556 206.627362 
L 770.2344 207.781657 
L 772.9128 209.339987 
L 777.6 212.457958 
L 777.6 212.457958 
" clip-path="url(#p89ba5e8396)" style="fill: none; stroke: #4169e1; stroke-width: 1.5; stroke-linecap: square"/>
   </g>
   <g id="patch_3">
    <path d="M 108 256.32 
L 108 34.56 
" style="fill: none; stroke: #000000; stroke-width: 0.8; stroke-linejoin: miter; stroke-linecap: square"/>
   </g>
   <g id="patch_4">
    <path d="M 777.6 256.32 
L 777.6 34.56 
" style="fill: none; stroke: #000000; stroke-width: 0.8; stroke-linejoin: miter; stroke-linecap: square"/>
   </g>
   <g id="patch_5">
    <path d="M 108 256.32 
L 777.6 256.32 
" style="fill: none; stroke: #000000; stroke-width: 0.8; stroke-linejoin: miter; stroke-linecap: square"/>
   </g>
   <g id="patch_6">
    <path d="M 108 34.56 
L 777.6 34.56 
" style="fill: none; stroke: #000000; stroke-width: 0.8; stroke-linejoin: miter; stroke-linecap: square"/>
   </g>
   <g id="legend_1">
    <g id="patch_7">
     <path d="M 695.098438 71.91625 
L 770.6 71.91625 
Q 772.6 71.91625 772.6 69.91625 
L 772.6 41.56 
Q 772.6 39.56 770.6 39.56 
L 695.098438 39.56 
Q 693.098438 39.56 693.098438 41.56 
L 693.098438 69.91625 
Q 693.098438 71.91625 695.098438 71.91625 
z
" style="fill: #ffffff; opacity: 0.8; stroke: #cccccc; stroke-linejoin: miter"/>
    </g>
    <g id="line2d_25">
     <path d="M 697.098438 47.658437 
L 707.098438 47.658437 
L 717.098438 47.658437 
" style="fill: none; stroke: #000000; stroke-width: 1.5; stroke-linecap: square"/>
    </g>
    <g id="text_14">
     <!-- Soma -->
     <g transform="translate(725.098438 51.158437) scale(0.1 -0.1)">
      <defs>
       <path id="DejaVuSans-53" d="M 3425 4513 
L 3425 3897 
Q 3066 4069 2747 4153 
Q 2428 4238 2131 4238 
Q 1616 4238 1336 4038 
Q 1056 3838 1056 3469 
Q 1056 3159 1242 3001 
Q 1428 2844 1947 2747 
L 2328 2669 
Q 3034 2534 3370 2195 
Q 3706 1856 3706 1288 
Q 3706 609 3251 259 
Q 2797 -91 1919 -91 
Q 1588 -91 1214 -16 
Q 841 59 441 206 
L 441 856 
Q 825 641 1194 531 
Q 1563 422 1919 422 
Q 2459 422 2753 634 
Q 3047 847 3047 1241 
Q 3047 1584 2836 1778 
Q 2625 1972 2144 2069 
L 1759 2144 
Q 1053 2284 737 2584 
Q 422 2884 422 3419 
Q 422 4038 858 4394 
Q 1294 4750 2059 4750 
Q 2388 4750 2728 4690 
Q 3069 4631 3425 4513 
z
" transform="scale(0.015625)"/>
       <path id="DejaVuSans-6f" d="M 1959 3097 
Q 1497 3097 1228 2736 
Q 959 2375 959 1747 
Q 959 1119 1226 758 
Q 1494 397 1959 397 
Q 2419 397 2687 759 
Q 2956 1122 2956 1747 
Q 2956 2369 2687 2733 
Q 2419 3097 1959 3097 
z
M 1959 3584 
Q 2709 3584 3137 3096 
Q 3566 2609 3566 1747 
Q 3566 888 3137 398 
Q 2709 -91 1959 -91 
Q 1206 -91 779 398 
Q 353 888 353 1747 
Q 353 2609 779 3096 
Q 1206 3584 1959 3584 
z
" transform="scale(0.015625)"/>
       <path id="DejaVuSans-61" d="M 2194 1759 
Q 1497 1759 1228 1600 
Q 959 1441 959 1056 
Q 959 750 1161 570 
Q 1363 391 1709 391 
Q 2188 391 2477 730 
Q 2766 1069 2766 1631 
L 2766 1759 
L 2194 1759 
z
M 3341 1997 
L 3341 0 
L 2766 0 
L 2766 531 
Q 2569 213 2275 61 
Q 1981 -91 1556 -91 
Q 1019 -91 701 211 
Q 384 513 384 1019 
Q 384 1609 779 1909 
Q 1175 2209 1959 2209 
L 2766 2209 
L 2766 2266 
Q 2766 2663 2505 2880 
Q 2244 3097 1772 3097 
Q 1472 3097 1187 3025 
Q 903 2953 641 2809 
L 641 3341 
Q 956 3463 1253 3523 
Q 1550 3584 1831 3584 
Q 2591 3584 2966 3190 
Q 3341 2797 3341 1997 
z
" transform="scale(0.015625)"/>
      </defs>
      <use xlink:href="#DejaVuSans-53"/>
      <use xlink:href="#DejaVuSans-6f" x="63.476562"/>
      <use xlink:href="#DejaVuSans-6d" x="124.658203"/>
      <use xlink:href="#DejaVuSans-61" x="222.070312"/>
     </g>
    </g>
    <g id="line2d_26">
     <path d="M 697.098438 62.336562 
L 707.098438 62.336562 
L 717.098438 62.336562 
" style="fill: none; stroke: #4169e1; stroke-width: 1.5; stroke-linecap: square"/>
    </g>
    <g id="text_15">
     <!-- Dendrite -->
     <g transform="translate(725.098438 65.836562) scale(0.1 -0.1)">
      <defs>
       <path id="DejaVuSans-44" d="M 1259 4147 
L 1259 519 
L 2022 519 
Q 2988 519 3436 956 
Q 3884 1394 3884 2338 
Q 3884 3275 3436 3711 
Q 2988 4147 2022 4147 
L 1259 4147 
z
M 628 4666 
L 1925 4666 
Q 3281 4666 3915 4102 
Q 4550 3538 4550 2338 
Q 4550 1131 3912 565 
Q 3275 0 1925 0 
L 628 0 
L 628 4666 
z
" transform="scale(0.015625)"/>
       <path id="DejaVuSans-6e" d="M 3513 2113 
L 3513 0 
L 2938 0 
L 2938 2094 
Q 2938 2591 2744 2837 
Q 2550 3084 2163 3084 
Q 1697 3084 1428 2787 
Q 1159 2491 1159 1978 
L 1159 0 
L 581 0 
L 581 3500 
L 1159 3500 
L 1159 2956 
Q 1366 3272 1645 3428 
Q 1925 3584 2291 3584 
Q 2894 3584 3203 3211 
Q 3513 2838 3513 2113 
z
" transform="scale(0.015625)"/>
       <path id="DejaVuSans-64" d="M 2906 2969 
L 2906 4863 
L 3481 4863 
L 3481 0 
L 2906 0 
L 2906 525 
Q 2725 213 2448 61 
Q 2172 -91 1784 -91 
Q 1150 -91 751 415 
Q 353 922 353 1747 
Q 353 2572 751 3078 
Q 1150 3584 1784 3584 
Q 2172 3584 2448 3432 
Q 2725 3281 2906 2969 
z
M 947 1747 
Q 947 1113 1208 752 
Q 1469 391 1925 391 
Q 2381 391 2643 752 
Q 2906 1113 2906 1747 
Q 2906 2381 2643 2742 
Q 2381 3103 1925 3103 
Q 1469 3103 1208 2742 
Q 947 2381 947 1747 
z
" transform="scale(0.015625)"/>
       <path id="DejaVuSans-72" d="M 2631 2963 
Q 2534 3019 2420 3045 
Q 2306 3072 2169 3072 
Q 1681 3072 1420 2755 
Q 1159 2438 1159 1844 
L 1159 0 
L 581 0 
L 581 3500 
L 1159 3500 
L 1159 2956 
Q 1341 3275 1631 3429 
Q 1922 3584 2338 3584 
Q 2397 3584 2469 3576 
Q 2541 3569 2628 3553 
L 2631 2963 
z
" transform="scale(0.015625)"/>
       <path id="DejaVuSans-74" d="M 1172 4494 
L 1172 3500 
L 2356 3500 
L 2356 3053 
L 1172 3053 
L 1172 1153 
Q 1172 725 1289 603 
Q 1406 481 1766 481 
L 2356 481 
L 2356 0 
L 1766 0 
Q 1100 0 847 248 
Q 594 497 594 1153 
L 594 3053 
L 172 3053 
L 172 3500 
L 594 3500 
L 594 4494 
L 1172 4494 
z
" transform="scale(0.015625)"/>
      </defs>
      <use xlink:href="#DejaVuSans-44"/>
      <use xlink:href="#DejaVuSans-65" x="77.001953"/>
      <use xlink:href="#DejaVuSans-6e" x="138.525391"/>
      <use xlink:href="#DejaVuSans-64" x="201.904297"/>
      <use xlink:href="#DejaVuSans-72" x="265.380859"/>
      <use xlink:href="#DejaVuSans-69" x="306.494141"/>
      <use xlink:href="#DejaVuSans-74" x="334.277344"/>
      <use xlink:href="#DejaVuSans-65" x="373.486328"/>
     </g>
    </g>
   </g>
  </g>
 </g>
 <defs>
  <clipPath id="p89ba5e8396">
   <rect x="108" y="34.56" width="669.6" height="221.76"/>
  </clipPath>
 </defs>
</svg>
